<?xml version="1.0" encoding="utf-8" standalone="no"?>
<!DOCTYPE svg PUBLIC "-//W3C//DTD SVG 1.1//EN"
  "http://www.w3.org/Graphics/SVG/1.1/DTD/svg11.dtd">
<!-- Created with matplotlib (http://matplotlib.org/) -->
<svg height="108pt" version="1.1" viewBox="0 0 216 108" width="216pt" xmlns="http://www.w3.org/2000/svg" xmlns:xlink="http://www.w3.org/1999/xlink">
 <defs>
  <style type="text/css">
*{stroke-linecap:butt;stroke-linejoin:round;}
  </style>
 </defs>
 <g id="figure_1">
  <g id="patch_1">
   <path d="M 0 108 
L 216 108 
L 216 0 
L 0 0 
z
" style="fill:#ffffff;"/>
  </g>
  <g id="axes_1">
   <g id="patch_2">
    <path d="M 27 94.5 
L 103.090909 94.5 
L 103.090909 12.96 
L 27 12.96 
z
" style="fill:#ffffff;"/>
   </g>
   <g id="LineCollection_1">
    <path clip-path="url(#p30fe5e0952)" d="M 21.932359 76.079264 
L 40.26251 76.079264 
" style="fill:none;stroke:#000000;stroke-width:0.5;"/>
    <path clip-path="url(#p30fe5e0952)" d="M 24.838282 73.223931 
L 32.144448 73.223931 
" style="fill:none;stroke:#000000;stroke-width:0.5;"/>
    <path clip-path="url(#p30fe5e0952)" d="M 26.924542 41.109772 
L 61.284687 41.109772 
" style="fill:none;stroke:#000000;stroke-width:0.5;"/>
    <path clip-path="url(#p30fe5e0952)" d="M 26.888038 94.202031 
L 27.266447 94.202031 
" style="fill:none;stroke:#000000;stroke-width:0.5;"/>
    <path clip-path="url(#p30fe5e0952)" d="M 26.309481 89.804384 
L 28.643295 89.804384 
" style="fill:none;stroke:#000000;stroke-width:0.5;"/>
    <path clip-path="url(#p30fe5e0952)" d="M 26.597006 92.579848 
L 28.182541 92.579848 
" style="fill:none;stroke:#000000;stroke-width:0.5;"/>
    <path clip-path="url(#p30fe5e0952)" d="M 25.72236 87.356889 
L 35.46613 87.356889 
" style="fill:none;stroke:#000000;stroke-width:0.5;"/>
    <path clip-path="url(#p30fe5e0952)" d="M 28.92687 61.157714 
L 41.225939 61.157714 
" style="fill:none;stroke:#000000;stroke-width:0.5;"/>
    <path clip-path="url(#p30fe5e0952)" d="M 32.669418 55.799967 
L 50.862947 55.799967 
" style="fill:none;stroke:#000000;stroke-width:0.5;"/>
    <path clip-path="url(#p30fe5e0952)" d="M 28.367844 45.327572 
L 31.174188 45.327572 
" style="fill:none;stroke:#000000;stroke-width:0.5;"/>
    <path clip-path="url(#p30fe5e0952)" d="M 27.910926 79.162695 
L 35.501556 79.162695 
" style="fill:none;stroke:#000000;stroke-width:0.5;"/>
    <path clip-path="url(#p30fe5e0952)" d="M 28.175264 40.873913 
L 58.964317 40.873913 
" style="fill:none;stroke:#000000;stroke-width:0.5;"/>
    <path clip-path="url(#p30fe5e0952)" d="M 26.058413 83.979539 
L 35.966466 83.979539 
" style="fill:none;stroke:#000000;stroke-width:0.5;"/>
    <path clip-path="url(#p30fe5e0952)" d="M 26.64502 90.247863 
L 29.03494 90.247863 
" style="fill:none;stroke:#000000;stroke-width:0.5;"/>
    <path clip-path="url(#p30fe5e0952)" d="M 26.073637 73.068971 
L 31.163249 73.068971 
" style="fill:none;stroke:#000000;stroke-width:0.5;"/>
    <path clip-path="url(#p30fe5e0952)" d="M 28.015342 81.18132 
L 36.09271 81.18132 
" style="fill:none;stroke:#000000;stroke-width:0.5;"/>
    <path clip-path="url(#p30fe5e0952)" d="M 25.56807 76.834062 
L 34.316647 76.834062 
" style="fill:none;stroke:#000000;stroke-width:0.5;"/>
    <path clip-path="url(#p30fe5e0952)" d="M 29.175193 80.862394 
L 37.37516 80.862394 
" style="fill:none;stroke:#000000;stroke-width:0.5;"/>
    <path clip-path="url(#p30fe5e0952)" d="M 24.225099 66.79122 
L 40.446522 66.79122 
" style="fill:none;stroke:#000000;stroke-width:0.5;"/>
    <path clip-path="url(#p30fe5e0952)" d="M 26.722147 93.555667 
L 28.289714 93.555667 
" style="fill:none;stroke:#000000;stroke-width:0.5;"/>
    <path clip-path="url(#p30fe5e0952)" d="M 32.636099 58.032608 
L 50.63334 58.032608 
" style="fill:none;stroke:#000000;stroke-width:0.5;"/>
    <path clip-path="url(#p30fe5e0952)" d="M 26.613702 73.669176 
L 28.434632 73.669176 
" style="fill:none;stroke:#000000;stroke-width:0.5;"/>
    <path clip-path="url(#p30fe5e0952)" d="M 31.865215 69.368969 
L 42.507617 69.368969 
" style="fill:none;stroke:#000000;stroke-width:0.5;"/>
    <path clip-path="url(#p30fe5e0952)" d="M 26.764755 71.936846 
L 27.893558 71.936846 
" style="fill:none;stroke:#000000;stroke-width:0.5;"/>
    <path clip-path="url(#p30fe5e0952)" d="M 26.17724 91.145262 
L 28.958002 91.145262 
" style="fill:none;stroke:#000000;stroke-width:0.5;"/>
    <path clip-path="url(#p30fe5e0952)" d="M 26.677013 82.493654 
L 36.806988 82.493654 
" style="fill:none;stroke:#000000;stroke-width:0.5;"/>
    <path clip-path="url(#p30fe5e0952)" d="M 31.436783 24.001115 
L 43.601065 24.001115 
" style="fill:none;stroke:#000000;stroke-width:0.5;"/>
    <path clip-path="url(#p30fe5e0952)" d="M 25.503507 68.14347 
L 51.365527 68.14347 
" style="fill:none;stroke:#000000;stroke-width:0.5;"/>
    <path clip-path="url(#p30fe5e0952)" d="M 27.438327 40.039807 
L 30.784665 40.039807 
" style="fill:none;stroke:#000000;stroke-width:0.5;"/>
    <path clip-path="url(#p30fe5e0952)" d="M 27.307153 87.295638 
L 30.128939 87.295638 
" style="fill:none;stroke:#000000;stroke-width:0.5;"/>
   </g>
   <g id="LineCollection_2">
    <path clip-path="url(#p30fe5e0952)" d="M 31.097435 86.164221 
L 31.097435 65.994308 
" style="fill:none;stroke:#000000;stroke-width:0.5;"/>
    <path clip-path="url(#p30fe5e0952)" d="M 28.491365 80.316013 
L 28.491365 66.13185 
" style="fill:none;stroke:#000000;stroke-width:0.5;"/>
    <path clip-path="url(#p30fe5e0952)" d="M 44.104614 63.477897 
L 44.104614 18.741648 
" style="fill:none;stroke:#000000;stroke-width:0.5;"/>
    <path clip-path="url(#p30fe5e0952)" d="M 27.077242 94.432837 
L 27.077242 93.971226 
" style="fill:none;stroke:#000000;stroke-width:0.5;"/>
    <path clip-path="url(#p30fe5e0952)" d="M 27.476388 92.104757 
L 27.476388 87.504012 
" style="fill:none;stroke:#000000;stroke-width:0.5;"/>
    <path clip-path="url(#p30fe5e0952)" d="M 27.389773 93.293641 
L 27.389773 91.866055 
" style="fill:none;stroke:#000000;stroke-width:0.5;"/>
    <path clip-path="url(#p30fe5e0952)" d="M 30.594245 92.94257 
L 30.594245 81.771208 
" style="fill:none;stroke:#000000;stroke-width:0.5;"/>
    <path clip-path="url(#p30fe5e0952)" d="M 35.076405 65.042213 
L 35.076405 57.273215 
" style="fill:none;stroke:#000000;stroke-width:0.5;"/>
    <path clip-path="url(#p30fe5e0952)" d="M 41.766183 67.500946 
L 41.766183 44.098987 
" style="fill:none;stroke:#000000;stroke-width:0.5;"/>
    <path clip-path="url(#p30fe5e0952)" d="M 29.771016 58.903391 
L 29.771016 31.751753 
" style="fill:none;stroke:#000000;stroke-width:0.5;"/>
    <path clip-path="url(#p30fe5e0952)" d="M 31.706241 79.162695 
L 31.706241 79.162695 
" style="fill:none;stroke:#000000;stroke-width:0.5;"/>
    <path clip-path="url(#p30fe5e0952)" d="M 43.56979 50.936996 
L 43.56979 30.810829 
" style="fill:none;stroke:#000000;stroke-width:0.5;"/>
    <path clip-path="url(#p30fe5e0952)" d="M 31.012439 87.672161 
L 31.012439 80.286918 
" style="fill:none;stroke:#000000;stroke-width:0.5;"/>
    <path clip-path="url(#p30fe5e0952)" d="M 27.83998 90.247863 
L 27.83998 90.247863 
" style="fill:none;stroke:#000000;stroke-width:0.5;"/>
    <path clip-path="url(#p30fe5e0952)" d="M 28.618443 82.266053 
L 28.618443 63.871889 
" style="fill:none;stroke:#000000;stroke-width:0.5;"/>
    <path clip-path="url(#p30fe5e0952)" d="M 32.054026 85.794217 
L 32.054026 76.568423 
" style="fill:none;stroke:#000000;stroke-width:0.5;"/>
    <path clip-path="url(#p30fe5e0952)" d="M 29.942359 80.989083 
L 29.942359 72.679041 
" style="fill:none;stroke:#000000;stroke-width:0.5;"/>
    <path clip-path="url(#p30fe5e0952)" d="M 33.275177 85.08564 
L 33.275177 76.639147 
" style="fill:none;stroke:#000000;stroke-width:0.5;"/>
    <path clip-path="url(#p30fe5e0952)" d="M 32.335811 78.832833 
L 32.335811 54.749607 
" style="fill:none;stroke:#000000;stroke-width:0.5;"/>
    <path clip-path="url(#p30fe5e0952)" d="M 27.50593 94.287144 
L 27.50593 92.824191 
" style="fill:none;stroke:#000000;stroke-width:0.5;"/>
    <path clip-path="url(#p30fe5e0952)" d="M 41.634719 64.52671 
L 41.634719 51.538506 
" style="fill:none;stroke:#000000;stroke-width:0.5;"/>
    <path clip-path="url(#p30fe5e0952)" d="M 27.524167 83.146488 
L 27.524167 64.191865 
" style="fill:none;stroke:#000000;stroke-width:0.5;"/>
    <path clip-path="url(#p30fe5e0952)" d="M 37.186416 75.880574 
L 37.186416 62.857364 
" style="fill:none;stroke:#000000;stroke-width:0.5;"/>
    <path clip-path="url(#p30fe5e0952)" d="M 27.329156 81.155936 
L 27.329156 62.717756 
" style="fill:none;stroke:#000000;stroke-width:0.5;"/>
    <path clip-path="url(#p30fe5e0952)" d="M 27.567621 92.788741 
L 27.567621 89.501783 
" style="fill:none;stroke:#000000;stroke-width:0.5;"/>
    <path clip-path="url(#p30fe5e0952)" d="M 31.742001 85.103625 
L 31.742001 79.883684 
" style="fill:none;stroke:#000000;stroke-width:0.5;"/>
    <path clip-path="url(#p30fe5e0952)" d="M 37.518924 31.16257 
L 37.518924 16.839659 
" style="fill:none;stroke:#000000;stroke-width:0.5;"/>
    <path clip-path="url(#p30fe5e0952)" d="M 38.434517 71.957024 
L 38.434517 64.329915 
" style="fill:none;stroke:#000000;stroke-width:0.5;"/>
    <path clip-path="url(#p30fe5e0952)" d="M 29.111496 59.340016 
L 29.111496 20.739598 
" style="fill:none;stroke:#000000;stroke-width:0.5;"/>
    <path clip-path="url(#p30fe5e0952)" d="M 28.718046 88.50943 
L 28.718046 86.081846 
" style="fill:none;stroke:#000000;stroke-width:0.5;"/>
   </g>
   <g id="line2d_1">
    <path clip-path="url(#p30fe5e0952)" d="M 27 83.875157 
L 27.768595 82.084235 
L 28.53719 80.293313 
L 29.305785 78.502391 
L 30.07438 76.711469 
L 30.842975 74.920547 
L 31.61157 73.129625 
L 32.380165 71.338704 
L 33.14876 69.547782 
L 33.917355 67.75686 
L 34.68595 65.965938 
L 35.454545 64.175016 
L 36.22314 62.384094 
L 36.991736 60.593172 
L 37.760331 58.80225 
L 38.528926 57.011328 
L 39.297521 55.220406 
L 40.066116 53.429484 
L 40.834711 51.638562 
L 41.603306 49.84764 
L 42.371901 48.056718 
L 43.140496 46.265796 
L 43.909091 44.474875 
L 44.677686 42.683953 
L 45.446281 40.893031 
L 46.214876 39.102109 
L 46.983471 37.311187 
L 47.752066 35.520265 
L 48.520661 33.729343 
L 49.289256 31.938421 
L 50.057851 30.147499 
L 50.826446 28.356577 
L 51.595041 26.565655 
L 52.363636 24.774733 
L 53.132231 22.983811 
L 53.900826 21.192889 
L 54.669421 19.401967 
L 55.438017 17.611046 
L 56.206612 15.820124 
L 56.975207 14.029202 
L 57.743802 12.23828 
L 58.512397 10.447358 
L 59.280992 8.656436 
L 60.049587 6.865514 
L 60.818182 5.074592 
L 61.586777 3.28367 
L 62.355372 1.492748 
L 63.123967 -0.298174 
L 63.425164 -1 
" style="fill:none;stroke:#000000;stroke-dasharray:1.85,0.8;stroke-dashoffset:0;stroke-width:0.5;"/>
   </g>
   <g id="line2d_2">
    <defs>
     <path d="M 0 3 
C 0.795609 3 1.55874 2.683901 2.12132 2.12132 
C 2.683901 1.55874 3 0.795609 3 0 
C 3 -0.795609 2.683901 -1.55874 2.12132 -2.12132 
C 1.55874 -2.683901 0.795609 -3 0 -3 
C -0.795609 -3 -1.55874 -2.683901 -2.12132 -2.12132 
C -2.683901 -1.55874 -3 -0.795609 -3 0 
C -3 0.795609 -2.683901 1.55874 -2.12132 2.12132 
C -1.55874 2.683901 -0.795609 3 0 3 
z
" id="meb01ee1889" style="stroke:#000000;"/>
    </defs>
    <g clip-path="url(#p30fe5e0952)">
     <use style="stroke:#000000;" x="31.097435" xlink:href="#meb01ee1889" y="76.079264"/>
     <use style="stroke:#000000;" x="28.491365" xlink:href="#meb01ee1889" y="73.223931"/>
     <use style="stroke:#000000;" x="44.104614" xlink:href="#meb01ee1889" y="41.109772"/>
     <use style="stroke:#000000;" x="27.077242" xlink:href="#meb01ee1889" y="94.202031"/>
     <use style="stroke:#000000;" x="27.476388" xlink:href="#meb01ee1889" y="89.804384"/>
     <use style="stroke:#000000;" x="27.389773" xlink:href="#meb01ee1889" y="92.579848"/>
     <use style="stroke:#000000;" x="30.594245" xlink:href="#meb01ee1889" y="87.356889"/>
     <use style="stroke:#000000;" x="35.076405" xlink:href="#meb01ee1889" y="61.157714"/>
     <use style="stroke:#000000;" x="41.766183" xlink:href="#meb01ee1889" y="55.799967"/>
     <use style="stroke:#000000;" x="29.771016" xlink:href="#meb01ee1889" y="45.327572"/>
     <use style="stroke:#000000;" x="31.706241" xlink:href="#meb01ee1889" y="79.162695"/>
     <use style="stroke:#000000;" x="43.56979" xlink:href="#meb01ee1889" y="40.873913"/>
     <use style="stroke:#000000;" x="31.012439" xlink:href="#meb01ee1889" y="83.979539"/>
     <use style="stroke:#000000;" x="27.83998" xlink:href="#meb01ee1889" y="90.247863"/>
     <use style="stroke:#000000;" x="28.618443" xlink:href="#meb01ee1889" y="73.068971"/>
     <use style="stroke:#000000;" x="32.054026" xlink:href="#meb01ee1889" y="81.18132"/>
     <use style="stroke:#000000;" x="29.942359" xlink:href="#meb01ee1889" y="76.834062"/>
     <use style="stroke:#000000;" x="33.275177" xlink:href="#meb01ee1889" y="80.862394"/>
     <use style="stroke:#000000;" x="32.335811" xlink:href="#meb01ee1889" y="66.79122"/>
     <use style="stroke:#000000;" x="27.50593" xlink:href="#meb01ee1889" y="93.555667"/>
     <use style="stroke:#000000;" x="41.634719" xlink:href="#meb01ee1889" y="58.032608"/>
     <use style="stroke:#000000;" x="27.524167" xlink:href="#meb01ee1889" y="73.669176"/>
     <use style="stroke:#000000;" x="37.186416" xlink:href="#meb01ee1889" y="69.368969"/>
     <use style="stroke:#000000;" x="27.329156" xlink:href="#meb01ee1889" y="71.936846"/>
     <use style="stroke:#000000;" x="27.567621" xlink:href="#meb01ee1889" y="91.145262"/>
     <use style="stroke:#000000;" x="31.742001" xlink:href="#meb01ee1889" y="82.493654"/>
     <use style="stroke:#000000;" x="37.518924" xlink:href="#meb01ee1889" y="24.001115"/>
     <use style="stroke:#000000;" x="38.434517" xlink:href="#meb01ee1889" y="68.14347"/>
     <use style="stroke:#000000;" x="29.111496" xlink:href="#meb01ee1889" y="40.039807"/>
     <use style="stroke:#000000;" x="28.718046" xlink:href="#meb01ee1889" y="87.295638"/>
    </g>
   </g>
   <g id="patch_3">
    <path d="M 27 94.5 
L 27 12.96 
" style="fill:none;stroke:#000000;stroke-linecap:square;stroke-linejoin:miter;"/>
   </g>
   <g id="patch_4">
    <path d="M 27 94.5 
L 103.090909 94.5 
" style="fill:none;stroke:#000000;stroke-linecap:square;stroke-linejoin:miter;"/>
   </g>
   <g id="matplotlib.axis_1">
    <g id="xtick_1">
     <g id="line2d_3"/>
     <g id="text_1">
      <text style="font-family:Arial;font-size:8px;font-style:normal;font-weight:normal;text-anchor:middle;" transform="rotate(-0, 27, 103.72625)" x="27" y="103.72625">0</text>
     </g>
    </g>
    <g id="xtick_2">
     <g id="line2d_4"/>
     <g id="text_2">
      <text style="font-family:Arial;font-size:8px;font-style:normal;font-weight:normal;text-anchor:middle;" transform="rotate(-0, 73.677529, 103.72625)" x="73.677529" y="103.72625">10</text>
     </g>
    </g>
    <g id="text_3">
     <text style="font-family:Arial;font-size:10px;font-style:normal;font-weight:normal;text-anchor:middle;" transform="rotate(-0, 65.045455, 116.474063)" x="65.045455" y="116.474063">Exc</text>
    </g>
   </g>
   <g id="matplotlib.axis_2">
    <g id="ytick_1">
     <g id="line2d_5"/>
     <g id="text_4">
      <text style="font-family:Arial;font-size:8px;font-style:normal;font-weight:normal;text-anchor:end;" transform="rotate(-0, 23.5, 97.363125)" x="23.5" y="97.363125">0</text>
     </g>
    </g>
    <g id="ytick_2">
     <g id="line2d_6"/>
     <g id="text_5">
      <text style="font-family:Arial;font-size:8px;font-style:normal;font-weight:normal;text-anchor:end;" transform="rotate(-0, 23.5, 72.353004)" x="23.5" y="72.353004">5</text>
     </g>
    </g>
    <g id="ytick_3">
     <g id="line2d_7"/>
     <g id="text_6">
      <text style="font-family:Arial;font-size:8px;font-style:normal;font-weight:normal;text-anchor:end;" transform="rotate(-0, 23.5, 47.342882)" x="23.5" y="47.342882">10</text>
     </g>
    </g>
    <g id="ytick_4">
     <g id="line2d_8"/>
     <g id="text_7">
      <text style="font-family:Arial;font-size:8px;font-style:normal;font-weight:normal;text-anchor:end;" transform="rotate(-0, 23.5, 22.332761)" x="23.5" y="22.332761">15</text>
     </g>
    </g>
    <g id="text_8">
     <text style="font-family:Arial;font-size:10px;font-style:normal;font-weight:normal;text-anchor:middle;" transform="rotate(-90, 8.615, 53.73)" x="8.615" y="53.73">Inh</text>
    </g>
   </g>
   <g id="legend_1">
    <g id="line2d_9">
     <path d="M 36 75.622656 
L 56 75.622656 
" style="fill:none;stroke:#000000;stroke-dasharray:1.85,0.8;stroke-dashoffset:0;stroke-width:0.5;"/>
    </g>
    <g id="line2d_10"/>
    <g id="text_9">
     <!-- $R^2$ 0.43 -->
     <g transform="translate(64 72.875)">
      <text>
       <tspan style="font-family:DejaVu Sans;font-size:10px;font-style:oblique;font-weight:oblique;" x="0" y="-0.9765625">R</tspan>
       <tspan style="font-family:DejaVu Sans;font-size:7px;font-style:book;font-weight:book;" x="7.650794" y="-4.8046875">2</tspan>
       <tspan style="font-family:Arial;font-size:10px;font-style:regular;font-weight:regular;" x="12.377845 15.156165 20.717689 23.496009 29.057533" y="-0.9765625"> 0.43</tspan>
      </text>
     </g>
     <text style="font-family:Arial;font-size:10px;font-style:normal;font-weight:normal;" transform="translate(64 83.4875)"> slope 2.17</text>
    </g>
   </g>
  </g>
  <g id="axes_2">
   <g id="patch_5">
    <path d="M 118.309091 94.5 
L 194.4 94.5 
L 194.4 12.96 
L 118.309091 12.96 
z
" style="fill:#ffffff;"/>
   </g>
   <g id="PathCollection_1">
    <defs>
     <path d="M 0 2.44949 
C 0.649612 2.44949 1.272706 2.191396 1.732051 1.732051 
C 2.191396 1.272706 2.44949 0.649612 2.44949 0 
C 2.44949 -0.649612 2.191396 -1.272706 1.732051 -1.732051 
C 1.272706 -2.191396 0.649612 -2.44949 0 -2.44949 
C -0.649612 -2.44949 -1.272706 -2.191396 -1.732051 -1.732051 
C -2.191396 -1.272706 -2.44949 -0.649612 -2.44949 0 
C -2.44949 0.649612 -2.191396 1.272706 -1.732051 1.732051 
C -1.272706 2.191396 -0.649612 2.44949 0 2.44949 
z
" id="m7bf7e32c81" style="stroke:#000000;"/>
    </defs>
    <g clip-path="url(#pfed7b73e8c)">
     <use style="stroke:#000000;" x="150.044436" xlink:href="#m7bf7e32c81" y="59.579438"/>
     <use style="stroke:#000000;" x="130.958399" xlink:href="#m7bf7e32c81" y="69.942682"/>
     <use style="stroke:#000000;" x="177.797477" xlink:href="#m7bf7e32c81" y="17.047263"/>
     <use style="stroke:#000000;" x="118.964237" xlink:href="#m7bf7e32c81" y="93.700804"/>
     <use style="stroke:#000000;" x="122.349669" xlink:href="#m7bf7e32c81" y="86.534641"/>
     <use style="stroke:#000000;" x="121.054158" xlink:href="#m7bf7e32c81" y="92.028392"/>
     <use style="stroke:#000000;" x="135.178669" xlink:href="#m7bf7e32c81" y="75.158805"/>
     <use style="stroke:#000000;" x="139.602708" xlink:href="#m7bf7e32c81" y="81.049383"/>
     <use style="stroke:#000000;" x="149.807902" xlink:href="#m7bf7e32c81" y="53.983735"/>
     <use style="stroke:#000000;" x="123.16777" xlink:href="#m7bf7e32c81" y="47.491841"/>
     <use style="stroke:#000000;" x="131.450896" xlink:href="#m7bf7e32c81" y="94.5"/>
     <use style="stroke:#000000;" x="171.614777" xlink:href="#m7bf7e32c81" y="59.655177"/>
     <use style="stroke:#000000;" x="135.463096" xlink:href="#m7bf7e32c81" y="81.713785"/>
     <use style="stroke:#000000;" x="122.446806" xlink:href="#m7bf7e32c81" y="94.5"/>
     <use style="stroke:#000000;" x="127.120836" xlink:href="#m7bf7e32c81" y="62.653826"/>
     <use style="stroke:#000000;" x="132.293595" xlink:href="#m7bf7e32c81" y="78.527202"/>
     <use style="stroke:#000000;" x="133.455672" xlink:href="#m7bf7e32c81" y="80.112662"/>
     <use style="stroke:#000000;" x="132.505855" xlink:href="#m7bf7e32c81" y="79.876423"/>
     <use style="stroke:#000000;" x="146.393556" xlink:href="#m7bf7e32c81" y="52.804244"/>
     <use style="stroke:#000000;" x="121.02305" xlink:href="#m7bf7e32c81" y="91.96716"/>
     <use style="stroke:#000000;" x="149.468064" xlink:href="#m7bf7e32c81" y="72.013269"/>
     <use style="stroke:#000000;" x="121.461702" xlink:href="#m7bf7e32c81" y="61.683494"/>
     <use style="stroke:#000000;" x="136.734489" xlink:href="#m7bf7e32c81" y="71.952664"/>
     <use style="stroke:#000000;" x="120.26341" xlink:href="#m7bf7e32c81" y="62.57762"/>
     <use style="stroke:#000000;" x="123.123478" xlink:href="#m7bf7e32c81" y="88.809225"/>
     <use style="stroke:#000000;" x="135.847312" xlink:href="#m7bf7e32c81" y="85.462614"/>
     <use style="stroke:#000000;" x="139.369348" xlink:href="#m7bf7e32c81" y="69.702465"/>
     <use style="stroke:#000000;" x="163.084509" xlink:href="#m7bf7e32c81" y="81.295037"/>
     <use style="stroke:#000000;" x="124.102672" xlink:href="#m7bf7e32c81" y="27.670346"/>
     <use style="stroke:#000000;" x="123.194504" xlink:href="#m7bf7e32c81" y="90.297077"/>
    </g>
   </g>
   <g id="line2d_11">
    <path clip-path="url(#pfed7b73e8c)" d="M 118.309091 82.028891 
L 119.077686 81.581999 
L 119.846281 81.135107 
L 120.614876 80.688215 
L 121.383471 80.241323 
L 122.152066 79.794431 
L 122.920661 79.347538 
L 123.689256 78.900646 
L 124.457851 78.453754 
L 125.226446 78.006862 
L 125.995041 77.55997 
L 126.763636 77.113078 
L 127.532231 76.666185 
L 128.300826 76.219293 
L 129.069421 75.772401 
L 129.838017 75.325509 
L 130.606612 74.878617 
L 131.375207 74.431725 
L 132.143802 73.984832 
L 132.912397 73.53794 
L 133.680992 73.091048 
L 134.449587 72.644156 
L 135.218182 72.197264 
L 135.986777 71.750372 
L 136.755372 71.303479 
L 137.523967 70.856587 
L 138.292562 70.409695 
L 139.061157 69.962803 
L 139.829752 69.515911 
L 140.598347 69.069019 
L 141.366942 68.622126 
L 142.135537 68.175234 
L 142.904132 67.728342 
L 143.672727 67.28145 
L 144.441322 66.834558 
L 145.209917 66.387666 
L 145.978512 65.940773 
L 146.747107 65.493881 
L 147.515702 65.046989 
L 148.284298 64.600097 
L 149.052893 64.153205 
L 149.821488 63.706313 
L 150.590083 63.25942 
L 151.358678 62.812528 
L 152.127273 62.365636 
L 152.895868 61.918744 
L 153.664463 61.471852 
L 154.433058 61.02496 
L 155.201653 60.578067 
L 155.970248 60.131175 
L 156.738843 59.684283 
L 157.507438 59.237391 
L 158.276033 58.790499 
L 159.044628 58.343607 
L 159.813223 57.896714 
L 160.581818 57.449822 
L 161.350413 57.00293 
L 162.119008 56.556038 
L 162.887603 56.109146 
L 163.656198 55.662254 
L 164.424793 55.215361 
L 165.193388 54.768469 
L 165.961983 54.321577 
L 166.730579 53.874685 
L 167.499174 53.427793 
L 168.267769 52.980901 
L 169.036364 52.534008 
L 169.804959 52.087116 
L 170.573554 51.640224 
L 171.342149 51.193332 
L 172.110744 50.74644 
L 172.879339 50.299548 
L 173.647934 49.852655 
L 174.416529 49.405763 
L 175.185124 48.958871 
L 175.953719 48.511979 
L 176.722314 48.065087 
L 177.490909 47.618195 
L 178.259504 47.171302 
L 179.028099 46.72441 
L 179.796694 46.277518 
L 180.565289 45.830626 
L 181.333884 45.383734 
L 182.102479 44.936841 
L 182.871074 44.489949 
L 183.639669 44.043057 
L 184.408264 43.596165 
L 185.17686 43.149273 
L 185.945455 42.702381 
L 186.71405 42.255488 
L 187.482645 41.808596 
L 188.25124 41.361704 
L 189.019835 40.914812 
L 189.78843 40.46792 
L 190.557025 40.021028 
L 191.32562 39.574135 
L 192.094215 39.127243 
L 192.86281 38.680351 
L 193.631405 38.233459 
L 194.4 37.786567 
" style="fill:none;stroke:#000000;stroke-dasharray:1.85,0.8;stroke-dashoffset:0;stroke-width:0.5;"/>
   </g>
   <g id="patch_6">
    <path d="M 118.309091 94.5 
L 118.309091 12.96 
" style="fill:none;stroke:#000000;stroke-linecap:square;stroke-linejoin:miter;"/>
   </g>
   <g id="patch_7">
    <path d="M 118.309091 94.5 
L 194.4 94.5 
" style="fill:none;stroke:#000000;stroke-linecap:square;stroke-linejoin:miter;"/>
   </g>
   <g id="matplotlib.axis_3">
    <g id="xtick_3">
     <g id="line2d_12"/>
     <g id="text_10">
      <text style="font-family:Arial;font-size:8px;font-style:normal;font-weight:normal;text-anchor:middle;" transform="rotate(-0, 118.309091, 103.72625)" x="118.309091" y="103.72625">0</text>
     </g>
    </g>
    <g id="xtick_4">
     <g id="line2d_13"/>
     <g id="text_11">
      <text style="font-family:Arial;font-size:8px;font-style:normal;font-weight:normal;text-anchor:middle;" transform="rotate(-0, 150.634576, 103.72625)" x="150.634576" y="103.72625">2</text>
     </g>
    </g>
    <g id="xtick_5">
     <g id="line2d_14"/>
     <g id="text_12">
      <text style="font-family:Arial;font-size:8px;font-style:normal;font-weight:normal;text-anchor:middle;" transform="rotate(-0, 182.960062, 103.72625)" x="182.960062" y="103.72625">4</text>
     </g>
    </g>
    <g id="text_13">
     <!-- $\sigma$(Exc) -->
     <g transform="translate(141.504545 116.61625)">
      <text>
       <tspan style="font-family:DejaVu Sans;font-size:10px;font-style:oblique;font-weight:oblique;" x="0" y="-0.71875">σ</tspan>
       <tspan style="font-family:Arial;font-size:10px;font-style:regular;font-weight:regular;" x="6.337891 9.667969 16.337891 21.337891 26.337891" y="-0.71875">(Exc)</tspan>
      </text>
     </g>
    </g>
   </g>
   <g id="matplotlib.axis_4">
    <g id="ytick_5">
     <g id="line2d_15"/>
     <g id="text_14">
      <text style="font-family:Arial;font-size:8px;font-style:normal;font-weight:normal;text-anchor:end;" transform="rotate(-0, 114.809091, 97.363125)" x="114.809091" y="97.363125">0</text>
     </g>
    </g>
    <g id="ytick_6">
     <g id="line2d_16"/>
     <g id="text_15">
      <text style="font-family:Arial;font-size:8px;font-style:normal;font-weight:normal;text-anchor:end;" transform="rotate(-0, 114.809091, 80.042921)" x="114.809091" y="80.042921">1</text>
     </g>
    </g>
    <g id="ytick_7">
     <g id="line2d_17"/>
     <g id="text_16">
      <text style="font-family:Arial;font-size:8px;font-style:normal;font-weight:normal;text-anchor:end;" transform="rotate(-0, 114.809091, 62.722718)" x="114.809091" y="62.722718">2</text>
     </g>
    </g>
    <g id="ytick_8">
     <g id="line2d_18"/>
     <g id="text_17">
      <text style="font-family:Arial;font-size:8px;font-style:normal;font-weight:normal;text-anchor:end;" transform="rotate(-0, 114.809091, 45.402514)" x="114.809091" y="45.402514">3</text>
     </g>
    </g>
    <g id="ytick_9">
     <g id="line2d_19"/>
     <g id="text_18">
      <text style="font-family:Arial;font-size:8px;font-style:normal;font-weight:normal;text-anchor:end;" transform="rotate(-0, 114.809091, 28.082311)" x="114.809091" y="28.082311">4</text>
     </g>
    </g>
    <g id="text_19">
     <!-- $\sigma$(Inh) -->
     <g transform="translate(104.160341 67.18)rotate(-90)">
      <text>
       <tspan style="font-family:DejaVu Sans;font-size:10px;font-style:oblique;font-weight:oblique;" x="0" y="-0.71875">σ</tspan>
       <tspan style="font-family:Arial;font-size:10px;font-style:regular;font-weight:regular;" x="6.337891 9.667969 12.446289 18.007812 23.569336" y="-0.71875">(Inh)</tspan>
      </text>
     </g>
    </g>
   </g>
   <g id="legend_2">
    <g id="line2d_20">
     <path d="M 108.478125 31.995156 
L 128.478125 31.995156 
" style="fill:none;stroke:#000000;stroke-dasharray:1.85,0.8;stroke-dashoffset:0;stroke-width:0.5;"/>
    </g>
    <g id="line2d_21"/>
    <g id="text_20">
     <!-- $R^2$ 0.22 -->
     <g transform="translate(136.478125 29.2475)">
      <text>
       <tspan style="font-family:DejaVu Sans;font-size:10px;font-style:oblique;font-weight:oblique;" x="0" y="-0.9765625">R</tspan>
       <tspan style="font-family:DejaVu Sans;font-size:7px;font-style:book;font-weight:book;" x="7.650794" y="-4.8046875">2</tspan>
       <tspan style="font-family:Arial;font-size:10px;font-style:regular;font-weight:regular;" x="12.377845 15.156165 20.717689 23.496009 29.057533" y="-0.9765625"> 0.22</tspan>
      </text>
     </g>
     <text style="font-family:Arial;font-size:10px;font-style:normal;font-weight:normal;" transform="translate(136.478125 39.86)"> slope 0.54</text>
    </g>
   </g>
  </g>
 </g>
 <defs>
  <clipPath id="p30fe5e0952">
   <rect height="81.54" width="76.090909" x="27" y="12.96"/>
  </clipPath>
  <clipPath id="pfed7b73e8c">
   <rect height="81.54" width="76.090909" x="118.309091" y="12.96"/>
  </clipPath>
 </defs>
</svg>
