<?xml version="1.0" encoding="utf-8" standalone="no"?>
<!DOCTYPE svg PUBLIC "-//W3C//DTD SVG 1.1//EN"
  "http://www.w3.org/Graphics/SVG/1.1/DTD/svg11.dtd">
<!-- Created with matplotlib (http://matplotlib.org/) -->
<svg height="108pt" version="1.1" viewBox="0 0 216 108" width="216pt" xmlns="http://www.w3.org/2000/svg" xmlns:xlink="http://www.w3.org/1999/xlink">
 <defs>
  <style type="text/css">
*{stroke-linecap:butt;stroke-linejoin:round;}
  </style>
 </defs>
 <g id="figure_1">
  <g id="patch_1">
   <path d="M 0 108 
L 216 108 
L 216 0 
L 0 0 
z
" style="fill:#ffffff;"/>
  </g>
  <g id="axes_1">
   <g id="patch_2">
    <path d="M 27 94.5 
L 103.090909 94.5 
L 103.090909 12.96 
L 27 12.96 
z
" style="fill:#ffffff;"/>
   </g>
   <g id="LineCollection_1">
    <path clip-path="url(#pa1b442d860)" d="M 26.985284 47.505611 
L 45.314183 47.505611 
" style="fill:none;stroke:#000000;stroke-width:0.5;"/>
    <path clip-path="url(#pa1b442d860)" d="M 25.339568 71.0766 
L 36.104798 71.0766 
" style="fill:none;stroke:#000000;stroke-width:0.5;"/>
    <path clip-path="url(#pa1b442d860)" d="M 23.608539 44.533362 
L 45.286089 44.533362 
" style="fill:none;stroke:#000000;stroke-width:0.5;"/>
    <path clip-path="url(#pa1b442d860)" d="M 21.136735 35.326327 
L 67.81428 35.326327 
" style="fill:none;stroke:#000000;stroke-width:0.5;"/>
    <path clip-path="url(#pa1b442d860)" d="M 26.354179 68.369996 
L 33.448906 68.369996 
" style="fill:none;stroke:#000000;stroke-width:0.5;"/>
    <path clip-path="url(#pa1b442d860)" d="M 27.848057 63.316814 
L 33.883257 63.316814 
" style="fill:none;stroke:#000000;stroke-width:0.5;"/>
    <path clip-path="url(#pa1b442d860)" d="M 35.333043 57.454294 
L 58.716931 57.454294 
" style="fill:none;stroke:#000000;stroke-width:0.5;"/>
    <path clip-path="url(#pa1b442d860)" d="M 25.237664 56.577291 
L 55.028581 56.577291 
" style="fill:none;stroke:#000000;stroke-width:0.5;"/>
    <path clip-path="url(#pa1b442d860)" d="M 31.146807 80.081631 
L 39.375746 80.081631 
" style="fill:none;stroke:#000000;stroke-width:0.5;"/>
    <path clip-path="url(#pa1b442d860)" d="M 27.1531 84.402711 
L 30.083795 84.402711 
" style="fill:none;stroke:#000000;stroke-width:0.5;"/>
    <path clip-path="url(#pa1b442d860)" d="M 26.642241 81.624434 
L 28.66061 81.624434 
" style="fill:none;stroke:#000000;stroke-width:0.5;"/>
    <path clip-path="url(#pa1b442d860)" d="M 26.615987 49.718486 
L 37.524589 49.718486 
" style="fill:none;stroke:#000000;stroke-width:0.5;"/>
    <path clip-path="url(#pa1b442d860)" d="M 25.939182 65.531476 
L 39.337246 65.531476 
" style="fill:none;stroke:#000000;stroke-width:0.5;"/>
    <path clip-path="url(#pa1b442d860)" d="M 28.919897 69.145863 
L 36.146907 69.145863 
" style="fill:none;stroke:#000000;stroke-width:0.5;"/>
    <path clip-path="url(#pa1b442d860)" d="M 27.464516 51.817522 
L 47.802867 51.817522 
" style="fill:none;stroke:#000000;stroke-width:0.5;"/>
    <path clip-path="url(#pa1b442d860)" d="M 26.781648 91.56403 
L 31.793794 91.56403 
" style="fill:none;stroke:#000000;stroke-width:0.5;"/>
    <path clip-path="url(#pa1b442d860)" d="M 19.904216 52.836495 
L 50.845772 52.836495 
" style="fill:none;stroke:#000000;stroke-width:0.5;"/>
    <path clip-path="url(#pa1b442d860)" d="M 26.89287 86.049621 
L 29.35198 86.049621 
" style="fill:none;stroke:#000000;stroke-width:0.5;"/>
    <path clip-path="url(#pa1b442d860)" d="M 27.58032 63.952465 
L 41.601852 63.952465 
" style="fill:none;stroke:#000000;stroke-width:0.5;"/>
    <path clip-path="url(#pa1b442d860)" d="M 27.249169 79.539012 
L 32.955306 79.539012 
" style="fill:none;stroke:#000000;stroke-width:0.5;"/>
    <path clip-path="url(#pa1b442d860)" d="M 31.716818 56.412427 
L 46.980251 56.412427 
" style="fill:none;stroke:#000000;stroke-width:0.5;"/>
    <path clip-path="url(#pa1b442d860)" d="M 26.359675 56.916643 
L 28.523842 56.916643 
" style="fill:none;stroke:#000000;stroke-width:0.5;"/>
    <path clip-path="url(#pa1b442d860)" d="M 28.758898 85.573423 
L 35.342506 85.573423 
" style="fill:none;stroke:#000000;stroke-width:0.5;"/>
    <path clip-path="url(#pa1b442d860)" d="M 27.303749 38.915711 
L 43.511585 38.915711 
" style="fill:none;stroke:#000000;stroke-width:0.5;"/>
    <path clip-path="url(#pa1b442d860)" d="M 27.312504 90.601084 
L 30.35215 90.601084 
" style="fill:none;stroke:#000000;stroke-width:0.5;"/>
    <path clip-path="url(#pa1b442d860)" d="M 24.70591 61.077739 
L 35.01194 61.077739 
" style="fill:none;stroke:#000000;stroke-width:0.5;"/>
    <path clip-path="url(#pa1b442d860)" d="M 27.599005 49.365738 
L 35.251808 49.365738 
" style="fill:none;stroke:#000000;stroke-width:0.5;"/>
    <path clip-path="url(#pa1b442d860)" d="M 30.560232 37.718525 
L 41.259842 37.718525 
" style="fill:none;stroke:#000000;stroke-width:0.5;"/>
    <path clip-path="url(#pa1b442d860)" d="M 25.506656 87.068118 
L 31.812439 87.068118 
" style="fill:none;stroke:#000000;stroke-width:0.5;"/>
    <path clip-path="url(#pa1b442d860)" d="M 25.354668 66.600993 
L 33.867218 66.600993 
" style="fill:none;stroke:#000000;stroke-width:0.5;"/>
   </g>
   <g id="LineCollection_2">
    <path clip-path="url(#pa1b442d860)" d="M 36.149733 66.954055 
L 36.149733 28.057168 
" style="fill:none;stroke:#000000;stroke-width:0.5;"/>
    <path clip-path="url(#pa1b442d860)" d="M 30.722183 79.475315 
L 30.722183 62.677885 
" style="fill:none;stroke:#000000;stroke-width:0.5;"/>
    <path clip-path="url(#pa1b442d860)" d="M 34.447314 57.792386 
L 34.447314 31.274337 
" style="fill:none;stroke:#000000;stroke-width:0.5;"/>
    <path clip-path="url(#pa1b442d860)" d="M 44.475508 53.841311 
L 44.475508 16.811344 
" style="fill:none;stroke:#000000;stroke-width:0.5;"/>
    <path clip-path="url(#pa1b442d860)" d="M 29.901542 87.958712 
L 29.901542 48.78128 
" style="fill:none;stroke:#000000;stroke-width:0.5;"/>
    <path clip-path="url(#pa1b442d860)" d="M 30.865657 74.133804 
L 30.865657 52.499824 
" style="fill:none;stroke:#000000;stroke-width:0.5;"/>
    <path clip-path="url(#pa1b442d860)" d="M 47.024987 60.836651 
L 47.024987 54.071937 
" style="fill:none;stroke:#000000;stroke-width:0.5;"/>
    <path clip-path="url(#pa1b442d860)" d="M 40.133122 73.040396 
L 40.133122 40.114185 
" style="fill:none;stroke:#000000;stroke-width:0.5;"/>
    <path clip-path="url(#pa1b442d860)" d="M 35.261276 83.964471 
L 35.261276 76.198792 
" style="fill:none;stroke:#000000;stroke-width:0.5;"/>
    <path clip-path="url(#pa1b442d860)" d="M 28.618447 85.899569 
L 28.618447 82.905853 
" style="fill:none;stroke:#000000;stroke-width:0.5;"/>
    <path clip-path="url(#pa1b442d860)" d="M 27.651426 88.340008 
L 27.651426 74.90886 
" style="fill:none;stroke:#000000;stroke-width:0.5;"/>
    <path clip-path="url(#pa1b442d860)" d="M 32.070288 58.263966 
L 32.070288 41.173005 
" style="fill:none;stroke:#000000;stroke-width:0.5;"/>
    <path clip-path="url(#pa1b442d860)" d="M 32.638214 71.476297 
L 32.638214 59.586654 
" style="fill:none;stroke:#000000;stroke-width:0.5;"/>
    <path clip-path="url(#pa1b442d860)" d="M 32.533402 76.968872 
L 32.533402 61.322853 
" style="fill:none;stroke:#000000;stroke-width:0.5;"/>
    <path clip-path="url(#pa1b442d860)" d="M 37.633692 61.143654 
L 37.633692 42.491391 
" style="fill:none;stroke:#000000;stroke-width:0.5;"/>
    <path clip-path="url(#pa1b442d860)" d="M 29.287721 93.838223 
L 29.287721 89.289838 
" style="fill:none;stroke:#000000;stroke-width:0.5;"/>
    <path clip-path="url(#pa1b442d860)" d="M 35.374994 72.28351 
L 35.374994 33.38948 
" style="fill:none;stroke:#000000;stroke-width:0.5;"/>
    <path clip-path="url(#pa1b442d860)" d="M 28.122425 92.595257 
L 28.122425 79.503986 
" style="fill:none;stroke:#000000;stroke-width:0.5;"/>
    <path clip-path="url(#pa1b442d860)" d="M 34.591086 73.087736 
L 34.591086 54.817194 
" style="fill:none;stroke:#000000;stroke-width:0.5;"/>
    <path clip-path="url(#pa1b442d860)" d="M 30.102237 85.827459 
L 30.102237 73.250566 
" style="fill:none;stroke:#000000;stroke-width:0.5;"/>
    <path clip-path="url(#pa1b442d860)" d="M 39.348534 62.791306 
L 39.348534 50.033548 
" style="fill:none;stroke:#000000;stroke-width:0.5;"/>
    <path clip-path="url(#pa1b442d860)" d="M 27.441759 71.076884 
L 27.441759 42.756403 
" style="fill:none;stroke:#000000;stroke-width:0.5;"/>
    <path clip-path="url(#pa1b442d860)" d="M 32.050702 89.900557 
L 32.050702 81.246289 
" style="fill:none;stroke:#000000;stroke-width:0.5;"/>
    <path clip-path="url(#pa1b442d860)" d="M 35.407667 47.166759 
L 35.407667 30.664662 
" style="fill:none;stroke:#000000;stroke-width:0.5;"/>
    <path clip-path="url(#pa1b442d860)" d="M 28.832327 91.844279 
L 28.832327 89.357888 
" style="fill:none;stroke:#000000;stroke-width:0.5;"/>
    <path clip-path="url(#pa1b442d860)" d="M 29.858925 71.619099 
L 29.858925 50.536378 
" style="fill:none;stroke:#000000;stroke-width:0.5;"/>
    <path clip-path="url(#pa1b442d860)" d="M 31.425406 57.722049 
L 31.425406 41.009427 
" style="fill:none;stroke:#000000;stroke-width:0.5;"/>
    <path clip-path="url(#pa1b442d860)" d="M 35.910037 46.207927 
L 35.910037 29.229123 
" style="fill:none;stroke:#000000;stroke-width:0.5;"/>
    <path clip-path="url(#pa1b442d860)" d="M 28.659548 91.103424 
L 28.659548 83.032811 
" style="fill:none;stroke:#000000;stroke-width:0.5;"/>
    <path clip-path="url(#pa1b442d860)" d="M 29.610943 75.45424 
L 29.610943 57.747746 
" style="fill:none;stroke:#000000;stroke-width:0.5;"/>
   </g>
   <g id="line2d_1">
    <path clip-path="url(#pa1b442d860)" d="M 27 77.145444 
L 27.768595 75.56124 
L 28.53719 73.977036 
L 29.305785 72.392831 
L 30.07438 70.808627 
L 30.842975 69.224423 
L 31.61157 67.640219 
L 32.380165 66.056014 
L 33.14876 64.47181 
L 33.917355 62.887606 
L 34.68595 61.303401 
L 35.454545 59.719197 
L 36.22314 58.134993 
L 36.991736 56.550789 
L 37.760331 54.966584 
L 38.528926 53.38238 
L 39.297521 51.798176 
L 40.066116 50.213971 
L 40.834711 48.629767 
L 41.603306 47.045563 
L 42.371901 45.461358 
L 43.140496 43.877154 
L 43.909091 42.29295 
L 44.677686 40.708746 
L 45.446281 39.124541 
L 46.214876 37.540337 
L 46.983471 35.956133 
L 47.752066 34.371928 
L 48.520661 32.787724 
L 49.289256 31.20352 
L 50.057851 29.619316 
L 50.826446 28.035111 
L 51.595041 26.450907 
L 52.363636 24.866703 
L 53.132231 23.282498 
L 53.900826 21.698294 
L 54.669421 20.11409 
L 55.438017 18.529885 
L 56.206612 16.945681 
L 56.975207 15.361477 
L 57.743802 13.777273 
L 58.512397 12.193068 
L 59.280992 10.608864 
L 60.049587 9.02466 
L 60.818182 7.440455 
L 61.586777 5.856251 
L 62.355372 4.272047 
L 63.123967 2.687843 
L 63.892562 1.103638 
L 64.661157 -0.480566 
L 64.913166 -1 
" style="fill:none;stroke:#000000;stroke-dasharray:1.85,0.8;stroke-dashoffset:0;stroke-width:0.5;"/>
   </g>
   <g id="line2d_2">
    <defs>
     <path d="M 0 3 
C 0.795609 3 1.55874 2.683901 2.12132 2.12132 
C 2.683901 1.55874 3 0.795609 3 0 
C 3 -0.795609 2.683901 -1.55874 2.12132 -2.12132 
C 1.55874 -2.683901 0.795609 -3 0 -3 
C -0.795609 -3 -1.55874 -2.683901 -2.12132 -2.12132 
C -2.683901 -1.55874 -3 -0.795609 -3 0 
C -3 0.795609 -2.683901 1.55874 -2.12132 2.12132 
C -1.55874 2.683901 -0.795609 3 0 3 
z
" id="m01d2bac942" style="stroke:#000000;"/>
    </defs>
    <g clip-path="url(#pa1b442d860)">
     <use style="stroke:#000000;" x="36.149733" xlink:href="#m01d2bac942" y="47.505611"/>
     <use style="stroke:#000000;" x="30.722183" xlink:href="#m01d2bac942" y="71.0766"/>
     <use style="stroke:#000000;" x="34.447314" xlink:href="#m01d2bac942" y="44.533362"/>
     <use style="stroke:#000000;" x="44.475508" xlink:href="#m01d2bac942" y="35.326327"/>
     <use style="stroke:#000000;" x="29.901542" xlink:href="#m01d2bac942" y="68.369996"/>
     <use style="stroke:#000000;" x="30.865657" xlink:href="#m01d2bac942" y="63.316814"/>
     <use style="stroke:#000000;" x="47.024987" xlink:href="#m01d2bac942" y="57.454294"/>
     <use style="stroke:#000000;" x="40.133122" xlink:href="#m01d2bac942" y="56.577291"/>
     <use style="stroke:#000000;" x="35.261276" xlink:href="#m01d2bac942" y="80.081631"/>
     <use style="stroke:#000000;" x="28.618447" xlink:href="#m01d2bac942" y="84.402711"/>
     <use style="stroke:#000000;" x="27.651426" xlink:href="#m01d2bac942" y="81.624434"/>
     <use style="stroke:#000000;" x="32.070288" xlink:href="#m01d2bac942" y="49.718486"/>
     <use style="stroke:#000000;" x="32.638214" xlink:href="#m01d2bac942" y="65.531476"/>
     <use style="stroke:#000000;" x="32.533402" xlink:href="#m01d2bac942" y="69.145863"/>
     <use style="stroke:#000000;" x="37.633692" xlink:href="#m01d2bac942" y="51.817522"/>
     <use style="stroke:#000000;" x="29.287721" xlink:href="#m01d2bac942" y="91.56403"/>
     <use style="stroke:#000000;" x="35.374994" xlink:href="#m01d2bac942" y="52.836495"/>
     <use style="stroke:#000000;" x="28.122425" xlink:href="#m01d2bac942" y="86.049621"/>
     <use style="stroke:#000000;" x="34.591086" xlink:href="#m01d2bac942" y="63.952465"/>
     <use style="stroke:#000000;" x="30.102237" xlink:href="#m01d2bac942" y="79.539012"/>
     <use style="stroke:#000000;" x="39.348534" xlink:href="#m01d2bac942" y="56.412427"/>
     <use style="stroke:#000000;" x="27.441759" xlink:href="#m01d2bac942" y="56.916643"/>
     <use style="stroke:#000000;" x="32.050702" xlink:href="#m01d2bac942" y="85.573423"/>
     <use style="stroke:#000000;" x="35.407667" xlink:href="#m01d2bac942" y="38.915711"/>
     <use style="stroke:#000000;" x="28.832327" xlink:href="#m01d2bac942" y="90.601084"/>
     <use style="stroke:#000000;" x="29.858925" xlink:href="#m01d2bac942" y="61.077739"/>
     <use style="stroke:#000000;" x="31.425406" xlink:href="#m01d2bac942" y="49.365738"/>
     <use style="stroke:#000000;" x="35.910037" xlink:href="#m01d2bac942" y="37.718525"/>
     <use style="stroke:#000000;" x="28.659548" xlink:href="#m01d2bac942" y="87.068118"/>
     <use style="stroke:#000000;" x="29.610943" xlink:href="#m01d2bac942" y="66.600993"/>
    </g>
   </g>
   <g id="patch_3">
    <path d="M 27 94.5 
L 27 12.96 
" style="fill:none;stroke:#000000;stroke-linecap:square;stroke-linejoin:miter;"/>
   </g>
   <g id="patch_4">
    <path d="M 27 94.5 
L 103.090909 94.5 
" style="fill:none;stroke:#000000;stroke-linecap:square;stroke-linejoin:miter;"/>
   </g>
   <g id="matplotlib.axis_1">
    <g id="xtick_1">
     <g id="line2d_3"/>
     <g id="text_1">
      <text style="font-family:Arial;font-size:8px;font-style:normal;font-weight:normal;text-anchor:middle;" transform="rotate(-0, 27, 103.72625)" x="27" y="103.72625">0</text>
     </g>
    </g>
    <g id="xtick_2">
     <g id="line2d_4"/>
     <g id="text_2">
      <text style="font-family:Arial;font-size:8px;font-style:normal;font-weight:normal;text-anchor:middle;" transform="rotate(-0, 64.367817, 103.72625)" x="64.367817" y="103.72625">5</text>
     </g>
    </g>
    <g id="xtick_3">
     <g id="line2d_5"/>
     <g id="text_3">
      <text style="font-family:Arial;font-size:8px;font-style:normal;font-weight:normal;text-anchor:middle;" transform="rotate(-0, 101.735633, 103.72625)" x="101.735633" y="103.72625">10</text>
     </g>
    </g>
    <g id="text_4">
     <text style="font-family:Arial;font-size:10px;font-style:normal;font-weight:normal;text-anchor:middle;" transform="rotate(-0, 65.045455, 116.474063)" x="65.045455" y="116.474063">Exc</text>
    </g>
   </g>
   <g id="matplotlib.axis_2">
    <g id="ytick_1">
     <g id="line2d_6"/>
     <g id="text_5">
      <text style="font-family:Arial;font-size:8px;font-style:normal;font-weight:normal;text-anchor:end;" transform="rotate(-0, 23.5, 97.363125)" x="23.5" y="97.363125">0.0</text>
     </g>
    </g>
    <g id="ytick_2">
     <g id="line2d_7"/>
     <g id="text_6">
      <text style="font-family:Arial;font-size:8px;font-style:normal;font-weight:normal;text-anchor:end;" transform="rotate(-0, 23.5, 77.341208)" x="23.5" y="77.341208">2.5</text>
     </g>
    </g>
    <g id="ytick_3">
     <g id="line2d_8"/>
     <g id="text_7">
      <text style="font-family:Arial;font-size:8px;font-style:normal;font-weight:normal;text-anchor:end;" transform="rotate(-0, 23.5, 57.319291)" x="23.5" y="57.319291">5.0</text>
     </g>
    </g>
    <g id="ytick_4">
     <g id="line2d_9"/>
     <g id="text_8">
      <text style="font-family:Arial;font-size:8px;font-style:normal;font-weight:normal;text-anchor:end;" transform="rotate(-0, 23.5, 37.297373)" x="23.5" y="37.297373">7.5</text>
     </g>
    </g>
    <g id="ytick_5">
     <g id="line2d_10"/>
     <g id="text_9">
      <text style="font-family:Arial;font-size:8px;font-style:normal;font-weight:normal;text-anchor:end;" transform="rotate(-0, 23.5, 17.275456)" x="23.5" y="17.275456">10.0</text>
     </g>
    </g>
    <g id="text_10">
     <text style="font-family:Arial;font-size:10px;font-style:normal;font-weight:normal;text-anchor:middle;" transform="rotate(-90, 1.94375, 53.73)" x="1.94375" y="53.73">Inh</text>
    </g>
   </g>
   <g id="legend_1">
    <g id="line2d_11">
     <path d="M 36 75.622656 
L 56 75.622656 
" style="fill:none;stroke:#000000;stroke-dasharray:1.85,0.8;stroke-dashoffset:0;stroke-width:0.5;"/>
    </g>
    <g id="line2d_12"/>
    <g id="text_11">
     <!-- $R^2$ 0.37 -->
     <g transform="translate(64 72.875)">
      <text>
       <tspan style="font-family:DejaVu Sans;font-size:10px;font-style:oblique;font-weight:oblique;" x="0" y="-0.9765625">R</tspan>
       <tspan style="font-family:DejaVu Sans;font-size:7px;font-style:book;font-weight:book;" x="7.650794" y="-4.8046875">2</tspan>
       <tspan style="font-family:Arial;font-size:10px;font-style:regular;font-weight:regular;" x="12.377845 15.156165 20.717689 23.496009 29.057533" y="-0.9765625"> 0.37</tspan>
      </text>
     </g>
     <text style="font-family:Arial;font-size:10px;font-style:normal;font-weight:normal;" transform="translate(64 83.4875)"> slope 1.92</text>
    </g>
   </g>
  </g>
  <g id="axes_2">
   <g id="patch_5">
    <path d="M 118.309091 94.5 
L 194.4 94.5 
L 194.4 12.96 
L 118.309091 12.96 
z
" style="fill:#ffffff;"/>
   </g>
   <g id="PathCollection_1">
    <defs>
     <path d="M 0 2.44949 
C 0.649612 2.44949 1.272706 2.191396 1.732051 1.732051 
C 2.191396 1.272706 2.44949 0.649612 2.44949 0 
C 2.44949 -0.649612 2.191396 -1.272706 1.732051 -1.732051 
C 1.272706 -2.191396 0.649612 -2.44949 0 -2.44949 
C -0.649612 -2.44949 -1.272706 -2.191396 -1.732051 -1.732051 
C -2.191396 -1.272706 -2.44949 -0.649612 -2.44949 0 
C -2.44949 0.649612 -2.191396 1.272706 -1.732051 1.732051 
C -1.272706 2.191396 -0.649612 2.44949 0 2.44949 
z
" id="m5ac42e8183" style="stroke:#000000;"/>
    </defs>
    <g clip-path="url(#p1e6202cc44)">
     <use style="stroke:#000000;" x="146.670217" xlink:href="#m5ac42e8183" y="34.313106"/>
     <use style="stroke:#000000;" x="134.966613" xlink:href="#m5ac42e8183" y="68.508585"/>
     <use style="stroke:#000000;" x="151.851734" xlink:href="#m5ac42e8183" y="53.467436"/>
     <use style="stroke:#000000;" x="190.535346" xlink:href="#m5ac42e8183" y="37.201875"/>
     <use style="stroke:#000000;" x="129.287079" xlink:href="#m5ac42e8183" y="33.879007"/>
     <use style="stroke:#000000;" x="127.647626" xlink:href="#m5ac42e8183" y="61.024776"/>
     <use style="stroke:#000000;" x="154.492028" xlink:href="#m5ac42e8183" y="84.032655"/>
     <use style="stroke:#000000;" x="164.40591" xlink:href="#m5ac42e8183" y="43.551799"/>
     <use style="stroke:#000000;" x="131.042097" xlink:href="#m5ac42e8183" y="82.483817"/>
     <use style="stroke:#000000;" x="122.843888" xlink:href="#m5ac42e8183" y="89.867689"/>
     <use style="stroke:#000000;" x="121.432203" xlink:href="#m5ac42e8183" y="73.717382"/>
     <use style="stroke:#000000;" x="135.188459" xlink:href="#m5ac42e8183" y="68.054391"/>
     <use style="stroke:#000000;" x="139.040515" xlink:href="#m5ac42e8183" y="76.102624"/>
     <use style="stroke:#000000;" x="129.491767" xlink:href="#m5ac42e8183" y="70.290215"/>
     <use style="stroke:#000000;" x="149.779531" xlink:href="#m5ac42e8183" y="65.638519"/>
     <use style="stroke:#000000;" x="126.064609" xlink:href="#m5ac42e8183" y="87.46208"/>
     <use style="stroke:#000000;" x="166.186344" xlink:href="#m5ac42e8183" y="34.317526"/>
     <use style="stroke:#000000;" x="122.114182" xlink:href="#m5ac42e8183" y="74.243292"/>
     <use style="stroke:#000000;" x="140.005235" xlink:href="#m5ac42e8183" y="66.229173"/>
     <use style="stroke:#000000;" x="127.138452" xlink:href="#m5ac42e8183" y="75.039212"/>
     <use style="stroke:#000000;" x="141.926884" xlink:href="#m5ac42e8183" y="74.75935"/>
     <use style="stroke:#000000;" x="121.657804" xlink:href="#m5ac42e8183" y="50.678452"/>
     <use style="stroke:#000000;" x="128.496202" xlink:href="#m5ac42e8183" y="81.108864"/>
     <use style="stroke:#000000;" x="143.388201" xlink:href="#m5ac42e8183" y="68.965568"/>
     <use style="stroke:#000000;" x="123.012471" xlink:href="#m5ac42e8183" y="90.652697"/>
     <use style="stroke:#000000;" x="134.256071" xlink:href="#m5ac42e8183" y="61.877763"/>
     <use style="stroke:#000000;" x="130.150615" xlink:href="#m5ac42e8183" y="68.639813"/>
     <use style="stroke:#000000;" x="134.865077" xlink:href="#m5ac42e8183" y="68.227937"/>
     <use style="stroke:#000000;" x="128.06631" xlink:href="#m5ac42e8183" y="82.01198"/>
     <use style="stroke:#000000;" x="131.48094" xlink:href="#m5ac42e8183" y="67.10195"/>
    </g>
   </g>
   <g id="line2d_13">
    <path clip-path="url(#p1e6202cc44)" d="M 118.309091 78.185669 
L 119.077686 77.717609 
L 119.846281 77.249548 
L 120.614876 76.781487 
L 121.383471 76.313427 
L 122.152066 75.845366 
L 122.920661 75.377306 
L 123.689256 74.909245 
L 124.457851 74.441184 
L 125.226446 73.973124 
L 125.995041 73.505063 
L 126.763636 73.037003 
L 127.532231 72.568942 
L 128.300826 72.100881 
L 129.069421 71.632821 
L 129.838017 71.16476 
L 130.606612 70.6967 
L 131.375207 70.228639 
L 132.143802 69.760578 
L 132.912397 69.292518 
L 133.680992 68.824457 
L 134.449587 68.356397 
L 135.218182 67.888336 
L 135.986777 67.420276 
L 136.755372 66.952215 
L 137.523967 66.484154 
L 138.292562 66.016094 
L 139.061157 65.548033 
L 139.829752 65.079973 
L 140.598347 64.611912 
L 141.366942 64.143851 
L 142.135537 63.675791 
L 142.904132 63.20773 
L 143.672727 62.73967 
L 144.441322 62.271609 
L 145.209917 61.803548 
L 145.978512 61.335488 
L 146.747107 60.867427 
L 147.515702 60.399367 
L 148.284298 59.931306 
L 149.052893 59.463245 
L 149.821488 58.995185 
L 150.590083 58.527124 
L 151.358678 58.059064 
L 152.127273 57.591003 
L 152.895868 57.122942 
L 153.664463 56.654882 
L 154.433058 56.186821 
L 155.201653 55.718761 
L 155.970248 55.2507 
L 156.738843 54.782639 
L 157.507438 54.314579 
L 158.276033 53.846518 
L 159.044628 53.378458 
L 159.813223 52.910397 
L 160.581818 52.442336 
L 161.350413 51.974276 
L 162.119008 51.506215 
L 162.887603 51.038155 
L 163.656198 50.570094 
L 164.424793 50.102033 
L 165.193388 49.633973 
L 165.961983 49.165912 
L 166.730579 48.697852 
L 167.499174 48.229791 
L 168.267769 47.76173 
L 169.036364 47.29367 
L 169.804959 46.825609 
L 170.573554 46.357549 
L 171.342149 45.889488 
L 172.110744 45.421428 
L 172.879339 44.953367 
L 173.647934 44.485306 
L 174.416529 44.017246 
L 175.185124 43.549185 
L 175.953719 43.081125 
L 176.722314 42.613064 
L 177.490909 42.145003 
L 178.259504 41.676943 
L 179.028099 41.208882 
L 179.796694 40.740822 
L 180.565289 40.272761 
L 181.333884 39.8047 
L 182.102479 39.33664 
L 182.871074 38.868579 
L 183.639669 38.400519 
L 184.408264 37.932458 
L 185.17686 37.464397 
L 185.945455 36.996337 
L 186.71405 36.528276 
L 187.482645 36.060216 
L 188.25124 35.592155 
L 189.019835 35.124094 
L 189.78843 34.656034 
L 190.557025 34.187973 
L 191.32562 33.719913 
L 192.094215 33.251852 
L 192.86281 32.783791 
L 193.631405 32.315731 
L 194.4 31.84767 
" style="fill:none;stroke:#000000;stroke-dasharray:1.85,0.8;stroke-dashoffset:0;stroke-width:0.5;"/>
   </g>
   <g id="patch_6">
    <path d="M 118.309091 94.5 
L 118.309091 12.96 
" style="fill:none;stroke:#000000;stroke-linecap:square;stroke-linejoin:miter;"/>
   </g>
   <g id="patch_7">
    <path d="M 118.309091 94.5 
L 194.4 94.5 
" style="fill:none;stroke:#000000;stroke-linecap:square;stroke-linejoin:miter;"/>
   </g>
   <g id="matplotlib.axis_3">
    <g id="xtick_4">
     <g id="line2d_14"/>
     <g id="text_12">
      <text style="font-family:Arial;font-size:8px;font-style:normal;font-weight:normal;text-anchor:middle;" transform="rotate(-0, 118.309091, 103.72625)" x="118.309091" y="103.72625">0</text>
     </g>
    </g>
    <g id="xtick_5">
     <g id="line2d_15"/>
     <g id="text_13">
      <text style="font-family:Arial;font-size:8px;font-style:normal;font-weight:normal;text-anchor:middle;" transform="rotate(-0, 164.565807, 103.72625)" x="164.565807" y="103.72625">2</text>
     </g>
    </g>
    <g id="text_14">
     <!-- $\sigma$(Exc) -->
     <g transform="translate(141.504545 116.61625)">
      <text>
       <tspan style="font-family:DejaVu Sans;font-size:10px;font-style:oblique;font-weight:oblique;" x="0" y="-0.71875">σ</tspan>
       <tspan style="font-family:Arial;font-size:10px;font-style:regular;font-weight:regular;" x="6.337891 9.667969 16.337891 21.337891 26.337891" y="-0.71875">(Exc)</tspan>
      </text>
     </g>
    </g>
   </g>
   <g id="matplotlib.axis_4">
    <g id="ytick_6">
     <g id="line2d_16"/>
     <g id="text_15">
      <text style="font-family:Arial;font-size:8px;font-style:normal;font-weight:normal;text-anchor:end;" transform="rotate(-0, 114.809091, 97.363125)" x="114.809091" y="97.363125">0</text>
     </g>
    </g>
    <g id="ytick_7">
     <g id="line2d_17"/>
     <g id="text_16">
      <text style="font-family:Arial;font-size:8px;font-style:normal;font-weight:normal;text-anchor:end;" transform="rotate(-0, 114.809091, 72.578478)" x="114.809091" y="72.578478">1</text>
     </g>
    </g>
    <g id="ytick_8">
     <g id="line2d_18"/>
     <g id="text_17">
      <text style="font-family:Arial;font-size:8px;font-style:normal;font-weight:normal;text-anchor:end;" transform="rotate(-0, 114.809091, 47.793831)" x="114.809091" y="47.793831">2</text>
     </g>
    </g>
    <g id="ytick_9">
     <g id="line2d_19"/>
     <g id="text_18">
      <text style="font-family:Arial;font-size:8px;font-style:normal;font-weight:normal;text-anchor:end;" transform="rotate(-0, 114.809091, 23.009184)" x="114.809091" y="23.009184">3</text>
     </g>
    </g>
    <g id="text_19">
     <!-- $\sigma$(Inh) -->
     <g transform="translate(104.160341 67.18)rotate(-90)">
      <text>
       <tspan style="font-family:DejaVu Sans;font-size:10px;font-style:oblique;font-weight:oblique;" x="0" y="-0.71875">σ</tspan>
       <tspan style="font-family:Arial;font-size:10px;font-style:regular;font-weight:regular;" x="6.337891 9.667969 12.446289 18.007812 23.569336" y="-0.71875">(Inh)</tspan>
      </text>
     </g>
    </g>
   </g>
   <g id="legend_2">
    <g id="line2d_20">
     <path d="M 108.478125 31.995156 
L 128.478125 31.995156 
" style="fill:none;stroke:#000000;stroke-dasharray:1.85,0.8;stroke-dashoffset:0;stroke-width:0.5;"/>
    </g>
    <g id="line2d_21"/>
    <g id="text_20">
     <!-- $R^2$ 0.33 -->
     <g transform="translate(136.478125 29.2475)">
      <text>
       <tspan style="font-family:DejaVu Sans;font-size:10px;font-style:oblique;font-weight:oblique;" x="0" y="-0.9765625">R</tspan>
       <tspan style="font-family:DejaVu Sans;font-size:7px;font-style:book;font-weight:book;" x="7.650794" y="-4.8046875">2</tspan>
       <tspan style="font-family:Arial;font-size:10px;font-style:regular;font-weight:regular;" x="12.377845 15.156165 20.717689 23.496009 29.057533" y="-0.9765625"> 0.33</tspan>
      </text>
     </g>
     <text style="font-family:Arial;font-size:10px;font-style:normal;font-weight:normal;" transform="translate(136.478125 39.86)"> slope 0.57</text>
    </g>
   </g>
  </g>
 </g>
 <defs>
  <clipPath id="pa1b442d860">
   <rect height="81.54" width="76.090909" x="27" y="12.96"/>
  </clipPath>
  <clipPath id="p1e6202cc44">
   <rect height="81.54" width="76.090909" x="118.309091" y="12.96"/>
  </clipPath>
 </defs>
</svg>
