<?xml version="1.0" encoding="utf-8" standalone="no"?>
<!DOCTYPE svg PUBLIC "-//W3C//DTD SVG 1.1//EN"
  "http://www.w3.org/Graphics/SVG/1.1/DTD/svg11.dtd">
<!-- Created with matplotlib (http://matplotlib.org/) -->
<svg height="108pt" version="1.1" viewBox="0 0 216 108" width="216pt" xmlns="http://www.w3.org/2000/svg" xmlns:xlink="http://www.w3.org/1999/xlink">
 <defs>
  <style type="text/css">
*{stroke-linecap:butt;stroke-linejoin:round;}
  </style>
 </defs>
 <g id="figure_1">
  <g id="patch_1">
   <path d="M 0 108 
L 216 108 
L 216 0 
L 0 0 
z
" style="fill:#ffffff;"/>
  </g>
  <g id="axes_1">
   <g id="patch_2">
    <path d="M 27 94.5 
L 103.090909 94.5 
L 103.090909 12.96 
L 27 12.96 
z
" style="fill:#ffffff;"/>
   </g>
   <g id="LineCollection_1">
    <path clip-path="url(#p9e7b6d35f6)" d="M 25.686309 73.959415 
L 32.999443 73.959415 
" style="fill:none;stroke:#000000;stroke-width:0.5;"/>
    <path clip-path="url(#p9e7b6d35f6)" d="M 26.883273 93.042894 
L 29.562671 93.042894 
" style="fill:none;stroke:#000000;stroke-width:0.5;"/>
    <path clip-path="url(#p9e7b6d35f6)" d="M 23.338123 61.811695 
L 43.923218 61.811695 
" style="fill:none;stroke:#000000;stroke-width:0.5;"/>
    <path clip-path="url(#p9e7b6d35f6)" d="M 27 94.5 
L 27 94.5 
" style="fill:none;stroke:#000000;stroke-width:0.5;"/>
    <path clip-path="url(#p9e7b6d35f6)" d="M 31.151035 74.339813 
L 34.601198 74.339813 
" style="fill:none;stroke:#000000;stroke-width:0.5;"/>
    <path clip-path="url(#p9e7b6d35f6)" d="M 27.900151 80.512266 
L 38.749632 80.512266 
" style="fill:none;stroke:#000000;stroke-width:0.5;"/>
    <path clip-path="url(#p9e7b6d35f6)" d="M 24.500378 65.986261 
L 45.476304 65.986261 
" style="fill:none;stroke:#000000;stroke-width:0.5;"/>
    <path clip-path="url(#p9e7b6d35f6)" d="M 26.233839 77.888608 
L 36.201876 77.888608 
" style="fill:none;stroke:#000000;stroke-width:0.5;"/>
    <path clip-path="url(#p9e7b6d35f6)" d="M 25.329798 68.418761 
L 49.092101 68.418761 
" style="fill:none;stroke:#000000;stroke-width:0.5;"/>
    <path clip-path="url(#p9e7b6d35f6)" d="M 26.306828 74.704297 
L 36.860734 74.704297 
" style="fill:none;stroke:#000000;stroke-width:0.5;"/>
    <path clip-path="url(#p9e7b6d35f6)" d="M 27.162755 47.457077 
L 28.281369 47.457077 
" style="fill:none;stroke:#000000;stroke-width:0.5;"/>
    <path clip-path="url(#p9e7b6d35f6)" d="M 27.004029 67.98181 
L 35.179585 67.98181 
" style="fill:none;stroke:#000000;stroke-width:0.5;"/>
    <path clip-path="url(#p9e7b6d35f6)" d="M 29.05688 67.711185 
L 46.8666 67.711185 
" style="fill:none;stroke:#000000;stroke-width:0.5;"/>
    <path clip-path="url(#p9e7b6d35f6)" d="M 36.030606 27.590717 
L 49.176783 27.590717 
" style="fill:none;stroke:#000000;stroke-width:0.5;"/>
    <path clip-path="url(#p9e7b6d35f6)" d="M 19.858959 33.072835 
L 57.942404 33.072835 
" style="fill:none;stroke:#000000;stroke-width:0.5;"/>
    <path clip-path="url(#p9e7b6d35f6)" d="M 26.504886 56.771116 
L 34.444027 56.771116 
" style="fill:none;stroke:#000000;stroke-width:0.5;"/>
    <path clip-path="url(#p9e7b6d35f6)" d="M 23.546894 60.989934 
L 40.370076 60.989934 
" style="fill:none;stroke:#000000;stroke-width:0.5;"/>
    <path clip-path="url(#p9e7b6d35f6)" d="M 20.215231 52.570975 
L 49.043396 52.570975 
" style="fill:none;stroke:#000000;stroke-width:0.5;"/>
    <path clip-path="url(#p9e7b6d35f6)" d="M 26.00148 76.580693 
L 31.634834 76.580693 
" style="fill:none;stroke:#000000;stroke-width:0.5;"/>
    <path clip-path="url(#p9e7b6d35f6)" d="M 27.622728 75.641208 
L 37.557332 75.641208 
" style="fill:none;stroke:#000000;stroke-width:0.5;"/>
    <path clip-path="url(#p9e7b6d35f6)" d="M 25.653152 58.009767 
L 51.425314 58.009767 
" style="fill:none;stroke:#000000;stroke-width:0.5;"/>
    <path clip-path="url(#p9e7b6d35f6)" d="M 30.274719 69.801058 
L 38.512637 69.801058 
" style="fill:none;stroke:#000000;stroke-width:0.5;"/>
    <path clip-path="url(#p9e7b6d35f6)" d="M 26.419168 76.158905 
L 34.542813 76.158905 
" style="fill:none;stroke:#000000;stroke-width:0.5;"/>
    <path clip-path="url(#p9e7b6d35f6)" d="M 28.219859 40.178439 
L 45.665783 40.178439 
" style="fill:none;stroke:#000000;stroke-width:0.5;"/>
    <path clip-path="url(#p9e7b6d35f6)" d="M 32.409163 45.996037 
L 45.111671 45.996037 
" style="fill:none;stroke:#000000;stroke-width:0.5;"/>
    <path clip-path="url(#p9e7b6d35f6)" d="M 27.779303 54.560968 
L 42.453291 54.560968 
" style="fill:none;stroke:#000000;stroke-width:0.5;"/>
    <path clip-path="url(#p9e7b6d35f6)" d="M 26.273056 71.836466 
L 43.435084 71.836466 
" style="fill:none;stroke:#000000;stroke-width:0.5;"/>
    <path clip-path="url(#p9e7b6d35f6)" d="M 25.027895 65.566527 
L 43.092115 65.566527 
" style="fill:none;stroke:#000000;stroke-width:0.5;"/>
    <path clip-path="url(#p9e7b6d35f6)" d="M 26.271764 75.702266 
L 41.781373 75.702266 
" style="fill:none;stroke:#000000;stroke-width:0.5;"/>
    <path clip-path="url(#p9e7b6d35f6)" d="M 28.685928 80.723354 
L 34.792217 80.723354 
" style="fill:none;stroke:#000000;stroke-width:0.5;"/>
   </g>
   <g id="LineCollection_2">
    <path clip-path="url(#p9e7b6d35f6)" d="M 29.342876 73.959415 
L 29.342876 73.959415 
" style="fill:none;stroke:#000000;stroke-width:0.5;"/>
    <path clip-path="url(#p9e7b6d35f6)" d="M 28.222972 94.171564 
L 28.222972 91.914225 
" style="fill:none;stroke:#000000;stroke-width:0.5;"/>
    <path clip-path="url(#p9e7b6d35f6)" d="M 33.63067 73.734531 
L 33.63067 49.888859 
" style="fill:none;stroke:#000000;stroke-width:0.5;"/>
    <path clip-path="url(#p9e7b6d35f6)" d="M 27 94.5 
L 27 94.5 
" style="fill:none;stroke:#000000;stroke-width:0.5;"/>
    <path clip-path="url(#p9e7b6d35f6)" d="M 32.876117 79.497304 
L 32.876117 69.182323 
" style="fill:none;stroke:#000000;stroke-width:0.5;"/>
    <path clip-path="url(#p9e7b6d35f6)" d="M 33.324892 82.588463 
L 33.324892 78.436068 
" style="fill:none;stroke:#000000;stroke-width:0.5;"/>
    <path clip-path="url(#p9e7b6d35f6)" d="M 34.988341 73.553105 
L 34.988341 58.419418 
" style="fill:none;stroke:#000000;stroke-width:0.5;"/>
    <path clip-path="url(#p9e7b6d35f6)" d="M 31.217857 80.712482 
L 31.217857 75.064733 
" style="fill:none;stroke:#000000;stroke-width:0.5;"/>
    <path clip-path="url(#p9e7b6d35f6)" d="M 37.210949 81.024391 
L 37.210949 55.81313 
" style="fill:none;stroke:#000000;stroke-width:0.5;"/>
    <path clip-path="url(#p9e7b6d35f6)" d="M 31.583781 78.007811 
L 31.583781 71.400782 
" style="fill:none;stroke:#000000;stroke-width:0.5;"/>
    <path clip-path="url(#p9e7b6d35f6)" d="M 27.722062 68.544068 
L 27.722062 26.370086 
" style="fill:none;stroke:#000000;stroke-width:0.5;"/>
    <path clip-path="url(#p9e7b6d35f6)" d="M 31.091807 76.132892 
L 31.091807 59.830727 
" style="fill:none;stroke:#000000;stroke-width:0.5;"/>
    <path clip-path="url(#p9e7b6d35f6)" d="M 37.96174 75.535643 
L 37.96174 59.886727 
" style="fill:none;stroke:#000000;stroke-width:0.5;"/>
    <path clip-path="url(#p9e7b6d35f6)" d="M 42.603695 38.338576 
L 42.603695 16.842857 
" style="fill:none;stroke:#000000;stroke-width:0.5;"/>
    <path clip-path="url(#p9e7b6d35f6)" d="M 38.900681 42.570247 
L 38.900681 23.575422 
" style="fill:none;stroke:#000000;stroke-width:0.5;"/>
    <path clip-path="url(#p9e7b6d35f6)" d="M 30.474456 68.842106 
L 30.474456 44.700126 
" style="fill:none;stroke:#000000;stroke-width:0.5;"/>
    <path clip-path="url(#p9e7b6d35f6)" d="M 31.958485 64.564081 
L 31.958485 57.415787 
" style="fill:none;stroke:#000000;stroke-width:0.5;"/>
    <path clip-path="url(#p9e7b6d35f6)" d="M 34.629314 57.530375 
L 34.629314 47.611575 
" style="fill:none;stroke:#000000;stroke-width:0.5;"/>
    <path clip-path="url(#p9e7b6d35f6)" d="M 28.818157 81.716364 
L 28.818157 71.445023 
" style="fill:none;stroke:#000000;stroke-width:0.5;"/>
    <path clip-path="url(#p9e7b6d35f6)" d="M 32.59003 77.908296 
L 32.59003 73.37412 
" style="fill:none;stroke:#000000;stroke-width:0.5;"/>
    <path clip-path="url(#p9e7b6d35f6)" d="M 38.539233 70.043818 
L 38.539233 45.975716 
" style="fill:none;stroke:#000000;stroke-width:0.5;"/>
    <path clip-path="url(#p9e7b6d35f6)" d="M 34.393678 73.314157 
L 34.393678 66.28796 
" style="fill:none;stroke:#000000;stroke-width:0.5;"/>
    <path clip-path="url(#p9e7b6d35f6)" d="M 30.480991 79.482195 
L 30.480991 72.835614 
" style="fill:none;stroke:#000000;stroke-width:0.5;"/>
    <path clip-path="url(#p9e7b6d35f6)" d="M 36.942821 51.462131 
L 36.942821 28.894747 
" style="fill:none;stroke:#000000;stroke-width:0.5;"/>
    <path clip-path="url(#p9e7b6d35f6)" d="M 38.760417 48.235745 
L 38.760417 43.756329 
" style="fill:none;stroke:#000000;stroke-width:0.5;"/>
    <path clip-path="url(#p9e7b6d35f6)" d="M 35.116297 68.390238 
L 35.116297 40.731697 
" style="fill:none;stroke:#000000;stroke-width:0.5;"/>
    <path clip-path="url(#p9e7b6d35f6)" d="M 34.85407 83.149084 
L 34.85407 60.523849 
" style="fill:none;stroke:#000000;stroke-width:0.5;"/>
    <path clip-path="url(#p9e7b6d35f6)" d="M 34.060005 78.40856 
L 34.060005 52.724493 
" style="fill:none;stroke:#000000;stroke-width:0.5;"/>
    <path clip-path="url(#p9e7b6d35f6)" d="M 34.026568 81.529749 
L 34.026568 69.874783 
" style="fill:none;stroke:#000000;stroke-width:0.5;"/>
    <path clip-path="url(#p9e7b6d35f6)" d="M 31.739073 83.904744 
L 31.739073 77.541965 
" style="fill:none;stroke:#000000;stroke-width:0.5;"/>
   </g>
   <g id="line2d_1">
    <path clip-path="url(#p9e7b6d35f6)" d="M 27 84.298909 
L 27.768595 82.096691 
L 28.53719 79.894472 
L 29.305785 77.692253 
L 30.07438 75.490035 
L 30.842975 73.287816 
L 31.61157 71.085597 
L 32.380165 68.883379 
L 33.14876 66.68116 
L 33.917355 64.478941 
L 34.68595 62.276723 
L 35.454545 60.074504 
L 36.22314 57.872285 
L 36.991736 55.670067 
L 37.760331 53.467848 
L 38.528926 51.26563 
L 39.297521 49.063411 
L 40.066116 46.861192 
L 40.834711 44.658974 
L 41.603306 42.456755 
L 42.371901 40.254536 
L 43.140496 38.052318 
L 43.909091 35.850099 
L 44.677686 33.64788 
L 45.446281 31.445662 
L 46.214876 29.243443 
L 46.983471 27.041224 
L 47.752066 24.839006 
L 48.520661 22.636787 
L 49.289256 20.434568 
L 50.057851 18.23235 
L 50.826446 16.030131 
L 51.595041 13.827912 
L 52.363636 11.625694 
L 53.132231 9.423475 
L 53.900826 7.221257 
L 54.669421 5.019038 
L 55.438017 2.816819 
L 56.206612 0.614601 
L 56.770122 -1 
" style="fill:none;stroke:#000000;stroke-dasharray:1.85,0.8;stroke-dashoffset:0;stroke-width:0.5;"/>
   </g>
   <g id="line2d_2">
    <defs>
     <path d="M 0 3 
C 0.795609 3 1.55874 2.683901 2.12132 2.12132 
C 2.683901 1.55874 3 0.795609 3 0 
C 3 -0.795609 2.683901 -1.55874 2.12132 -2.12132 
C 1.55874 -2.683901 0.795609 -3 0 -3 
C -0.795609 -3 -1.55874 -2.683901 -2.12132 -2.12132 
C -2.683901 -1.55874 -3 -0.795609 -3 0 
C -3 0.795609 -2.683901 1.55874 -2.12132 2.12132 
C -1.55874 2.683901 -0.795609 3 0 3 
z
" id="m8a446d1873" style="stroke:#000000;"/>
    </defs>
    <g clip-path="url(#p9e7b6d35f6)">
     <use style="stroke:#000000;" x="29.342876" xlink:href="#m8a446d1873" y="73.959415"/>
     <use style="stroke:#000000;" x="28.222972" xlink:href="#m8a446d1873" y="93.042894"/>
     <use style="stroke:#000000;" x="33.63067" xlink:href="#m8a446d1873" y="61.811695"/>
     <use style="stroke:#000000;" x="27" xlink:href="#m8a446d1873" y="94.5"/>
     <use style="stroke:#000000;" x="32.876117" xlink:href="#m8a446d1873" y="74.339813"/>
     <use style="stroke:#000000;" x="33.324892" xlink:href="#m8a446d1873" y="80.512266"/>
     <use style="stroke:#000000;" x="34.988341" xlink:href="#m8a446d1873" y="65.986261"/>
     <use style="stroke:#000000;" x="31.217857" xlink:href="#m8a446d1873" y="77.888608"/>
     <use style="stroke:#000000;" x="37.210949" xlink:href="#m8a446d1873" y="68.418761"/>
     <use style="stroke:#000000;" x="31.583781" xlink:href="#m8a446d1873" y="74.704297"/>
     <use style="stroke:#000000;" x="27.722062" xlink:href="#m8a446d1873" y="47.457077"/>
     <use style="stroke:#000000;" x="31.091807" xlink:href="#m8a446d1873" y="67.98181"/>
     <use style="stroke:#000000;" x="37.96174" xlink:href="#m8a446d1873" y="67.711185"/>
     <use style="stroke:#000000;" x="42.603695" xlink:href="#m8a446d1873" y="27.590717"/>
     <use style="stroke:#000000;" x="38.900681" xlink:href="#m8a446d1873" y="33.072835"/>
     <use style="stroke:#000000;" x="30.474456" xlink:href="#m8a446d1873" y="56.771116"/>
     <use style="stroke:#000000;" x="31.958485" xlink:href="#m8a446d1873" y="60.989934"/>
     <use style="stroke:#000000;" x="34.629314" xlink:href="#m8a446d1873" y="52.570975"/>
     <use style="stroke:#000000;" x="28.818157" xlink:href="#m8a446d1873" y="76.580693"/>
     <use style="stroke:#000000;" x="32.59003" xlink:href="#m8a446d1873" y="75.641208"/>
     <use style="stroke:#000000;" x="38.539233" xlink:href="#m8a446d1873" y="58.009767"/>
     <use style="stroke:#000000;" x="34.393678" xlink:href="#m8a446d1873" y="69.801058"/>
     <use style="stroke:#000000;" x="30.480991" xlink:href="#m8a446d1873" y="76.158905"/>
     <use style="stroke:#000000;" x="36.942821" xlink:href="#m8a446d1873" y="40.178439"/>
     <use style="stroke:#000000;" x="38.760417" xlink:href="#m8a446d1873" y="45.996037"/>
     <use style="stroke:#000000;" x="35.116297" xlink:href="#m8a446d1873" y="54.560968"/>
     <use style="stroke:#000000;" x="34.85407" xlink:href="#m8a446d1873" y="71.836466"/>
     <use style="stroke:#000000;" x="34.060005" xlink:href="#m8a446d1873" y="65.566527"/>
     <use style="stroke:#000000;" x="34.026568" xlink:href="#m8a446d1873" y="75.702266"/>
     <use style="stroke:#000000;" x="31.739073" xlink:href="#m8a446d1873" y="80.723354"/>
    </g>
   </g>
   <g id="patch_3">
    <path d="M 27 94.5 
L 27 12.96 
" style="fill:none;stroke:#000000;stroke-linecap:square;stroke-linejoin:miter;"/>
   </g>
   <g id="patch_4">
    <path d="M 27 94.5 
L 103.090909 94.5 
" style="fill:none;stroke:#000000;stroke-linecap:square;stroke-linejoin:miter;"/>
   </g>
   <g id="matplotlib.axis_1">
    <g id="xtick_1">
     <g id="line2d_3"/>
     <g id="text_1">
      <text style="font-family:Arial;font-size:8px;font-style:normal;font-weight:normal;text-anchor:middle;" transform="rotate(-0, 27, 103.72625)" x="27" y="103.72625">0</text>
     </g>
    </g>
    <g id="xtick_2">
     <g id="line2d_4"/>
     <g id="text_2">
      <text style="font-family:Arial;font-size:8px;font-style:normal;font-weight:normal;text-anchor:middle;" transform="rotate(-0, 64.860838, 103.72625)" x="64.860838" y="103.72625">5</text>
     </g>
    </g>
    <g id="xtick_3">
     <g id="line2d_5"/>
     <g id="text_3">
      <text style="font-family:Arial;font-size:8px;font-style:normal;font-weight:normal;text-anchor:middle;" transform="rotate(-0, 102.721677, 103.72625)" x="102.721677" y="103.72625">10</text>
     </g>
    </g>
    <g id="text_4">
     <text style="font-family:Arial;font-size:10px;font-style:normal;font-weight:normal;text-anchor:middle;" transform="rotate(-0, 65.045455, 116.474063)" x="65.045455" y="116.474063">Exc</text>
    </g>
   </g>
   <g id="matplotlib.axis_2">
    <g id="ytick_1">
     <g id="line2d_6"/>
     <g id="text_5">
      <text style="font-family:Arial;font-size:8px;font-style:normal;font-weight:normal;text-anchor:end;" transform="rotate(-0, 23.5, 97.363125)" x="23.5" y="97.363125">0.0</text>
     </g>
    </g>
    <g id="ytick_2">
     <g id="line2d_7"/>
     <g id="text_6">
      <text style="font-family:Arial;font-size:8px;font-style:normal;font-weight:normal;text-anchor:end;" transform="rotate(-0, 23.5, 77.077044)" x="23.5" y="77.077044">2.5</text>
     </g>
    </g>
    <g id="ytick_3">
     <g id="line2d_8"/>
     <g id="text_7">
      <text style="font-family:Arial;font-size:8px;font-style:normal;font-weight:normal;text-anchor:end;" transform="rotate(-0, 23.5, 56.790962)" x="23.5" y="56.790962">5.0</text>
     </g>
    </g>
    <g id="ytick_4">
     <g id="line2d_9"/>
     <g id="text_8">
      <text style="font-family:Arial;font-size:8px;font-style:normal;font-weight:normal;text-anchor:end;" transform="rotate(-0, 23.5, 36.504881)" x="23.5" y="36.504881">7.5</text>
     </g>
    </g>
    <g id="ytick_5">
     <g id="line2d_10"/>
     <g id="text_9">
      <text style="font-family:Arial;font-size:8px;font-style:normal;font-weight:normal;text-anchor:end;" transform="rotate(-0, 23.5, 16.218799)" x="23.5" y="16.218799">10.0</text>
     </g>
    </g>
    <g id="text_10">
     <text style="font-family:Arial;font-size:10px;font-style:normal;font-weight:normal;text-anchor:middle;" transform="rotate(-90, 1.94375, 53.73)" x="1.94375" y="53.73">Inh</text>
    </g>
   </g>
   <g id="legend_1">
    <g id="line2d_11">
     <path d="M 36 75.622656 
L 56 75.622656 
" style="fill:none;stroke:#000000;stroke-dasharray:1.85,0.8;stroke-dashoffset:0;stroke-width:0.5;"/>
    </g>
    <g id="line2d_12"/>
    <g id="text_11">
     <!-- $R^2$ 0.46 -->
     <g transform="translate(64 72.875)">
      <text>
       <tspan style="font-family:DejaVu Sans;font-size:10px;font-style:oblique;font-weight:oblique;" x="0" y="-0.9765625">R</tspan>
       <tspan style="font-family:DejaVu Sans;font-size:7px;font-style:book;font-weight:book;" x="7.650794" y="-4.8046875">2</tspan>
       <tspan style="font-family:Arial;font-size:10px;font-style:regular;font-weight:regular;" x="12.377845 15.156165 20.717689 23.496009 29.057533" y="-0.9765625"> 0.46</tspan>
      </text>
     </g>
     <text style="font-family:Arial;font-size:10px;font-style:normal;font-weight:normal;" transform="translate(64 83.4875)"> slope 2.67</text>
    </g>
   </g>
  </g>
  <g id="axes_2">
   <g id="patch_5">
    <path d="M 118.309091 94.5 
L 194.4 94.5 
L 194.4 12.96 
L 118.309091 12.96 
z
" style="fill:#ffffff;"/>
   </g>
   <g id="PathCollection_1">
    <defs>
     <path d="M 0 2.44949 
C 0.649612 2.44949 1.272706 2.191396 1.732051 1.732051 
C 2.191396 1.272706 2.44949 0.649612 2.44949 0 
C 2.44949 -0.649612 2.191396 -1.272706 1.732051 -1.732051 
C 1.272706 -2.191396 0.649612 -2.44949 0 -2.44949 
C -0.649612 -2.44949 -1.272706 -2.191396 -1.732051 -1.732051 
C -2.191396 -1.272706 -2.44949 -0.649612 -2.44949 0 
C -2.44949 0.649612 -2.191396 1.272706 -1.732051 1.732051 
C -1.272706 2.191396 -0.649612 2.44949 0 2.44949 
z
" id="m157dd98228" style="stroke:#000000;"/>
    </defs>
    <g clip-path="url(#p38c6384c2a)">
     <use style="stroke:#000000;" x="131.714267" xlink:href="#m157dd98228" y="94.5"/>
     <use style="stroke:#000000;" x="123.2205" xlink:href="#m157dd98228" y="90.362236"/>
     <use style="stroke:#000000;" x="156.042138" xlink:href="#m157dd98228" y="50.790227"/>
     <use style="stroke:#000000;" x="118.309091" xlink:href="#m157dd98228" y="94.5"/>
     <use style="stroke:#000000;" x="124.633335" xlink:href="#m157dd98228" y="75.592355"/>
     <use style="stroke:#000000;" x="138.196488" xlink:href="#m157dd98228" y="86.888545"/>
     <use style="stroke:#000000;" x="156.758542" xlink:href="#m157dd98228" y="66.759534"/>
     <use style="stroke:#000000;" x="136.580777" xlink:href="#m157dd98228" y="84.147522"/>
     <use style="stroke:#000000;" x="161.866048" xlink:href="#m157dd98228" y="48.287063"/>
     <use style="stroke:#000000;" x="137.654691" xlink:href="#m157dd98228" y="82.389134"/>
     <use style="stroke:#000000;" x="120.359541" xlink:href="#m157dd98228" y="17.19393"/>
     <use style="stroke:#000000;" x="133.295111" xlink:href="#m157dd98228" y="64.617683"/>
     <use style="stroke:#000000;" x="150.9548" xlink:href="#m157dd98228" y="65.815105"/>
     <use style="stroke:#000000;" x="142.406396" xlink:href="#m157dd98228" y="55.097755"/>
     <use style="stroke:#000000;" x="188.117096" xlink:href="#m157dd98228" y="59.681961"/>
     <use style="stroke:#000000;" x="132.861754" xlink:href="#m157dd98228" y="50.247085"/>
     <use style="stroke:#000000;" x="149.146447" xlink:href="#m157dd98228" y="81.396981"/>
     <use style="stroke:#000000;" x="171.151912" xlink:href="#m157dd98228" y="76.318568"/>
     <use style="stroke:#000000;" x="128.635185" xlink:href="#m157dd98228" y="75.672349"/>
     <use style="stroke:#000000;" x="136.519494" xlink:href="#m157dd98228" y="86.188731"/>
     <use style="stroke:#000000;" x="165.550175" xlink:href="#m157dd98228" y="50.382504"/>
     <use style="stroke:#000000;" x="133.409422" xlink:href="#m157dd98228" y="81.620787"/>
     <use style="stroke:#000000;" x="133.199957" xlink:href="#m157dd98228" y="82.316635"/>
     <use style="stroke:#000000;" x="150.287951" xlink:href="#m157dd98228" y="53.133363"/>
     <use style="stroke:#000000;" x="141.593138" xlink:href="#m157dd98228" y="86.289106"/>
     <use style="stroke:#000000;" x="145.206914" xlink:href="#m157dd98228" y="43.801133"/>
     <use style="stroke:#000000;" x="149.767561" xlink:href="#m157dd98228" y="53.02732"/>
     <use style="stroke:#000000;" x="151.421304" xlink:href="#m157dd98228" y="47.420397"/>
     <use style="stroke:#000000;" x="146.738633" xlink:href="#m157dd98228" y="73.136126"/>
     <use style="stroke:#000000;" x="129.502087" xlink:href="#m157dd98228" y="82.83685"/>
    </g>
   </g>
   <g id="line2d_13">
    <path clip-path="url(#p38c6384c2a)" d="M 118.309091 77.709477 
L 119.077686 77.426542 
L 119.846281 77.143606 
L 120.614876 76.860671 
L 121.383471 76.577735 
L 122.152066 76.2948 
L 122.920661 76.011864 
L 123.689256 75.728928 
L 124.457851 75.445993 
L 125.226446 75.163057 
L 125.995041 74.880122 
L 126.763636 74.597186 
L 127.532231 74.314251 
L 128.300826 74.031315 
L 129.069421 73.74838 
L 129.838017 73.465444 
L 130.606612 73.182509 
L 131.375207 72.899573 
L 132.143802 72.616638 
L 132.912397 72.333702 
L 133.680992 72.050766 
L 134.449587 71.767831 
L 135.218182 71.484895 
L 135.986777 71.20196 
L 136.755372 70.919024 
L 137.523967 70.636089 
L 138.292562 70.353153 
L 139.061157 70.070218 
L 139.829752 69.787282 
L 140.598347 69.504347 
L 141.366942 69.221411 
L 142.135537 68.938476 
L 142.904132 68.65554 
L 143.672727 68.372605 
L 144.441322 68.089669 
L 145.209917 67.806733 
L 145.978512 67.523798 
L 146.747107 67.240862 
L 147.515702 66.957927 
L 148.284298 66.674991 
L 149.052893 66.392056 
L 149.821488 66.10912 
L 150.590083 65.826185 
L 151.358678 65.543249 
L 152.127273 65.260314 
L 152.895868 64.977378 
L 153.664463 64.694443 
L 154.433058 64.411507 
L 155.201653 64.128571 
L 155.970248 63.845636 
L 156.738843 63.5627 
L 157.507438 63.279765 
L 158.276033 62.996829 
L 159.044628 62.713894 
L 159.813223 62.430958 
L 160.581818 62.148023 
L 161.350413 61.865087 
L 162.119008 61.582152 
L 162.887603 61.299216 
L 163.656198 61.016281 
L 164.424793 60.733345 
L 165.193388 60.450409 
L 165.961983 60.167474 
L 166.730579 59.884538 
L 167.499174 59.601603 
L 168.267769 59.318667 
L 169.036364 59.035732 
L 169.804959 58.752796 
L 170.573554 58.469861 
L 171.342149 58.186925 
L 172.110744 57.90399 
L 172.879339 57.621054 
L 173.647934 57.338119 
L 174.416529 57.055183 
L 175.185124 56.772247 
L 175.953719 56.489312 
L 176.722314 56.206376 
L 177.490909 55.923441 
L 178.259504 55.640505 
L 179.028099 55.35757 
L 179.796694 55.074634 
L 180.565289 54.791699 
L 181.333884 54.508763 
L 182.102479 54.225828 
L 182.871074 53.942892 
L 183.639669 53.659957 
L 184.408264 53.377021 
L 185.17686 53.094085 
L 185.945455 52.81115 
L 186.71405 52.528214 
L 187.482645 52.245279 
L 188.25124 51.962343 
L 189.019835 51.679408 
L 189.78843 51.396472 
L 190.557025 51.113537 
L 191.32562 50.830601 
L 192.094215 50.547666 
L 192.86281 50.26473 
L 193.631405 49.981795 
L 194.4 49.698859 
" style="fill:none;stroke:#000000;stroke-dasharray:1.85,0.8;stroke-dashoffset:0;stroke-width:0.5;"/>
   </g>
   <g id="patch_6">
    <path d="M 118.309091 94.5 
L 118.309091 12.96 
" style="fill:none;stroke:#000000;stroke-linecap:square;stroke-linejoin:miter;"/>
   </g>
   <g id="patch_7">
    <path d="M 118.309091 94.5 
L 194.4 94.5 
" style="fill:none;stroke:#000000;stroke-linecap:square;stroke-linejoin:miter;"/>
   </g>
   <g id="matplotlib.axis_3">
    <g id="xtick_4">
     <g id="line2d_14"/>
     <g id="text_12">
      <text style="font-family:Arial;font-size:8px;font-style:normal;font-weight:normal;text-anchor:middle;" transform="rotate(-0, 118.309091, 103.72625)" x="118.309091" y="103.72625">0</text>
     </g>
    </g>
    <g id="xtick_5">
     <g id="line2d_15"/>
     <g id="text_13">
      <text style="font-family:Arial;font-size:8px;font-style:normal;font-weight:normal;text-anchor:middle;" transform="rotate(-0, 146.069075, 103.72625)" x="146.069075" y="103.72625">1</text>
     </g>
    </g>
    <g id="xtick_6">
     <g id="line2d_16"/>
     <g id="text_14">
      <text style="font-family:Arial;font-size:8px;font-style:normal;font-weight:normal;text-anchor:middle;" transform="rotate(-0, 173.829059, 103.72625)" x="173.829059" y="103.72625">2</text>
     </g>
    </g>
    <g id="text_15">
     <!-- $\sigma$(Exc) -->
     <g transform="translate(141.504545 116.61625)">
      <text>
       <tspan style="font-family:DejaVu Sans;font-size:10px;font-style:oblique;font-weight:oblique;" x="0" y="-0.71875">σ</tspan>
       <tspan style="font-family:Arial;font-size:10px;font-style:regular;font-weight:regular;" x="6.337891 9.667969 16.337891 21.337891 26.337891" y="-0.71875">(Exc)</tspan>
      </text>
     </g>
    </g>
   </g>
   <g id="matplotlib.axis_4">
    <g id="ytick_6">
     <g id="line2d_17"/>
     <g id="text_16">
      <text style="font-family:Arial;font-size:8px;font-style:normal;font-weight:normal;text-anchor:end;" transform="rotate(-0, 114.809091, 97.363125)" x="114.809091" y="97.363125">0</text>
     </g>
    </g>
    <g id="ytick_7">
     <g id="line2d_18"/>
     <g id="text_17">
      <text style="font-family:Arial;font-size:8px;font-style:normal;font-weight:normal;text-anchor:end;" transform="rotate(-0, 114.809091, 67.615168)" x="114.809091" y="67.615168">1</text>
     </g>
    </g>
    <g id="ytick_8">
     <g id="line2d_19"/>
     <g id="text_18">
      <text style="font-family:Arial;font-size:8px;font-style:normal;font-weight:normal;text-anchor:end;" transform="rotate(-0, 114.809091, 37.867211)" x="114.809091" y="37.867211">2</text>
     </g>
    </g>
    <g id="text_19">
     <!-- $\sigma$(Inh) -->
     <g transform="translate(104.160341 67.18)rotate(-90)">
      <text>
       <tspan style="font-family:DejaVu Sans;font-size:10px;font-style:oblique;font-weight:oblique;" x="0" y="-0.71875">σ</tspan>
       <tspan style="font-family:Arial;font-size:10px;font-style:regular;font-weight:regular;" x="6.337891 9.667969 12.446289 18.007812 23.569336" y="-0.71875">(Inh)</tspan>
      </text>
     </g>
    </g>
   </g>
   <g id="legend_2">
    <g id="line2d_20">
     <path d="M 108.478125 31.995156 
L 128.478125 31.995156 
" style="fill:none;stroke:#000000;stroke-dasharray:1.85,0.8;stroke-dashoffset:0;stroke-width:0.5;"/>
    </g>
    <g id="line2d_21"/>
    <g id="text_20">
     <!-- $R^2$ 0.10 -->
     <g transform="translate(136.478125 29.2475)">
      <text>
       <tspan style="font-family:DejaVu Sans;font-size:10px;font-style:oblique;font-weight:oblique;" x="0" y="-0.9765625">R</tspan>
       <tspan style="font-family:DejaVu Sans;font-size:7px;font-style:book;font-weight:book;" x="7.650794" y="-4.8046875">2</tspan>
       <tspan style="font-family:Arial;font-size:10px;font-style:regular;font-weight:regular;" x="12.377845 15.156165 20.717689 23.496009 29.057533" y="-0.9765625"> 0.10</tspan>
      </text>
     </g>
     <text style="font-family:Arial;font-size:10px;font-style:normal;font-weight:normal;" transform="translate(136.478125 39.86)"> slope 0.34</text>
    </g>
   </g>
  </g>
 </g>
 <defs>
  <clipPath id="p9e7b6d35f6">
   <rect height="81.54" width="76.090909" x="27" y="12.96"/>
  </clipPath>
  <clipPath id="p38c6384c2a">
   <rect height="81.54" width="76.090909" x="118.309091" y="12.96"/>
  </clipPath>
 </defs>
</svg>
