<?xml version="1.0" encoding="utf-8" standalone="no"?>
<!DOCTYPE svg PUBLIC "-//W3C//DTD SVG 1.1//EN"
  "http://www.w3.org/Graphics/SVG/1.1/DTD/svg11.dtd">
<!-- Created with matplotlib (http://matplotlib.org/) -->
<svg height="108pt" version="1.1" viewBox="0 0 216 108" width="216pt" xmlns="http://www.w3.org/2000/svg" xmlns:xlink="http://www.w3.org/1999/xlink">
 <defs>
  <style type="text/css">
*{stroke-linecap:butt;stroke-linejoin:round;}
  </style>
 </defs>
 <g id="figure_1">
  <g id="patch_1">
   <path d="M 0 108 
L 216 108 
L 216 0 
L 0 0 
z
" style="fill:#ffffff;"/>
  </g>
  <g id="axes_1">
   <g id="patch_2">
    <path d="M 27 94.5 
L 103.090909 94.5 
L 103.090909 12.96 
L 27 12.96 
z
" style="fill:#ffffff;"/>
   </g>
   <g id="LineCollection_1">
    <path clip-path="url(#pa12ad52ed6)" d="M 27.068431 86.495006 
L 32.942215 86.495006 
" style="fill:none;stroke:#000000;stroke-width:0.5;"/>
    <path clip-path="url(#pa12ad52ed6)" d="M 22.67186 29.813129 
L 53.799093 29.813129 
" style="fill:none;stroke:#000000;stroke-width:0.5;"/>
    <path clip-path="url(#pa12ad52ed6)" d="M 26.678927 82.945741 
L 33.533356 82.945741 
" style="fill:none;stroke:#000000;stroke-width:0.5;"/>
    <path clip-path="url(#pa12ad52ed6)" d="M 26.148247 79.762781 
L 32.2947 79.762781 
" style="fill:none;stroke:#000000;stroke-width:0.5;"/>
    <path clip-path="url(#pa12ad52ed6)" d="M 26.483606 77.137963 
L 38.66802 77.137963 
" style="fill:none;stroke:#000000;stroke-width:0.5;"/>
    <path clip-path="url(#pa12ad52ed6)" d="M 26.270151 77.744851 
L 33.168348 77.744851 
" style="fill:none;stroke:#000000;stroke-width:0.5;"/>
    <path clip-path="url(#pa12ad52ed6)" d="M 28.63752 86.561407 
L 32.735915 86.561407 
" style="fill:none;stroke:#000000;stroke-width:0.5;"/>
    <path clip-path="url(#pa12ad52ed6)" d="M 22.168952 80.16726 
L 38.496908 80.16726 
" style="fill:none;stroke:#000000;stroke-width:0.5;"/>
    <path clip-path="url(#pa12ad52ed6)" d="M 26.868377 81.389581 
L 29.829177 81.389581 
" style="fill:none;stroke:#000000;stroke-width:0.5;"/>
    <path clip-path="url(#pa12ad52ed6)" d="M 26.740552 63.944407 
L 40.82275 63.944407 
" style="fill:none;stroke:#000000;stroke-width:0.5;"/>
    <path clip-path="url(#pa12ad52ed6)" d="M 25.312328 84.899634 
L 31.913184 84.899634 
" style="fill:none;stroke:#000000;stroke-width:0.5;"/>
    <path clip-path="url(#pa12ad52ed6)" d="M 26.291835 86.19643 
L 33.47751 86.19643 
" style="fill:none;stroke:#000000;stroke-width:0.5;"/>
    <path clip-path="url(#pa12ad52ed6)" d="M 26.75969 92.580433 
L 28.517086 92.580433 
" style="fill:none;stroke:#000000;stroke-width:0.5;"/>
    <path clip-path="url(#pa12ad52ed6)" d="M 26.926572 89.644758 
L 29.689715 89.644758 
" style="fill:none;stroke:#000000;stroke-width:0.5;"/>
    <path clip-path="url(#pa12ad52ed6)" d="M 26.778643 83.244396 
L 29.443798 83.244396 
" style="fill:none;stroke:#000000;stroke-width:0.5;"/>
    <path clip-path="url(#pa12ad52ed6)" d="M 29.119905 74.244162 
L 39.7937 74.244162 
" style="fill:none;stroke:#000000;stroke-width:0.5;"/>
    <path clip-path="url(#pa12ad52ed6)" d="M 21.720607 31.59938 
L 62.435393 31.59938 
" style="fill:none;stroke:#000000;stroke-width:0.5;"/>
    <path clip-path="url(#pa12ad52ed6)" d="M 25.266344 73.002078 
L 33.429503 73.002078 
" style="fill:none;stroke:#000000;stroke-width:0.5;"/>
    <path clip-path="url(#pa12ad52ed6)" d="M 26.307607 78.480277 
L 30.011215 78.480277 
" style="fill:none;stroke:#000000;stroke-width:0.5;"/>
    <path clip-path="url(#pa12ad52ed6)" d="M 27.0779 88.751454 
L 29.802726 88.751454 
" style="fill:none;stroke:#000000;stroke-width:0.5;"/>
    <path clip-path="url(#pa12ad52ed6)" d="M 26.810851 80.319742 
L 30.806195 80.319742 
" style="fill:none;stroke:#000000;stroke-width:0.5;"/>
    <path clip-path="url(#pa12ad52ed6)" d="M 26.019672 89.90455 
L 31.550393 89.90455 
" style="fill:none;stroke:#000000;stroke-width:0.5;"/>
    <path clip-path="url(#pa12ad52ed6)" d="M 27.141024 82.788372 
L 30.206911 82.788372 
" style="fill:none;stroke:#000000;stroke-width:0.5;"/>
    <path clip-path="url(#pa12ad52ed6)" d="M 25.644829 72.948683 
L 36.833668 72.948683 
" style="fill:none;stroke:#000000;stroke-width:0.5;"/>
    <path clip-path="url(#pa12ad52ed6)" d="M 25.560966 87.65867 
L 33.55713 87.65867 
" style="fill:none;stroke:#000000;stroke-width:0.5;"/>
    <path clip-path="url(#pa12ad52ed6)" d="M 23.827049 62.532831 
L 42.422086 62.532831 
" style="fill:none;stroke:#000000;stroke-width:0.5;"/>
    <path clip-path="url(#pa12ad52ed6)" d="M 31.267365 73.168931 
L 42.713319 73.168931 
" style="fill:none;stroke:#000000;stroke-width:0.5;"/>
    <path clip-path="url(#pa12ad52ed6)" d="M 27.281124 72.91336 
L 40.69598 72.91336 
" style="fill:none;stroke:#000000;stroke-width:0.5;"/>
    <path clip-path="url(#pa12ad52ed6)" d="M 26.311135 66.305786 
L 39.950973 66.305786 
" style="fill:none;stroke:#000000;stroke-width:0.5;"/>
    <path clip-path="url(#pa12ad52ed6)" d="M 26.812909 59.782675 
L 31.653726 59.782675 
" style="fill:none;stroke:#000000;stroke-width:0.5;"/>
   </g>
   <g id="LineCollection_2">
    <path clip-path="url(#pa12ad52ed6)" d="M 30.005323 90.09219 
L 30.005323 82.897821 
" style="fill:none;stroke:#000000;stroke-width:0.5;"/>
    <path clip-path="url(#pa12ad52ed6)" d="M 38.235476 42.839005 
L 38.235476 16.787253 
" style="fill:none;stroke:#000000;stroke-width:0.5;"/>
    <path clip-path="url(#pa12ad52ed6)" d="M 30.106141 85.453663 
L 30.106141 80.437819 
" style="fill:none;stroke:#000000;stroke-width:0.5;"/>
    <path clip-path="url(#pa12ad52ed6)" d="M 29.221473 81.090406 
L 29.221473 78.435156 
" style="fill:none;stroke:#000000;stroke-width:0.5;"/>
    <path clip-path="url(#pa12ad52ed6)" d="M 32.575813 84.395466 
L 32.575813 69.88046 
" style="fill:none;stroke:#000000;stroke-width:0.5;"/>
    <path clip-path="url(#pa12ad52ed6)" d="M 29.71925 79.261951 
L 29.71925 76.227752 
" style="fill:none;stroke:#000000;stroke-width:0.5;"/>
    <path clip-path="url(#pa12ad52ed6)" d="M 30.686717 90.246317 
L 30.686717 82.876496 
" style="fill:none;stroke:#000000;stroke-width:0.5;"/>
    <path clip-path="url(#pa12ad52ed6)" d="M 30.33293 91.269353 
L 30.33293 69.065168 
" style="fill:none;stroke:#000000;stroke-width:0.5;"/>
    <path clip-path="url(#pa12ad52ed6)" d="M 28.348777 83.835362 
L 28.348777 78.943799 
" style="fill:none;stroke:#000000;stroke-width:0.5;"/>
    <path clip-path="url(#pa12ad52ed6)" d="M 33.781651 72.912712 
L 33.781651 54.976101 
" style="fill:none;stroke:#000000;stroke-width:0.5;"/>
    <path clip-path="url(#pa12ad52ed6)" d="M 28.612756 85.763047 
L 28.612756 84.036221 
" style="fill:none;stroke:#000000;stroke-width:0.5;"/>
    <path clip-path="url(#pa12ad52ed6)" d="M 29.884672 89.469593 
L 29.884672 82.923268 
" style="fill:none;stroke:#000000;stroke-width:0.5;"/>
    <path clip-path="url(#pa12ad52ed6)" d="M 27.638388 93.332322 
L 27.638388 91.828545 
" style="fill:none;stroke:#000000;stroke-width:0.5;"/>
    <path clip-path="url(#pa12ad52ed6)" d="M 28.308143 91.962554 
L 28.308143 87.326962 
" style="fill:none;stroke:#000000;stroke-width:0.5;"/>
    <path clip-path="url(#pa12ad52ed6)" d="M 28.11122 86.572021 
L 28.11122 79.916771 
" style="fill:none;stroke:#000000;stroke-width:0.5;"/>
    <path clip-path="url(#pa12ad52ed6)" d="M 34.456802 78.440056 
L 34.456802 70.048267 
" style="fill:none;stroke:#000000;stroke-width:0.5;"/>
    <path clip-path="url(#pa12ad52ed6)" d="M 42.078 37.308667 
L 42.078 25.890092 
" style="fill:none;stroke:#000000;stroke-width:0.5;"/>
    <path clip-path="url(#pa12ad52ed6)" d="M 29.347924 84.118287 
L 29.347924 61.885868 
" style="fill:none;stroke:#000000;stroke-width:0.5;"/>
    <path clip-path="url(#pa12ad52ed6)" d="M 28.159411 84.321431 
L 28.159411 72.639123 
" style="fill:none;stroke:#000000;stroke-width:0.5;"/>
    <path clip-path="url(#pa12ad52ed6)" d="M 28.440313 89.552381 
L 28.440313 87.950527 
" style="fill:none;stroke:#000000;stroke-width:0.5;"/>
    <path clip-path="url(#pa12ad52ed6)" d="M 28.808523 82.727256 
L 28.808523 77.912227 
" style="fill:none;stroke:#000000;stroke-width:0.5;"/>
    <path clip-path="url(#pa12ad52ed6)" d="M 28.785033 92.795857 
L 28.785033 87.013243 
" style="fill:none;stroke:#000000;stroke-width:0.5;"/>
    <path clip-path="url(#pa12ad52ed6)" d="M 28.673967 85.241842 
L 28.673967 80.334902 
" style="fill:none;stroke:#000000;stroke-width:0.5;"/>
    <path clip-path="url(#pa12ad52ed6)" d="M 31.239249 76.02921 
L 31.239249 69.868156 
" style="fill:none;stroke:#000000;stroke-width:0.5;"/>
    <path clip-path="url(#pa12ad52ed6)" d="M 29.559048 91.600372 
L 29.559048 83.716969 
" style="fill:none;stroke:#000000;stroke-width:0.5;"/>
    <path clip-path="url(#pa12ad52ed6)" d="M 33.124567 74.985964 
L 33.124567 50.079699 
" style="fill:none;stroke:#000000;stroke-width:0.5;"/>
    <path clip-path="url(#pa12ad52ed6)" d="M 36.990342 78.786393 
L 36.990342 67.551468 
" style="fill:none;stroke:#000000;stroke-width:0.5;"/>
    <path clip-path="url(#pa12ad52ed6)" d="M 33.988552 83.889241 
L 33.988552 61.937479 
" style="fill:none;stroke:#000000;stroke-width:0.5;"/>
    <path clip-path="url(#pa12ad52ed6)" d="M 33.131054 74.63344 
L 33.131054 57.978133 
" style="fill:none;stroke:#000000;stroke-width:0.5;"/>
    <path clip-path="url(#pa12ad52ed6)" d="M 29.233317 68.730908 
L 29.233317 50.834442 
" style="fill:none;stroke:#000000;stroke-width:0.5;"/>
   </g>
   <g id="line2d_1">
    <path clip-path="url(#pa12ad52ed6)" d="M 27 90.46942 
L 27.768595 87.705965 
L 28.53719 84.942509 
L 29.305785 82.179053 
L 30.07438 79.415597 
L 30.842975 76.652142 
L 31.61157 73.888686 
L 32.380165 71.12523 
L 33.14876 68.361775 
L 33.917355 65.598319 
L 34.68595 62.834863 
L 35.454545 60.071408 
L 36.22314 57.307952 
L 36.991736 54.544496 
L 37.760331 51.781041 
L 38.528926 49.017585 
L 39.297521 46.254129 
L 40.066116 43.490674 
L 40.834711 40.727218 
L 41.603306 37.963762 
L 42.371901 35.200307 
L 43.140496 32.436851 
L 43.909091 29.673395 
L 44.677686 26.90994 
L 45.446281 24.146484 
L 46.214876 21.383028 
L 46.983471 18.619573 
L 47.752066 15.856117 
L 48.520661 13.092661 
L 49.289256 10.329205 
L 50.057851 7.56575 
L 50.826446 4.802294 
L 51.595041 2.038838 
L 52.363636 -0.724617 
L 52.440228 -1 
" style="fill:none;stroke:#000000;stroke-dasharray:1.85,0.8;stroke-dashoffset:0;stroke-width:0.5;"/>
   </g>
   <g id="line2d_2">
    <defs>
     <path d="M 0 3 
C 0.795609 3 1.55874 2.683901 2.12132 2.12132 
C 2.683901 1.55874 3 0.795609 3 0 
C 3 -0.795609 2.683901 -1.55874 2.12132 -2.12132 
C 1.55874 -2.683901 0.795609 -3 0 -3 
C -0.795609 -3 -1.55874 -2.683901 -2.12132 -2.12132 
C -2.683901 -1.55874 -3 -0.795609 -3 0 
C -3 0.795609 -2.683901 1.55874 -2.12132 2.12132 
C -1.55874 2.683901 -0.795609 3 0 3 
z
" id="m90fbd6fc74" style="stroke:#000000;"/>
    </defs>
    <g clip-path="url(#pa12ad52ed6)">
     <use style="stroke:#000000;" x="30.005323" xlink:href="#m90fbd6fc74" y="86.495006"/>
     <use style="stroke:#000000;" x="38.235476" xlink:href="#m90fbd6fc74" y="29.813129"/>
     <use style="stroke:#000000;" x="30.106141" xlink:href="#m90fbd6fc74" y="82.945741"/>
     <use style="stroke:#000000;" x="29.221473" xlink:href="#m90fbd6fc74" y="79.762781"/>
     <use style="stroke:#000000;" x="32.575813" xlink:href="#m90fbd6fc74" y="77.137963"/>
     <use style="stroke:#000000;" x="29.71925" xlink:href="#m90fbd6fc74" y="77.744851"/>
     <use style="stroke:#000000;" x="30.686717" xlink:href="#m90fbd6fc74" y="86.561407"/>
     <use style="stroke:#000000;" x="30.33293" xlink:href="#m90fbd6fc74" y="80.16726"/>
     <use style="stroke:#000000;" x="28.348777" xlink:href="#m90fbd6fc74" y="81.389581"/>
     <use style="stroke:#000000;" x="33.781651" xlink:href="#m90fbd6fc74" y="63.944407"/>
     <use style="stroke:#000000;" x="28.612756" xlink:href="#m90fbd6fc74" y="84.899634"/>
     <use style="stroke:#000000;" x="29.884672" xlink:href="#m90fbd6fc74" y="86.19643"/>
     <use style="stroke:#000000;" x="27.638388" xlink:href="#m90fbd6fc74" y="92.580433"/>
     <use style="stroke:#000000;" x="28.308143" xlink:href="#m90fbd6fc74" y="89.644758"/>
     <use style="stroke:#000000;" x="28.11122" xlink:href="#m90fbd6fc74" y="83.244396"/>
     <use style="stroke:#000000;" x="34.456802" xlink:href="#m90fbd6fc74" y="74.244162"/>
     <use style="stroke:#000000;" x="42.078" xlink:href="#m90fbd6fc74" y="31.59938"/>
     <use style="stroke:#000000;" x="29.347924" xlink:href="#m90fbd6fc74" y="73.002078"/>
     <use style="stroke:#000000;" x="28.159411" xlink:href="#m90fbd6fc74" y="78.480277"/>
     <use style="stroke:#000000;" x="28.440313" xlink:href="#m90fbd6fc74" y="88.751454"/>
     <use style="stroke:#000000;" x="28.808523" xlink:href="#m90fbd6fc74" y="80.319742"/>
     <use style="stroke:#000000;" x="28.785033" xlink:href="#m90fbd6fc74" y="89.90455"/>
     <use style="stroke:#000000;" x="28.673967" xlink:href="#m90fbd6fc74" y="82.788372"/>
     <use style="stroke:#000000;" x="31.239249" xlink:href="#m90fbd6fc74" y="72.948683"/>
     <use style="stroke:#000000;" x="29.559048" xlink:href="#m90fbd6fc74" y="87.65867"/>
     <use style="stroke:#000000;" x="33.124567" xlink:href="#m90fbd6fc74" y="62.532831"/>
     <use style="stroke:#000000;" x="36.990342" xlink:href="#m90fbd6fc74" y="73.168931"/>
     <use style="stroke:#000000;" x="33.988552" xlink:href="#m90fbd6fc74" y="72.91336"/>
     <use style="stroke:#000000;" x="33.131054" xlink:href="#m90fbd6fc74" y="66.305786"/>
     <use style="stroke:#000000;" x="29.233317" xlink:href="#m90fbd6fc74" y="59.782675"/>
    </g>
   </g>
   <g id="patch_3">
    <path d="M 27 94.5 
L 27 12.96 
" style="fill:none;stroke:#000000;stroke-linecap:square;stroke-linejoin:miter;"/>
   </g>
   <g id="patch_4">
    <path d="M 27 94.5 
L 103.090909 94.5 
" style="fill:none;stroke:#000000;stroke-linecap:square;stroke-linejoin:miter;"/>
   </g>
   <g id="matplotlib.axis_1">
    <g id="xtick_1">
     <g id="line2d_3"/>
     <g id="text_1">
      <text style="font-family:Arial;font-size:8px;font-style:normal;font-weight:normal;text-anchor:middle;" transform="rotate(-0, 27, 103.72625)" x="27" y="103.72625">0</text>
     </g>
    </g>
    <g id="xtick_2">
     <g id="line2d_4"/>
     <g id="text_2">
      <text style="font-family:Arial;font-size:8px;font-style:normal;font-weight:normal;text-anchor:middle;" transform="rotate(-0, 60.895813, 103.72625)" x="60.895813" y="103.72625">10</text>
     </g>
    </g>
    <g id="xtick_3">
     <g id="line2d_5"/>
     <g id="text_3">
      <text style="font-family:Arial;font-size:8px;font-style:normal;font-weight:normal;text-anchor:middle;" transform="rotate(-0, 94.791626, 103.72625)" x="94.791626" y="103.72625">20</text>
     </g>
    </g>
    <g id="text_4">
     <text style="font-family:Arial;font-size:10px;font-style:normal;font-weight:normal;text-anchor:middle;" transform="rotate(-0, 65.045455, 116.474063)" x="65.045455" y="116.474063">Exc</text>
    </g>
   </g>
   <g id="matplotlib.axis_2">
    <g id="ytick_1">
     <g id="line2d_6"/>
     <g id="text_5">
      <text style="font-family:Arial;font-size:8px;font-style:normal;font-weight:normal;text-anchor:end;" transform="rotate(-0, 23.5, 97.363125)" x="23.5" y="97.363125">0</text>
     </g>
    </g>
    <g id="ytick_2">
     <g id="line2d_7"/>
     <g id="text_6">
      <text style="font-family:Arial;font-size:8px;font-style:normal;font-weight:normal;text-anchor:end;" transform="rotate(-0, 23.5, 79.20153)" x="23.5" y="79.20153">5</text>
     </g>
    </g>
    <g id="ytick_3">
     <g id="line2d_8"/>
     <g id="text_7">
      <text style="font-family:Arial;font-size:8px;font-style:normal;font-weight:normal;text-anchor:end;" transform="rotate(-0, 23.5, 61.039934)" x="23.5" y="61.039934">10</text>
     </g>
    </g>
    <g id="ytick_4">
     <g id="line2d_9"/>
     <g id="text_8">
      <text style="font-family:Arial;font-size:8px;font-style:normal;font-weight:normal;text-anchor:end;" transform="rotate(-0, 23.5, 42.878339)" x="23.5" y="42.878339">15</text>
     </g>
    </g>
    <g id="ytick_5">
     <g id="line2d_10"/>
     <g id="text_9">
      <text style="font-family:Arial;font-size:8px;font-style:normal;font-weight:normal;text-anchor:end;" transform="rotate(-0, 23.5, 24.716744)" x="23.5" y="24.716744">20</text>
     </g>
    </g>
    <g id="text_10">
     <text style="font-family:Arial;font-size:10px;font-style:normal;font-weight:normal;text-anchor:middle;" transform="rotate(-90, 8.615, 53.73)" x="8.615" y="53.73">Inh</text>
    </g>
   </g>
   <g id="legend_1">
    <g id="line2d_11">
     <path d="M 36 75.622656 
L 56 75.622656 
" style="fill:none;stroke:#000000;stroke-dasharray:1.85,0.8;stroke-dashoffset:0;stroke-width:0.5;"/>
    </g>
    <g id="line2d_12"/>
    <g id="text_11">
     <!-- $R^2$ 0.68 -->
     <g transform="translate(64 72.875)">
      <text>
       <tspan style="font-family:DejaVu Sans;font-size:10px;font-style:oblique;font-weight:oblique;" x="0" y="-0.9765625">R</tspan>
       <tspan style="font-family:DejaVu Sans;font-size:7px;font-style:book;font-weight:book;" x="7.650794" y="-4.8046875">2</tspan>
       <tspan style="font-family:Arial;font-size:10px;font-style:regular;font-weight:regular;" x="12.377845 15.156165 20.717689 23.496009 29.057533" y="-0.9765625"> 0.68</tspan>
      </text>
     </g>
     <text style="font-family:Arial;font-size:10px;font-style:normal;font-weight:normal;" transform="translate(64 83.4875)"> slope 3.36</text>
    </g>
   </g>
  </g>
  <g id="axes_2">
   <g id="patch_5">
    <path d="M 118.309091 94.5 
L 194.4 94.5 
L 194.4 12.96 
L 118.309091 12.96 
z
" style="fill:#ffffff;"/>
   </g>
   <g id="PathCollection_1">
    <defs>
     <path d="M 0 2.44949 
C 0.649612 2.44949 1.272706 2.191396 1.732051 1.732051 
C 2.191396 1.272706 2.44949 0.649612 2.44949 0 
C 2.44949 -0.649612 2.191396 -1.272706 1.732051 -1.732051 
C 1.272706 -2.191396 0.649612 -2.44949 0 -2.44949 
C -0.649612 -2.44949 -1.272706 -2.191396 -1.732051 -1.732051 
C -2.191396 -1.272706 -2.44949 -0.649612 -2.44949 0 
C -2.44949 0.649612 -2.191396 1.272706 -1.732051 1.732051 
C -1.272706 2.191396 -0.649612 2.44949 0 2.44949 
z
" id="m502c652dc9" style="stroke:#000000;"/>
    </defs>
    <g clip-path="url(#p779a768420)">
     <use style="stroke:#000000;" x="128.755878" xlink:href="#m502c652dc9" y="81.704494"/>
     <use style="stroke:#000000;" x="173.670262" xlink:href="#m502c652dc9" y="48.165798"/>
     <use style="stroke:#000000;" x="130.499998" xlink:href="#m502c652dc9" y="85.579097"/>
     <use style="stroke:#000000;" x="129.240832" xlink:href="#m502c652dc9" y="89.77752"/>
     <use style="stroke:#000000;" x="139.979614" xlink:href="#m502c652dc9" y="68.684414"/>
     <use style="stroke:#000000;" x="130.577842" xlink:href="#m502c652dc9" y="89.103542"/>
     <use style="stroke:#000000;" x="125.598269" xlink:href="#m502c652dc9" y="81.392445"/>
     <use style="stroke:#000000;" x="147.349088" xlink:href="#m502c652dc9" y="55.008867"/>
     <use style="stroke:#000000;" x="123.575006" xlink:href="#m502c652dc9" y="85.800137"/>
     <use style="stroke:#000000;" x="143.354907" xlink:href="#m502c652dc9" y="62.598938"/>
     <use style="stroke:#000000;" x="130.049008" xlink:href="#m502c652dc9" y="91.428762"/>
     <use style="stroke:#000000;" x="131.089134" xlink:href="#m502c652dc9" y="82.857068"/>
     <use style="stroke:#000000;" x="121.434698" xlink:href="#m502c652dc9" y="91.825465"/>
     <use style="stroke:#000000;" x="123.223462" xlink:href="#m502c652dc9" y="86.255394"/>
     <use style="stroke:#000000;" x="123.049187" xlink:href="#m502c652dc9" y="82.66334"/>
     <use style="stroke:#000000;" x="137.29291" xlink:href="#m502c652dc9" y="79.574829"/>
     <use style="stroke:#000000;" x="190.722153" xlink:href="#m502c652dc9" y="74.191556"/>
     <use style="stroke:#000000;" x="132.827632" xlink:href="#m502c652dc9" y="54.958652"/>
     <use style="stroke:#000000;" x="124.896122" xlink:href="#m502c652dc9" y="73.722494"/>
     <use style="stroke:#000000;" x="123.155315" xlink:href="#m502c652dc9" y="91.651032"/>
     <use style="stroke:#000000;" x="125.414989" xlink:href="#m502c652dc9" y="85.936255"/>
     <use style="stroke:#000000;" x="128.145726" xlink:href="#m502c652dc9" y="84.215364"/>
     <use style="stroke:#000000;" x="123.761907" xlink:href="#m502c652dc9" y="85.772788"/>
     <use style="stroke:#000000;" x="138.208941" xlink:href="#m502c652dc9" y="83.542292"/>
     <use style="stroke:#000000;" x="132.530626" xlink:href="#m502c652dc9" y="80.479015"/>
     <use style="stroke:#000000;" x="151.381194" xlink:href="#m502c652dc9" y="50.203096"/>
     <use style="stroke:#000000;" x="138.66623" xlink:href="#m502c652dc9" y="74.518185"/>
     <use style="stroke:#000000;" x="142.168009" xlink:href="#m502c652dc9" y="55.457813"/>
     <use style="stroke:#000000;" x="142.568151" xlink:href="#m502c652dc9" y="64.877793"/>
     <use style="stroke:#000000;" x="126.9187" xlink:href="#m502c652dc9" y="62.670337"/>
    </g>
   </g>
   <g id="line2d_13">
    <path clip-path="url(#p779a768420)" d="M 118.309091 84.812587 
L 119.077686 84.421753 
L 119.846281 84.030919 
L 120.614876 83.640085 
L 121.383471 83.249251 
L 122.152066 82.858418 
L 122.920661 82.467584 
L 123.689256 82.07675 
L 124.457851 81.685916 
L 125.226446 81.295082 
L 125.995041 80.904248 
L 126.763636 80.513414 
L 127.532231 80.12258 
L 128.300826 79.731746 
L 129.069421 79.340912 
L 129.838017 78.950078 
L 130.606612 78.559244 
L 131.375207 78.168411 
L 132.143802 77.777577 
L 132.912397 77.386743 
L 133.680992 76.995909 
L 134.449587 76.605075 
L 135.218182 76.214241 
L 135.986777 75.823407 
L 136.755372 75.432573 
L 137.523967 75.041739 
L 138.292562 74.650905 
L 139.061157 74.260071 
L 139.829752 73.869238 
L 140.598347 73.478404 
L 141.366942 73.08757 
L 142.135537 72.696736 
L 142.904132 72.305902 
L 143.672727 71.915068 
L 144.441322 71.524234 
L 145.209917 71.1334 
L 145.978512 70.742566 
L 146.747107 70.351732 
L 147.515702 69.960898 
L 148.284298 69.570065 
L 149.052893 69.179231 
L 149.821488 68.788397 
L 150.590083 68.397563 
L 151.358678 68.006729 
L 152.127273 67.615895 
L 152.895868 67.225061 
L 153.664463 66.834227 
L 154.433058 66.443393 
L 155.201653 66.052559 
L 155.970248 65.661725 
L 156.738843 65.270891 
L 157.507438 64.880058 
L 158.276033 64.489224 
L 159.044628 64.09839 
L 159.813223 63.707556 
L 160.581818 63.316722 
L 161.350413 62.925888 
L 162.119008 62.535054 
L 162.887603 62.14422 
L 163.656198 61.753386 
L 164.424793 61.362552 
L 165.193388 60.971718 
L 165.961983 60.580885 
L 166.730579 60.190051 
L 167.499174 59.799217 
L 168.267769 59.408383 
L 169.036364 59.017549 
L 169.804959 58.626715 
L 170.573554 58.235881 
L 171.342149 57.845047 
L 172.110744 57.454213 
L 172.879339 57.063379 
L 173.647934 56.672545 
L 174.416529 56.281711 
L 175.185124 55.890878 
L 175.953719 55.500044 
L 176.722314 55.10921 
L 177.490909 54.718376 
L 178.259504 54.327542 
L 179.028099 53.936708 
L 179.796694 53.545874 
L 180.565289 53.15504 
L 181.333884 52.764206 
L 182.102479 52.373372 
L 182.871074 51.982538 
L 183.639669 51.591705 
L 184.408264 51.200871 
L 185.17686 50.810037 
L 185.945455 50.419203 
L 186.71405 50.028369 
L 187.482645 49.637535 
L 188.25124 49.246701 
L 189.019835 48.855867 
L 189.78843 48.465033 
L 190.557025 48.074199 
L 191.32562 47.683365 
L 192.094215 47.292531 
L 192.86281 46.901698 
L 193.631405 46.510864 
L 194.4 46.12003 
" style="fill:none;stroke:#000000;stroke-dasharray:1.85,0.8;stroke-dashoffset:0;stroke-width:0.5;"/>
   </g>
   <g id="patch_6">
    <path d="M 118.309091 94.5 
L 118.309091 12.96 
" style="fill:none;stroke:#000000;stroke-linecap:square;stroke-linejoin:miter;"/>
   </g>
   <g id="patch_7">
    <path d="M 118.309091 94.5 
L 194.4 94.5 
" style="fill:none;stroke:#000000;stroke-linecap:square;stroke-linejoin:miter;"/>
   </g>
   <g id="matplotlib.axis_3">
    <g id="xtick_4">
     <g id="line2d_14"/>
     <g id="text_12">
      <text style="font-family:Arial;font-size:8px;font-style:normal;font-weight:normal;text-anchor:middle;" transform="rotate(-0, 118.309091, 103.72625)" x="118.309091" y="103.72625">0.0</text>
     </g>
    </g>
    <g id="xtick_5">
     <g id="line2d_15"/>
     <g id="text_13">
      <text style="font-family:Arial;font-size:8px;font-style:normal;font-weight:normal;text-anchor:middle;" transform="rotate(-0, 148.451698, 103.72625)" x="148.451698" y="103.72625">2.5</text>
     </g>
    </g>
    <g id="xtick_6">
     <g id="line2d_16"/>
     <g id="text_14">
      <text style="font-family:Arial;font-size:8px;font-style:normal;font-weight:normal;text-anchor:middle;" transform="rotate(-0, 178.594306, 103.72625)" x="178.594306" y="103.72625">5.0</text>
     </g>
    </g>
    <g id="text_15">
     <!-- $\sigma$(Exc) -->
     <g transform="translate(141.504545 116.61625)">
      <text>
       <tspan style="font-family:DejaVu Sans;font-size:10px;font-style:oblique;font-weight:oblique;" x="0" y="-0.71875">σ</tspan>
       <tspan style="font-family:Arial;font-size:10px;font-style:regular;font-weight:regular;" x="6.337891 9.667969 16.337891 21.337891 26.337891" y="-0.71875">(Exc)</tspan>
      </text>
     </g>
    </g>
   </g>
   <g id="matplotlib.axis_4">
    <g id="ytick_6">
     <g id="line2d_17"/>
     <g id="text_16">
      <text style="font-family:Arial;font-size:8px;font-style:normal;font-weight:normal;text-anchor:end;" transform="rotate(-0, 114.809091, 97.363125)" x="114.809091" y="97.363125">0</text>
     </g>
    </g>
    <g id="ytick_7">
     <g id="line2d_18"/>
     <g id="text_17">
      <text style="font-family:Arial;font-size:8px;font-style:normal;font-weight:normal;text-anchor:end;" transform="rotate(-0, 114.809091, 71.522159)" x="114.809091" y="71.522159">2</text>
     </g>
    </g>
    <g id="ytick_8">
     <g id="line2d_19"/>
     <g id="text_18">
      <text style="font-family:Arial;font-size:8px;font-style:normal;font-weight:normal;text-anchor:end;" transform="rotate(-0, 114.809091, 45.681194)" x="114.809091" y="45.681194">4</text>
     </g>
    </g>
    <g id="ytick_9">
     <g id="line2d_20"/>
     <g id="text_19">
      <text style="font-family:Arial;font-size:8px;font-style:normal;font-weight:normal;text-anchor:end;" transform="rotate(-0, 114.809091, 19.840228)" x="114.809091" y="19.840228">6</text>
     </g>
    </g>
    <g id="text_20">
     <!-- $\sigma$(Inh) -->
     <g transform="translate(104.160341 67.18)rotate(-90)">
      <text>
       <tspan style="font-family:DejaVu Sans;font-size:10px;font-style:oblique;font-weight:oblique;" x="0" y="-0.71875">σ</tspan>
       <tspan style="font-family:Arial;font-size:10px;font-style:regular;font-weight:regular;" x="6.337891 9.667969 12.446289 18.007812 23.569336" y="-0.71875">(Inh)</tspan>
      </text>
     </g>
    </g>
   </g>
   <g id="legend_2">
    <g id="line2d_21">
     <path d="M 108.478125 31.995156 
L 128.478125 31.995156 
" style="fill:none;stroke:#000000;stroke-dasharray:1.85,0.8;stroke-dashoffset:0;stroke-width:0.5;"/>
    </g>
    <g id="line2d_22"/>
    <g id="text_21">
     <!-- $R^2$ 0.33 -->
     <g transform="translate(136.478125 29.2475)">
      <text>
       <tspan style="font-family:DejaVu Sans;font-size:10px;font-style:oblique;font-weight:oblique;" x="0" y="-0.9765625">R</tspan>
       <tspan style="font-family:DejaVu Sans;font-size:7px;font-style:book;font-weight:book;" x="7.650794" y="-4.8046875">2</tspan>
       <tspan style="font-family:Arial;font-size:10px;font-style:regular;font-weight:regular;" x="12.377845 15.156165 20.717689 23.496009 29.057533" y="-0.9765625"> 0.33</tspan>
      </text>
     </g>
     <text style="font-family:Arial;font-size:10px;font-style:normal;font-weight:normal;" transform="translate(136.478125 39.86)"> slope 0.47</text>
    </g>
   </g>
  </g>
 </g>
 <defs>
  <clipPath id="pa12ad52ed6">
   <rect height="81.54" width="76.090909" x="27" y="12.96"/>
  </clipPath>
  <clipPath id="p779a768420">
   <rect height="81.54" width="76.090909" x="118.309091" y="12.96"/>
  </clipPath>
 </defs>
</svg>
