<?xml version="1.0" encoding="utf-8" standalone="no"?>
<!DOCTYPE svg PUBLIC "-//W3C//DTD SVG 1.1//EN"
  "http://www.w3.org/Graphics/SVG/1.1/DTD/svg11.dtd">
<!-- Created with matplotlib (http://matplotlib.org/) -->
<svg height="108pt" version="1.1" viewBox="0 0 216 108" width="216pt" xmlns="http://www.w3.org/2000/svg" xmlns:xlink="http://www.w3.org/1999/xlink">
 <defs>
  <style type="text/css">
*{stroke-linecap:butt;stroke-linejoin:round;}
  </style>
 </defs>
 <g id="figure_1">
  <g id="patch_1">
   <path d="M 0 108 
L 216 108 
L 216 0 
L 0 0 
z
" style="fill:#ffffff;"/>
  </g>
  <g id="axes_1">
   <g id="patch_2">
    <path d="M 27 94.5 
L 103.090909 94.5 
L 103.090909 12.96 
L 27 12.96 
z
" style="fill:#ffffff;"/>
   </g>
   <g id="LineCollection_1">
    <path clip-path="url(#p1a6da94f21)" d="M 27.283012 87.285648 
L 30.403219 87.285648 
" style="fill:none;stroke:#000000;stroke-width:0.5;"/>
    <path clip-path="url(#p1a6da94f21)" d="M 27.744279 74.130299 
L 38.107306 74.130299 
" style="fill:none;stroke:#000000;stroke-width:0.5;"/>
    <path clip-path="url(#p1a6da94f21)" d="M 29.740418 52.794402 
L 58.613954 52.794402 
" style="fill:none;stroke:#000000;stroke-width:0.5;"/>
    <path clip-path="url(#p1a6da94f21)" d="M 30.089059 70.415483 
L 36.448719 70.415483 
" style="fill:none;stroke:#000000;stroke-width:0.5;"/>
    <path clip-path="url(#p1a6da94f21)" d="M 28.080157 73.710304 
L 35.504057 73.710304 
" style="fill:none;stroke:#000000;stroke-width:0.5;"/>
    <path clip-path="url(#p1a6da94f21)" d="M 25.75023 66.819172 
L 39.119986 66.819172 
" style="fill:none;stroke:#000000;stroke-width:0.5;"/>
    <path clip-path="url(#p1a6da94f21)" d="M 26.296607 79.239492 
L 30.264943 79.239492 
" style="fill:none;stroke:#000000;stroke-width:0.5;"/>
    <path clip-path="url(#p1a6da94f21)" d="M 27.591284 76.560919 
L 40.211791 76.560919 
" style="fill:none;stroke:#000000;stroke-width:0.5;"/>
    <path clip-path="url(#p1a6da94f21)" d="M 30.311901 56.289757 
L 44.615358 56.289757 
" style="fill:none;stroke:#000000;stroke-width:0.5;"/>
    <path clip-path="url(#p1a6da94f21)" d="M 33.178048 38.846304 
L 48.028203 38.846304 
" style="fill:none;stroke:#000000;stroke-width:0.5;"/>
    <path clip-path="url(#p1a6da94f21)" d="M 27.535899 71.030396 
L 35.883392 71.030396 
" style="fill:none;stroke:#000000;stroke-width:0.5;"/>
    <path clip-path="url(#p1a6da94f21)" d="M 26.344173 79.284985 
L 30.043357 79.284985 
" style="fill:none;stroke:#000000;stroke-width:0.5;"/>
    <path clip-path="url(#p1a6da94f21)" d="M 26.640234 83.954688 
L 32.901133 83.954688 
" style="fill:none;stroke:#000000;stroke-width:0.5;"/>
    <path clip-path="url(#p1a6da94f21)" d="M 26.672289 80.814472 
L 37.72984 80.814472 
" style="fill:none;stroke:#000000;stroke-width:0.5;"/>
    <path clip-path="url(#p1a6da94f21)" d="M 31.238602 55.374882 
L 44.279438 55.374882 
" style="fill:none;stroke:#000000;stroke-width:0.5;"/>
    <path clip-path="url(#p1a6da94f21)" d="M 27.34602 79.283722 
L 33.745758 79.283722 
" style="fill:none;stroke:#000000;stroke-width:0.5;"/>
    <path clip-path="url(#p1a6da94f21)" d="M 29.580086 83.74296 
L 32.563068 83.74296 
" style="fill:none;stroke:#000000;stroke-width:0.5;"/>
    <path clip-path="url(#p1a6da94f21)" d="M 26.449351 92.197618 
L 28.310432 92.197618 
" style="fill:none;stroke:#000000;stroke-width:0.5;"/>
    <path clip-path="url(#p1a6da94f21)" d="M 29.253685 52.476826 
L 36.981492 52.476826 
" style="fill:none;stroke:#000000;stroke-width:0.5;"/>
    <path clip-path="url(#p1a6da94f21)" d="M 31.625236 37.248721 
L 43.72134 37.248721 
" style="fill:none;stroke:#000000;stroke-width:0.5;"/>
    <path clip-path="url(#p1a6da94f21)" d="M 39.058338 29.513551 
L 61.771949 29.513551 
" style="fill:none;stroke:#000000;stroke-width:0.5;"/>
    <path clip-path="url(#p1a6da94f21)" d="M 26.801005 76.033513 
L 37.731917 76.033513 
" style="fill:none;stroke:#000000;stroke-width:0.5;"/>
    <path clip-path="url(#p1a6da94f21)" d="M 29.969615 79.728663 
L 38.753442 79.728663 
" style="fill:none;stroke:#000000;stroke-width:0.5;"/>
    <path clip-path="url(#p1a6da94f21)" d="M 26.649995 62.849268 
L 27.832941 62.849268 
" style="fill:none;stroke:#000000;stroke-width:0.5;"/>
    <path clip-path="url(#p1a6da94f21)" d="M 26.324359 75.819498 
L 33.687885 75.819498 
" style="fill:none;stroke:#000000;stroke-width:0.5;"/>
    <path clip-path="url(#p1a6da94f21)" d="M 25.475843 78.832975 
L 30.627183 78.832975 
" style="fill:none;stroke:#000000;stroke-width:0.5;"/>
    <path clip-path="url(#p1a6da94f21)" d="M 26.562145 92.583495 
L 28.042007 92.583495 
" style="fill:none;stroke:#000000;stroke-width:0.5;"/>
    <path clip-path="url(#p1a6da94f21)" d="M 26.991235 57.533935 
L 38.090133 57.533935 
" style="fill:none;stroke:#000000;stroke-width:0.5;"/>
    <path clip-path="url(#p1a6da94f21)" d="M 25.614948 76.105904 
L 35.540007 76.105904 
" style="fill:none;stroke:#000000;stroke-width:0.5;"/>
    <path clip-path="url(#p1a6da94f21)" d="M 26.35928 92.203482 
L 28.524783 92.203482 
" style="fill:none;stroke:#000000;stroke-width:0.5;"/>
   </g>
   <g id="LineCollection_2">
    <path clip-path="url(#p1a6da94f21)" d="M 28.843116 88.462701 
L 28.843116 86.108595 
" style="fill:none;stroke:#000000;stroke-width:0.5;"/>
    <path clip-path="url(#p1a6da94f21)" d="M 32.925793 83.217827 
L 32.925793 65.042772 
" style="fill:none;stroke:#000000;stroke-width:0.5;"/>
    <path clip-path="url(#p1a6da94f21)" d="M 44.177186 56.857053 
L 44.177186 48.731751 
" style="fill:none;stroke:#000000;stroke-width:0.5;"/>
    <path clip-path="url(#p1a6da94f21)" d="M 33.268889 76.332083 
L 33.268889 64.498883 
" style="fill:none;stroke:#000000;stroke-width:0.5;"/>
    <path clip-path="url(#p1a6da94f21)" d="M 31.792107 76.839954 
L 31.792107 70.580655 
" style="fill:none;stroke:#000000;stroke-width:0.5;"/>
    <path clip-path="url(#p1a6da94f21)" d="M 32.435108 71.163055 
L 32.435108 62.47529 
" style="fill:none;stroke:#000000;stroke-width:0.5;"/>
    <path clip-path="url(#p1a6da94f21)" d="M 28.280775 83.618304 
L 28.280775 74.860679 
" style="fill:none;stroke:#000000;stroke-width:0.5;"/>
    <path clip-path="url(#p1a6da94f21)" d="M 33.901538 83.045858 
L 33.901538 70.07598 
" style="fill:none;stroke:#000000;stroke-width:0.5;"/>
    <path clip-path="url(#p1a6da94f21)" d="M 37.463629 64.562598 
L 37.463629 48.016916 
" style="fill:none;stroke:#000000;stroke-width:0.5;"/>
    <path clip-path="url(#p1a6da94f21)" d="M 40.603125 48.060514 
L 40.603125 29.632095 
" style="fill:none;stroke:#000000;stroke-width:0.5;"/>
    <path clip-path="url(#p1a6da94f21)" d="M 31.709646 75.166524 
L 31.709646 66.894268 
" style="fill:none;stroke:#000000;stroke-width:0.5;"/>
    <path clip-path="url(#p1a6da94f21)" d="M 28.193765 83.154781 
L 28.193765 75.415189 
" style="fill:none;stroke:#000000;stroke-width:0.5;"/>
    <path clip-path="url(#p1a6da94f21)" d="M 29.770684 85.409453 
L 29.770684 82.499923 
" style="fill:none;stroke:#000000;stroke-width:0.5;"/>
    <path clip-path="url(#p1a6da94f21)" d="M 32.201065 86.391557 
L 32.201065 75.237388 
" style="fill:none;stroke:#000000;stroke-width:0.5;"/>
    <path clip-path="url(#p1a6da94f21)" d="M 37.75902 63.771566 
L 37.75902 46.978198 
" style="fill:none;stroke:#000000;stroke-width:0.5;"/>
    <path clip-path="url(#p1a6da94f21)" d="M 30.545889 83.329142 
L 30.545889 75.238303 
" style="fill:none;stroke:#000000;stroke-width:0.5;"/>
    <path clip-path="url(#p1a6da94f21)" d="M 31.071577 86.213576 
L 31.071577 81.272345 
" style="fill:none;stroke:#000000;stroke-width:0.5;"/>
    <path clip-path="url(#p1a6da94f21)" d="M 27.379892 92.197618 
L 27.379892 92.197618 
" style="fill:none;stroke:#000000;stroke-width:0.5;"/>
    <path clip-path="url(#p1a6da94f21)" d="M 33.117588 59.299191 
L 33.117588 45.654461 
" style="fill:none;stroke:#000000;stroke-width:0.5;"/>
    <path clip-path="url(#p1a6da94f21)" d="M 37.673288 43.849563 
L 37.673288 30.64788 
" style="fill:none;stroke:#000000;stroke-width:0.5;"/>
    <path clip-path="url(#p1a6da94f21)" d="M 50.415144 42.230798 
L 50.415144 16.796304 
" style="fill:none;stroke:#000000;stroke-width:0.5;"/>
    <path clip-path="url(#p1a6da94f21)" d="M 32.266461 81.345511 
L 32.266461 70.721516 
" style="fill:none;stroke:#000000;stroke-width:0.5;"/>
    <path clip-path="url(#p1a6da94f21)" d="M 34.361528 85.366071 
L 34.361528 74.091255 
" style="fill:none;stroke:#000000;stroke-width:0.5;"/>
    <path clip-path="url(#p1a6da94f21)" d="M 27.241468 69.577489 
L 27.241468 56.121047 
" style="fill:none;stroke:#000000;stroke-width:0.5;"/>
    <path clip-path="url(#p1a6da94f21)" d="M 30.006122 77.615277 
L 30.006122 74.02372 
" style="fill:none;stroke:#000000;stroke-width:0.5;"/>
    <path clip-path="url(#p1a6da94f21)" d="M 28.051513 81.84417 
L 28.051513 75.821781 
" style="fill:none;stroke:#000000;stroke-width:0.5;"/>
    <path clip-path="url(#p1a6da94f21)" d="M 27.302076 93.522387 
L 27.302076 91.644603 
" style="fill:none;stroke:#000000;stroke-width:0.5;"/>
    <path clip-path="url(#p1a6da94f21)" d="M 32.540684 63.075793 
L 32.540684 51.992076 
" style="fill:none;stroke:#000000;stroke-width:0.5;"/>
    <path clip-path="url(#p1a6da94f21)" d="M 30.577477 80.945203 
L 30.577477 71.266605 
" style="fill:none;stroke:#000000;stroke-width:0.5;"/>
    <path clip-path="url(#p1a6da94f21)" d="M 27.442032 93.328542 
L 27.442032 91.078423 
" style="fill:none;stroke:#000000;stroke-width:0.5;"/>
   </g>
   <g id="line2d_1">
    <path clip-path="url(#p1a6da94f21)" d="M 27 85.287714 
L 27.768595 83.310215 
L 28.53719 81.332715 
L 29.305785 79.355216 
L 30.07438 77.377717 
L 30.842975 75.400218 
L 31.61157 73.422719 
L 32.380165 71.445219 
L 33.14876 69.46772 
L 33.917355 67.490221 
L 34.68595 65.512722 
L 35.454545 63.535222 
L 36.22314 61.557723 
L 36.991736 59.580224 
L 37.760331 57.602725 
L 38.528926 55.625225 
L 39.297521 53.647726 
L 40.066116 51.670227 
L 40.834711 49.692728 
L 41.603306 47.715229 
L 42.371901 45.737729 
L 43.140496 43.76023 
L 43.909091 41.782731 
L 44.677686 39.805232 
L 45.446281 37.827732 
L 46.214876 35.850233 
L 46.983471 33.872734 
L 47.752066 31.895235 
L 48.520661 29.917735 
L 49.289256 27.940236 
L 50.057851 25.962737 
L 50.826446 23.985238 
L 51.595041 22.007739 
L 52.363636 20.030239 
L 53.132231 18.05274 
L 53.900826 16.075241 
L 54.669421 14.097742 
L 55.438017 12.120242 
L 56.206612 10.142743 
L 56.975207 8.165244 
L 57.743802 6.187745 
L 58.512397 4.210246 
L 59.280992 2.232746 
L 60.049587 0.255247 
L 60.537464 -1 
" style="fill:none;stroke:#000000;stroke-dasharray:1.85,0.8;stroke-dashoffset:0;stroke-width:0.5;"/>
   </g>
   <g id="line2d_2">
    <defs>
     <path d="M 0 3 
C 0.795609 3 1.55874 2.683901 2.12132 2.12132 
C 2.683901 1.55874 3 0.795609 3 0 
C 3 -0.795609 2.683901 -1.55874 2.12132 -2.12132 
C 1.55874 -2.683901 0.795609 -3 0 -3 
C -0.795609 -3 -1.55874 -2.683901 -2.12132 -2.12132 
C -2.683901 -1.55874 -3 -0.795609 -3 0 
C -3 0.795609 -2.683901 1.55874 -2.12132 2.12132 
C -1.55874 2.683901 -0.795609 3 0 3 
z
" id="mf7fa483df5" style="stroke:#000000;"/>
    </defs>
    <g clip-path="url(#p1a6da94f21)">
     <use style="stroke:#000000;" x="28.843116" xlink:href="#mf7fa483df5" y="87.285648"/>
     <use style="stroke:#000000;" x="32.925793" xlink:href="#mf7fa483df5" y="74.130299"/>
     <use style="stroke:#000000;" x="44.177186" xlink:href="#mf7fa483df5" y="52.794402"/>
     <use style="stroke:#000000;" x="33.268889" xlink:href="#mf7fa483df5" y="70.415483"/>
     <use style="stroke:#000000;" x="31.792107" xlink:href="#mf7fa483df5" y="73.710304"/>
     <use style="stroke:#000000;" x="32.435108" xlink:href="#mf7fa483df5" y="66.819172"/>
     <use style="stroke:#000000;" x="28.280775" xlink:href="#mf7fa483df5" y="79.239492"/>
     <use style="stroke:#000000;" x="33.901538" xlink:href="#mf7fa483df5" y="76.560919"/>
     <use style="stroke:#000000;" x="37.463629" xlink:href="#mf7fa483df5" y="56.289757"/>
     <use style="stroke:#000000;" x="40.603125" xlink:href="#mf7fa483df5" y="38.846304"/>
     <use style="stroke:#000000;" x="31.709646" xlink:href="#mf7fa483df5" y="71.030396"/>
     <use style="stroke:#000000;" x="28.193765" xlink:href="#mf7fa483df5" y="79.284985"/>
     <use style="stroke:#000000;" x="29.770684" xlink:href="#mf7fa483df5" y="83.954688"/>
     <use style="stroke:#000000;" x="32.201065" xlink:href="#mf7fa483df5" y="80.814472"/>
     <use style="stroke:#000000;" x="37.75902" xlink:href="#mf7fa483df5" y="55.374882"/>
     <use style="stroke:#000000;" x="30.545889" xlink:href="#mf7fa483df5" y="79.283722"/>
     <use style="stroke:#000000;" x="31.071577" xlink:href="#mf7fa483df5" y="83.74296"/>
     <use style="stroke:#000000;" x="27.379892" xlink:href="#mf7fa483df5" y="92.197618"/>
     <use style="stroke:#000000;" x="33.117588" xlink:href="#mf7fa483df5" y="52.476826"/>
     <use style="stroke:#000000;" x="37.673288" xlink:href="#mf7fa483df5" y="37.248721"/>
     <use style="stroke:#000000;" x="50.415144" xlink:href="#mf7fa483df5" y="29.513551"/>
     <use style="stroke:#000000;" x="32.266461" xlink:href="#mf7fa483df5" y="76.033513"/>
     <use style="stroke:#000000;" x="34.361528" xlink:href="#mf7fa483df5" y="79.728663"/>
     <use style="stroke:#000000;" x="27.241468" xlink:href="#mf7fa483df5" y="62.849268"/>
     <use style="stroke:#000000;" x="30.006122" xlink:href="#mf7fa483df5" y="75.819498"/>
     <use style="stroke:#000000;" x="28.051513" xlink:href="#mf7fa483df5" y="78.832975"/>
     <use style="stroke:#000000;" x="27.302076" xlink:href="#mf7fa483df5" y="92.583495"/>
     <use style="stroke:#000000;" x="32.540684" xlink:href="#mf7fa483df5" y="57.533935"/>
     <use style="stroke:#000000;" x="30.577477" xlink:href="#mf7fa483df5" y="76.105904"/>
     <use style="stroke:#000000;" x="27.442032" xlink:href="#mf7fa483df5" y="92.203482"/>
    </g>
   </g>
   <g id="patch_3">
    <path d="M 27 94.5 
L 27 12.96 
" style="fill:none;stroke:#000000;stroke-linecap:square;stroke-linejoin:miter;"/>
   </g>
   <g id="patch_4">
    <path d="M 27 94.5 
L 103.090909 94.5 
" style="fill:none;stroke:#000000;stroke-linecap:square;stroke-linejoin:miter;"/>
   </g>
   <g id="matplotlib.axis_1">
    <g id="xtick_1">
     <g id="line2d_3"/>
     <g id="text_1">
      <text style="font-family:Arial;font-size:8px;font-style:normal;font-weight:normal;text-anchor:middle;" transform="rotate(-0, 27, 103.72625)" x="27" y="103.72625">0</text>
     </g>
    </g>
    <g id="xtick_2">
     <g id="line2d_4"/>
     <g id="text_2">
      <text style="font-family:Arial;font-size:8px;font-style:normal;font-weight:normal;text-anchor:middle;" transform="rotate(-0, 58.503106, 103.72625)" x="58.503106" y="103.72625">5</text>
     </g>
    </g>
    <g id="xtick_3">
     <g id="line2d_5"/>
     <g id="text_3">
      <text style="font-family:Arial;font-size:8px;font-style:normal;font-weight:normal;text-anchor:middle;" transform="rotate(-0, 90.006211, 103.72625)" x="90.006211" y="103.72625">10</text>
     </g>
    </g>
    <g id="text_4">
     <text style="font-family:Arial;font-size:10px;font-style:normal;font-weight:normal;text-anchor:middle;" transform="rotate(-0, 65.045455, 116.474063)" x="65.045455" y="116.474063">Exc</text>
    </g>
   </g>
   <g id="matplotlib.axis_2">
    <g id="ytick_1">
     <g id="line2d_6"/>
     <g id="text_5">
      <text style="font-family:Arial;font-size:8px;font-style:normal;font-weight:normal;text-anchor:end;" transform="rotate(-0, 23.5, 97.363125)" x="23.5" y="97.363125">0.0</text>
     </g>
    </g>
    <g id="ytick_2">
     <g id="line2d_7"/>
     <g id="text_6">
      <text style="font-family:Arial;font-size:8px;font-style:normal;font-weight:normal;text-anchor:end;" transform="rotate(-0, 23.5, 80.483558)" x="23.5" y="80.483558">2.5</text>
     </g>
    </g>
    <g id="ytick_3">
     <g id="line2d_8"/>
     <g id="text_7">
      <text style="font-family:Arial;font-size:8px;font-style:normal;font-weight:normal;text-anchor:end;" transform="rotate(-0, 23.5, 63.60399)" x="23.5" y="63.60399">5.0</text>
     </g>
    </g>
    <g id="ytick_4">
     <g id="line2d_9"/>
     <g id="text_8">
      <text style="font-family:Arial;font-size:8px;font-style:normal;font-weight:normal;text-anchor:end;" transform="rotate(-0, 23.5, 46.724423)" x="23.5" y="46.724423">7.5</text>
     </g>
    </g>
    <g id="ytick_5">
     <g id="line2d_10"/>
     <g id="text_9">
      <text style="font-family:Arial;font-size:8px;font-style:normal;font-weight:normal;text-anchor:end;" transform="rotate(-0, 23.5, 29.844856)" x="23.5" y="29.844856">10.0</text>
     </g>
    </g>
    <g id="text_10">
     <text style="font-family:Arial;font-size:10px;font-style:normal;font-weight:normal;text-anchor:middle;" transform="rotate(-90, 1.94375, 53.73)" x="1.94375" y="53.73">Inh</text>
    </g>
   </g>
   <g id="legend_1">
    <g id="line2d_11">
     <path d="M 36 75.622656 
L 56 75.622656 
" style="fill:none;stroke:#000000;stroke-dasharray:1.85,0.8;stroke-dashoffset:0;stroke-width:0.5;"/>
    </g>
    <g id="line2d_12"/>
    <g id="text_11">
     <!-- $R^2$ 0.68 -->
     <g transform="translate(64 72.875)">
      <text>
       <tspan style="font-family:DejaVu Sans;font-size:10px;font-style:oblique;font-weight:oblique;" x="0" y="-0.9765625">R</tspan>
       <tspan style="font-family:DejaVu Sans;font-size:7px;font-style:book;font-weight:book;" x="7.650794" y="-4.8046875">2</tspan>
       <tspan style="font-family:Arial;font-size:10px;font-style:regular;font-weight:regular;" x="12.377845 15.156165 20.717689 23.496009 29.057533" y="-0.9765625"> 0.68</tspan>
      </text>
     </g>
     <text style="font-family:Arial;font-size:10px;font-style:normal;font-weight:normal;" transform="translate(64 83.4875)"> slope 2.40</text>
    </g>
   </g>
  </g>
  <g id="axes_2">
   <g id="patch_5">
    <path d="M 118.309091 94.5 
L 194.4 94.5 
L 194.4 12.96 
L 118.309091 12.96 
z
" style="fill:#ffffff;"/>
   </g>
   <g id="PathCollection_1">
    <defs>
     <path d="M 0 2.44949 
C 0.649612 2.44949 1.272706 2.191396 1.732051 1.732051 
C 2.191396 1.272706 2.44949 0.649612 2.44949 0 
C 2.44949 -0.649612 2.191396 -1.272706 1.732051 -1.732051 
C 1.272706 -2.191396 0.649612 -2.44949 0 -2.44949 
C -0.649612 -2.44949 -1.272706 -2.191396 -1.732051 -1.732051 
C -2.191396 -1.272706 -2.44949 -0.649612 -2.44949 0 
C -2.44949 0.649612 -2.191396 1.272706 -1.732051 1.732051 
C -1.272706 2.191396 -0.649612 2.44949 0 2.44949 
z
" id="m06bea73c60" style="stroke:#000000;"/>
    </defs>
    <g clip-path="url(#pba6230c8de)">
     <use style="stroke:#000000;" x="126.09814" xlink:href="#m06bea73c60" y="88.623388"/>
     <use style="stroke:#000000;" x="144.178571" xlink:href="#m06bea73c60" y="49.129162"/>
     <use style="stroke:#000000;" x="190.38681" xlink:href="#m06bea73c60" y="74.21661"/>
     <use style="stroke:#000000;" x="134.184868" xlink:href="#m06bea73c60" y="64.960491"/>
     <use style="stroke:#000000;" x="136.841556" xlink:href="#m06bea73c60" y="78.874757"/>
     <use style="stroke:#000000;" x="151.684341" xlink:href="#m06bea73c60" y="72.812518"/>
     <use style="stroke:#000000;" x="128.215344" xlink:href="#m06bea73c60" y="72.638126"/>
     <use style="stroke:#000000;" x="149.813973" xlink:href="#m06bea73c60" y="62.122975"/>
     <use style="stroke:#000000;" x="154.015161" xlink:href="#m06bea73c60" y="53.196608"/>
     <use style="stroke:#000000;" x="155.379898" xlink:href="#m06bea73c60" y="48.496685"/>
     <use style="stroke:#000000;" x="139.147142" xlink:href="#m06bea73c60" y="73.849764"/>
     <use style="stroke:#000000;" x="127.543455" xlink:href="#m06bea73c60" y="75.179466"/>
     <use style="stroke:#000000;" x="133.938326" xlink:href="#m06bea73c60" y="87.236868"/>
     <use style="stroke:#000000;" x="145.912327" xlink:href="#m06bea73c60" y="66.655575"/>
     <use style="stroke:#000000;" x="150.86325" xlink:href="#m06bea73c60" y="52.578305"/>
     <use style="stroke:#000000;" x="134.284915" xlink:href="#m06bea73c60" y="74.30264"/>
     <use style="stroke:#000000;" x="125.755583" xlink:href="#m06bea73c60" y="82.165083"/>
     <use style="stroke:#000000;" x="122.954954" xlink:href="#m06bea73c60" y="94.5"/>
     <use style="stroke:#000000;" x="137.600204" xlink:href="#m06bea73c60" y="60.438325"/>
     <use style="stroke:#000000;" x="148.504891" xlink:href="#m06bea73c60" y="61.544315"/>
     <use style="stroke:#000000;" x="175.009637" xlink:href="#m06bea73c60" y="31.007247"/>
     <use style="stroke:#000000;" x="145.596195" xlink:href="#m06bea73c60" y="67.97906"/>
     <use style="stroke:#000000;" x="140.236373" xlink:href="#m06bea73c60" y="66.354398"/>
     <use style="stroke:#000000;" x="121.262109" xlink:href="#m06bea73c60" y="60.908353"/>
     <use style="stroke:#000000;" x="136.690843" xlink:href="#m06bea73c60" y="85.534307"/>
     <use style="stroke:#000000;" x="131.168509" xlink:href="#m06bea73c60" y="79.466163"/>
     <use style="stroke:#000000;" x="122.003307" xlink:href="#m06bea73c60" y="89.812442"/>
     <use style="stroke:#000000;" x="146.015543" xlink:href="#m06bea73c60" y="66.831443"/>
     <use style="stroke:#000000;" x="143.085259" xlink:href="#m06bea73c60" y="70.339078"/>
     <use style="stroke:#000000;" x="123.71489" xlink:href="#m06bea73c60" y="88.882974"/>
    </g>
   </g>
   <g id="line2d_13">
    <path clip-path="url(#pba6230c8de)" d="M 118.309091 82.583199 
L 119.077686 82.152691 
L 119.846281 81.722182 
L 120.614876 81.291674 
L 121.383471 80.861166 
L 122.152066 80.430657 
L 122.920661 80.000149 
L 123.689256 79.569641 
L 124.457851 79.139133 
L 125.226446 78.708624 
L 125.995041 78.278116 
L 126.763636 77.847608 
L 127.532231 77.4171 
L 128.300826 76.986591 
L 129.069421 76.556083 
L 129.838017 76.125575 
L 130.606612 75.695067 
L 131.375207 75.264558 
L 132.143802 74.83405 
L 132.912397 74.403542 
L 133.680992 73.973034 
L 134.449587 73.542525 
L 135.218182 73.112017 
L 135.986777 72.681509 
L 136.755372 72.251001 
L 137.523967 71.820492 
L 138.292562 71.389984 
L 139.061157 70.959476 
L 139.829752 70.528968 
L 140.598347 70.098459 
L 141.366942 69.667951 
L 142.135537 69.237443 
L 142.904132 68.806935 
L 143.672727 68.376426 
L 144.441322 67.945918 
L 145.209917 67.51541 
L 145.978512 67.084901 
L 146.747107 66.654393 
L 147.515702 66.223885 
L 148.284298 65.793377 
L 149.052893 65.362868 
L 149.821488 64.93236 
L 150.590083 64.501852 
L 151.358678 64.071344 
L 152.127273 63.640835 
L 152.895868 63.210327 
L 153.664463 62.779819 
L 154.433058 62.349311 
L 155.201653 61.918802 
L 155.970248 61.488294 
L 156.738843 61.057786 
L 157.507438 60.627278 
L 158.276033 60.196769 
L 159.044628 59.766261 
L 159.813223 59.335753 
L 160.581818 58.905245 
L 161.350413 58.474736 
L 162.119008 58.044228 
L 162.887603 57.61372 
L 163.656198 57.183212 
L 164.424793 56.752703 
L 165.193388 56.322195 
L 165.961983 55.891687 
L 166.730579 55.461179 
L 167.499174 55.03067 
L 168.267769 54.600162 
L 169.036364 54.169654 
L 169.804959 53.739146 
L 170.573554 53.308637 
L 171.342149 52.878129 
L 172.110744 52.447621 
L 172.879339 52.017112 
L 173.647934 51.586604 
L 174.416529 51.156096 
L 175.185124 50.725588 
L 175.953719 50.295079 
L 176.722314 49.864571 
L 177.490909 49.434063 
L 178.259504 49.003555 
L 179.028099 48.573046 
L 179.796694 48.142538 
L 180.565289 47.71203 
L 181.333884 47.281522 
L 182.102479 46.851013 
L 182.871074 46.420505 
L 183.639669 45.989997 
L 184.408264 45.559489 
L 185.17686 45.12898 
L 185.945455 44.698472 
L 186.71405 44.267964 
L 187.482645 43.837456 
L 188.25124 43.406947 
L 189.019835 42.976439 
L 189.78843 42.545931 
L 190.557025 42.115423 
L 191.32562 41.684914 
L 192.094215 41.254406 
L 192.86281 40.823898 
L 193.631405 40.39339 
L 194.4 39.962881 
" style="fill:none;stroke:#000000;stroke-dasharray:1.85,0.8;stroke-dashoffset:0;stroke-width:0.5;"/>
   </g>
   <g id="patch_6">
    <path d="M 118.309091 94.5 
L 118.309091 12.96 
" style="fill:none;stroke:#000000;stroke-linecap:square;stroke-linejoin:miter;"/>
   </g>
   <g id="patch_7">
    <path d="M 118.309091 94.5 
L 194.4 94.5 
" style="fill:none;stroke:#000000;stroke-linecap:square;stroke-linejoin:miter;"/>
   </g>
   <g id="matplotlib.axis_3">
    <g id="xtick_4">
     <g id="line2d_14"/>
     <g id="text_12">
      <text style="font-family:Arial;font-size:8px;font-style:normal;font-weight:normal;text-anchor:middle;" transform="rotate(-0, 118.309091, 103.72625)" x="118.309091" y="103.72625">0</text>
     </g>
    </g>
    <g id="xtick_5">
     <g id="line2d_15"/>
     <g id="text_13">
      <text style="font-family:Arial;font-size:8px;font-style:normal;font-weight:normal;text-anchor:middle;" transform="rotate(-0, 149.765882, 103.72625)" x="149.765882" y="103.72625">1</text>
     </g>
    </g>
    <g id="xtick_6">
     <g id="line2d_16"/>
     <g id="text_14">
      <text style="font-family:Arial;font-size:8px;font-style:normal;font-weight:normal;text-anchor:middle;" transform="rotate(-0, 181.222672, 103.72625)" x="181.222672" y="103.72625">2</text>
     </g>
    </g>
    <g id="text_15">
     <!-- $\sigma$(Exc) -->
     <g transform="translate(141.504545 116.61625)">
      <text>
       <tspan style="font-family:DejaVu Sans;font-size:10px;font-style:oblique;font-weight:oblique;" x="0" y="-0.71875">σ</tspan>
       <tspan style="font-family:Arial;font-size:10px;font-style:regular;font-weight:regular;" x="6.337891 9.667969 16.337891 21.337891 26.337891" y="-0.71875">(Exc)</tspan>
      </text>
     </g>
    </g>
   </g>
   <g id="matplotlib.axis_4">
    <g id="ytick_6">
     <g id="line2d_17"/>
     <g id="text_16">
      <text style="font-family:Arial;font-size:8px;font-style:normal;font-weight:normal;text-anchor:end;" transform="rotate(-0, 114.809091, 97.363125)" x="114.809091" y="97.363125">0.0</text>
     </g>
    </g>
    <g id="ytick_7">
     <g id="line2d_18"/>
     <g id="text_17">
      <text style="font-family:Arial;font-size:8px;font-style:normal;font-weight:normal;text-anchor:end;" transform="rotate(-0, 114.809091, 80.508374)" x="114.809091" y="80.508374">0.5</text>
     </g>
    </g>
    <g id="ytick_8">
     <g id="line2d_19"/>
     <g id="text_18">
      <text style="font-family:Arial;font-size:8px;font-style:normal;font-weight:normal;text-anchor:end;" transform="rotate(-0, 114.809091, 63.653622)" x="114.809091" y="63.653622">1.0</text>
     </g>
    </g>
    <g id="ytick_9">
     <g id="line2d_20"/>
     <g id="text_19">
      <text style="font-family:Arial;font-size:8px;font-style:normal;font-weight:normal;text-anchor:end;" transform="rotate(-0, 114.809091, 46.798871)" x="114.809091" y="46.798871">1.5</text>
     </g>
    </g>
    <g id="ytick_10">
     <g id="line2d_21"/>
     <g id="text_20">
      <text style="font-family:Arial;font-size:8px;font-style:normal;font-weight:normal;text-anchor:end;" transform="rotate(-0, 114.809091, 29.944119)" x="114.809091" y="29.944119">2.0</text>
     </g>
    </g>
    <g id="text_21">
     <!-- $\sigma$(Inh) -->
     <g transform="translate(97.489091 67.18)rotate(-90)">
      <text>
       <tspan style="font-family:DejaVu Sans;font-size:10px;font-style:oblique;font-weight:oblique;" x="0" y="-0.71875">σ</tspan>
       <tspan style="font-family:Arial;font-size:10px;font-style:regular;font-weight:regular;" x="6.337891 9.667969 12.446289 18.007812 23.569336" y="-0.71875">(Inh)</tspan>
      </text>
     </g>
    </g>
   </g>
   <g id="legend_2">
    <g id="line2d_22">
     <path d="M 108.478125 31.995156 
L 128.478125 31.995156 
" style="fill:none;stroke:#000000;stroke-dasharray:1.85,0.8;stroke-dashoffset:0;stroke-width:0.5;"/>
    </g>
    <g id="line2d_23"/>
    <g id="text_22">
     <!-- $R^2$ 0.36 -->
     <g transform="translate(136.478125 29.2475)">
      <text>
       <tspan style="font-family:DejaVu Sans;font-size:10px;font-style:oblique;font-weight:oblique;" x="0" y="-0.9765625">R</tspan>
       <tspan style="font-family:DejaVu Sans;font-size:7px;font-style:book;font-weight:book;" x="7.650794" y="-4.8046875">2</tspan>
       <tspan style="font-family:Arial;font-size:10px;font-style:regular;font-weight:regular;" x="12.377845 15.156165 20.717689 23.496009 29.057533" y="-0.9765625"> 0.36</tspan>
      </text>
     </g>
     <text style="font-family:Arial;font-size:10px;font-style:normal;font-weight:normal;" transform="translate(136.478125 39.86)"> slope 0.52</text>
    </g>
   </g>
  </g>
 </g>
 <defs>
  <clipPath id="p1a6da94f21">
   <rect height="81.54" width="76.090909" x="27" y="12.96"/>
  </clipPath>
  <clipPath id="pba6230c8de">
   <rect height="81.54" width="76.090909" x="118.309091" y="12.96"/>
  </clipPath>
 </defs>
</svg>
