<?xml version="1.0" encoding="utf-8" standalone="no"?>
<!DOCTYPE svg PUBLIC "-//W3C//DTD SVG 1.1//EN"
  "http://www.w3.org/Graphics/SVG/1.1/DTD/svg11.dtd">
<!-- Created with matplotlib (http://matplotlib.org/) -->
<svg height="108pt" version="1.1" viewBox="0 0 216 108" width="216pt" xmlns="http://www.w3.org/2000/svg" xmlns:xlink="http://www.w3.org/1999/xlink">
 <defs>
  <style type="text/css">
*{stroke-linecap:butt;stroke-linejoin:round;}
  </style>
 </defs>
 <g id="figure_1">
  <g id="patch_1">
   <path d="M 0 108 
L 216 108 
L 216 0 
L 0 0 
z
" style="fill:#ffffff;"/>
  </g>
  <g id="axes_1">
   <g id="patch_2">
    <path d="M 27 94.5 
L 103.090909 94.5 
L 103.090909 12.96 
L 27 12.96 
z
" style="fill:#ffffff;"/>
   </g>
   <g id="LineCollection_1">
    <path clip-path="url(#paa1ca124fe)" d="M 27.480731 78.572031 
L 41.491194 78.572031 
" style="fill:none;stroke:#000000;stroke-width:0.5;"/>
    <path clip-path="url(#paa1ca124fe)" d="M 26.692507 80.182462 
L 30.899086 80.182462 
" style="fill:none;stroke:#000000;stroke-width:0.5;"/>
    <path clip-path="url(#paa1ca124fe)" d="M 26.785549 80.652893 
L 29.667859 80.652893 
" style="fill:none;stroke:#000000;stroke-width:0.5;"/>
    <path clip-path="url(#paa1ca124fe)" d="M 25.658703 77.078969 
L 33.557841 77.078969 
" style="fill:none;stroke:#000000;stroke-width:0.5;"/>
    <path clip-path="url(#paa1ca124fe)" d="M 26.898635 89.514711 
L 29.101798 89.514711 
" style="fill:none;stroke:#000000;stroke-width:0.5;"/>
    <path clip-path="url(#paa1ca124fe)" d="M 23.754648 65.334932 
L 37.099386 65.334932 
" style="fill:none;stroke:#000000;stroke-width:0.5;"/>
    <path clip-path="url(#paa1ca124fe)" d="M 26.336109 81.794378 
L 28.579925 81.794378 
" style="fill:none;stroke:#000000;stroke-width:0.5;"/>
    <path clip-path="url(#paa1ca124fe)" d="M 23.387001 57.403105 
L 54.895763 57.403105 
" style="fill:none;stroke:#000000;stroke-width:0.5;"/>
    <path clip-path="url(#paa1ca124fe)" d="M 31.961468 77.27627 
L 39.507857 77.27627 
" style="fill:none;stroke:#000000;stroke-width:0.5;"/>
    <path clip-path="url(#paa1ca124fe)" d="M 27.307416 80.404884 
L 35.914277 80.404884 
" style="fill:none;stroke:#000000;stroke-width:0.5;"/>
    <path clip-path="url(#paa1ca124fe)" d="M 24.959755 79.63247 
L 35.467864 79.63247 
" style="fill:none;stroke:#000000;stroke-width:0.5;"/>
    <path clip-path="url(#paa1ca124fe)" d="M 26.140198 73.318356 
L 44.826354 73.318356 
" style="fill:none;stroke:#000000;stroke-width:0.5;"/>
    <path clip-path="url(#paa1ca124fe)" d="M 26.089015 25.048742 
L 57.848211 25.048742 
" style="fill:none;stroke:#000000;stroke-width:0.5;"/>
    <path clip-path="url(#paa1ca124fe)" d="M 25.896905 84.327451 
L 31.032016 84.327451 
" style="fill:none;stroke:#000000;stroke-width:0.5;"/>
    <path clip-path="url(#paa1ca124fe)" d="M 25.541056 81.787057 
L 35.412497 81.787057 
" style="fill:none;stroke:#000000;stroke-width:0.5;"/>
    <path clip-path="url(#paa1ca124fe)" d="M 25.498492 44.640764 
L 37.410046 44.640764 
" style="fill:none;stroke:#000000;stroke-width:0.5;"/>
    <path clip-path="url(#paa1ca124fe)" d="M 27 91.687047 
L 27 91.687047 
" style="fill:none;stroke:#000000;stroke-width:0.5;"/>
    <path clip-path="url(#paa1ca124fe)" d="M 31.791151 61.29911 
L 49.656735 61.29911 
" style="fill:none;stroke:#000000;stroke-width:0.5;"/>
    <path clip-path="url(#paa1ca124fe)" d="M 28.070822 73.340774 
L 37.460795 73.340774 
" style="fill:none;stroke:#000000;stroke-width:0.5;"/>
    <path clip-path="url(#paa1ca124fe)" d="M 28.363136 77.702047 
L 37.731945 77.702047 
" style="fill:none;stroke:#000000;stroke-width:0.5;"/>
    <path clip-path="url(#paa1ca124fe)" d="M 26.995142 83.784196 
L 33.470623 83.784196 
" style="fill:none;stroke:#000000;stroke-width:0.5;"/>
    <path clip-path="url(#paa1ca124fe)" d="M 26.874223 82.318781 
L 35.900723 82.318781 
" style="fill:none;stroke:#000000;stroke-width:0.5;"/>
    <path clip-path="url(#paa1ca124fe)" d="M 27.67768 69.89805 
L 38.872282 69.89805 
" style="fill:none;stroke:#000000;stroke-width:0.5;"/>
    <path clip-path="url(#paa1ca124fe)" d="M 29.620615 66.118079 
L 45.774247 66.118079 
" style="fill:none;stroke:#000000;stroke-width:0.5;"/>
    <path clip-path="url(#paa1ca124fe)" d="M 28.468505 80.044149 
L 37.265972 80.044149 
" style="fill:none;stroke:#000000;stroke-width:0.5;"/>
    <path clip-path="url(#paa1ca124fe)" d="M 27.237933 87.988562 
L 30.468201 87.988562 
" style="fill:none;stroke:#000000;stroke-width:0.5;"/>
    <path clip-path="url(#paa1ca124fe)" d="M 27.097672 65.476751 
L 33.276379 65.476751 
" style="fill:none;stroke:#000000;stroke-width:0.5;"/>
    <path clip-path="url(#paa1ca124fe)" d="M 27.327998 80.348158 
L 34.494665 80.348158 
" style="fill:none;stroke:#000000;stroke-width:0.5;"/>
    <path clip-path="url(#paa1ca124fe)" d="M 26.222482 91.151564 
L 29.42705 91.151564 
" style="fill:none;stroke:#000000;stroke-width:0.5;"/>
    <path clip-path="url(#paa1ca124fe)" d="M 26.483995 71.596397 
L 38.247786 71.596397 
" style="fill:none;stroke:#000000;stroke-width:0.5;"/>
   </g>
   <g id="LineCollection_2">
    <path clip-path="url(#paa1ca124fe)" d="M 34.485963 82.604303 
L 34.485963 74.539759 
" style="fill:none;stroke:#000000;stroke-width:0.5;"/>
    <path clip-path="url(#paa1ca124fe)" d="M 28.795797 83.013014 
L 28.795797 77.351909 
" style="fill:none;stroke:#000000;stroke-width:0.5;"/>
    <path clip-path="url(#paa1ca124fe)" d="M 28.226704 85.778813 
L 28.226704 75.526974 
" style="fill:none;stroke:#000000;stroke-width:0.5;"/>
    <path clip-path="url(#paa1ca124fe)" d="M 29.608272 83.864347 
L 29.608272 70.293591 
" style="fill:none;stroke:#000000;stroke-width:0.5;"/>
    <path clip-path="url(#paa1ca124fe)" d="M 28.000216 92.07684 
L 28.000216 86.952582 
" style="fill:none;stroke:#000000;stroke-width:0.5;"/>
    <path clip-path="url(#paa1ca124fe)" d="M 30.427017 74.566071 
L 30.427017 56.103792 
" style="fill:none;stroke:#000000;stroke-width:0.5;"/>
    <path clip-path="url(#paa1ca124fe)" d="M 27.458017 82.909226 
L 27.458017 80.679529 
" style="fill:none;stroke:#000000;stroke-width:0.5;"/>
    <path clip-path="url(#paa1ca124fe)" d="M 39.141382 60.604746 
L 39.141382 54.201463 
" style="fill:none;stroke:#000000;stroke-width:0.5;"/>
    <path clip-path="url(#paa1ca124fe)" d="M 35.734663 85.470054 
L 35.734663 69.082485 
" style="fill:none;stroke:#000000;stroke-width:0.5;"/>
    <path clip-path="url(#paa1ca124fe)" d="M 31.610847 82.66046 
L 31.610847 78.149307 
" style="fill:none;stroke:#000000;stroke-width:0.5;"/>
    <path clip-path="url(#paa1ca124fe)" d="M 30.213809 82.480338 
L 30.213809 76.784602 
" style="fill:none;stroke:#000000;stroke-width:0.5;"/>
    <path clip-path="url(#paa1ca124fe)" d="M 35.483276 79.999212 
L 35.483276 66.6375 
" style="fill:none;stroke:#000000;stroke-width:0.5;"/>
    <path clip-path="url(#paa1ca124fe)" d="M 41.968613 33.370015 
L 41.968613 16.727469 
" style="fill:none;stroke:#000000;stroke-width:0.5;"/>
    <path clip-path="url(#paa1ca124fe)" d="M 28.464461 86.889256 
L 28.464461 81.765646 
" style="fill:none;stroke:#000000;stroke-width:0.5;"/>
    <path clip-path="url(#paa1ca124fe)" d="M 30.476776 85.851843 
L 30.476776 77.72227 
" style="fill:none;stroke:#000000;stroke-width:0.5;"/>
    <path clip-path="url(#paa1ca124fe)" d="M 31.454269 61.303835 
L 31.454269 27.977694 
" style="fill:none;stroke:#000000;stroke-width:0.5;"/>
    <path clip-path="url(#paa1ca124fe)" d="M 27 91.687047 
L 27 91.687047 
" style="fill:none;stroke:#000000;stroke-width:0.5;"/>
    <path clip-path="url(#paa1ca124fe)" d="M 40.723943 71.986981 
L 40.723943 50.61124 
" style="fill:none;stroke:#000000;stroke-width:0.5;"/>
    <path clip-path="url(#paa1ca124fe)" d="M 32.765808 74.752922 
L 32.765808 71.928625 
" style="fill:none;stroke:#000000;stroke-width:0.5;"/>
    <path clip-path="url(#paa1ca124fe)" d="M 33.047541 82.729594 
L 33.047541 72.6745 
" style="fill:none;stroke:#000000;stroke-width:0.5;"/>
    <path clip-path="url(#paa1ca124fe)" d="M 30.232882 85.439648 
L 30.232882 82.128743 
" style="fill:none;stroke:#000000;stroke-width:0.5;"/>
    <path clip-path="url(#paa1ca124fe)" d="M 31.387473 84.738122 
L 31.387473 79.89944 
" style="fill:none;stroke:#000000;stroke-width:0.5;"/>
    <path clip-path="url(#paa1ca124fe)" d="M 33.274981 75.997661 
L 33.274981 63.798439 
" style="fill:none;stroke:#000000;stroke-width:0.5;"/>
    <path clip-path="url(#paa1ca124fe)" d="M 37.697431 75.317272 
L 37.697431 56.918886 
" style="fill:none;stroke:#000000;stroke-width:0.5;"/>
    <path clip-path="url(#paa1ca124fe)" d="M 32.867238 82.616441 
L 32.867238 77.471857 
" style="fill:none;stroke:#000000;stroke-width:0.5;"/>
    <path clip-path="url(#paa1ca124fe)" d="M 28.853067 88.778651 
L 28.853067 87.198473 
" style="fill:none;stroke:#000000;stroke-width:0.5;"/>
    <path clip-path="url(#paa1ca124fe)" d="M 30.187026 78.802424 
L 30.187026 52.151078 
" style="fill:none;stroke:#000000;stroke-width:0.5;"/>
    <path clip-path="url(#paa1ca124fe)" d="M 30.911332 85.807894 
L 30.911332 74.888422 
" style="fill:none;stroke:#000000;stroke-width:0.5;"/>
    <path clip-path="url(#paa1ca124fe)" d="M 27.824766 91.433072 
L 27.824766 90.870056 
" style="fill:none;stroke:#000000;stroke-width:0.5;"/>
    <path clip-path="url(#paa1ca124fe)" d="M 32.365891 79.620014 
L 32.365891 63.572781 
" style="fill:none;stroke:#000000;stroke-width:0.5;"/>
   </g>
   <g id="line2d_1">
    <path clip-path="url(#paa1ca124fe)" d="M 27 87.545255 
L 27.768595 85.573217 
L 28.53719 83.601179 
L 29.305785 81.629141 
L 30.07438 79.657102 
L 30.842975 77.685064 
L 31.61157 75.713026 
L 32.380165 73.740988 
L 33.14876 71.768949 
L 33.917355 69.796911 
L 34.68595 67.824873 
L 35.454545 65.852835 
L 36.22314 63.880796 
L 36.991736 61.908758 
L 37.760331 59.93672 
L 38.528926 57.964682 
L 39.297521 55.992643 
L 40.066116 54.020605 
L 40.834711 52.048567 
L 41.603306 50.076529 
L 42.371901 48.10449 
L 43.140496 46.132452 
L 43.909091 44.160414 
L 44.677686 42.188376 
L 45.446281 40.216337 
L 46.214876 38.244299 
L 46.983471 36.272261 
L 47.752066 34.300223 
L 48.520661 32.328184 
L 49.289256 30.356146 
L 50.057851 28.384108 
L 50.826446 26.41207 
L 51.595041 24.440031 
L 52.363636 22.467993 
L 53.132231 20.495955 
L 53.900826 18.523917 
L 54.669421 16.551878 
L 55.438017 14.57984 
L 56.206612 12.607802 
L 56.975207 10.635764 
L 57.743802 8.663725 
L 58.512397 6.691687 
L 59.280992 4.719649 
L 60.049587 2.747611 
L 60.818182 0.775572 
L 61.510205 -1 
" style="fill:none;stroke:#000000;stroke-dasharray:1.85,0.8;stroke-dashoffset:0;stroke-width:0.5;"/>
   </g>
   <g id="line2d_2">
    <defs>
     <path d="M 0 3 
C 0.795609 3 1.55874 2.683901 2.12132 2.12132 
C 2.683901 1.55874 3 0.795609 3 0 
C 3 -0.795609 2.683901 -1.55874 2.12132 -2.12132 
C 1.55874 -2.683901 0.795609 -3 0 -3 
C -0.795609 -3 -1.55874 -2.683901 -2.12132 -2.12132 
C -2.683901 -1.55874 -3 -0.795609 -3 0 
C -3 0.795609 -2.683901 1.55874 -2.12132 2.12132 
C -1.55874 2.683901 -0.795609 3 0 3 
z
" id="m877bb499fe" style="stroke:#000000;"/>
    </defs>
    <g clip-path="url(#paa1ca124fe)">
     <use style="stroke:#000000;" x="34.485963" xlink:href="#m877bb499fe" y="78.572031"/>
     <use style="stroke:#000000;" x="28.795797" xlink:href="#m877bb499fe" y="80.182462"/>
     <use style="stroke:#000000;" x="28.226704" xlink:href="#m877bb499fe" y="80.652893"/>
     <use style="stroke:#000000;" x="29.608272" xlink:href="#m877bb499fe" y="77.078969"/>
     <use style="stroke:#000000;" x="28.000216" xlink:href="#m877bb499fe" y="89.514711"/>
     <use style="stroke:#000000;" x="30.427017" xlink:href="#m877bb499fe" y="65.334932"/>
     <use style="stroke:#000000;" x="27.458017" xlink:href="#m877bb499fe" y="81.794378"/>
     <use style="stroke:#000000;" x="39.141382" xlink:href="#m877bb499fe" y="57.403105"/>
     <use style="stroke:#000000;" x="35.734663" xlink:href="#m877bb499fe" y="77.27627"/>
     <use style="stroke:#000000;" x="31.610847" xlink:href="#m877bb499fe" y="80.404884"/>
     <use style="stroke:#000000;" x="30.213809" xlink:href="#m877bb499fe" y="79.63247"/>
     <use style="stroke:#000000;" x="35.483276" xlink:href="#m877bb499fe" y="73.318356"/>
     <use style="stroke:#000000;" x="41.968613" xlink:href="#m877bb499fe" y="25.048742"/>
     <use style="stroke:#000000;" x="28.464461" xlink:href="#m877bb499fe" y="84.327451"/>
     <use style="stroke:#000000;" x="30.476776" xlink:href="#m877bb499fe" y="81.787057"/>
     <use style="stroke:#000000;" x="31.454269" xlink:href="#m877bb499fe" y="44.640764"/>
     <use style="stroke:#000000;" x="27" xlink:href="#m877bb499fe" y="91.687047"/>
     <use style="stroke:#000000;" x="40.723943" xlink:href="#m877bb499fe" y="61.29911"/>
     <use style="stroke:#000000;" x="32.765808" xlink:href="#m877bb499fe" y="73.340774"/>
     <use style="stroke:#000000;" x="33.047541" xlink:href="#m877bb499fe" y="77.702047"/>
     <use style="stroke:#000000;" x="30.232882" xlink:href="#m877bb499fe" y="83.784196"/>
     <use style="stroke:#000000;" x="31.387473" xlink:href="#m877bb499fe" y="82.318781"/>
     <use style="stroke:#000000;" x="33.274981" xlink:href="#m877bb499fe" y="69.89805"/>
     <use style="stroke:#000000;" x="37.697431" xlink:href="#m877bb499fe" y="66.118079"/>
     <use style="stroke:#000000;" x="32.867238" xlink:href="#m877bb499fe" y="80.044149"/>
     <use style="stroke:#000000;" x="28.853067" xlink:href="#m877bb499fe" y="87.988562"/>
     <use style="stroke:#000000;" x="30.187026" xlink:href="#m877bb499fe" y="65.476751"/>
     <use style="stroke:#000000;" x="30.911332" xlink:href="#m877bb499fe" y="80.348158"/>
     <use style="stroke:#000000;" x="27.824766" xlink:href="#m877bb499fe" y="91.151564"/>
     <use style="stroke:#000000;" x="32.365891" xlink:href="#m877bb499fe" y="71.596397"/>
    </g>
   </g>
   <g id="patch_3">
    <path d="M 27 94.5 
L 27 12.96 
" style="fill:none;stroke:#000000;stroke-linecap:square;stroke-linejoin:miter;"/>
   </g>
   <g id="patch_4">
    <path d="M 27 94.5 
L 103.090909 94.5 
" style="fill:none;stroke:#000000;stroke-linecap:square;stroke-linejoin:miter;"/>
   </g>
   <g id="matplotlib.axis_1">
    <g id="xtick_1">
     <g id="line2d_3"/>
     <g id="text_1">
      <text style="font-family:Arial;font-size:8px;font-style:normal;font-weight:normal;text-anchor:middle;" transform="rotate(-0, 27, 103.72625)" x="27" y="103.72625">0</text>
     </g>
    </g>
    <g id="xtick_2">
     <g id="line2d_4"/>
     <g id="text_2">
      <text style="font-family:Arial;font-size:8px;font-style:normal;font-weight:normal;text-anchor:middle;" transform="rotate(-0, 72.515059, 103.72625)" x="72.515059" y="103.72625">10</text>
     </g>
    </g>
    <g id="text_3">
     <text style="font-family:Arial;font-size:10px;font-style:normal;font-weight:normal;text-anchor:middle;" transform="rotate(-0, 65.045455, 116.474063)" x="65.045455" y="116.474063">Exc</text>
    </g>
   </g>
   <g id="matplotlib.axis_2">
    <g id="ytick_1">
     <g id="line2d_5"/>
     <g id="text_4">
      <text style="font-family:Arial;font-size:8px;font-style:normal;font-weight:normal;text-anchor:end;" transform="rotate(-0, 23.5, 97.363125)" x="23.5" y="97.363125">0</text>
     </g>
    </g>
    <g id="ytick_2">
     <g id="line2d_6"/>
     <g id="text_5">
      <text style="font-family:Arial;font-size:8px;font-style:normal;font-weight:normal;text-anchor:end;" transform="rotate(-0, 23.5, 72.975863)" x="23.5" y="72.975863">5</text>
     </g>
    </g>
    <g id="ytick_3">
     <g id="line2d_7"/>
     <g id="text_6">
      <text style="font-family:Arial;font-size:8px;font-style:normal;font-weight:normal;text-anchor:end;" transform="rotate(-0, 23.5, 48.588601)" x="23.5" y="48.588601">10</text>
     </g>
    </g>
    <g id="ytick_4">
     <g id="line2d_8"/>
     <g id="text_7">
      <text style="font-family:Arial;font-size:8px;font-style:normal;font-weight:normal;text-anchor:end;" transform="rotate(-0, 23.5, 24.201339)" x="23.5" y="24.201339">15</text>
     </g>
    </g>
    <g id="text_8">
     <text style="font-family:Arial;font-size:10px;font-style:normal;font-weight:normal;text-anchor:middle;" transform="rotate(-90, 8.615, 53.73)" x="8.615" y="53.73">Inh</text>
    </g>
   </g>
   <g id="legend_1">
    <g id="line2d_9">
     <path d="M 36 31.995156 
L 56 31.995156 
" style="fill:none;stroke:#000000;stroke-dasharray:1.85,0.8;stroke-dashoffset:0;stroke-width:0.5;"/>
    </g>
    <g id="line2d_10"/>
    <g id="text_9">
     <!-- $R^2$ 0.52 -->
     <g transform="translate(64 29.2475)">
      <text>
       <tspan style="font-family:DejaVu Sans;font-size:10px;font-style:oblique;font-weight:oblique;" x="0" y="-0.9765625">R</tspan>
       <tspan style="font-family:DejaVu Sans;font-size:7px;font-style:book;font-weight:book;" x="7.650794" y="-4.8046875">2</tspan>
       <tspan style="font-family:Arial;font-size:10px;font-style:regular;font-weight:regular;" x="12.377845 15.156165 20.717689 23.496009 29.057533" y="-0.9765625"> 0.52</tspan>
      </text>
     </g>
     <text style="font-family:Arial;font-size:10px;font-style:normal;font-weight:normal;" transform="translate(64 39.86)"> slope 2.39</text>
    </g>
   </g>
  </g>
  <g id="axes_2">
   <g id="patch_5">
    <path d="M 118.309091 94.5 
L 194.4 94.5 
L 194.4 12.96 
L 118.309091 12.96 
z
" style="fill:#ffffff;"/>
   </g>
   <g id="PathCollection_1">
    <defs>
     <path d="M 0 2.44949 
C 0.649612 2.44949 1.272706 2.191396 1.732051 1.732051 
C 2.191396 1.272706 2.44949 0.649612 2.44949 0 
C 2.44949 -0.649612 2.191396 -1.272706 1.732051 -1.732051 
C 1.272706 -2.191396 0.649612 -2.44949 0 -2.44949 
C -0.649612 -2.44949 -1.272706 -2.191396 -1.732051 -1.732051 
C -2.191396 -1.272706 -2.44949 -0.649612 -2.44949 0 
C -2.44949 0.649612 -2.191396 1.272706 -1.732051 1.732051 
C -1.272706 2.191396 -0.649612 2.44949 0 2.44949 
z
" id="m1601e4ef01" style="stroke:#000000;"/>
    </defs>
    <g clip-path="url(#p4664295107)">
     <use style="stroke:#000000;" x="150.124133" xlink:href="#m1601e4ef01" y="76.186987"/>
     <use style="stroke:#000000;" x="127.861415" xlink:href="#m1601e4ef01" y="81.64473"/>
     <use style="stroke:#000000;" x="124.854258" xlink:href="#m1601e4ef01" y="71.220063"/>
     <use style="stroke:#000000;" x="136.246499" xlink:href="#m1601e4ef01" y="63.683449"/>
     <use style="stroke:#000000;" x="123.312046" xlink:href="#m1601e4ef01" y="82.863804"/>
     <use style="stroke:#000000;" x="148.612399" xlink:href="#m1601e4ef01" y="52.575749"/>
     <use style="stroke:#000000;" x="123.404362" xlink:href="#m1601e4ef01" y="89.43679"/>
     <use style="stroke:#000000;" x="189.859373" xlink:href="#m1601e4ef01" y="79.959387"/>
     <use style="stroke:#000000;" x="135.445475" xlink:href="#m1601e4ef01" y="57.28701"/>
     <use style="stroke:#000000;" x="137.853603" xlink:href="#m1601e4ef01" y="84.256048"/>
     <use style="stroke:#000000;" x="142.170967" xlink:href="#m1601e4ef01" y="81.566088"/>
     <use style="stroke:#000000;" x="160.741723" xlink:href="#m1601e4ef01" y="64.158146"/>
     <use style="stroke:#000000;" x="190.42806" xlink:href="#m1601e4ef01" y="56.708008"/>
     <use style="stroke:#000000;" x="129.969931" xlink:href="#m1601e4ef01" y="82.865276"/>
     <use style="stroke:#000000;" x="140.725216" xlink:href="#m1601e4ef01" y="76.03932"/>
     <use style="stroke:#000000;" x="145.357916" xlink:href="#m1601e4ef01" y="18.822803"/>
     <use style="stroke:#000000;" x="118.309091" xlink:href="#m1601e4ef01" y="94.5"/>
     <use style="stroke:#000000;" x="158.878364" xlink:href="#m1601e4ef01" y="45.959841"/>
     <use style="stroke:#000000;" x="139.631896" xlink:href="#m1601e4ef01" y="88.086571"/>
     <use style="stroke:#000000;" x="139.583839" xlink:href="#m1601e4ef01" y="71.666834"/>
     <use style="stroke:#000000;" x="133.01365" xlink:href="#m1601e4ef01" y="86.981578"/>
     <use style="stroke:#000000;" x="138.806519" xlink:href="#m1601e4ef01" y="83.512292"/>
     <use style="stroke:#000000;" x="143.729858" xlink:href="#m1601e4ef01" y="66.797934"/>
     <use style="stroke:#000000;" x="154.990854" xlink:href="#m1601e4ef01" y="52.720839"/>
     <use style="stroke:#000000;" x="138.286431" xlink:href="#m1601e4ef01" y="82.817648"/>
     <use style="stroke:#000000;" x="125.644402" xlink:href="#m1601e4ef01" y="90.911722"/>
     <use style="stroke:#000000;" x="132.339735" xlink:href="#m1601e4ef01" y="33.979965"/>
     <use style="stroke:#000000;" x="134.583202" xlink:href="#m1601e4ef01" y="69.703998"/>
     <use style="stroke:#000000;" x="125.586042" xlink:href="#m1601e4ef01" y="93.2215"/>
     <use style="stroke:#000000;" x="145.022375" xlink:href="#m1601e4ef01" y="58.059849"/>
    </g>
   </g>
   <g id="line2d_11">
    <path clip-path="url(#p4664295107)" d="M 118.309091 80.275613 
L 119.077686 79.973066 
L 119.846281 79.67052 
L 120.614876 79.367973 
L 121.383471 79.065426 
L 122.152066 78.762879 
L 122.920661 78.460332 
L 123.689256 78.157785 
L 124.457851 77.855238 
L 125.226446 77.552692 
L 125.995041 77.250145 
L 126.763636 76.947598 
L 127.532231 76.645051 
L 128.300826 76.342504 
L 129.069421 76.039957 
L 129.838017 75.737411 
L 130.606612 75.434864 
L 131.375207 75.132317 
L 132.143802 74.82977 
L 132.912397 74.527223 
L 133.680992 74.224676 
L 134.449587 73.922129 
L 135.218182 73.619583 
L 135.986777 73.317036 
L 136.755372 73.014489 
L 137.523967 72.711942 
L 138.292562 72.409395 
L 139.061157 72.106848 
L 139.829752 71.804302 
L 140.598347 71.501755 
L 141.366942 71.199208 
L 142.135537 70.896661 
L 142.904132 70.594114 
L 143.672727 70.291567 
L 144.441322 69.98902 
L 145.209917 69.686474 
L 145.978512 69.383927 
L 146.747107 69.08138 
L 147.515702 68.778833 
L 148.284298 68.476286 
L 149.052893 68.173739 
L 149.821488 67.871193 
L 150.590083 67.568646 
L 151.358678 67.266099 
L 152.127273 66.963552 
L 152.895868 66.661005 
L 153.664463 66.358458 
L 154.433058 66.055911 
L 155.201653 65.753365 
L 155.970248 65.450818 
L 156.738843 65.148271 
L 157.507438 64.845724 
L 158.276033 64.543177 
L 159.044628 64.24063 
L 159.813223 63.938084 
L 160.581818 63.635537 
L 161.350413 63.33299 
L 162.119008 63.030443 
L 162.887603 62.727896 
L 163.656198 62.425349 
L 164.424793 62.122802 
L 165.193388 61.820256 
L 165.961983 61.517709 
L 166.730579 61.215162 
L 167.499174 60.912615 
L 168.267769 60.610068 
L 169.036364 60.307521 
L 169.804959 60.004975 
L 170.573554 59.702428 
L 171.342149 59.399881 
L 172.110744 59.097334 
L 172.879339 58.794787 
L 173.647934 58.49224 
L 174.416529 58.189693 
L 175.185124 57.887147 
L 175.953719 57.5846 
L 176.722314 57.282053 
L 177.490909 56.979506 
L 178.259504 56.676959 
L 179.028099 56.374412 
L 179.796694 56.071866 
L 180.565289 55.769319 
L 181.333884 55.466772 
L 182.102479 55.164225 
L 182.871074 54.861678 
L 183.639669 54.559131 
L 184.408264 54.256585 
L 185.17686 53.954038 
L 185.945455 53.651491 
L 186.71405 53.348944 
L 187.482645 53.046397 
L 188.25124 52.74385 
L 189.019835 52.441303 
L 189.78843 52.138757 
L 190.557025 51.83621 
L 191.32562 51.533663 
L 192.094215 51.231116 
L 192.86281 50.928569 
L 193.631405 50.626022 
L 194.4 50.323476 
" style="fill:none;stroke:#000000;stroke-dasharray:1.85,0.8;stroke-dashoffset:0;stroke-width:0.5;"/>
   </g>
   <g id="patch_6">
    <path d="M 118.309091 94.5 
L 118.309091 12.96 
" style="fill:none;stroke:#000000;stroke-linecap:square;stroke-linejoin:miter;"/>
   </g>
   <g id="patch_7">
    <path d="M 118.309091 94.5 
L 194.4 94.5 
" style="fill:none;stroke:#000000;stroke-linecap:square;stroke-linejoin:miter;"/>
   </g>
   <g id="matplotlib.axis_3">
    <g id="xtick_3">
     <g id="line2d_12"/>
     <g id="text_10">
      <text style="font-family:Arial;font-size:8px;font-style:normal;font-weight:normal;text-anchor:middle;" transform="rotate(-0, 118.309091, 103.72625)" x="118.309091" y="103.72625">0</text>
     </g>
    </g>
    <g id="xtick_4">
     <g id="line2d_13"/>
     <g id="text_11">
      <text style="font-family:Arial;font-size:8px;font-style:normal;font-weight:normal;text-anchor:middle;" transform="rotate(-0, 159.651436, 103.72625)" x="159.651436" y="103.72625">2</text>
     </g>
    </g>
    <g id="text_12">
     <!-- $\sigma$(Exc) -->
     <g transform="translate(141.504545 116.61625)">
      <text>
       <tspan style="font-family:DejaVu Sans;font-size:10px;font-style:oblique;font-weight:oblique;" x="0" y="-0.71875">σ</tspan>
       <tspan style="font-family:Arial;font-size:10px;font-style:regular;font-weight:regular;" x="6.337891 9.667969 16.337891 21.337891 26.337891" y="-0.71875">(Exc)</tspan>
      </text>
     </g>
    </g>
   </g>
   <g id="matplotlib.axis_4">
    <g id="ytick_5">
     <g id="line2d_14"/>
     <g id="text_13">
      <text style="font-family:Arial;font-size:8px;font-style:normal;font-weight:normal;text-anchor:end;" transform="rotate(-0, 114.809091, 97.363125)" x="114.809091" y="97.363125">0</text>
     </g>
    </g>
    <g id="ytick_6">
     <g id="line2d_15"/>
     <g id="text_14">
      <text style="font-family:Arial;font-size:8px;font-style:normal;font-weight:normal;text-anchor:end;" transform="rotate(-0, 114.809091, 75.21163)" x="114.809091" y="75.21163">1</text>
     </g>
    </g>
    <g id="ytick_7">
     <g id="line2d_16"/>
     <g id="text_15">
      <text style="font-family:Arial;font-size:8px;font-style:normal;font-weight:normal;text-anchor:end;" transform="rotate(-0, 114.809091, 53.060135)" x="114.809091" y="53.060135">2</text>
     </g>
    </g>
    <g id="ytick_8">
     <g id="line2d_17"/>
     <g id="text_16">
      <text style="font-family:Arial;font-size:8px;font-style:normal;font-weight:normal;text-anchor:end;" transform="rotate(-0, 114.809091, 30.908639)" x="114.809091" y="30.908639">3</text>
     </g>
    </g>
    <g id="text_17">
     <!-- $\sigma$(Inh) -->
     <g transform="translate(104.160341 67.18)rotate(-90)">
      <text>
       <tspan style="font-family:DejaVu Sans;font-size:10px;font-style:oblique;font-weight:oblique;" x="0" y="-0.71875">σ</tspan>
       <tspan style="font-family:Arial;font-size:10px;font-style:regular;font-weight:regular;" x="6.337891 9.667969 12.446289 18.007812 23.569336" y="-0.71875">(Inh)</tspan>
      </text>
     </g>
    </g>
   </g>
   <g id="legend_2">
    <g id="line2d_18">
     <path d="M 108.478125 31.995156 
L 128.478125 31.995156 
" style="fill:none;stroke:#000000;stroke-dasharray:1.85,0.8;stroke-dashoffset:0;stroke-width:0.5;"/>
    </g>
    <g id="line2d_19"/>
    <g id="text_18">
     <!-- $R^2$ 0.14 -->
     <g transform="translate(136.478125 29.2475)">
      <text>
       <tspan style="font-family:DejaVu Sans;font-size:10px;font-style:oblique;font-weight:oblique;" x="0" y="-0.9765625">R</tspan>
       <tspan style="font-family:DejaVu Sans;font-size:7px;font-style:book;font-weight:book;" x="7.650794" y="-4.8046875">2</tspan>
       <tspan style="font-family:Arial;font-size:10px;font-style:regular;font-weight:regular;" x="12.377845 15.156165 20.717689 23.496009 29.057533" y="-0.9765625"> 0.14</tspan>
      </text>
     </g>
     <text style="font-family:Arial;font-size:10px;font-style:normal;font-weight:normal;" transform="translate(136.478125 39.86)"> slope 0.37</text>
    </g>
   </g>
  </g>
 </g>
 <defs>
  <clipPath id="paa1ca124fe">
   <rect height="81.54" width="76.090909" x="27" y="12.96"/>
  </clipPath>
  <clipPath id="p4664295107">
   <rect height="81.54" width="76.090909" x="118.309091" y="12.96"/>
  </clipPath>
 </defs>
</svg>
