<?xml version="1.0" encoding="utf-8" standalone="no"?>
<!DOCTYPE svg PUBLIC "-//W3C//DTD SVG 1.1//EN"
  "http://www.w3.org/Graphics/SVG/1.1/DTD/svg11.dtd">
<!-- Created with matplotlib (http://matplotlib.org/) -->
<svg height="108pt" version="1.1" viewBox="0 0 216 108" width="216pt" xmlns="http://www.w3.org/2000/svg" xmlns:xlink="http://www.w3.org/1999/xlink">
 <defs>
  <style type="text/css">
*{stroke-linecap:butt;stroke-linejoin:round;}
  </style>
 </defs>
 <g id="figure_1">
  <g id="patch_1">
   <path d="M 0 108 
L 216 108 
L 216 0 
L 0 0 
z
" style="fill:#ffffff;"/>
  </g>
  <g id="axes_1">
   <g id="patch_2">
    <path d="M 27 94.5 
L 103.090909 94.5 
L 103.090909 12.96 
L 27 12.96 
z
" style="fill:#ffffff;"/>
   </g>
   <g id="LineCollection_1">
    <path clip-path="url(#p2a3947d688)" d="M 25.334688 66.485246 
L 52.124182 66.485246 
" style="fill:none;stroke:#000000;stroke-width:0.5;"/>
    <path clip-path="url(#p2a3947d688)" d="M 27.52742 66.388681 
L 47.513273 66.388681 
" style="fill:none;stroke:#000000;stroke-width:0.5;"/>
    <path clip-path="url(#p2a3947d688)" d="M 27 92.318795 
L 27 92.318795 
" style="fill:none;stroke:#000000;stroke-width:0.5;"/>
    <path clip-path="url(#p2a3947d688)" d="M 26.424735 92.41176 
L 28.369014 92.41176 
" style="fill:none;stroke:#000000;stroke-width:0.5;"/>
    <path clip-path="url(#p2a3947d688)" d="M 24.041769 63.612648 
L 43.964825 63.612648 
" style="fill:none;stroke:#000000;stroke-width:0.5;"/>
    <path clip-path="url(#p2a3947d688)" d="M 25.296317 39.023769 
L 40.047417 39.023769 
" style="fill:none;stroke:#000000;stroke-width:0.5;"/>
    <path clip-path="url(#p2a3947d688)" d="M 24.175823 70.323715 
L 43.590009 70.323715 
" style="fill:none;stroke:#000000;stroke-width:0.5;"/>
    <path clip-path="url(#p2a3947d688)" d="M 26.943294 84.449363 
L 32.577675 84.449363 
" style="fill:none;stroke:#000000;stroke-width:0.5;"/>
    <path clip-path="url(#p2a3947d688)" d="M 25.058594 44.528098 
L 58.271085 44.528098 
" style="fill:none;stroke:#000000;stroke-width:0.5;"/>
    <path clip-path="url(#p2a3947d688)" d="M 28.530162 42.743091 
L 54.771806 42.743091 
" style="fill:none;stroke:#000000;stroke-width:0.5;"/>
    <path clip-path="url(#p2a3947d688)" d="M 23.88516 62.883353 
L 41.431468 62.883353 
" style="fill:none;stroke:#000000;stroke-width:0.5;"/>
    <path clip-path="url(#p2a3947d688)" d="M 25.37213 77.681752 
L 34.162222 77.681752 
" style="fill:none;stroke:#000000;stroke-width:0.5;"/>
    <path clip-path="url(#p2a3947d688)" d="M 24.227703 80.834017 
L 33.597502 80.834017 
" style="fill:none;stroke:#000000;stroke-width:0.5;"/>
    <path clip-path="url(#p2a3947d688)" d="M 29.920535 51.908083 
L 42.557657 51.908083 
" style="fill:none;stroke:#000000;stroke-width:0.5;"/>
    <path clip-path="url(#p2a3947d688)" d="M 31.58051 49.8985 
L 56.682936 49.8985 
" style="fill:none;stroke:#000000;stroke-width:0.5;"/>
    <path clip-path="url(#p2a3947d688)" d="M 25.467136 69.398581 
L 32.284171 69.398581 
" style="fill:none;stroke:#000000;stroke-width:0.5;"/>
    <path clip-path="url(#p2a3947d688)" d="M 29.642358 60.247647 
L 38.8607 60.247647 
" style="fill:none;stroke:#000000;stroke-width:0.5;"/>
    <path clip-path="url(#p2a3947d688)" d="M 25.500545 54.273074 
L 57.713875 54.273074 
" style="fill:none;stroke:#000000;stroke-width:0.5;"/>
    <path clip-path="url(#p2a3947d688)" d="M 27.670894 80.017795 
L 29.790649 80.017795 
" style="fill:none;stroke:#000000;stroke-width:0.5;"/>
    <path clip-path="url(#p2a3947d688)" d="M 27 75.97042 
L 27 75.97042 
" style="fill:none;stroke:#000000;stroke-width:0.5;"/>
    <path clip-path="url(#p2a3947d688)" d="M 26.328044 67.819398 
L 36.367144 67.819398 
" style="fill:none;stroke:#000000;stroke-width:0.5;"/>
    <path clip-path="url(#p2a3947d688)" d="M 26.201078 50.049895 
L 30.633255 50.049895 
" style="fill:none;stroke:#000000;stroke-width:0.5;"/>
    <path clip-path="url(#p2a3947d688)" d="M 26.873145 40.073016 
L 34.699053 40.073016 
" style="fill:none;stroke:#000000;stroke-width:0.5;"/>
    <path clip-path="url(#p2a3947d688)" d="M 24.900527 35.996871 
L 51.212998 35.996871 
" style="fill:none;stroke:#000000;stroke-width:0.5;"/>
    <path clip-path="url(#p2a3947d688)" d="M 25.665196 69.902119 
L 38.995048 69.902119 
" style="fill:none;stroke:#000000;stroke-width:0.5;"/>
    <path clip-path="url(#p2a3947d688)" d="M 32.623389 49.63038 
L 55.980878 49.63038 
" style="fill:none;stroke:#000000;stroke-width:0.5;"/>
    <path clip-path="url(#p2a3947d688)" d="M 26.613744 64.941805 
L 35.355139 64.941805 
" style="fill:none;stroke:#000000;stroke-width:0.5;"/>
    <path clip-path="url(#p2a3947d688)" d="M 25.936174 65.326371 
L 31.489976 65.326371 
" style="fill:none;stroke:#000000;stroke-width:0.5;"/>
    <path clip-path="url(#p2a3947d688)" d="M 25.063552 56.262258 
L 33.787776 56.262258 
" style="fill:none;stroke:#000000;stroke-width:0.5;"/>
    <path clip-path="url(#p2a3947d688)" d="M 30.221387 67.265107 
L 53.031597 67.265107 
" style="fill:none;stroke:#000000;stroke-width:0.5;"/>
   </g>
   <g id="LineCollection_2">
    <path clip-path="url(#p2a3947d688)" d="M 38.729435 77.692172 
L 38.729435 55.278321 
" style="fill:none;stroke:#000000;stroke-width:0.5;"/>
    <path clip-path="url(#p2a3947d688)" d="M 37.520347 75.165781 
L 37.520347 57.611582 
" style="fill:none;stroke:#000000;stroke-width:0.5;"/>
    <path clip-path="url(#p2a3947d688)" d="M 27 92.318795 
L 27 92.318795 
" style="fill:none;stroke:#000000;stroke-width:0.5;"/>
    <path clip-path="url(#p2a3947d688)" d="M 27.396874 93.434784 
L 27.396874 91.388735 
" style="fill:none;stroke:#000000;stroke-width:0.5;"/>
    <path clip-path="url(#p2a3947d688)" d="M 34.003297 71.798873 
L 34.003297 55.426423 
" style="fill:none;stroke:#000000;stroke-width:0.5;"/>
    <path clip-path="url(#p2a3947d688)" d="M 32.671867 49.445613 
L 32.671867 28.601926 
" style="fill:none;stroke:#000000;stroke-width:0.5;"/>
    <path clip-path="url(#p2a3947d688)" d="M 33.882916 79.00865 
L 33.882916 61.638779 
" style="fill:none;stroke:#000000;stroke-width:0.5;"/>
    <path clip-path="url(#p2a3947d688)" d="M 29.760485 87.825616 
L 29.760485 81.073111 
" style="fill:none;stroke:#000000;stroke-width:0.5;"/>
    <path clip-path="url(#p2a3947d688)" d="M 41.664839 63.660544 
L 41.664839 25.395652 
" style="fill:none;stroke:#000000;stroke-width:0.5;"/>
    <path clip-path="url(#p2a3947d688)" d="M 41.650984 51.673223 
L 41.650984 33.81296 
" style="fill:none;stroke:#000000;stroke-width:0.5;"/>
    <path clip-path="url(#p2a3947d688)" d="M 32.658314 70.056803 
L 32.658314 55.709902 
" style="fill:none;stroke:#000000;stroke-width:0.5;"/>
    <path clip-path="url(#p2a3947d688)" d="M 29.767176 82.270278 
L 29.767176 73.093227 
" style="fill:none;stroke:#000000;stroke-width:0.5;"/>
    <path clip-path="url(#p2a3947d688)" d="M 28.912602 88.493683 
L 28.912602 73.174351 
" style="fill:none;stroke:#000000;stroke-width:0.5;"/>
    <path clip-path="url(#p2a3947d688)" d="M 36.239096 61.47948 
L 36.239096 42.336686 
" style="fill:none;stroke:#000000;stroke-width:0.5;"/>
    <path clip-path="url(#p2a3947d688)" d="M 44.131723 66.102592 
L 44.131723 33.694408 
" style="fill:none;stroke:#000000;stroke-width:0.5;"/>
    <path clip-path="url(#p2a3947d688)" d="M 28.875654 77.435888 
L 28.875654 61.361273 
" style="fill:none;stroke:#000000;stroke-width:0.5;"/>
    <path clip-path="url(#p2a3947d688)" d="M 34.251529 63.902729 
L 34.251529 56.592565 
" style="fill:none;stroke:#000000;stroke-width:0.5;"/>
    <path clip-path="url(#p2a3947d688)" d="M 41.60721 64.716511 
L 41.60721 43.829638 
" style="fill:none;stroke:#000000;stroke-width:0.5;"/>
    <path clip-path="url(#p2a3947d688)" d="M 28.730772 82.44256 
L 28.730772 77.593029 
" style="fill:none;stroke:#000000;stroke-width:0.5;"/>
    <path clip-path="url(#p2a3947d688)" d="M 27 87.563333 
L 27 64.377508 
" style="fill:none;stroke:#000000;stroke-width:0.5;"/>
    <path clip-path="url(#p2a3947d688)" d="M 31.347594 72.650498 
L 31.347594 62.988298 
" style="fill:none;stroke:#000000;stroke-width:0.5;"/>
    <path clip-path="url(#p2a3947d688)" d="M 28.417166 52.247201 
L 28.417166 47.852589 
" style="fill:none;stroke:#000000;stroke-width:0.5;"/>
    <path clip-path="url(#p2a3947d688)" d="M 30.786099 45.899842 
L 30.786099 34.246189 
" style="fill:none;stroke:#000000;stroke-width:0.5;"/>
    <path clip-path="url(#p2a3947d688)" d="M 38.056762 55.201609 
L 38.056762 16.792133 
" style="fill:none;stroke:#000000;stroke-width:0.5;"/>
    <path clip-path="url(#p2a3947d688)" d="M 32.330122 75.210282 
L 32.330122 64.593956 
" style="fill:none;stroke:#000000;stroke-width:0.5;"/>
    <path clip-path="url(#p2a3947d688)" d="M 44.302133 63.428458 
L 44.302133 35.832302 
" style="fill:none;stroke:#000000;stroke-width:0.5;"/>
    <path clip-path="url(#p2a3947d688)" d="M 30.984441 75.785162 
L 30.984441 54.098449 
" style="fill:none;stroke:#000000;stroke-width:0.5;"/>
    <path clip-path="url(#p2a3947d688)" d="M 28.713075 70.542088 
L 28.713075 60.110654 
" style="fill:none;stroke:#000000;stroke-width:0.5;"/>
    <path clip-path="url(#p2a3947d688)" d="M 29.425664 69.336467 
L 29.425664 43.188049 
" style="fill:none;stroke:#000000;stroke-width:0.5;"/>
    <path clip-path="url(#p2a3947d688)" d="M 41.626492 78.405931 
L 41.626492 56.124284 
" style="fill:none;stroke:#000000;stroke-width:0.5;"/>
   </g>
   <g id="line2d_1">
    <path clip-path="url(#p2a3947d688)" d="M 27 73.972252 
L 27.768595 72.732665 
L 28.53719 71.493078 
L 29.305785 70.253491 
L 30.07438 69.013904 
L 30.842975 67.774317 
L 31.61157 66.53473 
L 32.380165 65.295143 
L 33.14876 64.055556 
L 33.917355 62.815969 
L 34.68595 61.576382 
L 35.454545 60.336795 
L 36.22314 59.097208 
L 36.991736 57.857621 
L 37.760331 56.618034 
L 38.528926 55.378447 
L 39.297521 54.13886 
L 40.066116 52.899273 
L 40.834711 51.659686 
L 41.603306 50.420098 
L 42.371901 49.180511 
L 43.140496 47.940924 
L 43.909091 46.701337 
L 44.677686 45.46175 
L 45.446281 44.222163 
L 46.214876 42.982576 
L 46.983471 41.742989 
L 47.752066 40.503402 
L 48.520661 39.263815 
L 49.289256 38.024228 
L 50.057851 36.784641 
L 50.826446 35.545054 
L 51.595041 34.305467 
L 52.363636 33.06588 
L 53.132231 31.826293 
L 53.900826 30.586706 
L 54.669421 29.347119 
L 55.438017 28.107532 
L 56.206612 26.867945 
L 56.975207 25.628358 
L 57.743802 24.388771 
L 58.512397 23.149183 
L 59.280992 21.909596 
L 60.049587 20.670009 
L 60.818182 19.430422 
L 61.586777 18.190835 
L 62.355372 16.951248 
L 63.123967 15.711661 
L 63.892562 14.472074 
L 64.661157 13.232487 
L 65.429752 11.9929 
L 66.198347 10.753313 
L 66.966942 9.513726 
L 67.735537 8.274139 
L 68.504132 7.034552 
L 69.272727 5.794965 
L 70.041322 4.555378 
L 70.809917 3.315791 
L 71.578512 2.076204 
L 72.347107 0.836617 
L 73.115702 -0.40297 
L 73.485885 -1 
" style="fill:none;stroke:#000000;stroke-dasharray:1.85,0.8;stroke-dashoffset:0;stroke-width:0.5;"/>
   </g>
   <g id="line2d_2">
    <defs>
     <path d="M 0 3 
C 0.795609 3 1.55874 2.683901 2.12132 2.12132 
C 2.683901 1.55874 3 0.795609 3 0 
C 3 -0.795609 2.683901 -1.55874 2.12132 -2.12132 
C 1.55874 -2.683901 0.795609 -3 0 -3 
C -0.795609 -3 -1.55874 -2.683901 -2.12132 -2.12132 
C -2.683901 -1.55874 -3 -0.795609 -3 0 
C -3 0.795609 -2.683901 1.55874 -2.12132 2.12132 
C -1.55874 2.683901 -0.795609 3 0 3 
z
" id="m68b9e9e73d" style="stroke:#000000;"/>
    </defs>
    <g clip-path="url(#p2a3947d688)">
     <use style="stroke:#000000;" x="38.729435" xlink:href="#m68b9e9e73d" y="66.485246"/>
     <use style="stroke:#000000;" x="37.520347" xlink:href="#m68b9e9e73d" y="66.388681"/>
     <use style="stroke:#000000;" x="27" xlink:href="#m68b9e9e73d" y="92.318795"/>
     <use style="stroke:#000000;" x="27.396874" xlink:href="#m68b9e9e73d" y="92.41176"/>
     <use style="stroke:#000000;" x="34.003297" xlink:href="#m68b9e9e73d" y="63.612648"/>
     <use style="stroke:#000000;" x="32.671867" xlink:href="#m68b9e9e73d" y="39.023769"/>
     <use style="stroke:#000000;" x="33.882916" xlink:href="#m68b9e9e73d" y="70.323715"/>
     <use style="stroke:#000000;" x="29.760485" xlink:href="#m68b9e9e73d" y="84.449363"/>
     <use style="stroke:#000000;" x="41.664839" xlink:href="#m68b9e9e73d" y="44.528098"/>
     <use style="stroke:#000000;" x="41.650984" xlink:href="#m68b9e9e73d" y="42.743091"/>
     <use style="stroke:#000000;" x="32.658314" xlink:href="#m68b9e9e73d" y="62.883353"/>
     <use style="stroke:#000000;" x="29.767176" xlink:href="#m68b9e9e73d" y="77.681752"/>
     <use style="stroke:#000000;" x="28.912602" xlink:href="#m68b9e9e73d" y="80.834017"/>
     <use style="stroke:#000000;" x="36.239096" xlink:href="#m68b9e9e73d" y="51.908083"/>
     <use style="stroke:#000000;" x="44.131723" xlink:href="#m68b9e9e73d" y="49.8985"/>
     <use style="stroke:#000000;" x="28.875654" xlink:href="#m68b9e9e73d" y="69.398581"/>
     <use style="stroke:#000000;" x="34.251529" xlink:href="#m68b9e9e73d" y="60.247647"/>
     <use style="stroke:#000000;" x="41.60721" xlink:href="#m68b9e9e73d" y="54.273074"/>
     <use style="stroke:#000000;" x="28.730772" xlink:href="#m68b9e9e73d" y="80.017795"/>
     <use style="stroke:#000000;" x="27" xlink:href="#m68b9e9e73d" y="75.97042"/>
     <use style="stroke:#000000;" x="31.347594" xlink:href="#m68b9e9e73d" y="67.819398"/>
     <use style="stroke:#000000;" x="28.417166" xlink:href="#m68b9e9e73d" y="50.049895"/>
     <use style="stroke:#000000;" x="30.786099" xlink:href="#m68b9e9e73d" y="40.073016"/>
     <use style="stroke:#000000;" x="38.056762" xlink:href="#m68b9e9e73d" y="35.996871"/>
     <use style="stroke:#000000;" x="32.330122" xlink:href="#m68b9e9e73d" y="69.902119"/>
     <use style="stroke:#000000;" x="44.302133" xlink:href="#m68b9e9e73d" y="49.63038"/>
     <use style="stroke:#000000;" x="30.984441" xlink:href="#m68b9e9e73d" y="64.941805"/>
     <use style="stroke:#000000;" x="28.713075" xlink:href="#m68b9e9e73d" y="65.326371"/>
     <use style="stroke:#000000;" x="29.425664" xlink:href="#m68b9e9e73d" y="56.262258"/>
     <use style="stroke:#000000;" x="41.626492" xlink:href="#m68b9e9e73d" y="67.265107"/>
    </g>
   </g>
   <g id="patch_3">
    <path d="M 27 94.5 
L 27 12.96 
" style="fill:none;stroke:#000000;stroke-linecap:square;stroke-linejoin:miter;"/>
   </g>
   <g id="patch_4">
    <path d="M 27 94.5 
L 103.090909 94.5 
" style="fill:none;stroke:#000000;stroke-linecap:square;stroke-linejoin:miter;"/>
   </g>
   <g id="matplotlib.axis_1">
    <g id="xtick_1">
     <g id="line2d_3"/>
     <g id="text_1">
      <text style="font-family:Arial;font-size:8px;font-style:normal;font-weight:normal;text-anchor:middle;" transform="rotate(-0, 27, 103.72625)" x="27" y="103.72625">0</text>
     </g>
    </g>
    <g id="xtick_2">
     <g id="line2d_4"/>
     <g id="text_2">
      <text style="font-family:Arial;font-size:8px;font-style:normal;font-weight:normal;text-anchor:middle;" transform="rotate(-0, 70.06676, 103.72625)" x="70.06676" y="103.72625">5</text>
     </g>
    </g>
    <g id="text_3">
     <text style="font-family:Arial;font-size:10px;font-style:normal;font-weight:normal;text-anchor:middle;" transform="rotate(-0, 65.045455, 116.474063)" x="65.045455" y="116.474063">Exc</text>
    </g>
   </g>
   <g id="matplotlib.axis_2">
    <g id="ytick_1">
     <g id="line2d_5"/>
     <g id="text_4">
      <text style="font-family:Arial;font-size:8px;font-style:normal;font-weight:normal;text-anchor:end;" transform="rotate(-0, 23.5, 97.363125)" x="23.5" y="97.363125">0</text>
     </g>
    </g>
    <g id="ytick_2">
     <g id="line2d_6"/>
     <g id="text_5">
      <text style="font-family:Arial;font-size:8px;font-style:normal;font-weight:normal;text-anchor:end;" transform="rotate(-0, 23.5, 78.902767)" x="23.5" y="78.902767">2</text>
     </g>
    </g>
    <g id="ytick_3">
     <g id="line2d_7"/>
     <g id="text_6">
      <text style="font-family:Arial;font-size:8px;font-style:normal;font-weight:normal;text-anchor:end;" transform="rotate(-0, 23.5, 60.442409)" x="23.5" y="60.442409">4</text>
     </g>
    </g>
    <g id="ytick_4">
     <g id="line2d_8"/>
     <g id="text_7">
      <text style="font-family:Arial;font-size:8px;font-style:normal;font-weight:normal;text-anchor:end;" transform="rotate(-0, 23.5, 41.982051)" x="23.5" y="41.982051">6</text>
     </g>
    </g>
    <g id="ytick_5">
     <g id="line2d_9"/>
     <g id="text_8">
      <text style="font-family:Arial;font-size:8px;font-style:normal;font-weight:normal;text-anchor:end;" transform="rotate(-0, 23.5, 23.521693)" x="23.5" y="23.521693">8</text>
     </g>
    </g>
    <g id="text_9">
     <text style="font-family:Arial;font-size:10px;font-style:normal;font-weight:normal;text-anchor:middle;" transform="rotate(-90, 13.06375, 53.73)" x="13.06375" y="53.73">Inh</text>
    </g>
   </g>
   <g id="legend_1">
    <g id="line2d_10">
     <path d="M 36 75.622656 
L 56 75.622656 
" style="fill:none;stroke:#000000;stroke-dasharray:1.85,0.8;stroke-dashoffset:0;stroke-width:0.5;"/>
    </g>
    <g id="line2d_11"/>
    <g id="text_10">
     <!-- $R^2$ 0.33 -->
     <g transform="translate(64 72.875)">
      <text>
       <tspan style="font-family:DejaVu Sans;font-size:10px;font-style:oblique;font-weight:oblique;" x="0" y="-0.9765625">R</tspan>
       <tspan style="font-family:DejaVu Sans;font-size:7px;font-style:book;font-weight:book;" x="7.650794" y="-4.8046875">2</tspan>
       <tspan style="font-family:Arial;font-size:10px;font-style:regular;font-weight:regular;" x="12.377845 15.156165 20.717689 23.496009 29.057533" y="-0.9765625"> 0.33</tspan>
      </text>
     </g>
     <text style="font-family:Arial;font-size:10px;font-style:normal;font-weight:normal;" transform="translate(64 83.4875)"> slope 1.51</text>
    </g>
   </g>
  </g>
  <g id="axes_2">
   <g id="patch_5">
    <path d="M 118.309091 94.5 
L 194.4 94.5 
L 194.4 12.96 
L 118.309091 12.96 
z
" style="fill:#ffffff;"/>
   </g>
   <g id="PathCollection_1">
    <defs>
     <path d="M 0 2.44949 
C 0.649612 2.44949 1.272706 2.191396 1.732051 1.732051 
C 2.191396 1.272706 2.44949 0.649612 2.44949 0 
C 2.44949 -0.649612 2.191396 -1.272706 1.732051 -1.732051 
C 1.272706 -2.191396 0.649612 -2.44949 0 -2.44949 
C -0.649612 -2.44949 -1.272706 -2.191396 -1.732051 -1.732051 
C -2.191396 -1.272706 -2.44949 -0.649612 -2.44949 0 
C -2.44949 0.649612 -2.191396 1.272706 -1.732051 1.732051 
C -1.272706 2.191396 -0.649612 2.44949 0 2.44949 
z
" id="m770fea7cb9" style="stroke:#000000;"/>
    </defs>
    <g clip-path="url(#p403097633e)">
     <use style="stroke:#000000;" x="172.167205" xlink:href="#m770fea7cb9" y="49.438763"/>
     <use style="stroke:#000000;" x="158.489033" xlink:href="#m770fea7cb9" y="59.208701"/>
     <use style="stroke:#000000;" x="118.309091" xlink:href="#m770fea7cb9" y="94.5"/>
     <use style="stroke:#000000;" x="122.217909" xlink:href="#m770fea7cb9" y="90.386583"/>
     <use style="stroke:#000000;" x="158.362786" xlink:href="#m770fea7cb9" y="61.584512"/>
     <use style="stroke:#000000;" x="147.964986" xlink:href="#m770fea7cb9" y="52.59545"/>
     <use style="stroke:#000000;" x="157.339744" xlink:href="#m770fea7cb9" y="59.579278"/>
     <use style="stroke:#000000;" x="129.636559" xlink:href="#m770fea7cb9" y="80.924634"/>
     <use style="stroke:#000000;" x="185.080122" xlink:href="#m770fea7cb9" y="17.571525"/>
     <use style="stroke:#000000;" x="171.065797" xlink:href="#m770fea7cb9" y="58.593382"/>
     <use style="stroke:#000000;" x="153.584525" xlink:href="#m770fea7cb9" y="65.656713"/>
     <use style="stroke:#000000;" x="135.980861" xlink:href="#m770fea7cb9" y="76.050281"/>
     <use style="stroke:#000000;" x="137.146316" xlink:href="#m770fea7cb9" y="63.70172"/>
     <use style="stroke:#000000;" x="143.715004" xlink:href="#m770fea7cb9" y="56.014958"/>
     <use style="stroke:#000000;" x="168.77549" xlink:href="#m770fea7cb9" y="29.345964"/>
     <use style="stroke:#000000;" x="132.014189" xlink:href="#m770fea7cb9" y="62.183283"/>
     <use style="stroke:#000000;" x="136.841823" xlink:href="#m770fea7cb9" y="79.803506"/>
     <use style="stroke:#000000;" x="183.071389" xlink:href="#m770fea7cb9" y="52.508628"/>
     <use style="stroke:#000000;" x="122.570687" xlink:href="#m770fea7cb9" y="84.750409"/>
     <use style="stroke:#000000;" x="118.309091" xlink:href="#m770fea7cb9" y="47.886771"/>
     <use style="stroke:#000000;" x="138.491891" xlink:href="#m770fea7cb9" y="75.074926"/>
     <use style="stroke:#000000;" x="127.219625" xlink:href="#m770fea7cb9" y="85.664986"/>
     <use style="stroke:#000000;" x="134.042447" xlink:href="#m770fea7cb9" y="71.071273"/>
     <use style="stroke:#000000;" x="171.208188" xlink:href="#m770fea7cb9" y="17.280849"/>
     <use style="stroke:#000000;" x="145.107682" xlink:href="#m770fea7cb9" y="73.156734"/>
     <use style="stroke:#000000;" x="165.267436" xlink:href="#m770fea7cb9" y="39.020157"/>
     <use style="stroke:#000000;" x="135.882959" xlink:href="#m770fea7cb9" y="50.900615"/>
     <use style="stroke:#000000;" x="129.474562" xlink:href="#m770fea7cb9" y="73.528445"/>
     <use style="stroke:#000000;" x="135.848437" xlink:href="#m770fea7cb9" y="41.930717"/>
     <use style="stroke:#000000;" x="164.167175" xlink:href="#m770fea7cb9" y="49.704549"/>
    </g>
   </g>
   <g id="line2d_12">
    <path clip-path="url(#p403097633e)" d="M 118.309091 81.173376 
L 119.077686 80.6168 
L 119.846281 80.060224 
L 120.614876 79.503649 
L 121.383471 78.947073 
L 122.152066 78.390497 
L 122.920661 77.833922 
L 123.689256 77.277346 
L 124.457851 76.72077 
L 125.226446 76.164195 
L 125.995041 75.607619 
L 126.763636 75.051043 
L 127.532231 74.494468 
L 128.300826 73.937892 
L 129.069421 73.381316 
L 129.838017 72.824741 
L 130.606612 72.268165 
L 131.375207 71.711589 
L 132.143802 71.155014 
L 132.912397 70.598438 
L 133.680992 70.041862 
L 134.449587 69.485286 
L 135.218182 68.928711 
L 135.986777 68.372135 
L 136.755372 67.815559 
L 137.523967 67.258984 
L 138.292562 66.702408 
L 139.061157 66.145832 
L 139.829752 65.589257 
L 140.598347 65.032681 
L 141.366942 64.476105 
L 142.135537 63.91953 
L 142.904132 63.362954 
L 143.672727 62.806378 
L 144.441322 62.249803 
L 145.209917 61.693227 
L 145.978512 61.136651 
L 146.747107 60.580076 
L 147.515702 60.0235 
L 148.284298 59.466924 
L 149.052893 58.910349 
L 149.821488 58.353773 
L 150.590083 57.797197 
L 151.358678 57.240622 
L 152.127273 56.684046 
L 152.895868 56.12747 
L 153.664463 55.570895 
L 154.433058 55.014319 
L 155.201653 54.457743 
L 155.970248 53.901168 
L 156.738843 53.344592 
L 157.507438 52.788016 
L 158.276033 52.231441 
L 159.044628 51.674865 
L 159.813223 51.118289 
L 160.581818 50.561714 
L 161.350413 50.005138 
L 162.119008 49.448562 
L 162.887603 48.891987 
L 163.656198 48.335411 
L 164.424793 47.778835 
L 165.193388 47.22226 
L 165.961983 46.665684 
L 166.730579 46.109108 
L 167.499174 45.552533 
L 168.267769 44.995957 
L 169.036364 44.439381 
L 169.804959 43.882806 
L 170.573554 43.32623 
L 171.342149 42.769654 
L 172.110744 42.213079 
L 172.879339 41.656503 
L 173.647934 41.099927 
L 174.416529 40.543352 
L 175.185124 39.986776 
L 175.953719 39.4302 
L 176.722314 38.873624 
L 177.490909 38.317049 
L 178.259504 37.760473 
L 179.028099 37.203897 
L 179.796694 36.647322 
L 180.565289 36.090746 
L 181.333884 35.53417 
L 182.102479 34.977595 
L 182.871074 34.421019 
L 183.639669 33.864443 
L 184.408264 33.307868 
L 185.17686 32.751292 
L 185.945455 32.194716 
L 186.71405 31.638141 
L 187.482645 31.081565 
L 188.25124 30.524989 
L 189.019835 29.968414 
L 189.78843 29.411838 
L 190.557025 28.855262 
L 191.32562 28.298687 
L 192.094215 27.742111 
L 192.86281 27.185535 
L 193.631405 26.62896 
L 194.4 26.072384 
" style="fill:none;stroke:#000000;stroke-dasharray:1.85,0.8;stroke-dashoffset:0;stroke-width:0.5;"/>
   </g>
   <g id="patch_6">
    <path d="M 118.309091 94.5 
L 118.309091 12.96 
" style="fill:none;stroke:#000000;stroke-linecap:square;stroke-linejoin:miter;"/>
   </g>
   <g id="patch_7">
    <path d="M 118.309091 94.5 
L 194.4 94.5 
" style="fill:none;stroke:#000000;stroke-linecap:square;stroke-linejoin:miter;"/>
   </g>
   <g id="matplotlib.axis_3">
    <g id="xtick_3">
     <g id="line2d_13"/>
     <g id="text_11">
      <text style="font-family:Arial;font-size:8px;font-style:normal;font-weight:normal;text-anchor:middle;" transform="rotate(-0, 118.309091, 103.72625)" x="118.309091" y="103.72625">0</text>
     </g>
    </g>
    <g id="xtick_4">
     <g id="line2d_14"/>
     <g id="text_12">
      <text style="font-family:Arial;font-size:8px;font-style:normal;font-weight:normal;text-anchor:middle;" transform="rotate(-0, 152.941988, 103.72625)" x="152.941988" y="103.72625">1</text>
     </g>
    </g>
    <g id="xtick_5">
     <g id="line2d_15"/>
     <g id="text_13">
      <text style="font-family:Arial;font-size:8px;font-style:normal;font-weight:normal;text-anchor:middle;" transform="rotate(-0, 187.574885, 103.72625)" x="187.574885" y="103.72625">2</text>
     </g>
    </g>
    <g id="text_14">
     <!-- $\sigma$(Exc) -->
     <g transform="translate(141.504545 116.61625)">
      <text>
       <tspan style="font-family:DejaVu Sans;font-size:10px;font-style:oblique;font-weight:oblique;" x="0" y="-0.71875">σ</tspan>
       <tspan style="font-family:Arial;font-size:10px;font-style:regular;font-weight:regular;" x="6.337891 9.667969 16.337891 21.337891 26.337891" y="-0.71875">(Exc)</tspan>
      </text>
     </g>
    </g>
   </g>
   <g id="matplotlib.axis_4">
    <g id="ytick_6">
     <g id="line2d_16"/>
     <g id="text_15">
      <text style="font-family:Arial;font-size:8px;font-style:normal;font-weight:normal;text-anchor:end;" transform="rotate(-0, 114.809091, 97.363125)" x="114.809091" y="97.363125">0.0</text>
     </g>
    </g>
    <g id="ytick_7">
     <g id="line2d_17"/>
     <g id="text_16">
      <text style="font-family:Arial;font-size:8px;font-style:normal;font-weight:normal;text-anchor:end;" transform="rotate(-0, 114.809091, 78.806595)" x="114.809091" y="78.806595">0.5</text>
     </g>
    </g>
    <g id="ytick_8">
     <g id="line2d_18"/>
     <g id="text_17">
      <text style="font-family:Arial;font-size:8px;font-style:normal;font-weight:normal;text-anchor:end;" transform="rotate(-0, 114.809091, 60.250066)" x="114.809091" y="60.250066">1.0</text>
     </g>
    </g>
    <g id="ytick_9">
     <g id="line2d_19"/>
     <g id="text_18">
      <text style="font-family:Arial;font-size:8px;font-style:normal;font-weight:normal;text-anchor:end;" transform="rotate(-0, 114.809091, 41.693536)" x="114.809091" y="41.693536">1.5</text>
     </g>
    </g>
    <g id="ytick_10">
     <g id="line2d_20"/>
     <g id="text_19">
      <text style="font-family:Arial;font-size:8px;font-style:normal;font-weight:normal;text-anchor:end;" transform="rotate(-0, 114.809091, 23.137006)" x="114.809091" y="23.137006">2.0</text>
     </g>
    </g>
    <g id="text_20">
     <!-- $\sigma$(Inh) -->
     <g transform="translate(97.489091 67.18)rotate(-90)">
      <text>
       <tspan style="font-family:DejaVu Sans;font-size:10px;font-style:oblique;font-weight:oblique;" x="0" y="-0.71875">σ</tspan>
       <tspan style="font-family:Arial;font-size:10px;font-style:regular;font-weight:regular;" x="6.337891 9.667969 12.446289 18.007812 23.569336" y="-0.71875">(Inh)</tspan>
      </text>
     </g>
    </g>
   </g>
   <g id="legend_2">
    <g id="line2d_21">
     <path d="M 108.478125 31.995156 
L 128.478125 31.995156 
" style="fill:none;stroke:#000000;stroke-dasharray:1.85,0.8;stroke-dashoffset:0;stroke-width:0.5;"/>
    </g>
    <g id="line2d_22"/>
    <g id="text_21">
     <!-- $R^2$ 0.52 -->
     <g transform="translate(136.478125 29.2475)">
      <text>
       <tspan style="font-family:DejaVu Sans;font-size:10px;font-style:oblique;font-weight:oblique;" x="0" y="-0.9765625">R</tspan>
       <tspan style="font-family:DejaVu Sans;font-size:7px;font-style:book;font-weight:book;" x="7.650794" y="-4.8046875">2</tspan>
       <tspan style="font-family:Arial;font-size:10px;font-style:regular;font-weight:regular;" x="12.377845 15.156165 20.717689 23.496009 29.057533" y="-0.9765625"> 0.52</tspan>
      </text>
     </g>
     <text style="font-family:Arial;font-size:10px;font-style:normal;font-weight:normal;" transform="translate(136.478125 39.86)"> slope 0.68</text>
    </g>
   </g>
  </g>
 </g>
 <defs>
  <clipPath id="p2a3947d688">
   <rect height="81.54" width="76.090909" x="27" y="12.96"/>
  </clipPath>
  <clipPath id="p403097633e">
   <rect height="81.54" width="76.090909" x="118.309091" y="12.96"/>
  </clipPath>
 </defs>
</svg>
