<?xml version="1.0" encoding="utf-8" standalone="no"?>
<!DOCTYPE svg PUBLIC "-//W3C//DTD SVG 1.1//EN"
  "http://www.w3.org/Graphics/SVG/1.1/DTD/svg11.dtd">
<!-- Created with matplotlib (http://matplotlib.org/) -->
<svg height="108pt" version="1.1" viewBox="0 0 216 108" width="216pt" xmlns="http://www.w3.org/2000/svg" xmlns:xlink="http://www.w3.org/1999/xlink">
 <defs>
  <style type="text/css">
*{stroke-linecap:butt;stroke-linejoin:round;}
  </style>
 </defs>
 <g id="figure_1">
  <g id="patch_1">
   <path d="M 0 108 
L 216 108 
L 216 0 
L 0 0 
z
" style="fill:#ffffff;"/>
  </g>
  <g id="axes_1">
   <g id="patch_2">
    <path d="M 27 94.5 
L 103.090909 94.5 
L 103.090909 12.96 
L 27 12.96 
z
" style="fill:#ffffff;"/>
   </g>
   <g id="LineCollection_1">
    <path clip-path="url(#pa8ab1d9b2d)" d="M 27.807382 68.116948 
L 39.352923 68.116948 
" style="fill:none;stroke:#000000;stroke-width:0.5;"/>
    <path clip-path="url(#pa8ab1d9b2d)" d="M 24.194485 60.054947 
L 47.736376 60.054947 
" style="fill:none;stroke:#000000;stroke-width:0.5;"/>
    <path clip-path="url(#pa8ab1d9b2d)" d="M 25.988527 64.540466 
L 43.285202 64.540466 
" style="fill:none;stroke:#000000;stroke-width:0.5;"/>
    <path clip-path="url(#pa8ab1d9b2d)" d="M 31.223277 29.365928 
L 57.812359 29.365928 
" style="fill:none;stroke:#000000;stroke-width:0.5;"/>
    <path clip-path="url(#pa8ab1d9b2d)" d="M 25.307323 87.26769 
L 32.713735 87.26769 
" style="fill:none;stroke:#000000;stroke-width:0.5;"/>
    <path clip-path="url(#pa8ab1d9b2d)" d="M 28.830395 67.292651 
L 37.579829 67.292651 
" style="fill:none;stroke:#000000;stroke-width:0.5;"/>
    <path clip-path="url(#pa8ab1d9b2d)" d="M 26.574586 64.207702 
L 54.879662 64.207702 
" style="fill:none;stroke:#000000;stroke-width:0.5;"/>
    <path clip-path="url(#pa8ab1d9b2d)" d="M 26.830575 66.932169 
L 33.045675 66.932169 
" style="fill:none;stroke:#000000;stroke-width:0.5;"/>
    <path clip-path="url(#pa8ab1d9b2d)" d="M 24.959357 64.409558 
L 38.44899 64.409558 
" style="fill:none;stroke:#000000;stroke-width:0.5;"/>
    <path clip-path="url(#pa8ab1d9b2d)" d="M 27.138195 69.176155 
L 39.964695 69.176155 
" style="fill:none;stroke:#000000;stroke-width:0.5;"/>
    <path clip-path="url(#pa8ab1d9b2d)" d="M 26.369981 84.620639 
L 36.039184 84.620639 
" style="fill:none;stroke:#000000;stroke-width:0.5;"/>
    <path clip-path="url(#pa8ab1d9b2d)" d="M 28.942463 81.849438 
L 31.397549 81.849438 
" style="fill:none;stroke:#000000;stroke-width:0.5;"/>
    <path clip-path="url(#pa8ab1d9b2d)" d="M 27.963398 64.56369 
L 41.176746 64.56369 
" style="fill:none;stroke:#000000;stroke-width:0.5;"/>
    <path clip-path="url(#pa8ab1d9b2d)" d="M 28.51866 61.667922 
L 31.696018 61.667922 
" style="fill:none;stroke:#000000;stroke-width:0.5;"/>
    <path clip-path="url(#pa8ab1d9b2d)" d="M 29.636357 77.210613 
L 42.939249 77.210613 
" style="fill:none;stroke:#000000;stroke-width:0.5;"/>
    <path clip-path="url(#pa8ab1d9b2d)" d="M 28.653635 68.664953 
L 39.566339 68.664953 
" style="fill:none;stroke:#000000;stroke-width:0.5;"/>
    <path clip-path="url(#pa8ab1d9b2d)" d="M 26.09965 86.086566 
L 34.051015 86.086566 
" style="fill:none;stroke:#000000;stroke-width:0.5;"/>
    <path clip-path="url(#pa8ab1d9b2d)" d="M 24.733531 36.75062 
L 51.894783 36.75062 
" style="fill:none;stroke:#000000;stroke-width:0.5;"/>
    <path clip-path="url(#pa8ab1d9b2d)" d="M 25.391251 72.35015 
L 37.741859 72.35015 
" style="fill:none;stroke:#000000;stroke-width:0.5;"/>
    <path clip-path="url(#pa8ab1d9b2d)" d="M 24.774821 72.804901 
L 46.601638 72.804901 
" style="fill:none;stroke:#000000;stroke-width:0.5;"/>
    <path clip-path="url(#pa8ab1d9b2d)" d="M 25.925392 85.178311 
L 31.881003 85.178311 
" style="fill:none;stroke:#000000;stroke-width:0.5;"/>
    <path clip-path="url(#pa8ab1d9b2d)" d="M 26.345043 56.666123 
L 32.890817 56.666123 
" style="fill:none;stroke:#000000;stroke-width:0.5;"/>
    <path clip-path="url(#pa8ab1d9b2d)" d="M 26.28674 91.277688 
L 30.31074 91.277688 
" style="fill:none;stroke:#000000;stroke-width:0.5;"/>
    <path clip-path="url(#pa8ab1d9b2d)" d="M 26.304955 72.532742 
L 39.109044 72.532742 
" style="fill:none;stroke:#000000;stroke-width:0.5;"/>
    <path clip-path="url(#pa8ab1d9b2d)" d="M 28.79035 68.14146 
L 36.230054 68.14146 
" style="fill:none;stroke:#000000;stroke-width:0.5;"/>
    <path clip-path="url(#pa8ab1d9b2d)" d="M 27.835027 63.365972 
L 36.242931 63.365972 
" style="fill:none;stroke:#000000;stroke-width:0.5;"/>
    <path clip-path="url(#pa8ab1d9b2d)" d="M 24.684106 61.504991 
L 37.144214 61.504991 
" style="fill:none;stroke:#000000;stroke-width:0.5;"/>
    <path clip-path="url(#pa8ab1d9b2d)" d="M 30.508691 70.149502 
L 41.083706 70.149502 
" style="fill:none;stroke:#000000;stroke-width:0.5;"/>
    <path clip-path="url(#pa8ab1d9b2d)" d="M 26.797926 66.103485 
L 39.971077 66.103485 
" style="fill:none;stroke:#000000;stroke-width:0.5;"/>
    <path clip-path="url(#pa8ab1d9b2d)" d="M 29.41995 77.471628 
L 34.298745 77.471628 
" style="fill:none;stroke:#000000;stroke-width:0.5;"/>
   </g>
   <g id="LineCollection_2">
    <path clip-path="url(#pa8ab1d9b2d)" d="M 33.580153 74.793132 
L 33.580153 61.440764 
" style="fill:none;stroke:#000000;stroke-width:0.5;"/>
    <path clip-path="url(#pa8ab1d9b2d)" d="M 35.965431 64.949445 
L 35.965431 55.160449 
" style="fill:none;stroke:#000000;stroke-width:0.5;"/>
    <path clip-path="url(#pa8ab1d9b2d)" d="M 34.636865 71.782144 
L 34.636865 57.298789 
" style="fill:none;stroke:#000000;stroke-width:0.5;"/>
    <path clip-path="url(#pa8ab1d9b2d)" d="M 44.517818 41.967271 
L 44.517818 16.764585 
" style="fill:none;stroke:#000000;stroke-width:0.5;"/>
    <path clip-path="url(#pa8ab1d9b2d)" d="M 29.010529 90.844818 
L 29.010529 83.690561 
" style="fill:none;stroke:#000000;stroke-width:0.5;"/>
    <path clip-path="url(#pa8ab1d9b2d)" d="M 33.205112 73.732222 
L 33.205112 60.85308 
" style="fill:none;stroke:#000000;stroke-width:0.5;"/>
    <path clip-path="url(#pa8ab1d9b2d)" d="M 40.727124 67.091989 
L 40.727124 61.323415 
" style="fill:none;stroke:#000000;stroke-width:0.5;"/>
    <path clip-path="url(#pa8ab1d9b2d)" d="M 29.938125 72.656051 
L 29.938125 61.208287 
" style="fill:none;stroke:#000000;stroke-width:0.5;"/>
    <path clip-path="url(#pa8ab1d9b2d)" d="M 31.704173 69.896768 
L 31.704173 58.922347 
" style="fill:none;stroke:#000000;stroke-width:0.5;"/>
    <path clip-path="url(#pa8ab1d9b2d)" d="M 33.551445 75.054209 
L 33.551445 63.298101 
" style="fill:none;stroke:#000000;stroke-width:0.5;"/>
    <path clip-path="url(#pa8ab1d9b2d)" d="M 31.204583 89.460518 
L 31.204583 79.780761 
" style="fill:none;stroke:#000000;stroke-width:0.5;"/>
    <path clip-path="url(#pa8ab1d9b2d)" d="M 30.170006 83.424679 
L 30.170006 80.274198 
" style="fill:none;stroke:#000000;stroke-width:0.5;"/>
    <path clip-path="url(#pa8ab1d9b2d)" d="M 34.570072 67.161548 
L 34.570072 61.965831 
" style="fill:none;stroke:#000000;stroke-width:0.5;"/>
    <path clip-path="url(#pa8ab1d9b2d)" d="M 30.107339 68.919194 
L 30.107339 54.416649 
" style="fill:none;stroke:#000000;stroke-width:0.5;"/>
    <path clip-path="url(#pa8ab1d9b2d)" d="M 36.287803 82.027265 
L 36.287803 72.393961 
" style="fill:none;stroke:#000000;stroke-width:0.5;"/>
    <path clip-path="url(#pa8ab1d9b2d)" d="M 34.109987 72.743166 
L 34.109987 64.586739 
" style="fill:none;stroke:#000000;stroke-width:0.5;"/>
    <path clip-path="url(#pa8ab1d9b2d)" d="M 30.075333 88.270818 
L 30.075333 83.902314 
" style="fill:none;stroke:#000000;stroke-width:0.5;"/>
    <path clip-path="url(#pa8ab1d9b2d)" d="M 38.314157 44.966359 
L 38.314157 28.534881 
" style="fill:none;stroke:#000000;stroke-width:0.5;"/>
    <path clip-path="url(#pa8ab1d9b2d)" d="M 31.566555 74.352647 
L 31.566555 70.347654 
" style="fill:none;stroke:#000000;stroke-width:0.5;"/>
    <path clip-path="url(#pa8ab1d9b2d)" d="M 35.688229 80.776032 
L 35.688229 64.83377 
" style="fill:none;stroke:#000000;stroke-width:0.5;"/>
    <path clip-path="url(#pa8ab1d9b2d)" d="M 28.903197 88.676365 
L 28.903197 81.680257 
" style="fill:none;stroke:#000000;stroke-width:0.5;"/>
    <path clip-path="url(#pa8ab1d9b2d)" d="M 29.61793 65.842398 
L 29.61793 47.489848 
" style="fill:none;stroke:#000000;stroke-width:0.5;"/>
    <path clip-path="url(#pa8ab1d9b2d)" d="M 28.29874 92.856292 
L 28.29874 89.699084 
" style="fill:none;stroke:#000000;stroke-width:0.5;"/>
    <path clip-path="url(#pa8ab1d9b2d)" d="M 32.706999 78.289884 
L 32.706999 66.7756 
" style="fill:none;stroke:#000000;stroke-width:0.5;"/>
    <path clip-path="url(#pa8ab1d9b2d)" d="M 32.510202 71.146607 
L 32.510202 65.136312 
" style="fill:none;stroke:#000000;stroke-width:0.5;"/>
    <path clip-path="url(#pa8ab1d9b2d)" d="M 32.038979 66.998308 
L 32.038979 59.733636 
" style="fill:none;stroke:#000000;stroke-width:0.5;"/>
    <path clip-path="url(#pa8ab1d9b2d)" d="M 30.91416 72.160439 
L 30.91416 50.849543 
" style="fill:none;stroke:#000000;stroke-width:0.5;"/>
    <path clip-path="url(#pa8ab1d9b2d)" d="M 35.796198 77.118025 
L 35.796198 63.180978 
" style="fill:none;stroke:#000000;stroke-width:0.5;"/>
    <path clip-path="url(#pa8ab1d9b2d)" d="M 33.384502 71.283338 
L 33.384502 60.923632 
" style="fill:none;stroke:#000000;stroke-width:0.5;"/>
    <path clip-path="url(#pa8ab1d9b2d)" d="M 31.859347 80.066374 
L 31.859347 74.876882 
" style="fill:none;stroke:#000000;stroke-width:0.5;"/>
   </g>
   <g id="line2d_1">
    <path clip-path="url(#pa8ab1d9b2d)" d="M 27 84.138388 
L 27.768595 82.210986 
L 28.53719 80.283584 
L 29.305785 78.356182 
L 30.07438 76.42878 
L 30.842975 74.501378 
L 31.61157 72.573976 
L 32.380165 70.646574 
L 33.14876 68.719172 
L 33.917355 66.79177 
L 34.68595 64.864367 
L 35.454545 62.936965 
L 36.22314 61.009563 
L 36.991736 59.082161 
L 37.760331 57.154759 
L 38.528926 55.227357 
L 39.297521 53.299955 
L 40.066116 51.372553 
L 40.834711 49.445151 
L 41.603306 47.517749 
L 42.371901 45.590347 
L 43.140496 43.662945 
L 43.909091 41.735542 
L 44.677686 39.80814 
L 45.446281 37.880738 
L 46.214876 35.953336 
L 46.983471 34.025934 
L 47.752066 32.098532 
L 48.520661 30.17113 
L 49.289256 28.243728 
L 50.057851 26.316326 
L 50.826446 24.388924 
L 51.595041 22.461522 
L 52.363636 20.534119 
L 53.132231 18.606717 
L 53.900826 16.679315 
L 54.669421 14.751913 
L 55.438017 12.824511 
L 56.206612 10.897109 
L 56.975207 8.969707 
L 57.743802 7.042305 
L 58.512397 5.114903 
L 59.280992 3.187501 
L 60.049587 1.260099 
L 60.818182 -0.667303 
L 60.950852 -1 
" style="fill:none;stroke:#000000;stroke-dasharray:1.85,0.8;stroke-dashoffset:0;stroke-width:0.5;"/>
   </g>
   <g id="line2d_2">
    <defs>
     <path d="M 0 3 
C 0.795609 3 1.55874 2.683901 2.12132 2.12132 
C 2.683901 1.55874 3 0.795609 3 0 
C 3 -0.795609 2.683901 -1.55874 2.12132 -2.12132 
C 1.55874 -2.683901 0.795609 -3 0 -3 
C -0.795609 -3 -1.55874 -2.683901 -2.12132 -2.12132 
C -2.683901 -1.55874 -3 -0.795609 -3 0 
C -3 0.795609 -2.683901 1.55874 -2.12132 2.12132 
C -1.55874 2.683901 -0.795609 3 0 3 
z
" id="m9f6bab9227" style="stroke:#000000;"/>
    </defs>
    <g clip-path="url(#pa8ab1d9b2d)">
     <use style="stroke:#000000;" x="33.580153" xlink:href="#m9f6bab9227" y="68.116948"/>
     <use style="stroke:#000000;" x="35.965431" xlink:href="#m9f6bab9227" y="60.054947"/>
     <use style="stroke:#000000;" x="34.636865" xlink:href="#m9f6bab9227" y="64.540466"/>
     <use style="stroke:#000000;" x="44.517818" xlink:href="#m9f6bab9227" y="29.365928"/>
     <use style="stroke:#000000;" x="29.010529" xlink:href="#m9f6bab9227" y="87.26769"/>
     <use style="stroke:#000000;" x="33.205112" xlink:href="#m9f6bab9227" y="67.292651"/>
     <use style="stroke:#000000;" x="40.727124" xlink:href="#m9f6bab9227" y="64.207702"/>
     <use style="stroke:#000000;" x="29.938125" xlink:href="#m9f6bab9227" y="66.932169"/>
     <use style="stroke:#000000;" x="31.704173" xlink:href="#m9f6bab9227" y="64.409558"/>
     <use style="stroke:#000000;" x="33.551445" xlink:href="#m9f6bab9227" y="69.176155"/>
     <use style="stroke:#000000;" x="31.204583" xlink:href="#m9f6bab9227" y="84.620639"/>
     <use style="stroke:#000000;" x="30.170006" xlink:href="#m9f6bab9227" y="81.849438"/>
     <use style="stroke:#000000;" x="34.570072" xlink:href="#m9f6bab9227" y="64.56369"/>
     <use style="stroke:#000000;" x="30.107339" xlink:href="#m9f6bab9227" y="61.667922"/>
     <use style="stroke:#000000;" x="36.287803" xlink:href="#m9f6bab9227" y="77.210613"/>
     <use style="stroke:#000000;" x="34.109987" xlink:href="#m9f6bab9227" y="68.664953"/>
     <use style="stroke:#000000;" x="30.075333" xlink:href="#m9f6bab9227" y="86.086566"/>
     <use style="stroke:#000000;" x="38.314157" xlink:href="#m9f6bab9227" y="36.75062"/>
     <use style="stroke:#000000;" x="31.566555" xlink:href="#m9f6bab9227" y="72.35015"/>
     <use style="stroke:#000000;" x="35.688229" xlink:href="#m9f6bab9227" y="72.804901"/>
     <use style="stroke:#000000;" x="28.903197" xlink:href="#m9f6bab9227" y="85.178311"/>
     <use style="stroke:#000000;" x="29.61793" xlink:href="#m9f6bab9227" y="56.666123"/>
     <use style="stroke:#000000;" x="28.29874" xlink:href="#m9f6bab9227" y="91.277688"/>
     <use style="stroke:#000000;" x="32.706999" xlink:href="#m9f6bab9227" y="72.532742"/>
     <use style="stroke:#000000;" x="32.510202" xlink:href="#m9f6bab9227" y="68.14146"/>
     <use style="stroke:#000000;" x="32.038979" xlink:href="#m9f6bab9227" y="63.365972"/>
     <use style="stroke:#000000;" x="30.91416" xlink:href="#m9f6bab9227" y="61.504991"/>
     <use style="stroke:#000000;" x="35.796198" xlink:href="#m9f6bab9227" y="70.149502"/>
     <use style="stroke:#000000;" x="33.384502" xlink:href="#m9f6bab9227" y="66.103485"/>
     <use style="stroke:#000000;" x="31.859347" xlink:href="#m9f6bab9227" y="77.471628"/>
    </g>
   </g>
   <g id="patch_3">
    <path d="M 27 94.5 
L 27 12.96 
" style="fill:none;stroke:#000000;stroke-linecap:square;stroke-linejoin:miter;"/>
   </g>
   <g id="patch_4">
    <path d="M 27 94.5 
L 103.090909 94.5 
" style="fill:none;stroke:#000000;stroke-linecap:square;stroke-linejoin:miter;"/>
   </g>
   <g id="matplotlib.axis_1">
    <g id="xtick_1">
     <g id="line2d_3"/>
     <g id="text_1">
      <text style="font-family:Arial;font-size:8px;font-style:normal;font-weight:normal;text-anchor:middle;" transform="rotate(-0, 27, 103.72625)" x="27" y="103.72625">0</text>
     </g>
    </g>
    <g id="xtick_2">
     <g id="line2d_4"/>
     <g id="text_2">
      <text style="font-family:Arial;font-size:8px;font-style:normal;font-weight:normal;text-anchor:middle;" transform="rotate(-0, 59.246358, 103.72625)" x="59.246358" y="103.72625">5</text>
     </g>
    </g>
    <g id="xtick_3">
     <g id="line2d_5"/>
     <g id="text_3">
      <text style="font-family:Arial;font-size:8px;font-style:normal;font-weight:normal;text-anchor:middle;" transform="rotate(-0, 91.492717, 103.72625)" x="91.492717" y="103.72625">10</text>
     </g>
    </g>
    <g id="text_4">
     <text style="font-family:Arial;font-size:10px;font-style:normal;font-weight:normal;text-anchor:middle;" transform="rotate(-0, 65.045455, 116.474063)" x="65.045455" y="116.474063">Exc</text>
    </g>
   </g>
   <g id="matplotlib.axis_2">
    <g id="ytick_1">
     <g id="line2d_6"/>
     <g id="text_5">
      <text style="font-family:Arial;font-size:8px;font-style:normal;font-weight:normal;text-anchor:end;" transform="rotate(-0, 23.5, 97.363125)" x="23.5" y="97.363125">0.0</text>
     </g>
    </g>
    <g id="ytick_2">
     <g id="line2d_7"/>
     <g id="text_6">
      <text style="font-family:Arial;font-size:8px;font-style:normal;font-weight:normal;text-anchor:end;" transform="rotate(-0, 23.5, 80.085318)" x="23.5" y="80.085318">2.5</text>
     </g>
    </g>
    <g id="ytick_3">
     <g id="line2d_8"/>
     <g id="text_7">
      <text style="font-family:Arial;font-size:8px;font-style:normal;font-weight:normal;text-anchor:end;" transform="rotate(-0, 23.5, 62.807511)" x="23.5" y="62.807511">5.0</text>
     </g>
    </g>
    <g id="ytick_4">
     <g id="line2d_9"/>
     <g id="text_8">
      <text style="font-family:Arial;font-size:8px;font-style:normal;font-weight:normal;text-anchor:end;" transform="rotate(-0, 23.5, 45.529704)" x="23.5" y="45.529704">7.5</text>
     </g>
    </g>
    <g id="ytick_5">
     <g id="line2d_10"/>
     <g id="text_9">
      <text style="font-family:Arial;font-size:8px;font-style:normal;font-weight:normal;text-anchor:end;" transform="rotate(-0, 23.5, 28.251898)" x="23.5" y="28.251898">10.0</text>
     </g>
    </g>
    <g id="text_10">
     <text style="font-family:Arial;font-size:10px;font-style:normal;font-weight:normal;text-anchor:middle;" transform="rotate(-90, 1.94375, 53.73)" x="1.94375" y="53.73">Inh</text>
    </g>
   </g>
   <g id="legend_1">
    <g id="line2d_11">
     <path d="M 17.169034 31.995156 
L 37.169034 31.995156 
" style="fill:none;stroke:#000000;stroke-dasharray:1.85,0.8;stroke-dashoffset:0;stroke-width:0.5;"/>
    </g>
    <g id="line2d_12"/>
    <g id="text_11">
     <!-- $R^2$ 0.47 -->
     <g transform="translate(45.169034 29.2475)">
      <text>
       <tspan style="font-family:DejaVu Sans;font-size:10px;font-style:oblique;font-weight:oblique;" x="0" y="-0.9765625">R</tspan>
       <tspan style="font-family:DejaVu Sans;font-size:7px;font-style:book;font-weight:book;" x="7.650794" y="-4.8046875">2</tspan>
       <tspan style="font-family:Arial;font-size:10px;font-style:regular;font-weight:regular;" x="12.377845 15.156165 20.717689 23.496009 29.057533" y="-0.9765625"> 0.47</tspan>
      </text>
     </g>
     <text style="font-family:Arial;font-size:10px;font-style:normal;font-weight:normal;" transform="translate(45.169034 39.86)"> slope 2.34</text>
    </g>
   </g>
  </g>
  <g id="axes_2">
   <g id="patch_5">
    <path d="M 118.309091 94.5 
L 194.4 94.5 
L 194.4 12.96 
L 118.309091 12.96 
z
" style="fill:#ffffff;"/>
   </g>
   <g id="PathCollection_1">
    <defs>
     <path d="M 0 2.44949 
C 0.649612 2.44949 1.272706 2.191396 1.732051 1.732051 
C 2.191396 1.272706 2.44949 0.649612 2.44949 0 
C 2.44949 -0.649612 2.191396 -1.272706 1.732051 -1.732051 
C 1.272706 -2.191396 0.649612 -2.44949 0 -2.44949 
C -0.649612 -2.44949 -1.272706 -2.191396 -1.732051 -1.732051 
C -2.191396 -1.272706 -2.44949 -0.649612 -2.44949 0 
C -2.44949 0.649612 -2.191396 1.272706 -1.732051 1.732051 
C -1.272706 2.191396 -0.649612 2.44949 0 2.44949 
z
" id="m1702876852" style="stroke:#000000;"/>
    </defs>
    <g clip-path="url(#p3150899050)">
     <use style="stroke:#000000;" x="147.763668" xlink:href="#m1702876852" y="60.435912"/>
     <use style="stroke:#000000;" x="178.368332" xlink:href="#m1702876852" y="69.526658"/>
     <use style="stroke:#000000;" x="162.435758" xlink:href="#m1702876852" y="57.550578"/>
     <use style="stroke:#000000;" x="186.142215" xlink:href="#m1702876852" y="30.203799"/>
     <use style="stroke:#000000;" x="137.204068" xlink:href="#m1702876852" y="76.248313"/>
     <use style="stroke:#000000;" x="140.630337" xlink:href="#m1702876852" y="61.643189"/>
     <use style="stroke:#000000;" x="190.520002" xlink:href="#m1702876852" y="79.783417"/>
     <use style="stroke:#000000;" x="134.164835" xlink:href="#m1702876852" y="65.294868"/>
     <use style="stroke:#000000;" x="152.723366" xlink:href="#m1702876852" y="66.502445"/>
     <use style="stroke:#000000;" x="151.031602" xlink:href="#m1702876852" y="64.508232"/>
     <use style="stroke:#000000;" x="142.976822" xlink:href="#m1702876852" y="69.805346"/>
     <use style="stroke:#000000;" x="124.572421" xlink:href="#m1702876852" y="86.462605"/>
     <use style="stroke:#000000;" x="152.018519" xlink:href="#m1702876852" y="81.24487"/>
     <use style="stroke:#000000;" x="126.415056" xlink:href="#m1702876852" y="57.501619"/>
     <use style="stroke:#000000;" x="152.246957" xlink:href="#m1702876852" y="69.923856"/>
     <use style="stroke:#000000;" x="146.149196" xlink:href="#m1702876852" y="73.691611"/>
     <use style="stroke:#000000;" x="138.594332" xlink:href="#m1702876852" y="83.355227"/>
     <use style="stroke:#000000;" x="187.601919" xlink:href="#m1702876852" y="52.580592"/>
     <use style="stroke:#000000;" x="149.817526" xlink:href="#m1702876852" y="84.282603"/>
     <use style="stroke:#000000;" x="173.992894" xlink:href="#m1702876852" y="53.828664"/>
     <use style="stroke:#000000;" x="133.502833" xlink:href="#m1702876852" y="76.651777"/>
     <use style="stroke:#000000;" x="135.008439" xlink:href="#m1702876852" y="47.679623"/>
     <use style="stroke:#000000;" x="128.574977" xlink:href="#m1702876852" y="86.445442"/>
     <use style="stroke:#000000;" x="150.97443" xlink:href="#m1702876852" y="65.125164"/>
     <use style="stroke:#000000;" x="137.289" xlink:href="#m1702876852" y="79.166748"/>
     <use style="stroke:#000000;" x="139.759038" xlink:href="#m1702876852" y="75.966626"/>
     <use style="stroke:#000000;" x="150.096878" xlink:href="#m1702876852" y="40.132393"/>
     <use style="stroke:#000000;" x="145.287695" xlink:href="#m1702876852" y="58.944298"/>
     <use style="stroke:#000000;" x="151.915968" xlink:href="#m1702876852" y="68.070683"/>
     <use style="stroke:#000000;" x="130.7557" xlink:href="#m1702876852" y="81.260752"/>
    </g>
   </g>
   <g id="line2d_13">
    <path clip-path="url(#p3150899050)" d="M 118.309091 77.251986 
L 119.077686 77.009032 
L 119.846281 76.766077 
L 120.614876 76.523123 
L 121.383471 76.280168 
L 122.152066 76.037214 
L 122.920661 75.794259 
L 123.689256 75.551305 
L 124.457851 75.30835 
L 125.226446 75.065396 
L 125.995041 74.822441 
L 126.763636 74.579487 
L 127.532231 74.336532 
L 128.300826 74.093578 
L 129.069421 73.850623 
L 129.838017 73.607669 
L 130.606612 73.364714 
L 131.375207 73.12176 
L 132.143802 72.878805 
L 132.912397 72.635851 
L 133.680992 72.392896 
L 134.449587 72.149942 
L 135.218182 71.906987 
L 135.986777 71.664033 
L 136.755372 71.421078 
L 137.523967 71.178124 
L 138.292562 70.935169 
L 139.061157 70.692215 
L 139.829752 70.44926 
L 140.598347 70.206306 
L 141.366942 69.963351 
L 142.135537 69.720397 
L 142.904132 69.477442 
L 143.672727 69.234488 
L 144.441322 68.991533 
L 145.209917 68.748579 
L 145.978512 68.505624 
L 146.747107 68.26267 
L 147.515702 68.019715 
L 148.284298 67.776761 
L 149.052893 67.533806 
L 149.821488 67.290852 
L 150.590083 67.047897 
L 151.358678 66.804943 
L 152.127273 66.561988 
L 152.895868 66.319034 
L 153.664463 66.076079 
L 154.433058 65.833125 
L 155.201653 65.59017 
L 155.970248 65.347216 
L 156.738843 65.104261 
L 157.507438 64.861307 
L 158.276033 64.618352 
L 159.044628 64.375398 
L 159.813223 64.132443 
L 160.581818 63.889489 
L 161.350413 63.646534 
L 162.119008 63.40358 
L 162.887603 63.160625 
L 163.656198 62.917671 
L 164.424793 62.674716 
L 165.193388 62.431762 
L 165.961983 62.188807 
L 166.730579 61.945853 
L 167.499174 61.702898 
L 168.267769 61.459944 
L 169.036364 61.216989 
L 169.804959 60.974035 
L 170.573554 60.73108 
L 171.342149 60.488126 
L 172.110744 60.245171 
L 172.879339 60.002217 
L 173.647934 59.759262 
L 174.416529 59.516308 
L 175.185124 59.273353 
L 175.953719 59.030399 
L 176.722314 58.787444 
L 177.490909 58.54449 
L 178.259504 58.301535 
L 179.028099 58.058581 
L 179.796694 57.815626 
L 180.565289 57.572672 
L 181.333884 57.329717 
L 182.102479 57.086763 
L 182.871074 56.843808 
L 183.639669 56.600854 
L 184.408264 56.357899 
L 185.17686 56.114945 
L 185.945455 55.87199 
L 186.71405 55.629036 
L 187.482645 55.386081 
L 188.25124 55.143127 
L 189.019835 54.900172 
L 189.78843 54.657218 
L 190.557025 54.414263 
L 191.32562 54.171309 
L 192.094215 53.928354 
L 192.86281 53.6854 
L 193.631405 53.442445 
L 194.4 53.199491 
" style="fill:none;stroke:#000000;stroke-dasharray:1.85,0.8;stroke-dashoffset:0;stroke-width:0.5;"/>
   </g>
   <g id="patch_6">
    <path d="M 118.309091 94.5 
L 118.309091 12.96 
" style="fill:none;stroke:#000000;stroke-linecap:square;stroke-linejoin:miter;"/>
   </g>
   <g id="patch_7">
    <path d="M 118.309091 94.5 
L 194.4 94.5 
" style="fill:none;stroke:#000000;stroke-linecap:square;stroke-linejoin:miter;"/>
   </g>
   <g id="matplotlib.axis_3">
    <g id="xtick_4">
     <g id="line2d_14"/>
     <g id="text_12">
      <text style="font-family:Arial;font-size:8px;font-style:normal;font-weight:normal;text-anchor:middle;" transform="rotate(-0, 118.309091, 103.72625)" x="118.309091" y="103.72625">0</text>
     </g>
    </g>
    <g id="xtick_5">
     <g id="line2d_15"/>
     <g id="text_13">
      <text style="font-family:Arial;font-size:8px;font-style:normal;font-weight:normal;text-anchor:middle;" transform="rotate(-0, 151.215399, 103.72625)" x="151.215399" y="103.72625">1</text>
     </g>
    </g>
    <g id="xtick_6">
     <g id="line2d_16"/>
     <g id="text_14">
      <text style="font-family:Arial;font-size:8px;font-style:normal;font-weight:normal;text-anchor:middle;" transform="rotate(-0, 184.121707, 103.72625)" x="184.121707" y="103.72625">2</text>
     </g>
    </g>
    <g id="text_15">
     <!-- $\sigma$(Exc) -->
     <g transform="translate(141.504545 116.61625)">
      <text>
       <tspan style="font-family:DejaVu Sans;font-size:10px;font-style:oblique;font-weight:oblique;" x="0" y="-0.71875">σ</tspan>
       <tspan style="font-family:Arial;font-size:10px;font-style:regular;font-weight:regular;" x="6.337891 9.667969 16.337891 21.337891 26.337891" y="-0.71875">(Exc)</tspan>
      </text>
     </g>
    </g>
   </g>
   <g id="matplotlib.axis_4">
    <g id="ytick_6">
     <g id="line2d_17"/>
     <g id="text_16">
      <text style="font-family:Arial;font-size:8px;font-style:normal;font-weight:normal;text-anchor:end;" transform="rotate(-0, 114.809091, 97.363125)" x="114.809091" y="97.363125">0.0</text>
     </g>
    </g>
    <g id="ytick_7">
     <g id="line2d_18"/>
     <g id="text_17">
      <text style="font-family:Arial;font-size:8px;font-style:normal;font-weight:normal;text-anchor:end;" transform="rotate(-0, 114.809091, 79.731713)" x="114.809091" y="79.731713">0.5</text>
     </g>
    </g>
    <g id="ytick_8">
     <g id="line2d_19"/>
     <g id="text_18">
      <text style="font-family:Arial;font-size:8px;font-style:normal;font-weight:normal;text-anchor:end;" transform="rotate(-0, 114.809091, 62.100301)" x="114.809091" y="62.100301">1.0</text>
     </g>
    </g>
    <g id="ytick_9">
     <g id="line2d_20"/>
     <g id="text_19">
      <text style="font-family:Arial;font-size:8px;font-style:normal;font-weight:normal;text-anchor:end;" transform="rotate(-0, 114.809091, 44.468889)" x="114.809091" y="44.468889">1.5</text>
     </g>
    </g>
    <g id="ytick_10">
     <g id="line2d_21"/>
     <g id="text_20">
      <text style="font-family:Arial;font-size:8px;font-style:normal;font-weight:normal;text-anchor:end;" transform="rotate(-0, 114.809091, 26.837476)" x="114.809091" y="26.837476">2.0</text>
     </g>
    </g>
    <g id="text_21">
     <!-- $\sigma$(Inh) -->
     <g transform="translate(97.489091 67.18)rotate(-90)">
      <text>
       <tspan style="font-family:DejaVu Sans;font-size:10px;font-style:oblique;font-weight:oblique;" x="0" y="-0.71875">σ</tspan>
       <tspan style="font-family:Arial;font-size:10px;font-style:regular;font-weight:regular;" x="6.337891 9.667969 12.446289 18.007812 23.569336" y="-0.71875">(Inh)</tspan>
      </text>
     </g>
    </g>
   </g>
   <g id="legend_2">
    <g id="line2d_22">
     <path d="M 108.478125 31.995156 
L 128.478125 31.995156 
" style="fill:none;stroke:#000000;stroke-dasharray:1.85,0.8;stroke-dashoffset:0;stroke-width:0.5;"/>
    </g>
    <g id="line2d_23"/>
    <g id="text_22">
     <!-- $R^2$ 0.17 -->
     <g transform="translate(136.478125 29.2475)">
      <text>
       <tspan style="font-family:DejaVu Sans;font-size:10px;font-style:oblique;font-weight:oblique;" x="0" y="-0.9765625">R</tspan>
       <tspan style="font-family:DejaVu Sans;font-size:7px;font-style:book;font-weight:book;" x="7.650794" y="-4.8046875">2</tspan>
       <tspan style="font-family:Arial;font-size:10px;font-style:regular;font-weight:regular;" x="12.377845 15.156165 20.717689 23.496009 29.057533" y="-0.9765625"> 0.17</tspan>
      </text>
     </g>
     <text style="font-family:Arial;font-size:10px;font-style:normal;font-weight:normal;" transform="translate(136.478125 39.86)"> slope 0.29</text>
    </g>
   </g>
  </g>
 </g>
 <defs>
  <clipPath id="pa8ab1d9b2d">
   <rect height="81.54" width="76.090909" x="27" y="12.96"/>
  </clipPath>
  <clipPath id="p3150899050">
   <rect height="81.54" width="76.090909" x="118.309091" y="12.96"/>
  </clipPath>
 </defs>
</svg>
