<?xml version="1.0" encoding="utf-8" standalone="no"?>
<!DOCTYPE svg PUBLIC "-//W3C//DTD SVG 1.1//EN"
  "http://www.w3.org/Graphics/SVG/1.1/DTD/svg11.dtd">
<!-- Created with matplotlib (http://matplotlib.org/) -->
<svg height="108pt" version="1.1" viewBox="0 0 216 108" width="216pt" xmlns="http://www.w3.org/2000/svg" xmlns:xlink="http://www.w3.org/1999/xlink">
 <defs>
  <style type="text/css">
*{stroke-linecap:butt;stroke-linejoin:round;}
  </style>
 </defs>
 <g id="figure_1">
  <g id="patch_1">
   <path d="M 0 108 
L 216 108 
L 216 0 
L 0 0 
z
" style="fill:#ffffff;"/>
  </g>
  <g id="axes_1">
   <g id="patch_2">
    <path d="M 27 94.5 
L 103.090909 94.5 
L 103.090909 12.96 
L 27 12.96 
z
" style="fill:#ffffff;"/>
   </g>
   <g id="LineCollection_1">
    <path clip-path="url(#p3532ca2bfb)" d="M 23.945197 65.672509 
L 36.406626 65.672509 
" style="fill:none;stroke:#000000;stroke-width:0.5;"/>
    <path clip-path="url(#p3532ca2bfb)" d="M 27 85.735844 
L 27 85.735844 
" style="fill:none;stroke:#000000;stroke-width:0.5;"/>
    <path clip-path="url(#p3532ca2bfb)" d="M 27.285135 52.869737 
L 36.830551 52.869737 
" style="fill:none;stroke:#000000;stroke-width:0.5;"/>
    <path clip-path="url(#p3532ca2bfb)" d="M 36.23325 61.025547 
L 46.625748 61.025547 
" style="fill:none;stroke:#000000;stroke-width:0.5;"/>
    <path clip-path="url(#p3532ca2bfb)" d="M 26.007194 77.846327 
L 40.252706 77.846327 
" style="fill:none;stroke:#000000;stroke-width:0.5;"/>
    <path clip-path="url(#p3532ca2bfb)" d="M 29.15912 28.359086 
L 46.061997 28.359086 
" style="fill:none;stroke:#000000;stroke-width:0.5;"/>
    <path clip-path="url(#p3532ca2bfb)" d="M 26.878762 80.672897 
L 29.661724 80.672897 
" style="fill:none;stroke:#000000;stroke-width:0.5;"/>
    <path clip-path="url(#p3532ca2bfb)" d="M 28.901722 39.112425 
L 46.286782 39.112425 
" style="fill:none;stroke:#000000;stroke-width:0.5;"/>
    <path clip-path="url(#p3532ca2bfb)" d="M 30.959604 60.406465 
L 51.408477 60.406465 
" style="fill:none;stroke:#000000;stroke-width:0.5;"/>
    <path clip-path="url(#p3532ca2bfb)" d="M 25.151561 55.720814 
L 35.064486 55.720814 
" style="fill:none;stroke:#000000;stroke-width:0.5;"/>
    <path clip-path="url(#p3532ca2bfb)" d="M 24.668319 71.868275 
L 37.822975 71.868275 
" style="fill:none;stroke:#000000;stroke-width:0.5;"/>
    <path clip-path="url(#p3532ca2bfb)" d="M 23.596444 64.323774 
L 48.154298 64.323774 
" style="fill:none;stroke:#000000;stroke-width:0.5;"/>
    <path clip-path="url(#p3532ca2bfb)" d="M 28.961272 63.972907 
L 39.000198 63.972907 
" style="fill:none;stroke:#000000;stroke-width:0.5;"/>
    <path clip-path="url(#p3532ca2bfb)" d="M 24.895404 82.025882 
L 35.568524 82.025882 
" style="fill:none;stroke:#000000;stroke-width:0.5;"/>
    <path clip-path="url(#p3532ca2bfb)" d="M 26.042037 91.446805 
L 29.279756 91.446805 
" style="fill:none;stroke:#000000;stroke-width:0.5;"/>
    <path clip-path="url(#p3532ca2bfb)" d="M 25.64587 70.708215 
L 32.841017 70.708215 
" style="fill:none;stroke:#000000;stroke-width:0.5;"/>
    <path clip-path="url(#p3532ca2bfb)" d="M 25.066974 69.384453 
L 38.436014 69.384453 
" style="fill:none;stroke:#000000;stroke-width:0.5;"/>
    <path clip-path="url(#p3532ca2bfb)" d="M 26.310472 87.09008 
L 34.234669 87.09008 
" style="fill:none;stroke:#000000;stroke-width:0.5;"/>
    <path clip-path="url(#p3532ca2bfb)" d="M 25.15354 38.665314 
L 34.436024 38.665314 
" style="fill:none;stroke:#000000;stroke-width:0.5;"/>
    <path clip-path="url(#p3532ca2bfb)" d="M 25.035171 65.666495 
L 36.03537 65.666495 
" style="fill:none;stroke:#000000;stroke-width:0.5;"/>
    <path clip-path="url(#p3532ca2bfb)" d="M 29.176602 41.431152 
L 53.55827 41.431152 
" style="fill:none;stroke:#000000;stroke-width:0.5;"/>
    <path clip-path="url(#p3532ca2bfb)" d="M 24.288773 64.097206 
L 46.36917 64.097206 
" style="fill:none;stroke:#000000;stroke-width:0.5;"/>
    <path clip-path="url(#p3532ca2bfb)" d="M 32.005629 37.16657 
L 57.539579 37.16657 
" style="fill:none;stroke:#000000;stroke-width:0.5;"/>
    <path clip-path="url(#p3532ca2bfb)" d="M 29.238267 64.862585 
L 43.153508 64.862585 
" style="fill:none;stroke:#000000;stroke-width:0.5;"/>
    <path clip-path="url(#p3532ca2bfb)" d="M 25.358622 57.440932 
L 40.178985 57.440932 
" style="fill:none;stroke:#000000;stroke-width:0.5;"/>
    <path clip-path="url(#p3532ca2bfb)" d="M 25.501358 81.12981 
L 30.566461 81.12981 
" style="fill:none;stroke:#000000;stroke-width:0.5;"/>
    <path clip-path="url(#p3532ca2bfb)" d="M 28.808546 52.427623 
L 52.67706 52.427623 
" style="fill:none;stroke:#000000;stroke-width:0.5;"/>
    <path clip-path="url(#p3532ca2bfb)" d="M 26.278231 71.642826 
L 35.983088 71.642826 
" style="fill:none;stroke:#000000;stroke-width:0.5;"/>
    <path clip-path="url(#p3532ca2bfb)" d="M 24.862871 83.387138 
L 36.306854 83.387138 
" style="fill:none;stroke:#000000;stroke-width:0.5;"/>
    <path clip-path="url(#p3532ca2bfb)" d="M 25.056693 66.687421 
L 46.274895 66.687421 
" style="fill:none;stroke:#000000;stroke-width:0.5;"/>
   </g>
   <g id="LineCollection_2">
    <path clip-path="url(#p3532ca2bfb)" d="M 30.175912 76.328769 
L 30.175912 55.016248 
" style="fill:none;stroke:#000000;stroke-width:0.5;"/>
    <path clip-path="url(#p3532ca2bfb)" d="M 27 90.029386 
L 27 81.442302 
" style="fill:none;stroke:#000000;stroke-width:0.5;"/>
    <path clip-path="url(#p3532ca2bfb)" d="M 32.057843 62.165589 
L 32.057843 43.573885 
" style="fill:none;stroke:#000000;stroke-width:0.5;"/>
    <path clip-path="url(#p3532ca2bfb)" d="M 41.429499 67.491616 
L 41.429499 54.559478 
" style="fill:none;stroke:#000000;stroke-width:0.5;"/>
    <path clip-path="url(#p3532ca2bfb)" d="M 33.12995 89.44835 
L 33.12995 66.244304 
" style="fill:none;stroke:#000000;stroke-width:0.5;"/>
    <path clip-path="url(#p3532ca2bfb)" d="M 37.610559 39.908087 
L 37.610559 16.810086 
" style="fill:none;stroke:#000000;stroke-width:0.5;"/>
    <path clip-path="url(#p3532ca2bfb)" d="M 28.270243 80.672897 
L 28.270243 80.672897 
" style="fill:none;stroke:#000000;stroke-width:0.5;"/>
    <path clip-path="url(#p3532ca2bfb)" d="M 37.594252 52.619806 
L 37.594252 25.605045 
" style="fill:none;stroke:#000000;stroke-width:0.5;"/>
    <path clip-path="url(#p3532ca2bfb)" d="M 41.18404 70.649087 
L 41.18404 50.163842 
" style="fill:none;stroke:#000000;stroke-width:0.5;"/>
    <path clip-path="url(#p3532ca2bfb)" d="M 30.108023 61.378164 
L 30.108023 50.063463 
" style="fill:none;stroke:#000000;stroke-width:0.5;"/>
    <path clip-path="url(#p3532ca2bfb)" d="M 31.245647 80.92393 
L 31.245647 62.812619 
" style="fill:none;stroke:#000000;stroke-width:0.5;"/>
    <path clip-path="url(#p3532ca2bfb)" d="M 35.875371 75.953997 
L 35.875371 52.693551 
" style="fill:none;stroke:#000000;stroke-width:0.5;"/>
    <path clip-path="url(#p3532ca2bfb)" d="M 33.980735 68.858449 
L 33.980735 59.087365 
" style="fill:none;stroke:#000000;stroke-width:0.5;"/>
    <path clip-path="url(#p3532ca2bfb)" d="M 30.231964 84.858731 
L 30.231964 79.193033 
" style="fill:none;stroke:#000000;stroke-width:0.5;"/>
    <path clip-path="url(#p3532ca2bfb)" d="M 27.660897 93.8118 
L 27.660897 89.08181 
" style="fill:none;stroke:#000000;stroke-width:0.5;"/>
    <path clip-path="url(#p3532ca2bfb)" d="M 29.243443 74.40881 
L 29.243443 67.007619 
" style="fill:none;stroke:#000000;stroke-width:0.5;"/>
    <path clip-path="url(#p3532ca2bfb)" d="M 31.751494 73.019195 
L 31.751494 65.749711 
" style="fill:none;stroke:#000000;stroke-width:0.5;"/>
    <path clip-path="url(#p3532ca2bfb)" d="M 30.272571 92.263015 
L 30.272571 81.917146 
" style="fill:none;stroke:#000000;stroke-width:0.5;"/>
    <path clip-path="url(#p3532ca2bfb)" d="M 29.794782 48.882833 
L 29.794782 28.447795 
" style="fill:none;stroke:#000000;stroke-width:0.5;"/>
    <path clip-path="url(#p3532ca2bfb)" d="M 30.53527 69.429008 
L 30.53527 61.903982 
" style="fill:none;stroke:#000000;stroke-width:0.5;"/>
    <path clip-path="url(#p3532ca2bfb)" d="M 41.367436 48.595122 
L 41.367436 34.267182 
" style="fill:none;stroke:#000000;stroke-width:0.5;"/>
    <path clip-path="url(#p3532ca2bfb)" d="M 35.328971 71.339218 
L 35.328971 56.855195 
" style="fill:none;stroke:#000000;stroke-width:0.5;"/>
    <path clip-path="url(#p3532ca2bfb)" d="M 44.772604 53.033326 
L 44.772604 21.299815 
" style="fill:none;stroke:#000000;stroke-width:0.5;"/>
    <path clip-path="url(#p3532ca2bfb)" d="M 36.195887 72.750225 
L 36.195887 56.974945 
" style="fill:none;stroke:#000000;stroke-width:0.5;"/>
    <path clip-path="url(#p3532ca2bfb)" d="M 32.768803 61.353117 
L 32.768803 53.528748 
" style="fill:none;stroke:#000000;stroke-width:0.5;"/>
    <path clip-path="url(#p3532ca2bfb)" d="M 28.03391 83.829552 
L 28.03391 78.430068 
" style="fill:none;stroke:#000000;stroke-width:0.5;"/>
    <path clip-path="url(#p3532ca2bfb)" d="M 40.742803 63.947818 
L 40.742803 40.907428 
" style="fill:none;stroke:#000000;stroke-width:0.5;"/>
    <path clip-path="url(#p3532ca2bfb)" d="M 31.130659 78.174195 
L 31.130659 65.111458 
" style="fill:none;stroke:#000000;stroke-width:0.5;"/>
    <path clip-path="url(#p3532ca2bfb)" d="M 30.584863 88.334867 
L 30.584863 78.43941 
" style="fill:none;stroke:#000000;stroke-width:0.5;"/>
    <path clip-path="url(#p3532ca2bfb)" d="M 35.665794 77.208672 
L 35.665794 56.166169 
" style="fill:none;stroke:#000000;stroke-width:0.5;"/>
   </g>
   <g id="line2d_1">
    <path clip-path="url(#p3532ca2bfb)" d="M 27 78.974213 
L 27.768595 77.260758 
L 28.53719 75.547303 
L 29.305785 73.833848 
L 30.07438 72.120393 
L 30.842975 70.406937 
L 31.61157 68.693482 
L 32.380165 66.980027 
L 33.14876 65.266572 
L 33.917355 63.553117 
L 34.68595 61.839662 
L 35.454545 60.126207 
L 36.22314 58.412752 
L 36.991736 56.699296 
L 37.760331 54.985841 
L 38.528926 53.272386 
L 39.297521 51.558931 
L 40.066116 49.845476 
L 40.834711 48.132021 
L 41.603306 46.418566 
L 42.371901 44.705111 
L 43.140496 42.991656 
L 43.909091 41.2782 
L 44.677686 39.564745 
L 45.446281 37.85129 
L 46.214876 36.137835 
L 46.983471 34.42438 
L 47.752066 32.710925 
L 48.520661 30.99747 
L 49.289256 29.284015 
L 50.057851 27.570559 
L 50.826446 25.857104 
L 51.595041 24.143649 
L 52.363636 22.430194 
L 53.132231 20.716739 
L 53.900826 19.003284 
L 54.669421 17.289829 
L 55.438017 15.576374 
L 56.206612 13.862918 
L 56.975207 12.149463 
L 57.743802 10.436008 
L 58.512397 8.722553 
L 59.280992 7.009098 
L 60.049587 5.295643 
L 60.818182 3.582188 
L 61.586777 1.868733 
L 62.355372 0.155278 
L 62.873588 -1 
" style="fill:none;stroke:#000000;stroke-dasharray:1.85,0.8;stroke-dashoffset:0;stroke-width:0.5;"/>
   </g>
   <g id="line2d_2">
    <defs>
     <path d="M 0 3 
C 0.795609 3 1.55874 2.683901 2.12132 2.12132 
C 2.683901 1.55874 3 0.795609 3 0 
C 3 -0.795609 2.683901 -1.55874 2.12132 -2.12132 
C 1.55874 -2.683901 0.795609 -3 0 -3 
C -0.795609 -3 -1.55874 -2.683901 -2.12132 -2.12132 
C -2.683901 -1.55874 -3 -0.795609 -3 0 
C -3 0.795609 -2.683901 1.55874 -2.12132 2.12132 
C -1.55874 2.683901 -0.795609 3 0 3 
z
" id="mdf28606c58" style="stroke:#000000;"/>
    </defs>
    <g clip-path="url(#p3532ca2bfb)">
     <use style="stroke:#000000;" x="30.175912" xlink:href="#mdf28606c58" y="65.672509"/>
     <use style="stroke:#000000;" x="27" xlink:href="#mdf28606c58" y="85.735844"/>
     <use style="stroke:#000000;" x="32.057843" xlink:href="#mdf28606c58" y="52.869737"/>
     <use style="stroke:#000000;" x="41.429499" xlink:href="#mdf28606c58" y="61.025547"/>
     <use style="stroke:#000000;" x="33.12995" xlink:href="#mdf28606c58" y="77.846327"/>
     <use style="stroke:#000000;" x="37.610559" xlink:href="#mdf28606c58" y="28.359086"/>
     <use style="stroke:#000000;" x="28.270243" xlink:href="#mdf28606c58" y="80.672897"/>
     <use style="stroke:#000000;" x="37.594252" xlink:href="#mdf28606c58" y="39.112425"/>
     <use style="stroke:#000000;" x="41.18404" xlink:href="#mdf28606c58" y="60.406465"/>
     <use style="stroke:#000000;" x="30.108023" xlink:href="#mdf28606c58" y="55.720814"/>
     <use style="stroke:#000000;" x="31.245647" xlink:href="#mdf28606c58" y="71.868275"/>
     <use style="stroke:#000000;" x="35.875371" xlink:href="#mdf28606c58" y="64.323774"/>
     <use style="stroke:#000000;" x="33.980735" xlink:href="#mdf28606c58" y="63.972907"/>
     <use style="stroke:#000000;" x="30.231964" xlink:href="#mdf28606c58" y="82.025882"/>
     <use style="stroke:#000000;" x="27.660897" xlink:href="#mdf28606c58" y="91.446805"/>
     <use style="stroke:#000000;" x="29.243443" xlink:href="#mdf28606c58" y="70.708215"/>
     <use style="stroke:#000000;" x="31.751494" xlink:href="#mdf28606c58" y="69.384453"/>
     <use style="stroke:#000000;" x="30.272571" xlink:href="#mdf28606c58" y="87.09008"/>
     <use style="stroke:#000000;" x="29.794782" xlink:href="#mdf28606c58" y="38.665314"/>
     <use style="stroke:#000000;" x="30.53527" xlink:href="#mdf28606c58" y="65.666495"/>
     <use style="stroke:#000000;" x="41.367436" xlink:href="#mdf28606c58" y="41.431152"/>
     <use style="stroke:#000000;" x="35.328971" xlink:href="#mdf28606c58" y="64.097206"/>
     <use style="stroke:#000000;" x="44.772604" xlink:href="#mdf28606c58" y="37.16657"/>
     <use style="stroke:#000000;" x="36.195887" xlink:href="#mdf28606c58" y="64.862585"/>
     <use style="stroke:#000000;" x="32.768803" xlink:href="#mdf28606c58" y="57.440932"/>
     <use style="stroke:#000000;" x="28.03391" xlink:href="#mdf28606c58" y="81.12981"/>
     <use style="stroke:#000000;" x="40.742803" xlink:href="#mdf28606c58" y="52.427623"/>
     <use style="stroke:#000000;" x="31.130659" xlink:href="#mdf28606c58" y="71.642826"/>
     <use style="stroke:#000000;" x="30.584863" xlink:href="#mdf28606c58" y="83.387138"/>
     <use style="stroke:#000000;" x="35.665794" xlink:href="#mdf28606c58" y="66.687421"/>
    </g>
   </g>
   <g id="patch_3">
    <path d="M 27 94.5 
L 27 12.96 
" style="fill:none;stroke:#000000;stroke-linecap:square;stroke-linejoin:miter;"/>
   </g>
   <g id="patch_4">
    <path d="M 27 94.5 
L 103.090909 94.5 
" style="fill:none;stroke:#000000;stroke-linecap:square;stroke-linejoin:miter;"/>
   </g>
   <g id="matplotlib.axis_1">
    <g id="xtick_1">
     <g id="line2d_3"/>
     <g id="text_1">
      <text style="font-family:Arial;font-size:8px;font-style:normal;font-weight:normal;text-anchor:middle;" transform="rotate(-0, 27, 103.72625)" x="27" y="103.72625">0</text>
     </g>
    </g>
    <g id="xtick_2">
     <g id="line2d_4"/>
     <g id="text_2">
      <text style="font-family:Arial;font-size:8px;font-style:normal;font-weight:normal;text-anchor:middle;" transform="rotate(-0, 71.784367, 103.72625)" x="71.784367" y="103.72625">5</text>
     </g>
    </g>
    <g id="text_3">
     <text style="font-family:Arial;font-size:10px;font-style:normal;font-weight:normal;text-anchor:middle;" transform="rotate(-0, 65.045455, 116.474063)" x="65.045455" y="116.474063">Exc</text>
    </g>
   </g>
   <g id="matplotlib.axis_2">
    <g id="ytick_1">
     <g id="line2d_5"/>
     <g id="text_4">
      <text style="font-family:Arial;font-size:8px;font-style:normal;font-weight:normal;text-anchor:end;" transform="rotate(-0, 23.5, 97.363125)" x="23.5" y="97.363125">0</text>
     </g>
    </g>
    <g id="ytick_2">
     <g id="line2d_6"/>
     <g id="text_5">
      <text style="font-family:Arial;font-size:8px;font-style:normal;font-weight:normal;text-anchor:end;" transform="rotate(-0, 23.5, 78.166523)" x="23.5" y="78.166523">2</text>
     </g>
    </g>
    <g id="ytick_3">
     <g id="line2d_7"/>
     <g id="text_6">
      <text style="font-family:Arial;font-size:8px;font-style:normal;font-weight:normal;text-anchor:end;" transform="rotate(-0, 23.5, 58.969921)" x="23.5" y="58.969921">4</text>
     </g>
    </g>
    <g id="ytick_4">
     <g id="line2d_8"/>
     <g id="text_7">
      <text style="font-family:Arial;font-size:8px;font-style:normal;font-weight:normal;text-anchor:end;" transform="rotate(-0, 23.5, 39.773318)" x="23.5" y="39.773318">6</text>
     </g>
    </g>
    <g id="ytick_5">
     <g id="line2d_9"/>
     <g id="text_8">
      <text style="font-family:Arial;font-size:8px;font-style:normal;font-weight:normal;text-anchor:end;" transform="rotate(-0, 23.5, 20.576716)" x="23.5" y="20.576716">8</text>
     </g>
    </g>
    <g id="text_9">
     <text style="font-family:Arial;font-size:10px;font-style:normal;font-weight:normal;text-anchor:middle;" transform="rotate(-90, 13.06375, 53.73)" x="13.06375" y="53.73">Inh</text>
    </g>
   </g>
   <g id="legend_1">
    <g id="line2d_10">
     <path d="M 36 75.622656 
L 56 75.622656 
" style="fill:none;stroke:#000000;stroke-dasharray:1.85,0.8;stroke-dashoffset:0;stroke-width:0.5;"/>
    </g>
    <g id="line2d_11"/>
    <g id="text_10">
     <!-- $R^2$ 0.43 -->
     <g transform="translate(64 72.875)">
      <text>
       <tspan style="font-family:DejaVu Sans;font-size:10px;font-style:oblique;font-weight:oblique;" x="0" y="-0.9765625">R</tspan>
       <tspan style="font-family:DejaVu Sans;font-size:7px;font-style:book;font-weight:book;" x="7.650794" y="-4.8046875">2</tspan>
       <tspan style="font-family:Arial;font-size:10px;font-style:regular;font-weight:regular;" x="12.377845 15.156165 20.717689 23.496009 29.057533" y="-0.9765625"> 0.43</tspan>
      </text>
     </g>
     <text style="font-family:Arial;font-size:10px;font-style:normal;font-weight:normal;" transform="translate(64 83.4875)"> slope 2.08</text>
    </g>
   </g>
  </g>
  <g id="axes_2">
   <g id="patch_5">
    <path d="M 118.309091 94.5 
L 194.4 94.5 
L 194.4 12.96 
L 118.309091 12.96 
z
" style="fill:#ffffff;"/>
   </g>
   <g id="PathCollection_1">
    <defs>
     <path d="M 0 2.44949 
C 0.649612 2.44949 1.272706 2.191396 1.732051 1.732051 
C 2.191396 1.272706 2.44949 0.649612 2.44949 0 
C 2.44949 -0.649612 2.191396 -1.272706 1.732051 -1.732051 
C 1.272706 -2.191396 0.649612 -2.44949 0 -2.44949 
C -0.649612 -2.44949 -1.272706 -2.191396 -1.732051 -1.732051 
C -2.191396 -1.272706 -2.44949 -0.649612 -2.44949 0 
C -2.44949 0.649612 -2.191396 1.272706 -1.732051 1.732051 
C -1.272706 2.191396 -0.649612 2.44949 0 2.44949 
z
" id="mfda5170b43" style="stroke:#000000;"/>
    </defs>
    <g clip-path="url(#p88382b644b)">
     <use style="stroke:#000000;" x="148.5881" xlink:href="#mfda5170b43" y="42.714445"/>
     <use style="stroke:#000000;" x="118.309091" xlink:href="#mfda5170b43" y="73.634945"/>
     <use style="stroke:#000000;" x="141.502718" xlink:href="#mfda5170b43" y="49.325537"/>
     <use style="stroke:#000000;" x="143.560975" xlink:href="#mfda5170b43" y="63.077252"/>
     <use style="stroke:#000000;" x="152.923098" xlink:href="#mfda5170b43" y="38.118385"/>
     <use style="stroke:#000000;" x="159.380014" xlink:href="#mfda5170b43" y="38.376053"/>
     <use style="stroke:#000000;" x="125.071185" xlink:href="#mfda5170b43" y="94.5"/>
     <use style="stroke:#000000;" x="160.55163" xlink:href="#mfda5170b43" y="28.859036"/>
     <use style="stroke:#000000;" x="167.996139" xlink:href="#mfda5170b43" y="44.724575"/>
     <use style="stroke:#000000;" x="142.395698" xlink:href="#mfda5170b43" y="67.00733"/>
     <use style="stroke:#000000;" x="150.272517" xlink:href="#mfda5170b43" y="50.492806"/>
     <use style="stroke:#000000;" x="177.980216" xlink:href="#mfda5170b43" y="37.981341"/>
     <use style="stroke:#000000;" x="142.701857" xlink:href="#mfda5170b43" y="70.75804"/>
     <use style="stroke:#000000;" x="144.242833" xlink:href="#mfda5170b43" y="80.733382"/>
     <use style="stroke:#000000;" x="126.176161" xlink:href="#mfda5170b43" y="83.006985"/>
     <use style="stroke:#000000;" x="135.791991" xlink:href="#mfda5170b43" y="76.516451"/>
     <use style="stroke:#000000;" x="150.793431" xlink:href="#mfda5170b43" y="76.836474"/>
     <use style="stroke:#000000;" x="137.56345" xlink:href="#mfda5170b43" y="69.361417"/>
     <use style="stroke:#000000;" x="140.863839" xlink:href="#mfda5170b43" y="44.84657"/>
     <use style="stroke:#000000;" x="145.037577" xlink:href="#mfda5170b43" y="76.215554"/>
     <use style="stroke:#000000;" x="177.552117" xlink:href="#mfda5170b43" y="59.685707"/>
     <use style="stroke:#000000;" x="171.960445" xlink:href="#mfda5170b43" y="59.306456"/>
     <use style="stroke:#000000;" x="180.351952" xlink:href="#mfda5170b43" y="17.393332"/>
     <use style="stroke:#000000;" x="152.120599" xlink:href="#mfda5170b43" y="56.168935"/>
     <use style="stroke:#000000;" x="154.319881" xlink:href="#mfda5170b43" y="75.488204"/>
     <use style="stroke:#000000;" x="130.61637" xlink:href="#mfda5170b43" y="81.380236"/>
     <use style="stroke:#000000;" x="176.305244" xlink:href="#mfda5170b43" y="38.516037"/>
     <use style="stroke:#000000;" x="141.89013" xlink:href="#mfda5170b43" y="62.759922"/>
     <use style="stroke:#000000;" x="146.115891" xlink:href="#mfda5170b43" y="70.455838"/>
     <use style="stroke:#000000;" x="169.865468" xlink:href="#mfda5170b43" y="43.370539"/>
    </g>
   </g>
   <g id="line2d_12">
    <path clip-path="url(#p88382b644b)" d="M 118.309091 84.822904 
L 119.077686 84.20623 
L 119.846281 83.589557 
L 120.614876 82.972884 
L 121.383471 82.356211 
L 122.152066 81.739538 
L 122.920661 81.122864 
L 123.689256 80.506191 
L 124.457851 79.889518 
L 125.226446 79.272845 
L 125.995041 78.656171 
L 126.763636 78.039498 
L 127.532231 77.422825 
L 128.300826 76.806152 
L 129.069421 76.189478 
L 129.838017 75.572805 
L 130.606612 74.956132 
L 131.375207 74.339459 
L 132.143802 73.722785 
L 132.912397 73.106112 
L 133.680992 72.489439 
L 134.449587 71.872766 
L 135.218182 71.256092 
L 135.986777 70.639419 
L 136.755372 70.022746 
L 137.523967 69.406073 
L 138.292562 68.7894 
L 139.061157 68.172726 
L 139.829752 67.556053 
L 140.598347 66.93938 
L 141.366942 66.322707 
L 142.135537 65.706033 
L 142.904132 65.08936 
L 143.672727 64.472687 
L 144.441322 63.856014 
L 145.209917 63.23934 
L 145.978512 62.622667 
L 146.747107 62.005994 
L 147.515702 61.389321 
L 148.284298 60.772647 
L 149.052893 60.155974 
L 149.821488 59.539301 
L 150.590083 58.922628 
L 151.358678 58.305954 
L 152.127273 57.689281 
L 152.895868 57.072608 
L 153.664463 56.455935 
L 154.433058 55.839262 
L 155.201653 55.222588 
L 155.970248 54.605915 
L 156.738843 53.989242 
L 157.507438 53.372569 
L 158.276033 52.755895 
L 159.044628 52.139222 
L 159.813223 51.522549 
L 160.581818 50.905876 
L 161.350413 50.289202 
L 162.119008 49.672529 
L 162.887603 49.055856 
L 163.656198 48.439183 
L 164.424793 47.822509 
L 165.193388 47.205836 
L 165.961983 46.589163 
L 166.730579 45.97249 
L 167.499174 45.355816 
L 168.267769 44.739143 
L 169.036364 44.12247 
L 169.804959 43.505797 
L 170.573554 42.889123 
L 171.342149 42.27245 
L 172.110744 41.655777 
L 172.879339 41.039104 
L 173.647934 40.422431 
L 174.416529 39.805757 
L 175.185124 39.189084 
L 175.953719 38.572411 
L 176.722314 37.955738 
L 177.490909 37.339064 
L 178.259504 36.722391 
L 179.028099 36.105718 
L 179.796694 35.489045 
L 180.565289 34.872371 
L 181.333884 34.255698 
L 182.102479 33.639025 
L 182.871074 33.022352 
L 183.639669 32.405678 
L 184.408264 31.789005 
L 185.17686 31.172332 
L 185.945455 30.555659 
L 186.71405 29.938985 
L 187.482645 29.322312 
L 188.25124 28.705639 
L 189.019835 28.088966 
L 189.78843 27.472293 
L 190.557025 26.855619 
L 191.32562 26.238946 
L 192.094215 25.622273 
L 192.86281 25.0056 
L 193.631405 24.388926 
L 194.4 23.772253 
" style="fill:none;stroke:#000000;stroke-dasharray:1.85,0.8;stroke-dashoffset:0;stroke-width:0.5;"/>
   </g>
   <g id="patch_6">
    <path d="M 118.309091 94.5 
L 118.309091 12.96 
" style="fill:none;stroke:#000000;stroke-linecap:square;stroke-linejoin:miter;"/>
   </g>
   <g id="patch_7">
    <path d="M 118.309091 94.5 
L 194.4 94.5 
" style="fill:none;stroke:#000000;stroke-linecap:square;stroke-linejoin:miter;"/>
   </g>
   <g id="matplotlib.axis_3">
    <g id="xtick_3">
     <g id="line2d_13"/>
     <g id="text_11">
      <text style="font-family:Arial;font-size:8px;font-style:normal;font-weight:normal;text-anchor:middle;" transform="rotate(-0, 118.309091, 103.72625)" x="118.309091" y="103.72625">0</text>
     </g>
    </g>
    <g id="xtick_4">
     <g id="line2d_14"/>
     <g id="text_12">
      <text style="font-family:Arial;font-size:8px;font-style:normal;font-weight:normal;text-anchor:middle;" transform="rotate(-0, 161.836242, 103.72625)" x="161.836242" y="103.72625">1</text>
     </g>
    </g>
    <g id="text_13">
     <!-- $\sigma$(Exc) -->
     <g transform="translate(141.504545 116.61625)">
      <text>
       <tspan style="font-family:DejaVu Sans;font-size:10px;font-style:oblique;font-weight:oblique;" x="0" y="-0.71875">σ</tspan>
       <tspan style="font-family:Arial;font-size:10px;font-style:regular;font-weight:regular;" x="6.337891 9.667969 16.337891 21.337891 26.337891" y="-0.71875">(Exc)</tspan>
      </text>
     </g>
    </g>
   </g>
   <g id="matplotlib.axis_4">
    <g id="ytick_6">
     <g id="line2d_15"/>
     <g id="text_14">
      <text style="font-family:Arial;font-size:8px;font-style:normal;font-weight:normal;text-anchor:end;" transform="rotate(-0, 114.809091, 97.363125)" x="114.809091" y="97.363125">0.0</text>
     </g>
    </g>
    <g id="ytick_7">
     <g id="line2d_16"/>
     <g id="text_15">
      <text style="font-family:Arial;font-size:8px;font-style:normal;font-weight:normal;text-anchor:end;" transform="rotate(-0, 114.809091, 74.040997)" x="114.809091" y="74.040997">0.5</text>
     </g>
    </g>
    <g id="ytick_8">
     <g id="line2d_17"/>
     <g id="text_16">
      <text style="font-family:Arial;font-size:8px;font-style:normal;font-weight:normal;text-anchor:end;" transform="rotate(-0, 114.809091, 50.718868)" x="114.809091" y="50.718868">1.0</text>
     </g>
    </g>
    <g id="ytick_9">
     <g id="line2d_18"/>
     <g id="text_17">
      <text style="font-family:Arial;font-size:8px;font-style:normal;font-weight:normal;text-anchor:end;" transform="rotate(-0, 114.809091, 27.39674)" x="114.809091" y="27.39674">1.5</text>
     </g>
    </g>
    <g id="text_18">
     <!-- $\sigma$(Inh) -->
     <g transform="translate(97.489091 67.18)rotate(-90)">
      <text>
       <tspan style="font-family:DejaVu Sans;font-size:10px;font-style:oblique;font-weight:oblique;" x="0" y="-0.71875">σ</tspan>
       <tspan style="font-family:Arial;font-size:10px;font-style:regular;font-weight:regular;" x="6.337891 9.667969 12.446289 18.007812 23.569336" y="-0.71875">(Inh)</tspan>
      </text>
     </g>
    </g>
   </g>
   <g id="legend_2">
    <g id="line2d_19">
     <path d="M 108.478125 31.995156 
L 128.478125 31.995156 
" style="fill:none;stroke:#000000;stroke-dasharray:1.85,0.8;stroke-dashoffset:0;stroke-width:0.5;"/>
    </g>
    <g id="line2d_20"/>
    <g id="text_19">
     <!-- $R^2$ 0.51 -->
     <g transform="translate(136.478125 29.2475)">
      <text>
       <tspan style="font-family:DejaVu Sans;font-size:10px;font-style:oblique;font-weight:oblique;" x="0" y="-0.9765625">R</tspan>
       <tspan style="font-family:DejaVu Sans;font-size:7px;font-style:book;font-weight:book;" x="7.650794" y="-4.8046875">2</tspan>
       <tspan style="font-family:Arial;font-size:10px;font-style:regular;font-weight:regular;" x="12.377845 15.156165 20.717689 23.496009 29.057533" y="-0.9765625"> 0.51</tspan>
      </text>
     </g>
     <text style="font-family:Arial;font-size:10px;font-style:normal;font-weight:normal;" transform="translate(136.478125 39.86)"> slope 0.75</text>
    </g>
   </g>
  </g>
 </g>
 <defs>
  <clipPath id="p3532ca2bfb">
   <rect height="81.54" width="76.090909" x="27" y="12.96"/>
  </clipPath>
  <clipPath id="p88382b644b">
   <rect height="81.54" width="76.090909" x="118.309091" y="12.96"/>
  </clipPath>
 </defs>
</svg>
