<?xml version="1.0" encoding="utf-8" standalone="no"?>
<!DOCTYPE svg PUBLIC "-//W3C//DTD SVG 1.1//EN"
  "http://www.w3.org/Graphics/SVG/1.1/DTD/svg11.dtd">
<!-- Created with matplotlib (http://matplotlib.org/) -->
<svg height="108pt" version="1.1" viewBox="0 0 216 108" width="216pt" xmlns="http://www.w3.org/2000/svg" xmlns:xlink="http://www.w3.org/1999/xlink">
 <defs>
  <style type="text/css">
*{stroke-linecap:butt;stroke-linejoin:round;}
  </style>
 </defs>
 <g id="figure_1">
  <g id="patch_1">
   <path d="M 0 108 
L 216 108 
L 216 0 
L 0 0 
z
" style="fill:#ffffff;"/>
  </g>
  <g id="axes_1">
   <g id="patch_2">
    <path d="M 27 94.5 
L 103.090909 94.5 
L 103.090909 12.96 
L 27 12.96 
z
" style="fill:#ffffff;"/>
   </g>
   <g id="LineCollection_1">
    <path clip-path="url(#p17b48a0c50)" d="M 24.371719 70.655329 
L 35.964135 70.655329 
" style="fill:none;stroke:#000000;stroke-width:0.5;"/>
    <path clip-path="url(#p17b48a0c50)" d="M 30.621905 63.269828 
L 46.417228 63.269828 
" style="fill:none;stroke:#000000;stroke-width:0.5;"/>
    <path clip-path="url(#p17b48a0c50)" d="M 21.015921 35.029255 
L 68.561941 35.029255 
" style="fill:none;stroke:#000000;stroke-width:0.5;"/>
    <path clip-path="url(#p17b48a0c50)" d="M 24.759341 56.441435 
L 37.154806 56.441435 
" style="fill:none;stroke:#000000;stroke-width:0.5;"/>
    <path clip-path="url(#p17b48a0c50)" d="M 30.478452 46.565851 
L 60.046657 46.565851 
" style="fill:none;stroke:#000000;stroke-width:0.5;"/>
    <path clip-path="url(#p17b48a0c50)" d="M 25.216999 66.128333 
L 31.243179 66.128333 
" style="fill:none;stroke:#000000;stroke-width:0.5;"/>
    <path clip-path="url(#p17b48a0c50)" d="M 30.471014 62.539174 
L 43.902274 62.539174 
" style="fill:none;stroke:#000000;stroke-width:0.5;"/>
    <path clip-path="url(#p17b48a0c50)" d="M 31.593552 44.808418 
L 61.629476 44.808418 
" style="fill:none;stroke:#000000;stroke-width:0.5;"/>
    <path clip-path="url(#p17b48a0c50)" d="M 25.955311 75.142914 
L 31.668854 75.142914 
" style="fill:none;stroke:#000000;stroke-width:0.5;"/>
    <path clip-path="url(#p17b48a0c50)" d="M 26.912204 72.31902 
L 45.952038 72.31902 
" style="fill:none;stroke:#000000;stroke-width:0.5;"/>
    <path clip-path="url(#p17b48a0c50)" d="M 24.528231 68.738104 
L 44.627476 68.738104 
" style="fill:none;stroke:#000000;stroke-width:0.5;"/>
    <path clip-path="url(#p17b48a0c50)" d="M 24.701481 65.854136 
L 44.556204 65.854136 
" style="fill:none;stroke:#000000;stroke-width:0.5;"/>
    <path clip-path="url(#p17b48a0c50)" d="M 30.342161 61.069794 
L 45.744727 61.069794 
" style="fill:none;stroke:#000000;stroke-width:0.5;"/>
    <path clip-path="url(#p17b48a0c50)" d="M 24.877733 67.006423 
L 45.65511 67.006423 
" style="fill:none;stroke:#000000;stroke-width:0.5;"/>
    <path clip-path="url(#p17b48a0c50)" d="M 25.481061 77.621963 
L 38.43203 77.621963 
" style="fill:none;stroke:#000000;stroke-width:0.5;"/>
    <path clip-path="url(#p17b48a0c50)" d="M 28.200505 71.209789 
L 37.884002 71.209789 
" style="fill:none;stroke:#000000;stroke-width:0.5;"/>
    <path clip-path="url(#p17b48a0c50)" d="M 27.32692 72.724183 
L 39.735091 72.724183 
" style="fill:none;stroke:#000000;stroke-width:0.5;"/>
    <path clip-path="url(#p17b48a0c50)" d="M 23.935677 64.143374 
L 39.117614 64.143374 
" style="fill:none;stroke:#000000;stroke-width:0.5;"/>
    <path clip-path="url(#p17b48a0c50)" d="M 27 89.196712 
L 27 89.196712 
" style="fill:none;stroke:#000000;stroke-width:0.5;"/>
    <path clip-path="url(#p17b48a0c50)" d="M 28.041877 72.165154 
L 37.3721 72.165154 
" style="fill:none;stroke:#000000;stroke-width:0.5;"/>
    <path clip-path="url(#p17b48a0c50)" d="M 25.395186 49.149084 
L 44.810536 49.149084 
" style="fill:none;stroke:#000000;stroke-width:0.5;"/>
    <path clip-path="url(#p17b48a0c50)" d="M 25.373568 49.293137 
L 40.384581 49.293137 
" style="fill:none;stroke:#000000;stroke-width:0.5;"/>
    <path clip-path="url(#p17b48a0c50)" d="M 25.641054 77.621459 
L 32.496826 77.621459 
" style="fill:none;stroke:#000000;stroke-width:0.5;"/>
    <path clip-path="url(#p17b48a0c50)" d="M 26.364355 80.759593 
L 37.271402 80.759593 
" style="fill:none;stroke:#000000;stroke-width:0.5;"/>
    <path clip-path="url(#p17b48a0c50)" d="M 28.774074 64.464194 
L 42.911777 64.464194 
" style="fill:none;stroke:#000000;stroke-width:0.5;"/>
    <path clip-path="url(#p17b48a0c50)" d="M 32.021171 55.016997 
L 39.62551 55.016997 
" style="fill:none;stroke:#000000;stroke-width:0.5;"/>
    <path clip-path="url(#p17b48a0c50)" d="M 27.407208 77.680337 
L 32.807003 77.680337 
" style="fill:none;stroke:#000000;stroke-width:0.5;"/>
    <path clip-path="url(#p17b48a0c50)" d="M 31.293976 60.295982 
L 54.341435 60.295982 
" style="fill:none;stroke:#000000;stroke-width:0.5;"/>
    <path clip-path="url(#p17b48a0c50)" d="M 25.772827 84.829358 
L 35.568901 84.829358 
" style="fill:none;stroke:#000000;stroke-width:0.5;"/>
    <path clip-path="url(#p17b48a0c50)" d="M 26.290573 83.121304 
L 32.791538 83.121304 
" style="fill:none;stroke:#000000;stroke-width:0.5;"/>
   </g>
   <g id="LineCollection_2">
    <path clip-path="url(#p17b48a0c50)" d="M 30.167927 77.438032 
L 30.167927 63.872626 
" style="fill:none;stroke:#000000;stroke-width:0.5;"/>
    <path clip-path="url(#p17b48a0c50)" d="M 38.519567 74.39762 
L 38.519567 52.142036 
" style="fill:none;stroke:#000000;stroke-width:0.5;"/>
    <path clip-path="url(#p17b48a0c50)" d="M 44.788931 53.402849 
L 44.788931 16.655661 
" style="fill:none;stroke:#000000;stroke-width:0.5;"/>
    <path clip-path="url(#p17b48a0c50)" d="M 30.957073 67.858986 
L 30.957073 45.023884 
" style="fill:none;stroke:#000000;stroke-width:0.5;"/>
    <path clip-path="url(#p17b48a0c50)" d="M 45.262554 57.966627 
L 45.262554 35.165075 
" style="fill:none;stroke:#000000;stroke-width:0.5;"/>
    <path clip-path="url(#p17b48a0c50)" d="M 28.230089 69.600674 
L 28.230089 62.655991 
" style="fill:none;stroke:#000000;stroke-width:0.5;"/>
    <path clip-path="url(#p17b48a0c50)" d="M 37.186644 71.191643 
L 37.186644 53.886705 
" style="fill:none;stroke:#000000;stroke-width:0.5;"/>
    <path clip-path="url(#p17b48a0c50)" d="M 46.611514 53.271957 
L 46.611514 36.344878 
" style="fill:none;stroke:#000000;stroke-width:0.5;"/>
    <path clip-path="url(#p17b48a0c50)" d="M 28.812083 79.897878 
L 28.812083 70.38795 
" style="fill:none;stroke:#000000;stroke-width:0.5;"/>
    <path clip-path="url(#p17b48a0c50)" d="M 36.432121 82.033527 
L 36.432121 62.604513 
" style="fill:none;stroke:#000000;stroke-width:0.5;"/>
    <path clip-path="url(#p17b48a0c50)" d="M 34.577853 84.373936 
L 34.577853 53.102271 
" style="fill:none;stroke:#000000;stroke-width:0.5;"/>
    <path clip-path="url(#p17b48a0c50)" d="M 34.628842 81.09286 
L 34.628842 50.615412 
" style="fill:none;stroke:#000000;stroke-width:0.5;"/>
    <path clip-path="url(#p17b48a0c50)" d="M 38.043444 68.938705 
L 38.043444 53.200882 
" style="fill:none;stroke:#000000;stroke-width:0.5;"/>
    <path clip-path="url(#p17b48a0c50)" d="M 35.266421 70.838254 
L 35.266421 63.174592 
" style="fill:none;stroke:#000000;stroke-width:0.5;"/>
    <path clip-path="url(#p17b48a0c50)" d="M 31.956545 83.761667 
L 31.956545 71.48226 
" style="fill:none;stroke:#000000;stroke-width:0.5;"/>
    <path clip-path="url(#p17b48a0c50)" d="M 33.042254 77.749006 
L 33.042254 64.670573 
" style="fill:none;stroke:#000000;stroke-width:0.5;"/>
    <path clip-path="url(#p17b48a0c50)" d="M 33.531006 78.157881 
L 33.531006 67.290485 
" style="fill:none;stroke:#000000;stroke-width:0.5;"/>
    <path clip-path="url(#p17b48a0c50)" d="M 31.526646 74.416376 
L 31.526646 53.870371 
" style="fill:none;stroke:#000000;stroke-width:0.5;"/>
    <path clip-path="url(#p17b48a0c50)" d="M 27 89.196712 
L 27 89.196712 
" style="fill:none;stroke:#000000;stroke-width:0.5;"/>
    <path clip-path="url(#p17b48a0c50)" d="M 32.706989 74.611179 
L 32.706989 69.719129 
" style="fill:none;stroke:#000000;stroke-width:0.5;"/>
    <path clip-path="url(#p17b48a0c50)" d="M 35.102861 56.537934 
L 35.102861 41.760235 
" style="fill:none;stroke:#000000;stroke-width:0.5;"/>
    <path clip-path="url(#p17b48a0c50)" d="M 32.879074 56.761687 
L 32.879074 41.824586 
" style="fill:none;stroke:#000000;stroke-width:0.5;"/>
    <path clip-path="url(#p17b48a0c50)" d="M 29.06894 79.409538 
L 29.06894 75.833381 
" style="fill:none;stroke:#000000;stroke-width:0.5;"/>
    <path clip-path="url(#p17b48a0c50)" d="M 31.817879 85.385208 
L 31.817879 76.133979 
" style="fill:none;stroke:#000000;stroke-width:0.5;"/>
    <path clip-path="url(#p17b48a0c50)" d="M 35.842925 68.723993 
L 35.842925 60.204395 
" style="fill:none;stroke:#000000;stroke-width:0.5;"/>
    <path clip-path="url(#p17b48a0c50)" d="M 35.82334 63.473748 
L 35.82334 46.560246 
" style="fill:none;stroke:#000000;stroke-width:0.5;"/>
    <path clip-path="url(#p17b48a0c50)" d="M 30.107106 81.927673 
L 30.107106 73.433 
" style="fill:none;stroke:#000000;stroke-width:0.5;"/>
    <path clip-path="url(#p17b48a0c50)" d="M 42.817705 69.537722 
L 42.817705 51.054243 
" style="fill:none;stroke:#000000;stroke-width:0.5;"/>
    <path clip-path="url(#p17b48a0c50)" d="M 30.670864 90.568878 
L 30.670864 79.089839 
" style="fill:none;stroke:#000000;stroke-width:0.5;"/>
    <path clip-path="url(#p17b48a0c50)" d="M 29.541055 88.415173 
L 29.541055 77.827435 
" style="fill:none;stroke:#000000;stroke-width:0.5;"/>
   </g>
   <g id="line2d_1">
    <path clip-path="url(#p17b48a0c50)" d="M 27 80.129349 
L 27.768595 78.684633 
L 28.53719 77.239916 
L 29.305785 75.7952 
L 30.07438 74.350483 
L 30.842975 72.905767 
L 31.61157 71.46105 
L 32.380165 70.016334 
L 33.14876 68.571617 
L 33.917355 67.1269 
L 34.68595 65.682184 
L 35.454545 64.237467 
L 36.22314 62.792751 
L 36.991736 61.348034 
L 37.760331 59.903318 
L 38.528926 58.458601 
L 39.297521 57.013884 
L 40.066116 55.569168 
L 40.834711 54.124451 
L 41.603306 52.679735 
L 42.371901 51.235018 
L 43.140496 49.790302 
L 43.909091 48.345585 
L 44.677686 46.900869 
L 45.446281 45.456152 
L 46.214876 44.011435 
L 46.983471 42.566719 
L 47.752066 41.122002 
L 48.520661 39.677286 
L 49.289256 38.232569 
L 50.057851 36.787853 
L 50.826446 35.343136 
L 51.595041 33.898419 
L 52.363636 32.453703 
L 53.132231 31.008986 
L 53.900826 29.56427 
L 54.669421 28.119553 
L 55.438017 26.674837 
L 56.206612 25.23012 
L 56.975207 23.785404 
L 57.743802 22.340687 
L 58.512397 20.89597 
L 59.280992 19.451254 
L 60.049587 18.006537 
L 60.818182 16.561821 
L 61.586777 15.117104 
L 62.355372 13.672388 
L 63.123967 12.227671 
L 63.892562 10.782954 
L 64.661157 9.338238 
L 65.429752 7.893521 
L 66.198347 6.448805 
L 66.966942 5.004088 
L 67.735537 3.559372 
L 68.504132 2.114655 
L 69.272727 0.669939 
L 70.041322 -0.774778 
L 70.161141 -1 
" style="fill:none;stroke:#000000;stroke-dasharray:1.85,0.8;stroke-dashoffset:0;stroke-width:0.5;"/>
   </g>
   <g id="line2d_2">
    <defs>
     <path d="M 0 3 
C 0.795609 3 1.55874 2.683901 2.12132 2.12132 
C 2.683901 1.55874 3 0.795609 3 0 
C 3 -0.795609 2.683901 -1.55874 2.12132 -2.12132 
C 1.55874 -2.683901 0.795609 -3 0 -3 
C -0.795609 -3 -1.55874 -2.683901 -2.12132 -2.12132 
C -2.683901 -1.55874 -3 -0.795609 -3 0 
C -3 0.795609 -2.683901 1.55874 -2.12132 2.12132 
C -1.55874 2.683901 -0.795609 3 0 3 
z
" id="m5b53e0a5cd" style="stroke:#000000;"/>
    </defs>
    <g clip-path="url(#p17b48a0c50)">
     <use style="stroke:#000000;" x="30.167927" xlink:href="#m5b53e0a5cd" y="70.655329"/>
     <use style="stroke:#000000;" x="38.519567" xlink:href="#m5b53e0a5cd" y="63.269828"/>
     <use style="stroke:#000000;" x="44.788931" xlink:href="#m5b53e0a5cd" y="35.029255"/>
     <use style="stroke:#000000;" x="30.957073" xlink:href="#m5b53e0a5cd" y="56.441435"/>
     <use style="stroke:#000000;" x="45.262554" xlink:href="#m5b53e0a5cd" y="46.565851"/>
     <use style="stroke:#000000;" x="28.230089" xlink:href="#m5b53e0a5cd" y="66.128333"/>
     <use style="stroke:#000000;" x="37.186644" xlink:href="#m5b53e0a5cd" y="62.539174"/>
     <use style="stroke:#000000;" x="46.611514" xlink:href="#m5b53e0a5cd" y="44.808418"/>
     <use style="stroke:#000000;" x="28.812083" xlink:href="#m5b53e0a5cd" y="75.142914"/>
     <use style="stroke:#000000;" x="36.432121" xlink:href="#m5b53e0a5cd" y="72.31902"/>
     <use style="stroke:#000000;" x="34.577853" xlink:href="#m5b53e0a5cd" y="68.738104"/>
     <use style="stroke:#000000;" x="34.628842" xlink:href="#m5b53e0a5cd" y="65.854136"/>
     <use style="stroke:#000000;" x="38.043444" xlink:href="#m5b53e0a5cd" y="61.069794"/>
     <use style="stroke:#000000;" x="35.266421" xlink:href="#m5b53e0a5cd" y="67.006423"/>
     <use style="stroke:#000000;" x="31.956545" xlink:href="#m5b53e0a5cd" y="77.621963"/>
     <use style="stroke:#000000;" x="33.042254" xlink:href="#m5b53e0a5cd" y="71.209789"/>
     <use style="stroke:#000000;" x="33.531006" xlink:href="#m5b53e0a5cd" y="72.724183"/>
     <use style="stroke:#000000;" x="31.526646" xlink:href="#m5b53e0a5cd" y="64.143374"/>
     <use style="stroke:#000000;" x="27" xlink:href="#m5b53e0a5cd" y="89.196712"/>
     <use style="stroke:#000000;" x="32.706989" xlink:href="#m5b53e0a5cd" y="72.165154"/>
     <use style="stroke:#000000;" x="35.102861" xlink:href="#m5b53e0a5cd" y="49.149084"/>
     <use style="stroke:#000000;" x="32.879074" xlink:href="#m5b53e0a5cd" y="49.293137"/>
     <use style="stroke:#000000;" x="29.06894" xlink:href="#m5b53e0a5cd" y="77.621459"/>
     <use style="stroke:#000000;" x="31.817879" xlink:href="#m5b53e0a5cd" y="80.759593"/>
     <use style="stroke:#000000;" x="35.842925" xlink:href="#m5b53e0a5cd" y="64.464194"/>
     <use style="stroke:#000000;" x="35.82334" xlink:href="#m5b53e0a5cd" y="55.016997"/>
     <use style="stroke:#000000;" x="30.107106" xlink:href="#m5b53e0a5cd" y="77.680337"/>
     <use style="stroke:#000000;" x="42.817705" xlink:href="#m5b53e0a5cd" y="60.295982"/>
     <use style="stroke:#000000;" x="30.670864" xlink:href="#m5b53e0a5cd" y="84.829358"/>
     <use style="stroke:#000000;" x="29.541055" xlink:href="#m5b53e0a5cd" y="83.121304"/>
    </g>
   </g>
   <g id="patch_3">
    <path d="M 27 94.5 
L 27 12.96 
" style="fill:none;stroke:#000000;stroke-linecap:square;stroke-linejoin:miter;"/>
   </g>
   <g id="patch_4">
    <path d="M 27 94.5 
L 103.090909 94.5 
" style="fill:none;stroke:#000000;stroke-linecap:square;stroke-linejoin:miter;"/>
   </g>
   <g id="matplotlib.axis_1">
    <g id="xtick_1">
     <g id="line2d_3"/>
     <g id="text_1">
      <text style="font-family:Arial;font-size:8px;font-style:normal;font-weight:normal;text-anchor:middle;" transform="rotate(-0, 27, 103.72625)" x="27" y="103.72625">0</text>
     </g>
    </g>
    <g id="xtick_2">
     <g id="line2d_4"/>
     <g id="text_2">
      <text style="font-family:Arial;font-size:8px;font-style:normal;font-weight:normal;text-anchor:middle;" transform="rotate(-0, 69.979484, 103.72625)" x="69.979484" y="103.72625">5</text>
     </g>
    </g>
    <g id="text_3">
     <text style="font-family:Arial;font-size:10px;font-style:normal;font-weight:normal;text-anchor:middle;" transform="rotate(-0, 65.045455, 116.474063)" x="65.045455" y="116.474063">Exc</text>
    </g>
   </g>
   <g id="matplotlib.axis_2">
    <g id="ytick_1">
     <g id="line2d_5"/>
     <g id="text_4">
      <text style="font-family:Arial;font-size:8px;font-style:normal;font-weight:normal;text-anchor:end;" transform="rotate(-0, 23.5, 97.363125)" x="23.5" y="97.363125">0</text>
     </g>
    </g>
    <g id="ytick_2">
     <g id="line2d_6"/>
     <g id="text_5">
      <text style="font-family:Arial;font-size:8px;font-style:normal;font-weight:normal;text-anchor:end;" transform="rotate(-0, 23.5, 78.940177)" x="23.5" y="78.940177">2</text>
     </g>
    </g>
    <g id="ytick_3">
     <g id="line2d_7"/>
     <g id="text_6">
      <text style="font-family:Arial;font-size:8px;font-style:normal;font-weight:normal;text-anchor:end;" transform="rotate(-0, 23.5, 60.517229)" x="23.5" y="60.517229">4</text>
     </g>
    </g>
    <g id="ytick_4">
     <g id="line2d_8"/>
     <g id="text_7">
      <text style="font-family:Arial;font-size:8px;font-style:normal;font-weight:normal;text-anchor:end;" transform="rotate(-0, 23.5, 42.094281)" x="23.5" y="42.094281">6</text>
     </g>
    </g>
    <g id="ytick_5">
     <g id="line2d_9"/>
     <g id="text_8">
      <text style="font-family:Arial;font-size:8px;font-style:normal;font-weight:normal;text-anchor:end;" transform="rotate(-0, 23.5, 23.671333)" x="23.5" y="23.671333">8</text>
     </g>
    </g>
    <g id="text_9">
     <text style="font-family:Arial;font-size:10px;font-style:normal;font-weight:normal;text-anchor:middle;" transform="rotate(-90, 13.06375, 53.73)" x="13.06375" y="53.73">Inh</text>
    </g>
   </g>
   <g id="legend_1">
    <g id="line2d_10">
     <path d="M 36 75.622656 
L 56 75.622656 
" style="fill:none;stroke:#000000;stroke-dasharray:1.85,0.8;stroke-dashoffset:0;stroke-width:0.5;"/>
    </g>
    <g id="line2d_11"/>
    <g id="text_10">
     <!-- $R^2$ 0.57 -->
     <g transform="translate(64 72.875)">
      <text>
       <tspan style="font-family:DejaVu Sans;font-size:10px;font-style:oblique;font-weight:oblique;" x="0" y="-0.9765625">R</tspan>
       <tspan style="font-family:DejaVu Sans;font-size:7px;font-style:book;font-weight:book;" x="7.650794" y="-4.8046875">2</tspan>
       <tspan style="font-family:Arial;font-size:10px;font-style:regular;font-weight:regular;" x="12.377845 15.156165 20.717689 23.496009 29.057533" y="-0.9765625"> 0.57</tspan>
      </text>
     </g>
     <text style="font-family:Arial;font-size:10px;font-style:normal;font-weight:normal;" transform="translate(64 83.4875)"> slope 1.75</text>
    </g>
   </g>
  </g>
  <g id="axes_2">
   <g id="patch_5">
    <path d="M 118.309091 94.5 
L 194.4 94.5 
L 194.4 12.96 
L 118.309091 12.96 
z
" style="fill:#ffffff;"/>
   </g>
   <g id="PathCollection_1">
    <defs>
     <path d="M 0 2.44949 
C 0.649612 2.44949 1.272706 2.191396 1.732051 1.732051 
C 2.191396 1.272706 2.44949 0.649612 2.44949 0 
C 2.44949 -0.649612 2.191396 -1.272706 1.732051 -1.732051 
C 1.272706 -2.191396 0.649612 -2.44949 0 -2.44949 
C -0.649612 -2.44949 -1.272706 -2.191396 -1.732051 -1.732051 
C -2.191396 -1.272706 -2.44949 -0.649612 -2.44949 0 
C -2.44949 0.649612 -2.191396 1.272706 -1.732051 1.732051 
C -1.272706 2.191396 -0.649612 2.44949 0 2.44949 
z
" id="mb3b3df06fd" style="stroke:#000000;"/>
    </defs>
    <g clip-path="url(#pa632a83f79)">
     <use style="stroke:#000000;" x="135.870662" xlink:href="#mb3b3df06fd" y="73.949509"/>
     <use style="stroke:#000000;" x="142.237725" xlink:href="#mb3b3df06fd" y="60.784592"/>
     <use style="stroke:#000000;" x="190.337459" xlink:href="#mb3b3df06fd" y="38.830988"/>
     <use style="stroke:#000000;" x="137.087216" xlink:href="#mb3b3df06fd" y="59.906671"/>
     <use style="stroke:#000000;" x="163.102526" xlink:href="#mb3b3df06fd" y="59.957496"/>
     <use style="stroke:#000000;" x="127.438267" xlink:href="#mb3b3df06fd" y="83.979368"/>
     <use style="stroke:#000000;" x="138.656361" xlink:href="#mb3b3df06fd" y="68.28442"/>
     <use style="stroke:#000000;" x="163.811083" xlink:href="#mb3b3df06fd" y="68.856847"/>
     <use style="stroke:#000000;" x="126.964647" xlink:href="#mb3b3df06fd" y="80.09323"/>
     <use style="stroke:#000000;" x="147.152896" xlink:href="#mb3b3df06fd" y="65.066617"/>
     <use style="stroke:#000000;" x="148.757818" xlink:href="#mb3b3df06fd" y="47.12596"/>
     <use style="stroke:#000000;" x="148.387387" xlink:href="#mb3b3df06fd" y="48.329135"/>
     <use style="stroke:#000000;" x="141.642732" xlink:href="#mb3b3df06fd" y="70.658474"/>
     <use style="stroke:#000000;" x="149.785134" xlink:href="#mb3b3df06fd" y="82.890174"/>
     <use style="stroke:#000000;" x="137.92876" xlink:href="#mb3b3df06fd" y="75.897693"/>
     <use style="stroke:#000000;" x="132.978804" xlink:href="#mb3b3df06fd" y="74.687234"/>
     <use style="stroke:#000000;" x="137.106464" xlink:href="#mb3b3df06fd" y="78.036775"/>
     <use style="stroke:#000000;" x="141.308495" xlink:href="#mb3b3df06fd" y="63.374467"/>
     <use style="stroke:#000000;" x="118.309091" xlink:href="#mb3b3df06fd" y="94.5"/>
     <use style="stroke:#000000;" x="132.443622" xlink:href="#mb3b3df06fd" y="87.088941"/>
     <use style="stroke:#000000;" x="147.721773" xlink:href="#mb3b3df06fd" y="72.112982"/>
     <use style="stroke:#000000;" x="141.049559" xlink:href="#mb3b3df06fd" y="71.871503"/>
     <use style="stroke:#000000;" x="128.69503" xlink:href="#mb3b3df06fd" y="89.082411"/>
     <use style="stroke:#000000;" x="134.832384" xlink:href="#mb3b3df06fd" y="80.485137"/>
     <use style="stroke:#000000;" x="139.726566" xlink:href="#mb3b3df06fd" y="81.5935"/>
     <use style="stroke:#000000;" x="129.829048" xlink:href="#mb3b3df06fd" y="68.877416"/>
     <use style="stroke:#000000;" x="126.489343" xlink:href="#mb3b3df06fd" y="81.631258"/>
     <use style="stroke:#000000;" x="153.224125" xlink:href="#mb3b3df06fd" y="66.499027"/>
     <use style="stroke:#000000;" x="133.149349" xlink:href="#mb3b3df06fd" y="77.110186"/>
     <use style="stroke:#000000;" x="128.157526" xlink:href="#mb3b3df06fd" y="78.460435"/>
    </g>
   </g>
   <g id="line2d_12">
    <path clip-path="url(#pa632a83f79)" d="M 118.309091 86.613586 
L 119.077686 86.102959 
L 119.846281 85.592332 
L 120.614876 85.081706 
L 121.383471 84.571079 
L 122.152066 84.060452 
L 122.920661 83.549826 
L 123.689256 83.039199 
L 124.457851 82.528572 
L 125.226446 82.017946 
L 125.995041 81.507319 
L 126.763636 80.996692 
L 127.532231 80.486066 
L 128.300826 79.975439 
L 129.069421 79.464813 
L 129.838017 78.954186 
L 130.606612 78.443559 
L 131.375207 77.932933 
L 132.143802 77.422306 
L 132.912397 76.911679 
L 133.680992 76.401053 
L 134.449587 75.890426 
L 135.218182 75.379799 
L 135.986777 74.869173 
L 136.755372 74.358546 
L 137.523967 73.847919 
L 138.292562 73.337293 
L 139.061157 72.826666 
L 139.829752 72.31604 
L 140.598347 71.805413 
L 141.366942 71.294786 
L 142.135537 70.78416 
L 142.904132 70.273533 
L 143.672727 69.762906 
L 144.441322 69.25228 
L 145.209917 68.741653 
L 145.978512 68.231026 
L 146.747107 67.7204 
L 147.515702 67.209773 
L 148.284298 66.699146 
L 149.052893 66.18852 
L 149.821488 65.677893 
L 150.590083 65.167266 
L 151.358678 64.65664 
L 152.127273 64.146013 
L 152.895868 63.635387 
L 153.664463 63.12476 
L 154.433058 62.614133 
L 155.201653 62.103507 
L 155.970248 61.59288 
L 156.738843 61.082253 
L 157.507438 60.571627 
L 158.276033 60.061 
L 159.044628 59.550373 
L 159.813223 59.039747 
L 160.581818 58.52912 
L 161.350413 58.018493 
L 162.119008 57.507867 
L 162.887603 56.99724 
L 163.656198 56.486614 
L 164.424793 55.975987 
L 165.193388 55.46536 
L 165.961983 54.954734 
L 166.730579 54.444107 
L 167.499174 53.93348 
L 168.267769 53.422854 
L 169.036364 52.912227 
L 169.804959 52.4016 
L 170.573554 51.890974 
L 171.342149 51.380347 
L 172.110744 50.86972 
L 172.879339 50.359094 
L 173.647934 49.848467 
L 174.416529 49.33784 
L 175.185124 48.827214 
L 175.953719 48.316587 
L 176.722314 47.805961 
L 177.490909 47.295334 
L 178.259504 46.784707 
L 179.028099 46.274081 
L 179.796694 45.763454 
L 180.565289 45.252827 
L 181.333884 44.742201 
L 182.102479 44.231574 
L 182.871074 43.720947 
L 183.639669 43.210321 
L 184.408264 42.699694 
L 185.17686 42.189067 
L 185.945455 41.678441 
L 186.71405 41.167814 
L 187.482645 40.657187 
L 188.25124 40.146561 
L 189.019835 39.635934 
L 189.78843 39.125308 
L 190.557025 38.614681 
L 191.32562 38.104054 
L 192.094215 37.593428 
L 192.86281 37.082801 
L 193.631405 36.572174 
L 194.4 36.061548 
" style="fill:none;stroke:#000000;stroke-dasharray:1.85,0.8;stroke-dashoffset:0;stroke-width:0.5;"/>
   </g>
   <g id="patch_6">
    <path d="M 118.309091 94.5 
L 118.309091 12.96 
" style="fill:none;stroke:#000000;stroke-linecap:square;stroke-linejoin:miter;"/>
   </g>
   <g id="patch_7">
    <path d="M 118.309091 94.5 
L 194.4 94.5 
" style="fill:none;stroke:#000000;stroke-linecap:square;stroke-linejoin:miter;"/>
   </g>
   <g id="matplotlib.axis_3">
    <g id="xtick_3">
     <g id="line2d_13"/>
     <g id="text_11">
      <text style="font-family:Arial;font-size:8px;font-style:normal;font-weight:normal;text-anchor:middle;" transform="rotate(-0, 118.309091, 103.72625)" x="118.309091" y="103.72625">0</text>
     </g>
    </g>
    <g id="xtick_4">
     <g id="line2d_14"/>
     <g id="text_12">
      <text style="font-family:Arial;font-size:8px;font-style:normal;font-weight:normal;text-anchor:middle;" transform="rotate(-0, 144.353266, 103.72625)" x="144.353266" y="103.72625">1</text>
     </g>
    </g>
    <g id="xtick_5">
     <g id="line2d_15"/>
     <g id="text_13">
      <text style="font-family:Arial;font-size:8px;font-style:normal;font-weight:normal;text-anchor:middle;" transform="rotate(-0, 170.397441, 103.72625)" x="170.397441" y="103.72625">2</text>
     </g>
    </g>
    <g id="text_14">
     <!-- $\sigma$(Exc) -->
     <g transform="translate(141.504545 116.61625)">
      <text>
       <tspan style="font-family:DejaVu Sans;font-size:10px;font-style:oblique;font-weight:oblique;" x="0" y="-0.71875">σ</tspan>
       <tspan style="font-family:Arial;font-size:10px;font-style:regular;font-weight:regular;" x="6.337891 9.667969 16.337891 21.337891 26.337891" y="-0.71875">(Exc)</tspan>
      </text>
     </g>
    </g>
   </g>
   <g id="matplotlib.axis_4">
    <g id="ytick_6">
     <g id="line2d_16"/>
     <g id="text_15">
      <text style="font-family:Arial;font-size:8px;font-style:normal;font-weight:normal;text-anchor:end;" transform="rotate(-0, 114.809091, 97.363125)" x="114.809091" y="97.363125">0</text>
     </g>
    </g>
    <g id="ytick_7">
     <g id="line2d_17"/>
     <g id="text_16">
      <text style="font-family:Arial;font-size:8px;font-style:normal;font-weight:normal;text-anchor:end;" transform="rotate(-0, 114.809091, 69.453851)" x="114.809091" y="69.453851">1</text>
     </g>
    </g>
    <g id="ytick_8">
     <g id="line2d_18"/>
     <g id="text_17">
      <text style="font-family:Arial;font-size:8px;font-style:normal;font-weight:normal;text-anchor:end;" transform="rotate(-0, 114.809091, 41.544577)" x="114.809091" y="41.544577">2</text>
     </g>
    </g>
    <g id="text_18">
     <!-- $\sigma$(Inh) -->
     <g transform="translate(104.160341 67.18)rotate(-90)">
      <text>
       <tspan style="font-family:DejaVu Sans;font-size:10px;font-style:oblique;font-weight:oblique;" x="0" y="-0.71875">σ</tspan>
       <tspan style="font-family:Arial;font-size:10px;font-style:regular;font-weight:regular;" x="6.337891 9.667969 12.446289 18.007812 23.569336" y="-0.71875">(Inh)</tspan>
      </text>
     </g>
    </g>
   </g>
   <g id="legend_2">
    <g id="line2d_19">
     <path d="M 108.478125 31.995156 
L 128.478125 31.995156 
" style="fill:none;stroke:#000000;stroke-dasharray:1.85,0.8;stroke-dashoffset:0;stroke-width:0.5;"/>
    </g>
    <g id="line2d_20"/>
    <g id="text_19">
     <!-- $R^2$ 0.55 -->
     <g transform="translate(136.478125 29.2475)">
      <text>
       <tspan style="font-family:DejaVu Sans;font-size:10px;font-style:oblique;font-weight:oblique;" x="0" y="-0.9765625">R</tspan>
       <tspan style="font-family:DejaVu Sans;font-size:7px;font-style:book;font-weight:book;" x="7.650794" y="-4.8046875">2</tspan>
       <tspan style="font-family:Arial;font-size:10px;font-style:regular;font-weight:regular;" x="12.377845 15.156165 20.717689 23.496009 29.057533" y="-0.9765625"> 0.55</tspan>
      </text>
     </g>
     <text style="font-family:Arial;font-size:10px;font-style:normal;font-weight:normal;" transform="translate(136.478125 39.86)"> slope 0.62</text>
    </g>
   </g>
  </g>
 </g>
 <defs>
  <clipPath id="p17b48a0c50">
   <rect height="81.54" width="76.090909" x="27" y="12.96"/>
  </clipPath>
  <clipPath id="pa632a83f79">
   <rect height="81.54" width="76.090909" x="118.309091" y="12.96"/>
  </clipPath>
 </defs>
</svg>
