<?xml version="1.0" encoding="utf-8" standalone="no"?>
<!DOCTYPE svg PUBLIC "-//W3C//DTD SVG 1.1//EN"
  "http://www.w3.org/Graphics/SVG/1.1/DTD/svg11.dtd">
<!-- Created with matplotlib (http://matplotlib.org/) -->
<svg height="108pt" version="1.1" viewBox="0 0 216 108" width="216pt" xmlns="http://www.w3.org/2000/svg" xmlns:xlink="http://www.w3.org/1999/xlink">
 <defs>
  <style type="text/css">
*{stroke-linecap:butt;stroke-linejoin:round;}
  </style>
 </defs>
 <g id="figure_1">
  <g id="patch_1">
   <path d="M 0 108 
L 216 108 
L 216 0 
L 0 0 
z
" style="fill:#ffffff;"/>
  </g>
  <g id="axes_1">
   <g id="patch_2">
    <path d="M 27 94.5 
L 103.090909 94.5 
L 103.090909 12.96 
L 27 12.96 
z
" style="fill:#ffffff;"/>
   </g>
   <g id="LineCollection_1">
    <path clip-path="url(#ped26018927)" d="M 24.187507 49.443159 
L 42.013279 49.443159 
" style="fill:none;stroke:#000000;stroke-width:0.5;"/>
    <path clip-path="url(#ped26018927)" d="M 26.602402 70.407815 
L 42.578448 70.407815 
" style="fill:none;stroke:#000000;stroke-width:0.5;"/>
    <path clip-path="url(#ped26018927)" d="M 24.249014 47.970347 
L 35.827037 47.970347 
" style="fill:none;stroke:#000000;stroke-width:0.5;"/>
    <path clip-path="url(#ped26018927)" d="M 26.817907 67.994389 
L 42.588503 67.994389 
" style="fill:none;stroke:#000000;stroke-width:0.5;"/>
    <path clip-path="url(#ped26018927)" d="M 22.453702 61.638574 
L 45.078838 61.638574 
" style="fill:none;stroke:#000000;stroke-width:0.5;"/>
    <path clip-path="url(#ped26018927)" d="M 25.82022 84.130217 
L 31.528939 84.130217 
" style="fill:none;stroke:#000000;stroke-width:0.5;"/>
    <path clip-path="url(#ped26018927)" d="M 24.477217 84.567346 
L 34.014256 84.567346 
" style="fill:none;stroke:#000000;stroke-width:0.5;"/>
    <path clip-path="url(#ped26018927)" d="M 37.283667 29.211039 
L 55.116677 29.211039 
" style="fill:none;stroke:#000000;stroke-width:0.5;"/>
    <path clip-path="url(#ped26018927)" d="M 25.118728 81.93382 
L 35.280849 81.93382 
" style="fill:none;stroke:#000000;stroke-width:0.5;"/>
    <path clip-path="url(#ped26018927)" d="M 21.706916 50.401523 
L 46.10854 50.401523 
" style="fill:none;stroke:#000000;stroke-width:0.5;"/>
    <path clip-path="url(#ped26018927)" d="M 26.732329 84.825718 
L 32.633423 84.825718 
" style="fill:none;stroke:#000000;stroke-width:0.5;"/>
    <path clip-path="url(#ped26018927)" d="M 26.387771 76.710662 
L 31.641776 76.710662 
" style="fill:none;stroke:#000000;stroke-width:0.5;"/>
    <path clip-path="url(#ped26018927)" d="M 26.370577 70.009359 
L 40.455749 70.009359 
" style="fill:none;stroke:#000000;stroke-width:0.5;"/>
    <path clip-path="url(#ped26018927)" d="M 31.907296 73.65879 
L 43.503569 73.65879 
" style="fill:none;stroke:#000000;stroke-width:0.5;"/>
    <path clip-path="url(#ped26018927)" d="M 26.423759 91.524998 
L 29.674741 91.524998 
" style="fill:none;stroke:#000000;stroke-width:0.5;"/>
    <path clip-path="url(#ped26018927)" d="M 32.018004 46.590981 
L 45.272761 46.590981 
" style="fill:none;stroke:#000000;stroke-width:0.5;"/>
    <path clip-path="url(#ped26018927)" d="M 26.00248 84.898841 
L 31.628552 84.898841 
" style="fill:none;stroke:#000000;stroke-width:0.5;"/>
    <path clip-path="url(#ped26018927)" d="M 32.691494 58.875708 
L 52.328985 58.875708 
" style="fill:none;stroke:#000000;stroke-width:0.5;"/>
    <path clip-path="url(#ped26018927)" d="M 27.019341 68.249521 
L 40.764113 68.249521 
" style="fill:none;stroke:#000000;stroke-width:0.5;"/>
    <path clip-path="url(#ped26018927)" d="M 25.932412 68.19181 
L 35.252961 68.19181 
" style="fill:none;stroke:#000000;stroke-width:0.5;"/>
    <path clip-path="url(#ped26018927)" d="M 27.323316 69.147086 
L 44.300962 69.147086 
" style="fill:none;stroke:#000000;stroke-width:0.5;"/>
    <path clip-path="url(#ped26018927)" d="M 26.518963 80.95713 
L 32.15948 80.95713 
" style="fill:none;stroke:#000000;stroke-width:0.5;"/>
    <path clip-path="url(#ped26018927)" d="M 25.612265 82.344378 
L 36.576279 82.344378 
" style="fill:none;stroke:#000000;stroke-width:0.5;"/>
    <path clip-path="url(#ped26018927)" d="M 26.438437 76.675619 
L 39.588506 76.675619 
" style="fill:none;stroke:#000000;stroke-width:0.5;"/>
    <path clip-path="url(#ped26018927)" d="M 26.514567 92.201401 
L 28.155231 92.201401 
" style="fill:none;stroke:#000000;stroke-width:0.5;"/>
    <path clip-path="url(#ped26018927)" d="M 28.668436 82.185609 
L 34.637495 82.185609 
" style="fill:none;stroke:#000000;stroke-width:0.5;"/>
    <path clip-path="url(#ped26018927)" d="M 26.223664 86.619989 
L 30.146588 86.619989 
" style="fill:none;stroke:#000000;stroke-width:0.5;"/>
    <path clip-path="url(#ped26018927)" d="M 26.714817 62.167244 
L 44.804557 62.167244 
" style="fill:none;stroke:#000000;stroke-width:0.5;"/>
    <path clip-path="url(#ped26018927)" d="M 25.048255 85.445845 
L 31.644754 85.445845 
" style="fill:none;stroke:#000000;stroke-width:0.5;"/>
    <path clip-path="url(#ped26018927)" d="M 33.466989 51.107182 
L 39.299933 51.107182 
" style="fill:none;stroke:#000000;stroke-width:0.5;"/>
   </g>
   <g id="LineCollection_2">
    <path clip-path="url(#ped26018927)" d="M 33.100393 64.775971 
L 33.100393 34.110346 
" style="fill:none;stroke:#000000;stroke-width:0.5;"/>
    <path clip-path="url(#ped26018927)" d="M 34.590425 80.564202 
L 34.590425 60.251428 
" style="fill:none;stroke:#000000;stroke-width:0.5;"/>
    <path clip-path="url(#ped26018927)" d="M 30.038026 60.990926 
L 30.038026 34.949767 
" style="fill:none;stroke:#000000;stroke-width:0.5;"/>
    <path clip-path="url(#ped26018927)" d="M 34.703205 74.889515 
L 34.703205 61.099262 
" style="fill:none;stroke:#000000;stroke-width:0.5;"/>
    <path clip-path="url(#ped26018927)" d="M 33.76627 76.525226 
L 33.76627 46.751921 
" style="fill:none;stroke:#000000;stroke-width:0.5;"/>
    <path clip-path="url(#ped26018927)" d="M 28.674579 86.366194 
L 28.674579 81.894241 
" style="fill:none;stroke:#000000;stroke-width:0.5;"/>
    <path clip-path="url(#ped26018927)" d="M 29.245736 89.938766 
L 29.245736 79.195926 
" style="fill:none;stroke:#000000;stroke-width:0.5;"/>
    <path clip-path="url(#ped26018927)" d="M 46.200172 41.651486 
L 46.200172 16.770593 
" style="fill:none;stroke:#000000;stroke-width:0.5;"/>
    <path clip-path="url(#ped26018927)" d="M 30.199789 84.134964 
L 30.199789 79.732677 
" style="fill:none;stroke:#000000;stroke-width:0.5;"/>
    <path clip-path="url(#ped26018927)" d="M 33.907728 62.403331 
L 33.907728 38.399715 
" style="fill:none;stroke:#000000;stroke-width:0.5;"/>
    <path clip-path="url(#ped26018927)" d="M 29.682876 87.941303 
L 29.682876 81.710134 
" style="fill:none;stroke:#000000;stroke-width:0.5;"/>
    <path clip-path="url(#ped26018927)" d="M 29.014774 79.370811 
L 29.014774 74.050513 
" style="fill:none;stroke:#000000;stroke-width:0.5;"/>
    <path clip-path="url(#ped26018927)" d="M 33.413163 75.311089 
L 33.413163 64.707629 
" style="fill:none;stroke:#000000;stroke-width:0.5;"/>
    <path clip-path="url(#ped26018927)" d="M 37.705432 78.345239 
L 37.705432 68.972341 
" style="fill:none;stroke:#000000;stroke-width:0.5;"/>
    <path clip-path="url(#ped26018927)" d="M 28.04925 92.982445 
L 28.04925 90.067551 
" style="fill:none;stroke:#000000;stroke-width:0.5;"/>
    <path clip-path="url(#ped26018927)" d="M 38.645382 56.282014 
L 38.645382 36.899948 
" style="fill:none;stroke:#000000;stroke-width:0.5;"/>
    <path clip-path="url(#ped26018927)" d="M 28.815516 87.878054 
L 28.815516 81.919627 
" style="fill:none;stroke:#000000;stroke-width:0.5;"/>
    <path clip-path="url(#ped26018927)" d="M 42.51024 70.76666 
L 42.51024 46.984755 
" style="fill:none;stroke:#000000;stroke-width:0.5;"/>
    <path clip-path="url(#ped26018927)" d="M 33.891727 80.669893 
L 33.891727 55.829149 
" style="fill:none;stroke:#000000;stroke-width:0.5;"/>
    <path clip-path="url(#ped26018927)" d="M 30.592686 78.961953 
L 30.592686 57.421668 
" style="fill:none;stroke:#000000;stroke-width:0.5;"/>
    <path clip-path="url(#ped26018927)" d="M 35.812139 74.201241 
L 35.812139 64.092931 
" style="fill:none;stroke:#000000;stroke-width:0.5;"/>
    <path clip-path="url(#ped26018927)" d="M 29.339222 87.098991 
L 29.339222 74.81527 
" style="fill:none;stroke:#000000;stroke-width:0.5;"/>
    <path clip-path="url(#ped26018927)" d="M 31.094272 84.047029 
L 31.094272 80.641727 
" style="fill:none;stroke:#000000;stroke-width:0.5;"/>
    <path clip-path="url(#ped26018927)" d="M 33.013472 80.53378 
L 33.013472 72.817458 
" style="fill:none;stroke:#000000;stroke-width:0.5;"/>
    <path clip-path="url(#ped26018927)" d="M 27.334899 92.201401 
L 27.334899 92.201401 
" style="fill:none;stroke:#000000;stroke-width:0.5;"/>
    <path clip-path="url(#ped26018927)" d="M 31.652966 85.8943 
L 31.652966 78.476918 
" style="fill:none;stroke:#000000;stroke-width:0.5;"/>
    <path clip-path="url(#ped26018927)" d="M 28.185126 88.953998 
L 28.185126 84.285979 
" style="fill:none;stroke:#000000;stroke-width:0.5;"/>
    <path clip-path="url(#ped26018927)" d="M 35.759687 67.683134 
L 35.759687 56.651354 
" style="fill:none;stroke:#000000;stroke-width:0.5;"/>
    <path clip-path="url(#ped26018927)" d="M 28.346505 89.891033 
L 28.346505 81.000656 
" style="fill:none;stroke:#000000;stroke-width:0.5;"/>
    <path clip-path="url(#ped26018927)" d="M 36.383461 57.180927 
L 36.383461 45.033436 
" style="fill:none;stroke:#000000;stroke-width:0.5;"/>
   </g>
   <g id="line2d_1">
    <path clip-path="url(#ped26018927)" d="M 27 86.410922 
L 27.768595 84.320956 
L 28.53719 82.230991 
L 29.305785 80.141025 
L 30.07438 78.051059 
L 30.842975 75.961093 
L 31.61157 73.871127 
L 32.380165 71.781161 
L 33.14876 69.691195 
L 33.917355 67.601229 
L 34.68595 65.511263 
L 35.454545 63.421298 
L 36.22314 61.331332 
L 36.991736 59.241366 
L 37.760331 57.1514 
L 38.528926 55.061434 
L 39.297521 52.971468 
L 40.066116 50.881502 
L 40.834711 48.791536 
L 41.603306 46.70157 
L 42.371901 44.611605 
L 43.140496 42.521639 
L 43.909091 40.431673 
L 44.677686 38.341707 
L 45.446281 36.251741 
L 46.214876 34.161775 
L 46.983471 32.071809 
L 47.752066 29.981843 
L 48.520661 27.891877 
L 49.289256 25.801912 
L 50.057851 23.711946 
L 50.826446 21.62198 
L 51.595041 19.532014 
L 52.363636 17.442048 
L 53.132231 15.352082 
L 53.900826 13.262116 
L 54.669421 11.17215 
L 55.438017 9.082184 
L 56.206612 6.992219 
L 56.975207 4.902253 
L 57.743802 2.812287 
L 58.512397 0.722321 
L 59.145789 -1 
" style="fill:none;stroke:#000000;stroke-dasharray:1.85,0.8;stroke-dashoffset:0;stroke-width:0.5;"/>
   </g>
   <g id="line2d_2">
    <defs>
     <path d="M 0 3 
C 0.795609 3 1.55874 2.683901 2.12132 2.12132 
C 2.683901 1.55874 3 0.795609 3 0 
C 3 -0.795609 2.683901 -1.55874 2.12132 -2.12132 
C 1.55874 -2.683901 0.795609 -3 0 -3 
C -0.795609 -3 -1.55874 -2.683901 -2.12132 -2.12132 
C -2.683901 -1.55874 -3 -0.795609 -3 0 
C -3 0.795609 -2.683901 1.55874 -2.12132 2.12132 
C -1.55874 2.683901 -0.795609 3 0 3 
z
" id="maff450afe2" style="stroke:#000000;"/>
    </defs>
    <g clip-path="url(#ped26018927)">
     <use style="stroke:#000000;" x="33.100393" xlink:href="#maff450afe2" y="49.443159"/>
     <use style="stroke:#000000;" x="34.590425" xlink:href="#maff450afe2" y="70.407815"/>
     <use style="stroke:#000000;" x="30.038026" xlink:href="#maff450afe2" y="47.970347"/>
     <use style="stroke:#000000;" x="34.703205" xlink:href="#maff450afe2" y="67.994389"/>
     <use style="stroke:#000000;" x="33.76627" xlink:href="#maff450afe2" y="61.638574"/>
     <use style="stroke:#000000;" x="28.674579" xlink:href="#maff450afe2" y="84.130217"/>
     <use style="stroke:#000000;" x="29.245736" xlink:href="#maff450afe2" y="84.567346"/>
     <use style="stroke:#000000;" x="46.200172" xlink:href="#maff450afe2" y="29.211039"/>
     <use style="stroke:#000000;" x="30.199789" xlink:href="#maff450afe2" y="81.93382"/>
     <use style="stroke:#000000;" x="33.907728" xlink:href="#maff450afe2" y="50.401523"/>
     <use style="stroke:#000000;" x="29.682876" xlink:href="#maff450afe2" y="84.825718"/>
     <use style="stroke:#000000;" x="29.014774" xlink:href="#maff450afe2" y="76.710662"/>
     <use style="stroke:#000000;" x="33.413163" xlink:href="#maff450afe2" y="70.009359"/>
     <use style="stroke:#000000;" x="37.705432" xlink:href="#maff450afe2" y="73.65879"/>
     <use style="stroke:#000000;" x="28.04925" xlink:href="#maff450afe2" y="91.524998"/>
     <use style="stroke:#000000;" x="38.645382" xlink:href="#maff450afe2" y="46.590981"/>
     <use style="stroke:#000000;" x="28.815516" xlink:href="#maff450afe2" y="84.898841"/>
     <use style="stroke:#000000;" x="42.51024" xlink:href="#maff450afe2" y="58.875708"/>
     <use style="stroke:#000000;" x="33.891727" xlink:href="#maff450afe2" y="68.249521"/>
     <use style="stroke:#000000;" x="30.592686" xlink:href="#maff450afe2" y="68.19181"/>
     <use style="stroke:#000000;" x="35.812139" xlink:href="#maff450afe2" y="69.147086"/>
     <use style="stroke:#000000;" x="29.339222" xlink:href="#maff450afe2" y="80.95713"/>
     <use style="stroke:#000000;" x="31.094272" xlink:href="#maff450afe2" y="82.344378"/>
     <use style="stroke:#000000;" x="33.013472" xlink:href="#maff450afe2" y="76.675619"/>
     <use style="stroke:#000000;" x="27.334899" xlink:href="#maff450afe2" y="92.201401"/>
     <use style="stroke:#000000;" x="31.652966" xlink:href="#maff450afe2" y="82.185609"/>
     <use style="stroke:#000000;" x="28.185126" xlink:href="#maff450afe2" y="86.619989"/>
     <use style="stroke:#000000;" x="35.759687" xlink:href="#maff450afe2" y="62.167244"/>
     <use style="stroke:#000000;" x="28.346505" xlink:href="#maff450afe2" y="85.445845"/>
     <use style="stroke:#000000;" x="36.383461" xlink:href="#maff450afe2" y="51.107182"/>
    </g>
   </g>
   <g id="patch_3">
    <path d="M 27 94.5 
L 27 12.96 
" style="fill:none;stroke:#000000;stroke-linecap:square;stroke-linejoin:miter;"/>
   </g>
   <g id="patch_4">
    <path d="M 27 94.5 
L 103.090909 94.5 
" style="fill:none;stroke:#000000;stroke-linecap:square;stroke-linejoin:miter;"/>
   </g>
   <g id="matplotlib.axis_1">
    <g id="xtick_1">
     <g id="line2d_3"/>
     <g id="text_1">
      <text style="font-family:Arial;font-size:8px;font-style:normal;font-weight:normal;text-anchor:middle;" transform="rotate(-0, 27, 103.72625)" x="27" y="103.72625">0</text>
     </g>
    </g>
    <g id="xtick_2">
     <g id="line2d_4"/>
     <g id="text_2">
      <text style="font-family:Arial;font-size:8px;font-style:normal;font-weight:normal;text-anchor:middle;" transform="rotate(-0, 60.363681, 103.72625)" x="60.363681" y="103.72625">5</text>
     </g>
    </g>
    <g id="xtick_3">
     <g id="line2d_5"/>
     <g id="text_3">
      <text style="font-family:Arial;font-size:8px;font-style:normal;font-weight:normal;text-anchor:middle;" transform="rotate(-0, 93.727361, 103.72625)" x="93.727361" y="103.72625">10</text>
     </g>
    </g>
    <g id="text_4">
     <text style="font-family:Arial;font-size:10px;font-style:normal;font-weight:normal;text-anchor:middle;" transform="rotate(-0, 65.045455, 116.474063)" x="65.045455" y="116.474063">Exc</text>
    </g>
   </g>
   <g id="matplotlib.axis_2">
    <g id="ytick_1">
     <g id="line2d_6"/>
     <g id="text_5">
      <text style="font-family:Arial;font-size:8px;font-style:normal;font-weight:normal;text-anchor:end;" transform="rotate(-0, 23.5, 97.363125)" x="23.5" y="97.363125">0.0</text>
     </g>
    </g>
    <g id="ytick_2">
     <g id="line2d_7"/>
     <g id="text_6">
      <text style="font-family:Arial;font-size:8px;font-style:normal;font-weight:normal;text-anchor:end;" transform="rotate(-0, 23.5, 79.48665)" x="23.5" y="79.48665">2.5</text>
     </g>
    </g>
    <g id="ytick_3">
     <g id="line2d_8"/>
     <g id="text_7">
      <text style="font-family:Arial;font-size:8px;font-style:normal;font-weight:normal;text-anchor:end;" transform="rotate(-0, 23.5, 61.610174)" x="23.5" y="61.610174">5.0</text>
     </g>
    </g>
    <g id="ytick_4">
     <g id="line2d_9"/>
     <g id="text_8">
      <text style="font-family:Arial;font-size:8px;font-style:normal;font-weight:normal;text-anchor:end;" transform="rotate(-0, 23.5, 43.733699)" x="23.5" y="43.733699">7.5</text>
     </g>
    </g>
    <g id="ytick_5">
     <g id="line2d_10"/>
     <g id="text_9">
      <text style="font-family:Arial;font-size:8px;font-style:normal;font-weight:normal;text-anchor:end;" transform="rotate(-0, 23.5, 25.857224)" x="23.5" y="25.857224">10.0</text>
     </g>
    </g>
    <g id="text_10">
     <text style="font-family:Arial;font-size:10px;font-style:normal;font-weight:normal;text-anchor:middle;" transform="rotate(-90, 1.94375, 53.73)" x="1.94375" y="53.73">Inh</text>
    </g>
   </g>
   <g id="legend_1">
    <g id="line2d_11">
     <path d="M 17.169034 31.995156 
L 37.169034 31.995156 
" style="fill:none;stroke:#000000;stroke-dasharray:1.85,0.8;stroke-dashoffset:0;stroke-width:0.5;"/>
    </g>
    <g id="line2d_12"/>
    <g id="text_11">
     <!-- $R^2$ 0.60 -->
     <g transform="translate(45.169034 29.2475)">
      <text>
       <tspan style="font-family:DejaVu Sans;font-size:10px;font-style:oblique;font-weight:oblique;" x="0" y="-0.9765625">R</tspan>
       <tspan style="font-family:DejaVu Sans;font-size:7px;font-style:book;font-weight:book;" x="7.650794" y="-4.8046875">2</tspan>
       <tspan style="font-family:Arial;font-size:10px;font-style:regular;font-weight:regular;" x="12.377845 15.156165 20.717689 23.496009 29.057533" y="-0.9765625"> 0.60</tspan>
      </text>
     </g>
     <text style="font-family:Arial;font-size:10px;font-style:normal;font-weight:normal;" transform="translate(45.169034 39.86)"> slope 2.54</text>
    </g>
   </g>
  </g>
  <g id="axes_2">
   <g id="patch_5">
    <path d="M 118.309091 94.5 
L 194.4 94.5 
L 194.4 12.96 
L 118.309091 12.96 
z
" style="fill:#ffffff;"/>
   </g>
   <g id="PathCollection_1">
    <defs>
     <path d="M 0 2.44949 
C 0.649612 2.44949 1.272706 2.191396 1.732051 1.732051 
C 2.191396 1.272706 2.44949 0.649612 2.44949 0 
C 2.44949 -0.649612 2.191396 -1.272706 1.732051 -1.732051 
C 1.272706 -2.191396 0.649612 -2.44949 0 -2.44949 
C -0.649612 -2.44949 -1.272706 -2.191396 -1.732051 -1.732051 
C -2.191396 -1.272706 -2.44949 -0.649612 -2.44949 0 
C -2.44949 0.649612 -2.191396 1.272706 -1.732051 1.732051 
C -1.272706 2.191396 -0.649612 2.44949 0 2.44949 
z
" id="m416c383f9c" style="stroke:#000000;"/>
    </defs>
    <g clip-path="url(#p1494c706fa)">
     <use style="stroke:#000000;" x="163.203706" xlink:href="#m416c383f9c" y="17.267924"/>
     <use style="stroke:#000000;" x="158.545126" xlink:href="#m416c383f9c" y="43.341816"/>
     <use style="stroke:#000000;" x="147.468607" xlink:href="#m416c383f9c" y="28.914747"/>
     <use style="stroke:#000000;" x="158.027695" xlink:href="#m416c383f9c" y="59.768935"/>
     <use style="stroke:#000000;" x="175.29101" xlink:href="#m416c383f9c" y="19.515252"/>
     <use style="stroke:#000000;" x="132.68663" xlink:href="#m416c383f9c" y="83.237285"/>
     <use style="stroke:#000000;" x="142.328341" xlink:href="#m416c383f9c" y="67.443914"/>
     <use style="stroke:#000000;" x="163.221932" xlink:href="#m416c383f9c" y="31.836903"/>
     <use style="stroke:#000000;" x="143.902626" xlink:href="#m416c383f9c" y="83.412741"/>
     <use style="stroke:#000000;" x="179.765139" xlink:href="#m416c383f9c" y="34.046345"/>
     <use style="stroke:#000000;" x="133.17113" xlink:href="#m416c383f9c" y="78.80666"/>
     <use style="stroke:#000000;" x="131.541424" xlink:href="#m416c383f9c" y="81.100709"/>
     <use style="stroke:#000000;" x="153.782917" xlink:href="#m416c383f9c" y="67.794945"/>
     <use style="stroke:#000000;" x="147.514569" xlink:href="#m416c383f9c" y="70.894143"/>
     <use style="stroke:#000000;" x="126.496764" xlink:href="#m416c383f9c" y="87.158772"/>
     <use style="stroke:#000000;" x="151.691497" xlink:href="#m416c383f9c" y="45.685826"/>
     <use style="stroke:#000000;" x="132.478482" xlink:href="#m416c383f9c" y="79.493567"/>
     <use style="stroke:#000000;" x="167.766559" xlink:href="#m416c383f9c" y="34.604731"/>
     <use style="stroke:#000000;" x="152.925612" xlink:href="#m416c383f9c" y="31.938022"/>
     <use style="stroke:#000000;" x="141.783107" xlink:href="#m416c383f9c" y="40.2503"/>
     <use style="stroke:#000000;" x="161.06768" xlink:href="#m416c383f9c" y="69.041992"/>
     <use style="stroke:#000000;" x="132.514863" xlink:href="#m416c383f9c" y="63.563169"/>
     <use style="stroke:#000000;" x="145.922211" xlink:href="#m416c383f9c" y="85.923669"/>
     <use style="stroke:#000000;" x="151.427839" xlink:href="#m416c383f9c" y="75.066266"/>
     <use style="stroke:#000000;" x="122.441142" xlink:href="#m416c383f9c" y="94.5"/>
     <use style="stroke:#000000;" x="133.342302" xlink:href="#m416c383f9c" y="75.819153"/>
     <use style="stroke:#000000;" x="128.189063" xlink:href="#m416c383f9c" y="82.743487"/>
     <use style="stroke:#000000;" x="163.868516" xlink:href="#m416c383f9c" y="66.716211"/>
     <use style="stroke:#000000;" x="134.922523" xlink:href="#m416c383f9c" y="72.109384"/>
     <use style="stroke:#000000;" x="132.999492" xlink:href="#m416c383f9c" y="63.906266"/>
    </g>
   </g>
   <g id="line2d_13">
    <path clip-path="url(#p1494c706fa)" d="M 118.309091 92.342043 
L 119.077686 91.507978 
L 119.846281 90.673913 
L 120.614876 89.839848 
L 121.383471 89.005783 
L 122.152066 88.171718 
L 122.920661 87.337653 
L 123.689256 86.503588 
L 124.457851 85.669523 
L 125.226446 84.835458 
L 125.995041 84.001394 
L 126.763636 83.167329 
L 127.532231 82.333264 
L 128.300826 81.499199 
L 129.069421 80.665134 
L 129.838017 79.831069 
L 130.606612 78.997004 
L 131.375207 78.162939 
L 132.143802 77.328874 
L 132.912397 76.494809 
L 133.680992 75.660745 
L 134.449587 74.82668 
L 135.218182 73.992615 
L 135.986777 73.15855 
L 136.755372 72.324485 
L 137.523967 71.49042 
L 138.292562 70.656355 
L 139.061157 69.82229 
L 139.829752 68.988225 
L 140.598347 68.15416 
L 141.366942 67.320096 
L 142.135537 66.486031 
L 142.904132 65.651966 
L 143.672727 64.817901 
L 144.441322 63.983836 
L 145.209917 63.149771 
L 145.978512 62.315706 
L 146.747107 61.481641 
L 147.515702 60.647576 
L 148.284298 59.813511 
L 149.052893 58.979447 
L 149.821488 58.145382 
L 150.590083 57.311317 
L 151.358678 56.477252 
L 152.127273 55.643187 
L 152.895868 54.809122 
L 153.664463 53.975057 
L 154.433058 53.140992 
L 155.201653 52.306927 
L 155.970248 51.472862 
L 156.738843 50.638798 
L 157.507438 49.804733 
L 158.276033 48.970668 
L 159.044628 48.136603 
L 159.813223 47.302538 
L 160.581818 46.468473 
L 161.350413 45.634408 
L 162.119008 44.800343 
L 162.887603 43.966278 
L 163.656198 43.132213 
L 164.424793 42.298149 
L 165.193388 41.464084 
L 165.961983 40.630019 
L 166.730579 39.795954 
L 167.499174 38.961889 
L 168.267769 38.127824 
L 169.036364 37.293759 
L 169.804959 36.459694 
L 170.573554 35.625629 
L 171.342149 34.791564 
L 172.110744 33.9575 
L 172.879339 33.123435 
L 173.647934 32.28937 
L 174.416529 31.455305 
L 175.185124 30.62124 
L 175.953719 29.787175 
L 176.722314 28.95311 
L 177.490909 28.119045 
L 178.259504 27.28498 
L 179.028099 26.450915 
L 179.796694 25.616851 
L 180.565289 24.782786 
L 181.333884 23.948721 
L 182.102479 23.114656 
L 182.871074 22.280591 
L 183.639669 21.446526 
L 184.408264 20.612461 
L 185.17686 19.778396 
L 185.945455 18.944331 
L 186.71405 18.110266 
L 187.482645 17.276202 
L 188.25124 16.442137 
L 189.019835 15.608072 
L 189.78843 14.774007 
L 190.557025 13.939942 
L 191.32562 13.105877 
L 192.094215 12.271812 
L 192.86281 11.437747 
L 193.631405 10.603682 
L 194.4 9.769617 
" style="fill:none;stroke:#000000;stroke-dasharray:1.85,0.8;stroke-dashoffset:0;stroke-width:0.5;"/>
   </g>
   <g id="patch_6">
    <path d="M 118.309091 94.5 
L 118.309091 12.96 
" style="fill:none;stroke:#000000;stroke-linecap:square;stroke-linejoin:miter;"/>
   </g>
   <g id="patch_7">
    <path d="M 118.309091 94.5 
L 194.4 94.5 
" style="fill:none;stroke:#000000;stroke-linecap:square;stroke-linejoin:miter;"/>
   </g>
   <g id="matplotlib.axis_3">
    <g id="xtick_4">
     <g id="line2d_14"/>
     <g id="text_12">
      <text style="font-family:Arial;font-size:8px;font-style:normal;font-weight:normal;text-anchor:middle;" transform="rotate(-0, 118.309091, 103.72625)" x="118.309091" y="103.72625">0</text>
     </g>
    </g>
    <g id="xtick_5">
     <g id="line2d_15"/>
     <g id="text_13">
      <text style="font-family:Arial;font-size:8px;font-style:normal;font-weight:normal;text-anchor:middle;" transform="rotate(-0, 151.919967, 103.72625)" x="151.919967" y="103.72625">1</text>
     </g>
    </g>
    <g id="xtick_6">
     <g id="line2d_16"/>
     <g id="text_14">
      <text style="font-family:Arial;font-size:8px;font-style:normal;font-weight:normal;text-anchor:middle;" transform="rotate(-0, 185.530843, 103.72625)" x="185.530843" y="103.72625">2</text>
     </g>
    </g>
    <g id="text_15">
     <!-- $\sigma$(Exc) -->
     <g transform="translate(141.504545 116.61625)">
      <text>
       <tspan style="font-family:DejaVu Sans;font-size:10px;font-style:oblique;font-weight:oblique;" x="0" y="-0.71875">σ</tspan>
       <tspan style="font-family:Arial;font-size:10px;font-style:regular;font-weight:regular;" x="6.337891 9.667969 16.337891 21.337891 26.337891" y="-0.71875">(Exc)</tspan>
      </text>
     </g>
    </g>
   </g>
   <g id="matplotlib.axis_4">
    <g id="ytick_6">
     <g id="line2d_17"/>
     <g id="text_16">
      <text style="font-family:Arial;font-size:8px;font-style:normal;font-weight:normal;text-anchor:end;" transform="rotate(-0, 114.809091, 97.363125)" x="114.809091" y="97.363125">0.0</text>
     </g>
    </g>
    <g id="ytick_7">
     <g id="line2d_18"/>
     <g id="text_17">
      <text style="font-family:Arial;font-size:8px;font-style:normal;font-weight:normal;text-anchor:end;" transform="rotate(-0, 114.809091, 79.354201)" x="114.809091" y="79.354201">0.5</text>
     </g>
    </g>
    <g id="ytick_8">
     <g id="line2d_19"/>
     <g id="text_18">
      <text style="font-family:Arial;font-size:8px;font-style:normal;font-weight:normal;text-anchor:end;" transform="rotate(-0, 114.809091, 61.345276)" x="114.809091" y="61.345276">1.0</text>
     </g>
    </g>
    <g id="ytick_9">
     <g id="line2d_20"/>
     <g id="text_19">
      <text style="font-family:Arial;font-size:8px;font-style:normal;font-weight:normal;text-anchor:end;" transform="rotate(-0, 114.809091, 43.336352)" x="114.809091" y="43.336352">1.5</text>
     </g>
    </g>
    <g id="ytick_10">
     <g id="line2d_21"/>
     <g id="text_20">
      <text style="font-family:Arial;font-size:8px;font-style:normal;font-weight:normal;text-anchor:end;" transform="rotate(-0, 114.809091, 25.327428)" x="114.809091" y="25.327428">2.0</text>
     </g>
    </g>
    <g id="text_21">
     <!-- $\sigma$(Inh) -->
     <g transform="translate(97.489091 67.18)rotate(-90)">
      <text>
       <tspan style="font-family:DejaVu Sans;font-size:10px;font-style:oblique;font-weight:oblique;" x="0" y="-0.71875">σ</tspan>
       <tspan style="font-family:Arial;font-size:10px;font-style:regular;font-weight:regular;" x="6.337891 9.667969 12.446289 18.007812 23.569336" y="-0.71875">(Inh)</tspan>
      </text>
     </g>
    </g>
   </g>
   <g id="legend_2">
    <g id="line2d_22">
     <path d="M 108.478125 53.808906 
L 128.478125 53.808906 
" style="fill:none;stroke:#000000;stroke-dasharray:1.85,0.8;stroke-dashoffset:0;stroke-width:0.5;"/>
    </g>
    <g id="line2d_23"/>
    <g id="text_22">
     <!-- $R^2$ 0.54 -->
     <g transform="translate(136.478125 51.06125)">
      <text>
       <tspan style="font-family:DejaVu Sans;font-size:10px;font-style:oblique;font-weight:oblique;" x="0" y="-0.9765625">R</tspan>
       <tspan style="font-family:DejaVu Sans;font-size:7px;font-style:book;font-weight:book;" x="7.650794" y="-4.8046875">2</tspan>
       <tspan style="font-family:Arial;font-size:10px;font-style:regular;font-weight:regular;" x="12.377845 15.156165 20.717689 23.496009 29.057533" y="-0.9765625"> 0.54</tspan>
      </text>
     </g>
     <text style="font-family:Arial;font-size:10px;font-style:normal;font-weight:normal;" transform="translate(136.478125 61.67375)"> slope 1.01</text>
    </g>
   </g>
  </g>
 </g>
 <defs>
  <clipPath id="ped26018927">
   <rect height="81.54" width="76.090909" x="27" y="12.96"/>
  </clipPath>
  <clipPath id="p1494c706fa">
   <rect height="81.54" width="76.090909" x="118.309091" y="12.96"/>
  </clipPath>
 </defs>
</svg>
