<?xml version="1.0" encoding="utf-8" standalone="no"?>
<!DOCTYPE svg PUBLIC "-//W3C//DTD SVG 1.1//EN"
  "http://www.w3.org/Graphics/SVG/1.1/DTD/svg11.dtd">
<!-- Created with matplotlib (http://matplotlib.org/) -->
<svg height="108pt" version="1.1" viewBox="0 0 216 108" width="216pt" xmlns="http://www.w3.org/2000/svg" xmlns:xlink="http://www.w3.org/1999/xlink">
 <defs>
  <style type="text/css">
*{stroke-linecap:butt;stroke-linejoin:round;}
  </style>
 </defs>
 <g id="figure_1">
  <g id="patch_1">
   <path d="M 0 108 
L 216 108 
L 216 0 
L 0 0 
z
" style="fill:#ffffff;"/>
  </g>
  <g id="axes_1">
   <g id="patch_2">
    <path d="M 27 94.5 
L 103.090909 94.5 
L 103.090909 12.96 
L 27 12.96 
z
" style="fill:#ffffff;"/>
   </g>
   <g id="LineCollection_1">
    <path clip-path="url(#p0df876030e)" d="M 24.295707 55.564006 
L 48.750602 55.564006 
" style="fill:none;stroke:#000000;stroke-width:0.5;"/>
    <path clip-path="url(#p0df876030e)" d="M 26.908775 76.363392 
L 33.760186 76.363392 
" style="fill:none;stroke:#000000;stroke-width:0.5;"/>
    <path clip-path="url(#p0df876030e)" d="M 25.73058 80.457619 
L 30.02096 80.457619 
" style="fill:none;stroke:#000000;stroke-width:0.5;"/>
    <path clip-path="url(#p0df876030e)" d="M 27 92.774024 
L 27 92.774024 
" style="fill:none;stroke:#000000;stroke-width:0.5;"/>
    <path clip-path="url(#p0df876030e)" d="M 26.123508 82.494312 
L 33.146684 82.494312 
" style="fill:none;stroke:#000000;stroke-width:0.5;"/>
    <path clip-path="url(#p0df876030e)" d="M 25.563612 78.808521 
L 39.251885 78.808521 
" style="fill:none;stroke:#000000;stroke-width:0.5;"/>
    <path clip-path="url(#p0df876030e)" d="M 26.888259 69.207323 
L 39.236753 69.207323 
" style="fill:none;stroke:#000000;stroke-width:0.5;"/>
    <path clip-path="url(#p0df876030e)" d="M 25.489738 77.032272 
L 32.638336 77.032272 
" style="fill:none;stroke:#000000;stroke-width:0.5;"/>
    <path clip-path="url(#p0df876030e)" d="M 30.708299 50.340177 
L 51.538608 50.340177 
" style="fill:none;stroke:#000000;stroke-width:0.5;"/>
    <path clip-path="url(#p0df876030e)" d="M 25.984583 87.7493 
L 31.713268 87.7493 
" style="fill:none;stroke:#000000;stroke-width:0.5;"/>
    <path clip-path="url(#p0df876030e)" d="M 28.703588 22.73895 
L 60.722936 22.73895 
" style="fill:none;stroke:#000000;stroke-width:0.5;"/>
    <path clip-path="url(#p0df876030e)" d="M 25.615323 75.513135 
L 33.39734 75.513135 
" style="fill:none;stroke:#000000;stroke-width:0.5;"/>
    <path clip-path="url(#p0df876030e)" d="M 23.408503 69.200326 
L 50.211746 69.200326 
" style="fill:none;stroke:#000000;stroke-width:0.5;"/>
    <path clip-path="url(#p0df876030e)" d="M 32.051484 26.546872 
L 54.296404 26.546872 
" style="fill:none;stroke:#000000;stroke-width:0.5;"/>
    <path clip-path="url(#p0df876030e)" d="M 34.544981 47.712788 
L 49.11269 47.712788 
" style="fill:none;stroke:#000000;stroke-width:0.5;"/>
    <path clip-path="url(#p0df876030e)" d="M 25.300076 78.887195 
L 31.680168 78.887195 
" style="fill:none;stroke:#000000;stroke-width:0.5;"/>
    <path clip-path="url(#p0df876030e)" d="M 26.825058 88.26496 
L 30.612351 88.26496 
" style="fill:none;stroke:#000000;stroke-width:0.5;"/>
    <path clip-path="url(#p0df876030e)" d="M 25.049107 79.33275 
L 33.155844 79.33275 
" style="fill:none;stroke:#000000;stroke-width:0.5;"/>
    <path clip-path="url(#p0df876030e)" d="M 26.387733 92.812795 
L 29.841961 92.812795 
" style="fill:none;stroke:#000000;stroke-width:0.5;"/>
    <path clip-path="url(#p0df876030e)" d="M 36.066073 28.346524 
L 56.475656 28.346524 
" style="fill:none;stroke:#000000;stroke-width:0.5;"/>
    <path clip-path="url(#p0df876030e)" d="M 29.822695 65.194119 
L 37.591855 65.194119 
" style="fill:none;stroke:#000000;stroke-width:0.5;"/>
    <path clip-path="url(#p0df876030e)" d="M 26.245312 88.310404 
L 30.009763 88.310404 
" style="fill:none;stroke:#000000;stroke-width:0.5;"/>
    <path clip-path="url(#p0df876030e)" d="M 27.926162 64.947851 
L 38.732139 64.947851 
" style="fill:none;stroke:#000000;stroke-width:0.5;"/>
    <path clip-path="url(#p0df876030e)" d="M 26.622212 86.893488 
L 30.450037 86.893488 
" style="fill:none;stroke:#000000;stroke-width:0.5;"/>
    <path clip-path="url(#p0df876030e)" d="M 25.941557 72.340046 
L 33.945088 72.340046 
" style="fill:none;stroke:#000000;stroke-width:0.5;"/>
    <path clip-path="url(#p0df876030e)" d="M 25.456083 76.956566 
L 37.188718 76.956566 
" style="fill:none;stroke:#000000;stroke-width:0.5;"/>
    <path clip-path="url(#p0df876030e)" d="M 24.263172 64.226879 
L 49.271347 64.226879 
" style="fill:none;stroke:#000000;stroke-width:0.5;"/>
    <path clip-path="url(#p0df876030e)" d="M 22.095571 60.289824 
L 43.207971 60.289824 
" style="fill:none;stroke:#000000;stroke-width:0.5;"/>
    <path clip-path="url(#p0df876030e)" d="M 24.332744 65.263037 
L 49.754519 65.263037 
" style="fill:none;stroke:#000000;stroke-width:0.5;"/>
    <path clip-path="url(#p0df876030e)" d="M 26.412428 69.026218 
L 39.617419 69.026218 
" style="fill:none;stroke:#000000;stroke-width:0.5;"/>
   </g>
   <g id="LineCollection_2">
    <path clip-path="url(#p0df876030e)" d="M 36.523154 72.368883 
L 36.523154 38.759128 
" style="fill:none;stroke:#000000;stroke-width:0.5;"/>
    <path clip-path="url(#p0df876030e)" d="M 30.334481 79.321046 
L 30.334481 73.405738 
" style="fill:none;stroke:#000000;stroke-width:0.5;"/>
    <path clip-path="url(#p0df876030e)" d="M 27.87577 87.35482 
L 27.87577 73.560418 
" style="fill:none;stroke:#000000;stroke-width:0.5;"/>
    <path clip-path="url(#p0df876030e)" d="M 27 94.110959 
L 27 91.437089 
" style="fill:none;stroke:#000000;stroke-width:0.5;"/>
    <path clip-path="url(#p0df876030e)" d="M 29.635096 83.787811 
L 29.635096 81.200814 
" style="fill:none;stroke:#000000;stroke-width:0.5;"/>
    <path clip-path="url(#p0df876030e)" d="M 32.407749 85.076199 
L 32.407749 72.540844 
" style="fill:none;stroke:#000000;stroke-width:0.5;"/>
    <path clip-path="url(#p0df876030e)" d="M 33.062506 74.632123 
L 33.062506 63.782524 
" style="fill:none;stroke:#000000;stroke-width:0.5;"/>
    <path clip-path="url(#p0df876030e)" d="M 29.064037 79.726217 
L 29.064037 74.338326 
" style="fill:none;stroke:#000000;stroke-width:0.5;"/>
    <path clip-path="url(#p0df876030e)" d="M 41.123453 59.487763 
L 41.123453 41.192592 
" style="fill:none;stroke:#000000;stroke-width:0.5;"/>
    <path clip-path="url(#p0df876030e)" d="M 28.848925 87.975591 
L 28.848925 87.523008 
" style="fill:none;stroke:#000000;stroke-width:0.5;"/>
    <path clip-path="url(#p0df876030e)" d="M 44.713262 27.145858 
L 44.713262 18.332043 
" style="fill:none;stroke:#000000;stroke-width:0.5;"/>
    <path clip-path="url(#p0df876030e)" d="M 29.506332 82.138843 
L 29.506332 68.887427 
" style="fill:none;stroke:#000000;stroke-width:0.5;"/>
    <path clip-path="url(#p0df876030e)" d="M 36.810124 81.594585 
L 36.810124 56.806068 
" style="fill:none;stroke:#000000;stroke-width:0.5;"/>
    <path clip-path="url(#p0df876030e)" d="M 43.173944 31.641904 
L 43.173944 21.451841 
" style="fill:none;stroke:#000000;stroke-width:0.5;"/>
    <path clip-path="url(#p0df876030e)" d="M 41.828836 56.814775 
L 41.828836 38.610801 
" style="fill:none;stroke:#000000;stroke-width:0.5;"/>
    <path clip-path="url(#p0df876030e)" d="M 28.490122 80.414337 
L 28.490122 77.360053 
" style="fill:none;stroke:#000000;stroke-width:0.5;"/>
    <path clip-path="url(#p0df876030e)" d="M 28.718704 90.204046 
L 28.718704 86.325874 
" style="fill:none;stroke:#000000;stroke-width:0.5;"/>
    <path clip-path="url(#p0df876030e)" d="M 29.102476 83.795353 
L 29.102476 74.870147 
" style="fill:none;stroke:#000000;stroke-width:0.5;"/>
    <path clip-path="url(#p0df876030e)" d="M 28.114847 94.661035 
L 28.114847 90.964554 
" style="fill:none;stroke:#000000;stroke-width:0.5;"/>
    <path clip-path="url(#p0df876030e)" d="M 46.270865 39.842522 
L 46.270865 16.850525 
" style="fill:none;stroke:#000000;stroke-width:0.5;"/>
    <path clip-path="url(#p0df876030e)" d="M 33.707275 69.142445 
L 33.707275 61.245793 
" style="fill:none;stroke:#000000;stroke-width:0.5;"/>
    <path clip-path="url(#p0df876030e)" d="M 28.127538 91.028545 
L 28.127538 85.592262 
" style="fill:none;stroke:#000000;stroke-width:0.5;"/>
    <path clip-path="url(#p0df876030e)" d="M 33.32915 73.081556 
L 33.32915 56.814146 
" style="fill:none;stroke:#000000;stroke-width:0.5;"/>
    <path clip-path="url(#p0df876030e)" d="M 28.536124 90.125913 
L 28.536124 83.661062 
" style="fill:none;stroke:#000000;stroke-width:0.5;"/>
    <path clip-path="url(#p0df876030e)" d="M 29.943322 75.661343 
L 29.943322 69.01875 
" style="fill:none;stroke:#000000;stroke-width:0.5;"/>
    <path clip-path="url(#p0df876030e)" d="M 31.3224 84.597784 
L 31.3224 69.315348 
" style="fill:none;stroke:#000000;stroke-width:0.5;"/>
    <path clip-path="url(#p0df876030e)" d="M 36.767259 71.256093 
L 36.767259 57.197665 
" style="fill:none;stroke:#000000;stroke-width:0.5;"/>
    <path clip-path="url(#p0df876030e)" d="M 32.651771 73.889678 
L 32.651771 46.689971 
" style="fill:none;stroke:#000000;stroke-width:0.5;"/>
    <path clip-path="url(#p0df876030e)" d="M 37.043632 71.906977 
L 37.043632 58.619098 
" style="fill:none;stroke:#000000;stroke-width:0.5;"/>
    <path clip-path="url(#p0df876030e)" d="M 33.014923 72.477297 
L 33.014923 65.575138 
" style="fill:none;stroke:#000000;stroke-width:0.5;"/>
   </g>
   <g id="line2d_1">
    <path clip-path="url(#p0df876030e)" d="M 27 89.171492 
L 27.768595 86.69968 
L 28.53719 84.227869 
L 29.305785 81.756057 
L 30.07438 79.284245 
L 30.842975 76.812433 
L 31.61157 74.340621 
L 32.380165 71.86881 
L 33.14876 69.396998 
L 33.917355 66.925186 
L 34.68595 64.453374 
L 35.454545 61.981562 
L 36.22314 59.509751 
L 36.991736 57.037939 
L 37.760331 54.566127 
L 38.528926 52.094315 
L 39.297521 49.622503 
L 40.066116 47.150692 
L 40.834711 44.67888 
L 41.603306 42.207068 
L 42.371901 39.735256 
L 43.140496 37.263445 
L 43.909091 34.791633 
L 44.677686 32.319821 
L 45.446281 29.848009 
L 46.214876 27.376197 
L 46.983471 24.904386 
L 47.752066 22.432574 
L 48.520661 19.960762 
L 49.289256 17.48895 
L 50.057851 15.017138 
L 50.826446 12.545327 
L 51.595041 10.073515 
L 52.363636 7.601703 
L 53.132231 5.129891 
L 53.900826 2.658079 
L 54.669421 0.186268 
L 55.038284 -1 
" style="fill:none;stroke:#000000;stroke-dasharray:1.85,0.8;stroke-dashoffset:0;stroke-width:0.5;"/>
   </g>
   <g id="line2d_2">
    <defs>
     <path d="M 0 3 
C 0.795609 3 1.55874 2.683901 2.12132 2.12132 
C 2.683901 1.55874 3 0.795609 3 0 
C 3 -0.795609 2.683901 -1.55874 2.12132 -2.12132 
C 1.55874 -2.683901 0.795609 -3 0 -3 
C -0.795609 -3 -1.55874 -2.683901 -2.12132 -2.12132 
C -2.683901 -1.55874 -3 -0.795609 -3 0 
C -3 0.795609 -2.683901 1.55874 -2.12132 2.12132 
C -1.55874 2.683901 -0.795609 3 0 3 
z
" id="m80623b358c" style="stroke:#000000;"/>
    </defs>
    <g clip-path="url(#p0df876030e)">
     <use style="stroke:#000000;" x="36.523154" xlink:href="#m80623b358c" y="55.564006"/>
     <use style="stroke:#000000;" x="30.334481" xlink:href="#m80623b358c" y="76.363392"/>
     <use style="stroke:#000000;" x="27.87577" xlink:href="#m80623b358c" y="80.457619"/>
     <use style="stroke:#000000;" x="27" xlink:href="#m80623b358c" y="92.774024"/>
     <use style="stroke:#000000;" x="29.635096" xlink:href="#m80623b358c" y="82.494312"/>
     <use style="stroke:#000000;" x="32.407749" xlink:href="#m80623b358c" y="78.808521"/>
     <use style="stroke:#000000;" x="33.062506" xlink:href="#m80623b358c" y="69.207323"/>
     <use style="stroke:#000000;" x="29.064037" xlink:href="#m80623b358c" y="77.032272"/>
     <use style="stroke:#000000;" x="41.123453" xlink:href="#m80623b358c" y="50.340177"/>
     <use style="stroke:#000000;" x="28.848925" xlink:href="#m80623b358c" y="87.7493"/>
     <use style="stroke:#000000;" x="44.713262" xlink:href="#m80623b358c" y="22.73895"/>
     <use style="stroke:#000000;" x="29.506332" xlink:href="#m80623b358c" y="75.513135"/>
     <use style="stroke:#000000;" x="36.810124" xlink:href="#m80623b358c" y="69.200326"/>
     <use style="stroke:#000000;" x="43.173944" xlink:href="#m80623b358c" y="26.546872"/>
     <use style="stroke:#000000;" x="41.828836" xlink:href="#m80623b358c" y="47.712788"/>
     <use style="stroke:#000000;" x="28.490122" xlink:href="#m80623b358c" y="78.887195"/>
     <use style="stroke:#000000;" x="28.718704" xlink:href="#m80623b358c" y="88.26496"/>
     <use style="stroke:#000000;" x="29.102476" xlink:href="#m80623b358c" y="79.33275"/>
     <use style="stroke:#000000;" x="28.114847" xlink:href="#m80623b358c" y="92.812795"/>
     <use style="stroke:#000000;" x="46.270865" xlink:href="#m80623b358c" y="28.346524"/>
     <use style="stroke:#000000;" x="33.707275" xlink:href="#m80623b358c" y="65.194119"/>
     <use style="stroke:#000000;" x="28.127538" xlink:href="#m80623b358c" y="88.310404"/>
     <use style="stroke:#000000;" x="33.32915" xlink:href="#m80623b358c" y="64.947851"/>
     <use style="stroke:#000000;" x="28.536124" xlink:href="#m80623b358c" y="86.893488"/>
     <use style="stroke:#000000;" x="29.943322" xlink:href="#m80623b358c" y="72.340046"/>
     <use style="stroke:#000000;" x="31.3224" xlink:href="#m80623b358c" y="76.956566"/>
     <use style="stroke:#000000;" x="36.767259" xlink:href="#m80623b358c" y="64.226879"/>
     <use style="stroke:#000000;" x="32.651771" xlink:href="#m80623b358c" y="60.289824"/>
     <use style="stroke:#000000;" x="37.043632" xlink:href="#m80623b358c" y="65.263037"/>
     <use style="stroke:#000000;" x="33.014923" xlink:href="#m80623b358c" y="69.026218"/>
    </g>
   </g>
   <g id="patch_3">
    <path d="M 27 94.5 
L 27 12.96 
" style="fill:none;stroke:#000000;stroke-linecap:square;stroke-linejoin:miter;"/>
   </g>
   <g id="patch_4">
    <path d="M 27 94.5 
L 103.090909 94.5 
" style="fill:none;stroke:#000000;stroke-linecap:square;stroke-linejoin:miter;"/>
   </g>
   <g id="matplotlib.axis_1">
    <g id="xtick_1">
     <g id="line2d_3"/>
     <g id="text_1">
      <text style="font-family:Arial;font-size:8px;font-style:normal;font-weight:normal;text-anchor:middle;" transform="rotate(-0, 27, 103.72625)" x="27" y="103.72625">0</text>
     </g>
    </g>
    <g id="xtick_2">
     <g id="line2d_4"/>
     <g id="text_2">
      <text style="font-family:Arial;font-size:8px;font-style:normal;font-weight:normal;text-anchor:middle;" transform="rotate(-0, 69.015565, 103.72625)" x="69.015565" y="103.72625">5</text>
     </g>
    </g>
    <g id="text_3">
     <text style="font-family:Arial;font-size:10px;font-style:normal;font-weight:normal;text-anchor:middle;" transform="rotate(-0, 65.045455, 116.474063)" x="65.045455" y="116.474063">Exc</text>
    </g>
   </g>
   <g id="matplotlib.axis_2">
    <g id="ytick_1">
     <g id="line2d_5"/>
     <g id="text_4">
      <text style="font-family:Arial;font-size:8px;font-style:normal;font-weight:normal;text-anchor:end;" transform="rotate(-0, 23.5, 97.363125)" x="23.5" y="97.363125">0</text>
     </g>
    </g>
    <g id="ytick_2">
     <g id="line2d_6"/>
     <g id="text_5">
      <text style="font-family:Arial;font-size:8px;font-style:normal;font-weight:normal;text-anchor:end;" transform="rotate(-0, 23.5, 79.353357)" x="23.5" y="79.353357">2</text>
     </g>
    </g>
    <g id="ytick_3">
     <g id="line2d_7"/>
     <g id="text_6">
      <text style="font-family:Arial;font-size:8px;font-style:normal;font-weight:normal;text-anchor:end;" transform="rotate(-0, 23.5, 61.343588)" x="23.5" y="61.343588">4</text>
     </g>
    </g>
    <g id="ytick_4">
     <g id="line2d_8"/>
     <g id="text_7">
      <text style="font-family:Arial;font-size:8px;font-style:normal;font-weight:normal;text-anchor:end;" transform="rotate(-0, 23.5, 43.33382)" x="23.5" y="43.33382">6</text>
     </g>
    </g>
    <g id="ytick_5">
     <g id="line2d_9"/>
     <g id="text_8">
      <text style="font-family:Arial;font-size:8px;font-style:normal;font-weight:normal;text-anchor:end;" transform="rotate(-0, 23.5, 25.324051)" x="23.5" y="25.324051">8</text>
     </g>
    </g>
    <g id="text_9">
     <text style="font-family:Arial;font-size:10px;font-style:normal;font-weight:normal;text-anchor:middle;" transform="rotate(-90, 13.06375, 53.73)" x="13.06375" y="53.73">Inh</text>
    </g>
   </g>
   <g id="legend_1">
    <g id="line2d_10">
     <path d="M 36 75.622656 
L 56 75.622656 
" style="fill:none;stroke:#000000;stroke-dasharray:1.85,0.8;stroke-dashoffset:0;stroke-width:0.5;"/>
    </g>
    <g id="line2d_11"/>
    <g id="text_10">
     <!-- $R^2$ 0.90 -->
     <g transform="translate(64 72.875)">
      <text>
       <tspan style="font-family:DejaVu Sans;font-size:10px;font-style:oblique;font-weight:oblique;" x="0" y="-0.9765625">R</tspan>
       <tspan style="font-family:DejaVu Sans;font-size:7px;font-style:book;font-weight:book;" x="7.650794" y="-4.8046875">2</tspan>
       <tspan style="font-family:Arial;font-size:10px;font-style:regular;font-weight:regular;" x="12.377845 15.156165 20.717689 23.496009 29.057533" y="-0.9765625"> 0.90</tspan>
      </text>
     </g>
     <text style="font-family:Arial;font-size:10px;font-style:normal;font-weight:normal;" transform="translate(64 83.4875)"> slope 3.00</text>
    </g>
   </g>
  </g>
  <g id="axes_2">
   <g id="patch_5">
    <path d="M 118.309091 94.5 
L 194.4 94.5 
L 194.4 12.96 
L 118.309091 12.96 
z
" style="fill:#ffffff;"/>
   </g>
   <g id="PathCollection_1">
    <defs>
     <path d="M 0 2.44949 
C 0.649612 2.44949 1.272706 2.191396 1.732051 1.732051 
C 2.191396 1.272706 2.44949 0.649612 2.44949 0 
C 2.44949 -0.649612 2.191396 -1.272706 1.732051 -1.732051 
C 1.272706 -2.191396 0.649612 -2.44949 0 -2.44949 
C -0.649612 -2.44949 -1.272706 -2.191396 -1.732051 -1.732051 
C -2.191396 -1.272706 -2.44949 -0.649612 -2.44949 0 
C -2.44949 0.649612 -2.191396 1.272706 -1.732051 1.732051 
C -1.272706 2.191396 -0.649612 2.44949 0 2.44949 
z
" id="m4a196332d1" style="stroke:#000000;"/>
    </defs>
    <g clip-path="url(#p321bd2194a)">
     <use style="stroke:#000000;" x="173.170874" xlink:href="#m4a196332d1" y="19.100327"/>
     <use style="stroke:#000000;" x="133.679455" xlink:href="#m4a196332d1" y="81.229677"/>
     <use style="stroke:#000000;" x="127.934072" xlink:href="#m4a196332d1" y="63.553823"/>
     <use style="stroke:#000000;" x="118.309091" xlink:href="#m4a196332d1" y="88.501474"/>
     <use style="stroke:#000000;" x="134.06479" xlink:href="#m4a196332d1" y="88.696365"/>
     <use style="stroke:#000000;" x="149.017179" xlink:href="#m4a196332d1" y="66.378353"/>
     <use style="stroke:#000000;" x="146.011537" xlink:href="#m4a196332d1" y="70.160156"/>
     <use style="stroke:#000000;" x="134.346161" xlink:href="#m4a196332d1" y="82.412876"/>
     <use style="stroke:#000000;" x="165.039525" xlink:href="#m4a196332d1" y="53.456859"/>
     <use style="stroke:#000000;" x="131.160746" xlink:href="#m4a196332d1" y="93.484682"/>
     <use style="stroke:#000000;" x="190.140867" xlink:href="#m4a196332d1" y="74.727207"/>
     <use style="stroke:#000000;" x="135.767163" xlink:href="#m4a196332d1" y="64.771951"/>
     <use style="stroke:#000000;" x="178.439128" xlink:href="#m4a196332d1" y="38.889775"/>
     <use style="stroke:#000000;" x="168.213046" xlink:href="#m4a196332d1" y="71.639748"/>
     <use style="stroke:#000000;" x="150.990094" xlink:href="#m4a196332d1" y="53.661449"/>
     <use style="stroke:#000000;" x="132.622103" xlink:href="#m4a196332d1" y="87.64806"/>
     <use style="stroke:#000000;" x="126.805452" xlink:href="#m4a196332d1" y="85.799759"/>
     <use style="stroke:#000000;" x="136.495637" xlink:href="#m4a196332d1" y="74.477313"/>
     <use style="stroke:#000000;" x="126.058258" xlink:href="#m4a196332d1" y="86.207364"/>
     <use style="stroke:#000000;" x="164.095675" xlink:href="#m4a196332d1" y="42.920063"/>
     <use style="stroke:#000000;" x="135.73832" xlink:href="#m4a196332d1" y="76.784757"/>
     <use style="stroke:#000000;" x="126.75421" xlink:href="#m4a196332d1" y="82.304316"/>
     <use style="stroke:#000000;" x="142.551075" xlink:href="#m4a196332d1" y="58.005911"/>
     <use style="stroke:#000000;" x="126.896382" xlink:href="#m4a196332d1" y="79.996841"/>
     <use style="stroke:#000000;" x="136.264107" xlink:href="#m4a196332d1" y="79.598095"/>
     <use style="stroke:#000000;" x="144.629927" xlink:href="#m4a196332d1" y="60.215587"/>
     <use style="stroke:#000000;" x="174.412096" xlink:href="#m4a196332d1" y="62.961509"/>
     <use style="stroke:#000000;" x="165.672365" xlink:href="#m4a196332d1" y="33.480542"/>
     <use style="stroke:#000000;" x="175.339961" xlink:href="#m4a196332d1" y="64.69015"/>
     <use style="stroke:#000000;" x="147.932991" xlink:href="#m4a196332d1" y="79.015791"/>
    </g>
   </g>
   <g id="line2d_12">
    <path clip-path="url(#p321bd2194a)" d="M 118.309091 86.375259 
L 119.077686 85.89879 
L 119.846281 85.422322 
L 120.614876 84.945853 
L 121.383471 84.469384 
L 122.152066 83.992915 
L 122.920661 83.516446 
L 123.689256 83.039977 
L 124.457851 82.563508 
L 125.226446 82.087039 
L 125.995041 81.61057 
L 126.763636 81.134101 
L 127.532231 80.657633 
L 128.300826 80.181164 
L 129.069421 79.704695 
L 129.838017 79.228226 
L 130.606612 78.751757 
L 131.375207 78.275288 
L 132.143802 77.798819 
L 132.912397 77.32235 
L 133.680992 76.845881 
L 134.449587 76.369412 
L 135.218182 75.892944 
L 135.986777 75.416475 
L 136.755372 74.940006 
L 137.523967 74.463537 
L 138.292562 73.987068 
L 139.061157 73.510599 
L 139.829752 73.03413 
L 140.598347 72.557661 
L 141.366942 72.081192 
L 142.135537 71.604723 
L 142.904132 71.128255 
L 143.672727 70.651786 
L 144.441322 70.175317 
L 145.209917 69.698848 
L 145.978512 69.222379 
L 146.747107 68.74591 
L 147.515702 68.269441 
L 148.284298 67.792972 
L 149.052893 67.316503 
L 149.821488 66.840034 
L 150.590083 66.363566 
L 151.358678 65.887097 
L 152.127273 65.410628 
L 152.895868 64.934159 
L 153.664463 64.45769 
L 154.433058 63.981221 
L 155.201653 63.504752 
L 155.970248 63.028283 
L 156.738843 62.551814 
L 157.507438 62.075345 
L 158.276033 61.598877 
L 159.044628 61.122408 
L 159.813223 60.645939 
L 160.581818 60.16947 
L 161.350413 59.693001 
L 162.119008 59.216532 
L 162.887603 58.740063 
L 163.656198 58.263594 
L 164.424793 57.787125 
L 165.193388 57.310656 
L 165.961983 56.834188 
L 166.730579 56.357719 
L 167.499174 55.88125 
L 168.267769 55.404781 
L 169.036364 54.928312 
L 169.804959 54.451843 
L 170.573554 53.975374 
L 171.342149 53.498905 
L 172.110744 53.022436 
L 172.879339 52.545967 
L 173.647934 52.069498 
L 174.416529 51.59303 
L 175.185124 51.116561 
L 175.953719 50.640092 
L 176.722314 50.163623 
L 177.490909 49.687154 
L 178.259504 49.210685 
L 179.028099 48.734216 
L 179.796694 48.257747 
L 180.565289 47.781278 
L 181.333884 47.304809 
L 182.102479 46.828341 
L 182.871074 46.351872 
L 183.639669 45.875403 
L 184.408264 45.398934 
L 185.17686 44.922465 
L 185.945455 44.445996 
L 186.71405 43.969527 
L 187.482645 43.493058 
L 188.25124 43.016589 
L 189.019835 42.54012 
L 189.78843 42.063652 
L 190.557025 41.587183 
L 191.32562 41.110714 
L 192.094215 40.634245 
L 192.86281 40.157776 
L 193.631405 39.681307 
L 194.4 39.204838 
" style="fill:none;stroke:#000000;stroke-dasharray:1.85,0.8;stroke-dashoffset:0;stroke-width:0.5;"/>
   </g>
   <g id="patch_6">
    <path d="M 118.309091 94.5 
L 118.309091 12.96 
" style="fill:none;stroke:#000000;stroke-linecap:square;stroke-linejoin:miter;"/>
   </g>
   <g id="patch_7">
    <path d="M 118.309091 94.5 
L 194.4 94.5 
" style="fill:none;stroke:#000000;stroke-linecap:square;stroke-linejoin:miter;"/>
   </g>
   <g id="matplotlib.axis_3">
    <g id="xtick_3">
     <g id="line2d_13"/>
     <g id="text_11">
      <text style="font-family:Arial;font-size:8px;font-style:normal;font-weight:normal;text-anchor:middle;" transform="rotate(-0, 118.309091, 103.72625)" x="118.309091" y="103.72625">0</text>
     </g>
    </g>
    <g id="xtick_4">
     <g id="line2d_14"/>
     <g id="text_12">
      <text style="font-family:Arial;font-size:8px;font-style:normal;font-weight:normal;text-anchor:middle;" transform="rotate(-0, 156.011953, 103.72625)" x="156.011953" y="103.72625">1</text>
     </g>
    </g>
    <g id="xtick_5">
     <g id="line2d_15"/>
     <g id="text_13">
      <text style="font-family:Arial;font-size:8px;font-style:normal;font-weight:normal;text-anchor:middle;" transform="rotate(-0, 193.714815, 103.72625)" x="193.714815" y="103.72625">2</text>
     </g>
    </g>
    <g id="text_14">
     <!-- $\sigma$(Exc) -->
     <g transform="translate(141.504545 116.61625)">
      <text>
       <tspan style="font-family:DejaVu Sans;font-size:10px;font-style:oblique;font-weight:oblique;" x="0" y="-0.71875">σ</tspan>
       <tspan style="font-family:Arial;font-size:10px;font-style:regular;font-weight:regular;" x="6.337891 9.667969 16.337891 21.337891 26.337891" y="-0.71875">(Exc)</tspan>
      </text>
     </g>
    </g>
   </g>
   <g id="matplotlib.axis_4">
    <g id="ytick_6">
     <g id="line2d_16"/>
     <g id="text_15">
      <text style="font-family:Arial;font-size:8px;font-style:normal;font-weight:normal;text-anchor:end;" transform="rotate(-0, 114.809091, 97.363125)" x="114.809091" y="97.363125">0.0</text>
     </g>
    </g>
    <g id="ytick_7">
     <g id="line2d_17"/>
     <g id="text_16">
      <text style="font-family:Arial;font-size:8px;font-style:normal;font-weight:normal;text-anchor:end;" transform="rotate(-0, 114.809091, 77.161688)" x="114.809091" y="77.161688">0.5</text>
     </g>
    </g>
    <g id="ytick_8">
     <g id="line2d_18"/>
     <g id="text_17">
      <text style="font-family:Arial;font-size:8px;font-style:normal;font-weight:normal;text-anchor:end;" transform="rotate(-0, 114.809091, 56.960252)" x="114.809091" y="56.960252">1.0</text>
     </g>
    </g>
    <g id="ytick_9">
     <g id="line2d_19"/>
     <g id="text_18">
      <text style="font-family:Arial;font-size:8px;font-style:normal;font-weight:normal;text-anchor:end;" transform="rotate(-0, 114.809091, 36.758815)" x="114.809091" y="36.758815">1.5</text>
     </g>
    </g>
    <g id="ytick_10">
     <g id="line2d_20"/>
     <g id="text_19">
      <text style="font-family:Arial;font-size:8px;font-style:normal;font-weight:normal;text-anchor:end;" transform="rotate(-0, 114.809091, 16.557379)" x="114.809091" y="16.557379">2.0</text>
     </g>
    </g>
    <g id="text_20">
     <!-- $\sigma$(Inh) -->
     <g transform="translate(97.489091 67.18)rotate(-90)">
      <text>
       <tspan style="font-family:DejaVu Sans;font-size:10px;font-style:oblique;font-weight:oblique;" x="0" y="-0.71875">σ</tspan>
       <tspan style="font-family:Arial;font-size:10px;font-style:regular;font-weight:regular;" x="6.337891 9.667969 12.446289 18.007812 23.569336" y="-0.71875">(Inh)</tspan>
      </text>
     </g>
    </g>
   </g>
   <g id="legend_2">
    <g id="line2d_21">
     <path d="M 108.478125 31.995156 
L 128.478125 31.995156 
" style="fill:none;stroke:#000000;stroke-dasharray:1.85,0.8;stroke-dashoffset:0;stroke-width:0.5;"/>
    </g>
    <g id="line2d_22"/>
    <g id="text_21">
     <!-- $R^2$ 0.44 -->
     <g transform="translate(136.478125 29.2475)">
      <text>
       <tspan style="font-family:DejaVu Sans;font-size:10px;font-style:oblique;font-weight:oblique;" x="0" y="-0.9765625">R</tspan>
       <tspan style="font-family:DejaVu Sans;font-size:7px;font-style:book;font-weight:book;" x="7.650794" y="-4.8046875">2</tspan>
       <tspan style="font-family:Arial;font-size:10px;font-style:regular;font-weight:regular;" x="12.377845 15.156165 20.717689 23.496009 29.057533" y="-0.9765625"> 0.44</tspan>
      </text>
     </g>
     <text style="font-family:Arial;font-size:10px;font-style:normal;font-weight:normal;" transform="translate(136.478125 39.86)"> slope 0.58</text>
    </g>
   </g>
  </g>
 </g>
 <defs>
  <clipPath id="p0df876030e">
   <rect height="81.54" width="76.090909" x="27" y="12.96"/>
  </clipPath>
  <clipPath id="p321bd2194a">
   <rect height="81.54" width="76.090909" x="118.309091" y="12.96"/>
  </clipPath>
 </defs>
</svg>
