<?xml version="1.0" encoding="utf-8" standalone="no"?>
<!DOCTYPE svg PUBLIC "-//W3C//DTD SVG 1.1//EN"
  "http://www.w3.org/Graphics/SVG/1.1/DTD/svg11.dtd">
<!-- Created with matplotlib (http://matplotlib.org/) -->
<svg height="108pt" version="1.1" viewBox="0 0 216 108" width="216pt" xmlns="http://www.w3.org/2000/svg" xmlns:xlink="http://www.w3.org/1999/xlink">
 <defs>
  <style type="text/css">
*{stroke-linecap:butt;stroke-linejoin:round;}
  </style>
 </defs>
 <g id="figure_1">
  <g id="patch_1">
   <path d="M 0 108 
L 216 108 
L 216 0 
L 0 0 
z
" style="fill:#ffffff;"/>
  </g>
  <g id="axes_1">
   <g id="patch_2">
    <path d="M 27 94.5 
L 103.090909 94.5 
L 103.090909 12.96 
L 27 12.96 
z
" style="fill:#ffffff;"/>
   </g>
   <g id="LineCollection_1">
    <path clip-path="url(#p12fd2f0e0b)" d="M 25.456825 79.077527 
L 35.139983 79.077527 
" style="fill:none;stroke:#000000;stroke-width:0.5;"/>
    <path clip-path="url(#p12fd2f0e0b)" d="M 31.253526 58.489475 
L 42.625309 58.489475 
" style="fill:none;stroke:#000000;stroke-width:0.5;"/>
    <path clip-path="url(#p12fd2f0e0b)" d="M 29.314786 73.926179 
L 34.726994 73.926179 
" style="fill:none;stroke:#000000;stroke-width:0.5;"/>
    <path clip-path="url(#p12fd2f0e0b)" d="M 27.714124 81.124858 
L 33.551506 81.124858 
" style="fill:none;stroke:#000000;stroke-width:0.5;"/>
    <path clip-path="url(#p12fd2f0e0b)" d="M 26.320679 89.990314 
L 28.961629 89.990314 
" style="fill:none;stroke:#000000;stroke-width:0.5;"/>
    <path clip-path="url(#p12fd2f0e0b)" d="M 27.063677 75.022741 
L 34.746367 75.022741 
" style="fill:none;stroke:#000000;stroke-width:0.5;"/>
    <path clip-path="url(#p12fd2f0e0b)" d="M 27.797618 79.719214 
L 34.612531 79.719214 
" style="fill:none;stroke:#000000;stroke-width:0.5;"/>
    <path clip-path="url(#p12fd2f0e0b)" d="M 27.481689 85.660121 
L 29.609827 85.660121 
" style="fill:none;stroke:#000000;stroke-width:0.5;"/>
    <path clip-path="url(#p12fd2f0e0b)" d="M 27.328421 65.806179 
L 41.089703 65.806179 
" style="fill:none;stroke:#000000;stroke-width:0.5;"/>
    <path clip-path="url(#p12fd2f0e0b)" d="M 30.563619 66.359121 
L 37.335314 66.359121 
" style="fill:none;stroke:#000000;stroke-width:0.5;"/>
    <path clip-path="url(#p12fd2f0e0b)" d="M 27.437502 85.844237 
L 29.892419 85.844237 
" style="fill:none;stroke:#000000;stroke-width:0.5;"/>
    <path clip-path="url(#p12fd2f0e0b)" d="M 27.180962 37.026766 
L 29.594799 37.026766 
" style="fill:none;stroke:#000000;stroke-width:0.5;"/>
    <path clip-path="url(#p12fd2f0e0b)" d="M 29.545238 65.302969 
L 48.407033 65.302969 
" style="fill:none;stroke:#000000;stroke-width:0.5;"/>
    <path clip-path="url(#p12fd2f0e0b)" d="M 27.194373 84.211754 
L 29.502696 84.211754 
" style="fill:none;stroke:#000000;stroke-width:0.5;"/>
    <path clip-path="url(#p12fd2f0e0b)" d="M 29.081231 37.609717 
L 57.788558 37.609717 
" style="fill:none;stroke:#000000;stroke-width:0.5;"/>
    <path clip-path="url(#p12fd2f0e0b)" d="M 20.665107 51.355979 
L 59.516568 51.355979 
" style="fill:none;stroke:#000000;stroke-width:0.5;"/>
    <path clip-path="url(#p12fd2f0e0b)" d="M 27.423876 70.400009 
L 40.187265 70.400009 
" style="fill:none;stroke:#000000;stroke-width:0.5;"/>
    <path clip-path="url(#p12fd2f0e0b)" d="M 26.120311 33.22341 
L 72.164351 33.22341 
" style="fill:none;stroke:#000000;stroke-width:0.5;"/>
    <path clip-path="url(#p12fd2f0e0b)" d="M 28.275773 71.325893 
L 36.335417 71.325893 
" style="fill:none;stroke:#000000;stroke-width:0.5;"/>
    <path clip-path="url(#p12fd2f0e0b)" d="M 26.055629 74.732414 
L 39.530426 74.732414 
" style="fill:none;stroke:#000000;stroke-width:0.5;"/>
    <path clip-path="url(#p12fd2f0e0b)" d="M 25.66721 75.241064 
L 33.135438 75.241064 
" style="fill:none;stroke:#000000;stroke-width:0.5;"/>
    <path clip-path="url(#p12fd2f0e0b)" d="M 25.275183 74.38781 
L 32.436698 74.38781 
" style="fill:none;stroke:#000000;stroke-width:0.5;"/>
    <path clip-path="url(#p12fd2f0e0b)" d="M 28.163703 79.720391 
L 39.470571 79.720391 
" style="fill:none;stroke:#000000;stroke-width:0.5;"/>
    <path clip-path="url(#p12fd2f0e0b)" d="M 25.904618 50.853997 
L 50.24011 50.853997 
" style="fill:none;stroke:#000000;stroke-width:0.5;"/>
    <path clip-path="url(#p12fd2f0e0b)" d="M 24.155389 61.951031 
L 43.114589 61.951031 
" style="fill:none;stroke:#000000;stroke-width:0.5;"/>
    <path clip-path="url(#p12fd2f0e0b)" d="M 27.136398 86.750121 
L 30.327378 86.750121 
" style="fill:none;stroke:#000000;stroke-width:0.5;"/>
    <path clip-path="url(#p12fd2f0e0b)" d="M 29.998332 33.579461 
L 40.423103 33.579461 
" style="fill:none;stroke:#000000;stroke-width:0.5;"/>
    <path clip-path="url(#p12fd2f0e0b)" d="M 27.675606 63.041923 
L 42.455179 63.041923 
" style="fill:none;stroke:#000000;stroke-width:0.5;"/>
    <path clip-path="url(#p12fd2f0e0b)" d="M 27.143658 84.998917 
L 31.242411 84.998917 
" style="fill:none;stroke:#000000;stroke-width:0.5;"/>
    <path clip-path="url(#p12fd2f0e0b)" d="M 25.986982 71.283416 
L 31.150063 71.283416 
" style="fill:none;stroke:#000000;stroke-width:0.5;"/>
   </g>
   <g id="LineCollection_2">
    <path clip-path="url(#p12fd2f0e0b)" d="M 30.298404 81.415118 
L 30.298404 76.739936 
" style="fill:none;stroke:#000000;stroke-width:0.5;"/>
    <path clip-path="url(#p12fd2f0e0b)" d="M 36.939417 62.472313 
L 36.939417 54.506637 
" style="fill:none;stroke:#000000;stroke-width:0.5;"/>
    <path clip-path="url(#p12fd2f0e0b)" d="M 32.02089 76.221572 
L 32.02089 71.630785 
" style="fill:none;stroke:#000000;stroke-width:0.5;"/>
    <path clip-path="url(#p12fd2f0e0b)" d="M 30.632815 84.4645 
L 30.632815 77.785217 
" style="fill:none;stroke:#000000;stroke-width:0.5;"/>
    <path clip-path="url(#p12fd2f0e0b)" d="M 27.641154 90.532886 
L 27.641154 89.447742 
" style="fill:none;stroke:#000000;stroke-width:0.5;"/>
    <path clip-path="url(#p12fd2f0e0b)" d="M 30.905022 81.038745 
L 30.905022 69.006736 
" style="fill:none;stroke:#000000;stroke-width:0.5;"/>
    <path clip-path="url(#p12fd2f0e0b)" d="M 31.205074 82.518613 
L 31.205074 76.919816 
" style="fill:none;stroke:#000000;stroke-width:0.5;"/>
    <path clip-path="url(#p12fd2f0e0b)" d="M 28.545758 86.992026 
L 28.545758 84.328216 
" style="fill:none;stroke:#000000;stroke-width:0.5;"/>
    <path clip-path="url(#p12fd2f0e0b)" d="M 34.209062 69.727465 
L 34.209062 61.884892 
" style="fill:none;stroke:#000000;stroke-width:0.5;"/>
    <path clip-path="url(#p12fd2f0e0b)" d="M 33.949467 71.426742 
L 33.949467 61.291499 
" style="fill:none;stroke:#000000;stroke-width:0.5;"/>
    <path clip-path="url(#p12fd2f0e0b)" d="M 28.66496 87.649579 
L 28.66496 84.038896 
" style="fill:none;stroke:#000000;stroke-width:0.5;"/>
    <path clip-path="url(#p12fd2f0e0b)" d="M 28.387881 38.241977 
L 28.387881 35.811555 
" style="fill:none;stroke:#000000;stroke-width:0.5;"/>
    <path clip-path="url(#p12fd2f0e0b)" d="M 38.976135 74.139276 
L 38.976135 56.466663 
" style="fill:none;stroke:#000000;stroke-width:0.5;"/>
    <path clip-path="url(#p12fd2f0e0b)" d="M 28.348535 86.359233 
L 28.348535 82.064276 
" style="fill:none;stroke:#000000;stroke-width:0.5;"/>
    <path clip-path="url(#p12fd2f0e0b)" d="M 43.434894 45.580862 
L 43.434894 29.638573 
" style="fill:none;stroke:#000000;stroke-width:0.5;"/>
    <path clip-path="url(#p12fd2f0e0b)" d="M 40.090838 51.355979 
L 40.090838 51.355979 
" style="fill:none;stroke:#000000;stroke-width:0.5;"/>
    <path clip-path="url(#p12fd2f0e0b)" d="M 33.805571 76.340829 
L 33.805571 64.459189 
" style="fill:none;stroke:#000000;stroke-width:0.5;"/>
    <path clip-path="url(#p12fd2f0e0b)" d="M 49.142331 49.792872 
L 49.142331 16.653947 
" style="fill:none;stroke:#000000;stroke-width:0.5;"/>
    <path clip-path="url(#p12fd2f0e0b)" d="M 32.305595 74.238446 
L 32.305595 68.41334 
" style="fill:none;stroke:#000000;stroke-width:0.5;"/>
    <path clip-path="url(#p12fd2f0e0b)" d="M 32.793028 81.174662 
L 32.793028 68.290166 
" style="fill:none;stroke:#000000;stroke-width:0.5;"/>
    <path clip-path="url(#p12fd2f0e0b)" d="M 29.401324 85.040245 
L 29.401324 65.441883 
" style="fill:none;stroke:#000000;stroke-width:0.5;"/>
    <path clip-path="url(#p12fd2f0e0b)" d="M 28.855941 76.58486 
L 28.855941 72.19076 
" style="fill:none;stroke:#000000;stroke-width:0.5;"/>
    <path clip-path="url(#p12fd2f0e0b)" d="M 33.817137 82.538303 
L 33.817137 76.902479 
" style="fill:none;stroke:#000000;stroke-width:0.5;"/>
    <path clip-path="url(#p12fd2f0e0b)" d="M 38.072364 60.219731 
L 38.072364 41.488263 
" style="fill:none;stroke:#000000;stroke-width:0.5;"/>
    <path clip-path="url(#p12fd2f0e0b)" d="M 33.634989 75.158394 
L 33.634989 48.743668 
" style="fill:none;stroke:#000000;stroke-width:0.5;"/>
    <path clip-path="url(#p12fd2f0e0b)" d="M 28.731888 87.981148 
L 28.731888 85.519095 
" style="fill:none;stroke:#000000;stroke-width:0.5;"/>
    <path clip-path="url(#p12fd2f0e0b)" d="M 35.210718 43.737255 
L 35.210718 23.421668 
" style="fill:none;stroke:#000000;stroke-width:0.5;"/>
    <path clip-path="url(#p12fd2f0e0b)" d="M 35.065393 70.053272 
L 35.065393 56.030574 
" style="fill:none;stroke:#000000;stroke-width:0.5;"/>
    <path clip-path="url(#p12fd2f0e0b)" d="M 29.193035 87.090569 
L 29.193035 82.907264 
" style="fill:none;stroke:#000000;stroke-width:0.5;"/>
    <path clip-path="url(#p12fd2f0e0b)" d="M 28.568522 77.77214 
L 28.568522 64.794692 
" style="fill:none;stroke:#000000;stroke-width:0.5;"/>
   </g>
   <g id="line2d_1">
    <path clip-path="url(#p12fd2f0e0b)" d="M 27 82.950984 
L 27.768595 81.099307 
L 28.53719 79.247629 
L 29.305785 77.395952 
L 30.07438 75.544275 
L 30.842975 73.692598 
L 31.61157 71.840921 
L 32.380165 69.989244 
L 33.14876 68.137567 
L 33.917355 66.285889 
L 34.68595 64.434212 
L 35.454545 62.582535 
L 36.22314 60.730858 
L 36.991736 58.879181 
L 37.760331 57.027504 
L 38.528926 55.175827 
L 39.297521 53.324149 
L 40.066116 51.472472 
L 40.834711 49.620795 
L 41.603306 47.769118 
L 42.371901 45.917441 
L 43.140496 44.065764 
L 43.909091 42.214086 
L 44.677686 40.362409 
L 45.446281 38.510732 
L 46.214876 36.659055 
L 46.983471 34.807378 
L 47.752066 32.955701 
L 48.520661 31.104024 
L 49.289256 29.252346 
L 50.057851 27.400669 
L 50.826446 25.548992 
L 51.595041 23.697315 
L 52.363636 21.845638 
L 53.132231 19.993961 
L 53.900826 18.142284 
L 54.669421 16.290606 
L 55.438017 14.438929 
L 56.206612 12.587252 
L 56.975207 10.735575 
L 57.743802 8.883898 
L 58.512397 7.032221 
L 59.280992 5.180544 
L 60.049587 3.328866 
L 60.818182 1.477189 
L 61.586777 -0.374488 
L 61.846415 -1 
" style="fill:none;stroke:#000000;stroke-dasharray:1.85,0.8;stroke-dashoffset:0;stroke-width:0.5;"/>
   </g>
   <g id="line2d_2">
    <defs>
     <path d="M 0 3 
C 0.795609 3 1.55874 2.683901 2.12132 2.12132 
C 2.683901 1.55874 3 0.795609 3 0 
C 3 -0.795609 2.683901 -1.55874 2.12132 -2.12132 
C 1.55874 -2.683901 0.795609 -3 0 -3 
C -0.795609 -3 -1.55874 -2.683901 -2.12132 -2.12132 
C -2.683901 -1.55874 -3 -0.795609 -3 0 
C -3 0.795609 -2.683901 1.55874 -2.12132 2.12132 
C -1.55874 2.683901 -0.795609 3 0 3 
z
" id="mad8352d4e5" style="stroke:#000000;"/>
    </defs>
    <g clip-path="url(#p12fd2f0e0b)">
     <use style="stroke:#000000;" x="30.298404" xlink:href="#mad8352d4e5" y="79.077527"/>
     <use style="stroke:#000000;" x="36.939417" xlink:href="#mad8352d4e5" y="58.489475"/>
     <use style="stroke:#000000;" x="32.02089" xlink:href="#mad8352d4e5" y="73.926179"/>
     <use style="stroke:#000000;" x="30.632815" xlink:href="#mad8352d4e5" y="81.124858"/>
     <use style="stroke:#000000;" x="27.641154" xlink:href="#mad8352d4e5" y="89.990314"/>
     <use style="stroke:#000000;" x="30.905022" xlink:href="#mad8352d4e5" y="75.022741"/>
     <use style="stroke:#000000;" x="31.205074" xlink:href="#mad8352d4e5" y="79.719214"/>
     <use style="stroke:#000000;" x="28.545758" xlink:href="#mad8352d4e5" y="85.660121"/>
     <use style="stroke:#000000;" x="34.209062" xlink:href="#mad8352d4e5" y="65.806179"/>
     <use style="stroke:#000000;" x="33.949467" xlink:href="#mad8352d4e5" y="66.359121"/>
     <use style="stroke:#000000;" x="28.66496" xlink:href="#mad8352d4e5" y="85.844237"/>
     <use style="stroke:#000000;" x="28.387881" xlink:href="#mad8352d4e5" y="37.026766"/>
     <use style="stroke:#000000;" x="38.976135" xlink:href="#mad8352d4e5" y="65.302969"/>
     <use style="stroke:#000000;" x="28.348535" xlink:href="#mad8352d4e5" y="84.211754"/>
     <use style="stroke:#000000;" x="43.434894" xlink:href="#mad8352d4e5" y="37.609717"/>
     <use style="stroke:#000000;" x="40.090838" xlink:href="#mad8352d4e5" y="51.355979"/>
     <use style="stroke:#000000;" x="33.805571" xlink:href="#mad8352d4e5" y="70.400009"/>
     <use style="stroke:#000000;" x="49.142331" xlink:href="#mad8352d4e5" y="33.22341"/>
     <use style="stroke:#000000;" x="32.305595" xlink:href="#mad8352d4e5" y="71.325893"/>
     <use style="stroke:#000000;" x="32.793028" xlink:href="#mad8352d4e5" y="74.732414"/>
     <use style="stroke:#000000;" x="29.401324" xlink:href="#mad8352d4e5" y="75.241064"/>
     <use style="stroke:#000000;" x="28.855941" xlink:href="#mad8352d4e5" y="74.38781"/>
     <use style="stroke:#000000;" x="33.817137" xlink:href="#mad8352d4e5" y="79.720391"/>
     <use style="stroke:#000000;" x="38.072364" xlink:href="#mad8352d4e5" y="50.853997"/>
     <use style="stroke:#000000;" x="33.634989" xlink:href="#mad8352d4e5" y="61.951031"/>
     <use style="stroke:#000000;" x="28.731888" xlink:href="#mad8352d4e5" y="86.750121"/>
     <use style="stroke:#000000;" x="35.210718" xlink:href="#mad8352d4e5" y="33.579461"/>
     <use style="stroke:#000000;" x="35.065393" xlink:href="#mad8352d4e5" y="63.041923"/>
     <use style="stroke:#000000;" x="29.193035" xlink:href="#mad8352d4e5" y="84.998917"/>
     <use style="stroke:#000000;" x="28.568522" xlink:href="#mad8352d4e5" y="71.283416"/>
    </g>
   </g>
   <g id="patch_3">
    <path d="M 27 94.5 
L 27 12.96 
" style="fill:none;stroke:#000000;stroke-linecap:square;stroke-linejoin:miter;"/>
   </g>
   <g id="patch_4">
    <path d="M 27 94.5 
L 103.090909 94.5 
" style="fill:none;stroke:#000000;stroke-linecap:square;stroke-linejoin:miter;"/>
   </g>
   <g id="matplotlib.axis_1">
    <g id="xtick_1">
     <g id="line2d_3"/>
     <g id="text_1">
      <text style="font-family:Arial;font-size:8px;font-style:normal;font-weight:normal;text-anchor:middle;" transform="rotate(-0, 27, 103.72625)" x="27" y="103.72625">0</text>
     </g>
    </g>
    <g id="xtick_2">
     <g id="line2d_4"/>
     <g id="text_2">
      <text style="font-family:Arial;font-size:8px;font-style:normal;font-weight:normal;text-anchor:middle;" transform="rotate(-0, 55.331682, 103.72625)" x="55.331682" y="103.72625">5</text>
     </g>
    </g>
    <g id="xtick_3">
     <g id="line2d_5"/>
     <g id="text_3">
      <text style="font-family:Arial;font-size:8px;font-style:normal;font-weight:normal;text-anchor:middle;" transform="rotate(-0, 83.663364, 103.72625)" x="83.663364" y="103.72625">10</text>
     </g>
    </g>
    <g id="text_4">
     <text style="font-family:Arial;font-size:10px;font-style:normal;font-weight:normal;text-anchor:middle;" transform="rotate(-0, 65.045455, 116.474063)" x="65.045455" y="116.474063">Exc</text>
    </g>
   </g>
   <g id="matplotlib.axis_2">
    <g id="ytick_1">
     <g id="line2d_6"/>
     <g id="text_5">
      <text style="font-family:Arial;font-size:8px;font-style:normal;font-weight:normal;text-anchor:end;" transform="rotate(-0, 23.5, 97.363125)" x="23.5" y="97.363125">0</text>
     </g>
    </g>
    <g id="ytick_2">
     <g id="line2d_7"/>
     <g id="text_6">
      <text style="font-family:Arial;font-size:8px;font-style:normal;font-weight:normal;text-anchor:end;" transform="rotate(-0, 23.5, 67.002529)" x="23.5" y="67.002529">5</text>
     </g>
    </g>
    <g id="ytick_3">
     <g id="line2d_8"/>
     <g id="text_7">
      <text style="font-family:Arial;font-size:8px;font-style:normal;font-weight:normal;text-anchor:end;" transform="rotate(-0, 23.5, 36.641933)" x="23.5" y="36.641933">10</text>
     </g>
    </g>
    <g id="text_8">
     <text style="font-family:Arial;font-size:10px;font-style:normal;font-weight:normal;text-anchor:middle;" transform="rotate(-90, 8.615, 53.73)" x="8.615" y="53.73">Inh</text>
    </g>
   </g>
   <g id="legend_1">
    <g id="line2d_9">
     <path d="M 36 75.622656 
L 56 75.622656 
" style="fill:none;stroke:#000000;stroke-dasharray:1.85,0.8;stroke-dashoffset:0;stroke-width:0.5;"/>
    </g>
    <g id="line2d_10"/>
    <g id="text_9">
     <!-- $R^2$ 0.54 -->
     <g transform="translate(64 72.875)">
      <text>
       <tspan style="font-family:DejaVu Sans;font-size:10px;font-style:oblique;font-weight:oblique;" x="0" y="-0.9765625">R</tspan>
       <tspan style="font-family:DejaVu Sans;font-size:7px;font-style:book;font-weight:book;" x="7.650794" y="-4.8046875">2</tspan>
       <tspan style="font-family:Arial;font-size:10px;font-style:regular;font-weight:regular;" x="12.377845 15.156165 20.717689 23.496009 29.057533" y="-0.9765625"> 0.54</tspan>
      </text>
     </g>
     <text style="font-family:Arial;font-size:10px;font-style:normal;font-weight:normal;" transform="translate(64 83.4875)"> slope 2.25</text>
    </g>
   </g>
  </g>
  <g id="axes_2">
   <g id="patch_5">
    <path d="M 118.309091 94.5 
L 194.4 94.5 
L 194.4 12.96 
L 118.309091 12.96 
z
" style="fill:#ffffff;"/>
   </g>
   <g id="PathCollection_1">
    <defs>
     <path d="M 0 2.44949 
C 0.649612 2.44949 1.272706 2.191396 1.732051 1.732051 
C 2.191396 1.272706 2.44949 0.649612 2.44949 0 
C 2.44949 -0.649612 2.191396 -1.272706 1.732051 -1.732051 
C 1.272706 -2.191396 0.649612 -2.44949 0 -2.44949 
C -0.649612 -2.44949 -1.272706 -2.191396 -1.732051 -1.732051 
C -2.191396 -1.272706 -2.44949 -0.649612 -2.44949 0 
C -2.44949 0.649612 -2.191396 1.272706 -1.732051 1.732051 
C -1.272706 2.191396 -0.649612 2.44949 0 2.44949 
z
" id="ma94ca12ce9" style="stroke:#000000;"/>
    </defs>
    <g clip-path="url(#p58f42b61b2)">
     <use style="stroke:#000000;" x="133.519514" xlink:href="#ma94ca12ce9" y="87.156166"/>
     <use style="stroke:#000000;" x="136.172028" xlink:href="#ma94ca12ce9" y="81.987419"/>
     <use style="stroke:#000000;" x="126.810654" xlink:href="#ma94ca12ce9" y="87.288736"/>
     <use style="stroke:#000000;" x="127.478521" xlink:href="#ma94ca12ce9" y="84.0081"/>
     <use style="stroke:#000000;" x="122.457528" xlink:href="#ma94ca12ce9" y="92.795442"/>
     <use style="stroke:#000000;" x="130.377154" xlink:href="#ma94ca12ce9" y="75.599973"/>
     <use style="stroke:#000000;" x="129.01404" xlink:href="#ma94ca12ce9" y="85.705341"/>
     <use style="stroke:#000000;" x="121.651997" xlink:href="#ma94ca12ce9" y="90.315655"/>
     <use style="stroke:#000000;" x="139.925481" xlink:href="#ma94ca12ce9" y="82.18079"/>
     <use style="stroke:#000000;" x="128.946153" xlink:href="#ma94ca12ce9" y="78.579435"/>
     <use style="stroke:#000000;" x="122.165304" xlink:href="#ma94ca12ce9" y="88.828294"/>
     <use style="stroke:#000000;" x="122.100775" xlink:href="#ma94ca12ce9" y="90.682264"/>
     <use style="stroke:#000000;" x="147.937431" xlink:href="#ma94ca12ce9" y="66.739642"/>
     <use style="stroke:#000000;" x="121.935032" xlink:href="#ma94ca12ce9" y="87.753428"/>
     <use style="stroke:#000000;" x="163.402914" xlink:href="#ma94ca12ce9" y="69.457656"/>
     <use style="stroke:#000000;" x="179.337443" xlink:href="#ma94ca12ce9" y="94.5"/>
     <use style="stroke:#000000;" x="138.35798" xlink:href="#ma94ca12ce9" y="75.836174"/>
     <use style="stroke:#000000;" x="190.635636" xlink:href="#ma94ca12ce9" y="42.444969"/>
     <use style="stroke:#000000;" x="130.969278" xlink:href="#ma94ca12ce9" y="85.349852"/>
     <use style="stroke:#000000;" x="139.475467" xlink:href="#ma94ca12ce9" y="74.260876"/>
     <use style="stroke:#000000;" x="130.040276" xlink:href="#ma94ca12ce9" y="63.714653"/>
     <use style="stroke:#000000;" x="129.558487" xlink:href="#ma94ca12ce9" y="87.597695"/>
     <use style="stroke:#000000;" x="136.070059" xlink:href="#ma94ca12ce9" y="85.647178"/>
     <use style="stroke:#000000;" x="156.535581" xlink:href="#ma94ca12ce9" y="65.07638"/>
     <use style="stroke:#000000;" x="148.090435" xlink:href="#ma94ca12ce9" y="53.007424"/>
     <use style="stroke:#000000;" x="123.321523" xlink:href="#ma94ca12ce9" y="90.632577"/>
     <use style="stroke:#000000;" x="134.68445" xlink:href="#ma94ca12ce9" y="62.588027"/>
     <use style="stroke:#000000;" x="141.525024" xlink:href="#ma94ca12ce9" y="72.472974"/>
     <use style="stroke:#000000;" x="124.747464" xlink:href="#ma94ca12ce9" y="87.928814"/>
     <use style="stroke:#000000;" x="126.419322" xlink:href="#ma94ca12ce9" y="74.114865"/>
    </g>
   </g>
   <g id="line2d_11">
    <path clip-path="url(#p58f42b61b2)" d="M 118.309091 86.743605 
L 119.077686 86.413567 
L 119.846281 86.083529 
L 120.614876 85.753491 
L 121.383471 85.423454 
L 122.152066 85.093416 
L 122.920661 84.763378 
L 123.689256 84.433341 
L 124.457851 84.103303 
L 125.226446 83.773265 
L 125.995041 83.443227 
L 126.763636 83.11319 
L 127.532231 82.783152 
L 128.300826 82.453114 
L 129.069421 82.123076 
L 129.838017 81.793039 
L 130.606612 81.463001 
L 131.375207 81.132963 
L 132.143802 80.802925 
L 132.912397 80.472888 
L 133.680992 80.14285 
L 134.449587 79.812812 
L 135.218182 79.482774 
L 135.986777 79.152737 
L 136.755372 78.822699 
L 137.523967 78.492661 
L 138.292562 78.162624 
L 139.061157 77.832586 
L 139.829752 77.502548 
L 140.598347 77.17251 
L 141.366942 76.842473 
L 142.135537 76.512435 
L 142.904132 76.182397 
L 143.672727 75.852359 
L 144.441322 75.522322 
L 145.209917 75.192284 
L 145.978512 74.862246 
L 146.747107 74.532208 
L 147.515702 74.202171 
L 148.284298 73.872133 
L 149.052893 73.542095 
L 149.821488 73.212058 
L 150.590083 72.88202 
L 151.358678 72.551982 
L 152.127273 72.221944 
L 152.895868 71.891907 
L 153.664463 71.561869 
L 154.433058 71.231831 
L 155.201653 70.901793 
L 155.970248 70.571756 
L 156.738843 70.241718 
L 157.507438 69.91168 
L 158.276033 69.581642 
L 159.044628 69.251605 
L 159.813223 68.921567 
L 160.581818 68.591529 
L 161.350413 68.261491 
L 162.119008 67.931454 
L 162.887603 67.601416 
L 163.656198 67.271378 
L 164.424793 66.941341 
L 165.193388 66.611303 
L 165.961983 66.281265 
L 166.730579 65.951227 
L 167.499174 65.62119 
L 168.267769 65.291152 
L 169.036364 64.961114 
L 169.804959 64.631076 
L 170.573554 64.301039 
L 171.342149 63.971001 
L 172.110744 63.640963 
L 172.879339 63.310925 
L 173.647934 62.980888 
L 174.416529 62.65085 
L 175.185124 62.320812 
L 175.953719 61.990775 
L 176.722314 61.660737 
L 177.490909 61.330699 
L 178.259504 61.000661 
L 179.028099 60.670624 
L 179.796694 60.340586 
L 180.565289 60.010548 
L 181.333884 59.68051 
L 182.102479 59.350473 
L 182.871074 59.020435 
L 183.639669 58.690397 
L 184.408264 58.360359 
L 185.17686 58.030322 
L 185.945455 57.700284 
L 186.71405 57.370246 
L 187.482645 57.040208 
L 188.25124 56.710171 
L 189.019835 56.380133 
L 189.78843 56.050095 
L 190.557025 55.720058 
L 191.32562 55.39002 
L 192.094215 55.059982 
L 192.86281 54.729944 
L 193.631405 54.399907 
L 194.4 54.069869 
" style="fill:none;stroke:#000000;stroke-dasharray:1.85,0.8;stroke-dashoffset:0;stroke-width:0.5;"/>
   </g>
   <g id="patch_6">
    <path d="M 118.309091 94.5 
L 118.309091 12.96 
" style="fill:none;stroke:#000000;stroke-linecap:square;stroke-linejoin:miter;"/>
   </g>
   <g id="patch_7">
    <path d="M 118.309091 94.5 
L 194.4 94.5 
" style="fill:none;stroke:#000000;stroke-linecap:square;stroke-linejoin:miter;"/>
   </g>
   <g id="matplotlib.axis_3">
    <g id="xtick_4">
     <g id="line2d_12"/>
     <g id="text_10">
      <text style="font-family:Arial;font-size:8px;font-style:normal;font-weight:normal;text-anchor:middle;" transform="rotate(-0, 118.309091, 103.72625)" x="118.309091" y="103.72625">0</text>
     </g>
    </g>
    <g id="xtick_5">
     <g id="line2d_13"/>
     <g id="text_11">
      <text style="font-family:Arial;font-size:8px;font-style:normal;font-weight:normal;text-anchor:middle;" transform="rotate(-0, 153.912094, 103.72625)" x="153.912094" y="103.72625">2</text>
     </g>
    </g>
    <g id="xtick_6">
     <g id="line2d_14"/>
     <g id="text_12">
      <text style="font-family:Arial;font-size:8px;font-style:normal;font-weight:normal;text-anchor:middle;" transform="rotate(-0, 189.515098, 103.72625)" x="189.515098" y="103.72625">4</text>
     </g>
    </g>
    <g id="text_13">
     <!-- $\sigma$(Exc) -->
     <g transform="translate(141.504545 116.61625)">
      <text>
       <tspan style="font-family:DejaVu Sans;font-size:10px;font-style:oblique;font-weight:oblique;" x="0" y="-0.71875">σ</tspan>
       <tspan style="font-family:Arial;font-size:10px;font-style:regular;font-weight:regular;" x="6.337891 9.667969 16.337891 21.337891 26.337891" y="-0.71875">(Exc)</tspan>
      </text>
     </g>
    </g>
   </g>
   <g id="matplotlib.axis_4">
    <g id="ytick_4">
     <g id="line2d_15"/>
     <g id="text_14">
      <text style="font-family:Arial;font-size:8px;font-style:normal;font-weight:normal;text-anchor:end;" transform="rotate(-0, 114.809091, 97.363125)" x="114.809091" y="97.363125">0</text>
     </g>
    </g>
    <g id="ytick_5">
     <g id="line2d_16"/>
     <g id="text_15">
      <text style="font-family:Arial;font-size:8px;font-style:normal;font-weight:normal;text-anchor:end;" transform="rotate(-0, 114.809091, 78.286806)" x="114.809091" y="78.286806">1</text>
     </g>
    </g>
    <g id="ytick_6">
     <g id="line2d_17"/>
     <g id="text_16">
      <text style="font-family:Arial;font-size:8px;font-style:normal;font-weight:normal;text-anchor:end;" transform="rotate(-0, 114.809091, 59.210487)" x="114.809091" y="59.210487">2</text>
     </g>
    </g>
    <g id="ytick_7">
     <g id="line2d_18"/>
     <g id="text_17">
      <text style="font-family:Arial;font-size:8px;font-style:normal;font-weight:normal;text-anchor:end;" transform="rotate(-0, 114.809091, 40.134168)" x="114.809091" y="40.134168">3</text>
     </g>
    </g>
    <g id="ytick_8">
     <g id="line2d_19"/>
     <g id="text_18">
      <text style="font-family:Arial;font-size:8px;font-style:normal;font-weight:normal;text-anchor:end;" transform="rotate(-0, 114.809091, 21.057849)" x="114.809091" y="21.057849">4</text>
     </g>
    </g>
    <g id="text_19">
     <!-- $\sigma$(Inh) -->
     <g transform="translate(104.160341 67.18)rotate(-90)">
      <text>
       <tspan style="font-family:DejaVu Sans;font-size:10px;font-style:oblique;font-weight:oblique;" x="0" y="-0.71875">σ</tspan>
       <tspan style="font-family:Arial;font-size:10px;font-style:regular;font-weight:regular;" x="6.337891 9.667969 12.446289 18.007812 23.569336" y="-0.71875">(Inh)</tspan>
      </text>
     </g>
    </g>
   </g>
   <g id="legend_2">
    <g id="line2d_20">
     <path d="M 108.478125 31.995156 
L 128.478125 31.995156 
" style="fill:none;stroke:#000000;stroke-dasharray:1.85,0.8;stroke-dashoffset:0;stroke-width:0.5;"/>
    </g>
    <g id="line2d_21"/>
    <g id="text_20">
     <!-- $R^2$ 0.33 -->
     <g transform="translate(136.478125 29.2475)">
      <text>
       <tspan style="font-family:DejaVu Sans;font-size:10px;font-style:oblique;font-weight:oblique;" x="0" y="-0.9765625">R</tspan>
       <tspan style="font-family:DejaVu Sans;font-size:7px;font-style:book;font-weight:book;" x="7.650794" y="-4.8046875">2</tspan>
       <tspan style="font-family:Arial;font-size:10px;font-style:regular;font-weight:regular;" x="12.377845 15.156165 20.717689 23.496009 29.057533" y="-0.9765625"> 0.33</tspan>
      </text>
     </g>
     <text style="font-family:Arial;font-size:10px;font-style:normal;font-weight:normal;" transform="translate(136.478125 39.86)"> slope 0.40</text>
    </g>
   </g>
  </g>
 </g>
 <defs>
  <clipPath id="p12fd2f0e0b">
   <rect height="81.54" width="76.090909" x="27" y="12.96"/>
  </clipPath>
  <clipPath id="p58f42b61b2">
   <rect height="81.54" width="76.090909" x="118.309091" y="12.96"/>
  </clipPath>
 </defs>
</svg>
