<?xml version="1.0" encoding="utf-8" standalone="no"?>
<!DOCTYPE svg PUBLIC "-//W3C//DTD SVG 1.1//EN"
  "http://www.w3.org/Graphics/SVG/1.1/DTD/svg11.dtd">
<!-- Created with matplotlib (http://matplotlib.org/) -->
<svg height="108pt" version="1.1" viewBox="0 0 216 108" width="216pt" xmlns="http://www.w3.org/2000/svg" xmlns:xlink="http://www.w3.org/1999/xlink">
 <defs>
  <style type="text/css">
*{stroke-linecap:butt;stroke-linejoin:round;}
  </style>
 </defs>
 <g id="figure_1">
  <g id="patch_1">
   <path d="M 0 108 
L 216 108 
L 216 0 
L 0 0 
z
" style="fill:#ffffff;"/>
  </g>
  <g id="axes_1">
   <g id="patch_2">
    <path d="M 27 94.5 
L 103.090909 94.5 
L 103.090909 12.96 
L 27 12.96 
z
" style="fill:#ffffff;"/>
   </g>
   <g id="LineCollection_1">
    <path clip-path="url(#p3d8437e5cc)" d="M 30.081057 55.348774 
L 46.954946 55.348774 
" style="fill:none;stroke:#000000;stroke-width:0.5;"/>
    <path clip-path="url(#p3d8437e5cc)" d="M 25.91147 72.327489 
L 39.304239 72.327489 
" style="fill:none;stroke:#000000;stroke-width:0.5;"/>
    <path clip-path="url(#p3d8437e5cc)" d="M 25.174058 80.630203 
L 32.28302 80.630203 
" style="fill:none;stroke:#000000;stroke-width:0.5;"/>
    <path clip-path="url(#p3d8437e5cc)" d="M 26.020981 69.771971 
L 37.513048 69.771971 
" style="fill:none;stroke:#000000;stroke-width:0.5;"/>
    <path clip-path="url(#p3d8437e5cc)" d="M 19.957431 63.319192 
L 45.191865 63.319192 
" style="fill:none;stroke:#000000;stroke-width:0.5;"/>
    <path clip-path="url(#p3d8437e5cc)" d="M 27.871815 45.60224 
L 49.070971 45.60224 
" style="fill:none;stroke:#000000;stroke-width:0.5;"/>
    <path clip-path="url(#p3d8437e5cc)" d="M 26.251543 79.661282 
L 38.444185 79.661282 
" style="fill:none;stroke:#000000;stroke-width:0.5;"/>
    <path clip-path="url(#p3d8437e5cc)" d="M 27.584416 73.947961 
L 34.873408 73.947961 
" style="fill:none;stroke:#000000;stroke-width:0.5;"/>
    <path clip-path="url(#p3d8437e5cc)" d="M 26.844197 85.350125 
L 30.282331 85.350125 
" style="fill:none;stroke:#000000;stroke-width:0.5;"/>
    <path clip-path="url(#p3d8437e5cc)" d="M 26.242692 73.225156 
L 32.658475 73.225156 
" style="fill:none;stroke:#000000;stroke-width:0.5;"/>
    <path clip-path="url(#p3d8437e5cc)" d="M 25.081659 60.156816 
L 43.537925 60.156816 
" style="fill:none;stroke:#000000;stroke-width:0.5;"/>
    <path clip-path="url(#p3d8437e5cc)" d="M 24.829117 65.862344 
L 38.937601 65.862344 
" style="fill:none;stroke:#000000;stroke-width:0.5;"/>
    <path clip-path="url(#p3d8437e5cc)" d="M 22.389726 61.667105 
L 48.06665 61.667105 
" style="fill:none;stroke:#000000;stroke-width:0.5;"/>
    <path clip-path="url(#p3d8437e5cc)" d="M 21.67197 32.692718 
L 49.823936 32.692718 
" style="fill:none;stroke:#000000;stroke-width:0.5;"/>
    <path clip-path="url(#p3d8437e5cc)" d="M 27 88.308451 
L 27 88.308451 
" style="fill:none;stroke:#000000;stroke-width:0.5;"/>
    <path clip-path="url(#p3d8437e5cc)" d="M 25.877167 61.79056 
L 36.61409 61.79056 
" style="fill:none;stroke:#000000;stroke-width:0.5;"/>
    <path clip-path="url(#p3d8437e5cc)" d="M 30.270491 32.987187 
L 49.322175 32.987187 
" style="fill:none;stroke:#000000;stroke-width:0.5;"/>
    <path clip-path="url(#p3d8437e5cc)" d="M 23.936042 71.421981 
L 35.093031 71.421981 
" style="fill:none;stroke:#000000;stroke-width:0.5;"/>
    <path clip-path="url(#p3d8437e5cc)" d="M 26.391341 75.863756 
L 32.78099 75.863756 
" style="fill:none;stroke:#000000;stroke-width:0.5;"/>
    <path clip-path="url(#p3d8437e5cc)" d="M 31.839242 45.697519 
L 70.261864 45.697519 
" style="fill:none;stroke:#000000;stroke-width:0.5;"/>
    <path clip-path="url(#p3d8437e5cc)" d="M 28.179285 80.918241 
L 31.781643 80.918241 
" style="fill:none;stroke:#000000;stroke-width:0.5;"/>
    <path clip-path="url(#p3d8437e5cc)" d="M 26.279881 76.340998 
L 32.328859 76.340998 
" style="fill:none;stroke:#000000;stroke-width:0.5;"/>
    <path clip-path="url(#p3d8437e5cc)" d="M 26.859572 85.214033 
L 30.08302 85.214033 
" style="fill:none;stroke:#000000;stroke-width:0.5;"/>
    <path clip-path="url(#p3d8437e5cc)" d="M 26.794231 76.925829 
L 29.438572 76.925829 
" style="fill:none;stroke:#000000;stroke-width:0.5;"/>
    <path clip-path="url(#p3d8437e5cc)" d="M 28.650441 67.73334 
L 39.61198 67.73334 
" style="fill:none;stroke:#000000;stroke-width:0.5;"/>
    <path clip-path="url(#p3d8437e5cc)" d="M 29.08156 70.947245 
L 40.558465 70.947245 
" style="fill:none;stroke:#000000;stroke-width:0.5;"/>
    <path clip-path="url(#p3d8437e5cc)" d="M 21.432892 63.894581 
L 44.329787 63.894581 
" style="fill:none;stroke:#000000;stroke-width:0.5;"/>
    <path clip-path="url(#p3d8437e5cc)" d="M 30.163033 73.769078 
L 41.53974 73.769078 
" style="fill:none;stroke:#000000;stroke-width:0.5;"/>
    <path clip-path="url(#p3d8437e5cc)" d="M 27 94.5 
L 27 94.5 
" style="fill:none;stroke:#000000;stroke-width:0.5;"/>
    <path clip-path="url(#p3d8437e5cc)" d="M 27.123824 65.480408 
L 28.099071 65.480408 
" style="fill:none;stroke:#000000;stroke-width:0.5;"/>
   </g>
   <g id="LineCollection_2">
    <path clip-path="url(#p3d8437e5cc)" d="M 38.518001 64.171285 
L 38.518001 46.526263 
" style="fill:none;stroke:#000000;stroke-width:0.5;"/>
    <path clip-path="url(#p3d8437e5cc)" d="M 32.607855 77.925292 
L 32.607855 66.729686 
" style="fill:none;stroke:#000000;stroke-width:0.5;"/>
    <path clip-path="url(#p3d8437e5cc)" d="M 28.728539 82.409831 
L 28.728539 78.850575 
" style="fill:none;stroke:#000000;stroke-width:0.5;"/>
    <path clip-path="url(#p3d8437e5cc)" d="M 31.767015 78.887767 
L 31.767015 60.656175 
" style="fill:none;stroke:#000000;stroke-width:0.5;"/>
    <path clip-path="url(#p3d8437e5cc)" d="M 32.574648 73.36444 
L 32.574648 53.273944 
" style="fill:none;stroke:#000000;stroke-width:0.5;"/>
    <path clip-path="url(#p3d8437e5cc)" d="M 38.471393 55.622516 
L 38.471393 35.581963 
" style="fill:none;stroke:#000000;stroke-width:0.5;"/>
    <path clip-path="url(#p3d8437e5cc)" d="M 32.347864 81.258178 
L 32.347864 78.064387 
" style="fill:none;stroke:#000000;stroke-width:0.5;"/>
    <path clip-path="url(#p3d8437e5cc)" d="M 31.228912 77.614448 
L 31.228912 70.281473 
" style="fill:none;stroke:#000000;stroke-width:0.5;"/>
    <path clip-path="url(#p3d8437e5cc)" d="M 28.563264 86.95667 
L 28.563264 83.74358 
" style="fill:none;stroke:#000000;stroke-width:0.5;"/>
    <path clip-path="url(#p3d8437e5cc)" d="M 29.450584 76.849598 
L 29.450584 69.600714 
" style="fill:none;stroke:#000000;stroke-width:0.5;"/>
    <path clip-path="url(#p3d8437e5cc)" d="M 34.309792 70.44211 
L 34.309792 49.871522 
" style="fill:none;stroke:#000000;stroke-width:0.5;"/>
    <path clip-path="url(#p3d8437e5cc)" d="M 31.883359 73.296698 
L 31.883359 58.427991 
" style="fill:none;stroke:#000000;stroke-width:0.5;"/>
    <path clip-path="url(#p3d8437e5cc)" d="M 35.228188 62.740306 
L 35.228188 60.593903 
" style="fill:none;stroke:#000000;stroke-width:0.5;"/>
    <path clip-path="url(#p3d8437e5cc)" d="M 35.747953 39.221549 
L 35.747953 26.163888 
" style="fill:none;stroke:#000000;stroke-width:0.5;"/>
    <path clip-path="url(#p3d8437e5cc)" d="M 27 92.182774 
L 27 84.434129 
" style="fill:none;stroke:#000000;stroke-width:0.5;"/>
    <path clip-path="url(#p3d8437e5cc)" d="M 31.245628 67.147734 
L 31.245628 56.433385 
" style="fill:none;stroke:#000000;stroke-width:0.5;"/>
    <path clip-path="url(#p3d8437e5cc)" d="M 39.796333 49.131517 
L 39.796333 16.842857 
" style="fill:none;stroke:#000000;stroke-width:0.5;"/>
    <path clip-path="url(#p3d8437e5cc)" d="M 29.514536 80.210617 
L 29.514536 62.633344 
" style="fill:none;stroke:#000000;stroke-width:0.5;"/>
    <path clip-path="url(#p3d8437e5cc)" d="M 29.586166 78.994414 
L 29.586166 72.733098 
" style="fill:none;stroke:#000000;stroke-width:0.5;"/>
    <path clip-path="url(#p3d8437e5cc)" d="M 51.050553 59.895103 
L 51.050553 31.499935 
" style="fill:none;stroke:#000000;stroke-width:0.5;"/>
    <path clip-path="url(#p3d8437e5cc)" d="M 29.980464 82.52767 
L 29.980464 79.308813 
" style="fill:none;stroke:#000000;stroke-width:0.5;"/>
    <path clip-path="url(#p3d8437e5cc)" d="M 29.30437 82.648577 
L 29.30437 70.033419 
" style="fill:none;stroke:#000000;stroke-width:0.5;"/>
    <path clip-path="url(#p3d8437e5cc)" d="M 28.471296 86.932112 
L 28.471296 83.495953 
" style="fill:none;stroke:#000000;stroke-width:0.5;"/>
    <path clip-path="url(#p3d8437e5cc)" d="M 28.116401 78.758454 
L 28.116401 75.093204 
" style="fill:none;stroke:#000000;stroke-width:0.5;"/>
    <path clip-path="url(#p3d8437e5cc)" d="M 34.131211 77.238096 
L 34.131211 58.228584 
" style="fill:none;stroke:#000000;stroke-width:0.5;"/>
    <path clip-path="url(#p3d8437e5cc)" d="M 34.820012 73.783839 
L 34.820012 68.110651 
" style="fill:none;stroke:#000000;stroke-width:0.5;"/>
    <path clip-path="url(#p3d8437e5cc)" d="M 32.881339 66.57125 
L 32.881339 61.217912 
" style="fill:none;stroke:#000000;stroke-width:0.5;"/>
    <path clip-path="url(#p3d8437e5cc)" d="M 35.851386 79.876612 
L 35.851386 67.661545 
" style="fill:none;stroke:#000000;stroke-width:0.5;"/>
    <path clip-path="url(#p3d8437e5cc)" d="M 27 94.5 
L 27 94.5 
" style="fill:none;stroke:#000000;stroke-width:0.5;"/>
    <path clip-path="url(#p3d8437e5cc)" d="M 27.611447 75.25811 
L 27.611447 55.702706 
" style="fill:none;stroke:#000000;stroke-width:0.5;"/>
   </g>
   <g id="line2d_1">
    <path clip-path="url(#p3d8437e5cc)" d="M 27 80.89451 
L 27.768595 79.174541 
L 28.53719 77.454571 
L 29.305785 75.734602 
L 30.07438 74.014633 
L 30.842975 72.294664 
L 31.61157 70.574694 
L 32.380165 68.854725 
L 33.14876 67.134756 
L 33.917355 65.414786 
L 34.68595 63.694817 
L 35.454545 61.974848 
L 36.22314 60.254879 
L 36.991736 58.534909 
L 37.760331 56.81494 
L 38.528926 55.094971 
L 39.297521 53.375001 
L 40.066116 51.655032 
L 40.834711 49.935063 
L 41.603306 48.215094 
L 42.371901 46.495124 
L 43.140496 44.775155 
L 43.909091 43.055186 
L 44.677686 41.335216 
L 45.446281 39.615247 
L 46.214876 37.895278 
L 46.983471 36.175309 
L 47.752066 34.455339 
L 48.520661 32.73537 
L 49.289256 31.015401 
L 50.057851 29.295431 
L 50.826446 27.575462 
L 51.595041 25.855493 
L 52.363636 24.135524 
L 53.132231 22.415554 
L 53.900826 20.695585 
L 54.669421 18.975616 
L 55.438017 17.255646 
L 56.206612 15.535677 
L 56.975207 13.815708 
L 57.743802 12.095739 
L 58.512397 10.375769 
L 59.280992 8.6558 
L 60.049587 6.935831 
L 60.818182 5.215861 
L 61.586777 3.495892 
L 62.355372 1.775923 
L 63.123967 0.055954 
L 63.595836 -1 
" style="fill:none;stroke:#000000;stroke-dasharray:1.85,0.8;stroke-dashoffset:0;stroke-width:0.5;"/>
   </g>
   <g id="line2d_2">
    <defs>
     <path d="M 0 3 
C 0.795609 3 1.55874 2.683901 2.12132 2.12132 
C 2.683901 1.55874 3 0.795609 3 0 
C 3 -0.795609 2.683901 -1.55874 2.12132 -2.12132 
C 1.55874 -2.683901 0.795609 -3 0 -3 
C -0.795609 -3 -1.55874 -2.683901 -2.12132 -2.12132 
C -2.683901 -1.55874 -3 -0.795609 -3 0 
C -3 0.795609 -2.683901 1.55874 -2.12132 2.12132 
C -1.55874 2.683901 -0.795609 3 0 3 
z
" id="ma328ba4d11" style="stroke:#000000;"/>
    </defs>
    <g clip-path="url(#p3d8437e5cc)">
     <use style="stroke:#000000;" x="38.518001" xlink:href="#ma328ba4d11" y="55.348774"/>
     <use style="stroke:#000000;" x="32.607855" xlink:href="#ma328ba4d11" y="72.327489"/>
     <use style="stroke:#000000;" x="28.728539" xlink:href="#ma328ba4d11" y="80.630203"/>
     <use style="stroke:#000000;" x="31.767015" xlink:href="#ma328ba4d11" y="69.771971"/>
     <use style="stroke:#000000;" x="32.574648" xlink:href="#ma328ba4d11" y="63.319192"/>
     <use style="stroke:#000000;" x="38.471393" xlink:href="#ma328ba4d11" y="45.60224"/>
     <use style="stroke:#000000;" x="32.347864" xlink:href="#ma328ba4d11" y="79.661282"/>
     <use style="stroke:#000000;" x="31.228912" xlink:href="#ma328ba4d11" y="73.947961"/>
     <use style="stroke:#000000;" x="28.563264" xlink:href="#ma328ba4d11" y="85.350125"/>
     <use style="stroke:#000000;" x="29.450584" xlink:href="#ma328ba4d11" y="73.225156"/>
     <use style="stroke:#000000;" x="34.309792" xlink:href="#ma328ba4d11" y="60.156816"/>
     <use style="stroke:#000000;" x="31.883359" xlink:href="#ma328ba4d11" y="65.862344"/>
     <use style="stroke:#000000;" x="35.228188" xlink:href="#ma328ba4d11" y="61.667105"/>
     <use style="stroke:#000000;" x="35.747953" xlink:href="#ma328ba4d11" y="32.692718"/>
     <use style="stroke:#000000;" x="27" xlink:href="#ma328ba4d11" y="88.308451"/>
     <use style="stroke:#000000;" x="31.245628" xlink:href="#ma328ba4d11" y="61.79056"/>
     <use style="stroke:#000000;" x="39.796333" xlink:href="#ma328ba4d11" y="32.987187"/>
     <use style="stroke:#000000;" x="29.514536" xlink:href="#ma328ba4d11" y="71.421981"/>
     <use style="stroke:#000000;" x="29.586166" xlink:href="#ma328ba4d11" y="75.863756"/>
     <use style="stroke:#000000;" x="51.050553" xlink:href="#ma328ba4d11" y="45.697519"/>
     <use style="stroke:#000000;" x="29.980464" xlink:href="#ma328ba4d11" y="80.918241"/>
     <use style="stroke:#000000;" x="29.30437" xlink:href="#ma328ba4d11" y="76.340998"/>
     <use style="stroke:#000000;" x="28.471296" xlink:href="#ma328ba4d11" y="85.214033"/>
     <use style="stroke:#000000;" x="28.116401" xlink:href="#ma328ba4d11" y="76.925829"/>
     <use style="stroke:#000000;" x="34.131211" xlink:href="#ma328ba4d11" y="67.73334"/>
     <use style="stroke:#000000;" x="34.820012" xlink:href="#ma328ba4d11" y="70.947245"/>
     <use style="stroke:#000000;" x="32.881339" xlink:href="#ma328ba4d11" y="63.894581"/>
     <use style="stroke:#000000;" x="35.851386" xlink:href="#ma328ba4d11" y="73.769078"/>
     <use style="stroke:#000000;" x="27" xlink:href="#ma328ba4d11" y="94.5"/>
     <use style="stroke:#000000;" x="27.611447" xlink:href="#ma328ba4d11" y="65.480408"/>
    </g>
   </g>
   <g id="patch_3">
    <path d="M 27 94.5 
L 27 12.96 
" style="fill:none;stroke:#000000;stroke-linecap:square;stroke-linejoin:miter;"/>
   </g>
   <g id="patch_4">
    <path d="M 27 94.5 
L 103.090909 94.5 
" style="fill:none;stroke:#000000;stroke-linecap:square;stroke-linejoin:miter;"/>
   </g>
   <g id="matplotlib.axis_1">
    <g id="xtick_1">
     <g id="line2d_3"/>
     <g id="text_1">
      <text style="font-family:Arial;font-size:8px;font-style:normal;font-weight:normal;text-anchor:middle;" transform="rotate(-0, 27, 103.72625)" x="27" y="103.72625">0</text>
     </g>
    </g>
    <g id="xtick_2">
     <g id="line2d_4"/>
     <g id="text_2">
      <text style="font-family:Arial;font-size:8px;font-style:normal;font-weight:normal;text-anchor:middle;" transform="rotate(-0, 56.620533, 103.72625)" x="56.620533" y="103.72625">5</text>
     </g>
    </g>
    <g id="xtick_3">
     <g id="line2d_5"/>
     <g id="text_3">
      <text style="font-family:Arial;font-size:8px;font-style:normal;font-weight:normal;text-anchor:middle;" transform="rotate(-0, 86.241066, 103.72625)" x="86.241066" y="103.72625">10</text>
     </g>
    </g>
    <g id="text_4">
     <text style="font-family:Arial;font-size:10px;font-style:normal;font-weight:normal;text-anchor:middle;" transform="rotate(-0, 65.045455, 116.474063)" x="65.045455" y="116.474063">Exc</text>
    </g>
   </g>
   <g id="matplotlib.axis_2">
    <g id="ytick_1">
     <g id="line2d_6"/>
     <g id="text_5">
      <text style="font-family:Arial;font-size:8px;font-style:normal;font-weight:normal;text-anchor:end;" transform="rotate(-0, 23.5, 97.363125)" x="23.5" y="97.363125">0</text>
     </g>
    </g>
    <g id="ytick_2">
     <g id="line2d_7"/>
     <g id="text_6">
      <text style="font-family:Arial;font-size:8px;font-style:normal;font-weight:normal;text-anchor:end;" transform="rotate(-0, 23.5, 65.621379)" x="23.5" y="65.621379">5</text>
     </g>
    </g>
    <g id="ytick_3">
     <g id="line2d_8"/>
     <g id="text_7">
      <text style="font-family:Arial;font-size:8px;font-style:normal;font-weight:normal;text-anchor:end;" transform="rotate(-0, 23.5, 33.879634)" x="23.5" y="33.879634">10</text>
     </g>
    </g>
    <g id="text_8">
     <text style="font-family:Arial;font-size:10px;font-style:normal;font-weight:normal;text-anchor:middle;" transform="rotate(-90, 8.615, 53.73)" x="8.615" y="53.73">Inh</text>
    </g>
   </g>
   <g id="legend_1">
    <g id="line2d_9">
     <path d="M 36 75.622656 
L 56 75.622656 
" style="fill:none;stroke:#000000;stroke-dasharray:1.85,0.8;stroke-dashoffset:0;stroke-width:0.5;"/>
    </g>
    <g id="line2d_10"/>
    <g id="text_9">
     <!-- $R^2$ 0.56 -->
     <g transform="translate(64 72.875)">
      <text>
       <tspan style="font-family:DejaVu Sans;font-size:10px;font-style:oblique;font-weight:oblique;" x="0" y="-0.9765625">R</tspan>
       <tspan style="font-family:DejaVu Sans;font-size:7px;font-style:book;font-weight:book;" x="7.650794" y="-4.8046875">2</tspan>
       <tspan style="font-family:Arial;font-size:10px;font-style:regular;font-weight:regular;" x="12.377845 15.156165 20.717689 23.496009 29.057533" y="-0.9765625"> 0.56</tspan>
      </text>
     </g>
     <text style="font-family:Arial;font-size:10px;font-style:normal;font-weight:normal;" transform="translate(64 83.4875)"> slope 2.09</text>
    </g>
   </g>
  </g>
  <g id="axes_2">
   <g id="patch_5">
    <path d="M 118.309091 94.5 
L 194.4 94.5 
L 194.4 12.96 
L 118.309091 12.96 
z
" style="fill:#ffffff;"/>
   </g>
   <g id="PathCollection_1">
    <defs>
     <path d="M 0 2.44949 
C 0.649612 2.44949 1.272706 2.191396 1.732051 1.732051 
C 2.191396 1.272706 2.44949 0.649612 2.44949 0 
C 2.44949 -0.649612 2.191396 -1.272706 1.732051 -1.732051 
C 1.272706 -2.191396 0.649612 -2.44949 0 -2.44949 
C -0.649612 -2.44949 -1.272706 -2.191396 -1.732051 -1.732051 
C -2.191396 -1.272706 -2.44949 -0.649612 -2.44949 0 
C -2.44949 0.649612 -2.191396 1.272706 -1.732051 1.732051 
C -1.272706 2.191396 -0.649612 2.44949 0 2.44949 
z
" id="mf6302394ba" style="stroke:#000000;"/>
    </defs>
    <g clip-path="url(#p74a65f7d92)">
     <use style="stroke:#000000;" x="149.969702" xlink:href="#mf6302394ba" y="61.392507"/>
     <use style="stroke:#000000;" x="143.438049" xlink:href="#mf6302394ba" y="73.493596"/>
     <use style="stroke:#000000;" x="131.647693" xlink:href="#mf6302394ba" y="87.82174"/>
     <use style="stroke:#000000;" x="139.871747" xlink:href="#mf6302394ba" y="60.29192"/>
     <use style="stroke:#000000;" x="165.656659" xlink:href="#mf6302394ba" y="56.804043"/>
     <use style="stroke:#000000;" x="158.085236" xlink:href="#mf6302394ba" y="56.897752"/>
     <use style="stroke:#000000;" x="141.186243" xlink:href="#mf6302394ba" y="88.507464"/>
     <use style="stroke:#000000;" x="131.985485" xlink:href="#mf6302394ba" y="80.741081"/>
     <use style="stroke:#000000;" x="124.760089" xlink:href="#mf6302394ba" y="88.471254"/>
     <use style="stroke:#000000;" x="130.347074" xlink:href="#mf6302394ba" y="80.898861"/>
     <use style="stroke:#000000;" x="152.938728" xlink:href="#mf6302394ba" y="55.903243"/>
     <use style="stroke:#000000;" x="144.780951" xlink:href="#mf6302394ba" y="66.601728"/>
     <use style="stroke:#000000;" x="166.486906" xlink:href="#mf6302394ba" y="90.472687"/>
     <use style="stroke:#000000;" x="171.130847" xlink:href="#mf6302394ba" y="69.999807"/>
     <use style="stroke:#000000;" x="118.309091" xlink:href="#mf6302394ba" y="79.961156"/>
     <use style="stroke:#000000;" x="138.454865" xlink:href="#mf6302394ba" y="74.396583"/>
     <use style="stroke:#000000;" x="154.055917" xlink:href="#mf6302394ba" y="33.916533"/>
     <use style="stroke:#000000;" x="139.243038" xlink:href="#mf6302394ba" y="61.519623"/>
     <use style="stroke:#000000;" x="130.29804" xlink:href="#mf6302394ba" y="82.751843"/>
     <use style="stroke:#000000;" x="190.40176" xlink:href="#mf6302394ba" y="41.221923"/>
     <use style="stroke:#000000;" x="125.068222" xlink:href="#mf6302394ba" y="88.460435"/>
     <use style="stroke:#000000;" x="129.658837" xlink:href="#mf6302394ba" y="70.83008"/>
     <use style="stroke:#000000;" x="124.357272" xlink:href="#mf6302394ba" y="88.052708"/>
     <use style="stroke:#000000;" x="123.27069" xlink:href="#mf6302394ba" y="87.622862"/>
     <use style="stroke:#000000;" x="138.876312" xlink:href="#mf6302394ba" y="58.832303"/>
     <use style="stroke:#000000;" x="139.843298" xlink:href="#mf6302394ba" y="83.855354"/>
     <use style="stroke:#000000;" x="161.270716" xlink:href="#mf6302394ba" y="84.455489"/>
     <use style="stroke:#000000;" x="139.655296" xlink:href="#mf6302394ba" y="71.580773"/>
     <use style="stroke:#000000;" x="118.309091" xlink:href="#mf6302394ba" y="94.5"/>
     <use style="stroke:#000000;" x="120.138955" xlink:href="#mf6302394ba" y="57.80804"/>
    </g>
   </g>
   <g id="line2d_11">
    <path clip-path="url(#p74a65f7d92)" d="M 118.309091 83.469279 
L 119.077686 83.108339 
L 119.846281 82.747398 
L 120.614876 82.386458 
L 121.383471 82.025518 
L 122.152066 81.664577 
L 122.920661 81.303637 
L 123.689256 80.942697 
L 124.457851 80.581756 
L 125.226446 80.220816 
L 125.995041 79.859875 
L 126.763636 79.498935 
L 127.532231 79.137995 
L 128.300826 78.777054 
L 129.069421 78.416114 
L 129.838017 78.055174 
L 130.606612 77.694233 
L 131.375207 77.333293 
L 132.143802 76.972352 
L 132.912397 76.611412 
L 133.680992 76.250472 
L 134.449587 75.889531 
L 135.218182 75.528591 
L 135.986777 75.167651 
L 136.755372 74.80671 
L 137.523967 74.44577 
L 138.292562 74.084829 
L 139.061157 73.723889 
L 139.829752 73.362949 
L 140.598347 73.002008 
L 141.366942 72.641068 
L 142.135537 72.280127 
L 142.904132 71.919187 
L 143.672727 71.558247 
L 144.441322 71.197306 
L 145.209917 70.836366 
L 145.978512 70.475426 
L 146.747107 70.114485 
L 147.515702 69.753545 
L 148.284298 69.392604 
L 149.052893 69.031664 
L 149.821488 68.670724 
L 150.590083 68.309783 
L 151.358678 67.948843 
L 152.127273 67.587903 
L 152.895868 67.226962 
L 153.664463 66.866022 
L 154.433058 66.505081 
L 155.201653 66.144141 
L 155.970248 65.783201 
L 156.738843 65.42226 
L 157.507438 65.06132 
L 158.276033 64.70038 
L 159.044628 64.339439 
L 159.813223 63.978499 
L 160.581818 63.617558 
L 161.350413 63.256618 
L 162.119008 62.895678 
L 162.887603 62.534737 
L 163.656198 62.173797 
L 164.424793 61.812856 
L 165.193388 61.451916 
L 165.961983 61.090976 
L 166.730579 60.730035 
L 167.499174 60.369095 
L 168.267769 60.008155 
L 169.036364 59.647214 
L 169.804959 59.286274 
L 170.573554 58.925333 
L 171.342149 58.564393 
L 172.110744 58.203453 
L 172.879339 57.842512 
L 173.647934 57.481572 
L 174.416529 57.120632 
L 175.185124 56.759691 
L 175.953719 56.398751 
L 176.722314 56.03781 
L 177.490909 55.67687 
L 178.259504 55.31593 
L 179.028099 54.954989 
L 179.796694 54.594049 
L 180.565289 54.233109 
L 181.333884 53.872168 
L 182.102479 53.511228 
L 182.871074 53.150287 
L 183.639669 52.789347 
L 184.408264 52.428407 
L 185.17686 52.067466 
L 185.945455 51.706526 
L 186.71405 51.345585 
L 187.482645 50.984645 
L 188.25124 50.623705 
L 189.019835 50.262764 
L 189.78843 49.901824 
L 190.557025 49.540884 
L 191.32562 49.179943 
L 192.094215 48.819003 
L 192.86281 48.458062 
L 193.631405 48.097122 
L 194.4 47.736182 
" style="fill:none;stroke:#000000;stroke-dasharray:1.85,0.8;stroke-dashoffset:0;stroke-width:0.5;"/>
   </g>
   <g id="patch_6">
    <path d="M 118.309091 94.5 
L 118.309091 12.96 
" style="fill:none;stroke:#000000;stroke-linecap:square;stroke-linejoin:miter;"/>
   </g>
   <g id="patch_7">
    <path d="M 118.309091 94.5 
L 194.4 94.5 
" style="fill:none;stroke:#000000;stroke-linecap:square;stroke-linejoin:miter;"/>
   </g>
   <g id="matplotlib.axis_3">
    <g id="xtick_4">
     <g id="line2d_12"/>
     <g id="text_10">
      <text style="font-family:Arial;font-size:8px;font-style:normal;font-weight:normal;text-anchor:middle;" transform="rotate(-0, 118.309091, 103.72625)" x="118.309091" y="103.72625">0</text>
     </g>
    </g>
    <g id="xtick_5">
     <g id="line2d_13"/>
     <g id="text_11">
      <text style="font-family:Arial;font-size:8px;font-style:normal;font-weight:normal;text-anchor:middle;" transform="rotate(-0, 162.770883, 103.72625)" x="162.770883" y="103.72625">2</text>
     </g>
    </g>
    <g id="text_12">
     <!-- $\sigma$(Exc) -->
     <g transform="translate(141.504545 116.61625)">
      <text>
       <tspan style="font-family:DejaVu Sans;font-size:10px;font-style:oblique;font-weight:oblique;" x="0" y="-0.71875">σ</tspan>
       <tspan style="font-family:Arial;font-size:10px;font-style:regular;font-weight:regular;" x="6.337891 9.667969 16.337891 21.337891 26.337891" y="-0.71875">(Exc)</tspan>
      </text>
     </g>
    </g>
   </g>
   <g id="matplotlib.axis_4">
    <g id="ytick_4">
     <g id="line2d_14"/>
     <g id="text_13">
      <text style="font-family:Arial;font-size:8px;font-style:normal;font-weight:normal;text-anchor:end;" transform="rotate(-0, 114.809091, 97.363125)" x="114.809091" y="97.363125">0</text>
     </g>
    </g>
    <g id="ytick_5">
     <g id="line2d_15"/>
     <g id="text_14">
      <text style="font-family:Arial;font-size:8px;font-style:normal;font-weight:normal;text-anchor:end;" transform="rotate(-0, 114.809091, 73.54021)" x="114.809091" y="73.54021">1</text>
     </g>
    </g>
    <g id="ytick_6">
     <g id="line2d_16"/>
     <g id="text_15">
      <text style="font-family:Arial;font-size:8px;font-style:normal;font-weight:normal;text-anchor:end;" transform="rotate(-0, 114.809091, 49.717295)" x="114.809091" y="49.717295">2</text>
     </g>
    </g>
    <g id="ytick_7">
     <g id="line2d_17"/>
     <g id="text_16">
      <text style="font-family:Arial;font-size:8px;font-style:normal;font-weight:normal;text-anchor:end;" transform="rotate(-0, 114.809091, 25.89438)" x="114.809091" y="25.89438">3</text>
     </g>
    </g>
    <g id="text_17">
     <!-- $\sigma$(Inh) -->
     <g transform="translate(104.160341 67.18)rotate(-90)">
      <text>
       <tspan style="font-family:DejaVu Sans;font-size:10px;font-style:oblique;font-weight:oblique;" x="0" y="-0.71875">σ</tspan>
       <tspan style="font-family:Arial;font-size:10px;font-style:regular;font-weight:regular;" x="6.337891 9.667969 12.446289 18.007812 23.569336" y="-0.71875">(Inh)</tspan>
      </text>
     </g>
    </g>
   </g>
   <g id="legend_2">
    <g id="line2d_18">
     <path d="M 108.478125 31.995156 
L 128.478125 31.995156 
" style="fill:none;stroke:#000000;stroke-dasharray:1.85,0.8;stroke-dashoffset:0;stroke-width:0.5;"/>
    </g>
    <g id="line2d_19"/>
    <g id="text_18">
     <!-- $R^2$ 0.28 -->
     <g transform="translate(136.478125 29.2475)">
      <text>
       <tspan style="font-family:DejaVu Sans;font-size:10px;font-style:oblique;font-weight:oblique;" x="0" y="-0.9765625">R</tspan>
       <tspan style="font-family:DejaVu Sans;font-size:7px;font-style:book;font-weight:book;" x="7.650794" y="-4.8046875">2</tspan>
       <tspan style="font-family:Arial;font-size:10px;font-style:regular;font-weight:regular;" x="12.377845 15.156165 20.717689 23.496009 29.057533" y="-0.9765625"> 0.28</tspan>
      </text>
     </g>
     <text style="font-family:Arial;font-size:10px;font-style:normal;font-weight:normal;" transform="translate(136.478125 39.86)"> slope 0.44</text>
    </g>
   </g>
  </g>
 </g>
 <defs>
  <clipPath id="p3d8437e5cc">
   <rect height="81.54" width="76.090909" x="27" y="12.96"/>
  </clipPath>
  <clipPath id="p74a65f7d92">
   <rect height="81.54" width="76.090909" x="118.309091" y="12.96"/>
  </clipPath>
 </defs>
</svg>
