<?xml version="1.0" encoding="utf-8" standalone="no"?>
<!DOCTYPE svg PUBLIC "-//W3C//DTD SVG 1.1//EN"
  "http://www.w3.org/Graphics/SVG/1.1/DTD/svg11.dtd">
<!-- Created with matplotlib (http://matplotlib.org/) -->
<svg height="108pt" version="1.1" viewBox="0 0 216 108" width="216pt" xmlns="http://www.w3.org/2000/svg" xmlns:xlink="http://www.w3.org/1999/xlink">
 <defs>
  <style type="text/css">
*{stroke-linecap:butt;stroke-linejoin:round;}
  </style>
 </defs>
 <g id="figure_1">
  <g id="patch_1">
   <path d="M 0 108 
L 216 108 
L 216 0 
L 0 0 
z
" style="fill:#ffffff;"/>
  </g>
  <g id="axes_1">
   <g id="patch_2">
    <path d="M 27 94.5 
L 103.090909 94.5 
L 103.090909 12.96 
L 27 12.96 
z
" style="fill:#ffffff;"/>
   </g>
   <g id="LineCollection_1">
    <path clip-path="url(#p9c524f15bd)" d="M 30.961822 56.095446 
L 45.403846 56.095446 
" style="fill:none;stroke:#000000;stroke-width:0.5;"/>
    <path clip-path="url(#p9c524f15bd)" d="M 31.263676 62.027524 
L 45.511657 62.027524 
" style="fill:none;stroke:#000000;stroke-width:0.5;"/>
    <path clip-path="url(#p9c524f15bd)" d="M 26.486818 71.385319 
L 47.599089 71.385319 
" style="fill:none;stroke:#000000;stroke-width:0.5;"/>
    <path clip-path="url(#p9c524f15bd)" d="M 26.54759 83.088865 
L 30.465779 83.088865 
" style="fill:none;stroke:#000000;stroke-width:0.5;"/>
    <path clip-path="url(#p9c524f15bd)" d="M 26.367267 80.678384 
L 37.055603 80.678384 
" style="fill:none;stroke:#000000;stroke-width:0.5;"/>
    <path clip-path="url(#p9c524f15bd)" d="M 14.07346 38.577295 
L 62.26446 38.577295 
" style="fill:none;stroke:#000000;stroke-width:0.5;"/>
    <path clip-path="url(#p9c524f15bd)" d="M 26.582565 80.216971 
L 32.958279 80.216971 
" style="fill:none;stroke:#000000;stroke-width:0.5;"/>
    <path clip-path="url(#p9c524f15bd)" d="M 26.48989 87.81766 
L 30.569087 87.81766 
" style="fill:none;stroke:#000000;stroke-width:0.5;"/>
    <path clip-path="url(#p9c524f15bd)" d="M 27.110348 83.568403 
L 36.31243 83.568403 
" style="fill:none;stroke:#000000;stroke-width:0.5;"/>
    <path clip-path="url(#p9c524f15bd)" d="M 27.04597 86.206106 
L 28.47608 86.206106 
" style="fill:none;stroke:#000000;stroke-width:0.5;"/>
    <path clip-path="url(#p9c524f15bd)" d="M 27.561396 76.621251 
L 32.918631 76.621251 
" style="fill:none;stroke:#000000;stroke-width:0.5;"/>
    <path clip-path="url(#p9c524f15bd)" d="M 27.874326 77.964623 
L 35.171374 77.964623 
" style="fill:none;stroke:#000000;stroke-width:0.5;"/>
    <path clip-path="url(#p9c524f15bd)" d="M 28.204077 85.251067 
L 31.910604 85.251067 
" style="fill:none;stroke:#000000;stroke-width:0.5;"/>
    <path clip-path="url(#p9c524f15bd)" d="M 27.362199 84.542546 
L 32.406924 84.542546 
" style="fill:none;stroke:#000000;stroke-width:0.5;"/>
    <path clip-path="url(#p9c524f15bd)" d="M 28.377077 58.83799 
L 50.569138 58.83799 
" style="fill:none;stroke:#000000;stroke-width:0.5;"/>
    <path clip-path="url(#p9c524f15bd)" d="M 27.476693 84.677379 
L 34.79276 84.677379 
" style="fill:none;stroke:#000000;stroke-width:0.5;"/>
    <path clip-path="url(#p9c524f15bd)" d="M 26.978609 61.777058 
L 41.017127 61.777058 
" style="fill:none;stroke:#000000;stroke-width:0.5;"/>
    <path clip-path="url(#p9c524f15bd)" d="M 26.865243 93.092102 
L 27.320694 93.092102 
" style="fill:none;stroke:#000000;stroke-width:0.5;"/>
    <path clip-path="url(#p9c524f15bd)" d="M 27.935776 78.099859 
L 34.345842 78.099859 
" style="fill:none;stroke:#000000;stroke-width:0.5;"/>
    <path clip-path="url(#p9c524f15bd)" d="M 23.286587 61.835386 
L 47.008642 61.835386 
" style="fill:none;stroke:#000000;stroke-width:0.5;"/>
    <path clip-path="url(#p9c524f15bd)" d="M 26.39779 83.495188 
L 28.433138 83.495188 
" style="fill:none;stroke:#000000;stroke-width:0.5;"/>
    <path clip-path="url(#p9c524f15bd)" d="M 28.374017 77.127003 
L 35.847654 77.127003 
" style="fill:none;stroke:#000000;stroke-width:0.5;"/>
    <path clip-path="url(#p9c524f15bd)" d="M 28.087491 79.905428 
L 33.406063 79.905428 
" style="fill:none;stroke:#000000;stroke-width:0.5;"/>
    <path clip-path="url(#p9c524f15bd)" d="M 26.962974 87.486262 
L 30.127936 87.486262 
" style="fill:none;stroke:#000000;stroke-width:0.5;"/>
    <path clip-path="url(#p9c524f15bd)" d="M 26.701686 82.435767 
L 33.534778 82.435767 
" style="fill:none;stroke:#000000;stroke-width:0.5;"/>
    <path clip-path="url(#p9c524f15bd)" d="M 28.120311 76.771441 
L 35.13151 76.771441 
" style="fill:none;stroke:#000000;stroke-width:0.5;"/>
    <path clip-path="url(#p9c524f15bd)" d="M 24.690361 75.270366 
L 37.393808 75.270366 
" style="fill:none;stroke:#000000;stroke-width:0.5;"/>
    <path clip-path="url(#p9c524f15bd)" d="M 27.100769 84.901231 
L 30.451755 84.901231 
" style="fill:none;stroke:#000000;stroke-width:0.5;"/>
    <path clip-path="url(#p9c524f15bd)" d="M 26.483541 73.182276 
L 36.505684 73.182276 
" style="fill:none;stroke:#000000;stroke-width:0.5;"/>
    <path clip-path="url(#p9c524f15bd)" d="M 26.798982 78.386941 
L 27.83281 78.386941 
" style="fill:none;stroke:#000000;stroke-width:0.5;"/>
   </g>
   <g id="LineCollection_2">
    <path clip-path="url(#p9c524f15bd)" d="M 38.182834 67.775311 
L 38.182834 44.415581 
" style="fill:none;stroke:#000000;stroke-width:0.5;"/>
    <path clip-path="url(#p9c524f15bd)" d="M 38.387666 71.5338 
L 38.387666 52.521247 
" style="fill:none;stroke:#000000;stroke-width:0.5;"/>
    <path clip-path="url(#p9c524f15bd)" d="M 37.042954 81.171542 
L 37.042954 61.599097 
" style="fill:none;stroke:#000000;stroke-width:0.5;"/>
    <path clip-path="url(#p9c524f15bd)" d="M 28.506684 85.221335 
L 28.506684 80.956396 
" style="fill:none;stroke:#000000;stroke-width:0.5;"/>
    <path clip-path="url(#p9c524f15bd)" d="M 31.711435 83.700961 
L 31.711435 77.655807 
" style="fill:none;stroke:#000000;stroke-width:0.5;"/>
    <path clip-path="url(#p9c524f15bd)" d="M 38.16896 60.354849 
L 38.16896 16.799741 
" style="fill:none;stroke:#000000;stroke-width:0.5;"/>
    <path clip-path="url(#p9c524f15bd)" d="M 29.770422 84.203482 
L 29.770422 76.23046 
" style="fill:none;stroke:#000000;stroke-width:0.5;"/>
    <path clip-path="url(#p9c524f15bd)" d="M 28.529489 89.556469 
L 28.529489 86.078851 
" style="fill:none;stroke:#000000;stroke-width:0.5;"/>
    <path clip-path="url(#p9c524f15bd)" d="M 31.711389 87.134335 
L 31.711389 80.002472 
" style="fill:none;stroke:#000000;stroke-width:0.5;"/>
    <path clip-path="url(#p9c524f15bd)" d="M 27.761025 89.461595 
L 27.761025 82.950617 
" style="fill:none;stroke:#000000;stroke-width:0.5;"/>
    <path clip-path="url(#p9c524f15bd)" d="M 30.240014 78.030718 
L 30.240014 75.211784 
" style="fill:none;stroke:#000000;stroke-width:0.5;"/>
    <path clip-path="url(#p9c524f15bd)" d="M 31.52285 84.584095 
L 31.52285 71.34515 
" style="fill:none;stroke:#000000;stroke-width:0.5;"/>
    <path clip-path="url(#p9c524f15bd)" d="M 30.057341 87.520959 
L 30.057341 82.981175 
" style="fill:none;stroke:#000000;stroke-width:0.5;"/>
    <path clip-path="url(#p9c524f15bd)" d="M 29.884561 86.714354 
L 29.884561 82.370737 
" style="fill:none;stroke:#000000;stroke-width:0.5;"/>
    <path clip-path="url(#p9c524f15bd)" d="M 39.473108 71.465388 
L 39.473108 46.210592 
" style="fill:none;stroke:#000000;stroke-width:0.5;"/>
    <path clip-path="url(#p9c524f15bd)" d="M 31.134727 87.487758 
L 31.134727 81.866999 
" style="fill:none;stroke:#000000;stroke-width:0.5;"/>
    <path clip-path="url(#p9c524f15bd)" d="M 33.997868 67.450202 
L 33.997868 56.103915 
" style="fill:none;stroke:#000000;stroke-width:0.5;"/>
    <path clip-path="url(#p9c524f15bd)" d="M 27.092968 93.594553 
L 27.092968 92.589651 
" style="fill:none;stroke:#000000;stroke-width:0.5;"/>
    <path clip-path="url(#p9c524f15bd)" d="M 31.140809 81.172516 
L 31.140809 75.027202 
" style="fill:none;stroke:#000000;stroke-width:0.5;"/>
    <path clip-path="url(#p9c524f15bd)" d="M 35.147615 74.585302 
L 35.147615 49.085469 
" style="fill:none;stroke:#000000;stroke-width:0.5;"/>
    <path clip-path="url(#p9c524f15bd)" d="M 27.415464 87.001917 
L 27.415464 79.988459 
" style="fill:none;stroke:#000000;stroke-width:0.5;"/>
    <path clip-path="url(#p9c524f15bd)" d="M 32.110836 81.316805 
L 32.110836 72.9372 
" style="fill:none;stroke:#000000;stroke-width:0.5;"/>
    <path clip-path="url(#p9c524f15bd)" d="M 30.746777 85.54225 
L 30.746777 74.268606 
" style="fill:none;stroke:#000000;stroke-width:0.5;"/>
    <path clip-path="url(#p9c524f15bd)" d="M 28.545455 89.08323 
L 28.545455 85.889295 
" style="fill:none;stroke:#000000;stroke-width:0.5;"/>
    <path clip-path="url(#p9c524f15bd)" d="M 30.118232 82.721097 
L 30.118232 82.150436 
" style="fill:none;stroke:#000000;stroke-width:0.5;"/>
    <path clip-path="url(#p9c524f15bd)" d="M 31.625911 82.897073 
L 31.625911 70.64581 
" style="fill:none;stroke:#000000;stroke-width:0.5;"/>
    <path clip-path="url(#p9c524f15bd)" d="M 31.042085 77.188931 
L 31.042085 73.3518 
" style="fill:none;stroke:#000000;stroke-width:0.5;"/>
    <path clip-path="url(#p9c524f15bd)" d="M 28.776262 87.107346 
L 28.776262 82.695115 
" style="fill:none;stroke:#000000;stroke-width:0.5;"/>
    <path clip-path="url(#p9c524f15bd)" d="M 31.494612 78.545332 
L 31.494612 67.81922 
" style="fill:none;stroke:#000000;stroke-width:0.5;"/>
    <path clip-path="url(#p9c524f15bd)" d="M 27.315896 88.911154 
L 27.315896 67.862728 
" style="fill:none;stroke:#000000;stroke-width:0.5;"/>
   </g>
   <g id="line2d_1">
    <path clip-path="url(#p9c524f15bd)" d="M 27 89.6472 
L 27.768595 87.440504 
L 28.53719 85.233808 
L 29.305785 83.027112 
L 30.07438 80.820416 
L 30.842975 78.61372 
L 31.61157 76.407023 
L 32.380165 74.200327 
L 33.14876 71.993631 
L 33.917355 69.786935 
L 34.68595 67.580239 
L 35.454545 65.373543 
L 36.22314 63.166847 
L 36.991736 60.960151 
L 37.760331 58.753454 
L 38.528926 56.546758 
L 39.297521 54.340062 
L 40.066116 52.133366 
L 40.834711 49.92667 
L 41.603306 47.719974 
L 42.371901 45.513278 
L 43.140496 43.306582 
L 43.909091 41.099885 
L 44.677686 38.893189 
L 45.446281 36.686493 
L 46.214876 34.479797 
L 46.983471 32.273101 
L 47.752066 30.066405 
L 48.520661 27.859709 
L 49.289256 25.653013 
L 50.057851 23.446316 
L 50.826446 21.23962 
L 51.595041 19.032924 
L 52.363636 16.826228 
L 53.132231 14.619532 
L 53.900826 12.412836 
L 54.669421 10.20614 
L 55.438017 7.999444 
L 56.206612 5.792747 
L 56.975207 3.586051 
L 57.743802 1.379355 
L 58.512397 -0.827341 
L 58.572534 -1 
" style="fill:none;stroke:#000000;stroke-dasharray:1.85,0.8;stroke-dashoffset:0;stroke-width:0.5;"/>
   </g>
   <g id="line2d_2">
    <defs>
     <path d="M 0 3 
C 0.795609 3 1.55874 2.683901 2.12132 2.12132 
C 2.683901 1.55874 3 0.795609 3 0 
C 3 -0.795609 2.683901 -1.55874 2.12132 -2.12132 
C 1.55874 -2.683901 0.795609 -3 0 -3 
C -0.795609 -3 -1.55874 -2.683901 -2.12132 -2.12132 
C -2.683901 -1.55874 -3 -0.795609 -3 0 
C -3 0.795609 -2.683901 1.55874 -2.12132 2.12132 
C -1.55874 2.683901 -0.795609 3 0 3 
z
" id="m5ec30cd1de" style="stroke:#000000;"/>
    </defs>
    <g clip-path="url(#p9c524f15bd)">
     <use style="stroke:#000000;" x="38.182834" xlink:href="#m5ec30cd1de" y="56.095446"/>
     <use style="stroke:#000000;" x="38.387666" xlink:href="#m5ec30cd1de" y="62.027524"/>
     <use style="stroke:#000000;" x="37.042954" xlink:href="#m5ec30cd1de" y="71.385319"/>
     <use style="stroke:#000000;" x="28.506684" xlink:href="#m5ec30cd1de" y="83.088865"/>
     <use style="stroke:#000000;" x="31.711435" xlink:href="#m5ec30cd1de" y="80.678384"/>
     <use style="stroke:#000000;" x="38.16896" xlink:href="#m5ec30cd1de" y="38.577295"/>
     <use style="stroke:#000000;" x="29.770422" xlink:href="#m5ec30cd1de" y="80.216971"/>
     <use style="stroke:#000000;" x="28.529489" xlink:href="#m5ec30cd1de" y="87.81766"/>
     <use style="stroke:#000000;" x="31.711389" xlink:href="#m5ec30cd1de" y="83.568403"/>
     <use style="stroke:#000000;" x="27.761025" xlink:href="#m5ec30cd1de" y="86.206106"/>
     <use style="stroke:#000000;" x="30.240014" xlink:href="#m5ec30cd1de" y="76.621251"/>
     <use style="stroke:#000000;" x="31.52285" xlink:href="#m5ec30cd1de" y="77.964623"/>
     <use style="stroke:#000000;" x="30.057341" xlink:href="#m5ec30cd1de" y="85.251067"/>
     <use style="stroke:#000000;" x="29.884561" xlink:href="#m5ec30cd1de" y="84.542546"/>
     <use style="stroke:#000000;" x="39.473108" xlink:href="#m5ec30cd1de" y="58.83799"/>
     <use style="stroke:#000000;" x="31.134727" xlink:href="#m5ec30cd1de" y="84.677379"/>
     <use style="stroke:#000000;" x="33.997868" xlink:href="#m5ec30cd1de" y="61.777058"/>
     <use style="stroke:#000000;" x="27.092968" xlink:href="#m5ec30cd1de" y="93.092102"/>
     <use style="stroke:#000000;" x="31.140809" xlink:href="#m5ec30cd1de" y="78.099859"/>
     <use style="stroke:#000000;" x="35.147615" xlink:href="#m5ec30cd1de" y="61.835386"/>
     <use style="stroke:#000000;" x="27.415464" xlink:href="#m5ec30cd1de" y="83.495188"/>
     <use style="stroke:#000000;" x="32.110836" xlink:href="#m5ec30cd1de" y="77.127003"/>
     <use style="stroke:#000000;" x="30.746777" xlink:href="#m5ec30cd1de" y="79.905428"/>
     <use style="stroke:#000000;" x="28.545455" xlink:href="#m5ec30cd1de" y="87.486262"/>
     <use style="stroke:#000000;" x="30.118232" xlink:href="#m5ec30cd1de" y="82.435767"/>
     <use style="stroke:#000000;" x="31.625911" xlink:href="#m5ec30cd1de" y="76.771441"/>
     <use style="stroke:#000000;" x="31.042085" xlink:href="#m5ec30cd1de" y="75.270366"/>
     <use style="stroke:#000000;" x="28.776262" xlink:href="#m5ec30cd1de" y="84.901231"/>
     <use style="stroke:#000000;" x="31.494612" xlink:href="#m5ec30cd1de" y="73.182276"/>
     <use style="stroke:#000000;" x="27.315896" xlink:href="#m5ec30cd1de" y="78.386941"/>
    </g>
   </g>
   <g id="patch_3">
    <path d="M 27 94.5 
L 27 12.96 
" style="fill:none;stroke:#000000;stroke-linecap:square;stroke-linejoin:miter;"/>
   </g>
   <g id="patch_4">
    <path d="M 27 94.5 
L 103.090909 94.5 
" style="fill:none;stroke:#000000;stroke-linecap:square;stroke-linejoin:miter;"/>
   </g>
   <g id="matplotlib.axis_1">
    <g id="xtick_1">
     <g id="line2d_3"/>
     <g id="text_1">
      <text style="font-family:Arial;font-size:8px;font-style:normal;font-weight:normal;text-anchor:middle;" transform="rotate(-0, 27, 103.72625)" x="27" y="103.72625">0</text>
     </g>
    </g>
    <g id="xtick_2">
     <g id="line2d_4"/>
     <g id="text_2">
      <text style="font-family:Arial;font-size:8px;font-style:normal;font-weight:normal;text-anchor:middle;" transform="rotate(-0, 68.820767, 103.72625)" x="68.820767" y="103.72625">10</text>
     </g>
    </g>
    <g id="text_3">
     <text style="font-family:Arial;font-size:10px;font-style:normal;font-weight:normal;text-anchor:middle;" transform="rotate(-0, 65.045455, 116.474063)" x="65.045455" y="116.474063">Exc</text>
    </g>
   </g>
   <g id="matplotlib.axis_2">
    <g id="ytick_1">
     <g id="line2d_5"/>
     <g id="text_4">
      <text style="font-family:Arial;font-size:8px;font-style:normal;font-weight:normal;text-anchor:end;" transform="rotate(-0, 23.5, 97.363125)" x="23.5" y="97.363125">0</text>
     </g>
    </g>
    <g id="ytick_2">
     <g id="line2d_6"/>
     <g id="text_5">
      <text style="font-family:Arial;font-size:8px;font-style:normal;font-weight:normal;text-anchor:end;" transform="rotate(-0, 23.5, 74.955288)" x="23.5" y="74.955288">5</text>
     </g>
    </g>
    <g id="ytick_3">
     <g id="line2d_7"/>
     <g id="text_6">
      <text style="font-family:Arial;font-size:8px;font-style:normal;font-weight:normal;text-anchor:end;" transform="rotate(-0, 23.5, 52.547451)" x="23.5" y="52.547451">10</text>
     </g>
    </g>
    <g id="ytick_4">
     <g id="line2d_8"/>
     <g id="text_7">
      <text style="font-family:Arial;font-size:8px;font-style:normal;font-weight:normal;text-anchor:end;" transform="rotate(-0, 23.5, 30.139614)" x="23.5" y="30.139614">15</text>
     </g>
    </g>
    <g id="text_8">
     <text style="font-family:Arial;font-size:10px;font-style:normal;font-weight:normal;text-anchor:middle;" transform="rotate(-90, 8.615, 53.73)" x="8.615" y="53.73">Inh</text>
    </g>
   </g>
   <g id="legend_1">
    <g id="line2d_9">
     <path d="M 36 75.622656 
L 56 75.622656 
" style="fill:none;stroke:#000000;stroke-dasharray:1.85,0.8;stroke-dashoffset:0;stroke-width:0.5;"/>
    </g>
    <g id="line2d_10"/>
    <g id="text_9">
     <!-- $R^2$ 0.76 -->
     <g transform="translate(64 72.875)">
      <text>
       <tspan style="font-family:DejaVu Sans;font-size:10px;font-style:oblique;font-weight:oblique;" x="0" y="-0.9765625">R</tspan>
       <tspan style="font-family:DejaVu Sans;font-size:7px;font-style:book;font-weight:book;" x="7.650794" y="-4.8046875">2</tspan>
       <tspan style="font-family:Arial;font-size:10px;font-style:regular;font-weight:regular;" x="12.377845 15.156165 20.717689 23.496009 29.057533" y="-0.9765625"> 0.76</tspan>
      </text>
     </g>
     <text style="font-family:Arial;font-size:10px;font-style:normal;font-weight:normal;" transform="translate(64 83.4875)"> slope 2.68</text>
    </g>
   </g>
  </g>
  <g id="axes_2">
   <g id="patch_5">
    <path d="M 118.309091 94.5 
L 194.4 94.5 
L 194.4 12.96 
L 118.309091 12.96 
z
" style="fill:#ffffff;"/>
   </g>
   <g id="PathCollection_1">
    <defs>
     <path d="M 0 2.44949 
C 0.649612 2.44949 1.272706 2.191396 1.732051 1.732051 
C 2.191396 1.272706 2.44949 0.649612 2.44949 0 
C 2.44949 -0.649612 2.191396 -1.272706 1.732051 -1.732051 
C 1.272706 -2.191396 0.649612 -2.44949 0 -2.44949 
C -0.649612 -2.44949 -1.272706 -2.191396 -1.732051 -1.732051 
C -2.191396 -1.272706 -2.44949 -0.649612 -2.44949 0 
C -2.44949 0.649612 -2.191396 1.272706 -1.732051 1.732051 
C -1.272706 2.191396 -0.649612 2.44949 0 2.44949 
z
" id="m429a9bb9e3" style="stroke:#000000;"/>
    </defs>
    <g clip-path="url(#p85f7d73730)">
     <use style="stroke:#000000;" x="139.972726" xlink:href="#m429a9bb9e3" y="59.459435"/>
     <use style="stroke:#000000;" x="139.681655" xlink:href="#m429a9bb9e3" y="65.98038"/>
     <use style="stroke:#000000;" x="149.978375" xlink:href="#m429a9bb9e3" y="65.140519"/>
     <use style="stroke:#000000;" x="124.186537" xlink:href="#m429a9bb9e3" y="88.102414"/>
     <use style="stroke:#000000;" x="134.342039" xlink:href="#m429a9bb9e3" y="85.432018"/>
     <use style="stroke:#000000;" x="190.597593" xlink:href="#m429a9bb9e3" y="29.165529"/>
     <use style="stroke:#000000;" x="127.872927" xlink:href="#m429a9bb9e3" y="82.540136"/>
     <use style="stroke:#000000;" x="124.428056" xlink:href="#m429a9bb9e3" y="89.283429"/>
     <use style="stroke:#000000;" x="132.112596" xlink:href="#m429a9bb9e3" y="83.80191"/>
     <use style="stroke:#000000;" x="120.454315" xlink:href="#m429a9bb9e3" y="84.733263"/>
     <use style="stroke:#000000;" x="126.345166" xlink:href="#m429a9bb9e3" y="90.271483"/>
     <use style="stroke:#000000;" x="129.254966" xlink:href="#m429a9bb9e3" y="74.641032"/>
     <use style="stroke:#000000;" x="123.869035" xlink:href="#m429a9bb9e3" y="87.690136"/>
     <use style="stroke:#000000;" x="125.876388" xlink:href="#m429a9bb9e3" y="87.984395"/>
     <use style="stroke:#000000;" x="151.598104" xlink:href="#m429a9bb9e3" y="56.616756"/>
     <use style="stroke:#000000;" x="129.283496" xlink:href="#m429a9bb9e3" y="86.068629"/>
     <use style="stroke:#000000;" x="139.367452" xlink:href="#m429a9bb9e3" y="77.480098"/>
     <use style="stroke:#000000;" x="118.992286" xlink:href="#m429a9bb9e3" y="92.992605"/>
     <use style="stroke:#000000;" x="127.924456" xlink:href="#m429a9bb9e3" y="85.281774"/>
     <use style="stroke:#000000;" x="153.89316" xlink:href="#m429a9bb9e3" y="56.249192"/>
     <use style="stroke:#000000;" x="121.362198" xlink:href="#m429a9bb9e3" y="83.979521"/>
     <use style="stroke:#000000;" x="129.519857" xlink:href="#m429a9bb9e3" y="81.930244"/>
     <use style="stroke:#000000;" x="126.287171" xlink:href="#m429a9bb9e3" y="77.589065"/>
     <use style="stroke:#000000;" x="123.056666" xlink:href="#m429a9bb9e3" y="89.708964"/>
     <use style="stroke:#000000;" x="128.559012" xlink:href="#m429a9bb9e3" y="93.643984"/>
     <use style="stroke:#000000;" x="128.82618" xlink:href="#m429a9bb9e3" y="76.122595"/>
     <use style="stroke:#000000;" x="137.364789" xlink:href="#m429a9bb9e3" y="88.744145"/>
     <use style="stroke:#000000;" x="123.33571" xlink:href="#m429a9bb9e3" y="87.881471"/>
     <use style="stroke:#000000;" x="133.342722" xlink:href="#m429a9bb9e3" y="78.410386"/>
     <use style="stroke:#000000;" x="119.859876" xlink:href="#m429a9bb9e3" y="62.926486"/>
    </g>
   </g>
   <g id="line2d_11">
    <path clip-path="url(#p85f7d73730)" d="M 118.309091 90.533158 
L 119.077686 89.882144 
L 119.846281 89.23113 
L 120.614876 88.580117 
L 121.383471 87.929103 
L 122.152066 87.278089 
L 122.920661 86.627076 
L 123.689256 85.976062 
L 124.457851 85.325048 
L 125.226446 84.674035 
L 125.995041 84.023021 
L 126.763636 83.372007 
L 127.532231 82.720993 
L 128.300826 82.06998 
L 129.069421 81.418966 
L 129.838017 80.767952 
L 130.606612 80.116939 
L 131.375207 79.465925 
L 132.143802 78.814911 
L 132.912397 78.163898 
L 133.680992 77.512884 
L 134.449587 76.86187 
L 135.218182 76.210857 
L 135.986777 75.559843 
L 136.755372 74.908829 
L 137.523967 74.257816 
L 138.292562 73.606802 
L 139.061157 72.955788 
L 139.829752 72.304775 
L 140.598347 71.653761 
L 141.366942 71.002747 
L 142.135537 70.351734 
L 142.904132 69.70072 
L 143.672727 69.049706 
L 144.441322 68.398693 
L 145.209917 67.747679 
L 145.978512 67.096665 
L 146.747107 66.445652 
L 147.515702 65.794638 
L 148.284298 65.143624 
L 149.052893 64.49261 
L 149.821488 63.841597 
L 150.590083 63.190583 
L 151.358678 62.539569 
L 152.127273 61.888556 
L 152.895868 61.237542 
L 153.664463 60.586528 
L 154.433058 59.935515 
L 155.201653 59.284501 
L 155.970248 58.633487 
L 156.738843 57.982474 
L 157.507438 57.33146 
L 158.276033 56.680446 
L 159.044628 56.029433 
L 159.813223 55.378419 
L 160.581818 54.727405 
L 161.350413 54.076392 
L 162.119008 53.425378 
L 162.887603 52.774364 
L 163.656198 52.123351 
L 164.424793 51.472337 
L 165.193388 50.821323 
L 165.961983 50.17031 
L 166.730579 49.519296 
L 167.499174 48.868282 
L 168.267769 48.217268 
L 169.036364 47.566255 
L 169.804959 46.915241 
L 170.573554 46.264227 
L 171.342149 45.613214 
L 172.110744 44.9622 
L 172.879339 44.311186 
L 173.647934 43.660173 
L 174.416529 43.009159 
L 175.185124 42.358145 
L 175.953719 41.707132 
L 176.722314 41.056118 
L 177.490909 40.405104 
L 178.259504 39.754091 
L 179.028099 39.103077 
L 179.796694 38.452063 
L 180.565289 37.80105 
L 181.333884 37.150036 
L 182.102479 36.499022 
L 182.871074 35.848009 
L 183.639669 35.196995 
L 184.408264 34.545981 
L 185.17686 33.894968 
L 185.945455 33.243954 
L 186.71405 32.59294 
L 187.482645 31.941927 
L 188.25124 31.290913 
L 189.019835 30.639899 
L 189.78843 29.988885 
L 190.557025 29.337872 
L 191.32562 28.686858 
L 192.094215 28.035844 
L 192.86281 27.384831 
L 193.631405 26.733817 
L 194.4 26.082803 
" style="fill:none;stroke:#000000;stroke-dasharray:1.85,0.8;stroke-dashoffset:0;stroke-width:0.5;"/>
   </g>
   <g id="patch_6">
    <path d="M 118.309091 94.5 
L 118.309091 12.96 
" style="fill:none;stroke:#000000;stroke-linecap:square;stroke-linejoin:miter;"/>
   </g>
   <g id="patch_7">
    <path d="M 118.309091 94.5 
L 194.4 94.5 
" style="fill:none;stroke:#000000;stroke-linecap:square;stroke-linejoin:miter;"/>
   </g>
   <g id="matplotlib.axis_3">
    <g id="xtick_3">
     <g id="line2d_12"/>
     <g id="text_10">
      <text style="font-family:Arial;font-size:8px;font-style:normal;font-weight:normal;text-anchor:middle;" transform="rotate(-0, 118.309091, 103.72625)" x="118.309091" y="103.72625">0.0</text>
     </g>
    </g>
    <g id="xtick_4">
     <g id="line2d_13"/>
     <g id="text_11">
      <text style="font-family:Arial;font-size:8px;font-style:normal;font-weight:normal;text-anchor:middle;" transform="rotate(-0, 149.675535, 103.72625)" x="149.675535" y="103.72625">2.5</text>
     </g>
    </g>
    <g id="xtick_5">
     <g id="line2d_14"/>
     <g id="text_12">
      <text style="font-family:Arial;font-size:8px;font-style:normal;font-weight:normal;text-anchor:middle;" transform="rotate(-0, 181.041979, 103.72625)" x="181.041979" y="103.72625">5.0</text>
     </g>
    </g>
    <g id="text_13">
     <!-- $\sigma$(Exc) -->
     <g transform="translate(141.504545 116.61625)">
      <text>
       <tspan style="font-family:DejaVu Sans;font-size:10px;font-style:oblique;font-weight:oblique;" x="0" y="-0.71875">σ</tspan>
       <tspan style="font-family:Arial;font-size:10px;font-style:regular;font-weight:regular;" x="6.337891 9.667969 16.337891 21.337891 26.337891" y="-0.71875">(Exc)</tspan>
      </text>
     </g>
    </g>
   </g>
   <g id="matplotlib.axis_4">
    <g id="ytick_5">
     <g id="line2d_15"/>
     <g id="text_14">
      <text style="font-family:Arial;font-size:8px;font-style:normal;font-weight:normal;text-anchor:end;" transform="rotate(-0, 114.809091, 97.363125)" x="114.809091" y="97.363125">0</text>
     </g>
    </g>
    <g id="ytick_6">
     <g id="line2d_16"/>
     <g id="text_15">
      <text style="font-family:Arial;font-size:8px;font-style:normal;font-weight:normal;text-anchor:end;" transform="rotate(-0, 114.809091, 70.472976)" x="114.809091" y="70.472976">2</text>
     </g>
    </g>
    <g id="ytick_7">
     <g id="line2d_17"/>
     <g id="text_16">
      <text style="font-family:Arial;font-size:8px;font-style:normal;font-weight:normal;text-anchor:end;" transform="rotate(-0, 114.809091, 43.582827)" x="114.809091" y="43.582827">4</text>
     </g>
    </g>
    <g id="ytick_8">
     <g id="line2d_18"/>
     <g id="text_17">
      <text style="font-family:Arial;font-size:8px;font-style:normal;font-weight:normal;text-anchor:end;" transform="rotate(-0, 114.809091, 16.692679)" x="114.809091" y="16.692679">6</text>
     </g>
    </g>
    <g id="text_18">
     <!-- $\sigma$(Inh) -->
     <g transform="translate(104.160341 67.18)rotate(-90)">
      <text>
       <tspan style="font-family:DejaVu Sans;font-size:10px;font-style:oblique;font-weight:oblique;" x="0" y="-0.71875">σ</tspan>
       <tspan style="font-family:Arial;font-size:10px;font-style:regular;font-weight:regular;" x="6.337891 9.667969 12.446289 18.007812 23.569336" y="-0.71875">(Inh)</tspan>
      </text>
     </g>
    </g>
   </g>
   <g id="legend_2">
    <g id="line2d_19">
     <path d="M 108.478125 31.995156 
L 128.478125 31.995156 
" style="fill:none;stroke:#000000;stroke-dasharray:1.85,0.8;stroke-dashoffset:0;stroke-width:0.5;"/>
    </g>
    <g id="line2d_20"/>
    <g id="text_19">
     <!-- $R^2$ 0.71 -->
     <g transform="translate(136.478125 29.2475)">
      <text>
       <tspan style="font-family:DejaVu Sans;font-size:10px;font-style:oblique;font-weight:oblique;" x="0" y="-0.9765625">R</tspan>
       <tspan style="font-family:DejaVu Sans;font-size:7px;font-style:book;font-weight:book;" x="7.650794" y="-4.8046875">2</tspan>
       <tspan style="font-family:Arial;font-size:10px;font-style:regular;font-weight:regular;" x="12.377845 15.156165 20.717689 23.496009 29.057533" y="-0.9765625"> 0.71</tspan>
      </text>
     </g>
     <text style="font-family:Arial;font-size:10px;font-style:normal;font-weight:normal;" transform="translate(136.478125 39.86)"> slope 0.79</text>
    </g>
   </g>
  </g>
 </g>
 <defs>
  <clipPath id="p9c524f15bd">
   <rect height="81.54" width="76.090909" x="27" y="12.96"/>
  </clipPath>
  <clipPath id="p85f7d73730">
   <rect height="81.54" width="76.090909" x="118.309091" y="12.96"/>
  </clipPath>
 </defs>
</svg>
