<?xml version="1.0" encoding="utf-8" standalone="no"?>
<!DOCTYPE svg PUBLIC "-//W3C//DTD SVG 1.1//EN"
  "http://www.w3.org/Graphics/SVG/1.1/DTD/svg11.dtd">
<!-- Created with matplotlib (http://matplotlib.org/) -->
<svg height="108pt" version="1.1" viewBox="0 0 216 108" width="216pt" xmlns="http://www.w3.org/2000/svg" xmlns:xlink="http://www.w3.org/1999/xlink">
 <defs>
  <style type="text/css">
*{stroke-linecap:butt;stroke-linejoin:round;}
  </style>
 </defs>
 <g id="figure_1">
  <g id="patch_1">
   <path d="M 0 108 
L 216 108 
L 216 0 
L 0 0 
z
" style="fill:#ffffff;"/>
  </g>
  <g id="axes_1">
   <g id="patch_2">
    <path d="M 27 94.5 
L 103.090909 94.5 
L 103.090909 12.96 
L 27 12.96 
z
" style="fill:#ffffff;"/>
   </g>
   <g id="LineCollection_1">
    <path clip-path="url(#pf6476b36ca)" d="M 26.713269 45.826175 
L 48.825293 45.826175 
" style="fill:none;stroke:#000000;stroke-width:0.5;"/>
    <path clip-path="url(#pf6476b36ca)" d="M 26.341011 81.790005 
L 33.004733 81.790005 
" style="fill:none;stroke:#000000;stroke-width:0.5;"/>
    <path clip-path="url(#pf6476b36ca)" d="M 28.59885 75.946568 
L 36.183457 75.946568 
" style="fill:none;stroke:#000000;stroke-width:0.5;"/>
    <path clip-path="url(#pf6476b36ca)" d="M 29.188388 65.473056 
L 44.09909 65.473056 
" style="fill:none;stroke:#000000;stroke-width:0.5;"/>
    <path clip-path="url(#pf6476b36ca)" d="M 25.497883 75.072511 
L 33.250143 75.072511 
" style="fill:none;stroke:#000000;stroke-width:0.5;"/>
    <path clip-path="url(#pf6476b36ca)" d="M 26.779879 78.488575 
L 30.917484 78.488575 
" style="fill:none;stroke:#000000;stroke-width:0.5;"/>
    <path clip-path="url(#pf6476b36ca)" d="M 27.653886 68.454058 
L 39.750557 68.454058 
" style="fill:none;stroke:#000000;stroke-width:0.5;"/>
    <path clip-path="url(#pf6476b36ca)" d="M 29.58303 29.23312 
L 59.877793 29.23312 
" style="fill:none;stroke:#000000;stroke-width:0.5;"/>
    <path clip-path="url(#pf6476b36ca)" d="M 26.679546 80.113686 
L 30.857808 80.113686 
" style="fill:none;stroke:#000000;stroke-width:0.5;"/>
    <path clip-path="url(#pf6476b36ca)" d="M 25.212168 78.129172 
L 38.326112 78.129172 
" style="fill:none;stroke:#000000;stroke-width:0.5;"/>
    <path clip-path="url(#pf6476b36ca)" d="M 26.409817 52.724815 
L 44.502589 52.724815 
" style="fill:none;stroke:#000000;stroke-width:0.5;"/>
    <path clip-path="url(#pf6476b36ca)" d="M 28.59368 49.738021 
L 41.473743 49.738021 
" style="fill:none;stroke:#000000;stroke-width:0.5;"/>
    <path clip-path="url(#pf6476b36ca)" d="M 29.755659 42.711346 
L 51.262518 42.711346 
" style="fill:none;stroke:#000000;stroke-width:0.5;"/>
    <path clip-path="url(#pf6476b36ca)" d="M 26.9371 87.648175 
L 30.4474 87.648175 
" style="fill:none;stroke:#000000;stroke-width:0.5;"/>
    <path clip-path="url(#pf6476b36ca)" d="M 25.309688 65.76594 
L 38.688527 65.76594 
" style="fill:none;stroke:#000000;stroke-width:0.5;"/>
    <path clip-path="url(#pf6476b36ca)" d="M 26.277546 81.681203 
L 31.576056 81.681203 
" style="fill:none;stroke:#000000;stroke-width:0.5;"/>
    <path clip-path="url(#pf6476b36ca)" d="M 29.40719 73.541505 
L 36.511309 73.541505 
" style="fill:none;stroke:#000000;stroke-width:0.5;"/>
    <path clip-path="url(#pf6476b36ca)" d="M 25.561353 77.534221 
L 34.272055 77.534221 
" style="fill:none;stroke:#000000;stroke-width:0.5;"/>
    <path clip-path="url(#pf6476b36ca)" d="M 24.109405 65.78529 
L 50.807244 65.78529 
" style="fill:none;stroke:#000000;stroke-width:0.5;"/>
    <path clip-path="url(#pf6476b36ca)" d="M 28.853463 84.517337 
L 31.77446 84.517337 
" style="fill:none;stroke:#000000;stroke-width:0.5;"/>
    <path clip-path="url(#pf6476b36ca)" d="M 25.643942 70.140328 
L 33.294423 70.140328 
" style="fill:none;stroke:#000000;stroke-width:0.5;"/>
    <path clip-path="url(#pf6476b36ca)" d="M 27.316715 67.222897 
L 51.459845 67.222897 
" style="fill:none;stroke:#000000;stroke-width:0.5;"/>
    <path clip-path="url(#pf6476b36ca)" d="M 23.10084 50.164671 
L 68.22291 50.164671 
" style="fill:none;stroke:#000000;stroke-width:0.5;"/>
    <path clip-path="url(#pf6476b36ca)" d="M 26.731342 92.236671 
L 28.099541 92.236671 
" style="fill:none;stroke:#000000;stroke-width:0.5;"/>
    <path clip-path="url(#pf6476b36ca)" d="M 25.180776 66.698373 
L 35.317949 66.698373 
" style="fill:none;stroke:#000000;stroke-width:0.5;"/>
    <path clip-path="url(#pf6476b36ca)" d="M 23.41241 81.395182 
L 36.88416 81.395182 
" style="fill:none;stroke:#000000;stroke-width:0.5;"/>
    <path clip-path="url(#pf6476b36ca)" d="M 27.680349 65.423647 
L 44.578108 65.423647 
" style="fill:none;stroke:#000000;stroke-width:0.5;"/>
    <path clip-path="url(#pf6476b36ca)" d="M 26.590332 71.402459 
L 28.521465 71.402459 
" style="fill:none;stroke:#000000;stroke-width:0.5;"/>
    <path clip-path="url(#pf6476b36ca)" d="M 28.515302 50.703216 
L 39.14173 50.703216 
" style="fill:none;stroke:#000000;stroke-width:0.5;"/>
    <path clip-path="url(#pf6476b36ca)" d="M 24.47389 80.727372 
L 38.725459 80.727372 
" style="fill:none;stroke:#000000;stroke-width:0.5;"/>
   </g>
   <g id="LineCollection_2">
    <path clip-path="url(#pf6476b36ca)" d="M 37.769281 54.539962 
L 37.769281 37.112387 
" style="fill:none;stroke:#000000;stroke-width:0.5;"/>
    <path clip-path="url(#pf6476b36ca)" d="M 29.672872 85.3569 
L 29.672872 78.22311 
" style="fill:none;stroke:#000000;stroke-width:0.5;"/>
    <path clip-path="url(#pf6476b36ca)" d="M 32.391154 78.948786 
L 32.391154 72.944349 
" style="fill:none;stroke:#000000;stroke-width:0.5;"/>
    <path clip-path="url(#pf6476b36ca)" d="M 36.643739 69.073398 
L 36.643739 61.872715 
" style="fill:none;stroke:#000000;stroke-width:0.5;"/>
    <path clip-path="url(#pf6476b36ca)" d="M 29.374013 78.409421 
L 29.374013 71.735602 
" style="fill:none;stroke:#000000;stroke-width:0.5;"/>
    <path clip-path="url(#pf6476b36ca)" d="M 28.848681 78.868717 
L 28.848681 78.108432 
" style="fill:none;stroke:#000000;stroke-width:0.5;"/>
    <path clip-path="url(#pf6476b36ca)" d="M 33.702222 73.097475 
L 33.702222 63.810641 
" style="fill:none;stroke:#000000;stroke-width:0.5;"/>
    <path clip-path="url(#pf6476b36ca)" d="M 44.730411 41.678361 
L 44.730411 16.78788 
" style="fill:none;stroke:#000000;stroke-width:0.5;"/>
    <path clip-path="url(#pf6476b36ca)" d="M 28.768677 84.991287 
L 28.768677 75.236085 
" style="fill:none;stroke:#000000;stroke-width:0.5;"/>
    <path clip-path="url(#pf6476b36ca)" d="M 31.76914 89.427972 
L 31.76914 66.830372 
" style="fill:none;stroke:#000000;stroke-width:0.5;"/>
    <path clip-path="url(#pf6476b36ca)" d="M 35.456203 64.295802 
L 35.456203 41.153827 
" style="fill:none;stroke:#000000;stroke-width:0.5;"/>
    <path clip-path="url(#pf6476b36ca)" d="M 35.033711 54.327368 
L 35.033711 45.148675 
" style="fill:none;stroke:#000000;stroke-width:0.5;"/>
    <path clip-path="url(#pf6476b36ca)" d="M 40.509089 54.026879 
L 40.509089 31.395813 
" style="fill:none;stroke:#000000;stroke-width:0.5;"/>
    <path clip-path="url(#pf6476b36ca)" d="M 28.69225 90.044247 
L 28.69225 85.252102 
" style="fill:none;stroke:#000000;stroke-width:0.5;"/>
    <path clip-path="url(#pf6476b36ca)" d="M 31.999107 73.484452 
L 31.999107 58.047427 
" style="fill:none;stroke:#000000;stroke-width:0.5;"/>
    <path clip-path="url(#pf6476b36ca)" d="M 28.926801 83.384764 
L 28.926801 79.977642 
" style="fill:none;stroke:#000000;stroke-width:0.5;"/>
    <path clip-path="url(#pf6476b36ca)" d="M 32.959249 76.01277 
L 32.959249 71.070241 
" style="fill:none;stroke:#000000;stroke-width:0.5;"/>
    <path clip-path="url(#pf6476b36ca)" d="M 29.916704 85.343543 
L 29.916704 69.724899 
" style="fill:none;stroke:#000000;stroke-width:0.5;"/>
    <path clip-path="url(#pf6476b36ca)" d="M 37.458325 78.545628 
L 37.458325 53.024952 
" style="fill:none;stroke:#000000;stroke-width:0.5;"/>
    <path clip-path="url(#pf6476b36ca)" d="M 30.313962 86.999623 
L 30.313962 82.035051 
" style="fill:none;stroke:#000000;stroke-width:0.5;"/>
    <path clip-path="url(#pf6476b36ca)" d="M 29.469182 70.140328 
L 29.469182 70.140328 
" style="fill:none;stroke:#000000;stroke-width:0.5;"/>
    <path clip-path="url(#pf6476b36ca)" d="M 39.38828 81.320845 
L 39.38828 53.124949 
" style="fill:none;stroke:#000000;stroke-width:0.5;"/>
    <path clip-path="url(#pf6476b36ca)" d="M 45.661875 69.342482 
L 45.661875 30.98686 
" style="fill:none;stroke:#000000;stroke-width:0.5;"/>
    <path clip-path="url(#pf6476b36ca)" d="M 27.415442 93.345471 
L 27.415442 91.127871 
" style="fill:none;stroke:#000000;stroke-width:0.5;"/>
    <path clip-path="url(#pf6476b36ca)" d="M 30.249362 69.354631 
L 30.249362 64.042114 
" style="fill:none;stroke:#000000;stroke-width:0.5;"/>
    <path clip-path="url(#pf6476b36ca)" d="M 30.148285 89.094656 
L 30.148285 73.695709 
" style="fill:none;stroke:#000000;stroke-width:0.5;"/>
    <path clip-path="url(#pf6476b36ca)" d="M 36.129228 76.995612 
L 36.129228 53.851682 
" style="fill:none;stroke:#000000;stroke-width:0.5;"/>
    <path clip-path="url(#pf6476b36ca)" d="M 27.555899 87.141074 
L 27.555899 55.663845 
" style="fill:none;stroke:#000000;stroke-width:0.5;"/>
    <path clip-path="url(#pf6476b36ca)" d="M 33.828516 53.887753 
L 33.828516 47.518679 
" style="fill:none;stroke:#000000;stroke-width:0.5;"/>
    <path clip-path="url(#pf6476b36ca)" d="M 31.599674 86.375198 
L 31.599674 75.079546 
" style="fill:none;stroke:#000000;stroke-width:0.5;"/>
   </g>
   <g id="line2d_1">
    <path clip-path="url(#pf6476b36ca)" d="M 27 84.262455 
L 27.768595 82.317748 
L 28.53719 80.37304 
L 29.305785 78.428333 
L 30.07438 76.483625 
L 30.842975 74.538918 
L 31.61157 72.59421 
L 32.380165 70.649503 
L 33.14876 68.704796 
L 33.917355 66.760088 
L 34.68595 64.815381 
L 35.454545 62.870673 
L 36.22314 60.925966 
L 36.991736 58.981258 
L 37.760331 57.036551 
L 38.528926 55.091844 
L 39.297521 53.147136 
L 40.066116 51.202429 
L 40.834711 49.257721 
L 41.603306 47.313014 
L 42.371901 45.368307 
L 43.140496 43.423599 
L 43.909091 41.478892 
L 44.677686 39.534184 
L 45.446281 37.589477 
L 46.214876 35.644769 
L 46.983471 33.700062 
L 47.752066 31.755355 
L 48.520661 29.810647 
L 49.289256 27.86594 
L 50.057851 25.921232 
L 50.826446 23.976525 
L 51.595041 22.031817 
L 52.363636 20.08711 
L 53.132231 18.142403 
L 53.900826 16.197695 
L 54.669421 14.252988 
L 55.438017 12.30828 
L 56.206612 10.363573 
L 56.975207 8.418865 
L 57.743802 6.474158 
L 58.512397 4.529451 
L 59.280992 2.584743 
L 60.049587 0.640036 
L 60.697768 -1 
" style="fill:none;stroke:#000000;stroke-dasharray:1.85,0.8;stroke-dashoffset:0;stroke-width:0.5;"/>
   </g>
   <g id="line2d_2">
    <defs>
     <path d="M 0 3 
C 0.795609 3 1.55874 2.683901 2.12132 2.12132 
C 2.683901 1.55874 3 0.795609 3 0 
C 3 -0.795609 2.683901 -1.55874 2.12132 -2.12132 
C 1.55874 -2.683901 0.795609 -3 0 -3 
C -0.795609 -3 -1.55874 -2.683901 -2.12132 -2.12132 
C -2.683901 -1.55874 -3 -0.795609 -3 0 
C -3 0.795609 -2.683901 1.55874 -2.12132 2.12132 
C -1.55874 2.683901 -0.795609 3 0 3 
z
" id="m2a239cdb0d" style="stroke:#000000;"/>
    </defs>
    <g clip-path="url(#pf6476b36ca)">
     <use style="stroke:#000000;" x="37.769281" xlink:href="#m2a239cdb0d" y="45.826175"/>
     <use style="stroke:#000000;" x="29.672872" xlink:href="#m2a239cdb0d" y="81.790005"/>
     <use style="stroke:#000000;" x="32.391154" xlink:href="#m2a239cdb0d" y="75.946568"/>
     <use style="stroke:#000000;" x="36.643739" xlink:href="#m2a239cdb0d" y="65.473056"/>
     <use style="stroke:#000000;" x="29.374013" xlink:href="#m2a239cdb0d" y="75.072511"/>
     <use style="stroke:#000000;" x="28.848681" xlink:href="#m2a239cdb0d" y="78.488575"/>
     <use style="stroke:#000000;" x="33.702222" xlink:href="#m2a239cdb0d" y="68.454058"/>
     <use style="stroke:#000000;" x="44.730411" xlink:href="#m2a239cdb0d" y="29.23312"/>
     <use style="stroke:#000000;" x="28.768677" xlink:href="#m2a239cdb0d" y="80.113686"/>
     <use style="stroke:#000000;" x="31.76914" xlink:href="#m2a239cdb0d" y="78.129172"/>
     <use style="stroke:#000000;" x="35.456203" xlink:href="#m2a239cdb0d" y="52.724815"/>
     <use style="stroke:#000000;" x="35.033711" xlink:href="#m2a239cdb0d" y="49.738021"/>
     <use style="stroke:#000000;" x="40.509089" xlink:href="#m2a239cdb0d" y="42.711346"/>
     <use style="stroke:#000000;" x="28.69225" xlink:href="#m2a239cdb0d" y="87.648175"/>
     <use style="stroke:#000000;" x="31.999107" xlink:href="#m2a239cdb0d" y="65.76594"/>
     <use style="stroke:#000000;" x="28.926801" xlink:href="#m2a239cdb0d" y="81.681203"/>
     <use style="stroke:#000000;" x="32.959249" xlink:href="#m2a239cdb0d" y="73.541505"/>
     <use style="stroke:#000000;" x="29.916704" xlink:href="#m2a239cdb0d" y="77.534221"/>
     <use style="stroke:#000000;" x="37.458325" xlink:href="#m2a239cdb0d" y="65.78529"/>
     <use style="stroke:#000000;" x="30.313962" xlink:href="#m2a239cdb0d" y="84.517337"/>
     <use style="stroke:#000000;" x="29.469182" xlink:href="#m2a239cdb0d" y="70.140328"/>
     <use style="stroke:#000000;" x="39.38828" xlink:href="#m2a239cdb0d" y="67.222897"/>
     <use style="stroke:#000000;" x="45.661875" xlink:href="#m2a239cdb0d" y="50.164671"/>
     <use style="stroke:#000000;" x="27.415442" xlink:href="#m2a239cdb0d" y="92.236671"/>
     <use style="stroke:#000000;" x="30.249362" xlink:href="#m2a239cdb0d" y="66.698373"/>
     <use style="stroke:#000000;" x="30.148285" xlink:href="#m2a239cdb0d" y="81.395182"/>
     <use style="stroke:#000000;" x="36.129228" xlink:href="#m2a239cdb0d" y="65.423647"/>
     <use style="stroke:#000000;" x="27.555899" xlink:href="#m2a239cdb0d" y="71.402459"/>
     <use style="stroke:#000000;" x="33.828516" xlink:href="#m2a239cdb0d" y="50.703216"/>
     <use style="stroke:#000000;" x="31.599674" xlink:href="#m2a239cdb0d" y="80.727372"/>
    </g>
   </g>
   <g id="patch_3">
    <path d="M 27 94.5 
L 27 12.96 
" style="fill:none;stroke:#000000;stroke-linecap:square;stroke-linejoin:miter;"/>
   </g>
   <g id="patch_4">
    <path d="M 27 94.5 
L 103.090909 94.5 
" style="fill:none;stroke:#000000;stroke-linecap:square;stroke-linejoin:miter;"/>
   </g>
   <g id="matplotlib.axis_1">
    <g id="xtick_1">
     <g id="line2d_3"/>
     <g id="text_1">
      <text style="font-family:Arial;font-size:8px;font-style:normal;font-weight:normal;text-anchor:middle;" transform="rotate(-0, 27, 103.72625)" x="27" y="103.72625">0</text>
     </g>
    </g>
    <g id="xtick_2">
     <g id="line2d_4"/>
     <g id="text_2">
      <text style="font-family:Arial;font-size:8px;font-style:normal;font-weight:normal;text-anchor:middle;" transform="rotate(-0, 54.628001, 103.72625)" x="54.628001" y="103.72625">5</text>
     </g>
    </g>
    <g id="xtick_3">
     <g id="line2d_5"/>
     <g id="text_3">
      <text style="font-family:Arial;font-size:8px;font-style:normal;font-weight:normal;text-anchor:middle;" transform="rotate(-0, 82.256001, 103.72625)" x="82.256001" y="103.72625">10</text>
     </g>
    </g>
    <g id="text_4">
     <text style="font-family:Arial;font-size:10px;font-style:normal;font-weight:normal;text-anchor:middle;" transform="rotate(-0, 65.045455, 116.474063)" x="65.045455" y="116.474063">Exc</text>
    </g>
   </g>
   <g id="matplotlib.axis_2">
    <g id="ytick_1">
     <g id="line2d_6"/>
     <g id="text_5">
      <text style="font-family:Arial;font-size:8px;font-style:normal;font-weight:normal;text-anchor:end;" transform="rotate(-0, 23.5, 97.363125)" x="23.5" y="97.363125">0</text>
     </g>
    </g>
    <g id="ytick_2">
     <g id="line2d_7"/>
     <g id="text_6">
      <text style="font-family:Arial;font-size:8px;font-style:normal;font-weight:normal;text-anchor:end;" transform="rotate(-0, 23.5, 67.756603)" x="23.5" y="67.756603">5</text>
     </g>
    </g>
    <g id="ytick_3">
     <g id="line2d_8"/>
     <g id="text_7">
      <text style="font-family:Arial;font-size:8px;font-style:normal;font-weight:normal;text-anchor:end;" transform="rotate(-0, 23.5, 38.150081)" x="23.5" y="38.150081">10</text>
     </g>
    </g>
    <g id="text_8">
     <text style="font-family:Arial;font-size:10px;font-style:normal;font-weight:normal;text-anchor:middle;" transform="rotate(-90, 8.615, 53.73)" x="8.615" y="53.73">Inh</text>
    </g>
   </g>
   <g id="legend_1">
    <g id="line2d_9">
     <path d="M 36 75.622656 
L 56 75.622656 
" style="fill:none;stroke:#000000;stroke-dasharray:1.85,0.8;stroke-dashoffset:0;stroke-width:0.5;"/>
    </g>
    <g id="line2d_10"/>
    <g id="text_9">
     <!-- $R^2$ 0.68 -->
     <g transform="translate(64 72.875)">
      <text>
       <tspan style="font-family:DejaVu Sans;font-size:10px;font-style:oblique;font-weight:oblique;" x="0" y="-0.9765625">R</tspan>
       <tspan style="font-family:DejaVu Sans;font-size:7px;font-style:book;font-weight:book;" x="7.650794" y="-4.8046875">2</tspan>
       <tspan style="font-family:Arial;font-size:10px;font-style:regular;font-weight:regular;" x="12.377845 15.156165 20.717689 23.496009 29.057533" y="-0.9765625"> 0.68</tspan>
      </text>
     </g>
     <text style="font-family:Arial;font-size:10px;font-style:normal;font-weight:normal;" transform="translate(64 83.4875)"> slope 2.36</text>
    </g>
   </g>
  </g>
  <g id="axes_2">
   <g id="patch_5">
    <path d="M 118.309091 94.5 
L 194.4 94.5 
L 194.4 12.96 
L 118.309091 12.96 
z
" style="fill:#ffffff;"/>
   </g>
   <g id="PathCollection_1">
    <defs>
     <path d="M 0 2.44949 
C 0.649612 2.44949 1.272706 2.191396 1.732051 1.732051 
C 2.191396 1.272706 2.44949 0.649612 2.44949 0 
C 2.44949 -0.649612 2.191396 -1.272706 1.732051 -1.732051 
C 1.272706 -2.191396 0.649612 -2.44949 0 -2.44949 
C -0.649612 -2.44949 -1.272706 -2.191396 -1.732051 -1.732051 
C -2.191396 -1.272706 -2.44949 -0.649612 -2.44949 0 
C -2.44949 0.649612 -2.191396 1.272706 -1.732051 1.732051 
C -1.272706 2.191396 -0.649612 2.44949 0 2.44949 
z
" id="m26b11aab51" style="stroke:#000000;"/>
    </defs>
    <g clip-path="url(#pd577bf7cde)">
     <use style="stroke:#000000;" x="153.726602" xlink:href="#m26b11aab51" y="66.585716"/>
     <use style="stroke:#000000;" x="128.98258" xlink:href="#m26b11aab51" y="83.073587"/>
     <use style="stroke:#000000;" x="130.457589" xlink:href="#m26b11aab51" y="84.882508"/>
     <use style="stroke:#000000;" x="142.192021" xlink:href="#m26b11aab51" y="82.966444"/>
     <use style="stroke:#000000;" x="130.726125" xlink:href="#m26b11aab51" y="83.810339"/>
     <use style="stroke:#000000;" x="124.936419" xlink:href="#m26b11aab51" y="93.282228"/>
     <use style="stroke:#000000;" x="137.684701" xlink:href="#m26b11aab51" y="79.624992"/>
     <use style="stroke:#000000;" x="166.833146" xlink:href="#m26b11aab51" y="54.632149"/>
     <use style="stroke:#000000;" x="125.001541" xlink:href="#m26b11aab51" y="78.874792"/>
     <use style="stroke:#000000;" x="139.3141" xlink:href="#m26b11aab51" y="58.304728"/>
     <use style="stroke:#000000;" x="147.288842" xlink:href="#m26b11aab51" y="57.432785"/>
     <use style="stroke:#000000;" x="138.939484" xlink:href="#m26b11aab51" y="79.798204"/>
     <use style="stroke:#000000;" x="152.757289" xlink:href="#m26b11aab51" y="58.251125"/>
     <use style="stroke:#000000;" x="123.931647" xlink:href="#m26b11aab51" y="86.824273"/>
     <use style="stroke:#000000;" x="139.738389" xlink:href="#m26b11aab51" y="69.774043"/>
     <use style="stroke:#000000;" x="126.795877" xlink:href="#m26b11aab51" y="89.042707"/>
     <use style="stroke:#000000;" x="129.687977" xlink:href="#m26b11aab51" y="86.5834"/>
     <use style="stroke:#000000;" x="132.26129" xlink:href="#m26b11aab51" y="69.483137"/>
     <use style="stroke:#000000;" x="161.071842" xlink:href="#m26b11aab51" y="53.622748"/>
     <use style="stroke:#000000;" x="122.987741" xlink:href="#m26b11aab51" y="86.548092"/>
     <use style="stroke:#000000;" x="130.563103" xlink:href="#m26b11aab51" y="94.5"/>
     <use style="stroke:#000000;" x="156.979887" xlink:href="#m26b11aab51" y="49.337764"/>
     <use style="stroke:#000000;" x="190.5825" xlink:href="#m26b11aab51" y="33.064619"/>
     <use style="stroke:#000000;" x="120.500578" xlink:href="#m26b11aab51" y="90.948002"/>
     <use style="stroke:#000000;" x="134.546112" xlink:href="#m26b11aab51" y="85.990778"/>
     <use style="stroke:#000000;" x="139.887208" xlink:href="#m26b11aab51" y="69.835032"/>
     <use style="stroke:#000000;" x="145.374751" xlink:href="#m26b11aab51" y="57.429656"/>
     <use style="stroke:#000000;" x="121.402245" xlink:href="#m26b11aab51" y="44.081952"/>
     <use style="stroke:#000000;" x="135.329767" xlink:href="#m26b11aab51" y="84.298457"/>
     <use style="stroke:#000000;" x="141.136268" xlink:href="#m26b11aab51" y="76.407406"/>
    </g>
   </g>
   <g id="line2d_11">
    <path clip-path="url(#pd577bf7cde)" d="M 118.309091 89.178376 
L 119.077686 88.578093 
L 119.846281 87.97781 
L 120.614876 87.377527 
L 121.383471 86.777244 
L 122.152066 86.176961 
L 122.920661 85.576678 
L 123.689256 84.976395 
L 124.457851 84.376112 
L 125.226446 83.77583 
L 125.995041 83.175547 
L 126.763636 82.575264 
L 127.532231 81.974981 
L 128.300826 81.374698 
L 129.069421 80.774415 
L 129.838017 80.174132 
L 130.606612 79.573849 
L 131.375207 78.973566 
L 132.143802 78.373283 
L 132.912397 77.773 
L 133.680992 77.172718 
L 134.449587 76.572435 
L 135.218182 75.972152 
L 135.986777 75.371869 
L 136.755372 74.771586 
L 137.523967 74.171303 
L 138.292562 73.57102 
L 139.061157 72.970737 
L 139.829752 72.370454 
L 140.598347 71.770171 
L 141.366942 71.169888 
L 142.135537 70.569605 
L 142.904132 69.969323 
L 143.672727 69.36904 
L 144.441322 68.768757 
L 145.209917 68.168474 
L 145.978512 67.568191 
L 146.747107 66.967908 
L 147.515702 66.367625 
L 148.284298 65.767342 
L 149.052893 65.167059 
L 149.821488 64.566776 
L 150.590083 63.966493 
L 151.358678 63.36621 
L 152.127273 62.765928 
L 152.895868 62.165645 
L 153.664463 61.565362 
L 154.433058 60.965079 
L 155.201653 60.364796 
L 155.970248 59.764513 
L 156.738843 59.16423 
L 157.507438 58.563947 
L 158.276033 57.963664 
L 159.044628 57.363381 
L 159.813223 56.763098 
L 160.581818 56.162815 
L 161.350413 55.562533 
L 162.119008 54.96225 
L 162.887603 54.361967 
L 163.656198 53.761684 
L 164.424793 53.161401 
L 165.193388 52.561118 
L 165.961983 51.960835 
L 166.730579 51.360552 
L 167.499174 50.760269 
L 168.267769 50.159986 
L 169.036364 49.559703 
L 169.804959 48.95942 
L 170.573554 48.359138 
L 171.342149 47.758855 
L 172.110744 47.158572 
L 172.879339 46.558289 
L 173.647934 45.958006 
L 174.416529 45.357723 
L 175.185124 44.75744 
L 175.953719 44.157157 
L 176.722314 43.556874 
L 177.490909 42.956591 
L 178.259504 42.356308 
L 179.028099 41.756026 
L 179.796694 41.155743 
L 180.565289 40.55546 
L 181.333884 39.955177 
L 182.102479 39.354894 
L 182.871074 38.754611 
L 183.639669 38.154328 
L 184.408264 37.554045 
L 185.17686 36.953762 
L 185.945455 36.353479 
L 186.71405 35.753196 
L 187.482645 35.152913 
L 188.25124 34.552631 
L 189.019835 33.952348 
L 189.78843 33.352065 
L 190.557025 32.751782 
L 191.32562 32.151499 
L 192.094215 31.551216 
L 192.86281 30.950933 
L 193.631405 30.35065 
L 194.4 29.750367 
" style="fill:none;stroke:#000000;stroke-dasharray:1.85,0.8;stroke-dashoffset:0;stroke-width:0.5;"/>
   </g>
   <g id="patch_6">
    <path d="M 118.309091 94.5 
L 118.309091 12.96 
" style="fill:none;stroke:#000000;stroke-linecap:square;stroke-linejoin:miter;"/>
   </g>
   <g id="patch_7">
    <path d="M 118.309091 94.5 
L 194.4 94.5 
" style="fill:none;stroke:#000000;stroke-linecap:square;stroke-linejoin:miter;"/>
   </g>
   <g id="matplotlib.axis_3">
    <g id="xtick_4">
     <g id="line2d_12"/>
     <g id="text_10">
      <text style="font-family:Arial;font-size:8px;font-style:normal;font-weight:normal;text-anchor:middle;" transform="rotate(-0, 118.309091, 103.72625)" x="118.309091" y="103.72625">0</text>
     </g>
    </g>
    <g id="xtick_5">
     <g id="line2d_13"/>
     <g id="text_11">
      <text style="font-family:Arial;font-size:8px;font-style:normal;font-weight:normal;text-anchor:middle;" transform="rotate(-0, 153.711187, 103.72625)" x="153.711187" y="103.72625">2</text>
     </g>
    </g>
    <g id="xtick_6">
     <g id="line2d_14"/>
     <g id="text_12">
      <text style="font-family:Arial;font-size:8px;font-style:normal;font-weight:normal;text-anchor:middle;" transform="rotate(-0, 189.113282, 103.72625)" x="189.113282" y="103.72625">4</text>
     </g>
    </g>
    <g id="text_13">
     <!-- $\sigma$(Exc) -->
     <g transform="translate(141.504545 116.61625)">
      <text>
       <tspan style="font-family:DejaVu Sans;font-size:10px;font-style:oblique;font-weight:oblique;" x="0" y="-0.71875">σ</tspan>
       <tspan style="font-family:Arial;font-size:10px;font-style:regular;font-weight:regular;" x="6.337891 9.667969 16.337891 21.337891 26.337891" y="-0.71875">(Exc)</tspan>
      </text>
     </g>
    </g>
   </g>
   <g id="matplotlib.axis_4">
    <g id="ytick_4">
     <g id="line2d_15"/>
     <g id="text_14">
      <text style="font-family:Arial;font-size:8px;font-style:normal;font-weight:normal;text-anchor:end;" transform="rotate(-0, 114.809091, 97.363125)" x="114.809091" y="97.363125">0</text>
     </g>
    </g>
    <g id="ytick_5">
     <g id="line2d_16"/>
     <g id="text_15">
      <text style="font-family:Arial;font-size:8px;font-style:normal;font-weight:normal;text-anchor:end;" transform="rotate(-0, 114.809091, 78.394454)" x="114.809091" y="78.394454">1</text>
     </g>
    </g>
    <g id="ytick_6">
     <g id="line2d_17"/>
     <g id="text_16">
      <text style="font-family:Arial;font-size:8px;font-style:normal;font-weight:normal;text-anchor:end;" transform="rotate(-0, 114.809091, 59.425782)" x="114.809091" y="59.425782">2</text>
     </g>
    </g>
    <g id="ytick_7">
     <g id="line2d_18"/>
     <g id="text_17">
      <text style="font-family:Arial;font-size:8px;font-style:normal;font-weight:normal;text-anchor:end;" transform="rotate(-0, 114.809091, 40.457111)" x="114.809091" y="40.457111">3</text>
     </g>
    </g>
    <g id="ytick_8">
     <g id="line2d_19"/>
     <g id="text_18">
      <text style="font-family:Arial;font-size:8px;font-style:normal;font-weight:normal;text-anchor:end;" transform="rotate(-0, 114.809091, 21.48844)" x="114.809091" y="21.48844">4</text>
     </g>
    </g>
    <g id="text_19">
     <!-- $\sigma$(Inh) -->
     <g transform="translate(104.160341 67.18)rotate(-90)">
      <text>
       <tspan style="font-family:DejaVu Sans;font-size:10px;font-style:oblique;font-weight:oblique;" x="0" y="-0.71875">σ</tspan>
       <tspan style="font-family:Arial;font-size:10px;font-style:regular;font-weight:regular;" x="6.337891 9.667969 12.446289 18.007812 23.569336" y="-0.71875">(Inh)</tspan>
      </text>
     </g>
    </g>
   </g>
   <g id="legend_2">
    <g id="line2d_20">
     <path d="M 108.478125 31.995156 
L 128.478125 31.995156 
" style="fill:none;stroke:#000000;stroke-dasharray:1.85,0.8;stroke-dashoffset:0;stroke-width:0.5;"/>
    </g>
    <g id="line2d_21"/>
    <g id="text_20">
     <!-- $R^2$ 0.56 -->
     <g transform="translate(136.478125 29.2475)">
      <text>
       <tspan style="font-family:DejaVu Sans;font-size:10px;font-style:oblique;font-weight:oblique;" x="0" y="-0.9765625">R</tspan>
       <tspan style="font-family:DejaVu Sans;font-size:7px;font-style:book;font-weight:book;" x="7.650794" y="-4.8046875">2</tspan>
       <tspan style="font-family:Arial;font-size:10px;font-style:regular;font-weight:regular;" x="12.377845 15.156165 20.717689 23.496009 29.057533" y="-0.9765625"> 0.56</tspan>
      </text>
     </g>
     <text style="font-family:Arial;font-size:10px;font-style:normal;font-weight:normal;" transform="translate(136.478125 39.86)"> slope 0.73</text>
    </g>
   </g>
  </g>
 </g>
 <defs>
  <clipPath id="pf6476b36ca">
   <rect height="81.54" width="76.090909" x="27" y="12.96"/>
  </clipPath>
  <clipPath id="pd577bf7cde">
   <rect height="81.54" width="76.090909" x="118.309091" y="12.96"/>
  </clipPath>
 </defs>
</svg>
