<?xml version="1.0" encoding="utf-8" standalone="no"?>
<!DOCTYPE svg PUBLIC "-//W3C//DTD SVG 1.1//EN"
  "http://www.w3.org/Graphics/SVG/1.1/DTD/svg11.dtd">
<!-- Created with matplotlib (http://matplotlib.org/) -->
<svg height="108pt" version="1.1" viewBox="0 0 216 108" width="216pt" xmlns="http://www.w3.org/2000/svg" xmlns:xlink="http://www.w3.org/1999/xlink">
 <defs>
  <style type="text/css">
*{stroke-linecap:butt;stroke-linejoin:round;}
  </style>
 </defs>
 <g id="figure_1">
  <g id="patch_1">
   <path d="M 0 108 
L 216 108 
L 216 0 
L 0 0 
z
" style="fill:#ffffff;"/>
  </g>
  <g id="axes_1">
   <g id="patch_2">
    <path d="M 27 94.5 
L 103.090909 94.5 
L 103.090909 12.96 
L 27 12.96 
z
" style="fill:#ffffff;"/>
   </g>
   <g id="LineCollection_1">
    <path clip-path="url(#pdcfe310f81)" d="M 29.866199 67.520761 
L 43.735152 67.520761 
" style="fill:none;stroke:#000000;stroke-width:0.5;"/>
    <path clip-path="url(#pdcfe310f81)" d="M 26.421257 85.237096 
L 28.37729 85.237096 
" style="fill:none;stroke:#000000;stroke-width:0.5;"/>
    <path clip-path="url(#pdcfe310f81)" d="M 27.208363 47.13362 
L 39.070292 47.13362 
" style="fill:none;stroke:#000000;stroke-width:0.5;"/>
    <path clip-path="url(#pdcfe310f81)" d="M 29.132352 80.466184 
L 35.730958 80.466184 
" style="fill:none;stroke:#000000;stroke-width:0.5;"/>
    <path clip-path="url(#pdcfe310f81)" d="M 25.60735 76.221547 
L 36.333748 76.221547 
" style="fill:none;stroke:#000000;stroke-width:0.5;"/>
    <path clip-path="url(#pdcfe310f81)" d="M 26.597185 81.100777 
L 27.958617 81.100777 
" style="fill:none;stroke:#000000;stroke-width:0.5;"/>
    <path clip-path="url(#pdcfe310f81)" d="M 28.828584 81.092474 
L 34.786292 81.092474 
" style="fill:none;stroke:#000000;stroke-width:0.5;"/>
    <path clip-path="url(#pdcfe310f81)" d="M 26.758809 75.770139 
L 35.227455 75.770139 
" style="fill:none;stroke:#000000;stroke-width:0.5;"/>
    <path clip-path="url(#pdcfe310f81)" d="M 32.509724 52.140377 
L 43.988936 52.140377 
" style="fill:none;stroke:#000000;stroke-width:0.5;"/>
    <path clip-path="url(#pdcfe310f81)" d="M 26.59563 78.640653 
L 27.962318 78.640653 
" style="fill:none;stroke:#000000;stroke-width:0.5;"/>
    <path clip-path="url(#pdcfe310f81)" d="M 16.995085 43.104556 
L 57.344025 43.104556 
" style="fill:none;stroke:#000000;stroke-width:0.5;"/>
    <path clip-path="url(#pdcfe310f81)" d="M 25.98241 80.577999 
L 29.846179 80.577999 
" style="fill:none;stroke:#000000;stroke-width:0.5;"/>
    <path clip-path="url(#pdcfe310f81)" d="M 30.00016 55.447997 
L 46.416818 55.447997 
" style="fill:none;stroke:#000000;stroke-width:0.5;"/>
    <path clip-path="url(#pdcfe310f81)" d="M 29.565747 62.990699 
L 44.189585 62.990699 
" style="fill:none;stroke:#000000;stroke-width:0.5;"/>
    <path clip-path="url(#pdcfe310f81)" d="M 27.289348 77.173171 
L 38.964845 77.173171 
" style="fill:none;stroke:#000000;stroke-width:0.5;"/>
    <path clip-path="url(#pdcfe310f81)" d="M 31.076559 51.77483 
L 67.538773 51.77483 
" style="fill:none;stroke:#000000;stroke-width:0.5;"/>
    <path clip-path="url(#pdcfe310f81)" d="M 26.00987 41.26013 
L 53.020902 41.26013 
" style="fill:none;stroke:#000000;stroke-width:0.5;"/>
    <path clip-path="url(#pdcfe310f81)" d="M 30.479881 43.905466 
L 40.589023 43.905466 
" style="fill:none;stroke:#000000;stroke-width:0.5;"/>
    <path clip-path="url(#pdcfe310f81)" d="M 27.284697 53.27838 
L 46.444852 53.27838 
" style="fill:none;stroke:#000000;stroke-width:0.5;"/>
    <path clip-path="url(#pdcfe310f81)" d="M 26.604759 92.695102 
L 28.834592 92.695102 
" style="fill:none;stroke:#000000;stroke-width:0.5;"/>
    <path clip-path="url(#pdcfe310f81)" d="M 35.230179 32.695813 
L 49.884231 32.695813 
" style="fill:none;stroke:#000000;stroke-width:0.5;"/>
    <path clip-path="url(#pdcfe310f81)" d="M 27.047931 68.352549 
L 31.712574 68.352549 
" style="fill:none;stroke:#000000;stroke-width:0.5;"/>
    <path clip-path="url(#pdcfe310f81)" d="M 26.563922 75.677865 
L 33.286833 75.677865 
" style="fill:none;stroke:#000000;stroke-width:0.5;"/>
    <path clip-path="url(#pdcfe310f81)" d="M 28.168794 53.847861 
L 38.553172 53.847861 
" style="fill:none;stroke:#000000;stroke-width:0.5;"/>
    <path clip-path="url(#pdcfe310f81)" d="M 24.067545 68.032075 
L 38.205792 68.032075 
" style="fill:none;stroke:#000000;stroke-width:0.5;"/>
    <path clip-path="url(#pdcfe310f81)" d="M 27 93.37994 
L 27 93.37994 
" style="fill:none;stroke:#000000;stroke-width:0.5;"/>
    <path clip-path="url(#pdcfe310f81)" d="M 27.50836 76.352881 
L 37.361272 76.352881 
" style="fill:none;stroke:#000000;stroke-width:0.5;"/>
    <path clip-path="url(#pdcfe310f81)" d="M 26.177572 73.259313 
L 35.998954 73.259313 
" style="fill:none;stroke:#000000;stroke-width:0.5;"/>
    <path clip-path="url(#pdcfe310f81)" d="M 27.330613 54.450777 
L 47.776667 54.450777 
" style="fill:none;stroke:#000000;stroke-width:0.5;"/>
    <path clip-path="url(#pdcfe310f81)" d="M 36.881333 35.260016 
L 47.462272 35.260016 
" style="fill:none;stroke:#000000;stroke-width:0.5;"/>
   </g>
   <g id="LineCollection_2">
    <path clip-path="url(#pdcfe310f81)" d="M 36.800676 76.743876 
L 36.800676 58.297646 
" style="fill:none;stroke:#000000;stroke-width:0.5;"/>
    <path clip-path="url(#pdcfe310f81)" d="M 27.399273 88.538914 
L 27.399273 81.935278 
" style="fill:none;stroke:#000000;stroke-width:0.5;"/>
    <path clip-path="url(#pdcfe310f81)" d="M 33.139328 56.810463 
L 33.139328 37.456777 
" style="fill:none;stroke:#000000;stroke-width:0.5;"/>
    <path clip-path="url(#pdcfe310f81)" d="M 32.431655 85.173924 
L 32.431655 75.758445 
" style="fill:none;stroke:#000000;stroke-width:0.5;"/>
    <path clip-path="url(#pdcfe310f81)" d="M 30.970549 81.756353 
L 30.970549 70.686741 
" style="fill:none;stroke:#000000;stroke-width:0.5;"/>
    <path clip-path="url(#pdcfe310f81)" d="M 27.277901 89.539545 
L 27.277901 72.662009 
" style="fill:none;stroke:#000000;stroke-width:0.5;"/>
    <path clip-path="url(#pdcfe310f81)" d="M 31.807438 84.584964 
L 31.807438 77.599983 
" style="fill:none;stroke:#000000;stroke-width:0.5;"/>
    <path clip-path="url(#pdcfe310f81)" d="M 30.993132 80.592948 
L 30.993132 70.94733 
" style="fill:none;stroke:#000000;stroke-width:0.5;"/>
    <path clip-path="url(#pdcfe310f81)" d="M 38.24933 58.048359 
L 38.24933 46.232395 
" style="fill:none;stroke:#000000;stroke-width:0.5;"/>
    <path clip-path="url(#pdcfe310f81)" d="M 27.278974 80.76225 
L 27.278974 76.519056 
" style="fill:none;stroke:#000000;stroke-width:0.5;"/>
    <path clip-path="url(#pdcfe310f81)" d="M 37.169555 63.26528 
L 37.169555 22.943832 
" style="fill:none;stroke:#000000;stroke-width:0.5;"/>
    <path clip-path="url(#pdcfe310f81)" d="M 27.914294 82.523956 
L 27.914294 78.632042 
" style="fill:none;stroke:#000000;stroke-width:0.5;"/>
    <path clip-path="url(#pdcfe310f81)" d="M 38.208489 61.549023 
L 38.208489 49.346972 
" style="fill:none;stroke:#000000;stroke-width:0.5;"/>
    <path clip-path="url(#pdcfe310f81)" d="M 36.877666 72.497671 
L 36.877666 53.483728 
" style="fill:none;stroke:#000000;stroke-width:0.5;"/>
    <path clip-path="url(#pdcfe310f81)" d="M 33.127096 81.952367 
L 33.127096 72.393975 
" style="fill:none;stroke:#000000;stroke-width:0.5;"/>
    <path clip-path="url(#pdcfe310f81)" d="M 49.307666 63.707046 
L 49.307666 39.842614 
" style="fill:none;stroke:#000000;stroke-width:0.5;"/>
    <path clip-path="url(#pdcfe310f81)" d="M 39.515386 53.034236 
L 39.515386 29.486023 
" style="fill:none;stroke:#000000;stroke-width:0.5;"/>
    <path clip-path="url(#pdcfe310f81)" d="M 35.534452 48.6936 
L 35.534452 39.117331 
" style="fill:none;stroke:#000000;stroke-width:0.5;"/>
    <path clip-path="url(#pdcfe310f81)" d="M 36.864775 63.569165 
L 36.864775 42.987594 
" style="fill:none;stroke:#000000;stroke-width:0.5;"/>
    <path clip-path="url(#pdcfe310f81)" d="M 27.719676 92.695102 
L 27.719676 92.695102 
" style="fill:none;stroke:#000000;stroke-width:0.5;"/>
    <path clip-path="url(#pdcfe310f81)" d="M 42.557205 48.602105 
L 42.557205 16.789521 
" style="fill:none;stroke:#000000;stroke-width:0.5;"/>
    <path clip-path="url(#pdcfe310f81)" d="M 29.380253 86.467288 
L 29.380253 50.23781 
" style="fill:none;stroke:#000000;stroke-width:0.5;"/>
    <path clip-path="url(#pdcfe310f81)" d="M 29.925378 80.246282 
L 29.925378 71.109448 
" style="fill:none;stroke:#000000;stroke-width:0.5;"/>
    <path clip-path="url(#pdcfe310f81)" d="M 33.360983 59.490451 
L 33.360983 48.205271 
" style="fill:none;stroke:#000000;stroke-width:0.5;"/>
    <path clip-path="url(#pdcfe310f81)" d="M 31.136668 68.368001 
L 31.136668 67.696149 
" style="fill:none;stroke:#000000;stroke-width:0.5;"/>
    <path clip-path="url(#pdcfe310f81)" d="M 27 93.37994 
L 27 93.37994 
" style="fill:none;stroke:#000000;stroke-width:0.5;"/>
    <path clip-path="url(#pdcfe310f81)" d="M 32.434816 80.54665 
L 32.434816 72.159113 
" style="fill:none;stroke:#000000;stroke-width:0.5;"/>
    <path clip-path="url(#pdcfe310f81)" d="M 31.088263 75.756777 
L 31.088263 70.76185 
" style="fill:none;stroke:#000000;stroke-width:0.5;"/>
    <path clip-path="url(#pdcfe310f81)" d="M 37.55364 64.212155 
L 37.55364 44.6894 
" style="fill:none;stroke:#000000;stroke-width:0.5;"/>
    <path clip-path="url(#pdcfe310f81)" d="M 42.171802 52.420746 
L 42.171802 18.099287 
" style="fill:none;stroke:#000000;stroke-width:0.5;"/>
   </g>
   <g id="line2d_1">
    <path clip-path="url(#pdcfe310f81)" d="M 27 82.885416 
L 27.768595 80.908752 
L 28.53719 78.932089 
L 29.305785 76.955425 
L 30.07438 74.978762 
L 30.842975 73.002098 
L 31.61157 71.025435 
L 32.380165 69.048771 
L 33.14876 67.072108 
L 33.917355 65.095444 
L 34.68595 63.118781 
L 35.454545 61.142118 
L 36.22314 59.165454 
L 36.991736 57.188791 
L 37.760331 55.212127 
L 38.528926 53.235464 
L 39.297521 51.2588 
L 40.066116 49.282137 
L 40.834711 47.305473 
L 41.603306 45.32881 
L 42.371901 43.352146 
L 43.140496 41.375483 
L 43.909091 39.39882 
L 44.677686 37.422156 
L 45.446281 35.445493 
L 46.214876 33.468829 
L 46.983471 31.492166 
L 47.752066 29.515502 
L 48.520661 27.538839 
L 49.289256 25.562175 
L 50.057851 23.585512 
L 50.826446 21.608849 
L 51.595041 19.632185 
L 52.363636 17.655522 
L 53.132231 15.678858 
L 53.900826 13.702195 
L 54.669421 11.725531 
L 55.438017 9.748868 
L 56.206612 7.772204 
L 56.975207 5.795541 
L 57.743802 3.818877 
L 58.512397 1.842214 
L 59.280992 -0.134449 
L 59.617548 -1 
" style="fill:none;stroke:#000000;stroke-dasharray:1.85,0.8;stroke-dashoffset:0;stroke-width:0.5;"/>
   </g>
   <g id="line2d_2">
    <defs>
     <path d="M 0 3 
C 0.795609 3 1.55874 2.683901 2.12132 2.12132 
C 2.683901 1.55874 3 0.795609 3 0 
C 3 -0.795609 2.683901 -1.55874 2.12132 -2.12132 
C 1.55874 -2.683901 0.795609 -3 0 -3 
C -0.795609 -3 -1.55874 -2.683901 -2.12132 -2.12132 
C -2.683901 -1.55874 -3 -0.795609 -3 0 
C -3 0.795609 -2.683901 1.55874 -2.12132 2.12132 
C -1.55874 2.683901 -0.795609 3 0 3 
z
" id="m2ab34654c0" style="stroke:#000000;"/>
    </defs>
    <g clip-path="url(#pdcfe310f81)">
     <use style="stroke:#000000;" x="36.800676" xlink:href="#m2ab34654c0" y="67.520761"/>
     <use style="stroke:#000000;" x="27.399273" xlink:href="#m2ab34654c0" y="85.237096"/>
     <use style="stroke:#000000;" x="33.139328" xlink:href="#m2ab34654c0" y="47.13362"/>
     <use style="stroke:#000000;" x="32.431655" xlink:href="#m2ab34654c0" y="80.466184"/>
     <use style="stroke:#000000;" x="30.970549" xlink:href="#m2ab34654c0" y="76.221547"/>
     <use style="stroke:#000000;" x="27.277901" xlink:href="#m2ab34654c0" y="81.100777"/>
     <use style="stroke:#000000;" x="31.807438" xlink:href="#m2ab34654c0" y="81.092474"/>
     <use style="stroke:#000000;" x="30.993132" xlink:href="#m2ab34654c0" y="75.770139"/>
     <use style="stroke:#000000;" x="38.24933" xlink:href="#m2ab34654c0" y="52.140377"/>
     <use style="stroke:#000000;" x="27.278974" xlink:href="#m2ab34654c0" y="78.640653"/>
     <use style="stroke:#000000;" x="37.169555" xlink:href="#m2ab34654c0" y="43.104556"/>
     <use style="stroke:#000000;" x="27.914294" xlink:href="#m2ab34654c0" y="80.577999"/>
     <use style="stroke:#000000;" x="38.208489" xlink:href="#m2ab34654c0" y="55.447997"/>
     <use style="stroke:#000000;" x="36.877666" xlink:href="#m2ab34654c0" y="62.990699"/>
     <use style="stroke:#000000;" x="33.127096" xlink:href="#m2ab34654c0" y="77.173171"/>
     <use style="stroke:#000000;" x="49.307666" xlink:href="#m2ab34654c0" y="51.77483"/>
     <use style="stroke:#000000;" x="39.515386" xlink:href="#m2ab34654c0" y="41.26013"/>
     <use style="stroke:#000000;" x="35.534452" xlink:href="#m2ab34654c0" y="43.905466"/>
     <use style="stroke:#000000;" x="36.864775" xlink:href="#m2ab34654c0" y="53.27838"/>
     <use style="stroke:#000000;" x="27.719676" xlink:href="#m2ab34654c0" y="92.695102"/>
     <use style="stroke:#000000;" x="42.557205" xlink:href="#m2ab34654c0" y="32.695813"/>
     <use style="stroke:#000000;" x="29.380253" xlink:href="#m2ab34654c0" y="68.352549"/>
     <use style="stroke:#000000;" x="29.925378" xlink:href="#m2ab34654c0" y="75.677865"/>
     <use style="stroke:#000000;" x="33.360983" xlink:href="#m2ab34654c0" y="53.847861"/>
     <use style="stroke:#000000;" x="31.136668" xlink:href="#m2ab34654c0" y="68.032075"/>
     <use style="stroke:#000000;" x="27" xlink:href="#m2ab34654c0" y="93.37994"/>
     <use style="stroke:#000000;" x="32.434816" xlink:href="#m2ab34654c0" y="76.352881"/>
     <use style="stroke:#000000;" x="31.088263" xlink:href="#m2ab34654c0" y="73.259313"/>
     <use style="stroke:#000000;" x="37.55364" xlink:href="#m2ab34654c0" y="54.450777"/>
     <use style="stroke:#000000;" x="42.171802" xlink:href="#m2ab34654c0" y="35.260016"/>
    </g>
   </g>
   <g id="patch_3">
    <path d="M 27 94.5 
L 27 12.96 
" style="fill:none;stroke:#000000;stroke-linecap:square;stroke-linejoin:miter;"/>
   </g>
   <g id="patch_4">
    <path d="M 27 94.5 
L 103.090909 94.5 
" style="fill:none;stroke:#000000;stroke-linecap:square;stroke-linejoin:miter;"/>
   </g>
   <g id="matplotlib.axis_1">
    <g id="xtick_1">
     <g id="line2d_3"/>
     <g id="text_1">
      <text style="font-family:Arial;font-size:8px;font-style:normal;font-weight:normal;text-anchor:middle;" transform="rotate(-0, 27, 103.72625)" x="27" y="103.72625">0</text>
     </g>
    </g>
    <g id="xtick_2">
     <g id="line2d_4"/>
     <g id="text_2">
      <text style="font-family:Arial;font-size:8px;font-style:normal;font-weight:normal;text-anchor:middle;" transform="rotate(-0, 63.040451, 103.72625)" x="63.040451" y="103.72625">5</text>
     </g>
    </g>
    <g id="xtick_3">
     <g id="line2d_5"/>
     <g id="text_3">
      <text style="font-family:Arial;font-size:8px;font-style:normal;font-weight:normal;text-anchor:middle;" transform="rotate(-0, 99.080903, 103.72625)" x="99.080903" y="103.72625">10</text>
     </g>
    </g>
    <g id="text_4">
     <text style="font-family:Arial;font-size:10px;font-style:normal;font-weight:normal;text-anchor:middle;" transform="rotate(-0, 65.045455, 116.474063)" x="65.045455" y="116.474063">Exc</text>
    </g>
   </g>
   <g id="matplotlib.axis_2">
    <g id="ytick_1">
     <g id="line2d_6"/>
     <g id="text_5">
      <text style="font-family:Arial;font-size:8px;font-style:normal;font-weight:normal;text-anchor:end;" transform="rotate(-0, 23.5, 97.363125)" x="23.5" y="97.363125">0.0</text>
     </g>
    </g>
    <g id="ytick_2">
     <g id="line2d_7"/>
     <g id="text_6">
      <text style="font-family:Arial;font-size:8px;font-style:normal;font-weight:normal;text-anchor:end;" transform="rotate(-0, 23.5, 78.052419)" x="23.5" y="78.052419">2.5</text>
     </g>
    </g>
    <g id="ytick_3">
     <g id="line2d_8"/>
     <g id="text_7">
      <text style="font-family:Arial;font-size:8px;font-style:normal;font-weight:normal;text-anchor:end;" transform="rotate(-0, 23.5, 58.741712)" x="23.5" y="58.741712">5.0</text>
     </g>
    </g>
    <g id="ytick_4">
     <g id="line2d_9"/>
     <g id="text_8">
      <text style="font-family:Arial;font-size:8px;font-style:normal;font-weight:normal;text-anchor:end;" transform="rotate(-0, 23.5, 39.431006)" x="23.5" y="39.431006">7.5</text>
     </g>
    </g>
    <g id="ytick_5">
     <g id="line2d_10"/>
     <g id="text_9">
      <text style="font-family:Arial;font-size:8px;font-style:normal;font-weight:normal;text-anchor:end;" transform="rotate(-0, 23.5, 20.1203)" x="23.5" y="20.1203">10.0</text>
     </g>
    </g>
    <g id="text_10">
     <text style="font-family:Arial;font-size:10px;font-style:normal;font-weight:normal;text-anchor:middle;" transform="rotate(-90, 1.94375, 53.73)" x="1.94375" y="53.73">Inh</text>
    </g>
   </g>
   <g id="legend_1">
    <g id="line2d_11">
     <path d="M 36 75.622656 
L 56 75.622656 
" style="fill:none;stroke:#000000;stroke-dasharray:1.85,0.8;stroke-dashoffset:0;stroke-width:0.5;"/>
    </g>
    <g id="line2d_12"/>
    <g id="text_11">
     <!-- $R^2$ 0.65 -->
     <g transform="translate(64 72.875)">
      <text>
       <tspan style="font-family:DejaVu Sans;font-size:10px;font-style:oblique;font-weight:oblique;" x="0" y="-0.9765625">R</tspan>
       <tspan style="font-family:DejaVu Sans;font-size:7px;font-style:book;font-weight:book;" x="7.650794" y="-4.8046875">2</tspan>
       <tspan style="font-family:Arial;font-size:10px;font-style:regular;font-weight:regular;" x="12.377845 15.156165 20.717689 23.496009 29.057533" y="-0.9765625"> 0.65</tspan>
      </text>
     </g>
     <text style="font-family:Arial;font-size:10px;font-style:normal;font-weight:normal;" transform="translate(64 83.4875)"> slope 2.40</text>
    </g>
   </g>
  </g>
  <g id="axes_2">
   <g id="patch_5">
    <path d="M 118.309091 94.5 
L 194.4 94.5 
L 194.4 12.96 
L 118.309091 12.96 
z
" style="fill:#ffffff;"/>
   </g>
   <g id="PathCollection_1">
    <defs>
     <path d="M 0 2.44949 
C 0.649612 2.44949 1.272706 2.191396 1.732051 1.732051 
C 2.191396 1.272706 2.44949 0.649612 2.44949 0 
C 2.44949 -0.649612 2.191396 -1.272706 1.732051 -1.732051 
C 1.272706 -2.191396 0.649612 -2.44949 0 -2.44949 
C -0.649612 -2.44949 -1.272706 -2.191396 -1.732051 -1.732051 
C -2.191396 -1.272706 -2.44949 -0.649612 -2.44949 0 
C -2.44949 0.649612 -2.191396 1.272706 -1.732051 1.732051 
C -1.272706 2.191396 -0.649612 2.44949 0 2.44949 
z
" id="m13215dfdda" style="stroke:#000000;"/>
    </defs>
    <g clip-path="url(#p0832c0458d)">
     <use style="stroke:#000000;" x="143.068847" xlink:href="#m13215dfdda" y="61.56859"/>
     <use style="stroke:#000000;" x="121.801128" xlink:href="#m13215dfdda" y="82.710759"/>
     <use style="stroke:#000000;" x="139.485778" xlink:href="#m13215dfdda" y="59.94854"/>
     <use style="stroke:#000000;" x="130.089353" xlink:href="#m13215dfdda" y="77.690875"/>
     <use style="stroke:#000000;" x="137.458554" xlink:href="#m13215dfdda" y="74.737808"/>
     <use style="stroke:#000000;" x="120.739608" xlink:href="#m13215dfdda" y="64.369124"/>
     <use style="stroke:#000000;" x="128.945179" xlink:href="#m13215dfdda" y="82.029958"/>
     <use style="stroke:#000000;" x="133.427869" xlink:href="#m13215dfdda" y="77.280014"/>
     <use style="stroke:#000000;" x="138.802528" xlink:href="#m13215dfdda" y="73.405372"/>
     <use style="stroke:#000000;" x="120.748992" xlink:href="#m13215dfdda" y="86.924773"/>
     <use style="stroke:#000000;" x="190.342644" xlink:href="#m13215dfdda" y="22.515526"/>
     <use style="stroke:#000000;" x="125.206943" xlink:href="#m13215dfdda" y="87.551901"/>
     <use style="stroke:#000000;" x="147.617178" xlink:href="#m13215dfdda" y="72.716104"/>
     <use style="stroke:#000000;" x="144.416518" xlink:href="#m13215dfdda" y="60.555071"/>
     <use style="stroke:#000000;" x="139.15295" xlink:href="#m13215dfdda" y="77.435736"/>
     <use style="stroke:#000000;" x="183.40381" xlink:href="#m13215dfdda" y="51.895662"/>
     <use style="stroke:#000000;" x="166.530944" xlink:href="#m13215dfdda" y="52.460196"/>
     <use style="stroke:#000000;" x="136.35659" xlink:href="#m13215dfdda" y="77.403821"/>
     <use style="stroke:#000000;" x="152.515047" xlink:href="#m13215dfdda" y="57.756439"/>
     <use style="stroke:#000000;" x="122.289934" xlink:href="#m13215dfdda" y="94.5"/>
     <use style="stroke:#000000;" x="144.470459" xlink:href="#m13215dfdda" y="37.706103"/>
     <use style="stroke:#000000;" x="126.636716" xlink:href="#m13215dfdda" y="29.820776"/>
     <use style="stroke:#000000;" x="130.311269" xlink:href="#m13215dfdda" y="78.188329"/>
     <use style="stroke:#000000;" x="136.847958" xlink:href="#m13215dfdda" y="74.352961"/>
     <use style="stroke:#000000;" x="143.54961" xlink:href="#m13215dfdda" y="93.300565"/>
     <use style="stroke:#000000;" x="118.309091" xlink:href="#m13215dfdda" y="94.5"/>
     <use style="stroke:#000000;" x="135.899152" xlink:href="#m13215dfdda" y="79.526023"/>
     <use style="stroke:#000000;" x="135.842862" xlink:href="#m13215dfdda" y="85.582733"/>
     <use style="stroke:#000000;" x="154.810718" xlink:href="#m13215dfdda" y="59.646706"/>
     <use style="stroke:#000000;" x="137.198872" xlink:href="#m13215dfdda" y="33.227097"/>
    </g>
   </g>
   <g id="line2d_13">
    <path clip-path="url(#p0832c0458d)" d="M 118.309091 83.057524 
L 119.077686 82.538191 
L 119.846281 82.018858 
L 120.614876 81.499525 
L 121.383471 80.980193 
L 122.152066 80.46086 
L 122.920661 79.941527 
L 123.689256 79.422194 
L 124.457851 78.902861 
L 125.226446 78.383529 
L 125.995041 77.864196 
L 126.763636 77.344863 
L 127.532231 76.82553 
L 128.300826 76.306198 
L 129.069421 75.786865 
L 129.838017 75.267532 
L 130.606612 74.748199 
L 131.375207 74.228866 
L 132.143802 73.709534 
L 132.912397 73.190201 
L 133.680992 72.670868 
L 134.449587 72.151535 
L 135.218182 71.632203 
L 135.986777 71.11287 
L 136.755372 70.593537 
L 137.523967 70.074204 
L 138.292562 69.554871 
L 139.061157 69.035539 
L 139.829752 68.516206 
L 140.598347 67.996873 
L 141.366942 67.47754 
L 142.135537 66.958207 
L 142.904132 66.438875 
L 143.672727 65.919542 
L 144.441322 65.400209 
L 145.209917 64.880876 
L 145.978512 64.361544 
L 146.747107 63.842211 
L 147.515702 63.322878 
L 148.284298 62.803545 
L 149.052893 62.284212 
L 149.821488 61.76488 
L 150.590083 61.245547 
L 151.358678 60.726214 
L 152.127273 60.206881 
L 152.895868 59.687549 
L 153.664463 59.168216 
L 154.433058 58.648883 
L 155.201653 58.12955 
L 155.970248 57.610217 
L 156.738843 57.090885 
L 157.507438 56.571552 
L 158.276033 56.052219 
L 159.044628 55.532886 
L 159.813223 55.013553 
L 160.581818 54.494221 
L 161.350413 53.974888 
L 162.119008 53.455555 
L 162.887603 52.936222 
L 163.656198 52.41689 
L 164.424793 51.897557 
L 165.193388 51.378224 
L 165.961983 50.858891 
L 166.730579 50.339558 
L 167.499174 49.820226 
L 168.267769 49.300893 
L 169.036364 48.78156 
L 169.804959 48.262227 
L 170.573554 47.742895 
L 171.342149 47.223562 
L 172.110744 46.704229 
L 172.879339 46.184896 
L 173.647934 45.665563 
L 174.416529 45.146231 
L 175.185124 44.626898 
L 175.953719 44.107565 
L 176.722314 43.588232 
L 177.490909 43.068899 
L 178.259504 42.549567 
L 179.028099 42.030234 
L 179.796694 41.510901 
L 180.565289 40.991568 
L 181.333884 40.472236 
L 182.102479 39.952903 
L 182.871074 39.43357 
L 183.639669 38.914237 
L 184.408264 38.394904 
L 185.17686 37.875572 
L 185.945455 37.356239 
L 186.71405 36.836906 
L 187.482645 36.317573 
L 188.25124 35.798241 
L 189.019835 35.278908 
L 189.78843 34.759575 
L 190.557025 34.240242 
L 191.32562 33.720909 
L 192.094215 33.201577 
L 192.86281 32.682244 
L 193.631405 32.162911 
L 194.4 31.643578 
" style="fill:none;stroke:#000000;stroke-dasharray:1.85,0.8;stroke-dashoffset:0;stroke-width:0.5;"/>
   </g>
   <g id="patch_6">
    <path d="M 118.309091 94.5 
L 118.309091 12.96 
" style="fill:none;stroke:#000000;stroke-linecap:square;stroke-linejoin:miter;"/>
   </g>
   <g id="patch_7">
    <path d="M 118.309091 94.5 
L 194.4 94.5 
" style="fill:none;stroke:#000000;stroke-linecap:square;stroke-linejoin:miter;"/>
   </g>
   <g id="matplotlib.axis_3">
    <g id="xtick_4">
     <g id="line2d_14"/>
     <g id="text_12">
      <text style="font-family:Arial;font-size:8px;font-style:normal;font-weight:normal;text-anchor:middle;" transform="rotate(-0, 118.309091, 103.72625)" x="118.309091" y="103.72625">0</text>
     </g>
    </g>
    <g id="xtick_5">
     <g id="line2d_15"/>
     <g id="text_13">
      <text style="font-family:Arial;font-size:8px;font-style:normal;font-weight:normal;text-anchor:middle;" transform="rotate(-0, 144.045795, 103.72625)" x="144.045795" y="103.72625">1</text>
     </g>
    </g>
    <g id="xtick_6">
     <g id="line2d_16"/>
     <g id="text_14">
      <text style="font-family:Arial;font-size:8px;font-style:normal;font-weight:normal;text-anchor:middle;" transform="rotate(-0, 169.782499, 103.72625)" x="169.782499" y="103.72625">2</text>
     </g>
    </g>
    <g id="text_15">
     <!-- $\sigma$(Exc) -->
     <g transform="translate(141.504545 116.61625)">
      <text>
       <tspan style="font-family:DejaVu Sans;font-size:10px;font-style:oblique;font-weight:oblique;" x="0" y="-0.71875">σ</tspan>
       <tspan style="font-family:Arial;font-size:10px;font-style:regular;font-weight:regular;" x="6.337891 9.667969 16.337891 21.337891 26.337891" y="-0.71875">(Exc)</tspan>
      </text>
     </g>
    </g>
   </g>
   <g id="matplotlib.axis_4">
    <g id="ytick_6">
     <g id="line2d_17"/>
     <g id="text_16">
      <text style="font-family:Arial;font-size:8px;font-style:normal;font-weight:normal;text-anchor:end;" transform="rotate(-0, 114.809091, 97.363125)" x="114.809091" y="97.363125">0</text>
     </g>
    </g>
    <g id="ytick_7">
     <g id="line2d_18"/>
     <g id="text_17">
      <text style="font-family:Arial;font-size:8px;font-style:normal;font-weight:normal;text-anchor:end;" transform="rotate(-0, 114.809091, 69.783341)" x="114.809091" y="69.783341">1</text>
     </g>
    </g>
    <g id="ytick_8">
     <g id="line2d_19"/>
     <g id="text_18">
      <text style="font-family:Arial;font-size:8px;font-style:normal;font-weight:normal;text-anchor:end;" transform="rotate(-0, 114.809091, 42.203557)" x="114.809091" y="42.203557">2</text>
     </g>
    </g>
    <g id="text_19">
     <!-- $\sigma$(Inh) -->
     <g transform="translate(104.160341 67.18)rotate(-90)">
      <text>
       <tspan style="font-family:DejaVu Sans;font-size:10px;font-style:oblique;font-weight:oblique;" x="0" y="-0.71875">σ</tspan>
       <tspan style="font-family:Arial;font-size:10px;font-style:regular;font-weight:regular;" x="6.337891 9.667969 12.446289 18.007812 23.569336" y="-0.71875">(Inh)</tspan>
      </text>
     </g>
    </g>
   </g>
   <g id="legend_2">
    <g id="line2d_20">
     <path d="M 108.478125 31.995156 
L 128.478125 31.995156 
" style="fill:none;stroke:#000000;stroke-dasharray:1.85,0.8;stroke-dashoffset:0;stroke-width:0.5;"/>
    </g>
    <g id="line2d_21"/>
    <g id="text_20">
     <!-- $R^2$ 0.35 -->
     <g transform="translate(136.478125 29.2475)">
      <text>
       <tspan style="font-family:DejaVu Sans;font-size:10px;font-style:oblique;font-weight:oblique;" x="0" y="-0.9765625">R</tspan>
       <tspan style="font-family:DejaVu Sans;font-size:7px;font-style:book;font-weight:book;" x="7.650794" y="-4.8046875">2</tspan>
       <tspan style="font-family:Arial;font-size:10px;font-style:regular;font-weight:regular;" x="12.377845 15.156165 20.717689 23.496009 29.057533" y="-0.9765625"> 0.35</tspan>
      </text>
     </g>
     <text style="font-family:Arial;font-size:10px;font-style:normal;font-weight:normal;" transform="translate(136.478125 39.86)"> slope 0.63</text>
    </g>
   </g>
  </g>
 </g>
 <defs>
  <clipPath id="pdcfe310f81">
   <rect height="81.54" width="76.090909" x="27" y="12.96"/>
  </clipPath>
  <clipPath id="p0832c0458d">
   <rect height="81.54" width="76.090909" x="118.309091" y="12.96"/>
  </clipPath>
 </defs>
</svg>
