<?xml version="1.0" encoding="utf-8" standalone="no"?>
<!DOCTYPE svg PUBLIC "-//W3C//DTD SVG 1.1//EN"
  "http://www.w3.org/Graphics/SVG/1.1/DTD/svg11.dtd">
<!-- Created with matplotlib (http://matplotlib.org/) -->
<svg height="108pt" version="1.1" viewBox="0 0 216 108" width="216pt" xmlns="http://www.w3.org/2000/svg" xmlns:xlink="http://www.w3.org/1999/xlink">
 <defs>
  <style type="text/css">
*{stroke-linecap:butt;stroke-linejoin:round;}
  </style>
 </defs>
 <g id="figure_1">
  <g id="patch_1">
   <path d="M 0 108 
L 216 108 
L 216 0 
L 0 0 
z
" style="fill:#ffffff;"/>
  </g>
  <g id="axes_1">
   <g id="patch_2">
    <path d="M 27 94.5 
L 103.090909 94.5 
L 103.090909 12.96 
L 27 12.96 
z
" style="fill:#ffffff;"/>
   </g>
   <g id="LineCollection_1">
    <path clip-path="url(#pd05e57ba62)" d="M 25.939721 55.609583 
L 49.353945 55.609583 
" style="fill:none;stroke:#000000;stroke-width:0.5;"/>
    <path clip-path="url(#pd05e57ba62)" d="M 23.504388 61.135268 
L 41.272644 61.135268 
" style="fill:none;stroke:#000000;stroke-width:0.5;"/>
    <path clip-path="url(#pd05e57ba62)" d="M 24.492476 64.916586 
L 37.534055 64.916586 
" style="fill:none;stroke:#000000;stroke-width:0.5;"/>
    <path clip-path="url(#pd05e57ba62)" d="M 27 86.194733 
L 27 86.194733 
" style="fill:none;stroke:#000000;stroke-width:0.5;"/>
    <path clip-path="url(#pd05e57ba62)" d="M 30.145388 51.37555 
L 44.566233 51.37555 
" style="fill:none;stroke:#000000;stroke-width:0.5;"/>
    <path clip-path="url(#pd05e57ba62)" d="M 30.012226 30.882518 
L 43.739967 30.882518 
" style="fill:none;stroke:#000000;stroke-width:0.5;"/>
    <path clip-path="url(#pd05e57ba62)" d="M 26.594597 43.985363 
L 56.565292 43.985363 
" style="fill:none;stroke:#000000;stroke-width:0.5;"/>
    <path clip-path="url(#pd05e57ba62)" d="M 26.464239 85.027979 
L 33.34366 85.027979 
" style="fill:none;stroke:#000000;stroke-width:0.5;"/>
    <path clip-path="url(#pd05e57ba62)" d="M 27 83.213156 
L 27 83.213156 
" style="fill:none;stroke:#000000;stroke-width:0.5;"/>
    <path clip-path="url(#pd05e57ba62)" d="M 27.94407 56.137783 
L 42.804898 56.137783 
" style="fill:none;stroke:#000000;stroke-width:0.5;"/>
    <path clip-path="url(#pd05e57ba62)" d="M 27.066943 47.950829 
L 51.371722 47.950829 
" style="fill:none;stroke:#000000;stroke-width:0.5;"/>
    <path clip-path="url(#pd05e57ba62)" d="M 26.233788 70.538221 
L 38.769856 70.538221 
" style="fill:none;stroke:#000000;stroke-width:0.5;"/>
    <path clip-path="url(#pd05e57ba62)" d="M 28.120482 75.720162 
L 38.196282 75.720162 
" style="fill:none;stroke:#000000;stroke-width:0.5;"/>
    <path clip-path="url(#pd05e57ba62)" d="M 27.141997 81.010237 
L 35.52927 81.010237 
" style="fill:none;stroke:#000000;stroke-width:0.5;"/>
    <path clip-path="url(#pd05e57ba62)" d="M 26.273694 56.189003 
L 45.182914 56.189003 
" style="fill:none;stroke:#000000;stroke-width:0.5;"/>
    <path clip-path="url(#pd05e57ba62)" d="M 25.035196 36.760628 
L 48.546545 36.760628 
" style="fill:none;stroke:#000000;stroke-width:0.5;"/>
    <path clip-path="url(#pd05e57ba62)" d="M 26.905101 71.90891 
L 43.234802 71.90891 
" style="fill:none;stroke:#000000;stroke-width:0.5;"/>
    <path clip-path="url(#pd05e57ba62)" d="M 25.262339 81.502419 
L 33.27723 81.502419 
" style="fill:none;stroke:#000000;stroke-width:0.5;"/>
    <path clip-path="url(#pd05e57ba62)" d="M 26.095094 42.017419 
L 41.12268 42.017419 
" style="fill:none;stroke:#000000;stroke-width:0.5;"/>
    <path clip-path="url(#pd05e57ba62)" d="M 24.58867 75.095151 
L 37.208489 75.095151 
" style="fill:none;stroke:#000000;stroke-width:0.5;"/>
    <path clip-path="url(#pd05e57ba62)" d="M 28.826334 65.886317 
L 38.587046 65.886317 
" style="fill:none;stroke:#000000;stroke-width:0.5;"/>
    <path clip-path="url(#pd05e57ba62)" d="M 27.416459 43.509937 
L 57.960191 43.509937 
" style="fill:none;stroke:#000000;stroke-width:0.5;"/>
    <path clip-path="url(#pd05e57ba62)" d="M 31.948609 80.036806 
L 33.128567 80.036806 
" style="fill:none;stroke:#000000;stroke-width:0.5;"/>
    <path clip-path="url(#pd05e57ba62)" d="M 27.378306 70.778755 
L 37.208655 70.778755 
" style="fill:none;stroke:#000000;stroke-width:0.5;"/>
    <path clip-path="url(#pd05e57ba62)" d="M 26.451235 73.939307 
L 39.018106 73.939307 
" style="fill:none;stroke:#000000;stroke-width:0.5;"/>
    <path clip-path="url(#pd05e57ba62)" d="M 25.217895 85.155383 
L 34.012414 85.155383 
" style="fill:none;stroke:#000000;stroke-width:0.5;"/>
    <path clip-path="url(#pd05e57ba62)" d="M 29.516565 37.357422 
L 41.246574 37.357422 
" style="fill:none;stroke:#000000;stroke-width:0.5;"/>
    <path clip-path="url(#pd05e57ba62)" d="M 26.882812 73.72202 
L 47.239178 73.72202 
" style="fill:none;stroke:#000000;stroke-width:0.5;"/>
    <path clip-path="url(#pd05e57ba62)" d="M 28.063882 53.652428 
L 38.999506 53.652428 
" style="fill:none;stroke:#000000;stroke-width:0.5;"/>
    <path clip-path="url(#pd05e57ba62)" d="M 27.192627 77.441068 
L 34.42495 77.441068 
" style="fill:none;stroke:#000000;stroke-width:0.5;"/>
   </g>
   <g id="LineCollection_2">
    <path clip-path="url(#pd05e57ba62)" d="M 37.646833 60.770532 
L 37.646833 50.448634 
" style="fill:none;stroke:#000000;stroke-width:0.5;"/>
    <path clip-path="url(#pd05e57ba62)" d="M 32.388516 75.602117 
L 32.388516 46.66842 
" style="fill:none;stroke:#000000;stroke-width:0.5;"/>
    <path clip-path="url(#pd05e57ba62)" d="M 31.013266 69.119558 
L 31.013266 60.713614 
" style="fill:none;stroke:#000000;stroke-width:0.5;"/>
    <path clip-path="url(#pd05e57ba62)" d="M 27 88.351779 
L 27 84.037688 
" style="fill:none;stroke:#000000;stroke-width:0.5;"/>
    <path clip-path="url(#pd05e57ba62)" d="M 37.355811 67.192789 
L 37.355811 35.558311 
" style="fill:none;stroke:#000000;stroke-width:0.5;"/>
    <path clip-path="url(#pd05e57ba62)" d="M 36.876097 45.125805 
L 36.876097 16.639231 
" style="fill:none;stroke:#000000;stroke-width:0.5;"/>
    <path clip-path="url(#pd05e57ba62)" d="M 41.579945 59.901231 
L 41.579945 28.069495 
" style="fill:none;stroke:#000000;stroke-width:0.5;"/>
    <path clip-path="url(#pd05e57ba62)" d="M 29.903949 90.223854 
L 29.903949 79.832105 
" style="fill:none;stroke:#000000;stroke-width:0.5;"/>
    <path clip-path="url(#pd05e57ba62)" d="M 27 88.742558 
L 27 77.683755 
" style="fill:none;stroke:#000000;stroke-width:0.5;"/>
    <path clip-path="url(#pd05e57ba62)" d="M 35.374484 67.165045 
L 35.374484 45.110522 
" style="fill:none;stroke:#000000;stroke-width:0.5;"/>
    <path clip-path="url(#pd05e57ba62)" d="M 39.219333 54.766804 
L 39.219333 41.134853 
" style="fill:none;stroke:#000000;stroke-width:0.5;"/>
    <path clip-path="url(#pd05e57ba62)" d="M 32.501822 75.96891 
L 32.501822 65.107531 
" style="fill:none;stroke:#000000;stroke-width:0.5;"/>
    <path clip-path="url(#pd05e57ba62)" d="M 33.158382 80.235874 
L 33.158382 71.204449 
" style="fill:none;stroke:#000000;stroke-width:0.5;"/>
    <path clip-path="url(#pd05e57ba62)" d="M 31.335634 83.991924 
L 31.335634 78.028551 
" style="fill:none;stroke:#000000;stroke-width:0.5;"/>
    <path clip-path="url(#pd05e57ba62)" d="M 35.728304 65.640417 
L 35.728304 46.737588 
" style="fill:none;stroke:#000000;stroke-width:0.5;"/>
    <path clip-path="url(#pd05e57ba62)" d="M 36.790871 46.29345 
L 36.790871 27.227806 
" style="fill:none;stroke:#000000;stroke-width:0.5;"/>
    <path clip-path="url(#pd05e57ba62)" d="M 35.069952 78.10859 
L 35.069952 65.709229 
" style="fill:none;stroke:#000000;stroke-width:0.5;"/>
    <path clip-path="url(#pd05e57ba62)" d="M 29.269784 84.687426 
L 29.269784 78.317413 
" style="fill:none;stroke:#000000;stroke-width:0.5;"/>
    <path clip-path="url(#pd05e57ba62)" d="M 33.608887 48.599162 
L 33.608887 35.435676 
" style="fill:none;stroke:#000000;stroke-width:0.5;"/>
    <path clip-path="url(#pd05e57ba62)" d="M 30.898579 82.975544 
L 30.898579 67.214758 
" style="fill:none;stroke:#000000;stroke-width:0.5;"/>
    <path clip-path="url(#pd05e57ba62)" d="M 33.70669 73.967942 
L 33.70669 57.804692 
" style="fill:none;stroke:#000000;stroke-width:0.5;"/>
    <path clip-path="url(#pd05e57ba62)" d="M 42.688325 54.495969 
L 42.688325 32.523905 
" style="fill:none;stroke:#000000;stroke-width:0.5;"/>
    <path clip-path="url(#pd05e57ba62)" d="M 32.538588 85.385857 
L 32.538588 74.687754 
" style="fill:none;stroke:#000000;stroke-width:0.5;"/>
    <path clip-path="url(#pd05e57ba62)" d="M 32.293481 75.029978 
L 32.293481 66.527533 
" style="fill:none;stroke:#000000;stroke-width:0.5;"/>
    <path clip-path="url(#pd05e57ba62)" d="M 32.73467 80.476597 
L 32.73467 67.402016 
" style="fill:none;stroke:#000000;stroke-width:0.5;"/>
    <path clip-path="url(#pd05e57ba62)" d="M 29.615154 88.057624 
L 29.615154 82.253142 
" style="fill:none;stroke:#000000;stroke-width:0.5;"/>
    <path clip-path="url(#pd05e57ba62)" d="M 35.381569 44.529655 
L 35.381569 30.18519 
" style="fill:none;stroke:#000000;stroke-width:0.5;"/>
    <path clip-path="url(#pd05e57ba62)" d="M 37.060995 83.924577 
L 37.060995 63.519464 
" style="fill:none;stroke:#000000;stroke-width:0.5;"/>
    <path clip-path="url(#pd05e57ba62)" d="M 33.531694 67.323577 
L 33.531694 39.981278 
" style="fill:none;stroke:#000000;stroke-width:0.5;"/>
    <path clip-path="url(#pd05e57ba62)" d="M 30.808788 81.628544 
L 30.808788 73.253592 
" style="fill:none;stroke:#000000;stroke-width:0.5;"/>
   </g>
   <g id="line2d_1">
    <path clip-path="url(#pd05e57ba62)" d="M 27 86.655559 
L 27.768595 84.090759 
L 28.53719 81.525959 
L 29.305785 78.961159 
L 30.07438 76.396359 
L 30.842975 73.83156 
L 31.61157 71.26676 
L 32.380165 68.70196 
L 33.14876 66.13716 
L 33.917355 63.57236 
L 34.68595 61.00756 
L 35.454545 58.442761 
L 36.22314 55.877961 
L 36.991736 53.313161 
L 37.760331 50.748361 
L 38.528926 48.183561 
L 39.297521 45.618761 
L 40.066116 43.053962 
L 40.834711 40.489162 
L 41.603306 37.924362 
L 42.371901 35.359562 
L 43.140496 32.794762 
L 43.909091 30.229962 
L 44.677686 27.665163 
L 45.446281 25.100363 
L 46.214876 22.535563 
L 46.983471 19.970763 
L 47.752066 17.405963 
L 48.520661 14.841164 
L 49.289256 12.276364 
L 50.057851 9.711564 
L 50.826446 7.146764 
L 51.595041 4.581964 
L 52.363636 2.017164 
L 53.132231 -0.547635 
L 53.267792 -1 
" style="fill:none;stroke:#000000;stroke-dasharray:1.85,0.8;stroke-dashoffset:0;stroke-width:0.5;"/>
   </g>
   <g id="line2d_2">
    <defs>
     <path d="M 0 3 
C 0.795609 3 1.55874 2.683901 2.12132 2.12132 
C 2.683901 1.55874 3 0.795609 3 0 
C 3 -0.795609 2.683901 -1.55874 2.12132 -2.12132 
C 1.55874 -2.683901 0.795609 -3 0 -3 
C -0.795609 -3 -1.55874 -2.683901 -2.12132 -2.12132 
C -2.683901 -1.55874 -3 -0.795609 -3 0 
C -3 0.795609 -2.683901 1.55874 -2.12132 2.12132 
C -1.55874 2.683901 -0.795609 3 0 3 
z
" id="mbc858b9cb9" style="stroke:#000000;"/>
    </defs>
    <g clip-path="url(#pd05e57ba62)">
     <use style="stroke:#000000;" x="37.646833" xlink:href="#mbc858b9cb9" y="55.609583"/>
     <use style="stroke:#000000;" x="32.388516" xlink:href="#mbc858b9cb9" y="61.135268"/>
     <use style="stroke:#000000;" x="31.013266" xlink:href="#mbc858b9cb9" y="64.916586"/>
     <use style="stroke:#000000;" x="27" xlink:href="#mbc858b9cb9" y="86.194733"/>
     <use style="stroke:#000000;" x="37.355811" xlink:href="#mbc858b9cb9" y="51.37555"/>
     <use style="stroke:#000000;" x="36.876097" xlink:href="#mbc858b9cb9" y="30.882518"/>
     <use style="stroke:#000000;" x="41.579945" xlink:href="#mbc858b9cb9" y="43.985363"/>
     <use style="stroke:#000000;" x="29.903949" xlink:href="#mbc858b9cb9" y="85.027979"/>
     <use style="stroke:#000000;" x="27" xlink:href="#mbc858b9cb9" y="83.213156"/>
     <use style="stroke:#000000;" x="35.374484" xlink:href="#mbc858b9cb9" y="56.137783"/>
     <use style="stroke:#000000;" x="39.219333" xlink:href="#mbc858b9cb9" y="47.950829"/>
     <use style="stroke:#000000;" x="32.501822" xlink:href="#mbc858b9cb9" y="70.538221"/>
     <use style="stroke:#000000;" x="33.158382" xlink:href="#mbc858b9cb9" y="75.720162"/>
     <use style="stroke:#000000;" x="31.335634" xlink:href="#mbc858b9cb9" y="81.010237"/>
     <use style="stroke:#000000;" x="35.728304" xlink:href="#mbc858b9cb9" y="56.189003"/>
     <use style="stroke:#000000;" x="36.790871" xlink:href="#mbc858b9cb9" y="36.760628"/>
     <use style="stroke:#000000;" x="35.069952" xlink:href="#mbc858b9cb9" y="71.90891"/>
     <use style="stroke:#000000;" x="29.269784" xlink:href="#mbc858b9cb9" y="81.502419"/>
     <use style="stroke:#000000;" x="33.608887" xlink:href="#mbc858b9cb9" y="42.017419"/>
     <use style="stroke:#000000;" x="30.898579" xlink:href="#mbc858b9cb9" y="75.095151"/>
     <use style="stroke:#000000;" x="33.70669" xlink:href="#mbc858b9cb9" y="65.886317"/>
     <use style="stroke:#000000;" x="42.688325" xlink:href="#mbc858b9cb9" y="43.509937"/>
     <use style="stroke:#000000;" x="32.538588" xlink:href="#mbc858b9cb9" y="80.036806"/>
     <use style="stroke:#000000;" x="32.293481" xlink:href="#mbc858b9cb9" y="70.778755"/>
     <use style="stroke:#000000;" x="32.73467" xlink:href="#mbc858b9cb9" y="73.939307"/>
     <use style="stroke:#000000;" x="29.615154" xlink:href="#mbc858b9cb9" y="85.155383"/>
     <use style="stroke:#000000;" x="35.381569" xlink:href="#mbc858b9cb9" y="37.357422"/>
     <use style="stroke:#000000;" x="37.060995" xlink:href="#mbc858b9cb9" y="73.72202"/>
     <use style="stroke:#000000;" x="33.531694" xlink:href="#mbc858b9cb9" y="53.652428"/>
     <use style="stroke:#000000;" x="30.808788" xlink:href="#mbc858b9cb9" y="77.441068"/>
    </g>
   </g>
   <g id="patch_3">
    <path d="M 27 94.5 
L 27 12.96 
" style="fill:none;stroke:#000000;stroke-linecap:square;stroke-linejoin:miter;"/>
   </g>
   <g id="patch_4">
    <path d="M 27 94.5 
L 103.090909 94.5 
" style="fill:none;stroke:#000000;stroke-linecap:square;stroke-linejoin:miter;"/>
   </g>
   <g id="matplotlib.axis_1">
    <g id="xtick_1">
     <g id="line2d_3"/>
     <g id="text_1">
      <text style="font-family:Arial;font-size:8px;font-style:normal;font-weight:normal;text-anchor:middle;" transform="rotate(-0, 27, 103.72625)" x="27" y="103.72625">0</text>
     </g>
    </g>
    <g id="xtick_2">
     <g id="line2d_4"/>
     <g id="text_2">
      <text style="font-family:Arial;font-size:8px;font-style:normal;font-weight:normal;text-anchor:middle;" transform="rotate(-0, 75.03134, 103.72625)" x="75.03134" y="103.72625">5</text>
     </g>
    </g>
    <g id="text_3">
     <text style="font-family:Arial;font-size:10px;font-style:normal;font-weight:normal;text-anchor:middle;" transform="rotate(-0, 65.045455, 116.474063)" x="65.045455" y="116.474063">Exc</text>
    </g>
   </g>
   <g id="matplotlib.axis_2">
    <g id="ytick_1">
     <g id="line2d_5"/>
     <g id="text_4">
      <text style="font-family:Arial;font-size:8px;font-style:normal;font-weight:normal;text-anchor:end;" transform="rotate(-0, 23.5, 97.363125)" x="23.5" y="97.363125">0</text>
     </g>
    </g>
    <g id="ytick_2">
     <g id="line2d_6"/>
     <g id="text_5">
      <text style="font-family:Arial;font-size:8px;font-style:normal;font-weight:normal;text-anchor:end;" transform="rotate(-0, 23.5, 76.774724)" x="23.5" y="76.774724">2</text>
     </g>
    </g>
    <g id="ytick_3">
     <g id="line2d_7"/>
     <g id="text_6">
      <text style="font-family:Arial;font-size:8px;font-style:normal;font-weight:normal;text-anchor:end;" transform="rotate(-0, 23.5, 56.186322)" x="23.5" y="56.186322">4</text>
     </g>
    </g>
    <g id="ytick_4">
     <g id="line2d_8"/>
     <g id="text_7">
      <text style="font-family:Arial;font-size:8px;font-style:normal;font-weight:normal;text-anchor:end;" transform="rotate(-0, 23.5, 35.597921)" x="23.5" y="35.597921">6</text>
     </g>
    </g>
    <g id="text_8">
     <text style="font-family:Arial;font-size:10px;font-style:normal;font-weight:normal;text-anchor:middle;" transform="rotate(-90, 13.06375, 53.73)" x="13.06375" y="53.73">Inh</text>
    </g>
   </g>
   <g id="legend_1">
    <g id="line2d_9">
     <path d="M 36 75.622656 
L 56 75.622656 
" style="fill:none;stroke:#000000;stroke-dasharray:1.85,0.8;stroke-dashoffset:0;stroke-width:0.5;"/>
    </g>
    <g id="line2d_10"/>
    <g id="text_9">
     <!-- $R^2$ 0.59 -->
     <g transform="translate(64 72.875)">
      <text>
       <tspan style="font-family:DejaVu Sans;font-size:10px;font-style:oblique;font-weight:oblique;" x="0" y="-0.9765625">R</tspan>
       <tspan style="font-family:DejaVu Sans;font-size:7px;font-style:book;font-weight:book;" x="7.650794" y="-4.8046875">2</tspan>
       <tspan style="font-family:Arial;font-size:10px;font-style:regular;font-weight:regular;" x="12.377845 15.156165 20.717689 23.496009 29.057533" y="-0.9765625"> 0.59</tspan>
      </text>
     </g>
     <text style="font-family:Arial;font-size:10px;font-style:normal;font-weight:normal;" transform="translate(64 83.4875)"> slope 3.11</text>
    </g>
   </g>
  </g>
  <g id="axes_2">
   <g id="patch_5">
    <path d="M 118.309091 94.5 
L 194.4 94.5 
L 194.4 12.96 
L 118.309091 12.96 
z
" style="fill:#ffffff;"/>
   </g>
   <g id="PathCollection_1">
    <defs>
     <path d="M 0 2.44949 
C 0.649612 2.44949 1.272706 2.191396 1.732051 1.732051 
C 2.191396 1.272706 2.44949 0.649612 2.44949 0 
C 2.44949 -0.649612 2.191396 -1.272706 1.732051 -1.732051 
C 1.272706 -2.191396 0.649612 -2.44949 0 -2.44949 
C -0.649612 -2.44949 -1.272706 -2.191396 -1.732051 -1.732051 
C -2.191396 -1.272706 -2.44949 -0.649612 -2.44949 0 
C -2.44949 0.649612 -2.191396 1.272706 -1.732051 1.732051 
C -1.272706 2.191396 -0.649612 2.44949 0 2.44949 
z
" id="m3429751c07" style="stroke:#000000;"/>
    </defs>
    <g clip-path="url(#pc368a9ab3f)">
     <use style="stroke:#000000;" x="173.278237" xlink:href="#m3429751c07" y="70.267469"/>
     <use style="stroke:#000000;" x="160.0233" xlink:href="#m3429751c07" y="26.572889"/>
     <use style="stroke:#000000;" x="148.926569" xlink:href="#m3429751c07" y="74.76552"/>
     <use style="stroke:#000000;" x="118.309091" xlink:href="#m3429751c07" y="84.371887"/>
     <use style="stroke:#000000;" x="152.164645" xlink:href="#m3429751c07" y="20.232314"/>
     <use style="stroke:#000000;" x="150.537457" xlink:href="#m3429751c07" y="27.622592"/>
     <use style="stroke:#000000;" x="188.670742" xlink:href="#m3429751c07" y="19.769216"/>
     <use style="stroke:#000000;" x="134.45978" xlink:href="#m3429751c07" y="70.10348"/>
     <use style="stroke:#000000;" x="118.309091" xlink:href="#m3429751c07" y="68.53745"/>
     <use style="stroke:#000000;" x="153.197586" xlink:href="#m3429751c07" y="42.723"/>
     <use style="stroke:#000000;" x="175.368975" xlink:href="#m3429751c07" y="62.49652"/>
     <use style="stroke:#000000;" x="147.739789" xlink:href="#m3429751c07" y="69.000938"/>
     <use style="stroke:#000000;" x="141.963863" xlink:href="#m3429751c07" y="73.297089"/>
     <use style="stroke:#000000;" x="137.999737" xlink:href="#m3429751c07" y="80.499898"/>
     <use style="stroke:#000000;" x="162.701919" xlink:href="#m3429751c07" y="50.122175"/>
     <use style="stroke:#000000;" x="173.506254" xlink:href="#m3429751c07" y="49.739936"/>
     <use style="stroke:#000000;" x="156.646031" xlink:href="#m3429751c07" y="65.390248"/>
     <use style="stroke:#000000;" x="137.125504" xlink:href="#m3429751c07" y="79.545239"/>
     <use style="stroke:#000000;" x="153.58908" xlink:href="#m3429751c07" y="63.596323"/>
     <use style="stroke:#000000;" x="147.936409" xlink:href="#m3429751c07" y="57.498691"/>
     <use style="stroke:#000000;" x="141.224136" xlink:href="#m3429751c07" y="56.553834"/>
     <use style="stroke:#000000;" x="190.016052" xlink:href="#m3429751c07" y="42.916586"/>
     <use style="stroke:#000000;" x="121.079256" xlink:href="#m3429751c07" y="69.384259"/>
     <use style="stroke:#000000;" x="141.387622" xlink:href="#m3429751c07" y="74.538967"/>
     <use style="stroke:#000000;" x="147.812104" xlink:href="#m3429751c07" y="63.805045"/>
     <use style="stroke:#000000;" x="138.955822" xlink:href="#m3429751c07" y="80.872924"/>
     <use style="stroke:#000000;" x="145.847419" xlink:href="#m3429751c07" y="60.823761"/>
     <use style="stroke:#000000;" x="166.099357" xlink:href="#m3429751c07" y="46.595288"/>
     <use style="stroke:#000000;" x="143.982453" xlink:href="#m3429751c07" y="30.308985"/>
     <use style="stroke:#000000;" x="135.288284" xlink:href="#m3429751c07" y="74.838279"/>
    </g>
   </g>
   <g id="line2d_11">
    <path clip-path="url(#pc368a9ab3f)" d="M 118.309091 76.896749 
L 119.077686 76.453954 
L 119.846281 76.011159 
L 120.614876 75.568364 
L 121.383471 75.12557 
L 122.152066 74.682775 
L 122.920661 74.23998 
L 123.689256 73.797186 
L 124.457851 73.354391 
L 125.226446 72.911596 
L 125.995041 72.468801 
L 126.763636 72.026007 
L 127.532231 71.583212 
L 128.300826 71.140417 
L 129.069421 70.697623 
L 129.838017 70.254828 
L 130.606612 69.812033 
L 131.375207 69.369238 
L 132.143802 68.926444 
L 132.912397 68.483649 
L 133.680992 68.040854 
L 134.449587 67.59806 
L 135.218182 67.155265 
L 135.986777 66.71247 
L 136.755372 66.269675 
L 137.523967 65.826881 
L 138.292562 65.384086 
L 139.061157 64.941291 
L 139.829752 64.498496 
L 140.598347 64.055702 
L 141.366942 63.612907 
L 142.135537 63.170112 
L 142.904132 62.727318 
L 143.672727 62.284523 
L 144.441322 61.841728 
L 145.209917 61.398933 
L 145.978512 60.956139 
L 146.747107 60.513344 
L 147.515702 60.070549 
L 148.284298 59.627755 
L 149.052893 59.18496 
L 149.821488 58.742165 
L 150.590083 58.29937 
L 151.358678 57.856576 
L 152.127273 57.413781 
L 152.895868 56.970986 
L 153.664463 56.528192 
L 154.433058 56.085397 
L 155.201653 55.642602 
L 155.970248 55.199807 
L 156.738843 54.757013 
L 157.507438 54.314218 
L 158.276033 53.871423 
L 159.044628 53.428629 
L 159.813223 52.985834 
L 160.581818 52.543039 
L 161.350413 52.100244 
L 162.119008 51.65745 
L 162.887603 51.214655 
L 163.656198 50.77186 
L 164.424793 50.329066 
L 165.193388 49.886271 
L 165.961983 49.443476 
L 166.730579 49.000681 
L 167.499174 48.557887 
L 168.267769 48.115092 
L 169.036364 47.672297 
L 169.804959 47.229502 
L 170.573554 46.786708 
L 171.342149 46.343913 
L 172.110744 45.901118 
L 172.879339 45.458324 
L 173.647934 45.015529 
L 174.416529 44.572734 
L 175.185124 44.129939 
L 175.953719 43.687145 
L 176.722314 43.24435 
L 177.490909 42.801555 
L 178.259504 42.358761 
L 179.028099 41.915966 
L 179.796694 41.473171 
L 180.565289 41.030376 
L 181.333884 40.587582 
L 182.102479 40.144787 
L 182.871074 39.701992 
L 183.639669 39.259198 
L 184.408264 38.816403 
L 185.17686 38.373608 
L 185.945455 37.930813 
L 186.71405 37.488019 
L 187.482645 37.045224 
L 188.25124 36.602429 
L 189.019835 36.159635 
L 189.78843 35.71684 
L 190.557025 35.274045 
L 191.32562 34.83125 
L 192.094215 34.388456 
L 192.86281 33.945661 
L 193.631405 33.502866 
L 194.4 33.060072 
" style="fill:none;stroke:#000000;stroke-dasharray:1.85,0.8;stroke-dashoffset:0;stroke-width:0.5;"/>
   </g>
   <g id="patch_6">
    <path d="M 118.309091 94.5 
L 118.309091 12.96 
" style="fill:none;stroke:#000000;stroke-linecap:square;stroke-linejoin:miter;"/>
   </g>
   <g id="patch_7">
    <path d="M 118.309091 94.5 
L 194.4 94.5 
" style="fill:none;stroke:#000000;stroke-linecap:square;stroke-linejoin:miter;"/>
   </g>
   <g id="matplotlib.axis_3">
    <g id="xtick_3">
     <g id="line2d_12"/>
     <g id="text_10">
      <text style="font-family:Arial;font-size:8px;font-style:normal;font-weight:normal;text-anchor:middle;" transform="rotate(-0, 118.309091, 103.72625)" x="118.309091" y="103.72625">0</text>
     </g>
    </g>
    <g id="xtick_4">
     <g id="line2d_13"/>
     <g id="text_11">
      <text style="font-family:Arial;font-size:8px;font-style:normal;font-weight:normal;text-anchor:middle;" transform="rotate(-0, 163.41401, 103.72625)" x="163.41401" y="103.72625">1</text>
     </g>
    </g>
    <g id="text_12">
     <!-- $\sigma$(Exc) -->
     <g transform="translate(141.504545 116.61625)">
      <text>
       <tspan style="font-family:DejaVu Sans;font-size:10px;font-style:oblique;font-weight:oblique;" x="0" y="-0.71875">σ</tspan>
       <tspan style="font-family:Arial;font-size:10px;font-style:regular;font-weight:regular;" x="6.337891 9.667969 16.337891 21.337891 26.337891" y="-0.71875">(Exc)</tspan>
      </text>
     </g>
    </g>
   </g>
   <g id="matplotlib.axis_4">
    <g id="ytick_5">
     <g id="line2d_14"/>
     <g id="text_13">
      <text style="font-family:Arial;font-size:8px;font-style:normal;font-weight:normal;text-anchor:end;" transform="rotate(-0, 114.809091, 97.363125)" x="114.809091" y="97.363125">0.0</text>
     </g>
    </g>
    <g id="ytick_6">
     <g id="line2d_15"/>
     <g id="text_14">
      <text style="font-family:Arial;font-size:8px;font-style:normal;font-weight:normal;text-anchor:end;" transform="rotate(-0, 114.809091, 73.195619)" x="114.809091" y="73.195619">0.5</text>
     </g>
    </g>
    <g id="ytick_7">
     <g id="line2d_16"/>
     <g id="text_15">
      <text style="font-family:Arial;font-size:8px;font-style:normal;font-weight:normal;text-anchor:end;" transform="rotate(-0, 114.809091, 49.028112)" x="114.809091" y="49.028112">1.0</text>
     </g>
    </g>
    <g id="ytick_8">
     <g id="line2d_17"/>
     <g id="text_16">
      <text style="font-family:Arial;font-size:8px;font-style:normal;font-weight:normal;text-anchor:end;" transform="rotate(-0, 114.809091, 24.860606)" x="114.809091" y="24.860606">1.5</text>
     </g>
    </g>
    <g id="text_17">
     <!-- $\sigma$(Inh) -->
     <g transform="translate(97.489091 67.18)rotate(-90)">
      <text>
       <tspan style="font-family:DejaVu Sans;font-size:10px;font-style:oblique;font-weight:oblique;" x="0" y="-0.71875">σ</tspan>
       <tspan style="font-family:Arial;font-size:10px;font-style:regular;font-weight:regular;" x="6.337891 9.667969 12.446289 18.007812 23.569336" y="-0.71875">(Inh)</tspan>
      </text>
     </g>
    </g>
   </g>
   <g id="legend_2">
    <g id="line2d_18">
     <path d="M 108.478125 31.995156 
L 128.478125 31.995156 
" style="fill:none;stroke:#000000;stroke-dasharray:1.85,0.8;stroke-dashoffset:0;stroke-width:0.5;"/>
    </g>
    <g id="line2d_19"/>
    <g id="text_18">
     <!-- $R^2$ 0.30 -->
     <g transform="translate(136.478125 29.2475)">
      <text>
       <tspan style="font-family:DejaVu Sans;font-size:10px;font-style:oblique;font-weight:oblique;" x="0" y="-0.9765625">R</tspan>
       <tspan style="font-family:DejaVu Sans;font-size:7px;font-style:book;font-weight:book;" x="7.650794" y="-4.8046875">2</tspan>
       <tspan style="font-family:Arial;font-size:10px;font-style:regular;font-weight:regular;" x="12.377845 15.156165 20.717689 23.496009 29.057533" y="-0.9765625"> 0.30</tspan>
      </text>
     </g>
     <text style="font-family:Arial;font-size:10px;font-style:normal;font-weight:normal;" transform="translate(136.478125 39.86)"> slope 0.54</text>
    </g>
   </g>
  </g>
 </g>
 <defs>
  <clipPath id="pd05e57ba62">
   <rect height="81.54" width="76.090909" x="27" y="12.96"/>
  </clipPath>
  <clipPath id="pc368a9ab3f">
   <rect height="81.54" width="76.090909" x="118.309091" y="12.96"/>
  </clipPath>
 </defs>
</svg>
