<?xml version="1.0" encoding="utf-8" standalone="no"?>
<!DOCTYPE svg PUBLIC "-//W3C//DTD SVG 1.1//EN"
  "http://www.w3.org/Graphics/SVG/1.1/DTD/svg11.dtd">
<!-- Created with matplotlib (http://matplotlib.org/) -->
<svg height="108pt" version="1.1" viewBox="0 0 216 108" width="216pt" xmlns="http://www.w3.org/2000/svg" xmlns:xlink="http://www.w3.org/1999/xlink">
 <defs>
  <style type="text/css">
*{stroke-linecap:butt;stroke-linejoin:round;}
  </style>
 </defs>
 <g id="figure_1">
  <g id="patch_1">
   <path d="M 0 108 
L 216 108 
L 216 0 
L 0 0 
z
" style="fill:#ffffff;"/>
  </g>
  <g id="axes_1">
   <g id="patch_2">
    <path d="M 27 94.5 
L 103.090909 94.5 
L 103.090909 12.96 
L 27 12.96 
z
" style="fill:#ffffff;"/>
   </g>
   <g id="LineCollection_1">
    <path clip-path="url(#pb1c5c3f9d9)" d="M 25.555561 76.114736 
L 37.429282 76.114736 
" style="fill:none;stroke:#000000;stroke-width:0.5;"/>
    <path clip-path="url(#pb1c5c3f9d9)" d="M 28.925414 49.464762 
L 43.397607 49.464762 
" style="fill:none;stroke:#000000;stroke-width:0.5;"/>
    <path clip-path="url(#pb1c5c3f9d9)" d="M 26.660394 93.133735 
L 28.576351 93.133735 
" style="fill:none;stroke:#000000;stroke-width:0.5;"/>
    <path clip-path="url(#pb1c5c3f9d9)" d="M 25.396748 83.763195 
L 32.191345 83.763195 
" style="fill:none;stroke:#000000;stroke-width:0.5;"/>
    <path clip-path="url(#pb1c5c3f9d9)" d="M 26.799887 87.425013 
L 30.05319 87.425013 
" style="fill:none;stroke:#000000;stroke-width:0.5;"/>
    <path clip-path="url(#pb1c5c3f9d9)" d="M 28.368182 74.385738 
L 33.068633 74.385738 
" style="fill:none;stroke:#000000;stroke-width:0.5;"/>
    <path clip-path="url(#pb1c5c3f9d9)" d="M 27.167447 69.934333 
L 40.76525 69.934333 
" style="fill:none;stroke:#000000;stroke-width:0.5;"/>
    <path clip-path="url(#pb1c5c3f9d9)" d="M 26.099205 73.152812 
L 35.633338 73.152812 
" style="fill:none;stroke:#000000;stroke-width:0.5;"/>
    <path clip-path="url(#pb1c5c3f9d9)" d="M 27.213851 76.300172 
L 34.930925 76.300172 
" style="fill:none;stroke:#000000;stroke-width:0.5;"/>
    <path clip-path="url(#pb1c5c3f9d9)" d="M 23.400236 71.476714 
L 37.04208 71.476714 
" style="fill:none;stroke:#000000;stroke-width:0.5;"/>
    <path clip-path="url(#pb1c5c3f9d9)" d="M 25.271485 64.42483 
L 47.631097 64.42483 
" style="fill:none;stroke:#000000;stroke-width:0.5;"/>
    <path clip-path="url(#pb1c5c3f9d9)" d="M 27.821338 64.906566 
L 31.082988 64.906566 
" style="fill:none;stroke:#000000;stroke-width:0.5;"/>
    <path clip-path="url(#pb1c5c3f9d9)" d="M 33.307191 31.927938 
L 52.319264 31.927938 
" style="fill:none;stroke:#000000;stroke-width:0.5;"/>
    <path clip-path="url(#pb1c5c3f9d9)" d="M 26.15421 65.363768 
L 36.43989 65.363768 
" style="fill:none;stroke:#000000;stroke-width:0.5;"/>
    <path clip-path="url(#pb1c5c3f9d9)" d="M 25.486612 81.361992 
L 34.022542 81.361992 
" style="fill:none;stroke:#000000;stroke-width:0.5;"/>
    <path clip-path="url(#pb1c5c3f9d9)" d="M 30.218005 56.746305 
L 42.815743 56.746305 
" style="fill:none;stroke:#000000;stroke-width:0.5;"/>
    <path clip-path="url(#pb1c5c3f9d9)" d="M 27.846207 75.346225 
L 34.944596 75.346225 
" style="fill:none;stroke:#000000;stroke-width:0.5;"/>
    <path clip-path="url(#pb1c5c3f9d9)" d="M 28.33063 71.128632 
L 34.678357 71.128632 
" style="fill:none;stroke:#000000;stroke-width:0.5;"/>
    <path clip-path="url(#pb1c5c3f9d9)" d="M 26.640206 84.534221 
L 30.269683 84.534221 
" style="fill:none;stroke:#000000;stroke-width:0.5;"/>
    <path clip-path="url(#pb1c5c3f9d9)" d="M 28.189634 39.613669 
L 31.39513 39.613669 
" style="fill:none;stroke:#000000;stroke-width:0.5;"/>
    <path clip-path="url(#pb1c5c3f9d9)" d="M 26.721318 68.252185 
L 40.849333 68.252185 
" style="fill:none;stroke:#000000;stroke-width:0.5;"/>
    <path clip-path="url(#pb1c5c3f9d9)" d="M 27.160256 73.260755 
L 33.666384 73.260755 
" style="fill:none;stroke:#000000;stroke-width:0.5;"/>
    <path clip-path="url(#pb1c5c3f9d9)" d="M 26.365674 88.02255 
L 29.944353 88.02255 
" style="fill:none;stroke:#000000;stroke-width:0.5;"/>
    <path clip-path="url(#pb1c5c3f9d9)" d="M 25.933283 61.912357 
L 29.538568 61.912357 
" style="fill:none;stroke:#000000;stroke-width:0.5;"/>
    <path clip-path="url(#pb1c5c3f9d9)" d="M 24.297111 38.932725 
L 59.980346 38.932725 
" style="fill:none;stroke:#000000;stroke-width:0.5;"/>
    <path clip-path="url(#pb1c5c3f9d9)" d="M 26.01507 85.34257 
L 34.497658 85.34257 
" style="fill:none;stroke:#000000;stroke-width:0.5;"/>
    <path clip-path="url(#pb1c5c3f9d9)" d="M 26.906826 80.790456 
L 38.371212 80.790456 
" style="fill:none;stroke:#000000;stroke-width:0.5;"/>
    <path clip-path="url(#pb1c5c3f9d9)" d="M 27.691893 71.635718 
L 38.483311 71.635718 
" style="fill:none;stroke:#000000;stroke-width:0.5;"/>
    <path clip-path="url(#pb1c5c3f9d9)" d="M 26.579121 85.593945 
L 28.953595 85.593945 
" style="fill:none;stroke:#000000;stroke-width:0.5;"/>
    <path clip-path="url(#pb1c5c3f9d9)" d="M 26.108902 73.689533 
L 34.489438 73.689533 
" style="fill:none;stroke:#000000;stroke-width:0.5;"/>
   </g>
   <g id="LineCollection_2">
    <path clip-path="url(#pb1c5c3f9d9)" d="M 31.492422 82.527093 
L 31.492422 69.702378 
" style="fill:none;stroke:#000000;stroke-width:0.5;"/>
    <path clip-path="url(#pb1c5c3f9d9)" d="M 36.16151 58.384865 
L 36.16151 40.544658 
" style="fill:none;stroke:#000000;stroke-width:0.5;"/>
    <path clip-path="url(#pb1c5c3f9d9)" d="M 27.618372 94.192039 
L 27.618372 92.07543 
" style="fill:none;stroke:#000000;stroke-width:0.5;"/>
    <path clip-path="url(#pb1c5c3f9d9)" d="M 28.794046 85.013509 
L 28.794046 82.51288 
" style="fill:none;stroke:#000000;stroke-width:0.5;"/>
    <path clip-path="url(#pb1c5c3f9d9)" d="M 28.426538 90.144116 
L 28.426538 84.70591 
" style="fill:none;stroke:#000000;stroke-width:0.5;"/>
    <path clip-path="url(#pb1c5c3f9d9)" d="M 30.718407 78.028535 
L 30.718407 70.742941 
" style="fill:none;stroke:#000000;stroke-width:0.5;"/>
    <path clip-path="url(#pb1c5c3f9d9)" d="M 33.966349 74.057478 
L 33.966349 65.811187 
" style="fill:none;stroke:#000000;stroke-width:0.5;"/>
    <path clip-path="url(#pb1c5c3f9d9)" d="M 30.866271 78.120052 
L 30.866271 68.185571 
" style="fill:none;stroke:#000000;stroke-width:0.5;"/>
    <path clip-path="url(#pb1c5c3f9d9)" d="M 31.072388 79.510972 
L 31.072388 73.089373 
" style="fill:none;stroke:#000000;stroke-width:0.5;"/>
    <path clip-path="url(#pb1c5c3f9d9)" d="M 30.221158 74.8213 
L 30.221158 68.132127 
" style="fill:none;stroke:#000000;stroke-width:0.5;"/>
    <path clip-path="url(#pb1c5c3f9d9)" d="M 36.451291 67.881789 
L 36.451291 60.967871 
" style="fill:none;stroke:#000000;stroke-width:0.5;"/>
    <path clip-path="url(#pb1c5c3f9d9)" d="M 29.452163 68.955977 
L 29.452163 60.857155 
" style="fill:none;stroke:#000000;stroke-width:0.5;"/>
    <path clip-path="url(#pb1c5c3f9d9)" d="M 42.813228 42.075655 
L 42.813228 21.78022 
" style="fill:none;stroke:#000000;stroke-width:0.5;"/>
    <path clip-path="url(#pb1c5c3f9d9)" d="M 31.29705 71.387855 
L 31.29705 59.339682 
" style="fill:none;stroke:#000000;stroke-width:0.5;"/>
    <path clip-path="url(#pb1c5c3f9d9)" d="M 29.754577 86.94949 
L 29.754577 75.774495 
" style="fill:none;stroke:#000000;stroke-width:0.5;"/>
    <path clip-path="url(#pb1c5c3f9d9)" d="M 36.516874 60.799658 
L 36.516874 52.692952 
" style="fill:none;stroke:#000000;stroke-width:0.5;"/>
    <path clip-path="url(#pb1c5c3f9d9)" d="M 31.395401 79.054008 
L 31.395401 71.638441 
" style="fill:none;stroke:#000000;stroke-width:0.5;"/>
    <path clip-path="url(#pb1c5c3f9d9)" d="M 31.504494 74.939628 
L 31.504494 67.317635 
" style="fill:none;stroke:#000000;stroke-width:0.5;"/>
    <path clip-path="url(#pb1c5c3f9d9)" d="M 28.454945 87.318785 
L 28.454945 81.749656 
" style="fill:none;stroke:#000000;stroke-width:0.5;"/>
    <path clip-path="url(#pb1c5c3f9d9)" d="M 29.792382 42.763348 
L 29.792382 36.46399 
" style="fill:none;stroke:#000000;stroke-width:0.5;"/>
    <path clip-path="url(#pb1c5c3f9d9)" d="M 33.785326 77.251294 
L 33.785326 59.253076 
" style="fill:none;stroke:#000000;stroke-width:0.5;"/>
    <path clip-path="url(#pb1c5c3f9d9)" d="M 30.41332 77.708278 
L 30.41332 68.813233 
" style="fill:none;stroke:#000000;stroke-width:0.5;"/>
    <path clip-path="url(#pb1c5c3f9d9)" d="M 28.155014 89.459175 
L 28.155014 86.585924 
" style="fill:none;stroke:#000000;stroke-width:0.5;"/>
    <path clip-path="url(#pb1c5c3f9d9)" d="M 27.735926 73.453543 
L 27.735926 50.371171 
" style="fill:none;stroke:#000000;stroke-width:0.5;"/>
    <path clip-path="url(#pb1c5c3f9d9)" d="M 42.138728 61.037257 
L 42.138728 16.828192 
" style="fill:none;stroke:#000000;stroke-width:0.5;"/>
    <path clip-path="url(#pb1c5c3f9d9)" d="M 30.256364 87.548211 
L 30.256364 83.136929 
" style="fill:none;stroke:#000000;stroke-width:0.5;"/>
    <path clip-path="url(#pb1c5c3f9d9)" d="M 32.639019 87.231179 
L 32.639019 74.349733 
" style="fill:none;stroke:#000000;stroke-width:0.5;"/>
    <path clip-path="url(#pb1c5c3f9d9)" d="M 33.087602 75.471081 
L 33.087602 67.800355 
" style="fill:none;stroke:#000000;stroke-width:0.5;"/>
    <path clip-path="url(#pb1c5c3f9d9)" d="M 27.766358 86.406173 
L 27.766358 84.781716 
" style="fill:none;stroke:#000000;stroke-width:0.5;"/>
    <path clip-path="url(#pb1c5c3f9d9)" d="M 30.29917 79.103358 
L 30.29917 68.275708 
" style="fill:none;stroke:#000000;stroke-width:0.5;"/>
   </g>
   <g id="line2d_1">
    <path clip-path="url(#pb1c5c3f9d9)" d="M 27 84.708739 
L 27.768595 82.434204 
L 28.53719 80.159669 
L 29.305785 77.885133 
L 30.07438 75.610598 
L 30.842975 73.336063 
L 31.61157 71.061528 
L 32.380165 68.786992 
L 33.14876 66.512457 
L 33.917355 64.237922 
L 34.68595 61.963387 
L 35.454545 59.688851 
L 36.22314 57.414316 
L 36.991736 55.139781 
L 37.760331 52.865246 
L 38.528926 50.59071 
L 39.297521 48.316175 
L 40.066116 46.04164 
L 40.834711 43.767105 
L 41.603306 41.492569 
L 42.371901 39.218034 
L 43.140496 36.943499 
L 43.909091 34.668964 
L 44.677686 32.394428 
L 45.446281 30.119893 
L 46.214876 27.845358 
L 46.983471 25.570823 
L 47.752066 23.296287 
L 48.520661 21.021752 
L 49.289256 18.747217 
L 50.057851 16.472682 
L 50.826446 14.198146 
L 51.595041 11.923611 
L 52.363636 9.649076 
L 53.132231 7.374541 
L 53.900826 5.100005 
L 54.669421 2.82547 
L 55.438017 0.550935 
L 55.962098 -1 
" style="fill:none;stroke:#000000;stroke-dasharray:1.85,0.8;stroke-dashoffset:0;stroke-width:0.5;"/>
   </g>
   <g id="line2d_2">
    <defs>
     <path d="M 0 3 
C 0.795609 3 1.55874 2.683901 2.12132 2.12132 
C 2.683901 1.55874 3 0.795609 3 0 
C 3 -0.795609 2.683901 -1.55874 2.12132 -2.12132 
C 1.55874 -2.683901 0.795609 -3 0 -3 
C -0.795609 -3 -1.55874 -2.683901 -2.12132 -2.12132 
C -2.683901 -1.55874 -3 -0.795609 -3 0 
C -3 0.795609 -2.683901 1.55874 -2.12132 2.12132 
C -1.55874 2.683901 -0.795609 3 0 3 
z
" id="me58c1d13ea" style="stroke:#000000;"/>
    </defs>
    <g clip-path="url(#pb1c5c3f9d9)">
     <use style="stroke:#000000;" x="31.492422" xlink:href="#me58c1d13ea" y="76.114736"/>
     <use style="stroke:#000000;" x="36.16151" xlink:href="#me58c1d13ea" y="49.464762"/>
     <use style="stroke:#000000;" x="27.618372" xlink:href="#me58c1d13ea" y="93.133735"/>
     <use style="stroke:#000000;" x="28.794046" xlink:href="#me58c1d13ea" y="83.763195"/>
     <use style="stroke:#000000;" x="28.426538" xlink:href="#me58c1d13ea" y="87.425013"/>
     <use style="stroke:#000000;" x="30.718407" xlink:href="#me58c1d13ea" y="74.385738"/>
     <use style="stroke:#000000;" x="33.966349" xlink:href="#me58c1d13ea" y="69.934333"/>
     <use style="stroke:#000000;" x="30.866271" xlink:href="#me58c1d13ea" y="73.152812"/>
     <use style="stroke:#000000;" x="31.072388" xlink:href="#me58c1d13ea" y="76.300172"/>
     <use style="stroke:#000000;" x="30.221158" xlink:href="#me58c1d13ea" y="71.476714"/>
     <use style="stroke:#000000;" x="36.451291" xlink:href="#me58c1d13ea" y="64.42483"/>
     <use style="stroke:#000000;" x="29.452163" xlink:href="#me58c1d13ea" y="64.906566"/>
     <use style="stroke:#000000;" x="42.813228" xlink:href="#me58c1d13ea" y="31.927938"/>
     <use style="stroke:#000000;" x="31.29705" xlink:href="#me58c1d13ea" y="65.363768"/>
     <use style="stroke:#000000;" x="29.754577" xlink:href="#me58c1d13ea" y="81.361992"/>
     <use style="stroke:#000000;" x="36.516874" xlink:href="#me58c1d13ea" y="56.746305"/>
     <use style="stroke:#000000;" x="31.395401" xlink:href="#me58c1d13ea" y="75.346225"/>
     <use style="stroke:#000000;" x="31.504494" xlink:href="#me58c1d13ea" y="71.128632"/>
     <use style="stroke:#000000;" x="28.454945" xlink:href="#me58c1d13ea" y="84.534221"/>
     <use style="stroke:#000000;" x="29.792382" xlink:href="#me58c1d13ea" y="39.613669"/>
     <use style="stroke:#000000;" x="33.785326" xlink:href="#me58c1d13ea" y="68.252185"/>
     <use style="stroke:#000000;" x="30.41332" xlink:href="#me58c1d13ea" y="73.260755"/>
     <use style="stroke:#000000;" x="28.155014" xlink:href="#me58c1d13ea" y="88.02255"/>
     <use style="stroke:#000000;" x="27.735926" xlink:href="#me58c1d13ea" y="61.912357"/>
     <use style="stroke:#000000;" x="42.138728" xlink:href="#me58c1d13ea" y="38.932725"/>
     <use style="stroke:#000000;" x="30.256364" xlink:href="#me58c1d13ea" y="85.34257"/>
     <use style="stroke:#000000;" x="32.639019" xlink:href="#me58c1d13ea" y="80.790456"/>
     <use style="stroke:#000000;" x="33.087602" xlink:href="#me58c1d13ea" y="71.635718"/>
     <use style="stroke:#000000;" x="27.766358" xlink:href="#me58c1d13ea" y="85.593945"/>
     <use style="stroke:#000000;" x="30.29917" xlink:href="#me58c1d13ea" y="73.689533"/>
    </g>
   </g>
   <g id="patch_3">
    <path d="M 27 94.5 
L 27 12.96 
" style="fill:none;stroke:#000000;stroke-linecap:square;stroke-linejoin:miter;"/>
   </g>
   <g id="patch_4">
    <path d="M 27 94.5 
L 103.090909 94.5 
" style="fill:none;stroke:#000000;stroke-linecap:square;stroke-linejoin:miter;"/>
   </g>
   <g id="matplotlib.axis_1">
    <g id="xtick_1">
     <g id="line2d_3"/>
     <g id="text_1">
      <text style="font-family:Arial;font-size:8px;font-style:normal;font-weight:normal;text-anchor:middle;" transform="rotate(-0, 27, 103.72625)" x="27" y="103.72625">0</text>
     </g>
    </g>
    <g id="xtick_2">
     <g id="line2d_4"/>
     <g id="text_2">
      <text style="font-family:Arial;font-size:8px;font-style:normal;font-weight:normal;text-anchor:middle;" transform="rotate(-0, 54.88835, 103.72625)" x="54.88835" y="103.72625">5</text>
     </g>
    </g>
    <g id="xtick_3">
     <g id="line2d_5"/>
     <g id="text_3">
      <text style="font-family:Arial;font-size:8px;font-style:normal;font-weight:normal;text-anchor:middle;" transform="rotate(-0, 82.776701, 103.72625)" x="82.776701" y="103.72625">10</text>
     </g>
    </g>
    <g id="text_4">
     <text style="font-family:Arial;font-size:10px;font-style:normal;font-weight:normal;text-anchor:middle;" transform="rotate(-0, 65.045455, 116.474063)" x="65.045455" y="116.474063">Exc</text>
    </g>
   </g>
   <g id="matplotlib.axis_2">
    <g id="ytick_1">
     <g id="line2d_6"/>
     <g id="text_5">
      <text style="font-family:Arial;font-size:8px;font-style:normal;font-weight:normal;text-anchor:end;" transform="rotate(-0, 23.5, 97.363125)" x="23.5" y="97.363125">0</text>
     </g>
    </g>
    <g id="ytick_2">
     <g id="line2d_7"/>
     <g id="text_6">
      <text style="font-family:Arial;font-size:8px;font-style:normal;font-weight:normal;text-anchor:end;" transform="rotate(-0, 23.5, 67.477609)" x="23.5" y="67.477609">5</text>
     </g>
    </g>
    <g id="ytick_3">
     <g id="line2d_8"/>
     <g id="text_7">
      <text style="font-family:Arial;font-size:8px;font-style:normal;font-weight:normal;text-anchor:end;" transform="rotate(-0, 23.5, 37.592093)" x="23.5" y="37.592093">10</text>
     </g>
    </g>
    <g id="text_8">
     <text style="font-family:Arial;font-size:10px;font-style:normal;font-weight:normal;text-anchor:middle;" transform="rotate(-90, 8.615, 53.73)" x="8.615" y="53.73">Inh</text>
    </g>
   </g>
   <g id="legend_1">
    <g id="line2d_9">
     <path d="M 36 75.622656 
L 56 75.622656 
" style="fill:none;stroke:#000000;stroke-dasharray:1.85,0.8;stroke-dashoffset:0;stroke-width:0.5;"/>
    </g>
    <g id="line2d_10"/>
    <g id="text_9">
     <!-- $R^2$ 0.57 -->
     <g transform="translate(64 72.875)">
      <text>
       <tspan style="font-family:DejaVu Sans;font-size:10px;font-style:oblique;font-weight:oblique;" x="0" y="-0.9765625">R</tspan>
       <tspan style="font-family:DejaVu Sans;font-size:7px;font-style:book;font-weight:book;" x="7.650794" y="-4.8046875">2</tspan>
       <tspan style="font-family:Arial;font-size:10px;font-style:regular;font-weight:regular;" x="12.377845 15.156165 20.717689 23.496009 29.057533" y="-0.9765625"> 0.57</tspan>
      </text>
     </g>
     <text style="font-family:Arial;font-size:10px;font-style:normal;font-weight:normal;" transform="translate(64 83.4875)"> slope 2.76</text>
    </g>
   </g>
  </g>
  <g id="axes_2">
   <g id="patch_5">
    <path d="M 118.309091 94.5 
L 194.4 94.5 
L 194.4 12.96 
L 118.309091 12.96 
z
" style="fill:#ffffff;"/>
   </g>
   <g id="PathCollection_1">
    <defs>
     <path d="M 0 2.44949 
C 0.649612 2.44949 1.272706 2.191396 1.732051 1.732051 
C 2.191396 1.272706 2.44949 0.649612 2.44949 0 
C 2.44949 -0.649612 2.191396 -1.272706 1.732051 -1.732051 
C 1.272706 -2.191396 0.649612 -2.44949 0 -2.44949 
C -0.649612 -2.44949 -1.272706 -2.191396 -1.732051 -1.732051 
C -2.191396 -1.272706 -2.44949 -0.649612 -2.44949 0 
C -2.44949 0.649612 -2.191396 1.272706 -1.732051 1.732051 
C -1.272706 2.191396 -0.649612 2.44949 0 2.44949 
z
" id="mf6302a6f56" style="stroke:#000000;"/>
    </defs>
    <g clip-path="url(#p009674dd61)">
     <use style="stroke:#000000;" x="139.136314" xlink:href="#mf6302a6f56" y="72.004676"/>
     <use style="stroke:#000000;" x="143.694191" xlink:href="#mf6302a6f56" y="63.207199"/>
     <use style="stroke:#000000;" x="121.669794" xlink:href="#mf6302a6f56" y="90.78734"/>
     <use style="stroke:#000000;" x="130.227224" xlink:href="#mf6302a6f56" y="90.113744"/>
     <use style="stroke:#000000;" x="124.015581" xlink:href="#mf6302a6f56" y="84.961059"/>
     <use style="stroke:#000000;" x="126.553965" xlink:href="#mf6302a6f56" y="81.720628"/>
     <use style="stroke:#000000;" x="142.160458" xlink:href="#mf6302a6f56" y="80.035507"/>
     <use style="stroke:#000000;" x="135.032536" xlink:href="#mf6302a6f56" y="77.074322"/>
     <use style="stroke:#000000;" x="131.845304" xlink:href="#mf6302a6f56" y="83.236127"/>
     <use style="stroke:#000000;" x="142.237709" xlink:href="#mf6302a6f56" y="82.766787"/>
     <use style="stroke:#000000;" x="157.529199" xlink:href="#mf6302a6f56" y="82.372571"/>
     <use style="stroke:#000000;" x="124.030221" xlink:href="#mf6302a6f56" y="80.294179"/>
     <use style="stroke:#000000;" x="151.657415" xlink:href="#mf6302a6f56" y="58.900582"/>
     <use style="stroke:#000000;" x="136.350794" xlink:href="#mf6302a6f56" y="73.366777"/>
     <use style="stroke:#000000;" x="133.281627" xlink:href="#mf6302a6f56" y="74.898384"/>
     <use style="stroke:#000000;" x="140.406284" xlink:href="#mf6302a6f56" y="80.280347"/>
     <use style="stroke:#000000;" x="130.760095" xlink:href="#mf6302a6f56" y="81.492648"/>
     <use style="stroke:#000000;" x="129.443388" xlink:href="#mf6302a6f56" y="81.130564"/>
     <use style="stroke:#000000;" x="124.675413" xlink:href="#mf6302a6f56" y="84.731411"/>
     <use style="stroke:#000000;" x="123.931724" xlink:href="#mf6302a6f56" y="83.450546"/>
     <use style="stroke:#000000;" x="143.090483" xlink:href="#mf6302a6f56" y="62.930039"/>
     <use style="stroke:#000000;" x="129.721232" xlink:href="#mf6302a6f56" y="78.897555"/>
     <use style="stroke:#000000;" x="124.58631" xlink:href="#mf6302a6f56" y="89.460145"/>
     <use style="stroke:#000000;" x="124.632977" xlink:href="#mf6302a6f56" y="54.012126"/>
     <use style="stroke:#000000;" x="180.89964" xlink:href="#mf6302a6f56" y="16.954632"/>
     <use style="stroke:#000000;" x="133.188062" xlink:href="#mf6302a6f56" y="86.762346"/>
     <use style="stroke:#000000;" x="138.418315" xlink:href="#mf6302a6f56" y="71.905166"/>
     <use style="stroke:#000000;" x="137.23789" xlink:href="#mf6302a6f56" y="81.045084"/>
     <use style="stroke:#000000;" x="122.474061" xlink:href="#mf6302a6f56" y="91.650605"/>
     <use style="stroke:#000000;" x="133.009057" xlink:href="#mf6302a6f56" y="75.507648"/>
    </g>
   </g>
   <g id="line2d_11">
    <path clip-path="url(#p009674dd61)" d="M 118.309091 91.226681 
L 119.077686 90.557872 
L 119.846281 89.889064 
L 120.614876 89.220255 
L 121.383471 88.551446 
L 122.152066 87.882638 
L 122.920661 87.213829 
L 123.689256 86.54502 
L 124.457851 85.876212 
L 125.226446 85.207403 
L 125.995041 84.538594 
L 126.763636 83.869786 
L 127.532231 83.200977 
L 128.300826 82.532168 
L 129.069421 81.86336 
L 129.838017 81.194551 
L 130.606612 80.525742 
L 131.375207 79.856934 
L 132.143802 79.188125 
L 132.912397 78.519316 
L 133.680992 77.850508 
L 134.449587 77.181699 
L 135.218182 76.51289 
L 135.986777 75.844082 
L 136.755372 75.175273 
L 137.523967 74.506464 
L 138.292562 73.837656 
L 139.061157 73.168847 
L 139.829752 72.500038 
L 140.598347 71.83123 
L 141.366942 71.162421 
L 142.135537 70.493612 
L 142.904132 69.824804 
L 143.672727 69.155995 
L 144.441322 68.487186 
L 145.209917 67.818378 
L 145.978512 67.149569 
L 146.747107 66.48076 
L 147.515702 65.811952 
L 148.284298 65.143143 
L 149.052893 64.474334 
L 149.821488 63.805526 
L 150.590083 63.136717 
L 151.358678 62.467908 
L 152.127273 61.7991 
L 152.895868 61.130291 
L 153.664463 60.461482 
L 154.433058 59.792674 
L 155.201653 59.123865 
L 155.970248 58.455056 
L 156.738843 57.786248 
L 157.507438 57.117439 
L 158.276033 56.44863 
L 159.044628 55.779822 
L 159.813223 55.111013 
L 160.581818 54.442204 
L 161.350413 53.773396 
L 162.119008 53.104587 
L 162.887603 52.435778 
L 163.656198 51.76697 
L 164.424793 51.098161 
L 165.193388 50.429352 
L 165.961983 49.760544 
L 166.730579 49.091735 
L 167.499174 48.422926 
L 168.267769 47.754118 
L 169.036364 47.085309 
L 169.804959 46.4165 
L 170.573554 45.747692 
L 171.342149 45.078883 
L 172.110744 44.410074 
L 172.879339 43.741266 
L 173.647934 43.072457 
L 174.416529 42.403648 
L 175.185124 41.73484 
L 175.953719 41.066031 
L 176.722314 40.397222 
L 177.490909 39.728414 
L 178.259504 39.059605 
L 179.028099 38.390796 
L 179.796694 37.721988 
L 180.565289 37.053179 
L 181.333884 36.38437 
L 182.102479 35.715562 
L 182.871074 35.046753 
L 183.639669 34.377944 
L 184.408264 33.709136 
L 185.17686 33.040327 
L 185.945455 32.371518 
L 186.71405 31.70271 
L 187.482645 31.033901 
L 188.25124 30.365092 
L 189.019835 29.696284 
L 189.78843 29.027475 
L 190.557025 28.358666 
L 191.32562 27.689858 
L 192.094215 27.021049 
L 192.86281 26.35224 
L 193.631405 25.683432 
L 194.4 25.014623 
" style="fill:none;stroke:#000000;stroke-dasharray:1.85,0.8;stroke-dashoffset:0;stroke-width:0.5;"/>
   </g>
   <g id="patch_6">
    <path d="M 118.309091 94.5 
L 118.309091 12.96 
" style="fill:none;stroke:#000000;stroke-linecap:square;stroke-linejoin:miter;"/>
   </g>
   <g id="patch_7">
    <path d="M 118.309091 94.5 
L 194.4 94.5 
" style="fill:none;stroke:#000000;stroke-linecap:square;stroke-linejoin:miter;"/>
   </g>
   <g id="matplotlib.axis_3">
    <g id="xtick_4">
     <g id="line2d_12"/>
     <g id="text_10">
      <text style="font-family:Arial;font-size:8px;font-style:normal;font-weight:normal;text-anchor:middle;" transform="rotate(-0, 118.309091, 103.72625)" x="118.309091" y="103.72625">0</text>
     </g>
    </g>
    <g id="xtick_5">
     <g id="line2d_13"/>
     <g id="text_11">
      <text style="font-family:Arial;font-size:8px;font-style:normal;font-weight:normal;text-anchor:middle;" transform="rotate(-0, 157.443371, 103.72625)" x="157.443371" y="103.72625">2</text>
     </g>
    </g>
    <g id="text_12">
     <!-- $\sigma$(Exc) -->
     <g transform="translate(141.504545 116.61625)">
      <text>
       <tspan style="font-family:DejaVu Sans;font-size:10px;font-style:oblique;font-weight:oblique;" x="0" y="-0.71875">σ</tspan>
       <tspan style="font-family:Arial;font-size:10px;font-style:regular;font-weight:regular;" x="6.337891 9.667969 16.337891 21.337891 26.337891" y="-0.71875">(Exc)</tspan>
      </text>
     </g>
    </g>
   </g>
   <g id="matplotlib.axis_4">
    <g id="ytick_4">
     <g id="line2d_14"/>
     <g id="text_13">
      <text style="font-family:Arial;font-size:8px;font-style:normal;font-weight:normal;text-anchor:end;" transform="rotate(-0, 114.809091, 97.363125)" x="114.809091" y="97.363125">0</text>
     </g>
    </g>
    <g id="ytick_5">
     <g id="line2d_15"/>
     <g id="text_14">
      <text style="font-family:Arial;font-size:8px;font-style:normal;font-weight:normal;text-anchor:end;" transform="rotate(-0, 114.809091, 76.394725)" x="114.809091" y="76.394725">1</text>
     </g>
    </g>
    <g id="ytick_6">
     <g id="line2d_16"/>
     <g id="text_15">
      <text style="font-family:Arial;font-size:8px;font-style:normal;font-weight:normal;text-anchor:end;" transform="rotate(-0, 114.809091, 55.426325)" x="114.809091" y="55.426325">2</text>
     </g>
    </g>
    <g id="ytick_7">
     <g id="line2d_17"/>
     <g id="text_16">
      <text style="font-family:Arial;font-size:8px;font-style:normal;font-weight:normal;text-anchor:end;" transform="rotate(-0, 114.809091, 34.457926)" x="114.809091" y="34.457926">3</text>
     </g>
    </g>
    <g id="text_17">
     <!-- $\sigma$(Inh) -->
     <g transform="translate(104.160341 67.18)rotate(-90)">
      <text>
       <tspan style="font-family:DejaVu Sans;font-size:10px;font-style:oblique;font-weight:oblique;" x="0" y="-0.71875">σ</tspan>
       <tspan style="font-family:Arial;font-size:10px;font-style:regular;font-weight:regular;" x="6.337891 9.667969 12.446289 18.007812 23.569336" y="-0.71875">(Inh)</tspan>
      </text>
     </g>
    </g>
   </g>
   <g id="legend_2">
    <g id="line2d_18">
     <path d="M 108.478125 31.995156 
L 128.478125 31.995156 
" style="fill:none;stroke:#000000;stroke-dasharray:1.85,0.8;stroke-dashoffset:0;stroke-width:0.5;"/>
    </g>
    <g id="line2d_19"/>
    <g id="text_18">
     <!-- $R^2$ 0.55 -->
     <g transform="translate(136.478125 29.2475)">
      <text>
       <tspan style="font-family:DejaVu Sans;font-size:10px;font-style:oblique;font-weight:oblique;" x="0" y="-0.9765625">R</tspan>
       <tspan style="font-family:DejaVu Sans;font-size:7px;font-style:book;font-weight:book;" x="7.650794" y="-4.8046875">2</tspan>
       <tspan style="font-family:Arial;font-size:10px;font-style:regular;font-weight:regular;" x="12.377845 15.156165 20.717689 23.496009 29.057533" y="-0.9765625"> 0.55</tspan>
      </text>
     </g>
     <text style="font-family:Arial;font-size:10px;font-style:normal;font-weight:normal;" transform="translate(136.478125 39.86)"> slope 0.81</text>
    </g>
   </g>
  </g>
 </g>
 <defs>
  <clipPath id="pb1c5c3f9d9">
   <rect height="81.54" width="76.090909" x="27" y="12.96"/>
  </clipPath>
  <clipPath id="p009674dd61">
   <rect height="81.54" width="76.090909" x="118.309091" y="12.96"/>
  </clipPath>
 </defs>
</svg>
