<?xml version="1.0" encoding="utf-8" standalone="no"?>
<!DOCTYPE svg PUBLIC "-//W3C//DTD SVG 1.1//EN"
  "http://www.w3.org/Graphics/SVG/1.1/DTD/svg11.dtd">
<!-- Created with matplotlib (http://matplotlib.org/) -->
<svg height="108pt" version="1.1" viewBox="0 0 216 108" width="216pt" xmlns="http://www.w3.org/2000/svg" xmlns:xlink="http://www.w3.org/1999/xlink">
 <defs>
  <style type="text/css">
*{stroke-linecap:butt;stroke-linejoin:round;}
  </style>
 </defs>
 <g id="figure_1">
  <g id="patch_1">
   <path d="M 0 108 
L 216 108 
L 216 0 
L 0 0 
z
" style="fill:#ffffff;"/>
  </g>
  <g id="axes_1">
   <g id="patch_2">
    <path d="M 27 94.5 
L 103.090909 94.5 
L 103.090909 12.96 
L 27 12.96 
z
" style="fill:#ffffff;"/>
   </g>
   <g id="LineCollection_1">
    <path clip-path="url(#pabd06c6560)" d="M 30.05164 66.584553 
L 43.915279 66.584553 
" style="fill:none;stroke:#000000;stroke-width:0.5;"/>
    <path clip-path="url(#pabd06c6560)" d="M 26.853213 80.057815 
L 29.437825 80.057815 
" style="fill:none;stroke:#000000;stroke-width:0.5;"/>
    <path clip-path="url(#pabd06c6560)" d="M 26.532699 83.835635 
L 30.249989 83.835635 
" style="fill:none;stroke:#000000;stroke-width:0.5;"/>
    <path clip-path="url(#pabd06c6560)" d="M 25.560899 76.941499 
L 36.202272 76.941499 
" style="fill:none;stroke:#000000;stroke-width:0.5;"/>
    <path clip-path="url(#pabd06c6560)" d="M 27.562688 78.646498 
L 33.875171 78.646498 
" style="fill:none;stroke:#000000;stroke-width:0.5;"/>
    <path clip-path="url(#pabd06c6560)" d="M 26.970303 85.618465 
L 30.567232 85.618465 
" style="fill:none;stroke:#000000;stroke-width:0.5;"/>
    <path clip-path="url(#pabd06c6560)" d="M 26.47826 77.105351 
L 33.344752 77.105351 
" style="fill:none;stroke:#000000;stroke-width:0.5;"/>
    <path clip-path="url(#pabd06c6560)" d="M 29.713765 73.101245 
L 33.49457 73.101245 
" style="fill:none;stroke:#000000;stroke-width:0.5;"/>
    <path clip-path="url(#pabd06c6560)" d="M 28.202446 84.308243 
L 34.523733 84.308243 
" style="fill:none;stroke:#000000;stroke-width:0.5;"/>
    <path clip-path="url(#pabd06c6560)" d="M 29.107857 77.853567 
L 36.582463 77.853567 
" style="fill:none;stroke:#000000;stroke-width:0.5;"/>
    <path clip-path="url(#pabd06c6560)" d="M 28.712545 61.700134 
L 50.776649 61.700134 
" style="fill:none;stroke:#000000;stroke-width:0.5;"/>
    <path clip-path="url(#pabd06c6560)" d="M 21.292099 37.83283 
L 55.491667 37.83283 
" style="fill:none;stroke:#000000;stroke-width:0.5;"/>
    <path clip-path="url(#pabd06c6560)" d="M 26.810574 93.25393 
L 28.371807 93.25393 
" style="fill:none;stroke:#000000;stroke-width:0.5;"/>
    <path clip-path="url(#pabd06c6560)" d="M 26.637897 89.398885 
L 28.437542 89.398885 
" style="fill:none;stroke:#000000;stroke-width:0.5;"/>
    <path clip-path="url(#pabd06c6560)" d="M 26.672057 84.609826 
L 30.246222 84.609826 
" style="fill:none;stroke:#000000;stroke-width:0.5;"/>
    <path clip-path="url(#pabd06c6560)" d="M 26.628501 86.141956 
L 31.966064 86.141956 
" style="fill:none;stroke:#000000;stroke-width:0.5;"/>
    <path clip-path="url(#pabd06c6560)" d="M 26.479447 87.046964 
L 28.23881 87.046964 
" style="fill:none;stroke:#000000;stroke-width:0.5;"/>
    <path clip-path="url(#pabd06c6560)" d="M 29.804264 75.183186 
L 37.600194 75.183186 
" style="fill:none;stroke:#000000;stroke-width:0.5;"/>
    <path clip-path="url(#pabd06c6560)" d="M 24.607385 68.499188 
L 38.319456 68.499188 
" style="fill:none;stroke:#000000;stroke-width:0.5;"/>
    <path clip-path="url(#pabd06c6560)" d="M 30.853226 78.534409 
L 39.483133 78.534409 
" style="fill:none;stroke:#000000;stroke-width:0.5;"/>
    <path clip-path="url(#pabd06c6560)" d="M 25.193395 85.319043 
L 32.82234 85.319043 
" style="fill:none;stroke:#000000;stroke-width:0.5;"/>
    <path clip-path="url(#pabd06c6560)" d="M 26.444592 87.412301 
L 32.331027 87.412301 
" style="fill:none;stroke:#000000;stroke-width:0.5;"/>
    <path clip-path="url(#pabd06c6560)" d="M 27.53044 80.710174 
L 33.392568 80.710174 
" style="fill:none;stroke:#000000;stroke-width:0.5;"/>
    <path clip-path="url(#pabd06c6560)" d="M 29.005133 57.474212 
L 40.342195 57.474212 
" style="fill:none;stroke:#000000;stroke-width:0.5;"/>
    <path clip-path="url(#pabd06c6560)" d="M 27.41496 78.40936 
L 31.213253 78.40936 
" style="fill:none;stroke:#000000;stroke-width:0.5;"/>
    <path clip-path="url(#pabd06c6560)" d="M 29.407861 65.440212 
L 35.43717 65.440212 
" style="fill:none;stroke:#000000;stroke-width:0.5;"/>
    <path clip-path="url(#pabd06c6560)" d="M 26.78229 81.047813 
L 31.497525 81.047813 
" style="fill:none;stroke:#000000;stroke-width:0.5;"/>
    <path clip-path="url(#pabd06c6560)" d="M 27.29065 81.334917 
L 33.859845 81.334917 
" style="fill:none;stroke:#000000;stroke-width:0.5;"/>
    <path clip-path="url(#pabd06c6560)" d="M 28.356719 77.552435 
L 35.787456 77.552435 
" style="fill:none;stroke:#000000;stroke-width:0.5;"/>
    <path clip-path="url(#pabd06c6560)" d="M 28.199838 86.509417 
L 33.343074 86.509417 
" style="fill:none;stroke:#000000;stroke-width:0.5;"/>
   </g>
   <g id="LineCollection_2">
    <path clip-path="url(#pabd06c6560)" d="M 36.98346 75.285134 
L 36.98346 57.883973 
" style="fill:none;stroke:#000000;stroke-width:0.5;"/>
    <path clip-path="url(#pabd06c6560)" d="M 28.145519 83.702998 
L 28.145519 76.412632 
" style="fill:none;stroke:#000000;stroke-width:0.5;"/>
    <path clip-path="url(#pabd06c6560)" d="M 28.391344 85.75798 
L 28.391344 81.91329 
" style="fill:none;stroke:#000000;stroke-width:0.5;"/>
    <path clip-path="url(#pabd06c6560)" d="M 30.881586 79.822085 
L 30.881586 74.060914 
" style="fill:none;stroke:#000000;stroke-width:0.5;"/>
    <path clip-path="url(#pabd06c6560)" d="M 30.718929 79.02704 
L 30.718929 78.265956 
" style="fill:none;stroke:#000000;stroke-width:0.5;"/>
    <path clip-path="url(#pabd06c6560)" d="M 28.768767 87.513468 
L 28.768767 83.723463 
" style="fill:none;stroke:#000000;stroke-width:0.5;"/>
    <path clip-path="url(#pabd06c6560)" d="M 29.911506 77.699279 
L 29.911506 76.511423 
" style="fill:none;stroke:#000000;stroke-width:0.5;"/>
    <path clip-path="url(#pabd06c6560)" d="M 31.604168 77.151705 
L 31.604168 69.050786 
" style="fill:none;stroke:#000000;stroke-width:0.5;"/>
    <path clip-path="url(#pabd06c6560)" d="M 31.363089 87.757786 
L 31.363089 80.858699 
" style="fill:none;stroke:#000000;stroke-width:0.5;"/>
    <path clip-path="url(#pabd06c6560)" d="M 32.84516 79.153076 
L 32.84516 76.554058 
" style="fill:none;stroke:#000000;stroke-width:0.5;"/>
    <path clip-path="url(#pabd06c6560)" d="M 39.744597 75.921323 
L 39.744597 47.478944 
" style="fill:none;stroke:#000000;stroke-width:0.5;"/>
    <path clip-path="url(#pabd06c6560)" d="M 38.391883 58.842841 
L 38.391883 16.822819 
" style="fill:none;stroke:#000000;stroke-width:0.5;"/>
    <path clip-path="url(#pabd06c6560)" d="M 27.591191 94.079205 
L 27.591191 92.428655 
" style="fill:none;stroke:#000000;stroke-width:0.5;"/>
    <path clip-path="url(#pabd06c6560)" d="M 27.53772 91.575987 
L 27.53772 87.221783 
" style="fill:none;stroke:#000000;stroke-width:0.5;"/>
    <path clip-path="url(#pabd06c6560)" d="M 28.45914 87.848688 
L 28.45914 81.370963 
" style="fill:none;stroke:#000000;stroke-width:0.5;"/>
    <path clip-path="url(#pabd06c6560)" d="M 29.297282 87.835039 
L 29.297282 84.448873 
" style="fill:none;stroke:#000000;stroke-width:0.5;"/>
    <path clip-path="url(#pabd06c6560)" d="M 27.359129 89.763768 
L 27.359129 84.330159 
" style="fill:none;stroke:#000000;stroke-width:0.5;"/>
    <path clip-path="url(#pabd06c6560)" d="M 33.702229 76.98293 
L 33.702229 73.383443 
" style="fill:none;stroke:#000000;stroke-width:0.5;"/>
    <path clip-path="url(#pabd06c6560)" d="M 31.46342 70.303881 
L 31.46342 66.694495 
" style="fill:none;stroke:#000000;stroke-width:0.5;"/>
    <path clip-path="url(#pabd06c6560)" d="M 35.168179 84.096144 
L 35.168179 72.972673 
" style="fill:none;stroke:#000000;stroke-width:0.5;"/>
    <path clip-path="url(#pabd06c6560)" d="M 29.007868 89.145299 
L 29.007868 81.492787 
" style="fill:none;stroke:#000000;stroke-width:0.5;"/>
    <path clip-path="url(#pabd06c6560)" d="M 29.387809 90.52271 
L 29.387809 84.301892 
" style="fill:none;stroke:#000000;stroke-width:0.5;"/>
    <path clip-path="url(#pabd06c6560)" d="M 30.461504 82.706434 
L 30.461504 78.713913 
" style="fill:none;stroke:#000000;stroke-width:0.5;"/>
    <path clip-path="url(#pabd06c6560)" d="M 34.673664 62.985741 
L 34.673664 51.962684 
" style="fill:none;stroke:#000000;stroke-width:0.5;"/>
    <path clip-path="url(#pabd06c6560)" d="M 29.314106 80.7921 
L 29.314106 76.02662 
" style="fill:none;stroke:#000000;stroke-width:0.5;"/>
    <path clip-path="url(#pabd06c6560)" d="M 32.422515 72.83094 
L 32.422515 58.049483 
" style="fill:none;stroke:#000000;stroke-width:0.5;"/>
    <path clip-path="url(#pabd06c6560)" d="M 29.139908 85.105464 
L 29.139908 76.990163 
" style="fill:none;stroke:#000000;stroke-width:0.5;"/>
    <path clip-path="url(#pabd06c6560)" d="M 30.575247 83.986815 
L 30.575247 78.683019 
" style="fill:none;stroke:#000000;stroke-width:0.5;"/>
    <path clip-path="url(#pabd06c6560)" d="M 32.072087 83.181383 
L 32.072087 71.923488 
" style="fill:none;stroke:#000000;stroke-width:0.5;"/>
    <path clip-path="url(#pabd06c6560)" d="M 30.771456 91.476262 
L 30.771456 81.542573 
" style="fill:none;stroke:#000000;stroke-width:0.5;"/>
   </g>
   <g id="line2d_1">
    <path clip-path="url(#pabd06c6560)" d="M 27 89.722883 
L 27.768595 87.503861 
L 28.53719 85.284839 
L 29.305785 83.065817 
L 30.07438 80.846794 
L 30.842975 78.627772 
L 31.61157 76.40875 
L 32.380165 74.189728 
L 33.14876 71.970706 
L 33.917355 69.751683 
L 34.68595 67.532661 
L 35.454545 65.313639 
L 36.22314 63.094617 
L 36.991736 60.875595 
L 37.760331 58.656572 
L 38.528926 56.43755 
L 39.297521 54.218528 
L 40.066116 51.999506 
L 40.834711 49.780484 
L 41.603306 47.561461 
L 42.371901 45.342439 
L 43.140496 43.123417 
L 43.909091 40.904395 
L 44.677686 38.685373 
L 45.446281 36.46635 
L 46.214876 34.247328 
L 46.983471 32.028306 
L 47.752066 29.809284 
L 48.520661 27.590262 
L 49.289256 25.371239 
L 50.057851 23.152217 
L 50.826446 20.933195 
L 51.595041 18.714173 
L 52.363636 16.495151 
L 53.132231 14.276128 
L 53.900826 12.057106 
L 54.669421 9.838084 
L 55.438017 7.619062 
L 56.206612 5.40004 
L 56.975207 3.181017 
L 57.743802 0.961995 
L 58.423371 -1 
" style="fill:none;stroke:#000000;stroke-dasharray:1.85,0.8;stroke-dashoffset:0;stroke-width:0.5;"/>
   </g>
   <g id="line2d_2">
    <defs>
     <path d="M 0 3 
C 0.795609 3 1.55874 2.683901 2.12132 2.12132 
C 2.683901 1.55874 3 0.795609 3 0 
C 3 -0.795609 2.683901 -1.55874 2.12132 -2.12132 
C 1.55874 -2.683901 0.795609 -3 0 -3 
C -0.795609 -3 -1.55874 -2.683901 -2.12132 -2.12132 
C -2.683901 -1.55874 -3 -0.795609 -3 0 
C -3 0.795609 -2.683901 1.55874 -2.12132 2.12132 
C -1.55874 2.683901 -0.795609 3 0 3 
z
" id="m97bd0f741c" style="stroke:#000000;"/>
    </defs>
    <g clip-path="url(#pabd06c6560)">
     <use style="stroke:#000000;" x="36.98346" xlink:href="#m97bd0f741c" y="66.584553"/>
     <use style="stroke:#000000;" x="28.145519" xlink:href="#m97bd0f741c" y="80.057815"/>
     <use style="stroke:#000000;" x="28.391344" xlink:href="#m97bd0f741c" y="83.835635"/>
     <use style="stroke:#000000;" x="30.881586" xlink:href="#m97bd0f741c" y="76.941499"/>
     <use style="stroke:#000000;" x="30.718929" xlink:href="#m97bd0f741c" y="78.646498"/>
     <use style="stroke:#000000;" x="28.768767" xlink:href="#m97bd0f741c" y="85.618465"/>
     <use style="stroke:#000000;" x="29.911506" xlink:href="#m97bd0f741c" y="77.105351"/>
     <use style="stroke:#000000;" x="31.604168" xlink:href="#m97bd0f741c" y="73.101245"/>
     <use style="stroke:#000000;" x="31.363089" xlink:href="#m97bd0f741c" y="84.308243"/>
     <use style="stroke:#000000;" x="32.84516" xlink:href="#m97bd0f741c" y="77.853567"/>
     <use style="stroke:#000000;" x="39.744597" xlink:href="#m97bd0f741c" y="61.700134"/>
     <use style="stroke:#000000;" x="38.391883" xlink:href="#m97bd0f741c" y="37.83283"/>
     <use style="stroke:#000000;" x="27.591191" xlink:href="#m97bd0f741c" y="93.25393"/>
     <use style="stroke:#000000;" x="27.53772" xlink:href="#m97bd0f741c" y="89.398885"/>
     <use style="stroke:#000000;" x="28.45914" xlink:href="#m97bd0f741c" y="84.609826"/>
     <use style="stroke:#000000;" x="29.297282" xlink:href="#m97bd0f741c" y="86.141956"/>
     <use style="stroke:#000000;" x="27.359129" xlink:href="#m97bd0f741c" y="87.046964"/>
     <use style="stroke:#000000;" x="33.702229" xlink:href="#m97bd0f741c" y="75.183186"/>
     <use style="stroke:#000000;" x="31.46342" xlink:href="#m97bd0f741c" y="68.499188"/>
     <use style="stroke:#000000;" x="35.168179" xlink:href="#m97bd0f741c" y="78.534409"/>
     <use style="stroke:#000000;" x="29.007868" xlink:href="#m97bd0f741c" y="85.319043"/>
     <use style="stroke:#000000;" x="29.387809" xlink:href="#m97bd0f741c" y="87.412301"/>
     <use style="stroke:#000000;" x="30.461504" xlink:href="#m97bd0f741c" y="80.710174"/>
     <use style="stroke:#000000;" x="34.673664" xlink:href="#m97bd0f741c" y="57.474212"/>
     <use style="stroke:#000000;" x="29.314106" xlink:href="#m97bd0f741c" y="78.40936"/>
     <use style="stroke:#000000;" x="32.422515" xlink:href="#m97bd0f741c" y="65.440212"/>
     <use style="stroke:#000000;" x="29.139908" xlink:href="#m97bd0f741c" y="81.047813"/>
     <use style="stroke:#000000;" x="30.575247" xlink:href="#m97bd0f741c" y="81.334917"/>
     <use style="stroke:#000000;" x="32.072087" xlink:href="#m97bd0f741c" y="77.552435"/>
     <use style="stroke:#000000;" x="30.771456" xlink:href="#m97bd0f741c" y="86.509417"/>
    </g>
   </g>
   <g id="patch_3">
    <path d="M 27 94.5 
L 27 12.96 
" style="fill:none;stroke:#000000;stroke-linecap:square;stroke-linejoin:miter;"/>
   </g>
   <g id="patch_4">
    <path d="M 27 94.5 
L 103.090909 94.5 
" style="fill:none;stroke:#000000;stroke-linecap:square;stroke-linejoin:miter;"/>
   </g>
   <g id="matplotlib.axis_1">
    <g id="xtick_1">
     <g id="line2d_3"/>
     <g id="text_1">
      <text style="font-family:Arial;font-size:8px;font-style:normal;font-weight:normal;text-anchor:middle;" transform="rotate(-0, 27, 103.72625)" x="27" y="103.72625">0</text>
     </g>
    </g>
    <g id="xtick_2">
     <g id="line2d_4"/>
     <g id="text_2">
      <text style="font-family:Arial;font-size:8px;font-style:normal;font-weight:normal;text-anchor:middle;" transform="rotate(-0, 64.899132, 103.72625)" x="64.899132" y="103.72625">10</text>
     </g>
    </g>
    <g id="xtick_3">
     <g id="line2d_5"/>
     <g id="text_3">
      <text style="font-family:Arial;font-size:8px;font-style:normal;font-weight:normal;text-anchor:middle;" transform="rotate(-0, 102.798265, 103.72625)" x="102.798265" y="103.72625">20</text>
     </g>
    </g>
    <g id="text_4">
     <text style="font-family:Arial;font-size:10px;font-style:normal;font-weight:normal;text-anchor:middle;" transform="rotate(-0, 65.045455, 116.474063)" x="65.045455" y="116.474063">Exc</text>
    </g>
   </g>
   <g id="matplotlib.axis_2">
    <g id="ytick_1">
     <g id="line2d_6"/>
     <g id="text_5">
      <text style="font-family:Arial;font-size:8px;font-style:normal;font-weight:normal;text-anchor:end;" transform="rotate(-0, 23.5, 97.363125)" x="23.5" y="97.363125">0</text>
     </g>
    </g>
    <g id="ytick_2">
     <g id="line2d_7"/>
     <g id="text_6">
      <text style="font-family:Arial;font-size:8px;font-style:normal;font-weight:normal;text-anchor:end;" transform="rotate(-0, 23.5, 77.056525)" x="23.5" y="77.056525">5</text>
     </g>
    </g>
    <g id="ytick_3">
     <g id="line2d_8"/>
     <g id="text_7">
      <text style="font-family:Arial;font-size:8px;font-style:normal;font-weight:normal;text-anchor:end;" transform="rotate(-0, 23.5, 56.749926)" x="23.5" y="56.749926">10</text>
     </g>
    </g>
    <g id="ytick_4">
     <g id="line2d_9"/>
     <g id="text_8">
      <text style="font-family:Arial;font-size:8px;font-style:normal;font-weight:normal;text-anchor:end;" transform="rotate(-0, 23.5, 36.443326)" x="23.5" y="36.443326">15</text>
     </g>
    </g>
    <g id="ytick_5">
     <g id="line2d_10"/>
     <g id="text_9">
      <text style="font-family:Arial;font-size:8px;font-style:normal;font-weight:normal;text-anchor:end;" transform="rotate(-0, 23.5, 16.136727)" x="23.5" y="16.136727">20</text>
     </g>
    </g>
    <g id="text_10">
     <text style="font-family:Arial;font-size:10px;font-style:normal;font-weight:normal;text-anchor:middle;" transform="rotate(-90, 8.615, 53.73)" x="8.615" y="53.73">Inh</text>
    </g>
   </g>
   <g id="legend_1">
    <g id="line2d_11">
     <path d="M 36 75.622656 
L 56 75.622656 
" style="fill:none;stroke:#000000;stroke-dasharray:1.85,0.8;stroke-dashoffset:0;stroke-width:0.5;"/>
    </g>
    <g id="line2d_12"/>
    <g id="text_11">
     <!-- $R^2$ 0.67 -->
     <g transform="translate(64 72.875)">
      <text>
       <tspan style="font-family:DejaVu Sans;font-size:10px;font-style:oblique;font-weight:oblique;" x="0" y="-0.9765625">R</tspan>
       <tspan style="font-family:DejaVu Sans;font-size:7px;font-style:book;font-weight:book;" x="7.650794" y="-4.8046875">2</tspan>
       <tspan style="font-family:Arial;font-size:10px;font-style:regular;font-weight:regular;" x="12.377845 15.156165 20.717689 23.496009 29.057533" y="-0.9765625"> 0.67</tspan>
      </text>
     </g>
     <text style="font-family:Arial;font-size:10px;font-style:normal;font-weight:normal;" transform="translate(64 83.4875)"> slope 2.69</text>
    </g>
   </g>
  </g>
  <g id="axes_2">
   <g id="patch_5">
    <path d="M 118.309091 94.5 
L 194.4 94.5 
L 194.4 12.96 
L 118.309091 12.96 
z
" style="fill:#ffffff;"/>
   </g>
   <g id="PathCollection_1">
    <defs>
     <path d="M 0 2.44949 
C 0.649612 2.44949 1.272706 2.191396 1.732051 1.732051 
C 2.191396 1.272706 2.44949 0.649612 2.44949 0 
C 2.44949 -0.649612 2.191396 -1.272706 1.732051 -1.732051 
C 1.272706 -2.191396 0.649612 -2.44949 0 -2.44949 
C -0.649612 -2.44949 -1.272706 -2.191396 -1.732051 -1.732051 
C -2.191396 -1.272706 -2.44949 -0.649612 -2.44949 0 
C -2.44949 0.649612 -2.191396 1.272706 -1.732051 1.732051 
C -1.272706 2.191396 -0.649612 2.44949 0 2.44949 
z
" id="m61c961a95a" style="stroke:#000000;"/>
    </defs>
    <g clip-path="url(#p3019d5e087)">
     <use style="stroke:#000000;" x="143.894162" xlink:href="#m61c961a95a" y="62.386502"/>
     <use style="stroke:#000000;" x="123.078942" xlink:href="#m61c961a95a" y="81.045775"/>
     <use style="stroke:#000000;" x="125.169276" xlink:href="#m61c961a95a" y="87.4047"/>
     <use style="stroke:#000000;" x="137.947535" xlink:href="#m61c961a95a" y="83.867873"/>
     <use style="stroke:#000000;" x="129.958655" xlink:href="#m61c961a95a" y="93.095434"/>
     <use style="stroke:#000000;" x="124.947151" xlink:href="#m61c961a95a" y="87.505621"/>
     <use style="stroke:#000000;" x="130.981065" xlink:href="#m61c961a95a" y="92.307835"/>
     <use style="stroke:#000000;" x="125.286491" xlink:href="#m61c961a95a" y="79.549915"/>
     <use style="stroke:#000000;" x="129.9749" xlink:href="#m61c961a95a" y="81.767871"/>
     <use style="stroke:#000000;" x="132.103328" xlink:href="#m61c961a95a" y="89.703563"/>
     <use style="stroke:#000000;" x="159.027958" xlink:href="#m61c961a95a" y="42.010152"/>
     <use style="stroke:#000000;" x="181.423718" xlink:href="#m61c961a95a" y="16.952881"/>
     <use style="stroke:#000000;" x="121.190316" xlink:href="#m61c961a95a" y="91.453943"/>
     <use style="stroke:#000000;" x="121.6303" xlink:href="#m61c961a95a" y="86.464402"/>
     <use style="stroke:#000000;" x="124.905141" xlink:href="#m61c961a95a" y="82.545485"/>
     <use style="stroke:#000000;" x="128.159458" xlink:href="#m61c961a95a" y="88.250897"/>
     <use style="stroke:#000000;" x="121.555961" xlink:href="#m61c961a95a" y="84.472384"/>
     <use style="stroke:#000000;" x="132.696326" xlink:href="#m61c961a95a" y="87.857218"/>
     <use style="stroke:#000000;" x="143.614446" xlink:href="#m61c961a95a" y="87.838949"/>
     <use style="stroke:#000000;" x="134.235413" xlink:href="#m61c961a95a" y="73.971855"/>
     <use style="stroke:#000000;" x="132.388159" xlink:href="#m61c961a95a" y="80.377441"/>
     <use style="stroke:#000000;" x="129.172391" xlink:href="#m61c961a95a" y="83.019604"/>
     <use style="stroke:#000000;" x="129.127533" xlink:href="#m61c961a95a" y="87.131882"/>
     <use style="stroke:#000000;" x="139.231416" xlink:href="#m61c961a95a" y="74.157167"/>
     <use style="stroke:#000000;" x="125.318766" xlink:href="#m61c961a95a" y="85.705401"/>
     <use style="stroke:#000000;" x="129.436061" xlink:href="#m61c961a95a" y="67.221114"/>
     <use style="stroke:#000000;" x="127.010963" xlink:href="#m61c961a95a" y="79.523373"/>
     <use style="stroke:#000000;" x="130.43241" xlink:href="#m61c961a95a" y="84.711951"/>
     <use style="stroke:#000000;" x="132.022369" xlink:href="#m61c961a95a" y="73.723778"/>
     <use style="stroke:#000000;" x="127.800832" xlink:href="#m61c961a95a" y="76.167574"/>
    </g>
   </g>
   <g id="line2d_13">
    <path clip-path="url(#p3019d5e087)" d="M 118.309091 94.743041 
L 119.077686 93.891783 
L 119.846281 93.040524 
L 120.614876 92.189266 
L 121.383471 91.338007 
L 122.152066 90.486749 
L 122.920661 89.635491 
L 123.689256 88.784232 
L 124.457851 87.932974 
L 125.226446 87.081716 
L 125.995041 86.230457 
L 126.763636 85.379199 
L 127.532231 84.52794 
L 128.300826 83.676682 
L 129.069421 82.825424 
L 129.838017 81.974165 
L 130.606612 81.122907 
L 131.375207 80.271649 
L 132.143802 79.42039 
L 132.912397 78.569132 
L 133.680992 77.717874 
L 134.449587 76.866615 
L 135.218182 76.015357 
L 135.986777 75.164098 
L 136.755372 74.31284 
L 137.523967 73.461582 
L 138.292562 72.610323 
L 139.061157 71.759065 
L 139.829752 70.907807 
L 140.598347 70.056548 
L 141.366942 69.20529 
L 142.135537 68.354031 
L 142.904132 67.502773 
L 143.672727 66.651515 
L 144.441322 65.800256 
L 145.209917 64.948998 
L 145.978512 64.09774 
L 146.747107 63.246481 
L 147.515702 62.395223 
L 148.284298 61.543964 
L 149.052893 60.692706 
L 149.821488 59.841448 
L 150.590083 58.990189 
L 151.358678 58.138931 
L 152.127273 57.287673 
L 152.895868 56.436414 
L 153.664463 55.585156 
L 154.433058 54.733898 
L 155.201653 53.882639 
L 155.970248 53.031381 
L 156.738843 52.180122 
L 157.507438 51.328864 
L 158.276033 50.477606 
L 159.044628 49.626347 
L 159.813223 48.775089 
L 160.581818 47.923831 
L 161.350413 47.072572 
L 162.119008 46.221314 
L 162.887603 45.370055 
L 163.656198 44.518797 
L 164.424793 43.667539 
L 165.193388 42.81628 
L 165.961983 41.965022 
L 166.730579 41.113764 
L 167.499174 40.262505 
L 168.267769 39.411247 
L 169.036364 38.559988 
L 169.804959 37.70873 
L 170.573554 36.857472 
L 171.342149 36.006213 
L 172.110744 35.154955 
L 172.879339 34.303697 
L 173.647934 33.452438 
L 174.416529 32.60118 
L 175.185124 31.749921 
L 175.953719 30.898663 
L 176.722314 30.047405 
L 177.490909 29.196146 
L 178.259504 28.344888 
L 179.028099 27.49363 
L 179.796694 26.642371 
L 180.565289 25.791113 
L 181.333884 24.939855 
L 182.102479 24.088596 
L 182.871074 23.237338 
L 183.639669 22.386079 
L 184.408264 21.534821 
L 185.17686 20.683563 
L 185.945455 19.832304 
L 186.71405 18.981046 
L 187.482645 18.129788 
L 188.25124 17.278529 
L 189.019835 16.427271 
L 189.78843 15.576012 
L 190.557025 14.724754 
L 191.32562 13.873496 
L 192.094215 13.022237 
L 192.86281 12.170979 
L 193.631405 11.319721 
L 194.4 10.468462 
" style="fill:none;stroke:#000000;stroke-dasharray:1.85,0.8;stroke-dashoffset:0;stroke-width:0.5;"/>
   </g>
   <g id="patch_6">
    <path d="M 118.309091 94.5 
L 118.309091 12.96 
" style="fill:none;stroke:#000000;stroke-linecap:square;stroke-linejoin:miter;"/>
   </g>
   <g id="patch_7">
    <path d="M 118.309091 94.5 
L 194.4 94.5 
" style="fill:none;stroke:#000000;stroke-linecap:square;stroke-linejoin:miter;"/>
   </g>
   <g id="matplotlib.axis_3">
    <g id="xtick_4">
     <g id="line2d_14"/>
     <g id="text_12">
      <text style="font-family:Arial;font-size:8px;font-style:normal;font-weight:normal;text-anchor:middle;" transform="rotate(-0, 118.309091, 103.72625)" x="118.309091" y="103.72625">0</text>
     </g>
    </g>
    <g id="xtick_5">
     <g id="line2d_15"/>
     <g id="text_13">
      <text style="font-family:Arial;font-size:8px;font-style:normal;font-weight:normal;text-anchor:middle;" transform="rotate(-0, 146.285931, 103.72625)" x="146.285931" y="103.72625">2</text>
     </g>
    </g>
    <g id="xtick_6">
     <g id="line2d_16"/>
     <g id="text_14">
      <text style="font-family:Arial;font-size:8px;font-style:normal;font-weight:normal;text-anchor:middle;" transform="rotate(-0, 174.26277, 103.72625)" x="174.26277" y="103.72625">4</text>
     </g>
    </g>
    <g id="text_15">
     <!-- $\sigma$(Exc) -->
     <g transform="translate(141.504545 116.61625)">
      <text>
       <tspan style="font-family:DejaVu Sans;font-size:10px;font-style:oblique;font-weight:oblique;" x="0" y="-0.71875">σ</tspan>
       <tspan style="font-family:Arial;font-size:10px;font-style:regular;font-weight:regular;" x="6.337891 9.667969 16.337891 21.337891 26.337891" y="-0.71875">(Exc)</tspan>
      </text>
     </g>
    </g>
   </g>
   <g id="matplotlib.axis_4">
    <g id="ytick_6">
     <g id="line2d_17"/>
     <g id="text_16">
      <text style="font-family:Arial;font-size:8px;font-style:normal;font-weight:normal;text-anchor:end;" transform="rotate(-0, 114.809091, 97.363125)" x="114.809091" y="97.363125">0</text>
     </g>
    </g>
    <g id="ytick_7">
     <g id="line2d_18"/>
     <g id="text_17">
      <text style="font-family:Arial;font-size:8px;font-style:normal;font-weight:normal;text-anchor:end;" transform="rotate(-0, 114.809091, 67.382783)" x="114.809091" y="67.382783">2</text>
     </g>
    </g>
    <g id="ytick_8">
     <g id="line2d_19"/>
     <g id="text_18">
      <text style="font-family:Arial;font-size:8px;font-style:normal;font-weight:normal;text-anchor:end;" transform="rotate(-0, 114.809091, 37.40244)" x="114.809091" y="37.40244">4</text>
     </g>
    </g>
    <g id="text_19">
     <!-- $\sigma$(Inh) -->
     <g transform="translate(104.160341 67.18)rotate(-90)">
      <text>
       <tspan style="font-family:DejaVu Sans;font-size:10px;font-style:oblique;font-weight:oblique;" x="0" y="-0.71875">σ</tspan>
       <tspan style="font-family:Arial;font-size:10px;font-style:regular;font-weight:regular;" x="6.337891 9.667969 12.446289 18.007812 23.569336" y="-0.71875">(Inh)</tspan>
      </text>
     </g>
    </g>
   </g>
   <g id="legend_2">
    <g id="line2d_20">
     <path d="M 108.478125 31.995156 
L 128.478125 31.995156 
" style="fill:none;stroke:#000000;stroke-dasharray:1.85,0.8;stroke-dashoffset:0;stroke-width:0.5;"/>
    </g>
    <g id="line2d_21"/>
    <g id="text_20">
     <!-- $R^2$ 0.74 -->
     <g transform="translate(136.478125 29.2475)">
      <text>
       <tspan style="font-family:DejaVu Sans;font-size:10px;font-style:oblique;font-weight:oblique;" x="0" y="-0.9765625">R</tspan>
       <tspan style="font-family:DejaVu Sans;font-size:7px;font-style:book;font-weight:book;" x="7.650794" y="-4.8046875">2</tspan>
       <tspan style="font-family:Arial;font-size:10px;font-style:regular;font-weight:regular;" x="12.377845 15.156165 20.717689 23.496009 29.057533" y="-0.9765625"> 0.74</tspan>
      </text>
     </g>
     <text style="font-family:Arial;font-size:10px;font-style:normal;font-weight:normal;" transform="translate(136.478125 39.86)"> slope 1.03</text>
    </g>
   </g>
  </g>
 </g>
 <defs>
  <clipPath id="pabd06c6560">
   <rect height="81.54" width="76.090909" x="27" y="12.96"/>
  </clipPath>
  <clipPath id="p3019d5e087">
   <rect height="81.54" width="76.090909" x="118.309091" y="12.96"/>
  </clipPath>
 </defs>
</svg>
