<?xml version="1.0" encoding="utf-8" standalone="no"?>
<!DOCTYPE svg PUBLIC "-//W3C//DTD SVG 1.1//EN"
  "http://www.w3.org/Graphics/SVG/1.1/DTD/svg11.dtd">
<!-- Created with matplotlib (http://matplotlib.org/) -->
<svg height="108pt" version="1.1" viewBox="0 0 216 108" width="216pt" xmlns="http://www.w3.org/2000/svg" xmlns:xlink="http://www.w3.org/1999/xlink">
 <defs>
  <style type="text/css">
*{stroke-linecap:butt;stroke-linejoin:round;}
  </style>
 </defs>
 <g id="figure_1">
  <g id="patch_1">
   <path d="M 0 108 
L 216 108 
L 216 0 
L 0 0 
z
" style="fill:#ffffff;"/>
  </g>
  <g id="axes_1">
   <g id="patch_2">
    <path d="M 27 94.5 
L 103.090909 94.5 
L 103.090909 12.96 
L 27 12.96 
z
" style="fill:#ffffff;"/>
   </g>
   <g id="LineCollection_1">
    <path clip-path="url(#p03e7e8c9a6)" d="M 28.098855 52.486503 
L 37.979484 52.486503 
" style="fill:none;stroke:#000000;stroke-width:0.5;"/>
    <path clip-path="url(#p03e7e8c9a6)" d="M 26.22619 86.00623 
L 29.719045 86.00623 
" style="fill:none;stroke:#000000;stroke-width:0.5;"/>
    <path clip-path="url(#p03e7e8c9a6)" d="M 26.548573 84.752617 
L 28.448522 84.752617 
" style="fill:none;stroke:#000000;stroke-width:0.5;"/>
    <path clip-path="url(#p03e7e8c9a6)" d="M 22.712158 65.384505 
L 40.339676 65.384505 
" style="fill:none;stroke:#000000;stroke-width:0.5;"/>
    <path clip-path="url(#p03e7e8c9a6)" d="M 27.976156 64.104048 
L 37.164991 64.104048 
" style="fill:none;stroke:#000000;stroke-width:0.5;"/>
    <path clip-path="url(#p03e7e8c9a6)" d="M 27 91.529186 
L 27 91.529186 
" style="fill:none;stroke:#000000;stroke-width:0.5;"/>
    <path clip-path="url(#p03e7e8c9a6)" d="M 28.595991 80.143956 
L 34.319994 80.143956 
" style="fill:none;stroke:#000000;stroke-width:0.5;"/>
    <path clip-path="url(#p03e7e8c9a6)" d="M 27.413209 25.605205 
L 50.203703 25.605205 
" style="fill:none;stroke:#000000;stroke-width:0.5;"/>
    <path clip-path="url(#p03e7e8c9a6)" d="M 26.568261 82.559005 
L 33.288216 82.559005 
" style="fill:none;stroke:#000000;stroke-width:0.5;"/>
    <path clip-path="url(#p03e7e8c9a6)" d="M 26.923164 92.947793 
L 28.686901 92.947793 
" style="fill:none;stroke:#000000;stroke-width:0.5;"/>
    <path clip-path="url(#p03e7e8c9a6)" d="M 25.217538 83.328514 
L 33.215797 83.328514 
" style="fill:none;stroke:#000000;stroke-width:0.5;"/>
    <path clip-path="url(#p03e7e8c9a6)" d="M 25.736893 92.499546 
L 30.005936 92.499546 
" style="fill:none;stroke:#000000;stroke-width:0.5;"/>
    <path clip-path="url(#p03e7e8c9a6)" d="M 25.142505 86.615903 
L 31.420459 86.615903 
" style="fill:none;stroke:#000000;stroke-width:0.5;"/>
    <path clip-path="url(#p03e7e8c9a6)" d="M 27.394326 81.676688 
L 34.338797 81.676688 
" style="fill:none;stroke:#000000;stroke-width:0.5;"/>
    <path clip-path="url(#p03e7e8c9a6)" d="M 33.411139 52.985922 
L 43.086472 52.985922 
" style="fill:none;stroke:#000000;stroke-width:0.5;"/>
    <path clip-path="url(#p03e7e8c9a6)" d="M 26.624398 84.150305 
L 28.960233 84.150305 
" style="fill:none;stroke:#000000;stroke-width:0.5;"/>
    <path clip-path="url(#p03e7e8c9a6)" d="M 26.448937 92.454146 
L 28.311417 92.454146 
" style="fill:none;stroke:#000000;stroke-width:0.5;"/>
    <path clip-path="url(#p03e7e8c9a6)" d="M 28.553251 52.1043 
L 49.004715 52.1043 
" style="fill:none;stroke:#000000;stroke-width:0.5;"/>
    <path clip-path="url(#p03e7e8c9a6)" d="M 26.711757 71.400192 
L 33.008442 71.400192 
" style="fill:none;stroke:#000000;stroke-width:0.5;"/>
    <path clip-path="url(#p03e7e8c9a6)" d="M 25.79125 91.065524 
L 29.876579 91.065524 
" style="fill:none;stroke:#000000;stroke-width:0.5;"/>
    <path clip-path="url(#p03e7e8c9a6)" d="M 26.146179 84.667642 
L 37.028338 84.667642 
" style="fill:none;stroke:#000000;stroke-width:0.5;"/>
    <path clip-path="url(#p03e7e8c9a6)" d="M 25.003453 86.777934 
L 36.26738 86.777934 
" style="fill:none;stroke:#000000;stroke-width:0.5;"/>
    <path clip-path="url(#p03e7e8c9a6)" d="M 28.645242 80.707288 
L 33.887387 80.707288 
" style="fill:none;stroke:#000000;stroke-width:0.5;"/>
    <path clip-path="url(#p03e7e8c9a6)" d="M 25.26393 89.308901 
L 35.058327 89.308901 
" style="fill:none;stroke:#000000;stroke-width:0.5;"/>
    <path clip-path="url(#p03e7e8c9a6)" d="M 26.705348 68.366702 
L 27.701213 68.366702 
" style="fill:none;stroke:#000000;stroke-width:0.5;"/>
    <path clip-path="url(#p03e7e8c9a6)" d="M 27.260724 83.172443 
L 30.894277 83.172443 
" style="fill:none;stroke:#000000;stroke-width:0.5;"/>
    <path clip-path="url(#p03e7e8c9a6)" d="M 26.925668 85.680902 
L 31.951605 85.680902 
" style="fill:none;stroke:#000000;stroke-width:0.5;"/>
    <path clip-path="url(#p03e7e8c9a6)" d="M 26.853977 57.256156 
L 44.057 57.256156 
" style="fill:none;stroke:#000000;stroke-width:0.5;"/>
    <path clip-path="url(#p03e7e8c9a6)" d="M 25.683128 80.461096 
L 31.204723 80.461096 
" style="fill:none;stroke:#000000;stroke-width:0.5;"/>
    <path clip-path="url(#p03e7e8c9a6)" d="M 26.938135 82.4317 
L 28.358207 82.4317 
" style="fill:none;stroke:#000000;stroke-width:0.5;"/>
   </g>
   <g id="LineCollection_2">
    <path clip-path="url(#p03e7e8c9a6)" d="M 33.039169 64.598319 
L 33.039169 40.374688 
" style="fill:none;stroke:#000000;stroke-width:0.5;"/>
    <path clip-path="url(#p03e7e8c9a6)" d="M 27.972618 88.230291 
L 27.972618 83.78217 
" style="fill:none;stroke:#000000;stroke-width:0.5;"/>
    <path clip-path="url(#p03e7e8c9a6)" d="M 27.498548 85.865061 
L 27.498548 83.640173 
" style="fill:none;stroke:#000000;stroke-width:0.5;"/>
    <path clip-path="url(#p03e7e8c9a6)" d="M 31.525917 76.082082 
L 31.525917 54.686929 
" style="fill:none;stroke:#000000;stroke-width:0.5;"/>
    <path clip-path="url(#p03e7e8c9a6)" d="M 32.570574 68.122957 
L 32.570574 60.085139 
" style="fill:none;stroke:#000000;stroke-width:0.5;"/>
    <path clip-path="url(#p03e7e8c9a6)" d="M 27 92.365176 
L 27 90.693197 
" style="fill:none;stroke:#000000;stroke-width:0.5;"/>
    <path clip-path="url(#p03e7e8c9a6)" d="M 31.457993 83.741191 
L 31.457993 76.546721 
" style="fill:none;stroke:#000000;stroke-width:0.5;"/>
    <path clip-path="url(#p03e7e8c9a6)" d="M 38.808456 34.315237 
L 38.808456 16.895173 
" style="fill:none;stroke:#000000;stroke-width:0.5;"/>
    <path clip-path="url(#p03e7e8c9a6)" d="M 29.928238 85.950427 
L 29.928238 79.167582 
" style="fill:none;stroke:#000000;stroke-width:0.5;"/>
    <path clip-path="url(#p03e7e8c9a6)" d="M 27.805032 93.708216 
L 27.805032 92.187371 
" style="fill:none;stroke:#000000;stroke-width:0.5;"/>
    <path clip-path="url(#p03e7e8c9a6)" d="M 29.216668 83.328514 
L 29.216668 83.328514 
" style="fill:none;stroke:#000000;stroke-width:0.5;"/>
    <path clip-path="url(#p03e7e8c9a6)" d="M 27.871415 95.598636 
L 27.871415 89.400456 
" style="fill:none;stroke:#000000;stroke-width:0.5;"/>
    <path clip-path="url(#p03e7e8c9a6)" d="M 28.281482 86.615903 
L 28.281482 86.615903 
" style="fill:none;stroke:#000000;stroke-width:0.5;"/>
    <path clip-path="url(#p03e7e8c9a6)" d="M 30.866561 87.201465 
L 30.866561 76.151912 
" style="fill:none;stroke:#000000;stroke-width:0.5;"/>
    <path clip-path="url(#p03e7e8c9a6)" d="M 38.248806 57.119411 
L 38.248806 48.852434 
" style="fill:none;stroke:#000000;stroke-width:0.5;"/>
    <path clip-path="url(#p03e7e8c9a6)" d="M 27.792316 86.859344 
L 27.792316 81.441266 
" style="fill:none;stroke:#000000;stroke-width:0.5;"/>
    <path clip-path="url(#p03e7e8c9a6)" d="M 27.380177 93.456406 
L 27.380177 91.451886 
" style="fill:none;stroke:#000000;stroke-width:0.5;"/>
    <path clip-path="url(#p03e7e8c9a6)" d="M 38.778983 60.544854 
L 38.778983 43.663747 
" style="fill:none;stroke:#000000;stroke-width:0.5;"/>
    <path clip-path="url(#p03e7e8c9a6)" d="M 29.8601 76.882961 
L 29.8601 65.917424 
" style="fill:none;stroke:#000000;stroke-width:0.5;"/>
    <path clip-path="url(#p03e7e8c9a6)" d="M 27.833914 92.042665 
L 27.833914 90.088383 
" style="fill:none;stroke:#000000;stroke-width:0.5;"/>
    <path clip-path="url(#p03e7e8c9a6)" d="M 31.587258 88.340391 
L 31.587258 80.994893 
" style="fill:none;stroke:#000000;stroke-width:0.5;"/>
    <path clip-path="url(#p03e7e8c9a6)" d="M 30.635417 92.759421 
L 30.635417 80.796448 
" style="fill:none;stroke:#000000;stroke-width:0.5;"/>
    <path clip-path="url(#p03e7e8c9a6)" d="M 31.266314 83.025316 
L 31.266314 78.38926 
" style="fill:none;stroke:#000000;stroke-width:0.5;"/>
    <path clip-path="url(#p03e7e8c9a6)" d="M 30.161128 94.995465 
L 30.161128 83.622336 
" style="fill:none;stroke:#000000;stroke-width:0.5;"/>
    <path clip-path="url(#p03e7e8c9a6)" d="M 27.20328 78.540183 
L 27.20328 58.193222 
" style="fill:none;stroke:#000000;stroke-width:0.5;"/>
    <path clip-path="url(#p03e7e8c9a6)" d="M 29.0775 84.284997 
L 29.0775 82.05989 
" style="fill:none;stroke:#000000;stroke-width:0.5;"/>
    <path clip-path="url(#p03e7e8c9a6)" d="M 29.438636 85.680902 
L 29.438636 85.680902 
" style="fill:none;stroke:#000000;stroke-width:0.5;"/>
    <path clip-path="url(#p03e7e8c9a6)" d="M 35.455489 58.955984 
L 35.455489 55.556328 
" style="fill:none;stroke:#000000;stroke-width:0.5;"/>
    <path clip-path="url(#p03e7e8c9a6)" d="M 28.443925 85.431751 
L 28.443925 75.490441 
" style="fill:none;stroke:#000000;stroke-width:0.5;"/>
    <path clip-path="url(#p03e7e8c9a6)" d="M 27.648171 86.086296 
L 27.648171 78.777104 
" style="fill:none;stroke:#000000;stroke-width:0.5;"/>
   </g>
   <g id="line2d_1">
    <path clip-path="url(#p03e7e8c9a6)" d="M 27 90.889651 
L 27.768595 87.848743 
L 28.53719 84.807835 
L 29.305785 81.766927 
L 30.07438 78.726019 
L 30.842975 75.685111 
L 31.61157 72.644203 
L 32.380165 69.603295 
L 33.14876 66.562387 
L 33.917355 63.521479 
L 34.68595 60.480571 
L 35.454545 57.439663 
L 36.22314 54.398755 
L 36.991736 51.357847 
L 37.760331 48.316939 
L 38.528926 45.27603 
L 39.297521 42.235122 
L 40.066116 39.194214 
L 40.834711 36.153306 
L 41.603306 33.112398 
L 42.371901 30.07149 
L 43.140496 27.030582 
L 43.909091 23.989674 
L 44.677686 20.948766 
L 45.446281 17.907858 
L 46.214876 14.86695 
L 46.983471 11.826042 
L 47.752066 8.785134 
L 48.520661 5.744226 
L 49.289256 2.703318 
L 50.057851 -0.33759 
L 50.225276 -1 
" style="fill:none;stroke:#000000;stroke-dasharray:1.85,0.8;stroke-dashoffset:0;stroke-width:0.5;"/>
   </g>
   <g id="line2d_2">
    <defs>
     <path d="M 0 3 
C 0.795609 3 1.55874 2.683901 2.12132 2.12132 
C 2.683901 1.55874 3 0.795609 3 0 
C 3 -0.795609 2.683901 -1.55874 2.12132 -2.12132 
C 1.55874 -2.683901 0.795609 -3 0 -3 
C -0.795609 -3 -1.55874 -2.683901 -2.12132 -2.12132 
C -2.683901 -1.55874 -3 -0.795609 -3 0 
C -3 0.795609 -2.683901 1.55874 -2.12132 2.12132 
C -1.55874 2.683901 -0.795609 3 0 3 
z
" id="ma5bf548f18" style="stroke:#000000;"/>
    </defs>
    <g clip-path="url(#p03e7e8c9a6)">
     <use style="stroke:#000000;" x="33.039169" xlink:href="#ma5bf548f18" y="52.486503"/>
     <use style="stroke:#000000;" x="27.972618" xlink:href="#ma5bf548f18" y="86.00623"/>
     <use style="stroke:#000000;" x="27.498548" xlink:href="#ma5bf548f18" y="84.752617"/>
     <use style="stroke:#000000;" x="31.525917" xlink:href="#ma5bf548f18" y="65.384505"/>
     <use style="stroke:#000000;" x="32.570574" xlink:href="#ma5bf548f18" y="64.104048"/>
     <use style="stroke:#000000;" x="27" xlink:href="#ma5bf548f18" y="91.529186"/>
     <use style="stroke:#000000;" x="31.457993" xlink:href="#ma5bf548f18" y="80.143956"/>
     <use style="stroke:#000000;" x="38.808456" xlink:href="#ma5bf548f18" y="25.605205"/>
     <use style="stroke:#000000;" x="29.928238" xlink:href="#ma5bf548f18" y="82.559005"/>
     <use style="stroke:#000000;" x="27.805032" xlink:href="#ma5bf548f18" y="92.947793"/>
     <use style="stroke:#000000;" x="29.216668" xlink:href="#ma5bf548f18" y="83.328514"/>
     <use style="stroke:#000000;" x="27.871415" xlink:href="#ma5bf548f18" y="92.499546"/>
     <use style="stroke:#000000;" x="28.281482" xlink:href="#ma5bf548f18" y="86.615903"/>
     <use style="stroke:#000000;" x="30.866561" xlink:href="#ma5bf548f18" y="81.676688"/>
     <use style="stroke:#000000;" x="38.248806" xlink:href="#ma5bf548f18" y="52.985922"/>
     <use style="stroke:#000000;" x="27.792316" xlink:href="#ma5bf548f18" y="84.150305"/>
     <use style="stroke:#000000;" x="27.380177" xlink:href="#ma5bf548f18" y="92.454146"/>
     <use style="stroke:#000000;" x="38.778983" xlink:href="#ma5bf548f18" y="52.1043"/>
     <use style="stroke:#000000;" x="29.8601" xlink:href="#ma5bf548f18" y="71.400192"/>
     <use style="stroke:#000000;" x="27.833914" xlink:href="#ma5bf548f18" y="91.065524"/>
     <use style="stroke:#000000;" x="31.587258" xlink:href="#ma5bf548f18" y="84.667642"/>
     <use style="stroke:#000000;" x="30.635417" xlink:href="#ma5bf548f18" y="86.777934"/>
     <use style="stroke:#000000;" x="31.266314" xlink:href="#ma5bf548f18" y="80.707288"/>
     <use style="stroke:#000000;" x="30.161128" xlink:href="#ma5bf548f18" y="89.308901"/>
     <use style="stroke:#000000;" x="27.20328" xlink:href="#ma5bf548f18" y="68.366702"/>
     <use style="stroke:#000000;" x="29.0775" xlink:href="#ma5bf548f18" y="83.172443"/>
     <use style="stroke:#000000;" x="29.438636" xlink:href="#ma5bf548f18" y="85.680902"/>
     <use style="stroke:#000000;" x="35.455489" xlink:href="#ma5bf548f18" y="57.256156"/>
     <use style="stroke:#000000;" x="28.443925" xlink:href="#ma5bf548f18" y="80.461096"/>
     <use style="stroke:#000000;" x="27.648171" xlink:href="#ma5bf548f18" y="82.4317"/>
    </g>
   </g>
   <g id="patch_3">
    <path d="M 27 94.5 
L 27 12.96 
" style="fill:none;stroke:#000000;stroke-linecap:square;stroke-linejoin:miter;"/>
   </g>
   <g id="patch_4">
    <path d="M 27 94.5 
L 103.090909 94.5 
" style="fill:none;stroke:#000000;stroke-linecap:square;stroke-linejoin:miter;"/>
   </g>
   <g id="matplotlib.axis_1">
    <g id="xtick_1">
     <g id="line2d_3"/>
     <g id="text_1">
      <text style="font-family:Arial;font-size:8px;font-style:normal;font-weight:normal;text-anchor:middle;" transform="rotate(-0, 27, 103.72625)" x="27" y="103.72625">0</text>
     </g>
    </g>
    <g id="xtick_2">
     <g id="line2d_4"/>
     <g id="text_2">
      <text style="font-family:Arial;font-size:8px;font-style:normal;font-weight:normal;text-anchor:middle;" transform="rotate(-0, 69.656278, 103.72625)" x="69.656278" y="103.72625">10</text>
     </g>
    </g>
    <g id="text_3">
     <text style="font-family:Arial;font-size:10px;font-style:normal;font-weight:normal;text-anchor:middle;" transform="rotate(-0, 65.045455, 116.474063)" x="65.045455" y="116.474063">Exc</text>
    </g>
   </g>
   <g id="matplotlib.axis_2">
    <g id="ytick_1">
     <g id="line2d_5"/>
     <g id="text_4">
      <text style="font-family:Arial;font-size:8px;font-style:normal;font-weight:normal;text-anchor:end;" transform="rotate(-0, 23.5, 97.363125)" x="23.5" y="97.363125">0</text>
     </g>
    </g>
    <g id="ytick_2">
     <g id="line2d_6"/>
     <g id="text_5">
      <text style="font-family:Arial;font-size:8px;font-style:normal;font-weight:normal;text-anchor:end;" transform="rotate(-0, 23.5, 74.507616)" x="23.5" y="74.507616">5</text>
     </g>
    </g>
    <g id="ytick_3">
     <g id="line2d_7"/>
     <g id="text_6">
      <text style="font-family:Arial;font-size:8px;font-style:normal;font-weight:normal;text-anchor:end;" transform="rotate(-0, 23.5, 51.652107)" x="23.5" y="51.652107">10</text>
     </g>
    </g>
    <g id="ytick_4">
     <g id="line2d_8"/>
     <g id="text_7">
      <text style="font-family:Arial;font-size:8px;font-style:normal;font-weight:normal;text-anchor:end;" transform="rotate(-0, 23.5, 28.796598)" x="23.5" y="28.796598">15</text>
     </g>
    </g>
    <g id="text_8">
     <text style="font-family:Arial;font-size:10px;font-style:normal;font-weight:normal;text-anchor:middle;" transform="rotate(-90, 8.615, 53.73)" x="8.615" y="53.73">Inh</text>
    </g>
   </g>
   <g id="legend_1">
    <g id="line2d_9">
     <path d="M 36 75.622656 
L 56 75.622656 
" style="fill:none;stroke:#000000;stroke-dasharray:1.85,0.8;stroke-dashoffset:0;stroke-width:0.5;"/>
    </g>
    <g id="line2d_10"/>
    <g id="text_9">
     <!-- $R^2$ 0.73 -->
     <g transform="translate(64 72.875)">
      <text>
       <tspan style="font-family:DejaVu Sans;font-size:10px;font-style:oblique;font-weight:oblique;" x="0" y="-0.9765625">R</tspan>
       <tspan style="font-family:DejaVu Sans;font-size:7px;font-style:book;font-weight:book;" x="7.650794" y="-4.8046875">2</tspan>
       <tspan style="font-family:Arial;font-size:10px;font-style:regular;font-weight:regular;" x="12.377845 15.156165 20.717689 23.496009 29.057533" y="-0.9765625"> 0.73</tspan>
      </text>
     </g>
     <text style="font-family:Arial;font-size:10px;font-style:normal;font-weight:normal;" transform="translate(64 83.4875)"> slope 3.69</text>
    </g>
   </g>
  </g>
  <g id="axes_2">
   <g id="patch_5">
    <path d="M 118.309091 94.5 
L 194.4 94.5 
L 194.4 12.96 
L 118.309091 12.96 
z
" style="fill:#ffffff;"/>
   </g>
   <g id="PathCollection_1">
    <defs>
     <path d="M 0 2.44949 
C 0.649612 2.44949 1.272706 2.191396 1.732051 1.732051 
C 2.191396 1.272706 2.44949 0.649612 2.44949 0 
C 2.44949 -0.649612 2.191396 -1.272706 1.732051 -1.732051 
C 1.272706 -2.191396 0.649612 -2.44949 0 -2.44949 
C -0.649612 -2.44949 -1.272706 -2.191396 -1.732051 -1.732051 
C -2.191396 -1.272706 -2.44949 -0.649612 -2.44949 0 
C -2.44949 0.649612 -2.191396 1.272706 -1.732051 1.732051 
C -1.272706 2.191396 -0.649612 2.44949 0 2.44949 
z
" id="m6721f407a6" style="stroke:#000000;"/>
    </defs>
    <g clip-path="url(#p72d89e2f9d)">
     <use style="stroke:#000000;" x="149.529716" xlink:href="#m6721f407a6" y="17.958621"/>
     <use style="stroke:#000000;" x="129.345747" xlink:href="#m6721f407a6" y="80.444909"/>
     <use style="stroke:#000000;" x="124.312515" xlink:href="#m6721f407a6" y="87.469841"/>
     <use style="stroke:#000000;" x="174.008194" xlink:href="#m6721f407a6" y="26.895994"/>
     <use style="stroke:#000000;" x="147.343801" xlink:href="#m6721f407a6" y="69.10225"/>
     <use style="stroke:#000000;" x="118.309091" xlink:href="#m6721f407a6" y="89.216912"/>
     <use style="stroke:#000000;" x="136.395688" xlink:href="#m6721f407a6" y="71.767047"/>
     <use style="stroke:#000000;" x="190.322069" xlink:href="#m6721f407a6" y="39.456408"/>
     <use style="stroke:#000000;" x="139.542679" xlink:href="#m6721f407a6" y="73.067691"/>
     <use style="stroke:#000000;" x="123.882114" xlink:href="#m6721f407a6" y="89.69446"/>
     <use style="stroke:#000000;" x="143.58184" xlink:href="#m6721f407a6" y="94.5"/>
     <use style="stroke:#000000;" x="131.798333" xlink:href="#m6721f407a6" y="74.915106"/>
     <use style="stroke:#000000;" x="138.146054" xlink:href="#m6721f407a6" y="94.5"/>
     <use style="stroke:#000000;" x="140.252101" xlink:href="#m6721f407a6" y="59.58583"/>
     <use style="stroke:#000000;" x="148.881028" xlink:href="#m6721f407a6" y="68.37816"/>
     <use style="stroke:#000000;" x="125.689819" xlink:href="#m6721f407a6" y="77.380057"/>
     <use style="stroke:#000000;" x="124.194119" xlink:href="#m6721f407a6" y="88.166157"/>
     <use style="stroke:#000000;" x="182.931243" xlink:href="#m6721f407a6" y="41.159392"/>
     <use style="stroke:#000000;" x="138.20524" xlink:href="#m6721f407a6" y="59.8513"/>
     <use style="stroke:#000000;" x="131.217839" xlink:href="#m6721f407a6" y="88.324896"/>
     <use style="stroke:#000000;" x="152.694331" xlink:href="#m6721f407a6" y="71.289832"/>
     <use style="stroke:#000000;" x="153.900637" xlink:href="#m6721f407a6" y="56.699621"/>
     <use style="stroke:#000000;" x="134.873125" xlink:href="#m6721f407a6" y="79.851076"/>
     <use style="stroke:#000000;" x="149.257244" xlink:href="#m6721f407a6" y="58.5634"/>
     <use style="stroke:#000000;" x="121.455807" xlink:href="#m6721f407a6" y="30.208053"/>
     <use style="stroke:#000000;" x="129.790323" xlink:href="#m6721f407a6" y="87.469148"/>
     <use style="stroke:#000000;" x="134.189954" xlink:href="#m6721f407a6" y="94.5"/>
     <use style="stroke:#000000;" x="172.666884" xlink:href="#m6721f407a6" y="83.757831"/>
     <use style="stroke:#000000;" x="135.756121" xlink:href="#m6721f407a6" y="63.087632"/>
     <use style="stroke:#000000;" x="122.796206" xlink:href="#m6721f407a6" y="71.404551"/>
    </g>
   </g>
   <g id="line2d_11">
    <path clip-path="url(#p72d89e2f9d)" d="M 118.309091 83.576627 
L 119.077686 83.114328 
L 119.846281 82.652028 
L 120.614876 82.189729 
L 121.383471 81.72743 
L 122.152066 81.26513 
L 122.920661 80.802831 
L 123.689256 80.340532 
L 124.457851 79.878233 
L 125.226446 79.415933 
L 125.995041 78.953634 
L 126.763636 78.491335 
L 127.532231 78.029036 
L 128.300826 77.566736 
L 129.069421 77.104437 
L 129.838017 76.642138 
L 130.606612 76.179839 
L 131.375207 75.717539 
L 132.143802 75.25524 
L 132.912397 74.792941 
L 133.680992 74.330642 
L 134.449587 73.868342 
L 135.218182 73.406043 
L 135.986777 72.943744 
L 136.755372 72.481444 
L 137.523967 72.019145 
L 138.292562 71.556846 
L 139.061157 71.094547 
L 139.829752 70.632247 
L 140.598347 70.169948 
L 141.366942 69.707649 
L 142.135537 69.24535 
L 142.904132 68.78305 
L 143.672727 68.320751 
L 144.441322 67.858452 
L 145.209917 67.396153 
L 145.978512 66.933853 
L 146.747107 66.471554 
L 147.515702 66.009255 
L 148.284298 65.546956 
L 149.052893 65.084656 
L 149.821488 64.622357 
L 150.590083 64.160058 
L 151.358678 63.697759 
L 152.127273 63.235459 
L 152.895868 62.77316 
L 153.664463 62.310861 
L 154.433058 61.848561 
L 155.201653 61.386262 
L 155.970248 60.923963 
L 156.738843 60.461664 
L 157.507438 59.999364 
L 158.276033 59.537065 
L 159.044628 59.074766 
L 159.813223 58.612467 
L 160.581818 58.150167 
L 161.350413 57.687868 
L 162.119008 57.225569 
L 162.887603 56.76327 
L 163.656198 56.30097 
L 164.424793 55.838671 
L 165.193388 55.376372 
L 165.961983 54.914073 
L 166.730579 54.451773 
L 167.499174 53.989474 
L 168.267769 53.527175 
L 169.036364 53.064875 
L 169.804959 52.602576 
L 170.573554 52.140277 
L 171.342149 51.677978 
L 172.110744 51.215678 
L 172.879339 50.753379 
L 173.647934 50.29108 
L 174.416529 49.828781 
L 175.185124 49.366481 
L 175.953719 48.904182 
L 176.722314 48.441883 
L 177.490909 47.979584 
L 178.259504 47.517284 
L 179.028099 47.054985 
L 179.796694 46.592686 
L 180.565289 46.130387 
L 181.333884 45.668087 
L 182.102479 45.205788 
L 182.871074 44.743489 
L 183.639669 44.28119 
L 184.408264 43.81889 
L 185.17686 43.356591 
L 185.945455 42.894292 
L 186.71405 42.431992 
L 187.482645 41.969693 
L 188.25124 41.507394 
L 189.019835 41.045095 
L 189.78843 40.582795 
L 190.557025 40.120496 
L 191.32562 39.658197 
L 192.094215 39.195898 
L 192.86281 38.733598 
L 193.631405 38.271299 
L 194.4 37.809 
" style="fill:none;stroke:#000000;stroke-dasharray:1.85,0.8;stroke-dashoffset:0;stroke-width:0.5;"/>
   </g>
   <g id="patch_6">
    <path d="M 118.309091 94.5 
L 118.309091 12.96 
" style="fill:none;stroke:#000000;stroke-linecap:square;stroke-linejoin:miter;"/>
   </g>
   <g id="patch_7">
    <path d="M 118.309091 94.5 
L 194.4 94.5 
" style="fill:none;stroke:#000000;stroke-linecap:square;stroke-linejoin:miter;"/>
   </g>
   <g id="matplotlib.axis_3">
    <g id="xtick_3">
     <g id="line2d_12"/>
     <g id="text_10">
      <text style="font-family:Arial;font-size:8px;font-style:normal;font-weight:normal;text-anchor:middle;" transform="rotate(-0, 118.309091, 103.72625)" x="118.309091" y="103.72625">0</text>
     </g>
    </g>
    <g id="xtick_4">
     <g id="line2d_13"/>
     <g id="text_11">
      <text style="font-family:Arial;font-size:8px;font-style:normal;font-weight:normal;text-anchor:middle;" transform="rotate(-0, 145.265993, 103.72625)" x="145.265993" y="103.72625">1</text>
     </g>
    </g>
    <g id="xtick_5">
     <g id="line2d_14"/>
     <g id="text_12">
      <text style="font-family:Arial;font-size:8px;font-style:normal;font-weight:normal;text-anchor:middle;" transform="rotate(-0, 172.222895, 103.72625)" x="172.222895" y="103.72625">2</text>
     </g>
    </g>
    <g id="text_13">
     <!-- $\sigma$(Exc) -->
     <g transform="translate(141.504545 116.61625)">
      <text>
       <tspan style="font-family:DejaVu Sans;font-size:10px;font-style:oblique;font-weight:oblique;" x="0" y="-0.71875">σ</tspan>
       <tspan style="font-family:Arial;font-size:10px;font-style:regular;font-weight:regular;" x="6.337891 9.667969 16.337891 21.337891 26.337891" y="-0.71875">(Exc)</tspan>
      </text>
     </g>
    </g>
   </g>
   <g id="matplotlib.axis_4">
    <g id="ytick_5">
     <g id="line2d_15"/>
     <g id="text_14">
      <text style="font-family:Arial;font-size:8px;font-style:normal;font-weight:normal;text-anchor:end;" transform="rotate(-0, 114.809091, 97.363125)" x="114.809091" y="97.363125">0</text>
     </g>
    </g>
    <g id="ytick_6">
     <g id="line2d_16"/>
     <g id="text_15">
      <text style="font-family:Arial;font-size:8px;font-style:normal;font-weight:normal;text-anchor:end;" transform="rotate(-0, 114.809091, 68.475761)" x="114.809091" y="68.475761">1</text>
     </g>
    </g>
    <g id="ytick_7">
     <g id="line2d_17"/>
     <g id="text_16">
      <text style="font-family:Arial;font-size:8px;font-style:normal;font-weight:normal;text-anchor:end;" transform="rotate(-0, 114.809091, 39.588396)" x="114.809091" y="39.588396">2</text>
     </g>
    </g>
    <g id="text_17">
     <!-- $\sigma$(Inh) -->
     <g transform="translate(104.160341 67.18)rotate(-90)">
      <text>
       <tspan style="font-family:DejaVu Sans;font-size:10px;font-style:oblique;font-weight:oblique;" x="0" y="-0.71875">σ</tspan>
       <tspan style="font-family:Arial;font-size:10px;font-style:regular;font-weight:regular;" x="6.337891 9.667969 12.446289 18.007812 23.569336" y="-0.71875">(Inh)</tspan>
      </text>
     </g>
    </g>
   </g>
   <g id="legend_2">
    <g id="line2d_18">
     <path d="M 108.478125 31.995156 
L 128.478125 31.995156 
" style="fill:none;stroke:#000000;stroke-dasharray:1.85,0.8;stroke-dashoffset:0;stroke-width:0.5;"/>
    </g>
    <g id="line2d_19"/>
    <g id="text_18">
     <!-- $R^2$ 0.28 -->
     <g transform="translate(136.478125 29.2475)">
      <text>
       <tspan style="font-family:DejaVu Sans;font-size:10px;font-style:oblique;font-weight:oblique;" x="0" y="-0.9765625">R</tspan>
       <tspan style="font-family:DejaVu Sans;font-size:7px;font-style:book;font-weight:book;" x="7.650794" y="-4.8046875">2</tspan>
       <tspan style="font-family:Arial;font-size:10px;font-style:regular;font-weight:regular;" x="12.377845 15.156165 20.717689 23.496009 29.057533" y="-0.9765625"> 0.28</tspan>
      </text>
     </g>
     <text style="font-family:Arial;font-size:10px;font-style:normal;font-weight:normal;" transform="translate(136.478125 39.86)"> slope 0.56</text>
    </g>
   </g>
  </g>
 </g>
 <defs>
  <clipPath id="p03e7e8c9a6">
   <rect height="81.54" width="76.090909" x="27" y="12.96"/>
  </clipPath>
  <clipPath id="p72d89e2f9d">
   <rect height="81.54" width="76.090909" x="118.309091" y="12.96"/>
  </clipPath>
 </defs>
</svg>
