<?xml version="1.0" encoding="utf-8" standalone="no"?>
<!DOCTYPE svg PUBLIC "-//W3C//DTD SVG 1.1//EN"
  "http://www.w3.org/Graphics/SVG/1.1/DTD/svg11.dtd">
<!-- Created with matplotlib (http://matplotlib.org/) -->
<svg height="108pt" version="1.1" viewBox="0 0 216 108" width="216pt" xmlns="http://www.w3.org/2000/svg" xmlns:xlink="http://www.w3.org/1999/xlink">
 <defs>
  <style type="text/css">
*{stroke-linecap:butt;stroke-linejoin:round;}
  </style>
 </defs>
 <g id="figure_1">
  <g id="patch_1">
   <path d="M 0 108 
L 216 108 
L 216 0 
L 0 0 
z
" style="fill:#ffffff;"/>
  </g>
  <g id="axes_1">
   <g id="patch_2">
    <path d="M 27 94.5 
L 103.090909 94.5 
L 103.090909 12.96 
L 27 12.96 
z
" style="fill:#ffffff;"/>
   </g>
   <g id="LineCollection_1">
    <path clip-path="url(#pe58026f4a6)" d="M 25.896332 68.593233 
L 49.103729 68.593233 
" style="fill:none;stroke:#000000;stroke-width:0.5;"/>
    <path clip-path="url(#pe58026f4a6)" d="M 26.65978 90.718547 
L 28.040429 90.718547 
" style="fill:none;stroke:#000000;stroke-width:0.5;"/>
    <path clip-path="url(#pe58026f4a6)" d="M 25.497361 48.355163 
L 45.14392 48.355163 
" style="fill:none;stroke:#000000;stroke-width:0.5;"/>
    <path clip-path="url(#pe58026f4a6)" d="M 27.586787 71.150707 
L 48.263268 71.150707 
" style="fill:none;stroke:#000000;stroke-width:0.5;"/>
    <path clip-path="url(#pe58026f4a6)" d="M 28.197191 48.556707 
L 44.080095 48.556707 
" style="fill:none;stroke:#000000;stroke-width:0.5;"/>
    <path clip-path="url(#pe58026f4a6)" d="M 27.257537 46.38101 
L 46.949927 46.38101 
" style="fill:none;stroke:#000000;stroke-width:0.5;"/>
    <path clip-path="url(#pe58026f4a6)" d="M 21.827295 65.240584 
L 44.503813 65.240584 
" style="fill:none;stroke:#000000;stroke-width:0.5;"/>
    <path clip-path="url(#pe58026f4a6)" d="M 27.043919 61.83011 
L 38.167361 61.83011 
" style="fill:none;stroke:#000000;stroke-width:0.5;"/>
    <path clip-path="url(#pe58026f4a6)" d="M 28.146722 52.606428 
L 46.739634 52.606428 
" style="fill:none;stroke:#000000;stroke-width:0.5;"/>
    <path clip-path="url(#pe58026f4a6)" d="M 26.8112 76.66341 
L 36.80336 76.66341 
" style="fill:none;stroke:#000000;stroke-width:0.5;"/>
    <path clip-path="url(#pe58026f4a6)" d="M 26.687627 70.967753 
L 33.857972 70.967753 
" style="fill:none;stroke:#000000;stroke-width:0.5;"/>
    <path clip-path="url(#pe58026f4a6)" d="M 20.304965 48.310654 
L 70.372304 48.310654 
" style="fill:none;stroke:#000000;stroke-width:0.5;"/>
    <path clip-path="url(#pe58026f4a6)" d="M 25.626499 37.191256 
L 50.223537 37.191256 
" style="fill:none;stroke:#000000;stroke-width:0.5;"/>
    <path clip-path="url(#pe58026f4a6)" d="M 23.146647 48.229402 
L 58.281156 48.229402 
" style="fill:none;stroke:#000000;stroke-width:0.5;"/>
    <path clip-path="url(#pe58026f4a6)" d="M 24.690419 86.129125 
L 32.496331 86.129125 
" style="fill:none;stroke:#000000;stroke-width:0.5;"/>
    <path clip-path="url(#pe58026f4a6)" d="M 27.257526 68.510047 
L 48.486961 68.510047 
" style="fill:none;stroke:#000000;stroke-width:0.5;"/>
    <path clip-path="url(#pe58026f4a6)" d="M 24.52441 31.93778 
L 66.599252 31.93778 
" style="fill:none;stroke:#000000;stroke-width:0.5;"/>
    <path clip-path="url(#pe58026f4a6)" d="M 25.55603 54.422216 
L 39.078277 54.422216 
" style="fill:none;stroke:#000000;stroke-width:0.5;"/>
    <path clip-path="url(#pe58026f4a6)" d="M 26.509372 66.629116 
L 33.244449 66.629116 
" style="fill:none;stroke:#000000;stroke-width:0.5;"/>
    <path clip-path="url(#pe58026f4a6)" d="M 25.826774 85.186771 
L 32.252162 85.186771 
" style="fill:none;stroke:#000000;stroke-width:0.5;"/>
    <path clip-path="url(#pe58026f4a6)" d="M 28.344557 60.802465 
L 42.065082 60.802465 
" style="fill:none;stroke:#000000;stroke-width:0.5;"/>
    <path clip-path="url(#pe58026f4a6)" d="M 31.5262 80.078243 
L 33.638097 80.078243 
" style="fill:none;stroke:#000000;stroke-width:0.5;"/>
    <path clip-path="url(#pe58026f4a6)" d="M 26.548081 92.882656 
L 29.097674 92.882656 
" style="fill:none;stroke:#000000;stroke-width:0.5;"/>
    <path clip-path="url(#pe58026f4a6)" d="M 28.896517 80.637076 
L 42.716239 80.637076 
" style="fill:none;stroke:#000000;stroke-width:0.5;"/>
    <path clip-path="url(#pe58026f4a6)" d="M 26.374898 55.297047 
L 44.239512 55.297047 
" style="fill:none;stroke:#000000;stroke-width:0.5;"/>
    <path clip-path="url(#pe58026f4a6)" d="M 27.875235 67.290072 
L 36.76925 67.290072 
" style="fill:none;stroke:#000000;stroke-width:0.5;"/>
    <path clip-path="url(#pe58026f4a6)" d="M 26.468408 66.995808 
L 33.046402 66.995808 
" style="fill:none;stroke:#000000;stroke-width:0.5;"/>
    <path clip-path="url(#pe58026f4a6)" d="M 27.140019 59.066612 
L 51.9099 59.066612 
" style="fill:none;stroke:#000000;stroke-width:0.5;"/>
    <path clip-path="url(#pe58026f4a6)" d="M 27.817818 67.834117 
L 36.907776 67.834117 
" style="fill:none;stroke:#000000;stroke-width:0.5;"/>
    <path clip-path="url(#pe58026f4a6)" d="M 28.65228 70.012069 
L 34.607523 70.012069 
" style="fill:none;stroke:#000000;stroke-width:0.5;"/>
   </g>
   <g id="LineCollection_2">
    <path clip-path="url(#pe58026f4a6)" d="M 37.50003 80.541116 
L 37.50003 56.645351 
" style="fill:none;stroke:#000000;stroke-width:0.5;"/>
    <path clip-path="url(#pe58026f4a6)" d="M 27.350104 91.345163 
L 27.350104 90.091931 
" style="fill:none;stroke:#000000;stroke-width:0.5;"/>
    <path clip-path="url(#pe58026f4a6)" d="M 35.32064 53.101389 
L 35.32064 43.608937 
" style="fill:none;stroke:#000000;stroke-width:0.5;"/>
    <path clip-path="url(#pe58026f4a6)" d="M 37.925028 84.808887 
L 37.925028 57.492527 
" style="fill:none;stroke:#000000;stroke-width:0.5;"/>
    <path clip-path="url(#pe58026f4a6)" d="M 36.138643 54.324901 
L 36.138643 42.788513 
" style="fill:none;stroke:#000000;stroke-width:0.5;"/>
    <path clip-path="url(#pe58026f4a6)" d="M 37.103732 58.020056 
L 37.103732 34.741964 
" style="fill:none;stroke:#000000;stroke-width:0.5;"/>
    <path clip-path="url(#pe58026f4a6)" d="M 33.165554 71.787667 
L 33.165554 58.693501 
" style="fill:none;stroke:#000000;stroke-width:0.5;"/>
    <path clip-path="url(#pe58026f4a6)" d="M 32.60564 69.499668 
L 32.60564 54.160552 
" style="fill:none;stroke:#000000;stroke-width:0.5;"/>
    <path clip-path="url(#pe58026f4a6)" d="M 37.443178 58.441563 
L 37.443178 46.771293 
" style="fill:none;stroke:#000000;stroke-width:0.5;"/>
    <path clip-path="url(#pe58026f4a6)" d="M 31.80728 83.964704 
L 31.80728 69.362116 
" style="fill:none;stroke:#000000;stroke-width:0.5;"/>
    <path clip-path="url(#pe58026f4a6)" d="M 30.272799 89.324481 
L 30.272799 52.611025 
" style="fill:none;stroke:#000000;stroke-width:0.5;"/>
    <path clip-path="url(#pe58026f4a6)" d="M 45.338634 75.960936 
L 45.338634 20.660372 
" style="fill:none;stroke:#000000;stroke-width:0.5;"/>
    <path clip-path="url(#pe58026f4a6)" d="M 37.925018 41.603099 
L 37.925018 32.779414 
" style="fill:none;stroke:#000000;stroke-width:0.5;"/>
    <path clip-path="url(#pe58026f4a6)" d="M 40.713901 53.320682 
L 40.713901 43.138122 
" style="fill:none;stroke:#000000;stroke-width:0.5;"/>
    <path clip-path="url(#pe58026f4a6)" d="M 28.593375 90.23 
L 28.593375 82.028251 
" style="fill:none;stroke:#000000;stroke-width:0.5;"/>
    <path clip-path="url(#pe58026f4a6)" d="M 37.872244 75.611477 
L 37.872244 61.408618 
" style="fill:none;stroke:#000000;stroke-width:0.5;"/>
    <path clip-path="url(#pe58026f4a6)" d="M 45.561831 47.050062 
L 45.561831 16.825497 
" style="fill:none;stroke:#000000;stroke-width:0.5;"/>
    <path clip-path="url(#pe58026f4a6)" d="M 32.317153 69.362793 
L 32.317153 39.481639 
" style="fill:none;stroke:#000000;stroke-width:0.5;"/>
    <path clip-path="url(#pe58026f4a6)" d="M 29.876911 70.157642 
L 29.876911 63.10059 
" style="fill:none;stroke:#000000;stroke-width:0.5;"/>
    <path clip-path="url(#pe58026f4a6)" d="M 29.039468 89.624524 
L 29.039468 80.749017 
" style="fill:none;stroke:#000000;stroke-width:0.5;"/>
    <path clip-path="url(#pe58026f4a6)" d="M 35.20482 64.47914 
L 35.20482 57.12579 
" style="fill:none;stroke:#000000;stroke-width:0.5;"/>
    <path clip-path="url(#pe58026f4a6)" d="M 32.582148 85.394375 
L 32.582148 74.762111 
" style="fill:none;stroke:#000000;stroke-width:0.5;"/>
    <path clip-path="url(#pe58026f4a6)" d="M 27.822877 94.135445 
L 27.822877 91.629867 
" style="fill:none;stroke:#000000;stroke-width:0.5;"/>
    <path clip-path="url(#pe58026f4a6)" d="M 35.806378 86.563614 
L 35.806378 74.710538 
" style="fill:none;stroke:#000000;stroke-width:0.5;"/>
    <path clip-path="url(#pe58026f4a6)" d="M 35.307205 68.658544 
L 35.307205 41.93555 
" style="fill:none;stroke:#000000;stroke-width:0.5;"/>
    <path clip-path="url(#pe58026f4a6)" d="M 32.322242 73.109313 
L 32.322242 61.470832 
" style="fill:none;stroke:#000000;stroke-width:0.5;"/>
    <path clip-path="url(#pe58026f4a6)" d="M 29.757405 79.392796 
L 29.757405 54.598819 
" style="fill:none;stroke:#000000;stroke-width:0.5;"/>
    <path clip-path="url(#pe58026f4a6)" d="M 39.524959 75.355721 
L 39.524959 42.777504 
" style="fill:none;stroke:#000000;stroke-width:0.5;"/>
    <path clip-path="url(#pe58026f4a6)" d="M 32.362797 73.756164 
L 32.362797 61.91207 
" style="fill:none;stroke:#000000;stroke-width:0.5;"/>
    <path clip-path="url(#pe58026f4a6)" d="M 31.629902 77.827773 
L 31.629902 62.196365 
" style="fill:none;stroke:#000000;stroke-width:0.5;"/>
   </g>
   <g id="line2d_1">
    <path clip-path="url(#pe58026f4a6)" d="M 27 82.85542 
L 27.768595 80.962215 
L 28.53719 79.06901 
L 29.305785 77.175805 
L 30.07438 75.2826 
L 30.842975 73.389395 
L 31.61157 71.496189 
L 32.380165 69.602984 
L 33.14876 67.709779 
L 33.917355 65.816574 
L 34.68595 63.923369 
L 35.454545 62.030164 
L 36.22314 60.136959 
L 36.991736 58.243753 
L 37.760331 56.350548 
L 38.528926 54.457343 
L 39.297521 52.564138 
L 40.066116 50.670933 
L 40.834711 48.777728 
L 41.603306 46.884523 
L 42.371901 44.991317 
L 43.140496 43.098112 
L 43.909091 41.204907 
L 44.677686 39.311702 
L 45.446281 37.418497 
L 46.214876 35.525292 
L 46.983471 33.632087 
L 47.752066 31.738882 
L 48.520661 29.845676 
L 49.289256 27.952471 
L 50.057851 26.059266 
L 50.826446 24.166061 
L 51.595041 22.272856 
L 52.363636 20.379651 
L 53.132231 18.486446 
L 53.900826 16.59324 
L 54.669421 14.700035 
L 55.438017 12.80683 
L 56.206612 10.913625 
L 56.975207 9.02042 
L 57.743802 7.127215 
L 58.512397 5.23401 
L 59.280992 3.340804 
L 60.049587 1.447599 
L 60.818182 -0.445606 
L 61.043252 -1 
" style="fill:none;stroke:#000000;stroke-dasharray:1.85,0.8;stroke-dashoffset:0;stroke-width:0.5;"/>
   </g>
   <g id="line2d_2">
    <defs>
     <path d="M 0 3 
C 0.795609 3 1.55874 2.683901 2.12132 2.12132 
C 2.683901 1.55874 3 0.795609 3 0 
C 3 -0.795609 2.683901 -1.55874 2.12132 -2.12132 
C 1.55874 -2.683901 0.795609 -3 0 -3 
C -0.795609 -3 -1.55874 -2.683901 -2.12132 -2.12132 
C -2.683901 -1.55874 -3 -0.795609 -3 0 
C -3 0.795609 -2.683901 1.55874 -2.12132 2.12132 
C -1.55874 2.683901 -0.795609 3 0 3 
z
" id="m88a67443d4" style="stroke:#000000;"/>
    </defs>
    <g clip-path="url(#pe58026f4a6)">
     <use style="stroke:#000000;" x="37.50003" xlink:href="#m88a67443d4" y="68.593233"/>
     <use style="stroke:#000000;" x="27.350104" xlink:href="#m88a67443d4" y="90.718547"/>
     <use style="stroke:#000000;" x="35.32064" xlink:href="#m88a67443d4" y="48.355163"/>
     <use style="stroke:#000000;" x="37.925028" xlink:href="#m88a67443d4" y="71.150707"/>
     <use style="stroke:#000000;" x="36.138643" xlink:href="#m88a67443d4" y="48.556707"/>
     <use style="stroke:#000000;" x="37.103732" xlink:href="#m88a67443d4" y="46.38101"/>
     <use style="stroke:#000000;" x="33.165554" xlink:href="#m88a67443d4" y="65.240584"/>
     <use style="stroke:#000000;" x="32.60564" xlink:href="#m88a67443d4" y="61.83011"/>
     <use style="stroke:#000000;" x="37.443178" xlink:href="#m88a67443d4" y="52.606428"/>
     <use style="stroke:#000000;" x="31.80728" xlink:href="#m88a67443d4" y="76.66341"/>
     <use style="stroke:#000000;" x="30.272799" xlink:href="#m88a67443d4" y="70.967753"/>
     <use style="stroke:#000000;" x="45.338634" xlink:href="#m88a67443d4" y="48.310654"/>
     <use style="stroke:#000000;" x="37.925018" xlink:href="#m88a67443d4" y="37.191256"/>
     <use style="stroke:#000000;" x="40.713901" xlink:href="#m88a67443d4" y="48.229402"/>
     <use style="stroke:#000000;" x="28.593375" xlink:href="#m88a67443d4" y="86.129125"/>
     <use style="stroke:#000000;" x="37.872244" xlink:href="#m88a67443d4" y="68.510047"/>
     <use style="stroke:#000000;" x="45.561831" xlink:href="#m88a67443d4" y="31.93778"/>
     <use style="stroke:#000000;" x="32.317153" xlink:href="#m88a67443d4" y="54.422216"/>
     <use style="stroke:#000000;" x="29.876911" xlink:href="#m88a67443d4" y="66.629116"/>
     <use style="stroke:#000000;" x="29.039468" xlink:href="#m88a67443d4" y="85.186771"/>
     <use style="stroke:#000000;" x="35.20482" xlink:href="#m88a67443d4" y="60.802465"/>
     <use style="stroke:#000000;" x="32.582148" xlink:href="#m88a67443d4" y="80.078243"/>
     <use style="stroke:#000000;" x="27.822877" xlink:href="#m88a67443d4" y="92.882656"/>
     <use style="stroke:#000000;" x="35.806378" xlink:href="#m88a67443d4" y="80.637076"/>
     <use style="stroke:#000000;" x="35.307205" xlink:href="#m88a67443d4" y="55.297047"/>
     <use style="stroke:#000000;" x="32.322242" xlink:href="#m88a67443d4" y="67.290072"/>
     <use style="stroke:#000000;" x="29.757405" xlink:href="#m88a67443d4" y="66.995808"/>
     <use style="stroke:#000000;" x="39.524959" xlink:href="#m88a67443d4" y="59.066612"/>
     <use style="stroke:#000000;" x="32.362797" xlink:href="#m88a67443d4" y="67.834117"/>
     <use style="stroke:#000000;" x="31.629902" xlink:href="#m88a67443d4" y="70.012069"/>
    </g>
   </g>
   <g id="patch_3">
    <path d="M 27 94.5 
L 27 12.96 
" style="fill:none;stroke:#000000;stroke-linecap:square;stroke-linejoin:miter;"/>
   </g>
   <g id="patch_4">
    <path d="M 27 94.5 
L 103.090909 94.5 
" style="fill:none;stroke:#000000;stroke-linecap:square;stroke-linejoin:miter;"/>
   </g>
   <g id="matplotlib.axis_1">
    <g id="xtick_1">
     <g id="line2d_3"/>
     <g id="text_1">
      <text style="font-family:Arial;font-size:8px;font-style:normal;font-weight:normal;text-anchor:middle;" transform="rotate(-0, 27, 103.72625)" x="27" y="103.72625">0</text>
     </g>
    </g>
    <g id="xtick_2">
     <g id="line2d_4"/>
     <g id="text_2">
      <text style="font-family:Arial;font-size:8px;font-style:normal;font-weight:normal;text-anchor:middle;" transform="rotate(-0, 66.581093, 103.72625)" x="66.581093" y="103.72625">5</text>
     </g>
    </g>
    <g id="text_3">
     <text style="font-family:Arial;font-size:10px;font-style:normal;font-weight:normal;text-anchor:middle;" transform="rotate(-0, 65.045455, 116.474063)" x="65.045455" y="116.474063">Exc</text>
    </g>
   </g>
   <g id="matplotlib.axis_2">
    <g id="ytick_1">
     <g id="line2d_5"/>
     <g id="text_4">
      <text style="font-family:Arial;font-size:8px;font-style:normal;font-weight:normal;text-anchor:end;" transform="rotate(-0, 23.5, 97.363125)" x="23.5" y="97.363125">0</text>
     </g>
    </g>
    <g id="ytick_2">
     <g id="line2d_6"/>
     <g id="text_5">
      <text style="font-family:Arial;font-size:8px;font-style:normal;font-weight:normal;text-anchor:end;" transform="rotate(-0, 23.5, 80.396881)" x="23.5" y="80.396881">2</text>
     </g>
    </g>
    <g id="ytick_3">
     <g id="line2d_7"/>
     <g id="text_6">
      <text style="font-family:Arial;font-size:8px;font-style:normal;font-weight:normal;text-anchor:end;" transform="rotate(-0, 23.5, 63.430637)" x="23.5" y="63.430637">4</text>
     </g>
    </g>
    <g id="ytick_4">
     <g id="line2d_8"/>
     <g id="text_7">
      <text style="font-family:Arial;font-size:8px;font-style:normal;font-weight:normal;text-anchor:end;" transform="rotate(-0, 23.5, 46.464392)" x="23.5" y="46.464392">6</text>
     </g>
    </g>
    <g id="ytick_5">
     <g id="line2d_9"/>
     <g id="text_8">
      <text style="font-family:Arial;font-size:8px;font-style:normal;font-weight:normal;text-anchor:end;" transform="rotate(-0, 23.5, 29.498148)" x="23.5" y="29.498148">8</text>
     </g>
    </g>
    <g id="text_9">
     <text style="font-family:Arial;font-size:10px;font-style:normal;font-weight:normal;text-anchor:middle;" transform="rotate(-90, 13.06375, 53.73)" x="13.06375" y="53.73">Inh</text>
    </g>
   </g>
   <g id="legend_1">
    <g id="line2d_10">
     <path d="M 36 75.622656 
L 56 75.622656 
" style="fill:none;stroke:#000000;stroke-dasharray:1.85,0.8;stroke-dashoffset:0;stroke-width:0.5;"/>
    </g>
    <g id="line2d_11"/>
    <g id="text_10">
     <!-- $R^2$ 0.56 -->
     <g transform="translate(64 72.875)">
      <text>
       <tspan style="font-family:DejaVu Sans;font-size:10px;font-style:oblique;font-weight:oblique;" x="0" y="-0.9765625">R</tspan>
       <tspan style="font-family:DejaVu Sans;font-size:7px;font-style:book;font-weight:book;" x="7.650794" y="-4.8046875">2</tspan>
       <tspan style="font-family:Arial;font-size:10px;font-style:regular;font-weight:regular;" x="12.377845 15.156165 20.717689 23.496009 29.057533" y="-0.9765625"> 0.56</tspan>
      </text>
     </g>
     <text style="font-family:Arial;font-size:10px;font-style:normal;font-weight:normal;" transform="translate(64 83.4875)"> slope 2.30</text>
    </g>
   </g>
  </g>
  <g id="axes_2">
   <g id="patch_5">
    <path d="M 118.309091 94.5 
L 194.4 94.5 
L 194.4 12.96 
L 118.309091 12.96 
z
" style="fill:#ffffff;"/>
   </g>
   <g id="PathCollection_1">
    <defs>
     <path d="M 0 2.44949 
C 0.649612 2.44949 1.272706 2.191396 1.732051 1.732051 
C 2.191396 1.272706 2.44949 0.649612 2.44949 0 
C 2.44949 -0.649612 2.191396 -1.272706 1.732051 -1.732051 
C 1.272706 -2.191396 0.649612 -2.44949 0 -2.44949 
C -0.649612 -2.44949 -1.272706 -2.191396 -1.732051 -1.732051 
C -2.191396 -1.272706 -2.44949 -0.649612 -2.44949 0 
C -2.44949 0.649612 -2.191396 1.272706 -1.732051 1.732051 
C -1.272706 2.191396 -0.649612 2.44949 0 2.44949 
z
" id="m34303b4ace" style="stroke:#000000;"/>
    </defs>
    <g clip-path="url(#p15f44859cf)">
     <use style="stroke:#000000;" x="150.816016" xlink:href="#m34303b4ace" y="61.028867"/>
     <use style="stroke:#000000;" x="120.242985" xlink:href="#m34303b4ace" y="92.744582"/>
     <use style="stroke:#000000;" x="145.8283" xlink:href="#m34303b4ace" y="81.20379"/>
     <use style="stroke:#000000;" x="147.270927" xlink:href="#m34303b4ace" y="56.237593"/>
     <use style="stroke:#000000;" x="140.556496" xlink:href="#m34303b4ace" y="78.34082"/>
     <use style="stroke:#000000;" x="145.892496" xlink:href="#m34303b4ace" y="61.894051"/>
     <use style="stroke:#000000;" x="150.072407" xlink:href="#m34303b4ace" y="76.15882"/>
     <use style="stroke:#000000;" x="133.889853" xlink:href="#m34303b4ace" y="73.014287"/>
     <use style="stroke:#000000;" x="144.352442" xlink:href="#m34303b4ace" y="78.15329"/>
     <use style="stroke:#000000;" x="132.305249" xlink:href="#m34303b4ace" y="74.045951"/>
     <use style="stroke:#000000;" x="128.352692" xlink:href="#m34303b4ace" y="43.07495"/>
     <use style="stroke:#000000;" x="188.439112" xlink:href="#m34303b4ace" y="17.039728"/>
     <use style="stroke:#000000;" x="152.762505" xlink:href="#m34303b4ace" y="82.140541"/>
     <use style="stroke:#000000;" x="167.522489" xlink:href="#m34303b4ace" y="80.237145"/>
     <use style="stroke:#000000;" x="129.242941" xlink:href="#m34303b4ace" y="83.011696"/>
     <use style="stroke:#000000;" x="148.045457" xlink:href="#m34303b4ace" y="74.605856"/>
     <use style="stroke:#000000;" x="177.243909" xlink:href="#m34303b4ace" y="52.16403"/>
     <use style="stroke:#000000;" x="137.249891" xlink:href="#m34303b4ace" y="52.645051"/>
     <use style="stroke:#000000;" x="127.743006" xlink:href="#m34303b4ace" y="84.615089"/>
     <use style="stroke:#000000;" x="127.309222" xlink:href="#m34303b4ace" y="82.067953"/>
     <use style="stroke:#000000;" x="137.527623" xlink:href="#m34303b4ace" y="84.20006"/>
     <use style="stroke:#000000;" x="121.267255" xlink:href="#m34303b4ace" y="79.607239"/>
     <use style="stroke:#000000;" x="121.880341" xlink:href="#m34303b4ace" y="90.990401"/>
     <use style="stroke:#000000;" x="137.666568" xlink:href="#m34303b4ace" y="77.897232"/>
     <use style="stroke:#000000;" x="143.332305" xlink:href="#m34303b4ace" y="57.06873"/>
     <use style="stroke:#000000;" x="130.767062" xlink:href="#m34303b4ace" y="78.197818"/>
     <use style="stroke:#000000;" x="127.522978" xlink:href="#m34303b4ace" y="59.77073"/>
     <use style="stroke:#000000;" x="153.00461" xlink:href="#m34303b4ace" y="48.867237"/>
     <use style="stroke:#000000;" x="131.041522" xlink:href="#m34303b4ace" y="77.909812"/>
     <use style="stroke:#000000;" x="126.650684" xlink:href="#m34303b4ace" y="72.604869"/>
    </g>
   </g>
   <g id="line2d_12">
    <path clip-path="url(#p15f44859cf)" d="M 118.309091 83.760284 
L 119.077686 83.304405 
L 119.846281 82.848526 
L 120.614876 82.392647 
L 121.383471 81.936768 
L 122.152066 81.480889 
L 122.920661 81.025009 
L 123.689256 80.56913 
L 124.457851 80.113251 
L 125.226446 79.657372 
L 125.995041 79.201493 
L 126.763636 78.745614 
L 127.532231 78.289735 
L 128.300826 77.833856 
L 129.069421 77.377976 
L 129.838017 76.922097 
L 130.606612 76.466218 
L 131.375207 76.010339 
L 132.143802 75.55446 
L 132.912397 75.098581 
L 133.680992 74.642702 
L 134.449587 74.186822 
L 135.218182 73.730943 
L 135.986777 73.275064 
L 136.755372 72.819185 
L 137.523967 72.363306 
L 138.292562 71.907427 
L 139.061157 71.451548 
L 139.829752 70.995668 
L 140.598347 70.539789 
L 141.366942 70.08391 
L 142.135537 69.628031 
L 142.904132 69.172152 
L 143.672727 68.716273 
L 144.441322 68.260394 
L 145.209917 67.804514 
L 145.978512 67.348635 
L 146.747107 66.892756 
L 147.515702 66.436877 
L 148.284298 65.980998 
L 149.052893 65.525119 
L 149.821488 65.06924 
L 150.590083 64.61336 
L 151.358678 64.157481 
L 152.127273 63.701602 
L 152.895868 63.245723 
L 153.664463 62.789844 
L 154.433058 62.333965 
L 155.201653 61.878086 
L 155.970248 61.422207 
L 156.738843 60.966327 
L 157.507438 60.510448 
L 158.276033 60.054569 
L 159.044628 59.59869 
L 159.813223 59.142811 
L 160.581818 58.686932 
L 161.350413 58.231053 
L 162.119008 57.775173 
L 162.887603 57.319294 
L 163.656198 56.863415 
L 164.424793 56.407536 
L 165.193388 55.951657 
L 165.961983 55.495778 
L 166.730579 55.039899 
L 167.499174 54.584019 
L 168.267769 54.12814 
L 169.036364 53.672261 
L 169.804959 53.216382 
L 170.573554 52.760503 
L 171.342149 52.304624 
L 172.110744 51.848745 
L 172.879339 51.392865 
L 173.647934 50.936986 
L 174.416529 50.481107 
L 175.185124 50.025228 
L 175.953719 49.569349 
L 176.722314 49.11347 
L 177.490909 48.657591 
L 178.259504 48.201711 
L 179.028099 47.745832 
L 179.796694 47.289953 
L 180.565289 46.834074 
L 181.333884 46.378195 
L 182.102479 45.922316 
L 182.871074 45.466437 
L 183.639669 45.010558 
L 184.408264 44.554678 
L 185.17686 44.098799 
L 185.945455 43.64292 
L 186.71405 43.187041 
L 187.482645 42.731162 
L 188.25124 42.275283 
L 189.019835 41.819404 
L 189.78843 41.363524 
L 190.557025 40.907645 
L 191.32562 40.451766 
L 192.094215 39.995887 
L 192.86281 39.540008 
L 193.631405 39.084129 
L 194.4 38.62825 
" style="fill:none;stroke:#000000;stroke-dasharray:1.85,0.8;stroke-dashoffset:0;stroke-width:0.5;"/>
   </g>
   <g id="patch_6">
    <path d="M 118.309091 94.5 
L 118.309091 12.96 
" style="fill:none;stroke:#000000;stroke-linecap:square;stroke-linejoin:miter;"/>
   </g>
   <g id="patch_7">
    <path d="M 118.309091 94.5 
L 194.4 94.5 
" style="fill:none;stroke:#000000;stroke-linecap:square;stroke-linejoin:miter;"/>
   </g>
   <g id="matplotlib.axis_3">
    <g id="xtick_3">
     <g id="line2d_13"/>
     <g id="text_11">
      <text style="font-family:Arial;font-size:8px;font-style:normal;font-weight:normal;text-anchor:middle;" transform="rotate(-0, 118.309091, 103.72625)" x="118.309091" y="103.72625">0</text>
     </g>
    </g>
    <g id="xtick_4">
     <g id="line2d_14"/>
     <g id="text_12">
      <text style="font-family:Arial;font-size:8px;font-style:normal;font-weight:normal;text-anchor:middle;" transform="rotate(-0, 162.662523, 103.72625)" x="162.662523" y="103.72625">2</text>
     </g>
    </g>
    <g id="text_13">
     <!-- $\sigma$(Exc) -->
     <g transform="translate(141.504545 116.61625)">
      <text>
       <tspan style="font-family:DejaVu Sans;font-size:10px;font-style:oblique;font-weight:oblique;" x="0" y="-0.71875">σ</tspan>
       <tspan style="font-family:Arial;font-size:10px;font-style:regular;font-weight:regular;" x="6.337891 9.667969 16.337891 21.337891 26.337891" y="-0.71875">(Exc)</tspan>
      </text>
     </g>
    </g>
   </g>
   <g id="matplotlib.axis_4">
    <g id="ytick_6">
     <g id="line2d_15"/>
     <g id="text_14">
      <text style="font-family:Arial;font-size:8px;font-style:normal;font-weight:normal;text-anchor:end;" transform="rotate(-0, 114.809091, 97.363125)" x="114.809091" y="97.363125">0</text>
     </g>
    </g>
    <g id="ytick_7">
     <g id="line2d_16"/>
     <g id="text_15">
      <text style="font-family:Arial;font-size:8px;font-style:normal;font-weight:normal;text-anchor:end;" transform="rotate(-0, 114.809091, 73.59827)" x="114.809091" y="73.59827">1</text>
     </g>
    </g>
    <g id="ytick_8">
     <g id="line2d_17"/>
     <g id="text_16">
      <text style="font-family:Arial;font-size:8px;font-style:normal;font-weight:normal;text-anchor:end;" transform="rotate(-0, 114.809091, 49.833415)" x="114.809091" y="49.833415">2</text>
     </g>
    </g>
    <g id="ytick_9">
     <g id="line2d_18"/>
     <g id="text_17">
      <text style="font-family:Arial;font-size:8px;font-style:normal;font-weight:normal;text-anchor:end;" transform="rotate(-0, 114.809091, 26.06856)" x="114.809091" y="26.06856">3</text>
     </g>
    </g>
    <g id="text_18">
     <!-- $\sigma$(Inh) -->
     <g transform="translate(104.160341 67.18)rotate(-90)">
      <text>
       <tspan style="font-family:DejaVu Sans;font-size:10px;font-style:oblique;font-weight:oblique;" x="0" y="-0.71875">σ</tspan>
       <tspan style="font-family:Arial;font-size:10px;font-style:regular;font-weight:regular;" x="6.337891 9.667969 12.446289 18.007812 23.569336" y="-0.71875">(Inh)</tspan>
      </text>
     </g>
    </g>
   </g>
   <g id="legend_2">
    <g id="line2d_19">
     <path d="M 108.478125 31.995156 
L 128.478125 31.995156 
" style="fill:none;stroke:#000000;stroke-dasharray:1.85,0.8;stroke-dashoffset:0;stroke-width:0.5;"/>
    </g>
    <g id="line2d_20"/>
    <g id="text_19">
     <!-- $R^2$ 0.34 -->
     <g transform="translate(136.478125 29.2475)">
      <text>
       <tspan style="font-family:DejaVu Sans;font-size:10px;font-style:oblique;font-weight:oblique;" x="0" y="-0.9765625">R</tspan>
       <tspan style="font-family:DejaVu Sans;font-size:7px;font-style:book;font-weight:book;" x="7.650794" y="-4.8046875">2</tspan>
       <tspan style="font-family:Arial;font-size:10px;font-style:regular;font-weight:regular;" x="12.377845 15.156165 20.717689 23.496009 29.057533" y="-0.9765625"> 0.34</tspan>
      </text>
     </g>
     <text style="font-family:Arial;font-size:10px;font-style:normal;font-weight:normal;" transform="translate(136.478125 39.86)"> slope 0.55</text>
    </g>
   </g>
  </g>
 </g>
 <defs>
  <clipPath id="pe58026f4a6">
   <rect height="81.54" width="76.090909" x="27" y="12.96"/>
  </clipPath>
  <clipPath id="p15f44859cf">
   <rect height="81.54" width="76.090909" x="118.309091" y="12.96"/>
  </clipPath>
 </defs>
</svg>
