<?xml version="1.0" encoding="utf-8" standalone="no"?>
<!DOCTYPE svg PUBLIC "-//W3C//DTD SVG 1.1//EN"
  "http://www.w3.org/Graphics/SVG/1.1/DTD/svg11.dtd">
<!-- Created with matplotlib (http://matplotlib.org/) -->
<svg height="108pt" version="1.1" viewBox="0 0 216 108" width="216pt" xmlns="http://www.w3.org/2000/svg" xmlns:xlink="http://www.w3.org/1999/xlink">
 <defs>
  <style type="text/css">
*{stroke-linecap:butt;stroke-linejoin:round;}
  </style>
 </defs>
 <g id="figure_1">
  <g id="patch_1">
   <path d="M 0 108 
L 216 108 
L 216 0 
L 0 0 
z
" style="fill:#ffffff;"/>
  </g>
  <g id="axes_1">
   <g id="patch_2">
    <path d="M 27 94.5 
L 103.090909 94.5 
L 103.090909 12.96 
L 27 12.96 
z
" style="fill:#ffffff;"/>
   </g>
   <g id="LineCollection_1">
    <path clip-path="url(#pc52d9c6d8d)" d="M 31.984459 66.440493 
L 38.376254 66.440493 
" style="fill:none;stroke:#000000;stroke-width:0.5;"/>
    <path clip-path="url(#pc52d9c6d8d)" d="M 29.339186 63.155163 
L 43.712835 63.155163 
" style="fill:none;stroke:#000000;stroke-width:0.5;"/>
    <path clip-path="url(#pc52d9c6d8d)" d="M 30.915517 67.642732 
L 41.367922 67.642732 
" style="fill:none;stroke:#000000;stroke-width:0.5;"/>
    <path clip-path="url(#pc52d9c6d8d)" d="M 24.754451 55.173478 
L 48.873634 55.173478 
" style="fill:none;stroke:#000000;stroke-width:0.5;"/>
    <path clip-path="url(#pc52d9c6d8d)" d="M 26.527071 88.060858 
L 29.350157 88.060858 
" style="fill:none;stroke:#000000;stroke-width:0.5;"/>
    <path clip-path="url(#pc52d9c6d8d)" d="M 26.298605 87.715812 
L 28.669177 87.715812 
" style="fill:none;stroke:#000000;stroke-width:0.5;"/>
    <path clip-path="url(#pc52d9c6d8d)" d="M 32.146987 61.482072 
L 45.068056 61.482072 
" style="fill:none;stroke:#000000;stroke-width:0.5;"/>
    <path clip-path="url(#pc52d9c6d8d)" d="M 24.248044 55.902364 
L 47.339952 55.902364 
" style="fill:none;stroke:#000000;stroke-width:0.5;"/>
    <path clip-path="url(#pc52d9c6d8d)" d="M 24.376766 62.723615 
L 36.113914 62.723615 
" style="fill:none;stroke:#000000;stroke-width:0.5;"/>
    <path clip-path="url(#pc52d9c6d8d)" d="M 27.375406 83.235127 
L 33.777997 83.235127 
" style="fill:none;stroke:#000000;stroke-width:0.5;"/>
    <path clip-path="url(#pc52d9c6d8d)" d="M 26.700266 83.464348 
L 32.274168 83.464348 
" style="fill:none;stroke:#000000;stroke-width:0.5;"/>
    <path clip-path="url(#pc52d9c6d8d)" d="M 29.345734 63.576787 
L 39.929849 63.576787 
" style="fill:none;stroke:#000000;stroke-width:0.5;"/>
    <path clip-path="url(#pc52d9c6d8d)" d="M 26.410518 86.623301 
L 29.736201 86.623301 
" style="fill:none;stroke:#000000;stroke-width:0.5;"/>
    <path clip-path="url(#pc52d9c6d8d)" d="M 25.112772 72.365774 
L 31.491217 72.365774 
" style="fill:none;stroke:#000000;stroke-width:0.5;"/>
    <path clip-path="url(#pc52d9c6d8d)" d="M 26.664373 70.216577 
L 34.368497 70.216577 
" style="fill:none;stroke:#000000;stroke-width:0.5;"/>
    <path clip-path="url(#pc52d9c6d8d)" d="M 28.65393 52.526119 
L 43.404024 52.526119 
" style="fill:none;stroke:#000000;stroke-width:0.5;"/>
    <path clip-path="url(#pc52d9c6d8d)" d="M 27.941686 57.464305 
L 44.387225 57.464305 
" style="fill:none;stroke:#000000;stroke-width:0.5;"/>
    <path clip-path="url(#pc52d9c6d8d)" d="M 23.986292 70.371226 
L 38.892972 70.371226 
" style="fill:none;stroke:#000000;stroke-width:0.5;"/>
    <path clip-path="url(#pc52d9c6d8d)" d="M 25.221476 72.760214 
L 34.967832 72.760214 
" style="fill:none;stroke:#000000;stroke-width:0.5;"/>
    <path clip-path="url(#pc52d9c6d8d)" d="M 26.830086 51.956265 
L 39.270188 51.956265 
" style="fill:none;stroke:#000000;stroke-width:0.5;"/>
    <path clip-path="url(#pc52d9c6d8d)" d="M 27.059697 66.99298 
L 44.507125 66.99298 
" style="fill:none;stroke:#000000;stroke-width:0.5;"/>
    <path clip-path="url(#pc52d9c6d8d)" d="M 25.547485 75.641234 
L 43.405019 75.641234 
" style="fill:none;stroke:#000000;stroke-width:0.5;"/>
    <path clip-path="url(#pc52d9c6d8d)" d="M 25.104392 81.073488 
L 31.511159 81.073488 
" style="fill:none;stroke:#000000;stroke-width:0.5;"/>
    <path clip-path="url(#pc52d9c6d8d)" d="M 27.481162 59.8928 
L 34.119355 59.8928 
" style="fill:none;stroke:#000000;stroke-width:0.5;"/>
    <path clip-path="url(#pc52d9c6d8d)" d="M 26.000745 86.511028 
L 29.378023 86.511028 
" style="fill:none;stroke:#000000;stroke-width:0.5;"/>
    <path clip-path="url(#pc52d9c6d8d)" d="M 29.068972 62.557331 
L 49.866759 62.557331 
" style="fill:none;stroke:#000000;stroke-width:0.5;"/>
    <path clip-path="url(#pc52d9c6d8d)" d="M 27 89.362485 
L 27 89.362485 
" style="fill:none;stroke:#000000;stroke-width:0.5;"/>
    <path clip-path="url(#pc52d9c6d8d)" d="M 25.290762 44.969851 
L 42.247017 44.969851 
" style="fill:none;stroke:#000000;stroke-width:0.5;"/>
    <path clip-path="url(#pc52d9c6d8d)" d="M 29.03048 46.517204 
L 33.367927 46.517204 
" style="fill:none;stroke:#000000;stroke-width:0.5;"/>
    <path clip-path="url(#pc52d9c6d8d)" d="M 25.623122 87.218106 
L 30.276689 87.218106 
" style="fill:none;stroke:#000000;stroke-width:0.5;"/>
   </g>
   <g id="LineCollection_2">
    <path clip-path="url(#pc52d9c6d8d)" d="M 35.180357 78.088202 
L 35.180357 54.792784 
" style="fill:none;stroke:#000000;stroke-width:0.5;"/>
    <path clip-path="url(#pc52d9c6d8d)" d="M 36.526011 70.105323 
L 36.526011 56.205004 
" style="fill:none;stroke:#000000;stroke-width:0.5;"/>
    <path clip-path="url(#pc52d9c6d8d)" d="M 36.14172 71.651536 
L 36.14172 63.633928 
" style="fill:none;stroke:#000000;stroke-width:0.5;"/>
    <path clip-path="url(#pc52d9c6d8d)" d="M 36.814043 60.751827 
L 36.814043 49.59513 
" style="fill:none;stroke:#000000;stroke-width:0.5;"/>
    <path clip-path="url(#pc52d9c6d8d)" d="M 27.938614 89.804519 
L 27.938614 86.317198 
" style="fill:none;stroke:#000000;stroke-width:0.5;"/>
    <path clip-path="url(#pc52d9c6d8d)" d="M 27.483891 89.099481 
L 27.483891 86.332143 
" style="fill:none;stroke:#000000;stroke-width:0.5;"/>
    <path clip-path="url(#pc52d9c6d8d)" d="M 38.607521 67.912934 
L 38.607521 55.051211 
" style="fill:none;stroke:#000000;stroke-width:0.5;"/>
    <path clip-path="url(#pc52d9c6d8d)" d="M 35.793998 61.670169 
L 35.793998 50.134559 
" style="fill:none;stroke:#000000;stroke-width:0.5;"/>
    <path clip-path="url(#pc52d9c6d8d)" d="M 30.24534 75.300808 
L 30.24534 50.146423 
" style="fill:none;stroke:#000000;stroke-width:0.5;"/>
    <path clip-path="url(#pc52d9c6d8d)" d="M 30.576701 87.166795 
L 30.576701 79.30346 
" style="fill:none;stroke:#000000;stroke-width:0.5;"/>
    <path clip-path="url(#pc52d9c6d8d)" d="M 29.487217 85.363044 
L 29.487217 81.565652 
" style="fill:none;stroke:#000000;stroke-width:0.5;"/>
    <path clip-path="url(#pc52d9c6d8d)" d="M 34.637791 71.195953 
L 34.637791 55.957622 
" style="fill:none;stroke:#000000;stroke-width:0.5;"/>
    <path clip-path="url(#pc52d9c6d8d)" d="M 28.073359 89.684626 
L 28.073359 83.561976 
" style="fill:none;stroke:#000000;stroke-width:0.5;"/>
    <path clip-path="url(#pc52d9c6d8d)" d="M 28.301994 78.958989 
L 28.301994 65.772559 
" style="fill:none;stroke:#000000;stroke-width:0.5;"/>
    <path clip-path="url(#pc52d9c6d8d)" d="M 30.516435 75.850169 
L 30.516435 64.582986 
" style="fill:none;stroke:#000000;stroke-width:0.5;"/>
    <path clip-path="url(#pc52d9c6d8d)" d="M 36.028977 64.381615 
L 36.028977 40.670623 
" style="fill:none;stroke:#000000;stroke-width:0.5;"/>
    <path clip-path="url(#pc52d9c6d8d)" d="M 36.164456 69.56717 
L 36.164456 45.361441 
" style="fill:none;stroke:#000000;stroke-width:0.5;"/>
    <path clip-path="url(#pc52d9c6d8d)" d="M 31.439632 77.643109 
L 31.439632 63.099343 
" style="fill:none;stroke:#000000;stroke-width:0.5;"/>
    <path clip-path="url(#pc52d9c6d8d)" d="M 30.094654 77.327943 
L 30.094654 68.192485 
" style="fill:none;stroke:#000000;stroke-width:0.5;"/>
    <path clip-path="url(#pc52d9c6d8d)" d="M 33.050137 59.30753 
L 33.050137 44.605 
" style="fill:none;stroke:#000000;stroke-width:0.5;"/>
    <path clip-path="url(#pc52d9c6d8d)" d="M 35.783411 75.269836 
L 35.783411 58.716123 
" style="fill:none;stroke:#000000;stroke-width:0.5;"/>
    <path clip-path="url(#pc52d9c6d8d)" d="M 34.476252 86.526634 
L 34.476252 64.755834 
" style="fill:none;stroke:#000000;stroke-width:0.5;"/>
    <path clip-path="url(#pc52d9c6d8d)" d="M 28.307776 84.679526 
L 28.307776 77.467451 
" style="fill:none;stroke:#000000;stroke-width:0.5;"/>
    <path clip-path="url(#pc52d9c6d8d)" d="M 30.800258 64.893263 
L 30.800258 54.892337 
" style="fill:none;stroke:#000000;stroke-width:0.5;"/>
    <path clip-path="url(#pc52d9c6d8d)" d="M 27.689384 90.14554 
L 27.689384 82.876515 
" style="fill:none;stroke:#000000;stroke-width:0.5;"/>
    <path clip-path="url(#pc52d9c6d8d)" d="M 39.467865 74.696985 
L 39.467865 50.417677 
" style="fill:none;stroke:#000000;stroke-width:0.5;"/>
    <path clip-path="url(#pc52d9c6d8d)" d="M 27 91.879343 
L 27 86.845627 
" style="fill:none;stroke:#000000;stroke-width:0.5;"/>
    <path clip-path="url(#pc52d9c6d8d)" d="M 33.76889 55.938655 
L 33.76889 34.001047 
" style="fill:none;stroke:#000000;stroke-width:0.5;"/>
    <path clip-path="url(#pc52d9c6d8d)" d="M 31.199204 76.316343 
L 31.199204 16.718064 
" style="fill:none;stroke:#000000;stroke-width:0.5;"/>
    <path clip-path="url(#pc52d9c6d8d)" d="M 27.949905 91.023373 
L 27.949905 83.412839 
" style="fill:none;stroke:#000000;stroke-width:0.5;"/>
   </g>
   <g id="line2d_1">
    <path clip-path="url(#pc52d9c6d8d)" d="M 27 82.230484 
L 27.768595 80.335699 
L 28.53719 78.440915 
L 29.305785 76.546131 
L 30.07438 74.651347 
L 30.842975 72.756562 
L 31.61157 70.861778 
L 32.380165 68.966994 
L 33.14876 67.07221 
L 33.917355 65.177426 
L 34.68595 63.282641 
L 35.454545 61.387857 
L 36.22314 59.493073 
L 36.991736 57.598289 
L 37.760331 55.703504 
L 38.528926 53.80872 
L 39.297521 51.913936 
L 40.066116 50.019152 
L 40.834711 48.124367 
L 41.603306 46.229583 
L 42.371901 44.334799 
L 43.140496 42.440015 
L 43.909091 40.545231 
L 44.677686 38.650446 
L 45.446281 36.755662 
L 46.214876 34.860878 
L 46.983471 32.966094 
L 47.752066 31.071309 
L 48.520661 29.176525 
L 49.289256 27.281741 
L 50.057851 25.386957 
L 50.826446 23.492172 
L 51.595041 21.597388 
L 52.363636 19.702604 
L 53.132231 17.80782 
L 53.900826 15.913036 
L 54.669421 14.018251 
L 55.438017 12.123467 
L 56.206612 10.228683 
L 56.975207 8.333899 
L 57.743802 6.439114 
L 58.512397 4.54433 
L 59.280992 2.649546 
L 60.049587 0.754762 
L 60.761383 -1 
" style="fill:none;stroke:#000000;stroke-dasharray:1.85,0.8;stroke-dashoffset:0;stroke-width:0.5;"/>
   </g>
   <g id="line2d_2">
    <defs>
     <path d="M 0 3 
C 0.795609 3 1.55874 2.683901 2.12132 2.12132 
C 2.683901 1.55874 3 0.795609 3 0 
C 3 -0.795609 2.683901 -1.55874 2.12132 -2.12132 
C 1.55874 -2.683901 0.795609 -3 0 -3 
C -0.795609 -3 -1.55874 -2.683901 -2.12132 -2.12132 
C -2.683901 -1.55874 -3 -0.795609 -3 0 
C -3 0.795609 -2.683901 1.55874 -2.12132 2.12132 
C -1.55874 2.683901 -0.795609 3 0 3 
z
" id="m69775a349c" style="stroke:#000000;"/>
    </defs>
    <g clip-path="url(#pc52d9c6d8d)">
     <use style="stroke:#000000;" x="35.180357" xlink:href="#m69775a349c" y="66.440493"/>
     <use style="stroke:#000000;" x="36.526011" xlink:href="#m69775a349c" y="63.155163"/>
     <use style="stroke:#000000;" x="36.14172" xlink:href="#m69775a349c" y="67.642732"/>
     <use style="stroke:#000000;" x="36.814043" xlink:href="#m69775a349c" y="55.173478"/>
     <use style="stroke:#000000;" x="27.938614" xlink:href="#m69775a349c" y="88.060858"/>
     <use style="stroke:#000000;" x="27.483891" xlink:href="#m69775a349c" y="87.715812"/>
     <use style="stroke:#000000;" x="38.607521" xlink:href="#m69775a349c" y="61.482072"/>
     <use style="stroke:#000000;" x="35.793998" xlink:href="#m69775a349c" y="55.902364"/>
     <use style="stroke:#000000;" x="30.24534" xlink:href="#m69775a349c" y="62.723615"/>
     <use style="stroke:#000000;" x="30.576701" xlink:href="#m69775a349c" y="83.235127"/>
     <use style="stroke:#000000;" x="29.487217" xlink:href="#m69775a349c" y="83.464348"/>
     <use style="stroke:#000000;" x="34.637791" xlink:href="#m69775a349c" y="63.576787"/>
     <use style="stroke:#000000;" x="28.073359" xlink:href="#m69775a349c" y="86.623301"/>
     <use style="stroke:#000000;" x="28.301994" xlink:href="#m69775a349c" y="72.365774"/>
     <use style="stroke:#000000;" x="30.516435" xlink:href="#m69775a349c" y="70.216577"/>
     <use style="stroke:#000000;" x="36.028977" xlink:href="#m69775a349c" y="52.526119"/>
     <use style="stroke:#000000;" x="36.164456" xlink:href="#m69775a349c" y="57.464305"/>
     <use style="stroke:#000000;" x="31.439632" xlink:href="#m69775a349c" y="70.371226"/>
     <use style="stroke:#000000;" x="30.094654" xlink:href="#m69775a349c" y="72.760214"/>
     <use style="stroke:#000000;" x="33.050137" xlink:href="#m69775a349c" y="51.956265"/>
     <use style="stroke:#000000;" x="35.783411" xlink:href="#m69775a349c" y="66.99298"/>
     <use style="stroke:#000000;" x="34.476252" xlink:href="#m69775a349c" y="75.641234"/>
     <use style="stroke:#000000;" x="28.307776" xlink:href="#m69775a349c" y="81.073488"/>
     <use style="stroke:#000000;" x="30.800258" xlink:href="#m69775a349c" y="59.8928"/>
     <use style="stroke:#000000;" x="27.689384" xlink:href="#m69775a349c" y="86.511028"/>
     <use style="stroke:#000000;" x="39.467865" xlink:href="#m69775a349c" y="62.557331"/>
     <use style="stroke:#000000;" x="27" xlink:href="#m69775a349c" y="89.362485"/>
     <use style="stroke:#000000;" x="33.76889" xlink:href="#m69775a349c" y="44.969851"/>
     <use style="stroke:#000000;" x="31.199204" xlink:href="#m69775a349c" y="46.517204"/>
     <use style="stroke:#000000;" x="27.949905" xlink:href="#m69775a349c" y="87.218106"/>
    </g>
   </g>
   <g id="patch_3">
    <path d="M 27 94.5 
L 27 12.96 
" style="fill:none;stroke:#000000;stroke-linecap:square;stroke-linejoin:miter;"/>
   </g>
   <g id="patch_4">
    <path d="M 27 94.5 
L 103.090909 94.5 
" style="fill:none;stroke:#000000;stroke-linecap:square;stroke-linejoin:miter;"/>
   </g>
   <g id="matplotlib.axis_1">
    <g id="xtick_1">
     <g id="line2d_3"/>
     <g id="text_1">
      <text style="font-family:Arial;font-size:8px;font-style:normal;font-weight:normal;text-anchor:middle;" transform="rotate(-0, 27, 103.72625)" x="27" y="103.72625">0</text>
     </g>
    </g>
    <g id="xtick_2">
     <g id="line2d_4"/>
     <g id="text_2">
      <text style="font-family:Arial;font-size:8px;font-style:normal;font-weight:normal;text-anchor:middle;" transform="rotate(-0, 69.884603, 103.72625)" x="69.884603" y="103.72625">5</text>
     </g>
    </g>
    <g id="text_3">
     <text style="font-family:Arial;font-size:10px;font-style:normal;font-weight:normal;text-anchor:middle;" transform="rotate(-0, 65.045455, 116.474063)" x="65.045455" y="116.474063">Exc</text>
    </g>
   </g>
   <g id="matplotlib.axis_2">
    <g id="ytick_1">
     <g id="line2d_5"/>
     <g id="text_4">
      <text style="font-family:Arial;font-size:8px;font-style:normal;font-weight:normal;text-anchor:end;" transform="rotate(-0, 23.5, 97.363125)" x="23.5" y="97.363125">0</text>
     </g>
    </g>
    <g id="ytick_2">
     <g id="line2d_6"/>
     <g id="text_5">
      <text style="font-family:Arial;font-size:8px;font-style:normal;font-weight:normal;text-anchor:end;" transform="rotate(-0, 23.5, 78.980847)" x="23.5" y="78.980847">2</text>
     </g>
    </g>
    <g id="ytick_3">
     <g id="line2d_7"/>
     <g id="text_6">
      <text style="font-family:Arial;font-size:8px;font-style:normal;font-weight:normal;text-anchor:end;" transform="rotate(-0, 23.5, 60.59857)" x="23.5" y="60.59857">4</text>
     </g>
    </g>
    <g id="ytick_4">
     <g id="line2d_8"/>
     <g id="text_7">
      <text style="font-family:Arial;font-size:8px;font-style:normal;font-weight:normal;text-anchor:end;" transform="rotate(-0, 23.5, 42.216292)" x="23.5" y="42.216292">6</text>
     </g>
    </g>
    <g id="ytick_5">
     <g id="line2d_9"/>
     <g id="text_8">
      <text style="font-family:Arial;font-size:8px;font-style:normal;font-weight:normal;text-anchor:end;" transform="rotate(-0, 23.5, 23.834015)" x="23.5" y="23.834015">8</text>
     </g>
    </g>
    <g id="text_9">
     <text style="font-family:Arial;font-size:10px;font-style:normal;font-weight:normal;text-anchor:middle;" transform="rotate(-90, 13.06375, 53.73)" x="13.06375" y="53.73">Inh</text>
    </g>
   </g>
   <g id="legend_1">
    <g id="line2d_10">
     <path d="M 36 75.622656 
L 56 75.622656 
" style="fill:none;stroke:#000000;stroke-dasharray:1.85,0.8;stroke-dashoffset:0;stroke-width:0.5;"/>
    </g>
    <g id="line2d_11"/>
    <g id="text_10">
     <!-- $R^2$ 0.48 -->
     <g transform="translate(64 72.875)">
      <text>
       <tspan style="font-family:DejaVu Sans;font-size:10px;font-style:oblique;font-weight:oblique;" x="0" y="-0.9765625">R</tspan>
       <tspan style="font-family:DejaVu Sans;font-size:7px;font-style:book;font-weight:book;" x="7.650794" y="-4.8046875">2</tspan>
       <tspan style="font-family:Arial;font-size:10px;font-style:regular;font-weight:regular;" x="12.377845 15.156165 20.717689 23.496009 29.057533" y="-0.9765625"> 0.48</tspan>
      </text>
     </g>
     <text style="font-family:Arial;font-size:10px;font-style:normal;font-weight:normal;" transform="translate(64 83.4875)"> slope 2.30</text>
    </g>
   </g>
  </g>
  <g id="axes_2">
   <g id="patch_5">
    <path d="M 118.309091 94.5 
L 194.4 94.5 
L 194.4 12.96 
L 118.309091 12.96 
z
" style="fill:#ffffff;"/>
   </g>
   <g id="PathCollection_1">
    <defs>
     <path d="M 0 2.44949 
C 0.649612 2.44949 1.272706 2.191396 1.732051 1.732051 
C 2.191396 1.272706 2.44949 0.649612 2.44949 0 
C 2.44949 -0.649612 2.191396 -1.272706 1.732051 -1.732051 
C 1.272706 -2.191396 0.649612 -2.44949 0 -2.44949 
C -0.649612 -2.44949 -1.272706 -2.191396 -1.732051 -1.732051 
C -2.191396 -1.272706 -2.44949 -0.649612 -2.44949 0 
C -2.44949 0.649612 -2.191396 1.272706 -1.732051 1.732051 
C -1.272706 2.191396 -0.649612 2.44949 0 2.44949 
z
" id="m7fb4482db5" style="stroke:#000000;"/>
    </defs>
    <g clip-path="url(#p798f140565)">
     <use style="stroke:#000000;" x="126.625778" xlink:href="#m7fb4482db5" y="64.189154"/>
     <use style="stroke:#000000;" x="137.011373" xlink:href="#m7fb4482db5" y="76.413592"/>
     <use style="stroke:#000000;" x="131.909244" xlink:href="#m7fb4482db5" y="84.067884"/>
     <use style="stroke:#000000;" x="149.691779" xlink:href="#m7fb4482db5" y="79.983458"/>
     <use style="stroke:#000000;" x="121.982351" xlink:href="#m7fb4482db5" y="89.962471"/>
     <use style="stroke:#000000;" x="121.393562" xlink:href="#m7fb4482db5" y="90.899276"/>
     <use style="stroke:#000000;" x="135.121347" xlink:href="#m7fb4482db5" y="77.764961"/>
     <use style="stroke:#000000;" x="148.355141" xlink:href="#m7fb4482db5" y="79.490435"/>
     <use style="stroke:#000000;" x="133.580888" xlink:href="#m7fb4482db5" y="61.770357"/>
     <use style="stroke:#000000;" x="126.639826" xlink:href="#m7fb4482db5" y="84.268617"/>
     <use style="stroke:#000000;" x="125.561577" xlink:href="#m7fb4482db5" y="89.559021"/>
     <use style="stroke:#000000;" x="132.080618" xlink:href="#m7fb4482db5" y="74.672637"/>
     <use style="stroke:#000000;" x="122.636305" xlink:href="#m7fb4482db5" y="86.53351"/>
     <use style="stroke:#000000;" x="126.608407" xlink:href="#m7fb4482db5" y="77.342469"/>
     <use style="stroke:#000000;" x="128.333316" xlink:href="#m7fb4482db5" y="79.839699"/>
     <use style="stroke:#000000;" x="137.501185" xlink:href="#m7fb4482db5" y="63.64843"/>
     <use style="stroke:#000000;" x="139.707214" xlink:href="#m7fb4482db5" y="63.004702"/>
     <use style="stroke:#000000;" x="137.704926" xlink:href="#m7fb4482db5" y="75.576371"/>
     <use style="stroke:#000000;" x="130.990567" xlink:href="#m7fb4482db5" y="82.613395"/>
     <use style="stroke:#000000;" x="134.495537" xlink:href="#m7fb4482db5" y="75.369795"/>
     <use style="stroke:#000000;" x="141.010823" xlink:href="#m7fb4482db5" y="72.961127"/>
     <use style="stroke:#000000;" x="141.544431" xlink:href="#m7fb4482db5" y="66.172912"/>
     <use style="stroke:#000000;" x="126.645259" xlink:href="#m7fb4482db5" y="85.116004"/>
     <use style="stroke:#000000;" x="126.94638" xlink:href="#m7fb4482db5" y="81.48729"/>
     <use style="stroke:#000000;" x="122.703439" xlink:href="#m7fb4482db5" y="85.041905"/>
     <use style="stroke:#000000;" x="145.370143" xlink:href="#m7fb4482db5" y="62.908965"/>
     <use style="stroke:#000000;" x="118.309091" xlink:href="#m7fb4482db5" y="87.950377"/>
     <use style="stroke:#000000;" x="140.371732" xlink:href="#m7fb4482db5" y="65.955869"/>
     <use style="stroke:#000000;" x="123.952762" xlink:href="#m7fb4482db5" y="16.953665"/>
     <use style="stroke:#000000;" x="124.364082" xlink:href="#m7fb4482db5" y="84.597549"/>
    </g>
   </g>
   <g id="line2d_12">
    <path clip-path="url(#p798f140565)" d="M 118.309091 81.159107 
L 119.077686 80.842843 
L 119.846281 80.526579 
L 120.614876 80.210314 
L 121.383471 79.89405 
L 122.152066 79.577786 
L 122.920661 79.261522 
L 123.689256 78.945258 
L 124.457851 78.628994 
L 125.226446 78.31273 
L 125.995041 77.996466 
L 126.763636 77.680202 
L 127.532231 77.363938 
L 128.300826 77.047674 
L 129.069421 76.73141 
L 129.838017 76.415146 
L 130.606612 76.098881 
L 131.375207 75.782617 
L 132.143802 75.466353 
L 132.912397 75.150089 
L 133.680992 74.833825 
L 134.449587 74.517561 
L 135.218182 74.201297 
L 135.986777 73.885033 
L 136.755372 73.568769 
L 137.523967 73.252505 
L 138.292562 72.936241 
L 139.061157 72.619977 
L 139.829752 72.303713 
L 140.598347 71.987448 
L 141.366942 71.671184 
L 142.135537 71.35492 
L 142.904132 71.038656 
L 143.672727 70.722392 
L 144.441322 70.406128 
L 145.209917 70.089864 
L 145.978512 69.7736 
L 146.747107 69.457336 
L 147.515702 69.141072 
L 148.284298 68.824808 
L 149.052893 68.508544 
L 149.821488 68.19228 
L 150.590083 67.876015 
L 151.358678 67.559751 
L 152.127273 67.243487 
L 152.895868 66.927223 
L 153.664463 66.610959 
L 154.433058 66.294695 
L 155.201653 65.978431 
L 155.970248 65.662167 
L 156.738843 65.345903 
L 157.507438 65.029639 
L 158.276033 64.713375 
L 159.044628 64.397111 
L 159.813223 64.080847 
L 160.581818 63.764582 
L 161.350413 63.448318 
L 162.119008 63.132054 
L 162.887603 62.81579 
L 163.656198 62.499526 
L 164.424793 62.183262 
L 165.193388 61.866998 
L 165.961983 61.550734 
L 166.730579 61.23447 
L 167.499174 60.918206 
L 168.267769 60.601942 
L 169.036364 60.285678 
L 169.804959 59.969414 
L 170.573554 59.65315 
L 171.342149 59.336885 
L 172.110744 59.020621 
L 172.879339 58.704357 
L 173.647934 58.388093 
L 174.416529 58.071829 
L 175.185124 57.755565 
L 175.953719 57.439301 
L 176.722314 57.123037 
L 177.490909 56.806773 
L 178.259504 56.490509 
L 179.028099 56.174245 
L 179.796694 55.857981 
L 180.565289 55.541717 
L 181.333884 55.225452 
L 182.102479 54.909188 
L 182.871074 54.592924 
L 183.639669 54.27666 
L 184.408264 53.960396 
L 185.17686 53.644132 
L 185.945455 53.327868 
L 186.71405 53.011604 
L 187.482645 52.69534 
L 188.25124 52.379076 
L 189.019835 52.062812 
L 189.78843 51.746548 
L 190.557025 51.430284 
L 191.32562 51.114019 
L 192.094215 50.797755 
L 192.86281 50.481491 
L 193.631405 50.165227 
L 194.4 49.848963 
" style="fill:none;stroke:#000000;stroke-dasharray:1.85,0.8;stroke-dashoffset:0;stroke-width:0.5;"/>
   </g>
   <g id="patch_6">
    <path d="M 118.309091 94.5 
L 118.309091 12.96 
" style="fill:none;stroke:#000000;stroke-linecap:square;stroke-linejoin:miter;"/>
   </g>
   <g id="patch_7">
    <path d="M 118.309091 94.5 
L 194.4 94.5 
" style="fill:none;stroke:#000000;stroke-linecap:square;stroke-linejoin:miter;"/>
   </g>
   <g id="matplotlib.axis_3">
    <g id="xtick_3">
     <g id="line2d_13"/>
     <g id="text_11">
      <text style="font-family:Arial;font-size:8px;font-style:normal;font-weight:normal;text-anchor:middle;" transform="rotate(-0, 118.309091, 103.72625)" x="118.309091" y="103.72625">0</text>
     </g>
    </g>
    <g id="xtick_4">
     <g id="line2d_14"/>
     <g id="text_12">
      <text style="font-family:Arial;font-size:8px;font-style:normal;font-weight:normal;text-anchor:middle;" transform="rotate(-0, 162.948551, 103.72625)" x="162.948551" y="103.72625">2</text>
     </g>
    </g>
    <g id="text_13">
     <!-- $\sigma$(Exc) -->
     <g transform="translate(141.504545 116.61625)">
      <text>
       <tspan style="font-family:DejaVu Sans;font-size:10px;font-style:oblique;font-weight:oblique;" x="0" y="-0.71875">σ</tspan>
       <tspan style="font-family:Arial;font-size:10px;font-style:regular;font-weight:regular;" x="6.337891 9.667969 16.337891 21.337891 26.337891" y="-0.71875">(Exc)</tspan>
      </text>
     </g>
    </g>
   </g>
   <g id="matplotlib.axis_4">
    <g id="ytick_6">
     <g id="line2d_15"/>
     <g id="text_14">
      <text style="font-family:Arial;font-size:8px;font-style:normal;font-weight:normal;text-anchor:end;" transform="rotate(-0, 114.809091, 97.363125)" x="114.809091" y="97.363125">0</text>
     </g>
    </g>
    <g id="ytick_7">
     <g id="line2d_16"/>
     <g id="text_15">
      <text style="font-family:Arial;font-size:8px;font-style:normal;font-weight:normal;text-anchor:end;" transform="rotate(-0, 114.809091, 73.445014)" x="114.809091" y="73.445014">1</text>
     </g>
    </g>
    <g id="ytick_8">
     <g id="line2d_17"/>
     <g id="text_16">
      <text style="font-family:Arial;font-size:8px;font-style:normal;font-weight:normal;text-anchor:end;" transform="rotate(-0, 114.809091, 49.526903)" x="114.809091" y="49.526903">2</text>
     </g>
    </g>
    <g id="ytick_9">
     <g id="line2d_18"/>
     <g id="text_17">
      <text style="font-family:Arial;font-size:8px;font-style:normal;font-weight:normal;text-anchor:end;" transform="rotate(-0, 114.809091, 25.608793)" x="114.809091" y="25.608793">3</text>
     </g>
    </g>
    <g id="text_18">
     <!-- $\sigma$(Inh) -->
     <g transform="translate(104.160341 67.18)rotate(-90)">
      <text>
       <tspan style="font-family:DejaVu Sans;font-size:10px;font-style:oblique;font-weight:oblique;" x="0" y="-0.71875">σ</tspan>
       <tspan style="font-family:Arial;font-size:10px;font-style:regular;font-weight:regular;" x="6.337891 9.667969 12.446289 18.007812 23.569336" y="-0.71875">(Inh)</tspan>
      </text>
     </g>
    </g>
   </g>
   <g id="legend_2">
    <g id="line2d_19">
     <path d="M 108.478125 31.995156 
L 128.478125 31.995156 
" style="fill:none;stroke:#000000;stroke-dasharray:1.85,0.8;stroke-dashoffset:0;stroke-width:0.5;"/>
    </g>
    <g id="line2d_20"/>
    <g id="text_19">
     <!-- $R^2$ 0.06 -->
     <g transform="translate(136.478125 29.2475)">
      <text>
       <tspan style="font-family:DejaVu Sans;font-size:10px;font-style:oblique;font-weight:oblique;" x="0" y="-0.9765625">R</tspan>
       <tspan style="font-family:DejaVu Sans;font-size:7px;font-style:book;font-weight:book;" x="7.650794" y="-4.8046875">2</tspan>
       <tspan style="font-family:Arial;font-size:10px;font-style:regular;font-weight:regular;" x="12.377845 15.156165 20.717689 23.496009 29.057533" y="-0.9765625"> 0.06</tspan>
      </text>
     </g>
     <text style="font-family:Arial;font-size:10px;font-style:normal;font-weight:normal;" transform="translate(136.478125 39.86)"> slope 0.38</text>
    </g>
   </g>
  </g>
 </g>
 <defs>
  <clipPath id="pc52d9c6d8d">
   <rect height="81.54" width="76.090909" x="27" y="12.96"/>
  </clipPath>
  <clipPath id="p798f140565">
   <rect height="81.54" width="76.090909" x="118.309091" y="12.96"/>
  </clipPath>
 </defs>
</svg>
