<?xml version="1.0" encoding="utf-8" standalone="no"?>
<!DOCTYPE svg PUBLIC "-//W3C//DTD SVG 1.1//EN"
  "http://www.w3.org/Graphics/SVG/1.1/DTD/svg11.dtd">
<!-- Created with matplotlib (http://matplotlib.org/) -->
<svg height="108pt" version="1.1" viewBox="0 0 216 108" width="216pt" xmlns="http://www.w3.org/2000/svg" xmlns:xlink="http://www.w3.org/1999/xlink">
 <defs>
  <style type="text/css">
*{stroke-linecap:butt;stroke-linejoin:round;}
  </style>
 </defs>
 <g id="figure_1">
  <g id="patch_1">
   <path d="M 0 108 
L 216 108 
L 216 0 
L 0 0 
z
" style="fill:#ffffff;"/>
  </g>
  <g id="axes_1">
   <g id="patch_2">
    <path d="M 27 94.5 
L 103.090909 94.5 
L 103.090909 12.96 
L 27 12.96 
z
" style="fill:#ffffff;"/>
   </g>
   <g id="LineCollection_1">
    <path clip-path="url(#pdc08200997)" d="M 29.030371 75.428979 
L 33.75654 75.428979 
" style="fill:none;stroke:#000000;stroke-width:0.5;"/>
    <path clip-path="url(#pdc08200997)" d="M 21.888162 63.651643 
L 50.727645 63.651643 
" style="fill:none;stroke:#000000;stroke-width:0.5;"/>
    <path clip-path="url(#pdc08200997)" d="M 23.741601 28.700797 
L 46.026238 28.700797 
" style="fill:none;stroke:#000000;stroke-width:0.5;"/>
    <path clip-path="url(#pdc08200997)" d="M 28.047884 57.211821 
L 47.453339 57.211821 
" style="fill:none;stroke:#000000;stroke-width:0.5;"/>
    <path clip-path="url(#pdc08200997)" d="M 24.418649 70.074872 
L 33.143087 70.074872 
" style="fill:none;stroke:#000000;stroke-width:0.5;"/>
    <path clip-path="url(#pdc08200997)" d="M 27.019811 43.008469 
L 40.937324 43.008469 
" style="fill:none;stroke:#000000;stroke-width:0.5;"/>
    <path clip-path="url(#pdc08200997)" d="M 27.105883 26.738692 
L 52.175421 26.738692 
" style="fill:none;stroke:#000000;stroke-width:0.5;"/>
    <path clip-path="url(#pdc08200997)" d="M 27.130495 39.669002 
L 49.051107 39.669002 
" style="fill:none;stroke:#000000;stroke-width:0.5;"/>
    <path clip-path="url(#pdc08200997)" d="M 27 65.458921 
L 27 65.458921 
" style="fill:none;stroke:#000000;stroke-width:0.5;"/>
    <path clip-path="url(#pdc08200997)" d="M 30.225489 54.61605 
L 38.646318 54.61605 
" style="fill:none;stroke:#000000;stroke-width:0.5;"/>
    <path clip-path="url(#pdc08200997)" d="M 25.499607 79.990738 
L 38.102323 79.990738 
" style="fill:none;stroke:#000000;stroke-width:0.5;"/>
    <path clip-path="url(#pdc08200997)" d="M 28.457422 52.501396 
L 41.084795 52.501396 
" style="fill:none;stroke:#000000;stroke-width:0.5;"/>
    <path clip-path="url(#pdc08200997)" d="M 33.704976 39.522528 
L 54.136455 39.522528 
" style="fill:none;stroke:#000000;stroke-width:0.5;"/>
    <path clip-path="url(#pdc08200997)" d="M 24.857583 80.836471 
L 32.098515 80.836471 
" style="fill:none;stroke:#000000;stroke-width:0.5;"/>
    <path clip-path="url(#pdc08200997)" d="M 30.338516 33.24546 
L 48.936482 33.24546 
" style="fill:none;stroke:#000000;stroke-width:0.5;"/>
    <path clip-path="url(#pdc08200997)" d="M 24.551581 80.825634 
L 32.826737 80.825634 
" style="fill:none;stroke:#000000;stroke-width:0.5;"/>
    <path clip-path="url(#pdc08200997)" d="M 28.102283 29.574134 
L 49.131515 29.574134 
" style="fill:none;stroke:#000000;stroke-width:0.5;"/>
    <path clip-path="url(#pdc08200997)" d="M 23.386426 54.313894 
L 42.291059 54.313894 
" style="fill:none;stroke:#000000;stroke-width:0.5;"/>
    <path clip-path="url(#pdc08200997)" d="M 17.15571 50.102481 
L 53.031031 50.102481 
" style="fill:none;stroke:#000000;stroke-width:0.5;"/>
    <path clip-path="url(#pdc08200997)" d="M 29.221919 80.162013 
L 36.336037 80.162013 
" style="fill:none;stroke:#000000;stroke-width:0.5;"/>
    <path clip-path="url(#pdc08200997)" d="M 27.9522 77.971198 
L 38.429512 77.971198 
" style="fill:none;stroke:#000000;stroke-width:0.5;"/>
    <path clip-path="url(#pdc08200997)" d="M 25.592509 72.678987 
L 41.159153 72.678987 
" style="fill:none;stroke:#000000;stroke-width:0.5;"/>
    <path clip-path="url(#pdc08200997)" d="M 23.317687 37.553046 
L 37.518126 37.553046 
" style="fill:none;stroke:#000000;stroke-width:0.5;"/>
    <path clip-path="url(#pdc08200997)" d="M 27.384559 49.843344 
L 31.868868 49.843344 
" style="fill:none;stroke:#000000;stroke-width:0.5;"/>
    <path clip-path="url(#pdc08200997)" d="M 27.620281 44.502119 
L 47.471026 44.502119 
" style="fill:none;stroke:#000000;stroke-width:0.5;"/>
    <path clip-path="url(#pdc08200997)" d="M 24.532124 76.927885 
L 32.873041 76.927885 
" style="fill:none;stroke:#000000;stroke-width:0.5;"/>
    <path clip-path="url(#pdc08200997)" d="M 24.887858 63.031891 
L 47.356841 63.031891 
" style="fill:none;stroke:#000000;stroke-width:0.5;"/>
    <path clip-path="url(#pdc08200997)" d="M 26.101953 71.756159 
L 46.71612 71.756159 
" style="fill:none;stroke:#000000;stroke-width:0.5;"/>
    <path clip-path="url(#pdc08200997)" d="M 28.380097 49.666825 
L 36.829265 49.666825 
" style="fill:none;stroke:#000000;stroke-width:0.5;"/>
    <path clip-path="url(#pdc08200997)" d="M 25.494679 58.030138 
L 46.05789 58.030138 
" style="fill:none;stroke:#000000;stroke-width:0.5;"/>
   </g>
   <g id="LineCollection_2">
    <path clip-path="url(#pdc08200997)" d="M 31.393455 81.843578 
L 31.393455 69.014381 
" style="fill:none;stroke:#000000;stroke-width:0.5;"/>
    <path clip-path="url(#pdc08200997)" d="M 36.307903 64.148018 
L 36.307903 63.155268 
" style="fill:none;stroke:#000000;stroke-width:0.5;"/>
    <path clip-path="url(#pdc08200997)" d="M 34.88392 39.628262 
L 34.88392 17.773332 
" style="fill:none;stroke:#000000;stroke-width:0.5;"/>
    <path clip-path="url(#pdc08200997)" d="M 37.750611 60.230466 
L 37.750611 54.193175 
" style="fill:none;stroke:#000000;stroke-width:0.5;"/>
    <path clip-path="url(#pdc08200997)" d="M 28.780868 77.676771 
L 28.780868 62.472973 
" style="fill:none;stroke:#000000;stroke-width:0.5;"/>
    <path clip-path="url(#pdc08200997)" d="M 33.978567 56.487535 
L 33.978567 29.529403 
" style="fill:none;stroke:#000000;stroke-width:0.5;"/>
    <path clip-path="url(#pdc08200997)" d="M 39.640652 36.966327 
L 39.640652 16.511056 
" style="fill:none;stroke:#000000;stroke-width:0.5;"/>
    <path clip-path="url(#pdc08200997)" d="M 38.090801 48.983719 
L 38.090801 30.354286 
" style="fill:none;stroke:#000000;stroke-width:0.5;"/>
    <path clip-path="url(#pdc08200997)" d="M 27 65.458921 
L 27 65.458921 
" style="fill:none;stroke:#000000;stroke-width:0.5;"/>
    <path clip-path="url(#pdc08200997)" d="M 34.435904 62.494447 
L 34.435904 46.737653 
" style="fill:none;stroke:#000000;stroke-width:0.5;"/>
    <path clip-path="url(#pdc08200997)" d="M 31.800965 87.532177 
L 31.800965 72.449298 
" style="fill:none;stroke:#000000;stroke-width:0.5;"/>
    <path clip-path="url(#pdc08200997)" d="M 34.771109 62.233241 
L 34.771109 42.769552 
" style="fill:none;stroke:#000000;stroke-width:0.5;"/>
    <path clip-path="url(#pdc08200997)" d="M 43.920715 53.020868 
L 43.920715 26.024187 
" style="fill:none;stroke:#000000;stroke-width:0.5;"/>
    <path clip-path="url(#pdc08200997)" d="M 28.478049 87.530206 
L 28.478049 74.142736 
" style="fill:none;stroke:#000000;stroke-width:0.5;"/>
    <path clip-path="url(#pdc08200997)" d="M 39.637499 45.19127 
L 39.637499 21.299651 
" style="fill:none;stroke:#000000;stroke-width:0.5;"/>
    <path clip-path="url(#pdc08200997)" d="M 28.689159 86.212846 
L 28.689159 75.438423 
" style="fill:none;stroke:#000000;stroke-width:0.5;"/>
    <path clip-path="url(#pdc08200997)" d="M 38.616899 39.933301 
L 38.616899 19.214967 
" style="fill:none;stroke:#000000;stroke-width:0.5;"/>
    <path clip-path="url(#pdc08200997)" d="M 32.838742 65.087115 
L 32.838742 43.540673 
" style="fill:none;stroke:#000000;stroke-width:0.5;"/>
    <path clip-path="url(#pdc08200997)" d="M 35.09337 70.318882 
L 35.09337 29.88608 
" style="fill:none;stroke:#000000;stroke-width:0.5;"/>
    <path clip-path="url(#pdc08200997)" d="M 32.778978 84.866779 
L 32.778978 75.457247 
" style="fill:none;stroke:#000000;stroke-width:0.5;"/>
    <path clip-path="url(#pdc08200997)" d="M 33.190856 80.478848 
L 33.190856 75.463548 
" style="fill:none;stroke:#000000;stroke-width:0.5;"/>
    <path clip-path="url(#pdc08200997)" d="M 33.375831 78.417333 
L 33.375831 66.940642 
" style="fill:none;stroke:#000000;stroke-width:0.5;"/>
    <path clip-path="url(#pdc08200997)" d="M 30.417906 48.71402 
L 30.417906 26.392071 
" style="fill:none;stroke:#000000;stroke-width:0.5;"/>
    <path clip-path="url(#pdc08200997)" d="M 29.626714 63.758818 
L 29.626714 35.927869 
" style="fill:none;stroke:#000000;stroke-width:0.5;"/>
    <path clip-path="url(#pdc08200997)" d="M 37.545653 53.62309 
L 37.545653 35.381149 
" style="fill:none;stroke:#000000;stroke-width:0.5;"/>
    <path clip-path="url(#pdc08200997)" d="M 28.702583 81.317054 
L 28.702583 72.538717 
" style="fill:none;stroke:#000000;stroke-width:0.5;"/>
    <path clip-path="url(#pdc08200997)" d="M 36.122349 68.922802 
L 36.122349 57.14098 
" style="fill:none;stroke:#000000;stroke-width:0.5;"/>
    <path clip-path="url(#pdc08200997)" d="M 36.409037 81.569744 
L 36.409037 61.942573 
" style="fill:none;stroke:#000000;stroke-width:0.5;"/>
    <path clip-path="url(#pdc08200997)" d="M 32.604681 57.357703 
L 32.604681 41.975948 
" style="fill:none;stroke:#000000;stroke-width:0.5;"/>
    <path clip-path="url(#pdc08200997)" d="M 35.776285 71.067559 
L 35.776285 44.992718 
" style="fill:none;stroke:#000000;stroke-width:0.5;"/>
   </g>
   <g id="line2d_1">
    <path clip-path="url(#pdc08200997)" d="M 27 75.710785 
L 27.768595 73.673362 
L 28.53719 71.635939 
L 29.305785 69.598516 
L 30.07438 67.561093 
L 30.842975 65.52367 
L 31.61157 63.486247 
L 32.380165 61.448824 
L 33.14876 59.411401 
L 33.917355 57.373977 
L 34.68595 55.336554 
L 35.454545 53.299131 
L 36.22314 51.261708 
L 36.991736 49.224285 
L 37.760331 47.186862 
L 38.528926 45.149439 
L 39.297521 43.112016 
L 40.066116 41.074593 
L 40.834711 39.03717 
L 41.603306 36.999747 
L 42.371901 34.962324 
L 43.140496 32.924901 
L 43.909091 30.887478 
L 44.677686 28.850055 
L 45.446281 26.812632 
L 46.214876 24.775209 
L 46.983471 22.737786 
L 47.752066 20.700363 
L 48.520661 18.662939 
L 49.289256 16.625516 
L 50.057851 14.588093 
L 50.826446 12.55067 
L 51.595041 10.513247 
L 52.363636 8.475824 
L 53.132231 6.438401 
L 53.900826 4.400978 
L 54.669421 2.363555 
L 55.438017 0.326132 
L 55.938285 -1 
" style="fill:none;stroke:#000000;stroke-dasharray:1.85,0.8;stroke-dashoffset:0;stroke-width:0.5;"/>
   </g>
   <g id="line2d_2">
    <defs>
     <path d="M 0 3 
C 0.795609 3 1.55874 2.683901 2.12132 2.12132 
C 2.683901 1.55874 3 0.795609 3 0 
C 3 -0.795609 2.683901 -1.55874 2.12132 -2.12132 
C 1.55874 -2.683901 0.795609 -3 0 -3 
C -0.795609 -3 -1.55874 -2.683901 -2.12132 -2.12132 
C -2.683901 -1.55874 -3 -0.795609 -3 0 
C -3 0.795609 -2.683901 1.55874 -2.12132 2.12132 
C -1.55874 2.683901 -0.795609 3 0 3 
z
" id="m4901fdbfb6" style="stroke:#000000;"/>
    </defs>
    <g clip-path="url(#pdc08200997)">
     <use style="stroke:#000000;" x="31.393455" xlink:href="#m4901fdbfb6" y="75.428979"/>
     <use style="stroke:#000000;" x="36.307903" xlink:href="#m4901fdbfb6" y="63.651643"/>
     <use style="stroke:#000000;" x="34.88392" xlink:href="#m4901fdbfb6" y="28.700797"/>
     <use style="stroke:#000000;" x="37.750611" xlink:href="#m4901fdbfb6" y="57.211821"/>
     <use style="stroke:#000000;" x="28.780868" xlink:href="#m4901fdbfb6" y="70.074872"/>
     <use style="stroke:#000000;" x="33.978567" xlink:href="#m4901fdbfb6" y="43.008469"/>
     <use style="stroke:#000000;" x="39.640652" xlink:href="#m4901fdbfb6" y="26.738692"/>
     <use style="stroke:#000000;" x="38.090801" xlink:href="#m4901fdbfb6" y="39.669002"/>
     <use style="stroke:#000000;" x="27" xlink:href="#m4901fdbfb6" y="65.458921"/>
     <use style="stroke:#000000;" x="34.435904" xlink:href="#m4901fdbfb6" y="54.61605"/>
     <use style="stroke:#000000;" x="31.800965" xlink:href="#m4901fdbfb6" y="79.990738"/>
     <use style="stroke:#000000;" x="34.771109" xlink:href="#m4901fdbfb6" y="52.501396"/>
     <use style="stroke:#000000;" x="43.920715" xlink:href="#m4901fdbfb6" y="39.522528"/>
     <use style="stroke:#000000;" x="28.478049" xlink:href="#m4901fdbfb6" y="80.836471"/>
     <use style="stroke:#000000;" x="39.637499" xlink:href="#m4901fdbfb6" y="33.24546"/>
     <use style="stroke:#000000;" x="28.689159" xlink:href="#m4901fdbfb6" y="80.825634"/>
     <use style="stroke:#000000;" x="38.616899" xlink:href="#m4901fdbfb6" y="29.574134"/>
     <use style="stroke:#000000;" x="32.838742" xlink:href="#m4901fdbfb6" y="54.313894"/>
     <use style="stroke:#000000;" x="35.09337" xlink:href="#m4901fdbfb6" y="50.102481"/>
     <use style="stroke:#000000;" x="32.778978" xlink:href="#m4901fdbfb6" y="80.162013"/>
     <use style="stroke:#000000;" x="33.190856" xlink:href="#m4901fdbfb6" y="77.971198"/>
     <use style="stroke:#000000;" x="33.375831" xlink:href="#m4901fdbfb6" y="72.678987"/>
     <use style="stroke:#000000;" x="30.417906" xlink:href="#m4901fdbfb6" y="37.553046"/>
     <use style="stroke:#000000;" x="29.626714" xlink:href="#m4901fdbfb6" y="49.843344"/>
     <use style="stroke:#000000;" x="37.545653" xlink:href="#m4901fdbfb6" y="44.502119"/>
     <use style="stroke:#000000;" x="28.702583" xlink:href="#m4901fdbfb6" y="76.927885"/>
     <use style="stroke:#000000;" x="36.122349" xlink:href="#m4901fdbfb6" y="63.031891"/>
     <use style="stroke:#000000;" x="36.409037" xlink:href="#m4901fdbfb6" y="71.756159"/>
     <use style="stroke:#000000;" x="32.604681" xlink:href="#m4901fdbfb6" y="49.666825"/>
     <use style="stroke:#000000;" x="35.776285" xlink:href="#m4901fdbfb6" y="58.030138"/>
    </g>
   </g>
   <g id="patch_3">
    <path d="M 27 94.5 
L 27 12.96 
" style="fill:none;stroke:#000000;stroke-linecap:square;stroke-linejoin:miter;"/>
   </g>
   <g id="patch_4">
    <path d="M 27 94.5 
L 103.090909 94.5 
" style="fill:none;stroke:#000000;stroke-linecap:square;stroke-linejoin:miter;"/>
   </g>
   <g id="matplotlib.axis_1">
    <g id="xtick_1">
     <g id="line2d_3"/>
     <g id="text_1">
      <text style="font-family:Arial;font-size:8px;font-style:normal;font-weight:normal;text-anchor:middle;" transform="rotate(-0, 27, 103.72625)" x="27" y="103.72625">0.0</text>
     </g>
    </g>
    <g id="xtick_2">
     <g id="line2d_4"/>
     <g id="text_2">
      <text style="font-family:Arial;font-size:8px;font-style:normal;font-weight:normal;text-anchor:middle;" transform="rotate(-0, 53.188603, 103.72625)" x="53.188603" y="103.72625">2.5</text>
     </g>
    </g>
    <g id="xtick_3">
     <g id="line2d_5"/>
     <g id="text_3">
      <text style="font-family:Arial;font-size:8px;font-style:normal;font-weight:normal;text-anchor:middle;" transform="rotate(-0, 79.377207, 103.72625)" x="79.377207" y="103.72625">5.0</text>
     </g>
    </g>
    <g id="text_4">
     <text style="font-family:Arial;font-size:10px;font-style:normal;font-weight:normal;text-anchor:middle;" transform="rotate(-0, 65.045455, 116.474063)" x="65.045455" y="116.474063">Exc</text>
    </g>
   </g>
   <g id="matplotlib.axis_2">
    <g id="ytick_1">
     <g id="line2d_6"/>
     <g id="text_5">
      <text style="font-family:Arial;font-size:8px;font-style:normal;font-weight:normal;text-anchor:end;" transform="rotate(-0, 23.5, 97.363125)" x="23.5" y="97.363125">0</text>
     </g>
    </g>
    <g id="ytick_2">
     <g id="line2d_7"/>
     <g id="text_6">
      <text style="font-family:Arial;font-size:8px;font-style:normal;font-weight:normal;text-anchor:end;" transform="rotate(-0, 23.5, 74.911889)" x="23.5" y="74.911889">2</text>
     </g>
    </g>
    <g id="ytick_3">
     <g id="line2d_8"/>
     <g id="text_7">
      <text style="font-family:Arial;font-size:8px;font-style:normal;font-weight:normal;text-anchor:end;" transform="rotate(-0, 23.5, 52.460652)" x="23.5" y="52.460652">4</text>
     </g>
    </g>
    <g id="ytick_4">
     <g id="line2d_9"/>
     <g id="text_8">
      <text style="font-family:Arial;font-size:8px;font-style:normal;font-weight:normal;text-anchor:end;" transform="rotate(-0, 23.5, 30.009416)" x="23.5" y="30.009416">6</text>
     </g>
    </g>
    <g id="text_9">
     <text style="font-family:Arial;font-size:10px;font-style:normal;font-weight:normal;text-anchor:middle;" transform="rotate(-90, 13.06375, 53.73)" x="13.06375" y="53.73">Inh</text>
    </g>
   </g>
   <g id="legend_1">
    <g id="line2d_10">
     <path d="M 36 75.622656 
L 56 75.622656 
" style="fill:none;stroke:#000000;stroke-dasharray:1.85,0.8;stroke-dashoffset:0;stroke-width:0.5;"/>
    </g>
    <g id="line2d_11"/>
    <g id="text_10">
     <!-- $R^2$ 0.37 -->
     <g transform="translate(64 72.875)">
      <text>
       <tspan style="font-family:DejaVu Sans;font-size:10px;font-style:oblique;font-weight:oblique;" x="0" y="-0.9765625">R</tspan>
       <tspan style="font-family:DejaVu Sans;font-size:7px;font-style:book;font-weight:book;" x="7.650794" y="-4.8046875">2</tspan>
       <tspan style="font-family:Arial;font-size:10px;font-style:regular;font-weight:regular;" x="12.377845 15.156165 20.717689 23.496009 29.057533" y="-0.9765625"> 0.37</tspan>
      </text>
     </g>
     <text style="font-family:Arial;font-size:10px;font-style:normal;font-weight:normal;" transform="translate(64 83.4875)"> slope 2.47</text>
    </g>
   </g>
  </g>
  <g id="axes_2">
   <g id="patch_5">
    <path d="M 118.309091 94.5 
L 194.4 94.5 
L 194.4 12.96 
L 118.309091 12.96 
z
" style="fill:#ffffff;"/>
   </g>
   <g id="PathCollection_1">
    <defs>
     <path d="M 0 2.44949 
C 0.649612 2.44949 1.272706 2.191396 1.732051 1.732051 
C 2.191396 1.272706 2.44949 0.649612 2.44949 0 
C 2.44949 -0.649612 2.191396 -1.272706 1.732051 -1.732051 
C 1.272706 -2.191396 0.649612 -2.44949 0 -2.44949 
C -0.649612 -2.44949 -1.272706 -2.191396 -1.732051 -1.732051 
C -2.191396 -1.272706 -2.44949 -0.649612 -2.44949 0 
C -2.44949 0.649612 -2.191396 1.272706 -1.732051 1.732051 
C -1.272706 2.191396 -0.649612 2.44949 0 2.44949 
z
" id="m97cd61a3fc" style="stroke:#000000;"/>
    </defs>
    <g clip-path="url(#p27042b7d99)">
     <use style="stroke:#000000;" x="127.327295" xlink:href="#m97cd61a3fc" y="70.02006"/>
     <use style="stroke:#000000;" x="173.338944" xlink:href="#m97cd61a3fc" y="92.605691"/>
     <use style="stroke:#000000;" x="160.831362" xlink:href="#m97cd61a3fc" y="52.797673"/>
     <use style="stroke:#000000;" x="155.33747" xlink:href="#m97cd61a3fc" y="82.979988"/>
     <use style="stroke:#000000;" x="134.956565" xlink:href="#m97cd61a3fc" y="65.488982"/>
     <use style="stroke:#000000;" x="144.865692" xlink:href="#m97cd61a3fc" y="43.060035"/>
     <use style="stroke:#000000;" x="166.145351" xlink:href="#m97cd61a3fc" y="55.468421"/>
     <use style="stroke:#000000;" x="160.136749" xlink:href="#m97cd61a3fc" y="58.952382"/>
     <use style="stroke:#000000;" x="118.309091" xlink:href="#m97cd61a3fc" y="94.5"/>
     <use style="stroke:#000000;" x="134.377234" xlink:href="#m97cd61a3fc" y="64.433786"/>
     <use style="stroke:#000000;" x="142.356873" xlink:href="#m97cd61a3fc" y="65.719713"/>
     <use style="stroke:#000000;" x="142.403923" xlink:href="#m97cd61a3fc" y="57.360502"/>
     <use style="stroke:#000000;" x="157.29527" xlink:href="#m97cd61a3fc" y="42.986476"/>
     <use style="stroke:#000000;" x="132.125823" xlink:href="#m97cd61a3fc" y="68.954796"/>
     <use style="stroke:#000000;" x="153.796666" xlink:href="#m97cd61a3fc" y="48.911381"/>
     <use style="stroke:#000000;" x="134.099269" xlink:href="#m97cd61a3fc" y="73.940862"/>
     <use style="stroke:#000000;" x="158.435868" xlink:href="#m97cd61a3fc" y="54.96646"/>
     <use style="stroke:#000000;" x="154.381829" xlink:href="#m97cd61a3fc" y="53.386312"/>
     <use style="stroke:#000000;" x="186.764327" xlink:href="#m97cd61a3fc" y="17.348438"/>
     <use style="stroke:#000000;" x="131.883845" xlink:href="#m97cd61a3fc" y="76.545269"/>
     <use style="stroke:#000000;" x="138.301299" xlink:href="#m97cd61a3fc" y="84.930092"/>
     <use style="stroke:#000000;" x="148.01247" xlink:href="#m97cd61a3fc" y="72.600835"/>
     <use style="stroke:#000000;" x="145.405558" xlink:href="#m97cd61a3fc" y="51.906533"/>
     <use style="stroke:#000000;" x="126.865794" xlink:href="#m97cd61a3fc" y="41.394576"/>
     <use style="stroke:#000000;" x="156.187146" xlink:href="#m97cd61a3fc" y="59.691772"/>
     <use style="stroke:#000000;" x="134.224752" xlink:href="#m97cd61a3fc" y="77.749679"/>
     <use style="stroke:#000000;" x="161.183119" xlink:href="#m97cd61a3fc" y="72.0186"/>
     <use style="stroke:#000000;" x="157.643864" xlink:href="#m97cd61a3fc" y="57.048554"/>
     <use style="stroke:#000000;" x="134.431311" xlink:href="#m97cd61a3fc" y="65.149417"/>
     <use style="stroke:#000000;" x="157.546635" xlink:href="#m97cd61a3fc" y="44.745478"/>
    </g>
   </g>
   <g id="line2d_12">
    <path clip-path="url(#p27042b7d99)" d="M 118.309091 75.987877 
L 119.077686 75.627935 
L 119.846281 75.267993 
L 120.614876 74.90805 
L 121.383471 74.548108 
L 122.152066 74.188165 
L 122.920661 73.828223 
L 123.689256 73.468281 
L 124.457851 73.108338 
L 125.226446 72.748396 
L 125.995041 72.388454 
L 126.763636 72.028511 
L 127.532231 71.668569 
L 128.300826 71.308626 
L 129.069421 70.948684 
L 129.838017 70.588742 
L 130.606612 70.228799 
L 131.375207 69.868857 
L 132.143802 69.508915 
L 132.912397 69.148972 
L 133.680992 68.78903 
L 134.449587 68.429087 
L 135.218182 68.069145 
L 135.986777 67.709203 
L 136.755372 67.34926 
L 137.523967 66.989318 
L 138.292562 66.629375 
L 139.061157 66.269433 
L 139.829752 65.909491 
L 140.598347 65.549548 
L 141.366942 65.189606 
L 142.135537 64.829664 
L 142.904132 64.469721 
L 143.672727 64.109779 
L 144.441322 63.749836 
L 145.209917 63.389894 
L 145.978512 63.029952 
L 146.747107 62.670009 
L 147.515702 62.310067 
L 148.284298 61.950124 
L 149.052893 61.590182 
L 149.821488 61.23024 
L 150.590083 60.870297 
L 151.358678 60.510355 
L 152.127273 60.150413 
L 152.895868 59.79047 
L 153.664463 59.430528 
L 154.433058 59.070585 
L 155.201653 58.710643 
L 155.970248 58.350701 
L 156.738843 57.990758 
L 157.507438 57.630816 
L 158.276033 57.270874 
L 159.044628 56.910931 
L 159.813223 56.550989 
L 160.581818 56.191046 
L 161.350413 55.831104 
L 162.119008 55.471162 
L 162.887603 55.111219 
L 163.656198 54.751277 
L 164.424793 54.391334 
L 165.193388 54.031392 
L 165.961983 53.67145 
L 166.730579 53.311507 
L 167.499174 52.951565 
L 168.267769 52.591623 
L 169.036364 52.23168 
L 169.804959 51.871738 
L 170.573554 51.511795 
L 171.342149 51.151853 
L 172.110744 50.791911 
L 172.879339 50.431968 
L 173.647934 50.072026 
L 174.416529 49.712083 
L 175.185124 49.352141 
L 175.953719 48.992199 
L 176.722314 48.632256 
L 177.490909 48.272314 
L 178.259504 47.912372 
L 179.028099 47.552429 
L 179.796694 47.192487 
L 180.565289 46.832544 
L 181.333884 46.472602 
L 182.102479 46.11266 
L 182.871074 45.752717 
L 183.639669 45.392775 
L 184.408264 45.032833 
L 185.17686 44.67289 
L 185.945455 44.312948 
L 186.71405 43.953005 
L 187.482645 43.593063 
L 188.25124 43.233121 
L 189.019835 42.873178 
L 189.78843 42.513236 
L 190.557025 42.153293 
L 191.32562 41.793351 
L 192.094215 41.433409 
L 192.86281 41.073466 
L 193.631405 40.713524 
L 194.4 40.353582 
" style="fill:none;stroke:#000000;stroke-dasharray:1.85,0.8;stroke-dashoffset:0;stroke-width:0.5;"/>
   </g>
   <g id="patch_6">
    <path d="M 118.309091 94.5 
L 118.309091 12.96 
" style="fill:none;stroke:#000000;stroke-linecap:square;stroke-linejoin:miter;"/>
   </g>
   <g id="patch_7">
    <path d="M 118.309091 94.5 
L 194.4 94.5 
" style="fill:none;stroke:#000000;stroke-linecap:square;stroke-linejoin:miter;"/>
   </g>
   <g id="matplotlib.axis_3">
    <g id="xtick_4">
     <g id="line2d_13"/>
     <g id="text_11">
      <text style="font-family:Arial;font-size:8px;font-style:normal;font-weight:normal;text-anchor:middle;" transform="rotate(-0, 118.309091, 103.72625)" x="118.309091" y="103.72625">0</text>
     </g>
    </g>
    <g id="xtick_5">
     <g id="line2d_14"/>
     <g id="text_12">
      <text style="font-family:Arial;font-size:8px;font-style:normal;font-weight:normal;text-anchor:middle;" transform="rotate(-0, 158.286367, 103.72625)" x="158.286367" y="103.72625">1</text>
     </g>
    </g>
    <g id="text_13">
     <!-- $\sigma$(Exc) -->
     <g transform="translate(141.504545 116.61625)">
      <text>
       <tspan style="font-family:DejaVu Sans;font-size:10px;font-style:oblique;font-weight:oblique;" x="0" y="-0.71875">σ</tspan>
       <tspan style="font-family:Arial;font-size:10px;font-style:regular;font-weight:regular;" x="6.337891 9.667969 16.337891 21.337891 26.337891" y="-0.71875">(Exc)</tspan>
      </text>
     </g>
    </g>
   </g>
   <g id="matplotlib.axis_4">
    <g id="ytick_5">
     <g id="line2d_15"/>
     <g id="text_14">
      <text style="font-family:Arial;font-size:8px;font-style:normal;font-weight:normal;text-anchor:end;" transform="rotate(-0, 114.809091, 97.363125)" x="114.809091" y="97.363125">0.0</text>
     </g>
    </g>
    <g id="ytick_6">
     <g id="line2d_16"/>
     <g id="text_15">
      <text style="font-family:Arial;font-size:8px;font-style:normal;font-weight:normal;text-anchor:end;" transform="rotate(-0, 114.809091, 75.943042)" x="114.809091" y="75.943042">0.5</text>
     </g>
    </g>
    <g id="ytick_7">
     <g id="line2d_17"/>
     <g id="text_16">
      <text style="font-family:Arial;font-size:8px;font-style:normal;font-weight:normal;text-anchor:end;" transform="rotate(-0, 114.809091, 54.52296)" x="114.809091" y="54.52296">1.0</text>
     </g>
    </g>
    <g id="ytick_8">
     <g id="line2d_18"/>
     <g id="text_17">
      <text style="font-family:Arial;font-size:8px;font-style:normal;font-weight:normal;text-anchor:end;" transform="rotate(-0, 114.809091, 33.102877)" x="114.809091" y="33.102877">1.5</text>
     </g>
    </g>
    <g id="text_18">
     <!-- $\sigma$(Inh) -->
     <g transform="translate(97.489091 67.18)rotate(-90)">
      <text>
       <tspan style="font-family:DejaVu Sans;font-size:10px;font-style:oblique;font-weight:oblique;" x="0" y="-0.71875">σ</tspan>
       <tspan style="font-family:Arial;font-size:10px;font-style:regular;font-weight:regular;" x="6.337891 9.667969 12.446289 18.007812 23.569336" y="-0.71875">(Inh)</tspan>
      </text>
     </g>
    </g>
   </g>
   <g id="legend_2">
    <g id="line2d_19">
     <path d="M 108.478125 31.995156 
L 128.478125 31.995156 
" style="fill:none;stroke:#000000;stroke-dasharray:1.85,0.8;stroke-dashoffset:0;stroke-width:0.5;"/>
    </g>
    <g id="line2d_20"/>
    <g id="text_19">
     <!-- $R^2$ 0.19 -->
     <g transform="translate(136.478125 29.2475)">
      <text>
       <tspan style="font-family:DejaVu Sans;font-size:10px;font-style:oblique;font-weight:oblique;" x="0" y="-0.9765625">R</tspan>
       <tspan style="font-family:DejaVu Sans;font-size:7px;font-style:book;font-weight:book;" x="7.650794" y="-4.8046875">2</tspan>
       <tspan style="font-family:Arial;font-size:10px;font-style:regular;font-weight:regular;" x="12.377845 15.156165 20.717689 23.496009 29.057533" y="-0.9765625"> 0.19</tspan>
      </text>
     </g>
     <text style="font-family:Arial;font-size:10px;font-style:normal;font-weight:normal;" transform="translate(136.478125 39.86)"> slope 0.44</text>
    </g>
   </g>
  </g>
 </g>
 <defs>
  <clipPath id="pdc08200997">
   <rect height="81.54" width="76.090909" x="27" y="12.96"/>
  </clipPath>
  <clipPath id="p27042b7d99">
   <rect height="81.54" width="76.090909" x="118.309091" y="12.96"/>
  </clipPath>
 </defs>
</svg>
