<?xml version="1.0" encoding="utf-8" standalone="no"?>
<!DOCTYPE svg PUBLIC "-//W3C//DTD SVG 1.1//EN"
  "http://www.w3.org/Graphics/SVG/1.1/DTD/svg11.dtd">
<!-- Created with matplotlib (http://matplotlib.org/) -->
<svg height="108pt" version="1.1" viewBox="0 0 216 108" width="216pt" xmlns="http://www.w3.org/2000/svg" xmlns:xlink="http://www.w3.org/1999/xlink">
 <defs>
  <style type="text/css">
*{stroke-linecap:butt;stroke-linejoin:round;}
  </style>
 </defs>
 <g id="figure_1">
  <g id="patch_1">
   <path d="M 0 108 
L 216 108 
L 216 0 
L 0 0 
z
" style="fill:#ffffff;"/>
  </g>
  <g id="axes_1">
   <g id="patch_2">
    <path d="M 27 94.5 
L 103.090909 94.5 
L 103.090909 12.96 
L 27 12.96 
z
" style="fill:#ffffff;"/>
   </g>
   <g id="LineCollection_1">
    <path clip-path="url(#pb875b8d995)" d="M 24.625211 64.297176 
L 47.170696 64.297176 
" style="fill:none;stroke:#000000;stroke-width:0.5;"/>
    <path clip-path="url(#pb875b8d995)" d="M 31.431637 57.742112 
L 39.640664 57.742112 
" style="fill:none;stroke:#000000;stroke-width:0.5;"/>
    <path clip-path="url(#pb875b8d995)" d="M 26.35178 72.33671 
L 38.214936 72.33671 
" style="fill:none;stroke:#000000;stroke-width:0.5;"/>
    <path clip-path="url(#pb875b8d995)" d="M 29.155206 56.660168 
L 45.339615 56.660168 
" style="fill:none;stroke:#000000;stroke-width:0.5;"/>
    <path clip-path="url(#pb875b8d995)" d="M 26.995563 70.819845 
L 43.062828 70.819845 
" style="fill:none;stroke:#000000;stroke-width:0.5;"/>
    <path clip-path="url(#pb875b8d995)" d="M 27 62.524503 
L 27 62.524503 
" style="fill:none;stroke:#000000;stroke-width:0.5;"/>
    <path clip-path="url(#pb875b8d995)" d="M 30.839477 71.333121 
L 36.427479 71.333121 
" style="fill:none;stroke:#000000;stroke-width:0.5;"/>
    <path clip-path="url(#pb875b8d995)" d="M 26.734586 55.296523 
L 48.040234 55.296523 
" style="fill:none;stroke:#000000;stroke-width:0.5;"/>
    <path clip-path="url(#pb875b8d995)" d="M 26.011737 62.382059 
L 44.052474 62.382059 
" style="fill:none;stroke:#000000;stroke-width:0.5;"/>
    <path clip-path="url(#pb875b8d995)" d="M 26.148401 66.311601 
L 39.356881 66.311601 
" style="fill:none;stroke:#000000;stroke-width:0.5;"/>
    <path clip-path="url(#pb875b8d995)" d="M 23.4099 48.158683 
L 38.785441 48.158683 
" style="fill:none;stroke:#000000;stroke-width:0.5;"/>
    <path clip-path="url(#pb875b8d995)" d="M 26.841465 71.348685 
L 30.480545 71.348685 
" style="fill:none;stroke:#000000;stroke-width:0.5;"/>
    <path clip-path="url(#pb875b8d995)" d="M 30.788424 34.906948 
L 49.100421 34.906948 
" style="fill:none;stroke:#000000;stroke-width:0.5;"/>
    <path clip-path="url(#pb875b8d995)" d="M 24.831965 67.173096 
L 37.646745 67.173096 
" style="fill:none;stroke:#000000;stroke-width:0.5;"/>
    <path clip-path="url(#pb875b8d995)" d="M 28.17042 53.644051 
L 58.491167 53.644051 
" style="fill:none;stroke:#000000;stroke-width:0.5;"/>
    <path clip-path="url(#pb875b8d995)" d="M 25.694446 65.332416 
L 43.941094 65.332416 
" style="fill:none;stroke:#000000;stroke-width:0.5;"/>
    <path clip-path="url(#pb875b8d995)" d="M 25.927799 84.120709 
L 33.91855 84.120709 
" style="fill:none;stroke:#000000;stroke-width:0.5;"/>
    <path clip-path="url(#pb875b8d995)" d="M 31.326408 24.687724 
L 45.96679 24.687724 
" style="fill:none;stroke:#000000;stroke-width:0.5;"/>
    <path clip-path="url(#pb875b8d995)" d="M 27.388445 56.071132 
L 34.26538 56.071132 
" style="fill:none;stroke:#000000;stroke-width:0.5;"/>
    <path clip-path="url(#pb875b8d995)" d="M 27.540539 82.408292 
L 32.385883 82.408292 
" style="fill:none;stroke:#000000;stroke-width:0.5;"/>
    <path clip-path="url(#pb875b8d995)" d="M 30.347777 45.970906 
L 39.571142 45.970906 
" style="fill:none;stroke:#000000;stroke-width:0.5;"/>
    <path clip-path="url(#pb875b8d995)" d="M 29.054548 63.096355 
L 49.071272 63.096355 
" style="fill:none;stroke:#000000;stroke-width:0.5;"/>
    <path clip-path="url(#pb875b8d995)" d="M 24.727041 78.278884 
L 35.920544 78.278884 
" style="fill:none;stroke:#000000;stroke-width:0.5;"/>
    <path clip-path="url(#pb875b8d995)" d="M 24.793449 69.426169 
L 44.30204 69.426169 
" style="fill:none;stroke:#000000;stroke-width:0.5;"/>
    <path clip-path="url(#pb875b8d995)" d="M 25.484256 69.396681 
L 30.607162 69.396681 
" style="fill:none;stroke:#000000;stroke-width:0.5;"/>
    <path clip-path="url(#pb875b8d995)" d="M 28.320836 37.11723 
L 54.117857 37.11723 
" style="fill:none;stroke:#000000;stroke-width:0.5;"/>
    <path clip-path="url(#pb875b8d995)" d="M 26.727975 47.28531 
L 51.251937 47.28531 
" style="fill:none;stroke:#000000;stroke-width:0.5;"/>
    <path clip-path="url(#pb875b8d995)" d="M 29.308935 62.837481 
L 54.729977 62.837481 
" style="fill:none;stroke:#000000;stroke-width:0.5;"/>
    <path clip-path="url(#pb875b8d995)" d="M 28.27814 64.624262 
L 45.964302 64.624262 
" style="fill:none;stroke:#000000;stroke-width:0.5;"/>
    <path clip-path="url(#pb875b8d995)" d="M 25.832857 77.20117 
L 29.777562 77.20117 
" style="fill:none;stroke:#000000;stroke-width:0.5;"/>
   </g>
   <g id="LineCollection_2">
    <path clip-path="url(#pb875b8d995)" d="M 35.897953 75.158746 
L 35.897953 53.435607 
" style="fill:none;stroke:#000000;stroke-width:0.5;"/>
    <path clip-path="url(#pb875b8d995)" d="M 35.53615 63.139222 
L 35.53615 52.345003 
" style="fill:none;stroke:#000000;stroke-width:0.5;"/>
    <path clip-path="url(#pb875b8d995)" d="M 32.283358 79.844163 
L 32.283358 64.829257 
" style="fill:none;stroke:#000000;stroke-width:0.5;"/>
    <path clip-path="url(#pb875b8d995)" d="M 37.24741 68.490529 
L 37.24741 44.829807 
" style="fill:none;stroke:#000000;stroke-width:0.5;"/>
    <path clip-path="url(#pb875b8d995)" d="M 35.029196 74.316006 
L 35.029196 67.323685 
" style="fill:none;stroke:#000000;stroke-width:0.5;"/>
    <path clip-path="url(#pb875b8d995)" d="M 27 66.65529 
L 27 58.393716 
" style="fill:none;stroke:#000000;stroke-width:0.5;"/>
    <path clip-path="url(#pb875b8d995)" d="M 33.633478 77.277254 
L 33.633478 65.388987 
" style="fill:none;stroke:#000000;stroke-width:0.5;"/>
    <path clip-path="url(#pb875b8d995)" d="M 37.38741 61.852845 
L 37.38741 48.7402 
" style="fill:none;stroke:#000000;stroke-width:0.5;"/>
    <path clip-path="url(#pb875b8d995)" d="M 35.032106 65.584378 
L 35.032106 59.179741 
" style="fill:none;stroke:#000000;stroke-width:0.5;"/>
    <path clip-path="url(#pb875b8d995)" d="M 32.752641 77.850202 
L 32.752641 54.773 
" style="fill:none;stroke:#000000;stroke-width:0.5;"/>
    <path clip-path="url(#pb875b8d995)" d="M 31.097671 61.611294 
L 31.097671 34.706071 
" style="fill:none;stroke:#000000;stroke-width:0.5;"/>
    <path clip-path="url(#pb875b8d995)" d="M 28.661005 75.067062 
L 28.661005 67.630309 
" style="fill:none;stroke:#000000;stroke-width:0.5;"/>
    <path clip-path="url(#pb875b8d995)" d="M 39.944422 39.560943 
L 39.944422 30.252952 
" style="fill:none;stroke:#000000;stroke-width:0.5;"/>
    <path clip-path="url(#pb875b8d995)" d="M 31.239355 75.300378 
L 31.239355 59.045814 
" style="fill:none;stroke:#000000;stroke-width:0.5;"/>
    <path clip-path="url(#pb875b8d995)" d="M 43.330794 62.455235 
L 43.330794 44.832867 
" style="fill:none;stroke:#000000;stroke-width:0.5;"/>
    <path clip-path="url(#pb875b8d995)" d="M 34.81777 74.090798 
L 34.81777 56.574034 
" style="fill:none;stroke:#000000;stroke-width:0.5;"/>
    <path clip-path="url(#pb875b8d995)" d="M 29.923174 88.07061 
L 29.923174 80.170809 
" style="fill:none;stroke:#000000;stroke-width:0.5;"/>
    <path clip-path="url(#pb875b8d995)" d="M 38.646599 32.838753 
L 38.646599 16.536696 
" style="fill:none;stroke:#000000;stroke-width:0.5;"/>
    <path clip-path="url(#pb875b8d995)" d="M 30.826912 62.913876 
L 30.826912 49.228387 
" style="fill:none;stroke:#000000;stroke-width:0.5;"/>
    <path clip-path="url(#pb875b8d995)" d="M 29.963211 84.479902 
L 29.963211 80.336682 
" style="fill:none;stroke:#000000;stroke-width:0.5;"/>
    <path clip-path="url(#pb875b8d995)" d="M 34.959459 53.588693 
L 34.959459 38.353118 
" style="fill:none;stroke:#000000;stroke-width:0.5;"/>
    <path clip-path="url(#pb875b8d995)" d="M 39.06291 80.252088 
L 39.06291 45.940623 
" style="fill:none;stroke:#000000;stroke-width:0.5;"/>
    <path clip-path="url(#pb875b8d995)" d="M 30.323793 85.460581 
L 30.323793 71.097187 
" style="fill:none;stroke:#000000;stroke-width:0.5;"/>
    <path clip-path="url(#pb875b8d995)" d="M 34.547745 69.426169 
L 34.547745 69.426169 
" style="fill:none;stroke:#000000;stroke-width:0.5;"/>
    <path clip-path="url(#pb875b8d995)" d="M 28.045709 72.885182 
L 28.045709 65.90818 
" style="fill:none;stroke:#000000;stroke-width:0.5;"/>
    <path clip-path="url(#pb875b8d995)" d="M 41.219346 51.6234 
L 41.219346 22.611061 
" style="fill:none;stroke:#000000;stroke-width:0.5;"/>
    <path clip-path="url(#pb875b8d995)" d="M 38.989956 56.02809 
L 38.989956 38.54253 
" style="fill:none;stroke:#000000;stroke-width:0.5;"/>
    <path clip-path="url(#pb875b8d995)" d="M 42.019456 72.361254 
L 42.019456 53.313707 
" style="fill:none;stroke:#000000;stroke-width:0.5;"/>
    <path clip-path="url(#pb875b8d995)" d="M 37.121221 76.96428 
L 37.121221 52.284243 
" style="fill:none;stroke:#000000;stroke-width:0.5;"/>
    <path clip-path="url(#pb875b8d995)" d="M 27.80521 81.134518 
L 27.80521 73.267821 
" style="fill:none;stroke:#000000;stroke-width:0.5;"/>
   </g>
   <g id="line2d_1">
    <path clip-path="url(#pb875b8d995)" d="M 27 75.542425 
L 27.768595 74.091597 
L 28.53719 72.640768 
L 29.305785 71.18994 
L 30.07438 69.739111 
L 30.842975 68.288282 
L 31.61157 66.837454 
L 32.380165 65.386625 
L 33.14876 63.935797 
L 33.917355 62.484968 
L 34.68595 61.03414 
L 35.454545 59.583311 
L 36.22314 58.132482 
L 36.991736 56.681654 
L 37.760331 55.230825 
L 38.528926 53.779997 
L 39.297521 52.329168 
L 40.066116 50.87834 
L 40.834711 49.427511 
L 41.603306 47.976683 
L 42.371901 46.525854 
L 43.140496 45.075025 
L 43.909091 43.624197 
L 44.677686 42.173368 
L 45.446281 40.72254 
L 46.214876 39.271711 
L 46.983471 37.820883 
L 47.752066 36.370054 
L 48.520661 34.919225 
L 49.289256 33.468397 
L 50.057851 32.017568 
L 50.826446 30.56674 
L 51.595041 29.115911 
L 52.363636 27.665083 
L 53.132231 26.214254 
L 53.900826 24.763426 
L 54.669421 23.312597 
L 55.438017 21.861768 
L 56.206612 20.41094 
L 56.975207 18.960111 
L 57.743802 17.509283 
L 58.512397 16.058454 
L 59.280992 14.607626 
L 60.049587 13.156797 
L 60.818182 11.705968 
L 61.586777 10.25514 
L 62.355372 8.804311 
L 63.123967 7.353483 
L 63.892562 5.902654 
L 64.661157 4.451826 
L 65.429752 3.000997 
L 66.198347 1.550168 
L 66.966942 0.09934 
L 67.549332 -1 
" style="fill:none;stroke:#000000;stroke-dasharray:1.85,0.8;stroke-dashoffset:0;stroke-width:0.5;"/>
   </g>
   <g id="line2d_2">
    <defs>
     <path d="M 0 3 
C 0.795609 3 1.55874 2.683901 2.12132 2.12132 
C 2.683901 1.55874 3 0.795609 3 0 
C 3 -0.795609 2.683901 -1.55874 2.12132 -2.12132 
C 1.55874 -2.683901 0.795609 -3 0 -3 
C -0.795609 -3 -1.55874 -2.683901 -2.12132 -2.12132 
C -2.683901 -1.55874 -3 -0.795609 -3 0 
C -3 0.795609 -2.683901 1.55874 -2.12132 2.12132 
C -1.55874 2.683901 -0.795609 3 0 3 
z
" id="m7a072cc1e7" style="stroke:#000000;"/>
    </defs>
    <g clip-path="url(#pb875b8d995)">
     <use style="stroke:#000000;" x="35.897953" xlink:href="#m7a072cc1e7" y="64.297176"/>
     <use style="stroke:#000000;" x="35.53615" xlink:href="#m7a072cc1e7" y="57.742112"/>
     <use style="stroke:#000000;" x="32.283358" xlink:href="#m7a072cc1e7" y="72.33671"/>
     <use style="stroke:#000000;" x="37.24741" xlink:href="#m7a072cc1e7" y="56.660168"/>
     <use style="stroke:#000000;" x="35.029196" xlink:href="#m7a072cc1e7" y="70.819845"/>
     <use style="stroke:#000000;" x="27" xlink:href="#m7a072cc1e7" y="62.524503"/>
     <use style="stroke:#000000;" x="33.633478" xlink:href="#m7a072cc1e7" y="71.333121"/>
     <use style="stroke:#000000;" x="37.38741" xlink:href="#m7a072cc1e7" y="55.296523"/>
     <use style="stroke:#000000;" x="35.032106" xlink:href="#m7a072cc1e7" y="62.382059"/>
     <use style="stroke:#000000;" x="32.752641" xlink:href="#m7a072cc1e7" y="66.311601"/>
     <use style="stroke:#000000;" x="31.097671" xlink:href="#m7a072cc1e7" y="48.158683"/>
     <use style="stroke:#000000;" x="28.661005" xlink:href="#m7a072cc1e7" y="71.348685"/>
     <use style="stroke:#000000;" x="39.944422" xlink:href="#m7a072cc1e7" y="34.906948"/>
     <use style="stroke:#000000;" x="31.239355" xlink:href="#m7a072cc1e7" y="67.173096"/>
     <use style="stroke:#000000;" x="43.330794" xlink:href="#m7a072cc1e7" y="53.644051"/>
     <use style="stroke:#000000;" x="34.81777" xlink:href="#m7a072cc1e7" y="65.332416"/>
     <use style="stroke:#000000;" x="29.923174" xlink:href="#m7a072cc1e7" y="84.120709"/>
     <use style="stroke:#000000;" x="38.646599" xlink:href="#m7a072cc1e7" y="24.687724"/>
     <use style="stroke:#000000;" x="30.826912" xlink:href="#m7a072cc1e7" y="56.071132"/>
     <use style="stroke:#000000;" x="29.963211" xlink:href="#m7a072cc1e7" y="82.408292"/>
     <use style="stroke:#000000;" x="34.959459" xlink:href="#m7a072cc1e7" y="45.970906"/>
     <use style="stroke:#000000;" x="39.06291" xlink:href="#m7a072cc1e7" y="63.096355"/>
     <use style="stroke:#000000;" x="30.323793" xlink:href="#m7a072cc1e7" y="78.278884"/>
     <use style="stroke:#000000;" x="34.547745" xlink:href="#m7a072cc1e7" y="69.426169"/>
     <use style="stroke:#000000;" x="28.045709" xlink:href="#m7a072cc1e7" y="69.396681"/>
     <use style="stroke:#000000;" x="41.219346" xlink:href="#m7a072cc1e7" y="37.11723"/>
     <use style="stroke:#000000;" x="38.989956" xlink:href="#m7a072cc1e7" y="47.28531"/>
     <use style="stroke:#000000;" x="42.019456" xlink:href="#m7a072cc1e7" y="62.837481"/>
     <use style="stroke:#000000;" x="37.121221" xlink:href="#m7a072cc1e7" y="64.624262"/>
     <use style="stroke:#000000;" x="27.80521" xlink:href="#m7a072cc1e7" y="77.20117"/>
    </g>
   </g>
   <g id="patch_3">
    <path d="M 27 94.5 
L 27 12.96 
" style="fill:none;stroke:#000000;stroke-linecap:square;stroke-linejoin:miter;"/>
   </g>
   <g id="patch_4">
    <path d="M 27 94.5 
L 103.090909 94.5 
" style="fill:none;stroke:#000000;stroke-linecap:square;stroke-linejoin:miter;"/>
   </g>
   <g id="matplotlib.axis_1">
    <g id="xtick_1">
     <g id="line2d_3"/>
     <g id="text_1">
      <text style="font-family:Arial;font-size:8px;font-style:normal;font-weight:normal;text-anchor:middle;" transform="rotate(-0, 27, 103.72625)" x="27" y="103.72625">0.0</text>
     </g>
    </g>
    <g id="xtick_2">
     <g id="line2d_4"/>
     <g id="text_2">
      <text style="font-family:Arial;font-size:8px;font-style:normal;font-weight:normal;text-anchor:middle;" transform="rotate(-0, 52.528006, 103.72625)" x="52.528006" y="103.72625">2.5</text>
     </g>
    </g>
    <g id="xtick_3">
     <g id="line2d_5"/>
     <g id="text_3">
      <text style="font-family:Arial;font-size:8px;font-style:normal;font-weight:normal;text-anchor:middle;" transform="rotate(-0, 78.056013, 103.72625)" x="78.056013" y="103.72625">5.0</text>
     </g>
    </g>
    <g id="xtick_4">
     <g id="line2d_6"/>
     <g id="text_4">
      <text style="font-family:Arial;font-size:8px;font-style:normal;font-weight:normal;text-anchor:middle;" transform="rotate(-0, 103.584019, 103.72625)" x="103.584019" y="103.72625">7.5</text>
     </g>
    </g>
    <g id="text_5">
     <text style="font-family:Arial;font-size:10px;font-style:normal;font-weight:normal;text-anchor:middle;" transform="rotate(-0, 65.045455, 116.474063)" x="65.045455" y="116.474063">Exc</text>
    </g>
   </g>
   <g id="matplotlib.axis_2">
    <g id="ytick_1">
     <g id="line2d_7"/>
     <g id="text_6">
      <text style="font-family:Arial;font-size:8px;font-style:normal;font-weight:normal;text-anchor:end;" transform="rotate(-0, 23.5, 97.363125)" x="23.5" y="97.363125">0</text>
     </g>
    </g>
    <g id="ytick_2">
     <g id="line2d_8"/>
     <g id="text_7">
      <text style="font-family:Arial;font-size:8px;font-style:normal;font-weight:normal;text-anchor:end;" transform="rotate(-0, 23.5, 75.478212)" x="23.5" y="75.478212">2</text>
     </g>
    </g>
    <g id="ytick_3">
     <g id="line2d_9"/>
     <g id="text_8">
      <text style="font-family:Arial;font-size:8px;font-style:normal;font-weight:normal;text-anchor:end;" transform="rotate(-0, 23.5, 53.5933)" x="23.5" y="53.5933">4</text>
     </g>
    </g>
    <g id="ytick_4">
     <g id="line2d_10"/>
     <g id="text_9">
      <text style="font-family:Arial;font-size:8px;font-style:normal;font-weight:normal;text-anchor:end;" transform="rotate(-0, 23.5, 31.708387)" x="23.5" y="31.708387">6</text>
     </g>
    </g>
    <g id="text_10">
     <text style="font-family:Arial;font-size:10px;font-style:normal;font-weight:normal;text-anchor:middle;" transform="rotate(-90, 13.06375, 53.73)" x="13.06375" y="53.73">Inh</text>
    </g>
   </g>
   <g id="legend_1">
    <g id="line2d_11">
     <path d="M 36 75.622656 
L 56 75.622656 
" style="fill:none;stroke:#000000;stroke-dasharray:1.85,0.8;stroke-dashoffset:0;stroke-width:0.5;"/>
    </g>
    <g id="line2d_12"/>
    <g id="text_11">
     <!-- $R^2$ 0.37 -->
     <g transform="translate(64 72.875)">
      <text>
       <tspan style="font-family:DejaVu Sans;font-size:10px;font-style:oblique;font-weight:oblique;" x="0" y="-0.9765625">R</tspan>
       <tspan style="font-family:DejaVu Sans;font-size:7px;font-style:book;font-weight:book;" x="7.650794" y="-4.8046875">2</tspan>
       <tspan style="font-family:Arial;font-size:10px;font-style:regular;font-weight:regular;" x="12.377845 15.156165 20.717689 23.496009 29.057533" y="-0.9765625"> 0.37</tspan>
      </text>
     </g>
     <text style="font-family:Arial;font-size:10px;font-style:normal;font-weight:normal;" transform="translate(64 83.4875)"> slope 1.76</text>
    </g>
   </g>
  </g>
  <g id="axes_2">
   <g id="patch_5">
    <path d="M 118.309091 94.5 
L 194.4 94.5 
L 194.4 12.96 
L 118.309091 12.96 
z
" style="fill:#ffffff;"/>
   </g>
   <g id="PathCollection_1">
    <defs>
     <path d="M 0 2.44949 
C 0.649612 2.44949 1.272706 2.191396 1.732051 1.732051 
C 2.191396 1.272706 2.44949 0.649612 2.44949 0 
C 2.44949 -0.649612 2.191396 -1.272706 1.732051 -1.732051 
C 1.272706 -2.191396 0.649612 -2.44949 0 -2.44949 
C -0.649612 -2.44949 -1.272706 -2.191396 -1.732051 -1.732051 
C -2.191396 -1.272706 -2.44949 -0.649612 -2.44949 0 
C -2.44949 0.649612 -2.191396 1.272706 -1.732051 1.732051 
C -1.272706 2.191396 -0.649612 2.44949 0 2.44949 
z
" id="m681c9e50e2" style="stroke:#000000;"/>
    </defs>
    <g clip-path="url(#p6cac0c5046)">
     <use style="stroke:#000000;" x="168.955056" xlink:href="#m681c9e50e2" y="45.701344"/>
     <use style="stroke:#000000;" x="136.749773" xlink:href="#m681c9e50e2" y="70.251968"/>
     <use style="stroke:#000000;" x="144.958373" xlink:href="#m681c9e50e2" y="60.770657"/>
     <use style="stroke:#000000;" x="154.665595" xlink:href="#m681c9e50e2" y="41.348777"/>
     <use style="stroke:#000000;" x="154.402445" xlink:href="#m681c9e50e2" y="78.792516"/>
     <use style="stroke:#000000;" x="118.309091" xlink:href="#m681c9e50e2" y="75.941277"/>
     <use style="stroke:#000000;" x="130.861926" xlink:href="#m681c9e50e2" y="67.794308"/>
     <use style="stroke:#000000;" x="166.169899" xlink:href="#m681c9e50e2" y="65.043879"/>
     <use style="stroke:#000000;" x="158.835632" xlink:href="#m681c9e50e2" y="80.112685"/>
     <use style="stroke:#000000;" x="147.980494" xlink:href="#m681c9e50e2" y="42.65959"/>
     <use style="stroke:#000000;" x="152.848561" xlink:href="#m681c9e50e2" y="34.060359"/>
     <use style="stroke:#000000;" x="126.483885" xlink:href="#m681c9e50e2" y="77.794147"/>
     <use style="stroke:#000000;" x="159.444991" xlink:href="#m681c9e50e2" y="73.590617"/>
     <use style="stroke:#000000;" x="147.096092" xlink:href="#m681c9e50e2" y="57.9859"/>
     <use style="stroke:#000000;" x="186.421333" xlink:href="#m681c9e50e2" y="54.913278"/>
     <use style="stroke:#000000;" x="159.29819" xlink:href="#m681c9e50e2" y="55.150507"/>
     <use style="stroke:#000000;" x="136.259439" xlink:href="#m681c9e50e2" y="76.753961"/>
     <use style="stroke:#000000;" x="151.197108" xlink:href="#m681c9e50e2" y="57.879212"/>
     <use style="stroke:#000000;" x="133.757374" xlink:href="#m681c9e50e2" y="63.757046"/>
     <use style="stroke:#000000;" x="129.193627" xlink:href="#m681c9e50e2" y="85.192711"/>
     <use style="stroke:#000000;" x="139.02837" xlink:href="#m681c9e50e2" y="60.274948"/>
     <use style="stroke:#000000;" x="163.274471" xlink:href="#m681c9e50e2" y="17.423046"/>
     <use style="stroke:#000000;" x="143.45407" xlink:href="#m681c9e50e2" y="62.234206"/>
     <use style="stroke:#000000;" x="162.133006" xlink:href="#m681c9e50e2" y="94.5"/>
     <use style="stroke:#000000;" x="129.81714" xlink:href="#m681c9e50e2" y="78.826929"/>
     <use style="stroke:#000000;" x="176.259276" xlink:href="#m681c9e50e2" y="29.326953"/>
     <use style="stroke:#000000;" x="173.399488" xlink:href="#m681c9e50e2" y="55.2206"/>
     <use style="stroke:#000000;" x="175.41468" xlink:href="#m681c9e50e2" y="51.711768"/>
     <use style="stroke:#000000;" x="158.039119" xlink:href="#m681c9e50e2" y="39.058996"/>
     <use style="stroke:#000000;" x="127.170439" xlink:href="#m681c9e50e2" y="76.828326"/>
    </g>
   </g>
   <g id="line2d_13">
    <path clip-path="url(#p6cac0c5046)" d="M 118.309091 77.45353 
L 119.077686 77.060128 
L 119.846281 76.666727 
L 120.614876 76.273325 
L 121.383471 75.879923 
L 122.152066 75.486522 
L 122.920661 75.09312 
L 123.689256 74.699718 
L 124.457851 74.306317 
L 125.226446 73.912915 
L 125.995041 73.519513 
L 126.763636 73.126111 
L 127.532231 72.73271 
L 128.300826 72.339308 
L 129.069421 71.945906 
L 129.838017 71.552505 
L 130.606612 71.159103 
L 131.375207 70.765701 
L 132.143802 70.3723 
L 132.912397 69.978898 
L 133.680992 69.585496 
L 134.449587 69.192094 
L 135.218182 68.798693 
L 135.986777 68.405291 
L 136.755372 68.011889 
L 137.523967 67.618488 
L 138.292562 67.225086 
L 139.061157 66.831684 
L 139.829752 66.438283 
L 140.598347 66.044881 
L 141.366942 65.651479 
L 142.135537 65.258077 
L 142.904132 64.864676 
L 143.672727 64.471274 
L 144.441322 64.077872 
L 145.209917 63.684471 
L 145.978512 63.291069 
L 146.747107 62.897667 
L 147.515702 62.504266 
L 148.284298 62.110864 
L 149.052893 61.717462 
L 149.821488 61.32406 
L 150.590083 60.930659 
L 151.358678 60.537257 
L 152.127273 60.143855 
L 152.895868 59.750454 
L 153.664463 59.357052 
L 154.433058 58.96365 
L 155.201653 58.570249 
L 155.970248 58.176847 
L 156.738843 57.783445 
L 157.507438 57.390043 
L 158.276033 56.996642 
L 159.044628 56.60324 
L 159.813223 56.209838 
L 160.581818 55.816437 
L 161.350413 55.423035 
L 162.119008 55.029633 
L 162.887603 54.636231 
L 163.656198 54.24283 
L 164.424793 53.849428 
L 165.193388 53.456026 
L 165.961983 53.062625 
L 166.730579 52.669223 
L 167.499174 52.275821 
L 168.267769 51.88242 
L 169.036364 51.489018 
L 169.804959 51.095616 
L 170.573554 50.702214 
L 171.342149 50.308813 
L 172.110744 49.915411 
L 172.879339 49.522009 
L 173.647934 49.128608 
L 174.416529 48.735206 
L 175.185124 48.341804 
L 175.953719 47.948403 
L 176.722314 47.555001 
L 177.490909 47.161599 
L 178.259504 46.768197 
L 179.028099 46.374796 
L 179.796694 45.981394 
L 180.565289 45.587992 
L 181.333884 45.194591 
L 182.102479 44.801189 
L 182.871074 44.407787 
L 183.639669 44.014386 
L 184.408264 43.620984 
L 185.17686 43.227582 
L 185.945455 42.83418 
L 186.71405 42.440779 
L 187.482645 42.047377 
L 188.25124 41.653975 
L 189.019835 41.260574 
L 189.78843 40.867172 
L 190.557025 40.47377 
L 191.32562 40.080369 
L 192.094215 39.686967 
L 192.86281 39.293565 
L 193.631405 38.900163 
L 194.4 38.506762 
" style="fill:none;stroke:#000000;stroke-dasharray:1.85,0.8;stroke-dashoffset:0;stroke-width:0.5;"/>
   </g>
   <g id="patch_6">
    <path d="M 118.309091 94.5 
L 118.309091 12.96 
" style="fill:none;stroke:#000000;stroke-linecap:square;stroke-linejoin:miter;"/>
   </g>
   <g id="patch_7">
    <path d="M 118.309091 94.5 
L 194.4 94.5 
" style="fill:none;stroke:#000000;stroke-linecap:square;stroke-linejoin:miter;"/>
   </g>
   <g id="matplotlib.axis_3">
    <g id="xtick_5">
     <g id="line2d_14"/>
     <g id="text_12">
      <text style="font-family:Arial;font-size:8px;font-style:normal;font-weight:normal;text-anchor:middle;" transform="rotate(-0, 118.309091, 103.72625)" x="118.309091" y="103.72625">0</text>
     </g>
    </g>
    <g id="xtick_6">
     <g id="line2d_15"/>
     <g id="text_13">
      <text style="font-family:Arial;font-size:8px;font-style:normal;font-weight:normal;text-anchor:middle;" transform="rotate(-0, 164.18579, 103.72625)" x="164.18579" y="103.72625">1</text>
     </g>
    </g>
    <g id="text_14">
     <!-- $\sigma$(Exc) -->
     <g transform="translate(141.504545 116.61625)">
      <text>
       <tspan style="font-family:DejaVu Sans;font-size:10px;font-style:oblique;font-weight:oblique;" x="0" y="-0.71875">σ</tspan>
       <tspan style="font-family:Arial;font-size:10px;font-style:regular;font-weight:regular;" x="6.337891 9.667969 16.337891 21.337891 26.337891" y="-0.71875">(Exc)</tspan>
      </text>
     </g>
    </g>
   </g>
   <g id="matplotlib.axis_4">
    <g id="ytick_5">
     <g id="line2d_16"/>
     <g id="text_15">
      <text style="font-family:Arial;font-size:8px;font-style:normal;font-weight:normal;text-anchor:end;" transform="rotate(-0, 114.809091, 97.363125)" x="114.809091" y="97.363125">0.0</text>
     </g>
    </g>
    <g id="ytick_6">
     <g id="line2d_17"/>
     <g id="text_16">
      <text style="font-family:Arial;font-size:8px;font-style:normal;font-weight:normal;text-anchor:end;" transform="rotate(-0, 114.809091, 72.782094)" x="114.809091" y="72.782094">0.5</text>
     </g>
    </g>
    <g id="ytick_7">
     <g id="line2d_18"/>
     <g id="text_17">
      <text style="font-family:Arial;font-size:8px;font-style:normal;font-weight:normal;text-anchor:end;" transform="rotate(-0, 114.809091, 48.201063)" x="114.809091" y="48.201063">1.0</text>
     </g>
    </g>
    <g id="ytick_8">
     <g id="line2d_19"/>
     <g id="text_18">
      <text style="font-family:Arial;font-size:8px;font-style:normal;font-weight:normal;text-anchor:end;" transform="rotate(-0, 114.809091, 23.620032)" x="114.809091" y="23.620032">1.5</text>
     </g>
    </g>
    <g id="text_19">
     <!-- $\sigma$(Inh) -->
     <g transform="translate(97.489091 67.18)rotate(-90)">
      <text>
       <tspan style="font-family:DejaVu Sans;font-size:10px;font-style:oblique;font-weight:oblique;" x="0" y="-0.71875">σ</tspan>
       <tspan style="font-family:Arial;font-size:10px;font-style:regular;font-weight:regular;" x="6.337891 9.667969 12.446289 18.007812 23.569336" y="-0.71875">(Inh)</tspan>
      </text>
     </g>
    </g>
   </g>
   <g id="legend_2">
    <g id="line2d_20">
     <path d="M 108.478125 31.995156 
L 128.478125 31.995156 
" style="fill:none;stroke:#000000;stroke-dasharray:1.85,0.8;stroke-dashoffset:0;stroke-width:0.5;"/>
    </g>
    <g id="line2d_21"/>
    <g id="text_20">
     <!-- $R^2$ 0.24 -->
     <g transform="translate(136.478125 29.2475)">
      <text>
       <tspan style="font-family:DejaVu Sans;font-size:10px;font-style:oblique;font-weight:oblique;" x="0" y="-0.9765625">R</tspan>
       <tspan style="font-family:DejaVu Sans;font-size:7px;font-style:book;font-weight:book;" x="7.650794" y="-4.8046875">2</tspan>
       <tspan style="font-family:Arial;font-size:10px;font-style:regular;font-weight:regular;" x="12.377845 15.156165 20.717689 23.496009 29.057533" y="-0.9765625"> 0.24</tspan>
      </text>
     </g>
     <text style="font-family:Arial;font-size:10px;font-style:normal;font-weight:normal;" transform="translate(136.478125 39.86)"> slope 0.48</text>
    </g>
   </g>
  </g>
 </g>
 <defs>
  <clipPath id="pb875b8d995">
   <rect height="81.54" width="76.090909" x="27" y="12.96"/>
  </clipPath>
  <clipPath id="p6cac0c5046">
   <rect height="81.54" width="76.090909" x="118.309091" y="12.96"/>
  </clipPath>
 </defs>
</svg>
