<?xml version="1.0" encoding="utf-8" standalone="no"?>
<!DOCTYPE svg PUBLIC "-//W3C//DTD SVG 1.1//EN"
  "http://www.w3.org/Graphics/SVG/1.1/DTD/svg11.dtd">
<!-- Created with matplotlib (http://matplotlib.org/) -->
<svg height="108pt" version="1.1" viewBox="0 0 216 108" width="216pt" xmlns="http://www.w3.org/2000/svg" xmlns:xlink="http://www.w3.org/1999/xlink">
 <defs>
  <style type="text/css">
*{stroke-linecap:butt;stroke-linejoin:round;}
  </style>
 </defs>
 <g id="figure_1">
  <g id="patch_1">
   <path d="M 0 108 
L 216 108 
L 216 0 
L 0 0 
z
" style="fill:#ffffff;"/>
  </g>
  <g id="axes_1">
   <g id="patch_2">
    <path d="M 27 94.5 
L 103.090909 94.5 
L 103.090909 12.96 
L 27 12.96 
z
" style="fill:#ffffff;"/>
   </g>
   <g id="LineCollection_1">
    <path clip-path="url(#p3c2996acf6)" d="M 25.316033 67.321909 
L 40.037534 67.321909 
" style="fill:none;stroke:#000000;stroke-width:0.5;"/>
    <path clip-path="url(#p3c2996acf6)" d="M 26.656463 91.907675 
L 28.594595 91.907675 
" style="fill:none;stroke:#000000;stroke-width:0.5;"/>
    <path clip-path="url(#p3c2996acf6)" d="M 26.1946 47.705981 
L 50.69561 47.705981 
" style="fill:none;stroke:#000000;stroke-width:0.5;"/>
    <path clip-path="url(#p3c2996acf6)" d="M 25.934338 72.624271 
L 37.650148 72.624271 
" style="fill:none;stroke:#000000;stroke-width:0.5;"/>
    <path clip-path="url(#p3c2996acf6)" d="M 27.764395 83.5384 
L 32.703938 83.5384 
" style="fill:none;stroke:#000000;stroke-width:0.5;"/>
    <path clip-path="url(#p3c2996acf6)" d="M 26.931777 63.224058 
L 37.757039 63.224058 
" style="fill:none;stroke:#000000;stroke-width:0.5;"/>
    <path clip-path="url(#p3c2996acf6)" d="M 26.934461 85.596692 
L 33.180939 85.596692 
" style="fill:none;stroke:#000000;stroke-width:0.5;"/>
    <path clip-path="url(#p3c2996acf6)" d="M 25.562543 65.045437 
L 40.387322 65.045437 
" style="fill:none;stroke:#000000;stroke-width:0.5;"/>
    <path clip-path="url(#p3c2996acf6)" d="M 16.706098 49.431273 
L 58.699695 49.431273 
" style="fill:none;stroke:#000000;stroke-width:0.5;"/>
    <path clip-path="url(#p3c2996acf6)" d="M 27.448702 64.993871 
L 38.347025 64.993871 
" style="fill:none;stroke:#000000;stroke-width:0.5;"/>
    <path clip-path="url(#p3c2996acf6)" d="M 26.143178 62.539039 
L 35.531413 62.539039 
" style="fill:none;stroke:#000000;stroke-width:0.5;"/>
    <path clip-path="url(#p3c2996acf6)" d="M 35.681881 54.327955 
L 49.053486 54.327955 
" style="fill:none;stroke:#000000;stroke-width:0.5;"/>
    <path clip-path="url(#p3c2996acf6)" d="M 22.934435 41.628087 
L 50.38114 41.628087 
" style="fill:none;stroke:#000000;stroke-width:0.5;"/>
    <path clip-path="url(#p3c2996acf6)" d="M 27.962643 56.901372 
L 39.338957 56.901372 
" style="fill:none;stroke:#000000;stroke-width:0.5;"/>
    <path clip-path="url(#p3c2996acf6)" d="M 26.028226 82.550711 
L 36.991182 82.550711 
" style="fill:none;stroke:#000000;stroke-width:0.5;"/>
    <path clip-path="url(#p3c2996acf6)" d="M 25.205597 50.9554 
L 57.10377 50.9554 
" style="fill:none;stroke:#000000;stroke-width:0.5;"/>
    <path clip-path="url(#p3c2996acf6)" d="M 35.163256 47.951144 
L 57.153111 47.951144 
" style="fill:none;stroke:#000000;stroke-width:0.5;"/>
    <path clip-path="url(#p3c2996acf6)" d="M 26.671131 79.371051 
L 41.560066 79.371051 
" style="fill:none;stroke:#000000;stroke-width:0.5;"/>
    <path clip-path="url(#p3c2996acf6)" d="M 24.230109 26.93963 
L 50.106395 26.93963 
" style="fill:none;stroke:#000000;stroke-width:0.5;"/>
    <path clip-path="url(#p3c2996acf6)" d="M 21.059907 34.025283 
L 45.344308 34.025283 
" style="fill:none;stroke:#000000;stroke-width:0.5;"/>
    <path clip-path="url(#p3c2996acf6)" d="M 26.748883 51.760444 
L 27.597607 51.760444 
" style="fill:none;stroke:#000000;stroke-width:0.5;"/>
    <path clip-path="url(#p3c2996acf6)" d="M 26.226041 65.030159 
L 30.375401 65.030159 
" style="fill:none;stroke:#000000;stroke-width:0.5;"/>
    <path clip-path="url(#p3c2996acf6)" d="M 26.655213 73.260359 
L 31.092198 73.260359 
" style="fill:none;stroke:#000000;stroke-width:0.5;"/>
    <path clip-path="url(#p3c2996acf6)" d="M 26.764879 85.442916 
L 29.114937 85.442916 
" style="fill:none;stroke:#000000;stroke-width:0.5;"/>
    <path clip-path="url(#p3c2996acf6)" d="M 27.068314 69.666741 
L 39.199678 69.666741 
" style="fill:none;stroke:#000000;stroke-width:0.5;"/>
    <path clip-path="url(#p3c2996acf6)" d="M 25.944138 61.442487 
L 42.084379 61.442487 
" style="fill:none;stroke:#000000;stroke-width:0.5;"/>
    <path clip-path="url(#p3c2996acf6)" d="M 23.434048 77.255781 
L 35.486239 77.255781 
" style="fill:none;stroke:#000000;stroke-width:0.5;"/>
    <path clip-path="url(#p3c2996acf6)" d="M 27.461115 82.860767 
L 33.208089 82.860767 
" style="fill:none;stroke:#000000;stroke-width:0.5;"/>
    <path clip-path="url(#p3c2996acf6)" d="M 30.927602 75.813107 
L 39.622089 75.813107 
" style="fill:none;stroke:#000000;stroke-width:0.5;"/>
    <path clip-path="url(#p3c2996acf6)" d="M 24.551801 45.134619 
L 54.304887 45.134619 
" style="fill:none;stroke:#000000;stroke-width:0.5;"/>
   </g>
   <g id="LineCollection_2">
    <path clip-path="url(#p3c2996acf6)" d="M 32.676784 82.406536 
L 32.676784 52.237282 
" style="fill:none;stroke:#000000;stroke-width:0.5;"/>
    <path clip-path="url(#p3c2996acf6)" d="M 27.625529 93.090295 
L 27.625529 90.725055 
" style="fill:none;stroke:#000000;stroke-width:0.5;"/>
    <path clip-path="url(#p3c2996acf6)" d="M 38.445105 51.755219 
L 38.445105 43.656744 
" style="fill:none;stroke:#000000;stroke-width:0.5;"/>
    <path clip-path="url(#p3c2996acf6)" d="M 31.792243 78.800973 
L 31.792243 66.447569 
" style="fill:none;stroke:#000000;stroke-width:0.5;"/>
    <path clip-path="url(#p3c2996acf6)" d="M 30.234167 86.284333 
L 30.234167 80.792468 
" style="fill:none;stroke:#000000;stroke-width:0.5;"/>
    <path clip-path="url(#p3c2996acf6)" d="M 32.344408 68.153916 
L 32.344408 58.2942 
" style="fill:none;stroke:#000000;stroke-width:0.5;"/>
    <path clip-path="url(#p3c2996acf6)" d="M 30.0577 88.112923 
L 30.0577 83.080462 
" style="fill:none;stroke:#000000;stroke-width:0.5;"/>
    <path clip-path="url(#p3c2996acf6)" d="M 32.974933 71.724562 
L 32.974933 58.366313 
" style="fill:none;stroke:#000000;stroke-width:0.5;"/>
    <path clip-path="url(#p3c2996acf6)" d="M 37.702897 71.857919 
L 37.702897 27.004628 
" style="fill:none;stroke:#000000;stroke-width:0.5;"/>
    <path clip-path="url(#p3c2996acf6)" d="M 32.897864 69.295309 
L 32.897864 60.692434 
" style="fill:none;stroke:#000000;stroke-width:0.5;"/>
    <path clip-path="url(#p3c2996acf6)" d="M 30.837295 66.187203 
L 30.837295 58.890875 
" style="fill:none;stroke:#000000;stroke-width:0.5;"/>
    <path clip-path="url(#p3c2996acf6)" d="M 42.367684 66.845173 
L 42.367684 41.810738 
" style="fill:none;stroke:#000000;stroke-width:0.5;"/>
    <path clip-path="url(#p3c2996acf6)" d="M 36.657787 55.726259 
L 36.657787 27.529914 
" style="fill:none;stroke:#000000;stroke-width:0.5;"/>
    <path clip-path="url(#p3c2996acf6)" d="M 33.6508 71.588481 
L 33.6508 42.214264 
" style="fill:none;stroke:#000000;stroke-width:0.5;"/>
    <path clip-path="url(#p3c2996acf6)" d="M 31.509704 87.08871 
L 31.509704 78.012712 
" style="fill:none;stroke:#000000;stroke-width:0.5;"/>
    <path clip-path="url(#p3c2996acf6)" d="M 41.154683 73.339449 
L 41.154683 28.571351 
" style="fill:none;stroke:#000000;stroke-width:0.5;"/>
    <path clip-path="url(#p3c2996acf6)" d="M 46.158184 56.774437 
L 46.158184 39.127852 
" style="fill:none;stroke:#000000;stroke-width:0.5;"/>
    <path clip-path="url(#p3c2996acf6)" d="M 34.115599 85.132164 
L 34.115599 73.609938 
" style="fill:none;stroke:#000000;stroke-width:0.5;"/>
    <path clip-path="url(#p3c2996acf6)" d="M 37.168252 37.103532 
L 37.168252 16.775728 
" style="fill:none;stroke:#000000;stroke-width:0.5;"/>
    <path clip-path="url(#p3c2996acf6)" d="M 33.202108 51.105509 
L 33.202108 16.945057 
" style="fill:none;stroke:#000000;stroke-width:0.5;"/>
    <path clip-path="url(#p3c2996acf6)" d="M 27.173245 56.642788 
L 27.173245 46.878101 
" style="fill:none;stroke:#000000;stroke-width:0.5;"/>
    <path clip-path="url(#p3c2996acf6)" d="M 28.300721 73.705051 
L 28.300721 56.355267 
" style="fill:none;stroke:#000000;stroke-width:0.5;"/>
    <path clip-path="url(#p3c2996acf6)" d="M 28.873705 77.197682 
L 28.873705 69.323036 
" style="fill:none;stroke:#000000;stroke-width:0.5;"/>
    <path clip-path="url(#p3c2996acf6)" d="M 27.939908 88.813025 
L 27.939908 82.072806 
" style="fill:none;stroke:#000000;stroke-width:0.5;"/>
    <path clip-path="url(#p3c2996acf6)" d="M 33.133996 80.417101 
L 33.133996 58.916381 
" style="fill:none;stroke:#000000;stroke-width:0.5;"/>
    <path clip-path="url(#p3c2996acf6)" d="M 34.014258 67.903546 
L 34.014258 54.981429 
" style="fill:none;stroke:#000000;stroke-width:0.5;"/>
    <path clip-path="url(#p3c2996acf6)" d="M 29.460143 79.320403 
L 29.460143 75.191159 
" style="fill:none;stroke:#000000;stroke-width:0.5;"/>
    <path clip-path="url(#p3c2996acf6)" d="M 30.334602 86.27533 
L 30.334602 79.446205 
" style="fill:none;stroke:#000000;stroke-width:0.5;"/>
    <path clip-path="url(#p3c2996acf6)" d="M 35.274845 80.111801 
L 35.274845 71.514413 
" style="fill:none;stroke:#000000;stroke-width:0.5;"/>
    <path clip-path="url(#p3c2996acf6)" d="M 39.428344 55.528222 
L 39.428344 34.741016 
" style="fill:none;stroke:#000000;stroke-width:0.5;"/>
   </g>
   <g id="line2d_1">
    <path clip-path="url(#p3c2996acf6)" d="M 27 78.389749 
L 27.768595 76.695223 
L 28.53719 75.000697 
L 29.305785 73.306172 
L 30.07438 71.611646 
L 30.842975 69.91712 
L 31.61157 68.222595 
L 32.380165 66.528069 
L 33.14876 64.833544 
L 33.917355 63.139018 
L 34.68595 61.444492 
L 35.454545 59.749967 
L 36.22314 58.055441 
L 36.991736 56.360915 
L 37.760331 54.66639 
L 38.528926 52.971864 
L 39.297521 51.277338 
L 40.066116 49.582813 
L 40.834711 47.888287 
L 41.603306 46.193761 
L 42.371901 44.499236 
L 43.140496 42.80471 
L 43.909091 41.110184 
L 44.677686 39.415659 
L 45.446281 37.721133 
L 46.214876 36.026607 
L 46.983471 34.332082 
L 47.752066 32.637556 
L 48.520661 30.94303 
L 49.289256 29.248505 
L 50.057851 27.553979 
L 50.826446 25.859453 
L 51.595041 24.164928 
L 52.363636 22.470402 
L 53.132231 20.775876 
L 53.900826 19.081351 
L 54.669421 17.386825 
L 55.438017 15.692299 
L 56.206612 13.997774 
L 56.975207 12.303248 
L 57.743802 10.608722 
L 58.512397 8.914197 
L 59.280992 7.219671 
L 60.049587 5.525145 
L 60.818182 3.83062 
L 61.586777 2.136094 
L 62.355372 0.441568 
L 63.009232 -1 
" style="fill:none;stroke:#000000;stroke-dasharray:1.85,0.8;stroke-dashoffset:0;stroke-width:0.5;"/>
   </g>
   <g id="line2d_2">
    <defs>
     <path d="M 0 3 
C 0.795609 3 1.55874 2.683901 2.12132 2.12132 
C 2.683901 1.55874 3 0.795609 3 0 
C 3 -0.795609 2.683901 -1.55874 2.12132 -2.12132 
C 1.55874 -2.683901 0.795609 -3 0 -3 
C -0.795609 -3 -1.55874 -2.683901 -2.12132 -2.12132 
C -2.683901 -1.55874 -3 -0.795609 -3 0 
C -3 0.795609 -2.683901 1.55874 -2.12132 2.12132 
C -1.55874 2.683901 -0.795609 3 0 3 
z
" id="m88858614b4" style="stroke:#000000;"/>
    </defs>
    <g clip-path="url(#p3c2996acf6)">
     <use style="stroke:#000000;" x="32.676784" xlink:href="#m88858614b4" y="67.321909"/>
     <use style="stroke:#000000;" x="27.625529" xlink:href="#m88858614b4" y="91.907675"/>
     <use style="stroke:#000000;" x="38.445105" xlink:href="#m88858614b4" y="47.705981"/>
     <use style="stroke:#000000;" x="31.792243" xlink:href="#m88858614b4" y="72.624271"/>
     <use style="stroke:#000000;" x="30.234167" xlink:href="#m88858614b4" y="83.5384"/>
     <use style="stroke:#000000;" x="32.344408" xlink:href="#m88858614b4" y="63.224058"/>
     <use style="stroke:#000000;" x="30.0577" xlink:href="#m88858614b4" y="85.596692"/>
     <use style="stroke:#000000;" x="32.974933" xlink:href="#m88858614b4" y="65.045437"/>
     <use style="stroke:#000000;" x="37.702897" xlink:href="#m88858614b4" y="49.431273"/>
     <use style="stroke:#000000;" x="32.897864" xlink:href="#m88858614b4" y="64.993871"/>
     <use style="stroke:#000000;" x="30.837295" xlink:href="#m88858614b4" y="62.539039"/>
     <use style="stroke:#000000;" x="42.367684" xlink:href="#m88858614b4" y="54.327955"/>
     <use style="stroke:#000000;" x="36.657787" xlink:href="#m88858614b4" y="41.628087"/>
     <use style="stroke:#000000;" x="33.6508" xlink:href="#m88858614b4" y="56.901372"/>
     <use style="stroke:#000000;" x="31.509704" xlink:href="#m88858614b4" y="82.550711"/>
     <use style="stroke:#000000;" x="41.154683" xlink:href="#m88858614b4" y="50.9554"/>
     <use style="stroke:#000000;" x="46.158184" xlink:href="#m88858614b4" y="47.951144"/>
     <use style="stroke:#000000;" x="34.115599" xlink:href="#m88858614b4" y="79.371051"/>
     <use style="stroke:#000000;" x="37.168252" xlink:href="#m88858614b4" y="26.93963"/>
     <use style="stroke:#000000;" x="33.202108" xlink:href="#m88858614b4" y="34.025283"/>
     <use style="stroke:#000000;" x="27.173245" xlink:href="#m88858614b4" y="51.760444"/>
     <use style="stroke:#000000;" x="28.300721" xlink:href="#m88858614b4" y="65.030159"/>
     <use style="stroke:#000000;" x="28.873705" xlink:href="#m88858614b4" y="73.260359"/>
     <use style="stroke:#000000;" x="27.939908" xlink:href="#m88858614b4" y="85.442916"/>
     <use style="stroke:#000000;" x="33.133996" xlink:href="#m88858614b4" y="69.666741"/>
     <use style="stroke:#000000;" x="34.014258" xlink:href="#m88858614b4" y="61.442487"/>
     <use style="stroke:#000000;" x="29.460143" xlink:href="#m88858614b4" y="77.255781"/>
     <use style="stroke:#000000;" x="30.334602" xlink:href="#m88858614b4" y="82.860767"/>
     <use style="stroke:#000000;" x="35.274845" xlink:href="#m88858614b4" y="75.813107"/>
     <use style="stroke:#000000;" x="39.428344" xlink:href="#m88858614b4" y="45.134619"/>
    </g>
   </g>
   <g id="patch_3">
    <path d="M 27 94.5 
L 27 12.96 
" style="fill:none;stroke:#000000;stroke-linecap:square;stroke-linejoin:miter;"/>
   </g>
   <g id="patch_4">
    <path d="M 27 94.5 
L 103.090909 94.5 
" style="fill:none;stroke:#000000;stroke-linecap:square;stroke-linejoin:miter;"/>
   </g>
   <g id="matplotlib.axis_1">
    <g id="xtick_1">
     <g id="line2d_3"/>
     <g id="text_1">
      <text style="font-family:Arial;font-size:8px;font-style:normal;font-weight:normal;text-anchor:middle;" transform="rotate(-0, 27, 103.72625)" x="27" y="103.72625">0</text>
     </g>
    </g>
    <g id="xtick_2">
     <g id="line2d_4"/>
     <g id="text_2">
      <text style="font-family:Arial;font-size:8px;font-style:normal;font-weight:normal;text-anchor:middle;" transform="rotate(-0, 55.754481, 103.72625)" x="55.754481" y="103.72625">5</text>
     </g>
    </g>
    <g id="xtick_3">
     <g id="line2d_5"/>
     <g id="text_3">
      <text style="font-family:Arial;font-size:8px;font-style:normal;font-weight:normal;text-anchor:middle;" transform="rotate(-0, 84.508962, 103.72625)" x="84.508962" y="103.72625">10</text>
     </g>
    </g>
    <g id="text_4">
     <text style="font-family:Arial;font-size:10px;font-style:normal;font-weight:normal;text-anchor:middle;" transform="rotate(-0, 65.045455, 116.474063)" x="65.045455" y="116.474063">Exc</text>
    </g>
   </g>
   <g id="matplotlib.axis_2">
    <g id="ytick_1">
     <g id="line2d_6"/>
     <g id="text_5">
      <text style="font-family:Arial;font-size:8px;font-style:normal;font-weight:normal;text-anchor:end;" transform="rotate(-0, 23.5, 97.363125)" x="23.5" y="97.363125">0</text>
     </g>
    </g>
    <g id="ytick_2">
     <g id="line2d_7"/>
     <g id="text_6">
      <text style="font-family:Arial;font-size:8px;font-style:normal;font-weight:normal;text-anchor:end;" transform="rotate(-0, 23.5, 66.549452)" x="23.5" y="66.549452">5</text>
     </g>
    </g>
    <g id="ytick_3">
     <g id="line2d_8"/>
     <g id="text_7">
      <text style="font-family:Arial;font-size:8px;font-style:normal;font-weight:normal;text-anchor:end;" transform="rotate(-0, 23.5, 35.735779)" x="23.5" y="35.735779">10</text>
     </g>
    </g>
    <g id="text_8">
     <text style="font-family:Arial;font-size:10px;font-style:normal;font-weight:normal;text-anchor:middle;" transform="rotate(-90, 8.615, 53.73)" x="8.615" y="53.73">Inh</text>
    </g>
   </g>
   <g id="legend_1">
    <g id="line2d_9">
     <path d="M 36 75.622656 
L 56 75.622656 
" style="fill:none;stroke:#000000;stroke-dasharray:1.85,0.8;stroke-dashoffset:0;stroke-width:0.5;"/>
    </g>
    <g id="line2d_10"/>
    <g id="text_9">
     <!-- $R^2$ 0.38 -->
     <g transform="translate(64 72.875)">
      <text>
       <tspan style="font-family:DejaVu Sans;font-size:10px;font-style:oblique;font-weight:oblique;" x="0" y="-0.9765625">R</tspan>
       <tspan style="font-family:DejaVu Sans;font-size:7px;font-style:book;font-weight:book;" x="7.650794" y="-4.8046875">2</tspan>
       <tspan style="font-family:Arial;font-size:10px;font-style:regular;font-weight:regular;" x="12.377845 15.156165 20.717689 23.496009 29.057533" y="-0.9765625"> 0.38</tspan>
      </text>
     </g>
     <text style="font-family:Arial;font-size:10px;font-style:normal;font-weight:normal;" transform="translate(64 83.4875)"> slope 2.06</text>
    </g>
   </g>
  </g>
  <g id="axes_2">
   <g id="patch_5">
    <path d="M 118.309091 94.5 
L 194.4 94.5 
L 194.4 12.96 
L 118.309091 12.96 
z
" style="fill:#ffffff;"/>
   </g>
   <g id="PathCollection_1">
    <defs>
     <path d="M 0 2.44949 
C 0.649612 2.44949 1.272706 2.191396 1.732051 1.732051 
C 2.191396 1.272706 2.44949 0.649612 2.44949 0 
C 2.44949 -0.649612 2.191396 -1.272706 1.732051 -1.732051 
C 1.272706 -2.191396 0.649612 -2.44949 0 -2.44949 
C -0.649612 -2.44949 -1.272706 -2.191396 -1.732051 -1.732051 
C -2.191396 -1.272706 -2.44949 -0.649612 -2.44949 0 
C -2.44949 0.649612 -2.191396 1.272706 -1.732051 1.732051 
C -1.272706 2.191396 -0.649612 2.44949 0 2.44949 
z
" id="mf8c6f3ef70" style="stroke:#000000;"/>
    </defs>
    <g clip-path="url(#pd1caecc665)">
     <use style="stroke:#000000;" x="143.621156" xlink:href="#mf8c6f3ef70" y="42.627155"/>
     <use style="stroke:#000000;" x="121.641504" xlink:href="#mf8c6f3ef70" y="90.433219"/>
     <use style="stroke:#000000;" x="160.43599" xlink:href="#mf8c6f3ef70" y="80.575528"/>
     <use style="stroke:#000000;" x="138.453189" xlink:href="#mf8c6f3ef70" y="73.259628"/>
     <use style="stroke:#000000;" x="126.802113" xlink:href="#mf8c6f3ef70" y="85.057317"/>
     <use style="stroke:#000000;" x="136.921985" xlink:href="#mf8c6f3ef70" y="77.547261"/>
     <use style="stroke:#000000;" x="129.04925" xlink:href="#mf8c6f3ef70" y="85.847214"/>
     <use style="stroke:#000000;" x="143.798732" xlink:href="#mf8c6f3ef70" y="71.531902"/>
     <use style="stroke:#000000;" x="190.512643" xlink:href="#mf8c6f3ef70" y="17.379505"/>
     <use style="stroke:#000000;" x="137.047605" xlink:href="#mf8c6f3ef70" y="79.708265"/>
     <use style="stroke:#000000;" x="134.451168" xlink:href="#mf8c6f3ef70" y="81.954734"/>
     <use style="stroke:#000000;" x="141.300154" xlink:href="#mf8c6f3ef70" y="51.455935"/>
     <use style="stroke:#000000;" x="165.5008" xlink:href="#mf8c6f3ef70" y="46.019364"/>
     <use style="stroke:#000000;" x="137.869461" xlink:href="#mf8c6f3ef70" y="43.994139"/>
     <use style="stroke:#000000;" x="137.158736" xlink:href="#mf8c6f3ef70" y="78.894781"/>
     <use style="stroke:#000000;" x="173.154629" xlink:href="#mf8c6f3ef70" y="17.525986"/>
     <use style="stroke:#000000;" x="156.118322" xlink:href="#mf8c6f3ef70" y="64.158562"/>
     <use style="stroke:#000000;" x="143.90904" xlink:href="#mf8c6f3ef70" y="74.688751"/>
     <use style="stroke:#000000;" x="162.80063" xlink:href="#mf8c6f3ef70" y="59.54849"/>
     <use style="stroke:#000000;" x="160.063554" xlink:href="#mf8c6f3ef70" y="35.764712"/>
     <use style="stroke:#000000;" x="119.768382" xlink:href="#mf8c6f3ef70" y="77.710653"/>
     <use style="stroke:#000000;" x="125.443477" xlink:href="#mf8c6f3ef70" y="64.668878"/>
     <use style="stroke:#000000;" x="125.938017" xlink:href="#mf8c6f3ef70" y="80.960378"/>
     <use style="stroke:#000000;" x="122.349768" xlink:href="#mf8c6f3ef70" y="82.910906"/>
     <use style="stroke:#000000;" x="139.167691" xlink:href="#mf8c6f3ef70" y="57.531783"/>
     <use style="stroke:#000000;" x="146.060531" xlink:href="#mf8c6f3ef70" y="72.281786"/>
     <use style="stroke:#000000;" x="139.03156" xlink:href="#mf8c6f3ef70" y="87.400201"/>
     <use style="stroke:#000000;" x="128.190407" xlink:href="#mf8c6f3ef70" y="82.75804"/>
     <use style="stroke:#000000;" x="133.258342" xlink:href="#mf8c6f3ef70" y="79.717698"/>
     <use style="stroke:#000000;" x="169.46638" xlink:href="#mf8c6f3ef70" y="58.758595"/>
    </g>
   </g>
   <g id="line2d_11">
    <path clip-path="url(#pd1caecc665)" d="M 118.309091 88.169215 
L 119.077686 87.501998 
L 119.846281 86.83478 
L 120.614876 86.167562 
L 121.383471 85.500345 
L 122.152066 84.833127 
L 122.920661 84.165909 
L 123.689256 83.498692 
L 124.457851 82.831474 
L 125.226446 82.164257 
L 125.995041 81.497039 
L 126.763636 80.829821 
L 127.532231 80.162604 
L 128.300826 79.495386 
L 129.069421 78.828169 
L 129.838017 78.160951 
L 130.606612 77.493733 
L 131.375207 76.826516 
L 132.143802 76.159298 
L 132.912397 75.49208 
L 133.680992 74.824863 
L 134.449587 74.157645 
L 135.218182 73.490428 
L 135.986777 72.82321 
L 136.755372 72.155992 
L 137.523967 71.488775 
L 138.292562 70.821557 
L 139.061157 70.154339 
L 139.829752 69.487122 
L 140.598347 68.819904 
L 141.366942 68.152687 
L 142.135537 67.485469 
L 142.904132 66.818251 
L 143.672727 66.151034 
L 144.441322 65.483816 
L 145.209917 64.816599 
L 145.978512 64.149381 
L 146.747107 63.482163 
L 147.515702 62.814946 
L 148.284298 62.147728 
L 149.052893 61.48051 
L 149.821488 60.813293 
L 150.590083 60.146075 
L 151.358678 59.478858 
L 152.127273 58.81164 
L 152.895868 58.144422 
L 153.664463 57.477205 
L 154.433058 56.809987 
L 155.201653 56.14277 
L 155.970248 55.475552 
L 156.738843 54.808334 
L 157.507438 54.141117 
L 158.276033 53.473899 
L 159.044628 52.806681 
L 159.813223 52.139464 
L 160.581818 51.472246 
L 161.350413 50.805029 
L 162.119008 50.137811 
L 162.887603 49.470593 
L 163.656198 48.803376 
L 164.424793 48.136158 
L 165.193388 47.46894 
L 165.961983 46.801723 
L 166.730579 46.134505 
L 167.499174 45.467288 
L 168.267769 44.80007 
L 169.036364 44.132852 
L 169.804959 43.465635 
L 170.573554 42.798417 
L 171.342149 42.1312 
L 172.110744 41.463982 
L 172.879339 40.796764 
L 173.647934 40.129547 
L 174.416529 39.462329 
L 175.185124 38.795111 
L 175.953719 38.127894 
L 176.722314 37.460676 
L 177.490909 36.793459 
L 178.259504 36.126241 
L 179.028099 35.459023 
L 179.796694 34.791806 
L 180.565289 34.124588 
L 181.333884 33.457371 
L 182.102479 32.790153 
L 182.871074 32.122935 
L 183.639669 31.455718 
L 184.408264 30.7885 
L 185.17686 30.121282 
L 185.945455 29.454065 
L 186.71405 28.786847 
L 187.482645 28.11963 
L 188.25124 27.452412 
L 189.019835 26.785194 
L 189.78843 26.117977 
L 190.557025 25.450759 
L 191.32562 24.783541 
L 192.094215 24.116324 
L 192.86281 23.449106 
L 193.631405 22.781889 
L 194.4 22.114671 
" style="fill:none;stroke:#000000;stroke-dasharray:1.85,0.8;stroke-dashoffset:0;stroke-width:0.5;"/>
   </g>
   <g id="patch_6">
    <path d="M 118.309091 94.5 
L 118.309091 12.96 
" style="fill:none;stroke:#000000;stroke-linecap:square;stroke-linejoin:miter;"/>
   </g>
   <g id="patch_7">
    <path d="M 118.309091 94.5 
L 194.4 94.5 
" style="fill:none;stroke:#000000;stroke-linecap:square;stroke-linejoin:miter;"/>
   </g>
   <g id="matplotlib.axis_3">
    <g id="xtick_4">
     <g id="line2d_12"/>
     <g id="text_10">
      <text style="font-family:Arial;font-size:8px;font-style:normal;font-weight:normal;text-anchor:middle;" transform="rotate(-0, 118.309091, 103.72625)" x="118.309091" y="103.72625">0</text>
     </g>
    </g>
    <g id="xtick_5">
     <g id="line2d_13"/>
     <g id="text_11">
      <text style="font-family:Arial;font-size:8px;font-style:normal;font-weight:normal;text-anchor:middle;" transform="rotate(-0, 157.861325, 103.72625)" x="157.861325" y="103.72625">2</text>
     </g>
    </g>
    <g id="text_12">
     <!-- $\sigma$(Exc) -->
     <g transform="translate(141.504545 116.61625)">
      <text>
       <tspan style="font-family:DejaVu Sans;font-size:10px;font-style:oblique;font-weight:oblique;" x="0" y="-0.71875">σ</tspan>
       <tspan style="font-family:Arial;font-size:10px;font-style:regular;font-weight:regular;" x="6.337891 9.667969 16.337891 21.337891 26.337891" y="-0.71875">(Exc)</tspan>
      </text>
     </g>
    </g>
   </g>
   <g id="matplotlib.axis_4">
    <g id="ytick_4">
     <g id="line2d_14"/>
     <g id="text_13">
      <text style="font-family:Arial;font-size:8px;font-style:normal;font-weight:normal;text-anchor:end;" transform="rotate(-0, 114.809091, 97.363125)" x="114.809091" y="97.363125">0</text>
     </g>
    </g>
    <g id="ytick_5">
     <g id="line2d_15"/>
     <g id="text_14">
      <text style="font-family:Arial;font-size:8px;font-style:normal;font-weight:normal;text-anchor:end;" transform="rotate(-0, 114.809091, 76.170783)" x="114.809091" y="76.170783">1</text>
     </g>
    </g>
    <g id="ytick_6">
     <g id="line2d_16"/>
     <g id="text_15">
      <text style="font-family:Arial;font-size:8px;font-style:normal;font-weight:normal;text-anchor:end;" transform="rotate(-0, 114.809091, 54.978441)" x="114.809091" y="54.978441">2</text>
     </g>
    </g>
    <g id="ytick_7">
     <g id="line2d_17"/>
     <g id="text_16">
      <text style="font-family:Arial;font-size:8px;font-style:normal;font-weight:normal;text-anchor:end;" transform="rotate(-0, 114.809091, 33.786099)" x="114.809091" y="33.786099">3</text>
     </g>
    </g>
    <g id="text_17">
     <!-- $\sigma$(Inh) -->
     <g transform="translate(104.160341 67.18)rotate(-90)">
      <text>
       <tspan style="font-family:DejaVu Sans;font-size:10px;font-style:oblique;font-weight:oblique;" x="0" y="-0.71875">σ</tspan>
       <tspan style="font-family:Arial;font-size:10px;font-style:regular;font-weight:regular;" x="6.337891 9.667969 12.446289 18.007812 23.569336" y="-0.71875">(Inh)</tspan>
      </text>
     </g>
    </g>
   </g>
   <g id="legend_2">
    <g id="line2d_18">
     <path d="M 108.478125 31.995156 
L 128.478125 31.995156 
" style="fill:none;stroke:#000000;stroke-dasharray:1.85,0.8;stroke-dashoffset:0;stroke-width:0.5;"/>
    </g>
    <g id="line2d_19"/>
    <g id="text_18">
     <!-- $R^2$ 0.56 -->
     <g transform="translate(136.478125 29.2475)">
      <text>
       <tspan style="font-family:DejaVu Sans;font-size:10px;font-style:oblique;font-weight:oblique;" x="0" y="-0.9765625">R</tspan>
       <tspan style="font-family:DejaVu Sans;font-size:7px;font-style:book;font-weight:book;" x="7.650794" y="-4.8046875">2</tspan>
       <tspan style="font-family:Arial;font-size:10px;font-style:regular;font-weight:regular;" x="12.377845 15.156165 20.717689 23.496009 29.057533" y="-0.9765625"> 0.56</tspan>
      </text>
     </g>
     <text style="font-family:Arial;font-size:10px;font-style:normal;font-weight:normal;" transform="translate(136.478125 39.86)"> slope 0.81</text>
    </g>
   </g>
  </g>
 </g>
 <defs>
  <clipPath id="p3c2996acf6">
   <rect height="81.54" width="76.090909" x="27" y="12.96"/>
  </clipPath>
  <clipPath id="pd1caecc665">
   <rect height="81.54" width="76.090909" x="118.309091" y="12.96"/>
  </clipPath>
 </defs>
</svg>
