<?xml version="1.0" encoding="utf-8" standalone="no"?>
<!DOCTYPE svg PUBLIC "-//W3C//DTD SVG 1.1//EN"
  "http://www.w3.org/Graphics/SVG/1.1/DTD/svg11.dtd">
<!-- Created with matplotlib (http://matplotlib.org/) -->
<svg height="108pt" version="1.1" viewBox="0 0 216 108" width="216pt" xmlns="http://www.w3.org/2000/svg" xmlns:xlink="http://www.w3.org/1999/xlink">
 <defs>
  <style type="text/css">
*{stroke-linecap:butt;stroke-linejoin:round;}
  </style>
 </defs>
 <g id="figure_1">
  <g id="patch_1">
   <path d="M 0 108 
L 216 108 
L 216 0 
L 0 0 
z
" style="fill:#ffffff;"/>
  </g>
  <g id="axes_1">
   <g id="patch_2">
    <path d="M 27 94.5 
L 103.090909 94.5 
L 103.090909 12.96 
L 27 12.96 
z
" style="fill:#ffffff;"/>
   </g>
   <g id="LineCollection_1">
    <path clip-path="url(#pedc1840410)" d="M 31.295823 63.570122 
L 38.724165 63.570122 
" style="fill:none;stroke:#000000;stroke-width:0.5;"/>
    <path clip-path="url(#pedc1840410)" d="M 25.866763 79.186935 
L 33.095 79.186935 
" style="fill:none;stroke:#000000;stroke-width:0.5;"/>
    <path clip-path="url(#pedc1840410)" d="M 29.297216 82.971059 
L 36.500586 82.971059 
" style="fill:none;stroke:#000000;stroke-width:0.5;"/>
    <path clip-path="url(#pedc1840410)" d="M 34.577841 59.41616 
L 47.31476 59.41616 
" style="fill:none;stroke:#000000;stroke-width:0.5;"/>
    <path clip-path="url(#pedc1840410)" d="M 26.731713 83.736631 
L 32.890089 83.736631 
" style="fill:none;stroke:#000000;stroke-width:0.5;"/>
    <path clip-path="url(#pedc1840410)" d="M 29.886594 68.009064 
L 39.643328 68.009064 
" style="fill:none;stroke:#000000;stroke-width:0.5;"/>
    <path clip-path="url(#pedc1840410)" d="M 26.40938 83.073107 
L 34.272122 83.073107 
" style="fill:none;stroke:#000000;stroke-width:0.5;"/>
    <path clip-path="url(#pedc1840410)" d="M 27.014204 41.44698 
L 57.004104 41.44698 
" style="fill:none;stroke:#000000;stroke-width:0.5;"/>
    <path clip-path="url(#pedc1840410)" d="M 26.898873 70.616105 
L 37.31201 70.616105 
" style="fill:none;stroke:#000000;stroke-width:0.5;"/>
    <path clip-path="url(#pedc1840410)" d="M 26.732614 74.095502 
L 38.08156 74.095502 
" style="fill:none;stroke:#000000;stroke-width:0.5;"/>
    <path clip-path="url(#pedc1840410)" d="M 25.188243 80.284662 
L 33.105513 80.284662 
" style="fill:none;stroke:#000000;stroke-width:0.5;"/>
    <path clip-path="url(#pedc1840410)" d="M 30.417939 57.923318 
L 43.637851 57.923318 
" style="fill:none;stroke:#000000;stroke-width:0.5;"/>
    <path clip-path="url(#pedc1840410)" d="M 27.528043 84.471096 
L 32.590484 84.471096 
" style="fill:none;stroke:#000000;stroke-width:0.5;"/>
    <path clip-path="url(#pedc1840410)" d="M 26.281779 86.40927 
L 30.329033 86.40927 
" style="fill:none;stroke:#000000;stroke-width:0.5;"/>
    <path clip-path="url(#pedc1840410)" d="M 37.474323 31.314447 
L 68.707982 31.314447 
" style="fill:none;stroke:#000000;stroke-width:0.5;"/>
    <path clip-path="url(#pedc1840410)" d="M 26.571297 87.130256 
L 35.036469 87.130256 
" style="fill:none;stroke:#000000;stroke-width:0.5;"/>
    <path clip-path="url(#pedc1840410)" d="M 31.926883 39.422561 
L 55.455739 39.422561 
" style="fill:none;stroke:#000000;stroke-width:0.5;"/>
    <path clip-path="url(#pedc1840410)" d="M 26.295195 79.116538 
L 30.726845 79.116538 
" style="fill:none;stroke:#000000;stroke-width:0.5;"/>
    <path clip-path="url(#pedc1840410)" d="M 26.586435 83.495413 
L 33.899962 83.495413 
" style="fill:none;stroke:#000000;stroke-width:0.5;"/>
    <path clip-path="url(#pedc1840410)" d="M 26.121433 65.200543 
L 38.484955 65.200543 
" style="fill:none;stroke:#000000;stroke-width:0.5;"/>
    <path clip-path="url(#pedc1840410)" d="M 24.842292 80.750381 
L 32.134906 80.750381 
" style="fill:none;stroke:#000000;stroke-width:0.5;"/>
    <path clip-path="url(#pedc1840410)" d="M 27 94.5 
L 27 94.5 
" style="fill:none;stroke:#000000;stroke-width:0.5;"/>
    <path clip-path="url(#pedc1840410)" d="M 25.733684 77.711284 
L 33.82753 77.711284 
" style="fill:none;stroke:#000000;stroke-width:0.5;"/>
    <path clip-path="url(#pedc1840410)" d="M 25.874023 75.965491 
L 34.957602 75.965491 
" style="fill:none;stroke:#000000;stroke-width:0.5;"/>
    <path clip-path="url(#pedc1840410)" d="M 27.101559 67.915766 
L 38.781165 67.915766 
" style="fill:none;stroke:#000000;stroke-width:0.5;"/>
    <path clip-path="url(#pedc1840410)" d="M 27.312657 69.863848 
L 39.733104 69.863848 
" style="fill:none;stroke:#000000;stroke-width:0.5;"/>
    <path clip-path="url(#pedc1840410)" d="M 36.519529 62.694771 
L 47.574158 62.694771 
" style="fill:none;stroke:#000000;stroke-width:0.5;"/>
    <path clip-path="url(#pedc1840410)" d="M 26.989524 75.853467 
L 37.584051 75.853467 
" style="fill:none;stroke:#000000;stroke-width:0.5;"/>
    <path clip-path="url(#pedc1840410)" d="M 26.251769 72.186569 
L 34.134102 72.186569 
" style="fill:none;stroke:#000000;stroke-width:0.5;"/>
    <path clip-path="url(#pedc1840410)" d="M 24.650277 83.494454 
L 37.906721 83.494454 
" style="fill:none;stroke:#000000;stroke-width:0.5;"/>
   </g>
   <g id="LineCollection_2">
    <path clip-path="url(#pedc1840410)" d="M 35.009994 70.763707 
L 35.009994 56.376537 
" style="fill:none;stroke:#000000;stroke-width:0.5;"/>
    <path clip-path="url(#pedc1840410)" d="M 29.480882 82.5872 
L 29.480882 75.78667 
" style="fill:none;stroke:#000000;stroke-width:0.5;"/>
    <path clip-path="url(#pedc1840410)" d="M 32.898901 89.426896 
L 32.898901 76.515222 
" style="fill:none;stroke:#000000;stroke-width:0.5;"/>
    <path clip-path="url(#pedc1840410)" d="M 40.946301 65.53768 
L 40.946301 53.294639 
" style="fill:none;stroke:#000000;stroke-width:0.5;"/>
    <path clip-path="url(#pedc1840410)" d="M 29.810901 85.867057 
L 29.810901 81.606205 
" style="fill:none;stroke:#000000;stroke-width:0.5;"/>
    <path clip-path="url(#pedc1840410)" d="M 34.764961 73.233175 
L 34.764961 62.784953 
" style="fill:none;stroke:#000000;stroke-width:0.5;"/>
    <path clip-path="url(#pedc1840410)" d="M 30.340751 86.669292 
L 30.340751 79.476921 
" style="fill:none;stroke:#000000;stroke-width:0.5;"/>
    <path clip-path="url(#pedc1840410)" d="M 42.009154 44.851542 
L 42.009154 38.042418 
" style="fill:none;stroke:#000000;stroke-width:0.5;"/>
    <path clip-path="url(#pedc1840410)" d="M 32.105442 75.913804 
L 32.105442 65.318406 
" style="fill:none;stroke:#000000;stroke-width:0.5;"/>
    <path clip-path="url(#pedc1840410)" d="M 32.407087 76.879847 
L 32.407087 71.311156 
" style="fill:none;stroke:#000000;stroke-width:0.5;"/>
    <path clip-path="url(#pedc1840410)" d="M 29.146878 83.216286 
L 29.146878 77.353038 
" style="fill:none;stroke:#000000;stroke-width:0.5;"/>
    <path clip-path="url(#pedc1840410)" d="M 37.027895 63.104518 
L 37.027895 52.742118 
" style="fill:none;stroke:#000000;stroke-width:0.5;"/>
    <path clip-path="url(#pedc1840410)" d="M 30.059264 88.078969 
L 30.059264 80.863224 
" style="fill:none;stroke:#000000;stroke-width:0.5;"/>
    <path clip-path="url(#pedc1840410)" d="M 28.305406 88.208333 
L 28.305406 84.610208 
" style="fill:none;stroke:#000000;stroke-width:0.5;"/>
    <path clip-path="url(#pedc1840410)" d="M 53.091152 45.786036 
L 53.091152 16.842857 
" style="fill:none;stroke:#000000;stroke-width:0.5;"/>
    <path clip-path="url(#pedc1840410)" d="M 30.803883 88.385411 
L 30.803883 85.875101 
" style="fill:none;stroke:#000000;stroke-width:0.5;"/>
    <path clip-path="url(#pedc1840410)" d="M 43.691311 48.707813 
L 43.691311 30.137308 
" style="fill:none;stroke:#000000;stroke-width:0.5;"/>
    <path clip-path="url(#pedc1840410)" d="M 28.51102 82.568185 
L 28.51102 75.664891 
" style="fill:none;stroke:#000000;stroke-width:0.5;"/>
    <path clip-path="url(#pedc1840410)" d="M 30.243199 85.400521 
L 30.243199 81.590305 
" style="fill:none;stroke:#000000;stroke-width:0.5;"/>
    <path clip-path="url(#pedc1840410)" d="M 32.303194 72.289109 
L 32.303194 58.111977 
" style="fill:none;stroke:#000000;stroke-width:0.5;"/>
    <path clip-path="url(#pedc1840410)" d="M 28.488599 82.701251 
L 28.488599 78.799511 
" style="fill:none;stroke:#000000;stroke-width:0.5;"/>
    <path clip-path="url(#pedc1840410)" d="M 27 94.5 
L 27 94.5 
" style="fill:none;stroke:#000000;stroke-width:0.5;"/>
    <path clip-path="url(#pedc1840410)" d="M 29.780607 80.899486 
L 29.780607 74.523083 
" style="fill:none;stroke:#000000;stroke-width:0.5;"/>
    <path clip-path="url(#pedc1840410)" d="M 30.415812 84.116567 
L 30.415812 67.814415 
" style="fill:none;stroke:#000000;stroke-width:0.5;"/>
    <path clip-path="url(#pedc1840410)" d="M 32.941362 72.94181 
L 32.941362 62.889722 
" style="fill:none;stroke:#000000;stroke-width:0.5;"/>
    <path clip-path="url(#pedc1840410)" d="M 33.522881 73.405771 
L 33.522881 66.321925 
" style="fill:none;stroke:#000000;stroke-width:0.5;"/>
    <path clip-path="url(#pedc1840410)" d="M 42.046843 74.284721 
L 42.046843 51.104821 
" style="fill:none;stroke:#000000;stroke-width:0.5;"/>
    <path clip-path="url(#pedc1840410)" d="M 32.286788 81.809976 
L 32.286788 69.896958 
" style="fill:none;stroke:#000000;stroke-width:0.5;"/>
    <path clip-path="url(#pedc1840410)" d="M 30.192936 78.067986 
L 30.192936 66.305152 
" style="fill:none;stroke:#000000;stroke-width:0.5;"/>
    <path clip-path="url(#pedc1840410)" d="M 31.278499 88.886048 
L 31.278499 78.102859 
" style="fill:none;stroke:#000000;stroke-width:0.5;"/>
   </g>
   <g id="line2d_1">
    <path clip-path="url(#pedc1840410)" d="M 27 87.042651 
L 27.768595 85.233189 
L 28.53719 83.423726 
L 29.305785 81.614264 
L 30.07438 79.804801 
L 30.842975 77.995339 
L 31.61157 76.185877 
L 32.380165 74.376414 
L 33.14876 72.566952 
L 33.917355 70.757489 
L 34.68595 68.948027 
L 35.454545 67.138564 
L 36.22314 65.329102 
L 36.991736 63.519639 
L 37.760331 61.710177 
L 38.528926 59.900714 
L 39.297521 58.091252 
L 40.066116 56.281789 
L 40.834711 54.472327 
L 41.603306 52.662864 
L 42.371901 50.853402 
L 43.140496 49.043939 
L 43.909091 47.234477 
L 44.677686 45.425014 
L 45.446281 43.615552 
L 46.214876 41.806089 
L 46.983471 39.996627 
L 47.752066 38.187164 
L 48.520661 36.377702 
L 49.289256 34.568239 
L 50.057851 32.758777 
L 50.826446 30.949314 
L 51.595041 29.139852 
L 52.363636 27.330389 
L 53.132231 25.520927 
L 53.900826 23.711464 
L 54.669421 21.902002 
L 55.438017 20.092539 
L 56.206612 18.283077 
L 56.975207 16.473615 
L 57.743802 14.664152 
L 58.512397 12.85469 
L 59.280992 11.045227 
L 60.049587 9.235765 
L 60.818182 7.426302 
L 61.586777 5.61684 
L 62.355372 3.807377 
L 63.123967 1.997915 
L 63.892562 0.188452 
L 64.397374 -1 
" style="fill:none;stroke:#000000;stroke-dasharray:1.85,0.8;stroke-dashoffset:0;stroke-width:0.5;"/>
   </g>
   <g id="line2d_2">
    <defs>
     <path d="M 0 3 
C 0.795609 3 1.55874 2.683901 2.12132 2.12132 
C 2.683901 1.55874 3 0.795609 3 0 
C 3 -0.795609 2.683901 -1.55874 2.12132 -2.12132 
C 1.55874 -2.683901 0.795609 -3 0 -3 
C -0.795609 -3 -1.55874 -2.683901 -2.12132 -2.12132 
C -2.683901 -1.55874 -3 -0.795609 -3 0 
C -3 0.795609 -2.683901 1.55874 -2.12132 2.12132 
C -1.55874 2.683901 -0.795609 3 0 3 
z
" id="m48509bd785" style="stroke:#000000;"/>
    </defs>
    <g clip-path="url(#pedc1840410)">
     <use style="stroke:#000000;" x="35.009994" xlink:href="#m48509bd785" y="63.570122"/>
     <use style="stroke:#000000;" x="29.480882" xlink:href="#m48509bd785" y="79.186935"/>
     <use style="stroke:#000000;" x="32.898901" xlink:href="#m48509bd785" y="82.971059"/>
     <use style="stroke:#000000;" x="40.946301" xlink:href="#m48509bd785" y="59.41616"/>
     <use style="stroke:#000000;" x="29.810901" xlink:href="#m48509bd785" y="83.736631"/>
     <use style="stroke:#000000;" x="34.764961" xlink:href="#m48509bd785" y="68.009064"/>
     <use style="stroke:#000000;" x="30.340751" xlink:href="#m48509bd785" y="83.073107"/>
     <use style="stroke:#000000;" x="42.009154" xlink:href="#m48509bd785" y="41.44698"/>
     <use style="stroke:#000000;" x="32.105442" xlink:href="#m48509bd785" y="70.616105"/>
     <use style="stroke:#000000;" x="32.407087" xlink:href="#m48509bd785" y="74.095502"/>
     <use style="stroke:#000000;" x="29.146878" xlink:href="#m48509bd785" y="80.284662"/>
     <use style="stroke:#000000;" x="37.027895" xlink:href="#m48509bd785" y="57.923318"/>
     <use style="stroke:#000000;" x="30.059264" xlink:href="#m48509bd785" y="84.471096"/>
     <use style="stroke:#000000;" x="28.305406" xlink:href="#m48509bd785" y="86.40927"/>
     <use style="stroke:#000000;" x="53.091152" xlink:href="#m48509bd785" y="31.314447"/>
     <use style="stroke:#000000;" x="30.803883" xlink:href="#m48509bd785" y="87.130256"/>
     <use style="stroke:#000000;" x="43.691311" xlink:href="#m48509bd785" y="39.422561"/>
     <use style="stroke:#000000;" x="28.51102" xlink:href="#m48509bd785" y="79.116538"/>
     <use style="stroke:#000000;" x="30.243199" xlink:href="#m48509bd785" y="83.495413"/>
     <use style="stroke:#000000;" x="32.303194" xlink:href="#m48509bd785" y="65.200543"/>
     <use style="stroke:#000000;" x="28.488599" xlink:href="#m48509bd785" y="80.750381"/>
     <use style="stroke:#000000;" x="27" xlink:href="#m48509bd785" y="94.5"/>
     <use style="stroke:#000000;" x="29.780607" xlink:href="#m48509bd785" y="77.711284"/>
     <use style="stroke:#000000;" x="30.415812" xlink:href="#m48509bd785" y="75.965491"/>
     <use style="stroke:#000000;" x="32.941362" xlink:href="#m48509bd785" y="67.915766"/>
     <use style="stroke:#000000;" x="33.522881" xlink:href="#m48509bd785" y="69.863848"/>
     <use style="stroke:#000000;" x="42.046843" xlink:href="#m48509bd785" y="62.694771"/>
     <use style="stroke:#000000;" x="32.286788" xlink:href="#m48509bd785" y="75.853467"/>
     <use style="stroke:#000000;" x="30.192936" xlink:href="#m48509bd785" y="72.186569"/>
     <use style="stroke:#000000;" x="31.278499" xlink:href="#m48509bd785" y="83.494454"/>
    </g>
   </g>
   <g id="patch_3">
    <path d="M 27 94.5 
L 27 12.96 
" style="fill:none;stroke:#000000;stroke-linecap:square;stroke-linejoin:miter;"/>
   </g>
   <g id="patch_4">
    <path d="M 27 94.5 
L 103.090909 94.5 
" style="fill:none;stroke:#000000;stroke-linecap:square;stroke-linejoin:miter;"/>
   </g>
   <g id="matplotlib.axis_1">
    <g id="xtick_1">
     <g id="line2d_3"/>
     <g id="text_1">
      <text style="font-family:Arial;font-size:8px;font-style:normal;font-weight:normal;text-anchor:middle;" transform="rotate(-0, 27, 103.72625)" x="27" y="103.72625">0</text>
     </g>
    </g>
    <g id="xtick_2">
     <g id="line2d_4"/>
     <g id="text_2">
      <text style="font-family:Arial;font-size:8px;font-style:normal;font-weight:normal;text-anchor:middle;" transform="rotate(-0, 57.739603, 103.72625)" x="57.739603" y="103.72625">5</text>
     </g>
    </g>
    <g id="xtick_3">
     <g id="line2d_5"/>
     <g id="text_3">
      <text style="font-family:Arial;font-size:8px;font-style:normal;font-weight:normal;text-anchor:middle;" transform="rotate(-0, 88.479206, 103.72625)" x="88.479206" y="103.72625">10</text>
     </g>
    </g>
    <g id="text_4">
     <text style="font-family:Arial;font-size:10px;font-style:normal;font-weight:normal;text-anchor:middle;" transform="rotate(-0, 65.045455, 116.474063)" x="65.045455" y="116.474063">Exc</text>
    </g>
   </g>
   <g id="matplotlib.axis_2">
    <g id="ytick_1">
     <g id="line2d_6"/>
     <g id="text_5">
      <text style="font-family:Arial;font-size:8px;font-style:normal;font-weight:normal;text-anchor:end;" transform="rotate(-0, 23.5, 97.363125)" x="23.5" y="97.363125">0.0</text>
     </g>
    </g>
    <g id="ytick_2">
     <g id="line2d_7"/>
     <g id="text_6">
      <text style="font-family:Arial;font-size:8px;font-style:normal;font-weight:normal;text-anchor:end;" transform="rotate(-0, 23.5, 80.892647)" x="23.5" y="80.892647">2.5</text>
     </g>
    </g>
    <g id="ytick_3">
     <g id="line2d_8"/>
     <g id="text_7">
      <text style="font-family:Arial;font-size:8px;font-style:normal;font-weight:normal;text-anchor:end;" transform="rotate(-0, 23.5, 64.42217)" x="23.5" y="64.42217">5.0</text>
     </g>
    </g>
    <g id="ytick_4">
     <g id="line2d_9"/>
     <g id="text_8">
      <text style="font-family:Arial;font-size:8px;font-style:normal;font-weight:normal;text-anchor:end;" transform="rotate(-0, 23.5, 47.951692)" x="23.5" y="47.951692">7.5</text>
     </g>
    </g>
    <g id="ytick_5">
     <g id="line2d_10"/>
     <g id="text_9">
      <text style="font-family:Arial;font-size:8px;font-style:normal;font-weight:normal;text-anchor:end;" transform="rotate(-0, 23.5, 31.481214)" x="23.5" y="31.481214">10.0</text>
     </g>
    </g>
    <g id="text_10">
     <text style="font-family:Arial;font-size:10px;font-style:normal;font-weight:normal;text-anchor:middle;" transform="rotate(-90, 1.94375, 53.73)" x="1.94375" y="53.73">Inh</text>
    </g>
   </g>
   <g id="legend_1">
    <g id="line2d_11">
     <path d="M 36 75.622656 
L 56 75.622656 
" style="fill:none;stroke:#000000;stroke-dasharray:1.85,0.8;stroke-dashoffset:0;stroke-width:0.5;"/>
    </g>
    <g id="line2d_12"/>
    <g id="text_11">
     <!-- $R^2$ 0.84 -->
     <g transform="translate(64 72.875)">
      <text>
       <tspan style="font-family:DejaVu Sans;font-size:10px;font-style:oblique;font-weight:oblique;" x="0" y="-0.9765625">R</tspan>
       <tspan style="font-family:DejaVu Sans;font-size:7px;font-style:book;font-weight:book;" x="7.650794" y="-4.8046875">2</tspan>
       <tspan style="font-family:Arial;font-size:10px;font-style:regular;font-weight:regular;" x="12.377845 15.156165 20.717689 23.496009 29.057533" y="-0.9765625"> 0.84</tspan>
      </text>
     </g>
     <text style="font-family:Arial;font-size:10px;font-style:normal;font-weight:normal;" transform="translate(64 83.4875)"> slope 2.20</text>
    </g>
   </g>
  </g>
  <g id="axes_2">
   <g id="patch_5">
    <path d="M 118.309091 94.5 
L 194.4 94.5 
L 194.4 12.96 
L 118.309091 12.96 
z
" style="fill:#ffffff;"/>
   </g>
   <g id="PathCollection_1">
    <defs>
     <path d="M 0 2.44949 
C 0.649612 2.44949 1.272706 2.191396 1.732051 1.732051 
C 2.191396 1.272706 2.44949 0.649612 2.44949 0 
C 2.44949 -0.649612 2.191396 -1.272706 1.732051 -1.732051 
C 1.272706 -2.191396 0.649612 -2.44949 0 -2.44949 
C -0.649612 -2.44949 -1.272706 -2.191396 -1.732051 -1.732051 
C -2.191396 -1.272706 -2.44949 -0.649612 -2.44949 0 
C -2.44949 0.649612 -2.191396 1.272706 -1.732051 1.732051 
C -1.272706 2.191396 -0.649612 2.44949 0 2.44949 
z
" id="me8c2fa20fd" style="stroke:#000000;"/>
    </defs>
    <g clip-path="url(#p19bda27bf9)">
     <use style="stroke:#000000;" x="135.430483" xlink:href="#me8c2fa20fd" y="61.339387"/>
     <use style="stroke:#000000;" x="134.969267" xlink:href="#me8c2fa20fd" y="78.825635"/>
     <use style="stroke:#000000;" x="134.911951" xlink:href="#me8c2fa20fd" y="64.740218"/>
     <use style="stroke:#000000;" x="147.666086" xlink:href="#me8c2fa20fd" y="66.281332"/>
     <use style="stroke:#000000;" x="132.50337" xlink:href="#me8c2fa20fd" y="84.679274"/>
     <use style="stroke:#000000;" x="140.797134" xlink:href="#me8c2fa20fd" y="70.418165"/>
     <use style="stroke:#000000;" x="136.431721" xlink:href="#me8c2fa20fd" y="77.922491"/>
     <use style="stroke:#000000;" x="187.432032" xlink:href="#me8c2fa20fd" y="78.805827"/>
     <use style="stroke:#000000;" x="142.310059" xlink:href="#me8c2fa20fd" y="70.078942"/>
     <use style="stroke:#000000;" x="144.466982" xlink:href="#me8c2fa20fd" y="81.664869"/>
     <use style="stroke:#000000;" x="136.557401" xlink:href="#me8c2fa20fd" y="80.985951"/>
     <use style="stroke:#000000;" x="148.779323" xlink:href="#me8c2fa20fd" y="70.615974"/>
     <use style="stroke:#000000;" x="129.977381" xlink:href="#me8c2fa20fd" y="77.868617"/>
     <use style="stroke:#000000;" x="127.637502" xlink:href="#me8c2fa20fd" y="86.206775"/>
     <use style="stroke:#000000;" x="190.29874" xlink:href="#me8c2fa20fd" y="27.789619"/>
     <use style="stroke:#000000;" x="137.820247" xlink:href="#me8c2fa20fd" y="88.714051"/>
     <use style="stroke:#000000;" x="172.54014" xlink:href="#me8c2fa20fd" y="51.697327"/>
     <use style="stroke:#000000;" x="128.523486" xlink:href="#me8c2fa20fd" y="78.588776"/>
     <use style="stroke:#000000;" x="135.16585" xlink:href="#me8c2fa20fd" y="85.717932"/>
     <use style="stroke:#000000;" x="146.805452" xlink:href="#me8c2fa20fd" y="61.823498"/>
     <use style="stroke:#000000;" x="135.117648" xlink:href="#me8c2fa20fd" y="85.50698"/>
     <use style="stroke:#000000;" x="118.309091" xlink:href="#me8c2fa20fd" y="94.5"/>
     <use style="stroke:#000000;" x="136.964385" xlink:href="#me8c2fa20fd" y="79.803194"/>
     <use style="stroke:#000000;" x="139.245597" xlink:href="#me8c2fa20fd" y="56.925593"/>
     <use style="stroke:#000000;" x="145.229111" xlink:href="#me8c2fa20fd" y="71.331203"/>
     <use style="stroke:#000000;" x="146.936656" xlink:href="#me8c2fa20fd" y="78.172629"/>
     <use style="stroke:#000000;" x="143.788618" xlink:href="#me8c2fa20fd" y="41.07325"/>
     <use style="stroke:#000000;" x="142.72814" xlink:href="#me8c2fa20fd" y="67.041993"/>
     <use style="stroke:#000000;" x="136.476874" xlink:href="#me8c2fa20fd" y="67.38815"/>
     <use style="stroke:#000000;" x="148.863523" xlink:href="#me8c2fa20fd" y="69.646108"/>
    </g>
   </g>
   <g id="line2d_13">
    <path clip-path="url(#p19bda27bf9)" d="M 118.309091 85.087569 
L 119.077686 84.673206 
L 119.846281 84.258842 
L 120.614876 83.844479 
L 121.383471 83.430116 
L 122.152066 83.015753 
L 122.920661 82.60139 
L 123.689256 82.187027 
L 124.457851 81.772664 
L 125.226446 81.358301 
L 125.995041 80.943937 
L 126.763636 80.529574 
L 127.532231 80.115211 
L 128.300826 79.700848 
L 129.069421 79.286485 
L 129.838017 78.872122 
L 130.606612 78.457759 
L 131.375207 78.043396 
L 132.143802 77.629033 
L 132.912397 77.214669 
L 133.680992 76.800306 
L 134.449587 76.385943 
L 135.218182 75.97158 
L 135.986777 75.557217 
L 136.755372 75.142854 
L 137.523967 74.728491 
L 138.292562 74.314128 
L 139.061157 73.899764 
L 139.829752 73.485401 
L 140.598347 73.071038 
L 141.366942 72.656675 
L 142.135537 72.242312 
L 142.904132 71.827949 
L 143.672727 71.413586 
L 144.441322 70.999223 
L 145.209917 70.584859 
L 145.978512 70.170496 
L 146.747107 69.756133 
L 147.515702 69.34177 
L 148.284298 68.927407 
L 149.052893 68.513044 
L 149.821488 68.098681 
L 150.590083 67.684318 
L 151.358678 67.269955 
L 152.127273 66.855591 
L 152.895868 66.441228 
L 153.664463 66.026865 
L 154.433058 65.612502 
L 155.201653 65.198139 
L 155.970248 64.783776 
L 156.738843 64.369413 
L 157.507438 63.95505 
L 158.276033 63.540686 
L 159.044628 63.126323 
L 159.813223 62.71196 
L 160.581818 62.297597 
L 161.350413 61.883234 
L 162.119008 61.468871 
L 162.887603 61.054508 
L 163.656198 60.640145 
L 164.424793 60.225781 
L 165.193388 59.811418 
L 165.961983 59.397055 
L 166.730579 58.982692 
L 167.499174 58.568329 
L 168.267769 58.153966 
L 169.036364 57.739603 
L 169.804959 57.32524 
L 170.573554 56.910877 
L 171.342149 56.496513 
L 172.110744 56.08215 
L 172.879339 55.667787 
L 173.647934 55.253424 
L 174.416529 54.839061 
L 175.185124 54.424698 
L 175.953719 54.010335 
L 176.722314 53.595972 
L 177.490909 53.181608 
L 178.259504 52.767245 
L 179.028099 52.352882 
L 179.796694 51.938519 
L 180.565289 51.524156 
L 181.333884 51.109793 
L 182.102479 50.69543 
L 182.871074 50.281067 
L 183.639669 49.866703 
L 184.408264 49.45234 
L 185.17686 49.037977 
L 185.945455 48.623614 
L 186.71405 48.209251 
L 187.482645 47.794888 
L 188.25124 47.380525 
L 189.019835 46.966162 
L 189.78843 46.551798 
L 190.557025 46.137435 
L 191.32562 45.723072 
L 192.094215 45.308709 
L 192.86281 44.894346 
L 193.631405 44.479983 
L 194.4 44.06562 
" style="fill:none;stroke:#000000;stroke-dasharray:1.85,0.8;stroke-dashoffset:0;stroke-width:0.5;"/>
   </g>
   <g id="patch_6">
    <path d="M 118.309091 94.5 
L 118.309091 12.96 
" style="fill:none;stroke:#000000;stroke-linecap:square;stroke-linejoin:miter;"/>
   </g>
   <g id="patch_7">
    <path d="M 118.309091 94.5 
L 194.4 94.5 
" style="fill:none;stroke:#000000;stroke-linecap:square;stroke-linejoin:miter;"/>
   </g>
   <g id="matplotlib.axis_3">
    <g id="xtick_4">
     <g id="line2d_14"/>
     <g id="text_12">
      <text style="font-family:Arial;font-size:8px;font-style:normal;font-weight:normal;text-anchor:middle;" transform="rotate(-0, 118.309091, 103.72625)" x="118.309091" y="103.72625">0</text>
     </g>
    </g>
    <g id="xtick_5">
     <g id="line2d_15"/>
     <g id="text_13">
      <text style="font-family:Arial;font-size:8px;font-style:normal;font-weight:normal;text-anchor:middle;" transform="rotate(-0, 146.649456, 103.72625)" x="146.649456" y="103.72625">1</text>
     </g>
    </g>
    <g id="xtick_6">
     <g id="line2d_16"/>
     <g id="text_14">
      <text style="font-family:Arial;font-size:8px;font-style:normal;font-weight:normal;text-anchor:middle;" transform="rotate(-0, 174.989821, 103.72625)" x="174.989821" y="103.72625">2</text>
     </g>
    </g>
    <g id="text_15">
     <!-- $\sigma$(Exc) -->
     <g transform="translate(141.504545 116.61625)">
      <text>
       <tspan style="font-family:DejaVu Sans;font-size:10px;font-style:oblique;font-weight:oblique;" x="0" y="-0.71875">σ</tspan>
       <tspan style="font-family:Arial;font-size:10px;font-style:regular;font-weight:regular;" x="6.337891 9.667969 16.337891 21.337891 26.337891" y="-0.71875">(Exc)</tspan>
      </text>
     </g>
    </g>
   </g>
   <g id="matplotlib.axis_4">
    <g id="ytick_6">
     <g id="line2d_17"/>
     <g id="text_16">
      <text style="font-family:Arial;font-size:8px;font-style:normal;font-weight:normal;text-anchor:end;" transform="rotate(-0, 114.809091, 97.363125)" x="114.809091" y="97.363125">0</text>
     </g>
    </g>
    <g id="ytick_7">
     <g id="line2d_18"/>
     <g id="text_17">
      <text style="font-family:Arial;font-size:8px;font-style:normal;font-weight:normal;text-anchor:end;" transform="rotate(-0, 114.809091, 66.993224)" x="114.809091" y="66.993224">1</text>
     </g>
    </g>
    <g id="ytick_8">
     <g id="line2d_19"/>
     <g id="text_18">
      <text style="font-family:Arial;font-size:8px;font-style:normal;font-weight:normal;text-anchor:end;" transform="rotate(-0, 114.809091, 36.623323)" x="114.809091" y="36.623323">2</text>
     </g>
    </g>
    <g id="text_19">
     <!-- $\sigma$(Inh) -->
     <g transform="translate(104.160341 67.18)rotate(-90)">
      <text>
       <tspan style="font-family:DejaVu Sans;font-size:10px;font-style:oblique;font-weight:oblique;" x="0" y="-0.71875">σ</tspan>
       <tspan style="font-family:Arial;font-size:10px;font-style:regular;font-weight:regular;" x="6.337891 9.667969 12.446289 18.007812 23.569336" y="-0.71875">(Inh)</tspan>
      </text>
     </g>
    </g>
   </g>
   <g id="legend_2">
    <g id="line2d_20">
     <path d="M 108.478125 31.995156 
L 128.478125 31.995156 
" style="fill:none;stroke:#000000;stroke-dasharray:1.85,0.8;stroke-dashoffset:0;stroke-width:0.5;"/>
    </g>
    <g id="line2d_21"/>
    <g id="text_20">
     <!-- $R^2$ 0.35 -->
     <g transform="translate(136.478125 29.2475)">
      <text>
       <tspan style="font-family:DejaVu Sans;font-size:10px;font-style:oblique;font-weight:oblique;" x="0" y="-0.9765625">R</tspan>
       <tspan style="font-family:DejaVu Sans;font-size:7px;font-style:book;font-weight:book;" x="7.650794" y="-4.8046875">2</tspan>
       <tspan style="font-family:Arial;font-size:10px;font-style:regular;font-weight:regular;" x="12.377845 15.156165 20.717689 23.496009 29.057533" y="-0.9765625"> 0.35</tspan>
      </text>
     </g>
     <text style="font-family:Arial;font-size:10px;font-style:normal;font-weight:normal;" transform="translate(136.478125 39.86)"> slope 0.50</text>
    </g>
   </g>
  </g>
 </g>
 <defs>
  <clipPath id="pedc1840410">
   <rect height="81.54" width="76.090909" x="27" y="12.96"/>
  </clipPath>
  <clipPath id="p19bda27bf9">
   <rect height="81.54" width="76.090909" x="118.309091" y="12.96"/>
  </clipPath>
 </defs>
</svg>
