<?xml version="1.0" encoding="utf-8" standalone="no"?>
<!DOCTYPE svg PUBLIC "-//W3C//DTD SVG 1.1//EN"
  "http://www.w3.org/Graphics/SVG/1.1/DTD/svg11.dtd">
<!-- Created with matplotlib (http://matplotlib.org/) -->
<svg height="108pt" version="1.1" viewBox="0 0 216 108" width="216pt" xmlns="http://www.w3.org/2000/svg" xmlns:xlink="http://www.w3.org/1999/xlink">
 <defs>
  <style type="text/css">
*{stroke-linecap:butt;stroke-linejoin:round;}
  </style>
 </defs>
 <g id="figure_1">
  <g id="patch_1">
   <path d="M 0 108 
L 216 108 
L 216 0 
L 0 0 
z
" style="fill:#ffffff;"/>
  </g>
  <g id="axes_1">
   <g id="patch_2">
    <path d="M 27 94.5 
L 103.090909 94.5 
L 103.090909 12.96 
L 27 12.96 
z
" style="fill:#ffffff;"/>
   </g>
   <g id="LineCollection_1">
    <path clip-path="url(#pc89a9c86d4)" d="M 26.165011 88.598752 
L 29.906208 88.598752 
" style="fill:none;stroke:#000000;stroke-width:0.5;"/>
    <path clip-path="url(#pc89a9c86d4)" d="M 25.364966 78.746043 
L 34.810332 78.746043 
" style="fill:none;stroke:#000000;stroke-width:0.5;"/>
    <path clip-path="url(#pc89a9c86d4)" d="M 26.335998 78.066007 
L 30.009804 78.066007 
" style="fill:none;stroke:#000000;stroke-width:0.5;"/>
    <path clip-path="url(#pc89a9c86d4)" d="M 21.803983 34.986692 
L 46.284758 34.986692 
" style="fill:none;stroke:#000000;stroke-width:0.5;"/>
    <path clip-path="url(#pc89a9c86d4)" d="M 27.820106 56.211033 
L 37.471479 56.211033 
" style="fill:none;stroke:#000000;stroke-width:0.5;"/>
    <path clip-path="url(#pc89a9c86d4)" d="M 30.65775 50.415491 
L 64.499499 50.415491 
" style="fill:none;stroke:#000000;stroke-width:0.5;"/>
    <path clip-path="url(#pc89a9c86d4)" d="M 26.166817 86.146745 
L 33.251095 86.146745 
" style="fill:none;stroke:#000000;stroke-width:0.5;"/>
    <path clip-path="url(#pc89a9c86d4)" d="M 26.515715 86.525923 
L 30.314272 86.525923 
" style="fill:none;stroke:#000000;stroke-width:0.5;"/>
    <path clip-path="url(#pc89a9c86d4)" d="M 25.783213 79.41744 
L 39.122112 79.41744 
" style="fill:none;stroke:#000000;stroke-width:0.5;"/>
    <path clip-path="url(#pc89a9c86d4)" d="M 24.388194 55.180361 
L 39.123232 55.180361 
" style="fill:none;stroke:#000000;stroke-width:0.5;"/>
    <path clip-path="url(#pc89a9c86d4)" d="M 26.297427 72.002979 
L 33.469074 72.002979 
" style="fill:none;stroke:#000000;stroke-width:0.5;"/>
    <path clip-path="url(#pc89a9c86d4)" d="M 26.883025 80.997126 
L 29.568114 80.997126 
" style="fill:none;stroke:#000000;stroke-width:0.5;"/>
    <path clip-path="url(#pc89a9c86d4)" d="M 23.539058 64.697916 
L 39.661909 64.697916 
" style="fill:none;stroke:#000000;stroke-width:0.5;"/>
    <path clip-path="url(#pc89a9c86d4)" d="M 27 75.79256 
L 27 75.79256 
" style="fill:none;stroke:#000000;stroke-width:0.5;"/>
    <path clip-path="url(#pc89a9c86d4)" d="M 22.844326 33.404311 
L 49.369819 33.404311 
" style="fill:none;stroke:#000000;stroke-width:0.5;"/>
    <path clip-path="url(#pc89a9c86d4)" d="M 26.338152 90.439227 
L 29.921807 90.439227 
" style="fill:none;stroke:#000000;stroke-width:0.5;"/>
    <path clip-path="url(#pc89a9c86d4)" d="M 28.987308 33.903228 
L 37.653765 33.903228 
" style="fill:none;stroke:#000000;stroke-width:0.5;"/>
    <path clip-path="url(#pc89a9c86d4)" d="M 27 88.382119 
L 27 88.382119 
" style="fill:none;stroke:#000000;stroke-width:0.5;"/>
    <path clip-path="url(#pc89a9c86d4)" d="M 25.08544 42.075289 
L 36.015532 42.075289 
" style="fill:none;stroke:#000000;stroke-width:0.5;"/>
    <path clip-path="url(#pc89a9c86d4)" d="M 23.617913 73.73699 
L 42.664738 73.73699 
" style="fill:none;stroke:#000000;stroke-width:0.5;"/>
    <path clip-path="url(#pc89a9c86d4)" d="M 22.248546 73.022433 
L 38.307491 73.022433 
" style="fill:none;stroke:#000000;stroke-width:0.5;"/>
    <path clip-path="url(#pc89a9c86d4)" d="M 26.584137 75.564644 
L 37.760853 75.564644 
" style="fill:none;stroke:#000000;stroke-width:0.5;"/>
    <path clip-path="url(#pc89a9c86d4)" d="M 24.528478 66.443594 
L 43.56525 66.443594 
" style="fill:none;stroke:#000000;stroke-width:0.5;"/>
    <path clip-path="url(#pc89a9c86d4)" d="M 25.656683 53.05353 
L 41.952142 53.05353 
" style="fill:none;stroke:#000000;stroke-width:0.5;"/>
    <path clip-path="url(#pc89a9c86d4)" d="M 31.59844 73.808589 
L 35.424002 73.808589 
" style="fill:none;stroke:#000000;stroke-width:0.5;"/>
    <path clip-path="url(#pc89a9c86d4)" d="M 27.632789 59.547666 
L 37.829213 59.547666 
" style="fill:none;stroke:#000000;stroke-width:0.5;"/>
    <path clip-path="url(#pc89a9c86d4)" d="M 26.034238 73.977598 
L 34.578351 73.977598 
" style="fill:none;stroke:#000000;stroke-width:0.5;"/>
    <path clip-path="url(#pc89a9c86d4)" d="M 30.167891 52.831739 
L 39.225438 52.831739 
" style="fill:none;stroke:#000000;stroke-width:0.5;"/>
    <path clip-path="url(#pc89a9c86d4)" d="M 26.059412 53.979288 
L 29.238409 53.979288 
" style="fill:none;stroke:#000000;stroke-width:0.5;"/>
    <path clip-path="url(#pc89a9c86d4)" d="M 25.215896 62.677003 
L 37.179112 62.677003 
" style="fill:none;stroke:#000000;stroke-width:0.5;"/>
   </g>
   <g id="LineCollection_2">
    <path clip-path="url(#pc89a9c86d4)" d="M 28.035609 90.716058 
L 28.035609 86.481445 
" style="fill:none;stroke:#000000;stroke-width:0.5;"/>
    <path clip-path="url(#pc89a9c86d4)" d="M 30.087649 86.129213 
L 30.087649 71.362873 
" style="fill:none;stroke:#000000;stroke-width:0.5;"/>
    <path clip-path="url(#pc89a9c86d4)" d="M 28.172901 80.593265 
L 28.172901 75.53875 
" style="fill:none;stroke:#000000;stroke-width:0.5;"/>
    <path clip-path="url(#pc89a9c86d4)" d="M 34.04437 38.675726 
L 34.04437 31.297658 
" style="fill:none;stroke:#000000;stroke-width:0.5;"/>
    <path clip-path="url(#pc89a9c86d4)" d="M 32.645793 64.093196 
L 32.645793 48.32887 
" style="fill:none;stroke:#000000;stroke-width:0.5;"/>
    <path clip-path="url(#pc89a9c86d4)" d="M 47.578624 70.237629 
L 47.578624 30.593354 
" style="fill:none;stroke:#000000;stroke-width:0.5;"/>
    <path clip-path="url(#pc89a9c86d4)" d="M 29.708956 88.470806 
L 29.708956 83.822683 
" style="fill:none;stroke:#000000;stroke-width:0.5;"/>
    <path clip-path="url(#pc89a9c86d4)" d="M 28.414994 88.392764 
L 28.414994 84.659082 
" style="fill:none;stroke:#000000;stroke-width:0.5;"/>
    <path clip-path="url(#pc89a9c86d4)" d="M 32.452663 84.927806 
L 32.452663 73.907073 
" style="fill:none;stroke:#000000;stroke-width:0.5;"/>
    <path clip-path="url(#pc89a9c86d4)" d="M 31.755713 63.894724 
L 31.755713 46.465997 
" style="fill:none;stroke:#000000;stroke-width:0.5;"/>
    <path clip-path="url(#pc89a9c86d4)" d="M 29.88325 76.936927 
L 29.88325 67.069031 
" style="fill:none;stroke:#000000;stroke-width:0.5;"/>
    <path clip-path="url(#pc89a9c86d4)" d="M 28.22557 81.776345 
L 28.22557 80.217907 
" style="fill:none;stroke:#000000;stroke-width:0.5;"/>
    <path clip-path="url(#pc89a9c86d4)" d="M 31.600484 75.553793 
L 31.600484 53.842038 
" style="fill:none;stroke:#000000;stroke-width:0.5;"/>
    <path clip-path="url(#pc89a9c86d4)" d="M 27 80.607589 
L 27 70.977531 
" style="fill:none;stroke:#000000;stroke-width:0.5;"/>
    <path clip-path="url(#pc89a9c86d4)" d="M 36.107072 44.540609 
L 36.107072 22.268013 
" style="fill:none;stroke:#000000;stroke-width:0.5;"/>
    <path clip-path="url(#pc89a9c86d4)" d="M 28.129979 91.046464 
L 28.129979 89.831991 
" style="fill:none;stroke:#000000;stroke-width:0.5;"/>
    <path clip-path="url(#pc89a9c86d4)" d="M 33.320536 51.128053 
L 33.320536 16.678403 
" style="fill:none;stroke:#000000;stroke-width:0.5;"/>
    <path clip-path="url(#pc89a9c86d4)" d="M 27 90.483162 
L 27 86.281076 
" style="fill:none;stroke:#000000;stroke-width:0.5;"/>
    <path clip-path="url(#pc89a9c86d4)" d="M 30.550486 53.368019 
L 30.550486 30.782558 
" style="fill:none;stroke:#000000;stroke-width:0.5;"/>
    <path clip-path="url(#pc89a9c86d4)" d="M 33.141326 81.219323 
L 33.141326 66.254657 
" style="fill:none;stroke:#000000;stroke-width:0.5;"/>
    <path clip-path="url(#pc89a9c86d4)" d="M 30.278018 82.815121 
L 30.278018 63.229744 
" style="fill:none;stroke:#000000;stroke-width:0.5;"/>
    <path clip-path="url(#pc89a9c86d4)" d="M 32.172495 83.731396 
L 32.172495 67.397892 
" style="fill:none;stroke:#000000;stroke-width:0.5;"/>
    <path clip-path="url(#pc89a9c86d4)" d="M 34.046864 72.485854 
L 34.046864 60.401334 
" style="fill:none;stroke:#000000;stroke-width:0.5;"/>
    <path clip-path="url(#pc89a9c86d4)" d="M 33.804412 64.429028 
L 33.804412 41.678032 
" style="fill:none;stroke:#000000;stroke-width:0.5;"/>
    <path clip-path="url(#pc89a9c86d4)" d="M 33.511221 78.836948 
L 33.511221 68.78023 
" style="fill:none;stroke:#000000;stroke-width:0.5;"/>
    <path clip-path="url(#pc89a9c86d4)" d="M 32.731001 66.614992 
L 32.731001 52.480341 
" style="fill:none;stroke:#000000;stroke-width:0.5;"/>
    <path clip-path="url(#pc89a9c86d4)" d="M 30.306295 77.921703 
L 30.306295 70.033493 
" style="fill:none;stroke:#000000;stroke-width:0.5;"/>
    <path clip-path="url(#pc89a9c86d4)" d="M 34.696665 59.526559 
L 34.696665 46.136919 
" style="fill:none;stroke:#000000;stroke-width:0.5;"/>
    <path clip-path="url(#pc89a9c86d4)" d="M 27.64891 65.788127 
L 27.64891 42.170448 
" style="fill:none;stroke:#000000;stroke-width:0.5;"/>
    <path clip-path="url(#pc89a9c86d4)" d="M 31.197504 68.14728 
L 31.197504 57.206726 
" style="fill:none;stroke:#000000;stroke-width:0.5;"/>
   </g>
   <g id="line2d_1">
    <path clip-path="url(#pc89a9c86d4)" d="M 27 77.43743 
L 27.768595 75.611192 
L 28.53719 73.784954 
L 29.305785 71.958716 
L 30.07438 70.132478 
L 30.842975 68.30624 
L 31.61157 66.480002 
L 32.380165 64.653764 
L 33.14876 62.827526 
L 33.917355 61.001288 
L 34.68595 59.17505 
L 35.454545 57.348812 
L 36.22314 55.522574 
L 36.991736 53.696336 
L 37.760331 51.870098 
L 38.528926 50.04386 
L 39.297521 48.217622 
L 40.066116 46.391383 
L 40.834711 44.565145 
L 41.603306 42.738907 
L 42.371901 40.912669 
L 43.140496 39.086431 
L 43.909091 37.260193 
L 44.677686 35.433955 
L 45.446281 33.607717 
L 46.214876 31.781479 
L 46.983471 29.955241 
L 47.752066 28.129003 
L 48.520661 26.302765 
L 49.289256 24.476527 
L 50.057851 22.650289 
L 50.826446 20.824051 
L 51.595041 18.997813 
L 52.363636 17.171574 
L 53.132231 15.345336 
L 53.900826 13.519098 
L 54.669421 11.69286 
L 55.438017 9.866622 
L 56.206612 8.040384 
L 56.975207 6.214146 
L 57.743802 4.387908 
L 58.512397 2.56167 
L 59.280992 0.735432 
L 60.01137 -1 
" style="fill:none;stroke:#000000;stroke-dasharray:1.85,0.8;stroke-dashoffset:0;stroke-width:0.5;"/>
   </g>
   <g id="line2d_2">
    <defs>
     <path d="M 0 3 
C 0.795609 3 1.55874 2.683901 2.12132 2.12132 
C 2.683901 1.55874 3 0.795609 3 0 
C 3 -0.795609 2.683901 -1.55874 2.12132 -2.12132 
C 1.55874 -2.683901 0.795609 -3 0 -3 
C -0.795609 -3 -1.55874 -2.683901 -2.12132 -2.12132 
C -2.683901 -1.55874 -3 -0.795609 -3 0 
C -3 0.795609 -2.683901 1.55874 -2.12132 2.12132 
C -1.55874 2.683901 -0.795609 3 0 3 
z
" id="m5a7450ca4f" style="stroke:#000000;"/>
    </defs>
    <g clip-path="url(#pc89a9c86d4)">
     <use style="stroke:#000000;" x="28.035609" xlink:href="#m5a7450ca4f" y="88.598752"/>
     <use style="stroke:#000000;" x="30.087649" xlink:href="#m5a7450ca4f" y="78.746043"/>
     <use style="stroke:#000000;" x="28.172901" xlink:href="#m5a7450ca4f" y="78.066007"/>
     <use style="stroke:#000000;" x="34.04437" xlink:href="#m5a7450ca4f" y="34.986692"/>
     <use style="stroke:#000000;" x="32.645793" xlink:href="#m5a7450ca4f" y="56.211033"/>
     <use style="stroke:#000000;" x="47.578624" xlink:href="#m5a7450ca4f" y="50.415491"/>
     <use style="stroke:#000000;" x="29.708956" xlink:href="#m5a7450ca4f" y="86.146745"/>
     <use style="stroke:#000000;" x="28.414994" xlink:href="#m5a7450ca4f" y="86.525923"/>
     <use style="stroke:#000000;" x="32.452663" xlink:href="#m5a7450ca4f" y="79.41744"/>
     <use style="stroke:#000000;" x="31.755713" xlink:href="#m5a7450ca4f" y="55.180361"/>
     <use style="stroke:#000000;" x="29.88325" xlink:href="#m5a7450ca4f" y="72.002979"/>
     <use style="stroke:#000000;" x="28.22557" xlink:href="#m5a7450ca4f" y="80.997126"/>
     <use style="stroke:#000000;" x="31.600484" xlink:href="#m5a7450ca4f" y="64.697916"/>
     <use style="stroke:#000000;" x="27" xlink:href="#m5a7450ca4f" y="75.79256"/>
     <use style="stroke:#000000;" x="36.107072" xlink:href="#m5a7450ca4f" y="33.404311"/>
     <use style="stroke:#000000;" x="28.129979" xlink:href="#m5a7450ca4f" y="90.439227"/>
     <use style="stroke:#000000;" x="33.320536" xlink:href="#m5a7450ca4f" y="33.903228"/>
     <use style="stroke:#000000;" x="27" xlink:href="#m5a7450ca4f" y="88.382119"/>
     <use style="stroke:#000000;" x="30.550486" xlink:href="#m5a7450ca4f" y="42.075289"/>
     <use style="stroke:#000000;" x="33.141326" xlink:href="#m5a7450ca4f" y="73.73699"/>
     <use style="stroke:#000000;" x="30.278018" xlink:href="#m5a7450ca4f" y="73.022433"/>
     <use style="stroke:#000000;" x="32.172495" xlink:href="#m5a7450ca4f" y="75.564644"/>
     <use style="stroke:#000000;" x="34.046864" xlink:href="#m5a7450ca4f" y="66.443594"/>
     <use style="stroke:#000000;" x="33.804412" xlink:href="#m5a7450ca4f" y="53.05353"/>
     <use style="stroke:#000000;" x="33.511221" xlink:href="#m5a7450ca4f" y="73.808589"/>
     <use style="stroke:#000000;" x="32.731001" xlink:href="#m5a7450ca4f" y="59.547666"/>
     <use style="stroke:#000000;" x="30.306295" xlink:href="#m5a7450ca4f" y="73.977598"/>
     <use style="stroke:#000000;" x="34.696665" xlink:href="#m5a7450ca4f" y="52.831739"/>
     <use style="stroke:#000000;" x="27.64891" xlink:href="#m5a7450ca4f" y="53.979288"/>
     <use style="stroke:#000000;" x="31.197504" xlink:href="#m5a7450ca4f" y="62.677003"/>
    </g>
   </g>
   <g id="patch_3">
    <path d="M 27 94.5 
L 27 12.96 
" style="fill:none;stroke:#000000;stroke-linecap:square;stroke-linejoin:miter;"/>
   </g>
   <g id="patch_4">
    <path d="M 27 94.5 
L 103.090909 94.5 
" style="fill:none;stroke:#000000;stroke-linecap:square;stroke-linejoin:miter;"/>
   </g>
   <g id="matplotlib.axis_1">
    <g id="xtick_1">
     <g id="line2d_3"/>
     <g id="text_1">
      <text style="font-family:Arial;font-size:8px;font-style:normal;font-weight:normal;text-anchor:middle;" transform="rotate(-0, 27, 103.72625)" x="27" y="103.72625">0</text>
     </g>
    </g>
    <g id="xtick_2">
     <g id="line2d_4"/>
     <g id="text_2">
      <text style="font-family:Arial;font-size:8px;font-style:normal;font-weight:normal;text-anchor:middle;" transform="rotate(-0, 56.711331, 103.72625)" x="56.711331" y="103.72625">5</text>
     </g>
    </g>
    <g id="xtick_3">
     <g id="line2d_5"/>
     <g id="text_3">
      <text style="font-family:Arial;font-size:8px;font-style:normal;font-weight:normal;text-anchor:middle;" transform="rotate(-0, 86.422662, 103.72625)" x="86.422662" y="103.72625">10</text>
     </g>
    </g>
    <g id="text_4">
     <text style="font-family:Arial;font-size:10px;font-style:normal;font-weight:normal;text-anchor:middle;" transform="rotate(-0, 65.045455, 116.474063)" x="65.045455" y="116.474063">Exc</text>
    </g>
   </g>
   <g id="matplotlib.axis_2">
    <g id="ytick_1">
     <g id="line2d_6"/>
     <g id="text_5">
      <text style="font-family:Arial;font-size:8px;font-style:normal;font-weight:normal;text-anchor:end;" transform="rotate(-0, 23.5, 97.363125)" x="23.5" y="97.363125">0</text>
     </g>
    </g>
    <g id="ytick_2">
     <g id="line2d_7"/>
     <g id="text_6">
      <text style="font-family:Arial;font-size:8px;font-style:normal;font-weight:normal;text-anchor:end;" transform="rotate(-0, 23.5, 65.524079)" x="23.5" y="65.524079">5</text>
     </g>
    </g>
    <g id="ytick_3">
     <g id="line2d_8"/>
     <g id="text_7">
      <text style="font-family:Arial;font-size:8px;font-style:normal;font-weight:normal;text-anchor:end;" transform="rotate(-0, 23.5, 33.685034)" x="23.5" y="33.685034">10</text>
     </g>
    </g>
    <g id="text_8">
     <text style="font-family:Arial;font-size:10px;font-style:normal;font-weight:normal;text-anchor:middle;" transform="rotate(-90, 8.615, 53.73)" x="8.615" y="53.73">Inh</text>
    </g>
   </g>
   <g id="legend_1">
    <g id="line2d_9">
     <path d="M 36 75.622656 
L 56 75.622656 
" style="fill:none;stroke:#000000;stroke-dasharray:1.85,0.8;stroke-dashoffset:0;stroke-width:0.5;"/>
    </g>
    <g id="line2d_10"/>
    <g id="text_9">
     <!-- $R^2$ 0.30 -->
     <g transform="translate(64 72.875)">
      <text>
       <tspan style="font-family:DejaVu Sans;font-size:10px;font-style:oblique;font-weight:oblique;" x="0" y="-0.9765625">R</tspan>
       <tspan style="font-family:DejaVu Sans;font-size:7px;font-style:book;font-weight:book;" x="7.650794" y="-4.8046875">2</tspan>
       <tspan style="font-family:Arial;font-size:10px;font-style:regular;font-weight:regular;" x="12.377845 15.156165 20.717689 23.496009 29.057533" y="-0.9765625"> 0.30</tspan>
      </text>
     </g>
     <text style="font-family:Arial;font-size:10px;font-style:normal;font-weight:normal;" transform="translate(64 83.4875)"> slope 2.22</text>
    </g>
   </g>
  </g>
  <g id="axes_2">
   <g id="patch_5">
    <path d="M 118.309091 94.5 
L 194.4 94.5 
L 194.4 12.96 
L 118.309091 12.96 
z
" style="fill:#ffffff;"/>
   </g>
   <g id="PathCollection_1">
    <defs>
     <path d="M 0 2.44949 
C 0.649612 2.44949 1.272706 2.191396 1.732051 1.732051 
C 2.191396 1.272706 2.44949 0.649612 2.44949 0 
C 2.44949 -0.649612 2.191396 -1.272706 1.732051 -1.732051 
C 1.272706 -2.191396 0.649612 -2.44949 0 -2.44949 
C -0.649612 -2.44949 -1.272706 -2.191396 -1.732051 -1.732051 
C -2.191396 -1.272706 -2.44949 -0.649612 -2.44949 0 
C -2.44949 0.649612 -2.191396 1.272706 -1.732051 1.732051 
C -1.272706 2.191396 -0.649612 2.44949 0 2.44949 
z
" id="m4aba8625b5" style="stroke:#000000;"/>
    </defs>
    <g clip-path="url(#p9abe1541a6)">
     <use style="stroke:#000000;" x="125.620477" xlink:href="#m4aba8625b5" y="86.224335"/>
     <use style="stroke:#000000;" x="136.76808" xlink:href="#m4aba8625b5" y="65.642281"/>
     <use style="stroke:#000000;" x="125.488775" xlink:href="#m4aba8625b5" y="84.62201"/>
     <use style="stroke:#000000;" x="166.151637" xlink:href="#m4aba8625b5" y="80.081111"/>
     <use style="stroke:#000000;" x="137.170679" xlink:href="#m4aba8625b5" y="63.691925"/>
     <use style="stroke:#000000;" x="184.445702" xlink:href="#m4aba8625b5" y="17.023567"/>
     <use style="stroke:#000000;" x="132.153829" xlink:href="#m4aba8625b5" y="85.416217"/>
     <use style="stroke:#000000;" x="125.732576" xlink:href="#m4aba8625b5" y="87.203301"/>
     <use style="stroke:#000000;" x="144.377176" xlink:href="#m4aba8625b5" y="72.962286"/>
     <use style="stroke:#000000;" x="147.105637" xlink:href="#m4aba8625b5" y="60.439204"/>
     <use style="stroke:#000000;" x="132.324574" xlink:href="#m4aba8625b5" y="75.215264"/>
     <use style="stroke:#000000;" x="123.556535" xlink:href="#m4aba8625b5" y="91.454359"/>
     <use style="stroke:#000000;" x="149.817825" xlink:href="#m4aba8625b5" y="52.068921"/>
     <use style="stroke:#000000;" x="118.309091" xlink:href="#m4aba8625b5" y="75.680068"/>
     <use style="stroke:#000000;" x="170.147612" xlink:href="#m4aba8625b5" y="50.972876"/>
     <use style="stroke:#000000;" x="125.312594" xlink:href="#m4aba8625b5" y="92.126568"/>
     <use style="stroke:#000000;" x="135.245867" xlink:href="#m4aba8625b5" y="27.175374"/>
     <use style="stroke:#000000;" x="118.309091" xlink:href="#m4aba8625b5" y="86.287903"/>
     <use style="stroke:#000000;" x="139.669667" xlink:href="#m4aba8625b5" y="50.361446"/>
     <use style="stroke:#000000;" x="155.532121" xlink:href="#m4aba8625b5" y="65.254694"/>
     <use style="stroke:#000000;" x="149.692935" xlink:href="#m4aba8625b5" y="56.224483"/>
     <use style="stroke:#000000;" x="140.151641" xlink:href="#m4aba8625b5" y="62.579587"/>
     <use style="stroke:#000000;" x="155.512475" xlink:href="#m4aba8625b5" y="70.883337"/>
     <use style="stroke:#000000;" x="150.155153" xlink:href="#m4aba8625b5" y="50.037942"/>
     <use style="stroke:#000000;" x="125.78535" xlink:href="#m4aba8625b5" y="74.846251"/>
     <use style="stroke:#000000;" x="138.235867" xlink:href="#m4aba8625b5" y="66.876786"/>
     <use style="stroke:#000000;" x="135.00677" xlink:href="#m4aba8625b5" y="79.084145"/>
     <use style="stroke:#000000;" x="136.010168" xlink:href="#m4aba8625b5" y="68.332753"/>
     <use style="stroke:#000000;" x="124.521775" xlink:href="#m4aba8625b5" y="48.344193"/>
     <use style="stroke:#000000;" x="141.688692" xlink:href="#m4aba8625b5" y="73.118978"/>
    </g>
   </g>
   <g id="line2d_11">
    <path clip-path="url(#p9abe1541a6)" d="M 118.309091 81.899986 
L 119.077686 81.376055 
L 119.846281 80.852124 
L 120.614876 80.328192 
L 121.383471 79.804261 
L 122.152066 79.28033 
L 122.920661 78.756398 
L 123.689256 78.232467 
L 124.457851 77.708536 
L 125.226446 77.184604 
L 125.995041 76.660673 
L 126.763636 76.136742 
L 127.532231 75.61281 
L 128.300826 75.088879 
L 129.069421 74.564948 
L 129.838017 74.041017 
L 130.606612 73.517085 
L 131.375207 72.993154 
L 132.143802 72.469223 
L 132.912397 71.945291 
L 133.680992 71.42136 
L 134.449587 70.897429 
L 135.218182 70.373497 
L 135.986777 69.849566 
L 136.755372 69.325635 
L 137.523967 68.801703 
L 138.292562 68.277772 
L 139.061157 67.753841 
L 139.829752 67.229909 
L 140.598347 66.705978 
L 141.366942 66.182047 
L 142.135537 65.658115 
L 142.904132 65.134184 
L 143.672727 64.610253 
L 144.441322 64.086321 
L 145.209917 63.56239 
L 145.978512 63.038459 
L 146.747107 62.514528 
L 147.515702 61.990596 
L 148.284298 61.466665 
L 149.052893 60.942734 
L 149.821488 60.418802 
L 150.590083 59.894871 
L 151.358678 59.37094 
L 152.127273 58.847008 
L 152.895868 58.323077 
L 153.664463 57.799146 
L 154.433058 57.275214 
L 155.201653 56.751283 
L 155.970248 56.227352 
L 156.738843 55.70342 
L 157.507438 55.179489 
L 158.276033 54.655558 
L 159.044628 54.131626 
L 159.813223 53.607695 
L 160.581818 53.083764 
L 161.350413 52.559833 
L 162.119008 52.035901 
L 162.887603 51.51197 
L 163.656198 50.988039 
L 164.424793 50.464107 
L 165.193388 49.940176 
L 165.961983 49.416245 
L 166.730579 48.892313 
L 167.499174 48.368382 
L 168.267769 47.844451 
L 169.036364 47.320519 
L 169.804959 46.796588 
L 170.573554 46.272657 
L 171.342149 45.748725 
L 172.110744 45.224794 
L 172.879339 44.700863 
L 173.647934 44.176931 
L 174.416529 43.653 
L 175.185124 43.129069 
L 175.953719 42.605137 
L 176.722314 42.081206 
L 177.490909 41.557275 
L 178.259504 41.033344 
L 179.028099 40.509412 
L 179.796694 39.985481 
L 180.565289 39.46155 
L 181.333884 38.937618 
L 182.102479 38.413687 
L 182.871074 37.889756 
L 183.639669 37.365824 
L 184.408264 36.841893 
L 185.17686 36.317962 
L 185.945455 35.79403 
L 186.71405 35.270099 
L 187.482645 34.746168 
L 188.25124 34.222236 
L 189.019835 33.698305 
L 189.78843 33.174374 
L 190.557025 32.650442 
L 191.32562 32.126511 
L 192.094215 31.60258 
L 192.86281 31.078648 
L 193.631405 30.554717 
L 194.4 30.030786 
" style="fill:none;stroke:#000000;stroke-dasharray:1.85,0.8;stroke-dashoffset:0;stroke-width:0.5;"/>
   </g>
   <g id="patch_6">
    <path d="M 118.309091 94.5 
L 118.309091 12.96 
" style="fill:none;stroke:#000000;stroke-linecap:square;stroke-linejoin:miter;"/>
   </g>
   <g id="patch_7">
    <path d="M 118.309091 94.5 
L 194.4 94.5 
" style="fill:none;stroke:#000000;stroke-linecap:square;stroke-linejoin:miter;"/>
   </g>
   <g id="matplotlib.axis_3">
    <g id="xtick_4">
     <g id="line2d_12"/>
     <g id="text_10">
      <text style="font-family:Arial;font-size:8px;font-style:normal;font-weight:normal;text-anchor:middle;" transform="rotate(-0, 118.309091, 103.72625)" x="118.309091" y="103.72625">0</text>
     </g>
    </g>
    <g id="xtick_5">
     <g id="line2d_13"/>
     <g id="text_11">
      <text style="font-family:Arial;font-size:8px;font-style:normal;font-weight:normal;text-anchor:middle;" transform="rotate(-0, 164.76075, 103.72625)" x="164.76075" y="103.72625">2</text>
     </g>
    </g>
    <g id="text_12">
     <!-- $\sigma$(Exc) -->
     <g transform="translate(141.504545 116.61625)">
      <text>
       <tspan style="font-family:DejaVu Sans;font-size:10px;font-style:oblique;font-weight:oblique;" x="0" y="-0.71875">σ</tspan>
       <tspan style="font-family:Arial;font-size:10px;font-style:regular;font-weight:regular;" x="6.337891 9.667969 16.337891 21.337891 26.337891" y="-0.71875">(Exc)</tspan>
      </text>
     </g>
    </g>
   </g>
   <g id="matplotlib.axis_4">
    <g id="ytick_4">
     <g id="line2d_14"/>
     <g id="text_13">
      <text style="font-family:Arial;font-size:8px;font-style:normal;font-weight:normal;text-anchor:end;" transform="rotate(-0, 114.809091, 97.363125)" x="114.809091" y="97.363125">0</text>
     </g>
    </g>
    <g id="ytick_5">
     <g id="line2d_15"/>
     <g id="text_14">
      <text style="font-family:Arial;font-size:8px;font-style:normal;font-weight:normal;text-anchor:end;" transform="rotate(-0, 114.809091, 72.474026)" x="114.809091" y="72.474026">1</text>
     </g>
    </g>
    <g id="ytick_6">
     <g id="line2d_16"/>
     <g id="text_15">
      <text style="font-family:Arial;font-size:8px;font-style:normal;font-weight:normal;text-anchor:end;" transform="rotate(-0, 114.809091, 47.584927)" x="114.809091" y="47.584927">2</text>
     </g>
    </g>
    <g id="ytick_7">
     <g id="line2d_17"/>
     <g id="text_16">
      <text style="font-family:Arial;font-size:8px;font-style:normal;font-weight:normal;text-anchor:end;" transform="rotate(-0, 114.809091, 22.695829)" x="114.809091" y="22.695829">3</text>
     </g>
    </g>
    <g id="text_17">
     <!-- $\sigma$(Inh) -->
     <g transform="translate(104.160341 67.18)rotate(-90)">
      <text>
       <tspan style="font-family:DejaVu Sans;font-size:10px;font-style:oblique;font-weight:oblique;" x="0" y="-0.71875">σ</tspan>
       <tspan style="font-family:Arial;font-size:10px;font-style:regular;font-weight:regular;" x="6.337891 9.667969 12.446289 18.007812 23.569336" y="-0.71875">(Inh)</tspan>
      </text>
     </g>
    </g>
   </g>
   <g id="legend_2">
    <g id="line2d_18">
     <path d="M 108.478125 31.995156 
L 128.478125 31.995156 
" style="fill:none;stroke:#000000;stroke-dasharray:1.85,0.8;stroke-dashoffset:0;stroke-width:0.5;"/>
    </g>
    <g id="line2d_19"/>
    <g id="text_18">
     <!-- $R^2$ 0.35 -->
     <g transform="translate(136.478125 29.2475)">
      <text>
       <tspan style="font-family:DejaVu Sans;font-size:10px;font-style:oblique;font-weight:oblique;" x="0" y="-0.9765625">R</tspan>
       <tspan style="font-family:DejaVu Sans;font-size:7px;font-style:book;font-weight:book;" x="7.650794" y="-4.8046875">2</tspan>
       <tspan style="font-family:Arial;font-size:10px;font-style:regular;font-weight:regular;" x="12.377845 15.156165 20.717689 23.496009 29.057533" y="-0.9765625"> 0.35</tspan>
      </text>
     </g>
     <text style="font-family:Arial;font-size:10px;font-style:normal;font-weight:normal;" transform="translate(136.478125 39.86)"> slope 0.64</text>
    </g>
   </g>
  </g>
 </g>
 <defs>
  <clipPath id="pc89a9c86d4">
   <rect height="81.54" width="76.090909" x="27" y="12.96"/>
  </clipPath>
  <clipPath id="p9abe1541a6">
   <rect height="81.54" width="76.090909" x="118.309091" y="12.96"/>
  </clipPath>
 </defs>
</svg>
