<?xml version="1.0" encoding="utf-8" standalone="no"?>
<!DOCTYPE svg PUBLIC "-//W3C//DTD SVG 1.1//EN"
  "http://www.w3.org/Graphics/SVG/1.1/DTD/svg11.dtd">
<!-- Created with matplotlib (http://matplotlib.org/) -->
<svg height="108pt" version="1.1" viewBox="0 0 216 108" width="216pt" xmlns="http://www.w3.org/2000/svg" xmlns:xlink="http://www.w3.org/1999/xlink">
 <defs>
  <style type="text/css">
*{stroke-linecap:butt;stroke-linejoin:round;}
  </style>
 </defs>
 <g id="figure_1">
  <g id="patch_1">
   <path d="M 0 108 
L 216 108 
L 216 0 
L 0 0 
z
" style="fill:#ffffff;"/>
  </g>
  <g id="axes_1">
   <g id="patch_2">
    <path d="M 27 94.5 
L 103.090909 94.5 
L 103.090909 12.96 
L 27 12.96 
z
" style="fill:#ffffff;"/>
   </g>
   <g id="LineCollection_1">
    <path clip-path="url(#pa99a8b7477)" d="M 27.899374 79.150703 
L 36.124707 79.150703 
" style="fill:none;stroke:#000000;stroke-width:0.5;"/>
    <path clip-path="url(#pa99a8b7477)" d="M 25.88835 63.293033 
L 31.76343 63.293033 
" style="fill:none;stroke:#000000;stroke-width:0.5;"/>
    <path clip-path="url(#pa99a8b7477)" d="M 24.980277 73.306004 
L 45.424559 73.306004 
" style="fill:none;stroke:#000000;stroke-width:0.5;"/>
    <path clip-path="url(#pa99a8b7477)" d="M 23.926528 76.680672 
L 34.314236 76.680672 
" style="fill:none;stroke:#000000;stroke-width:0.5;"/>
    <path clip-path="url(#pa99a8b7477)" d="M 25.298075 82.206421 
L 33.824522 82.206421 
" style="fill:none;stroke:#000000;stroke-width:0.5;"/>
    <path clip-path="url(#pa99a8b7477)" d="M 25.982033 80.255398 
L 31.67187 80.255398 
" style="fill:none;stroke:#000000;stroke-width:0.5;"/>
    <path clip-path="url(#pa99a8b7477)" d="M 25.029208 63.262822 
L 41.383366 63.262822 
" style="fill:none;stroke:#000000;stroke-width:0.5;"/>
    <path clip-path="url(#pa99a8b7477)" d="M 29.904766 73.699336 
L 38.22165 73.699336 
" style="fill:none;stroke:#000000;stroke-width:0.5;"/>
    <path clip-path="url(#pa99a8b7477)" d="M 29.766198 37.948114 
L 47.506811 37.948114 
" style="fill:none;stroke:#000000;stroke-width:0.5;"/>
    <path clip-path="url(#pa99a8b7477)" d="M 28.778903 49.092881 
L 44.274597 49.092881 
" style="fill:none;stroke:#000000;stroke-width:0.5;"/>
    <path clip-path="url(#pa99a8b7477)" d="M 30.777335 75.622638 
L 34.039041 75.622638 
" style="fill:none;stroke:#000000;stroke-width:0.5;"/>
    <path clip-path="url(#pa99a8b7477)" d="M 28.505483 61.409181 
L 41.995605 61.409181 
" style="fill:none;stroke:#000000;stroke-width:0.5;"/>
    <path clip-path="url(#pa99a8b7477)" d="M 29.115896 72.409845 
L 47.559112 72.409845 
" style="fill:none;stroke:#000000;stroke-width:0.5;"/>
    <path clip-path="url(#pa99a8b7477)" d="M 30.70696 24.491772 
L 47.639938 24.491772 
" style="fill:none;stroke:#000000;stroke-width:0.5;"/>
    <path clip-path="url(#pa99a8b7477)" d="M 26.839841 75.765261 
L 29.850605 75.765261 
" style="fill:none;stroke:#000000;stroke-width:0.5;"/>
    <path clip-path="url(#pa99a8b7477)" d="M 27.056685 77.551872 
L 33.581627 77.551872 
" style="fill:none;stroke:#000000;stroke-width:0.5;"/>
    <path clip-path="url(#pa99a8b7477)" d="M 29.203216 73.662736 
L 35.357475 73.662736 
" style="fill:none;stroke:#000000;stroke-width:0.5;"/>
    <path clip-path="url(#pa99a8b7477)" d="M 25.524169 87.398314 
L 33.850373 87.398314 
" style="fill:none;stroke:#000000;stroke-width:0.5;"/>
    <path clip-path="url(#pa99a8b7477)" d="M 27.444041 67.642743 
L 33.804702 67.642743 
" style="fill:none;stroke:#000000;stroke-width:0.5;"/>
    <path clip-path="url(#pa99a8b7477)" d="M 27.796789 73.048191 
L 41.038638 73.048191 
" style="fill:none;stroke:#000000;stroke-width:0.5;"/>
    <path clip-path="url(#pa99a8b7477)" d="M 31.852338 57.279338 
L 47.887502 57.279338 
" style="fill:none;stroke:#000000;stroke-width:0.5;"/>
    <path clip-path="url(#pa99a8b7477)" d="M 26.297646 81.501685 
L 33.931524 81.501685 
" style="fill:none;stroke:#000000;stroke-width:0.5;"/>
    <path clip-path="url(#pa99a8b7477)" d="M 33.002027 40.015904 
L 50.676542 40.015904 
" style="fill:none;stroke:#000000;stroke-width:0.5;"/>
    <path clip-path="url(#pa99a8b7477)" d="M 30.945786 66.066523 
L 41.250328 66.066523 
" style="fill:none;stroke:#000000;stroke-width:0.5;"/>
    <path clip-path="url(#pa99a8b7477)" d="M 31.484234 54.247729 
L 44.145293 54.247729 
" style="fill:none;stroke:#000000;stroke-width:0.5;"/>
    <path clip-path="url(#pa99a8b7477)" d="M 29.524002 59.986297 
L 41.776016 59.986297 
" style="fill:none;stroke:#000000;stroke-width:0.5;"/>
    <path clip-path="url(#pa99a8b7477)" d="M 27.259175 53.468189 
L 37.536814 53.468189 
" style="fill:none;stroke:#000000;stroke-width:0.5;"/>
    <path clip-path="url(#pa99a8b7477)" d="M 26.742623 85.440518 
L 27.612504 85.440518 
" style="fill:none;stroke:#000000;stroke-width:0.5;"/>
    <path clip-path="url(#pa99a8b7477)" d="M 24.14419 64.899959 
L 39.285999 64.899959 
" style="fill:none;stroke:#000000;stroke-width:0.5;"/>
    <path clip-path="url(#pa99a8b7477)" d="M 31.586726 52.88634 
L 48.652897 52.88634 
" style="fill:none;stroke:#000000;stroke-width:0.5;"/>
   </g>
   <g id="LineCollection_2">
    <path clip-path="url(#pa99a8b7477)" d="M 32.012041 86.182328 
L 32.012041 72.119077 
" style="fill:none;stroke:#000000;stroke-width:0.5;"/>
    <path clip-path="url(#pa99a8b7477)" d="M 28.82589 69.255741 
L 28.82589 57.330325 
" style="fill:none;stroke:#000000;stroke-width:0.5;"/>
    <path clip-path="url(#pa99a8b7477)" d="M 35.202418 83.862259 
L 35.202418 62.749749 
" style="fill:none;stroke:#000000;stroke-width:0.5;"/>
    <path clip-path="url(#pa99a8b7477)" d="M 29.120382 89.599578 
L 29.120382 63.761766 
" style="fill:none;stroke:#000000;stroke-width:0.5;"/>
    <path clip-path="url(#pa99a8b7477)" d="M 29.561298 85.989952 
L 29.561298 78.42289 
" style="fill:none;stroke:#000000;stroke-width:0.5;"/>
    <path clip-path="url(#pa99a8b7477)" d="M 28.826952 84.54929 
L 28.826952 75.961506 
" style="fill:none;stroke:#000000;stroke-width:0.5;"/>
    <path clip-path="url(#pa99a8b7477)" d="M 33.206287 68.896138 
L 33.206287 57.629505 
" style="fill:none;stroke:#000000;stroke-width:0.5;"/>
    <path clip-path="url(#pa99a8b7477)" d="M 34.063208 79.321102 
L 34.063208 68.077569 
" style="fill:none;stroke:#000000;stroke-width:0.5;"/>
    <path clip-path="url(#pa99a8b7477)" d="M 38.636505 47.836462 
L 38.636505 28.059765 
" style="fill:none;stroke:#000000;stroke-width:0.5;"/>
    <path clip-path="url(#pa99a8b7477)" d="M 36.52675 55.90265 
L 36.52675 42.283112 
" style="fill:none;stroke:#000000;stroke-width:0.5;"/>
    <path clip-path="url(#pa99a8b7477)" d="M 32.408188 81.87094 
L 32.408188 69.374337 
" style="fill:none;stroke:#000000;stroke-width:0.5;"/>
    <path clip-path="url(#pa99a8b7477)" d="M 35.250544 70.218652 
L 35.250544 52.599711 
" style="fill:none;stroke:#000000;stroke-width:0.5;"/>
    <path clip-path="url(#pa99a8b7477)" d="M 38.337504 83.640559 
L 38.337504 61.17913 
" style="fill:none;stroke:#000000;stroke-width:0.5;"/>
    <path clip-path="url(#pa99a8b7477)" d="M 39.173449 32.271103 
L 39.173449 16.71244 
" style="fill:none;stroke:#000000;stroke-width:0.5;"/>
    <path clip-path="url(#pa99a8b7477)" d="M 28.345223 79.838875 
L 28.345223 71.691647 
" style="fill:none;stroke:#000000;stroke-width:0.5;"/>
    <path clip-path="url(#pa99a8b7477)" d="M 30.319156 84.735623 
L 30.319156 70.368122 
" style="fill:none;stroke:#000000;stroke-width:0.5;"/>
    <path clip-path="url(#pa99a8b7477)" d="M 32.280346 78.145128 
L 32.280346 69.180345 
" style="fill:none;stroke:#000000;stroke-width:0.5;"/>
    <path clip-path="url(#pa99a8b7477)" d="M 29.687271 90.877415 
L 29.687271 83.919213 
" style="fill:none;stroke:#000000;stroke-width:0.5;"/>
    <path clip-path="url(#pa99a8b7477)" d="M 30.624371 70.957662 
L 30.624371 64.327825 
" style="fill:none;stroke:#000000;stroke-width:0.5;"/>
    <path clip-path="url(#pa99a8b7477)" d="M 34.417713 77.102953 
L 34.417713 68.993429 
" style="fill:none;stroke:#000000;stroke-width:0.5;"/>
    <path clip-path="url(#pa99a8b7477)" d="M 39.86992 66.529255 
L 39.86992 48.029421 
" style="fill:none;stroke:#000000;stroke-width:0.5;"/>
    <path clip-path="url(#pa99a8b7477)" d="M 30.114585 81.501685 
L 30.114585 81.501685 
" style="fill:none;stroke:#000000;stroke-width:0.5;"/>
    <path clip-path="url(#pa99a8b7477)" d="M 41.839285 49.570706 
L 41.839285 30.461101 
" style="fill:none;stroke:#000000;stroke-width:0.5;"/>
    <path clip-path="url(#pa99a8b7477)" d="M 36.098057 73.648108 
L 36.098057 58.484938 
" style="fill:none;stroke:#000000;stroke-width:0.5;"/>
    <path clip-path="url(#pa99a8b7477)" d="M 37.814763 62.723951 
L 37.814763 45.771506 
" style="fill:none;stroke:#000000;stroke-width:0.5;"/>
    <path clip-path="url(#pa99a8b7477)" d="M 35.650009 66.187667 
L 35.650009 53.784926 
" style="fill:none;stroke:#000000;stroke-width:0.5;"/>
    <path clip-path="url(#pa99a8b7477)" d="M 32.397995 63.20811 
L 32.397995 43.728268 
" style="fill:none;stroke:#000000;stroke-width:0.5;"/>
    <path clip-path="url(#pa99a8b7477)" d="M 27.177564 91.761246 
L 27.177564 79.119789 
" style="fill:none;stroke:#000000;stroke-width:0.5;"/>
    <path clip-path="url(#pa99a8b7477)" d="M 31.715094 74.380402 
L 31.715094 55.419517 
" style="fill:none;stroke:#000000;stroke-width:0.5;"/>
    <path clip-path="url(#pa99a8b7477)" d="M 40.119811 58.925466 
L 40.119811 46.847213 
" style="fill:none;stroke:#000000;stroke-width:0.5;"/>
   </g>
   <g id="line2d_1">
    <path clip-path="url(#pa99a8b7477)" d="M 27 84.745641 
L 27.768595 82.594593 
L 28.53719 80.443545 
L 29.305785 78.292497 
L 30.07438 76.141449 
L 30.842975 73.990401 
L 31.61157 71.839353 
L 32.380165 69.688305 
L 33.14876 67.537256 
L 33.917355 65.386208 
L 34.68595 63.23516 
L 35.454545 61.084112 
L 36.22314 58.933064 
L 36.991736 56.782016 
L 37.760331 54.630968 
L 38.528926 52.479919 
L 39.297521 50.328871 
L 40.066116 48.177823 
L 40.834711 46.026775 
L 41.603306 43.875727 
L 42.371901 41.724679 
L 43.140496 39.573631 
L 43.909091 37.422583 
L 44.677686 35.271534 
L 45.446281 33.120486 
L 46.214876 30.969438 
L 46.983471 28.81839 
L 47.752066 26.667342 
L 48.520661 24.516294 
L 49.289256 22.365246 
L 50.057851 20.214197 
L 50.826446 18.063149 
L 51.595041 15.912101 
L 52.363636 13.761053 
L 53.132231 11.610005 
L 53.900826 9.458957 
L 54.669421 7.307909 
L 55.438017 5.156861 
L 56.206612 3.005812 
L 56.975207 0.854764 
L 57.637936 -1 
" style="fill:none;stroke:#000000;stroke-dasharray:1.85,0.8;stroke-dashoffset:0;stroke-width:0.5;"/>
   </g>
   <g id="line2d_2">
    <defs>
     <path d="M 0 3 
C 0.795609 3 1.55874 2.683901 2.12132 2.12132 
C 2.683901 1.55874 3 0.795609 3 0 
C 3 -0.795609 2.683901 -1.55874 2.12132 -2.12132 
C 1.55874 -2.683901 0.795609 -3 0 -3 
C -0.795609 -3 -1.55874 -2.683901 -2.12132 -2.12132 
C -2.683901 -1.55874 -3 -0.795609 -3 0 
C -3 0.795609 -2.683901 1.55874 -2.12132 2.12132 
C -1.55874 2.683901 -0.795609 3 0 3 
z
" id="me9ed4ab275" style="stroke:#000000;"/>
    </defs>
    <g clip-path="url(#pa99a8b7477)">
     <use style="stroke:#000000;" x="32.012041" xlink:href="#me9ed4ab275" y="79.150703"/>
     <use style="stroke:#000000;" x="28.82589" xlink:href="#me9ed4ab275" y="63.293033"/>
     <use style="stroke:#000000;" x="35.202418" xlink:href="#me9ed4ab275" y="73.306004"/>
     <use style="stroke:#000000;" x="29.120382" xlink:href="#me9ed4ab275" y="76.680672"/>
     <use style="stroke:#000000;" x="29.561298" xlink:href="#me9ed4ab275" y="82.206421"/>
     <use style="stroke:#000000;" x="28.826952" xlink:href="#me9ed4ab275" y="80.255398"/>
     <use style="stroke:#000000;" x="33.206287" xlink:href="#me9ed4ab275" y="63.262822"/>
     <use style="stroke:#000000;" x="34.063208" xlink:href="#me9ed4ab275" y="73.699336"/>
     <use style="stroke:#000000;" x="38.636505" xlink:href="#me9ed4ab275" y="37.948114"/>
     <use style="stroke:#000000;" x="36.52675" xlink:href="#me9ed4ab275" y="49.092881"/>
     <use style="stroke:#000000;" x="32.408188" xlink:href="#me9ed4ab275" y="75.622638"/>
     <use style="stroke:#000000;" x="35.250544" xlink:href="#me9ed4ab275" y="61.409181"/>
     <use style="stroke:#000000;" x="38.337504" xlink:href="#me9ed4ab275" y="72.409845"/>
     <use style="stroke:#000000;" x="39.173449" xlink:href="#me9ed4ab275" y="24.491772"/>
     <use style="stroke:#000000;" x="28.345223" xlink:href="#me9ed4ab275" y="75.765261"/>
     <use style="stroke:#000000;" x="30.319156" xlink:href="#me9ed4ab275" y="77.551872"/>
     <use style="stroke:#000000;" x="32.280346" xlink:href="#me9ed4ab275" y="73.662736"/>
     <use style="stroke:#000000;" x="29.687271" xlink:href="#me9ed4ab275" y="87.398314"/>
     <use style="stroke:#000000;" x="30.624371" xlink:href="#me9ed4ab275" y="67.642743"/>
     <use style="stroke:#000000;" x="34.417713" xlink:href="#me9ed4ab275" y="73.048191"/>
     <use style="stroke:#000000;" x="39.86992" xlink:href="#me9ed4ab275" y="57.279338"/>
     <use style="stroke:#000000;" x="30.114585" xlink:href="#me9ed4ab275" y="81.501685"/>
     <use style="stroke:#000000;" x="41.839285" xlink:href="#me9ed4ab275" y="40.015904"/>
     <use style="stroke:#000000;" x="36.098057" xlink:href="#me9ed4ab275" y="66.066523"/>
     <use style="stroke:#000000;" x="37.814763" xlink:href="#me9ed4ab275" y="54.247729"/>
     <use style="stroke:#000000;" x="35.650009" xlink:href="#me9ed4ab275" y="59.986297"/>
     <use style="stroke:#000000;" x="32.397995" xlink:href="#me9ed4ab275" y="53.468189"/>
     <use style="stroke:#000000;" x="27.177564" xlink:href="#me9ed4ab275" y="85.440518"/>
     <use style="stroke:#000000;" x="31.715094" xlink:href="#me9ed4ab275" y="64.899959"/>
     <use style="stroke:#000000;" x="40.119811" xlink:href="#me9ed4ab275" y="52.88634"/>
    </g>
   </g>
   <g id="patch_3">
    <path d="M 27 94.5 
L 27 12.96 
" style="fill:none;stroke:#000000;stroke-linecap:square;stroke-linejoin:miter;"/>
   </g>
   <g id="patch_4">
    <path d="M 27 94.5 
L 103.090909 94.5 
" style="fill:none;stroke:#000000;stroke-linecap:square;stroke-linejoin:miter;"/>
   </g>
   <g id="matplotlib.axis_1">
    <g id="xtick_1">
     <g id="line2d_3"/>
     <g id="text_1">
      <text style="font-family:Arial;font-size:8px;font-style:normal;font-weight:normal;text-anchor:middle;" transform="rotate(-0, 27, 103.72625)" x="27" y="103.72625">0</text>
     </g>
    </g>
    <g id="xtick_2">
     <g id="line2d_4"/>
     <g id="text_2">
      <text style="font-family:Arial;font-size:8px;font-style:normal;font-weight:normal;text-anchor:middle;" transform="rotate(-0, 69.746064, 103.72625)" x="69.746064" y="103.72625">5</text>
     </g>
    </g>
    <g id="text_3">
     <text style="font-family:Arial;font-size:10px;font-style:normal;font-weight:normal;text-anchor:middle;" transform="rotate(-0, 65.045455, 116.474063)" x="65.045455" y="116.474063">Exc</text>
    </g>
   </g>
   <g id="matplotlib.axis_2">
    <g id="ytick_1">
     <g id="line2d_5"/>
     <g id="text_4">
      <text style="font-family:Arial;font-size:8px;font-style:normal;font-weight:normal;text-anchor:end;" transform="rotate(-0, 23.5, 97.363125)" x="23.5" y="97.363125">0</text>
     </g>
    </g>
    <g id="ytick_2">
     <g id="line2d_6"/>
     <g id="text_5">
      <text style="font-family:Arial;font-size:8px;font-style:normal;font-weight:normal;text-anchor:end;" transform="rotate(-0, 23.5, 79.040231)" x="23.5" y="79.040231">2</text>
     </g>
    </g>
    <g id="ytick_3">
     <g id="line2d_7"/>
     <g id="text_6">
      <text style="font-family:Arial;font-size:8px;font-style:normal;font-weight:normal;text-anchor:end;" transform="rotate(-0, 23.5, 60.717338)" x="23.5" y="60.717338">4</text>
     </g>
    </g>
    <g id="ytick_4">
     <g id="line2d_8"/>
     <g id="text_7">
      <text style="font-family:Arial;font-size:8px;font-style:normal;font-weight:normal;text-anchor:end;" transform="rotate(-0, 23.5, 42.394444)" x="23.5" y="42.394444">6</text>
     </g>
    </g>
    <g id="ytick_5">
     <g id="line2d_9"/>
     <g id="text_8">
      <text style="font-family:Arial;font-size:8px;font-style:normal;font-weight:normal;text-anchor:end;" transform="rotate(-0, 23.5, 24.07155)" x="23.5" y="24.07155">8</text>
     </g>
    </g>
    <g id="text_9">
     <text style="font-family:Arial;font-size:10px;font-style:normal;font-weight:normal;text-anchor:middle;" transform="rotate(-90, 13.06375, 53.73)" x="13.06375" y="53.73">Inh</text>
    </g>
   </g>
   <g id="legend_1">
    <g id="line2d_10">
     <path d="M 36 75.622656 
L 56 75.622656 
" style="fill:none;stroke:#000000;stroke-dasharray:1.85,0.8;stroke-dashoffset:0;stroke-width:0.5;"/>
    </g>
    <g id="line2d_11"/>
    <g id="text_10">
     <!-- $R^2$ 0.58 -->
     <g transform="translate(64 72.875)">
      <text>
       <tspan style="font-family:DejaVu Sans;font-size:10px;font-style:oblique;font-weight:oblique;" x="0" y="-0.9765625">R</tspan>
       <tspan style="font-family:DejaVu Sans;font-size:7px;font-style:book;font-weight:book;" x="7.650794" y="-4.8046875">2</tspan>
       <tspan style="font-family:Arial;font-size:10px;font-style:regular;font-weight:regular;" x="12.377845 15.156165 20.717689 23.496009 29.057533" y="-0.9765625"> 0.58</tspan>
      </text>
     </g>
     <text style="font-family:Arial;font-size:10px;font-style:normal;font-weight:normal;" transform="translate(64 83.4875)"> slope 2.61</text>
    </g>
   </g>
  </g>
  <g id="axes_2">
   <g id="patch_5">
    <path d="M 118.309091 94.5 
L 194.4 94.5 
L 194.4 12.96 
L 118.309091 12.96 
z
" style="fill:#ffffff;"/>
   </g>
   <g id="PathCollection_1">
    <defs>
     <path d="M 0 2.44949 
C 0.649612 2.44949 1.272706 2.191396 1.732051 1.732051 
C 2.191396 1.272706 2.44949 0.649612 2.44949 0 
C 2.44949 -0.649612 2.191396 -1.272706 1.732051 -1.732051 
C 1.272706 -2.191396 0.649612 -2.44949 0 -2.44949 
C -0.649612 -2.44949 -1.272706 -2.191396 -1.732051 -1.732051 
C -2.191396 -1.272706 -2.44949 -0.649612 -2.44949 0 
C -2.44949 0.649612 -2.191396 1.272706 -1.732051 1.732051 
C -1.272706 2.191396 -0.649612 2.44949 0 2.44949 
z
" id="m14886ae50c" style="stroke:#000000;"/>
    </defs>
    <g clip-path="url(#p9f878359e6)">
     <use style="stroke:#000000;" x="142.825658" xlink:href="#m14886ae50c" y="52.582835"/>
     <use style="stroke:#000000;" x="135.820453" xlink:href="#m14886ae50c" y="58.954905"/>
     <use style="stroke:#000000;" x="179.245663" xlink:href="#m14886ae50c" y="31.571696"/>
     <use style="stroke:#000000;" x="149.27087" xlink:href="#m14886ae50c" y="17.487382"/>
     <use style="stroke:#000000;" x="143.723163" xlink:href="#m14886ae50c" y="71.945488"/>
     <use style="stroke:#000000;" x="135.268315" xlink:href="#m14886ae50c" y="68.903106"/>
     <use style="stroke:#000000;" x="167.054571" xlink:href="#m14886ae50c" y="60.918482"/>
     <use style="stroke:#000000;" x="143.098536" xlink:href="#m14886ae50c" y="60.987334"/>
     <use style="stroke:#000000;" x="171.187062" xlink:href="#m14886ae50c" y="35.553245"/>
     <use style="stroke:#000000;" x="164.495819" xlink:href="#m14886ae50c" y="53.905376"/>
     <use style="stroke:#000000;" x="128.030989" xlink:href="#m14886ae50c" y="57.252412"/>
     <use style="stroke:#000000;" x="158.517978" xlink:href="#m14886ae50c" y="41.984687"/>
     <use style="stroke:#000000;" x="173.281251" xlink:href="#m14886ae50c" y="27.551084"/>
     <use style="stroke:#000000;" x="168.779811" xlink:href="#m14886ae50c" y="48.125587"/>
     <use style="stroke:#000000;" x="127.283024" xlink:href="#m14886ae50c" y="70.216234"/>
     <use style="stroke:#000000;" x="137.757443" xlink:href="#m14886ae50c" y="51.675983"/>
     <use style="stroke:#000000;" x="136.652579" xlink:href="#m14886ae50c" y="67.779416"/>
     <use style="stroke:#000000;" x="143.126315" xlink:href="#m14886ae50c" y="73.760263"/>
     <use style="stroke:#000000;" x="137.267783" xlink:href="#m14886ae50c" y="74.738996"/>
     <use style="stroke:#000000;" x="157.777969" xlink:href="#m14886ae50c" y="70.328618"/>
     <use style="stroke:#000000;" x="166.103772" xlink:href="#m14886ae50c" y="39.359082"/>
     <use style="stroke:#000000;" x="141.062756" xlink:href="#m14886ae50c" y="94.5"/>
     <use style="stroke:#000000;" x="170.990049" xlink:href="#m14886ae50c" y="37.541589"/>
     <use style="stroke:#000000;" x="149.022983" xlink:href="#m14886ae50c" y="49.304398"/>
     <use style="stroke:#000000;" x="156.046855" xlink:href="#m14886ae50c" y="43.971257"/>
     <use style="stroke:#000000;" x="154.827652" xlink:href="#m14886ae50c" y="57.532182"/>
     <use style="stroke:#000000;" x="148.942797" xlink:href="#m14886ae50c" y="36.438055"/>
     <use style="stroke:#000000;" x="120.901872" xlink:href="#m14886ae50c" y="56.820659"/>
     <use style="stroke:#000000;" x="163.441024" xlink:href="#m14886ae50c" y="37.984865"/>
     <use style="stroke:#000000;" x="169.176809" xlink:href="#m14886ae50c" y="58.499355"/>
    </g>
   </g>
   <g id="line2d_12">
    <path clip-path="url(#p9f878359e6)" d="M 118.309091 73.13749 
L 119.077686 72.683366 
L 119.846281 72.229243 
L 120.614876 71.775119 
L 121.383471 71.320996 
L 122.152066 70.866872 
L 122.920661 70.412749 
L 123.689256 69.958626 
L 124.457851 69.504502 
L 125.226446 69.050379 
L 125.995041 68.596255 
L 126.763636 68.142132 
L 127.532231 67.688008 
L 128.300826 67.233885 
L 129.069421 66.779761 
L 129.838017 66.325638 
L 130.606612 65.871514 
L 131.375207 65.417391 
L 132.143802 64.963268 
L 132.912397 64.509144 
L 133.680992 64.055021 
L 134.449587 63.600897 
L 135.218182 63.146774 
L 135.986777 62.69265 
L 136.755372 62.238527 
L 137.523967 61.784403 
L 138.292562 61.33028 
L 139.061157 60.876156 
L 139.829752 60.422033 
L 140.598347 59.96791 
L 141.366942 59.513786 
L 142.135537 59.059663 
L 142.904132 58.605539 
L 143.672727 58.151416 
L 144.441322 57.697292 
L 145.209917 57.243169 
L 145.978512 56.789045 
L 146.747107 56.334922 
L 147.515702 55.880798 
L 148.284298 55.426675 
L 149.052893 54.972552 
L 149.821488 54.518428 
L 150.590083 54.064305 
L 151.358678 53.610181 
L 152.127273 53.156058 
L 152.895868 52.701934 
L 153.664463 52.247811 
L 154.433058 51.793687 
L 155.201653 51.339564 
L 155.970248 50.88544 
L 156.738843 50.431317 
L 157.507438 49.977194 
L 158.276033 49.52307 
L 159.044628 49.068947 
L 159.813223 48.614823 
L 160.581818 48.1607 
L 161.350413 47.706576 
L 162.119008 47.252453 
L 162.887603 46.798329 
L 163.656198 46.344206 
L 164.424793 45.890083 
L 165.193388 45.435959 
L 165.961983 44.981836 
L 166.730579 44.527712 
L 167.499174 44.073589 
L 168.267769 43.619465 
L 169.036364 43.165342 
L 169.804959 42.711218 
L 170.573554 42.257095 
L 171.342149 41.802971 
L 172.110744 41.348848 
L 172.879339 40.894725 
L 173.647934 40.440601 
L 174.416529 39.986478 
L 175.185124 39.532354 
L 175.953719 39.078231 
L 176.722314 38.624107 
L 177.490909 38.169984 
L 178.259504 37.71586 
L 179.028099 37.261737 
L 179.796694 36.807613 
L 180.565289 36.35349 
L 181.333884 35.899367 
L 182.102479 35.445243 
L 182.871074 34.99112 
L 183.639669 34.536996 
L 184.408264 34.082873 
L 185.17686 33.628749 
L 185.945455 33.174626 
L 186.71405 32.720502 
L 187.482645 32.266379 
L 188.25124 31.812255 
L 189.019835 31.358132 
L 189.78843 30.904009 
L 190.557025 30.449885 
L 191.32562 29.995762 
L 192.094215 29.541638 
L 192.86281 29.087515 
L 193.631405 28.633391 
L 194.4 28.179268 
" style="fill:none;stroke:#000000;stroke-dasharray:1.85,0.8;stroke-dashoffset:0;stroke-width:0.5;"/>
   </g>
   <g id="patch_6">
    <path d="M 118.309091 94.5 
L 118.309091 12.96 
" style="fill:none;stroke:#000000;stroke-linecap:square;stroke-linejoin:miter;"/>
   </g>
   <g id="patch_7">
    <path d="M 118.309091 94.5 
L 194.4 94.5 
" style="fill:none;stroke:#000000;stroke-linecap:square;stroke-linejoin:miter;"/>
   </g>
   <g id="matplotlib.axis_3">
    <g id="xtick_3">
     <g id="line2d_13"/>
     <g id="text_11">
      <text style="font-family:Arial;font-size:8px;font-style:normal;font-weight:normal;text-anchor:middle;" transform="rotate(-0, 118.309091, 103.72625)" x="118.309091" y="103.72625">0.0</text>
     </g>
    </g>
    <g id="xtick_4">
     <g id="line2d_14"/>
     <g id="text_12">
      <text style="font-family:Arial;font-size:8px;font-style:normal;font-weight:normal;text-anchor:middle;" transform="rotate(-0, 143.791019, 103.72625)" x="143.791019" y="103.72625">0.5</text>
     </g>
    </g>
    <g id="xtick_5">
     <g id="line2d_15"/>
     <g id="text_13">
      <text style="font-family:Arial;font-size:8px;font-style:normal;font-weight:normal;text-anchor:middle;" transform="rotate(-0, 169.272948, 103.72625)" x="169.272948" y="103.72625">1.0</text>
     </g>
    </g>
    <g id="xtick_6">
     <g id="line2d_16"/>
     <g id="text_14">
      <text style="font-family:Arial;font-size:8px;font-style:normal;font-weight:normal;text-anchor:middle;" transform="rotate(-0, 194.754876, 103.72625)" x="194.754876" y="103.72625">1.5</text>
     </g>
    </g>
    <g id="text_15">
     <!-- $\sigma$(Exc) -->
     <g transform="translate(141.504545 116.61625)">
      <text>
       <tspan style="font-family:DejaVu Sans;font-size:10px;font-style:oblique;font-weight:oblique;" x="0" y="-0.71875">σ</tspan>
       <tspan style="font-family:Arial;font-size:10px;font-style:regular;font-weight:regular;" x="6.337891 9.667969 16.337891 21.337891 26.337891" y="-0.71875">(Exc)</tspan>
      </text>
     </g>
    </g>
   </g>
   <g id="matplotlib.axis_4">
    <g id="ytick_6">
     <g id="line2d_17"/>
     <g id="text_16">
      <text style="font-family:Arial;font-size:8px;font-style:normal;font-weight:normal;text-anchor:end;" transform="rotate(-0, 114.809091, 97.363125)" x="114.809091" y="97.363125">0.0</text>
     </g>
    </g>
    <g id="ytick_7">
     <g id="line2d_18"/>
     <g id="text_17">
      <text style="font-family:Arial;font-size:8px;font-style:normal;font-weight:normal;text-anchor:end;" transform="rotate(-0, 114.809091, 70.056362)" x="114.809091" y="70.056362">0.5</text>
     </g>
    </g>
    <g id="ytick_8">
     <g id="line2d_19"/>
     <g id="text_18">
      <text style="font-family:Arial;font-size:8px;font-style:normal;font-weight:normal;text-anchor:end;" transform="rotate(-0, 114.809091, 42.749598)" x="114.809091" y="42.749598">1.0</text>
     </g>
    </g>
    <g id="ytick_9">
     <g id="line2d_20"/>
     <g id="text_19">
      <text style="font-family:Arial;font-size:8px;font-style:normal;font-weight:normal;text-anchor:end;" transform="rotate(-0, 114.809091, 15.442835)" x="114.809091" y="15.442835">1.5</text>
     </g>
    </g>
    <g id="text_20">
     <!-- $\sigma$(Inh) -->
     <g transform="translate(97.489091 67.18)rotate(-90)">
      <text>
       <tspan style="font-family:DejaVu Sans;font-size:10px;font-style:oblique;font-weight:oblique;" x="0" y="-0.71875">σ</tspan>
       <tspan style="font-family:Arial;font-size:10px;font-style:regular;font-weight:regular;" x="6.337891 9.667969 12.446289 18.007812 23.569336" y="-0.71875">(Inh)</tspan>
      </text>
     </g>
    </g>
   </g>
   <g id="legend_2">
    <g id="line2d_21">
     <path d="M 127.309091 75.622656 
L 147.309091 75.622656 
" style="fill:none;stroke:#000000;stroke-dasharray:1.85,0.8;stroke-dashoffset:0;stroke-width:0.5;"/>
    </g>
    <g id="line2d_22"/>
    <g id="text_21">
     <!-- $R^2$ 0.31 -->
     <g transform="translate(155.309091 72.875)">
      <text>
       <tspan style="font-family:DejaVu Sans;font-size:10px;font-style:oblique;font-weight:oblique;" x="0" y="-0.9765625">R</tspan>
       <tspan style="font-family:DejaVu Sans;font-size:7px;font-style:book;font-weight:book;" x="7.650794" y="-4.8046875">2</tspan>
       <tspan style="font-family:Arial;font-size:10px;font-style:regular;font-weight:regular;" x="12.377845 15.156165 20.717689 23.496009 29.057533" y="-0.9765625"> 0.31</tspan>
      </text>
     </g>
     <text style="font-family:Arial;font-size:10px;font-style:normal;font-weight:normal;" transform="translate(155.309091 83.4875)"> slope 0.55</text>
    </g>
   </g>
  </g>
 </g>
 <defs>
  <clipPath id="pa99a8b7477">
   <rect height="81.54" width="76.090909" x="27" y="12.96"/>
  </clipPath>
  <clipPath id="p9f878359e6">
   <rect height="81.54" width="76.090909" x="118.309091" y="12.96"/>
  </clipPath>
 </defs>
</svg>
