<?xml version="1.0" encoding="utf-8" standalone="no"?>
<!DOCTYPE svg PUBLIC "-//W3C//DTD SVG 1.1//EN"
  "http://www.w3.org/Graphics/SVG/1.1/DTD/svg11.dtd">
<!-- Created with matplotlib (http://matplotlib.org/) -->
<svg height="108pt" version="1.1" viewBox="0 0 216 108" width="216pt" xmlns="http://www.w3.org/2000/svg" xmlns:xlink="http://www.w3.org/1999/xlink">
 <defs>
  <style type="text/css">
*{stroke-linecap:butt;stroke-linejoin:round;}
  </style>
 </defs>
 <g id="figure_1">
  <g id="patch_1">
   <path d="M 0 108 
L 216 108 
L 216 0 
L 0 0 
z
" style="fill:#ffffff;"/>
  </g>
  <g id="axes_1">
   <g id="patch_2">
    <path d="M 27 94.5 
L 103.090909 94.5 
L 103.090909 12.96 
L 27 12.96 
z
" style="fill:#ffffff;"/>
   </g>
   <g id="LineCollection_1">
    <path clip-path="url(#p7198e3132f)" d="M 30.688328 69.448679 
L 41.366972 69.448679 
" style="fill:none;stroke:#000000;stroke-width:0.5;"/>
    <path clip-path="url(#p7198e3132f)" d="M 30.187796 50.371668 
L 41.863299 50.371668 
" style="fill:none;stroke:#000000;stroke-width:0.5;"/>
    <path clip-path="url(#p7198e3132f)" d="M 26.297454 82.954118 
L 33.925309 82.954118 
" style="fill:none;stroke:#000000;stroke-width:0.5;"/>
    <path clip-path="url(#p7198e3132f)" d="M 26.23604 72.500102 
L 40.635624 72.500102 
" style="fill:none;stroke:#000000;stroke-width:0.5;"/>
    <path clip-path="url(#p7198e3132f)" d="M 28.413165 50.475255 
L 56.442235 50.475255 
" style="fill:none;stroke:#000000;stroke-width:0.5;"/>
    <path clip-path="url(#p7198e3132f)" d="M 26.442326 75.983805 
L 32.516791 75.983805 
" style="fill:none;stroke:#000000;stroke-width:0.5;"/>
    <path clip-path="url(#p7198e3132f)" d="M 26.039366 81.565164 
L 31.188264 81.565164 
" style="fill:none;stroke:#000000;stroke-width:0.5;"/>
    <path clip-path="url(#p7198e3132f)" d="M 26.544037 55.84004 
L 38.074258 55.84004 
" style="fill:none;stroke:#000000;stroke-width:0.5;"/>
    <path clip-path="url(#p7198e3132f)" d="M 24.956545 67.558486 
L 42.300122 67.558486 
" style="fill:none;stroke:#000000;stroke-width:0.5;"/>
    <path clip-path="url(#p7198e3132f)" d="M 25.290809 53.887973 
L 44.913674 53.887973 
" style="fill:none;stroke:#000000;stroke-width:0.5;"/>
    <path clip-path="url(#p7198e3132f)" d="M 28.844644 79.333507 
L 36.47128 79.333507 
" style="fill:none;stroke:#000000;stroke-width:0.5;"/>
    <path clip-path="url(#p7198e3132f)" d="M 26.155809 90.516748 
L 30.918484 90.516748 
" style="fill:none;stroke:#000000;stroke-width:0.5;"/>
    <path clip-path="url(#p7198e3132f)" d="M 28.627758 68.584633 
L 42.088398 68.584633 
" style="fill:none;stroke:#000000;stroke-width:0.5;"/>
    <path clip-path="url(#p7198e3132f)" d="M 25.838003 81.672522 
L 32.759513 81.672522 
" style="fill:none;stroke:#000000;stroke-width:0.5;"/>
    <path clip-path="url(#p7198e3132f)" d="M 39.499595 28.5299 
L 59.040769 28.5299 
" style="fill:none;stroke:#000000;stroke-width:0.5;"/>
    <path clip-path="url(#p7198e3132f)" d="M 31.047704 71.298602 
L 42.405671 71.298602 
" style="fill:none;stroke:#000000;stroke-width:0.5;"/>
    <path clip-path="url(#p7198e3132f)" d="M 25.96346 79.905912 
L 33.493938 79.905912 
" style="fill:none;stroke:#000000;stroke-width:0.5;"/>
    <path clip-path="url(#p7198e3132f)" d="M 24.24894 64.172349 
L 45.224507 64.172349 
" style="fill:none;stroke:#000000;stroke-width:0.5;"/>
    <path clip-path="url(#p7198e3132f)" d="M 26.30429 61.584798 
L 38.258732 61.584798 
" style="fill:none;stroke:#000000;stroke-width:0.5;"/>
    <path clip-path="url(#p7198e3132f)" d="M 26.916903 72.50989 
L 32.089864 72.50989 
" style="fill:none;stroke:#000000;stroke-width:0.5;"/>
    <path clip-path="url(#p7198e3132f)" d="M 26.417637 76.256994 
L 39.134472 76.256994 
" style="fill:none;stroke:#000000;stroke-width:0.5;"/>
    <path clip-path="url(#p7198e3132f)" d="M 27.17117 83.674105 
L 28.347617 83.674105 
" style="fill:none;stroke:#000000;stroke-width:0.5;"/>
    <path clip-path="url(#p7198e3132f)" d="M 28.221497 54.976499 
L 45.177038 54.976499 
" style="fill:none;stroke:#000000;stroke-width:0.5;"/>
    <path clip-path="url(#p7198e3132f)" d="M 28.124012 76.568701 
L 32.970046 76.568701 
" style="fill:none;stroke:#000000;stroke-width:0.5;"/>
    <path clip-path="url(#p7198e3132f)" d="M 25.381578 71.651601 
L 33.672288 71.651601 
" style="fill:none;stroke:#000000;stroke-width:0.5;"/>
    <path clip-path="url(#p7198e3132f)" d="M 26.584054 79.556593 
L 36.280842 79.556593 
" style="fill:none;stroke:#000000;stroke-width:0.5;"/>
    <path clip-path="url(#p7198e3132f)" d="M 26.112571 78.169597 
L 33.371908 78.169597 
" style="fill:none;stroke:#000000;stroke-width:0.5;"/>
    <path clip-path="url(#p7198e3132f)" d="M 28.883971 78.552654 
L 35.660691 78.552654 
" style="fill:none;stroke:#000000;stroke-width:0.5;"/>
    <path clip-path="url(#p7198e3132f)" d="M 25.136989 70.243247 
L 39.319702 70.243247 
" style="fill:none;stroke:#000000;stroke-width:0.5;"/>
    <path clip-path="url(#p7198e3132f)" d="M 22.188864 74.733853 
L 38.449521 74.733853 
" style="fill:none;stroke:#000000;stroke-width:0.5;"/>
   </g>
   <g id="LineCollection_2">
    <path clip-path="url(#p7198e3132f)" d="M 36.02765 74.34542 
L 36.02765 64.551938 
" style="fill:none;stroke:#000000;stroke-width:0.5;"/>
    <path clip-path="url(#p7198e3132f)" d="M 36.025548 59.612248 
L 36.025548 41.131089 
" style="fill:none;stroke:#000000;stroke-width:0.5;"/>
    <path clip-path="url(#p7198e3132f)" d="M 30.111382 83.9625 
L 30.111382 81.945735 
" style="fill:none;stroke:#000000;stroke-width:0.5;"/>
    <path clip-path="url(#p7198e3132f)" d="M 33.435832 75.644859 
L 33.435832 69.355345 
" style="fill:none;stroke:#000000;stroke-width:0.5;"/>
    <path clip-path="url(#p7198e3132f)" d="M 42.4277 53.908347 
L 42.4277 47.042163 
" style="fill:none;stroke:#000000;stroke-width:0.5;"/>
    <path clip-path="url(#p7198e3132f)" d="M 29.479559 79.695721 
L 29.479559 72.271889 
" style="fill:none;stroke:#000000;stroke-width:0.5;"/>
    <path clip-path="url(#p7198e3132f)" d="M 28.613815 85.377029 
L 28.613815 77.753299 
" style="fill:none;stroke:#000000;stroke-width:0.5;"/>
    <path clip-path="url(#p7198e3132f)" d="M 32.309147 60.959735 
L 32.309147 50.720345 
" style="fill:none;stroke:#000000;stroke-width:0.5;"/>
    <path clip-path="url(#p7198e3132f)" d="M 33.628333 80.560412 
L 33.628333 54.55656 
" style="fill:none;stroke:#000000;stroke-width:0.5;"/>
    <path clip-path="url(#p7198e3132f)" d="M 35.102241 60.661613 
L 35.102241 47.114333 
" style="fill:none;stroke:#000000;stroke-width:0.5;"/>
    <path clip-path="url(#p7198e3132f)" d="M 32.657962 80.641973 
L 32.657962 78.025041 
" style="fill:none;stroke:#000000;stroke-width:0.5;"/>
    <path clip-path="url(#p7198e3132f)" d="M 28.537146 92.468135 
L 28.537146 88.565361 
" style="fill:none;stroke:#000000;stroke-width:0.5;"/>
    <path clip-path="url(#p7198e3132f)" d="M 35.358078 75.385573 
L 35.358078 61.783693 
" style="fill:none;stroke:#000000;stroke-width:0.5;"/>
    <path clip-path="url(#p7198e3132f)" d="M 29.298758 84.47465 
L 29.298758 78.870395 
" style="fill:none;stroke:#000000;stroke-width:0.5;"/>
    <path clip-path="url(#p7198e3132f)" d="M 49.270182 40.313698 
L 49.270182 16.746102 
" style="fill:none;stroke:#000000;stroke-width:0.5;"/>
    <path clip-path="url(#p7198e3132f)" d="M 36.726688 75.146676 
L 36.726688 67.450528 
" style="fill:none;stroke:#000000;stroke-width:0.5;"/>
    <path clip-path="url(#p7198e3132f)" d="M 29.728699 81.533344 
L 29.728699 78.278481 
" style="fill:none;stroke:#000000;stroke-width:0.5;"/>
    <path clip-path="url(#p7198e3132f)" d="M 34.736723 75.375833 
L 34.736723 52.968864 
" style="fill:none;stroke:#000000;stroke-width:0.5;"/>
    <path clip-path="url(#p7198e3132f)" d="M 32.281511 64.477429 
L 32.281511 58.692168 
" style="fill:none;stroke:#000000;stroke-width:0.5;"/>
    <path clip-path="url(#p7198e3132f)" d="M 29.503383 78.277374 
L 29.503383 66.742405 
" style="fill:none;stroke:#000000;stroke-width:0.5;"/>
    <path clip-path="url(#p7198e3132f)" d="M 32.776055 81.643382 
L 32.776055 70.870607 
" style="fill:none;stroke:#000000;stroke-width:0.5;"/>
    <path clip-path="url(#p7198e3132f)" d="M 27.759394 88.291329 
L 27.759394 79.056881 
" style="fill:none;stroke:#000000;stroke-width:0.5;"/>
    <path clip-path="url(#p7198e3132f)" d="M 36.699268 62.485662 
L 36.699268 47.467337 
" style="fill:none;stroke:#000000;stroke-width:0.5;"/>
    <path clip-path="url(#p7198e3132f)" d="M 30.547029 79.813765 
L 30.547029 73.323637 
" style="fill:none;stroke:#000000;stroke-width:0.5;"/>
    <path clip-path="url(#p7198e3132f)" d="M 29.526933 77.622835 
L 29.526933 65.680367 
" style="fill:none;stroke:#000000;stroke-width:0.5;"/>
    <path clip-path="url(#p7198e3132f)" d="M 31.432448 82.773414 
L 31.432448 76.339771 
" style="fill:none;stroke:#000000;stroke-width:0.5;"/>
    <path clip-path="url(#p7198e3132f)" d="M 29.74224 83.337401 
L 29.74224 73.001793 
" style="fill:none;stroke:#000000;stroke-width:0.5;"/>
    <path clip-path="url(#p7198e3132f)" d="M 32.272331 82.789738 
L 32.272331 74.31557 
" style="fill:none;stroke:#000000;stroke-width:0.5;"/>
    <path clip-path="url(#p7198e3132f)" d="M 32.228345 80.980435 
L 32.228345 59.506059 
" style="fill:none;stroke:#000000;stroke-width:0.5;"/>
    <path clip-path="url(#p7198e3132f)" d="M 30.319193 81.51519 
L 30.319193 67.952517 
" style="fill:none;stroke:#000000;stroke-width:0.5;"/>
   </g>
   <g id="line2d_1">
    <path clip-path="url(#p7198e3132f)" d="M 27 85.006802 
L 27.768595 83.082228 
L 28.53719 81.157654 
L 29.305785 79.233079 
L 30.07438 77.308505 
L 30.842975 75.38393 
L 31.61157 73.459356 
L 32.380165 71.534781 
L 33.14876 69.610207 
L 33.917355 67.685633 
L 34.68595 65.761058 
L 35.454545 63.836484 
L 36.22314 61.911909 
L 36.991736 59.987335 
L 37.760331 58.06276 
L 38.528926 56.138186 
L 39.297521 54.213612 
L 40.066116 52.289037 
L 40.834711 50.364463 
L 41.603306 48.439888 
L 42.371901 46.515314 
L 43.140496 44.590739 
L 43.909091 42.666165 
L 44.677686 40.741591 
L 45.446281 38.817016 
L 46.214876 36.892442 
L 46.983471 34.967867 
L 47.752066 33.043293 
L 48.520661 31.118718 
L 49.289256 29.194144 
L 50.057851 27.269569 
L 50.826446 25.344995 
L 51.595041 23.420421 
L 52.363636 21.495846 
L 53.132231 19.571272 
L 53.900826 17.646697 
L 54.669421 15.722123 
L 55.438017 13.797548 
L 56.206612 11.872974 
L 56.975207 9.9484 
L 57.743802 8.023825 
L 58.512397 6.099251 
L 59.280992 4.174676 
L 60.049587 2.250102 
L 60.818182 0.325527 
L 61.347542 -1 
" style="fill:none;stroke:#000000;stroke-dasharray:1.85,0.8;stroke-dashoffset:0;stroke-width:0.5;"/>
   </g>
   <g id="line2d_2">
    <defs>
     <path d="M 0 3 
C 0.795609 3 1.55874 2.683901 2.12132 2.12132 
C 2.683901 1.55874 3 0.795609 3 0 
C 3 -0.795609 2.683901 -1.55874 2.12132 -2.12132 
C 1.55874 -2.683901 0.795609 -3 0 -3 
C -0.795609 -3 -1.55874 -2.683901 -2.12132 -2.12132 
C -2.683901 -1.55874 -3 -0.795609 -3 0 
C -3 0.795609 -2.683901 1.55874 -2.12132 2.12132 
C -1.55874 2.683901 -0.795609 3 0 3 
z
" id="m987fc071d7" style="stroke:#000000;"/>
    </defs>
    <g clip-path="url(#p7198e3132f)">
     <use style="stroke:#000000;" x="36.02765" xlink:href="#m987fc071d7" y="69.448679"/>
     <use style="stroke:#000000;" x="36.025548" xlink:href="#m987fc071d7" y="50.371668"/>
     <use style="stroke:#000000;" x="30.111382" xlink:href="#m987fc071d7" y="82.954118"/>
     <use style="stroke:#000000;" x="33.435832" xlink:href="#m987fc071d7" y="72.500102"/>
     <use style="stroke:#000000;" x="42.4277" xlink:href="#m987fc071d7" y="50.475255"/>
     <use style="stroke:#000000;" x="29.479559" xlink:href="#m987fc071d7" y="75.983805"/>
     <use style="stroke:#000000;" x="28.613815" xlink:href="#m987fc071d7" y="81.565164"/>
     <use style="stroke:#000000;" x="32.309147" xlink:href="#m987fc071d7" y="55.84004"/>
     <use style="stroke:#000000;" x="33.628333" xlink:href="#m987fc071d7" y="67.558486"/>
     <use style="stroke:#000000;" x="35.102241" xlink:href="#m987fc071d7" y="53.887973"/>
     <use style="stroke:#000000;" x="32.657962" xlink:href="#m987fc071d7" y="79.333507"/>
     <use style="stroke:#000000;" x="28.537146" xlink:href="#m987fc071d7" y="90.516748"/>
     <use style="stroke:#000000;" x="35.358078" xlink:href="#m987fc071d7" y="68.584633"/>
     <use style="stroke:#000000;" x="29.298758" xlink:href="#m987fc071d7" y="81.672522"/>
     <use style="stroke:#000000;" x="49.270182" xlink:href="#m987fc071d7" y="28.5299"/>
     <use style="stroke:#000000;" x="36.726688" xlink:href="#m987fc071d7" y="71.298602"/>
     <use style="stroke:#000000;" x="29.728699" xlink:href="#m987fc071d7" y="79.905912"/>
     <use style="stroke:#000000;" x="34.736723" xlink:href="#m987fc071d7" y="64.172349"/>
     <use style="stroke:#000000;" x="32.281511" xlink:href="#m987fc071d7" y="61.584798"/>
     <use style="stroke:#000000;" x="29.503383" xlink:href="#m987fc071d7" y="72.50989"/>
     <use style="stroke:#000000;" x="32.776055" xlink:href="#m987fc071d7" y="76.256994"/>
     <use style="stroke:#000000;" x="27.759394" xlink:href="#m987fc071d7" y="83.674105"/>
     <use style="stroke:#000000;" x="36.699268" xlink:href="#m987fc071d7" y="54.976499"/>
     <use style="stroke:#000000;" x="30.547029" xlink:href="#m987fc071d7" y="76.568701"/>
     <use style="stroke:#000000;" x="29.526933" xlink:href="#m987fc071d7" y="71.651601"/>
     <use style="stroke:#000000;" x="31.432448" xlink:href="#m987fc071d7" y="79.556593"/>
     <use style="stroke:#000000;" x="29.74224" xlink:href="#m987fc071d7" y="78.169597"/>
     <use style="stroke:#000000;" x="32.272331" xlink:href="#m987fc071d7" y="78.552654"/>
     <use style="stroke:#000000;" x="32.228345" xlink:href="#m987fc071d7" y="70.243247"/>
     <use style="stroke:#000000;" x="30.319193" xlink:href="#m987fc071d7" y="74.733853"/>
    </g>
   </g>
   <g id="patch_3">
    <path d="M 27 94.5 
L 27 12.96 
" style="fill:none;stroke:#000000;stroke-linecap:square;stroke-linejoin:miter;"/>
   </g>
   <g id="patch_4">
    <path d="M 27 94.5 
L 103.090909 94.5 
" style="fill:none;stroke:#000000;stroke-linecap:square;stroke-linejoin:miter;"/>
   </g>
   <g id="matplotlib.axis_1">
    <g id="xtick_1">
     <g id="line2d_3"/>
     <g id="text_1">
      <text style="font-family:Arial;font-size:8px;font-style:normal;font-weight:normal;text-anchor:middle;" transform="rotate(-0, 27, 103.72625)" x="27" y="103.72625">0</text>
     </g>
    </g>
    <g id="xtick_2">
     <g id="line2d_4"/>
     <g id="text_2">
      <text style="font-family:Arial;font-size:8px;font-style:normal;font-weight:normal;text-anchor:middle;" transform="rotate(-0, 59.390715, 103.72625)" x="59.390715" y="103.72625">5</text>
     </g>
    </g>
    <g id="xtick_3">
     <g id="line2d_5"/>
     <g id="text_3">
      <text style="font-family:Arial;font-size:8px;font-style:normal;font-weight:normal;text-anchor:middle;" transform="rotate(-0, 91.781431, 103.72625)" x="91.781431" y="103.72625">10</text>
     </g>
    </g>
    <g id="text_4">
     <text style="font-family:Arial;font-size:10px;font-style:normal;font-weight:normal;text-anchor:middle;" transform="rotate(-0, 65.045455, 116.474063)" x="65.045455" y="116.474063">Exc</text>
    </g>
   </g>
   <g id="matplotlib.axis_2">
    <g id="ytick_1">
     <g id="line2d_6"/>
     <g id="text_5">
      <text style="font-family:Arial;font-size:8px;font-style:normal;font-weight:normal;text-anchor:end;" transform="rotate(-0, 23.5, 97.363125)" x="23.5" y="97.363125">0.0</text>
     </g>
    </g>
    <g id="ytick_2">
     <g id="line2d_7"/>
     <g id="text_6">
      <text style="font-family:Arial;font-size:8px;font-style:normal;font-weight:normal;text-anchor:end;" transform="rotate(-0, 23.5, 80.007971)" x="23.5" y="80.007971">2.5</text>
     </g>
    </g>
    <g id="ytick_3">
     <g id="line2d_8"/>
     <g id="text_7">
      <text style="font-family:Arial;font-size:8px;font-style:normal;font-weight:normal;text-anchor:end;" transform="rotate(-0, 23.5, 62.652816)" x="23.5" y="62.652816">5.0</text>
     </g>
    </g>
    <g id="ytick_4">
     <g id="line2d_9"/>
     <g id="text_8">
      <text style="font-family:Arial;font-size:8px;font-style:normal;font-weight:normal;text-anchor:end;" transform="rotate(-0, 23.5, 45.297662)" x="23.5" y="45.297662">7.5</text>
     </g>
    </g>
    <g id="ytick_5">
     <g id="line2d_10"/>
     <g id="text_9">
      <text style="font-family:Arial;font-size:8px;font-style:normal;font-weight:normal;text-anchor:end;" transform="rotate(-0, 23.5, 27.942508)" x="23.5" y="27.942508">10.0</text>
     </g>
    </g>
    <g id="text_10">
     <text style="font-family:Arial;font-size:10px;font-style:normal;font-weight:normal;text-anchor:middle;" transform="rotate(-90, 1.94375, 53.73)" x="1.94375" y="53.73">Inh</text>
    </g>
   </g>
   <g id="legend_1">
    <g id="line2d_11">
     <path d="M 17.169034 31.995156 
L 37.169034 31.995156 
" style="fill:none;stroke:#000000;stroke-dasharray:1.85,0.8;stroke-dashoffset:0;stroke-width:0.5;"/>
    </g>
    <g id="line2d_12"/>
    <g id="text_11">
     <!-- $R^2$ 0.74 -->
     <g transform="translate(45.169034 29.2475)">
      <text>
       <tspan style="font-family:DejaVu Sans;font-size:10px;font-style:oblique;font-weight:oblique;" x="0" y="-0.9765625">R</tspan>
       <tspan style="font-family:DejaVu Sans;font-size:7px;font-style:book;font-weight:book;" x="7.650794" y="-4.8046875">2</tspan>
       <tspan style="font-family:Arial;font-size:10px;font-style:regular;font-weight:regular;" x="12.377845 15.156165 20.717689 23.496009 29.057533" y="-0.9765625"> 0.74</tspan>
      </text>
     </g>
     <text style="font-family:Arial;font-size:10px;font-style:normal;font-weight:normal;" transform="translate(45.169034 39.86)"> slope 2.34</text>
    </g>
   </g>
  </g>
  <g id="axes_2">
   <g id="patch_5">
    <path d="M 118.309091 94.5 
L 194.4 94.5 
L 194.4 12.96 
L 118.309091 12.96 
z
" style="fill:#ffffff;"/>
   </g>
   <g id="PathCollection_1">
    <defs>
     <path d="M 0 2.44949 
C 0.649612 2.44949 1.272706 2.191396 1.732051 1.732051 
C 2.191396 1.272706 2.44949 0.649612 2.44949 0 
C 2.44949 -0.649612 2.191396 -1.272706 1.732051 -1.732051 
C 1.272706 -2.191396 0.649612 -2.44949 0 -2.44949 
C -0.649612 -2.44949 -1.272706 -2.191396 -1.732051 -1.732051 
C -2.191396 -1.272706 -2.44949 -0.649612 -2.44949 0 
C -2.44949 0.649612 -2.191396 1.272706 -1.732051 1.732051 
C -1.272706 2.191396 -0.649612 2.44949 0 2.44949 
z
" id="m78b9f0e2a8" style="stroke:#000000;"/>
    </defs>
    <g clip-path="url(#pbeaa78dbbd)">
     <use style="stroke:#000000;" x="145.759011" xlink:href="#m78b9f0e2a8" y="69.325429"/>
     <use style="stroke:#000000;" x="148.321478" xlink:href="#m78b9f0e2a8" y="46.993376"/>
     <use style="stroke:#000000;" x="137.916824" xlink:href="#m78b9f0e2a8" y="89.315818"/>
     <use style="stroke:#000000;" x="155.323848" xlink:href="#m78b9f0e2a8" y="78.33253"/>
     <use style="stroke:#000000;" x="190.359036" xlink:href="#m78b9f0e2a8" y="76.850177"/>
     <use style="stroke:#000000;" x="133.923767" xlink:href="#m78b9f0e2a8" y="75.416718"/>
     <use style="stroke:#000000;" x="131.54456" xlink:href="#m78b9f0e2a8" y="74.902871"/>
     <use style="stroke:#000000;" x="147.948026" xlink:href="#m78b9f0e2a8" y="68.179202"/>
     <use style="stroke:#000000;" x="162.891509" xlink:href="#m78b9f0e2a8" y="27.655967"/>
     <use style="stroke:#000000;" x="168.750519" xlink:href="#m78b9f0e2a8" y="59.676127"/>
     <use style="stroke:#000000;" x="137.91369" xlink:href="#m78b9f0e2a8" y="87.773063"/>
     <use style="stroke:#000000;" x="130.551752" xlink:href="#m78b9f0e2a8" y="84.46775"/>
     <use style="stroke:#000000;" x="152.910251" xlink:href="#m78b9f0e2a8" y="59.535777"/>
     <use style="stroke:#000000;" x="136.101134" xlink:href="#m78b9f0e2a8" y="80.094019"/>
     <use style="stroke:#000000;" x="168.54053" xlink:href="#m78b9f0e2a8" y="33.918467"/>
     <use style="stroke:#000000;" x="147.505239" xlink:href="#m78b9f0e2a8" y="74.716717"/>
     <use style="stroke:#000000;" x="137.666512" xlink:href="#m78b9f0e2a8" y="86.133232"/>
     <use style="stroke:#000000;" x="172.227698" xlink:href="#m78b9f0e2a8" y="36.901911"/>
     <use style="stroke:#000000;" x="149.038506" xlink:href="#m78b9f0e2a8" y="79.628735"/>
     <use style="stroke:#000000;" x="131.606412" xlink:href="#m78b9f0e2a8" y="64.84886"/>
     <use style="stroke:#000000;" x="150.998267" xlink:href="#m78b9f0e2a8" y="66.808112"/>
     <use style="stroke:#000000;" x="121.333201" xlink:href="#m78b9f0e2a8" y="70.762451"/>
     <use style="stroke:#000000;" x="161.894047" xlink:href="#m78b9f0e2a8" y="55.894741"/>
     <use style="stroke:#000000;" x="130.766033" xlink:href="#m78b9f0e2a8" y="77.816842"/>
     <use style="stroke:#000000;" x="139.620721" xlink:href="#m78b9f0e2a8" y="63.801365"/>
     <use style="stroke:#000000;" x="143.235107" xlink:href="#m78b9f0e2a8" y="77.962041"/>
     <use style="stroke:#000000;" x="136.969531" xlink:href="#m78b9f0e2a8" y="67.931871"/>
     <use style="stroke:#000000;" x="135.728944" xlink:href="#m78b9f0e2a8" y="72.716783"/>
     <use style="stroke:#000000;" x="154.766373" xlink:href="#m78b9f0e2a8" y="39.299183"/>
     <use style="stroke:#000000;" x="160.107816" xlink:href="#m78b9f0e2a8" y="59.636559"/>
    </g>
   </g>
   <g id="line2d_13">
    <path clip-path="url(#pbeaa78dbbd)" d="M 118.309091 83.266325 
L 119.077686 82.83429 
L 119.846281 82.402254 
L 120.614876 81.970219 
L 121.383471 81.538184 
L 122.152066 81.106148 
L 122.920661 80.674113 
L 123.689256 80.242078 
L 124.457851 79.810042 
L 125.226446 79.378007 
L 125.995041 78.945971 
L 126.763636 78.513936 
L 127.532231 78.081901 
L 128.300826 77.649865 
L 129.069421 77.21783 
L 129.838017 76.785794 
L 130.606612 76.353759 
L 131.375207 75.921724 
L 132.143802 75.489688 
L 132.912397 75.057653 
L 133.680992 74.625618 
L 134.449587 74.193582 
L 135.218182 73.761547 
L 135.986777 73.329511 
L 136.755372 72.897476 
L 137.523967 72.465441 
L 138.292562 72.033405 
L 139.061157 71.60137 
L 139.829752 71.169335 
L 140.598347 70.737299 
L 141.366942 70.305264 
L 142.135537 69.873228 
L 142.904132 69.441193 
L 143.672727 69.009158 
L 144.441322 68.577122 
L 145.209917 68.145087 
L 145.978512 67.713052 
L 146.747107 67.281016 
L 147.515702 66.848981 
L 148.284298 66.416945 
L 149.052893 65.98491 
L 149.821488 65.552875 
L 150.590083 65.120839 
L 151.358678 64.688804 
L 152.127273 64.256769 
L 152.895868 63.824733 
L 153.664463 63.392698 
L 154.433058 62.960662 
L 155.201653 62.528627 
L 155.970248 62.096592 
L 156.738843 61.664556 
L 157.507438 61.232521 
L 158.276033 60.800485 
L 159.044628 60.36845 
L 159.813223 59.936415 
L 160.581818 59.504379 
L 161.350413 59.072344 
L 162.119008 58.640309 
L 162.887603 58.208273 
L 163.656198 57.776238 
L 164.424793 57.344202 
L 165.193388 56.912167 
L 165.961983 56.480132 
L 166.730579 56.048096 
L 167.499174 55.616061 
L 168.267769 55.184026 
L 169.036364 54.75199 
L 169.804959 54.319955 
L 170.573554 53.887919 
L 171.342149 53.455884 
L 172.110744 53.023849 
L 172.879339 52.591813 
L 173.647934 52.159778 
L 174.416529 51.727743 
L 175.185124 51.295707 
L 175.953719 50.863672 
L 176.722314 50.431636 
L 177.490909 49.999601 
L 178.259504 49.567566 
L 179.028099 49.13553 
L 179.796694 48.703495 
L 180.565289 48.27146 
L 181.333884 47.839424 
L 182.102479 47.407389 
L 182.871074 46.975353 
L 183.639669 46.543318 
L 184.408264 46.111283 
L 185.17686 45.679247 
L 185.945455 45.247212 
L 186.71405 44.815176 
L 187.482645 44.383141 
L 188.25124 43.951106 
L 189.019835 43.51907 
L 189.78843 43.087035 
L 190.557025 42.655 
L 191.32562 42.222964 
L 192.094215 41.790929 
L 192.86281 41.358893 
L 193.631405 40.926858 
L 194.4 40.494823 
" style="fill:none;stroke:#000000;stroke-dasharray:1.85,0.8;stroke-dashoffset:0;stroke-width:0.5;"/>
   </g>
   <g id="patch_6">
    <path d="M 118.309091 94.5 
L 118.309091 12.96 
" style="fill:none;stroke:#000000;stroke-linecap:square;stroke-linejoin:miter;"/>
   </g>
   <g id="patch_7">
    <path d="M 118.309091 94.5 
L 194.4 94.5 
" style="fill:none;stroke:#000000;stroke-linecap:square;stroke-linejoin:miter;"/>
   </g>
   <g id="matplotlib.axis_3">
    <g id="xtick_4">
     <g id="line2d_14"/>
     <g id="text_12">
      <text style="font-family:Arial;font-size:8px;font-style:normal;font-weight:normal;text-anchor:middle;" transform="rotate(-0, 118.309091, 103.72625)" x="118.309091" y="103.72625">0</text>
     </g>
    </g>
    <g id="xtick_5">
     <g id="line2d_15"/>
     <g id="text_13">
      <text style="font-family:Arial;font-size:8px;font-style:normal;font-weight:normal;text-anchor:middle;" transform="rotate(-0, 151.613788, 103.72625)" x="151.613788" y="103.72625">1</text>
     </g>
    </g>
    <g id="xtick_6">
     <g id="line2d_16"/>
     <g id="text_14">
      <text style="font-family:Arial;font-size:8px;font-style:normal;font-weight:normal;text-anchor:middle;" transform="rotate(-0, 184.918485, 103.72625)" x="184.918485" y="103.72625">2</text>
     </g>
    </g>
    <g id="text_15">
     <!-- $\sigma$(Exc) -->
     <g transform="translate(141.504545 116.61625)">
      <text>
       <tspan style="font-family:DejaVu Sans;font-size:10px;font-style:oblique;font-weight:oblique;" x="0" y="-0.71875">σ</tspan>
       <tspan style="font-family:Arial;font-size:10px;font-style:regular;font-weight:regular;" x="6.337891 9.667969 16.337891 21.337891 26.337891" y="-0.71875">(Exc)</tspan>
      </text>
     </g>
    </g>
   </g>
   <g id="matplotlib.axis_4">
    <g id="ytick_6">
     <g id="line2d_17"/>
     <g id="text_16">
      <text style="font-family:Arial;font-size:8px;font-style:normal;font-weight:normal;text-anchor:end;" transform="rotate(-0, 114.809091, 97.363125)" x="114.809091" y="97.363125">0.0</text>
     </g>
    </g>
    <g id="ytick_7">
     <g id="line2d_18"/>
     <g id="text_17">
      <text style="font-family:Arial;font-size:8px;font-style:normal;font-weight:normal;text-anchor:end;" transform="rotate(-0, 114.809091, 79.518253)" x="114.809091" y="79.518253">0.5</text>
     </g>
    </g>
    <g id="ytick_8">
     <g id="line2d_19"/>
     <g id="text_18">
      <text style="font-family:Arial;font-size:8px;font-style:normal;font-weight:normal;text-anchor:end;" transform="rotate(-0, 114.809091, 61.673382)" x="114.809091" y="61.673382">1.0</text>
     </g>
    </g>
    <g id="ytick_9">
     <g id="line2d_20"/>
     <g id="text_19">
      <text style="font-family:Arial;font-size:8px;font-style:normal;font-weight:normal;text-anchor:end;" transform="rotate(-0, 114.809091, 43.82851)" x="114.809091" y="43.82851">1.5</text>
     </g>
    </g>
    <g id="ytick_10">
     <g id="line2d_21"/>
     <g id="text_20">
      <text style="font-family:Arial;font-size:8px;font-style:normal;font-weight:normal;text-anchor:end;" transform="rotate(-0, 114.809091, 25.983638)" x="114.809091" y="25.983638">2.0</text>
     </g>
    </g>
    <g id="text_21">
     <!-- $\sigma$(Inh) -->
     <g transform="translate(97.489091 67.18)rotate(-90)">
      <text>
       <tspan style="font-family:DejaVu Sans;font-size:10px;font-style:oblique;font-weight:oblique;" x="0" y="-0.71875">σ</tspan>
       <tspan style="font-family:Arial;font-size:10px;font-style:regular;font-weight:regular;" x="6.337891 9.667969 12.446289 18.007812 23.569336" y="-0.71875">(Inh)</tspan>
      </text>
     </g>
    </g>
   </g>
   <g id="legend_2">
    <g id="line2d_22">
     <path d="M 108.478125 31.995156 
L 128.478125 31.995156 
" style="fill:none;stroke:#000000;stroke-dasharray:1.85,0.8;stroke-dashoffset:0;stroke-width:0.5;"/>
    </g>
    <g id="line2d_23"/>
    <g id="text_22">
     <!-- $R^2$ 0.28 -->
     <g transform="translate(136.478125 29.2475)">
      <text>
       <tspan style="font-family:DejaVu Sans;font-size:10px;font-style:oblique;font-weight:oblique;" x="0" y="-0.9765625">R</tspan>
       <tspan style="font-family:DejaVu Sans;font-size:7px;font-style:book;font-weight:book;" x="7.650794" y="-4.8046875">2</tspan>
       <tspan style="font-family:Arial;font-size:10px;font-style:regular;font-weight:regular;" x="12.377845 15.156165 20.717689 23.496009 29.057533" y="-0.9765625"> 0.28</tspan>
      </text>
     </g>
     <text style="font-family:Arial;font-size:10px;font-style:normal;font-weight:normal;" transform="translate(136.478125 39.86)"> slope 0.52</text>
    </g>
   </g>
  </g>
 </g>
 <defs>
  <clipPath id="p7198e3132f">
   <rect height="81.54" width="76.090909" x="27" y="12.96"/>
  </clipPath>
  <clipPath id="pbeaa78dbbd">
   <rect height="81.54" width="76.090909" x="118.309091" y="12.96"/>
  </clipPath>
 </defs>
</svg>
