<?xml version="1.0" encoding="utf-8" standalone="no"?>
<!DOCTYPE svg PUBLIC "-//W3C//DTD SVG 1.1//EN"
  "http://www.w3.org/Graphics/SVG/1.1/DTD/svg11.dtd">
<!-- Created with matplotlib (http://matplotlib.org/) -->
<svg height="108pt" version="1.1" viewBox="0 0 216 108" width="216pt" xmlns="http://www.w3.org/2000/svg" xmlns:xlink="http://www.w3.org/1999/xlink">
 <defs>
  <style type="text/css">
*{stroke-linecap:butt;stroke-linejoin:round;}
  </style>
 </defs>
 <g id="figure_1">
  <g id="patch_1">
   <path d="M 0 108 
L 216 108 
L 216 0 
L 0 0 
z
" style="fill:#ffffff;"/>
  </g>
  <g id="axes_1">
   <g id="patch_2">
    <path d="M 27 94.5 
L 103.090909 94.5 
L 103.090909 12.96 
L 27 12.96 
z
" style="fill:#ffffff;"/>
   </g>
   <g id="LineCollection_1">
    <path clip-path="url(#p8d472234a9)" d="M 25.207745 69.315357 
L 31.265202 69.315357 
" style="fill:none;stroke:#000000;stroke-width:0.5;"/>
    <path clip-path="url(#p8d472234a9)" d="M 30.384767 41.731641 
L 54.881412 41.731641 
" style="fill:none;stroke:#000000;stroke-width:0.5;"/>
    <path clip-path="url(#p8d472234a9)" d="M 28.309756 58.724534 
L 44.610647 58.724534 
" style="fill:none;stroke:#000000;stroke-width:0.5;"/>
    <path clip-path="url(#p8d472234a9)" d="M 21.000783 47.362672 
L 50.317145 47.362672 
" style="fill:none;stroke:#000000;stroke-width:0.5;"/>
    <path clip-path="url(#p8d472234a9)" d="M 23.033041 71.010314 
L 40.36286 71.010314 
" style="fill:none;stroke:#000000;stroke-width:0.5;"/>
    <path clip-path="url(#p8d472234a9)" d="M 28.51221 72.493361 
L 41.407559 72.493361 
" style="fill:none;stroke:#000000;stroke-width:0.5;"/>
    <path clip-path="url(#p8d472234a9)" d="M 28.76361 75.491625 
L 41.87828 75.491625 
" style="fill:none;stroke:#000000;stroke-width:0.5;"/>
    <path clip-path="url(#p8d472234a9)" d="M 23.622503 82.574624 
L 40.712615 82.574624 
" style="fill:none;stroke:#000000;stroke-width:0.5;"/>
    <path clip-path="url(#p8d472234a9)" d="M 25.760899 85.473827 
L 29.948809 85.473827 
" style="fill:none;stroke:#000000;stroke-width:0.5;"/>
    <path clip-path="url(#p8d472234a9)" d="M 28.831931 65.810185 
L 36.302753 65.810185 
" style="fill:none;stroke:#000000;stroke-width:0.5;"/>
    <path clip-path="url(#p8d472234a9)" d="M 25.338886 77.5904 
L 32.617461 77.5904 
" style="fill:none;stroke:#000000;stroke-width:0.5;"/>
    <path clip-path="url(#p8d472234a9)" d="M 33.742523 42.702131 
L 55.516952 42.702131 
" style="fill:none;stroke:#000000;stroke-width:0.5;"/>
    <path clip-path="url(#p8d472234a9)" d="M 27.348533 65.326239 
L 37.667878 65.326239 
" style="fill:none;stroke:#000000;stroke-width:0.5;"/>
    <path clip-path="url(#p8d472234a9)" d="M 28.948015 36.390708 
L 39.759355 36.390708 
" style="fill:none;stroke:#000000;stroke-width:0.5;"/>
    <path clip-path="url(#p8d472234a9)" d="M 25.619245 87.449651 
L 30.285915 87.449651 
" style="fill:none;stroke:#000000;stroke-width:0.5;"/>
    <path clip-path="url(#p8d472234a9)" d="M 25.262326 88.214013 
L 35.065768 88.214013 
" style="fill:none;stroke:#000000;stroke-width:0.5;"/>
    <path clip-path="url(#p8d472234a9)" d="M 30.507457 52.396286 
L 46.415734 52.396286 
" style="fill:none;stroke:#000000;stroke-width:0.5;"/>
    <path clip-path="url(#p8d472234a9)" d="M 23.62606 70.282628 
L 35.029288 70.282628 
" style="fill:none;stroke:#000000;stroke-width:0.5;"/>
    <path clip-path="url(#p8d472234a9)" d="M 29.792287 44.129576 
L 39.881037 44.129576 
" style="fill:none;stroke:#000000;stroke-width:0.5;"/>
    <path clip-path="url(#p8d472234a9)" d="M 27 88.379227 
L 27 88.379227 
" style="fill:none;stroke:#000000;stroke-width:0.5;"/>
    <path clip-path="url(#p8d472234a9)" d="M 25.834874 63.728745 
L 42.480936 63.728745 
" style="fill:none;stroke:#000000;stroke-width:0.5;"/>
    <path clip-path="url(#p8d472234a9)" d="M 27.108229 56.563706 
L 48.205183 56.563706 
" style="fill:none;stroke:#000000;stroke-width:0.5;"/>
    <path clip-path="url(#p8d472234a9)" d="M 25.929717 38.702555 
L 44.357682 38.702555 
" style="fill:none;stroke:#000000;stroke-width:0.5;"/>
    <path clip-path="url(#p8d472234a9)" d="M 29.640503 54.623253 
L 44.814775 54.623253 
" style="fill:none;stroke:#000000;stroke-width:0.5;"/>
    <path clip-path="url(#p8d472234a9)" d="M 34.649099 38.44427 
L 47.431704 38.44427 
" style="fill:none;stroke:#000000;stroke-width:0.5;"/>
    <path clip-path="url(#p8d472234a9)" d="M 30.167243 69.723347 
L 56.481489 69.723347 
" style="fill:none;stroke:#000000;stroke-width:0.5;"/>
    <path clip-path="url(#p8d472234a9)" d="M 33.491243 62.129333 
L 40.391724 62.129333 
" style="fill:none;stroke:#000000;stroke-width:0.5;"/>
    <path clip-path="url(#p8d472234a9)" d="M 29.316889 62.480506 
L 37.99725 62.480506 
" style="fill:none;stroke:#000000;stroke-width:0.5;"/>
    <path clip-path="url(#p8d472234a9)" d="M 19.358452 36.394091 
L 45.185325 36.394091 
" style="fill:none;stroke:#000000;stroke-width:0.5;"/>
    <path clip-path="url(#p8d472234a9)" d="M 23.722548 50.709777 
L 56.747071 50.709777 
" style="fill:none;stroke:#000000;stroke-width:0.5;"/>
   </g>
   <g id="LineCollection_2">
    <path clip-path="url(#p8d472234a9)" d="M 28.236473 86.182924 
L 28.236473 52.447791 
" style="fill:none;stroke:#000000;stroke-width:0.5;"/>
    <path clip-path="url(#p8d472234a9)" d="M 42.633089 56.827723 
L 42.633089 26.635559 
" style="fill:none;stroke:#000000;stroke-width:0.5;"/>
    <path clip-path="url(#p8d472234a9)" d="M 36.460201 68.779041 
L 36.460201 48.670028 
" style="fill:none;stroke:#000000;stroke-width:0.5;"/>
    <path clip-path="url(#p8d472234a9)" d="M 35.658964 60.518168 
L 35.658964 34.207177 
" style="fill:none;stroke:#000000;stroke-width:0.5;"/>
    <path clip-path="url(#p8d472234a9)" d="M 31.69795 76.014321 
L 31.69795 66.006306 
" style="fill:none;stroke:#000000;stroke-width:0.5;"/>
    <path clip-path="url(#p8d472234a9)" d="M 34.959884 81.939663 
L 34.959884 63.04706 
" style="fill:none;stroke:#000000;stroke-width:0.5;"/>
    <path clip-path="url(#p8d472234a9)" d="M 35.320945 82.825271 
L 35.320945 68.15798 
" style="fill:none;stroke:#000000;stroke-width:0.5;"/>
    <path clip-path="url(#p8d472234a9)" d="M 32.167559 86.706022 
L 32.167559 78.443225 
" style="fill:none;stroke:#000000;stroke-width:0.5;"/>
    <path clip-path="url(#p8d472234a9)" d="M 27.854854 87.33743 
L 27.854854 83.610224 
" style="fill:none;stroke:#000000;stroke-width:0.5;"/>
    <path clip-path="url(#p8d472234a9)" d="M 32.567342 73.73207 
L 32.567342 57.888299 
" style="fill:none;stroke:#000000;stroke-width:0.5;"/>
    <path clip-path="url(#p8d472234a9)" d="M 28.978173 82.557143 
L 28.978173 72.623657 
" style="fill:none;stroke:#000000;stroke-width:0.5;"/>
    <path clip-path="url(#p8d472234a9)" d="M 44.629738 56.039307 
L 44.629738 29.364956 
" style="fill:none;stroke:#000000;stroke-width:0.5;"/>
    <path clip-path="url(#p8d472234a9)" d="M 32.508205 70.513533 
L 32.508205 60.138944 
" style="fill:none;stroke:#000000;stroke-width:0.5;"/>
    <path clip-path="url(#p8d472234a9)" d="M 34.353685 56.006029 
L 34.353685 16.775387 
" style="fill:none;stroke:#000000;stroke-width:0.5;"/>
    <path clip-path="url(#p8d472234a9)" d="M 27.95258 87.449651 
L 27.95258 87.449651 
" style="fill:none;stroke:#000000;stroke-width:0.5;"/>
    <path clip-path="url(#p8d472234a9)" d="M 30.164047 93.083118 
L 30.164047 83.344908 
" style="fill:none;stroke:#000000;stroke-width:0.5;"/>
    <path clip-path="url(#p8d472234a9)" d="M 38.461595 60.533975 
L 38.461595 44.258597 
" style="fill:none;stroke:#000000;stroke-width:0.5;"/>
    <path clip-path="url(#p8d472234a9)" d="M 29.327674 80.728817 
L 29.327674 59.83644 
" style="fill:none;stroke:#000000;stroke-width:0.5;"/>
    <path clip-path="url(#p8d472234a9)" d="M 34.836662 51.810456 
L 34.836662 36.448696 
" style="fill:none;stroke:#000000;stroke-width:0.5;"/>
    <path clip-path="url(#p8d472234a9)" d="M 27 91.377781 
L 27 85.380673 
" style="fill:none;stroke:#000000;stroke-width:0.5;"/>
    <path clip-path="url(#p8d472234a9)" d="M 34.157905 75.420462 
L 34.157905 52.037027 
" style="fill:none;stroke:#000000;stroke-width:0.5;"/>
    <path clip-path="url(#p8d472234a9)" d="M 37.656706 65.59646 
L 37.656706 47.530951 
" style="fill:none;stroke:#000000;stroke-width:0.5;"/>
    <path clip-path="url(#p8d472234a9)" d="M 35.1437 42.578199 
L 35.1437 34.826911 
" style="fill:none;stroke:#000000;stroke-width:0.5;"/>
    <path clip-path="url(#p8d472234a9)" d="M 37.227639 62.997636 
L 37.227639 46.248871 
" style="fill:none;stroke:#000000;stroke-width:0.5;"/>
    <path clip-path="url(#p8d472234a9)" d="M 41.040402 45.096287 
L 41.040402 31.792253 
" style="fill:none;stroke:#000000;stroke-width:0.5;"/>
    <path clip-path="url(#p8d472234a9)" d="M 43.324366 77.617159 
L 43.324366 61.829535 
" style="fill:none;stroke:#000000;stroke-width:0.5;"/>
    <path clip-path="url(#p8d472234a9)" d="M 36.941483 69.077406 
L 36.941483 55.18126 
" style="fill:none;stroke:#000000;stroke-width:0.5;"/>
    <path clip-path="url(#p8d472234a9)" d="M 33.65707 68.765599 
L 33.65707 56.195413 
" style="fill:none;stroke:#000000;stroke-width:0.5;"/>
    <path clip-path="url(#p8d472234a9)" d="M 32.271889 40.493003 
L 32.271889 32.295178 
" style="fill:none;stroke:#000000;stroke-width:0.5;"/>
    <path clip-path="url(#p8d472234a9)" d="M 40.23481 64.410411 
L 40.23481 37.009142 
" style="fill:none;stroke:#000000;stroke-width:0.5;"/>
   </g>
   <g id="line2d_1">
    <path clip-path="url(#p8d472234a9)" d="M 27 78.71444 
L 27.768595 77.007484 
L 28.53719 75.300528 
L 29.305785 73.593572 
L 30.07438 71.886615 
L 30.842975 70.179659 
L 31.61157 68.472703 
L 32.380165 66.765746 
L 33.14876 65.05879 
L 33.917355 63.351834 
L 34.68595 61.644878 
L 35.454545 59.937921 
L 36.22314 58.230965 
L 36.991736 56.524009 
L 37.760331 54.817052 
L 38.528926 53.110096 
L 39.297521 51.40314 
L 40.066116 49.696183 
L 40.834711 47.989227 
L 41.603306 46.282271 
L 42.371901 44.575315 
L 43.140496 42.868358 
L 43.909091 41.161402 
L 44.677686 39.454446 
L 45.446281 37.747489 
L 46.214876 36.040533 
L 46.983471 34.333577 
L 47.752066 32.626621 
L 48.520661 30.919664 
L 49.289256 29.212708 
L 50.057851 27.505752 
L 50.826446 25.798795 
L 51.595041 24.091839 
L 52.363636 22.384883 
L 53.132231 20.677927 
L 53.900826 18.97097 
L 54.669421 17.264014 
L 55.438017 15.557058 
L 56.206612 13.850101 
L 56.975207 12.143145 
L 57.743802 10.436189 
L 58.512397 8.729233 
L 59.280992 7.022276 
L 60.049587 5.31532 
L 60.818182 3.608364 
L 61.586777 1.901407 
L 62.355372 0.194451 
L 62.8932 -1 
" style="fill:none;stroke:#000000;stroke-dasharray:1.85,0.8;stroke-dashoffset:0;stroke-width:0.5;"/>
   </g>
   <g id="line2d_2">
    <defs>
     <path d="M 0 3 
C 0.795609 3 1.55874 2.683901 2.12132 2.12132 
C 2.683901 1.55874 3 0.795609 3 0 
C 3 -0.795609 2.683901 -1.55874 2.12132 -2.12132 
C 1.55874 -2.683901 0.795609 -3 0 -3 
C -0.795609 -3 -1.55874 -2.683901 -2.12132 -2.12132 
C -2.683901 -1.55874 -3 -0.795609 -3 0 
C -3 0.795609 -2.683901 1.55874 -2.12132 2.12132 
C -1.55874 2.683901 -0.795609 3 0 3 
z
" id="m7315e58e30" style="stroke:#000000;"/>
    </defs>
    <g clip-path="url(#p8d472234a9)">
     <use style="stroke:#000000;" x="28.236473" xlink:href="#m7315e58e30" y="69.315357"/>
     <use style="stroke:#000000;" x="42.633089" xlink:href="#m7315e58e30" y="41.731641"/>
     <use style="stroke:#000000;" x="36.460201" xlink:href="#m7315e58e30" y="58.724534"/>
     <use style="stroke:#000000;" x="35.658964" xlink:href="#m7315e58e30" y="47.362672"/>
     <use style="stroke:#000000;" x="31.69795" xlink:href="#m7315e58e30" y="71.010314"/>
     <use style="stroke:#000000;" x="34.959884" xlink:href="#m7315e58e30" y="72.493361"/>
     <use style="stroke:#000000;" x="35.320945" xlink:href="#m7315e58e30" y="75.491625"/>
     <use style="stroke:#000000;" x="32.167559" xlink:href="#m7315e58e30" y="82.574624"/>
     <use style="stroke:#000000;" x="27.854854" xlink:href="#m7315e58e30" y="85.473827"/>
     <use style="stroke:#000000;" x="32.567342" xlink:href="#m7315e58e30" y="65.810185"/>
     <use style="stroke:#000000;" x="28.978173" xlink:href="#m7315e58e30" y="77.5904"/>
     <use style="stroke:#000000;" x="44.629738" xlink:href="#m7315e58e30" y="42.702131"/>
     <use style="stroke:#000000;" x="32.508205" xlink:href="#m7315e58e30" y="65.326239"/>
     <use style="stroke:#000000;" x="34.353685" xlink:href="#m7315e58e30" y="36.390708"/>
     <use style="stroke:#000000;" x="27.95258" xlink:href="#m7315e58e30" y="87.449651"/>
     <use style="stroke:#000000;" x="30.164047" xlink:href="#m7315e58e30" y="88.214013"/>
     <use style="stroke:#000000;" x="38.461595" xlink:href="#m7315e58e30" y="52.396286"/>
     <use style="stroke:#000000;" x="29.327674" xlink:href="#m7315e58e30" y="70.282628"/>
     <use style="stroke:#000000;" x="34.836662" xlink:href="#m7315e58e30" y="44.129576"/>
     <use style="stroke:#000000;" x="27" xlink:href="#m7315e58e30" y="88.379227"/>
     <use style="stroke:#000000;" x="34.157905" xlink:href="#m7315e58e30" y="63.728745"/>
     <use style="stroke:#000000;" x="37.656706" xlink:href="#m7315e58e30" y="56.563706"/>
     <use style="stroke:#000000;" x="35.1437" xlink:href="#m7315e58e30" y="38.702555"/>
     <use style="stroke:#000000;" x="37.227639" xlink:href="#m7315e58e30" y="54.623253"/>
     <use style="stroke:#000000;" x="41.040402" xlink:href="#m7315e58e30" y="38.44427"/>
     <use style="stroke:#000000;" x="43.324366" xlink:href="#m7315e58e30" y="69.723347"/>
     <use style="stroke:#000000;" x="36.941483" xlink:href="#m7315e58e30" y="62.129333"/>
     <use style="stroke:#000000;" x="33.65707" xlink:href="#m7315e58e30" y="62.480506"/>
     <use style="stroke:#000000;" x="32.271889" xlink:href="#m7315e58e30" y="36.394091"/>
     <use style="stroke:#000000;" x="40.23481" xlink:href="#m7315e58e30" y="50.709777"/>
    </g>
   </g>
   <g id="patch_3">
    <path d="M 27 94.5 
L 27 12.96 
" style="fill:none;stroke:#000000;stroke-linecap:square;stroke-linejoin:miter;"/>
   </g>
   <g id="patch_4">
    <path d="M 27 94.5 
L 103.090909 94.5 
" style="fill:none;stroke:#000000;stroke-linecap:square;stroke-linejoin:miter;"/>
   </g>
   <g id="matplotlib.axis_1">
    <g id="xtick_1">
     <g id="line2d_3"/>
     <g id="text_1">
      <text style="font-family:Arial;font-size:8px;font-style:normal;font-weight:normal;text-anchor:middle;" transform="rotate(-0, 27, 103.72625)" x="27" y="103.72625">0.0</text>
     </g>
    </g>
    <g id="xtick_2">
     <g id="line2d_4"/>
     <g id="text_2">
      <text style="font-family:Arial;font-size:8px;font-style:normal;font-weight:normal;text-anchor:middle;" transform="rotate(-0, 54.619145, 103.72625)" x="54.619145" y="103.72625">2.5</text>
     </g>
    </g>
    <g id="xtick_3">
     <g id="line2d_5"/>
     <g id="text_3">
      <text style="font-family:Arial;font-size:8px;font-style:normal;font-weight:normal;text-anchor:middle;" transform="rotate(-0, 82.238289, 103.72625)" x="82.238289" y="103.72625">5.0</text>
     </g>
    </g>
    <g id="text_4">
     <text style="font-family:Arial;font-size:10px;font-style:normal;font-weight:normal;text-anchor:middle;" transform="rotate(-0, 65.045455, 116.474063)" x="65.045455" y="116.474063">Exc</text>
    </g>
   </g>
   <g id="matplotlib.axis_2">
    <g id="ytick_1">
     <g id="line2d_6"/>
     <g id="text_5">
      <text style="font-family:Arial;font-size:8px;font-style:normal;font-weight:normal;text-anchor:end;" transform="rotate(-0, 23.5, 97.363125)" x="23.5" y="97.363125">0</text>
     </g>
    </g>
    <g id="ytick_2">
     <g id="line2d_7"/>
     <g id="text_6">
      <text style="font-family:Arial;font-size:8px;font-style:normal;font-weight:normal;text-anchor:end;" transform="rotate(-0, 23.5, 73.6855)" x="23.5" y="73.6855">2</text>
     </g>
    </g>
    <g id="ytick_3">
     <g id="line2d_8"/>
     <g id="text_7">
      <text style="font-family:Arial;font-size:8px;font-style:normal;font-weight:normal;text-anchor:end;" transform="rotate(-0, 23.5, 50.007874)" x="23.5" y="50.007874">4</text>
     </g>
    </g>
    <g id="ytick_4">
     <g id="line2d_9"/>
     <g id="text_8">
      <text style="font-family:Arial;font-size:8px;font-style:normal;font-weight:normal;text-anchor:end;" transform="rotate(-0, 23.5, 26.330249)" x="23.5" y="26.330249">6</text>
     </g>
    </g>
    <g id="text_9">
     <text style="font-family:Arial;font-size:10px;font-style:normal;font-weight:normal;text-anchor:middle;" transform="rotate(-90, 13.06375, 53.73)" x="13.06375" y="53.73">Inh</text>
    </g>
   </g>
   <g id="legend_1">
    <g id="line2d_10">
     <path d="M 36 75.622656 
L 56 75.622656 
" style="fill:none;stroke:#000000;stroke-dasharray:1.85,0.8;stroke-dashoffset:0;stroke-width:0.5;"/>
    </g>
    <g id="line2d_11"/>
    <g id="text_10">
     <!-- $R^2$ 0.41 -->
     <g transform="translate(64 72.875)">
      <text>
       <tspan style="font-family:DejaVu Sans;font-size:10px;font-style:oblique;font-weight:oblique;" x="0" y="-0.9765625">R</tspan>
       <tspan style="font-family:DejaVu Sans;font-size:7px;font-style:book;font-weight:book;" x="7.650794" y="-4.8046875">2</tspan>
       <tspan style="font-family:Arial;font-size:10px;font-style:regular;font-weight:regular;" x="12.377845 15.156165 20.717689 23.496009 29.057533" y="-0.9765625"> 0.41</tspan>
      </text>
     </g>
     <text style="font-family:Arial;font-size:10px;font-style:normal;font-weight:normal;" transform="translate(64 83.4875)"> slope 2.07</text>
    </g>
   </g>
  </g>
  <g id="axes_2">
   <g id="patch_5">
    <path d="M 118.309091 94.5 
L 194.4 94.5 
L 194.4 12.96 
L 118.309091 12.96 
z
" style="fill:#ffffff;"/>
   </g>
   <g id="PathCollection_1">
    <defs>
     <path d="M 0 2.44949 
C 0.649612 2.44949 1.272706 2.191396 1.732051 1.732051 
C 2.191396 1.272706 2.44949 0.649612 2.44949 0 
C 2.44949 -0.649612 2.191396 -1.272706 1.732051 -1.732051 
C 1.272706 -2.191396 0.649612 -2.44949 0 -2.44949 
C -0.649612 -2.44949 -1.272706 -2.191396 -1.732051 -1.732051 
C -2.191396 -1.272706 -2.44949 -0.649612 -2.44949 0 
C -2.44949 0.649612 -2.191396 1.272706 -1.732051 1.732051 
C -1.272706 2.191396 -0.649612 2.44949 0 2.44949 
z
" id="mec2bc0a780" style="stroke:#000000;"/>
    </defs>
    <g clip-path="url(#p12350ab931)">
     <use style="stroke:#000000;" x="130.215037" xlink:href="#mec2bc0a780" y="28.19352"/>
     <use style="stroke:#000000;" x="166.457302" xlink:href="#mec2bc0a780" y="35.157233"/>
     <use style="stroke:#000000;" x="150.348529" xlink:href="#mec2bc0a780" y="54.975688"/>
     <use style="stroke:#000000;" x="175.930467" xlink:href="#mec2bc0a780" y="42.785688"/>
     <use style="stroke:#000000;" x="152.37089" xlink:href="#mec2bc0a780" y="74.829225"/>
     <use style="stroke:#000000;" x="143.65493" xlink:href="#mec2bc0a780" y="57.366546"/>
     <use style="stroke:#000000;" x="144.086004" xlink:href="#mec2bc0a780" y="65.671406"/>
     <use style="stroke:#000000;" x="151.899746" xlink:href="#mec2bc0a780" y="78.259454"/>
     <use style="stroke:#000000;" x="126.540437" xlink:href="#mec2bc0a780" y="87.174169"/>
     <use style="stroke:#000000;" x="132.993008" xlink:href="#mec2bc0a780" y="63.359032"/>
     <use style="stroke:#000000;" x="132.615145" xlink:href="#mec2bc0a780" y="74.975711"/>
     <use style="stroke:#000000;" x="161.106779" xlink:href="#mec2bc0a780" y="42.071502"/>
     <use style="stroke:#000000;" x="138.591788" xlink:href="#mec2bc0a780" y="74.108723"/>
     <use style="stroke:#000000;" x="139.558805" xlink:href="#mec2bc0a780" y="17.392083"/>
     <use style="stroke:#000000;" x="127.481441" xlink:href="#mec2bc0a780" y="94.5"/>
     <use style="stroke:#000000;" x="137.577778" xlink:href="#mec2bc0a780" y="75.359528"/>
     <use style="stroke:#000000;" x="149.576845" xlink:href="#mec2bc0a780" y="62.510709"/>
     <use style="stroke:#000000;" x="140.72216" xlink:href="#mec2bc0a780" y="53.435987"/>
     <use style="stroke:#000000;" x="138.138551" xlink:href="#mec2bc0a780" y="64.306426"/>
     <use style="stroke:#000000;" x="118.309091" xlink:href="#mec2bc0a780" y="82.712671"/>
     <use style="stroke:#000000;" x="151.026964" xlink:href="#mec2bc0a780" y="48.539806"/>
     <use style="stroke:#000000;" x="159.775202" xlink:href="#mec2bc0a780" y="58.992201"/>
     <use style="stroke:#000000;" x="154.529298" xlink:href="#mec2bc0a780" y="79.264826"/>
     <use style="stroke:#000000;" x="148.134158" xlink:href="#mec2bc0a780" y="61.580264"/>
     <use style="stroke:#000000;" x="143.433329" xlink:href="#mec2bc0a780" y="68.350892"/>
     <use style="stroke:#000000;" x="170.029801" xlink:href="#mec2bc0a780" y="63.469388"/>
     <use style="stroke:#000000;" x="131.872002" xlink:href="#mec2bc0a780" y="67.187093"/>
     <use style="stroke:#000000;" x="135.37036" xlink:href="#mec2bc0a780" y="69.793272"/>
     <use style="stroke:#000000;" x="169.07187" xlink:href="#mec2bc0a780" y="78.387156"/>
     <use style="stroke:#000000;" x="183.218867" xlink:href="#mec2bc0a780" y="40.642744"/>
    </g>
   </g>
   <g id="line2d_12">
    <path clip-path="url(#p12350ab931)" d="M 118.309091 74.263961 
L 119.077686 73.938174 
L 119.846281 73.612387 
L 120.614876 73.2866 
L 121.383471 72.960813 
L 122.152066 72.635027 
L 122.920661 72.30924 
L 123.689256 71.983453 
L 124.457851 71.657666 
L 125.226446 71.331879 
L 125.995041 71.006092 
L 126.763636 70.680305 
L 127.532231 70.354518 
L 128.300826 70.028731 
L 129.069421 69.702944 
L 129.838017 69.377157 
L 130.606612 69.051371 
L 131.375207 68.725584 
L 132.143802 68.399797 
L 132.912397 68.07401 
L 133.680992 67.748223 
L 134.449587 67.422436 
L 135.218182 67.096649 
L 135.986777 66.770862 
L 136.755372 66.445075 
L 137.523967 66.119288 
L 138.292562 65.793502 
L 139.061157 65.467715 
L 139.829752 65.141928 
L 140.598347 64.816141 
L 141.366942 64.490354 
L 142.135537 64.164567 
L 142.904132 63.83878 
L 143.672727 63.512993 
L 144.441322 63.187206 
L 145.209917 62.861419 
L 145.978512 62.535632 
L 146.747107 62.209846 
L 147.515702 61.884059 
L 148.284298 61.558272 
L 149.052893 61.232485 
L 149.821488 60.906698 
L 150.590083 60.580911 
L 151.358678 60.255124 
L 152.127273 59.929337 
L 152.895868 59.60355 
L 153.664463 59.277763 
L 154.433058 58.951976 
L 155.201653 58.62619 
L 155.970248 58.300403 
L 156.738843 57.974616 
L 157.507438 57.648829 
L 158.276033 57.323042 
L 159.044628 56.997255 
L 159.813223 56.671468 
L 160.581818 56.345681 
L 161.350413 56.019894 
L 162.119008 55.694107 
L 162.887603 55.36832 
L 163.656198 55.042534 
L 164.424793 54.716747 
L 165.193388 54.39096 
L 165.961983 54.065173 
L 166.730579 53.739386 
L 167.499174 53.413599 
L 168.267769 53.087812 
L 169.036364 52.762025 
L 169.804959 52.436238 
L 170.573554 52.110451 
L 171.342149 51.784664 
L 172.110744 51.458878 
L 172.879339 51.133091 
L 173.647934 50.807304 
L 174.416529 50.481517 
L 175.185124 50.15573 
L 175.953719 49.829943 
L 176.722314 49.504156 
L 177.490909 49.178369 
L 178.259504 48.852582 
L 179.028099 48.526795 
L 179.796694 48.201008 
L 180.565289 47.875222 
L 181.333884 47.549435 
L 182.102479 47.223648 
L 182.871074 46.897861 
L 183.639669 46.572074 
L 184.408264 46.246287 
L 185.17686 45.9205 
L 185.945455 45.594713 
L 186.71405 45.268926 
L 187.482645 44.943139 
L 188.25124 44.617353 
L 189.019835 44.291566 
L 189.78843 43.965779 
L 190.557025 43.639992 
L 191.32562 43.314205 
L 192.094215 42.988418 
L 192.86281 42.662631 
L 193.631405 42.336844 
L 194.4 42.011057 
" style="fill:none;stroke:#000000;stroke-dasharray:1.85,0.8;stroke-dashoffset:0;stroke-width:0.5;"/>
   </g>
   <g id="patch_6">
    <path d="M 118.309091 94.5 
L 118.309091 12.96 
" style="fill:none;stroke:#000000;stroke-linecap:square;stroke-linejoin:miter;"/>
   </g>
   <g id="patch_7">
    <path d="M 118.309091 94.5 
L 194.4 94.5 
" style="fill:none;stroke:#000000;stroke-linecap:square;stroke-linejoin:miter;"/>
   </g>
   <g id="matplotlib.axis_3">
    <g id="xtick_4">
     <g id="line2d_13"/>
     <g id="text_11">
      <text style="font-family:Arial;font-size:8px;font-style:normal;font-weight:normal;text-anchor:middle;" transform="rotate(-0, 118.309091, 103.72625)" x="118.309091" y="103.72625">0</text>
     </g>
    </g>
    <g id="xtick_5">
     <g id="line2d_14"/>
     <g id="text_12">
      <text style="font-family:Arial;font-size:8px;font-style:normal;font-weight:normal;text-anchor:middle;" transform="rotate(-0, 161.737484, 103.72625)" x="161.737484" y="103.72625">1</text>
     </g>
    </g>
    <g id="text_13">
     <!-- $\sigma$(Exc) -->
     <g transform="translate(141.504545 116.61625)">
      <text>
       <tspan style="font-family:DejaVu Sans;font-size:10px;font-style:oblique;font-weight:oblique;" x="0" y="-0.71875">σ</tspan>
       <tspan style="font-family:Arial;font-size:10px;font-style:regular;font-weight:regular;" x="6.337891 9.667969 16.337891 21.337891 26.337891" y="-0.71875">(Exc)</tspan>
      </text>
     </g>
    </g>
   </g>
   <g id="matplotlib.axis_4">
    <g id="ytick_5">
     <g id="line2d_15"/>
     <g id="text_14">
      <text style="font-family:Arial;font-size:8px;font-style:normal;font-weight:normal;text-anchor:end;" transform="rotate(-0, 114.809091, 97.363125)" x="114.809091" y="97.363125">0.0</text>
     </g>
    </g>
    <g id="ytick_6">
     <g id="line2d_16"/>
     <g id="text_15">
      <text style="font-family:Arial;font-size:8px;font-style:normal;font-weight:normal;text-anchor:end;" transform="rotate(-0, 114.809091, 74.093912)" x="114.809091" y="74.093912">0.5</text>
     </g>
    </g>
    <g id="ytick_7">
     <g id="line2d_17"/>
     <g id="text_16">
      <text style="font-family:Arial;font-size:8px;font-style:normal;font-weight:normal;text-anchor:end;" transform="rotate(-0, 114.809091, 50.824699)" x="114.809091" y="50.824699">1.0</text>
     </g>
    </g>
    <g id="ytick_8">
     <g id="line2d_18"/>
     <g id="text_17">
      <text style="font-family:Arial;font-size:8px;font-style:normal;font-weight:normal;text-anchor:end;" transform="rotate(-0, 114.809091, 27.555486)" x="114.809091" y="27.555486">1.5</text>
     </g>
    </g>
    <g id="text_18">
     <!-- $\sigma$(Inh) -->
     <g transform="translate(97.489091 67.18)rotate(-90)">
      <text>
       <tspan style="font-family:DejaVu Sans;font-size:10px;font-style:oblique;font-weight:oblique;" x="0" y="-0.71875">σ</tspan>
       <tspan style="font-family:Arial;font-size:10px;font-style:regular;font-weight:regular;" x="6.337891 9.667969 12.446289 18.007812 23.569336" y="-0.71875">(Inh)</tspan>
      </text>
     </g>
    </g>
   </g>
   <g id="legend_2">
    <g id="line2d_19">
     <path d="M 108.478125 31.995156 
L 128.478125 31.995156 
" style="fill:none;stroke:#000000;stroke-dasharray:1.85,0.8;stroke-dashoffset:0;stroke-width:0.5;"/>
    </g>
    <g id="line2d_20"/>
    <g id="text_19">
     <!-- $R^2$ 0.14 -->
     <g transform="translate(136.478125 29.2475)">
      <text>
       <tspan style="font-family:DejaVu Sans;font-size:10px;font-style:oblique;font-weight:oblique;" x="0" y="-0.9765625">R</tspan>
       <tspan style="font-family:DejaVu Sans;font-size:7px;font-style:book;font-weight:book;" x="7.650794" y="-4.8046875">2</tspan>
       <tspan style="font-family:Arial;font-size:10px;font-style:regular;font-weight:regular;" x="12.377845 15.156165 20.717689 23.496009 29.057533" y="-0.9765625"> 0.14</tspan>
      </text>
     </g>
     <text style="font-family:Arial;font-size:10px;font-style:normal;font-weight:normal;" transform="translate(136.478125 39.86)"> slope 0.40</text>
    </g>
   </g>
  </g>
 </g>
 <defs>
  <clipPath id="p8d472234a9">
   <rect height="81.54" width="76.090909" x="27" y="12.96"/>
  </clipPath>
  <clipPath id="p12350ab931">
   <rect height="81.54" width="76.090909" x="118.309091" y="12.96"/>
  </clipPath>
 </defs>
</svg>
