<?xml version="1.0" encoding="utf-8" standalone="no"?>
<!DOCTYPE svg PUBLIC "-//W3C//DTD SVG 1.1//EN"
  "http://www.w3.org/Graphics/SVG/1.1/DTD/svg11.dtd">
<!-- Created with matplotlib (http://matplotlib.org/) -->
<svg height="108pt" version="1.1" viewBox="0 0 216 108" width="216pt" xmlns="http://www.w3.org/2000/svg" xmlns:xlink="http://www.w3.org/1999/xlink">
 <defs>
  <style type="text/css">
*{stroke-linecap:butt;stroke-linejoin:round;}
  </style>
 </defs>
 <g id="figure_1">
  <g id="patch_1">
   <path d="M 0 108 
L 216 108 
L 216 0 
L 0 0 
z
" style="fill:#ffffff;"/>
  </g>
  <g id="axes_1">
   <g id="patch_2">
    <path d="M 27 94.5 
L 103.090909 94.5 
L 103.090909 12.96 
L 27 12.96 
z
" style="fill:#ffffff;"/>
   </g>
   <g id="LineCollection_1">
    <path clip-path="url(#p5d3935e038)" d="M 25.51572 83.636812 
L 30.532284 83.636812 
" style="fill:none;stroke:#000000;stroke-width:0.5;"/>
    <path clip-path="url(#p5d3935e038)" d="M 24.550344 57.465816 
L 44.451154 57.465816 
" style="fill:none;stroke:#000000;stroke-width:0.5;"/>
    <path clip-path="url(#p5d3935e038)" d="M 25.264237 79.72847 
L 33.87253 79.72847 
" style="fill:none;stroke:#000000;stroke-width:0.5;"/>
    <path clip-path="url(#p5d3935e038)" d="M 25.231739 71.395508 
L 33.94414 71.395508 
" style="fill:none;stroke:#000000;stroke-width:0.5;"/>
    <path clip-path="url(#p5d3935e038)" d="M 24.285774 55.304261 
L 43.16237 55.304261 
" style="fill:none;stroke:#000000;stroke-width:0.5;"/>
    <path clip-path="url(#p5d3935e038)" d="M 28.48681 30.849668 
L 50.2894 30.849668 
" style="fill:none;stroke:#000000;stroke-width:0.5;"/>
    <path clip-path="url(#p5d3935e038)" d="M 27.528697 71.837216 
L 39.67192 71.837216 
" style="fill:none;stroke:#000000;stroke-width:0.5;"/>
    <path clip-path="url(#p5d3935e038)" d="M 24.264728 73.019852 
L 35.296095 73.019852 
" style="fill:none;stroke:#000000;stroke-width:0.5;"/>
    <path clip-path="url(#p5d3935e038)" d="M 25.571468 83.062515 
L 30.399616 83.062515 
" style="fill:none;stroke:#000000;stroke-width:0.5;"/>
    <path clip-path="url(#p5d3935e038)" d="M 32.071546 31.76159 
L 54.713895 31.76159 
" style="fill:none;stroke:#000000;stroke-width:0.5;"/>
    <path clip-path="url(#p5d3935e038)" d="M 27.465496 56.259966 
L 39.241517 56.259966 
" style="fill:none;stroke:#000000;stroke-width:0.5;"/>
    <path clip-path="url(#p5d3935e038)" d="M 27 88.282344 
L 27 88.282344 
" style="fill:none;stroke:#000000;stroke-width:0.5;"/>
    <path clip-path="url(#p5d3935e038)" d="M 26.089025 48.193488 
L 39.881693 48.193488 
" style="fill:none;stroke:#000000;stroke-width:0.5;"/>
    <path clip-path="url(#p5d3935e038)" d="M 26.726766 89.422392 
L 31.645888 89.422392 
" style="fill:none;stroke:#000000;stroke-width:0.5;"/>
    <path clip-path="url(#p5d3935e038)" d="M 26.354019 77.667349 
L 29.995932 77.667349 
" style="fill:none;stroke:#000000;stroke-width:0.5;"/>
    <path clip-path="url(#p5d3935e038)" d="M 25.871171 59.918058 
L 32.239689 59.918058 
" style="fill:none;stroke:#000000;stroke-width:0.5;"/>
    <path clip-path="url(#p5d3935e038)" d="M 32.350262 53.998117 
L 41.291586 53.998117 
" style="fill:none;stroke:#000000;stroke-width:0.5;"/>
    <path clip-path="url(#p5d3935e038)" d="M 26.137848 80.14676 
L 29.051746 80.14676 
" style="fill:none;stroke:#000000;stroke-width:0.5;"/>
    <path clip-path="url(#p5d3935e038)" d="M 26.050275 43.58105 
L 48.563129 43.58105 
" style="fill:none;stroke:#000000;stroke-width:0.5;"/>
    <path clip-path="url(#p5d3935e038)" d="M 31.279275 47.741135 
L 52.27059 47.741135 
" style="fill:none;stroke:#000000;stroke-width:0.5;"/>
    <path clip-path="url(#p5d3935e038)" d="M 23.941586 60.407476 
L 41.196255 60.407476 
" style="fill:none;stroke:#000000;stroke-width:0.5;"/>
    <path clip-path="url(#p5d3935e038)" d="M 25.915715 67.457616 
L 30.641881 67.457616 
" style="fill:none;stroke:#000000;stroke-width:0.5;"/>
    <path clip-path="url(#p5d3935e038)" d="M 26.911222 67.319986 
L 38.083208 67.319986 
" style="fill:none;stroke:#000000;stroke-width:0.5;"/>
    <path clip-path="url(#p5d3935e038)" d="M 30.008829 72.203378 
L 42.078183 72.203378 
" style="fill:none;stroke:#000000;stroke-width:0.5;"/>
    <path clip-path="url(#p5d3935e038)" d="M 23.297292 59.892656 
L 53.230604 59.892656 
" style="fill:none;stroke:#000000;stroke-width:0.5;"/>
    <path clip-path="url(#p5d3935e038)" d="M 26.455397 52.677373 
L 44.364156 52.677373 
" style="fill:none;stroke:#000000;stroke-width:0.5;"/>
    <path clip-path="url(#p5d3935e038)" d="M 28.840084 66.953317 
L 40.557342 66.953317 
" style="fill:none;stroke:#000000;stroke-width:0.5;"/>
    <path clip-path="url(#p5d3935e038)" d="M 22.458804 59.467765 
L 43.412594 59.467765 
" style="fill:none;stroke:#000000;stroke-width:0.5;"/>
    <path clip-path="url(#p5d3935e038)" d="M 26.374833 88.955232 
L 29.852359 88.955232 
" style="fill:none;stroke:#000000;stroke-width:0.5;"/>
    <path clip-path="url(#p5d3935e038)" d="M 25.481861 43.497001 
L 41.963781 43.497001 
" style="fill:none;stroke:#000000;stroke-width:0.5;"/>
   </g>
   <g id="LineCollection_2">
    <path clip-path="url(#p5d3935e038)" d="M 28.024002 87.04123 
L 28.024002 80.232393 
" style="fill:none;stroke:#000000;stroke-width:0.5;"/>
    <path clip-path="url(#p5d3935e038)" d="M 34.500749 67.430791 
L 34.500749 47.500841 
" style="fill:none;stroke:#000000;stroke-width:0.5;"/>
    <path clip-path="url(#p5d3935e038)" d="M 29.568383 85.047249 
L 29.568383 74.40969 
" style="fill:none;stroke:#000000;stroke-width:0.5;"/>
    <path clip-path="url(#p5d3935e038)" d="M 29.587939 77.371908 
L 29.587939 65.419108 
" style="fill:none;stroke:#000000;stroke-width:0.5;"/>
    <path clip-path="url(#p5d3935e038)" d="M 33.724072 58.293688 
L 33.724072 52.314835 
" style="fill:none;stroke:#000000;stroke-width:0.5;"/>
    <path clip-path="url(#p5d3935e038)" d="M 39.388105 37.465813 
L 39.388105 24.233522 
" style="fill:none;stroke:#000000;stroke-width:0.5;"/>
    <path clip-path="url(#p5d3935e038)" d="M 33.600308 79.960595 
L 33.600308 63.713837 
" style="fill:none;stroke:#000000;stroke-width:0.5;"/>
    <path clip-path="url(#p5d3935e038)" d="M 29.780411 74.544416 
L 29.780411 71.495287 
" style="fill:none;stroke:#000000;stroke-width:0.5;"/>
    <path clip-path="url(#p5d3935e038)" d="M 27.985542 85.77818 
L 27.985542 80.346849 
" style="fill:none;stroke:#000000;stroke-width:0.5;"/>
    <path clip-path="url(#p5d3935e038)" d="M 43.39272 46.74706 
L 43.39272 16.77612 
" style="fill:none;stroke:#000000;stroke-width:0.5;"/>
    <path clip-path="url(#p5d3935e038)" d="M 33.353507 60.221263 
L 33.353507 52.298668 
" style="fill:none;stroke:#000000;stroke-width:0.5;"/>
    <path clip-path="url(#p5d3935e038)" d="M 27 93.09852 
L 27 83.466168 
" style="fill:none;stroke:#000000;stroke-width:0.5;"/>
    <path clip-path="url(#p5d3935e038)" d="M 32.985359 56.539736 
L 32.985359 39.84724 
" style="fill:none;stroke:#000000;stroke-width:0.5;"/>
    <path clip-path="url(#p5d3935e038)" d="M 29.186327 91.192448 
L 29.186327 87.652336 
" style="fill:none;stroke:#000000;stroke-width:0.5;"/>
    <path clip-path="url(#p5d3935e038)" d="M 28.174975 79.824751 
L 28.174975 75.509948 
" style="fill:none;stroke:#000000;stroke-width:0.5;"/>
    <path clip-path="url(#p5d3935e038)" d="M 29.05543 64.595395 
L 29.05543 55.240722 
" style="fill:none;stroke:#000000;stroke-width:0.5;"/>
    <path clip-path="url(#p5d3935e038)" d="M 36.820924 59.040721 
L 36.820924 48.955514 
" style="fill:none;stroke:#000000;stroke-width:0.5;"/>
    <path clip-path="url(#p5d3935e038)" d="M 27.594797 85.681904 
L 27.594797 74.611615 
" style="fill:none;stroke:#000000;stroke-width:0.5;"/>
    <path clip-path="url(#p5d3935e038)" d="M 37.306702 50.032504 
L 37.306702 37.129595 
" style="fill:none;stroke:#000000;stroke-width:0.5;"/>
    <path clip-path="url(#p5d3935e038)" d="M 41.774933 56.967473 
L 41.774933 38.514797 
" style="fill:none;stroke:#000000;stroke-width:0.5;"/>
    <path clip-path="url(#p5d3935e038)" d="M 32.568921 64.209286 
L 32.568921 56.605666 
" style="fill:none;stroke:#000000;stroke-width:0.5;"/>
    <path clip-path="url(#p5d3935e038)" d="M 28.278798 72.361113 
L 28.278798 62.55412 
" style="fill:none;stroke:#000000;stroke-width:0.5;"/>
    <path clip-path="url(#p5d3935e038)" d="M 32.497215 79.253321 
L 32.497215 55.386652 
" style="fill:none;stroke:#000000;stroke-width:0.5;"/>
    <path clip-path="url(#p5d3935e038)" d="M 36.043506 75.46847 
L 36.043506 68.938286 
" style="fill:none;stroke:#000000;stroke-width:0.5;"/>
    <path clip-path="url(#p5d3935e038)" d="M 38.263948 75.616537 
L 38.263948 44.168774 
" style="fill:none;stroke:#000000;stroke-width:0.5;"/>
    <path clip-path="url(#p5d3935e038)" d="M 35.409776 66.187149 
L 35.409776 39.167597 
" style="fill:none;stroke:#000000;stroke-width:0.5;"/>
    <path clip-path="url(#p5d3935e038)" d="M 34.698713 71.126465 
L 34.698713 62.78017 
" style="fill:none;stroke:#000000;stroke-width:0.5;"/>
    <path clip-path="url(#p5d3935e038)" d="M 32.935699 68.298444 
L 32.935699 50.637087 
" style="fill:none;stroke:#000000;stroke-width:0.5;"/>
    <path clip-path="url(#p5d3935e038)" d="M 28.113596 90.895851 
L 28.113596 87.014614 
" style="fill:none;stroke:#000000;stroke-width:0.5;"/>
    <path clip-path="url(#p5d3935e038)" d="M 33.722821 51.309261 
L 33.722821 35.684741 
" style="fill:none;stroke:#000000;stroke-width:0.5;"/>
   </g>
   <g id="line2d_1">
    <path clip-path="url(#p5d3935e038)" d="M 27 81.736305 
L 27.768595 79.413115 
L 28.53719 77.089926 
L 29.305785 74.766736 
L 30.07438 72.443547 
L 30.842975 70.120357 
L 31.61157 67.797167 
L 32.380165 65.473978 
L 33.14876 63.150788 
L 33.917355 60.827599 
L 34.68595 58.504409 
L 35.454545 56.18122 
L 36.22314 53.85803 
L 36.991736 51.53484 
L 37.760331 49.211651 
L 38.528926 46.888461 
L 39.297521 44.565272 
L 40.066116 42.242082 
L 40.834711 39.918893 
L 41.603306 37.595703 
L 42.371901 35.272513 
L 43.140496 32.949324 
L 43.909091 30.626134 
L 44.677686 28.302945 
L 45.446281 25.979755 
L 46.214876 23.656566 
L 46.983471 21.333376 
L 47.752066 19.010186 
L 48.520661 16.686997 
L 49.289256 14.363807 
L 50.057851 12.040618 
L 50.826446 9.717428 
L 51.595041 7.394239 
L 52.363636 5.071049 
L 53.132231 2.747859 
L 53.900826 0.42467 
L 54.372159 -1 
" style="fill:none;stroke:#000000;stroke-dasharray:1.85,0.8;stroke-dashoffset:0;stroke-width:0.5;"/>
   </g>
   <g id="line2d_2">
    <defs>
     <path d="M 0 3 
C 0.795609 3 1.55874 2.683901 2.12132 2.12132 
C 2.683901 1.55874 3 0.795609 3 0 
C 3 -0.795609 2.683901 -1.55874 2.12132 -2.12132 
C 1.55874 -2.683901 0.795609 -3 0 -3 
C -0.795609 -3 -1.55874 -2.683901 -2.12132 -2.12132 
C -2.683901 -1.55874 -3 -0.795609 -3 0 
C -3 0.795609 -2.683901 1.55874 -2.12132 2.12132 
C -1.55874 2.683901 -0.795609 3 0 3 
z
" id="mc5d23bfc0e" style="stroke:#000000;"/>
    </defs>
    <g clip-path="url(#p5d3935e038)">
     <use style="stroke:#000000;" x="28.024002" xlink:href="#mc5d23bfc0e" y="83.636812"/>
     <use style="stroke:#000000;" x="34.500749" xlink:href="#mc5d23bfc0e" y="57.465816"/>
     <use style="stroke:#000000;" x="29.568383" xlink:href="#mc5d23bfc0e" y="79.72847"/>
     <use style="stroke:#000000;" x="29.587939" xlink:href="#mc5d23bfc0e" y="71.395508"/>
     <use style="stroke:#000000;" x="33.724072" xlink:href="#mc5d23bfc0e" y="55.304261"/>
     <use style="stroke:#000000;" x="39.388105" xlink:href="#mc5d23bfc0e" y="30.849668"/>
     <use style="stroke:#000000;" x="33.600308" xlink:href="#mc5d23bfc0e" y="71.837216"/>
     <use style="stroke:#000000;" x="29.780411" xlink:href="#mc5d23bfc0e" y="73.019852"/>
     <use style="stroke:#000000;" x="27.985542" xlink:href="#mc5d23bfc0e" y="83.062515"/>
     <use style="stroke:#000000;" x="43.39272" xlink:href="#mc5d23bfc0e" y="31.76159"/>
     <use style="stroke:#000000;" x="33.353507" xlink:href="#mc5d23bfc0e" y="56.259966"/>
     <use style="stroke:#000000;" x="27" xlink:href="#mc5d23bfc0e" y="88.282344"/>
     <use style="stroke:#000000;" x="32.985359" xlink:href="#mc5d23bfc0e" y="48.193488"/>
     <use style="stroke:#000000;" x="29.186327" xlink:href="#mc5d23bfc0e" y="89.422392"/>
     <use style="stroke:#000000;" x="28.174975" xlink:href="#mc5d23bfc0e" y="77.667349"/>
     <use style="stroke:#000000;" x="29.05543" xlink:href="#mc5d23bfc0e" y="59.918058"/>
     <use style="stroke:#000000;" x="36.820924" xlink:href="#mc5d23bfc0e" y="53.998117"/>
     <use style="stroke:#000000;" x="27.594797" xlink:href="#mc5d23bfc0e" y="80.14676"/>
     <use style="stroke:#000000;" x="37.306702" xlink:href="#mc5d23bfc0e" y="43.58105"/>
     <use style="stroke:#000000;" x="41.774933" xlink:href="#mc5d23bfc0e" y="47.741135"/>
     <use style="stroke:#000000;" x="32.568921" xlink:href="#mc5d23bfc0e" y="60.407476"/>
     <use style="stroke:#000000;" x="28.278798" xlink:href="#mc5d23bfc0e" y="67.457616"/>
     <use style="stroke:#000000;" x="32.497215" xlink:href="#mc5d23bfc0e" y="67.319986"/>
     <use style="stroke:#000000;" x="36.043506" xlink:href="#mc5d23bfc0e" y="72.203378"/>
     <use style="stroke:#000000;" x="38.263948" xlink:href="#mc5d23bfc0e" y="59.892656"/>
     <use style="stroke:#000000;" x="35.409776" xlink:href="#mc5d23bfc0e" y="52.677373"/>
     <use style="stroke:#000000;" x="34.698713" xlink:href="#mc5d23bfc0e" y="66.953317"/>
     <use style="stroke:#000000;" x="32.935699" xlink:href="#mc5d23bfc0e" y="59.467765"/>
     <use style="stroke:#000000;" x="28.113596" xlink:href="#mc5d23bfc0e" y="88.955232"/>
     <use style="stroke:#000000;" x="33.722821" xlink:href="#mc5d23bfc0e" y="43.497001"/>
    </g>
   </g>
   <g id="patch_3">
    <path d="M 27 94.5 
L 27 12.96 
" style="fill:none;stroke:#000000;stroke-linecap:square;stroke-linejoin:miter;"/>
   </g>
   <g id="patch_4">
    <path d="M 27 94.5 
L 103.090909 94.5 
" style="fill:none;stroke:#000000;stroke-linecap:square;stroke-linejoin:miter;"/>
   </g>
   <g id="matplotlib.axis_1">
    <g id="xtick_1">
     <g id="line2d_3"/>
     <g id="text_1">
      <text style="font-family:Arial;font-size:8px;font-style:normal;font-weight:normal;text-anchor:middle;" transform="rotate(-0, 27, 103.72625)" x="27" y="103.72625">0</text>
     </g>
    </g>
    <g id="xtick_2">
     <g id="line2d_4"/>
     <g id="text_2">
      <text style="font-family:Arial;font-size:8px;font-style:normal;font-weight:normal;text-anchor:middle;" transform="rotate(-0, 71.067146, 103.72625)" x="71.067146" y="103.72625">5</text>
     </g>
    </g>
    <g id="text_3">
     <text style="font-family:Arial;font-size:10px;font-style:normal;font-weight:normal;text-anchor:middle;" transform="rotate(-0, 65.045455, 116.474063)" x="65.045455" y="116.474063">Exc</text>
    </g>
   </g>
   <g id="matplotlib.axis_2">
    <g id="ytick_1">
     <g id="line2d_5"/>
     <g id="text_4">
      <text style="font-family:Arial;font-size:8px;font-style:normal;font-weight:normal;text-anchor:end;" transform="rotate(-0, 23.5, 97.363125)" x="23.5" y="97.363125">0</text>
     </g>
    </g>
    <g id="ytick_2">
     <g id="line2d_6"/>
     <g id="text_5">
      <text style="font-family:Arial;font-size:8px;font-style:normal;font-weight:normal;text-anchor:end;" transform="rotate(-0, 23.5, 78.473956)" x="23.5" y="78.473956">2</text>
     </g>
    </g>
    <g id="ytick_3">
     <g id="line2d_7"/>
     <g id="text_6">
      <text style="font-family:Arial;font-size:8px;font-style:normal;font-weight:normal;text-anchor:end;" transform="rotate(-0, 23.5, 59.584787)" x="23.5" y="59.584787">4</text>
     </g>
    </g>
    <g id="ytick_4">
     <g id="line2d_8"/>
     <g id="text_7">
      <text style="font-family:Arial;font-size:8px;font-style:normal;font-weight:normal;text-anchor:end;" transform="rotate(-0, 23.5, 40.695619)" x="23.5" y="40.695619">6</text>
     </g>
    </g>
    <g id="ytick_5">
     <g id="line2d_9"/>
     <g id="text_8">
      <text style="font-family:Arial;font-size:8px;font-style:normal;font-weight:normal;text-anchor:end;" transform="rotate(-0, 23.5, 21.80645)" x="23.5" y="21.80645">8</text>
     </g>
    </g>
    <g id="text_9">
     <text style="font-family:Arial;font-size:10px;font-style:normal;font-weight:normal;text-anchor:middle;" transform="rotate(-90, 13.06375, 53.73)" x="13.06375" y="53.73">Inh</text>
    </g>
   </g>
   <g id="legend_1">
    <g id="line2d_10">
     <path d="M 36 75.622656 
L 56 75.622656 
" style="fill:none;stroke:#000000;stroke-dasharray:1.85,0.8;stroke-dashoffset:0;stroke-width:0.5;"/>
    </g>
    <g id="line2d_11"/>
    <g id="text_10">
     <!-- $R^2$ 0.67 -->
     <g transform="translate(64 72.875)">
      <text>
       <tspan style="font-family:DejaVu Sans;font-size:10px;font-style:oblique;font-weight:oblique;" x="0" y="-0.9765625">R</tspan>
       <tspan style="font-family:DejaVu Sans;font-size:7px;font-style:book;font-weight:book;" x="7.650794" y="-4.8046875">2</tspan>
       <tspan style="font-family:Arial;font-size:10px;font-style:regular;font-weight:regular;" x="12.377845 15.156165 20.717689 23.496009 29.057533" y="-0.9765625"> 0.67</tspan>
      </text>
     </g>
     <text style="font-family:Arial;font-size:10px;font-style:normal;font-weight:normal;" transform="translate(64 83.4875)"> slope 2.82</text>
    </g>
   </g>
  </g>
  <g id="axes_2">
   <g id="patch_5">
    <path d="M 118.309091 94.5 
L 194.4 94.5 
L 194.4 12.96 
L 118.309091 12.96 
z
" style="fill:#ffffff;"/>
   </g>
   <g id="PathCollection_1">
    <defs>
     <path d="M 0 2.44949 
C 0.649612 2.44949 1.272706 2.191396 1.732051 1.732051 
C 2.191396 1.272706 2.44949 0.649612 2.44949 0 
C 2.44949 -0.649612 2.191396 -1.272706 1.732051 -1.732051 
C 1.272706 -2.191396 0.649612 -2.44949 0 -2.44949 
C -0.649612 -2.44949 -1.272706 -2.191396 -1.732051 -1.732051 
C -2.191396 -1.272706 -2.44949 -0.649612 -2.44949 0 
C -2.44949 0.649612 -2.191396 1.272706 -1.732051 1.732051 
C -1.272706 2.191396 -0.649612 2.44949 0 2.44949 
z
" id="m4c25f2e86e" style="stroke:#000000;"/>
    </defs>
    <g clip-path="url(#p375d9d7acf)">
     <use style="stroke:#000000;" x="130.334611" xlink:href="#m4c25f2e86e" y="78.178108"/>
     <use style="stroke:#000000;" x="166.014574" xlink:href="#m4c25f2e86e" y="46.724665"/>
     <use style="stroke:#000000;" x="138.944572" xlink:href="#m4c25f2e86e" y="69.000039"/>
     <use style="stroke:#000000;" x="139.194136" xlink:href="#m4c25f2e86e" y="65.847192"/>
     <use style="stroke:#000000;" x="163.559367" xlink:href="#m4c25f2e86e" y="80.167714"/>
     <use style="stroke:#000000;" x="170.573451" xlink:href="#m4c25f2e86e" y="62.780044"/>
     <use style="stroke:#000000;" x="147.418375" xlink:href="#m4c25f2e86e" y="55.553875"/>
     <use style="stroke:#000000;" x="144.753074" xlink:href="#m4c25f2e86e" y="87.190741"/>
     <use style="stroke:#000000;" x="129.882948" xlink:href="#m4c25f2e86e" y="81.480216"/>
     <use style="stroke:#000000;" x="172.586489" xlink:href="#m4c25f2e86e" y="22.654774"/>
     <use style="stroke:#000000;" x="146.538132" xlink:href="#m4c25f2e86e" y="75.50825"/>
     <use style="stroke:#000000;" x="118.309091" xlink:href="#m4c25f2e86e" y="71.409683"/>
     <use style="stroke:#000000;" x="151.372363" xlink:href="#m4c25f2e86e" y="54.48537"/>
     <use style="stroke:#000000;" x="130.101027" xlink:href="#m4c25f2e86e" y="86.013775"/>
     <use style="stroke:#000000;" x="127.039348" xlink:href="#m4c25f2e86e" y="84.156714"/>
     <use style="stroke:#000000;" x="133.575465" xlink:href="#m4c25f2e86e" y="72.075324"/>
     <use style="stroke:#000000;" x="139.7429" xlink:href="#m4c25f2e86e" y="70.324116"/>
     <use style="stroke:#000000;" x="125.29418" xlink:href="#m4c25f2e86e" y="67.962712"/>
     <use style="stroke:#000000;" x="172.276069" xlink:href="#m4c25f2e86e" y="63.569626"/>
     <use style="stroke:#000000;" x="168.628692" xlink:href="#m4c25f2e86e" y="50.265929"/>
     <use style="stroke:#000000;" x="159.671344" xlink:href="#m4c25f2e86e" y="76.272885"/>
     <use style="stroke:#000000;" x="129.63848" xlink:href="#m4c25f2e86e" y="70.991038"/>
     <use style="stroke:#000000;" x="145.090161" xlink:href="#m4c25f2e86e" y="37.287708"/>
     <use style="stroke:#000000;" x="147.2413" xlink:href="#m4c25f2e86e" y="78.846087"/>
     <use style="stroke:#000000;" x="190.064117" xlink:href="#m4c25f2e86e" y="19.114591"/>
     <use style="stroke:#000000;" x="161.239303" xlink:href="#m4c25f2e86e" y="29.729732"/>
     <use style="stroke:#000000;" x="146.397266" xlink:href="#m4c25f2e86e" y="74.492569"/>
     <use style="stroke:#000000;" x="168.538741" xlink:href="#m4c25f2e86e" y="52.162849"/>
     <use style="stroke:#000000;" x="126.645287" xlink:href="#m4c25f2e86e" y="85.196042"/>
     <use style="stroke:#000000;" x="157.818939" xlink:href="#m4c25f2e86e" y="57.045481"/>
    </g>
   </g>
   <g id="line2d_12">
    <path clip-path="url(#p375d9d7acf)" d="M 118.309091 84.991985 
L 119.077686 84.459247 
L 119.846281 83.92651 
L 120.614876 83.393772 
L 121.383471 82.861034 
L 122.152066 82.328297 
L 122.920661 81.795559 
L 123.689256 81.262822 
L 124.457851 80.730084 
L 125.226446 80.197346 
L 125.995041 79.664609 
L 126.763636 79.131871 
L 127.532231 78.599134 
L 128.300826 78.066396 
L 129.069421 77.533659 
L 129.838017 77.000921 
L 130.606612 76.468183 
L 131.375207 75.935446 
L 132.143802 75.402708 
L 132.912397 74.869971 
L 133.680992 74.337233 
L 134.449587 73.804496 
L 135.218182 73.271758 
L 135.986777 72.73902 
L 136.755372 72.206283 
L 137.523967 71.673545 
L 138.292562 71.140808 
L 139.061157 70.60807 
L 139.829752 70.075332 
L 140.598347 69.542595 
L 141.366942 69.009857 
L 142.135537 68.47712 
L 142.904132 67.944382 
L 143.672727 67.411645 
L 144.441322 66.878907 
L 145.209917 66.346169 
L 145.978512 65.813432 
L 146.747107 65.280694 
L 147.515702 64.747957 
L 148.284298 64.215219 
L 149.052893 63.682482 
L 149.821488 63.149744 
L 150.590083 62.617006 
L 151.358678 62.084269 
L 152.127273 61.551531 
L 152.895868 61.018794 
L 153.664463 60.486056 
L 154.433058 59.953319 
L 155.201653 59.420581 
L 155.970248 58.887843 
L 156.738843 58.355106 
L 157.507438 57.822368 
L 158.276033 57.289631 
L 159.044628 56.756893 
L 159.813223 56.224155 
L 160.581818 55.691418 
L 161.350413 55.15868 
L 162.119008 54.625943 
L 162.887603 54.093205 
L 163.656198 53.560468 
L 164.424793 53.02773 
L 165.193388 52.494992 
L 165.961983 51.962255 
L 166.730579 51.429517 
L 167.499174 50.89678 
L 168.267769 50.364042 
L 169.036364 49.831305 
L 169.804959 49.298567 
L 170.573554 48.765829 
L 171.342149 48.233092 
L 172.110744 47.700354 
L 172.879339 47.167617 
L 173.647934 46.634879 
L 174.416529 46.102141 
L 175.185124 45.569404 
L 175.953719 45.036666 
L 176.722314 44.503929 
L 177.490909 43.971191 
L 178.259504 43.438454 
L 179.028099 42.905716 
L 179.796694 42.372978 
L 180.565289 41.840241 
L 181.333884 41.307503 
L 182.102479 40.774766 
L 182.871074 40.242028 
L 183.639669 39.709291 
L 184.408264 39.176553 
L 185.17686 38.643815 
L 185.945455 38.111078 
L 186.71405 37.57834 
L 187.482645 37.045603 
L 188.25124 36.512865 
L 189.019835 35.980127 
L 189.78843 35.44739 
L 190.557025 34.914652 
L 191.32562 34.381915 
L 192.094215 33.849177 
L 192.86281 33.31644 
L 193.631405 32.783702 
L 194.4 32.250964 
" style="fill:none;stroke:#000000;stroke-dasharray:1.85,0.8;stroke-dashoffset:0;stroke-width:0.5;"/>
   </g>
   <g id="patch_6">
    <path d="M 118.309091 94.5 
L 118.309091 12.96 
" style="fill:none;stroke:#000000;stroke-linecap:square;stroke-linejoin:miter;"/>
   </g>
   <g id="patch_7">
    <path d="M 118.309091 94.5 
L 194.4 94.5 
" style="fill:none;stroke:#000000;stroke-linecap:square;stroke-linejoin:miter;"/>
   </g>
   <g id="matplotlib.axis_3">
    <g id="xtick_3">
     <g id="line2d_13"/>
     <g id="text_11">
      <text style="font-family:Arial;font-size:8px;font-style:normal;font-weight:normal;text-anchor:middle;" transform="rotate(-0, 118.309091, 103.72625)" x="118.309091" y="103.72625">0</text>
     </g>
    </g>
    <g id="xtick_4">
     <g id="line2d_14"/>
     <g id="text_12">
      <text style="font-family:Arial;font-size:8px;font-style:normal;font-weight:normal;text-anchor:middle;" transform="rotate(-0, 160.563541, 103.72625)" x="160.563541" y="103.72625">1</text>
     </g>
    </g>
    <g id="text_13">
     <!-- $\sigma$(Exc) -->
     <g transform="translate(141.504545 116.61625)">
      <text>
       <tspan style="font-family:DejaVu Sans;font-size:10px;font-style:oblique;font-weight:oblique;" x="0" y="-0.71875">σ</tspan>
       <tspan style="font-family:Arial;font-size:10px;font-style:regular;font-weight:regular;" x="6.337891 9.667969 16.337891 21.337891 26.337891" y="-0.71875">(Exc)</tspan>
      </text>
     </g>
    </g>
   </g>
   <g id="matplotlib.axis_4">
    <g id="ytick_6">
     <g id="line2d_15"/>
     <g id="text_14">
      <text style="font-family:Arial;font-size:8px;font-style:normal;font-weight:normal;text-anchor:end;" transform="rotate(-0, 114.809091, 97.363125)" x="114.809091" y="97.363125">0.0</text>
     </g>
    </g>
    <g id="ytick_7">
     <g id="line2d_16"/>
     <g id="text_15">
      <text style="font-family:Arial;font-size:8px;font-style:normal;font-weight:normal;text-anchor:end;" transform="rotate(-0, 114.809091, 74.722918)" x="114.809091" y="74.722918">0.5</text>
     </g>
    </g>
    <g id="ytick_8">
     <g id="line2d_17"/>
     <g id="text_16">
      <text style="font-family:Arial;font-size:8px;font-style:normal;font-weight:normal;text-anchor:end;" transform="rotate(-0, 114.809091, 52.082711)" x="114.809091" y="52.082711">1.0</text>
     </g>
    </g>
    <g id="ytick_9">
     <g id="line2d_18"/>
     <g id="text_17">
      <text style="font-family:Arial;font-size:8px;font-style:normal;font-weight:normal;text-anchor:end;" transform="rotate(-0, 114.809091, 29.442503)" x="114.809091" y="29.442503">1.5</text>
     </g>
    </g>
    <g id="text_18">
     <!-- $\sigma$(Inh) -->
     <g transform="translate(97.489091 67.18)rotate(-90)">
      <text>
       <tspan style="font-family:DejaVu Sans;font-size:10px;font-style:oblique;font-weight:oblique;" x="0" y="-0.71875">σ</tspan>
       <tspan style="font-family:Arial;font-size:10px;font-style:regular;font-weight:regular;" x="6.337891 9.667969 12.446289 18.007812 23.569336" y="-0.71875">(Inh)</tspan>
      </text>
     </g>
    </g>
   </g>
   <g id="legend_2">
    <g id="line2d_19">
     <path d="M 108.478125 31.995156 
L 128.478125 31.995156 
" style="fill:none;stroke:#000000;stroke-dasharray:1.85,0.8;stroke-dashoffset:0;stroke-width:0.5;"/>
    </g>
    <g id="line2d_20"/>
    <g id="text_19">
     <!-- $R^2$ 0.45 -->
     <g transform="translate(136.478125 29.2475)">
      <text>
       <tspan style="font-family:DejaVu Sans;font-size:10px;font-style:oblique;font-weight:oblique;" x="0" y="-0.9765625">R</tspan>
       <tspan style="font-family:DejaVu Sans;font-size:7px;font-style:book;font-weight:book;" x="7.650794" y="-4.8046875">2</tspan>
       <tspan style="font-family:Arial;font-size:10px;font-style:regular;font-weight:regular;" x="12.377845 15.156165 20.717689 23.496009 29.057533" y="-0.9765625"> 0.45</tspan>
      </text>
     </g>
     <text style="font-family:Arial;font-size:10px;font-style:normal;font-weight:normal;" transform="translate(136.478125 39.86)"> slope 0.65</text>
    </g>
   </g>
  </g>
 </g>
 <defs>
  <clipPath id="p5d3935e038">
   <rect height="81.54" width="76.090909" x="27" y="12.96"/>
  </clipPath>
  <clipPath id="p375d9d7acf">
   <rect height="81.54" width="76.090909" x="118.309091" y="12.96"/>
  </clipPath>
 </defs>
</svg>
