<?xml version="1.0" encoding="utf-8" standalone="no"?>
<!DOCTYPE svg PUBLIC "-//W3C//DTD SVG 1.1//EN"
  "http://www.w3.org/Graphics/SVG/1.1/DTD/svg11.dtd">
<!-- Created with matplotlib (http://matplotlib.org/) -->
<svg height="108pt" version="1.1" viewBox="0 0 216 108" width="216pt" xmlns="http://www.w3.org/2000/svg" xmlns:xlink="http://www.w3.org/1999/xlink">
 <defs>
  <style type="text/css">
*{stroke-linecap:butt;stroke-linejoin:round;}
  </style>
 </defs>
 <g id="figure_1">
  <g id="patch_1">
   <path d="M 0 108 
L 216 108 
L 216 0 
L 0 0 
z
" style="fill:#ffffff;"/>
  </g>
  <g id="axes_1">
   <g id="patch_2">
    <path d="M 27 94.5 
L 103.090909 94.5 
L 103.090909 12.96 
L 27 12.96 
z
" style="fill:#ffffff;"/>
   </g>
   <g id="LineCollection_1">
    <path clip-path="url(#pa450c816b2)" d="M 27 94.5 
L 27 94.5 
" style="fill:none;stroke:#000000;stroke-width:0.5;"/>
    <path clip-path="url(#pa450c816b2)" d="M 30.396887 51.588922 
L 45.746745 51.588922 
" style="fill:none;stroke:#000000;stroke-width:0.5;"/>
    <path clip-path="url(#pa450c816b2)" d="M 27.572085 56.047963 
L 37.549794 56.047963 
" style="fill:none;stroke:#000000;stroke-width:0.5;"/>
    <path clip-path="url(#pa450c816b2)" d="M 25.628382 81.845906 
L 32.58258 81.845906 
" style="fill:none;stroke:#000000;stroke-width:0.5;"/>
    <path clip-path="url(#pa450c816b2)" d="M 26.345673 78.588518 
L 29.978572 78.588518 
" style="fill:none;stroke:#000000;stroke-width:0.5;"/>
    <path clip-path="url(#pa450c816b2)" d="M 25.227064 82.405836 
L 31.219226 82.405836 
" style="fill:none;stroke:#000000;stroke-width:0.5;"/>
    <path clip-path="url(#pa450c816b2)" d="M 26.067911 72.14487 
L 30.787286 72.14487 
" style="fill:none;stroke:#000000;stroke-width:0.5;"/>
    <path clip-path="url(#pa450c816b2)" d="M 26.316996 78.07777 
L 35.597229 78.07777 
" style="fill:none;stroke:#000000;stroke-width:0.5;"/>
    <path clip-path="url(#pa450c816b2)" d="M 21.703157 69.847446 
L 41.024497 69.847446 
" style="fill:none;stroke:#000000;stroke-width:0.5;"/>
    <path clip-path="url(#pa450c816b2)" d="M 26.62323 68.819685 
L 45.077385 68.819685 
" style="fill:none;stroke:#000000;stroke-width:0.5;"/>
    <path clip-path="url(#pa450c816b2)" d="M 25.368479 81.984513 
L 30.882687 81.984513 
" style="fill:none;stroke:#000000;stroke-width:0.5;"/>
    <path clip-path="url(#pa450c816b2)" d="M 28.51071 64.048761 
L 41.979306 64.048761 
" style="fill:none;stroke:#000000;stroke-width:0.5;"/>
    <path clip-path="url(#pa450c816b2)" d="M 23.021709 42.569996 
L 51.146996 42.569996 
" style="fill:none;stroke:#000000;stroke-width:0.5;"/>
    <path clip-path="url(#pa450c816b2)" d="M 33.97011 62.696716 
L 46.30802 62.696716 
" style="fill:none;stroke:#000000;stroke-width:0.5;"/>
    <path clip-path="url(#pa450c816b2)" d="M 28.086192 29.873006 
L 48.157856 29.873006 
" style="fill:none;stroke:#000000;stroke-width:0.5;"/>
    <path clip-path="url(#pa450c816b2)" d="M 27.087122 51.540731 
L 42.198204 51.540731 
" style="fill:none;stroke:#000000;stroke-width:0.5;"/>
    <path clip-path="url(#pa450c816b2)" d="M 25.766933 81.143971 
L 36.646734 81.143971 
" style="fill:none;stroke:#000000;stroke-width:0.5;"/>
    <path clip-path="url(#pa450c816b2)" d="M 27.786144 66.561684 
L 38.754218 66.561684 
" style="fill:none;stroke:#000000;stroke-width:0.5;"/>
    <path clip-path="url(#pa450c816b2)" d="M 26.679059 78.489034 
L 34.616259 78.489034 
" style="fill:none;stroke:#000000;stroke-width:0.5;"/>
    <path clip-path="url(#pa450c816b2)" d="M 27.162011 71.399287 
L 44.054276 71.399287 
" style="fill:none;stroke:#000000;stroke-width:0.5;"/>
    <path clip-path="url(#pa450c816b2)" d="M 30.471333 49.979256 
L 45.898889 49.979256 
" style="fill:none;stroke:#000000;stroke-width:0.5;"/>
    <path clip-path="url(#pa450c816b2)" d="M 27 83.014446 
L 27 83.014446 
" style="fill:none;stroke:#000000;stroke-width:0.5;"/>
    <path clip-path="url(#pa450c816b2)" d="M 28.342749 67.230888 
L 35.588307 67.230888 
" style="fill:none;stroke:#000000;stroke-width:0.5;"/>
    <path clip-path="url(#pa450c816b2)" d="M 26.11264 84.989833 
L 31.118861 84.989833 
" style="fill:none;stroke:#000000;stroke-width:0.5;"/>
    <path clip-path="url(#pa450c816b2)" d="M 25.295117 45.778927 
L 45.160617 45.778927 
" style="fill:none;stroke:#000000;stroke-width:0.5;"/>
    <path clip-path="url(#pa450c816b2)" d="M 27.330595 66.321842 
L 47.307138 66.321842 
" style="fill:none;stroke:#000000;stroke-width:0.5;"/>
    <path clip-path="url(#pa450c816b2)" d="M 25.879458 90.216384 
L 29.66666 90.216384 
" style="fill:none;stroke:#000000;stroke-width:0.5;"/>
    <path clip-path="url(#pa450c816b2)" d="M 32.010127 56.134585 
L 49.60942 56.134585 
" style="fill:none;stroke:#000000;stroke-width:0.5;"/>
    <path clip-path="url(#pa450c816b2)" d="M 27.668289 59.694277 
L 39.516853 59.694277 
" style="fill:none;stroke:#000000;stroke-width:0.5;"/>
    <path clip-path="url(#pa450c816b2)" d="M 27.160475 80.846806 
L 39.684598 80.846806 
" style="fill:none;stroke:#000000;stroke-width:0.5;"/>
   </g>
   <g id="LineCollection_2">
    <path clip-path="url(#pa450c816b2)" d="M 27 94.5 
L 27 94.5 
" style="fill:none;stroke:#000000;stroke-width:0.5;"/>
    <path clip-path="url(#pa450c816b2)" d="M 38.071816 60.424018 
L 38.071816 42.753826 
" style="fill:none;stroke:#000000;stroke-width:0.5;"/>
    <path clip-path="url(#pa450c816b2)" d="M 32.560939 62.443631 
L 32.560939 49.652294 
" style="fill:none;stroke:#000000;stroke-width:0.5;"/>
    <path clip-path="url(#pa450c816b2)" d="M 29.105481 85.546504 
L 29.105481 78.145308 
" style="fill:none;stroke:#000000;stroke-width:0.5;"/>
    <path clip-path="url(#pa450c816b2)" d="M 28.162123 85.557926 
L 28.162123 71.61911 
" style="fill:none;stroke:#000000;stroke-width:0.5;"/>
    <path clip-path="url(#pa450c816b2)" d="M 28.223145 90.055172 
L 28.223145 74.756501 
" style="fill:none;stroke:#000000;stroke-width:0.5;"/>
    <path clip-path="url(#pa450c816b2)" d="M 28.427598 74.864757 
L 28.427598 69.424984 
" style="fill:none;stroke:#000000;stroke-width:0.5;"/>
    <path clip-path="url(#pa450c816b2)" d="M 30.957112 82.725299 
L 30.957112 73.430242 
" style="fill:none;stroke:#000000;stroke-width:0.5;"/>
    <path clip-path="url(#pa450c816b2)" d="M 31.363827 78.20404 
L 31.363827 61.490852 
" style="fill:none;stroke:#000000;stroke-width:0.5;"/>
    <path clip-path="url(#pa450c816b2)" d="M 35.850308 76.374064 
L 35.850308 61.265305 
" style="fill:none;stroke:#000000;stroke-width:0.5;"/>
    <path clip-path="url(#pa450c816b2)" d="M 28.125583 85.864933 
L 28.125583 78.104092 
" style="fill:none;stroke:#000000;stroke-width:0.5;"/>
    <path clip-path="url(#pa450c816b2)" d="M 35.245008 74.630847 
L 35.245008 53.466675 
" style="fill:none;stroke:#000000;stroke-width:0.5;"/>
    <path clip-path="url(#pa450c816b2)" d="M 37.084353 62.838772 
L 37.084353 22.301221 
" style="fill:none;stroke:#000000;stroke-width:0.5;"/>
    <path clip-path="url(#pa450c816b2)" d="M 40.139065 69.363305 
L 40.139065 56.030127 
" style="fill:none;stroke:#000000;stroke-width:0.5;"/>
    <path clip-path="url(#pa450c816b2)" d="M 38.122024 42.903155 
L 38.122024 16.842857 
" style="fill:none;stroke:#000000;stroke-width:0.5;"/>
    <path clip-path="url(#pa450c816b2)" d="M 34.642663 67.0692 
L 34.642663 36.012262 
" style="fill:none;stroke:#000000;stroke-width:0.5;"/>
    <path clip-path="url(#pa450c816b2)" d="M 31.206833 83.72348 
L 31.206833 78.564462 
" style="fill:none;stroke:#000000;stroke-width:0.5;"/>
    <path clip-path="url(#pa450c816b2)" d="M 33.270181 68.464592 
L 33.270181 64.658776 
" style="fill:none;stroke:#000000;stroke-width:0.5;"/>
    <path clip-path="url(#pa450c816b2)" d="M 30.647659 83.379395 
L 30.647659 73.598672 
" style="fill:none;stroke:#000000;stroke-width:0.5;"/>
    <path clip-path="url(#pa450c816b2)" d="M 35.608143 80.264322 
L 35.608143 62.534252 
" style="fill:none;stroke:#000000;stroke-width:0.5;"/>
    <path clip-path="url(#pa450c816b2)" d="M 38.185111 57.204633 
L 38.185111 42.753879 
" style="fill:none;stroke:#000000;stroke-width:0.5;"/>
    <path clip-path="url(#pa450c816b2)" d="M 27 83.014446 
L 27 83.014446 
" style="fill:none;stroke:#000000;stroke-width:0.5;"/>
    <path clip-path="url(#pa450c816b2)" d="M 31.965528 72.063445 
L 31.965528 62.398331 
" style="fill:none;stroke:#000000;stroke-width:0.5;"/>
    <path clip-path="url(#pa450c816b2)" d="M 28.615751 87.940855 
L 28.615751 82.038811 
" style="fill:none;stroke:#000000;stroke-width:0.5;"/>
    <path clip-path="url(#pa450c816b2)" d="M 35.227867 52.362319 
L 35.227867 39.195535 
" style="fill:none;stroke:#000000;stroke-width:0.5;"/>
    <path clip-path="url(#pa450c816b2)" d="M 37.318866 72.042965 
L 37.318866 60.600718 
" style="fill:none;stroke:#000000;stroke-width:0.5;"/>
    <path clip-path="url(#pa450c816b2)" d="M 27.773059 90.216384 
L 27.773059 90.216384 
" style="fill:none;stroke:#000000;stroke-width:0.5;"/>
    <path clip-path="url(#pa450c816b2)" d="M 40.809773 61.921855 
L 40.809773 50.347315 
" style="fill:none;stroke:#000000;stroke-width:0.5;"/>
    <path clip-path="url(#pa450c816b2)" d="M 33.592571 70.63027 
L 33.592571 48.758284 
" style="fill:none;stroke:#000000;stroke-width:0.5;"/>
    <path clip-path="url(#pa450c816b2)" d="M 33.422537 88.871157 
L 33.422537 72.822455 
" style="fill:none;stroke:#000000;stroke-width:0.5;"/>
   </g>
   <g id="line2d_1">
    <path clip-path="url(#pa450c816b2)" d="M 27 85.653571 
L 27.768595 83.399463 
L 28.53719 81.145355 
L 29.305785 78.891247 
L 30.07438 76.637139 
L 30.842975 74.383031 
L 31.61157 72.128924 
L 32.380165 69.874816 
L 33.14876 67.620708 
L 33.917355 65.3666 
L 34.68595 63.112492 
L 35.454545 60.858384 
L 36.22314 58.604276 
L 36.991736 56.350168 
L 37.760331 54.09606 
L 38.528926 51.841952 
L 39.297521 49.587845 
L 40.066116 47.333737 
L 40.834711 45.079629 
L 41.603306 42.825521 
L 42.371901 40.571413 
L 43.140496 38.317305 
L 43.909091 36.063197 
L 44.677686 33.809089 
L 45.446281 31.554981 
L 46.214876 29.300873 
L 46.983471 27.046766 
L 47.752066 24.792658 
L 48.520661 22.53855 
L 49.289256 20.284442 
L 50.057851 18.030334 
L 50.826446 15.776226 
L 51.595041 13.522118 
L 52.363636 11.26801 
L 53.132231 9.013902 
L 53.900826 6.759794 
L 54.669421 4.505687 
L 55.438017 2.251579 
L 56.206612 -0.002529 
L 56.546724 -1 
" style="fill:none;stroke:#000000;stroke-dasharray:1.85,0.8;stroke-dashoffset:0;stroke-width:0.5;"/>
   </g>
   <g id="line2d_2">
    <defs>
     <path d="M 0 3 
C 0.795609 3 1.55874 2.683901 2.12132 2.12132 
C 2.683901 1.55874 3 0.795609 3 0 
C 3 -0.795609 2.683901 -1.55874 2.12132 -2.12132 
C 1.55874 -2.683901 0.795609 -3 0 -3 
C -0.795609 -3 -1.55874 -2.683901 -2.12132 -2.12132 
C -2.683901 -1.55874 -3 -0.795609 -3 0 
C -3 0.795609 -2.683901 1.55874 -2.12132 2.12132 
C -1.55874 2.683901 -0.795609 3 0 3 
z
" id="m9564908c68" style="stroke:#000000;"/>
    </defs>
    <g clip-path="url(#pa450c816b2)">
     <use style="stroke:#000000;" x="27" xlink:href="#m9564908c68" y="94.5"/>
     <use style="stroke:#000000;" x="38.071816" xlink:href="#m9564908c68" y="51.588922"/>
     <use style="stroke:#000000;" x="32.560939" xlink:href="#m9564908c68" y="56.047963"/>
     <use style="stroke:#000000;" x="29.105481" xlink:href="#m9564908c68" y="81.845906"/>
     <use style="stroke:#000000;" x="28.162123" xlink:href="#m9564908c68" y="78.588518"/>
     <use style="stroke:#000000;" x="28.223145" xlink:href="#m9564908c68" y="82.405836"/>
     <use style="stroke:#000000;" x="28.427598" xlink:href="#m9564908c68" y="72.14487"/>
     <use style="stroke:#000000;" x="30.957112" xlink:href="#m9564908c68" y="78.07777"/>
     <use style="stroke:#000000;" x="31.363827" xlink:href="#m9564908c68" y="69.847446"/>
     <use style="stroke:#000000;" x="35.850308" xlink:href="#m9564908c68" y="68.819685"/>
     <use style="stroke:#000000;" x="28.125583" xlink:href="#m9564908c68" y="81.984513"/>
     <use style="stroke:#000000;" x="35.245008" xlink:href="#m9564908c68" y="64.048761"/>
     <use style="stroke:#000000;" x="37.084353" xlink:href="#m9564908c68" y="42.569996"/>
     <use style="stroke:#000000;" x="40.139065" xlink:href="#m9564908c68" y="62.696716"/>
     <use style="stroke:#000000;" x="38.122024" xlink:href="#m9564908c68" y="29.873006"/>
     <use style="stroke:#000000;" x="34.642663" xlink:href="#m9564908c68" y="51.540731"/>
     <use style="stroke:#000000;" x="31.206833" xlink:href="#m9564908c68" y="81.143971"/>
     <use style="stroke:#000000;" x="33.270181" xlink:href="#m9564908c68" y="66.561684"/>
     <use style="stroke:#000000;" x="30.647659" xlink:href="#m9564908c68" y="78.489034"/>
     <use style="stroke:#000000;" x="35.608143" xlink:href="#m9564908c68" y="71.399287"/>
     <use style="stroke:#000000;" x="38.185111" xlink:href="#m9564908c68" y="49.979256"/>
     <use style="stroke:#000000;" x="27" xlink:href="#m9564908c68" y="83.014446"/>
     <use style="stroke:#000000;" x="31.965528" xlink:href="#m9564908c68" y="67.230888"/>
     <use style="stroke:#000000;" x="28.615751" xlink:href="#m9564908c68" y="84.989833"/>
     <use style="stroke:#000000;" x="35.227867" xlink:href="#m9564908c68" y="45.778927"/>
     <use style="stroke:#000000;" x="37.318866" xlink:href="#m9564908c68" y="66.321842"/>
     <use style="stroke:#000000;" x="27.773059" xlink:href="#m9564908c68" y="90.216384"/>
     <use style="stroke:#000000;" x="40.809773" xlink:href="#m9564908c68" y="56.134585"/>
     <use style="stroke:#000000;" x="33.592571" xlink:href="#m9564908c68" y="59.694277"/>
     <use style="stroke:#000000;" x="33.422537" xlink:href="#m9564908c68" y="80.846806"/>
    </g>
   </g>
   <g id="patch_3">
    <path d="M 27 94.5 
L 27 12.96 
" style="fill:none;stroke:#000000;stroke-linecap:square;stroke-linejoin:miter;"/>
   </g>
   <g id="patch_4">
    <path d="M 27 94.5 
L 103.090909 94.5 
" style="fill:none;stroke:#000000;stroke-linecap:square;stroke-linejoin:miter;"/>
   </g>
   <g id="matplotlib.axis_1">
    <g id="xtick_1">
     <g id="line2d_3"/>
     <g id="text_1">
      <text style="font-family:Arial;font-size:8px;font-style:normal;font-weight:normal;text-anchor:middle;" transform="rotate(-0, 27, 103.72625)" x="27" y="103.72625">0</text>
     </g>
    </g>
    <g id="xtick_2">
     <g id="line2d_4"/>
     <g id="text_2">
      <text style="font-family:Arial;font-size:8px;font-style:normal;font-weight:normal;text-anchor:middle;" transform="rotate(-0, 72.829547, 103.72625)" x="72.829547" y="103.72625">5</text>
     </g>
    </g>
    <g id="text_3">
     <text style="font-family:Arial;font-size:10px;font-style:normal;font-weight:normal;text-anchor:middle;" transform="rotate(-0, 65.045455, 116.474063)" x="65.045455" y="116.474063">Exc</text>
    </g>
   </g>
   <g id="matplotlib.axis_2">
    <g id="ytick_1">
     <g id="line2d_5"/>
     <g id="text_4">
      <text style="font-family:Arial;font-size:8px;font-style:normal;font-weight:normal;text-anchor:end;" transform="rotate(-0, 23.5, 97.363125)" x="23.5" y="97.363125">0</text>
     </g>
    </g>
    <g id="ytick_2">
     <g id="line2d_6"/>
     <g id="text_5">
      <text style="font-family:Arial;font-size:8px;font-style:normal;font-weight:normal;text-anchor:end;" transform="rotate(-0, 23.5, 77.718512)" x="23.5" y="77.718512">2</text>
     </g>
    </g>
    <g id="ytick_3">
     <g id="line2d_7"/>
     <g id="text_6">
      <text style="font-family:Arial;font-size:8px;font-style:normal;font-weight:normal;text-anchor:end;" transform="rotate(-0, 23.5, 58.073898)" x="23.5" y="58.073898">4</text>
     </g>
    </g>
    <g id="ytick_4">
     <g id="line2d_8"/>
     <g id="text_7">
      <text style="font-family:Arial;font-size:8px;font-style:normal;font-weight:normal;text-anchor:end;" transform="rotate(-0, 23.5, 38.429285)" x="23.5" y="38.429285">6</text>
     </g>
    </g>
    <g id="ytick_5">
     <g id="line2d_9"/>
     <g id="text_8">
      <text style="font-family:Arial;font-size:8px;font-style:normal;font-weight:normal;text-anchor:end;" transform="rotate(-0, 23.5, 18.784671)" x="23.5" y="18.784671">8</text>
     </g>
    </g>
    <g id="text_9">
     <text style="font-family:Arial;font-size:10px;font-style:normal;font-weight:normal;text-anchor:middle;" transform="rotate(-90, 13.06375, 53.73)" x="13.06375" y="53.73">Inh</text>
    </g>
   </g>
   <g id="legend_1">
    <g id="line2d_10">
     <path d="M 36 75.622656 
L 56 75.622656 
" style="fill:none;stroke:#000000;stroke-dasharray:1.85,0.8;stroke-dashoffset:0;stroke-width:0.5;"/>
    </g>
    <g id="line2d_11"/>
    <g id="text_10">
     <!-- $R^2$ 0.62 -->
     <g transform="translate(64 72.875)">
      <text>
       <tspan style="font-family:DejaVu Sans;font-size:10px;font-style:oblique;font-weight:oblique;" x="0" y="-0.9765625">R</tspan>
       <tspan style="font-family:DejaVu Sans;font-size:7px;font-style:book;font-weight:book;" x="7.650794" y="-4.8046875">2</tspan>
       <tspan style="font-family:Arial;font-size:10px;font-style:regular;font-weight:regular;" x="12.377845 15.156165 20.717689 23.496009 29.057533" y="-0.9765625"> 0.62</tspan>
      </text>
     </g>
     <text style="font-family:Arial;font-size:10px;font-style:normal;font-weight:normal;" transform="translate(64 83.4875)"> slope 2.74</text>
    </g>
   </g>
  </g>
  <g id="axes_2">
   <g id="patch_5">
    <path d="M 118.309091 94.5 
L 194.4 94.5 
L 194.4 12.96 
L 118.309091 12.96 
z
" style="fill:#ffffff;"/>
   </g>
   <g id="PathCollection_1">
    <defs>
     <path d="M 0 2.44949 
C 0.649612 2.44949 1.272706 2.191396 1.732051 1.732051 
C 2.191396 1.272706 2.44949 0.649612 2.44949 0 
C 2.44949 -0.649612 2.191396 -1.272706 1.732051 -1.732051 
C 1.272706 -2.191396 0.649612 -2.44949 0 -2.44949 
C -0.649612 -2.44949 -1.272706 -2.191396 -1.732051 -1.732051 
C -2.191396 -1.272706 -2.44949 -0.649612 -2.44949 0 
C -2.44949 0.649612 -2.191396 1.272706 -1.732051 1.732051 
C -1.272706 2.191396 -0.649612 2.44949 0 2.44949 
z
" id="macd498d1be" style="stroke:#000000;"/>
    </defs>
    <g clip-path="url(#pbc1cce6589)">
     <use style="stroke:#000000;" x="118.309091" xlink:href="#macd498d1be" y="94.5"/>
     <use style="stroke:#000000;" x="147.547356" xlink:href="#macd498d1be" y="60.841986"/>
     <use style="stroke:#000000;" x="137.314537" xlink:href="#macd498d1be" y="70.135183"/>
     <use style="stroke:#000000;" x="131.555382" xlink:href="#macd498d1be" y="80.402271"/>
     <use style="stroke:#000000;" x="125.229003" xlink:href="#macd498d1be" y="67.949475"/>
     <use style="stroke:#000000;" x="129.722905" xlink:href="#macd498d1be" y="65.359237"/>
     <use style="stroke:#000000;" x="127.298513" xlink:href="#macd498d1be" y="84.138372"/>
     <use style="stroke:#000000;" x="135.985991" xlink:href="#macd498d1be" y="76.794864"/>
     <use style="stroke:#000000;" x="155.112197" xlink:href="#macd498d1be" y="62.664878"/>
     <use style="stroke:#000000;" x="153.460391" xlink:href="#macd498d1be" y="65.720979"/>
     <use style="stroke:#000000;" x="128.812502" xlink:href="#macd498d1be" y="79.717225"/>
     <use style="stroke:#000000;" x="143.963945" xlink:href="#macd498d1be" y="54.186686"/>
     <use style="stroke:#000000;" x="171.88187" xlink:href="#macd498d1be" y="17.284458"/>
     <use style="stroke:#000000;" x="141.810226" xlink:href="#macd498d1be" y="69.103089"/>
     <use style="stroke:#000000;" x="156.541407" xlink:href="#macd498d1be" y="44.860591"/>
     <use style="stroke:#000000;" x="147.092537" xlink:href="#macd498d1be" y="35.34304"/>
     <use style="stroke:#000000;" x="139.032832" xlink:href="#macd498d1be" y="84.673152"/>
     <use style="stroke:#000000;" x="139.200974" xlink:href="#macd498d1be" y="87.250718"/>
     <use style="stroke:#000000;" x="133.427795" xlink:href="#macd498d1be" y="75.869772"/>
     <use style="stroke:#000000;" x="150.485318" xlink:href="#macd498d1be" y="60.727932"/>
     <use style="stroke:#000000;" x="147.695354" xlink:href="#macd498d1be" y="66.974342"/>
     <use style="stroke:#000000;" x="118.309091" xlink:href="#macd498d1be" y="94.5"/>
     <use style="stroke:#000000;" x="132.110362" xlink:href="#macd498d1be" y="76.089981"/>
     <use style="stroke:#000000;" x="127.844892" xlink:href="#macd498d1be" y="83.257843"/>
     <use style="stroke:#000000;" x="156.148708" xlink:href="#macd498d1be" y="69.420034"/>
     <use style="stroke:#000000;" x="156.360221" xlink:href="#macd498d1be" y="72.704918"/>
     <use style="stroke:#000000;" x="125.522917" xlink:href="#macd498d1be" y="94.5"/>
     <use style="stroke:#000000;" x="151.832057" xlink:href="#macd498d1be" y="72.452926"/>
     <use style="stroke:#000000;" x="140.878125" xlink:href="#macd498d1be" y="52.83845"/>
     <use style="stroke:#000000;" x="142.164922" xlink:href="#macd498d1be" y="63.930585"/>
    </g>
   </g>
   <g id="line2d_12">
    <path clip-path="url(#pbc1cce6589)" d="M 118.309091 91.435369 
L 119.077686 90.672 
L 119.846281 89.908631 
L 120.614876 89.145262 
L 121.383471 88.381893 
L 122.152066 87.618524 
L 122.920661 86.855155 
L 123.689256 86.091786 
L 124.457851 85.328417 
L 125.226446 84.565048 
L 125.995041 83.801679 
L 126.763636 83.03831 
L 127.532231 82.274941 
L 128.300826 81.511572 
L 129.069421 80.748203 
L 129.838017 79.984834 
L 130.606612 79.221465 
L 131.375207 78.458096 
L 132.143802 77.694727 
L 132.912397 76.931358 
L 133.680992 76.167989 
L 134.449587 75.404619 
L 135.218182 74.64125 
L 135.986777 73.877881 
L 136.755372 73.114512 
L 137.523967 72.351143 
L 138.292562 71.587774 
L 139.061157 70.824405 
L 139.829752 70.061036 
L 140.598347 69.297667 
L 141.366942 68.534298 
L 142.135537 67.770929 
L 142.904132 67.00756 
L 143.672727 66.244191 
L 144.441322 65.480822 
L 145.209917 64.717453 
L 145.978512 63.954084 
L 146.747107 63.190715 
L 147.515702 62.427346 
L 148.284298 61.663977 
L 149.052893 60.900608 
L 149.821488 60.137239 
L 150.590083 59.37387 
L 151.358678 58.610501 
L 152.127273 57.847132 
L 152.895868 57.083763 
L 153.664463 56.320394 
L 154.433058 55.557025 
L 155.201653 54.793656 
L 155.970248 54.030287 
L 156.738843 53.266918 
L 157.507438 52.503549 
L 158.276033 51.74018 
L 159.044628 50.976811 
L 159.813223 50.213442 
L 160.581818 49.450073 
L 161.350413 48.686704 
L 162.119008 47.923335 
L 162.887603 47.159966 
L 163.656198 46.396597 
L 164.424793 45.633228 
L 165.193388 44.869859 
L 165.961983 44.10649 
L 166.730579 43.343121 
L 167.499174 42.579752 
L 168.267769 41.816383 
L 169.036364 41.053014 
L 169.804959 40.289645 
L 170.573554 39.526276 
L 171.342149 38.762907 
L 172.110744 37.999538 
L 172.879339 37.236169 
L 173.647934 36.4728 
L 174.416529 35.709431 
L 175.185124 34.946062 
L 175.953719 34.182693 
L 176.722314 33.419324 
L 177.490909 32.655955 
L 178.259504 31.892586 
L 179.028099 31.129217 
L 179.796694 30.365848 
L 180.565289 29.602478 
L 181.333884 28.839109 
L 182.102479 28.07574 
L 182.871074 27.312371 
L 183.639669 26.549002 
L 184.408264 25.785633 
L 185.17686 25.022264 
L 185.945455 24.258895 
L 186.71405 23.495526 
L 187.482645 22.732157 
L 188.25124 21.968788 
L 189.019835 21.205419 
L 189.78843 20.44205 
L 190.557025 19.678681 
L 191.32562 18.915312 
L 192.094215 18.151943 
L 192.86281 17.388574 
L 193.631405 16.625205 
L 194.4 15.861836 
" style="fill:none;stroke:#000000;stroke-dasharray:1.85,0.8;stroke-dashoffset:0;stroke-width:0.5;"/>
   </g>
   <g id="patch_6">
    <path d="M 118.309091 94.5 
L 118.309091 12.96 
" style="fill:none;stroke:#000000;stroke-linecap:square;stroke-linejoin:miter;"/>
   </g>
   <g id="patch_7">
    <path d="M 118.309091 94.5 
L 194.4 94.5 
" style="fill:none;stroke:#000000;stroke-linecap:square;stroke-linejoin:miter;"/>
   </g>
   <g id="matplotlib.axis_3">
    <g id="xtick_3">
     <g id="line2d_13"/>
     <g id="text_11">
      <text style="font-family:Arial;font-size:8px;font-style:normal;font-weight:normal;text-anchor:middle;" transform="rotate(-0, 118.309091, 103.72625)" x="118.309091" y="103.72625">0</text>
     </g>
    </g>
    <g id="xtick_4">
     <g id="line2d_14"/>
     <g id="text_12">
      <text style="font-family:Arial;font-size:8px;font-style:normal;font-weight:normal;text-anchor:middle;" transform="rotate(-0, 153.227365, 103.72625)" x="153.227365" y="103.72625">1</text>
     </g>
    </g>
    <g id="xtick_5">
     <g id="line2d_15"/>
     <g id="text_13">
      <text style="font-family:Arial;font-size:8px;font-style:normal;font-weight:normal;text-anchor:middle;" transform="rotate(-0, 188.145639, 103.72625)" x="188.145639" y="103.72625">2</text>
     </g>
    </g>
    <g id="text_14">
     <!-- $\sigma$(Exc) -->
     <g transform="translate(141.504545 116.61625)">
      <text>
       <tspan style="font-family:DejaVu Sans;font-size:10px;font-style:oblique;font-weight:oblique;" x="0" y="-0.71875">σ</tspan>
       <tspan style="font-family:Arial;font-size:10px;font-style:regular;font-weight:regular;" x="6.337891 9.667969 16.337891 21.337891 26.337891" y="-0.71875">(Exc)</tspan>
      </text>
     </g>
    </g>
   </g>
   <g id="matplotlib.axis_4">
    <g id="ytick_6">
     <g id="line2d_16"/>
     <g id="text_15">
      <text style="font-family:Arial;font-size:8px;font-style:normal;font-weight:normal;text-anchor:end;" transform="rotate(-0, 114.809091, 97.363125)" x="114.809091" y="97.363125">0.0</text>
     </g>
    </g>
    <g id="ytick_7">
     <g id="line2d_17"/>
     <g id="text_16">
      <text style="font-family:Arial;font-size:8px;font-style:normal;font-weight:normal;text-anchor:end;" transform="rotate(-0, 114.809091, 78.653688)" x="114.809091" y="78.653688">0.5</text>
     </g>
    </g>
    <g id="ytick_8">
     <g id="line2d_18"/>
     <g id="text_17">
      <text style="font-family:Arial;font-size:8px;font-style:normal;font-weight:normal;text-anchor:end;" transform="rotate(-0, 114.809091, 59.944252)" x="114.809091" y="59.944252">1.0</text>
     </g>
    </g>
    <g id="ytick_9">
     <g id="line2d_19"/>
     <g id="text_18">
      <text style="font-family:Arial;font-size:8px;font-style:normal;font-weight:normal;text-anchor:end;" transform="rotate(-0, 114.809091, 41.234815)" x="114.809091" y="41.234815">1.5</text>
     </g>
    </g>
    <g id="ytick_10">
     <g id="line2d_20"/>
     <g id="text_19">
      <text style="font-family:Arial;font-size:8px;font-style:normal;font-weight:normal;text-anchor:end;" transform="rotate(-0, 114.809091, 22.525379)" x="114.809091" y="22.525379">2.0</text>
     </g>
    </g>
    <g id="text_20">
     <!-- $\sigma$(Inh) -->
     <g transform="translate(97.489091 67.18)rotate(-90)">
      <text>
       <tspan style="font-family:DejaVu Sans;font-size:10px;font-style:oblique;font-weight:oblique;" x="0" y="-0.71875">σ</tspan>
       <tspan style="font-family:Arial;font-size:10px;font-style:regular;font-weight:regular;" x="6.337891 9.667969 12.446289 18.007812 23.569336" y="-0.71875">(Inh)</tspan>
      </text>
     </g>
    </g>
   </g>
   <g id="legend_2">
    <g id="line2d_21">
     <path d="M 108.478125 31.995156 
L 128.478125 31.995156 
" style="fill:none;stroke:#000000;stroke-dasharray:1.85,0.8;stroke-dashoffset:0;stroke-width:0.5;"/>
    </g>
    <g id="line2d_22"/>
    <g id="text_21">
     <!-- $R^2$ 0.55 -->
     <g transform="translate(136.478125 29.2475)">
      <text>
       <tspan style="font-family:DejaVu Sans;font-size:10px;font-style:oblique;font-weight:oblique;" x="0" y="-0.9765625">R</tspan>
       <tspan style="font-family:DejaVu Sans;font-size:7px;font-style:book;font-weight:book;" x="7.650794" y="-4.8046875">2</tspan>
       <tspan style="font-family:Arial;font-size:10px;font-style:regular;font-weight:regular;" x="12.377845 15.156165 20.717689 23.496009 29.057533" y="-0.9765625"> 0.55</tspan>
      </text>
     </g>
     <text style="font-family:Arial;font-size:10px;font-style:normal;font-weight:normal;" transform="translate(136.478125 39.86)"> slope 0.93</text>
    </g>
   </g>
  </g>
 </g>
 <defs>
  <clipPath id="pa450c816b2">
   <rect height="81.54" width="76.090909" x="27" y="12.96"/>
  </clipPath>
  <clipPath id="pbc1cce6589">
   <rect height="81.54" width="76.090909" x="118.309091" y="12.96"/>
  </clipPath>
 </defs>
</svg>
