<?xml version="1.0" encoding="utf-8" standalone="no"?>
<!DOCTYPE svg PUBLIC "-//W3C//DTD SVG 1.1//EN"
  "http://www.w3.org/Graphics/SVG/1.1/DTD/svg11.dtd">
<!-- Created with matplotlib (http://matplotlib.org/) -->
<svg height="108pt" version="1.1" viewBox="0 0 216 108" width="216pt" xmlns="http://www.w3.org/2000/svg" xmlns:xlink="http://www.w3.org/1999/xlink">
 <defs>
  <style type="text/css">
*{stroke-linecap:butt;stroke-linejoin:round;}
  </style>
 </defs>
 <g id="figure_1">
  <g id="patch_1">
   <path d="M 0 108 
L 216 108 
L 216 0 
L 0 0 
z
" style="fill:#ffffff;"/>
  </g>
  <g id="axes_1">
   <g id="patch_2">
    <path d="M 27 94.5 
L 103.090909 94.5 
L 103.090909 12.96 
L 27 12.96 
z
" style="fill:#ffffff;"/>
   </g>
   <g id="LineCollection_1">
    <path clip-path="url(#pce532ae909)" d="M 27.419794 36.793622 
L 49.368306 36.793622 
" style="fill:none;stroke:#000000;stroke-width:0.5;"/>
    <path clip-path="url(#pce532ae909)" d="M 24.952085 86.183426 
L 36.505815 86.183426 
" style="fill:none;stroke:#000000;stroke-width:0.5;"/>
    <path clip-path="url(#pce532ae909)" d="M 24.446506 43.484435 
L 47.989366 43.484435 
" style="fill:none;stroke:#000000;stroke-width:0.5;"/>
    <path clip-path="url(#pce532ae909)" d="M 29.253956 45.456208 
L 53.430689 45.456208 
" style="fill:none;stroke:#000000;stroke-width:0.5;"/>
    <path clip-path="url(#pce532ae909)" d="M 25.395712 59.077709 
L 34.425386 59.077709 
" style="fill:none;stroke:#000000;stroke-width:0.5;"/>
    <path clip-path="url(#pce532ae909)" d="M 25.394209 72.350614 
L 30.821456 72.350614 
" style="fill:none;stroke:#000000;stroke-width:0.5;"/>
    <path clip-path="url(#pce532ae909)" d="M 30.826229 30.349656 
L 49.017011 30.349656 
" style="fill:none;stroke:#000000;stroke-width:0.5;"/>
    <path clip-path="url(#pce532ae909)" d="M 29.331589 46.135864 
L 56.586956 46.135864 
" style="fill:none;stroke:#000000;stroke-width:0.5;"/>
    <path clip-path="url(#pce532ae909)" d="M 28.470991 57.633548 
L 44.419329 57.633548 
" style="fill:none;stroke:#000000;stroke-width:0.5;"/>
    <path clip-path="url(#pce532ae909)" d="M 26.328416 78.345586 
L 39.987372 78.345586 
" style="fill:none;stroke:#000000;stroke-width:0.5;"/>
    <path clip-path="url(#pce532ae909)" d="M 27 90.49732 
L 27 90.49732 
" style="fill:none;stroke:#000000;stroke-width:0.5;"/>
    <path clip-path="url(#pce532ae909)" d="M 24.53405 80.776435 
L 34.301541 80.776435 
" style="fill:none;stroke:#000000;stroke-width:0.5;"/>
    <path clip-path="url(#pce532ae909)" d="M 26.731471 86.070572 
L 31.604171 86.070572 
" style="fill:none;stroke:#000000;stroke-width:0.5;"/>
    <path clip-path="url(#pce532ae909)" d="M 30.130311 36.072742 
L 59.478426 36.072742 
" style="fill:none;stroke:#000000;stroke-width:0.5;"/>
    <path clip-path="url(#pce532ae909)" d="M 21.871556 48.468013 
L 47.778641 48.468013 
" style="fill:none;stroke:#000000;stroke-width:0.5;"/>
    <path clip-path="url(#pce532ae909)" d="M 24.617997 47.717474 
L 45.184683 47.717474 
" style="fill:none;stroke:#000000;stroke-width:0.5;"/>
    <path clip-path="url(#pce532ae909)" d="M 27.090291 49.743528 
L 53.661415 49.743528 
" style="fill:none;stroke:#000000;stroke-width:0.5;"/>
    <path clip-path="url(#pce532ae909)" d="M 27.840199 39.460227 
L 45.95055 39.460227 
" style="fill:none;stroke:#000000;stroke-width:0.5;"/>
    <path clip-path="url(#pce532ae909)" d="M 30.291146 63.143756 
L 45.640485 63.143756 
" style="fill:none;stroke:#000000;stroke-width:0.5;"/>
    <path clip-path="url(#pce532ae909)" d="M 25.402101 82.179535 
L 37.352219 82.179535 
" style="fill:none;stroke:#000000;stroke-width:0.5;"/>
    <path clip-path="url(#pce532ae909)" d="M 27.678549 42.48857 
L 43.489308 42.48857 
" style="fill:none;stroke:#000000;stroke-width:0.5;"/>
    <path clip-path="url(#pce532ae909)" d="M 38.011041 34.950797 
L 60.83775 34.950797 
" style="fill:none;stroke:#000000;stroke-width:0.5;"/>
    <path clip-path="url(#pce532ae909)" d="M 25.796183 55.926732 
L 48.994269 55.926732 
" style="fill:none;stroke:#000000;stroke-width:0.5;"/>
    <path clip-path="url(#pce532ae909)" d="M 25.263296 77.989287 
L 44.187382 77.989287 
" style="fill:none;stroke:#000000;stroke-width:0.5;"/>
    <path clip-path="url(#pce532ae909)" d="M 26.74776 66.924771 
L 32.537785 66.924771 
" style="fill:none;stroke:#000000;stroke-width:0.5;"/>
    <path clip-path="url(#pce532ae909)" d="M 25.986623 64.028188 
L 43.228068 64.028188 
" style="fill:none;stroke:#000000;stroke-width:0.5;"/>
    <path clip-path="url(#pce532ae909)" d="M 26.65166 84.284362 
L 31.832741 84.284362 
" style="fill:none;stroke:#000000;stroke-width:0.5;"/>
    <path clip-path="url(#pce532ae909)" d="M 30.048969 64.330357 
L 41.505139 64.330357 
" style="fill:none;stroke:#000000;stroke-width:0.5;"/>
    <path clip-path="url(#pce532ae909)" d="M 27.298065 54.14241 
L 43.052051 54.14241 
" style="fill:none;stroke:#000000;stroke-width:0.5;"/>
    <path clip-path="url(#pce532ae909)" d="M 28.111583 61.553926 
L 36.686619 61.553926 
" style="fill:none;stroke:#000000;stroke-width:0.5;"/>
   </g>
   <g id="LineCollection_2">
    <path clip-path="url(#pce532ae909)" d="M 38.39405 52.059647 
L 38.39405 21.527596 
" style="fill:none;stroke:#000000;stroke-width:0.5;"/>
    <path clip-path="url(#pce532ae909)" d="M 30.72895 92.625416 
L 30.72895 79.741435 
" style="fill:none;stroke:#000000;stroke-width:0.5;"/>
    <path clip-path="url(#pce532ae909)" d="M 36.217936 55.403947 
L 36.217936 31.564924 
" style="fill:none;stroke:#000000;stroke-width:0.5;"/>
    <path clip-path="url(#pce532ae909)" d="M 41.342323 54.99849 
L 41.342323 35.913927 
" style="fill:none;stroke:#000000;stroke-width:0.5;"/>
    <path clip-path="url(#pce532ae909)" d="M 29.910549 68.769152 
L 29.910549 49.386265 
" style="fill:none;stroke:#000000;stroke-width:0.5;"/>
    <path clip-path="url(#pce532ae909)" d="M 28.107832 76.409968 
L 28.107832 68.29126 
" style="fill:none;stroke:#000000;stroke-width:0.5;"/>
    <path clip-path="url(#pce532ae909)" d="M 39.92162 42.72547 
L 39.92162 17.973842 
" style="fill:none;stroke:#000000;stroke-width:0.5;"/>
    <path clip-path="url(#pce532ae909)" d="M 42.959272 49.294661 
L 42.959272 42.977067 
" style="fill:none;stroke:#000000;stroke-width:0.5;"/>
    <path clip-path="url(#pce532ae909)" d="M 36.44516 64.454748 
L 36.44516 50.812348 
" style="fill:none;stroke:#000000;stroke-width:0.5;"/>
    <path clip-path="url(#pce532ae909)" d="M 33.157894 83.549743 
L 33.157894 73.141429 
" style="fill:none;stroke:#000000;stroke-width:0.5;"/>
    <path clip-path="url(#pce532ae909)" d="M 27 92.458225 
L 27 88.536415 
" style="fill:none;stroke:#000000;stroke-width:0.5;"/>
    <path clip-path="url(#pce532ae909)" d="M 29.417795 85.273844 
L 29.417795 76.279026 
" style="fill:none;stroke:#000000;stroke-width:0.5;"/>
    <path clip-path="url(#pce532ae909)" d="M 29.167821 88.244881 
L 29.167821 83.896263 
" style="fill:none;stroke:#000000;stroke-width:0.5;"/>
    <path clip-path="url(#pce532ae909)" d="M 44.804369 45.128943 
L 44.804369 27.016542 
" style="fill:none;stroke:#000000;stroke-width:0.5;"/>
    <path clip-path="url(#pce532ae909)" d="M 34.825098 57.188518 
L 34.825098 39.747508 
" style="fill:none;stroke:#000000;stroke-width:0.5;"/>
    <path clip-path="url(#pce532ae909)" d="M 34.90134 57.134508 
L 34.90134 38.30044 
" style="fill:none;stroke:#000000;stroke-width:0.5;"/>
    <path clip-path="url(#pce532ae909)" d="M 40.375853 55.269181 
L 40.375853 44.217874 
" style="fill:none;stroke:#000000;stroke-width:0.5;"/>
    <path clip-path="url(#pce532ae909)" d="M 36.895375 56.841685 
L 36.895375 22.078769 
" style="fill:none;stroke:#000000;stroke-width:0.5;"/>
    <path clip-path="url(#pce532ae909)" d="M 37.965815 72.325499 
L 37.965815 53.962014 
" style="fill:none;stroke:#000000;stroke-width:0.5;"/>
    <path clip-path="url(#pce532ae909)" d="M 31.37716 91.037519 
L 31.37716 73.321551 
" style="fill:none;stroke:#000000;stroke-width:0.5;"/>
    <path clip-path="url(#pce532ae909)" d="M 35.583928 54.532154 
L 35.583928 30.444987 
" style="fill:none;stroke:#000000;stroke-width:0.5;"/>
    <path clip-path="url(#pce532ae909)" d="M 49.424395 53.148003 
L 49.424395 16.753591 
" style="fill:none;stroke:#000000;stroke-width:0.5;"/>
    <path clip-path="url(#pce532ae909)" d="M 37.395226 66.254777 
L 37.395226 45.598686 
" style="fill:none;stroke:#000000;stroke-width:0.5;"/>
    <path clip-path="url(#pce532ae909)" d="M 34.725339 88.100716 
L 34.725339 67.877859 
" style="fill:none;stroke:#000000;stroke-width:0.5;"/>
    <path clip-path="url(#pce532ae909)" d="M 29.642772 69.829013 
L 29.642772 64.020529 
" style="fill:none;stroke:#000000;stroke-width:0.5;"/>
    <path clip-path="url(#pce532ae909)" d="M 34.607346 72.447736 
L 34.607346 55.60864 
" style="fill:none;stroke:#000000;stroke-width:0.5;"/>
    <path clip-path="url(#pce532ae909)" d="M 29.242201 89.314407 
L 29.242201 79.254316 
" style="fill:none;stroke:#000000;stroke-width:0.5;"/>
    <path clip-path="url(#pce532ae909)" d="M 35.777054 67.555511 
L 35.777054 61.105202 
" style="fill:none;stroke:#000000;stroke-width:0.5;"/>
    <path clip-path="url(#pce532ae909)" d="M 35.175058 58.079265 
L 35.175058 50.205555 
" style="fill:none;stroke:#000000;stroke-width:0.5;"/>
    <path clip-path="url(#pce532ae909)" d="M 32.399101 73.094737 
L 32.399101 50.013114 
" style="fill:none;stroke:#000000;stroke-width:0.5;"/>
   </g>
   <g id="line2d_1">
    <path clip-path="url(#pce532ae909)" d="M 27 81.761942 
L 27.768595 79.69604 
L 28.53719 77.630137 
L 29.305785 75.564234 
L 30.07438 73.498331 
L 30.842975 71.432429 
L 31.61157 69.366526 
L 32.380165 67.300623 
L 33.14876 65.234721 
L 33.917355 63.168818 
L 34.68595 61.102915 
L 35.454545 59.037012 
L 36.22314 56.97111 
L 36.991736 54.905207 
L 37.760331 52.839304 
L 38.528926 50.773401 
L 39.297521 48.707499 
L 40.066116 46.641596 
L 40.834711 44.575693 
L 41.603306 42.509791 
L 42.371901 40.443888 
L 43.140496 38.377985 
L 43.909091 36.312082 
L 44.677686 34.24618 
L 45.446281 32.180277 
L 46.214876 30.114374 
L 46.983471 28.048471 
L 47.752066 25.982569 
L 48.520661 23.916666 
L 49.289256 21.850763 
L 50.057851 19.78486 
L 50.826446 17.718958 
L 51.595041 15.653055 
L 52.363636 13.587152 
L 53.132231 11.52125 
L 53.900826 9.455347 
L 54.669421 7.389444 
L 55.438017 5.323541 
L 56.206612 3.257639 
L 56.975207 1.191736 
L 57.743802 -0.874167 
L 57.790616 -1 
" style="fill:none;stroke:#000000;stroke-dasharray:1.85,0.8;stroke-dashoffset:0;stroke-width:0.5;"/>
   </g>
   <g id="line2d_2">
    <defs>
     <path d="M 0 3 
C 0.795609 3 1.55874 2.683901 2.12132 2.12132 
C 2.683901 1.55874 3 0.795609 3 0 
C 3 -0.795609 2.683901 -1.55874 2.12132 -2.12132 
C 1.55874 -2.683901 0.795609 -3 0 -3 
C -0.795609 -3 -1.55874 -2.683901 -2.12132 -2.12132 
C -2.683901 -1.55874 -3 -0.795609 -3 0 
C -3 0.795609 -2.683901 1.55874 -2.12132 2.12132 
C -1.55874 2.683901 -0.795609 3 0 3 
z
" id="m574175a8af" style="stroke:#000000;"/>
    </defs>
    <g clip-path="url(#pce532ae909)">
     <use style="stroke:#000000;" x="38.39405" xlink:href="#m574175a8af" y="36.793622"/>
     <use style="stroke:#000000;" x="30.72895" xlink:href="#m574175a8af" y="86.183426"/>
     <use style="stroke:#000000;" x="36.217936" xlink:href="#m574175a8af" y="43.484435"/>
     <use style="stroke:#000000;" x="41.342323" xlink:href="#m574175a8af" y="45.456208"/>
     <use style="stroke:#000000;" x="29.910549" xlink:href="#m574175a8af" y="59.077709"/>
     <use style="stroke:#000000;" x="28.107832" xlink:href="#m574175a8af" y="72.350614"/>
     <use style="stroke:#000000;" x="39.92162" xlink:href="#m574175a8af" y="30.349656"/>
     <use style="stroke:#000000;" x="42.959272" xlink:href="#m574175a8af" y="46.135864"/>
     <use style="stroke:#000000;" x="36.44516" xlink:href="#m574175a8af" y="57.633548"/>
     <use style="stroke:#000000;" x="33.157894" xlink:href="#m574175a8af" y="78.345586"/>
     <use style="stroke:#000000;" x="27" xlink:href="#m574175a8af" y="90.49732"/>
     <use style="stroke:#000000;" x="29.417795" xlink:href="#m574175a8af" y="80.776435"/>
     <use style="stroke:#000000;" x="29.167821" xlink:href="#m574175a8af" y="86.070572"/>
     <use style="stroke:#000000;" x="44.804369" xlink:href="#m574175a8af" y="36.072742"/>
     <use style="stroke:#000000;" x="34.825098" xlink:href="#m574175a8af" y="48.468013"/>
     <use style="stroke:#000000;" x="34.90134" xlink:href="#m574175a8af" y="47.717474"/>
     <use style="stroke:#000000;" x="40.375853" xlink:href="#m574175a8af" y="49.743528"/>
     <use style="stroke:#000000;" x="36.895375" xlink:href="#m574175a8af" y="39.460227"/>
     <use style="stroke:#000000;" x="37.965815" xlink:href="#m574175a8af" y="63.143756"/>
     <use style="stroke:#000000;" x="31.37716" xlink:href="#m574175a8af" y="82.179535"/>
     <use style="stroke:#000000;" x="35.583928" xlink:href="#m574175a8af" y="42.48857"/>
     <use style="stroke:#000000;" x="49.424395" xlink:href="#m574175a8af" y="34.950797"/>
     <use style="stroke:#000000;" x="37.395226" xlink:href="#m574175a8af" y="55.926732"/>
     <use style="stroke:#000000;" x="34.725339" xlink:href="#m574175a8af" y="77.989287"/>
     <use style="stroke:#000000;" x="29.642772" xlink:href="#m574175a8af" y="66.924771"/>
     <use style="stroke:#000000;" x="34.607346" xlink:href="#m574175a8af" y="64.028188"/>
     <use style="stroke:#000000;" x="29.242201" xlink:href="#m574175a8af" y="84.284362"/>
     <use style="stroke:#000000;" x="35.777054" xlink:href="#m574175a8af" y="64.330357"/>
     <use style="stroke:#000000;" x="35.175058" xlink:href="#m574175a8af" y="54.14241"/>
     <use style="stroke:#000000;" x="32.399101" xlink:href="#m574175a8af" y="61.553926"/>
    </g>
   </g>
   <g id="patch_3">
    <path d="M 27 94.5 
L 27 12.96 
" style="fill:none;stroke:#000000;stroke-linecap:square;stroke-linejoin:miter;"/>
   </g>
   <g id="patch_4">
    <path d="M 27 94.5 
L 103.090909 94.5 
" style="fill:none;stroke:#000000;stroke-linecap:square;stroke-linejoin:miter;"/>
   </g>
   <g id="matplotlib.axis_1">
    <g id="xtick_1">
     <g id="line2d_3"/>
     <g id="text_1">
      <text style="font-family:Arial;font-size:8px;font-style:normal;font-weight:normal;text-anchor:middle;" transform="rotate(-0, 27, 103.72625)" x="27" y="103.72625">0</text>
     </g>
    </g>
    <g id="xtick_2">
     <g id="line2d_4"/>
     <g id="text_2">
      <text style="font-family:Arial;font-size:8px;font-style:normal;font-weight:normal;text-anchor:middle;" transform="rotate(-0, 76.922919, 103.72625)" x="76.922919" y="103.72625">5</text>
     </g>
    </g>
    <g id="text_3">
     <text style="font-family:Arial;font-size:10px;font-style:normal;font-weight:normal;text-anchor:middle;" transform="rotate(-0, 65.045455, 116.474063)" x="65.045455" y="116.474063">Exc</text>
    </g>
   </g>
   <g id="matplotlib.axis_2">
    <g id="ytick_1">
     <g id="line2d_5"/>
     <g id="text_4">
      <text style="font-family:Arial;font-size:8px;font-style:normal;font-weight:normal;text-anchor:end;" transform="rotate(-0, 23.5, 97.363125)" x="23.5" y="97.363125">0</text>
     </g>
    </g>
    <g id="ytick_2">
     <g id="line2d_6"/>
     <g id="text_5">
      <text style="font-family:Arial;font-size:8px;font-style:normal;font-weight:normal;text-anchor:end;" transform="rotate(-0, 23.5, 75.963907)" x="23.5" y="75.963907">2</text>
     </g>
    </g>
    <g id="ytick_3">
     <g id="line2d_7"/>
     <g id="text_6">
      <text style="font-family:Arial;font-size:8px;font-style:normal;font-weight:normal;text-anchor:end;" transform="rotate(-0, 23.5, 54.56469)" x="23.5" y="54.56469">4</text>
     </g>
    </g>
    <g id="ytick_4">
     <g id="line2d_8"/>
     <g id="text_7">
      <text style="font-family:Arial;font-size:8px;font-style:normal;font-weight:normal;text-anchor:end;" transform="rotate(-0, 23.5, 33.165472)" x="23.5" y="33.165472">6</text>
     </g>
    </g>
    <g id="text_8">
     <text style="font-family:Arial;font-size:10px;font-style:normal;font-weight:normal;text-anchor:middle;" transform="rotate(-90, 13.06375, 53.73)" x="13.06375" y="53.73">Inh</text>
    </g>
   </g>
   <g id="legend_1">
    <g id="line2d_9">
     <path d="M 36 75.622656 
L 56 75.622656 
" style="fill:none;stroke:#000000;stroke-dasharray:1.85,0.8;stroke-dashoffset:0;stroke-width:0.5;"/>
    </g>
    <g id="line2d_10"/>
    <g id="text_9">
     <!-- $R^2$ 0.63 -->
     <g transform="translate(64 72.875)">
      <text>
       <tspan style="font-family:DejaVu Sans;font-size:10px;font-style:oblique;font-weight:oblique;" x="0" y="-0.9765625">R</tspan>
       <tspan style="font-family:DejaVu Sans;font-size:7px;font-style:book;font-weight:book;" x="7.650794" y="-4.8046875">2</tspan>
       <tspan style="font-family:Arial;font-size:10px;font-style:regular;font-weight:regular;" x="12.377845 15.156165 20.717689 23.496009 29.057533" y="-0.9765625"> 0.63</tspan>
      </text>
     </g>
     <text style="font-family:Arial;font-size:10px;font-style:normal;font-weight:normal;" transform="translate(64 83.4875)"> slope 2.51</text>
    </g>
   </g>
  </g>
  <g id="axes_2">
   <g id="patch_5">
    <path d="M 118.309091 94.5 
L 194.4 94.5 
L 194.4 12.96 
L 118.309091 12.96 
z
" style="fill:#ffffff;"/>
   </g>
   <g id="PathCollection_1">
    <defs>
     <path d="M 0 2.44949 
C 0.649612 2.44949 1.272706 2.191396 1.732051 1.732051 
C 2.191396 1.272706 2.44949 0.649612 2.44949 0 
C 2.44949 -0.649612 2.191396 -1.272706 1.732051 -1.732051 
C 1.272706 -2.191396 0.649612 -2.44949 0 -2.44949 
C -0.649612 -2.44949 -1.272706 -2.191396 -1.732051 -1.732051 
C -2.191396 -1.272706 -2.44949 -0.649612 -2.44949 0 
C -2.44949 0.649612 -2.191396 1.272706 -1.732051 1.732051 
C -1.272706 2.191396 -0.649612 2.44949 0 2.44949 
z
" id="m0ba27da429" style="stroke:#000000;"/>
    </defs>
    <g clip-path="url(#pedbf46acaa)">
     <use style="stroke:#000000;" x="165.05756" xlink:href="#m0ba27da429" y="29.469318"/>
     <use style="stroke:#000000;" x="142.917556" xlink:href="#m0ba27da429" y="67.058211"/>
     <use style="stroke:#000000;" x="168.453388" xlink:href="#m0ba27da429" y="43.724902"/>
     <use style="stroke:#000000;" x="169.803483" xlink:href="#m0ba27da429" y="53.851497"/>
     <use style="stroke:#000000;" x="137.541532" xlink:href="#m0ba27da429" y="53.216095"/>
     <use style="stroke:#000000;" x="129.868668" xlink:href="#m0ba27da429" y="77.20784"/>
     <use style="stroke:#000000;" x="157.053915" xlink:href="#m0ba27da429" y="41.781129"/>
     <use style="stroke:#000000;" x="176.360714" xlink:href="#m0ba27da429" y="81.04406"/>
     <use style="stroke:#000000;" x="152.2777" xlink:href="#m0ba27da429" y="65.442843"/>
     <use style="stroke:#000000;" x="147.401512" xlink:href="#m0ba27da429" y="72.331172"/>
     <use style="stroke:#000000;" x="118.309091" xlink:href="#m0ba27da429" y="86.146878"/>
     <use style="stroke:#000000;" x="139.11302" xlink:href="#m0ba27da429" y="75.3418"/>
     <use style="stroke:#000000;" x="128.687529" xlink:href="#m0ba27da429" y="85.237812"/>
     <use style="stroke:#000000;" x="180.818089" xlink:href="#m0ba27da429" y="55.922121"/>
     <use style="stroke:#000000;" x="173.488985" xlink:href="#m0ba27da429" y="57.352128"/>
     <use style="stroke:#000000;" x="162.11439" xlink:href="#m0ba27da429" y="54.385031"/>
     <use style="stroke:#000000;" x="174.903333" xlink:href="#m0ba27da429" y="70.961652"/>
     <use style="stroke:#000000;" x="156.882605" xlink:href="#m0ba27da429" y="20.457933"/>
     <use style="stroke:#000000;" x="151.001883" xlink:href="#m0ba27da429" y="55.387334"/>
     <use style="stroke:#000000;" x="143.76183" xlink:href="#m0ba27da429" y="56.766488"/>
     <use style="stroke:#000000;" x="151.984667" xlink:href="#m0ba27da429" y="43.196375"/>
     <use style="stroke:#000000;" x="166.928047" xlink:href="#m0ba27da429" y="16.982987"/>
     <use style="stroke:#000000;" x="167.719048" xlink:href="#m0ba27da429" y="50.504276"/>
     <use style="stroke:#000000;" x="158.615789" xlink:href="#m0ba27da429" y="51.427029"/>
     <use style="stroke:#000000;" x="130.641352" xlink:href="#m0ba27da429" y="82.128422"/>
     <use style="stroke:#000000;" x="155.031908" xlink:href="#m0ba27da429" y="58.634152"/>
     <use style="stroke:#000000;" x="129.344354" xlink:href="#m0ba27da429" y="73.072858"/>
     <use style="stroke:#000000;" x="142.709762" xlink:href="#m0ba27da429" y="80.761388"/>
     <use style="stroke:#000000;" x="151.863745" xlink:href="#m0ba27da429" y="77.729665"/>
     <use style="stroke:#000000;" x="136.57319" xlink:href="#m0ba27da429" y="45.338098"/>
    </g>
   </g>
   <g id="line2d_11">
    <path clip-path="url(#pedbf46acaa)" d="M 118.309091 77.373932 
L 119.077686 76.967452 
L 119.846281 76.560973 
L 120.614876 76.154494 
L 121.383471 75.748014 
L 122.152066 75.341535 
L 122.920661 74.935055 
L 123.689256 74.528576 
L 124.457851 74.122097 
L 125.226446 73.715617 
L 125.995041 73.309138 
L 126.763636 72.902658 
L 127.532231 72.496179 
L 128.300826 72.0897 
L 129.069421 71.68322 
L 129.838017 71.276741 
L 130.606612 70.870261 
L 131.375207 70.463782 
L 132.143802 70.057303 
L 132.912397 69.650823 
L 133.680992 69.244344 
L 134.449587 68.837864 
L 135.218182 68.431385 
L 135.986777 68.024906 
L 136.755372 67.618426 
L 137.523967 67.211947 
L 138.292562 66.805467 
L 139.061157 66.398988 
L 139.829752 65.992509 
L 140.598347 65.586029 
L 141.366942 65.17955 
L 142.135537 64.773071 
L 142.904132 64.366591 
L 143.672727 63.960112 
L 144.441322 63.553632 
L 145.209917 63.147153 
L 145.978512 62.740674 
L 146.747107 62.334194 
L 147.515702 61.927715 
L 148.284298 61.521235 
L 149.052893 61.114756 
L 149.821488 60.708277 
L 150.590083 60.301797 
L 151.358678 59.895318 
L 152.127273 59.488838 
L 152.895868 59.082359 
L 153.664463 58.67588 
L 154.433058 58.2694 
L 155.201653 57.862921 
L 155.970248 57.456441 
L 156.738843 57.049962 
L 157.507438 56.643483 
L 158.276033 56.237003 
L 159.044628 55.830524 
L 159.813223 55.424044 
L 160.581818 55.017565 
L 161.350413 54.611086 
L 162.119008 54.204606 
L 162.887603 53.798127 
L 163.656198 53.391647 
L 164.424793 52.985168 
L 165.193388 52.578689 
L 165.961983 52.172209 
L 166.730579 51.76573 
L 167.499174 51.359251 
L 168.267769 50.952771 
L 169.036364 50.546292 
L 169.804959 50.139812 
L 170.573554 49.733333 
L 171.342149 49.326854 
L 172.110744 48.920374 
L 172.879339 48.513895 
L 173.647934 48.107415 
L 174.416529 47.700936 
L 175.185124 47.294457 
L 175.953719 46.887977 
L 176.722314 46.481498 
L 177.490909 46.075018 
L 178.259504 45.668539 
L 179.028099 45.26206 
L 179.796694 44.85558 
L 180.565289 44.449101 
L 181.333884 44.042621 
L 182.102479 43.636142 
L 182.871074 43.229663 
L 183.639669 42.823183 
L 184.408264 42.416704 
L 185.17686 42.010224 
L 185.945455 41.603745 
L 186.71405 41.197266 
L 187.482645 40.790786 
L 188.25124 40.384307 
L 189.019835 39.977827 
L 189.78843 39.571348 
L 190.557025 39.164869 
L 191.32562 38.758389 
L 192.094215 38.35191 
L 192.86281 37.945431 
L 193.631405 37.538951 
L 194.4 37.132472 
" style="fill:none;stroke:#000000;stroke-dasharray:1.85,0.8;stroke-dashoffset:0;stroke-width:0.5;"/>
   </g>
   <g id="patch_6">
    <path d="M 118.309091 94.5 
L 118.309091 12.96 
" style="fill:none;stroke:#000000;stroke-linecap:square;stroke-linejoin:miter;"/>
   </g>
   <g id="patch_7">
    <path d="M 118.309091 94.5 
L 194.4 94.5 
" style="fill:none;stroke:#000000;stroke-linecap:square;stroke-linejoin:miter;"/>
   </g>
   <g id="matplotlib.axis_3">
    <g id="xtick_3">
     <g id="line2d_12"/>
     <g id="text_10">
      <text style="font-family:Arial;font-size:8px;font-style:normal;font-weight:normal;text-anchor:middle;" transform="rotate(-0, 118.309091, 103.72625)" x="118.309091" y="103.72625">0</text>
     </g>
    </g>
    <g id="xtick_4">
     <g id="line2d_13"/>
     <g id="text_11">
      <text style="font-family:Arial;font-size:8px;font-style:normal;font-weight:normal;text-anchor:middle;" transform="rotate(-0, 160.841726, 103.72625)" x="160.841726" y="103.72625">1</text>
     </g>
    </g>
    <g id="text_12">
     <!-- $\sigma$(Exc) -->
     <g transform="translate(141.504545 116.61625)">
      <text>
       <tspan style="font-family:DejaVu Sans;font-size:10px;font-style:oblique;font-weight:oblique;" x="0" y="-0.71875">σ</tspan>
       <tspan style="font-family:Arial;font-size:10px;font-style:regular;font-weight:regular;" x="6.337891 9.667969 16.337891 21.337891 26.337891" y="-0.71875">(Exc)</tspan>
      </text>
     </g>
    </g>
   </g>
   <g id="matplotlib.axis_4">
    <g id="ytick_5">
     <g id="line2d_14"/>
     <g id="text_13">
      <text style="font-family:Arial;font-size:8px;font-style:normal;font-weight:normal;text-anchor:end;" transform="rotate(-0, 114.809091, 97.363125)" x="114.809091" y="97.363125">0.0</text>
     </g>
    </g>
    <g id="ytick_6">
     <g id="line2d_15"/>
     <g id="text_14">
      <text style="font-family:Arial;font-size:8px;font-style:normal;font-weight:normal;text-anchor:end;" transform="rotate(-0, 114.809091, 74.573865)" x="114.809091" y="74.573865">0.5</text>
     </g>
    </g>
    <g id="ytick_7">
     <g id="line2d_16"/>
     <g id="text_15">
      <text style="font-family:Arial;font-size:8px;font-style:normal;font-weight:normal;text-anchor:end;" transform="rotate(-0, 114.809091, 51.784605)" x="114.809091" y="51.784605">1.0</text>
     </g>
    </g>
    <g id="ytick_8">
     <g id="line2d_17"/>
     <g id="text_16">
      <text style="font-family:Arial;font-size:8px;font-style:normal;font-weight:normal;text-anchor:end;" transform="rotate(-0, 114.809091, 28.995344)" x="114.809091" y="28.995344">1.5</text>
     </g>
    </g>
    <g id="text_17">
     <!-- $\sigma$(Inh) -->
     <g transform="translate(97.489091 67.18)rotate(-90)">
      <text>
       <tspan style="font-family:DejaVu Sans;font-size:10px;font-style:oblique;font-weight:oblique;" x="0" y="-0.71875">σ</tspan>
       <tspan style="font-family:Arial;font-size:10px;font-style:regular;font-weight:regular;" x="6.337891 9.667969 12.446289 18.007812 23.569336" y="-0.71875">(Inh)</tspan>
      </text>
     </g>
    </g>
   </g>
   <g id="legend_2">
    <g id="line2d_18">
     <path d="M 108.478125 31.995156 
L 128.478125 31.995156 
" style="fill:none;stroke:#000000;stroke-dasharray:1.85,0.8;stroke-dashoffset:0;stroke-width:0.5;"/>
    </g>
    <g id="line2d_19"/>
    <g id="text_18">
     <!-- $R^2$ 0.22 -->
     <g transform="translate(136.478125 29.2475)">
      <text>
       <tspan style="font-family:DejaVu Sans;font-size:10px;font-style:oblique;font-weight:oblique;" x="0" y="-0.9765625">R</tspan>
       <tspan style="font-family:DejaVu Sans;font-size:7px;font-style:book;font-weight:book;" x="7.650794" y="-4.8046875">2</tspan>
       <tspan style="font-family:Arial;font-size:10px;font-style:regular;font-weight:regular;" x="12.377845 15.156165 20.717689 23.496009 29.057533" y="-0.9765625"> 0.22</tspan>
      </text>
     </g>
     <text style="font-family:Arial;font-size:10px;font-style:normal;font-weight:normal;" transform="translate(136.478125 39.86)"> slope 0.49</text>
    </g>
   </g>
  </g>
 </g>
 <defs>
  <clipPath id="pce532ae909">
   <rect height="81.54" width="76.090909" x="27" y="12.96"/>
  </clipPath>
  <clipPath id="pedbf46acaa">
   <rect height="81.54" width="76.090909" x="118.309091" y="12.96"/>
  </clipPath>
 </defs>
</svg>
