<?xml version="1.0" encoding="utf-8" standalone="no"?>
<!DOCTYPE svg PUBLIC "-//W3C//DTD SVG 1.1//EN"
  "http://www.w3.org/Graphics/SVG/1.1/DTD/svg11.dtd">
<!-- Created with matplotlib (http://matplotlib.org/) -->
<svg height="108pt" version="1.1" viewBox="0 0 216 108" width="216pt" xmlns="http://www.w3.org/2000/svg" xmlns:xlink="http://www.w3.org/1999/xlink">
 <defs>
  <style type="text/css">
*{stroke-linecap:butt;stroke-linejoin:round;}
  </style>
 </defs>
 <g id="figure_1">
  <g id="patch_1">
   <path d="M 0 108 
L 216 108 
L 216 0 
L 0 0 
z
" style="fill:#ffffff;"/>
  </g>
  <g id="axes_1">
   <g id="patch_2">
    <path d="M 27 94.5 
L 103.090909 94.5 
L 103.090909 12.96 
L 27 12.96 
z
" style="fill:#ffffff;"/>
   </g>
   <g id="LineCollection_1">
    <path clip-path="url(#pa73d160716)" d="M 26.946506 44.216563 
L 45.322637 44.216563 
" style="fill:none;stroke:#000000;stroke-width:0.5;"/>
    <path clip-path="url(#pa73d160716)" d="M 24.09871 80.550366 
L 39.530993 80.550366 
" style="fill:none;stroke:#000000;stroke-width:0.5;"/>
    <path clip-path="url(#pa73d160716)" d="M 26.275049 57.964965 
L 30.365008 57.964965 
" style="fill:none;stroke:#000000;stroke-width:0.5;"/>
    <path clip-path="url(#pa73d160716)" d="M 28.488223 53.462536 
L 38.244456 53.462536 
" style="fill:none;stroke:#000000;stroke-width:0.5;"/>
    <path clip-path="url(#pa73d160716)" d="M 26.348882 67.394676 
L 34.110674 67.394676 
" style="fill:none;stroke:#000000;stroke-width:0.5;"/>
    <path clip-path="url(#pa73d160716)" d="M 25.57718 86.476767 
L 33.60431 86.476767 
" style="fill:none;stroke:#000000;stroke-width:0.5;"/>
    <path clip-path="url(#pa73d160716)" d="M 25.481974 79.817782 
L 32.625725 79.817782 
" style="fill:none;stroke:#000000;stroke-width:0.5;"/>
    <path clip-path="url(#pa73d160716)" d="M 28.364004 74.498388 
L 36.749443 74.498388 
" style="fill:none;stroke:#000000;stroke-width:0.5;"/>
    <path clip-path="url(#pa73d160716)" d="M 27.437212 53.927446 
L 48.06759 53.927446 
" style="fill:none;stroke:#000000;stroke-width:0.5;"/>
    <path clip-path="url(#pa73d160716)" d="M 15.573408 40.642681 
L 62.604068 40.642681 
" style="fill:none;stroke:#000000;stroke-width:0.5;"/>
    <path clip-path="url(#pa73d160716)" d="M 39.998907 50.381871 
L 68.495156 50.381871 
" style="fill:none;stroke:#000000;stroke-width:0.5;"/>
    <path clip-path="url(#pa73d160716)" d="M 26.396484 81.154433 
L 32.623886 81.154433 
" style="fill:none;stroke:#000000;stroke-width:0.5;"/>
    <path clip-path="url(#pa73d160716)" d="M 34.56258 56.710362 
L 51.508782 56.710362 
" style="fill:none;stroke:#000000;stroke-width:0.5;"/>
    <path clip-path="url(#pa73d160716)" d="M 25.773302 82.348624 
L 32.684012 82.348624 
" style="fill:none;stroke:#000000;stroke-width:0.5;"/>
    <path clip-path="url(#pa73d160716)" d="M 29.293854 63.020815 
L 38.825088 63.020815 
" style="fill:none;stroke:#000000;stroke-width:0.5;"/>
    <path clip-path="url(#pa73d160716)" d="M 26.264042 85.105887 
L 30.996315 85.105887 
" style="fill:none;stroke:#000000;stroke-width:0.5;"/>
    <path clip-path="url(#pa73d160716)" d="M 24.869905 26.183407 
L 37.805705 26.183407 
" style="fill:none;stroke:#000000;stroke-width:0.5;"/>
    <path clip-path="url(#pa73d160716)" d="M 28.548703 60.696895 
L 41.219659 60.696895 
" style="fill:none;stroke:#000000;stroke-width:0.5;"/>
    <path clip-path="url(#pa73d160716)" d="M 27.957396 77.144621 
L 35.461346 77.144621 
" style="fill:none;stroke:#000000;stroke-width:0.5;"/>
    <path clip-path="url(#pa73d160716)" d="M 26.494153 83.841643 
L 33.005275 83.841643 
" style="fill:none;stroke:#000000;stroke-width:0.5;"/>
    <path clip-path="url(#pa73d160716)" d="M 27.670958 82.506286 
L 33.725814 82.506286 
" style="fill:none;stroke:#000000;stroke-width:0.5;"/>
    <path clip-path="url(#pa73d160716)" d="M 28.07554 74.52036 
L 31.653723 74.52036 
" style="fill:none;stroke:#000000;stroke-width:0.5;"/>
    <path clip-path="url(#pa73d160716)" d="M 26.747617 79.809055 
L 29.388997 79.809055 
" style="fill:none;stroke:#000000;stroke-width:0.5;"/>
    <path clip-path="url(#pa73d160716)" d="M 26.712219 68.973596 
L 34.734912 68.973596 
" style="fill:none;stroke:#000000;stroke-width:0.5;"/>
    <path clip-path="url(#pa73d160716)" d="M 26.896379 87.411754 
L 36.026247 87.411754 
" style="fill:none;stroke:#000000;stroke-width:0.5;"/>
    <path clip-path="url(#pa73d160716)" d="M 26.728825 62.380058 
L 43.676174 62.380058 
" style="fill:none;stroke:#000000;stroke-width:0.5;"/>
    <path clip-path="url(#pa73d160716)" d="M 28.126681 62.755697 
L 37.864269 62.755697 
" style="fill:none;stroke:#000000;stroke-width:0.5;"/>
    <path clip-path="url(#pa73d160716)" d="M 34.76007 59.99602 
L 50.796334 59.99602 
" style="fill:none;stroke:#000000;stroke-width:0.5;"/>
    <path clip-path="url(#pa73d160716)" d="M 27.333711 81.296032 
L 35.291961 81.296032 
" style="fill:none;stroke:#000000;stroke-width:0.5;"/>
    <path clip-path="url(#pa73d160716)" d="M 27.651172 55.826669 
L 48.871434 55.826669 
" style="fill:none;stroke:#000000;stroke-width:0.5;"/>
   </g>
   <g id="LineCollection_2">
    <path clip-path="url(#pa73d160716)" d="M 36.134572 56.044815 
L 36.134572 32.388311 
" style="fill:none;stroke:#000000;stroke-width:0.5;"/>
    <path clip-path="url(#pa73d160716)" d="M 31.814852 87.886797 
L 31.814852 73.213935 
" style="fill:none;stroke:#000000;stroke-width:0.5;"/>
    <path clip-path="url(#pa73d160716)" d="M 28.320029 68.08215 
L 28.320029 47.847781 
" style="fill:none;stroke:#000000;stroke-width:0.5;"/>
    <path clip-path="url(#pa73d160716)" d="M 33.366339 60.70281 
L 33.366339 46.222261 
" style="fill:none;stroke:#000000;stroke-width:0.5;"/>
    <path clip-path="url(#pa73d160716)" d="M 30.229778 80.626614 
L 30.229778 54.162739 
" style="fill:none;stroke:#000000;stroke-width:0.5;"/>
    <path clip-path="url(#pa73d160716)" d="M 29.590745 86.476767 
L 29.590745 86.476767 
" style="fill:none;stroke:#000000;stroke-width:0.5;"/>
    <path clip-path="url(#pa73d160716)" d="M 29.05385 85.007835 
L 29.05385 74.62773 
" style="fill:none;stroke:#000000;stroke-width:0.5;"/>
    <path clip-path="url(#pa73d160716)" d="M 32.556724 79.60133 
L 32.556724 69.395445 
" style="fill:none;stroke:#000000;stroke-width:0.5;"/>
    <path clip-path="url(#pa73d160716)" d="M 37.752401 68.343685 
L 37.752401 39.511207 
" style="fill:none;stroke:#000000;stroke-width:0.5;"/>
    <path clip-path="url(#pa73d160716)" d="M 39.088738 64.567646 
L 39.088738 16.717715 
" style="fill:none;stroke:#000000;stroke-width:0.5;"/>
    <path clip-path="url(#pa73d160716)" d="M 54.247032 63.588976 
L 54.247032 37.174766 
" style="fill:none;stroke:#000000;stroke-width:0.5;"/>
    <path clip-path="url(#pa73d160716)" d="M 29.510185 85.19195 
L 29.510185 77.116917 
" style="fill:none;stroke:#000000;stroke-width:0.5;"/>
    <path clip-path="url(#pa73d160716)" d="M 43.035681 60.560023 
L 43.035681 52.8607 
" style="fill:none;stroke:#000000;stroke-width:0.5;"/>
    <path clip-path="url(#pa73d160716)" d="M 29.228657 86.136338 
L 29.228657 78.560909 
" style="fill:none;stroke:#000000;stroke-width:0.5;"/>
    <path clip-path="url(#pa73d160716)" d="M 34.059471 70.958775 
L 34.059471 55.082854 
" style="fill:none;stroke:#000000;stroke-width:0.5;"/>
    <path clip-path="url(#pa73d160716)" d="M 28.630179 88.047963 
L 28.630179 82.16381 
" style="fill:none;stroke:#000000;stroke-width:0.5;"/>
    <path clip-path="url(#pa73d160716)" d="M 31.337805 29.371252 
L 31.337805 22.995562 
" style="fill:none;stroke:#000000;stroke-width:0.5;"/>
    <path clip-path="url(#pa73d160716)" d="M 34.884181 67.129429 
L 34.884181 54.264361 
" style="fill:none;stroke:#000000;stroke-width:0.5;"/>
    <path clip-path="url(#pa73d160716)" d="M 31.709371 79.916612 
L 31.709371 74.37263 
" style="fill:none;stroke:#000000;stroke-width:0.5;"/>
    <path clip-path="url(#pa73d160716)" d="M 29.749714 87.626109 
L 29.749714 80.057176 
" style="fill:none;stroke:#000000;stroke-width:0.5;"/>
    <path clip-path="url(#pa73d160716)" d="M 30.698386 84.587166 
L 30.698386 80.425406 
" style="fill:none;stroke:#000000;stroke-width:0.5;"/>
    <path clip-path="url(#pa73d160716)" d="M 29.864632 80.575297 
L 29.864632 68.465424 
" style="fill:none;stroke:#000000;stroke-width:0.5;"/>
    <path clip-path="url(#pa73d160716)" d="M 28.068307 89.97503 
L 28.068307 69.643079 
" style="fill:none;stroke:#000000;stroke-width:0.5;"/>
    <path clip-path="url(#pa73d160716)" d="M 30.723566 71.150678 
L 30.723566 66.796513 
" style="fill:none;stroke:#000000;stroke-width:0.5;"/>
    <path clip-path="url(#pa73d160716)" d="M 31.461313 91.872024 
L 31.461313 82.951484 
" style="fill:none;stroke:#000000;stroke-width:0.5;"/>
    <path clip-path="url(#pa73d160716)" d="M 35.2025 70.844359 
L 35.2025 53.915757 
" style="fill:none;stroke:#000000;stroke-width:0.5;"/>
    <path clip-path="url(#pa73d160716)" d="M 32.995475 69.420422 
L 32.995475 56.090972 
" style="fill:none;stroke:#000000;stroke-width:0.5;"/>
    <path clip-path="url(#pa73d160716)" d="M 42.778202 72.124986 
L 42.778202 47.867055 
" style="fill:none;stroke:#000000;stroke-width:0.5;"/>
    <path clip-path="url(#pa73d160716)" d="M 31.312836 89.909288 
L 31.312836 72.682775 
" style="fill:none;stroke:#000000;stroke-width:0.5;"/>
    <path clip-path="url(#pa73d160716)" d="M 38.261303 63.169507 
L 38.261303 48.483831 
" style="fill:none;stroke:#000000;stroke-width:0.5;"/>
   </g>
   <g id="line2d_1">
    <path clip-path="url(#pa73d160716)" d="M 27 77.193021 
L 27.768595 76.035124 
L 28.53719 74.877226 
L 29.305785 73.719329 
L 30.07438 72.561431 
L 30.842975 71.403534 
L 31.61157 70.245636 
L 32.380165 69.087738 
L 33.14876 67.929841 
L 33.917355 66.771943 
L 34.68595 65.614046 
L 35.454545 64.456148 
L 36.22314 63.298251 
L 36.991736 62.140353 
L 37.760331 60.982456 
L 38.528926 59.824558 
L 39.297521 58.666661 
L 40.066116 57.508763 
L 40.834711 56.350866 
L 41.603306 55.192968 
L 42.371901 54.03507 
L 43.140496 52.877173 
L 43.909091 51.719275 
L 44.677686 50.561378 
L 45.446281 49.40348 
L 46.214876 48.245583 
L 46.983471 47.087685 
L 47.752066 45.929788 
L 48.520661 44.77189 
L 49.289256 43.613993 
L 50.057851 42.456095 
L 50.826446 41.298197 
L 51.595041 40.1403 
L 52.363636 38.982402 
L 53.132231 37.824505 
L 53.900826 36.666607 
L 54.669421 35.50871 
L 55.438017 34.350812 
L 56.206612 33.192915 
L 56.975207 32.035017 
L 57.743802 30.87712 
L 58.512397 29.719222 
L 59.280992 28.561324 
L 60.049587 27.403427 
L 60.818182 26.245529 
L 61.586777 25.087632 
L 62.355372 23.929734 
L 63.123967 22.771837 
L 63.892562 21.613939 
L 64.661157 20.456042 
L 65.429752 19.298144 
L 66.198347 18.140247 
L 66.966942 16.982349 
L 67.735537 15.824451 
L 68.504132 14.666554 
L 69.272727 13.508656 
L 70.041322 12.350759 
L 70.809917 11.192861 
L 71.578512 10.034964 
L 72.347107 8.877066 
L 73.115702 7.719169 
L 73.884298 6.561271 
L 74.652893 5.403374 
L 75.421488 4.245476 
L 76.190083 3.087578 
L 76.958678 1.929681 
L 77.727273 0.771783 
L 78.495868 -0.386114 
L 78.903356 -1 
" style="fill:none;stroke:#000000;stroke-dasharray:1.85,0.8;stroke-dashoffset:0;stroke-width:0.5;"/>
   </g>
   <g id="line2d_2">
    <defs>
     <path d="M 0 3 
C 0.795609 3 1.55874 2.683901 2.12132 2.12132 
C 2.683901 1.55874 3 0.795609 3 0 
C 3 -0.795609 2.683901 -1.55874 2.12132 -2.12132 
C 1.55874 -2.683901 0.795609 -3 0 -3 
C -0.795609 -3 -1.55874 -2.683901 -2.12132 -2.12132 
C -2.683901 -1.55874 -3 -0.795609 -3 0 
C -3 0.795609 -2.683901 1.55874 -2.12132 2.12132 
C -1.55874 2.683901 -0.795609 3 0 3 
z
" id="m4f5a0434d6" style="stroke:#000000;"/>
    </defs>
    <g clip-path="url(#pa73d160716)">
     <use style="stroke:#000000;" x="36.134572" xlink:href="#m4f5a0434d6" y="44.216563"/>
     <use style="stroke:#000000;" x="31.814852" xlink:href="#m4f5a0434d6" y="80.550366"/>
     <use style="stroke:#000000;" x="28.320029" xlink:href="#m4f5a0434d6" y="57.964965"/>
     <use style="stroke:#000000;" x="33.366339" xlink:href="#m4f5a0434d6" y="53.462536"/>
     <use style="stroke:#000000;" x="30.229778" xlink:href="#m4f5a0434d6" y="67.394676"/>
     <use style="stroke:#000000;" x="29.590745" xlink:href="#m4f5a0434d6" y="86.476767"/>
     <use style="stroke:#000000;" x="29.05385" xlink:href="#m4f5a0434d6" y="79.817782"/>
     <use style="stroke:#000000;" x="32.556724" xlink:href="#m4f5a0434d6" y="74.498388"/>
     <use style="stroke:#000000;" x="37.752401" xlink:href="#m4f5a0434d6" y="53.927446"/>
     <use style="stroke:#000000;" x="39.088738" xlink:href="#m4f5a0434d6" y="40.642681"/>
     <use style="stroke:#000000;" x="54.247032" xlink:href="#m4f5a0434d6" y="50.381871"/>
     <use style="stroke:#000000;" x="29.510185" xlink:href="#m4f5a0434d6" y="81.154433"/>
     <use style="stroke:#000000;" x="43.035681" xlink:href="#m4f5a0434d6" y="56.710362"/>
     <use style="stroke:#000000;" x="29.228657" xlink:href="#m4f5a0434d6" y="82.348624"/>
     <use style="stroke:#000000;" x="34.059471" xlink:href="#m4f5a0434d6" y="63.020815"/>
     <use style="stroke:#000000;" x="28.630179" xlink:href="#m4f5a0434d6" y="85.105887"/>
     <use style="stroke:#000000;" x="31.337805" xlink:href="#m4f5a0434d6" y="26.183407"/>
     <use style="stroke:#000000;" x="34.884181" xlink:href="#m4f5a0434d6" y="60.696895"/>
     <use style="stroke:#000000;" x="31.709371" xlink:href="#m4f5a0434d6" y="77.144621"/>
     <use style="stroke:#000000;" x="29.749714" xlink:href="#m4f5a0434d6" y="83.841643"/>
     <use style="stroke:#000000;" x="30.698386" xlink:href="#m4f5a0434d6" y="82.506286"/>
     <use style="stroke:#000000;" x="29.864632" xlink:href="#m4f5a0434d6" y="74.52036"/>
     <use style="stroke:#000000;" x="28.068307" xlink:href="#m4f5a0434d6" y="79.809055"/>
     <use style="stroke:#000000;" x="30.723566" xlink:href="#m4f5a0434d6" y="68.973596"/>
     <use style="stroke:#000000;" x="31.461313" xlink:href="#m4f5a0434d6" y="87.411754"/>
     <use style="stroke:#000000;" x="35.2025" xlink:href="#m4f5a0434d6" y="62.380058"/>
     <use style="stroke:#000000;" x="32.995475" xlink:href="#m4f5a0434d6" y="62.755697"/>
     <use style="stroke:#000000;" x="42.778202" xlink:href="#m4f5a0434d6" y="59.99602"/>
     <use style="stroke:#000000;" x="31.312836" xlink:href="#m4f5a0434d6" y="81.296032"/>
     <use style="stroke:#000000;" x="38.261303" xlink:href="#m4f5a0434d6" y="55.826669"/>
    </g>
   </g>
   <g id="patch_3">
    <path d="M 27 94.5 
L 27 12.96 
" style="fill:none;stroke:#000000;stroke-linecap:square;stroke-linejoin:miter;"/>
   </g>
   <g id="patch_4">
    <path d="M 27 94.5 
L 103.090909 94.5 
" style="fill:none;stroke:#000000;stroke-linecap:square;stroke-linejoin:miter;"/>
   </g>
   <g id="matplotlib.axis_1">
    <g id="xtick_1">
     <g id="line2d_3"/>
     <g id="text_1">
      <text style="font-family:Arial;font-size:8px;font-style:normal;font-weight:normal;text-anchor:middle;" transform="rotate(-0, 27, 103.72625)" x="27" y="103.72625">0</text>
     </g>
    </g>
    <g id="xtick_2">
     <g id="line2d_4"/>
     <g id="text_2">
      <text style="font-family:Arial;font-size:8px;font-style:normal;font-weight:normal;text-anchor:middle;" transform="rotate(-0, 55.35732, 103.72625)" x="55.35732" y="103.72625">5</text>
     </g>
    </g>
    <g id="xtick_3">
     <g id="line2d_5"/>
     <g id="text_3">
      <text style="font-family:Arial;font-size:8px;font-style:normal;font-weight:normal;text-anchor:middle;" transform="rotate(-0, 83.71464, 103.72625)" x="83.71464" y="103.72625">10</text>
     </g>
    </g>
    <g id="text_4">
     <text style="font-family:Arial;font-size:10px;font-style:normal;font-weight:normal;text-anchor:middle;" transform="rotate(-0, 65.045455, 116.474063)" x="65.045455" y="116.474063">Exc</text>
    </g>
   </g>
   <g id="matplotlib.axis_2">
    <g id="ytick_1">
     <g id="line2d_6"/>
     <g id="text_5">
      <text style="font-family:Arial;font-size:8px;font-style:normal;font-weight:normal;text-anchor:end;" transform="rotate(-0, 23.5, 97.363125)" x="23.5" y="97.363125">0</text>
     </g>
    </g>
    <g id="ytick_2">
     <g id="line2d_7"/>
     <g id="text_6">
      <text style="font-family:Arial;font-size:8px;font-style:normal;font-weight:normal;text-anchor:end;" transform="rotate(-0, 23.5, 66.975055)" x="23.5" y="66.975055">5</text>
     </g>
    </g>
    <g id="ytick_3">
     <g id="line2d_8"/>
     <g id="text_7">
      <text style="font-family:Arial;font-size:8px;font-style:normal;font-weight:normal;text-anchor:end;" transform="rotate(-0, 23.5, 36.586986)" x="23.5" y="36.586986">10</text>
     </g>
    </g>
    <g id="text_8">
     <text style="font-family:Arial;font-size:10px;font-style:normal;font-weight:normal;text-anchor:middle;" transform="rotate(-90, 8.615, 53.73)" x="8.615" y="53.73">Inh</text>
    </g>
   </g>
   <g id="legend_1">
    <g id="line2d_9">
     <path d="M 36 75.622656 
L 56 75.622656 
" style="fill:none;stroke:#000000;stroke-dasharray:1.85,0.8;stroke-dashoffset:0;stroke-width:0.5;"/>
    </g>
    <g id="line2d_10"/>
    <g id="text_9">
     <!-- $R^2$ 0.30 -->
     <g transform="translate(64 72.875)">
      <text>
       <tspan style="font-family:DejaVu Sans;font-size:10px;font-style:oblique;font-weight:oblique;" x="0" y="-0.9765625">R</tspan>
       <tspan style="font-family:DejaVu Sans;font-size:7px;font-style:book;font-weight:book;" x="7.650794" y="-4.8046875">2</tspan>
       <tspan style="font-family:Arial;font-size:10px;font-style:regular;font-weight:regular;" x="12.377845 15.156165 20.717689 23.496009 29.057533" y="-0.9765625"> 0.30</tspan>
      </text>
     </g>
     <text style="font-family:Arial;font-size:10px;font-style:normal;font-weight:normal;" transform="translate(64 83.4875)"> slope 1.41</text>
    </g>
   </g>
  </g>
  <g id="axes_2">
   <g id="patch_5">
    <path d="M 118.309091 94.5 
L 194.4 94.5 
L 194.4 12.96 
L 118.309091 12.96 
z
" style="fill:#ffffff;"/>
   </g>
   <g id="PathCollection_1">
    <defs>
     <path d="M 0 2.44949 
C 0.649612 2.44949 1.272706 2.191396 1.732051 1.732051 
C 2.191396 1.272706 2.44949 0.649612 2.44949 0 
C 2.44949 -0.649612 2.191396 -1.272706 1.732051 -1.732051 
C 1.272706 -2.191396 0.649612 -2.44949 0 -2.44949 
C -0.649612 -2.44949 -1.272706 -2.191396 -1.732051 -1.732051 
C -2.191396 -1.272706 -2.44949 -0.649612 -2.44949 0 
C -2.44949 0.649612 -2.191396 1.272706 -1.732051 1.732051 
C -1.272706 2.191396 -0.649612 2.44949 0 2.44949 
z
" id="m713abfa18f" style="stroke:#000000;"/>
    </defs>
    <g clip-path="url(#p392dd137cf)">
     <use style="stroke:#000000;" x="146.584715" xlink:href="#m713abfa18f" y="58.099389"/>
     <use style="stroke:#000000;" x="142.054971" xlink:href="#m713abfa18f" y="71.922651"/>
     <use style="stroke:#000000;" x="124.602372" xlink:href="#m713abfa18f" y="63.36508"/>
     <use style="stroke:#000000;" x="133.321151" xlink:href="#m713abfa18f" y="72.218565"/>
     <use style="stroke:#000000;" x="130.252273" xlink:href="#m713abfa18f" y="53.779646"/>
     <use style="stroke:#000000;" x="130.660554" xlink:href="#m713abfa18f" y="94.5"/>
     <use style="stroke:#000000;" x="129.301286" xlink:href="#m713abfa18f" y="78.527979"/>
     <use style="stroke:#000000;" x="131.21189" xlink:href="#m713abfa18f" y="78.796054"/>
     <use style="stroke:#000000;" x="150.053356" xlink:href="#m713abfa18f" y="50.135043"/>
     <use style="stroke:#000000;" x="190.675857" xlink:href="#m713abfa18f" y="20.87261"/>
     <use style="stroke:#000000;" x="162.156689" xlink:href="#m713abfa18f" y="53.856066"/>
     <use style="stroke:#000000;" x="127.891285" xlink:href="#m713abfa18f" y="82.074828"/>
     <use style="stroke:#000000;" x="144.384461" xlink:href="#m713abfa18f" y="82.65294"/>
     <use style="stroke:#000000;" x="128.942702" xlink:href="#m713abfa18f" y="82.843576"/>
     <use style="stroke:#000000;" x="132.97494" xlink:href="#m713abfa18f" y="70.071487"/>
     <use style="stroke:#000000;" x="125.590708" xlink:href="#m713abfa18f" y="85.445969"/>
     <use style="stroke:#000000;" x="138.213597" xlink:href="#m713abfa18f" y="84.689632"/>
     <use style="stroke:#000000;" x="137.806077" xlink:href="#m713abfa18f" y="74.704331"/>
     <use style="stroke:#000000;" x="129.85553" xlink:href="#m713abfa18f" y="85.969394"/>
     <use style="stroke:#000000;" x="128.327849" xlink:href="#m713abfa18f" y="82.853573"/>
     <use style="stroke:#000000;" x="127.625788" xlink:href="#m713abfa18f" y="88.096239"/>
     <use style="stroke:#000000;" x="123.814892" xlink:href="#m713abfa18f" y="75.866361"/>
     <use style="stroke:#000000;" x="122.373422" xlink:href="#m713abfa18f" y="63.214927"/>
     <use style="stroke:#000000;" x="130.653725" xlink:href="#m713abfa18f" y="87.800182"/>
     <use style="stroke:#000000;" x="132.357352" xlink:href="#m713abfa18f" y="80.773833"/>
     <use style="stroke:#000000;" x="144.386225" xlink:href="#m713abfa18f" y="68.451712"/>
     <use style="stroke:#000000;" x="133.292461" xlink:href="#m713abfa18f" y="73.98978"/>
     <use style="stroke:#000000;" x="142.984326" xlink:href="#m713abfa18f" y="57.173965"/>
     <use style="stroke:#000000;" x="130.554567" xlink:href="#m713abfa18f" y="67.993312"/>
     <use style="stroke:#000000;" x="150.96102" xlink:href="#m713abfa18f" y="71.902935"/>
    </g>
   </g>
   <g id="line2d_11">
    <path clip-path="url(#p392dd137cf)" d="M 118.309091 86.728684 
L 119.077686 86.119984 
L 119.846281 85.511283 
L 120.614876 84.902583 
L 121.383471 84.293883 
L 122.152066 83.685183 
L 122.920661 83.076482 
L 123.689256 82.467782 
L 124.457851 81.859082 
L 125.226446 81.250381 
L 125.995041 80.641681 
L 126.763636 80.032981 
L 127.532231 79.42428 
L 128.300826 78.81558 
L 129.069421 78.20688 
L 129.838017 77.598179 
L 130.606612 76.989479 
L 131.375207 76.380779 
L 132.143802 75.772078 
L 132.912397 75.163378 
L 133.680992 74.554678 
L 134.449587 73.945977 
L 135.218182 73.337277 
L 135.986777 72.728577 
L 136.755372 72.119876 
L 137.523967 71.511176 
L 138.292562 70.902476 
L 139.061157 70.293775 
L 139.829752 69.685075 
L 140.598347 69.076375 
L 141.366942 68.467674 
L 142.135537 67.858974 
L 142.904132 67.250274 
L 143.672727 66.641573 
L 144.441322 66.032873 
L 145.209917 65.424173 
L 145.978512 64.815472 
L 146.747107 64.206772 
L 147.515702 63.598072 
L 148.284298 62.989371 
L 149.052893 62.380671 
L 149.821488 61.771971 
L 150.590083 61.16327 
L 151.358678 60.55457 
L 152.127273 59.94587 
L 152.895868 59.337169 
L 153.664463 58.728469 
L 154.433058 58.119769 
L 155.201653 57.511068 
L 155.970248 56.902368 
L 156.738843 56.293668 
L 157.507438 55.684967 
L 158.276033 55.076267 
L 159.044628 54.467567 
L 159.813223 53.858866 
L 160.581818 53.250166 
L 161.350413 52.641466 
L 162.119008 52.032765 
L 162.887603 51.424065 
L 163.656198 50.815365 
L 164.424793 50.206664 
L 165.193388 49.597964 
L 165.961983 48.989264 
L 166.730579 48.380563 
L 167.499174 47.771863 
L 168.267769 47.163163 
L 169.036364 46.554462 
L 169.804959 45.945762 
L 170.573554 45.337062 
L 171.342149 44.728361 
L 172.110744 44.119661 
L 172.879339 43.510961 
L 173.647934 42.90226 
L 174.416529 42.29356 
L 175.185124 41.68486 
L 175.953719 41.076159 
L 176.722314 40.467459 
L 177.490909 39.858759 
L 178.259504 39.250058 
L 179.028099 38.641358 
L 179.796694 38.032658 
L 180.565289 37.423957 
L 181.333884 36.815257 
L 182.102479 36.206557 
L 182.871074 35.597856 
L 183.639669 34.989156 
L 184.408264 34.380456 
L 185.17686 33.771755 
L 185.945455 33.163055 
L 186.71405 32.554355 
L 187.482645 31.945654 
L 188.25124 31.336954 
L 189.019835 30.728254 
L 189.78843 30.119553 
L 190.557025 29.510853 
L 191.32562 28.902153 
L 192.094215 28.293452 
L 192.86281 27.684752 
L 193.631405 27.076052 
L 194.4 26.467351 
" style="fill:none;stroke:#000000;stroke-dasharray:1.85,0.8;stroke-dashoffset:0;stroke-width:0.5;"/>
   </g>
   <g id="patch_6">
    <path d="M 118.309091 94.5 
L 118.309091 12.96 
" style="fill:none;stroke:#000000;stroke-linecap:square;stroke-linejoin:miter;"/>
   </g>
   <g id="patch_7">
    <path d="M 118.309091 94.5 
L 194.4 94.5 
" style="fill:none;stroke:#000000;stroke-linecap:square;stroke-linejoin:miter;"/>
   </g>
   <g id="matplotlib.axis_3">
    <g id="xtick_4">
     <g id="line2d_12"/>
     <g id="text_10">
      <text style="font-family:Arial;font-size:8px;font-style:normal;font-weight:normal;text-anchor:middle;" transform="rotate(-0, 118.309091, 103.72625)" x="118.309091" y="103.72625">0</text>
     </g>
    </g>
    <g id="xtick_5">
     <g id="line2d_13"/>
     <g id="text_11">
      <text style="font-family:Arial;font-size:8px;font-style:normal;font-weight:normal;text-anchor:middle;" transform="rotate(-0, 153.21615, 103.72625)" x="153.21615" y="103.72625">2</text>
     </g>
    </g>
    <g id="xtick_6">
     <g id="line2d_14"/>
     <g id="text_12">
      <text style="font-family:Arial;font-size:8px;font-style:normal;font-weight:normal;text-anchor:middle;" transform="rotate(-0, 188.12321, 103.72625)" x="188.12321" y="103.72625">4</text>
     </g>
    </g>
    <g id="text_13">
     <!-- $\sigma$(Exc) -->
     <g transform="translate(141.504545 116.61625)">
      <text>
       <tspan style="font-family:DejaVu Sans;font-size:10px;font-style:oblique;font-weight:oblique;" x="0" y="-0.71875">σ</tspan>
       <tspan style="font-family:Arial;font-size:10px;font-style:regular;font-weight:regular;" x="6.337891 9.667969 16.337891 21.337891 26.337891" y="-0.71875">(Exc)</tspan>
      </text>
     </g>
    </g>
   </g>
   <g id="matplotlib.axis_4">
    <g id="ytick_4">
     <g id="line2d_15"/>
     <g id="text_14">
      <text style="font-family:Arial;font-size:8px;font-style:normal;font-weight:normal;text-anchor:end;" transform="rotate(-0, 114.809091, 97.363125)" x="114.809091" y="97.363125">0</text>
     </g>
    </g>
    <g id="ytick_5">
     <g id="line2d_16"/>
     <g id="text_15">
      <text style="font-family:Arial;font-size:8px;font-style:normal;font-weight:normal;text-anchor:end;" transform="rotate(-0, 114.809091, 78.659697)" x="114.809091" y="78.659697">1</text>
     </g>
    </g>
    <g id="ytick_6">
     <g id="line2d_17"/>
     <g id="text_16">
      <text style="font-family:Arial;font-size:8px;font-style:normal;font-weight:normal;text-anchor:end;" transform="rotate(-0, 114.809091, 59.95627)" x="114.809091" y="59.95627">2</text>
     </g>
    </g>
    <g id="ytick_7">
     <g id="line2d_18"/>
     <g id="text_17">
      <text style="font-family:Arial;font-size:8px;font-style:normal;font-weight:normal;text-anchor:end;" transform="rotate(-0, 114.809091, 41.252842)" x="114.809091" y="41.252842">3</text>
     </g>
    </g>
    <g id="ytick_8">
     <g id="line2d_19"/>
     <g id="text_18">
      <text style="font-family:Arial;font-size:8px;font-style:normal;font-weight:normal;text-anchor:end;" transform="rotate(-0, 114.809091, 22.549415)" x="114.809091" y="22.549415">4</text>
     </g>
    </g>
    <g id="text_19">
     <!-- $\sigma$(Inh) -->
     <g transform="translate(104.160341 67.18)rotate(-90)">
      <text>
       <tspan style="font-family:DejaVu Sans;font-size:10px;font-style:oblique;font-weight:oblique;" x="0" y="-0.71875">σ</tspan>
       <tspan style="font-family:Arial;font-size:10px;font-style:regular;font-weight:regular;" x="6.337891 9.667969 12.446289 18.007812 23.569336" y="-0.71875">(Inh)</tspan>
      </text>
     </g>
    </g>
   </g>
   <g id="legend_2">
    <g id="line2d_20">
     <path d="M 108.478125 31.995156 
L 128.478125 31.995156 
" style="fill:none;stroke:#000000;stroke-dasharray:1.85,0.8;stroke-dashoffset:0;stroke-width:0.5;"/>
    </g>
    <g id="line2d_21"/>
    <g id="text_20">
     <!-- $R^2$ 0.53 -->
     <g transform="translate(136.478125 29.2475)">
      <text>
       <tspan style="font-family:DejaVu Sans;font-size:10px;font-style:oblique;font-weight:oblique;" x="0" y="-0.9765625">R</tspan>
       <tspan style="font-family:DejaVu Sans;font-size:7px;font-style:book;font-weight:book;" x="7.650794" y="-4.8046875">2</tspan>
       <tspan style="font-family:Arial;font-size:10px;font-style:regular;font-weight:regular;" x="12.377845 15.156165 20.717689 23.496009 29.057533" y="-0.9765625"> 0.53</tspan>
      </text>
     </g>
     <text style="font-family:Arial;font-size:10px;font-style:normal;font-weight:normal;" transform="translate(136.478125 39.86)"> slope 0.74</text>
    </g>
   </g>
  </g>
 </g>
 <defs>
  <clipPath id="pa73d160716">
   <rect height="81.54" width="76.090909" x="27" y="12.96"/>
  </clipPath>
  <clipPath id="p392dd137cf">
   <rect height="81.54" width="76.090909" x="118.309091" y="12.96"/>
  </clipPath>
 </defs>
</svg>
