<?xml version="1.0" encoding="utf-8" standalone="no"?>
<!DOCTYPE svg PUBLIC "-//W3C//DTD SVG 1.1//EN"
  "http://www.w3.org/Graphics/SVG/1.1/DTD/svg11.dtd">
<!-- Created with matplotlib (http://matplotlib.org/) -->
<svg height="108pt" version="1.1" viewBox="0 0 216 108" width="216pt" xmlns="http://www.w3.org/2000/svg" xmlns:xlink="http://www.w3.org/1999/xlink">
 <defs>
  <style type="text/css">
*{stroke-linecap:butt;stroke-linejoin:round;}
  </style>
 </defs>
 <g id="figure_1">
  <g id="patch_1">
   <path d="M 0 108 
L 216 108 
L 216 0 
L 0 0 
z
" style="fill:#ffffff;"/>
  </g>
  <g id="axes_1">
   <g id="patch_2">
    <path d="M 27 94.5 
L 103.090909 94.5 
L 103.090909 12.96 
L 27 12.96 
z
" style="fill:#ffffff;"/>
   </g>
   <g id="LineCollection_1">
    <path clip-path="url(#pf8d85d589f)" d="M 24.481612 83.410691 
L 32.993249 83.410691 
" style="fill:none;stroke:#000000;stroke-width:0.5;"/>
    <path clip-path="url(#pf8d85d589f)" d="M 25.743638 74.347511 
L 38.408786 74.347511 
" style="fill:none;stroke:#000000;stroke-width:0.5;"/>
    <path clip-path="url(#pf8d85d589f)" d="M 26.818017 62.481411 
L 37.492905 62.481411 
" style="fill:none;stroke:#000000;stroke-width:0.5;"/>
    <path clip-path="url(#pf8d85d589f)" d="M 32.876055 54.685826 
L 45.068792 54.685826 
" style="fill:none;stroke:#000000;stroke-width:0.5;"/>
    <path clip-path="url(#pf8d85d589f)" d="M 28.018131 66.422576 
L 40.857628 66.422576 
" style="fill:none;stroke:#000000;stroke-width:0.5;"/>
    <path clip-path="url(#pf8d85d589f)" d="M 28.061492 73.146819 
L 34.398373 73.146819 
" style="fill:none;stroke:#000000;stroke-width:0.5;"/>
    <path clip-path="url(#pf8d85d589f)" d="M 28.248943 80.967706 
L 31.312843 80.967706 
" style="fill:none;stroke:#000000;stroke-width:0.5;"/>
    <path clip-path="url(#pf8d85d589f)" d="M 25.039805 83.891598 
L 31.664865 83.891598 
" style="fill:none;stroke:#000000;stroke-width:0.5;"/>
    <path clip-path="url(#pf8d85d589f)" d="M 26.062618 79.485914 
L 34.405431 79.485914 
" style="fill:none;stroke:#000000;stroke-width:0.5;"/>
    <path clip-path="url(#pf8d85d589f)" d="M 27.463328 69.068462 
L 35.970308 69.068462 
" style="fill:none;stroke:#000000;stroke-width:0.5;"/>
    <path clip-path="url(#pf8d85d589f)" d="M 29.187923 70.824657 
L 39.338593 70.824657 
" style="fill:none;stroke:#000000;stroke-width:0.5;"/>
    <path clip-path="url(#pf8d85d589f)" d="M 26.145894 69.990465 
L 32.767811 69.990465 
" style="fill:none;stroke:#000000;stroke-width:0.5;"/>
    <path clip-path="url(#pf8d85d589f)" d="M 27.900347 84.630832 
L 30.846635 84.630832 
" style="fill:none;stroke:#000000;stroke-width:0.5;"/>
    <path clip-path="url(#pf8d85d589f)" d="M 29.277706 76.640882 
L 37.714753 76.640882 
" style="fill:none;stroke:#000000;stroke-width:0.5;"/>
    <path clip-path="url(#pf8d85d589f)" d="M 28.05685 65.959189 
L 54.568944 65.959189 
" style="fill:none;stroke:#000000;stroke-width:0.5;"/>
    <path clip-path="url(#pf8d85d589f)" d="M 27.449179 69.210749 
L 38.482837 69.210749 
" style="fill:none;stroke:#000000;stroke-width:0.5;"/>
    <path clip-path="url(#pf8d85d589f)" d="M 26.455429 87.888609 
L 28.295967 87.888609 
" style="fill:none;stroke:#000000;stroke-width:0.5;"/>
    <path clip-path="url(#pf8d85d589f)" d="M 27.555812 61.178276 
L 39.424566 61.178276 
" style="fill:none;stroke:#000000;stroke-width:0.5;"/>
    <path clip-path="url(#pf8d85d589f)" d="M 25.409158 82.489659 
L 34.328525 82.489659 
" style="fill:none;stroke:#000000;stroke-width:0.5;"/>
    <path clip-path="url(#pf8d85d589f)" d="M 27.589164 84.576124 
L 31.928387 84.576124 
" style="fill:none;stroke:#000000;stroke-width:0.5;"/>
    <path clip-path="url(#pf8d85d589f)" d="M 31.628071 24.882923 
L 51.404575 24.882923 
" style="fill:none;stroke:#000000;stroke-width:0.5;"/>
    <path clip-path="url(#pf8d85d589f)" d="M 28.84404 82.52689 
L 34.845209 82.52689 
" style="fill:none;stroke:#000000;stroke-width:0.5;"/>
    <path clip-path="url(#pf8d85d589f)" d="M 27.892592 70.936783 
L 40.690626 70.936783 
" style="fill:none;stroke:#000000;stroke-width:0.5;"/>
    <path clip-path="url(#pf8d85d589f)" d="M 25.123538 80.349214 
L 38.519401 80.349214 
" style="fill:none;stroke:#000000;stroke-width:0.5;"/>
    <path clip-path="url(#pf8d85d589f)" d="M 25.537627 69.872232 
L 33.782317 69.872232 
" style="fill:none;stroke:#000000;stroke-width:0.5;"/>
    <path clip-path="url(#pf8d85d589f)" d="M 36.339936 34.539287 
L 45.077714 34.539287 
" style="fill:none;stroke:#000000;stroke-width:0.5;"/>
    <path clip-path="url(#pf8d85d589f)" d="M 27.940603 39.41523 
L 41.085004 39.41523 
" style="fill:none;stroke:#000000;stroke-width:0.5;"/>
    <path clip-path="url(#pf8d85d589f)" d="M 29.825533 26.644933 
L 42.35407 26.644933 
" style="fill:none;stroke:#000000;stroke-width:0.5;"/>
    <path clip-path="url(#pf8d85d589f)" d="M 24.721672 62.298785 
L 44.293838 62.298785 
" style="fill:none;stroke:#000000;stroke-width:0.5;"/>
    <path clip-path="url(#pf8d85d589f)" d="M 27.640023 72.805003 
L 37.552011 72.805003 
" style="fill:none;stroke:#000000;stroke-width:0.5;"/>
   </g>
   <g id="LineCollection_2">
    <path clip-path="url(#pf8d85d589f)" d="M 28.737431 87.870291 
L 28.737431 78.951091 
" style="fill:none;stroke:#000000;stroke-width:0.5;"/>
    <path clip-path="url(#pf8d85d589f)" d="M 32.076212 83.941562 
L 32.076212 64.753459 
" style="fill:none;stroke:#000000;stroke-width:0.5;"/>
    <path clip-path="url(#pf8d85d589f)" d="M 32.155461 65.750281 
L 32.155461 59.212541 
" style="fill:none;stroke:#000000;stroke-width:0.5;"/>
    <path clip-path="url(#pf8d85d589f)" d="M 38.972423 60.072464 
L 38.972423 49.299187 
" style="fill:none;stroke:#000000;stroke-width:0.5;"/>
    <path clip-path="url(#pf8d85d589f)" d="M 34.43788 73.429462 
L 34.43788 59.415691 
" style="fill:none;stroke:#000000;stroke-width:0.5;"/>
    <path clip-path="url(#pf8d85d589f)" d="M 31.229933 76.630039 
L 31.229933 69.6636 
" style="fill:none;stroke:#000000;stroke-width:0.5;"/>
    <path clip-path="url(#pf8d85d589f)" d="M 29.780893 84.844521 
L 29.780893 77.09089 
" style="fill:none;stroke:#000000;stroke-width:0.5;"/>
    <path clip-path="url(#pf8d85d589f)" d="M 28.352335 85.511696 
L 28.352335 82.2715 
" style="fill:none;stroke:#000000;stroke-width:0.5;"/>
    <path clip-path="url(#pf8d85d589f)" d="M 30.234025 84.294962 
L 30.234025 74.676867 
" style="fill:none;stroke:#000000;stroke-width:0.5;"/>
    <path clip-path="url(#pf8d85d589f)" d="M 31.716818 73.987175 
L 31.716818 64.149749 
" style="fill:none;stroke:#000000;stroke-width:0.5;"/>
    <path clip-path="url(#pf8d85d589f)" d="M 34.263258 76.746273 
L 34.263258 64.903041 
" style="fill:none;stroke:#000000;stroke-width:0.5;"/>
    <path clip-path="url(#pf8d85d589f)" d="M 29.456852 72.261294 
L 29.456852 67.719636 
" style="fill:none;stroke:#000000;stroke-width:0.5;"/>
    <path clip-path="url(#pf8d85d589f)" d="M 29.373491 88.221378 
L 29.373491 81.040286 
" style="fill:none;stroke:#000000;stroke-width:0.5;"/>
    <path clip-path="url(#pf8d85d589f)" d="M 33.49623 80.902063 
L 33.49623 72.3797 
" style="fill:none;stroke:#000000;stroke-width:0.5;"/>
    <path clip-path="url(#pf8d85d589f)" d="M 41.312897 79.281711 
L 41.312897 52.636668 
" style="fill:none;stroke:#000000;stroke-width:0.5;"/>
    <path clip-path="url(#pf8d85d589f)" d="M 32.966008 73.796012 
L 32.966008 64.625486 
" style="fill:none;stroke:#000000;stroke-width:0.5;"/>
    <path clip-path="url(#pf8d85d589f)" d="M 27.375698 89.948893 
L 27.375698 85.828325 
" style="fill:none;stroke:#000000;stroke-width:0.5;"/>
    <path clip-path="url(#pf8d85d589f)" d="M 33.490189 65.987954 
L 33.490189 56.368599 
" style="fill:none;stroke:#000000;stroke-width:0.5;"/>
    <path clip-path="url(#pf8d85d589f)" d="M 29.868842 88.620091 
L 29.868842 76.359227 
" style="fill:none;stroke:#000000;stroke-width:0.5;"/>
    <path clip-path="url(#pf8d85d589f)" d="M 29.758775 88.020252 
L 29.758775 81.131996 
" style="fill:none;stroke:#000000;stroke-width:0.5;"/>
    <path clip-path="url(#pf8d85d589f)" d="M 41.516323 33.139707 
L 41.516323 16.626138 
" style="fill:none;stroke:#000000;stroke-width:0.5;"/>
    <path clip-path="url(#pf8d85d589f)" d="M 31.844625 83.987637 
L 31.844625 81.066143 
" style="fill:none;stroke:#000000;stroke-width:0.5;"/>
    <path clip-path="url(#pf8d85d589f)" d="M 34.291609 76.295951 
L 34.291609 65.577615 
" style="fill:none;stroke:#000000;stroke-width:0.5;"/>
    <path clip-path="url(#pf8d85d589f)" d="M 31.82147 87.565636 
L 31.82147 73.132793 
" style="fill:none;stroke:#000000;stroke-width:0.5;"/>
    <path clip-path="url(#pf8d85d589f)" d="M 29.659972 75.677176 
L 29.659972 64.067288 
" style="fill:none;stroke:#000000;stroke-width:0.5;"/>
    <path clip-path="url(#pf8d85d589f)" d="M 40.708825 44.744873 
L 40.708825 24.333702 
" style="fill:none;stroke:#000000;stroke-width:0.5;"/>
    <path clip-path="url(#pf8d85d589f)" d="M 34.512803 49.083077 
L 34.512803 29.747384 
" style="fill:none;stroke:#000000;stroke-width:0.5;"/>
    <path clip-path="url(#pf8d85d589f)" d="M 36.089801 29.841948 
L 36.089801 23.447919 
" style="fill:none;stroke:#000000;stroke-width:0.5;"/>
    <path clip-path="url(#pf8d85d589f)" d="M 34.507755 70.725322 
L 34.507755 53.872248 
" style="fill:none;stroke:#000000;stroke-width:0.5;"/>
    <path clip-path="url(#pf8d85d589f)" d="M 32.596017 75.397764 
L 32.596017 70.212243 
" style="fill:none;stroke:#000000;stroke-width:0.5;"/>
   </g>
   <g id="line2d_1">
    <path clip-path="url(#pf8d85d589f)" d="M 27 88.716581 
L 27.768595 86.036024 
L 28.53719 83.355467 
L 29.305785 80.67491 
L 30.07438 77.994353 
L 30.842975 75.313796 
L 31.61157 72.633239 
L 32.380165 69.952682 
L 33.14876 67.272126 
L 33.917355 64.591569 
L 34.68595 61.911012 
L 35.454545 59.230455 
L 36.22314 56.549898 
L 36.991736 53.869341 
L 37.760331 51.188784 
L 38.528926 48.508227 
L 39.297521 45.82767 
L 40.066116 43.147113 
L 40.834711 40.466556 
L 41.603306 37.785999 
L 42.371901 35.105442 
L 43.140496 32.424885 
L 43.909091 29.744328 
L 44.677686 27.063771 
L 45.446281 24.383214 
L 46.214876 21.702657 
L 46.983471 19.0221 
L 47.752066 16.341543 
L 48.520661 13.660987 
L 49.289256 10.98043 
L 50.057851 8.299873 
L 50.826446 5.619316 
L 51.595041 2.938759 
L 52.363636 0.258202 
L 52.7244 -1 
" style="fill:none;stroke:#000000;stroke-dasharray:1.85,0.8;stroke-dashoffset:0;stroke-width:0.5;"/>
   </g>
   <g id="line2d_2">
    <defs>
     <path d="M 0 3 
C 0.795609 3 1.55874 2.683901 2.12132 2.12132 
C 2.683901 1.55874 3 0.795609 3 0 
C 3 -0.795609 2.683901 -1.55874 2.12132 -2.12132 
C 1.55874 -2.683901 0.795609 -3 0 -3 
C -0.795609 -3 -1.55874 -2.683901 -2.12132 -2.12132 
C -2.683901 -1.55874 -3 -0.795609 -3 0 
C -3 0.795609 -2.683901 1.55874 -2.12132 2.12132 
C -1.55874 2.683901 -0.795609 3 0 3 
z
" id="m99192aa136" style="stroke:#000000;"/>
    </defs>
    <g clip-path="url(#pf8d85d589f)">
     <use style="stroke:#000000;" x="28.737431" xlink:href="#m99192aa136" y="83.410691"/>
     <use style="stroke:#000000;" x="32.076212" xlink:href="#m99192aa136" y="74.347511"/>
     <use style="stroke:#000000;" x="32.155461" xlink:href="#m99192aa136" y="62.481411"/>
     <use style="stroke:#000000;" x="38.972423" xlink:href="#m99192aa136" y="54.685826"/>
     <use style="stroke:#000000;" x="34.43788" xlink:href="#m99192aa136" y="66.422576"/>
     <use style="stroke:#000000;" x="31.229933" xlink:href="#m99192aa136" y="73.146819"/>
     <use style="stroke:#000000;" x="29.780893" xlink:href="#m99192aa136" y="80.967706"/>
     <use style="stroke:#000000;" x="28.352335" xlink:href="#m99192aa136" y="83.891598"/>
     <use style="stroke:#000000;" x="30.234025" xlink:href="#m99192aa136" y="79.485914"/>
     <use style="stroke:#000000;" x="31.716818" xlink:href="#m99192aa136" y="69.068462"/>
     <use style="stroke:#000000;" x="34.263258" xlink:href="#m99192aa136" y="70.824657"/>
     <use style="stroke:#000000;" x="29.456852" xlink:href="#m99192aa136" y="69.990465"/>
     <use style="stroke:#000000;" x="29.373491" xlink:href="#m99192aa136" y="84.630832"/>
     <use style="stroke:#000000;" x="33.49623" xlink:href="#m99192aa136" y="76.640882"/>
     <use style="stroke:#000000;" x="41.312897" xlink:href="#m99192aa136" y="65.959189"/>
     <use style="stroke:#000000;" x="32.966008" xlink:href="#m99192aa136" y="69.210749"/>
     <use style="stroke:#000000;" x="27.375698" xlink:href="#m99192aa136" y="87.888609"/>
     <use style="stroke:#000000;" x="33.490189" xlink:href="#m99192aa136" y="61.178276"/>
     <use style="stroke:#000000;" x="29.868842" xlink:href="#m99192aa136" y="82.489659"/>
     <use style="stroke:#000000;" x="29.758775" xlink:href="#m99192aa136" y="84.576124"/>
     <use style="stroke:#000000;" x="41.516323" xlink:href="#m99192aa136" y="24.882923"/>
     <use style="stroke:#000000;" x="31.844625" xlink:href="#m99192aa136" y="82.52689"/>
     <use style="stroke:#000000;" x="34.291609" xlink:href="#m99192aa136" y="70.936783"/>
     <use style="stroke:#000000;" x="31.82147" xlink:href="#m99192aa136" y="80.349214"/>
     <use style="stroke:#000000;" x="29.659972" xlink:href="#m99192aa136" y="69.872232"/>
     <use style="stroke:#000000;" x="40.708825" xlink:href="#m99192aa136" y="34.539287"/>
     <use style="stroke:#000000;" x="34.512803" xlink:href="#m99192aa136" y="39.41523"/>
     <use style="stroke:#000000;" x="36.089801" xlink:href="#m99192aa136" y="26.644933"/>
     <use style="stroke:#000000;" x="34.507755" xlink:href="#m99192aa136" y="62.298785"/>
     <use style="stroke:#000000;" x="32.596017" xlink:href="#m99192aa136" y="72.805003"/>
    </g>
   </g>
   <g id="patch_3">
    <path d="M 27 94.5 
L 27 12.96 
" style="fill:none;stroke:#000000;stroke-linecap:square;stroke-linejoin:miter;"/>
   </g>
   <g id="patch_4">
    <path d="M 27 94.5 
L 103.090909 94.5 
" style="fill:none;stroke:#000000;stroke-linecap:square;stroke-linejoin:miter;"/>
   </g>
   <g id="matplotlib.axis_1">
    <g id="xtick_1">
     <g id="line2d_3"/>
     <g id="text_1">
      <text style="font-family:Arial;font-size:8px;font-style:normal;font-weight:normal;text-anchor:middle;" transform="rotate(-0, 27, 103.72625)" x="27" y="103.72625">0</text>
     </g>
    </g>
    <g id="xtick_2">
     <g id="line2d_4"/>
     <g id="text_2">
      <text style="font-family:Arial;font-size:8px;font-style:normal;font-weight:normal;text-anchor:middle;" transform="rotate(-0, 63.653505, 103.72625)" x="63.653505" y="103.72625">5</text>
     </g>
    </g>
    <g id="xtick_3">
     <g id="line2d_5"/>
     <g id="text_3">
      <text style="font-family:Arial;font-size:8px;font-style:normal;font-weight:normal;text-anchor:middle;" transform="rotate(-0, 100.30701, 103.72625)" x="100.30701" y="103.72625">10</text>
     </g>
    </g>
    <g id="text_4">
     <text style="font-family:Arial;font-size:10px;font-style:normal;font-weight:normal;text-anchor:middle;" transform="rotate(-0, 65.045455, 116.474063)" x="65.045455" y="116.474063">Exc</text>
    </g>
   </g>
   <g id="matplotlib.axis_2">
    <g id="ytick_1">
     <g id="line2d_6"/>
     <g id="text_5">
      <text style="font-family:Arial;font-size:8px;font-style:normal;font-weight:normal;text-anchor:end;" transform="rotate(-0, 23.5, 97.363125)" x="23.5" y="97.363125">0.0</text>
     </g>
    </g>
    <g id="ytick_2">
     <g id="line2d_7"/>
     <g id="text_6">
      <text style="font-family:Arial;font-size:8px;font-style:normal;font-weight:normal;text-anchor:end;" transform="rotate(-0, 23.5, 77.72394)" x="23.5" y="77.72394">2.5</text>
     </g>
    </g>
    <g id="ytick_3">
     <g id="line2d_8"/>
     <g id="text_7">
      <text style="font-family:Arial;font-size:8px;font-style:normal;font-weight:normal;text-anchor:end;" transform="rotate(-0, 23.5, 58.084756)" x="23.5" y="58.084756">5.0</text>
     </g>
    </g>
    <g id="ytick_4">
     <g id="line2d_9"/>
     <g id="text_8">
      <text style="font-family:Arial;font-size:8px;font-style:normal;font-weight:normal;text-anchor:end;" transform="rotate(-0, 23.5, 38.445571)" x="23.5" y="38.445571">7.5</text>
     </g>
    </g>
    <g id="ytick_5">
     <g id="line2d_10"/>
     <g id="text_9">
      <text style="font-family:Arial;font-size:8px;font-style:normal;font-weight:normal;text-anchor:end;" transform="rotate(-0, 23.5, 18.806387)" x="23.5" y="18.806387">10.0</text>
     </g>
    </g>
    <g id="text_10">
     <text style="font-family:Arial;font-size:10px;font-style:normal;font-weight:normal;text-anchor:middle;" transform="rotate(-90, 1.94375, 53.73)" x="1.94375" y="53.73">Inh</text>
    </g>
   </g>
   <g id="legend_1">
    <g id="line2d_11">
     <path d="M 36 75.622656 
L 56 75.622656 
" style="fill:none;stroke:#000000;stroke-dasharray:1.85,0.8;stroke-dashoffset:0;stroke-width:0.5;"/>
    </g>
    <g id="line2d_12"/>
    <g id="text_11">
     <!-- $R^2$ 0.60 -->
     <g transform="translate(64 72.875)">
      <text>
       <tspan style="font-family:DejaVu Sans;font-size:10px;font-style:oblique;font-weight:oblique;" x="0" y="-0.9765625">R</tspan>
       <tspan style="font-family:DejaVu Sans;font-size:7px;font-style:book;font-weight:book;" x="7.650794" y="-4.8046875">2</tspan>
       <tspan style="font-family:Arial;font-size:10px;font-style:regular;font-weight:regular;" x="12.377845 15.156165 20.717689 23.496009 29.057533" y="-0.9765625"> 0.60</tspan>
      </text>
     </g>
     <text style="font-family:Arial;font-size:10px;font-style:normal;font-weight:normal;" transform="translate(64 83.4875)"> slope 3.25</text>
    </g>
   </g>
  </g>
  <g id="axes_2">
   <g id="patch_5">
    <path d="M 118.309091 94.5 
L 194.4 94.5 
L 194.4 12.96 
L 118.309091 12.96 
z
" style="fill:#ffffff;"/>
   </g>
   <g id="PathCollection_1">
    <defs>
     <path d="M 0 2.44949 
C 0.649612 2.44949 1.272706 2.191396 1.732051 1.732051 
C 2.191396 1.272706 2.44949 0.649612 2.44949 0 
C 2.44949 -0.649612 2.191396 -1.272706 1.732051 -1.732051 
C 1.272706 -2.191396 0.649612 -2.44949 0 -2.44949 
C -0.649612 -2.44949 -1.272706 -2.191396 -1.732051 -1.732051 
C -2.191396 -1.272706 -2.44949 -0.649612 -2.44949 0 
C -2.44949 0.649612 -2.191396 1.272706 -1.732051 1.732051 
C -1.272706 2.191396 -0.649612 2.44949 0 2.44949 
z
" id="mcf455700bc" style="stroke:#000000;"/>
    </defs>
    <g clip-path="url(#pfbd247ea3c)">
     <use style="stroke:#000000;" x="141.435398" xlink:href="#mcf455700bc" y="70.266336"/>
     <use style="stroke:#000000;" x="152.72058" xlink:href="#mcf455700bc" y="42.365497"/>
     <use style="stroke:#000000;" x="147.312997" xlink:href="#mcf455700bc" y="76.736815"/>
     <use style="stroke:#000000;" x="151.437027" xlink:href="#mcf455700bc" y="65.228766"/>
     <use style="stroke:#000000;" x="153.194292" xlink:href="#mcf455700bc" y="56.424273"/>
     <use style="stroke:#000000;" x="135.526538" xlink:href="#mcf455700bc" y="75.57203"/>
     <use style="stroke:#000000;" x="126.633774" xlink:href="#mcf455700bc" y="73.433212"/>
     <use style="stroke:#000000;" x="136.309526" xlink:href="#mcf455700bc" y="85.696316"/>
     <use style="stroke:#000000;" x="140.976701" xlink:href="#mcf455700bc" y="68.367421"/>
     <use style="stroke:#000000;" x="141.422746" xlink:href="#mcf455700bc" y="67.771494"/>
     <use style="stroke:#000000;" x="145.888686" xlink:href="#mcf455700bc" y="62.321675"/>
     <use style="stroke:#000000;" x="136.300987" xlink:href="#mcf455700bc" y="82.160215"/>
     <use style="stroke:#000000;" x="126.31422" xlink:href="#mcf455700bc" y="74.988812"/>
     <use style="stroke:#000000;" x="141.232736" xlink:href="#mcf455700bc" y="71.34455"/>
     <use style="stroke:#000000;" x="190.343041" xlink:href="#mcf455700bc" y="22.104826"/>
     <use style="stroke:#000000;" x="148.287786" xlink:href="#mcf455700bc" y="69.583477"/>
     <use style="stroke:#000000;" x="123.309874" xlink:href="#mcf455700bc" y="83.304327"/>
     <use style="stroke:#000000;" x="150.55676" xlink:href="#mcf455700bc" y="68.363998"/>
     <use style="stroke:#000000;" x="142.54321" xlink:href="#mcf455700bc" y="61.186959"/>
     <use style="stroke:#000000;" x="130.098854" xlink:href="#mcf455700bc" y="75.784455"/>
     <use style="stroke:#000000;" x="172.042292" xlink:href="#mcf455700bc" y="49.632264"/>
     <use style="stroke:#000000;" x="134.614401" xlink:href="#mcf455700bc" y="86.562234"/>
     <use style="stroke:#000000;" x="153.081635" xlink:href="#mcf455700bc" y="65.378043"/>
     <use style="stroke:#000000;" x="154.70595" xlink:href="#mcf455700bc" y="55.285645"/>
     <use style="stroke:#000000;" x="140.710097" xlink:href="#mcf455700bc" y="62.955676"/>
     <use style="stroke:#000000;" x="142.049827" xlink:href="#mcf455700bc" y="39.042395"/>
     <use style="stroke:#000000;" x="154.022722" xlink:href="#mcf455700bc" y="41.964491"/>
     <use style="stroke:#000000;" x="152.349404" xlink:href="#mcf455700bc" y="77.127283"/>
     <use style="stroke:#000000;" x="171.487101" xlink:href="#mcf455700bc" y="48.709823"/>
     <use style="stroke:#000000;" x="145.240183" xlink:href="#mcf455700bc" y="80.410824"/>
    </g>
   </g>
   <g id="line2d_13">
    <path clip-path="url(#pfbd247ea3c)" d="M 118.309091 87.988777 
L 119.077686 87.361639 
L 119.846281 86.734501 
L 120.614876 86.107362 
L 121.383471 85.480224 
L 122.152066 84.853086 
L 122.920661 84.225947 
L 123.689256 83.598809 
L 124.457851 82.971671 
L 125.226446 82.344532 
L 125.995041 81.717394 
L 126.763636 81.090255 
L 127.532231 80.463117 
L 128.300826 79.835979 
L 129.069421 79.20884 
L 129.838017 78.581702 
L 130.606612 77.954564 
L 131.375207 77.327425 
L 132.143802 76.700287 
L 132.912397 76.073148 
L 133.680992 75.44601 
L 134.449587 74.818872 
L 135.218182 74.191733 
L 135.986777 73.564595 
L 136.755372 72.937457 
L 137.523967 72.310318 
L 138.292562 71.68318 
L 139.061157 71.056041 
L 139.829752 70.428903 
L 140.598347 69.801765 
L 141.366942 69.174626 
L 142.135537 68.547488 
L 142.904132 67.92035 
L 143.672727 67.293211 
L 144.441322 66.666073 
L 145.209917 66.038935 
L 145.978512 65.411796 
L 146.747107 64.784658 
L 147.515702 64.157519 
L 148.284298 63.530381 
L 149.052893 62.903243 
L 149.821488 62.276104 
L 150.590083 61.648966 
L 151.358678 61.021828 
L 152.127273 60.394689 
L 152.895868 59.767551 
L 153.664463 59.140412 
L 154.433058 58.513274 
L 155.201653 57.886136 
L 155.970248 57.258997 
L 156.738843 56.631859 
L 157.507438 56.004721 
L 158.276033 55.377582 
L 159.044628 54.750444 
L 159.813223 54.123305 
L 160.581818 53.496167 
L 161.350413 52.869029 
L 162.119008 52.24189 
L 162.887603 51.614752 
L 163.656198 50.987614 
L 164.424793 50.360475 
L 165.193388 49.733337 
L 165.961983 49.106199 
L 166.730579 48.47906 
L 167.499174 47.851922 
L 168.267769 47.224783 
L 169.036364 46.597645 
L 169.804959 45.970507 
L 170.573554 45.343368 
L 171.342149 44.71623 
L 172.110744 44.089092 
L 172.879339 43.461953 
L 173.647934 42.834815 
L 174.416529 42.207676 
L 175.185124 41.580538 
L 175.953719 40.9534 
L 176.722314 40.326261 
L 177.490909 39.699123 
L 178.259504 39.071985 
L 179.028099 38.444846 
L 179.796694 37.817708 
L 180.565289 37.190569 
L 181.333884 36.563431 
L 182.102479 35.936293 
L 182.871074 35.309154 
L 183.639669 34.682016 
L 184.408264 34.054878 
L 185.17686 33.427739 
L 185.945455 32.800601 
L 186.71405 32.173463 
L 187.482645 31.546324 
L 188.25124 30.919186 
L 189.019835 30.292047 
L 189.78843 29.664909 
L 190.557025 29.037771 
L 191.32562 28.410632 
L 192.094215 27.783494 
L 192.86281 27.156356 
L 193.631405 26.529217 
L 194.4 25.902079 
" style="fill:none;stroke:#000000;stroke-dasharray:1.85,0.8;stroke-dashoffset:0;stroke-width:0.5;"/>
   </g>
   <g id="patch_6">
    <path d="M 118.309091 94.5 
L 118.309091 12.96 
" style="fill:none;stroke:#000000;stroke-linecap:square;stroke-linejoin:miter;"/>
   </g>
   <g id="patch_7">
    <path d="M 118.309091 94.5 
L 194.4 94.5 
" style="fill:none;stroke:#000000;stroke-linecap:square;stroke-linejoin:miter;"/>
   </g>
   <g id="matplotlib.axis_3">
    <g id="xtick_4">
     <g id="line2d_14"/>
     <g id="text_12">
      <text style="font-family:Arial;font-size:8px;font-style:normal;font-weight:normal;text-anchor:middle;" transform="rotate(-0, 118.309091, 103.72625)" x="118.309091" y="103.72625">0</text>
     </g>
    </g>
    <g id="xtick_5">
     <g id="line2d_15"/>
     <g id="text_13">
      <text style="font-family:Arial;font-size:8px;font-style:normal;font-weight:normal;text-anchor:middle;" transform="rotate(-0, 158.144447, 103.72625)" x="158.144447" y="103.72625">1</text>
     </g>
    </g>
    <g id="text_14">
     <!-- $\sigma$(Exc) -->
     <g transform="translate(141.504545 116.61625)">
      <text>
       <tspan style="font-family:DejaVu Sans;font-size:10px;font-style:oblique;font-weight:oblique;" x="0" y="-0.71875">σ</tspan>
       <tspan style="font-family:Arial;font-size:10px;font-style:regular;font-weight:regular;" x="6.337891 9.667969 16.337891 21.337891 26.337891" y="-0.71875">(Exc)</tspan>
      </text>
     </g>
    </g>
   </g>
   <g id="matplotlib.axis_4">
    <g id="ytick_6">
     <g id="line2d_16"/>
     <g id="text_15">
      <text style="font-family:Arial;font-size:8px;font-style:normal;font-weight:normal;text-anchor:end;" transform="rotate(-0, 114.809091, 97.363125)" x="114.809091" y="97.363125">0.0</text>
     </g>
    </g>
    <g id="ytick_7">
     <g id="line2d_17"/>
     <g id="text_16">
      <text style="font-family:Arial;font-size:8px;font-style:normal;font-weight:normal;text-anchor:end;" transform="rotate(-0, 114.809091, 76.019084)" x="114.809091" y="76.019084">0.5</text>
     </g>
    </g>
    <g id="ytick_8">
     <g id="line2d_18"/>
     <g id="text_17">
      <text style="font-family:Arial;font-size:8px;font-style:normal;font-weight:normal;text-anchor:end;" transform="rotate(-0, 114.809091, 54.675044)" x="114.809091" y="54.675044">1.0</text>
     </g>
    </g>
    <g id="ytick_9">
     <g id="line2d_19"/>
     <g id="text_18">
      <text style="font-family:Arial;font-size:8px;font-style:normal;font-weight:normal;text-anchor:end;" transform="rotate(-0, 114.809091, 33.331003)" x="114.809091" y="33.331003">1.5</text>
     </g>
    </g>
    <g id="text_19">
     <!-- $\sigma$(Inh) -->
     <g transform="translate(97.489091 67.18)rotate(-90)">
      <text>
       <tspan style="font-family:DejaVu Sans;font-size:10px;font-style:oblique;font-weight:oblique;" x="0" y="-0.71875">σ</tspan>
       <tspan style="font-family:Arial;font-size:10px;font-style:regular;font-weight:regular;" x="6.337891 9.667969 12.446289 18.007812 23.569336" y="-0.71875">(Inh)</tspan>
      </text>
     </g>
    </g>
   </g>
   <g id="legend_2">
    <g id="line2d_20">
     <path d="M 108.478125 31.995156 
L 128.478125 31.995156 
" style="fill:none;stroke:#000000;stroke-dasharray:1.85,0.8;stroke-dashoffset:0;stroke-width:0.5;"/>
    </g>
    <g id="line2d_21"/>
    <g id="text_20">
     <!-- $R^2$ 0.57 -->
     <g transform="translate(136.478125 29.2475)">
      <text>
       <tspan style="font-family:DejaVu Sans;font-size:10px;font-style:oblique;font-weight:oblique;" x="0" y="-0.9765625">R</tspan>
       <tspan style="font-family:DejaVu Sans;font-size:7px;font-style:book;font-weight:book;" x="7.650794" y="-4.8046875">2</tspan>
       <tspan style="font-family:Arial;font-size:10px;font-style:regular;font-weight:regular;" x="12.377845 15.156165 20.717689 23.496009 29.057533" y="-0.9765625"> 0.57</tspan>
      </text>
     </g>
     <text style="font-family:Arial;font-size:10px;font-style:normal;font-weight:normal;" transform="translate(136.478125 39.86)"> slope 0.76</text>
    </g>
   </g>
  </g>
 </g>
 <defs>
  <clipPath id="pf8d85d589f">
   <rect height="81.54" width="76.090909" x="27" y="12.96"/>
  </clipPath>
  <clipPath id="pfbd247ea3c">
   <rect height="81.54" width="76.090909" x="118.309091" y="12.96"/>
  </clipPath>
 </defs>
</svg>
