<?xml version="1.0" encoding="utf-8" standalone="no"?>
<!DOCTYPE svg PUBLIC "-//W3C//DTD SVG 1.1//EN"
  "http://www.w3.org/Graphics/SVG/1.1/DTD/svg11.dtd">
<!-- Created with matplotlib (http://matplotlib.org/) -->
<svg height="108pt" version="1.1" viewBox="0 0 216 108" width="216pt" xmlns="http://www.w3.org/2000/svg" xmlns:xlink="http://www.w3.org/1999/xlink">
 <defs>
  <style type="text/css">
*{stroke-linecap:butt;stroke-linejoin:round;}
  </style>
 </defs>
 <g id="figure_1">
  <g id="patch_1">
   <path d="M 0 108 
L 216 108 
L 216 0 
L 0 0 
z
" style="fill:#ffffff;"/>
  </g>
  <g id="axes_1">
   <g id="patch_2">
    <path d="M 27 94.5 
L 103.090909 94.5 
L 103.090909 12.96 
L 27 12.96 
z
" style="fill:#ffffff;"/>
   </g>
   <g id="LineCollection_1">
    <path clip-path="url(#p8b13534dee)" d="M 27.166499 69.908334 
L 33.148228 69.908334 
" style="fill:none;stroke:#000000;stroke-width:0.5;"/>
    <path clip-path="url(#p8b13534dee)" d="M 25.028112 82.098194 
L 40.514771 82.098194 
" style="fill:none;stroke:#000000;stroke-width:0.5;"/>
    <path clip-path="url(#p8b13534dee)" d="M 27.283763 74.612581 
L 33.033574 74.612581 
" style="fill:none;stroke:#000000;stroke-width:0.5;"/>
    <path clip-path="url(#p8b13534dee)" d="M 26.814402 72.279949 
L 37.301764 72.279949 
" style="fill:none;stroke:#000000;stroke-width:0.5;"/>
    <path clip-path="url(#p8b13534dee)" d="M 26.597444 81.089695 
L 35.754617 81.089695 
" style="fill:none;stroke:#000000;stroke-width:0.5;"/>
    <path clip-path="url(#p8b13534dee)" d="M 28.784609 49.397441 
L 41.254083 49.397441 
" style="fill:none;stroke:#000000;stroke-width:0.5;"/>
    <path clip-path="url(#p8b13534dee)" d="M 26.03867 65.878351 
L 31.462208 65.878351 
" style="fill:none;stroke:#000000;stroke-width:0.5;"/>
    <path clip-path="url(#p8b13534dee)" d="M 26.192256 73.875492 
L 36.165351 73.875492 
" style="fill:none;stroke:#000000;stroke-width:0.5;"/>
    <path clip-path="url(#p8b13534dee)" d="M 27.262418 90.528502 
L 30.005589 90.528502 
" style="fill:none;stroke:#000000;stroke-width:0.5;"/>
    <path clip-path="url(#p8b13534dee)" d="M 25.513219 64.499084 
L 37.51667 64.499084 
" style="fill:none;stroke:#000000;stroke-width:0.5;"/>
    <path clip-path="url(#p8b13534dee)" d="M 26.678745 63.290332 
L 28.885645 63.290332 
" style="fill:none;stroke:#000000;stroke-width:0.5;"/>
    <path clip-path="url(#p8b13534dee)" d="M 27.406804 80.708267 
L 30.675296 80.708267 
" style="fill:none;stroke:#000000;stroke-width:0.5;"/>
    <path clip-path="url(#p8b13534dee)" d="M 25.826043 81.743412 
L 37.042248 81.743412 
" style="fill:none;stroke:#000000;stroke-width:0.5;"/>
    <path clip-path="url(#p8b13534dee)" d="M 26.535733 75.77419 
L 40.895317 75.77419 
" style="fill:none;stroke:#000000;stroke-width:0.5;"/>
    <path clip-path="url(#p8b13534dee)" d="M 24.906862 49.014691 
L 59.762628 49.014691 
" style="fill:none;stroke:#000000;stroke-width:0.5;"/>
    <path clip-path="url(#p8b13534dee)" d="M 26.464548 84.941097 
L 33.764867 84.941097 
" style="fill:none;stroke:#000000;stroke-width:0.5;"/>
    <path clip-path="url(#p8b13534dee)" d="M 27.089836 84.476927 
L 31.366148 84.476927 
" style="fill:none;stroke:#000000;stroke-width:0.5;"/>
    <path clip-path="url(#p8b13534dee)" d="M 27.980824 79.337924 
L 43.209634 79.337924 
" style="fill:none;stroke:#000000;stroke-width:0.5;"/>
    <path clip-path="url(#p8b13534dee)" d="M 27.362031 56.286752 
L 39.376446 56.286752 
" style="fill:none;stroke:#000000;stroke-width:0.5;"/>
    <path clip-path="url(#p8b13534dee)" d="M 33.326951 66.831334 
L 68.701543 66.831334 
" style="fill:none;stroke:#000000;stroke-width:0.5;"/>
    <path clip-path="url(#p8b13534dee)" d="M 26.396703 28.702974 
L 40.865847 28.702974 
" style="fill:none;stroke:#000000;stroke-width:0.5;"/>
    <path clip-path="url(#p8b13534dee)" d="M 26.157115 88.953408 
L 29.005895 88.953408 
" style="fill:none;stroke:#000000;stroke-width:0.5;"/>
    <path clip-path="url(#p8b13534dee)" d="M 25.544327 77.165584 
L 30.814236 77.165584 
" style="fill:none;stroke:#000000;stroke-width:0.5;"/>
    <path clip-path="url(#p8b13534dee)" d="M 26.574787 76.212563 
L 31.731808 76.212563 
" style="fill:none;stroke:#000000;stroke-width:0.5;"/>
    <path clip-path="url(#p8b13534dee)" d="M 26.19494 90.197239 
L 28.915879 90.197239 
" style="fill:none;stroke:#000000;stroke-width:0.5;"/>
    <path clip-path="url(#p8b13534dee)" d="M 27.681789 61.967259 
L 42.759699 61.967259 
" style="fill:none;stroke:#000000;stroke-width:0.5;"/>
    <path clip-path="url(#p8b13534dee)" d="M 25.963302 38.623213 
L 65.140755 38.623213 
" style="fill:none;stroke:#000000;stroke-width:0.5;"/>
    <path clip-path="url(#p8b13534dee)" d="M 15.289931 38.740765 
L 82.906147 38.740765 
" style="fill:none;stroke:#000000;stroke-width:0.5;"/>
    <path clip-path="url(#p8b13534dee)" d="M 26.510626 80.044589 
L 28.164609 80.044589 
" style="fill:none;stroke:#000000;stroke-width:0.5;"/>
    <path clip-path="url(#p8b13534dee)" d="M 25.024074 73.047501 
L 31.702301 73.047501 
" style="fill:none;stroke:#000000;stroke-width:0.5;"/>
   </g>
   <g id="LineCollection_2">
    <path clip-path="url(#p8b13534dee)" d="M 30.157364 76.956893 
L 30.157364 62.859775 
" style="fill:none;stroke:#000000;stroke-width:0.5;"/>
    <path clip-path="url(#p8b13534dee)" d="M 32.771441 89.056116 
L 32.771441 75.140273 
" style="fill:none;stroke:#000000;stroke-width:0.5;"/>
    <path clip-path="url(#p8b13534dee)" d="M 30.158668 82.38631 
L 30.158668 66.838853 
" style="fill:none;stroke:#000000;stroke-width:0.5;"/>
    <path clip-path="url(#p8b13534dee)" d="M 32.058083 75.8504 
L 32.058083 68.709498 
" style="fill:none;stroke:#000000;stroke-width:0.5;"/>
    <path clip-path="url(#p8b13534dee)" d="M 31.176031 86.415209 
L 31.176031 75.764181 
" style="fill:none;stroke:#000000;stroke-width:0.5;"/>
    <path clip-path="url(#p8b13534dee)" d="M 35.019346 51.15291 
L 35.019346 47.641973 
" style="fill:none;stroke:#000000;stroke-width:0.5;"/>
    <path clip-path="url(#p8b13534dee)" d="M 28.750439 70.948708 
L 28.750439 60.807994 
" style="fill:none;stroke:#000000;stroke-width:0.5;"/>
    <path clip-path="url(#p8b13534dee)" d="M 31.178804 77.223863 
L 31.178804 70.52712 
" style="fill:none;stroke:#000000;stroke-width:0.5;"/>
    <path clip-path="url(#p8b13534dee)" d="M 28.634004 91.093325 
L 28.634004 89.963678 
" style="fill:none;stroke:#000000;stroke-width:0.5;"/>
    <path clip-path="url(#p8b13534dee)" d="M 31.514945 68.360018 
L 31.514945 60.638149 
" style="fill:none;stroke:#000000;stroke-width:0.5;"/>
    <path clip-path="url(#p8b13534dee)" d="M 27.782195 65.26154 
L 27.782195 61.319124 
" style="fill:none;stroke:#000000;stroke-width:0.5;"/>
    <path clip-path="url(#p8b13534dee)" d="M 29.04105 85.411966 
L 29.04105 76.004568 
" style="fill:none;stroke:#000000;stroke-width:0.5;"/>
    <path clip-path="url(#p8b13534dee)" d="M 31.434146 85.939129 
L 31.434146 77.547695 
" style="fill:none;stroke:#000000;stroke-width:0.5;"/>
    <path clip-path="url(#p8b13534dee)" d="M 33.715525 82.642224 
L 33.715525 68.906157 
" style="fill:none;stroke:#000000;stroke-width:0.5;"/>
    <path clip-path="url(#p8b13534dee)" d="M 42.334745 66.343832 
L 42.334745 31.685549 
" style="fill:none;stroke:#000000;stroke-width:0.5;"/>
    <path clip-path="url(#p8b13534dee)" d="M 30.114708 88.188281 
L 30.114708 81.693913 
" style="fill:none;stroke:#000000;stroke-width:0.5;"/>
    <path clip-path="url(#p8b13534dee)" d="M 29.227992 88.996344 
L 29.227992 79.957509 
" style="fill:none;stroke:#000000;stroke-width:0.5;"/>
    <path clip-path="url(#p8b13534dee)" d="M 35.595229 87.139725 
L 35.595229 71.536123 
" style="fill:none;stroke:#000000;stroke-width:0.5;"/>
    <path clip-path="url(#p8b13534dee)" d="M 33.369238 64.779668 
L 33.369238 47.793835 
" style="fill:none;stroke:#000000;stroke-width:0.5;"/>
    <path clip-path="url(#p8b13534dee)" d="M 51.014247 87.241844 
L 51.014247 46.420825 
" style="fill:none;stroke:#000000;stroke-width:0.5;"/>
    <path clip-path="url(#p8b13534dee)" d="M 33.631275 37.054108 
L 33.631275 20.351841 
" style="fill:none;stroke:#000000;stroke-width:0.5;"/>
    <path clip-path="url(#p8b13534dee)" d="M 27.581505 90.752721 
L 27.581505 87.154096 
" style="fill:none;stroke:#000000;stroke-width:0.5;"/>
    <path clip-path="url(#p8b13534dee)" d="M 28.179281 79.938068 
L 28.179281 74.393101 
" style="fill:none;stroke:#000000;stroke-width:0.5;"/>
    <path clip-path="url(#p8b13534dee)" d="M 29.153297 80.444069 
L 29.153297 71.981056 
" style="fill:none;stroke:#000000;stroke-width:0.5;"/>
    <path clip-path="url(#p8b13534dee)" d="M 27.555409 92.982032 
L 27.555409 87.412445 
" style="fill:none;stroke:#000000;stroke-width:0.5;"/>
    <path clip-path="url(#p8b13534dee)" d="M 35.220744 66.466378 
L 35.220744 57.468139 
" style="fill:none;stroke:#000000;stroke-width:0.5;"/>
    <path clip-path="url(#p8b13534dee)" d="M 45.552029 60.475854 
L 45.552029 16.770573 
" style="fill:none;stroke:#000000;stroke-width:0.5;"/>
    <path clip-path="url(#p8b13534dee)" d="M 49.098039 58.39619 
L 49.098039 19.08534 
" style="fill:none;stroke:#000000;stroke-width:0.5;"/>
    <path clip-path="url(#p8b13534dee)" d="M 27.337618 84.979693 
L 27.337618 75.109485 
" style="fill:none;stroke:#000000;stroke-width:0.5;"/>
    <path clip-path="url(#p8b13534dee)" d="M 28.363188 76.820206 
L 28.363188 69.274796 
" style="fill:none;stroke:#000000;stroke-width:0.5;"/>
   </g>
   <g id="line2d_1">
    <path clip-path="url(#p8b13534dee)" d="M 27 79.352336 
L 27.768595 78.133067 
L 28.53719 76.913799 
L 29.305785 75.694531 
L 30.07438 74.475263 
L 30.842975 73.255994 
L 31.61157 72.036726 
L 32.380165 70.817458 
L 33.14876 69.59819 
L 33.917355 68.378921 
L 34.68595 67.159653 
L 35.454545 65.940385 
L 36.22314 64.721117 
L 36.991736 63.501848 
L 37.760331 62.28258 
L 38.528926 61.063312 
L 39.297521 59.844043 
L 40.066116 58.624775 
L 40.834711 57.405507 
L 41.603306 56.186239 
L 42.371901 54.96697 
L 43.140496 53.747702 
L 43.909091 52.528434 
L 44.677686 51.309166 
L 45.446281 50.089897 
L 46.214876 48.870629 
L 46.983471 47.651361 
L 47.752066 46.432093 
L 48.520661 45.212824 
L 49.289256 43.993556 
L 50.057851 42.774288 
L 50.826446 41.55502 
L 51.595041 40.335751 
L 52.363636 39.116483 
L 53.132231 37.897215 
L 53.900826 36.677946 
L 54.669421 35.458678 
L 55.438017 34.23941 
L 56.206612 33.020142 
L 56.975207 31.800873 
L 57.743802 30.581605 
L 58.512397 29.362337 
L 59.280992 28.143069 
L 60.049587 26.9238 
L 60.818182 25.704532 
L 61.586777 24.485264 
L 62.355372 23.265996 
L 63.123967 22.046727 
L 63.892562 20.827459 
L 64.661157 19.608191 
L 65.429752 18.388922 
L 66.198347 17.169654 
L 66.966942 15.950386 
L 67.735537 14.731118 
L 68.504132 13.511849 
L 69.272727 12.292581 
L 70.041322 11.073313 
L 70.809917 9.854045 
L 71.578512 8.634776 
L 72.347107 7.415508 
L 73.115702 6.19624 
L 73.884298 4.976972 
L 74.652893 3.757703 
L 75.421488 2.538435 
L 76.190083 1.319167 
L 76.958678 0.099898 
L 77.652025 -1 
" style="fill:none;stroke:#000000;stroke-dasharray:1.85,0.8;stroke-dashoffset:0;stroke-width:0.5;"/>
   </g>
   <g id="line2d_2">
    <defs>
     <path d="M 0 3 
C 0.795609 3 1.55874 2.683901 2.12132 2.12132 
C 2.683901 1.55874 3 0.795609 3 0 
C 3 -0.795609 2.683901 -1.55874 2.12132 -2.12132 
C 1.55874 -2.683901 0.795609 -3 0 -3 
C -0.795609 -3 -1.55874 -2.683901 -2.12132 -2.12132 
C -2.683901 -1.55874 -3 -0.795609 -3 0 
C -3 0.795609 -2.683901 1.55874 -2.12132 2.12132 
C -1.55874 2.683901 -0.795609 3 0 3 
z
" id="m8591152cc5" style="stroke:#000000;"/>
    </defs>
    <g clip-path="url(#p8b13534dee)">
     <use style="stroke:#000000;" x="30.157364" xlink:href="#m8591152cc5" y="69.908334"/>
     <use style="stroke:#000000;" x="32.771441" xlink:href="#m8591152cc5" y="82.098194"/>
     <use style="stroke:#000000;" x="30.158668" xlink:href="#m8591152cc5" y="74.612581"/>
     <use style="stroke:#000000;" x="32.058083" xlink:href="#m8591152cc5" y="72.279949"/>
     <use style="stroke:#000000;" x="31.176031" xlink:href="#m8591152cc5" y="81.089695"/>
     <use style="stroke:#000000;" x="35.019346" xlink:href="#m8591152cc5" y="49.397441"/>
     <use style="stroke:#000000;" x="28.750439" xlink:href="#m8591152cc5" y="65.878351"/>
     <use style="stroke:#000000;" x="31.178804" xlink:href="#m8591152cc5" y="73.875492"/>
     <use style="stroke:#000000;" x="28.634004" xlink:href="#m8591152cc5" y="90.528502"/>
     <use style="stroke:#000000;" x="31.514945" xlink:href="#m8591152cc5" y="64.499084"/>
     <use style="stroke:#000000;" x="27.782195" xlink:href="#m8591152cc5" y="63.290332"/>
     <use style="stroke:#000000;" x="29.04105" xlink:href="#m8591152cc5" y="80.708267"/>
     <use style="stroke:#000000;" x="31.434146" xlink:href="#m8591152cc5" y="81.743412"/>
     <use style="stroke:#000000;" x="33.715525" xlink:href="#m8591152cc5" y="75.77419"/>
     <use style="stroke:#000000;" x="42.334745" xlink:href="#m8591152cc5" y="49.014691"/>
     <use style="stroke:#000000;" x="30.114708" xlink:href="#m8591152cc5" y="84.941097"/>
     <use style="stroke:#000000;" x="29.227992" xlink:href="#m8591152cc5" y="84.476927"/>
     <use style="stroke:#000000;" x="35.595229" xlink:href="#m8591152cc5" y="79.337924"/>
     <use style="stroke:#000000;" x="33.369238" xlink:href="#m8591152cc5" y="56.286752"/>
     <use style="stroke:#000000;" x="51.014247" xlink:href="#m8591152cc5" y="66.831334"/>
     <use style="stroke:#000000;" x="33.631275" xlink:href="#m8591152cc5" y="28.702974"/>
     <use style="stroke:#000000;" x="27.581505" xlink:href="#m8591152cc5" y="88.953408"/>
     <use style="stroke:#000000;" x="28.179281" xlink:href="#m8591152cc5" y="77.165584"/>
     <use style="stroke:#000000;" x="29.153297" xlink:href="#m8591152cc5" y="76.212563"/>
     <use style="stroke:#000000;" x="27.555409" xlink:href="#m8591152cc5" y="90.197239"/>
     <use style="stroke:#000000;" x="35.220744" xlink:href="#m8591152cc5" y="61.967259"/>
     <use style="stroke:#000000;" x="45.552029" xlink:href="#m8591152cc5" y="38.623213"/>
     <use style="stroke:#000000;" x="49.098039" xlink:href="#m8591152cc5" y="38.740765"/>
     <use style="stroke:#000000;" x="27.337618" xlink:href="#m8591152cc5" y="80.044589"/>
     <use style="stroke:#000000;" x="28.363188" xlink:href="#m8591152cc5" y="73.047501"/>
    </g>
   </g>
   <g id="patch_3">
    <path d="M 27 94.5 
L 27 12.96 
" style="fill:none;stroke:#000000;stroke-linecap:square;stroke-linejoin:miter;"/>
   </g>
   <g id="patch_4">
    <path d="M 27 94.5 
L 103.090909 94.5 
" style="fill:none;stroke:#000000;stroke-linecap:square;stroke-linejoin:miter;"/>
   </g>
   <g id="matplotlib.axis_1">
    <g id="xtick_1">
     <g id="line2d_3"/>
     <g id="text_1">
      <text style="font-family:Arial;font-size:8px;font-style:normal;font-weight:normal;text-anchor:middle;" transform="rotate(-0, 27, 103.72625)" x="27" y="103.72625">0</text>
     </g>
    </g>
    <g id="xtick_2">
     <g id="line2d_4"/>
     <g id="text_2">
      <text style="font-family:Arial;font-size:8px;font-style:normal;font-weight:normal;text-anchor:middle;" transform="rotate(-0, 57.800193, 103.72625)" x="57.800193" y="103.72625">5</text>
     </g>
    </g>
    <g id="xtick_3">
     <g id="line2d_5"/>
     <g id="text_3">
      <text style="font-family:Arial;font-size:8px;font-style:normal;font-weight:normal;text-anchor:middle;" transform="rotate(-0, 88.600386, 103.72625)" x="88.600386" y="103.72625">10</text>
     </g>
    </g>
    <g id="text_4">
     <text style="font-family:Arial;font-size:10px;font-style:normal;font-weight:normal;text-anchor:middle;" transform="rotate(-0, 65.045455, 116.474063)" x="65.045455" y="116.474063">Exc</text>
    </g>
   </g>
   <g id="matplotlib.axis_2">
    <g id="ytick_1">
     <g id="line2d_6"/>
     <g id="text_5">
      <text style="font-family:Arial;font-size:8px;font-style:normal;font-weight:normal;text-anchor:end;" transform="rotate(-0, 23.5, 97.363125)" x="23.5" y="97.363125">0.0</text>
     </g>
    </g>
    <g id="ytick_2">
     <g id="line2d_7"/>
     <g id="text_6">
      <text style="font-family:Arial;font-size:8px;font-style:normal;font-weight:normal;text-anchor:end;" transform="rotate(-0, 23.5, 80.860183)" x="23.5" y="80.860183">2.5</text>
     </g>
    </g>
    <g id="ytick_3">
     <g id="line2d_8"/>
     <g id="text_7">
      <text style="font-family:Arial;font-size:8px;font-style:normal;font-weight:normal;text-anchor:end;" transform="rotate(-0, 23.5, 64.357241)" x="23.5" y="64.357241">5.0</text>
     </g>
    </g>
    <g id="ytick_4">
     <g id="line2d_9"/>
     <g id="text_8">
      <text style="font-family:Arial;font-size:8px;font-style:normal;font-weight:normal;text-anchor:end;" transform="rotate(-0, 23.5, 47.854299)" x="23.5" y="47.854299">7.5</text>
     </g>
    </g>
    <g id="ytick_5">
     <g id="line2d_10"/>
     <g id="text_9">
      <text style="font-family:Arial;font-size:8px;font-style:normal;font-weight:normal;text-anchor:end;" transform="rotate(-0, 23.5, 31.351356)" x="23.5" y="31.351356">10.0</text>
     </g>
    </g>
    <g id="text_10">
     <text style="font-family:Arial;font-size:10px;font-style:normal;font-weight:normal;text-anchor:middle;" transform="rotate(-90, 1.94375, 53.73)" x="1.94375" y="53.73">Inh</text>
    </g>
   </g>
   <g id="legend_1">
    <g id="line2d_11">
     <path d="M 36 75.622656 
L 56 75.622656 
" style="fill:none;stroke:#000000;stroke-dasharray:1.85,0.8;stroke-dashoffset:0;stroke-width:0.5;"/>
    </g>
    <g id="line2d_12"/>
    <g id="text_11">
     <!-- $R^2$ 0.38 -->
     <g transform="translate(64 72.875)">
      <text>
       <tspan style="font-family:DejaVu Sans;font-size:10px;font-style:oblique;font-weight:oblique;" x="0" y="-0.9765625">R</tspan>
       <tspan style="font-family:DejaVu Sans;font-size:7px;font-style:book;font-weight:book;" x="7.650794" y="-4.8046875">2</tspan>
       <tspan style="font-family:Arial;font-size:10px;font-style:regular;font-weight:regular;" x="12.377845 15.156165 20.717689 23.496009 29.057533" y="-0.9765625"> 0.38</tspan>
      </text>
     </g>
     <text style="font-family:Arial;font-size:10px;font-style:normal;font-weight:normal;" transform="translate(64 83.4875)"> slope 1.48</text>
    </g>
   </g>
  </g>
  <g id="axes_2">
   <g id="patch_5">
    <path d="M 118.309091 94.5 
L 194.4 94.5 
L 194.4 12.96 
L 118.309091 12.96 
z
" style="fill:#ffffff;"/>
   </g>
   <g id="PathCollection_1">
    <defs>
     <path d="M 0 2.44949 
C 0.649612 2.44949 1.272706 2.191396 1.732051 1.732051 
C 2.191396 1.272706 2.44949 0.649612 2.44949 0 
C 2.44949 -0.649612 2.191396 -1.272706 1.732051 -1.732051 
C 1.272706 -2.191396 0.649612 -2.44949 0 -2.44949 
C -0.649612 -2.44949 -1.272706 -2.191396 -1.732051 -1.732051 
C -2.191396 -1.272706 -2.44949 -0.649612 -2.44949 0 
C -2.44949 0.649612 -2.191396 1.272706 -1.732051 1.732051 
C -1.272706 2.191396 -0.649612 2.44949 0 2.44949 
z
" id="m73b097f558" style="stroke:#000000;"/>
    </defs>
    <g clip-path="url(#pb0e08698c7)">
     <use style="stroke:#000000;" x="124.70779" xlink:href="#m73b097f558" y="79.420211"/>
     <use style="stroke:#000000;" x="134.875283" xlink:href="#m73b097f558" y="79.614121"/>
     <use style="stroke:#000000;" x="124.459705" xlink:href="#m73b097f558" y="77.868771"/>
     <use style="stroke:#000000;" x="129.527498" xlink:href="#m73b097f558" y="86.861325"/>
     <use style="stroke:#000000;" x="128.104586" xlink:href="#m73b097f558" y="83.106517"/>
     <use style="stroke:#000000;" x="131.647778" xlink:href="#m73b097f558" y="90.744325"/>
     <use style="stroke:#000000;" x="124.110688" xlink:href="#m73b097f558" y="83.652404"/>
     <use style="stroke:#000000;" x="128.977383" xlink:href="#m73b097f558" y="87.336445"/>
     <use style="stroke:#000000;" x="121.243481" xlink:href="#m73b097f558" y="93.291608"/>
     <use style="stroke:#000000;" x="131.14927" xlink:href="#m73b097f558" y="86.23986"/>
     <use style="stroke:#000000;" x="120.669828" xlink:href="#m73b097f558" y="90.282769"/>
     <use style="stroke:#000000;" x="121.805421" xlink:href="#m73b097f558" y="84.436839"/>
     <use style="stroke:#000000;" x="130.307146" xlink:href="#m73b097f558" y="85.523622"/>
     <use style="stroke:#000000;" x="133.669642" xlink:href="#m73b097f558" y="79.806429"/>
     <use style="stroke:#000000;" x="155.594557" xlink:href="#m73b097f558" y="57.425782"/>
     <use style="stroke:#000000;" x="126.118295" xlink:href="#m73b097f558" y="87.552926"/>
     <use style="stroke:#000000;" x="122.883492" xlink:href="#m73b097f558" y="84.831092"/>
     <use style="stroke:#000000;" x="134.599459" xlink:href="#m73b097f558" y="77.808713"/>
     <use style="stroke:#000000;" x="131.160998" xlink:href="#m73b097f558" y="76.330131"/>
     <use style="stroke:#000000;" x="156.149549" xlink:href="#m73b097f558" y="50.833459"/>
     <use style="stroke:#000000;" x="133.786839" xlink:href="#m73b097f558" y="76.633463"/>
     <use style="stroke:#000000;" x="121.356452" xlink:href="#m73b097f558" y="90.650525"/>
     <use style="stroke:#000000;" x="123.946351" xlink:href="#m73b097f558" y="88.568509"/>
     <use style="stroke:#000000;" x="123.825593" xlink:href="#m73b097f558" y="85.447054"/>
     <use style="stroke:#000000;" x="121.219699" xlink:href="#m73b097f558" y="88.542172"/>
     <use style="stroke:#000000;" x="134.438041" xlink:href="#m73b097f558" y="84.874519"/>
     <use style="stroke:#000000;" x="160.217497" xlink:href="#m73b097f558" y="47.748143"/>
     <use style="stroke:#000000;" x="190.638649" xlink:href="#m73b097f558" y="52.448897"/>
     <use style="stroke:#000000;" x="120.078369" xlink:href="#m73b097f558" y="83.941767"/>
     <use style="stroke:#000000;" x="125.45284" xlink:href="#m73b097f558" y="86.42862"/>
    </g>
   </g>
   <g id="line2d_13">
    <path clip-path="url(#pb0e08698c7)" d="M 118.309091 90.033892 
L 119.077686 89.494861 
L 119.846281 88.95583 
L 120.614876 88.416799 
L 121.383471 87.877767 
L 122.152066 87.338736 
L 122.920661 86.799705 
L 123.689256 86.260674 
L 124.457851 85.721642 
L 125.226446 85.182611 
L 125.995041 84.64358 
L 126.763636 84.104548 
L 127.532231 83.565517 
L 128.300826 83.026486 
L 129.069421 82.487455 
L 129.838017 81.948423 
L 130.606612 81.409392 
L 131.375207 80.870361 
L 132.143802 80.33133 
L 132.912397 79.792298 
L 133.680992 79.253267 
L 134.449587 78.714236 
L 135.218182 78.175204 
L 135.986777 77.636173 
L 136.755372 77.097142 
L 137.523967 76.558111 
L 138.292562 76.019079 
L 139.061157 75.480048 
L 139.829752 74.941017 
L 140.598347 74.401986 
L 141.366942 73.862954 
L 142.135537 73.323923 
L 142.904132 72.784892 
L 143.672727 72.24586 
L 144.441322 71.706829 
L 145.209917 71.167798 
L 145.978512 70.628767 
L 146.747107 70.089735 
L 147.515702 69.550704 
L 148.284298 69.011673 
L 149.052893 68.472642 
L 149.821488 67.93361 
L 150.590083 67.394579 
L 151.358678 66.855548 
L 152.127273 66.316516 
L 152.895868 65.777485 
L 153.664463 65.238454 
L 154.433058 64.699423 
L 155.201653 64.160391 
L 155.970248 63.62136 
L 156.738843 63.082329 
L 157.507438 62.543298 
L 158.276033 62.004266 
L 159.044628 61.465235 
L 159.813223 60.926204 
L 160.581818 60.387172 
L 161.350413 59.848141 
L 162.119008 59.30911 
L 162.887603 58.770079 
L 163.656198 58.231047 
L 164.424793 57.692016 
L 165.193388 57.152985 
L 165.961983 56.613954 
L 166.730579 56.074922 
L 167.499174 55.535891 
L 168.267769 54.99686 
L 169.036364 54.457828 
L 169.804959 53.918797 
L 170.573554 53.379766 
L 171.342149 52.840735 
L 172.110744 52.301703 
L 172.879339 51.762672 
L 173.647934 51.223641 
L 174.416529 50.68461 
L 175.185124 50.145578 
L 175.953719 49.606547 
L 176.722314 49.067516 
L 177.490909 48.528484 
L 178.259504 47.989453 
L 179.028099 47.450422 
L 179.796694 46.911391 
L 180.565289 46.372359 
L 181.333884 45.833328 
L 182.102479 45.294297 
L 182.871074 44.755266 
L 183.639669 44.216234 
L 184.408264 43.677203 
L 185.17686 43.138172 
L 185.945455 42.59914 
L 186.71405 42.060109 
L 187.482645 41.521078 
L 188.25124 40.982047 
L 189.019835 40.443015 
L 189.78843 39.903984 
L 190.557025 39.364953 
L 191.32562 38.825922 
L 192.094215 38.28689 
L 192.86281 37.747859 
L 193.631405 37.208828 
L 194.4 36.669796 
" style="fill:none;stroke:#000000;stroke-dasharray:1.85,0.8;stroke-dashoffset:0;stroke-width:0.5;"/>
   </g>
   <g id="patch_6">
    <path d="M 118.309091 94.5 
L 118.309091 12.96 
" style="fill:none;stroke:#000000;stroke-linecap:square;stroke-linejoin:miter;"/>
   </g>
   <g id="patch_7">
    <path d="M 118.309091 94.5 
L 194.4 94.5 
" style="fill:none;stroke:#000000;stroke-linecap:square;stroke-linejoin:miter;"/>
   </g>
   <g id="matplotlib.axis_3">
    <g id="xtick_4">
     <g id="line2d_14"/>
     <g id="text_12">
      <text style="font-family:Arial;font-size:8px;font-style:normal;font-weight:normal;text-anchor:middle;" transform="rotate(-0, 118.309091, 103.72625)" x="118.309091" y="103.72625">0</text>
     </g>
    </g>
    <g id="xtick_5">
     <g id="line2d_15"/>
     <g id="text_13">
      <text style="font-family:Arial;font-size:8px;font-style:normal;font-weight:normal;text-anchor:middle;" transform="rotate(-0, 144.666843, 103.72625)" x="144.666843" y="103.72625">2</text>
     </g>
    </g>
    <g id="xtick_6">
     <g id="line2d_16"/>
     <g id="text_14">
      <text style="font-family:Arial;font-size:8px;font-style:normal;font-weight:normal;text-anchor:middle;" transform="rotate(-0, 171.024596, 103.72625)" x="171.024596" y="103.72625">4</text>
     </g>
    </g>
    <g id="text_15">
     <!-- $\sigma$(Exc) -->
     <g transform="translate(141.504545 116.61625)">
      <text>
       <tspan style="font-family:DejaVu Sans;font-size:10px;font-style:oblique;font-weight:oblique;" x="0" y="-0.71875">σ</tspan>
       <tspan style="font-family:Arial;font-size:10px;font-style:regular;font-weight:regular;" x="6.337891 9.667969 16.337891 21.337891 26.337891" y="-0.71875">(Exc)</tspan>
      </text>
     </g>
    </g>
   </g>
   <g id="matplotlib.axis_4">
    <g id="ytick_6">
     <g id="line2d_17"/>
     <g id="text_16">
      <text style="font-family:Arial;font-size:8px;font-style:normal;font-weight:normal;text-anchor:end;" transform="rotate(-0, 114.809091, 97.363125)" x="114.809091" y="97.363125">0</text>
     </g>
    </g>
    <g id="ytick_7">
     <g id="line2d_18"/>
     <g id="text_17">
      <text style="font-family:Arial;font-size:8px;font-style:normal;font-weight:normal;text-anchor:end;" transform="rotate(-0, 114.809091, 69.117817)" x="114.809091" y="69.117817">2</text>
     </g>
    </g>
    <g id="ytick_8">
     <g id="line2d_19"/>
     <g id="text_18">
      <text style="font-family:Arial;font-size:8px;font-style:normal;font-weight:normal;text-anchor:end;" transform="rotate(-0, 114.809091, 40.87251)" x="114.809091" y="40.87251">4</text>
     </g>
    </g>
    <g id="text_19">
     <!-- $\sigma$(Inh) -->
     <g transform="translate(104.160341 67.18)rotate(-90)">
      <text>
       <tspan style="font-family:DejaVu Sans;font-size:10px;font-style:oblique;font-weight:oblique;" x="0" y="-0.71875">σ</tspan>
       <tspan style="font-family:Arial;font-size:10px;font-style:regular;font-weight:regular;" x="6.337891 9.667969 12.446289 18.007812 23.569336" y="-0.71875">(Inh)</tspan>
      </text>
     </g>
    </g>
   </g>
   <g id="legend_2">
    <g id="line2d_20">
     <path d="M 108.478125 31.995156 
L 128.478125 31.995156 
" style="fill:none;stroke:#000000;stroke-dasharray:1.85,0.8;stroke-dashoffset:0;stroke-width:0.5;"/>
    </g>
    <g id="line2d_21"/>
    <g id="text_20">
     <!-- $R^2$ 0.77 -->
     <g transform="translate(136.478125 29.2475)">
      <text>
       <tspan style="font-family:DejaVu Sans;font-size:10px;font-style:oblique;font-weight:oblique;" x="0" y="-0.9765625">R</tspan>
       <tspan style="font-family:DejaVu Sans;font-size:7px;font-style:book;font-weight:book;" x="7.650794" y="-4.8046875">2</tspan>
       <tspan style="font-family:Arial;font-size:10px;font-style:regular;font-weight:regular;" x="12.377845 15.156165 20.717689 23.496009 29.057533" y="-0.9765625"> 0.77</tspan>
      </text>
     </g>
     <text style="font-family:Arial;font-size:10px;font-style:normal;font-weight:normal;" transform="translate(136.478125 39.86)"> slope 0.65</text>
    </g>
   </g>
  </g>
 </g>
 <defs>
  <clipPath id="p8b13534dee">
   <rect height="81.54" width="76.090909" x="27" y="12.96"/>
  </clipPath>
  <clipPath id="pb0e08698c7">
   <rect height="81.54" width="76.090909" x="118.309091" y="12.96"/>
  </clipPath>
 </defs>
</svg>
