<?xml version="1.0" encoding="utf-8" standalone="no"?>
<!DOCTYPE svg PUBLIC "-//W3C//DTD SVG 1.1//EN"
  "http://www.w3.org/Graphics/SVG/1.1/DTD/svg11.dtd">
<!-- Created with matplotlib (http://matplotlib.org/) -->
<svg height="108pt" version="1.1" viewBox="0 0 216 108" width="216pt" xmlns="http://www.w3.org/2000/svg" xmlns:xlink="http://www.w3.org/1999/xlink">
 <defs>
  <style type="text/css">
*{stroke-linecap:butt;stroke-linejoin:round;}
  </style>
 </defs>
 <g id="figure_1">
  <g id="patch_1">
   <path d="M 0 108 
L 216 108 
L 216 0 
L 0 0 
z
" style="fill:#ffffff;"/>
  </g>
  <g id="axes_1">
   <g id="patch_2">
    <path d="M 27 94.5 
L 103.090909 94.5 
L 103.090909 12.96 
L 27 12.96 
z
" style="fill:#ffffff;"/>
   </g>
   <g id="LineCollection_1">
    <path clip-path="url(#pf4255f3fdd)" d="M 27.141282 74.560482 
L 33.107447 74.560482 
" style="fill:none;stroke:#000000;stroke-width:0.5;"/>
    <path clip-path="url(#pf4255f3fdd)" d="M 27.870284 83.722945 
L 32.741061 83.722945 
" style="fill:none;stroke:#000000;stroke-width:0.5;"/>
    <path clip-path="url(#pf4255f3fdd)" d="M 26.512165 77.662287 
L 39.409492 77.662287 
" style="fill:none;stroke:#000000;stroke-width:0.5;"/>
    <path clip-path="url(#pf4255f3fdd)" d="M 39.848269 27.871282 
L 66.102437 27.871282 
" style="fill:none;stroke:#000000;stroke-width:0.5;"/>
    <path clip-path="url(#pf4255f3fdd)" d="M 25.94101 64.668341 
L 34.809533 64.668341 
" style="fill:none;stroke:#000000;stroke-width:0.5;"/>
    <path clip-path="url(#pf4255f3fdd)" d="M 28.085303 66.884986 
L 33.648915 66.884986 
" style="fill:none;stroke:#000000;stroke-width:0.5;"/>
    <path clip-path="url(#pf4255f3fdd)" d="M 27.24713 78.480516 
L 30.004427 78.480516 
" style="fill:none;stroke:#000000;stroke-width:0.5;"/>
    <path clip-path="url(#pf4255f3fdd)" d="M 26.611607 91.231871 
L 28.802806 91.231871 
" style="fill:none;stroke:#000000;stroke-width:0.5;"/>
    <path clip-path="url(#pf4255f3fdd)" d="M 26.290448 91.017311 
L 30.293533 91.017311 
" style="fill:none;stroke:#000000;stroke-width:0.5;"/>
    <path clip-path="url(#pf4255f3fdd)" d="M 25.483577 75.171763 
L 30.939515 75.171763 
" style="fill:none;stroke:#000000;stroke-width:0.5;"/>
    <path clip-path="url(#pf4255f3fdd)" d="M 28.390878 62.673112 
L 44.61285 62.673112 
" style="fill:none;stroke:#000000;stroke-width:0.5;"/>
    <path clip-path="url(#pf4255f3fdd)" d="M 27.059287 61.281128 
L 46.723715 61.281128 
" style="fill:none;stroke:#000000;stroke-width:0.5;"/>
    <path clip-path="url(#pf4255f3fdd)" d="M 25.812361 79.223556 
L 30.529751 79.223556 
" style="fill:none;stroke:#000000;stroke-width:0.5;"/>
    <path clip-path="url(#pf4255f3fdd)" d="M 26.100437 87.437844 
L 29.660429 87.437844 
" style="fill:none;stroke:#000000;stroke-width:0.5;"/>
    <path clip-path="url(#pf4255f3fdd)" d="M 23.711904 73.567249 
L 50.486163 73.567249 
" style="fill:none;stroke:#000000;stroke-width:0.5;"/>
    <path clip-path="url(#pf4255f3fdd)" d="M 26.877349 81.617583 
L 33.280259 81.617583 
" style="fill:none;stroke:#000000;stroke-width:0.5;"/>
    <path clip-path="url(#pf4255f3fdd)" d="M 24.562062 55.052394 
L 36.541891 55.052394 
" style="fill:none;stroke:#000000;stroke-width:0.5;"/>
    <path clip-path="url(#pf4255f3fdd)" d="M 27.574806 88.303203 
L 33.689784 88.303203 
" style="fill:none;stroke:#000000;stroke-width:0.5;"/>
    <path clip-path="url(#pf4255f3fdd)" d="M 26.069963 84.064005 
L 31.316959 84.064005 
" style="fill:none;stroke:#000000;stroke-width:0.5;"/>
    <path clip-path="url(#pf4255f3fdd)" d="M 28.099534 64.5326 
L 39.317209 64.5326 
" style="fill:none;stroke:#000000;stroke-width:0.5;"/>
    <path clip-path="url(#pf4255f3fdd)" d="M 26.217502 92.724053 
L 28.862187 92.724053 
" style="fill:none;stroke:#000000;stroke-width:0.5;"/>
    <path clip-path="url(#pf4255f3fdd)" d="M 27.81789 87.666256 
L 29.854667 87.666256 
" style="fill:none;stroke:#000000;stroke-width:0.5;"/>
    <path clip-path="url(#pf4255f3fdd)" d="M 26.24477 83.047413 
L 34.045773 83.047413 
" style="fill:none;stroke:#000000;stroke-width:0.5;"/>
    <path clip-path="url(#pf4255f3fdd)" d="M 24.474493 72.336526 
L 33.010192 72.336526 
" style="fill:none;stroke:#000000;stroke-width:0.5;"/>
    <path clip-path="url(#pf4255f3fdd)" d="M 27.625256 86.217072 
L 31.923834 86.217072 
" style="fill:none;stroke:#000000;stroke-width:0.5;"/>
    <path clip-path="url(#pf4255f3fdd)" d="M 21.268246 51.161349 
L 59.408723 51.161349 
" style="fill:none;stroke:#000000;stroke-width:0.5;"/>
    <path clip-path="url(#pf4255f3fdd)" d="M 26.455422 80.443798 
L 29.527771 80.443798 
" style="fill:none;stroke:#000000;stroke-width:0.5;"/>
    <path clip-path="url(#pf4255f3fdd)" d="M 28.731 51.25793 
L 46.482406 51.25793 
" style="fill:none;stroke:#000000;stroke-width:0.5;"/>
    <path clip-path="url(#pf4255f3fdd)" d="M 27.406436 66.406819 
L 33.581747 66.406819 
" style="fill:none;stroke:#000000;stroke-width:0.5;"/>
    <path clip-path="url(#pf4255f3fdd)" d="M 27.042712 80.181787 
L 37.576581 80.181787 
" style="fill:none;stroke:#000000;stroke-width:0.5;"/>
   </g>
   <g id="LineCollection_2">
    <path clip-path="url(#pf4255f3fdd)" d="M 30.124365 76.861019 
L 30.124365 72.259944 
" style="fill:none;stroke:#000000;stroke-width:0.5;"/>
    <path clip-path="url(#pf4255f3fdd)" d="M 30.305672 85.432344 
L 30.305672 82.013547 
" style="fill:none;stroke:#000000;stroke-width:0.5;"/>
    <path clip-path="url(#pf4255f3fdd)" d="M 32.960828 79.359615 
L 32.960828 75.964958 
" style="fill:none;stroke:#000000;stroke-width:0.5;"/>
    <path clip-path="url(#pf4255f3fdd)" d="M 52.975353 38.891635 
L 52.975353 16.850929 
" style="fill:none;stroke:#000000;stroke-width:0.5;"/>
    <path clip-path="url(#pf4255f3fdd)" d="M 30.375272 66.74367 
L 30.375272 62.593011 
" style="fill:none;stroke:#000000;stroke-width:0.5;"/>
    <path clip-path="url(#pf4255f3fdd)" d="M 30.867109 75.088349 
L 30.867109 58.681623 
" style="fill:none;stroke:#000000;stroke-width:0.5;"/>
    <path clip-path="url(#pf4255f3fdd)" d="M 28.625778 78.889208 
L 28.625778 78.071824 
" style="fill:none;stroke:#000000;stroke-width:0.5;"/>
    <path clip-path="url(#pf4255f3fdd)" d="M 27.707206 92.611047 
L 27.707206 89.852694 
" style="fill:none;stroke:#000000;stroke-width:0.5;"/>
    <path clip-path="url(#pf4255f3fdd)" d="M 28.29199 92.723473 
L 28.29199 89.311148 
" style="fill:none;stroke:#000000;stroke-width:0.5;"/>
    <path clip-path="url(#pf4255f3fdd)" d="M 28.211546 81.942123 
L 28.211546 68.401404 
" style="fill:none;stroke:#000000;stroke-width:0.5;"/>
    <path clip-path="url(#pf4255f3fdd)" d="M 36.501864 68.194896 
L 36.501864 57.151329 
" style="fill:none;stroke:#000000;stroke-width:0.5;"/>
    <path clip-path="url(#pf4255f3fdd)" d="M 36.891501 72.020933 
L 36.891501 50.541324 
" style="fill:none;stroke:#000000;stroke-width:0.5;"/>
    <path clip-path="url(#pf4255f3fdd)" d="M 28.171056 79.750929 
L 28.171056 78.696184 
" style="fill:none;stroke:#000000;stroke-width:0.5;"/>
    <path clip-path="url(#pf4255f3fdd)" d="M 27.880433 89.455327 
L 27.880433 85.420361 
" style="fill:none;stroke:#000000;stroke-width:0.5;"/>
    <path clip-path="url(#pf4255f3fdd)" d="M 37.099034 88.238724 
L 37.099034 58.895775 
" style="fill:none;stroke:#000000;stroke-width:0.5;"/>
    <path clip-path="url(#pf4255f3fdd)" d="M 30.078804 88.699334 
L 30.078804 74.535832 
" style="fill:none;stroke:#000000;stroke-width:0.5;"/>
    <path clip-path="url(#pf4255f3fdd)" d="M 30.551977 64.451505 
L 30.551977 45.653284 
" style="fill:none;stroke:#000000;stroke-width:0.5;"/>
    <path clip-path="url(#pf4255f3fdd)" d="M 30.632295 90.451211 
L 30.632295 86.155194 
" style="fill:none;stroke:#000000;stroke-width:0.5;"/>
    <path clip-path="url(#pf4255f3fdd)" d="M 28.693461 86.252102 
L 28.693461 81.875909 
" style="fill:none;stroke:#000000;stroke-width:0.5;"/>
    <path clip-path="url(#pf4255f3fdd)" d="M 33.708371 70.788393 
L 33.708371 58.276807 
" style="fill:none;stroke:#000000;stroke-width:0.5;"/>
    <path clip-path="url(#pf4255f3fdd)" d="M 27.539844 94.669505 
L 27.539844 90.778601 
" style="fill:none;stroke:#000000;stroke-width:0.5;"/>
    <path clip-path="url(#pf4255f3fdd)" d="M 28.836278 89.561021 
L 28.836278 85.771491 
" style="fill:none;stroke:#000000;stroke-width:0.5;"/>
    <path clip-path="url(#pf4255f3fdd)" d="M 30.145271 88.807747 
L 30.145271 77.287079 
" style="fill:none;stroke:#000000;stroke-width:0.5;"/>
    <path clip-path="url(#pf4255f3fdd)" d="M 28.742342 77.942026 
L 28.742342 66.731025 
" style="fill:none;stroke:#000000;stroke-width:0.5;"/>
    <path clip-path="url(#pf4255f3fdd)" d="M 29.774545 88.010549 
L 29.774545 84.423595 
" style="fill:none;stroke:#000000;stroke-width:0.5;"/>
    <path clip-path="url(#pf4255f3fdd)" d="M 40.338484 52.331857 
L 40.338484 49.990841 
" style="fill:none;stroke:#000000;stroke-width:0.5;"/>
    <path clip-path="url(#pf4255f3fdd)" d="M 27.991596 80.443798 
L 27.991596 80.443798 
" style="fill:none;stroke:#000000;stroke-width:0.5;"/>
    <path clip-path="url(#pf4255f3fdd)" d="M 37.606703 54.807052 
L 37.606703 47.708809 
" style="fill:none;stroke:#000000;stroke-width:0.5;"/>
    <path clip-path="url(#pf4255f3fdd)" d="M 30.494092 69.993615 
L 30.494092 62.820022 
" style="fill:none;stroke:#000000;stroke-width:0.5;"/>
    <path clip-path="url(#pf4255f3fdd)" d="M 32.309646 87.703877 
L 32.309646 72.659697 
" style="fill:none;stroke:#000000;stroke-width:0.5;"/>
   </g>
   <g id="line2d_1">
    <path clip-path="url(#pf4255f3fdd)" d="M 27 85.198595 
L 27.768595 83.413291 
L 28.53719 81.627988 
L 29.305785 79.842684 
L 30.07438 78.057381 
L 30.842975 76.272077 
L 31.61157 74.486773 
L 32.380165 72.70147 
L 33.14876 70.916166 
L 33.917355 69.130862 
L 34.68595 67.345559 
L 35.454545 65.560255 
L 36.22314 63.774952 
L 36.991736 61.989648 
L 37.760331 60.204344 
L 38.528926 58.419041 
L 39.297521 56.633737 
L 40.066116 54.848434 
L 40.834711 53.06313 
L 41.603306 51.277826 
L 42.371901 49.492523 
L 43.140496 47.707219 
L 43.909091 45.921915 
L 44.677686 44.136612 
L 45.446281 42.351308 
L 46.214876 40.566005 
L 46.983471 38.780701 
L 47.752066 36.995397 
L 48.520661 35.210094 
L 49.289256 33.42479 
L 50.057851 31.639486 
L 50.826446 29.854183 
L 51.595041 28.068879 
L 52.363636 26.283576 
L 53.132231 24.498272 
L 53.900826 22.712968 
L 54.669421 20.927665 
L 55.438017 19.142361 
L 56.206612 17.357058 
L 56.975207 15.571754 
L 57.743802 13.78645 
L 58.512397 12.001147 
L 59.280992 10.215843 
L 60.049587 8.430539 
L 60.818182 6.645236 
L 61.586777 4.859932 
L 62.355372 3.074629 
L 63.123967 1.289325 
L 63.892562 -0.495979 
L 64.109549 -1 
" style="fill:none;stroke:#000000;stroke-dasharray:1.85,0.8;stroke-dashoffset:0;stroke-width:0.5;"/>
   </g>
   <g id="line2d_2">
    <defs>
     <path d="M 0 3 
C 0.795609 3 1.55874 2.683901 2.12132 2.12132 
C 2.683901 1.55874 3 0.795609 3 0 
C 3 -0.795609 2.683901 -1.55874 2.12132 -2.12132 
C 1.55874 -2.683901 0.795609 -3 0 -3 
C -0.795609 -3 -1.55874 -2.683901 -2.12132 -2.12132 
C -2.683901 -1.55874 -3 -0.795609 -3 0 
C -3 0.795609 -2.683901 1.55874 -2.12132 2.12132 
C -1.55874 2.683901 -0.795609 3 0 3 
z
" id="m486deb5d4d" style="stroke:#000000;"/>
    </defs>
    <g clip-path="url(#pf4255f3fdd)">
     <use style="stroke:#000000;" x="30.124365" xlink:href="#m486deb5d4d" y="74.560482"/>
     <use style="stroke:#000000;" x="30.305672" xlink:href="#m486deb5d4d" y="83.722945"/>
     <use style="stroke:#000000;" x="32.960828" xlink:href="#m486deb5d4d" y="77.662287"/>
     <use style="stroke:#000000;" x="52.975353" xlink:href="#m486deb5d4d" y="27.871282"/>
     <use style="stroke:#000000;" x="30.375272" xlink:href="#m486deb5d4d" y="64.668341"/>
     <use style="stroke:#000000;" x="30.867109" xlink:href="#m486deb5d4d" y="66.884986"/>
     <use style="stroke:#000000;" x="28.625778" xlink:href="#m486deb5d4d" y="78.480516"/>
     <use style="stroke:#000000;" x="27.707206" xlink:href="#m486deb5d4d" y="91.231871"/>
     <use style="stroke:#000000;" x="28.29199" xlink:href="#m486deb5d4d" y="91.017311"/>
     <use style="stroke:#000000;" x="28.211546" xlink:href="#m486deb5d4d" y="75.171763"/>
     <use style="stroke:#000000;" x="36.501864" xlink:href="#m486deb5d4d" y="62.673112"/>
     <use style="stroke:#000000;" x="36.891501" xlink:href="#m486deb5d4d" y="61.281128"/>
     <use style="stroke:#000000;" x="28.171056" xlink:href="#m486deb5d4d" y="79.223556"/>
     <use style="stroke:#000000;" x="27.880433" xlink:href="#m486deb5d4d" y="87.437844"/>
     <use style="stroke:#000000;" x="37.099034" xlink:href="#m486deb5d4d" y="73.567249"/>
     <use style="stroke:#000000;" x="30.078804" xlink:href="#m486deb5d4d" y="81.617583"/>
     <use style="stroke:#000000;" x="30.551977" xlink:href="#m486deb5d4d" y="55.052394"/>
     <use style="stroke:#000000;" x="30.632295" xlink:href="#m486deb5d4d" y="88.303203"/>
     <use style="stroke:#000000;" x="28.693461" xlink:href="#m486deb5d4d" y="84.064005"/>
     <use style="stroke:#000000;" x="33.708371" xlink:href="#m486deb5d4d" y="64.5326"/>
     <use style="stroke:#000000;" x="27.539844" xlink:href="#m486deb5d4d" y="92.724053"/>
     <use style="stroke:#000000;" x="28.836278" xlink:href="#m486deb5d4d" y="87.666256"/>
     <use style="stroke:#000000;" x="30.145271" xlink:href="#m486deb5d4d" y="83.047413"/>
     <use style="stroke:#000000;" x="28.742342" xlink:href="#m486deb5d4d" y="72.336526"/>
     <use style="stroke:#000000;" x="29.774545" xlink:href="#m486deb5d4d" y="86.217072"/>
     <use style="stroke:#000000;" x="40.338484" xlink:href="#m486deb5d4d" y="51.161349"/>
     <use style="stroke:#000000;" x="27.991596" xlink:href="#m486deb5d4d" y="80.443798"/>
     <use style="stroke:#000000;" x="37.606703" xlink:href="#m486deb5d4d" y="51.25793"/>
     <use style="stroke:#000000;" x="30.494092" xlink:href="#m486deb5d4d" y="66.406819"/>
     <use style="stroke:#000000;" x="32.309646" xlink:href="#m486deb5d4d" y="80.181787"/>
    </g>
   </g>
   <g id="patch_3">
    <path d="M 27 94.5 
L 27 12.96 
" style="fill:none;stroke:#000000;stroke-linecap:square;stroke-linejoin:miter;"/>
   </g>
   <g id="patch_4">
    <path d="M 27 94.5 
L 103.090909 94.5 
" style="fill:none;stroke:#000000;stroke-linecap:square;stroke-linejoin:miter;"/>
   </g>
   <g id="matplotlib.axis_1">
    <g id="xtick_1">
     <g id="line2d_3"/>
     <g id="text_1">
      <text style="font-family:Arial;font-size:8px;font-style:normal;font-weight:normal;text-anchor:middle;" transform="rotate(-0, 27, 103.72625)" x="27" y="103.72625">0</text>
     </g>
    </g>
    <g id="xtick_2">
     <g id="line2d_4"/>
     <g id="text_2">
      <text style="font-family:Arial;font-size:8px;font-style:normal;font-weight:normal;text-anchor:middle;" transform="rotate(-0, 68.959877, 103.72625)" x="68.959877" y="103.72625">10</text>
     </g>
    </g>
    <g id="text_3">
     <text style="font-family:Arial;font-size:10px;font-style:normal;font-weight:normal;text-anchor:middle;" transform="rotate(-0, 65.045455, 116.474063)" x="65.045455" y="116.474063">Exc</text>
    </g>
   </g>
   <g id="matplotlib.axis_2">
    <g id="ytick_1">
     <g id="line2d_5"/>
     <g id="text_4">
      <text style="font-family:Arial;font-size:8px;font-style:normal;font-weight:normal;text-anchor:end;" transform="rotate(-0, 23.5, 97.363125)" x="23.5" y="97.363125">0</text>
     </g>
    </g>
    <g id="ytick_2">
     <g id="line2d_6"/>
     <g id="text_5">
      <text style="font-family:Arial;font-size:8px;font-style:normal;font-weight:normal;text-anchor:end;" transform="rotate(-0, 23.5, 74.880752)" x="23.5" y="74.880752">5</text>
     </g>
    </g>
    <g id="ytick_3">
     <g id="line2d_7"/>
     <g id="text_6">
      <text style="font-family:Arial;font-size:8px;font-style:normal;font-weight:normal;text-anchor:end;" transform="rotate(-0, 23.5, 52.398379)" x="23.5" y="52.398379">10</text>
     </g>
    </g>
    <g id="ytick_4">
     <g id="line2d_8"/>
     <g id="text_7">
      <text style="font-family:Arial;font-size:8px;font-style:normal;font-weight:normal;text-anchor:end;" transform="rotate(-0, 23.5, 29.916007)" x="23.5" y="29.916007">15</text>
     </g>
    </g>
    <g id="text_8">
     <text style="font-family:Arial;font-size:10px;font-style:normal;font-weight:normal;text-anchor:middle;" transform="rotate(-90, 8.615, 53.73)" x="8.615" y="53.73">Inh</text>
    </g>
   </g>
   <g id="legend_1">
    <g id="line2d_9">
     <path d="M 36 75.622656 
L 56 75.622656 
" style="fill:none;stroke:#000000;stroke-dasharray:1.85,0.8;stroke-dashoffset:0;stroke-width:0.5;"/>
    </g>
    <g id="line2d_10"/>
    <g id="text_9">
     <!-- $R^2$ 0.69 -->
     <g transform="translate(64 72.875)">
      <text>
       <tspan style="font-family:DejaVu Sans;font-size:10px;font-style:oblique;font-weight:oblique;" x="0" y="-0.9765625">R</tspan>
       <tspan style="font-family:DejaVu Sans;font-size:7px;font-style:book;font-weight:book;" x="7.650794" y="-4.8046875">2</tspan>
       <tspan style="font-family:Arial;font-size:10px;font-style:regular;font-weight:regular;" x="12.377845 15.156165 20.717689 23.496009 29.057533" y="-0.9765625"> 0.69</tspan>
      </text>
     </g>
     <text style="font-family:Arial;font-size:10px;font-style:normal;font-weight:normal;" transform="translate(64 83.4875)"> slope 2.17</text>
    </g>
   </g>
  </g>
  <g id="axes_2">
   <g id="patch_5">
    <path d="M 118.309091 94.5 
L 194.4 94.5 
L 194.4 12.96 
L 118.309091 12.96 
z
" style="fill:#ffffff;"/>
   </g>
   <g id="PathCollection_1">
    <defs>
     <path d="M 0 2.44949 
C 0.649612 2.44949 1.272706 2.191396 1.732051 1.732051 
C 2.191396 1.272706 2.44949 0.649612 2.44949 0 
C 2.44949 -0.649612 2.191396 -1.272706 1.732051 -1.732051 
C 1.272706 -2.191396 0.649612 -2.44949 0 -2.44949 
C -0.649612 -2.44949 -1.272706 -2.191396 -1.732051 -1.732051 
C -2.191396 -1.272706 -2.44949 -0.649612 -2.44949 0 
C -2.44949 0.649612 -2.191396 1.272706 -1.732051 1.732051 
C -1.272706 2.191396 -0.649612 2.44949 0 2.44949 
z
" id="md70a664136" style="stroke:#000000;"/>
    </defs>
    <g clip-path="url(#pdd52cf94f4)">
     <use style="stroke:#000000;" x="129.631685" xlink:href="#md70a664136" y="85.768074"/>
     <use style="stroke:#000000;" x="127.552857" xlink:href="#md70a664136" y="88.011804"/>
     <use style="stroke:#000000;" x="142.785655" xlink:href="#md70a664136" y="88.057615"/>
     <use style="stroke:#000000;" x="168.134284" xlink:href="#md70a664136" y="52.671121"/>
     <use style="stroke:#000000;" x="135.139784" xlink:href="#md70a664136" y="86.622874"/>
     <use style="stroke:#000000;" x="128.867721" xlink:href="#md70a664136" y="63.363294"/>
     <use style="stroke:#000000;" x="123.541894" xlink:href="#md70a664136" y="92.948769"/>
     <use style="stroke:#000000;" x="122.46755" xlink:href="#md70a664136" y="89.265194"/>
     <use style="stroke:#000000;" x="125.906151" xlink:href="#md70a664136" y="88.024086"/>
     <use style="stroke:#000000;" x="128.663378" xlink:href="#md70a664136" y="68.802405"/>
     <use style="stroke:#000000;" x="149.09517" xlink:href="#md70a664136" y="73.541505"/>
     <use style="stroke:#000000;" x="155.628267" xlink:href="#md70a664136" y="53.735971"/>
     <use style="stroke:#000000;" x="127.261761" xlink:href="#md70a664136" y="92.498304"/>
     <use style="stroke:#000000;" x="125.065248" xlink:href="#md70a664136" y="86.842436"/>
     <use style="stroke:#000000;" x="169.121313" xlink:href="#md70a664136" y="38.812915"/>
     <use style="stroke:#000000;" x="130.460542" xlink:href="#md70a664136" y="67.620489"/>
     <use style="stroke:#000000;" x="141.044427" xlink:href="#md70a664136" y="58.824712"/>
     <use style="stroke:#000000;" x="129.914103" xlink:href="#md70a664136" y="86.347014"/>
     <use style="stroke:#000000;" x="128.266848" xlink:href="#md70a664136" y="86.194855"/>
     <use style="stroke:#000000;" x="139.598008" xlink:href="#md70a664136" y="70.755496"/>
     <use style="stroke:#000000;" x="123.328178" xlink:href="#md70a664136" y="87.115837"/>
     <use style="stroke:#000000;" x="122.17449" xlink:href="#md70a664136" y="87.308225"/>
     <use style="stroke:#000000;" x="133.113843" xlink:href="#md70a664136" y="72.636061"/>
     <use style="stroke:#000000;" x="134.508151" xlink:href="#md70a664136" y="73.223749"/>
     <use style="stroke:#000000;" x="126.466939" xlink:href="#md70a664136" y="87.692674"/>
     <use style="stroke:#000000;" x="190.692136" xlink:href="#md70a664136" y="90.057216"/>
     <use style="stroke:#000000;" x="124.139798" xlink:href="#md70a664136" y="94.5"/>
     <use style="stroke:#000000;" x="151.997731" xlink:href="#md70a664136" y="81.028946"/>
     <use style="stroke:#000000;" x="130.028604" xlink:href="#md70a664136" y="80.885947"/>
     <use style="stroke:#000000;" x="138.30028" xlink:href="#md70a664136" y="65.949137"/>
    </g>
   </g>
   <g id="line2d_11">
    <path clip-path="url(#pdd52cf94f4)" d="M 118.309091 85.812498 
L 119.077686 85.485876 
L 119.846281 85.159254 
L 120.614876 84.832631 
L 121.383471 84.506009 
L 122.152066 84.179387 
L 122.920661 83.852764 
L 123.689256 83.526142 
L 124.457851 83.19952 
L 125.226446 82.872897 
L 125.995041 82.546275 
L 126.763636 82.219653 
L 127.532231 81.89303 
L 128.300826 81.566408 
L 129.069421 81.239786 
L 129.838017 80.913163 
L 130.606612 80.586541 
L 131.375207 80.259918 
L 132.143802 79.933296 
L 132.912397 79.606674 
L 133.680992 79.280051 
L 134.449587 78.953429 
L 135.218182 78.626807 
L 135.986777 78.300184 
L 136.755372 77.973562 
L 137.523967 77.64694 
L 138.292562 77.320317 
L 139.061157 76.993695 
L 139.829752 76.667073 
L 140.598347 76.34045 
L 141.366942 76.013828 
L 142.135537 75.687206 
L 142.904132 75.360583 
L 143.672727 75.033961 
L 144.441322 74.707338 
L 145.209917 74.380716 
L 145.978512 74.054094 
L 146.747107 73.727471 
L 147.515702 73.400849 
L 148.284298 73.074227 
L 149.052893 72.747604 
L 149.821488 72.420982 
L 150.590083 72.09436 
L 151.358678 71.767737 
L 152.127273 71.441115 
L 152.895868 71.114493 
L 153.664463 70.78787 
L 154.433058 70.461248 
L 155.201653 70.134626 
L 155.970248 69.808003 
L 156.738843 69.481381 
L 157.507438 69.154758 
L 158.276033 68.828136 
L 159.044628 68.501514 
L 159.813223 68.174891 
L 160.581818 67.848269 
L 161.350413 67.521647 
L 162.119008 67.195024 
L 162.887603 66.868402 
L 163.656198 66.54178 
L 164.424793 66.215157 
L 165.193388 65.888535 
L 165.961983 65.561913 
L 166.730579 65.23529 
L 167.499174 64.908668 
L 168.267769 64.582046 
L 169.036364 64.255423 
L 169.804959 63.928801 
L 170.573554 63.602178 
L 171.342149 63.275556 
L 172.110744 62.948934 
L 172.879339 62.622311 
L 173.647934 62.295689 
L 174.416529 61.969067 
L 175.185124 61.642444 
L 175.953719 61.315822 
L 176.722314 60.9892 
L 177.490909 60.662577 
L 178.259504 60.335955 
L 179.028099 60.009333 
L 179.796694 59.68271 
L 180.565289 59.356088 
L 181.333884 59.029466 
L 182.102479 58.702843 
L 182.871074 58.376221 
L 183.639669 58.049598 
L 184.408264 57.722976 
L 185.17686 57.396354 
L 185.945455 57.069731 
L 186.71405 56.743109 
L 187.482645 56.416487 
L 188.25124 56.089864 
L 189.019835 55.763242 
L 189.78843 55.43662 
L 190.557025 55.109997 
L 191.32562 54.783375 
L 192.094215 54.456753 
L 192.86281 54.13013 
L 193.631405 53.803508 
L 194.4 53.476885 
" style="fill:none;stroke:#000000;stroke-dasharray:1.85,0.8;stroke-dashoffset:0;stroke-width:0.5;"/>
   </g>
   <g id="patch_6">
    <path d="M 118.309091 94.5 
L 118.309091 12.96 
" style="fill:none;stroke:#000000;stroke-linecap:square;stroke-linejoin:miter;"/>
   </g>
   <g id="patch_7">
    <path d="M 118.309091 94.5 
L 194.4 94.5 
" style="fill:none;stroke:#000000;stroke-linecap:square;stroke-linejoin:miter;"/>
   </g>
   <g id="matplotlib.axis_3">
    <g id="xtick_3">
     <g id="line2d_12"/>
     <g id="text_10">
      <text style="font-family:Arial;font-size:8px;font-style:normal;font-weight:normal;text-anchor:middle;" transform="rotate(-0, 118.309091, 103.72625)" x="118.309091" y="103.72625">0</text>
     </g>
    </g>
    <g id="xtick_4">
     <g id="line2d_13"/>
     <g id="text_11">
      <text style="font-family:Arial;font-size:8px;font-style:normal;font-weight:normal;text-anchor:middle;" transform="rotate(-0, 150.161694, 103.72625)" x="150.161694" y="103.72625">2</text>
     </g>
    </g>
    <g id="xtick_5">
     <g id="line2d_14"/>
     <g id="text_12">
      <text style="font-family:Arial;font-size:8px;font-style:normal;font-weight:normal;text-anchor:middle;" transform="rotate(-0, 182.014297, 103.72625)" x="182.014297" y="103.72625">4</text>
     </g>
    </g>
    <g id="text_13">
     <!-- $\sigma$(Exc) -->
     <g transform="translate(141.504545 116.61625)">
      <text>
       <tspan style="font-family:DejaVu Sans;font-size:10px;font-style:oblique;font-weight:oblique;" x="0" y="-0.71875">σ</tspan>
       <tspan style="font-family:Arial;font-size:10px;font-style:regular;font-weight:regular;" x="6.337891 9.667969 16.337891 21.337891 26.337891" y="-0.71875">(Exc)</tspan>
      </text>
     </g>
    </g>
   </g>
   <g id="matplotlib.axis_4">
    <g id="ytick_5">
     <g id="line2d_15"/>
     <g id="text_14">
      <text style="font-family:Arial;font-size:8px;font-style:normal;font-weight:normal;text-anchor:end;" transform="rotate(-0, 114.809091, 97.363125)" x="114.809091" y="97.363125">0</text>
     </g>
    </g>
    <g id="ytick_6">
     <g id="line2d_16"/>
     <g id="text_15">
      <text style="font-family:Arial;font-size:8px;font-style:normal;font-weight:normal;text-anchor:end;" transform="rotate(-0, 114.809091, 80.296295)" x="114.809091" y="80.296295">1</text>
     </g>
    </g>
    <g id="ytick_7">
     <g id="line2d_17"/>
     <g id="text_16">
      <text style="font-family:Arial;font-size:8px;font-style:normal;font-weight:normal;text-anchor:end;" transform="rotate(-0, 114.809091, 63.229465)" x="114.809091" y="63.229465">2</text>
     </g>
    </g>
    <g id="ytick_8">
     <g id="line2d_18"/>
     <g id="text_17">
      <text style="font-family:Arial;font-size:8px;font-style:normal;font-weight:normal;text-anchor:end;" transform="rotate(-0, 114.809091, 46.162635)" x="114.809091" y="46.162635">3</text>
     </g>
    </g>
    <g id="ytick_9">
     <g id="line2d_19"/>
     <g id="text_18">
      <text style="font-family:Arial;font-size:8px;font-style:normal;font-weight:normal;text-anchor:end;" transform="rotate(-0, 114.809091, 29.095804)" x="114.809091" y="29.095804">4</text>
     </g>
    </g>
    <g id="text_19">
     <!-- $\sigma$(Inh) -->
     <g transform="translate(104.160341 67.18)rotate(-90)">
      <text>
       <tspan style="font-family:DejaVu Sans;font-size:10px;font-style:oblique;font-weight:oblique;" x="0" y="-0.71875">σ</tspan>
       <tspan style="font-family:Arial;font-size:10px;font-style:regular;font-weight:regular;" x="6.337891 9.667969 12.446289 18.007812 23.569336" y="-0.71875">(Inh)</tspan>
      </text>
     </g>
    </g>
   </g>
   <g id="legend_2">
    <g id="line2d_20">
     <path d="M 108.478125 31.995156 
L 128.478125 31.995156 
" style="fill:none;stroke:#000000;stroke-dasharray:1.85,0.8;stroke-dashoffset:0;stroke-width:0.5;"/>
    </g>
    <g id="line2d_21"/>
    <g id="text_20">
     <!-- $R^2$ 0.24 -->
     <g transform="translate(136.478125 29.2475)">
      <text>
       <tspan style="font-family:DejaVu Sans;font-size:10px;font-style:oblique;font-weight:oblique;" x="0" y="-0.9765625">R</tspan>
       <tspan style="font-family:DejaVu Sans;font-size:7px;font-style:book;font-weight:book;" x="7.650794" y="-4.8046875">2</tspan>
       <tspan style="font-family:Arial;font-size:10px;font-style:regular;font-weight:regular;" x="12.377845 15.156165 20.717689 23.496009 29.057533" y="-0.9765625"> 0.24</tspan>
      </text>
     </g>
     <text style="font-family:Arial;font-size:10px;font-style:normal;font-weight:normal;" transform="translate(136.478125 39.86)"> slope 0.40</text>
    </g>
   </g>
  </g>
 </g>
 <defs>
  <clipPath id="pf4255f3fdd">
   <rect height="81.54" width="76.090909" x="27" y="12.96"/>
  </clipPath>
  <clipPath id="pdd52cf94f4">
   <rect height="81.54" width="76.090909" x="118.309091" y="12.96"/>
  </clipPath>
 </defs>
</svg>
