<?xml version="1.0" encoding="utf-8" standalone="no"?>
<!DOCTYPE svg PUBLIC "-//W3C//DTD SVG 1.1//EN"
  "http://www.w3.org/Graphics/SVG/1.1/DTD/svg11.dtd">
<!-- Created with matplotlib (http://matplotlib.org/) -->
<svg height="108pt" version="1.1" viewBox="0 0 216 108" width="216pt" xmlns="http://www.w3.org/2000/svg" xmlns:xlink="http://www.w3.org/1999/xlink">
 <defs>
  <style type="text/css">
*{stroke-linecap:butt;stroke-linejoin:round;}
  </style>
 </defs>
 <g id="figure_1">
  <g id="patch_1">
   <path d="M 0 108 
L 216 108 
L 216 0 
L 0 0 
z
" style="fill:#ffffff;"/>
  </g>
  <g id="axes_1">
   <g id="patch_2">
    <path d="M 27 94.5 
L 103.090909 94.5 
L 103.090909 12.96 
L 27 12.96 
z
" style="fill:#ffffff;"/>
   </g>
   <g id="LineCollection_1">
    <path clip-path="url(#p0e4ee8d109)" d="M 24.561046 77.938333 
L 38.909463 77.938333 
" style="fill:none;stroke:#000000;stroke-width:0.5;"/>
    <path clip-path="url(#p0e4ee8d109)" d="M 26.80931 67.048282 
L 51.223276 67.048282 
" style="fill:none;stroke:#000000;stroke-width:0.5;"/>
    <path clip-path="url(#p0e4ee8d109)" d="M 24.172671 34.993713 
L 64.624716 34.993713 
" style="fill:none;stroke:#000000;stroke-width:0.5;"/>
    <path clip-path="url(#p0e4ee8d109)" d="M 25.140807 67.845039 
L 35.596346 67.845039 
" style="fill:none;stroke:#000000;stroke-width:0.5;"/>
    <path clip-path="url(#p0e4ee8d109)" d="M 29.620843 64.581774 
L 46.04515 64.581774 
" style="fill:none;stroke:#000000;stroke-width:0.5;"/>
    <path clip-path="url(#p0e4ee8d109)" d="M 27.471773 64.546 
L 40.708205 64.546 
" style="fill:none;stroke:#000000;stroke-width:0.5;"/>
    <path clip-path="url(#p0e4ee8d109)" d="M 25.572292 79.829283 
L 33.480712 79.829283 
" style="fill:none;stroke:#000000;stroke-width:0.5;"/>
    <path clip-path="url(#p0e4ee8d109)" d="M 26.499616 93.044188 
L 28.190812 93.044188 
" style="fill:none;stroke:#000000;stroke-width:0.5;"/>
    <path clip-path="url(#p0e4ee8d109)" d="M 26.87223 82.163207 
L 32.300171 82.163207 
" style="fill:none;stroke:#000000;stroke-width:0.5;"/>
    <path clip-path="url(#p0e4ee8d109)" d="M 26.611654 88.855463 
L 31.534123 88.855463 
" style="fill:none;stroke:#000000;stroke-width:0.5;"/>
    <path clip-path="url(#p0e4ee8d109)" d="M 26.80732 91.051533 
L 28.632338 91.051533 
" style="fill:none;stroke:#000000;stroke-width:0.5;"/>
    <path clip-path="url(#p0e4ee8d109)" d="M 28.985752 72.502175 
L 39.895259 72.502175 
" style="fill:none;stroke:#000000;stroke-width:0.5;"/>
    <path clip-path="url(#p0e4ee8d109)" d="M 24.86615 78.514723 
L 34.065728 78.514723 
" style="fill:none;stroke:#000000;stroke-width:0.5;"/>
    <path clip-path="url(#p0e4ee8d109)" d="M 26.744295 72.029177 
L 32.613713 72.029177 
" style="fill:none;stroke:#000000;stroke-width:0.5;"/>
    <path clip-path="url(#p0e4ee8d109)" d="M 28.309033 84.453492 
L 29.452107 84.453492 
" style="fill:none;stroke:#000000;stroke-width:0.5;"/>
    <path clip-path="url(#p0e4ee8d109)" d="M 29.970757 70.756151 
L 38.206467 70.756151 
" style="fill:none;stroke:#000000;stroke-width:0.5;"/>
    <path clip-path="url(#p0e4ee8d109)" d="M 27 94.5 
L 27 94.5 
" style="fill:none;stroke:#000000;stroke-width:0.5;"/>
    <path clip-path="url(#p0e4ee8d109)" d="M 26.410204 82.276702 
L 32.983172 82.276702 
" style="fill:none;stroke:#000000;stroke-width:0.5;"/>
    <path clip-path="url(#p0e4ee8d109)" d="M 27.366221 85.927492 
L 34.891439 85.927492 
" style="fill:none;stroke:#000000;stroke-width:0.5;"/>
    <path clip-path="url(#p0e4ee8d109)" d="M 27.919662 80.972361 
L 31.916041 80.972361 
" style="fill:none;stroke:#000000;stroke-width:0.5;"/>
    <path clip-path="url(#p0e4ee8d109)" d="M 26.638011 85.234653 
L 34.871486 85.234653 
" style="fill:none;stroke:#000000;stroke-width:0.5;"/>
    <path clip-path="url(#p0e4ee8d109)" d="M 35.815339 44.413174 
L 58.763804 44.413174 
" style="fill:none;stroke:#000000;stroke-width:0.5;"/>
    <path clip-path="url(#p0e4ee8d109)" d="M 22.012185 74.056872 
L 40.494519 74.056872 
" style="fill:none;stroke:#000000;stroke-width:0.5;"/>
    <path clip-path="url(#p0e4ee8d109)" d="M 24.453075 73.729156 
L 38.308211 73.729156 
" style="fill:none;stroke:#000000;stroke-width:0.5;"/>
    <path clip-path="url(#p0e4ee8d109)" d="M 26.645051 51.020708 
L 44.965475 51.020708 
" style="fill:none;stroke:#000000;stroke-width:0.5;"/>
    <path clip-path="url(#p0e4ee8d109)" d="M 26.595658 69.937798 
L 36.177331 69.937798 
" style="fill:none;stroke:#000000;stroke-width:0.5;"/>
    <path clip-path="url(#p0e4ee8d109)" d="M 27.924267 73.155328 
L 35.557005 73.155328 
" style="fill:none;stroke:#000000;stroke-width:0.5;"/>
    <path clip-path="url(#p0e4ee8d109)" d="M 30.319289 63.729121 
L 44.285762 63.729121 
" style="fill:none;stroke:#000000;stroke-width:0.5;"/>
    <path clip-path="url(#p0e4ee8d109)" d="M 29.82863 66.63204 
L 40.433649 66.63204 
" style="fill:none;stroke:#000000;stroke-width:0.5;"/>
    <path clip-path="url(#p0e4ee8d109)" d="M 26.263109 74.674798 
L 44.871486 74.674798 
" style="fill:none;stroke:#000000;stroke-width:0.5;"/>
   </g>
   <g id="LineCollection_2">
    <path clip-path="url(#p0e4ee8d109)" d="M 31.735254 83.487451 
L 31.735254 72.389216 
" style="fill:none;stroke:#000000;stroke-width:0.5;"/>
    <path clip-path="url(#p0e4ee8d109)" d="M 39.016293 77.400959 
L 39.016293 56.695606 
" style="fill:none;stroke:#000000;stroke-width:0.5;"/>
    <path clip-path="url(#p0e4ee8d109)" d="M 44.398694 53.144568 
L 44.398694 16.842857 
" style="fill:none;stroke:#000000;stroke-width:0.5;"/>
    <path clip-path="url(#p0e4ee8d109)" d="M 30.368577 73.009011 
L 30.368577 62.681066 
" style="fill:none;stroke:#000000;stroke-width:0.5;"/>
    <path clip-path="url(#p0e4ee8d109)" d="M 37.832997 71.472567 
L 37.832997 57.690981 
" style="fill:none;stroke:#000000;stroke-width:0.5;"/>
    <path clip-path="url(#p0e4ee8d109)" d="M 34.089989 73.269655 
L 34.089989 55.822344 
" style="fill:none;stroke:#000000;stroke-width:0.5;"/>
    <path clip-path="url(#p0e4ee8d109)" d="M 29.526502 83.417258 
L 29.526502 76.241308 
" style="fill:none;stroke:#000000;stroke-width:0.5;"/>
    <path clip-path="url(#p0e4ee8d109)" d="M 27.345214 94.171855 
L 27.345214 91.916521 
" style="fill:none;stroke:#000000;stroke-width:0.5;"/>
    <path clip-path="url(#p0e4ee8d109)" d="M 29.5862 84.58422 
L 29.5862 79.742193 
" style="fill:none;stroke:#000000;stroke-width:0.5;"/>
    <path clip-path="url(#p0e4ee8d109)" d="M 29.072888 92.365363 
L 29.072888 85.345563 
" style="fill:none;stroke:#000000;stroke-width:0.5;"/>
    <path clip-path="url(#p0e4ee8d109)" d="M 27.719829 92.557205 
L 27.719829 89.54586 
" style="fill:none;stroke:#000000;stroke-width:0.5;"/>
    <path clip-path="url(#p0e4ee8d109)" d="M 34.440506 75.879648 
L 34.440506 69.124703 
" style="fill:none;stroke:#000000;stroke-width:0.5;"/>
    <path clip-path="url(#p0e4ee8d109)" d="M 29.465939 81.378578 
L 29.465939 75.650868 
" style="fill:none;stroke:#000000;stroke-width:0.5;"/>
    <path clip-path="url(#p0e4ee8d109)" d="M 29.679004 85.129088 
L 29.679004 58.929265 
" style="fill:none;stroke:#000000;stroke-width:0.5;"/>
    <path clip-path="url(#p0e4ee8d109)" d="M 28.88057 86.463481 
L 28.88057 82.443502 
" style="fill:none;stroke:#000000;stroke-width:0.5;"/>
    <path clip-path="url(#p0e4ee8d109)" d="M 34.088612 75.316906 
L 34.088612 66.195396 
" style="fill:none;stroke:#000000;stroke-width:0.5;"/>
    <path clip-path="url(#p0e4ee8d109)" d="M 27 94.5 
L 27 94.5 
" style="fill:none;stroke:#000000;stroke-width:0.5;"/>
    <path clip-path="url(#p0e4ee8d109)" d="M 29.696688 85.950447 
L 29.696688 78.602958 
" style="fill:none;stroke:#000000;stroke-width:0.5;"/>
    <path clip-path="url(#p0e4ee8d109)" d="M 31.12883 89.123471 
L 31.12883 82.731514 
" style="fill:none;stroke:#000000;stroke-width:0.5;"/>
    <path clip-path="url(#p0e4ee8d109)" d="M 29.917851 82.633946 
L 29.917851 79.310775 
" style="fill:none;stroke:#000000;stroke-width:0.5;"/>
    <path clip-path="url(#p0e4ee8d109)" d="M 30.754749 89.069613 
L 30.754749 81.399694 
" style="fill:none;stroke:#000000;stroke-width:0.5;"/>
    <path clip-path="url(#p0e4ee8d109)" d="M 47.289571 60.399186 
L 47.289571 28.427162 
" style="fill:none;stroke:#000000;stroke-width:0.5;"/>
    <path clip-path="url(#p0e4ee8d109)" d="M 31.253352 79.924461 
L 31.253352 68.189282 
" style="fill:none;stroke:#000000;stroke-width:0.5;"/>
    <path clip-path="url(#p0e4ee8d109)" d="M 31.380643 83.681411 
L 31.380643 63.7769 
" style="fill:none;stroke:#000000;stroke-width:0.5;"/>
    <path clip-path="url(#p0e4ee8d109)" d="M 35.805263 64.06141 
L 35.805263 37.980006 
" style="fill:none;stroke:#000000;stroke-width:0.5;"/>
    <path clip-path="url(#p0e4ee8d109)" d="M 31.386494 78.385042 
L 31.386494 61.490555 
" style="fill:none;stroke:#000000;stroke-width:0.5;"/>
    <path clip-path="url(#p0e4ee8d109)" d="M 31.740636 75.657042 
L 31.740636 70.653615 
" style="fill:none;stroke:#000000;stroke-width:0.5;"/>
    <path clip-path="url(#p0e4ee8d109)" d="M 37.302526 71.010102 
L 37.302526 56.44814 
" style="fill:none;stroke:#000000;stroke-width:0.5;"/>
    <path clip-path="url(#p0e4ee8d109)" d="M 35.131139 71.311512 
L 35.131139 61.952568 
" style="fill:none;stroke:#000000;stroke-width:0.5;"/>
    <path clip-path="url(#p0e4ee8d109)" d="M 35.567298 80.977925 
L 35.567298 68.371672 
" style="fill:none;stroke:#000000;stroke-width:0.5;"/>
   </g>
   <g id="line2d_1">
    <path clip-path="url(#p0e4ee8d109)" d="M 27 88.160132 
L 27.768595 86.225793 
L 28.53719 84.291454 
L 29.305785 82.357116 
L 30.07438 80.422777 
L 30.842975 78.488438 
L 31.61157 76.5541 
L 32.380165 74.619761 
L 33.14876 72.685422 
L 33.917355 70.751083 
L 34.68595 68.816745 
L 35.454545 66.882406 
L 36.22314 64.948067 
L 36.991736 63.013729 
L 37.760331 61.07939 
L 38.528926 59.145051 
L 39.297521 57.210712 
L 40.066116 55.276374 
L 40.834711 53.342035 
L 41.603306 51.407696 
L 42.371901 49.473358 
L 43.140496 47.539019 
L 43.909091 45.60468 
L 44.677686 43.670341 
L 45.446281 41.736003 
L 46.214876 39.801664 
L 46.983471 37.867325 
L 47.752066 35.932987 
L 48.520661 33.998648 
L 49.289256 32.064309 
L 50.057851 30.129971 
L 50.826446 28.195632 
L 51.595041 26.261293 
L 52.363636 24.326954 
L 53.132231 22.392616 
L 53.900826 20.458277 
L 54.669421 18.523938 
L 55.438017 16.5896 
L 56.206612 14.655261 
L 56.975207 12.720922 
L 57.743802 10.786583 
L 58.512397 8.852245 
L 59.280992 6.917906 
L 60.049587 4.983567 
L 60.818182 3.049229 
L 61.586777 1.11489 
L 62.355372 -0.819449 
L 62.427113 -1 
" style="fill:none;stroke:#000000;stroke-dasharray:1.85,0.8;stroke-dashoffset:0;stroke-width:0.5;"/>
   </g>
   <g id="line2d_2">
    <defs>
     <path d="M 0 3 
C 0.795609 3 1.55874 2.683901 2.12132 2.12132 
C 2.683901 1.55874 3 0.795609 3 0 
C 3 -0.795609 2.683901 -1.55874 2.12132 -2.12132 
C 1.55874 -2.683901 0.795609 -3 0 -3 
C -0.795609 -3 -1.55874 -2.683901 -2.12132 -2.12132 
C -2.683901 -1.55874 -3 -0.795609 -3 0 
C -3 0.795609 -2.683901 1.55874 -2.12132 2.12132 
C -1.55874 2.683901 -0.795609 3 0 3 
z
" id="maa07f5fb3b" style="stroke:#000000;"/>
    </defs>
    <g clip-path="url(#p0e4ee8d109)">
     <use style="stroke:#000000;" x="31.735254" xlink:href="#maa07f5fb3b" y="77.938333"/>
     <use style="stroke:#000000;" x="39.016293" xlink:href="#maa07f5fb3b" y="67.048282"/>
     <use style="stroke:#000000;" x="44.398694" xlink:href="#maa07f5fb3b" y="34.993713"/>
     <use style="stroke:#000000;" x="30.368577" xlink:href="#maa07f5fb3b" y="67.845039"/>
     <use style="stroke:#000000;" x="37.832997" xlink:href="#maa07f5fb3b" y="64.581774"/>
     <use style="stroke:#000000;" x="34.089989" xlink:href="#maa07f5fb3b" y="64.546"/>
     <use style="stroke:#000000;" x="29.526502" xlink:href="#maa07f5fb3b" y="79.829283"/>
     <use style="stroke:#000000;" x="27.345214" xlink:href="#maa07f5fb3b" y="93.044188"/>
     <use style="stroke:#000000;" x="29.5862" xlink:href="#maa07f5fb3b" y="82.163207"/>
     <use style="stroke:#000000;" x="29.072888" xlink:href="#maa07f5fb3b" y="88.855463"/>
     <use style="stroke:#000000;" x="27.719829" xlink:href="#maa07f5fb3b" y="91.051533"/>
     <use style="stroke:#000000;" x="34.440506" xlink:href="#maa07f5fb3b" y="72.502175"/>
     <use style="stroke:#000000;" x="29.465939" xlink:href="#maa07f5fb3b" y="78.514723"/>
     <use style="stroke:#000000;" x="29.679004" xlink:href="#maa07f5fb3b" y="72.029177"/>
     <use style="stroke:#000000;" x="28.88057" xlink:href="#maa07f5fb3b" y="84.453492"/>
     <use style="stroke:#000000;" x="34.088612" xlink:href="#maa07f5fb3b" y="70.756151"/>
     <use style="stroke:#000000;" x="27" xlink:href="#maa07f5fb3b" y="94.5"/>
     <use style="stroke:#000000;" x="29.696688" xlink:href="#maa07f5fb3b" y="82.276702"/>
     <use style="stroke:#000000;" x="31.12883" xlink:href="#maa07f5fb3b" y="85.927492"/>
     <use style="stroke:#000000;" x="29.917851" xlink:href="#maa07f5fb3b" y="80.972361"/>
     <use style="stroke:#000000;" x="30.754749" xlink:href="#maa07f5fb3b" y="85.234653"/>
     <use style="stroke:#000000;" x="47.289571" xlink:href="#maa07f5fb3b" y="44.413174"/>
     <use style="stroke:#000000;" x="31.253352" xlink:href="#maa07f5fb3b" y="74.056872"/>
     <use style="stroke:#000000;" x="31.380643" xlink:href="#maa07f5fb3b" y="73.729156"/>
     <use style="stroke:#000000;" x="35.805263" xlink:href="#maa07f5fb3b" y="51.020708"/>
     <use style="stroke:#000000;" x="31.386494" xlink:href="#maa07f5fb3b" y="69.937798"/>
     <use style="stroke:#000000;" x="31.740636" xlink:href="#maa07f5fb3b" y="73.155328"/>
     <use style="stroke:#000000;" x="37.302526" xlink:href="#maa07f5fb3b" y="63.729121"/>
     <use style="stroke:#000000;" x="35.131139" xlink:href="#maa07f5fb3b" y="66.63204"/>
     <use style="stroke:#000000;" x="35.567298" xlink:href="#maa07f5fb3b" y="74.674798"/>
    </g>
   </g>
   <g id="patch_3">
    <path d="M 27 94.5 
L 27 12.96 
" style="fill:none;stroke:#000000;stroke-linecap:square;stroke-linejoin:miter;"/>
   </g>
   <g id="patch_4">
    <path d="M 27 94.5 
L 103.090909 94.5 
" style="fill:none;stroke:#000000;stroke-linecap:square;stroke-linejoin:miter;"/>
   </g>
   <g id="matplotlib.axis_1">
    <g id="xtick_1">
     <g id="line2d_3"/>
     <g id="text_1">
      <text style="font-family:Arial;font-size:8px;font-style:normal;font-weight:normal;text-anchor:middle;" transform="rotate(-0, 27, 103.72625)" x="27" y="103.72625">0</text>
     </g>
    </g>
    <g id="xtick_2">
     <g id="line2d_4"/>
     <g id="text_2">
      <text style="font-family:Arial;font-size:8px;font-style:normal;font-weight:normal;text-anchor:middle;" transform="rotate(-0, 52.803141, 103.72625)" x="52.803141" y="103.72625">5</text>
     </g>
    </g>
    <g id="xtick_3">
     <g id="line2d_5"/>
     <g id="text_3">
      <text style="font-family:Arial;font-size:8px;font-style:normal;font-weight:normal;text-anchor:middle;" transform="rotate(-0, 78.606283, 103.72625)" x="78.606283" y="103.72625">10</text>
     </g>
    </g>
    <g id="text_4">
     <text style="font-family:Arial;font-size:10px;font-style:normal;font-weight:normal;text-anchor:middle;" transform="rotate(-0, 65.045455, 116.474063)" x="65.045455" y="116.474063">Exc</text>
    </g>
   </g>
   <g id="matplotlib.axis_2">
    <g id="ytick_1">
     <g id="line2d_6"/>
     <g id="text_5">
      <text style="font-family:Arial;font-size:8px;font-style:normal;font-weight:normal;text-anchor:end;" transform="rotate(-0, 23.5, 97.363125)" x="23.5" y="97.363125">0</text>
     </g>
    </g>
    <g id="ytick_2">
     <g id="line2d_7"/>
     <g id="text_6">
      <text style="font-family:Arial;font-size:8px;font-style:normal;font-weight:normal;text-anchor:end;" transform="rotate(-0, 23.5, 69.712146)" x="23.5" y="69.712146">5</text>
     </g>
    </g>
    <g id="ytick_3">
     <g id="line2d_8"/>
     <g id="text_7">
      <text style="font-family:Arial;font-size:8px;font-style:normal;font-weight:normal;text-anchor:end;" transform="rotate(-0, 23.5, 42.061167)" x="23.5" y="42.061167">10</text>
     </g>
    </g>
    <g id="text_8">
     <text style="font-family:Arial;font-size:10px;font-style:normal;font-weight:normal;text-anchor:middle;" transform="rotate(-90, 8.615, 53.73)" x="8.615" y="53.73">Inh</text>
    </g>
   </g>
   <g id="legend_1">
    <g id="line2d_9">
     <path d="M 36 75.622656 
L 56 75.622656 
" style="fill:none;stroke:#000000;stroke-dasharray:1.85,0.8;stroke-dashoffset:0;stroke-width:0.5;"/>
    </g>
    <g id="line2d_10"/>
    <g id="text_9">
     <!-- $R^2$ 0.78 -->
     <g transform="translate(64 72.875)">
      <text>
       <tspan style="font-family:DejaVu Sans;font-size:10px;font-style:oblique;font-weight:oblique;" x="0" y="-0.9765625">R</tspan>
       <tspan style="font-family:DejaVu Sans;font-size:7px;font-style:book;font-weight:book;" x="7.650794" y="-4.8046875">2</tspan>
       <tspan style="font-family:Arial;font-size:10px;font-style:regular;font-weight:regular;" x="12.377845 15.156165 20.717689 23.496009 29.057533" y="-0.9765625"> 0.78</tspan>
      </text>
     </g>
     <text style="font-family:Arial;font-size:10px;font-style:normal;font-weight:normal;" transform="translate(64 83.4875)"> slope 2.35</text>
    </g>
   </g>
  </g>
  <g id="axes_2">
   <g id="patch_5">
    <path d="M 118.309091 94.5 
L 194.4 94.5 
L 194.4 12.96 
L 118.309091 12.96 
z
" style="fill:#ffffff;"/>
   </g>
   <g id="PathCollection_1">
    <defs>
     <path d="M 0 2.44949 
C 0.649612 2.44949 1.272706 2.191396 1.732051 1.732051 
C 2.191396 1.272706 2.44949 0.649612 2.44949 0 
C 2.44949 -0.649612 2.191396 -1.272706 1.732051 -1.732051 
C 1.272706 -2.191396 0.649612 -2.44949 0 -2.44949 
C -0.649612 -2.44949 -1.272706 -2.191396 -1.732051 -1.732051 
C -2.191396 -1.272706 -2.44949 -0.649612 -2.44949 0 
C -2.44949 0.649612 -2.191396 1.272706 -1.732051 1.732051 
C -1.272706 2.191396 -0.649612 2.44949 0 2.44949 
z
" id="m3035571996" style="stroke:#000000;"/>
    </defs>
    <g clip-path="url(#p5446411363)">
     <use style="stroke:#000000;" x="143.903345" xlink:href="#m3035571996" y="74.703319"/>
     <use style="stroke:#000000;" x="161.857955" xlink:href="#m3035571996" y="57.566444"/>
     <use style="stroke:#000000;" x="190.466176" xlink:href="#m3035571996" y="29.746151"/>
     <use style="stroke:#000000;" x="136.959352" xlink:href="#m3035571996" y="76.077337"/>
     <use style="stroke:#000000;" x="147.606253" xlink:href="#m3035571996" y="69.91684"/>
     <use style="stroke:#000000;" x="141.919822" xlink:href="#m3035571996" y="63.378034"/>
     <use style="stroke:#000000;" x="132.415883" xlink:href="#m3035571996" y="81.699766"/>
     <use style="stroke:#000000;" x="121.325793" xlink:href="#m3035571996" y="90.477006"/>
     <use style="stroke:#000000;" x="127.991282" xlink:href="#m3035571996" y="85.862945"/>
     <use style="stroke:#000000;" x="127.089636" xlink:href="#m3035571996" y="81.978301"/>
     <use style="stroke:#000000;" x="121.5645" xlink:href="#m3035571996" y="89.128457"/>
     <use style="stroke:#000000;" x="137.769126" xlink:href="#m3035571996" y="82.450743"/>
     <use style="stroke:#000000;" x="134.719008" xlink:href="#m3035571996" y="84.283091"/>
     <use style="stroke:#000000;" x="128.778775" xlink:href="#m3035571996" y="47.76558"/>
     <use style="stroke:#000000;" x="120.34807" xlink:href="#m3035571996" y="87.329287"/>
     <use style="stroke:#000000;" x="132.99969" xlink:href="#m3035571996" y="78.229337"/>
     <use style="stroke:#000000;" x="118.309091" xlink:href="#m3035571996" y="94.5"/>
     <use style="stroke:#000000;" x="130.033744" xlink:href="#m3035571996" y="81.393782"/>
     <use style="stroke:#000000;" x="131.732338" xlink:href="#m3035571996" y="83.098228"/>
     <use style="stroke:#000000;" x="125.437706" xlink:href="#m3035571996" y="88.572232"/>
     <use style="stroke:#000000;" x="132.995705" xlink:href="#m3035571996" y="80.818639"/>
     <use style="stroke:#000000;" x="159.24384" xlink:href="#m3035571996" y="37.46931"/>
     <use style="stroke:#000000;" x="151.277297" xlink:href="#m3035571996" y="73.567156"/>
     <use style="stroke:#000000;" x="143.023448" xlink:href="#m3035571996" y="58.99496"/>
     <use style="stroke:#000000;" x="150.988486" xlink:href="#m3035571996" y="47.976811"/>
     <use style="stroke:#000000;" x="135.400579" xlink:href="#m3035571996" y="64.364146"/>
     <use style="stroke:#000000;" x="131.92413" xlink:href="#m3035571996" y="85.575045"/>
     <use style="stroke:#000000;" x="143.222045" xlink:href="#m3035571996" y="68.52483"/>
     <use style="stroke:#000000;" x="137.225989" xlink:href="#m3035571996" y="77.80581"/>
     <use style="stroke:#000000;" x="151.502129" xlink:href="#m3035571996" y="72.013363"/>
    </g>
   </g>
   <g id="line2d_11">
    <path clip-path="url(#p5446411363)" d="M 118.309091 90.715946 
L 119.077686 90.042724 
L 119.846281 89.369503 
L 120.614876 88.696281 
L 121.383471 88.02306 
L 122.152066 87.349838 
L 122.920661 86.676617 
L 123.689256 86.003395 
L 124.457851 85.330174 
L 125.226446 84.656953 
L 125.995041 83.983731 
L 126.763636 83.31051 
L 127.532231 82.637288 
L 128.300826 81.964067 
L 129.069421 81.290845 
L 129.838017 80.617624 
L 130.606612 79.944402 
L 131.375207 79.271181 
L 132.143802 78.597959 
L 132.912397 77.924738 
L 133.680992 77.251517 
L 134.449587 76.578295 
L 135.218182 75.905074 
L 135.986777 75.231852 
L 136.755372 74.558631 
L 137.523967 73.885409 
L 138.292562 73.212188 
L 139.061157 72.538966 
L 139.829752 71.865745 
L 140.598347 71.192523 
L 141.366942 70.519302 
L 142.135537 69.84608 
L 142.904132 69.172859 
L 143.672727 68.499638 
L 144.441322 67.826416 
L 145.209917 67.153195 
L 145.978512 66.479973 
L 146.747107 65.806752 
L 147.515702 65.13353 
L 148.284298 64.460309 
L 149.052893 63.787087 
L 149.821488 63.113866 
L 150.590083 62.440644 
L 151.358678 61.767423 
L 152.127273 61.094202 
L 152.895868 60.42098 
L 153.664463 59.747759 
L 154.433058 59.074537 
L 155.201653 58.401316 
L 155.970248 57.728094 
L 156.738843 57.054873 
L 157.507438 56.381651 
L 158.276033 55.70843 
L 159.044628 55.035208 
L 159.813223 54.361987 
L 160.581818 53.688766 
L 161.350413 53.015544 
L 162.119008 52.342323 
L 162.887603 51.669101 
L 163.656198 50.99588 
L 164.424793 50.322658 
L 165.193388 49.649437 
L 165.961983 48.976215 
L 166.730579 48.302994 
L 167.499174 47.629772 
L 168.267769 46.956551 
L 169.036364 46.283329 
L 169.804959 45.610108 
L 170.573554 44.936887 
L 171.342149 44.263665 
L 172.110744 43.590444 
L 172.879339 42.917222 
L 173.647934 42.244001 
L 174.416529 41.570779 
L 175.185124 40.897558 
L 175.953719 40.224336 
L 176.722314 39.551115 
L 177.490909 38.877893 
L 178.259504 38.204672 
L 179.028099 37.531451 
L 179.796694 36.858229 
L 180.565289 36.185008 
L 181.333884 35.511786 
L 182.102479 34.838565 
L 182.871074 34.165343 
L 183.639669 33.492122 
L 184.408264 32.8189 
L 185.17686 32.145679 
L 185.945455 31.472457 
L 186.71405 30.799236 
L 187.482645 30.126015 
L 188.25124 29.452793 
L 189.019835 28.779572 
L 189.78843 28.10635 
L 190.557025 27.433129 
L 191.32562 26.759907 
L 192.094215 26.086686 
L 192.86281 25.413464 
L 193.631405 24.740243 
L 194.4 24.067021 
" style="fill:none;stroke:#000000;stroke-dasharray:1.85,0.8;stroke-dashoffset:0;stroke-width:0.5;"/>
   </g>
   <g id="patch_6">
    <path d="M 118.309091 94.5 
L 118.309091 12.96 
" style="fill:none;stroke:#000000;stroke-linecap:square;stroke-linejoin:miter;"/>
   </g>
   <g id="patch_7">
    <path d="M 118.309091 94.5 
L 194.4 94.5 
" style="fill:none;stroke:#000000;stroke-linecap:square;stroke-linejoin:miter;"/>
   </g>
   <g id="matplotlib.axis_3">
    <g id="xtick_4">
     <g id="line2d_12"/>
     <g id="text_10">
      <text style="font-family:Arial;font-size:8px;font-style:normal;font-weight:normal;text-anchor:middle;" transform="rotate(-0, 118.309091, 103.72625)" x="118.309091" y="103.72625">0</text>
     </g>
    </g>
    <g id="xtick_5">
     <g id="line2d_13"/>
     <g id="text_11">
      <text style="font-family:Arial;font-size:8px;font-style:normal;font-weight:normal;text-anchor:middle;" transform="rotate(-0, 155.130556, 103.72625)" x="155.130556" y="103.72625">2</text>
     </g>
    </g>
    <g id="xtick_6">
     <g id="line2d_14"/>
     <g id="text_12">
      <text style="font-family:Arial;font-size:8px;font-style:normal;font-weight:normal;text-anchor:middle;" transform="rotate(-0, 191.952021, 103.72625)" x="191.952021" y="103.72625">4</text>
     </g>
    </g>
    <g id="text_13">
     <!-- $\sigma$(Exc) -->
     <g transform="translate(141.504545 116.61625)">
      <text>
       <tspan style="font-family:DejaVu Sans;font-size:10px;font-style:oblique;font-weight:oblique;" x="0" y="-0.71875">σ</tspan>
       <tspan style="font-family:Arial;font-size:10px;font-style:regular;font-weight:regular;" x="6.337891 9.667969 16.337891 21.337891 26.337891" y="-0.71875">(Exc)</tspan>
      </text>
     </g>
    </g>
   </g>
   <g id="matplotlib.axis_4">
    <g id="ytick_4">
     <g id="line2d_15"/>
     <g id="text_14">
      <text style="font-family:Arial;font-size:8px;font-style:normal;font-weight:normal;text-anchor:end;" transform="rotate(-0, 114.809091, 97.363125)" x="114.809091" y="97.363125">0</text>
     </g>
    </g>
    <g id="ytick_5">
     <g id="line2d_16"/>
     <g id="text_15">
      <text style="font-family:Arial;font-size:8px;font-style:normal;font-weight:normal;text-anchor:end;" transform="rotate(-0, 114.809091, 77.633946)" x="114.809091" y="77.633946">1</text>
     </g>
    </g>
    <g id="ytick_6">
     <g id="line2d_17"/>
     <g id="text_16">
      <text style="font-family:Arial;font-size:8px;font-style:normal;font-weight:normal;text-anchor:end;" transform="rotate(-0, 114.809091, 57.904768)" x="114.809091" y="57.904768">2</text>
     </g>
    </g>
    <g id="ytick_7">
     <g id="line2d_18"/>
     <g id="text_17">
      <text style="font-family:Arial;font-size:8px;font-style:normal;font-weight:normal;text-anchor:end;" transform="rotate(-0, 114.809091, 38.175589)" x="114.809091" y="38.175589">3</text>
     </g>
    </g>
    <g id="ytick_8">
     <g id="line2d_19"/>
     <g id="text_18">
      <text style="font-family:Arial;font-size:8px;font-style:normal;font-weight:normal;text-anchor:end;" transform="rotate(-0, 114.809091, 18.446411)" x="114.809091" y="18.446411">4</text>
     </g>
    </g>
    <g id="text_19">
     <!-- $\sigma$(Inh) -->
     <g transform="translate(104.160341 67.18)rotate(-90)">
      <text>
       <tspan style="font-family:DejaVu Sans;font-size:10px;font-style:oblique;font-weight:oblique;" x="0" y="-0.71875">σ</tspan>
       <tspan style="font-family:Arial;font-size:10px;font-style:regular;font-weight:regular;" x="6.337891 9.667969 12.446289 18.007812 23.569336" y="-0.71875">(Inh)</tspan>
      </text>
     </g>
    </g>
   </g>
   <g id="legend_2">
    <g id="line2d_20">
     <path d="M 108.478125 31.995156 
L 128.478125 31.995156 
" style="fill:none;stroke:#000000;stroke-dasharray:1.85,0.8;stroke-dashoffset:0;stroke-width:0.5;"/>
    </g>
    <g id="line2d_21"/>
    <g id="text_20">
     <!-- $R^2$ 0.66 -->
     <g transform="translate(136.478125 29.2475)">
      <text>
       <tspan style="font-family:DejaVu Sans;font-size:10px;font-style:oblique;font-weight:oblique;" x="0" y="-0.9765625">R</tspan>
       <tspan style="font-family:DejaVu Sans;font-size:7px;font-style:book;font-weight:book;" x="7.650794" y="-4.8046875">2</tspan>
       <tspan style="font-family:Arial;font-size:10px;font-style:regular;font-weight:regular;" x="12.377845 15.156165 20.717689 23.496009 29.057533" y="-0.9765625"> 0.66</tspan>
      </text>
     </g>
     <text style="font-family:Arial;font-size:10px;font-style:normal;font-weight:normal;" transform="translate(136.478125 39.86)"> slope 0.82</text>
    </g>
   </g>
  </g>
 </g>
 <defs>
  <clipPath id="p0e4ee8d109">
   <rect height="81.54" width="76.090909" x="27" y="12.96"/>
  </clipPath>
  <clipPath id="p5446411363">
   <rect height="81.54" width="76.090909" x="118.309091" y="12.96"/>
  </clipPath>
 </defs>
</svg>
