<?xml version="1.0" encoding="utf-8" standalone="no"?>
<!DOCTYPE svg PUBLIC "-//W3C//DTD SVG 1.1//EN"
  "http://www.w3.org/Graphics/SVG/1.1/DTD/svg11.dtd">
<!-- Created with matplotlib (http://matplotlib.org/) -->
<svg height="108pt" version="1.1" viewBox="0 0 216 108" width="216pt" xmlns="http://www.w3.org/2000/svg" xmlns:xlink="http://www.w3.org/1999/xlink">
 <defs>
  <style type="text/css">
*{stroke-linecap:butt;stroke-linejoin:round;}
  </style>
 </defs>
 <g id="figure_1">
  <g id="patch_1">
   <path d="M 0 108 
L 216 108 
L 216 0 
L 0 0 
z
" style="fill:#ffffff;"/>
  </g>
  <g id="axes_1">
   <g id="patch_2">
    <path d="M 27 94.5 
L 103.090909 94.5 
L 103.090909 12.96 
L 27 12.96 
z
" style="fill:#ffffff;"/>
   </g>
   <g id="LineCollection_1">
    <path clip-path="url(#ped5bfdf4cd)" d="M 27.465949 60.06847 
L 52.37125 60.06847 
" style="fill:none;stroke:#000000;stroke-width:0.5;"/>
    <path clip-path="url(#ped5bfdf4cd)" d="M 29.303284 61.095925 
L 60.236904 61.095925 
" style="fill:none;stroke:#000000;stroke-width:0.5;"/>
    <path clip-path="url(#ped5bfdf4cd)" d="M 20.483052 56.632751 
L 58.729103 56.632751 
" style="fill:none;stroke:#000000;stroke-width:0.5;"/>
    <path clip-path="url(#ped5bfdf4cd)" d="M 27.906923 51.286911 
L 46.727836 51.286911 
" style="fill:none;stroke:#000000;stroke-width:0.5;"/>
    <path clip-path="url(#ped5bfdf4cd)" d="M 26.024421 34.663797 
L 54.043456 34.663797 
" style="fill:none;stroke:#000000;stroke-width:0.5;"/>
    <path clip-path="url(#ped5bfdf4cd)" d="M 29.298591 71.706395 
L 41.214188 71.706395 
" style="fill:none;stroke:#000000;stroke-width:0.5;"/>
    <path clip-path="url(#ped5bfdf4cd)" d="M 22.131358 37.509722 
L 63.116608 37.509722 
" style="fill:none;stroke:#000000;stroke-width:0.5;"/>
    <path clip-path="url(#ped5bfdf4cd)" d="M 29.968696 63.484633 
L 43.832931 63.484633 
" style="fill:none;stroke:#000000;stroke-width:0.5;"/>
    <path clip-path="url(#ped5bfdf4cd)" d="M 24.180751 81.286079 
L 40.086123 81.286079 
" style="fill:none;stroke:#000000;stroke-width:0.5;"/>
    <path clip-path="url(#ped5bfdf4cd)" d="M 31.024329 46.309633 
L 40.111602 46.309633 
" style="fill:none;stroke:#000000;stroke-width:0.5;"/>
    <path clip-path="url(#ped5bfdf4cd)" d="M 27.932235 60.980756 
L 57.95029 60.980756 
" style="fill:none;stroke:#000000;stroke-width:0.5;"/>
    <path clip-path="url(#ped5bfdf4cd)" d="M 29.84246 47.274314 
L 52.66193 47.274314 
" style="fill:none;stroke:#000000;stroke-width:0.5;"/>
    <path clip-path="url(#ped5bfdf4cd)" d="M 27.134107 75.136538 
L 37.189561 75.136538 
" style="fill:none;stroke:#000000;stroke-width:0.5;"/>
    <path clip-path="url(#ped5bfdf4cd)" d="M 25.269861 82.606184 
L 32.61099 82.606184 
" style="fill:none;stroke:#000000;stroke-width:0.5;"/>
    <path clip-path="url(#ped5bfdf4cd)" d="M 25.053404 80.62683 
L 35.040236 80.62683 
" style="fill:none;stroke:#000000;stroke-width:0.5;"/>
    <path clip-path="url(#ped5bfdf4cd)" d="M 28.132112 63.220998 
L 45.852927 63.220998 
" style="fill:none;stroke:#000000;stroke-width:0.5;"/>
    <path clip-path="url(#ped5bfdf4cd)" d="M 27.692222 86.079055 
L 32.520802 86.079055 
" style="fill:none;stroke:#000000;stroke-width:0.5;"/>
    <path clip-path="url(#ped5bfdf4cd)" d="M 29.627771 61.86864 
L 46.259416 61.86864 
" style="fill:none;stroke:#000000;stroke-width:0.5;"/>
    <path clip-path="url(#ped5bfdf4cd)" d="M 26.031624 28.122759 
L 54.156023 28.122759 
" style="fill:none;stroke:#000000;stroke-width:0.5;"/>
    <path clip-path="url(#ped5bfdf4cd)" d="M 23.860672 54.097781 
L 45.924911 54.097781 
" style="fill:none;stroke:#000000;stroke-width:0.5;"/>
    <path clip-path="url(#ped5bfdf4cd)" d="M 27.764493 63.508149 
L 33.355545 63.508149 
" style="fill:none;stroke:#000000;stroke-width:0.5;"/>
    <path clip-path="url(#ped5bfdf4cd)" d="M 26.766548 53.352952 
L 44.573411 53.352952 
" style="fill:none;stroke:#000000;stroke-width:0.5;"/>
    <path clip-path="url(#ped5bfdf4cd)" d="M 24.847908 65.636306 
L 40.258036 65.636306 
" style="fill:none;stroke:#000000;stroke-width:0.5;"/>
    <path clip-path="url(#ped5bfdf4cd)" d="M 23.792932 59.178101 
L 36.664285 59.178101 
" style="fill:none;stroke:#000000;stroke-width:0.5;"/>
    <path clip-path="url(#ped5bfdf4cd)" d="M 26.640654 86.802525 
L 32.12081 86.802525 
" style="fill:none;stroke:#000000;stroke-width:0.5;"/>
    <path clip-path="url(#ped5bfdf4cd)" d="M 34.225823 48.031092 
L 50.678487 48.031092 
" style="fill:none;stroke:#000000;stroke-width:0.5;"/>
    <path clip-path="url(#ped5bfdf4cd)" d="M 25.476657 83.985386 
L 37.252141 83.985386 
" style="fill:none;stroke:#000000;stroke-width:0.5;"/>
    <path clip-path="url(#ped5bfdf4cd)" d="M 28.045063 62.815749 
L 33.720559 62.815749 
" style="fill:none;stroke:#000000;stroke-width:0.5;"/>
    <path clip-path="url(#ped5bfdf4cd)" d="M 27.814739 53.644215 
L 48.025326 53.644215 
" style="fill:none;stroke:#000000;stroke-width:0.5;"/>
    <path clip-path="url(#ped5bfdf4cd)" d="M 24.898448 64.120978 
L 42.28422 64.120978 
" style="fill:none;stroke:#000000;stroke-width:0.5;"/>
   </g>
   <g id="LineCollection_2">
    <path clip-path="url(#ped5bfdf4cd)" d="M 39.918599 70.629238 
L 39.918599 49.507703 
" style="fill:none;stroke:#000000;stroke-width:0.5;"/>
    <path clip-path="url(#ped5bfdf4cd)" d="M 44.770094 75.470594 
L 44.770094 46.721257 
" style="fill:none;stroke:#000000;stroke-width:0.5;"/>
    <path clip-path="url(#ped5bfdf4cd)" d="M 39.606078 65.12975 
L 39.606078 48.135752 
" style="fill:none;stroke:#000000;stroke-width:0.5;"/>
    <path clip-path="url(#ped5bfdf4cd)" d="M 37.317379 62.791141 
L 37.317379 39.78268 
" style="fill:none;stroke:#000000;stroke-width:0.5;"/>
    <path clip-path="url(#ped5bfdf4cd)" d="M 40.033938 44.873095 
L 40.033938 24.4545 
" style="fill:none;stroke:#000000;stroke-width:0.5;"/>
    <path clip-path="url(#ped5bfdf4cd)" d="M 35.25639 77.056217 
L 35.25639 66.356573 
" style="fill:none;stroke:#000000;stroke-width:0.5;"/>
    <path clip-path="url(#ped5bfdf4cd)" d="M 42.623983 41.838007 
L 42.623983 33.181438 
" style="fill:none;stroke:#000000;stroke-width:0.5;"/>
    <path clip-path="url(#ped5bfdf4cd)" d="M 36.900813 74.683225 
L 36.900813 52.286041 
" style="fill:none;stroke:#000000;stroke-width:0.5;"/>
    <path clip-path="url(#ped5bfdf4cd)" d="M 32.133437 87.759552 
L 32.133437 74.812607 
" style="fill:none;stroke:#000000;stroke-width:0.5;"/>
    <path clip-path="url(#ped5bfdf4cd)" d="M 35.567966 53.465771 
L 35.567966 39.153494 
" style="fill:none;stroke:#000000;stroke-width:0.5;"/>
    <path clip-path="url(#ped5bfdf4cd)" d="M 42.941262 71.650109 
L 42.941262 50.311404 
" style="fill:none;stroke:#000000;stroke-width:0.5;"/>
    <path clip-path="url(#ped5bfdf4cd)" d="M 41.252195 57.80144 
L 41.252195 36.747188 
" style="fill:none;stroke:#000000;stroke-width:0.5;"/>
    <path clip-path="url(#ped5bfdf4cd)" d="M 32.161834 79.65676 
L 32.161834 70.616316 
" style="fill:none;stroke:#000000;stroke-width:0.5;"/>
    <path clip-path="url(#ped5bfdf4cd)" d="M 28.940425 86.857148 
L 28.940425 78.355219 
" style="fill:none;stroke:#000000;stroke-width:0.5;"/>
    <path clip-path="url(#ped5bfdf4cd)" d="M 30.04682 86.553789 
L 30.04682 74.699872 
" style="fill:none;stroke:#000000;stroke-width:0.5;"/>
    <path clip-path="url(#ped5bfdf4cd)" d="M 36.99252 72.158281 
L 36.99252 54.283715 
" style="fill:none;stroke:#000000;stroke-width:0.5;"/>
    <path clip-path="url(#ped5bfdf4cd)" d="M 30.106512 88.691232 
L 30.106512 83.466878 
" style="fill:none;stroke:#000000;stroke-width:0.5;"/>
    <path clip-path="url(#ped5bfdf4cd)" d="M 37.943593 75.55198 
L 37.943593 48.1853 
" style="fill:none;stroke:#000000;stroke-width:0.5;"/>
    <path clip-path="url(#ped5bfdf4cd)" d="M 40.093823 39.596122 
L 40.093823 16.649397 
" style="fill:none;stroke:#000000;stroke-width:0.5;"/>
    <path clip-path="url(#ped5bfdf4cd)" d="M 34.892792 55.833508 
L 34.892792 52.362054 
" style="fill:none;stroke:#000000;stroke-width:0.5;"/>
    <path clip-path="url(#ped5bfdf4cd)" d="M 30.560019 68.854686 
L 30.560019 58.161612 
" style="fill:none;stroke:#000000;stroke-width:0.5;"/>
    <path clip-path="url(#ped5bfdf4cd)" d="M 35.669979 62.775026 
L 35.669979 43.930878 
" style="fill:none;stroke:#000000;stroke-width:0.5;"/>
    <path clip-path="url(#ped5bfdf4cd)" d="M 32.552972 79.836131 
L 32.552972 51.436481 
" style="fill:none;stroke:#000000;stroke-width:0.5;"/>
    <path clip-path="url(#ped5bfdf4cd)" d="M 30.228608 69.265095 
L 30.228608 49.091106 
" style="fill:none;stroke:#000000;stroke-width:0.5;"/>
    <path clip-path="url(#ped5bfdf4cd)" d="M 29.380732 90.437335 
L 29.380732 83.167715 
" style="fill:none;stroke:#000000;stroke-width:0.5;"/>
    <path clip-path="url(#ped5bfdf4cd)" d="M 42.452155 57.40863 
L 42.452155 38.653554 
" style="fill:none;stroke:#000000;stroke-width:0.5;"/>
    <path clip-path="url(#ped5bfdf4cd)" d="M 31.364399 88.39565 
L 31.364399 79.575121 
" style="fill:none;stroke:#000000;stroke-width:0.5;"/>
    <path clip-path="url(#ped5bfdf4cd)" d="M 30.882811 70.693681 
L 30.882811 54.937817 
" style="fill:none;stroke:#000000;stroke-width:0.5;"/>
    <path clip-path="url(#ped5bfdf4cd)" d="M 37.920032 64.526628 
L 37.920032 42.761803 
" style="fill:none;stroke:#000000;stroke-width:0.5;"/>
    <path clip-path="url(#ped5bfdf4cd)" d="M 33.591334 69.510619 
L 33.591334 58.731337 
" style="fill:none;stroke:#000000;stroke-width:0.5;"/>
   </g>
   <g id="line2d_1">
    <path clip-path="url(#ped5bfdf4cd)" d="M 27 81.568766 
L 27.768595 79.817029 
L 28.53719 78.065292 
L 29.305785 76.313554 
L 30.07438 74.561817 
L 30.842975 72.81008 
L 31.61157 71.058343 
L 32.380165 69.306606 
L 33.14876 67.554868 
L 33.917355 65.803131 
L 34.68595 64.051394 
L 35.454545 62.299657 
L 36.22314 60.54792 
L 36.991736 58.796182 
L 37.760331 57.044445 
L 38.528926 55.292708 
L 39.297521 53.540971 
L 40.066116 51.789234 
L 40.834711 50.037496 
L 41.603306 48.285759 
L 42.371901 46.534022 
L 43.140496 44.782285 
L 43.909091 43.030548 
L 44.677686 41.27881 
L 45.446281 39.527073 
L 46.214876 37.775336 
L 46.983471 36.023599 
L 47.752066 34.271862 
L 48.520661 32.520124 
L 49.289256 30.768387 
L 50.057851 29.01665 
L 50.826446 27.264913 
L 51.595041 25.513176 
L 52.363636 23.761438 
L 53.132231 22.009701 
L 53.900826 20.257964 
L 54.669421 18.506227 
L 55.438017 16.75449 
L 56.206612 15.002752 
L 56.975207 13.251015 
L 57.743802 11.499278 
L 58.512397 9.747541 
L 59.280992 7.995804 
L 60.049587 6.244066 
L 60.818182 4.492329 
L 61.586777 2.740592 
L 62.355372 0.988855 
L 63.123967 -0.762883 
L 63.228005 -1 
" style="fill:none;stroke:#000000;stroke-dasharray:1.85,0.8;stroke-dashoffset:0;stroke-width:0.5;"/>
   </g>
   <g id="line2d_2">
    <defs>
     <path d="M 0 3 
C 0.795609 3 1.55874 2.683901 2.12132 2.12132 
C 2.683901 1.55874 3 0.795609 3 0 
C 3 -0.795609 2.683901 -1.55874 2.12132 -2.12132 
C 1.55874 -2.683901 0.795609 -3 0 -3 
C -0.795609 -3 -1.55874 -2.683901 -2.12132 -2.12132 
C -2.683901 -1.55874 -3 -0.795609 -3 0 
C -3 0.795609 -2.683901 1.55874 -2.12132 2.12132 
C -1.55874 2.683901 -0.795609 3 0 3 
z
" id="ma49f16e3bb" style="stroke:#000000;"/>
    </defs>
    <g clip-path="url(#ped5bfdf4cd)">
     <use style="stroke:#000000;" x="39.918599" xlink:href="#ma49f16e3bb" y="60.06847"/>
     <use style="stroke:#000000;" x="44.770094" xlink:href="#ma49f16e3bb" y="61.095925"/>
     <use style="stroke:#000000;" x="39.606078" xlink:href="#ma49f16e3bb" y="56.632751"/>
     <use style="stroke:#000000;" x="37.317379" xlink:href="#ma49f16e3bb" y="51.286911"/>
     <use style="stroke:#000000;" x="40.033938" xlink:href="#ma49f16e3bb" y="34.663797"/>
     <use style="stroke:#000000;" x="35.25639" xlink:href="#ma49f16e3bb" y="71.706395"/>
     <use style="stroke:#000000;" x="42.623983" xlink:href="#ma49f16e3bb" y="37.509722"/>
     <use style="stroke:#000000;" x="36.900813" xlink:href="#ma49f16e3bb" y="63.484633"/>
     <use style="stroke:#000000;" x="32.133437" xlink:href="#ma49f16e3bb" y="81.286079"/>
     <use style="stroke:#000000;" x="35.567966" xlink:href="#ma49f16e3bb" y="46.309633"/>
     <use style="stroke:#000000;" x="42.941262" xlink:href="#ma49f16e3bb" y="60.980756"/>
     <use style="stroke:#000000;" x="41.252195" xlink:href="#ma49f16e3bb" y="47.274314"/>
     <use style="stroke:#000000;" x="32.161834" xlink:href="#ma49f16e3bb" y="75.136538"/>
     <use style="stroke:#000000;" x="28.940425" xlink:href="#ma49f16e3bb" y="82.606184"/>
     <use style="stroke:#000000;" x="30.04682" xlink:href="#ma49f16e3bb" y="80.62683"/>
     <use style="stroke:#000000;" x="36.99252" xlink:href="#ma49f16e3bb" y="63.220998"/>
     <use style="stroke:#000000;" x="30.106512" xlink:href="#ma49f16e3bb" y="86.079055"/>
     <use style="stroke:#000000;" x="37.943593" xlink:href="#ma49f16e3bb" y="61.86864"/>
     <use style="stroke:#000000;" x="40.093823" xlink:href="#ma49f16e3bb" y="28.122759"/>
     <use style="stroke:#000000;" x="34.892792" xlink:href="#ma49f16e3bb" y="54.097781"/>
     <use style="stroke:#000000;" x="30.560019" xlink:href="#ma49f16e3bb" y="63.508149"/>
     <use style="stroke:#000000;" x="35.669979" xlink:href="#ma49f16e3bb" y="53.352952"/>
     <use style="stroke:#000000;" x="32.552972" xlink:href="#ma49f16e3bb" y="65.636306"/>
     <use style="stroke:#000000;" x="30.228608" xlink:href="#ma49f16e3bb" y="59.178101"/>
     <use style="stroke:#000000;" x="29.380732" xlink:href="#ma49f16e3bb" y="86.802525"/>
     <use style="stroke:#000000;" x="42.452155" xlink:href="#ma49f16e3bb" y="48.031092"/>
     <use style="stroke:#000000;" x="31.364399" xlink:href="#ma49f16e3bb" y="83.985386"/>
     <use style="stroke:#000000;" x="30.882811" xlink:href="#ma49f16e3bb" y="62.815749"/>
     <use style="stroke:#000000;" x="37.920032" xlink:href="#ma49f16e3bb" y="53.644215"/>
     <use style="stroke:#000000;" x="33.591334" xlink:href="#ma49f16e3bb" y="64.120978"/>
    </g>
   </g>
   <g id="patch_3">
    <path d="M 27 94.5 
L 27 12.96 
" style="fill:none;stroke:#000000;stroke-linecap:square;stroke-linejoin:miter;"/>
   </g>
   <g id="patch_4">
    <path d="M 27 94.5 
L 103.090909 94.5 
" style="fill:none;stroke:#000000;stroke-linecap:square;stroke-linejoin:miter;"/>
   </g>
   <g id="matplotlib.axis_1">
    <g id="xtick_1">
     <g id="line2d_3"/>
     <g id="text_1">
      <text style="font-family:Arial;font-size:8px;font-style:normal;font-weight:normal;text-anchor:middle;" transform="rotate(-0, 27, 103.72625)" x="27" y="103.72625">0.0</text>
     </g>
    </g>
    <g id="xtick_2">
     <g id="line2d_4"/>
     <g id="text_2">
      <text style="font-family:Arial;font-size:8px;font-style:normal;font-weight:normal;text-anchor:middle;" transform="rotate(-0, 52.514613, 103.72625)" x="52.514613" y="103.72625">2.5</text>
     </g>
    </g>
    <g id="xtick_3">
     <g id="line2d_5"/>
     <g id="text_3">
      <text style="font-family:Arial;font-size:8px;font-style:normal;font-weight:normal;text-anchor:middle;" transform="rotate(-0, 78.029225, 103.72625)" x="78.029225" y="103.72625">5.0</text>
     </g>
    </g>
    <g id="xtick_4">
     <g id="line2d_6"/>
     <g id="text_4">
      <text style="font-family:Arial;font-size:8px;font-style:normal;font-weight:normal;text-anchor:middle;" transform="rotate(-0, 103.543838, 103.72625)" x="103.543838" y="103.72625">7.5</text>
     </g>
    </g>
    <g id="text_5">
     <text style="font-family:Arial;font-size:10px;font-style:normal;font-weight:normal;text-anchor:middle;" transform="rotate(-0, 65.045455, 116.474063)" x="65.045455" y="116.474063">Exc</text>
    </g>
   </g>
   <g id="matplotlib.axis_2">
    <g id="ytick_1">
     <g id="line2d_7"/>
     <g id="text_6">
      <text style="font-family:Arial;font-size:8px;font-style:normal;font-weight:normal;text-anchor:end;" transform="rotate(-0, 23.5, 97.363125)" x="23.5" y="97.363125">0</text>
     </g>
    </g>
    <g id="ytick_2">
     <g id="line2d_8"/>
     <g id="text_7">
      <text style="font-family:Arial;font-size:8px;font-style:normal;font-weight:normal;text-anchor:end;" transform="rotate(-0, 23.5, 75.489694)" x="23.5" y="75.489694">2</text>
     </g>
    </g>
    <g id="ytick_3">
     <g id="line2d_9"/>
     <g id="text_8">
      <text style="font-family:Arial;font-size:8px;font-style:normal;font-weight:normal;text-anchor:end;" transform="rotate(-0, 23.5, 53.616264)" x="23.5" y="53.616264">4</text>
     </g>
    </g>
    <g id="ytick_4">
     <g id="line2d_10"/>
     <g id="text_9">
      <text style="font-family:Arial;font-size:8px;font-style:normal;font-weight:normal;text-anchor:end;" transform="rotate(-0, 23.5, 31.742833)" x="23.5" y="31.742833">6</text>
     </g>
    </g>
    <g id="text_10">
     <text style="font-family:Arial;font-size:10px;font-style:normal;font-weight:normal;text-anchor:middle;" transform="rotate(-90, 13.06375, 53.73)" x="13.06375" y="53.73">Inh</text>
    </g>
   </g>
   <g id="legend_1">
    <g id="line2d_11">
     <path d="M 36 75.622656 
L 56 75.622656 
" style="fill:none;stroke:#000000;stroke-dasharray:1.85,0.8;stroke-dashoffset:0;stroke-width:0.5;"/>
    </g>
    <g id="line2d_12"/>
    <g id="text_11">
     <!-- $R^2$ 0.50 -->
     <g transform="translate(64 72.875)">
      <text>
       <tspan style="font-family:DejaVu Sans;font-size:10px;font-style:oblique;font-weight:oblique;" x="0" y="-0.9765625">R</tspan>
       <tspan style="font-family:DejaVu Sans;font-size:7px;font-style:book;font-weight:book;" x="7.650794" y="-4.8046875">2</tspan>
       <tspan style="font-family:Arial;font-size:10px;font-style:regular;font-weight:regular;" x="12.377845 15.156165 20.717689 23.496009 29.057533" y="-0.9765625"> 0.50</tspan>
      </text>
     </g>
     <text style="font-family:Arial;font-size:10px;font-style:normal;font-weight:normal;" transform="translate(64 83.4875)"> slope 2.13</text>
    </g>
   </g>
  </g>
  <g id="axes_2">
   <g id="patch_5">
    <path d="M 118.309091 94.5 
L 194.4 94.5 
L 194.4 12.96 
L 118.309091 12.96 
z
" style="fill:#ffffff;"/>
   </g>
   <g id="PathCollection_1">
    <defs>
     <path d="M 0 2.44949 
C 0.649612 2.44949 1.272706 2.191396 1.732051 1.732051 
C 2.191396 1.272706 2.44949 0.649612 2.44949 0 
C 2.44949 -0.649612 2.191396 -1.272706 1.732051 -1.732051 
C 1.272706 -2.191396 0.649612 -2.44949 0 -2.44949 
C -0.649612 -2.44949 -1.272706 -2.191396 -1.732051 -1.732051 
C -2.191396 -1.272706 -2.44949 -0.649612 -2.44949 0 
C -2.44949 0.649612 -2.191396 1.272706 -1.732051 1.732051 
C -1.272706 2.191396 -0.649612 2.44949 0 2.44949 
z
" id="md8884c22b5" style="stroke:#000000;"/>
    </defs>
    <g clip-path="url(#p820c2c9d7e)">
     <use style="stroke:#000000;" x="162.222654" xlink:href="#md8884c22b5" y="57.258054"/>
     <use style="stroke:#000000;" x="172.851916" xlink:href="#md8884c22b5" y="43.808549"/>
     <use style="stroke:#000000;" x="185.745352" xlink:href="#md8884c22b5" y="64.535817"/>
     <use style="stroke:#000000;" x="151.49453" xlink:href="#md8884c22b5" y="53.930986"/>
     <use style="stroke:#000000;" x="167.712857" xlink:href="#md8884c22b5" y="58.497494"/>
     <use style="stroke:#000000;" x="139.318928" xlink:href="#md8884c22b5" y="75.634156"/>
     <use style="stroke:#000000;" x="190.575166" xlink:href="#md8884c22b5" y="79.236551"/>
     <use style="stroke:#000000;" x="142.754809" xlink:href="#md8884c22b5" y="55.008801"/>
     <use style="stroke:#000000;" x="146.353786" xlink:href="#md8884c22b5" y="71.671667"/>
     <use style="stroke:#000000;" x="134.331967" xlink:href="#md8884c22b5" y="69.264284"/>
     <use style="stroke:#000000;" x="171.237572" xlink:href="#md8884c22b5" y="56.875135"/>
     <use style="stroke:#000000;" x="158.544873" xlink:href="#md8884c22b5" y="57.37669"/>
     <use style="stroke:#000000;" x="136.039084" xlink:href="#md8884c22b5" y="78.559693"/>
     <use style="stroke:#000000;" x="131.253128" xlink:href="#md8884c22b5" y="79.509216"/>
     <use style="stroke:#000000;" x="135.918088" xlink:href="#md8884c22b5" y="73.598918"/>
     <use style="stroke:#000000;" x="149.554814" xlink:href="#md8884c22b5" y="62.98318"/>
     <use style="stroke:#000000;" x="126.822946" xlink:href="#md8884c22b5" y="85.288306"/>
     <use style="stroke:#000000;" x="147.634365" xlink:href="#md8884c22b5" y="46.246479"/>
     <use style="stroke:#000000;" x="167.898638" xlink:href="#md8884c22b5" y="54.03984"/>
     <use style="stroke:#000000;" x="157.213234" xlink:href="#md8884c22b5" y="88.379058"/>
     <use style="stroke:#000000;" x="128.167355" xlink:href="#md8884c22b5" y="75.645741"/>
     <use style="stroke:#000000;" x="149.706534" xlink:href="#md8884c22b5" y="61.273592"/>
     <use style="stroke:#000000;" x="145.480562" xlink:href="#md8884c22b5" y="44.425125"/>
     <use style="stroke:#000000;" x="141.004138" xlink:href="#md8884c22b5" y="58.928788"/>
     <use style="stroke:#000000;" x="127.971821" xlink:href="#md8884c22b5" y="81.682051"/>
     <use style="stroke:#000000;" x="147.318784" xlink:href="#md8884c22b5" y="61.430645"/>
     <use style="stroke:#000000;" x="139.071879" xlink:href="#md8884c22b5" y="78.947453"/>
     <use style="stroke:#000000;" x="128.316246" xlink:href="#md8884c22b5" y="66.718921"/>
     <use style="stroke:#000000;" x="153.944833" xlink:href="#md8884c22b5" y="56.123791"/>
     <use style="stroke:#000000;" x="148.964059" xlink:href="#md8884c22b5" y="75.493739"/>
    </g>
   </g>
   <g id="line2d_13">
    <path clip-path="url(#p820c2c9d7e)" d="M 118.309091 74.206589 
L 119.077686 73.998195 
L 119.846281 73.789801 
L 120.614876 73.581407 
L 121.383471 73.373013 
L 122.152066 73.164619 
L 122.920661 72.956225 
L 123.689256 72.747831 
L 124.457851 72.539436 
L 125.226446 72.331042 
L 125.995041 72.122648 
L 126.763636 71.914254 
L 127.532231 71.70586 
L 128.300826 71.497466 
L 129.069421 71.289072 
L 129.838017 71.080678 
L 130.606612 70.872284 
L 131.375207 70.663889 
L 132.143802 70.455495 
L 132.912397 70.247101 
L 133.680992 70.038707 
L 134.449587 69.830313 
L 135.218182 69.621919 
L 135.986777 69.413525 
L 136.755372 69.205131 
L 137.523967 68.996737 
L 138.292562 68.788342 
L 139.061157 68.579948 
L 139.829752 68.371554 
L 140.598347 68.16316 
L 141.366942 67.954766 
L 142.135537 67.746372 
L 142.904132 67.537978 
L 143.672727 67.329584 
L 144.441322 67.121189 
L 145.209917 66.912795 
L 145.978512 66.704401 
L 146.747107 66.496007 
L 147.515702 66.287613 
L 148.284298 66.079219 
L 149.052893 65.870825 
L 149.821488 65.662431 
L 150.590083 65.454037 
L 151.358678 65.245642 
L 152.127273 65.037248 
L 152.895868 64.828854 
L 153.664463 64.62046 
L 154.433058 64.412066 
L 155.201653 64.203672 
L 155.970248 63.995278 
L 156.738843 63.786884 
L 157.507438 63.57849 
L 158.276033 63.370095 
L 159.044628 63.161701 
L 159.813223 62.953307 
L 160.581818 62.744913 
L 161.350413 62.536519 
L 162.119008 62.328125 
L 162.887603 62.119731 
L 163.656198 61.911337 
L 164.424793 61.702943 
L 165.193388 61.494548 
L 165.961983 61.286154 
L 166.730579 61.07776 
L 167.499174 60.869366 
L 168.267769 60.660972 
L 169.036364 60.452578 
L 169.804959 60.244184 
L 170.573554 60.03579 
L 171.342149 59.827395 
L 172.110744 59.619001 
L 172.879339 59.410607 
L 173.647934 59.202213 
L 174.416529 58.993819 
L 175.185124 58.785425 
L 175.953719 58.577031 
L 176.722314 58.368637 
L 177.490909 58.160243 
L 178.259504 57.951848 
L 179.028099 57.743454 
L 179.796694 57.53506 
L 180.565289 57.326666 
L 181.333884 57.118272 
L 182.102479 56.909878 
L 182.871074 56.701484 
L 183.639669 56.49309 
L 184.408264 56.284696 
L 185.17686 56.076301 
L 185.945455 55.867907 
L 186.71405 55.659513 
L 187.482645 55.451119 
L 188.25124 55.242725 
L 189.019835 55.034331 
L 189.78843 54.825937 
L 190.557025 54.617543 
L 191.32562 54.409148 
L 192.094215 54.200754 
L 192.86281 53.99236 
L 193.631405 53.783966 
L 194.4 53.575572 
" style="fill:none;stroke:#000000;stroke-dasharray:1.85,0.8;stroke-dashoffset:0;stroke-width:0.5;"/>
   </g>
   <g id="patch_6">
    <path d="M 118.309091 94.5 
L 118.309091 12.96 
" style="fill:none;stroke:#000000;stroke-linecap:square;stroke-linejoin:miter;"/>
   </g>
   <g id="patch_7">
    <path d="M 118.309091 94.5 
L 194.4 94.5 
" style="fill:none;stroke:#000000;stroke-linecap:square;stroke-linejoin:miter;"/>
   </g>
   <g id="matplotlib.axis_3">
    <g id="xtick_5">
     <g id="line2d_14"/>
     <g id="text_12">
      <text style="font-family:Arial;font-size:8px;font-style:normal;font-weight:normal;text-anchor:middle;" transform="rotate(-0, 118.309091, 103.72625)" x="118.309091" y="103.72625">0</text>
     </g>
    </g>
    <g id="xtick_6">
     <g id="line2d_15"/>
     <g id="text_13">
      <text style="font-family:Arial;font-size:8px;font-style:normal;font-weight:normal;text-anchor:middle;" transform="rotate(-0, 154.299423, 103.72625)" x="154.299423" y="103.72625">1</text>
     </g>
    </g>
    <g id="xtick_7">
     <g id="line2d_16"/>
     <g id="text_14">
      <text style="font-family:Arial;font-size:8px;font-style:normal;font-weight:normal;text-anchor:middle;" transform="rotate(-0, 190.289755, 103.72625)" x="190.289755" y="103.72625">2</text>
     </g>
    </g>
    <g id="text_15">
     <!-- $\sigma$(Exc) -->
     <g transform="translate(141.504545 116.61625)">
      <text>
       <tspan style="font-family:DejaVu Sans;font-size:10px;font-style:oblique;font-weight:oblique;" x="0" y="-0.71875">σ</tspan>
       <tspan style="font-family:Arial;font-size:10px;font-style:regular;font-weight:regular;" x="6.337891 9.667969 16.337891 21.337891 26.337891" y="-0.71875">(Exc)</tspan>
      </text>
     </g>
    </g>
   </g>
   <g id="matplotlib.axis_4">
    <g id="ytick_5">
     <g id="line2d_17"/>
     <g id="text_16">
      <text style="font-family:Arial;font-size:8px;font-style:normal;font-weight:normal;text-anchor:end;" transform="rotate(-0, 114.809091, 97.363125)" x="114.809091" y="97.363125">0.0</text>
     </g>
    </g>
    <g id="ytick_6">
     <g id="line2d_18"/>
     <g id="text_17">
      <text style="font-family:Arial;font-size:8px;font-style:normal;font-weight:normal;text-anchor:end;" transform="rotate(-0, 114.809091, 78.079273)" x="114.809091" y="78.079273">0.5</text>
     </g>
    </g>
    <g id="ytick_7">
     <g id="line2d_19"/>
     <g id="text_18">
      <text style="font-family:Arial;font-size:8px;font-style:normal;font-weight:normal;text-anchor:end;" transform="rotate(-0, 114.809091, 58.795421)" x="114.809091" y="58.795421">1.0</text>
     </g>
    </g>
    <g id="ytick_8">
     <g id="line2d_20"/>
     <g id="text_19">
      <text style="font-family:Arial;font-size:8px;font-style:normal;font-weight:normal;text-anchor:end;" transform="rotate(-0, 114.809091, 39.511569)" x="114.809091" y="39.511569">1.5</text>
     </g>
    </g>
    <g id="ytick_9">
     <g id="line2d_21"/>
     <g id="text_20">
      <text style="font-family:Arial;font-size:8px;font-style:normal;font-weight:normal;text-anchor:end;" transform="rotate(-0, 114.809091, 20.227717)" x="114.809091" y="20.227717">2.0</text>
     </g>
    </g>
    <g id="text_21">
     <!-- $\sigma$(Inh) -->
     <g transform="translate(97.489091 67.18)rotate(-90)">
      <text>
       <tspan style="font-family:DejaVu Sans;font-size:10px;font-style:oblique;font-weight:oblique;" x="0" y="-0.71875">σ</tspan>
       <tspan style="font-family:Arial;font-size:10px;font-style:regular;font-weight:regular;" x="6.337891 9.667969 12.446289 18.007812 23.569336" y="-0.71875">(Inh)</tspan>
      </text>
     </g>
    </g>
   </g>
   <g id="legend_2">
    <g id="line2d_22">
     <path d="M 108.478125 31.995156 
L 128.478125 31.995156 
" style="fill:none;stroke:#000000;stroke-dasharray:1.85,0.8;stroke-dashoffset:0;stroke-width:0.5;"/>
    </g>
    <g id="line2d_23"/>
    <g id="text_22">
     <!-- $R^2$ 0.14 -->
     <g transform="translate(136.478125 29.2475)">
      <text>
       <tspan style="font-family:DejaVu Sans;font-size:10px;font-style:oblique;font-weight:oblique;" x="0" y="-0.9765625">R</tspan>
       <tspan style="font-family:DejaVu Sans;font-size:7px;font-style:book;font-weight:book;" x="7.650794" y="-4.8046875">2</tspan>
       <tspan style="font-family:Arial;font-size:10px;font-style:regular;font-weight:regular;" x="12.377845 15.156165 20.717689 23.496009 29.057533" y="-0.9765625"> 0.14</tspan>
      </text>
     </g>
     <text style="font-family:Arial;font-size:10px;font-style:normal;font-weight:normal;" transform="translate(136.478125 39.86)"> slope 0.25</text>
    </g>
   </g>
  </g>
 </g>
 <defs>
  <clipPath id="ped5bfdf4cd">
   <rect height="81.54" width="76.090909" x="27" y="12.96"/>
  </clipPath>
  <clipPath id="p820c2c9d7e">
   <rect height="81.54" width="76.090909" x="118.309091" y="12.96"/>
  </clipPath>
 </defs>
</svg>
