<?xml version="1.0" encoding="utf-8" standalone="no"?>
<!DOCTYPE svg PUBLIC "-//W3C//DTD SVG 1.1//EN"
  "http://www.w3.org/Graphics/SVG/1.1/DTD/svg11.dtd">
<!-- Created with matplotlib (http://matplotlib.org/) -->
<svg height="108pt" version="1.1" viewBox="0 0 216 108" width="216pt" xmlns="http://www.w3.org/2000/svg" xmlns:xlink="http://www.w3.org/1999/xlink">
 <defs>
  <style type="text/css">
*{stroke-linecap:butt;stroke-linejoin:round;}
  </style>
 </defs>
 <g id="figure_1">
  <g id="patch_1">
   <path d="M 0 108 
L 216 108 
L 216 0 
L 0 0 
z
" style="fill:#ffffff;"/>
  </g>
  <g id="axes_1">
   <g id="patch_2">
    <path d="M 27 94.5 
L 103.090909 94.5 
L 103.090909 12.96 
L 27 12.96 
z
" style="fill:#ffffff;"/>
   </g>
   <g id="LineCollection_1">
    <path clip-path="url(#p5ce8147014)" d="M 27.179262 83.07964 
L 31.984337 83.07964 
" style="fill:none;stroke:#000000;stroke-width:0.5;"/>
    <path clip-path="url(#p5ce8147014)" d="M 34.01625 63.659766 
L 54.039359 63.659766 
" style="fill:none;stroke:#000000;stroke-width:0.5;"/>
    <path clip-path="url(#p5ce8147014)" d="M 25.123177 81.390877 
L 31.466457 81.390877 
" style="fill:none;stroke:#000000;stroke-width:0.5;"/>
    <path clip-path="url(#p5ce8147014)" d="M 27.424911 66.207917 
L 38.009596 66.207917 
" style="fill:none;stroke:#000000;stroke-width:0.5;"/>
    <path clip-path="url(#p5ce8147014)" d="M 16.02541 44.63227 
L 53.117284 44.63227 
" style="fill:none;stroke:#000000;stroke-width:0.5;"/>
    <path clip-path="url(#p5ce8147014)" d="M 27.125045 78.69574 
L 37.559325 78.69574 
" style="fill:none;stroke:#000000;stroke-width:0.5;"/>
    <path clip-path="url(#p5ce8147014)" d="M 27.524031 86.921714 
L 30.268376 86.921714 
" style="fill:none;stroke:#000000;stroke-width:0.5;"/>
    <path clip-path="url(#p5ce8147014)" d="M 25.560282 84.617274 
L 30.426235 84.617274 
" style="fill:none;stroke:#000000;stroke-width:0.5;"/>
    <path clip-path="url(#p5ce8147014)" d="M 26.837894 78.209507 
L 39.311438 78.209507 
" style="fill:none;stroke:#000000;stroke-width:0.5;"/>
    <path clip-path="url(#p5ce8147014)" d="M 27.339839 46.786199 
L 42.556221 46.786199 
" style="fill:none;stroke:#000000;stroke-width:0.5;"/>
    <path clip-path="url(#p5ce8147014)" d="M 26.374944 51.467856 
L 40.951069 51.467856 
" style="fill:none;stroke:#000000;stroke-width:0.5;"/>
    <path clip-path="url(#p5ce8147014)" d="M 26.109977 79.076258 
L 34.39337 79.076258 
" style="fill:none;stroke:#000000;stroke-width:0.5;"/>
    <path clip-path="url(#p5ce8147014)" d="M 25.800311 78.152002 
L 32.519147 78.152002 
" style="fill:none;stroke:#000000;stroke-width:0.5;"/>
    <path clip-path="url(#p5ce8147014)" d="M 24.832863 88.078905 
L 32.157343 88.078905 
" style="fill:none;stroke:#000000;stroke-width:0.5;"/>
    <path clip-path="url(#p5ce8147014)" d="M 26.543697 91.874137 
L 29.118025 91.874137 
" style="fill:none;stroke:#000000;stroke-width:0.5;"/>
    <path clip-path="url(#p5ce8147014)" d="M 31.000624 45.929209 
L 88.155771 45.929209 
" style="fill:none;stroke:#000000;stroke-width:0.5;"/>
    <path clip-path="url(#p5ce8147014)" d="M 26.84623 85.236079 
L 30.27094 85.236079 
" style="fill:none;stroke:#000000;stroke-width:0.5;"/>
    <path clip-path="url(#p5ce8147014)" d="M 25.159406 76.022554 
L 35.24651 76.022554 
" style="fill:none;stroke:#000000;stroke-width:0.5;"/>
    <path clip-path="url(#p5ce8147014)" d="M 27 88.115761 
L 27 88.115761 
" style="fill:none;stroke:#000000;stroke-width:0.5;"/>
    <path clip-path="url(#p5ce8147014)" d="M 27.18469 67.33934 
L 33.398029 67.33934 
" style="fill:none;stroke:#000000;stroke-width:0.5;"/>
    <path clip-path="url(#p5ce8147014)" d="M 24.073515 71.763171 
L 40.197819 71.763171 
" style="fill:none;stroke:#000000;stroke-width:0.5;"/>
    <path clip-path="url(#p5ce8147014)" d="M 26.687795 48.470593 
L 37.569103 48.470593 
" style="fill:none;stroke:#000000;stroke-width:0.5;"/>
    <path clip-path="url(#p5ce8147014)" d="M 22.591289 52.162202 
L 56.30956 52.162202 
" style="fill:none;stroke:#000000;stroke-width:0.5;"/>
    <path clip-path="url(#p5ce8147014)" d="M 31.15151 66.771746 
L 38.291238 66.771746 
" style="fill:none;stroke:#000000;stroke-width:0.5;"/>
    <path clip-path="url(#p5ce8147014)" d="M 24.482453 62.09885 
L 38.122157 62.09885 
" style="fill:none;stroke:#000000;stroke-width:0.5;"/>
    <path clip-path="url(#p5ce8147014)" d="M 27.855384 79.380962 
L 32.834546 79.380962 
" style="fill:none;stroke:#000000;stroke-width:0.5;"/>
    <path clip-path="url(#p5ce8147014)" d="M 27 92.806542 
L 27 92.806542 
" style="fill:none;stroke:#000000;stroke-width:0.5;"/>
    <path clip-path="url(#p5ce8147014)" d="M 27.197343 56.774444 
L 38.663313 56.774444 
" style="fill:none;stroke:#000000;stroke-width:0.5;"/>
    <path clip-path="url(#p5ce8147014)" d="M 26.700472 70.581325 
L 28.654235 70.581325 
" style="fill:none;stroke:#000000;stroke-width:0.5;"/>
    <path clip-path="url(#p5ce8147014)" d="M 26.14065 83.304258 
L 30.988851 83.304258 
" style="fill:none;stroke:#000000;stroke-width:0.5;"/>
   </g>
   <g id="LineCollection_2">
    <path clip-path="url(#p5ce8147014)" d="M 29.581799 85.371042 
L 29.581799 80.788238 
" style="fill:none;stroke:#000000;stroke-width:0.5;"/>
    <path clip-path="url(#p5ce8147014)" d="M 44.027804 72.224708 
L 44.027804 55.094824 
" style="fill:none;stroke:#000000;stroke-width:0.5;"/>
    <path clip-path="url(#p5ce8147014)" d="M 28.294817 86.116869 
L 28.294817 76.664885 
" style="fill:none;stroke:#000000;stroke-width:0.5;"/>
    <path clip-path="url(#p5ce8147014)" d="M 32.717253 71.040377 
L 32.717253 61.375457 
" style="fill:none;stroke:#000000;stroke-width:0.5;"/>
    <path clip-path="url(#p5ce8147014)" d="M 34.571347 63.185213 
L 34.571347 26.079326 
" style="fill:none;stroke:#000000;stroke-width:0.5;"/>
    <path clip-path="url(#p5ce8147014)" d="M 32.342185 82.138097 
L 32.342185 75.253382 
" style="fill:none;stroke:#000000;stroke-width:0.5;"/>
    <path clip-path="url(#p5ce8147014)" d="M 28.896203 88.897614 
L 28.896203 84.945814 
" style="fill:none;stroke:#000000;stroke-width:0.5;"/>
    <path clip-path="url(#p5ce8147014)" d="M 27.993258 85.917137 
L 27.993258 83.317411 
" style="fill:none;stroke:#000000;stroke-width:0.5;"/>
    <path clip-path="url(#p5ce8147014)" d="M 33.074666 81.369041 
L 33.074666 75.049973 
" style="fill:none;stroke:#000000;stroke-width:0.5;"/>
    <path clip-path="url(#p5ce8147014)" d="M 34.94803 50.245045 
L 34.94803 43.327352 
" style="fill:none;stroke:#000000;stroke-width:0.5;"/>
    <path clip-path="url(#p5ce8147014)" d="M 33.663006 66.02275 
L 33.663006 36.912961 
" style="fill:none;stroke:#000000;stroke-width:0.5;"/>
    <path clip-path="url(#p5ce8147014)" d="M 30.251673 81.912774 
L 30.251673 76.239742 
" style="fill:none;stroke:#000000;stroke-width:0.5;"/>
    <path clip-path="url(#p5ce8147014)" d="M 29.159729 83.787968 
L 29.159729 72.516036 
" style="fill:none;stroke:#000000;stroke-width:0.5;"/>
    <path clip-path="url(#p5ce8147014)" d="M 28.495103 93.052664 
L 28.495103 83.105147 
" style="fill:none;stroke:#000000;stroke-width:0.5;"/>
    <path clip-path="url(#p5ce8147014)" d="M 27.830861 91.874137 
L 27.830861 91.874137 
" style="fill:none;stroke:#000000;stroke-width:0.5;"/>
    <path clip-path="url(#p5ce8147014)" d="M 59.578198 75.033738 
L 59.578198 16.82468 
" style="fill:none;stroke:#000000;stroke-width:0.5;"/>
    <path clip-path="url(#p5ce8147014)" d="M 28.558585 87.597389 
L 28.558585 82.874769 
" style="fill:none;stroke:#000000;stroke-width:0.5;"/>
    <path clip-path="url(#p5ce8147014)" d="M 30.202958 84.508075 
L 30.202958 67.537034 
" style="fill:none;stroke:#000000;stroke-width:0.5;"/>
    <path clip-path="url(#p5ce8147014)" d="M 27 88.115761 
L 27 88.115761 
" style="fill:none;stroke:#000000;stroke-width:0.5;"/>
    <path clip-path="url(#p5ce8147014)" d="M 30.291359 71.130079 
L 30.291359 63.548601 
" style="fill:none;stroke:#000000;stroke-width:0.5;"/>
    <path clip-path="url(#p5ce8147014)" d="M 32.135667 77.813899 
L 32.135667 65.712443 
" style="fill:none;stroke:#000000;stroke-width:0.5;"/>
    <path clip-path="url(#p5ce8147014)" d="M 32.128449 52.198741 
L 32.128449 44.742445 
" style="fill:none;stroke:#000000;stroke-width:0.5;"/>
    <path clip-path="url(#p5ce8147014)" d="M 39.450424 63.248938 
L 39.450424 41.075466 
" style="fill:none;stroke:#000000;stroke-width:0.5;"/>
    <path clip-path="url(#p5ce8147014)" d="M 34.721374 68.376559 
L 34.721374 65.166932 
" style="fill:none;stroke:#000000;stroke-width:0.5;"/>
    <path clip-path="url(#p5ce8147014)" d="M 31.302305 66.793092 
L 31.302305 57.404607 
" style="fill:none;stroke:#000000;stroke-width:0.5;"/>
    <path clip-path="url(#p5ce8147014)" d="M 30.344965 83.809709 
L 30.344965 74.952215 
" style="fill:none;stroke:#000000;stroke-width:0.5;"/>
    <path clip-path="url(#p5ce8147014)" d="M 27 94.118289 
L 27 91.494795 
" style="fill:none;stroke:#000000;stroke-width:0.5;"/>
    <path clip-path="url(#p5ce8147014)" d="M 32.930328 61.292343 
L 32.930328 52.256544 
" style="fill:none;stroke:#000000;stroke-width:0.5;"/>
    <path clip-path="url(#p5ce8147014)" d="M 27.677354 80.874927 
L 27.677354 60.287723 
" style="fill:none;stroke:#000000;stroke-width:0.5;"/>
    <path clip-path="url(#p5ce8147014)" d="M 28.56475 86.180819 
L 28.56475 80.427697 
" style="fill:none;stroke:#000000;stroke-width:0.5;"/>
   </g>
   <g id="line2d_1">
    <path clip-path="url(#p5ce8147014)" d="M 27 79.55313 
L 27.768595 78.39836 
L 28.53719 77.243591 
L 29.305785 76.088822 
L 30.07438 74.934053 
L 30.842975 73.779284 
L 31.61157 72.624515 
L 32.380165 71.469746 
L 33.14876 70.314977 
L 33.917355 69.160208 
L 34.68595 68.005439 
L 35.454545 66.85067 
L 36.22314 65.695901 
L 36.991736 64.541131 
L 37.760331 63.386362 
L 38.528926 62.231593 
L 39.297521 61.076824 
L 40.066116 59.922055 
L 40.834711 58.767286 
L 41.603306 57.612517 
L 42.371901 56.457748 
L 43.140496 55.302979 
L 43.909091 54.14821 
L 44.677686 52.993441 
L 45.446281 51.838672 
L 46.214876 50.683902 
L 46.983471 49.529133 
L 47.752066 48.374364 
L 48.520661 47.219595 
L 49.289256 46.064826 
L 50.057851 44.910057 
L 50.826446 43.755288 
L 51.595041 42.600519 
L 52.363636 41.44575 
L 53.132231 40.290981 
L 53.900826 39.136212 
L 54.669421 37.981442 
L 55.438017 36.826673 
L 56.206612 35.671904 
L 56.975207 34.517135 
L 57.743802 33.362366 
L 58.512397 32.207597 
L 59.280992 31.052828 
L 60.049587 29.898059 
L 60.818182 28.74329 
L 61.586777 27.588521 
L 62.355372 26.433752 
L 63.123967 25.278983 
L 63.892562 24.124213 
L 64.661157 22.969444 
L 65.429752 21.814675 
L 66.198347 20.659906 
L 66.966942 19.505137 
L 67.735537 18.350368 
L 68.504132 17.195599 
L 69.272727 16.04083 
L 70.041322 14.886061 
L 70.809917 13.731292 
L 71.578512 12.576523 
L 72.347107 11.421754 
L 73.115702 10.266984 
L 73.884298 9.112215 
L 74.652893 7.957446 
L 75.421488 6.802677 
L 76.190083 5.647908 
L 76.958678 4.493139 
L 77.727273 3.33837 
L 78.495868 2.183601 
L 79.264463 1.028832 
L 80.033058 -0.125937 
L 80.614819 -1 
" style="fill:none;stroke:#000000;stroke-dasharray:1.85,0.8;stroke-dashoffset:0;stroke-width:0.5;"/>
   </g>
   <g id="line2d_2">
    <defs>
     <path d="M 0 3 
C 0.795609 3 1.55874 2.683901 2.12132 2.12132 
C 2.683901 1.55874 3 0.795609 3 0 
C 3 -0.795609 2.683901 -1.55874 2.12132 -2.12132 
C 1.55874 -2.683901 0.795609 -3 0 -3 
C -0.795609 -3 -1.55874 -2.683901 -2.12132 -2.12132 
C -2.683901 -1.55874 -3 -0.795609 -3 0 
C -3 0.795609 -2.683901 1.55874 -2.12132 2.12132 
C -1.55874 2.683901 -0.795609 3 0 3 
z
" id="m316b2fcb7c" style="stroke:#000000;"/>
    </defs>
    <g clip-path="url(#p5ce8147014)">
     <use style="stroke:#000000;" x="29.581799" xlink:href="#m316b2fcb7c" y="83.07964"/>
     <use style="stroke:#000000;" x="44.027804" xlink:href="#m316b2fcb7c" y="63.659766"/>
     <use style="stroke:#000000;" x="28.294817" xlink:href="#m316b2fcb7c" y="81.390877"/>
     <use style="stroke:#000000;" x="32.717253" xlink:href="#m316b2fcb7c" y="66.207917"/>
     <use style="stroke:#000000;" x="34.571347" xlink:href="#m316b2fcb7c" y="44.63227"/>
     <use style="stroke:#000000;" x="32.342185" xlink:href="#m316b2fcb7c" y="78.69574"/>
     <use style="stroke:#000000;" x="28.896203" xlink:href="#m316b2fcb7c" y="86.921714"/>
     <use style="stroke:#000000;" x="27.993258" xlink:href="#m316b2fcb7c" y="84.617274"/>
     <use style="stroke:#000000;" x="33.074666" xlink:href="#m316b2fcb7c" y="78.209507"/>
     <use style="stroke:#000000;" x="34.94803" xlink:href="#m316b2fcb7c" y="46.786199"/>
     <use style="stroke:#000000;" x="33.663006" xlink:href="#m316b2fcb7c" y="51.467856"/>
     <use style="stroke:#000000;" x="30.251673" xlink:href="#m316b2fcb7c" y="79.076258"/>
     <use style="stroke:#000000;" x="29.159729" xlink:href="#m316b2fcb7c" y="78.152002"/>
     <use style="stroke:#000000;" x="28.495103" xlink:href="#m316b2fcb7c" y="88.078905"/>
     <use style="stroke:#000000;" x="27.830861" xlink:href="#m316b2fcb7c" y="91.874137"/>
     <use style="stroke:#000000;" x="59.578198" xlink:href="#m316b2fcb7c" y="45.929209"/>
     <use style="stroke:#000000;" x="28.558585" xlink:href="#m316b2fcb7c" y="85.236079"/>
     <use style="stroke:#000000;" x="30.202958" xlink:href="#m316b2fcb7c" y="76.022554"/>
     <use style="stroke:#000000;" x="27" xlink:href="#m316b2fcb7c" y="88.115761"/>
     <use style="stroke:#000000;" x="30.291359" xlink:href="#m316b2fcb7c" y="67.33934"/>
     <use style="stroke:#000000;" x="32.135667" xlink:href="#m316b2fcb7c" y="71.763171"/>
     <use style="stroke:#000000;" x="32.128449" xlink:href="#m316b2fcb7c" y="48.470593"/>
     <use style="stroke:#000000;" x="39.450424" xlink:href="#m316b2fcb7c" y="52.162202"/>
     <use style="stroke:#000000;" x="34.721374" xlink:href="#m316b2fcb7c" y="66.771746"/>
     <use style="stroke:#000000;" x="31.302305" xlink:href="#m316b2fcb7c" y="62.09885"/>
     <use style="stroke:#000000;" x="30.344965" xlink:href="#m316b2fcb7c" y="79.380962"/>
     <use style="stroke:#000000;" x="27" xlink:href="#m316b2fcb7c" y="92.806542"/>
     <use style="stroke:#000000;" x="32.930328" xlink:href="#m316b2fcb7c" y="56.774444"/>
     <use style="stroke:#000000;" x="27.677354" xlink:href="#m316b2fcb7c" y="70.581325"/>
     <use style="stroke:#000000;" x="28.56475" xlink:href="#m316b2fcb7c" y="83.304258"/>
    </g>
   </g>
   <g id="patch_3">
    <path d="M 27 94.5 
L 27 12.96 
" style="fill:none;stroke:#000000;stroke-linecap:square;stroke-linejoin:miter;"/>
   </g>
   <g id="patch_4">
    <path d="M 27 94.5 
L 103.090909 94.5 
" style="fill:none;stroke:#000000;stroke-linecap:square;stroke-linejoin:miter;"/>
   </g>
   <g id="matplotlib.axis_1">
    <g id="xtick_1">
     <g id="line2d_3"/>
     <g id="text_1">
      <text style="font-family:Arial;font-size:8px;font-style:normal;font-weight:normal;text-anchor:middle;" transform="rotate(-0, 27, 103.72625)" x="27" y="103.72625">0</text>
     </g>
    </g>
    <g id="xtick_2">
     <g id="line2d_4"/>
     <g id="text_2">
      <text style="font-family:Arial;font-size:8px;font-style:normal;font-weight:normal;text-anchor:middle;" transform="rotate(-0, 55.044451, 103.72625)" x="55.044451" y="103.72625">5</text>
     </g>
    </g>
    <g id="xtick_3">
     <g id="line2d_5"/>
     <g id="text_3">
      <text style="font-family:Arial;font-size:8px;font-style:normal;font-weight:normal;text-anchor:middle;" transform="rotate(-0, 83.088901, 103.72625)" x="83.088901" y="103.72625">10</text>
     </g>
    </g>
    <g id="text_4">
     <text style="font-family:Arial;font-size:10px;font-style:normal;font-weight:normal;text-anchor:middle;" transform="rotate(-0, 65.045455, 116.474063)" x="65.045455" y="116.474063">Exc</text>
    </g>
   </g>
   <g id="matplotlib.axis_2">
    <g id="ytick_1">
     <g id="line2d_6"/>
     <g id="text_5">
      <text style="font-family:Arial;font-size:8px;font-style:normal;font-weight:normal;text-anchor:end;" transform="rotate(-0, 23.5, 97.363125)" x="23.5" y="97.363125">0</text>
     </g>
    </g>
    <g id="ytick_2">
     <g id="line2d_7"/>
     <g id="text_6">
      <text style="font-family:Arial;font-size:8px;font-style:normal;font-weight:normal;text-anchor:end;" transform="rotate(-0, 23.5, 67.31033)" x="23.5" y="67.31033">5</text>
     </g>
    </g>
    <g id="ytick_3">
     <g id="line2d_8"/>
     <g id="text_7">
      <text style="font-family:Arial;font-size:8px;font-style:normal;font-weight:normal;text-anchor:end;" transform="rotate(-0, 23.5, 37.257535)" x="23.5" y="37.257535">10</text>
     </g>
    </g>
    <g id="text_8">
     <text style="font-family:Arial;font-size:10px;font-style:normal;font-weight:normal;text-anchor:middle;" transform="rotate(-90, 8.615, 53.73)" x="8.615" y="53.73">Inh</text>
    </g>
   </g>
   <g id="legend_1">
    <g id="line2d_9">
     <path d="M 36 75.622656 
L 56 75.622656 
" style="fill:none;stroke:#000000;stroke-dasharray:1.85,0.8;stroke-dashoffset:0;stroke-width:0.5;"/>
    </g>
    <g id="line2d_10"/>
    <g id="text_9">
     <!-- $R^2$ 0.41 -->
     <g transform="translate(64 72.875)">
      <text>
       <tspan style="font-family:DejaVu Sans;font-size:10px;font-style:oblique;font-weight:oblique;" x="0" y="-0.9765625">R</tspan>
       <tspan style="font-family:DejaVu Sans;font-size:7px;font-style:book;font-weight:book;" x="7.650794" y="-4.8046875">2</tspan>
       <tspan style="font-family:Arial;font-size:10px;font-style:regular;font-weight:regular;" x="12.377845 15.156165 20.717689 23.496009 29.057533" y="-0.9765625"> 0.41</tspan>
      </text>
     </g>
     <text style="font-family:Arial;font-size:10px;font-style:normal;font-weight:normal;" transform="translate(64 83.4875)"> slope 1.40</text>
    </g>
   </g>
  </g>
  <g id="axes_2">
   <g id="patch_5">
    <path d="M 118.309091 94.5 
L 194.4 94.5 
L 194.4 12.96 
L 118.309091 12.96 
z
" style="fill:#ffffff;"/>
   </g>
   <g id="PathCollection_1">
    <defs>
     <path d="M 0 2.44949 
C 0.649612 2.44949 1.272706 2.191396 1.732051 1.732051 
C 2.191396 1.272706 2.44949 0.649612 2.44949 0 
C 2.44949 -0.649612 2.191396 -1.272706 1.732051 -1.732051 
C 1.272706 -2.191396 0.649612 -2.44949 0 -2.44949 
C -0.649612 -2.44949 -1.272706 -2.191396 -1.732051 -1.732051 
C -2.191396 -1.272706 -2.44949 -0.649612 -2.44949 0 
C -2.44949 0.649612 -2.191396 1.272706 -1.732051 1.732051 
C -1.272706 2.191396 -0.649612 2.44949 0 2.44949 
z
" id="m7315df8b01" style="stroke:#000000;"/>
    </defs>
    <g clip-path="url(#p4fe0897bba)">
     <use style="stroke:#000000;" x="124.381393" xlink:href="#m7315df8b01" y="88.708588"/>
     <use style="stroke:#000000;" x="143.612829" xlink:href="#m7315df8b01" y="72.852506"/>
     <use style="stroke:#000000;" x="126.325264" xlink:href="#m7315df8b01" y="82.555274"/>
     <use style="stroke:#000000;" x="131.68524" xlink:href="#m7315df8b01" y="82.286181"/>
     <use style="stroke:#000000;" x="165.183085" xlink:href="#m7315df8b01" y="47.608296"/>
     <use style="stroke:#000000;" x="131.49517" xlink:href="#m7315df8b01" y="85.799601"/>
     <use style="stroke:#000000;" x="121.777193" xlink:href="#m7315df8b01" y="89.506004"/>
     <use style="stroke:#000000;" x="124.458326" xlink:href="#m7315df8b01" y="91.214657"/>
     <use style="stroke:#000000;" x="134.072243" xlink:href="#m7315df8b01" y="86.514424"/>
     <use style="stroke:#000000;" x="137.538441" xlink:href="#m7315df8b01" y="85.757927"/>
     <use style="stroke:#000000;" x="136.729331" xlink:href="#m7315df8b01" y="57.71318"/>
     <use style="stroke:#000000;" x="128.777037" xlink:href="#m7315df8b01" y="87.330837"/>
     <use style="stroke:#000000;" x="126.799863" xlink:href="#m7315df8b01" y="80.255358"/>
     <use style="stroke:#000000;" x="127.565232" xlink:href="#m7315df8b01" y="81.929057"/>
     <use style="stroke:#000000;" x="121.562339" xlink:href="#m7315df8b01" y="94.5"/>
     <use style="stroke:#000000;" x="190.53758" xlink:href="#m7315df8b01" y="20.939655"/>
     <use style="stroke:#000000;" x="122.63699" xlink:href="#m7315df8b01" y="88.531898"/>
     <use style="stroke:#000000;" x="131.056434" xlink:href="#m7315df8b01" y="73.053241"/>
     <use style="stroke:#000000;" x="118.309091" xlink:href="#m7315df8b01" y="94.5"/>
     <use style="stroke:#000000;" x="126.161054" xlink:href="#m7315df8b01" y="84.919084"/>
     <use style="stroke:#000000;" x="138.685806" xlink:href="#m7315df8b01" y="79.207067"/>
     <use style="stroke:#000000;" x="132.060092" xlink:href="#m7315df8b01" y="85.077279"/>
     <use style="stroke:#000000;" x="160.919772" xlink:href="#m7315df8b01" y="66.47879"/>
     <use style="stroke:#000000;" x="127.331756" xlink:href="#m7315df8b01" y="90.443908"/>
     <use style="stroke:#000000;" x="135.54595" xlink:href="#m7315df8b01" y="82.63552"/>
     <use style="stroke:#000000;" x="124.60139" xlink:href="#m7315df8b01" y="83.306548"/>
     <use style="stroke:#000000;" x="118.309091" xlink:href="#m7315df8b01" y="91.18462"/>
     <use style="stroke:#000000;" x="132.798944" xlink:href="#m7315df8b01" y="83.08122"/>
     <use style="stroke:#000000;" x="120.778114" xlink:href="#m7315df8b01" y="68.483399"/>
     <use style="stroke:#000000;" x="124.435892" xlink:href="#m7315df8b01" y="87.229626"/>
    </g>
   </g>
   <g id="line2d_11">
    <path clip-path="url(#p4fe0897bba)" d="M 118.309091 92.606774 
L 119.077686 91.930122 
L 119.846281 91.253469 
L 120.614876 90.576816 
L 121.383471 89.900164 
L 122.152066 89.223511 
L 122.920661 88.546858 
L 123.689256 87.870206 
L 124.457851 87.193553 
L 125.226446 86.516901 
L 125.995041 85.840248 
L 126.763636 85.163595 
L 127.532231 84.486943 
L 128.300826 83.81029 
L 129.069421 83.133637 
L 129.838017 82.456985 
L 130.606612 81.780332 
L 131.375207 81.10368 
L 132.143802 80.427027 
L 132.912397 79.750374 
L 133.680992 79.073722 
L 134.449587 78.397069 
L 135.218182 77.720417 
L 135.986777 77.043764 
L 136.755372 76.367111 
L 137.523967 75.690459 
L 138.292562 75.013806 
L 139.061157 74.337153 
L 139.829752 73.660501 
L 140.598347 72.983848 
L 141.366942 72.307196 
L 142.135537 71.630543 
L 142.904132 70.95389 
L 143.672727 70.277238 
L 144.441322 69.600585 
L 145.209917 68.923932 
L 145.978512 68.24728 
L 146.747107 67.570627 
L 147.515702 66.893975 
L 148.284298 66.217322 
L 149.052893 65.540669 
L 149.821488 64.864017 
L 150.590083 64.187364 
L 151.358678 63.510712 
L 152.127273 62.834059 
L 152.895868 62.157406 
L 153.664463 61.480754 
L 154.433058 60.804101 
L 155.201653 60.127448 
L 155.970248 59.450796 
L 156.738843 58.774143 
L 157.507438 58.097491 
L 158.276033 57.420838 
L 159.044628 56.744185 
L 159.813223 56.067533 
L 160.581818 55.39088 
L 161.350413 54.714227 
L 162.119008 54.037575 
L 162.887603 53.360922 
L 163.656198 52.68427 
L 164.424793 52.007617 
L 165.193388 51.330964 
L 165.961983 50.654312 
L 166.730579 49.977659 
L 167.499174 49.301007 
L 168.267769 48.624354 
L 169.036364 47.947701 
L 169.804959 47.271049 
L 170.573554 46.594396 
L 171.342149 45.917743 
L 172.110744 45.241091 
L 172.879339 44.564438 
L 173.647934 43.887786 
L 174.416529 43.211133 
L 175.185124 42.53448 
L 175.953719 41.857828 
L 176.722314 41.181175 
L 177.490909 40.504522 
L 178.259504 39.82787 
L 179.028099 39.151217 
L 179.796694 38.474565 
L 180.565289 37.797912 
L 181.333884 37.121259 
L 182.102479 36.444607 
L 182.871074 35.767954 
L 183.639669 35.091302 
L 184.408264 34.414649 
L 185.17686 33.737996 
L 185.945455 33.061344 
L 186.71405 32.384691 
L 187.482645 31.708038 
L 188.25124 31.031386 
L 189.019835 30.354733 
L 189.78843 29.678081 
L 190.557025 29.001428 
L 191.32562 28.324775 
L 192.094215 27.648123 
L 192.86281 26.97147 
L 193.631405 26.294817 
L 194.4 25.618165 
" style="fill:none;stroke:#000000;stroke-dasharray:1.85,0.8;stroke-dashoffset:0;stroke-width:0.5;"/>
   </g>
   <g id="patch_6">
    <path d="M 118.309091 94.5 
L 118.309091 12.96 
" style="fill:none;stroke:#000000;stroke-linecap:square;stroke-linejoin:miter;"/>
   </g>
   <g id="patch_7">
    <path d="M 118.309091 94.5 
L 194.4 94.5 
" style="fill:none;stroke:#000000;stroke-linecap:square;stroke-linejoin:miter;"/>
   </g>
   <g id="matplotlib.axis_3">
    <g id="xtick_4">
     <g id="line2d_12"/>
     <g id="text_10">
      <text style="font-family:Arial;font-size:8px;font-style:normal;font-weight:normal;text-anchor:middle;" transform="rotate(-0, 118.309091, 103.72625)" x="118.309091" y="103.72625">0</text>
     </g>
    </g>
    <g id="xtick_5">
     <g id="line2d_13"/>
     <g id="text_11">
      <text style="font-family:Arial;font-size:8px;font-style:normal;font-weight:normal;text-anchor:middle;" transform="rotate(-0, 146.661509, 103.72625)" x="146.661509" y="103.72625">2</text>
     </g>
    </g>
    <g id="xtick_6">
     <g id="line2d_14"/>
     <g id="text_12">
      <text style="font-family:Arial;font-size:8px;font-style:normal;font-weight:normal;text-anchor:middle;" transform="rotate(-0, 175.013928, 103.72625)" x="175.013928" y="103.72625">4</text>
     </g>
    </g>
    <g id="text_13">
     <!-- $\sigma$(Exc) -->
     <g transform="translate(141.504545 116.61625)">
      <text>
       <tspan style="font-family:DejaVu Sans;font-size:10px;font-style:oblique;font-weight:oblique;" x="0" y="-0.71875">σ</tspan>
       <tspan style="font-family:Arial;font-size:10px;font-style:regular;font-weight:regular;" x="6.337891 9.667969 16.337891 21.337891 26.337891" y="-0.71875">(Exc)</tspan>
      </text>
     </g>
    </g>
   </g>
   <g id="matplotlib.axis_4">
    <g id="ytick_4">
     <g id="line2d_15"/>
     <g id="text_14">
      <text style="font-family:Arial;font-size:8px;font-style:normal;font-weight:normal;text-anchor:end;" transform="rotate(-0, 114.809091, 97.363125)" x="114.809091" y="97.363125">0</text>
     </g>
    </g>
    <g id="ytick_5">
     <g id="line2d_16"/>
     <g id="text_15">
      <text style="font-family:Arial;font-size:8px;font-style:normal;font-weight:normal;text-anchor:end;" transform="rotate(-0, 114.809091, 66.980307)" x="114.809091" y="66.980307">2</text>
     </g>
    </g>
    <g id="ytick_6">
     <g id="line2d_17"/>
     <g id="text_16">
      <text style="font-family:Arial;font-size:8px;font-style:normal;font-weight:normal;text-anchor:end;" transform="rotate(-0, 114.809091, 36.59749)" x="114.809091" y="36.59749">4</text>
     </g>
    </g>
    <g id="text_17">
     <!-- $\sigma$(Inh) -->
     <g transform="translate(104.160341 67.18)rotate(-90)">
      <text>
       <tspan style="font-family:DejaVu Sans;font-size:10px;font-style:oblique;font-weight:oblique;" x="0" y="-0.71875">σ</tspan>
       <tspan style="font-family:Arial;font-size:10px;font-style:regular;font-weight:regular;" x="6.337891 9.667969 12.446289 18.007812 23.569336" y="-0.71875">(Inh)</tspan>
      </text>
     </g>
    </g>
   </g>
   <g id="legend_2">
    <g id="line2d_18">
     <path d="M 108.478125 31.995156 
L 128.478125 31.995156 
" style="fill:none;stroke:#000000;stroke-dasharray:1.85,0.8;stroke-dashoffset:0;stroke-width:0.5;"/>
    </g>
    <g id="line2d_19"/>
    <g id="text_18">
     <!-- $R^2$ 0.77 -->
     <g transform="translate(136.478125 29.2475)">
      <text>
       <tspan style="font-family:DejaVu Sans;font-size:10px;font-style:oblique;font-weight:oblique;" x="0" y="-0.9765625">R</tspan>
       <tspan style="font-family:DejaVu Sans;font-size:7px;font-style:book;font-weight:book;" x="7.650794" y="-4.8046875">2</tspan>
       <tspan style="font-family:Arial;font-size:10px;font-style:regular;font-weight:regular;" x="12.377845 15.156165 20.717689 23.496009 29.057533" y="-0.9765625"> 0.77</tspan>
      </text>
     </g>
     <text style="font-family:Arial;font-size:10px;font-style:normal;font-weight:normal;" transform="translate(136.478125 39.86)"> slope 0.82</text>
    </g>
   </g>
  </g>
 </g>
 <defs>
  <clipPath id="p5ce8147014">
   <rect height="81.54" width="76.090909" x="27" y="12.96"/>
  </clipPath>
  <clipPath id="p4fe0897bba">
   <rect height="81.54" width="76.090909" x="118.309091" y="12.96"/>
  </clipPath>
 </defs>
</svg>
