<?xml version="1.0" encoding="utf-8" standalone="no"?>
<!DOCTYPE svg PUBLIC "-//W3C//DTD SVG 1.1//EN"
  "http://www.w3.org/Graphics/SVG/1.1/DTD/svg11.dtd">
<!-- Created with matplotlib (http://matplotlib.org/) -->
<svg height="108pt" version="1.1" viewBox="0 0 216 108" width="216pt" xmlns="http://www.w3.org/2000/svg" xmlns:xlink="http://www.w3.org/1999/xlink">
 <defs>
  <style type="text/css">
*{stroke-linecap:butt;stroke-linejoin:round;}
  </style>
 </defs>
 <g id="figure_1">
  <g id="patch_1">
   <path d="M 0 108 
L 216 108 
L 216 0 
L 0 0 
z
" style="fill:#ffffff;"/>
  </g>
  <g id="axes_1">
   <g id="patch_2">
    <path d="M 27 94.5 
L 103.090909 94.5 
L 103.090909 12.96 
L 27 12.96 
z
" style="fill:#ffffff;"/>
   </g>
   <g id="LineCollection_1">
    <path clip-path="url(#p00b4fc2f53)" d="M 25.210271 66.447549 
L 40.629283 66.447549 
" style="fill:none;stroke:#000000;stroke-width:0.5;"/>
    <path clip-path="url(#p00b4fc2f53)" d="M 25.703335 81.517398 
L 33.154889 81.517398 
" style="fill:none;stroke:#000000;stroke-width:0.5;"/>
    <path clip-path="url(#p00b4fc2f53)" d="M 29.696212 44.549494 
L 49.981554 44.549494 
" style="fill:none;stroke:#000000;stroke-width:0.5;"/>
    <path clip-path="url(#p00b4fc2f53)" d="M 24.860509 67.518787 
L 39.441939 67.518787 
" style="fill:none;stroke:#000000;stroke-width:0.5;"/>
    <path clip-path="url(#p00b4fc2f53)" d="M 26.458524 84.322176 
L 32.088353 84.322176 
" style="fill:none;stroke:#000000;stroke-width:0.5;"/>
    <path clip-path="url(#p00b4fc2f53)" d="M 34.451597 40.889789 
L 41.687937 40.889789 
" style="fill:none;stroke:#000000;stroke-width:0.5;"/>
    <path clip-path="url(#p00b4fc2f53)" d="M 29.381138 55.869464 
L 45.47866 55.869464 
" style="fill:none;stroke:#000000;stroke-width:0.5;"/>
    <path clip-path="url(#p00b4fc2f53)" d="M 27.203636 52.482093 
L 47.209625 52.482093 
" style="fill:none;stroke:#000000;stroke-width:0.5;"/>
    <path clip-path="url(#p00b4fc2f53)" d="M 29.886172 66.530267 
L 33.001186 66.530267 
" style="fill:none;stroke:#000000;stroke-width:0.5;"/>
    <path clip-path="url(#p00b4fc2f53)" d="M 25.573819 55.651152 
L 36.138234 55.651152 
" style="fill:none;stroke:#000000;stroke-width:0.5;"/>
    <path clip-path="url(#p00b4fc2f53)" d="M 20.892857 63.790395 
L 48.099782 63.790395 
" style="fill:none;stroke:#000000;stroke-width:0.5;"/>
    <path clip-path="url(#p00b4fc2f53)" d="M 19.955297 63.272552 
L 47.276758 63.272552 
" style="fill:none;stroke:#000000;stroke-width:0.5;"/>
    <path clip-path="url(#p00b4fc2f53)" d="M 30.223959 64.611704 
L 44.903573 64.611704 
" style="fill:none;stroke:#000000;stroke-width:0.5;"/>
    <path clip-path="url(#p00b4fc2f53)" d="M 26.577874 79.125404 
L 32.516612 79.125404 
" style="fill:none;stroke:#000000;stroke-width:0.5;"/>
    <path clip-path="url(#p00b4fc2f53)" d="M 25.895743 84.716128 
L 30.964932 84.716128 
" style="fill:none;stroke:#000000;stroke-width:0.5;"/>
    <path clip-path="url(#p00b4fc2f53)" d="M 26.172503 45.249683 
L 38.201382 45.249683 
" style="fill:none;stroke:#000000;stroke-width:0.5;"/>
    <path clip-path="url(#p00b4fc2f53)" d="M 26.439791 70.896042 
L 40.5328 70.896042 
" style="fill:none;stroke:#000000;stroke-width:0.5;"/>
    <path clip-path="url(#p00b4fc2f53)" d="M 27.233948 76.292239 
L 35.313608 76.292239 
" style="fill:none;stroke:#000000;stroke-width:0.5;"/>
    <path clip-path="url(#p00b4fc2f53)" d="M 25.853315 88.595338 
L 32.322573 88.595338 
" style="fill:none;stroke:#000000;stroke-width:0.5;"/>
    <path clip-path="url(#p00b4fc2f53)" d="M 28.917017 73.405267 
L 42.852179 73.405267 
" style="fill:none;stroke:#000000;stroke-width:0.5;"/>
    <path clip-path="url(#p00b4fc2f53)" d="M 27 94.213061 
L 27 94.213061 
" style="fill:none;stroke:#000000;stroke-width:0.5;"/>
    <path clip-path="url(#p00b4fc2f53)" d="M 26.734747 76.538347 
L 32.774884 76.538347 
" style="fill:none;stroke:#000000;stroke-width:0.5;"/>
    <path clip-path="url(#p00b4fc2f53)" d="M 26.437293 79.783108 
L 34.213024 79.783108 
" style="fill:none;stroke:#000000;stroke-width:0.5;"/>
    <path clip-path="url(#p00b4fc2f53)" d="M 26.086439 83.215068 
L 31.011297 83.215068 
" style="fill:none;stroke:#000000;stroke-width:0.5;"/>
    <path clip-path="url(#p00b4fc2f53)" d="M 34.889327 62.59734 
L 47.152636 62.59734 
" style="fill:none;stroke:#000000;stroke-width:0.5;"/>
    <path clip-path="url(#p00b4fc2f53)" d="M 26.722441 82.523694 
L 33.164723 82.523694 
" style="fill:none;stroke:#000000;stroke-width:0.5;"/>
    <path clip-path="url(#p00b4fc2f53)" d="M 26.235556 51.65847 
L 42.773497 51.65847 
" style="fill:none;stroke:#000000;stroke-width:0.5;"/>
    <path clip-path="url(#p00b4fc2f53)" d="M 25.281677 23.808952 
L 91.943209 23.808952 
" style="fill:none;stroke:#000000;stroke-width:0.5;"/>
    <path clip-path="url(#p00b4fc2f53)" d="M 26.747284 54.667619 
L 39.809166 54.667619 
" style="fill:none;stroke:#000000;stroke-width:0.5;"/>
    <path clip-path="url(#p00b4fc2f53)" d="M 25.690885 73.241639 
L 37.496641 73.241639 
" style="fill:none;stroke:#000000;stroke-width:0.5;"/>
   </g>
   <g id="LineCollection_2">
    <path clip-path="url(#p00b4fc2f53)" d="M 32.919777 74.653053 
L 32.919777 58.242046 
" style="fill:none;stroke:#000000;stroke-width:0.5;"/>
    <path clip-path="url(#p00b4fc2f53)" d="M 29.429112 86.348453 
L 29.429112 76.686343 
" style="fill:none;stroke:#000000;stroke-width:0.5;"/>
    <path clip-path="url(#p00b4fc2f53)" d="M 39.838883 58.290214 
L 39.838883 30.808774 
" style="fill:none;stroke:#000000;stroke-width:0.5;"/>
    <path clip-path="url(#p00b4fc2f53)" d="M 32.151224 71.752104 
L 32.151224 63.285469 
" style="fill:none;stroke:#000000;stroke-width:0.5;"/>
    <path clip-path="url(#p00b4fc2f53)" d="M 29.273438 87.932558 
L 29.273438 80.711793 
" style="fill:none;stroke:#000000;stroke-width:0.5;"/>
    <path clip-path="url(#p00b4fc2f53)" d="M 38.069767 55.133786 
L 38.069767 26.645792 
" style="fill:none;stroke:#000000;stroke-width:0.5;"/>
    <path clip-path="url(#p00b4fc2f53)" d="M 37.429899 69.058179 
L 37.429899 42.680749 
" style="fill:none;stroke:#000000;stroke-width:0.5;"/>
    <path clip-path="url(#p00b4fc2f53)" d="M 37.206631 65.158991 
L 37.206631 39.805195 
" style="fill:none;stroke:#000000;stroke-width:0.5;"/>
    <path clip-path="url(#p00b4fc2f53)" d="M 31.443679 75.292518 
L 31.443679 57.768016 
" style="fill:none;stroke:#000000;stroke-width:0.5;"/>
    <path clip-path="url(#p00b4fc2f53)" d="M 30.856027 64.663755 
L 30.856027 46.638548 
" style="fill:none;stroke:#000000;stroke-width:0.5;"/>
    <path clip-path="url(#p00b4fc2f53)" d="M 34.496319 81.381557 
L 34.496319 46.199233 
" style="fill:none;stroke:#000000;stroke-width:0.5;"/>
    <path clip-path="url(#p00b4fc2f53)" d="M 33.616027 81.427992 
L 33.616027 45.117112 
" style="fill:none;stroke:#000000;stroke-width:0.5;"/>
    <path clip-path="url(#p00b4fc2f53)" d="M 37.563766 72.318974 
L 37.563766 56.904434 
" style="fill:none;stroke:#000000;stroke-width:0.5;"/>
    <path clip-path="url(#p00b4fc2f53)" d="M 29.547243 85.498768 
L 29.547243 72.752039 
" style="fill:none;stroke:#000000;stroke-width:0.5;"/>
    <path clip-path="url(#p00b4fc2f53)" d="M 28.430337 88.953525 
L 28.430337 80.478732 
" style="fill:none;stroke:#000000;stroke-width:0.5;"/>
    <path clip-path="url(#p00b4fc2f53)" d="M 32.186943 54.004173 
L 32.186943 36.495193 
" style="fill:none;stroke:#000000;stroke-width:0.5;"/>
    <path clip-path="url(#p00b4fc2f53)" d="M 33.486296 74.047026 
L 33.486296 67.745059 
" style="fill:none;stroke:#000000;stroke-width:0.5;"/>
    <path clip-path="url(#p00b4fc2f53)" d="M 31.273778 78.841406 
L 31.273778 73.743072 
" style="fill:none;stroke:#000000;stroke-width:0.5;"/>
    <path clip-path="url(#p00b4fc2f53)" d="M 29.087944 91.489199 
L 29.087944 85.701477 
" style="fill:none;stroke:#000000;stroke-width:0.5;"/>
    <path clip-path="url(#p00b4fc2f53)" d="M 35.884598 83.249326 
L 35.884598 63.561208 
" style="fill:none;stroke:#000000;stroke-width:0.5;"/>
    <path clip-path="url(#p00b4fc2f53)" d="M 27 94.527387 
L 27 93.898734 
" style="fill:none;stroke:#000000;stroke-width:0.5;"/>
    <path clip-path="url(#p00b4fc2f53)" d="M 29.754815 83.439954 
L 29.754815 69.636739 
" style="fill:none;stroke:#000000;stroke-width:0.5;"/>
    <path clip-path="url(#p00b4fc2f53)" d="M 30.325159 83.582419 
L 30.325159 75.983797 
" style="fill:none;stroke:#000000;stroke-width:0.5;"/>
    <path clip-path="url(#p00b4fc2f53)" d="M 28.548868 87.642755 
L 28.548868 78.787381 
" style="fill:none;stroke:#000000;stroke-width:0.5;"/>
    <path clip-path="url(#p00b4fc2f53)" d="M 41.020981 75.257852 
L 41.020981 49.936828 
" style="fill:none;stroke:#000000;stroke-width:0.5;"/>
    <path clip-path="url(#p00b4fc2f53)" d="M 29.943582 85.748084 
L 29.943582 79.299305 
" style="fill:none;stroke:#000000;stroke-width:0.5;"/>
    <path clip-path="url(#p00b4fc2f53)" d="M 34.504526 60.779467 
L 34.504526 42.537474 
" style="fill:none;stroke:#000000;stroke-width:0.5;"/>
    <path clip-path="url(#p00b4fc2f53)" d="M 58.612443 30.773742 
L 58.612443 16.844161 
" style="fill:none;stroke:#000000;stroke-width:0.5;"/>
    <path clip-path="url(#p00b4fc2f53)" d="M 33.278225 62.077994 
L 33.278225 47.257244 
" style="fill:none;stroke:#000000;stroke-width:0.5;"/>
    <path clip-path="url(#p00b4fc2f53)" d="M 31.593763 80.83757 
L 31.593763 65.645708 
" style="fill:none;stroke:#000000;stroke-width:0.5;"/>
   </g>
   <g id="line2d_1">
    <path clip-path="url(#p00b4fc2f53)" d="M 27 81.268902 
L 27.768595 79.605895 
L 28.53719 77.942888 
L 29.305785 76.279881 
L 30.07438 74.616874 
L 30.842975 72.953868 
L 31.61157 71.290861 
L 32.380165 69.627854 
L 33.14876 67.964847 
L 33.917355 66.30184 
L 34.68595 64.638833 
L 35.454545 62.975826 
L 36.22314 61.31282 
L 36.991736 59.649813 
L 37.760331 57.986806 
L 38.528926 56.323799 
L 39.297521 54.660792 
L 40.066116 52.997785 
L 40.834711 51.334778 
L 41.603306 49.671772 
L 42.371901 48.008765 
L 43.140496 46.345758 
L 43.909091 44.682751 
L 44.677686 43.019744 
L 45.446281 41.356737 
L 46.214876 39.69373 
L 46.983471 38.030724 
L 47.752066 36.367717 
L 48.520661 34.70471 
L 49.289256 33.041703 
L 50.057851 31.378696 
L 50.826446 29.715689 
L 51.595041 28.052682 
L 52.363636 26.389676 
L 53.132231 24.726669 
L 53.900826 23.063662 
L 54.669421 21.400655 
L 55.438017 19.737648 
L 56.206612 18.074641 
L 56.975207 16.411634 
L 57.743802 14.748628 
L 58.512397 13.085621 
L 59.280992 11.422614 
L 60.049587 9.759607 
L 60.818182 8.0966 
L 61.586777 6.433593 
L 62.355372 4.770586 
L 63.123967 3.10758 
L 63.892562 1.444573 
L 64.661157 -0.218434 
L 65.022375 -1 
" style="fill:none;stroke:#000000;stroke-dasharray:1.85,0.8;stroke-dashoffset:0;stroke-width:0.5;"/>
   </g>
   <g id="line2d_2">
    <defs>
     <path d="M 0 3 
C 0.795609 3 1.55874 2.683901 2.12132 2.12132 
C 2.683901 1.55874 3 0.795609 3 0 
C 3 -0.795609 2.683901 -1.55874 2.12132 -2.12132 
C 1.55874 -2.683901 0.795609 -3 0 -3 
C -0.795609 -3 -1.55874 -2.683901 -2.12132 -2.12132 
C -2.683901 -1.55874 -3 -0.795609 -3 0 
C -3 0.795609 -2.683901 1.55874 -2.12132 2.12132 
C -1.55874 2.683901 -0.795609 3 0 3 
z
" id="m2148eada21" style="stroke:#000000;"/>
    </defs>
    <g clip-path="url(#p00b4fc2f53)">
     <use style="stroke:#000000;" x="32.919777" xlink:href="#m2148eada21" y="66.447549"/>
     <use style="stroke:#000000;" x="29.429112" xlink:href="#m2148eada21" y="81.517398"/>
     <use style="stroke:#000000;" x="39.838883" xlink:href="#m2148eada21" y="44.549494"/>
     <use style="stroke:#000000;" x="32.151224" xlink:href="#m2148eada21" y="67.518787"/>
     <use style="stroke:#000000;" x="29.273438" xlink:href="#m2148eada21" y="84.322176"/>
     <use style="stroke:#000000;" x="38.069767" xlink:href="#m2148eada21" y="40.889789"/>
     <use style="stroke:#000000;" x="37.429899" xlink:href="#m2148eada21" y="55.869464"/>
     <use style="stroke:#000000;" x="37.206631" xlink:href="#m2148eada21" y="52.482093"/>
     <use style="stroke:#000000;" x="31.443679" xlink:href="#m2148eada21" y="66.530267"/>
     <use style="stroke:#000000;" x="30.856027" xlink:href="#m2148eada21" y="55.651152"/>
     <use style="stroke:#000000;" x="34.496319" xlink:href="#m2148eada21" y="63.790395"/>
     <use style="stroke:#000000;" x="33.616027" xlink:href="#m2148eada21" y="63.272552"/>
     <use style="stroke:#000000;" x="37.563766" xlink:href="#m2148eada21" y="64.611704"/>
     <use style="stroke:#000000;" x="29.547243" xlink:href="#m2148eada21" y="79.125404"/>
     <use style="stroke:#000000;" x="28.430337" xlink:href="#m2148eada21" y="84.716128"/>
     <use style="stroke:#000000;" x="32.186943" xlink:href="#m2148eada21" y="45.249683"/>
     <use style="stroke:#000000;" x="33.486296" xlink:href="#m2148eada21" y="70.896042"/>
     <use style="stroke:#000000;" x="31.273778" xlink:href="#m2148eada21" y="76.292239"/>
     <use style="stroke:#000000;" x="29.087944" xlink:href="#m2148eada21" y="88.595338"/>
     <use style="stroke:#000000;" x="35.884598" xlink:href="#m2148eada21" y="73.405267"/>
     <use style="stroke:#000000;" x="27" xlink:href="#m2148eada21" y="94.213061"/>
     <use style="stroke:#000000;" x="29.754815" xlink:href="#m2148eada21" y="76.538347"/>
     <use style="stroke:#000000;" x="30.325159" xlink:href="#m2148eada21" y="79.783108"/>
     <use style="stroke:#000000;" x="28.548868" xlink:href="#m2148eada21" y="83.215068"/>
     <use style="stroke:#000000;" x="41.020981" xlink:href="#m2148eada21" y="62.59734"/>
     <use style="stroke:#000000;" x="29.943582" xlink:href="#m2148eada21" y="82.523694"/>
     <use style="stroke:#000000;" x="34.504526" xlink:href="#m2148eada21" y="51.65847"/>
     <use style="stroke:#000000;" x="58.612443" xlink:href="#m2148eada21" y="23.808952"/>
     <use style="stroke:#000000;" x="33.278225" xlink:href="#m2148eada21" y="54.667619"/>
     <use style="stroke:#000000;" x="31.593763" xlink:href="#m2148eada21" y="73.241639"/>
    </g>
   </g>
   <g id="patch_3">
    <path d="M 27 94.5 
L 27 12.96 
" style="fill:none;stroke:#000000;stroke-linecap:square;stroke-linejoin:miter;"/>
   </g>
   <g id="patch_4">
    <path d="M 27 94.5 
L 103.090909 94.5 
" style="fill:none;stroke:#000000;stroke-linecap:square;stroke-linejoin:miter;"/>
   </g>
   <g id="matplotlib.axis_1">
    <g id="xtick_1">
     <g id="line2d_3"/>
     <g id="text_1">
      <text style="font-family:Arial;font-size:8px;font-style:normal;font-weight:normal;text-anchor:middle;" transform="rotate(-0, 27, 103.72625)" x="27" y="103.72625">0</text>
     </g>
    </g>
    <g id="xtick_2">
     <g id="line2d_4"/>
     <g id="text_2">
      <text style="font-family:Arial;font-size:8px;font-style:normal;font-weight:normal;text-anchor:middle;" transform="rotate(-0, 53.800242, 103.72625)" x="53.800242" y="103.72625">5</text>
     </g>
    </g>
    <g id="xtick_3">
     <g id="line2d_5"/>
     <g id="text_3">
      <text style="font-family:Arial;font-size:8px;font-style:normal;font-weight:normal;text-anchor:middle;" transform="rotate(-0, 80.600485, 103.72625)" x="80.600485" y="103.72625">10</text>
     </g>
    </g>
    <g id="text_4">
     <text style="font-family:Arial;font-size:10px;font-style:normal;font-weight:normal;text-anchor:middle;" transform="rotate(-0, 65.045455, 116.474063)" x="65.045455" y="116.474063">Exc</text>
    </g>
   </g>
   <g id="matplotlib.axis_2">
    <g id="ytick_1">
     <g id="line2d_6"/>
     <g id="text_5">
      <text style="font-family:Arial;font-size:8px;font-style:normal;font-weight:normal;text-anchor:end;" transform="rotate(-0, 23.5, 97.363125)" x="23.5" y="97.363125">0</text>
     </g>
    </g>
    <g id="ytick_2">
     <g id="line2d_7"/>
     <g id="text_6">
      <text style="font-family:Arial;font-size:8px;font-style:normal;font-weight:normal;text-anchor:end;" transform="rotate(-0, 23.5, 68.64364)" x="23.5" y="68.64364">5</text>
     </g>
    </g>
    <g id="ytick_3">
     <g id="line2d_8"/>
     <g id="text_7">
      <text style="font-family:Arial;font-size:8px;font-style:normal;font-weight:normal;text-anchor:end;" transform="rotate(-0, 23.5, 39.924154)" x="23.5" y="39.924154">10</text>
     </g>
    </g>
    <g id="text_8">
     <text style="font-family:Arial;font-size:10px;font-style:normal;font-weight:normal;text-anchor:middle;" transform="rotate(-90, 8.615, 53.73)" x="8.615" y="53.73">Inh</text>
    </g>
   </g>
   <g id="legend_1">
    <g id="line2d_9">
     <path d="M 36 75.622656 
L 56 75.622656 
" style="fill:none;stroke:#000000;stroke-dasharray:1.85,0.8;stroke-dashoffset:0;stroke-width:0.5;"/>
    </g>
    <g id="line2d_10"/>
    <g id="text_9">
     <!-- $R^2$ 0.64 -->
     <g transform="translate(64 72.875)">
      <text>
       <tspan style="font-family:DejaVu Sans;font-size:10px;font-style:oblique;font-weight:oblique;" x="0" y="-0.9765625">R</tspan>
       <tspan style="font-family:DejaVu Sans;font-size:7px;font-style:book;font-weight:book;" x="7.650794" y="-4.8046875">2</tspan>
       <tspan style="font-family:Arial;font-size:10px;font-style:regular;font-weight:regular;" x="12.377845 15.156165 20.717689 23.496009 29.057533" y="-0.9765625"> 0.64</tspan>
      </text>
     </g>
     <text style="font-family:Arial;font-size:10px;font-style:normal;font-weight:normal;" transform="translate(64 83.4875)"> slope 2.02</text>
    </g>
   </g>
  </g>
  <g id="axes_2">
   <g id="patch_5">
    <path d="M 118.309091 94.5 
L 194.4 94.5 
L 194.4 12.96 
L 118.309091 12.96 
z
" style="fill:#ffffff;"/>
   </g>
   <g id="PathCollection_1">
    <defs>
     <path d="M 0 2.44949 
C 0.649612 2.44949 1.272706 2.191396 1.732051 1.732051 
C 2.191396 1.272706 2.44949 0.649612 2.44949 0 
C 2.44949 -0.649612 2.191396 -1.272706 1.732051 -1.732051 
C 1.272706 -2.191396 0.649612 -2.44949 0 -2.44949 
C -0.649612 -2.44949 -1.272706 -2.191396 -1.732051 -1.732051 
C -2.191396 -1.272706 -2.44949 -0.649612 -2.44949 0 
C -2.44949 0.649612 -2.191396 1.272706 -1.732051 1.732051 
C -1.272706 2.191396 -0.649612 2.44949 0 2.44949 
z
" id="mcf504f6659" style="stroke:#000000;"/>
    </defs>
    <g clip-path="url(#p77d924f3c1)">
     <use style="stroke:#000000;" x="135.025718" xlink:href="#mcf504f6659" y="76.707895"/>
     <use style="stroke:#000000;" x="126.387745" xlink:href="#mcf504f6659" y="84.024758"/>
     <use style="stroke:#000000;" x="140.301583" xlink:href="#mcf504f6659" y="64.705809"/>
     <use style="stroke:#000000;" x="134.117647" xlink:href="#mcf504f6659" y="85.32084"/>
     <use style="stroke:#000000;" x="124.412709" xlink:href="#mcf504f6659" y="86.671558"/>
     <use style="stroke:#000000;" x="126.154418" xlink:href="#mcf504f6659" y="63.614547"/>
     <use style="stroke:#000000;" x="135.76133" xlink:href="#mcf504f6659" y="65.902729"/>
     <use style="stroke:#000000;" x="139.99872" xlink:href="#mcf504f6659" y="67.012509"/>
     <use style="stroke:#000000;" x="121.686254" xlink:href="#mcf504f6659" y="75.500691"/>
     <use style="stroke:#000000;" x="129.762573" xlink:href="#mcf504f6659" y="74.957849"/>
     <use style="stroke:#000000;" x="147.805664" xlink:href="#mcf504f6659" y="56.356844"/>
     <use style="stroke:#000000;" x="147.929839" xlink:href="#mcf504f6659" y="55.133313"/>
     <use style="stroke:#000000;" x="134.224095" xlink:href="#mcf504f6659" y="77.788222"/>
     <use style="stroke:#000000;" x="124.747615" xlink:href="#mcf504f6659" y="80.680547"/>
     <use style="stroke:#000000;" x="123.804886" xlink:href="#mcf504f6659" y="85.311996"/>
     <use style="stroke:#000000;" x="131.350281" xlink:href="#mcf504f6659" y="75.51752"/>
     <use style="stroke:#000000;" x="133.588122" xlink:href="#mcf504f6659" y="87.66768"/>
     <use style="stroke:#000000;" x="127.06871" xlink:href="#mcf504f6659" y="88.972606"/>
     <use style="stroke:#000000;" x="125.32278" xlink:href="#mcf504f6659" y="88.225201"/>
     <use style="stroke:#000000;" x="133.416991" xlink:href="#mcf504f6659" y="73.154993"/>
     <use style="stroke:#000000;" x="118.309091" xlink:href="#mcf504f6659" y="93.818442"/>
     <use style="stroke:#000000;" x="124.857547" xlink:href="#mcf504f6659" y="79.535151"/>
     <use style="stroke:#000000;" x="126.739202" xlink:href="#mcf504f6659" y="86.261902"/>
     <use style="stroke:#000000;" x="123.648409" xlink:href="#mcf504f6659" y="84.899385"/>
     <use style="stroke:#000000;" x="131.604441" xlink:href="#mcf504f6659" y="67.048039"/>
     <use style="stroke:#000000;" x="125.293535" xlink:href="#mcf504f6659" y="87.508512"/>
     <use style="stroke:#000000;" x="136.238812" xlink:href="#mcf504f6659" y="74.722819"/>
     <use style="stroke:#000000;" x="190.580645" xlink:href="#mcf504f6659" y="79.39815"/>
     <use style="stroke:#000000;" x="132.47022" xlink:href="#mcf504f6659" y="78.431983"/>
     <use style="stroke:#000000;" x="131.108382" xlink:href="#mcf504f6659" y="78.02964"/>
    </g>
   </g>
   <g id="line2d_11">
    <path clip-path="url(#p77d924f3c1)" d="M 118.309091 81.616882 
L 119.077686 81.394634 
L 119.846281 81.172387 
L 120.614876 80.95014 
L 121.383471 80.727893 
L 122.152066 80.505646 
L 122.920661 80.283398 
L 123.689256 80.061151 
L 124.457851 79.838904 
L 125.226446 79.616657 
L 125.995041 79.39441 
L 126.763636 79.172163 
L 127.532231 78.949915 
L 128.300826 78.727668 
L 129.069421 78.505421 
L 129.838017 78.283174 
L 130.606612 78.060927 
L 131.375207 77.83868 
L 132.143802 77.616432 
L 132.912397 77.394185 
L 133.680992 77.171938 
L 134.449587 76.949691 
L 135.218182 76.727444 
L 135.986777 76.505197 
L 136.755372 76.282949 
L 137.523967 76.060702 
L 138.292562 75.838455 
L 139.061157 75.616208 
L 139.829752 75.393961 
L 140.598347 75.171713 
L 141.366942 74.949466 
L 142.135537 74.727219 
L 142.904132 74.504972 
L 143.672727 74.282725 
L 144.441322 74.060478 
L 145.209917 73.83823 
L 145.978512 73.615983 
L 146.747107 73.393736 
L 147.515702 73.171489 
L 148.284298 72.949242 
L 149.052893 72.726995 
L 149.821488 72.504747 
L 150.590083 72.2825 
L 151.358678 72.060253 
L 152.127273 71.838006 
L 152.895868 71.615759 
L 153.664463 71.393512 
L 154.433058 71.171264 
L 155.201653 70.949017 
L 155.970248 70.72677 
L 156.738843 70.504523 
L 157.507438 70.282276 
L 158.276033 70.060028 
L 159.044628 69.837781 
L 159.813223 69.615534 
L 160.581818 69.393287 
L 161.350413 69.17104 
L 162.119008 68.948793 
L 162.887603 68.726545 
L 163.656198 68.504298 
L 164.424793 68.282051 
L 165.193388 68.059804 
L 165.961983 67.837557 
L 166.730579 67.61531 
L 167.499174 67.393062 
L 168.267769 67.170815 
L 169.036364 66.948568 
L 169.804959 66.726321 
L 170.573554 66.504074 
L 171.342149 66.281827 
L 172.110744 66.059579 
L 172.879339 65.837332 
L 173.647934 65.615085 
L 174.416529 65.392838 
L 175.185124 65.170591 
L 175.953719 64.948343 
L 176.722314 64.726096 
L 177.490909 64.503849 
L 178.259504 64.281602 
L 179.028099 64.059355 
L 179.796694 63.837108 
L 180.565289 63.61486 
L 181.333884 63.392613 
L 182.102479 63.170366 
L 182.871074 62.948119 
L 183.639669 62.725872 
L 184.408264 62.503625 
L 185.17686 62.281377 
L 185.945455 62.05913 
L 186.71405 61.836883 
L 187.482645 61.614636 
L 188.25124 61.392389 
L 189.019835 61.170141 
L 189.78843 60.947894 
L 190.557025 60.725647 
L 191.32562 60.5034 
L 192.094215 60.281153 
L 192.86281 60.058906 
L 193.631405 59.836658 
L 194.4 59.614411 
" style="fill:none;stroke:#000000;stroke-dasharray:1.85,0.8;stroke-dashoffset:0;stroke-width:0.5;"/>
   </g>
   <g id="patch_6">
    <path d="M 118.309091 94.5 
L 118.309091 12.96 
" style="fill:none;stroke:#000000;stroke-linecap:square;stroke-linejoin:miter;"/>
   </g>
   <g id="patch_7">
    <path d="M 118.309091 94.5 
L 194.4 94.5 
" style="fill:none;stroke:#000000;stroke-linecap:square;stroke-linejoin:miter;"/>
   </g>
   <g id="matplotlib.axis_3">
    <g id="xtick_4">
     <g id="line2d_12"/>
     <g id="text_10">
      <text style="font-family:Arial;font-size:8px;font-style:normal;font-weight:normal;text-anchor:middle;" transform="rotate(-0, 118.309091, 103.72625)" x="118.309091" y="103.72625">0.0</text>
     </g>
    </g>
    <g id="xtick_5">
     <g id="line2d_13"/>
     <g id="text_11">
      <text style="font-family:Arial;font-size:8px;font-style:normal;font-weight:normal;text-anchor:middle;" transform="rotate(-0, 147.364756, 103.72625)" x="147.364756" y="103.72625">2.5</text>
     </g>
    </g>
    <g id="xtick_6">
     <g id="line2d_14"/>
     <g id="text_12">
      <text style="font-family:Arial;font-size:8px;font-style:normal;font-weight:normal;text-anchor:middle;" transform="rotate(-0, 176.420421, 103.72625)" x="176.420421" y="103.72625">5.0</text>
     </g>
    </g>
    <g id="text_13">
     <!-- $\sigma$(Exc) -->
     <g transform="translate(141.504545 116.61625)">
      <text>
       <tspan style="font-family:DejaVu Sans;font-size:10px;font-style:oblique;font-weight:oblique;" x="0" y="-0.71875">σ</tspan>
       <tspan style="font-family:Arial;font-size:10px;font-style:regular;font-weight:regular;" x="6.337891 9.667969 16.337891 21.337891 26.337891" y="-0.71875">(Exc)</tspan>
      </text>
     </g>
    </g>
   </g>
   <g id="matplotlib.axis_4">
    <g id="ytick_4">
     <g id="line2d_15"/>
     <g id="text_14">
      <text style="font-family:Arial;font-size:8px;font-style:normal;font-weight:normal;text-anchor:end;" transform="rotate(-0, 114.809091, 97.363125)" x="114.809091" y="97.363125">0</text>
     </g>
    </g>
    <g id="ytick_5">
     <g id="line2d_16"/>
     <g id="text_15">
      <text style="font-family:Arial;font-size:8px;font-style:normal;font-weight:normal;text-anchor:end;" transform="rotate(-0, 114.809091, 72.453984)" x="114.809091" y="72.453984">2</text>
     </g>
    </g>
    <g id="ytick_6">
     <g id="line2d_17"/>
     <g id="text_16">
      <text style="font-family:Arial;font-size:8px;font-style:normal;font-weight:normal;text-anchor:end;" transform="rotate(-0, 114.809091, 47.544844)" x="114.809091" y="47.544844">4</text>
     </g>
    </g>
    <g id="ytick_7">
     <g id="line2d_18"/>
     <g id="text_17">
      <text style="font-family:Arial;font-size:8px;font-style:normal;font-weight:normal;text-anchor:end;" transform="rotate(-0, 114.809091, 22.635703)" x="114.809091" y="22.635703">6</text>
     </g>
    </g>
    <g id="text_18">
     <!-- $\sigma$(Inh) -->
     <g transform="translate(104.160341 67.18)rotate(-90)">
      <text>
       <tspan style="font-family:DejaVu Sans;font-size:10px;font-style:oblique;font-weight:oblique;" x="0" y="-0.71875">σ</tspan>
       <tspan style="font-family:Arial;font-size:10px;font-style:regular;font-weight:regular;" x="6.337891 9.667969 12.446289 18.007812 23.569336" y="-0.71875">(Inh)</tspan>
      </text>
     </g>
    </g>
   </g>
   <g id="legend_2">
    <g id="line2d_19">
     <path d="M 108.478125 31.995156 
L 128.478125 31.995156 
" style="fill:none;stroke:#000000;stroke-dasharray:1.85,0.8;stroke-dashoffset:0;stroke-width:0.5;"/>
    </g>
    <g id="line2d_20"/>
    <g id="text_19">
     <!-- $R^2$ 0.15 -->
     <g transform="translate(136.478125 29.2475)">
      <text>
       <tspan style="font-family:DejaVu Sans;font-size:10px;font-style:oblique;font-weight:oblique;" x="0" y="-0.9765625">R</tspan>
       <tspan style="font-family:DejaVu Sans;font-size:7px;font-style:book;font-weight:book;" x="7.650794" y="-4.8046875">2</tspan>
       <tspan style="font-family:Arial;font-size:10px;font-style:regular;font-weight:regular;" x="12.377845 15.156165 20.717689 23.496009 29.057533" y="-0.9765625"> 0.15</tspan>
      </text>
     </g>
     <text style="font-family:Arial;font-size:10px;font-style:normal;font-weight:normal;" transform="translate(136.478125 39.86)"> slope 0.27</text>
    </g>
   </g>
  </g>
 </g>
 <defs>
  <clipPath id="p00b4fc2f53">
   <rect height="81.54" width="76.090909" x="27" y="12.96"/>
  </clipPath>
  <clipPath id="p77d924f3c1">
   <rect height="81.54" width="76.090909" x="118.309091" y="12.96"/>
  </clipPath>
 </defs>
</svg>
