<?xml version="1.0" encoding="utf-8" standalone="no"?>
<!DOCTYPE svg PUBLIC "-//W3C//DTD SVG 1.1//EN"
  "http://www.w3.org/Graphics/SVG/1.1/DTD/svg11.dtd">
<!-- Created with matplotlib (http://matplotlib.org/) -->
<svg height="108pt" version="1.1" viewBox="0 0 216 108" width="216pt" xmlns="http://www.w3.org/2000/svg" xmlns:xlink="http://www.w3.org/1999/xlink">
 <defs>
  <style type="text/css">
*{stroke-linecap:butt;stroke-linejoin:round;}
  </style>
 </defs>
 <g id="figure_1">
  <g id="patch_1">
   <path d="M 0 108 
L 216 108 
L 216 0 
L 0 0 
z
" style="fill:#ffffff;"/>
  </g>
  <g id="axes_1">
   <g id="patch_2">
    <path d="M 27 94.5 
L 103.090909 94.5 
L 103.090909 12.96 
L 27 12.96 
z
" style="fill:#ffffff;"/>
   </g>
   <g id="LineCollection_1">
    <path clip-path="url(#p42e91a5e8e)" d="M 22.106777 79.818007 
L 38.644871 79.818007 
" style="fill:none;stroke:#000000;stroke-width:0.5;"/>
    <path clip-path="url(#p42e91a5e8e)" d="M 29.113444 68.608173 
L 43.784854 68.608173 
" style="fill:none;stroke:#000000;stroke-width:0.5;"/>
    <path clip-path="url(#p42e91a5e8e)" d="M 26.126248 37.672586 
L 44.871776 37.672586 
" style="fill:none;stroke:#000000;stroke-width:0.5;"/>
    <path clip-path="url(#p42e91a5e8e)" d="M 26.899222 57.598788 
L 35.871795 57.598788 
" style="fill:none;stroke:#000000;stroke-width:0.5;"/>
    <path clip-path="url(#p42e91a5e8e)" d="M 27.397352 57.456144 
L 35.363365 57.456144 
" style="fill:none;stroke:#000000;stroke-width:0.5;"/>
    <path clip-path="url(#p42e91a5e8e)" d="M 25.988572 60.192674 
L 41.985005 60.192674 
" style="fill:none;stroke:#000000;stroke-width:0.5;"/>
    <path clip-path="url(#p42e91a5e8e)" d="M 26.019294 78.400834 
L 32.866294 78.400834 
" style="fill:none;stroke:#000000;stroke-width:0.5;"/>
    <path clip-path="url(#p42e91a5e8e)" d="M 26.398622 63.165601 
L 32.444112 63.165601 
" style="fill:none;stroke:#000000;stroke-width:0.5;"/>
    <path clip-path="url(#p42e91a5e8e)" d="M 34.747785 56.010641 
L 43.964117 56.010641 
" style="fill:none;stroke:#000000;stroke-width:0.5;"/>
    <path clip-path="url(#p42e91a5e8e)" d="M 24.309564 52.560327 
L 45.883181 52.560327 
" style="fill:none;stroke:#000000;stroke-width:0.5;"/>
    <path clip-path="url(#p42e91a5e8e)" d="M 28.140408 59.199729 
L 44.280297 59.199729 
" style="fill:none;stroke:#000000;stroke-width:0.5;"/>
    <path clip-path="url(#p42e91a5e8e)" d="M 29.265349 61.248712 
L 39.477508 61.248712 
" style="fill:none;stroke:#000000;stroke-width:0.5;"/>
    <path clip-path="url(#p42e91a5e8e)" d="M 27 81.607343 
L 27 81.607343 
" style="fill:none;stroke:#000000;stroke-width:0.5;"/>
    <path clip-path="url(#p42e91a5e8e)" d="M 26.323752 82.474103 
L 30.830751 82.474103 
" style="fill:none;stroke:#000000;stroke-width:0.5;"/>
    <path clip-path="url(#p42e91a5e8e)" d="M 26.442565 74.524123 
L 37.780878 74.524123 
" style="fill:none;stroke:#000000;stroke-width:0.5;"/>
    <path clip-path="url(#p42e91a5e8e)" d="M 26.451999 74.538046 
L 28.30413 74.538046 
" style="fill:none;stroke:#000000;stroke-width:0.5;"/>
    <path clip-path="url(#p42e91a5e8e)" d="M 25.285783 87.81161 
L 31.079486 87.81161 
" style="fill:none;stroke:#000000;stroke-width:0.5;"/>
    <path clip-path="url(#p42e91a5e8e)" d="M 31.951403 68.943214 
L 38.337845 68.943214 
" style="fill:none;stroke:#000000;stroke-width:0.5;"/>
    <path clip-path="url(#p42e91a5e8e)" d="M 24.615493 46.37919 
L 43.901792 46.37919 
" style="fill:none;stroke:#000000;stroke-width:0.5;"/>
    <path clip-path="url(#p42e91a5e8e)" d="M 33.315709 73.197414 
L 39.980232 73.197414 
" style="fill:none;stroke:#000000;stroke-width:0.5;"/>
    <path clip-path="url(#p42e91a5e8e)" d="M 26.579892 74.20817 
L 31.519303 74.20817 
" style="fill:none;stroke:#000000;stroke-width:0.5;"/>
    <path clip-path="url(#p42e91a5e8e)" d="M 30.0906 35.84306 
L 46.802875 35.84306 
" style="fill:none;stroke:#000000;stroke-width:0.5;"/>
    <path clip-path="url(#p42e91a5e8e)" d="M 27.25473 72.557196 
L 39.900903 72.557196 
" style="fill:none;stroke:#000000;stroke-width:0.5;"/>
    <path clip-path="url(#p42e91a5e8e)" d="M 26.655511 77.75009 
L 28.599015 77.75009 
" style="fill:none;stroke:#000000;stroke-width:0.5;"/>
    <path clip-path="url(#p42e91a5e8e)" d="M 26.95477 92.359436 
L 27.992968 92.359436 
" style="fill:none;stroke:#000000;stroke-width:0.5;"/>
    <path clip-path="url(#p42e91a5e8e)" d="M 24.845453 67.842927 
L 32.127382 67.842927 
" style="fill:none;stroke:#000000;stroke-width:0.5;"/>
    <path clip-path="url(#p42e91a5e8e)" d="M 27.866518 63.207239 
L 47.115671 63.207239 
" style="fill:none;stroke:#000000;stroke-width:0.5;"/>
    <path clip-path="url(#p42e91a5e8e)" d="M 27 94.5 
L 27 94.5 
" style="fill:none;stroke:#000000;stroke-width:0.5;"/>
    <path clip-path="url(#p42e91a5e8e)" d="M 26.639584 36.52925 
L 52.091809 36.52925 
" style="fill:none;stroke:#000000;stroke-width:0.5;"/>
    <path clip-path="url(#p42e91a5e8e)" d="M 26.393858 89.053685 
L 29.430156 89.053685 
" style="fill:none;stroke:#000000;stroke-width:0.5;"/>
   </g>
   <g id="LineCollection_2">
    <path clip-path="url(#p42e91a5e8e)" d="M 30.375824 89.736117 
L 30.375824 69.899896 
" style="fill:none;stroke:#000000;stroke-width:0.5;"/>
    <path clip-path="url(#p42e91a5e8e)" d="M 36.449149 75.630782 
L 36.449149 61.585563 
" style="fill:none;stroke:#000000;stroke-width:0.5;"/>
    <path clip-path="url(#p42e91a5e8e)" d="M 35.499012 46.90879 
L 35.499012 28.436383 
" style="fill:none;stroke:#000000;stroke-width:0.5;"/>
    <path clip-path="url(#p42e91a5e8e)" d="M 31.385509 63.998214 
L 31.385509 51.199363 
" style="fill:none;stroke:#000000;stroke-width:0.5;"/>
    <path clip-path="url(#p42e91a5e8e)" d="M 31.380359 64.025076 
L 31.380359 50.887211 
" style="fill:none;stroke:#000000;stroke-width:0.5;"/>
    <path clip-path="url(#p42e91a5e8e)" d="M 33.986788 68.235658 
L 33.986788 52.149691 
" style="fill:none;stroke:#000000;stroke-width:0.5;"/>
    <path clip-path="url(#p42e91a5e8e)" d="M 29.442794 80.68246 
L 29.442794 76.119208 
" style="fill:none;stroke:#000000;stroke-width:0.5;"/>
    <path clip-path="url(#p42e91a5e8e)" d="M 29.421367 74.961813 
L 29.421367 51.369389 
" style="fill:none;stroke:#000000;stroke-width:0.5;"/>
    <path clip-path="url(#p42e91a5e8e)" d="M 39.355951 67.849134 
L 39.355951 44.172149 
" style="fill:none;stroke:#000000;stroke-width:0.5;"/>
    <path clip-path="url(#p42e91a5e8e)" d="M 35.096373 60.371475 
L 35.096373 44.749178 
" style="fill:none;stroke:#000000;stroke-width:0.5;"/>
    <path clip-path="url(#p42e91a5e8e)" d="M 36.210352 67.081397 
L 36.210352 51.318062 
" style="fill:none;stroke:#000000;stroke-width:0.5;"/>
    <path clip-path="url(#p42e91a5e8e)" d="M 34.371429 69.603536 
L 34.371429 52.893889 
" style="fill:none;stroke:#000000;stroke-width:0.5;"/>
    <path clip-path="url(#p42e91a5e8e)" d="M 27 84.141964 
L 27 79.072723 
" style="fill:none;stroke:#000000;stroke-width:0.5;"/>
    <path clip-path="url(#p42e91a5e8e)" d="M 28.577252 84.183945 
L 28.577252 80.76426 
" style="fill:none;stroke:#000000;stroke-width:0.5;"/>
    <path clip-path="url(#p42e91a5e8e)" d="M 32.111721 82.86925 
L 32.111721 66.178997 
" style="fill:none;stroke:#000000;stroke-width:0.5;"/>
    <path clip-path="url(#p42e91a5e8e)" d="M 27.378065 75.287761 
L 27.378065 73.788331 
" style="fill:none;stroke:#000000;stroke-width:0.5;"/>
    <path clip-path="url(#p42e91a5e8e)" d="M 28.182635 91.102741 
L 28.182635 84.520479 
" style="fill:none;stroke:#000000;stroke-width:0.5;"/>
    <path clip-path="url(#p42e91a5e8e)" d="M 35.144624 76.514905 
L 35.144624 61.371523 
" style="fill:none;stroke:#000000;stroke-width:0.5;"/>
    <path clip-path="url(#p42e91a5e8e)" d="M 34.258642 54.985691 
L 34.258642 37.772688 
" style="fill:none;stroke:#000000;stroke-width:0.5;"/>
    <path clip-path="url(#p42e91a5e8e)" d="M 36.647971 81.78006 
L 36.647971 64.614767 
" style="fill:none;stroke:#000000;stroke-width:0.5;"/>
    <path clip-path="url(#p42e91a5e8e)" d="M 29.049597 77.42036 
L 29.049597 70.995981 
" style="fill:none;stroke:#000000;stroke-width:0.5;"/>
    <path clip-path="url(#p42e91a5e8e)" d="M 38.446737 47.351846 
L 38.446737 24.334275 
" style="fill:none;stroke:#000000;stroke-width:0.5;"/>
    <path clip-path="url(#p42e91a5e8e)" d="M 33.577816 76.638674 
L 33.577816 68.475719 
" style="fill:none;stroke:#000000;stroke-width:0.5;"/>
    <path clip-path="url(#p42e91a5e8e)" d="M 27.627263 83.045355 
L 27.627263 72.454824 
" style="fill:none;stroke:#000000;stroke-width:0.5;"/>
    <path clip-path="url(#p42e91a5e8e)" d="M 27.473869 93.670515 
L 27.473869 91.048356 
" style="fill:none;stroke:#000000;stroke-width:0.5;"/>
    <path clip-path="url(#p42e91a5e8e)" d="M 28.486417 81.282281 
L 28.486417 54.403574 
" style="fill:none;stroke:#000000;stroke-width:0.5;"/>
    <path clip-path="url(#p42e91a5e8e)" d="M 37.491095 72.4069 
L 37.491095 54.007578 
" style="fill:none;stroke:#000000;stroke-width:0.5;"/>
    <path clip-path="url(#p42e91a5e8e)" d="M 27 94.5 
L 27 94.5 
" style="fill:none;stroke:#000000;stroke-width:0.5;"/>
    <path clip-path="url(#p42e91a5e8e)" d="M 39.365697 56.215643 
L 39.365697 16.842857 
" style="fill:none;stroke:#000000;stroke-width:0.5;"/>
    <path clip-path="url(#p42e91a5e8e)" d="M 27.912007 91.491823 
L 27.912007 86.615547 
" style="fill:none;stroke:#000000;stroke-width:0.5;"/>
   </g>
   <g id="line2d_1">
    <path clip-path="url(#p42e91a5e8e)" d="M 27 83.206802 
L 27.768595 80.92607 
L 28.53719 78.645338 
L 29.305785 76.364606 
L 30.07438 74.083874 
L 30.842975 71.803142 
L 31.61157 69.52241 
L 32.380165 67.241678 
L 33.14876 64.960946 
L 33.917355 62.680214 
L 34.68595 60.399483 
L 35.454545 58.118751 
L 36.22314 55.838019 
L 36.991736 53.557287 
L 37.760331 51.276555 
L 38.528926 48.995823 
L 39.297521 46.715091 
L 40.066116 44.434359 
L 40.834711 42.153627 
L 41.603306 39.872895 
L 42.371901 37.592163 
L 43.140496 35.311431 
L 43.909091 33.030699 
L 44.677686 30.749967 
L 45.446281 28.469235 
L 46.214876 26.188504 
L 46.983471 23.907772 
L 47.752066 21.62704 
L 48.520661 19.346308 
L 49.289256 17.065576 
L 50.057851 14.784844 
L 50.826446 12.504112 
L 51.595041 10.22338 
L 52.363636 7.942648 
L 53.132231 5.661916 
L 53.900826 3.381184 
L 54.669421 1.100452 
L 55.377263 -1 
" style="fill:none;stroke:#000000;stroke-dasharray:1.85,0.8;stroke-dashoffset:0;stroke-width:0.5;"/>
   </g>
   <g id="line2d_2">
    <defs>
     <path d="M 0 3 
C 0.795609 3 1.55874 2.683901 2.12132 2.12132 
C 2.683901 1.55874 3 0.795609 3 0 
C 3 -0.795609 2.683901 -1.55874 2.12132 -2.12132 
C 1.55874 -2.683901 0.795609 -3 0 -3 
C -0.795609 -3 -1.55874 -2.683901 -2.12132 -2.12132 
C -2.683901 -1.55874 -3 -0.795609 -3 0 
C -3 0.795609 -2.683901 1.55874 -2.12132 2.12132 
C -1.55874 2.683901 -0.795609 3 0 3 
z
" id="m5a5980e31c" style="stroke:#000000;"/>
    </defs>
    <g clip-path="url(#p42e91a5e8e)">
     <use style="stroke:#000000;" x="30.375824" xlink:href="#m5a5980e31c" y="79.818007"/>
     <use style="stroke:#000000;" x="36.449149" xlink:href="#m5a5980e31c" y="68.608173"/>
     <use style="stroke:#000000;" x="35.499012" xlink:href="#m5a5980e31c" y="37.672586"/>
     <use style="stroke:#000000;" x="31.385509" xlink:href="#m5a5980e31c" y="57.598788"/>
     <use style="stroke:#000000;" x="31.380359" xlink:href="#m5a5980e31c" y="57.456144"/>
     <use style="stroke:#000000;" x="33.986788" xlink:href="#m5a5980e31c" y="60.192674"/>
     <use style="stroke:#000000;" x="29.442794" xlink:href="#m5a5980e31c" y="78.400834"/>
     <use style="stroke:#000000;" x="29.421367" xlink:href="#m5a5980e31c" y="63.165601"/>
     <use style="stroke:#000000;" x="39.355951" xlink:href="#m5a5980e31c" y="56.010641"/>
     <use style="stroke:#000000;" x="35.096373" xlink:href="#m5a5980e31c" y="52.560327"/>
     <use style="stroke:#000000;" x="36.210352" xlink:href="#m5a5980e31c" y="59.199729"/>
     <use style="stroke:#000000;" x="34.371429" xlink:href="#m5a5980e31c" y="61.248712"/>
     <use style="stroke:#000000;" x="27" xlink:href="#m5a5980e31c" y="81.607343"/>
     <use style="stroke:#000000;" x="28.577252" xlink:href="#m5a5980e31c" y="82.474103"/>
     <use style="stroke:#000000;" x="32.111721" xlink:href="#m5a5980e31c" y="74.524123"/>
     <use style="stroke:#000000;" x="27.378065" xlink:href="#m5a5980e31c" y="74.538046"/>
     <use style="stroke:#000000;" x="28.182635" xlink:href="#m5a5980e31c" y="87.81161"/>
     <use style="stroke:#000000;" x="35.144624" xlink:href="#m5a5980e31c" y="68.943214"/>
     <use style="stroke:#000000;" x="34.258642" xlink:href="#m5a5980e31c" y="46.37919"/>
     <use style="stroke:#000000;" x="36.647971" xlink:href="#m5a5980e31c" y="73.197414"/>
     <use style="stroke:#000000;" x="29.049597" xlink:href="#m5a5980e31c" y="74.20817"/>
     <use style="stroke:#000000;" x="38.446737" xlink:href="#m5a5980e31c" y="35.84306"/>
     <use style="stroke:#000000;" x="33.577816" xlink:href="#m5a5980e31c" y="72.557196"/>
     <use style="stroke:#000000;" x="27.627263" xlink:href="#m5a5980e31c" y="77.75009"/>
     <use style="stroke:#000000;" x="27.473869" xlink:href="#m5a5980e31c" y="92.359436"/>
     <use style="stroke:#000000;" x="28.486417" xlink:href="#m5a5980e31c" y="67.842927"/>
     <use style="stroke:#000000;" x="37.491095" xlink:href="#m5a5980e31c" y="63.207239"/>
     <use style="stroke:#000000;" x="27" xlink:href="#m5a5980e31c" y="94.5"/>
     <use style="stroke:#000000;" x="39.365697" xlink:href="#m5a5980e31c" y="36.52925"/>
     <use style="stroke:#000000;" x="27.912007" xlink:href="#m5a5980e31c" y="89.053685"/>
    </g>
   </g>
   <g id="patch_3">
    <path d="M 27 94.5 
L 27 12.96 
" style="fill:none;stroke:#000000;stroke-linecap:square;stroke-linejoin:miter;"/>
   </g>
   <g id="patch_4">
    <path d="M 27 94.5 
L 103.090909 94.5 
" style="fill:none;stroke:#000000;stroke-linecap:square;stroke-linejoin:miter;"/>
   </g>
   <g id="matplotlib.axis_1">
    <g id="xtick_1">
     <g id="line2d_3"/>
     <g id="text_1">
      <text style="font-family:Arial;font-size:8px;font-style:normal;font-weight:normal;text-anchor:middle;" transform="rotate(-0, 27, 103.72625)" x="27" y="103.72625">0</text>
     </g>
    </g>
    <g id="xtick_2">
     <g id="line2d_4"/>
     <g id="text_2">
      <text style="font-family:Arial;font-size:8px;font-style:normal;font-weight:normal;text-anchor:middle;" transform="rotate(-0, 61.523724, 103.72625)" x="61.523724" y="103.72625">5</text>
     </g>
    </g>
    <g id="xtick_3">
     <g id="line2d_5"/>
     <g id="text_3">
      <text style="font-family:Arial;font-size:8px;font-style:normal;font-weight:normal;text-anchor:middle;" transform="rotate(-0, 96.047448, 103.72625)" x="96.047448" y="103.72625">10</text>
     </g>
    </g>
    <g id="text_4">
     <text style="font-family:Arial;font-size:10px;font-style:normal;font-weight:normal;text-anchor:middle;" transform="rotate(-0, 65.045455, 116.474063)" x="65.045455" y="116.474063">Exc</text>
    </g>
   </g>
   <g id="matplotlib.axis_2">
    <g id="ytick_1">
     <g id="line2d_6"/>
     <g id="text_5">
      <text style="font-family:Arial;font-size:8px;font-style:normal;font-weight:normal;text-anchor:end;" transform="rotate(-0, 23.5, 97.363125)" x="23.5" y="97.363125">0.0</text>
     </g>
    </g>
    <g id="ytick_2">
     <g id="line2d_7"/>
     <g id="text_6">
      <text style="font-family:Arial;font-size:8px;font-style:normal;font-weight:normal;text-anchor:end;" transform="rotate(-0, 23.5, 78.865091)" x="23.5" y="78.865091">2.5</text>
     </g>
    </g>
    <g id="ytick_3">
     <g id="line2d_8"/>
     <g id="text_7">
      <text style="font-family:Arial;font-size:8px;font-style:normal;font-weight:normal;text-anchor:end;" transform="rotate(-0, 23.5, 60.367057)" x="23.5" y="60.367057">5.0</text>
     </g>
    </g>
    <g id="ytick_4">
     <g id="line2d_9"/>
     <g id="text_8">
      <text style="font-family:Arial;font-size:8px;font-style:normal;font-weight:normal;text-anchor:end;" transform="rotate(-0, 23.5, 41.869023)" x="23.5" y="41.869023">7.5</text>
     </g>
    </g>
    <g id="ytick_5">
     <g id="line2d_10"/>
     <g id="text_9">
      <text style="font-family:Arial;font-size:8px;font-style:normal;font-weight:normal;text-anchor:end;" transform="rotate(-0, 23.5, 23.370988)" x="23.5" y="23.370988">10.0</text>
     </g>
    </g>
    <g id="text_10">
     <text style="font-family:Arial;font-size:10px;font-style:normal;font-weight:normal;text-anchor:middle;" transform="rotate(-90, 1.94375, 53.73)" x="1.94375" y="53.73">Inh</text>
    </g>
   </g>
   <g id="legend_1">
    <g id="line2d_11">
     <path d="M 36 75.622656 
L 56 75.622656 
" style="fill:none;stroke:#000000;stroke-dasharray:1.85,0.8;stroke-dashoffset:0;stroke-width:0.5;"/>
    </g>
    <g id="line2d_12"/>
    <g id="text_11">
     <!-- $R^2$ 0.58 -->
     <g transform="translate(64 72.875)">
      <text>
       <tspan style="font-family:DejaVu Sans;font-size:10px;font-style:oblique;font-weight:oblique;" x="0" y="-0.9765625">R</tspan>
       <tspan style="font-family:DejaVu Sans;font-size:7px;font-style:book;font-weight:book;" x="7.650794" y="-4.8046875">2</tspan>
       <tspan style="font-family:Arial;font-size:10px;font-style:regular;font-weight:regular;" x="12.377845 15.156165 20.717689 23.496009 29.057533" y="-0.9765625"> 0.58</tspan>
      </text>
     </g>
     <text style="font-family:Arial;font-size:10px;font-style:normal;font-weight:normal;" transform="translate(64 83.4875)"> slope 2.77</text>
    </g>
   </g>
  </g>
  <g id="axes_2">
   <g id="patch_5">
    <path d="M 118.309091 94.5 
L 194.4 94.5 
L 194.4 12.96 
L 118.309091 12.96 
z
" style="fill:#ffffff;"/>
   </g>
   <g id="PathCollection_1">
    <defs>
     <path d="M 0 2.44949 
C 0.649612 2.44949 1.272706 2.191396 1.732051 1.732051 
C 2.191396 1.272706 2.44949 0.649612 2.44949 0 
C 2.44949 -0.649612 2.191396 -1.272706 1.732051 -1.732051 
C 1.272706 -2.191396 0.649612 -2.44949 0 -2.44949 
C -0.649612 -2.44949 -1.272706 -2.191396 -1.732051 -1.732051 
C -2.191396 -1.272706 -2.44949 -0.649612 -2.44949 0 
C -2.44949 0.649612 -2.191396 1.272706 -1.732051 1.732051 
C -1.272706 2.191396 -0.649612 2.44949 0 2.44949 
z
" id="m91c7b89b0f" style="stroke:#000000;"/>
    </defs>
    <g clip-path="url(#p2d9d5ad156)">
     <use style="stroke:#000000;" x="150.784048" xlink:href="#m91c7b89b0f" y="55.548689"/>
     <use style="stroke:#000000;" x="147.118541" xlink:href="#m91c7b89b0f" y="66.920167"/>
     <use style="stroke:#000000;" x="155.118667" xlink:href="#m91c7b89b0f" y="58.226737"/>
     <use style="stroke:#000000;" x="135.928044" xlink:href="#m91c7b89b0f" y="69.367591"/>
     <use style="stroke:#000000;" x="133.951519" xlink:href="#m91c7b89b0f" y="68.701888"/>
     <use style="stroke:#000000;" x="149.72042" xlink:href="#m91c7b89b0f" y="62.912859"/>
     <use style="stroke:#000000;" x="131.754173" xlink:href="#m91c7b89b0f" y="85.539389"/>
     <use style="stroke:#000000;" x="130.18029" xlink:href="#m91c7b89b0f" y="48.172837"/>
     <use style="stroke:#000000;" x="136.406702" xlink:href="#m91c7b89b0f" y="48.00679"/>
     <use style="stroke:#000000;" x="160.672032" xlink:href="#m91c7b89b0f" y="63.823342"/>
     <use style="stroke:#000000;" x="150.002115" xlink:href="#m91c7b89b0f" y="63.546394"/>
     <use style="stroke:#000000;" x="138.362153" xlink:href="#m91c7b89b0f" y="61.688173"/>
     <use style="stroke:#000000;" x="118.309091" xlink:href="#m91c7b89b0f" y="84.545806"/>
     <use style="stroke:#000000;" x="127.15924" xlink:href="#m91c7b89b0f" y="87.78495"/>
     <use style="stroke:#000000;" x="140.573521" xlink:href="#m91c7b89b0f" y="61.726255"/>
     <use style="stroke:#000000;" x="121.94602" xlink:href="#m91c7b89b0f" y="91.555651"/>
     <use style="stroke:#000000;" x="129.685871" xlink:href="#m91c7b89b0f" y="81.574769"/>
     <use style="stroke:#000000;" x="130.8498" xlink:href="#m91c7b89b0f" y="64.763762"/>
     <use style="stroke:#000000;" x="156.180552" xlink:href="#m91c7b89b0f" y="60.699758"/>
     <use style="stroke:#000000;" x="131.395853" xlink:href="#m91c7b89b0f" y="60.793446"/>
     <use style="stroke:#000000;" x="128.008343" xlink:href="#m91c7b89b0f" y="81.884795"/>
     <use style="stroke:#000000;" x="151.126077" xlink:href="#m91c7b89b0f" y="49.301643"/>
     <use style="stroke:#000000;" x="143.141694" xlink:href="#m91c7b89b0f" y="78.470849"/>
     <use style="stroke:#000000;" x="122.125445" xlink:href="#m91c7b89b0f" y="73.703948"/>
     <use style="stroke:#000000;" x="120.347744" xlink:href="#m91c7b89b0f" y="89.351007"/>
     <use style="stroke:#000000;" x="132.608219" xlink:href="#m91c7b89b0f" y="41.719741"/>
     <use style="stroke:#000000;" x="156.107607" xlink:href="#m91c7b89b0f" y="58.37025"/>
     <use style="stroke:#000000;" x="118.309091" xlink:href="#m91c7b89b0f" y="94.5"/>
     <use style="stroke:#000000;" x="168.288243" xlink:href="#m91c7b89b0f" y="17.185797"/>
     <use style="stroke:#000000;" x="124.271304" xlink:href="#m91c7b89b0f" y="84.924721"/>
    </g>
   </g>
   <g id="line2d_13">
    <path clip-path="url(#p2d9d5ad156)" d="M 118.309091 84.243768 
L 119.077686 83.578091 
L 119.846281 82.912414 
L 120.614876 82.246737 
L 121.383471 81.58106 
L 122.152066 80.915383 
L 122.920661 80.249705 
L 123.689256 79.584028 
L 124.457851 78.918351 
L 125.226446 78.252674 
L 125.995041 77.586997 
L 126.763636 76.92132 
L 127.532231 76.255643 
L 128.300826 75.589966 
L 129.069421 74.924289 
L 129.838017 74.258612 
L 130.606612 73.592935 
L 131.375207 72.927258 
L 132.143802 72.261581 
L 132.912397 71.595904 
L 133.680992 70.930226 
L 134.449587 70.264549 
L 135.218182 69.598872 
L 135.986777 68.933195 
L 136.755372 68.267518 
L 137.523967 67.601841 
L 138.292562 66.936164 
L 139.061157 66.270487 
L 139.829752 65.60481 
L 140.598347 64.939133 
L 141.366942 64.273456 
L 142.135537 63.607779 
L 142.904132 62.942102 
L 143.672727 62.276425 
L 144.441322 61.610747 
L 145.209917 60.94507 
L 145.978512 60.279393 
L 146.747107 59.613716 
L 147.515702 58.948039 
L 148.284298 58.282362 
L 149.052893 57.616685 
L 149.821488 56.951008 
L 150.590083 56.285331 
L 151.358678 55.619654 
L 152.127273 54.953977 
L 152.895868 54.2883 
L 153.664463 53.622623 
L 154.433058 52.956946 
L 155.201653 52.291268 
L 155.970248 51.625591 
L 156.738843 50.959914 
L 157.507438 50.294237 
L 158.276033 49.62856 
L 159.044628 48.962883 
L 159.813223 48.297206 
L 160.581818 47.631529 
L 161.350413 46.965852 
L 162.119008 46.300175 
L 162.887603 45.634498 
L 163.656198 44.968821 
L 164.424793 44.303144 
L 165.193388 43.637467 
L 165.961983 42.97179 
L 166.730579 42.306112 
L 167.499174 41.640435 
L 168.267769 40.974758 
L 169.036364 40.309081 
L 169.804959 39.643404 
L 170.573554 38.977727 
L 171.342149 38.31205 
L 172.110744 37.646373 
L 172.879339 36.980696 
L 173.647934 36.315019 
L 174.416529 35.649342 
L 175.185124 34.983665 
L 175.953719 34.317988 
L 176.722314 33.652311 
L 177.490909 32.986633 
L 178.259504 32.320956 
L 179.028099 31.655279 
L 179.796694 30.989602 
L 180.565289 30.323925 
L 181.333884 29.658248 
L 182.102479 28.992571 
L 182.871074 28.326894 
L 183.639669 27.661217 
L 184.408264 26.99554 
L 185.17686 26.329863 
L 185.945455 25.664186 
L 186.71405 24.998509 
L 187.482645 24.332832 
L 188.25124 23.667154 
L 189.019835 23.001477 
L 189.78843 22.3358 
L 190.557025 21.670123 
L 191.32562 21.004446 
L 192.094215 20.338769 
L 192.86281 19.673092 
L 193.631405 19.007415 
L 194.4 18.341738 
" style="fill:none;stroke:#000000;stroke-dasharray:1.85,0.8;stroke-dashoffset:0;stroke-width:0.5;"/>
   </g>
   <g id="patch_6">
    <path d="M 118.309091 94.5 
L 118.309091 12.96 
" style="fill:none;stroke:#000000;stroke-linecap:square;stroke-linejoin:miter;"/>
   </g>
   <g id="patch_7">
    <path d="M 118.309091 94.5 
L 194.4 94.5 
" style="fill:none;stroke:#000000;stroke-linecap:square;stroke-linejoin:miter;"/>
   </g>
   <g id="matplotlib.axis_3">
    <g id="xtick_4">
     <g id="line2d_14"/>
     <g id="text_12">
      <text style="font-family:Arial;font-size:8px;font-style:normal;font-weight:normal;text-anchor:middle;" transform="rotate(-0, 118.309091, 103.72625)" x="118.309091" y="103.72625">0</text>
     </g>
    </g>
    <g id="xtick_5">
     <g id="line2d_15"/>
     <g id="text_13">
      <text style="font-family:Arial;font-size:8px;font-style:normal;font-weight:normal;text-anchor:middle;" transform="rotate(-0, 145.426037, 103.72625)" x="145.426037" y="103.72625">1</text>
     </g>
    </g>
    <g id="xtick_6">
     <g id="line2d_16"/>
     <g id="text_14">
      <text style="font-family:Arial;font-size:8px;font-style:normal;font-weight:normal;text-anchor:middle;" transform="rotate(-0, 172.542982, 103.72625)" x="172.542982" y="103.72625">2</text>
     </g>
    </g>
    <g id="text_15">
     <!-- $\sigma$(Exc) -->
     <g transform="translate(141.504545 116.61625)">
      <text>
       <tspan style="font-family:DejaVu Sans;font-size:10px;font-style:oblique;font-weight:oblique;" x="0" y="-0.71875">σ</tspan>
       <tspan style="font-family:Arial;font-size:10px;font-style:regular;font-weight:regular;" x="6.337891 9.667969 16.337891 21.337891 26.337891" y="-0.71875">(Exc)</tspan>
      </text>
     </g>
    </g>
   </g>
   <g id="matplotlib.axis_4">
    <g id="ytick_6">
     <g id="line2d_17"/>
     <g id="text_16">
      <text style="font-family:Arial;font-size:8px;font-style:normal;font-weight:normal;text-anchor:end;" transform="rotate(-0, 114.809091, 97.363125)" x="114.809091" y="97.363125">0</text>
     </g>
    </g>
    <g id="ytick_7">
     <g id="line2d_18"/>
     <g id="text_17">
      <text style="font-family:Arial;font-size:8px;font-style:normal;font-weight:normal;text-anchor:end;" transform="rotate(-0, 114.809091, 68.304256)" x="114.809091" y="68.304256">1</text>
     </g>
    </g>
    <g id="ytick_8">
     <g id="line2d_19"/>
     <g id="text_18">
      <text style="font-family:Arial;font-size:8px;font-style:normal;font-weight:normal;text-anchor:end;" transform="rotate(-0, 114.809091, 39.245387)" x="114.809091" y="39.245387">2</text>
     </g>
    </g>
    <g id="text_19">
     <!-- $\sigma$(Inh) -->
     <g transform="translate(104.160341 67.18)rotate(-90)">
      <text>
       <tspan style="font-family:DejaVu Sans;font-size:10px;font-style:oblique;font-weight:oblique;" x="0" y="-0.71875">σ</tspan>
       <tspan style="font-family:Arial;font-size:10px;font-style:regular;font-weight:regular;" x="6.337891 9.667969 12.446289 18.007812 23.569336" y="-0.71875">(Inh)</tspan>
      </text>
     </g>
    </g>
   </g>
   <g id="legend_2">
    <g id="line2d_20">
     <path d="M 108.478125 31.995156 
L 128.478125 31.995156 
" style="fill:none;stroke:#000000;stroke-dasharray:1.85,0.8;stroke-dashoffset:0;stroke-width:0.5;"/>
    </g>
    <g id="line2d_21"/>
    <g id="text_20">
     <!-- $R^2$ 0.48 -->
     <g transform="translate(136.478125 29.2475)">
      <text>
       <tspan style="font-family:DejaVu Sans;font-size:10px;font-style:oblique;font-weight:oblique;" x="0" y="-0.9765625">R</tspan>
       <tspan style="font-family:DejaVu Sans;font-size:7px;font-style:book;font-weight:book;" x="7.650794" y="-4.8046875">2</tspan>
       <tspan style="font-family:Arial;font-size:10px;font-style:regular;font-weight:regular;" x="12.377845 15.156165 20.717689 23.496009 29.057533" y="-0.9765625"> 0.48</tspan>
      </text>
     </g>
     <text style="font-family:Arial;font-size:10px;font-style:normal;font-weight:normal;" transform="translate(136.478125 39.86)"> slope 0.81</text>
    </g>
   </g>
  </g>
 </g>
 <defs>
  <clipPath id="p42e91a5e8e">
   <rect height="81.54" width="76.090909" x="27" y="12.96"/>
  </clipPath>
  <clipPath id="p2d9d5ad156">
   <rect height="81.54" width="76.090909" x="118.309091" y="12.96"/>
  </clipPath>
 </defs>
</svg>
