<?xml version="1.0" encoding="utf-8" standalone="no"?>
<!DOCTYPE svg PUBLIC "-//W3C//DTD SVG 1.1//EN"
  "http://www.w3.org/Graphics/SVG/1.1/DTD/svg11.dtd">
<!-- Created with matplotlib (http://matplotlib.org/) -->
<svg height="108pt" version="1.1" viewBox="0 0 216 108" width="216pt" xmlns="http://www.w3.org/2000/svg" xmlns:xlink="http://www.w3.org/1999/xlink">
 <defs>
  <style type="text/css">
*{stroke-linecap:butt;stroke-linejoin:round;}
  </style>
 </defs>
 <g id="figure_1">
  <g id="patch_1">
   <path d="M 0 108 
L 216 108 
L 216 0 
L 0 0 
z
" style="fill:#ffffff;"/>
  </g>
  <g id="axes_1">
   <g id="patch_2">
    <path d="M 27 94.5 
L 103.090909 94.5 
L 103.090909 12.96 
L 27 12.96 
z
" style="fill:#ffffff;"/>
   </g>
   <g id="LineCollection_1">
    <path clip-path="url(#pd984511bbc)" d="M 27.554891 80.202005 
L 35.554321 80.202005 
" style="fill:none;stroke:#000000;stroke-width:0.5;"/>
    <path clip-path="url(#pd984511bbc)" d="M 26.732833 80.805456 
L 31.096666 80.805456 
" style="fill:none;stroke:#000000;stroke-width:0.5;"/>
    <path clip-path="url(#pd984511bbc)" d="M 25.859809 70.807331 
L 38.823663 70.807331 
" style="fill:none;stroke:#000000;stroke-width:0.5;"/>
    <path clip-path="url(#pd984511bbc)" d="M 27.190669 58.509782 
L 46.990316 58.509782 
" style="fill:none;stroke:#000000;stroke-width:0.5;"/>
    <path clip-path="url(#pd984511bbc)" d="M 26.36081 63.619816 
L 36.509706 63.619816 
" style="fill:none;stroke:#000000;stroke-width:0.5;"/>
    <path clip-path="url(#pd984511bbc)" d="M 35.724555 26.766607 
L 48.93899 26.766607 
" style="fill:none;stroke:#000000;stroke-width:0.5;"/>
    <path clip-path="url(#pd984511bbc)" d="M 34.533325 31.603866 
L 75.462245 31.603866 
" style="fill:none;stroke:#000000;stroke-width:0.5;"/>
    <path clip-path="url(#pd984511bbc)" d="M 31.509662 30.738933 
L 45.461097 30.738933 
" style="fill:none;stroke:#000000;stroke-width:0.5;"/>
    <path clip-path="url(#pd984511bbc)" d="M 30.430433 39.743122 
L 43.593319 39.743122 
" style="fill:none;stroke:#000000;stroke-width:0.5;"/>
    <path clip-path="url(#pd984511bbc)" d="M 28.091871 40.290204 
L 36.013086 40.290204 
" style="fill:none;stroke:#000000;stroke-width:0.5;"/>
    <path clip-path="url(#pd984511bbc)" d="M 23.595844 70.030494 
L 40.154856 70.030494 
" style="fill:none;stroke:#000000;stroke-width:0.5;"/>
    <path clip-path="url(#pd984511bbc)" d="M 26.420677 58.975016 
L 47.493497 58.975016 
" style="fill:none;stroke:#000000;stroke-width:0.5;"/>
    <path clip-path="url(#pd984511bbc)" d="M 25.717764 43.816358 
L 47.280314 43.816358 
" style="fill:none;stroke:#000000;stroke-width:0.5;"/>
    <path clip-path="url(#pd984511bbc)" d="M 31.328253 68.163164 
L 50.126909 68.163164 
" style="fill:none;stroke:#000000;stroke-width:0.5;"/>
    <path clip-path="url(#pd984511bbc)" d="M 28.458665 57.79302 
L 43.803192 57.79302 
" style="fill:none;stroke:#000000;stroke-width:0.5;"/>
    <path clip-path="url(#pd984511bbc)" d="M 26.722621 54.982927 
L 49.289686 54.982927 
" style="fill:none;stroke:#000000;stroke-width:0.5;"/>
    <path clip-path="url(#pd984511bbc)" d="M 24.767718 78.131371 
L 36.25896 78.131371 
" style="fill:none;stroke:#000000;stroke-width:0.5;"/>
    <path clip-path="url(#pd984511bbc)" d="M 30.397773 61.611825 
L 51.236925 61.611825 
" style="fill:none;stroke:#000000;stroke-width:0.5;"/>
    <path clip-path="url(#pd984511bbc)" d="M 25.603731 73.033507 
L 36.817051 73.033507 
" style="fill:none;stroke:#000000;stroke-width:0.5;"/>
    <path clip-path="url(#pd984511bbc)" d="M 29.674131 34.64563 
L 42.525108 34.64563 
" style="fill:none;stroke:#000000;stroke-width:0.5;"/>
    <path clip-path="url(#pd984511bbc)" d="M 31.610236 69.789466 
L 36.952402 69.789466 
" style="fill:none;stroke:#000000;stroke-width:0.5;"/>
    <path clip-path="url(#pd984511bbc)" d="M 25.552789 52.044081 
L 51.502428 52.044081 
" style="fill:none;stroke:#000000;stroke-width:0.5;"/>
    <path clip-path="url(#pd984511bbc)" d="M 25.600645 37.884826 
L 53.509346 37.884826 
" style="fill:none;stroke:#000000;stroke-width:0.5;"/>
    <path clip-path="url(#pd984511bbc)" d="M 28.092615 72.984879 
L 31.789243 72.984879 
" style="fill:none;stroke:#000000;stroke-width:0.5;"/>
    <path clip-path="url(#pd984511bbc)" d="M 27.988499 54.302727 
L 48.239096 54.302727 
" style="fill:none;stroke:#000000;stroke-width:0.5;"/>
    <path clip-path="url(#pd984511bbc)" d="M 25.645457 63.017127 
L 40.890502 63.017127 
" style="fill:none;stroke:#000000;stroke-width:0.5;"/>
    <path clip-path="url(#pd984511bbc)" d="M 26.242016 75.96369 
L 34.288532 75.96369 
" style="fill:none;stroke:#000000;stroke-width:0.5;"/>
    <path clip-path="url(#pd984511bbc)" d="M 28.904621 79.308583 
L 39.924273 79.308583 
" style="fill:none;stroke:#000000;stroke-width:0.5;"/>
    <path clip-path="url(#pd984511bbc)" d="M 24.960945 47.966294 
L 51.765498 47.966294 
" style="fill:none;stroke:#000000;stroke-width:0.5;"/>
    <path clip-path="url(#pd984511bbc)" d="M 25.201452 65.137424 
L 40.390264 65.137424 
" style="fill:none;stroke:#000000;stroke-width:0.5;"/>
   </g>
   <g id="LineCollection_2">
    <path clip-path="url(#pd984511bbc)" d="M 31.554606 82.715082 
L 31.554606 77.688928 
" style="fill:none;stroke:#000000;stroke-width:0.5;"/>
    <path clip-path="url(#pd984511bbc)" d="M 28.91475 83.767563 
L 28.91475 77.843348 
" style="fill:none;stroke:#000000;stroke-width:0.5;"/>
    <path clip-path="url(#pd984511bbc)" d="M 32.341736 73.888224 
L 32.341736 67.726438 
" style="fill:none;stroke:#000000;stroke-width:0.5;"/>
    <path clip-path="url(#pd984511bbc)" d="M 37.090493 66.895878 
L 37.090493 50.123685 
" style="fill:none;stroke:#000000;stroke-width:0.5;"/>
    <path clip-path="url(#pd984511bbc)" d="M 31.435258 70.799012 
L 31.435258 56.44062 
" style="fill:none;stroke:#000000;stroke-width:0.5;"/>
    <path clip-path="url(#pd984511bbc)" d="M 42.331773 36.98439 
L 42.331773 16.548824 
" style="fill:none;stroke:#000000;stroke-width:0.5;"/>
    <path clip-path="url(#pd984511bbc)" d="M 54.997785 43.338395 
L 54.997785 19.869338 
" style="fill:none;stroke:#000000;stroke-width:0.5;"/>
    <path clip-path="url(#pd984511bbc)" d="M 38.48538 42.505154 
L 38.48538 18.972711 
" style="fill:none;stroke:#000000;stroke-width:0.5;"/>
    <path clip-path="url(#pd984511bbc)" d="M 37.011876 46.882878 
L 37.011876 32.603365 
" style="fill:none;stroke:#000000;stroke-width:0.5;"/>
    <path clip-path="url(#pd984511bbc)" d="M 32.052478 48.239936 
L 32.052478 32.340473 
" style="fill:none;stroke:#000000;stroke-width:0.5;"/>
    <path clip-path="url(#pd984511bbc)" d="M 31.87535 73.960555 
L 31.87535 66.100432 
" style="fill:none;stroke:#000000;stroke-width:0.5;"/>
    <path clip-path="url(#pd984511bbc)" d="M 36.957087 65.95122 
L 36.957087 51.998813 
" style="fill:none;stroke:#000000;stroke-width:0.5;"/>
    <path clip-path="url(#pd984511bbc)" d="M 36.499039 62.598918 
L 36.499039 25.033798 
" style="fill:none;stroke:#000000;stroke-width:0.5;"/>
    <path clip-path="url(#pd984511bbc)" d="M 40.727581 74.82824 
L 40.727581 61.498089 
" style="fill:none;stroke:#000000;stroke-width:0.5;"/>
    <path clip-path="url(#pd984511bbc)" d="M 36.130929 66.422689 
L 36.130929 49.163351 
" style="fill:none;stroke:#000000;stroke-width:0.5;"/>
    <path clip-path="url(#pd984511bbc)" d="M 38.006153 70.264282 
L 38.006153 39.701572 
" style="fill:none;stroke:#000000;stroke-width:0.5;"/>
    <path clip-path="url(#pd984511bbc)" d="M 30.513339 82.867565 
L 30.513339 73.395177 
" style="fill:none;stroke:#000000;stroke-width:0.5;"/>
    <path clip-path="url(#pd984511bbc)" d="M 40.817349 69.762328 
L 40.817349 53.461322 
" style="fill:none;stroke:#000000;stroke-width:0.5;"/>
    <path clip-path="url(#pd984511bbc)" d="M 31.210391 80.749968 
L 31.210391 65.317047 
" style="fill:none;stroke:#000000;stroke-width:0.5;"/>
    <path clip-path="url(#pd984511bbc)" d="M 36.099619 44.668949 
L 36.099619 24.622312 
" style="fill:none;stroke:#000000;stroke-width:0.5;"/>
    <path clip-path="url(#pd984511bbc)" d="M 34.281319 74.033923 
L 34.281319 65.545009 
" style="fill:none;stroke:#000000;stroke-width:0.5;"/>
    <path clip-path="url(#pd984511bbc)" d="M 38.527609 65.389976 
L 38.527609 38.698186 
" style="fill:none;stroke:#000000;stroke-width:0.5;"/>
    <path clip-path="url(#pd984511bbc)" d="M 39.554995 51.15653 
L 39.554995 24.613122 
" style="fill:none;stroke:#000000;stroke-width:0.5;"/>
    <path clip-path="url(#pd984511bbc)" d="M 29.940929 75.742183 
L 29.940929 70.227574 
" style="fill:none;stroke:#000000;stroke-width:0.5;"/>
    <path clip-path="url(#pd984511bbc)" d="M 38.113798 65.953734 
L 38.113798 42.65172 
" style="fill:none;stroke:#000000;stroke-width:0.5;"/>
    <path clip-path="url(#pd984511bbc)" d="M 33.26798 71.107021 
L 33.26798 54.927232 
" style="fill:none;stroke:#000000;stroke-width:0.5;"/>
    <path clip-path="url(#pd984511bbc)" d="M 30.265274 82.589807 
L 30.265274 69.337573 
" style="fill:none;stroke:#000000;stroke-width:0.5;"/>
    <path clip-path="url(#pd984511bbc)" d="M 34.414447 88.325314 
L 34.414447 70.291852 
" style="fill:none;stroke:#000000;stroke-width:0.5;"/>
    <path clip-path="url(#pd984511bbc)" d="M 38.363221 55.995852 
L 38.363221 39.936735 
" style="fill:none;stroke:#000000;stroke-width:0.5;"/>
    <path clip-path="url(#pd984511bbc)" d="M 32.795858 73.614047 
L 32.795858 56.660802 
" style="fill:none;stroke:#000000;stroke-width:0.5;"/>
   </g>
   <g id="line2d_1">
    <path clip-path="url(#pd984511bbc)" d="M 27 76.748325 
L 27.768595 75.122174 
L 28.53719 73.496024 
L 29.305785 71.869873 
L 30.07438 70.243723 
L 30.842975 68.617572 
L 31.61157 66.991422 
L 32.380165 65.365271 
L 33.14876 63.739121 
L 33.917355 62.112971 
L 34.68595 60.48682 
L 35.454545 58.86067 
L 36.22314 57.234519 
L 36.991736 55.608369 
L 37.760331 53.982218 
L 38.528926 52.356068 
L 39.297521 50.729917 
L 40.066116 49.103767 
L 40.834711 47.477616 
L 41.603306 45.851466 
L 42.371901 44.225315 
L 43.140496 42.599165 
L 43.909091 40.973014 
L 44.677686 39.346864 
L 45.446281 37.720713 
L 46.214876 36.094563 
L 46.983471 34.468412 
L 47.752066 32.842262 
L 48.520661 31.216111 
L 49.289256 29.589961 
L 50.057851 27.96381 
L 50.826446 26.33766 
L 51.595041 24.711509 
L 52.363636 23.085359 
L 53.132231 21.459208 
L 53.900826 19.833058 
L 54.669421 18.206908 
L 55.438017 16.580757 
L 56.206612 14.954607 
L 56.975207 13.328456 
L 57.743802 11.702306 
L 58.512397 10.076155 
L 59.280992 8.450005 
L 60.049587 6.823854 
L 60.818182 5.197704 
L 61.586777 3.571553 
L 62.355372 1.945403 
L 63.123967 0.319252 
L 63.747507 -1 
" style="fill:none;stroke:#000000;stroke-dasharray:1.85,0.8;stroke-dashoffset:0;stroke-width:0.5;"/>
   </g>
   <g id="line2d_2">
    <defs>
     <path d="M 0 3 
C 0.795609 3 1.55874 2.683901 2.12132 2.12132 
C 2.683901 1.55874 3 0.795609 3 0 
C 3 -0.795609 2.683901 -1.55874 2.12132 -2.12132 
C 1.55874 -2.683901 0.795609 -3 0 -3 
C -0.795609 -3 -1.55874 -2.683901 -2.12132 -2.12132 
C -2.683901 -1.55874 -3 -0.795609 -3 0 
C -3 0.795609 -2.683901 1.55874 -2.12132 2.12132 
C -1.55874 2.683901 -0.795609 3 0 3 
z
" id="m5117e7b526" style="stroke:#000000;"/>
    </defs>
    <g clip-path="url(#pd984511bbc)">
     <use style="stroke:#000000;" x="31.554606" xlink:href="#m5117e7b526" y="80.202005"/>
     <use style="stroke:#000000;" x="28.91475" xlink:href="#m5117e7b526" y="80.805456"/>
     <use style="stroke:#000000;" x="32.341736" xlink:href="#m5117e7b526" y="70.807331"/>
     <use style="stroke:#000000;" x="37.090493" xlink:href="#m5117e7b526" y="58.509782"/>
     <use style="stroke:#000000;" x="31.435258" xlink:href="#m5117e7b526" y="63.619816"/>
     <use style="stroke:#000000;" x="42.331773" xlink:href="#m5117e7b526" y="26.766607"/>
     <use style="stroke:#000000;" x="54.997785" xlink:href="#m5117e7b526" y="31.603866"/>
     <use style="stroke:#000000;" x="38.48538" xlink:href="#m5117e7b526" y="30.738933"/>
     <use style="stroke:#000000;" x="37.011876" xlink:href="#m5117e7b526" y="39.743122"/>
     <use style="stroke:#000000;" x="32.052478" xlink:href="#m5117e7b526" y="40.290204"/>
     <use style="stroke:#000000;" x="31.87535" xlink:href="#m5117e7b526" y="70.030494"/>
     <use style="stroke:#000000;" x="36.957087" xlink:href="#m5117e7b526" y="58.975016"/>
     <use style="stroke:#000000;" x="36.499039" xlink:href="#m5117e7b526" y="43.816358"/>
     <use style="stroke:#000000;" x="40.727581" xlink:href="#m5117e7b526" y="68.163164"/>
     <use style="stroke:#000000;" x="36.130929" xlink:href="#m5117e7b526" y="57.79302"/>
     <use style="stroke:#000000;" x="38.006153" xlink:href="#m5117e7b526" y="54.982927"/>
     <use style="stroke:#000000;" x="30.513339" xlink:href="#m5117e7b526" y="78.131371"/>
     <use style="stroke:#000000;" x="40.817349" xlink:href="#m5117e7b526" y="61.611825"/>
     <use style="stroke:#000000;" x="31.210391" xlink:href="#m5117e7b526" y="73.033507"/>
     <use style="stroke:#000000;" x="36.099619" xlink:href="#m5117e7b526" y="34.64563"/>
     <use style="stroke:#000000;" x="34.281319" xlink:href="#m5117e7b526" y="69.789466"/>
     <use style="stroke:#000000;" x="38.527609" xlink:href="#m5117e7b526" y="52.044081"/>
     <use style="stroke:#000000;" x="39.554995" xlink:href="#m5117e7b526" y="37.884826"/>
     <use style="stroke:#000000;" x="29.940929" xlink:href="#m5117e7b526" y="72.984879"/>
     <use style="stroke:#000000;" x="38.113798" xlink:href="#m5117e7b526" y="54.302727"/>
     <use style="stroke:#000000;" x="33.26798" xlink:href="#m5117e7b526" y="63.017127"/>
     <use style="stroke:#000000;" x="30.265274" xlink:href="#m5117e7b526" y="75.96369"/>
     <use style="stroke:#000000;" x="34.414447" xlink:href="#m5117e7b526" y="79.308583"/>
     <use style="stroke:#000000;" x="38.363221" xlink:href="#m5117e7b526" y="47.966294"/>
     <use style="stroke:#000000;" x="32.795858" xlink:href="#m5117e7b526" y="65.137424"/>
    </g>
   </g>
   <g id="patch_3">
    <path d="M 27 94.5 
L 27 12.96 
" style="fill:none;stroke:#000000;stroke-linecap:square;stroke-linejoin:miter;"/>
   </g>
   <g id="patch_4">
    <path d="M 27 94.5 
L 103.090909 94.5 
" style="fill:none;stroke:#000000;stroke-linecap:square;stroke-linejoin:miter;"/>
   </g>
   <g id="matplotlib.axis_1">
    <g id="xtick_1">
     <g id="line2d_3"/>
     <g id="text_1">
      <text style="font-family:Arial;font-size:8px;font-style:normal;font-weight:normal;text-anchor:middle;" transform="rotate(-0, 27, 103.72625)" x="27" y="103.72625">0</text>
     </g>
    </g>
    <g id="xtick_2">
     <g id="line2d_4"/>
     <g id="text_2">
      <text style="font-family:Arial;font-size:8px;font-style:normal;font-weight:normal;text-anchor:middle;" transform="rotate(-0, 77.237378, 103.72625)" x="77.237378" y="103.72625">5</text>
     </g>
    </g>
    <g id="text_3">
     <text style="font-family:Arial;font-size:10px;font-style:normal;font-weight:normal;text-anchor:middle;" transform="rotate(-0, 65.045455, 116.474063)" x="65.045455" y="116.474063">Exc</text>
    </g>
   </g>
   <g id="matplotlib.axis_2">
    <g id="ytick_1">
     <g id="line2d_5"/>
     <g id="text_4">
      <text style="font-family:Arial;font-size:8px;font-style:normal;font-weight:normal;text-anchor:end;" transform="rotate(-0, 23.5, 97.363125)" x="23.5" y="97.363125">0</text>
     </g>
    </g>
    <g id="ytick_2">
     <g id="line2d_6"/>
     <g id="text_5">
      <text style="font-family:Arial;font-size:8px;font-style:normal;font-weight:normal;text-anchor:end;" transform="rotate(-0, 23.5, 75.829116)" x="23.5" y="75.829116">2</text>
     </g>
    </g>
    <g id="ytick_3">
     <g id="line2d_7"/>
     <g id="text_6">
      <text style="font-family:Arial;font-size:8px;font-style:normal;font-weight:normal;text-anchor:end;" transform="rotate(-0, 23.5, 54.295107)" x="23.5" y="54.295107">4</text>
     </g>
    </g>
    <g id="ytick_4">
     <g id="line2d_8"/>
     <g id="text_7">
      <text style="font-family:Arial;font-size:8px;font-style:normal;font-weight:normal;text-anchor:end;" transform="rotate(-0, 23.5, 32.761098)" x="23.5" y="32.761098">6</text>
     </g>
    </g>
    <g id="text_8">
     <text style="font-family:Arial;font-size:10px;font-style:normal;font-weight:normal;text-anchor:middle;" transform="rotate(-90, 13.06375, 53.73)" x="13.06375" y="53.73">Inh</text>
    </g>
   </g>
   <g id="legend_1">
    <g id="line2d_9">
     <path d="M 36 75.622656 
L 56 75.622656 
" style="fill:none;stroke:#000000;stroke-dasharray:1.85,0.8;stroke-dashoffset:0;stroke-width:0.5;"/>
    </g>
    <g id="line2d_10"/>
    <g id="text_9">
     <!-- $R^2$ 0.45 -->
     <g transform="translate(64 72.875)">
      <text>
       <tspan style="font-family:DejaVu Sans;font-size:10px;font-style:oblique;font-weight:oblique;" x="0" y="-0.9765625">R</tspan>
       <tspan style="font-family:DejaVu Sans;font-size:7px;font-style:book;font-weight:book;" x="7.650794" y="-4.8046875">2</tspan>
       <tspan style="font-family:Arial;font-size:10px;font-style:regular;font-weight:regular;" x="12.377845 15.156165 20.717689 23.496009 29.057533" y="-0.9765625"> 0.45</tspan>
      </text>
     </g>
     <text style="font-family:Arial;font-size:10px;font-style:normal;font-weight:normal;" transform="translate(64 83.4875)"> slope 1.97</text>
    </g>
   </g>
  </g>
  <g id="axes_2">
   <g id="patch_5">
    <path d="M 118.309091 94.5 
L 194.4 94.5 
L 194.4 12.96 
L 118.309091 12.96 
z
" style="fill:#ffffff;"/>
   </g>
   <g id="PathCollection_1">
    <defs>
     <path d="M 0 2.44949 
C 0.649612 2.44949 1.272706 2.191396 1.732051 1.732051 
C 2.191396 1.272706 2.44949 0.649612 2.44949 0 
C 2.44949 -0.649612 2.191396 -1.272706 1.732051 -1.732051 
C 1.272706 -2.191396 0.649612 -2.44949 0 -2.44949 
C -0.649612 -2.44949 -1.272706 -2.191396 -1.732051 -1.732051 
C -2.191396 -1.272706 -2.44949 -0.649612 -2.44949 0 
C -2.44949 0.649612 -2.191396 1.272706 -1.732051 1.732051 
C -1.272706 2.191396 -0.649612 2.44949 0 2.44949 
z
" id="m3a0e966842" style="stroke:#000000;"/>
    </defs>
    <g clip-path="url(#pedc4b24af1)">
     <use style="stroke:#000000;" x="132.416525" xlink:href="#m3a0e966842" y="85.636102"/>
     <use style="stroke:#000000;" x="126.004949" xlink:href="#m3a0e966842" y="84.052321"/>
     <use style="stroke:#000000;" x="141.171559" xlink:href="#m3a0e966842" y="83.633353"/>
     <use style="stroke:#000000;" x="153.226855" xlink:href="#m3a0e966842" y="64.921318"/>
     <use style="stroke:#000000;" x="136.207224" xlink:href="#m3a0e966842" y="69.178189"/>
     <use style="stroke:#000000;" x="141.613471" xlink:href="#m3a0e966842" y="58.46076"/>
     <use style="stroke:#000000;" x="190.489487" xlink:href="#m3a0e966842" y="53.11103"/>
     <use style="stroke:#000000;" x="142.913212" xlink:href="#m3a0e966842" y="52.999247"/>
     <use style="stroke:#000000;" x="141.522562" xlink:href="#m3a0e966842" y="69.317296"/>
     <use style="stroke:#000000;" x="132.278589" xlink:href="#m3a0e966842" y="66.460425"/>
     <use style="stroke:#000000;" x="147.511818" xlink:href="#m3a0e966842" y="80.638241"/>
     <use style="stroke:#000000;" x="155.472166" xlink:href="#m3a0e966842" y="69.894165"/>
     <use style="stroke:#000000;" x="156.335831" xlink:href="#m3a0e966842" y="28.25185"/>
     <use style="stroke:#000000;" x="151.461551" xlink:href="#m3a0e966842" y="70.991549"/>
     <use style="stroke:#000000;" x="145.370005" xlink:href="#m3a0e966842" y="64.062211"/>
     <use style="stroke:#000000;" x="158.107347" xlink:href="#m3a0e966842" y="40.600985"/>
     <use style="stroke:#000000;" x="138.574526" xlink:href="#m3a0e966842" y="77.794923"/>
     <use style="stroke:#000000;" x="155.060078" xlink:href="#m3a0e966842" y="65.752283"/>
     <use style="stroke:#000000;" x="138.084395" xlink:href="#m3a0e966842" y="67.283196"/>
     <use style="stroke:#000000;" x="140.972494" xlink:href="#m3a0e966842" y="59.146657"/>
     <use style="stroke:#000000;" x="127.730295" xlink:href="#m3a0e966842" y="79.529334"/>
     <use style="stroke:#000000;" x="164.072703" xlink:href="#m3a0e966842" y="47.427565"/>
     <use style="stroke:#000000;" x="167.527615" xlink:href="#m3a0e966842" y="47.689244"/>
     <use style="stroke:#000000;" x="124.828297" xlink:href="#m3a0e966842" y="84.774685"/>
     <use style="stroke:#000000;" x="154.02213" xlink:href="#m3a0e966842" y="53.40562"/>
     <use style="stroke:#000000;" x="145.194564" xlink:href="#m3a0e966842" y="65.966055"/>
     <use style="stroke:#000000;" x="132.499563" xlink:href="#m3a0e966842" y="71.128958"/>
     <use style="stroke:#000000;" x="137.742851" xlink:href="#m3a0e966842" y="62.697002"/>
     <use style="stroke:#000000;" x="165.58039" xlink:href="#m3a0e966842" y="66.178867"/>
     <use style="stroke:#000000;" x="145.095394" xlink:href="#m3a0e966842" y="64.602023"/>
    </g>
   </g>
   <g id="line2d_11">
    <path clip-path="url(#pedc4b24af1)" d="M 118.309091 81.738069 
L 119.077686 81.283623 
L 119.846281 80.829177 
L 120.614876 80.374731 
L 121.383471 79.920285 
L 122.152066 79.465839 
L 122.920661 79.011392 
L 123.689256 78.556946 
L 124.457851 78.1025 
L 125.226446 77.648054 
L 125.995041 77.193608 
L 126.763636 76.739162 
L 127.532231 76.284716 
L 128.300826 75.83027 
L 129.069421 75.375824 
L 129.838017 74.921378 
L 130.606612 74.466932 
L 131.375207 74.012486 
L 132.143802 73.55804 
L 132.912397 73.103594 
L 133.680992 72.649148 
L 134.449587 72.194701 
L 135.218182 71.740255 
L 135.986777 71.285809 
L 136.755372 70.831363 
L 137.523967 70.376917 
L 138.292562 69.922471 
L 139.061157 69.468025 
L 139.829752 69.013579 
L 140.598347 68.559133 
L 141.366942 68.104687 
L 142.135537 67.650241 
L 142.904132 67.195795 
L 143.672727 66.741349 
L 144.441322 66.286903 
L 145.209917 65.832457 
L 145.978512 65.37801 
L 146.747107 64.923564 
L 147.515702 64.469118 
L 148.284298 64.014672 
L 149.052893 63.560226 
L 149.821488 63.10578 
L 150.590083 62.651334 
L 151.358678 62.196888 
L 152.127273 61.742442 
L 152.895868 61.287996 
L 153.664463 60.83355 
L 154.433058 60.379104 
L 155.201653 59.924658 
L 155.970248 59.470212 
L 156.738843 59.015766 
L 157.507438 58.561319 
L 158.276033 58.106873 
L 159.044628 57.652427 
L 159.813223 57.197981 
L 160.581818 56.743535 
L 161.350413 56.289089 
L 162.119008 55.834643 
L 162.887603 55.380197 
L 163.656198 54.925751 
L 164.424793 54.471305 
L 165.193388 54.016859 
L 165.961983 53.562413 
L 166.730579 53.107967 
L 167.499174 52.653521 
L 168.267769 52.199075 
L 169.036364 51.744628 
L 169.804959 51.290182 
L 170.573554 50.835736 
L 171.342149 50.38129 
L 172.110744 49.926844 
L 172.879339 49.472398 
L 173.647934 49.017952 
L 174.416529 48.563506 
L 175.185124 48.10906 
L 175.953719 47.654614 
L 176.722314 47.200168 
L 177.490909 46.745722 
L 178.259504 46.291276 
L 179.028099 45.83683 
L 179.796694 45.382384 
L 180.565289 44.927938 
L 181.333884 44.473491 
L 182.102479 44.019045 
L 182.871074 43.564599 
L 183.639669 43.110153 
L 184.408264 42.655707 
L 185.17686 42.201261 
L 185.945455 41.746815 
L 186.71405 41.292369 
L 187.482645 40.837923 
L 188.25124 40.383477 
L 189.019835 39.929031 
L 189.78843 39.474585 
L 190.557025 39.020139 
L 191.32562 38.565693 
L 192.094215 38.111247 
L 192.86281 37.6568 
L 193.631405 37.202354 
L 194.4 36.747908 
" style="fill:none;stroke:#000000;stroke-dasharray:1.85,0.8;stroke-dashoffset:0;stroke-width:0.5;"/>
   </g>
   <g id="patch_6">
    <path d="M 118.309091 94.5 
L 118.309091 12.96 
" style="fill:none;stroke:#000000;stroke-linecap:square;stroke-linejoin:miter;"/>
   </g>
   <g id="patch_7">
    <path d="M 118.309091 94.5 
L 194.4 94.5 
" style="fill:none;stroke:#000000;stroke-linecap:square;stroke-linejoin:miter;"/>
   </g>
   <g id="matplotlib.axis_3">
    <g id="xtick_3">
     <g id="line2d_12"/>
     <g id="text_10">
      <text style="font-family:Arial;font-size:8px;font-style:normal;font-weight:normal;text-anchor:middle;" transform="rotate(-0, 118.309091, 103.72625)" x="118.309091" y="103.72625">0</text>
     </g>
    </g>
    <g id="xtick_4">
     <g id="line2d_13"/>
     <g id="text_11">
      <text style="font-family:Arial;font-size:8px;font-style:normal;font-weight:normal;text-anchor:middle;" transform="rotate(-0, 153.747639, 103.72625)" x="153.747639" y="103.72625">1</text>
     </g>
    </g>
    <g id="xtick_5">
     <g id="line2d_14"/>
     <g id="text_12">
      <text style="font-family:Arial;font-size:8px;font-style:normal;font-weight:normal;text-anchor:middle;" transform="rotate(-0, 189.186188, 103.72625)" x="189.186188" y="103.72625">2</text>
     </g>
    </g>
    <g id="text_13">
     <!-- $\sigma$(Exc) -->
     <g transform="translate(141.504545 116.61625)">
      <text>
       <tspan style="font-family:DejaVu Sans;font-size:10px;font-style:oblique;font-weight:oblique;" x="0" y="-0.71875">σ</tspan>
       <tspan style="font-family:Arial;font-size:10px;font-style:regular;font-weight:regular;" x="6.337891 9.667969 16.337891 21.337891 26.337891" y="-0.71875">(Exc)</tspan>
      </text>
     </g>
    </g>
   </g>
   <g id="matplotlib.axis_4">
    <g id="ytick_5">
     <g id="line2d_15"/>
     <g id="text_14">
      <text style="font-family:Arial;font-size:8px;font-style:normal;font-weight:normal;text-anchor:end;" transform="rotate(-0, 114.809091, 97.363125)" x="114.809091" y="97.363125">0.0</text>
     </g>
    </g>
    <g id="ytick_6">
     <g id="line2d_16"/>
     <g id="text_15">
      <text style="font-family:Arial;font-size:8px;font-style:normal;font-weight:normal;text-anchor:end;" transform="rotate(-0, 114.809091, 78.374922)" x="114.809091" y="78.374922">0.5</text>
     </g>
    </g>
    <g id="ytick_7">
     <g id="line2d_17"/>
     <g id="text_16">
      <text style="font-family:Arial;font-size:8px;font-style:normal;font-weight:normal;text-anchor:end;" transform="rotate(-0, 114.809091, 59.386719)" x="114.809091" y="59.386719">1.0</text>
     </g>
    </g>
    <g id="ytick_8">
     <g id="line2d_18"/>
     <g id="text_17">
      <text style="font-family:Arial;font-size:8px;font-style:normal;font-weight:normal;text-anchor:end;" transform="rotate(-0, 114.809091, 40.398516)" x="114.809091" y="40.398516">1.5</text>
     </g>
    </g>
    <g id="ytick_9">
     <g id="line2d_19"/>
     <g id="text_18">
      <text style="font-family:Arial;font-size:8px;font-style:normal;font-weight:normal;text-anchor:end;" transform="rotate(-0, 114.809091, 21.410313)" x="114.809091" y="21.410313">2.0</text>
     </g>
    </g>
    <g id="text_19">
     <!-- $\sigma$(Inh) -->
     <g transform="translate(97.489091 67.18)rotate(-90)">
      <text>
       <tspan style="font-family:DejaVu Sans;font-size:10px;font-style:oblique;font-weight:oblique;" x="0" y="-0.71875">σ</tspan>
       <tspan style="font-family:Arial;font-size:10px;font-style:regular;font-weight:regular;" x="6.337891 9.667969 12.446289 18.007812 23.569336" y="-0.71875">(Inh)</tspan>
      </text>
     </g>
    </g>
   </g>
   <g id="legend_2">
    <g id="line2d_20">
     <path d="M 108.478125 31.995156 
L 128.478125 31.995156 
" style="fill:none;stroke:#000000;stroke-dasharray:1.85,0.8;stroke-dashoffset:0;stroke-width:0.5;"/>
    </g>
    <g id="line2d_21"/>
    <g id="text_20">
     <!-- $R^2$ 0.38 -->
     <g transform="translate(136.478125 29.2475)">
      <text>
       <tspan style="font-family:DejaVu Sans;font-size:10px;font-style:oblique;font-weight:oblique;" x="0" y="-0.9765625">R</tspan>
       <tspan style="font-family:DejaVu Sans;font-size:7px;font-style:book;font-weight:book;" x="7.650794" y="-4.8046875">2</tspan>
       <tspan style="font-family:Arial;font-size:10px;font-style:regular;font-weight:regular;" x="12.377845 15.156165 20.717689 23.496009 29.057533" y="-0.9765625"> 0.38</tspan>
      </text>
     </g>
     <text style="font-family:Arial;font-size:10px;font-style:normal;font-weight:normal;" transform="translate(136.478125 39.86)"> slope 0.55</text>
    </g>
   </g>
  </g>
 </g>
 <defs>
  <clipPath id="pd984511bbc">
   <rect height="81.54" width="76.090909" x="27" y="12.96"/>
  </clipPath>
  <clipPath id="pedc4b24af1">
   <rect height="81.54" width="76.090909" x="118.309091" y="12.96"/>
  </clipPath>
 </defs>
</svg>
