<?xml version="1.0" encoding="utf-8" standalone="no"?>
<!DOCTYPE svg PUBLIC "-//W3C//DTD SVG 1.1//EN"
  "http://www.w3.org/Graphics/SVG/1.1/DTD/svg11.dtd">
<!-- Created with matplotlib (http://matplotlib.org/) -->
<svg height="108pt" version="1.1" viewBox="0 0 216 108" width="216pt" xmlns="http://www.w3.org/2000/svg" xmlns:xlink="http://www.w3.org/1999/xlink">
 <defs>
  <style type="text/css">
*{stroke-linecap:butt;stroke-linejoin:round;}
  </style>
 </defs>
 <g id="figure_1">
  <g id="patch_1">
   <path d="M 0 108 
L 216 108 
L 216 0 
L 0 0 
z
" style="fill:#ffffff;"/>
  </g>
  <g id="axes_1">
   <g id="patch_2">
    <path d="M 27 94.5 
L 103.090909 94.5 
L 103.090909 12.96 
L 27 12.96 
z
" style="fill:#ffffff;"/>
   </g>
   <g id="LineCollection_1">
    <path clip-path="url(#pa9849f81a0)" d="M 24.422464 64.491011 
L 40.020397 64.491011 
" style="fill:none;stroke:#000000;stroke-width:0.5;"/>
    <path clip-path="url(#pa9849f81a0)" d="M 26.700746 86.876714 
L 33.569946 86.876714 
" style="fill:none;stroke:#000000;stroke-width:0.5;"/>
    <path clip-path="url(#pa9849f81a0)" d="M 24.043729 79.213767 
L 40.722136 79.213767 
" style="fill:none;stroke:#000000;stroke-width:0.5;"/>
    <path clip-path="url(#pa9849f81a0)" d="M 34.348826 53.528328 
L 53.322312 53.528328 
" style="fill:none;stroke:#000000;stroke-width:0.5;"/>
    <path clip-path="url(#pa9849f81a0)" d="M 24.531291 57.234947 
L 42.892185 57.234947 
" style="fill:none;stroke:#000000;stroke-width:0.5;"/>
    <path clip-path="url(#pa9849f81a0)" d="M 26.911008 86.505568 
L 33.502343 86.505568 
" style="fill:none;stroke:#000000;stroke-width:0.5;"/>
    <path clip-path="url(#pa9849f81a0)" d="M 27 87.080049 
L 27 87.080049 
" style="fill:none;stroke:#000000;stroke-width:0.5;"/>
    <path clip-path="url(#pa9849f81a0)" d="M 29.177758 76.430377 
L 39.790887 76.430377 
" style="fill:none;stroke:#000000;stroke-width:0.5;"/>
    <path clip-path="url(#pa9849f81a0)" d="M 26.32567 75.059005 
L 31.450323 75.059005 
" style="fill:none;stroke:#000000;stroke-width:0.5;"/>
    <path clip-path="url(#pa9849f81a0)" d="M 29.441345 35.490022 
L 51.917109 35.490022 
" style="fill:none;stroke:#000000;stroke-width:0.5;"/>
    <path clip-path="url(#pa9849f81a0)" d="M 25.358878 75.053238 
L 38.349526 75.053238 
" style="fill:none;stroke:#000000;stroke-width:0.5;"/>
    <path clip-path="url(#pa9849f81a0)" d="M 27.720984 49.667451 
L 56.677579 49.667451 
" style="fill:none;stroke:#000000;stroke-width:0.5;"/>
    <path clip-path="url(#pa9849f81a0)" d="M 27.097246 68.481616 
L 42.367058 68.481616 
" style="fill:none;stroke:#000000;stroke-width:0.5;"/>
    <path clip-path="url(#pa9849f81a0)" d="M 25.505157 90.006614 
L 33.938618 90.006614 
" style="fill:none;stroke:#000000;stroke-width:0.5;"/>
    <path clip-path="url(#pa9849f81a0)" d="M 28.44619 50.741402 
L 58.889871 50.741402 
" style="fill:none;stroke:#000000;stroke-width:0.5;"/>
    <path clip-path="url(#pa9849f81a0)" d="M 25.271762 57.394979 
L 40.817302 57.394979 
" style="fill:none;stroke:#000000;stroke-width:0.5;"/>
    <path clip-path="url(#pa9849f81a0)" d="M 27 94.5 
L 27 94.5 
" style="fill:none;stroke:#000000;stroke-width:0.5;"/>
    <path clip-path="url(#pa9849f81a0)" d="M 23.928589 73.130175 
L 40.292672 73.130175 
" style="fill:none;stroke:#000000;stroke-width:0.5;"/>
    <path clip-path="url(#pa9849f81a0)" d="M 25.767956 73.534615 
L 36.459989 73.534615 
" style="fill:none;stroke:#000000;stroke-width:0.5;"/>
    <path clip-path="url(#pa9849f81a0)" d="M 26.978724 75.705546 
L 36.670464 75.705546 
" style="fill:none;stroke:#000000;stroke-width:0.5;"/>
    <path clip-path="url(#pa9849f81a0)" d="M 25.534223 79.837172 
L 36.617283 79.837172 
" style="fill:none;stroke:#000000;stroke-width:0.5;"/>
    <path clip-path="url(#pa9849f81a0)" d="M 26.705019 83.211387 
L 29.04851 83.211387 
" style="fill:none;stroke:#000000;stroke-width:0.5;"/>
    <path clip-path="url(#pa9849f81a0)" d="M 32.233965 72.317078 
L 41.955756 72.317078 
" style="fill:none;stroke:#000000;stroke-width:0.5;"/>
    <path clip-path="url(#pa9849f81a0)" d="M 25.452634 44.427228 
L 43.535728 44.427228 
" style="fill:none;stroke:#000000;stroke-width:0.5;"/>
    <path clip-path="url(#pa9849f81a0)" d="M 27.396071 72.87236 
L 36.96747 72.87236 
" style="fill:none;stroke:#000000;stroke-width:0.5;"/>
    <path clip-path="url(#pa9849f81a0)" d="M 27.952294 71.01267 
L 41.229647 71.01267 
" style="fill:none;stroke:#000000;stroke-width:0.5;"/>
    <path clip-path="url(#pa9849f81a0)" d="M 27.045468 69.593981 
L 37.425553 69.593981 
" style="fill:none;stroke:#000000;stroke-width:0.5;"/>
    <path clip-path="url(#pa9849f81a0)" d="M 26.98772 70.894078 
L 38.010325 70.894078 
" style="fill:none;stroke:#000000;stroke-width:0.5;"/>
    <path clip-path="url(#pa9849f81a0)" d="M 25.586367 43.133819 
L 40.559905 43.133819 
" style="fill:none;stroke:#000000;stroke-width:0.5;"/>
    <path clip-path="url(#pa9849f81a0)" d="M 24.125837 76.515788 
L 33.839921 76.515788 
" style="fill:none;stroke:#000000;stroke-width:0.5;"/>
   </g>
   <g id="LineCollection_2">
    <path clip-path="url(#pa9849f81a0)" d="M 32.221431 75.077009 
L 32.221431 53.905014 
" style="fill:none;stroke:#000000;stroke-width:0.5;"/>
    <path clip-path="url(#pa9849f81a0)" d="M 30.135346 90.04187 
L 30.135346 83.711558 
" style="fill:none;stroke:#000000;stroke-width:0.5;"/>
    <path clip-path="url(#pa9849f81a0)" d="M 32.382933 84.861417 
L 32.382933 73.566117 
" style="fill:none;stroke:#000000;stroke-width:0.5;"/>
    <path clip-path="url(#pa9849f81a0)" d="M 43.835569 61.704849 
L 43.835569 45.351808 
" style="fill:none;stroke:#000000;stroke-width:0.5;"/>
    <path clip-path="url(#pa9849f81a0)" d="M 33.711738 62.4119 
L 33.711738 52.057994 
" style="fill:none;stroke:#000000;stroke-width:0.5;"/>
    <path clip-path="url(#pa9849f81a0)" d="M 30.206676 87.752595 
L 30.206676 85.258541 
" style="fill:none;stroke:#000000;stroke-width:0.5;"/>
    <path clip-path="url(#pa9849f81a0)" d="M 27 87.080049 
L 27 87.080049 
" style="fill:none;stroke:#000000;stroke-width:0.5;"/>
    <path clip-path="url(#pa9849f81a0)" d="M 34.484322 81.420091 
L 34.484322 71.440663 
" style="fill:none;stroke:#000000;stroke-width:0.5;"/>
    <path clip-path="url(#pa9849f81a0)" d="M 28.887996 81.819772 
L 28.887996 68.298238 
" style="fill:none;stroke:#000000;stroke-width:0.5;"/>
    <path clip-path="url(#pa9849f81a0)" d="M 40.679227 42.333604 
L 40.679227 28.64644 
" style="fill:none;stroke:#000000;stroke-width:0.5;"/>
    <path clip-path="url(#pa9849f81a0)" d="M 31.854202 85.443463 
L 31.854202 64.663013 
" style="fill:none;stroke:#000000;stroke-width:0.5;"/>
    <path clip-path="url(#pa9849f81a0)" d="M 42.199281 64.27364 
L 42.199281 35.061263 
" style="fill:none;stroke:#000000;stroke-width:0.5;"/>
    <path clip-path="url(#pa9849f81a0)" d="M 34.732152 75.940867 
L 34.732152 61.022365 
" style="fill:none;stroke:#000000;stroke-width:0.5;"/>
    <path clip-path="url(#pa9849f81a0)" d="M 29.721888 94.928872 
L 29.721888 85.084356 
" style="fill:none;stroke:#000000;stroke-width:0.5;"/>
    <path clip-path="url(#pa9849f81a0)" d="M 43.66803 57.018206 
L 43.66803 44.464598 
" style="fill:none;stroke:#000000;stroke-width:0.5;"/>
    <path clip-path="url(#pa9849f81a0)" d="M 33.044532 64.690886 
L 33.044532 50.099071 
" style="fill:none;stroke:#000000;stroke-width:0.5;"/>
    <path clip-path="url(#pa9849f81a0)" d="M 27 94.5 
L 27 94.5 
" style="fill:none;stroke:#000000;stroke-width:0.5;"/>
    <path clip-path="url(#pa9849f81a0)" d="M 32.11063 78.748952 
L 32.11063 67.511399 
" style="fill:none;stroke:#000000;stroke-width:0.5;"/>
    <path clip-path="url(#pa9849f81a0)" d="M 31.113972 79.923515 
L 31.113972 67.145714 
" style="fill:none;stroke:#000000;stroke-width:0.5;"/>
    <path clip-path="url(#pa9849f81a0)" d="M 31.824594 80.688821 
L 31.824594 70.722271 
" style="fill:none;stroke:#000000;stroke-width:0.5;"/>
    <path clip-path="url(#pa9849f81a0)" d="M 31.075753 84.293504 
L 31.075753 75.380839 
" style="fill:none;stroke:#000000;stroke-width:0.5;"/>
    <path clip-path="url(#pa9849f81a0)" d="M 27.876765 84.342344 
L 27.876765 82.080431 
" style="fill:none;stroke:#000000;stroke-width:0.5;"/>
    <path clip-path="url(#pa9849f81a0)" d="M 37.094861 79.770475 
L 37.094861 64.86368 
" style="fill:none;stroke:#000000;stroke-width:0.5;"/>
    <path clip-path="url(#pa9849f81a0)" d="M 34.494181 71.991176 
L 34.494181 16.86328 
" style="fill:none;stroke:#000000;stroke-width:0.5;"/>
    <path clip-path="url(#pa9849f81a0)" d="M 32.18177 78.371681 
L 32.18177 67.37304 
" style="fill:none;stroke:#000000;stroke-width:0.5;"/>
    <path clip-path="url(#pa9849f81a0)" d="M 34.59097 73.419287 
L 34.59097 68.606053 
" style="fill:none;stroke:#000000;stroke-width:0.5;"/>
    <path clip-path="url(#pa9849f81a0)" d="M 32.235511 73.847617 
L 32.235511 65.340346 
" style="fill:none;stroke:#000000;stroke-width:0.5;"/>
    <path clip-path="url(#pa9849f81a0)" d="M 32.499022 73.577785 
L 32.499022 68.210371 
" style="fill:none;stroke:#000000;stroke-width:0.5;"/>
    <path clip-path="url(#pa9849f81a0)" d="M 33.073136 47.299047 
L 33.073136 38.96859 
" style="fill:none;stroke:#000000;stroke-width:0.5;"/>
    <path clip-path="url(#pa9849f81a0)" d="M 28.982879 80.979294 
L 28.982879 72.052282 
" style="fill:none;stroke:#000000;stroke-width:0.5;"/>
   </g>
   <g id="line2d_1">
    <path clip-path="url(#pa9849f81a0)" d="M 27 85.255183 
L 27.768595 83.327809 
L 28.53719 81.400436 
L 29.305785 79.473063 
L 30.07438 77.545689 
L 30.842975 75.618316 
L 31.61157 73.690943 
L 32.380165 71.763569 
L 33.14876 69.836196 
L 33.917355 67.908823 
L 34.68595 65.981449 
L 35.454545 64.054076 
L 36.22314 62.126702 
L 36.991736 60.199329 
L 37.760331 58.271956 
L 38.528926 56.344582 
L 39.297521 54.417209 
L 40.066116 52.489836 
L 40.834711 50.562462 
L 41.603306 48.635089 
L 42.371901 46.707715 
L 43.140496 44.780342 
L 43.909091 42.852969 
L 44.677686 40.925595 
L 45.446281 38.998222 
L 46.214876 37.070849 
L 46.983471 35.143475 
L 47.752066 33.216102 
L 48.520661 31.288728 
L 49.289256 29.361355 
L 50.057851 27.433982 
L 50.826446 25.506608 
L 51.595041 23.579235 
L 52.363636 21.651862 
L 53.132231 19.724488 
L 53.900826 17.797115 
L 54.669421 15.869742 
L 55.438017 13.942368 
L 56.206612 12.014995 
L 56.975207 10.087621 
L 57.743802 8.160248 
L 58.512397 6.232875 
L 59.280992 4.305501 
L 60.049587 2.378128 
L 60.818182 0.450755 
L 61.396712 -1 
" style="fill:none;stroke:#000000;stroke-dasharray:1.85,0.8;stroke-dashoffset:0;stroke-width:0.5;"/>
   </g>
   <g id="line2d_2">
    <defs>
     <path d="M 0 3 
C 0.795609 3 1.55874 2.683901 2.12132 2.12132 
C 2.683901 1.55874 3 0.795609 3 0 
C 3 -0.795609 2.683901 -1.55874 2.12132 -2.12132 
C 1.55874 -2.683901 0.795609 -3 0 -3 
C -0.795609 -3 -1.55874 -2.683901 -2.12132 -2.12132 
C -2.683901 -1.55874 -3 -0.795609 -3 0 
C -3 0.795609 -2.683901 1.55874 -2.12132 2.12132 
C -1.55874 2.683901 -0.795609 3 0 3 
z
" id="m9acc3a2141" style="stroke:#000000;"/>
    </defs>
    <g clip-path="url(#pa9849f81a0)">
     <use style="stroke:#000000;" x="32.221431" xlink:href="#m9acc3a2141" y="64.491011"/>
     <use style="stroke:#000000;" x="30.135346" xlink:href="#m9acc3a2141" y="86.876714"/>
     <use style="stroke:#000000;" x="32.382933" xlink:href="#m9acc3a2141" y="79.213767"/>
     <use style="stroke:#000000;" x="43.835569" xlink:href="#m9acc3a2141" y="53.528328"/>
     <use style="stroke:#000000;" x="33.711738" xlink:href="#m9acc3a2141" y="57.234947"/>
     <use style="stroke:#000000;" x="30.206676" xlink:href="#m9acc3a2141" y="86.505568"/>
     <use style="stroke:#000000;" x="27" xlink:href="#m9acc3a2141" y="87.080049"/>
     <use style="stroke:#000000;" x="34.484322" xlink:href="#m9acc3a2141" y="76.430377"/>
     <use style="stroke:#000000;" x="28.887996" xlink:href="#m9acc3a2141" y="75.059005"/>
     <use style="stroke:#000000;" x="40.679227" xlink:href="#m9acc3a2141" y="35.490022"/>
     <use style="stroke:#000000;" x="31.854202" xlink:href="#m9acc3a2141" y="75.053238"/>
     <use style="stroke:#000000;" x="42.199281" xlink:href="#m9acc3a2141" y="49.667451"/>
     <use style="stroke:#000000;" x="34.732152" xlink:href="#m9acc3a2141" y="68.481616"/>
     <use style="stroke:#000000;" x="29.721888" xlink:href="#m9acc3a2141" y="90.006614"/>
     <use style="stroke:#000000;" x="43.66803" xlink:href="#m9acc3a2141" y="50.741402"/>
     <use style="stroke:#000000;" x="33.044532" xlink:href="#m9acc3a2141" y="57.394979"/>
     <use style="stroke:#000000;" x="27" xlink:href="#m9acc3a2141" y="94.5"/>
     <use style="stroke:#000000;" x="32.11063" xlink:href="#m9acc3a2141" y="73.130175"/>
     <use style="stroke:#000000;" x="31.113972" xlink:href="#m9acc3a2141" y="73.534615"/>
     <use style="stroke:#000000;" x="31.824594" xlink:href="#m9acc3a2141" y="75.705546"/>
     <use style="stroke:#000000;" x="31.075753" xlink:href="#m9acc3a2141" y="79.837172"/>
     <use style="stroke:#000000;" x="27.876765" xlink:href="#m9acc3a2141" y="83.211387"/>
     <use style="stroke:#000000;" x="37.094861" xlink:href="#m9acc3a2141" y="72.317078"/>
     <use style="stroke:#000000;" x="34.494181" xlink:href="#m9acc3a2141" y="44.427228"/>
     <use style="stroke:#000000;" x="32.18177" xlink:href="#m9acc3a2141" y="72.87236"/>
     <use style="stroke:#000000;" x="34.59097" xlink:href="#m9acc3a2141" y="71.01267"/>
     <use style="stroke:#000000;" x="32.235511" xlink:href="#m9acc3a2141" y="69.593981"/>
     <use style="stroke:#000000;" x="32.499022" xlink:href="#m9acc3a2141" y="70.894078"/>
     <use style="stroke:#000000;" x="33.073136" xlink:href="#m9acc3a2141" y="43.133819"/>
     <use style="stroke:#000000;" x="28.982879" xlink:href="#m9acc3a2141" y="76.515788"/>
    </g>
   </g>
   <g id="patch_3">
    <path d="M 27 94.5 
L 27 12.96 
" style="fill:none;stroke:#000000;stroke-linecap:square;stroke-linejoin:miter;"/>
   </g>
   <g id="patch_4">
    <path d="M 27 94.5 
L 103.090909 94.5 
" style="fill:none;stroke:#000000;stroke-linecap:square;stroke-linejoin:miter;"/>
   </g>
   <g id="matplotlib.axis_1">
    <g id="xtick_1">
     <g id="line2d_3"/>
     <g id="text_1">
      <text style="font-family:Arial;font-size:8px;font-style:normal;font-weight:normal;text-anchor:middle;" transform="rotate(-0, 27, 103.72625)" x="27" y="103.72625">0</text>
     </g>
    </g>
    <g id="xtick_2">
     <g id="line2d_4"/>
     <g id="text_2">
      <text style="font-family:Arial;font-size:8px;font-style:normal;font-weight:normal;text-anchor:middle;" transform="rotate(-0, 57.483947, 103.72625)" x="57.483947" y="103.72625">5</text>
     </g>
    </g>
    <g id="xtick_3">
     <g id="line2d_5"/>
     <g id="text_3">
      <text style="font-family:Arial;font-size:8px;font-style:normal;font-weight:normal;text-anchor:middle;" transform="rotate(-0, 87.967894, 103.72625)" x="87.967894" y="103.72625">10</text>
     </g>
    </g>
    <g id="text_4">
     <text style="font-family:Arial;font-size:10px;font-style:normal;font-weight:normal;text-anchor:middle;" transform="rotate(-0, 65.045455, 116.474063)" x="65.045455" y="116.474063">Exc</text>
    </g>
   </g>
   <g id="matplotlib.axis_2">
    <g id="ytick_1">
     <g id="line2d_6"/>
     <g id="text_5">
      <text style="font-family:Arial;font-size:8px;font-style:normal;font-weight:normal;text-anchor:end;" transform="rotate(-0, 23.5, 97.363125)" x="23.5" y="97.363125">0.0</text>
     </g>
    </g>
    <g id="ytick_2">
     <g id="line2d_7"/>
     <g id="text_6">
      <text style="font-family:Arial;font-size:8px;font-style:normal;font-weight:normal;text-anchor:end;" transform="rotate(-0, 23.5, 81.02963)" x="23.5" y="81.02963">2.5</text>
     </g>
    </g>
    <g id="ytick_3">
     <g id="line2d_8"/>
     <g id="text_7">
      <text style="font-family:Arial;font-size:8px;font-style:normal;font-weight:normal;text-anchor:end;" transform="rotate(-0, 23.5, 64.696134)" x="23.5" y="64.696134">5.0</text>
     </g>
    </g>
    <g id="ytick_4">
     <g id="line2d_9"/>
     <g id="text_8">
      <text style="font-family:Arial;font-size:8px;font-style:normal;font-weight:normal;text-anchor:end;" transform="rotate(-0, 23.5, 48.362639)" x="23.5" y="48.362639">7.5</text>
     </g>
    </g>
    <g id="ytick_5">
     <g id="line2d_10"/>
     <g id="text_9">
      <text style="font-family:Arial;font-size:8px;font-style:normal;font-weight:normal;text-anchor:end;" transform="rotate(-0, 23.5, 32.029144)" x="23.5" y="32.029144">10.0</text>
     </g>
    </g>
    <g id="ytick_6">
     <g id="line2d_11"/>
     <g id="text_10">
      <text style="font-family:Arial;font-size:8px;font-style:normal;font-weight:normal;text-anchor:end;" transform="rotate(-0, 23.5, 15.695648)" x="23.5" y="15.695648">12.5</text>
     </g>
    </g>
    <g id="text_11">
     <text style="font-family:Arial;font-size:10px;font-style:normal;font-weight:normal;text-anchor:middle;" transform="rotate(-90, 1.94375, 53.73)" x="1.94375" y="53.73">Inh</text>
    </g>
   </g>
   <g id="legend_1">
    <g id="line2d_12">
     <path d="M 36 75.622656 
L 56 75.622656 
" style="fill:none;stroke:#000000;stroke-dasharray:1.85,0.8;stroke-dashoffset:0;stroke-width:0.5;"/>
    </g>
    <g id="line2d_13"/>
    <g id="text_12">
     <!-- $R^2$ 0.56 -->
     <g transform="translate(64 72.875)">
      <text>
       <tspan style="font-family:DejaVu Sans;font-size:10px;font-style:oblique;font-weight:oblique;" x="0" y="-0.9765625">R</tspan>
       <tspan style="font-family:DejaVu Sans;font-size:7px;font-style:book;font-weight:book;" x="7.650794" y="-4.8046875">2</tspan>
       <tspan style="font-family:Arial;font-size:10px;font-style:regular;font-weight:regular;" x="12.377845 15.156165 20.717689 23.496009 29.057533" y="-0.9765625"> 0.56</tspan>
      </text>
     </g>
     <text style="font-family:Arial;font-size:10px;font-style:normal;font-weight:normal;" transform="translate(64 83.4875)"> slope 2.34</text>
    </g>
   </g>
  </g>
  <g id="axes_2">
   <g id="patch_5">
    <path d="M 118.309091 94.5 
L 194.4 94.5 
L 194.4 12.96 
L 118.309091 12.96 
z
" style="fill:#ffffff;"/>
   </g>
   <g id="PathCollection_1">
    <defs>
     <path d="M 0 2.44949 
C 0.649612 2.44949 1.272706 2.191396 1.732051 1.732051 
C 2.191396 1.272706 2.44949 0.649612 2.44949 0 
C 2.44949 -0.649612 2.191396 -1.272706 1.732051 -1.732051 
C 1.272706 -2.191396 0.649612 -2.44949 0 -2.44949 
C -0.649612 -2.44949 -1.272706 -2.191396 -1.732051 -1.732051 
C -2.191396 -1.272706 -2.44949 -0.649612 -2.44949 0 
C -2.44949 0.649612 -2.191396 1.272706 -1.732051 1.732051 
C -1.272706 2.191396 -0.649612 2.44949 0 2.44949 
z
" id="mc3e368755b" style="stroke:#000000;"/>
    </defs>
    <g clip-path="url(#p1499922b36)">
     <use style="stroke:#000000;" x="140.220176" xlink:href="#mc3e368755b" y="64.75879"/>
     <use style="stroke:#000000;" x="127.958551" xlink:href="#mc3e368755b" y="85.607539"/>
     <use style="stroke:#000000;" x="141.737964" xlink:href="#mc3e368755b" y="78.633008"/>
     <use style="stroke:#000000;" x="144.961959" xlink:href="#mc3e368755b" y="71.528182"/>
     <use style="stroke:#000000;" x="144.101427" xlink:href="#mc3e368755b" y="79.955424"/>
     <use style="stroke:#000000;" x="127.568222" xlink:href="#mc3e368755b" y="90.996495"/>
     <use style="stroke:#000000;" x="118.309091" xlink:href="#mc3e368755b" y="94.5"/>
     <use style="stroke:#000000;" x="133.217808" xlink:href="#mc3e368755b" y="80.481469"/>
     <use style="stroke:#000000;" x="125.507911" xlink:href="#mc3e368755b" y="75.505721"/>
     <use style="stroke:#000000;" x="149.88176" xlink:href="#mc3e368755b" y="75.273054"/>
     <use style="stroke:#000000;" x="136.557611" xlink:href="#mc3e368755b" y="65.308811"/>
     <use style="stroke:#000000;" x="158.985661" xlink:href="#mc3e368755b" y="53.464123"/>
     <use style="stroke:#000000;" x="139.75925" xlink:href="#mc3e368755b" y="73.543341"/>
     <use style="stroke:#000000;" x="130.155935" xlink:href="#mc3e368755b" y="80.670987"/>
     <use style="stroke:#000000;" x="161.074634" xlink:href="#mc3e368755b" y="76.86541"/>
     <use style="stroke:#000000;" x="140.146579" xlink:href="#mc3e368755b" y="74.002253"/>
     <use style="stroke:#000000;" x="118.309091" xlink:href="#mc3e368755b" y="94.5"/>
     <use style="stroke:#000000;" x="141.29642" xlink:href="#mc3e368755b" y="78.714127"/>
     <use style="stroke:#000000;" x="133.328648" xlink:href="#mc3e368755b" y="76.550475"/>
     <use style="stroke:#000000;" x="131.923494" xlink:href="#mc3e368755b" y="80.499559"/>
     <use style="stroke:#000000;" x="133.87794" xlink:href="#mc3e368755b" y="81.979997"/>
     <use style="stroke:#000000;" x="121.601092" xlink:href="#mc3e368755b" y="91.322593"/>
     <use style="stroke:#000000;" x="131.965707" xlink:href="#mc3e368755b" y="73.559786"/>
     <use style="stroke:#000000;" x="143.711188" xlink:href="#mc3e368755b" y="17.059481"/>
     <use style="stroke:#000000;" x="131.754445" xlink:href="#mc3e368755b" y="79.049737"/>
     <use style="stroke:#000000;" x="136.960358" xlink:href="#mc3e368755b" y="87.738644"/>
     <use style="stroke:#000000;" x="132.890442" xlink:href="#mc3e368755b" y="82.549472"/>
     <use style="stroke:#000000;" x="133.793017" xlink:href="#mc3e368755b" y="86.960162"/>
     <use style="stroke:#000000;" x="139.343061" xlink:href="#mc3e368755b" y="82.79785"/>
     <use style="stroke:#000000;" x="131.954881" xlink:href="#mc3e368755b" y="81.959843"/>
    </g>
   </g>
   <g id="line2d_14">
    <path clip-path="url(#p1499922b36)" d="M 118.309091 90.726891 
L 119.077686 90.142833 
L 119.846281 89.558775 
L 120.614876 88.974717 
L 121.383471 88.390659 
L 122.152066 87.806601 
L 122.920661 87.222544 
L 123.689256 86.638486 
L 124.457851 86.054428 
L 125.226446 85.47037 
L 125.995041 84.886312 
L 126.763636 84.302254 
L 127.532231 83.718196 
L 128.300826 83.134138 
L 129.069421 82.550081 
L 129.838017 81.966023 
L 130.606612 81.381965 
L 131.375207 80.797907 
L 132.143802 80.213849 
L 132.912397 79.629791 
L 133.680992 79.045733 
L 134.449587 78.461675 
L 135.218182 77.877618 
L 135.986777 77.29356 
L 136.755372 76.709502 
L 137.523967 76.125444 
L 138.292562 75.541386 
L 139.061157 74.957328 
L 139.829752 74.37327 
L 140.598347 73.789212 
L 141.366942 73.205155 
L 142.135537 72.621097 
L 142.904132 72.037039 
L 143.672727 71.452981 
L 144.441322 70.868923 
L 145.209917 70.284865 
L 145.978512 69.700807 
L 146.747107 69.116749 
L 147.515702 68.532692 
L 148.284298 67.948634 
L 149.052893 67.364576 
L 149.821488 66.780518 
L 150.590083 66.19646 
L 151.358678 65.612402 
L 152.127273 65.028344 
L 152.895868 64.444287 
L 153.664463 63.860229 
L 154.433058 63.276171 
L 155.201653 62.692113 
L 155.970248 62.108055 
L 156.738843 61.523997 
L 157.507438 60.939939 
L 158.276033 60.355881 
L 159.044628 59.771824 
L 159.813223 59.187766 
L 160.581818 58.603708 
L 161.350413 58.01965 
L 162.119008 57.435592 
L 162.887603 56.851534 
L 163.656198 56.267476 
L 164.424793 55.683418 
L 165.193388 55.099361 
L 165.961983 54.515303 
L 166.730579 53.931245 
L 167.499174 53.347187 
L 168.267769 52.763129 
L 169.036364 52.179071 
L 169.804959 51.595013 
L 170.573554 51.010955 
L 171.342149 50.426898 
L 172.110744 49.84284 
L 172.879339 49.258782 
L 173.647934 48.674724 
L 174.416529 48.090666 
L 175.185124 47.506608 
L 175.953719 46.92255 
L 176.722314 46.338492 
L 177.490909 45.754435 
L 178.259504 45.170377 
L 179.028099 44.586319 
L 179.796694 44.002261 
L 180.565289 43.418203 
L 181.333884 42.834145 
L 182.102479 42.250087 
L 182.871074 41.666029 
L 183.639669 41.081972 
L 184.408264 40.497914 
L 185.17686 39.913856 
L 185.945455 39.329798 
L 186.71405 38.74574 
L 187.482645 38.161682 
L 188.25124 37.577624 
L 189.019835 36.993566 
L 189.78843 36.409509 
L 190.557025 35.825451 
L 191.32562 35.241393 
L 192.094215 34.657335 
L 192.86281 34.073277 
L 193.631405 33.489219 
L 194.4 32.905161 
" style="fill:none;stroke:#000000;stroke-dasharray:1.85,0.8;stroke-dashoffset:0;stroke-width:0.5;"/>
   </g>
   <g id="patch_6">
    <path d="M 118.309091 94.5 
L 118.309091 12.96 
" style="fill:none;stroke:#000000;stroke-linecap:square;stroke-linejoin:miter;"/>
   </g>
   <g id="patch_7">
    <path d="M 118.309091 94.5 
L 194.4 94.5 
" style="fill:none;stroke:#000000;stroke-linecap:square;stroke-linejoin:miter;"/>
   </g>
   <g id="matplotlib.axis_3">
    <g id="xtick_4">
     <g id="line2d_15"/>
     <g id="text_13">
      <text style="font-family:Arial;font-size:8px;font-style:normal;font-weight:normal;text-anchor:middle;" transform="rotate(-0, 118.309091, 103.72625)" x="118.309091" y="103.72625">0</text>
     </g>
    </g>
    <g id="xtick_5">
     <g id="line2d_16"/>
     <g id="text_14">
      <text style="font-family:Arial;font-size:8px;font-style:normal;font-weight:normal;text-anchor:middle;" transform="rotate(-0, 152.566776, 103.72625)" x="152.566776" y="103.72625">2</text>
     </g>
    </g>
    <g id="xtick_6">
     <g id="line2d_17"/>
     <g id="text_15">
      <text style="font-family:Arial;font-size:8px;font-style:normal;font-weight:normal;text-anchor:middle;" transform="rotate(-0, 186.824462, 103.72625)" x="186.824462" y="103.72625">4</text>
     </g>
    </g>
    <g id="text_16">
     <!-- $\sigma$(Exc) -->
     <g transform="translate(141.504545 116.61625)">
      <text>
       <tspan style="font-family:DejaVu Sans;font-size:10px;font-style:oblique;font-weight:oblique;" x="0" y="-0.71875">σ</tspan>
       <tspan style="font-family:Arial;font-size:10px;font-style:regular;font-weight:regular;" x="6.337891 9.667969 16.337891 21.337891 26.337891" y="-0.71875">(Exc)</tspan>
      </text>
     </g>
    </g>
   </g>
   <g id="matplotlib.axis_4">
    <g id="ytick_7">
     <g id="line2d_18"/>
     <g id="text_17">
      <text style="font-family:Arial;font-size:8px;font-style:normal;font-weight:normal;text-anchor:end;" transform="rotate(-0, 114.809091, 97.363125)" x="114.809091" y="97.363125">0</text>
     </g>
    </g>
    <g id="ytick_8">
     <g id="line2d_19"/>
     <g id="text_18">
      <text style="font-family:Arial;font-size:8px;font-style:normal;font-weight:normal;text-anchor:end;" transform="rotate(-0, 114.809091, 79.007636)" x="114.809091" y="79.007636">1</text>
     </g>
    </g>
    <g id="ytick_9">
     <g id="line2d_20"/>
     <g id="text_19">
      <text style="font-family:Arial;font-size:8px;font-style:normal;font-weight:normal;text-anchor:end;" transform="rotate(-0, 114.809091, 60.652147)" x="114.809091" y="60.652147">2</text>
     </g>
    </g>
    <g id="ytick_10">
     <g id="line2d_21"/>
     <g id="text_20">
      <text style="font-family:Arial;font-size:8px;font-style:normal;font-weight:normal;text-anchor:end;" transform="rotate(-0, 114.809091, 42.296658)" x="114.809091" y="42.296658">3</text>
     </g>
    </g>
    <g id="ytick_11">
     <g id="line2d_22"/>
     <g id="text_21">
      <text style="font-family:Arial;font-size:8px;font-style:normal;font-weight:normal;text-anchor:end;" transform="rotate(-0, 114.809091, 23.941169)" x="114.809091" y="23.941169">4</text>
     </g>
    </g>
    <g id="text_22">
     <!-- $\sigma$(Inh) -->
     <g transform="translate(104.160341 67.18)rotate(-90)">
      <text>
       <tspan style="font-family:DejaVu Sans;font-size:10px;font-style:oblique;font-weight:oblique;" x="0" y="-0.71875">σ</tspan>
       <tspan style="font-family:Arial;font-size:10px;font-style:regular;font-weight:regular;" x="6.337891 9.667969 12.446289 18.007812 23.569336" y="-0.71875">(Inh)</tspan>
      </text>
     </g>
    </g>
   </g>
   <g id="legend_2">
    <g id="line2d_23">
     <path d="M 108.478125 31.995156 
L 128.478125 31.995156 
" style="fill:none;stroke:#000000;stroke-dasharray:1.85,0.8;stroke-dashoffset:0;stroke-width:0.5;"/>
    </g>
    <g id="line2d_24"/>
    <g id="text_23">
     <!-- $R^2$ 0.28 -->
     <g transform="translate(136.478125 29.2475)">
      <text>
       <tspan style="font-family:DejaVu Sans;font-size:10px;font-style:oblique;font-weight:oblique;" x="0" y="-0.9765625">R</tspan>
       <tspan style="font-family:DejaVu Sans;font-size:7px;font-style:book;font-weight:book;" x="7.650794" y="-4.8046875">2</tspan>
       <tspan style="font-family:Arial;font-size:10px;font-style:regular;font-weight:regular;" x="12.377845 15.156165 20.717689 23.496009 29.057533" y="-0.9765625"> 0.28</tspan>
      </text>
     </g>
     <text style="font-family:Arial;font-size:10px;font-style:normal;font-weight:normal;" transform="translate(136.478125 39.86)"> slope 0.71</text>
    </g>
   </g>
  </g>
 </g>
 <defs>
  <clipPath id="pa9849f81a0">
   <rect height="81.54" width="76.090909" x="27" y="12.96"/>
  </clipPath>
  <clipPath id="p1499922b36">
   <rect height="81.54" width="76.090909" x="118.309091" y="12.96"/>
  </clipPath>
 </defs>
</svg>
