<?xml version="1.0" encoding="utf-8" standalone="no"?>
<!DOCTYPE svg PUBLIC "-//W3C//DTD SVG 1.1//EN"
  "http://www.w3.org/Graphics/SVG/1.1/DTD/svg11.dtd">
<!-- Created with matplotlib (http://matplotlib.org/) -->
<svg height="108pt" version="1.1" viewBox="0 0 216 108" width="216pt" xmlns="http://www.w3.org/2000/svg" xmlns:xlink="http://www.w3.org/1999/xlink">
 <defs>
  <style type="text/css">
*{stroke-linecap:butt;stroke-linejoin:round;}
  </style>
 </defs>
 <g id="figure_1">
  <g id="patch_1">
   <path d="M 0 108 
L 216 108 
L 216 0 
L 0 0 
z
" style="fill:#ffffff;"/>
  </g>
  <g id="axes_1">
   <g id="patch_2">
    <path d="M 27 94.5 
L 103.090909 94.5 
L 103.090909 12.96 
L 27 12.96 
z
" style="fill:#ffffff;"/>
   </g>
   <g id="LineCollection_1">
    <path clip-path="url(#p2918d0deca)" d="M 27 80.964836 
L 27 80.964836 
" style="fill:none;stroke:#000000;stroke-width:0.5;"/>
    <path clip-path="url(#p2918d0deca)" d="M 23.936309 59.5613 
L 38.177058 59.5613 
" style="fill:none;stroke:#000000;stroke-width:0.5;"/>
    <path clip-path="url(#p2918d0deca)" d="M 24.945023 32.442536 
L 49.084933 32.442536 
" style="fill:none;stroke:#000000;stroke-width:0.5;"/>
    <path clip-path="url(#p2918d0deca)" d="M 27 94.5 
L 27 94.5 
" style="fill:none;stroke:#000000;stroke-width:0.5;"/>
    <path clip-path="url(#p2918d0deca)" d="M 35.016303 51.397376 
L 50.660291 51.397376 
" style="fill:none;stroke:#000000;stroke-width:0.5;"/>
    <path clip-path="url(#p2918d0deca)" d="M 23.822138 53.851092 
L 50.285558 53.851092 
" style="fill:none;stroke:#000000;stroke-width:0.5;"/>
    <path clip-path="url(#p2918d0deca)" d="M 26.456614 90.178497 
L 28.293147 90.178497 
" style="fill:none;stroke:#000000;stroke-width:0.5;"/>
    <path clip-path="url(#p2918d0deca)" d="M 29.816214 63.9483 
L 50.233444 63.9483 
" style="fill:none;stroke:#000000;stroke-width:0.5;"/>
    <path clip-path="url(#p2918d0deca)" d="M 31.019853 63.88844 
L 59.271553 63.88844 
" style="fill:none;stroke:#000000;stroke-width:0.5;"/>
    <path clip-path="url(#p2918d0deca)" d="M 25.798093 64.295057 
L 47.418978 64.295057 
" style="fill:none;stroke:#000000;stroke-width:0.5;"/>
    <path clip-path="url(#p2918d0deca)" d="M 29.982831 50.771324 
L 45.809032 50.771324 
" style="fill:none;stroke:#000000;stroke-width:0.5;"/>
    <path clip-path="url(#p2918d0deca)" d="M 28.165604 78.165573 
L 34.445022 78.165573 
" style="fill:none;stroke:#000000;stroke-width:0.5;"/>
    <path clip-path="url(#p2918d0deca)" d="M 29.490013 71.729715 
L 38.049986 71.729715 
" style="fill:none;stroke:#000000;stroke-width:0.5;"/>
    <path clip-path="url(#p2918d0deca)" d="M 29.132246 48.578605 
L 63.744932 48.578605 
" style="fill:none;stroke:#000000;stroke-width:0.5;"/>
    <path clip-path="url(#p2918d0deca)" d="M 26.642181 65.299638 
L 35.187073 65.299638 
" style="fill:none;stroke:#000000;stroke-width:0.5;"/>
    <path clip-path="url(#p2918d0deca)" d="M 27 85.319422 
L 27 85.319422 
" style="fill:none;stroke:#000000;stroke-width:0.5;"/>
    <path clip-path="url(#p2918d0deca)" d="M 20.411223 53.435331 
L 50.390206 53.435331 
" style="fill:none;stroke:#000000;stroke-width:0.5;"/>
    <path clip-path="url(#p2918d0deca)" d="M 30.816706 39.484906 
L 50.828197 39.484906 
" style="fill:none;stroke:#000000;stroke-width:0.5;"/>
    <path clip-path="url(#p2918d0deca)" d="M 28.19219 58.815012 
L 54.64939 58.815012 
" style="fill:none;stroke:#000000;stroke-width:0.5;"/>
    <path clip-path="url(#p2918d0deca)" d="M 27.567726 51.048868 
L 53.826222 51.048868 
" style="fill:none;stroke:#000000;stroke-width:0.5;"/>
    <path clip-path="url(#p2918d0deca)" d="M 36.185759 64.654311 
L 57.576579 64.654311 
" style="fill:none;stroke:#000000;stroke-width:0.5;"/>
    <path clip-path="url(#p2918d0deca)" d="M 25.342429 82.135925 
L 33.719024 82.135925 
" style="fill:none;stroke:#000000;stroke-width:0.5;"/>
    <path clip-path="url(#p2918d0deca)" d="M 27.094813 82.563431 
L 32.60709 82.563431 
" style="fill:none;stroke:#000000;stroke-width:0.5;"/>
    <path clip-path="url(#p2918d0deca)" d="M 26.642388 77.550729 
L 52.437574 77.550729 
" style="fill:none;stroke:#000000;stroke-width:0.5;"/>
    <path clip-path="url(#p2918d0deca)" d="M 26.217695 87.148331 
L 28.861726 87.148331 
" style="fill:none;stroke:#000000;stroke-width:0.5;"/>
    <path clip-path="url(#p2918d0deca)" d="M 28.11618 75.947739 
L 39.321646 75.947739 
" style="fill:none;stroke:#000000;stroke-width:0.5;"/>
    <path clip-path="url(#p2918d0deca)" d="M 26.413566 59.262362 
L 53.959672 59.262362 
" style="fill:none;stroke:#000000;stroke-width:0.5;"/>
    <path clip-path="url(#p2918d0deca)" d="M 24.24632 31.921383 
L 47.07446 31.921383 
" style="fill:none;stroke:#000000;stroke-width:0.5;"/>
    <path clip-path="url(#p2918d0deca)" d="M 26.28903 69.178113 
L 43.568474 69.178113 
" style="fill:none;stroke:#000000;stroke-width:0.5;"/>
    <path clip-path="url(#p2918d0deca)" d="M 29.592092 72.833706 
L 47.412075 72.833706 
" style="fill:none;stroke:#000000;stroke-width:0.5;"/>
   </g>
   <g id="LineCollection_2">
    <path clip-path="url(#p2918d0deca)" d="M 27 82.01808 
L 27 79.911592 
" style="fill:none;stroke:#000000;stroke-width:0.5;"/>
    <path clip-path="url(#p2918d0deca)" d="M 31.056683 67.094772 
L 31.056683 52.027828 
" style="fill:none;stroke:#000000;stroke-width:0.5;"/>
    <path clip-path="url(#p2918d0deca)" d="M 37.014978 44.476937 
L 37.014978 20.408134 
" style="fill:none;stroke:#000000;stroke-width:0.5;"/>
    <path clip-path="url(#p2918d0deca)" d="M 27 94.5 
L 27 94.5 
" style="fill:none;stroke:#000000;stroke-width:0.5;"/>
    <path clip-path="url(#p2918d0deca)" d="M 42.838297 65.110234 
L 42.838297 37.684517 
" style="fill:none;stroke:#000000;stroke-width:0.5;"/>
    <path clip-path="url(#p2918d0deca)" d="M 37.053848 67.255162 
L 37.053848 40.447021 
" style="fill:none;stroke:#000000;stroke-width:0.5;"/>
    <path clip-path="url(#p2918d0deca)" d="M 27.374881 92.14657 
L 27.374881 88.210423 
" style="fill:none;stroke:#000000;stroke-width:0.5;"/>
    <path clip-path="url(#p2918d0deca)" d="M 40.024829 67.850413 
L 40.024829 60.046187 
" style="fill:none;stroke:#000000;stroke-width:0.5;"/>
    <path clip-path="url(#p2918d0deca)" d="M 45.145703 79.459872 
L 45.145703 48.317009 
" style="fill:none;stroke:#000000;stroke-width:0.5;"/>
    <path clip-path="url(#p2918d0deca)" d="M 36.608535 82.746461 
L 36.608535 45.843654 
" style="fill:none;stroke:#000000;stroke-width:0.5;"/>
    <path clip-path="url(#p2918d0deca)" d="M 37.895932 67.446848 
L 37.895932 34.095799 
" style="fill:none;stroke:#000000;stroke-width:0.5;"/>
    <path clip-path="url(#p2918d0deca)" d="M 31.305313 80.335953 
L 31.305313 75.995194 
" style="fill:none;stroke:#000000;stroke-width:0.5;"/>
    <path clip-path="url(#p2918d0deca)" d="M 33.77 75.48733 
L 33.77 67.972099 
" style="fill:none;stroke:#000000;stroke-width:0.5;"/>
    <path clip-path="url(#p2918d0deca)" d="M 46.438589 61.990184 
L 46.438589 35.167027 
" style="fill:none;stroke:#000000;stroke-width:0.5;"/>
    <path clip-path="url(#p2918d0deca)" d="M 30.914627 69.140043 
L 30.914627 61.459232 
" style="fill:none;stroke:#000000;stroke-width:0.5;"/>
    <path clip-path="url(#p2918d0deca)" d="M 27 86.037454 
L 27 84.60139 
" style="fill:none;stroke:#000000;stroke-width:0.5;"/>
    <path clip-path="url(#p2918d0deca)" d="M 35.400714 65.767014 
L 35.400714 41.103648 
" style="fill:none;stroke:#000000;stroke-width:0.5;"/>
    <path clip-path="url(#p2918d0deca)" d="M 40.822451 56.231709 
L 40.822451 22.738104 
" style="fill:none;stroke:#000000;stroke-width:0.5;"/>
    <path clip-path="url(#p2918d0deca)" d="M 41.42079 72.227444 
L 41.42079 45.402579 
" style="fill:none;stroke:#000000;stroke-width:0.5;"/>
    <path clip-path="url(#p2918d0deca)" d="M 40.696974 66.372092 
L 40.696974 35.725643 
" style="fill:none;stroke:#000000;stroke-width:0.5;"/>
    <path clip-path="url(#p2918d0deca)" d="M 46.881169 72.930181 
L 46.881169 56.37844 
" style="fill:none;stroke:#000000;stroke-width:0.5;"/>
    <path clip-path="url(#p2918d0deca)" d="M 29.530727 90.003368 
L 29.530727 74.268482 
" style="fill:none;stroke:#000000;stroke-width:0.5;"/>
    <path clip-path="url(#p2918d0deca)" d="M 29.850951 84.334158 
L 29.850951 80.792705 
" style="fill:none;stroke:#000000;stroke-width:0.5;"/>
    <path clip-path="url(#p2918d0deca)" d="M 39.539981 91.076989 
L 39.539981 64.024469 
" style="fill:none;stroke:#000000;stroke-width:0.5;"/>
    <path clip-path="url(#p2918d0deca)" d="M 27.539711 87.148331 
L 27.539711 87.148331 
" style="fill:none;stroke:#000000;stroke-width:0.5;"/>
    <path clip-path="url(#p2918d0deca)" d="M 33.718913 82.58 
L 33.718913 69.315477 
" style="fill:none;stroke:#000000;stroke-width:0.5;"/>
    <path clip-path="url(#p2918d0deca)" d="M 40.186619 66.733078 
L 40.186619 51.791645 
" style="fill:none;stroke:#000000;stroke-width:0.5;"/>
    <path clip-path="url(#p2918d0deca)" d="M 35.66039 46.99991 
L 35.66039 16.842857 
" style="fill:none;stroke:#000000;stroke-width:0.5;"/>
    <path clip-path="url(#p2918d0deca)" d="M 34.928752 82.640399 
L 34.928752 55.715827 
" style="fill:none;stroke:#000000;stroke-width:0.5;"/>
    <path clip-path="url(#p2918d0deca)" d="M 38.502083 80.468301 
L 38.502083 65.199112 
" style="fill:none;stroke:#000000;stroke-width:0.5;"/>
   </g>
   <g id="line2d_1">
    <path clip-path="url(#p2918d0deca)" d="M 27 80.615209 
L 27.768595 79.27858 
L 28.53719 77.941951 
L 29.305785 76.605322 
L 30.07438 75.268693 
L 30.842975 73.932063 
L 31.61157 72.595434 
L 32.380165 71.258805 
L 33.14876 69.922176 
L 33.917355 68.585547 
L 34.68595 67.248918 
L 35.454545 65.912289 
L 36.22314 64.57566 
L 36.991736 63.239031 
L 37.760331 61.902402 
L 38.528926 60.565773 
L 39.297521 59.229143 
L 40.066116 57.892514 
L 40.834711 56.555885 
L 41.603306 55.219256 
L 42.371901 53.882627 
L 43.140496 52.545998 
L 43.909091 51.209369 
L 44.677686 49.87274 
L 45.446281 48.536111 
L 46.214876 47.199482 
L 46.983471 45.862852 
L 47.752066 44.526223 
L 48.520661 43.189594 
L 49.289256 41.852965 
L 50.057851 40.516336 
L 50.826446 39.179707 
L 51.595041 37.843078 
L 52.363636 36.506449 
L 53.132231 35.16982 
L 53.900826 33.833191 
L 54.669421 32.496561 
L 55.438017 31.159932 
L 56.206612 29.823303 
L 56.975207 28.486674 
L 57.743802 27.150045 
L 58.512397 25.813416 
L 59.280992 24.476787 
L 60.049587 23.140158 
L 60.818182 21.803529 
L 61.586777 20.4669 
L 62.355372 19.13027 
L 63.123967 17.793641 
L 63.892562 16.457012 
L 64.661157 15.120383 
L 65.429752 13.783754 
L 66.198347 12.447125 
L 66.966942 11.110496 
L 67.735537 9.773867 
L 68.504132 8.437238 
L 69.272727 7.100609 
L 70.041322 5.76398 
L 70.809917 4.42735 
L 71.578512 3.090721 
L 72.347107 1.754092 
L 73.115702 0.417463 
L 73.884298 -0.919166 
L 73.930779 -1 
" style="fill:none;stroke:#000000;stroke-dasharray:1.85,0.8;stroke-dashoffset:0;stroke-width:0.5;"/>
   </g>
   <g id="line2d_2">
    <defs>
     <path d="M 0 3 
C 0.795609 3 1.55874 2.683901 2.12132 2.12132 
C 2.683901 1.55874 3 0.795609 3 0 
C 3 -0.795609 2.683901 -1.55874 2.12132 -2.12132 
C 1.55874 -2.683901 0.795609 -3 0 -3 
C -0.795609 -3 -1.55874 -2.683901 -2.12132 -2.12132 
C -2.683901 -1.55874 -3 -0.795609 -3 0 
C -3 0.795609 -2.683901 1.55874 -2.12132 2.12132 
C -1.55874 2.683901 -0.795609 3 0 3 
z
" id="mb555b1eafc" style="stroke:#000000;"/>
    </defs>
    <g clip-path="url(#p2918d0deca)">
     <use style="stroke:#000000;" x="27" xlink:href="#mb555b1eafc" y="80.964836"/>
     <use style="stroke:#000000;" x="31.056683" xlink:href="#mb555b1eafc" y="59.5613"/>
     <use style="stroke:#000000;" x="37.014978" xlink:href="#mb555b1eafc" y="32.442536"/>
     <use style="stroke:#000000;" x="27" xlink:href="#mb555b1eafc" y="94.5"/>
     <use style="stroke:#000000;" x="42.838297" xlink:href="#mb555b1eafc" y="51.397376"/>
     <use style="stroke:#000000;" x="37.053848" xlink:href="#mb555b1eafc" y="53.851092"/>
     <use style="stroke:#000000;" x="27.374881" xlink:href="#mb555b1eafc" y="90.178497"/>
     <use style="stroke:#000000;" x="40.024829" xlink:href="#mb555b1eafc" y="63.9483"/>
     <use style="stroke:#000000;" x="45.145703" xlink:href="#mb555b1eafc" y="63.88844"/>
     <use style="stroke:#000000;" x="36.608535" xlink:href="#mb555b1eafc" y="64.295057"/>
     <use style="stroke:#000000;" x="37.895932" xlink:href="#mb555b1eafc" y="50.771324"/>
     <use style="stroke:#000000;" x="31.305313" xlink:href="#mb555b1eafc" y="78.165573"/>
     <use style="stroke:#000000;" x="33.77" xlink:href="#mb555b1eafc" y="71.729715"/>
     <use style="stroke:#000000;" x="46.438589" xlink:href="#mb555b1eafc" y="48.578605"/>
     <use style="stroke:#000000;" x="30.914627" xlink:href="#mb555b1eafc" y="65.299638"/>
     <use style="stroke:#000000;" x="27" xlink:href="#mb555b1eafc" y="85.319422"/>
     <use style="stroke:#000000;" x="35.400714" xlink:href="#mb555b1eafc" y="53.435331"/>
     <use style="stroke:#000000;" x="40.822451" xlink:href="#mb555b1eafc" y="39.484906"/>
     <use style="stroke:#000000;" x="41.42079" xlink:href="#mb555b1eafc" y="58.815012"/>
     <use style="stroke:#000000;" x="40.696974" xlink:href="#mb555b1eafc" y="51.048868"/>
     <use style="stroke:#000000;" x="46.881169" xlink:href="#mb555b1eafc" y="64.654311"/>
     <use style="stroke:#000000;" x="29.530727" xlink:href="#mb555b1eafc" y="82.135925"/>
     <use style="stroke:#000000;" x="29.850951" xlink:href="#mb555b1eafc" y="82.563431"/>
     <use style="stroke:#000000;" x="39.539981" xlink:href="#mb555b1eafc" y="77.550729"/>
     <use style="stroke:#000000;" x="27.539711" xlink:href="#mb555b1eafc" y="87.148331"/>
     <use style="stroke:#000000;" x="33.718913" xlink:href="#mb555b1eafc" y="75.947739"/>
     <use style="stroke:#000000;" x="40.186619" xlink:href="#mb555b1eafc" y="59.262362"/>
     <use style="stroke:#000000;" x="35.66039" xlink:href="#mb555b1eafc" y="31.921383"/>
     <use style="stroke:#000000;" x="34.928752" xlink:href="#mb555b1eafc" y="69.178113"/>
     <use style="stroke:#000000;" x="38.502083" xlink:href="#mb555b1eafc" y="72.833706"/>
    </g>
   </g>
   <g id="patch_3">
    <path d="M 27 94.5 
L 27 12.96 
" style="fill:none;stroke:#000000;stroke-linecap:square;stroke-linejoin:miter;"/>
   </g>
   <g id="patch_4">
    <path d="M 27 94.5 
L 103.090909 94.5 
" style="fill:none;stroke:#000000;stroke-linecap:square;stroke-linejoin:miter;"/>
   </g>
   <g id="matplotlib.axis_1">
    <g id="xtick_1">
     <g id="line2d_3"/>
     <g id="text_1">
      <text style="font-family:Arial;font-size:8px;font-style:normal;font-weight:normal;text-anchor:middle;" transform="rotate(-0, 27, 103.72625)" x="27" y="103.72625">0</text>
     </g>
    </g>
    <g id="xtick_2">
     <g id="line2d_4"/>
     <g id="text_2">
      <text style="font-family:Arial;font-size:8px;font-style:normal;font-weight:normal;text-anchor:middle;" transform="rotate(-0, 63.558855, 103.72625)" x="63.558855" y="103.72625">5</text>
     </g>
    </g>
    <g id="xtick_3">
     <g id="line2d_5"/>
     <g id="text_3">
      <text style="font-family:Arial;font-size:8px;font-style:normal;font-weight:normal;text-anchor:middle;" transform="rotate(-0, 100.11771, 103.72625)" x="100.11771" y="103.72625">10</text>
     </g>
    </g>
    <g id="text_4">
     <text style="font-family:Arial;font-size:10px;font-style:normal;font-weight:normal;text-anchor:middle;" transform="rotate(-0, 65.045455, 116.474063)" x="65.045455" y="116.474063">Exc</text>
    </g>
   </g>
   <g id="matplotlib.axis_2">
    <g id="ytick_1">
     <g id="line2d_6"/>
     <g id="text_5">
      <text style="font-family:Arial;font-size:8px;font-style:normal;font-weight:normal;text-anchor:end;" transform="rotate(-0, 23.5, 97.363125)" x="23.5" y="97.363125">0.0</text>
     </g>
    </g>
    <g id="ytick_2">
     <g id="line2d_7"/>
     <g id="text_6">
      <text style="font-family:Arial;font-size:8px;font-style:normal;font-weight:normal;text-anchor:end;" transform="rotate(-0, 23.5, 77.774655)" x="23.5" y="77.774655">2.5</text>
     </g>
    </g>
    <g id="ytick_3">
     <g id="line2d_8"/>
     <g id="text_7">
      <text style="font-family:Arial;font-size:8px;font-style:normal;font-weight:normal;text-anchor:end;" transform="rotate(-0, 23.5, 58.186184)" x="23.5" y="58.186184">5.0</text>
     </g>
    </g>
    <g id="ytick_4">
     <g id="line2d_9"/>
     <g id="text_8">
      <text style="font-family:Arial;font-size:8px;font-style:normal;font-weight:normal;text-anchor:end;" transform="rotate(-0, 23.5, 38.597714)" x="23.5" y="38.597714">7.5</text>
     </g>
    </g>
    <g id="ytick_5">
     <g id="line2d_10"/>
     <g id="text_9">
      <text style="font-family:Arial;font-size:8px;font-style:normal;font-weight:normal;text-anchor:end;" transform="rotate(-0, 23.5, 19.009243)" x="23.5" y="19.009243">10.0</text>
     </g>
    </g>
    <g id="text_10">
     <text style="font-family:Arial;font-size:10px;font-style:normal;font-weight:normal;text-anchor:middle;" transform="rotate(-90, 1.94375, 53.73)" x="1.94375" y="53.73">Inh</text>
    </g>
   </g>
   <g id="legend_1">
    <g id="line2d_11">
     <path d="M 36 75.622656 
L 56 75.622656 
" style="fill:none;stroke:#000000;stroke-dasharray:1.85,0.8;stroke-dashoffset:0;stroke-width:0.5;"/>
    </g>
    <g id="line2d_12"/>
    <g id="text_11">
     <!-- $R^2$ 0.40 -->
     <g transform="translate(64 72.875)">
      <text>
       <tspan style="font-family:DejaVu Sans;font-size:10px;font-style:oblique;font-weight:oblique;" x="0" y="-0.9765625">R</tspan>
       <tspan style="font-family:DejaVu Sans;font-size:7px;font-style:book;font-weight:book;" x="7.650794" y="-4.8046875">2</tspan>
       <tspan style="font-family:Arial;font-size:10px;font-style:regular;font-weight:regular;" x="12.377845 15.156165 20.717689 23.496009 29.057533" y="-0.9765625"> 0.40</tspan>
      </text>
     </g>
     <text style="font-family:Arial;font-size:10px;font-style:normal;font-weight:normal;" transform="translate(64 83.4875)"> slope 1.62</text>
    </g>
   </g>
  </g>
  <g id="axes_2">
   <g id="patch_5">
    <path d="M 118.309091 94.5 
L 194.4 94.5 
L 194.4 12.96 
L 118.309091 12.96 
z
" style="fill:#ffffff;"/>
   </g>
   <g id="PathCollection_1">
    <defs>
     <path d="M 0 2.44949 
C 0.649612 2.44949 1.272706 2.191396 1.732051 1.732051 
C 2.191396 1.272706 2.44949 0.649612 2.44949 0 
C 2.44949 -0.649612 2.191396 -1.272706 1.732051 -1.732051 
C 1.272706 -2.191396 0.649612 -2.44949 0 -2.44949 
C -0.649612 -2.44949 -1.272706 -2.191396 -1.732051 -1.732051 
C -2.191396 -1.272706 -2.44949 -0.649612 -2.44949 0 
C -2.44949 0.649612 -2.191396 1.272706 -1.732051 1.732051 
C -1.272706 2.191396 -0.649612 2.44949 0 2.44949 
z
" id="ma2eb116baa" style="stroke:#000000;"/>
    </defs>
    <g clip-path="url(#p8bb085ad26)">
     <use style="stroke:#000000;" x="118.309091" xlink:href="#ma2eb116baa" y="90.120907"/>
     <use style="stroke:#000000;" x="147.913608" xlink:href="#ma2eb116baa" y="63.17794"/>
     <use style="stroke:#000000;" x="168.492573" xlink:href="#ma2eb116baa" y="44.464339"/>
     <use style="stroke:#000000;" x="118.309091" xlink:href="#ma2eb116baa" y="94.5"/>
     <use style="stroke:#000000;" x="150.830744" xlink:href="#ma2eb116baa" y="37.485786"/>
     <use style="stroke:#000000;" x="173.322825" xlink:href="#ma2eb116baa" y="38.769639"/>
     <use style="stroke:#000000;" x="122.126984" xlink:href="#ma2eb116baa" y="86.317302"/>
     <use style="stroke:#000000;" x="160.753644" xlink:href="#ma2eb116baa" y="78.27611"/>
     <use style="stroke:#000000;" x="177.040407" xlink:href="#ma2eb116baa" y="29.758363"/>
     <use style="stroke:#000000;" x="163.255876" xlink:href="#ma2eb116baa" y="17.784247"/>
     <use style="stroke:#000000;" x="151.20954" xlink:href="#ma2eb116baa" y="25.167854"/>
     <use style="stroke:#000000;" x="131.363119" xlink:href="#ma2eb116baa" y="85.476173"/>
     <use style="stroke:#000000;" x="136.104073" xlink:href="#ma2eb116baa" y="78.876892"/>
     <use style="stroke:#000000;" x="190.264005" xlink:href="#ma2eb116baa" y="38.738424"/>
     <use style="stroke:#000000;" x="136.072721" xlink:href="#ma2eb116baa" y="78.532672"/>
     <use style="stroke:#000000;" x="118.309091" xlink:href="#ma2eb116baa" y="91.514625"/>
     <use style="stroke:#000000;" x="180.631185" xlink:href="#ma2eb116baa" y="43.228327"/>
     <use style="stroke:#000000;" x="159.91017" xlink:href="#ma2eb116baa" y="24.871499"/>
     <use style="stroke:#000000;" x="173.309892" xlink:href="#ma2eb116baa" y="38.734874"/>
     <use style="stroke:#000000;" x="172.896817" xlink:href="#ma2eb116baa" y="30.790337"/>
     <use style="stroke:#000000;" x="162.777601" xlink:href="#ma2eb116baa" y="60.091256"/>
     <use style="stroke:#000000;" x="135.722855" xlink:href="#ma2eb116baa" y="61.78938"/>
     <use style="stroke:#000000;" x="129.76834" xlink:href="#ma2eb116baa" y="87.137816"/>
     <use style="stroke:#000000;" x="171.93366" xlink:href="#ma2eb116baa" y="38.261609"/>
     <use style="stroke:#000000;" x="123.805661" xlink:href="#ma2eb116baa" y="94.5"/>
     <use style="stroke:#000000;" x="141.603681" xlink:href="#ma2eb116baa" y="66.92492"/>
     <use style="stroke:#000000;" x="175.573576" xlink:href="#ma2eb116baa" y="63.43886"/>
     <use style="stroke:#000000;" x="165.765588" xlink:href="#ma2eb116baa" y="31.807723"/>
     <use style="stroke:#000000;" x="154.230629" xlink:href="#ma2eb116baa" y="38.527595"/>
     <use style="stroke:#000000;" x="155.354333" xlink:href="#ma2eb116baa" y="62.757503"/>
    </g>
   </g>
   <g id="line2d_13">
    <path clip-path="url(#p8bb085ad26)" d="M 118.309091 88.652016 
L 119.077686 87.943803 
L 119.846281 87.23559 
L 120.614876 86.527377 
L 121.383471 85.819164 
L 122.152066 85.110951 
L 122.920661 84.402738 
L 123.689256 83.694525 
L 124.457851 82.986312 
L 125.226446 82.278098 
L 125.995041 81.569885 
L 126.763636 80.861672 
L 127.532231 80.153459 
L 128.300826 79.445246 
L 129.069421 78.737033 
L 129.838017 78.02882 
L 130.606612 77.320607 
L 131.375207 76.612394 
L 132.143802 75.904181 
L 132.912397 75.195968 
L 133.680992 74.487755 
L 134.449587 73.779542 
L 135.218182 73.071329 
L 135.986777 72.363116 
L 136.755372 71.654902 
L 137.523967 70.946689 
L 138.292562 70.238476 
L 139.061157 69.530263 
L 139.829752 68.82205 
L 140.598347 68.113837 
L 141.366942 67.405624 
L 142.135537 66.697411 
L 142.904132 65.989198 
L 143.672727 65.280985 
L 144.441322 64.572772 
L 145.209917 63.864559 
L 145.978512 63.156346 
L 146.747107 62.448133 
L 147.515702 61.73992 
L 148.284298 61.031706 
L 149.052893 60.323493 
L 149.821488 59.61528 
L 150.590083 58.907067 
L 151.358678 58.198854 
L 152.127273 57.490641 
L 152.895868 56.782428 
L 153.664463 56.074215 
L 154.433058 55.366002 
L 155.201653 54.657789 
L 155.970248 53.949576 
L 156.738843 53.241363 
L 157.507438 52.53315 
L 158.276033 51.824937 
L 159.044628 51.116724 
L 159.813223 50.408511 
L 160.581818 49.700297 
L 161.350413 48.992084 
L 162.119008 48.283871 
L 162.887603 47.575658 
L 163.656198 46.867445 
L 164.424793 46.159232 
L 165.193388 45.451019 
L 165.961983 44.742806 
L 166.730579 44.034593 
L 167.499174 43.32638 
L 168.267769 42.618167 
L 169.036364 41.909954 
L 169.804959 41.201741 
L 170.573554 40.493528 
L 171.342149 39.785315 
L 172.110744 39.077101 
L 172.879339 38.368888 
L 173.647934 37.660675 
L 174.416529 36.952462 
L 175.185124 36.244249 
L 175.953719 35.536036 
L 176.722314 34.827823 
L 177.490909 34.11961 
L 178.259504 33.411397 
L 179.028099 32.703184 
L 179.796694 31.994971 
L 180.565289 31.286758 
L 181.333884 30.578545 
L 182.102479 29.870332 
L 182.871074 29.162119 
L 183.639669 28.453905 
L 184.408264 27.745692 
L 185.17686 27.037479 
L 185.945455 26.329266 
L 186.71405 25.621053 
L 187.482645 24.91284 
L 188.25124 24.204627 
L 189.019835 23.496414 
L 189.78843 22.788201 
L 190.557025 22.079988 
L 191.32562 21.371775 
L 192.094215 20.663562 
L 192.86281 19.955349 
L 193.631405 19.247136 
L 194.4 18.538923 
" style="fill:none;stroke:#000000;stroke-dasharray:1.85,0.8;stroke-dashoffset:0;stroke-width:0.5;"/>
   </g>
   <g id="patch_6">
    <path d="M 118.309091 94.5 
L 118.309091 12.96 
" style="fill:none;stroke:#000000;stroke-linecap:square;stroke-linejoin:miter;"/>
   </g>
   <g id="patch_7">
    <path d="M 118.309091 94.5 
L 194.4 94.5 
" style="fill:none;stroke:#000000;stroke-linecap:square;stroke-linejoin:miter;"/>
   </g>
   <g id="matplotlib.axis_3">
    <g id="xtick_4">
     <g id="line2d_14"/>
     <g id="text_12">
      <text style="font-family:Arial;font-size:8px;font-style:normal;font-weight:normal;text-anchor:middle;" transform="rotate(-0, 118.309091, 103.72625)" x="118.309091" y="103.72625">0</text>
     </g>
    </g>
    <g id="xtick_5">
     <g id="line2d_15"/>
     <g id="text_13">
      <text style="font-family:Arial;font-size:8px;font-style:normal;font-weight:normal;text-anchor:middle;" transform="rotate(-0, 148.709381, 103.72625)" x="148.709381" y="103.72625">1</text>
     </g>
    </g>
    <g id="xtick_6">
     <g id="line2d_16"/>
     <g id="text_14">
      <text style="font-family:Arial;font-size:8px;font-style:normal;font-weight:normal;text-anchor:middle;" transform="rotate(-0, 179.109671, 103.72625)" x="179.109671" y="103.72625">2</text>
     </g>
    </g>
    <g id="text_15">
     <!-- $\sigma$(Exc) -->
     <g transform="translate(141.504545 116.61625)">
      <text>
       <tspan style="font-family:DejaVu Sans;font-size:10px;font-style:oblique;font-weight:oblique;" x="0" y="-0.71875">σ</tspan>
       <tspan style="font-family:Arial;font-size:10px;font-style:regular;font-weight:regular;" x="6.337891 9.667969 16.337891 21.337891 26.337891" y="-0.71875">(Exc)</tspan>
      </text>
     </g>
    </g>
   </g>
   <g id="matplotlib.axis_4">
    <g id="ytick_6">
     <g id="line2d_17"/>
     <g id="text_16">
      <text style="font-family:Arial;font-size:8px;font-style:normal;font-weight:normal;text-anchor:end;" transform="rotate(-0, 114.809091, 97.363125)" x="114.809091" y="97.363125">0</text>
     </g>
    </g>
    <g id="ytick_7">
     <g id="line2d_18"/>
     <g id="text_17">
      <text style="font-family:Arial;font-size:8px;font-style:normal;font-weight:normal;text-anchor:end;" transform="rotate(-0, 114.809091, 64.785782)" x="114.809091" y="64.785782">1</text>
     </g>
    </g>
    <g id="ytick_8">
     <g id="line2d_19"/>
     <g id="text_18">
      <text style="font-family:Arial;font-size:8px;font-style:normal;font-weight:normal;text-anchor:end;" transform="rotate(-0, 114.809091, 32.208439)" x="114.809091" y="32.208439">2</text>
     </g>
    </g>
    <g id="text_19">
     <!-- $\sigma$(Inh) -->
     <g transform="translate(104.160341 67.18)rotate(-90)">
      <text>
       <tspan style="font-family:DejaVu Sans;font-size:10px;font-style:oblique;font-weight:oblique;" x="0" y="-0.71875">σ</tspan>
       <tspan style="font-family:Arial;font-size:10px;font-style:regular;font-weight:regular;" x="6.337891 9.667969 12.446289 18.007812 23.569336" y="-0.71875">(Inh)</tspan>
      </text>
     </g>
    </g>
   </g>
   <g id="legend_2">
    <g id="line2d_20">
     <path d="M 127.309091 75.622656 
L 147.309091 75.622656 
" style="fill:none;stroke:#000000;stroke-dasharray:1.85,0.8;stroke-dashoffset:0;stroke-width:0.5;"/>
    </g>
    <g id="line2d_21"/>
    <g id="text_20">
     <!-- $R^2$ 0.63 -->
     <g transform="translate(155.309091 72.875)">
      <text>
       <tspan style="font-family:DejaVu Sans;font-size:10px;font-style:oblique;font-weight:oblique;" x="0" y="-0.9765625">R</tspan>
       <tspan style="font-family:DejaVu Sans;font-size:7px;font-style:book;font-weight:book;" x="7.650794" y="-4.8046875">2</tspan>
       <tspan style="font-family:Arial;font-size:10px;font-style:regular;font-weight:regular;" x="12.377845 15.156165 20.717689 23.496009 29.057533" y="-0.9765625"> 0.63</tspan>
      </text>
     </g>
     <text style="font-family:Arial;font-size:10px;font-style:normal;font-weight:normal;" transform="translate(155.309091 83.4875)"> slope 0.86</text>
    </g>
   </g>
  </g>
 </g>
 <defs>
  <clipPath id="p2918d0deca">
   <rect height="81.54" width="76.090909" x="27" y="12.96"/>
  </clipPath>
  <clipPath id="p8bb085ad26">
   <rect height="81.54" width="76.090909" x="118.309091" y="12.96"/>
  </clipPath>
 </defs>
</svg>
