<?xml version="1.0" encoding="utf-8" standalone="no"?>
<!DOCTYPE svg PUBLIC "-//W3C//DTD SVG 1.1//EN"
  "http://www.w3.org/Graphics/SVG/1.1/DTD/svg11.dtd">
<!-- Created with matplotlib (http://matplotlib.org/) -->
<svg height="108pt" version="1.1" viewBox="0 0 216 108" width="216pt" xmlns="http://www.w3.org/2000/svg" xmlns:xlink="http://www.w3.org/1999/xlink">
 <defs>
  <style type="text/css">
*{stroke-linecap:butt;stroke-linejoin:round;}
  </style>
 </defs>
 <g id="figure_1">
  <g id="patch_1">
   <path d="M 0 108 
L 216 108 
L 216 0 
L 0 0 
z
" style="fill:#ffffff;"/>
  </g>
  <g id="axes_1">
   <g id="patch_2">
    <path d="M 27 94.5 
L 103.090909 94.5 
L 103.090909 12.96 
L 27 12.96 
z
" style="fill:#ffffff;"/>
   </g>
   <g id="LineCollection_1">
    <path clip-path="url(#pf12af575ca)" d="M 27.877068 70.949775 
L 35.865037 70.949775 
" style="fill:none;stroke:#000000;stroke-width:0.5;"/>
    <path clip-path="url(#pf12af575ca)" d="M 28.774872 53.134469 
L 56.263562 53.134469 
" style="fill:none;stroke:#000000;stroke-width:0.5;"/>
    <path clip-path="url(#pf12af575ca)" d="M 26.028553 88.256049 
L 31.509169 88.256049 
" style="fill:none;stroke:#000000;stroke-width:0.5;"/>
    <path clip-path="url(#pf12af575ca)" d="M 37.303622 45.703267 
L 53.333089 45.703267 
" style="fill:none;stroke:#000000;stroke-width:0.5;"/>
    <path clip-path="url(#pf12af575ca)" d="M 29.050363 31.604177 
L 54.081282 31.604177 
" style="fill:none;stroke:#000000;stroke-width:0.5;"/>
    <path clip-path="url(#pf12af575ca)" d="M 24.039176 85.039638 
L 34.046156 85.039638 
" style="fill:none;stroke:#000000;stroke-width:0.5;"/>
    <path clip-path="url(#pf12af575ca)" d="M 23.847369 56.026694 
L 45.625747 56.026694 
" style="fill:none;stroke:#000000;stroke-width:0.5;"/>
    <path clip-path="url(#pf12af575ca)" d="M 26.043997 53.828669 
L 44.814592 53.828669 
" style="fill:none;stroke:#000000;stroke-width:0.5;"/>
    <path clip-path="url(#pf12af575ca)" d="M 25.245761 59.032757 
L 42.267166 59.032757 
" style="fill:none;stroke:#000000;stroke-width:0.5;"/>
    <path clip-path="url(#pf12af575ca)" d="M 27.298037 72.349607 
L 37.531986 72.349607 
" style="fill:none;stroke:#000000;stroke-width:0.5;"/>
    <path clip-path="url(#pf12af575ca)" d="M 27.15783 83.544485 
L 32.195204 83.544485 
" style="fill:none;stroke:#000000;stroke-width:0.5;"/>
    <path clip-path="url(#pf12af575ca)" d="M 29.140309 77.060257 
L 36.970393 77.060257 
" style="fill:none;stroke:#000000;stroke-width:0.5;"/>
    <path clip-path="url(#pf12af575ca)" d="M 26.822021 78.577447 
L 35.397666 78.577447 
" style="fill:none;stroke:#000000;stroke-width:0.5;"/>
    <path clip-path="url(#pf12af575ca)" d="M 25.552853 88.217303 
L 36.476647 88.217303 
" style="fill:none;stroke:#000000;stroke-width:0.5;"/>
    <path clip-path="url(#pf12af575ca)" d="M 28.453397 66.450073 
L 42.421497 66.450073 
" style="fill:none;stroke:#000000;stroke-width:0.5;"/>
    <path clip-path="url(#pf12af575ca)" d="M 26.674654 73.266806 
L 30.960265 73.266806 
" style="fill:none;stroke:#000000;stroke-width:0.5;"/>
    <path clip-path="url(#pf12af575ca)" d="M 27.932763 52.958897 
L 44.009758 52.958897 
" style="fill:none;stroke:#000000;stroke-width:0.5;"/>
    <path clip-path="url(#pf12af575ca)" d="M 34.892541 43.223724 
L 59.504424 43.223724 
" style="fill:none;stroke:#000000;stroke-width:0.5;"/>
    <path clip-path="url(#pf12af575ca)" d="M 29.015235 65.181273 
L 49.34625 65.181273 
" style="fill:none;stroke:#000000;stroke-width:0.5;"/>
    <path clip-path="url(#pf12af575ca)" d="M 26.745834 78.932235 
L 31.024707 78.932235 
" style="fill:none;stroke:#000000;stroke-width:0.5;"/>
    <path clip-path="url(#pf12af575ca)" d="M 32.259759 20.030529 
L 48.278412 20.030529 
" style="fill:none;stroke:#000000;stroke-width:0.5;"/>
    <path clip-path="url(#pf12af575ca)" d="M 17.140152 37.308712 
L 60.441565 37.308712 
" style="fill:none;stroke:#000000;stroke-width:0.5;"/>
    <path clip-path="url(#pf12af575ca)" d="M 28.167137 52.292211 
L 42.020858 52.292211 
" style="fill:none;stroke:#000000;stroke-width:0.5;"/>
    <path clip-path="url(#pf12af575ca)" d="M 24.803136 47.597855 
L 43.552244 47.597855 
" style="fill:none;stroke:#000000;stroke-width:0.5;"/>
    <path clip-path="url(#pf12af575ca)" d="M 26.025534 51.9924 
L 30.923422 51.9924 
" style="fill:none;stroke:#000000;stroke-width:0.5;"/>
    <path clip-path="url(#pf12af575ca)" d="M 24.674456 71.026373 
L 41.41041 71.026373 
" style="fill:none;stroke:#000000;stroke-width:0.5;"/>
    <path clip-path="url(#pf12af575ca)" d="M 35.042862 40.045506 
L 56.768191 40.045506 
" style="fill:none;stroke:#000000;stroke-width:0.5;"/>
    <path clip-path="url(#pf12af575ca)" d="M 26.946981 74.353369 
L 39.21716 74.353369 
" style="fill:none;stroke:#000000;stroke-width:0.5;"/>
    <path clip-path="url(#pf12af575ca)" d="M 25.179057 34.511048 
L 40.030039 34.511048 
" style="fill:none;stroke:#000000;stroke-width:0.5;"/>
    <path clip-path="url(#pf12af575ca)" d="M 26.259457 31.43036 
L 56.778777 31.43036 
" style="fill:none;stroke:#000000;stroke-width:0.5;"/>
   </g>
   <g id="LineCollection_2">
    <path clip-path="url(#pf12af575ca)" d="M 31.871052 77.845248 
L 31.871052 64.054303 
" style="fill:none;stroke:#000000;stroke-width:0.5;"/>
    <path clip-path="url(#pf12af575ca)" d="M 42.519217 55.922589 
L 42.519217 50.346349 
" style="fill:none;stroke:#000000;stroke-width:0.5;"/>
    <path clip-path="url(#pf12af575ca)" d="M 28.768861 88.256049 
L 28.768861 88.256049 
" style="fill:none;stroke:#000000;stroke-width:0.5;"/>
    <path clip-path="url(#pf12af575ca)" d="M 45.318356 49.191503 
L 45.318356 42.215032 
" style="fill:none;stroke:#000000;stroke-width:0.5;"/>
    <path clip-path="url(#pf12af575ca)" d="M 41.565823 46.485249 
L 41.565823 16.723104 
" style="fill:none;stroke:#000000;stroke-width:0.5;"/>
    <path clip-path="url(#pf12af575ca)" d="M 29.042666 91.772629 
L 29.042666 78.306646 
" style="fill:none;stroke:#000000;stroke-width:0.5;"/>
    <path clip-path="url(#pf12af575ca)" d="M 34.736558 57.322366 
L 34.736558 54.731021 
" style="fill:none;stroke:#000000;stroke-width:0.5;"/>
    <path clip-path="url(#pf12af575ca)" d="M 35.429295 59.952136 
L 35.429295 47.705202 
" style="fill:none;stroke:#000000;stroke-width:0.5;"/>
    <path clip-path="url(#pf12af575ca)" d="M 33.756463 64.515014 
L 33.756463 53.550499 
" style="fill:none;stroke:#000000;stroke-width:0.5;"/>
    <path clip-path="url(#pf12af575ca)" d="M 32.415012 78.765818 
L 32.415012 65.933396 
" style="fill:none;stroke:#000000;stroke-width:0.5;"/>
    <path clip-path="url(#pf12af575ca)" d="M 29.676517 85.252727 
L 29.676517 81.836243 
" style="fill:none;stroke:#000000;stroke-width:0.5;"/>
    <path clip-path="url(#pf12af575ca)" d="M 33.055351 80.867176 
L 33.055351 73.253338 
" style="fill:none;stroke:#000000;stroke-width:0.5;"/>
    <path clip-path="url(#pf12af575ca)" d="M 31.109844 80.110495 
L 31.109844 77.044398 
" style="fill:none;stroke:#000000;stroke-width:0.5;"/>
    <path clip-path="url(#pf12af575ca)" d="M 31.01475 91.985186 
L 31.01475 84.44942 
" style="fill:none;stroke:#000000;stroke-width:0.5;"/>
    <path clip-path="url(#pf12af575ca)" d="M 35.437447 70.759672 
L 35.437447 62.140474 
" style="fill:none;stroke:#000000;stroke-width:0.5;"/>
    <path clip-path="url(#pf12af575ca)" d="M 28.817459 76.926609 
L 28.817459 69.607003 
" style="fill:none;stroke:#000000;stroke-width:0.5;"/>
    <path clip-path="url(#pf12af575ca)" d="M 35.97126 64.9231 
L 35.97126 40.994695 
" style="fill:none;stroke:#000000;stroke-width:0.5;"/>
    <path clip-path="url(#pf12af575ca)" d="M 47.198482 52.204727 
L 47.198482 34.24272 
" style="fill:none;stroke:#000000;stroke-width:0.5;"/>
    <path clip-path="url(#pf12af575ca)" d="M 39.180743 70.491775 
L 39.180743 59.870771 
" style="fill:none;stroke:#000000;stroke-width:0.5;"/>
    <path clip-path="url(#pf12af575ca)" d="M 28.885271 85.649026 
L 28.885271 72.215444 
" style="fill:none;stroke:#000000;stroke-width:0.5;"/>
    <path clip-path="url(#pf12af575ca)" d="M 40.269085 21.998924 
L 40.269085 18.062135 
" style="fill:none;stroke:#000000;stroke-width:0.5;"/>
    <path clip-path="url(#pf12af575ca)" d="M 38.790859 56.321065 
L 38.790859 18.296358 
" style="fill:none;stroke:#000000;stroke-width:0.5;"/>
    <path clip-path="url(#pf12af575ca)" d="M 35.093998 58.76421 
L 35.093998 45.820211 
" style="fill:none;stroke:#000000;stroke-width:0.5;"/>
    <path clip-path="url(#pf12af575ca)" d="M 34.17769 58.792636 
L 34.17769 36.403074 
" style="fill:none;stroke:#000000;stroke-width:0.5;"/>
    <path clip-path="url(#pf12af575ca)" d="M 28.474478 64.290059 
L 28.474478 39.694741 
" style="fill:none;stroke:#000000;stroke-width:0.5;"/>
    <path clip-path="url(#pf12af575ca)" d="M 33.042433 77.102511 
L 33.042433 64.950234 
" style="fill:none;stroke:#000000;stroke-width:0.5;"/>
    <path clip-path="url(#pf12af575ca)" d="M 45.905526 56.166577 
L 45.905526 23.924435 
" style="fill:none;stroke:#000000;stroke-width:0.5;"/>
    <path clip-path="url(#pf12af575ca)" d="M 33.082071 83.635838 
L 33.082071 65.070899 
" style="fill:none;stroke:#000000;stroke-width:0.5;"/>
    <path clip-path="url(#pf12af575ca)" d="M 32.604548 50.209566 
L 32.604548 18.81253 
" style="fill:none;stroke:#000000;stroke-width:0.5;"/>
    <path clip-path="url(#pf12af575ca)" d="M 41.519117 41.269478 
L 41.519117 21.591241 
" style="fill:none;stroke:#000000;stroke-width:0.5;"/>
   </g>
   <g id="line2d_1">
    <path clip-path="url(#pf12af575ca)" d="M 27 79.918081 
L 27.768595 78.021961 
L 28.53719 76.12584 
L 29.305785 74.229719 
L 30.07438 72.333598 
L 30.842975 70.437477 
L 31.61157 68.541356 
L 32.380165 66.645235 
L 33.14876 64.749114 
L 33.917355 62.852994 
L 34.68595 60.956873 
L 35.454545 59.060752 
L 36.22314 57.164631 
L 36.991736 55.26851 
L 37.760331 53.372389 
L 38.528926 51.476268 
L 39.297521 49.580148 
L 40.066116 47.684027 
L 40.834711 45.787906 
L 41.603306 43.891785 
L 42.371901 41.995664 
L 43.140496 40.099543 
L 43.909091 38.203422 
L 44.677686 36.307301 
L 45.446281 34.411181 
L 46.214876 32.51506 
L 46.983471 30.618939 
L 47.752066 28.722818 
L 48.520661 26.826697 
L 49.289256 24.930576 
L 50.057851 23.034455 
L 50.826446 21.138334 
L 51.595041 19.242214 
L 52.363636 17.346093 
L 53.132231 15.449972 
L 53.900826 13.553851 
L 54.669421 11.65773 
L 55.438017 9.761609 
L 56.206612 7.865488 
L 56.975207 5.969367 
L 57.743802 4.073247 
L 58.512397 2.177126 
L 59.280992 0.281005 
L 59.800249 -1 
" style="fill:none;stroke:#000000;stroke-dasharray:1.85,0.8;stroke-dashoffset:0;stroke-width:0.5;"/>
   </g>
   <g id="line2d_2">
    <defs>
     <path d="M 0 3 
C 0.795609 3 1.55874 2.683901 2.12132 2.12132 
C 2.683901 1.55874 3 0.795609 3 0 
C 3 -0.795609 2.683901 -1.55874 2.12132 -2.12132 
C 1.55874 -2.683901 0.795609 -3 0 -3 
C -0.795609 -3 -1.55874 -2.683901 -2.12132 -2.12132 
C -2.683901 -1.55874 -3 -0.795609 -3 0 
C -3 0.795609 -2.683901 1.55874 -2.12132 2.12132 
C -1.55874 2.683901 -0.795609 3 0 3 
z
" id="m210b158602" style="stroke:#000000;"/>
    </defs>
    <g clip-path="url(#pf12af575ca)">
     <use style="stroke:#000000;" x="31.871052" xlink:href="#m210b158602" y="70.949775"/>
     <use style="stroke:#000000;" x="42.519217" xlink:href="#m210b158602" y="53.134469"/>
     <use style="stroke:#000000;" x="28.768861" xlink:href="#m210b158602" y="88.256049"/>
     <use style="stroke:#000000;" x="45.318356" xlink:href="#m210b158602" y="45.703267"/>
     <use style="stroke:#000000;" x="41.565823" xlink:href="#m210b158602" y="31.604177"/>
     <use style="stroke:#000000;" x="29.042666" xlink:href="#m210b158602" y="85.039638"/>
     <use style="stroke:#000000;" x="34.736558" xlink:href="#m210b158602" y="56.026694"/>
     <use style="stroke:#000000;" x="35.429295" xlink:href="#m210b158602" y="53.828669"/>
     <use style="stroke:#000000;" x="33.756463" xlink:href="#m210b158602" y="59.032757"/>
     <use style="stroke:#000000;" x="32.415012" xlink:href="#m210b158602" y="72.349607"/>
     <use style="stroke:#000000;" x="29.676517" xlink:href="#m210b158602" y="83.544485"/>
     <use style="stroke:#000000;" x="33.055351" xlink:href="#m210b158602" y="77.060257"/>
     <use style="stroke:#000000;" x="31.109844" xlink:href="#m210b158602" y="78.577447"/>
     <use style="stroke:#000000;" x="31.01475" xlink:href="#m210b158602" y="88.217303"/>
     <use style="stroke:#000000;" x="35.437447" xlink:href="#m210b158602" y="66.450073"/>
     <use style="stroke:#000000;" x="28.817459" xlink:href="#m210b158602" y="73.266806"/>
     <use style="stroke:#000000;" x="35.97126" xlink:href="#m210b158602" y="52.958897"/>
     <use style="stroke:#000000;" x="47.198482" xlink:href="#m210b158602" y="43.223724"/>
     <use style="stroke:#000000;" x="39.180743" xlink:href="#m210b158602" y="65.181273"/>
     <use style="stroke:#000000;" x="28.885271" xlink:href="#m210b158602" y="78.932235"/>
     <use style="stroke:#000000;" x="40.269085" xlink:href="#m210b158602" y="20.030529"/>
     <use style="stroke:#000000;" x="38.790859" xlink:href="#m210b158602" y="37.308712"/>
     <use style="stroke:#000000;" x="35.093998" xlink:href="#m210b158602" y="52.292211"/>
     <use style="stroke:#000000;" x="34.17769" xlink:href="#m210b158602" y="47.597855"/>
     <use style="stroke:#000000;" x="28.474478" xlink:href="#m210b158602" y="51.9924"/>
     <use style="stroke:#000000;" x="33.042433" xlink:href="#m210b158602" y="71.026373"/>
     <use style="stroke:#000000;" x="45.905526" xlink:href="#m210b158602" y="40.045506"/>
     <use style="stroke:#000000;" x="33.082071" xlink:href="#m210b158602" y="74.353369"/>
     <use style="stroke:#000000;" x="32.604548" xlink:href="#m210b158602" y="34.511048"/>
     <use style="stroke:#000000;" x="41.519117" xlink:href="#m210b158602" y="31.43036"/>
    </g>
   </g>
   <g id="patch_3">
    <path d="M 27 94.5 
L 27 12.96 
" style="fill:none;stroke:#000000;stroke-linecap:square;stroke-linejoin:miter;"/>
   </g>
   <g id="patch_4">
    <path d="M 27 94.5 
L 103.090909 94.5 
" style="fill:none;stroke:#000000;stroke-linecap:square;stroke-linejoin:miter;"/>
   </g>
   <g id="matplotlib.axis_1">
    <g id="xtick_1">
     <g id="line2d_3"/>
     <g id="text_1">
      <text style="font-family:Arial;font-size:8px;font-style:normal;font-weight:normal;text-anchor:middle;" transform="rotate(-0, 27, 103.72625)" x="27" y="103.72625">0</text>
     </g>
    </g>
    <g id="xtick_2">
     <g id="line2d_4"/>
     <g id="text_2">
      <text style="font-family:Arial;font-size:8px;font-style:normal;font-weight:normal;text-anchor:middle;" transform="rotate(-0, 63.393127, 103.72625)" x="63.393127" y="103.72625">5</text>
     </g>
    </g>
    <g id="xtick_3">
     <g id="line2d_5"/>
     <g id="text_3">
      <text style="font-family:Arial;font-size:8px;font-style:normal;font-weight:normal;text-anchor:middle;" transform="rotate(-0, 99.786254, 103.72625)" x="99.786254" y="103.72625">10</text>
     </g>
    </g>
    <g id="text_4">
     <text style="font-family:Arial;font-size:10px;font-style:normal;font-weight:normal;text-anchor:middle;" transform="rotate(-0, 65.045455, 116.474063)" x="65.045455" y="116.474063">Exc</text>
    </g>
   </g>
   <g id="matplotlib.axis_2">
    <g id="ytick_1">
     <g id="line2d_6"/>
     <g id="text_5">
      <text style="font-family:Arial;font-size:8px;font-style:normal;font-weight:normal;text-anchor:end;" transform="rotate(-0, 23.5, 97.363125)" x="23.5" y="97.363125">0.0</text>
     </g>
    </g>
    <g id="ytick_2">
     <g id="line2d_7"/>
     <g id="text_6">
      <text style="font-family:Arial;font-size:8px;font-style:normal;font-weight:normal;text-anchor:end;" transform="rotate(-0, 23.5, 77.863453)" x="23.5" y="77.863453">2.5</text>
     </g>
    </g>
    <g id="ytick_3">
     <g id="line2d_8"/>
     <g id="text_7">
      <text style="font-family:Arial;font-size:8px;font-style:normal;font-weight:normal;text-anchor:end;" transform="rotate(-0, 23.5, 58.363781)" x="23.5" y="58.363781">5.0</text>
     </g>
    </g>
    <g id="ytick_4">
     <g id="line2d_9"/>
     <g id="text_8">
      <text style="font-family:Arial;font-size:8px;font-style:normal;font-weight:normal;text-anchor:end;" transform="rotate(-0, 23.5, 38.864108)" x="23.5" y="38.864108">7.5</text>
     </g>
    </g>
    <g id="ytick_5">
     <g id="line2d_10"/>
     <g id="text_9">
      <text style="font-family:Arial;font-size:8px;font-style:normal;font-weight:normal;text-anchor:end;" transform="rotate(-0, 23.5, 19.364436)" x="23.5" y="19.364436">10.0</text>
     </g>
    </g>
    <g id="text_10">
     <text style="font-family:Arial;font-size:10px;font-style:normal;font-weight:normal;text-anchor:middle;" transform="rotate(-90, 1.94375, 53.73)" x="1.94375" y="53.73">Inh</text>
    </g>
   </g>
   <g id="legend_1">
    <g id="line2d_11">
     <path d="M 36 75.622656 
L 56 75.622656 
" style="fill:none;stroke:#000000;stroke-dasharray:1.85,0.8;stroke-dashoffset:0;stroke-width:0.5;"/>
    </g>
    <g id="line2d_12"/>
    <g id="text_11">
     <!-- $R^2$ 0.51 -->
     <g transform="translate(64 72.875)">
      <text>
       <tspan style="font-family:DejaVu Sans;font-size:10px;font-style:oblique;font-weight:oblique;" x="0" y="-0.9765625">R</tspan>
       <tspan style="font-family:DejaVu Sans;font-size:7px;font-style:book;font-weight:book;" x="7.650794" y="-4.8046875">2</tspan>
       <tspan style="font-family:Arial;font-size:10px;font-style:regular;font-weight:regular;" x="12.377845 15.156165 20.717689 23.496009 29.057533" y="-0.9765625"> 0.51</tspan>
      </text>
     </g>
     <text style="font-family:Arial;font-size:10px;font-style:normal;font-weight:normal;" transform="translate(64 83.4875)"> slope 2.30</text>
    </g>
   </g>
  </g>
  <g id="axes_2">
   <g id="patch_5">
    <path d="M 118.309091 94.5 
L 194.4 94.5 
L 194.4 12.96 
L 118.309091 12.96 
z
" style="fill:#ffffff;"/>
   </g>
   <g id="PathCollection_1">
    <defs>
     <path d="M 0 2.44949 
C 0.649612 2.44949 1.272706 2.191396 1.732051 1.732051 
C 2.191396 1.272706 2.44949 0.649612 2.44949 0 
C 2.44949 -0.649612 2.191396 -1.272706 1.732051 -1.732051 
C 1.272706 -2.191396 0.649612 -2.44949 0 -2.44949 
C -0.649612 -2.44949 -1.272706 -2.191396 -1.732051 -1.732051 
C -2.191396 -1.272706 -2.44949 -0.649612 -2.44949 0 
C -2.44949 0.649612 -2.191396 1.272706 -1.732051 1.732051 
C -1.272706 2.191396 -0.649612 2.44949 0 2.44949 
z
" id="m666f191bad" style="stroke:#000000;"/>
    </defs>
    <g clip-path="url(#p140a7459fe)">
     <use style="stroke:#000000;" x="131.664575" xlink:href="#m666f191bad" y="71.442232"/>
     <use style="stroke:#000000;" x="164.268802" xlink:href="#m666f191bad" y="85.176807"/>
     <use style="stroke:#000000;" x="127.472405" xlink:href="#m666f191bad" y="94.5"/>
     <use style="stroke:#000000;" x="145.109556" xlink:href="#m666f191bad" y="82.83569"/>
     <use style="stroke:#000000;" x="160.159532" xlink:href="#m666f191bad" y="44.739186"/>
     <use style="stroke:#000000;" x="135.04026" xlink:href="#m666f191bad" y="71.985552"/>
     <use style="stroke:#000000;" x="154.721446" xlink:href="#m666f191bad" y="90.167401"/>
     <use style="stroke:#000000;" x="149.692584" xlink:href="#m666f191bad" y="74.02374"/>
     <use style="stroke:#000000;" x="146.768027" xlink:href="#m666f191bad" y="76.167881"/>
     <use style="stroke:#000000;" x="135.41974" xlink:href="#m666f191bad" y="73.044834"/>
     <use style="stroke:#000000;" x="126.731329" xlink:href="#m666f191bad" y="88.78781"/>
     <use style="stroke:#000000;" x="131.400597" xlink:href="#m666f191bad" y="81.770045"/>
     <use style="stroke:#000000;" x="132.64714" xlink:href="#m666f191bad" y="89.373639"/>
     <use style="stroke:#000000;" x="136.573126" xlink:href="#m666f191bad" y="81.900576"/>
     <use style="stroke:#000000;" x="141.663054" xlink:href="#m666f191bad" y="80.089134"/>
     <use style="stroke:#000000;" x="125.474417" xlink:href="#m666f191bad" y="82.261986"/>
     <use style="stroke:#000000;" x="145.18902" xlink:href="#m666f191bad" y="54.492906"/>
     <use style="stroke:#000000;" x="159.458924" xlink:href="#m666f191bad" y="64.468425"/>
     <use style="stroke:#000000;" x="152.301529" xlink:href="#m666f191bad" y="76.742214"/>
     <use style="stroke:#000000;" x="125.463152" xlink:href="#m666f191bad" y="72.039725"/>
     <use style="stroke:#000000;" x="145.091474" xlink:href="#m666f191bad" y="87.917887"/>
     <use style="stroke:#000000;" x="190.706882" xlink:href="#m666f191bad" y="30.924596"/>
     <use style="stroke:#000000;" x="141.471817" xlink:href="#m666f191bad" y="72.858284"/>
     <use style="stroke:#000000;" x="149.656659" xlink:href="#m666f191bad" y="57.065775"/>
     <use style="stroke:#000000;" x="126.498113" xlink:href="#m666f191bad" y="53.377863"/>
     <use style="stroke:#000000;" x="146.290767" xlink:href="#m666f191bad" y="74.182002"/>
     <use style="stroke:#000000;" x="154.632751" xlink:href="#m666f191bad" y="40.592755"/>
     <use style="stroke:#000000;" x="138.824215" xlink:href="#m666f191bad" y="63.460352"/>
     <use style="stroke:#000000;" x="143.139189" xlink:href="#m666f191bad" y="42.00573"/>
     <use style="stroke:#000000;" x="169.335864" xlink:href="#m666f191bad" y="61.598974"/>
    </g>
   </g>
   <g id="line2d_13">
    <path clip-path="url(#p140a7459fe)" d="M 118.309091 84.942591 
L 119.077686 84.522505 
L 119.846281 84.10242 
L 120.614876 83.682334 
L 121.383471 83.262248 
L 122.152066 82.842162 
L 122.920661 82.422077 
L 123.689256 82.001991 
L 124.457851 81.581905 
L 125.226446 81.16182 
L 125.995041 80.741734 
L 126.763636 80.321648 
L 127.532231 79.901562 
L 128.300826 79.481477 
L 129.069421 79.061391 
L 129.838017 78.641305 
L 130.606612 78.221219 
L 131.375207 77.801134 
L 132.143802 77.381048 
L 132.912397 76.960962 
L 133.680992 76.540877 
L 134.449587 76.120791 
L 135.218182 75.700705 
L 135.986777 75.280619 
L 136.755372 74.860534 
L 137.523967 74.440448 
L 138.292562 74.020362 
L 139.061157 73.600276 
L 139.829752 73.180191 
L 140.598347 72.760105 
L 141.366942 72.340019 
L 142.135537 71.919933 
L 142.904132 71.499848 
L 143.672727 71.079762 
L 144.441322 70.659676 
L 145.209917 70.239591 
L 145.978512 69.819505 
L 146.747107 69.399419 
L 147.515702 68.979333 
L 148.284298 68.559248 
L 149.052893 68.139162 
L 149.821488 67.719076 
L 150.590083 67.29899 
L 151.358678 66.878905 
L 152.127273 66.458819 
L 152.895868 66.038733 
L 153.664463 65.618647 
L 154.433058 65.198562 
L 155.201653 64.778476 
L 155.970248 64.35839 
L 156.738843 63.938305 
L 157.507438 63.518219 
L 158.276033 63.098133 
L 159.044628 62.678047 
L 159.813223 62.257962 
L 160.581818 61.837876 
L 161.350413 61.41779 
L 162.119008 60.997704 
L 162.887603 60.577619 
L 163.656198 60.157533 
L 164.424793 59.737447 
L 165.193388 59.317361 
L 165.961983 58.897276 
L 166.730579 58.47719 
L 167.499174 58.057104 
L 168.267769 57.637019 
L 169.036364 57.216933 
L 169.804959 56.796847 
L 170.573554 56.376761 
L 171.342149 55.956676 
L 172.110744 55.53659 
L 172.879339 55.116504 
L 173.647934 54.696418 
L 174.416529 54.276333 
L 175.185124 53.856247 
L 175.953719 53.436161 
L 176.722314 53.016075 
L 177.490909 52.59599 
L 178.259504 52.175904 
L 179.028099 51.755818 
L 179.796694 51.335733 
L 180.565289 50.915647 
L 181.333884 50.495561 
L 182.102479 50.075475 
L 182.871074 49.65539 
L 183.639669 49.235304 
L 184.408264 48.815218 
L 185.17686 48.395132 
L 185.945455 47.975047 
L 186.71405 47.554961 
L 187.482645 47.134875 
L 188.25124 46.71479 
L 189.019835 46.294704 
L 189.78843 45.874618 
L 190.557025 45.454532 
L 191.32562 45.034447 
L 192.094215 44.614361 
L 192.86281 44.194275 
L 193.631405 43.774189 
L 194.4 43.354104 
" style="fill:none;stroke:#000000;stroke-dasharray:1.85,0.8;stroke-dashoffset:0;stroke-width:0.5;"/>
   </g>
   <g id="patch_6">
    <path d="M 118.309091 94.5 
L 118.309091 12.96 
" style="fill:none;stroke:#000000;stroke-linecap:square;stroke-linejoin:miter;"/>
   </g>
   <g id="patch_7">
    <path d="M 118.309091 94.5 
L 194.4 94.5 
" style="fill:none;stroke:#000000;stroke-linecap:square;stroke-linejoin:miter;"/>
   </g>
   <g id="matplotlib.axis_3">
    <g id="xtick_4">
     <g id="line2d_14"/>
     <g id="text_12">
      <text style="font-family:Arial;font-size:8px;font-style:normal;font-weight:normal;text-anchor:middle;" transform="rotate(-0, 118.309091, 103.72625)" x="118.309091" y="103.72625">0</text>
     </g>
    </g>
    <g id="xtick_5">
     <g id="line2d_15"/>
     <g id="text_13">
      <text style="font-family:Arial;font-size:8px;font-style:normal;font-weight:normal;text-anchor:middle;" transform="rotate(-0, 166.987077, 103.72625)" x="166.987077" y="103.72625">2</text>
     </g>
    </g>
    <g id="text_14">
     <!-- $\sigma$(Exc) -->
     <g transform="translate(141.504545 116.61625)">
      <text>
       <tspan style="font-family:DejaVu Sans;font-size:10px;font-style:oblique;font-weight:oblique;" x="0" y="-0.71875">σ</tspan>
       <tspan style="font-family:Arial;font-size:10px;font-style:regular;font-weight:regular;" x="6.337891 9.667969 16.337891 21.337891 26.337891" y="-0.71875">(Exc)</tspan>
      </text>
     </g>
    </g>
   </g>
   <g id="matplotlib.axis_4">
    <g id="ytick_6">
     <g id="line2d_16"/>
     <g id="text_15">
      <text style="font-family:Arial;font-size:8px;font-style:normal;font-weight:normal;text-anchor:end;" transform="rotate(-0, 114.809091, 97.363125)" x="114.809091" y="97.363125">0</text>
     </g>
    </g>
    <g id="ytick_7">
     <g id="line2d_17"/>
     <g id="text_16">
      <text style="font-family:Arial;font-size:8px;font-style:normal;font-weight:normal;text-anchor:end;" transform="rotate(-0, 114.809091, 71.281146)" x="114.809091" y="71.281146">1</text>
     </g>
    </g>
    <g id="ytick_8">
     <g id="line2d_18"/>
     <g id="text_17">
      <text style="font-family:Arial;font-size:8px;font-style:normal;font-weight:normal;text-anchor:end;" transform="rotate(-0, 114.809091, 45.199167)" x="114.809091" y="45.199167">2</text>
     </g>
    </g>
    <g id="ytick_9">
     <g id="line2d_19"/>
     <g id="text_18">
      <text style="font-family:Arial;font-size:8px;font-style:normal;font-weight:normal;text-anchor:end;" transform="rotate(-0, 114.809091, 19.117187)" x="114.809091" y="19.117187">3</text>
     </g>
    </g>
    <g id="text_19">
     <!-- $\sigma$(Inh) -->
     <g transform="translate(104.160341 67.18)rotate(-90)">
      <text>
       <tspan style="font-family:DejaVu Sans;font-size:10px;font-style:oblique;font-weight:oblique;" x="0" y="-0.71875">σ</tspan>
       <tspan style="font-family:Arial;font-size:10px;font-style:regular;font-weight:regular;" x="6.337891 9.667969 12.446289 18.007812 23.569336" y="-0.71875">(Inh)</tspan>
      </text>
     </g>
    </g>
   </g>
   <g id="legend_2">
    <g id="line2d_20">
     <path d="M 108.478125 31.995156 
L 128.478125 31.995156 
" style="fill:none;stroke:#000000;stroke-dasharray:1.85,0.8;stroke-dashoffset:0;stroke-width:0.5;"/>
    </g>
    <g id="line2d_21"/>
    <g id="text_20">
     <!-- $R^2$ 0.24 -->
     <g transform="translate(136.478125 29.2475)">
      <text>
       <tspan style="font-family:DejaVu Sans;font-size:10px;font-style:oblique;font-weight:oblique;" x="0" y="-0.9765625">R</tspan>
       <tspan style="font-family:DejaVu Sans;font-size:7px;font-style:book;font-weight:book;" x="7.650794" y="-4.8046875">2</tspan>
       <tspan style="font-family:Arial;font-size:10px;font-style:regular;font-weight:regular;" x="12.377845 15.156165 20.717689 23.496009 29.057533" y="-0.9765625"> 0.24</tspan>
      </text>
     </g>
     <text style="font-family:Arial;font-size:10px;font-style:normal;font-weight:normal;" transform="translate(136.478125 39.86)"> slope 0.51</text>
    </g>
   </g>
  </g>
 </g>
 <defs>
  <clipPath id="pf12af575ca">
   <rect height="81.54" width="76.090909" x="27" y="12.96"/>
  </clipPath>
  <clipPath id="p140a7459fe">
   <rect height="81.54" width="76.090909" x="118.309091" y="12.96"/>
  </clipPath>
 </defs>
</svg>
