<?xml version="1.0" encoding="utf-8" standalone="no"?>
<!DOCTYPE svg PUBLIC "-//W3C//DTD SVG 1.1//EN"
  "http://www.w3.org/Graphics/SVG/1.1/DTD/svg11.dtd">
<!-- Created with matplotlib (http://matplotlib.org/) -->
<svg height="108pt" version="1.1" viewBox="0 0 216 108" width="216pt" xmlns="http://www.w3.org/2000/svg" xmlns:xlink="http://www.w3.org/1999/xlink">
 <defs>
  <style type="text/css">
*{stroke-linecap:butt;stroke-linejoin:round;}
  </style>
 </defs>
 <g id="figure_1">
  <g id="patch_1">
   <path d="M 0 108 
L 216 108 
L 216 0 
L 0 0 
z
" style="fill:#ffffff;"/>
  </g>
  <g id="axes_1">
   <g id="patch_2">
    <path d="M 27 94.5 
L 103.090909 94.5 
L 103.090909 12.96 
L 27 12.96 
z
" style="fill:#ffffff;"/>
   </g>
   <g id="LineCollection_1">
    <path clip-path="url(#pb3846d6f8a)" d="M 29.387708 48.199944 
L 48.709257 48.199944 
" style="fill:none;stroke:#000000;stroke-width:0.5;"/>
    <path clip-path="url(#pb3846d6f8a)" d="M 26.386592 88.724723 
L 28.459785 88.724723 
" style="fill:none;stroke:#000000;stroke-width:0.5;"/>
    <path clip-path="url(#pb3846d6f8a)" d="M 24.782266 59.690707 
L 47.209708 59.690707 
" style="fill:none;stroke:#000000;stroke-width:0.5;"/>
    <path clip-path="url(#pb3846d6f8a)" d="M 27.301616 84.754522 
L 33.216973 84.754522 
" style="fill:none;stroke:#000000;stroke-width:0.5;"/>
    <path clip-path="url(#pb3846d6f8a)" d="M 29.547572 71.163991 
L 35.241028 71.163991 
" style="fill:none;stroke:#000000;stroke-width:0.5;"/>
    <path clip-path="url(#pb3846d6f8a)" d="M 26.641058 84.557056 
L 34.88038 84.557056 
" style="fill:none;stroke:#000000;stroke-width:0.5;"/>
    <path clip-path="url(#pb3846d6f8a)" d="M 27.056151 34.771973 
L 52.02356 34.771973 
" style="fill:none;stroke:#000000;stroke-width:0.5;"/>
    <path clip-path="url(#pb3846d6f8a)" d="M 25.320555 74.161996 
L 34.404162 74.161996 
" style="fill:none;stroke:#000000;stroke-width:0.5;"/>
    <path clip-path="url(#pb3846d6f8a)" d="M 29.013045 51.83066 
L 43.402756 51.83066 
" style="fill:none;stroke:#000000;stroke-width:0.5;"/>
    <path clip-path="url(#pb3846d6f8a)" d="M 24.284173 43.40397 
L 51.227774 43.40397 
" style="fill:none;stroke:#000000;stroke-width:0.5;"/>
    <path clip-path="url(#pb3846d6f8a)" d="M 21.406323 52.470216 
L 45.323171 52.470216 
" style="fill:none;stroke:#000000;stroke-width:0.5;"/>
    <path clip-path="url(#pb3846d6f8a)" d="M 25.721111 84.993804 
L 31.706758 84.993804 
" style="fill:none;stroke:#000000;stroke-width:0.5;"/>
    <path clip-path="url(#pb3846d6f8a)" d="M 24.679167 81.215846 
L 37.772621 81.215846 
" style="fill:none;stroke:#000000;stroke-width:0.5;"/>
    <path clip-path="url(#pb3846d6f8a)" d="M 23.006122 82.807886 
L 36.504615 82.807886 
" style="fill:none;stroke:#000000;stroke-width:0.5;"/>
    <path clip-path="url(#pb3846d6f8a)" d="M 26.413926 81.125524 
L 34.529509 81.125524 
" style="fill:none;stroke:#000000;stroke-width:0.5;"/>
    <path clip-path="url(#pb3846d6f8a)" d="M 25.646386 51.946008 
L 43.342698 51.946008 
" style="fill:none;stroke:#000000;stroke-width:0.5;"/>
    <path clip-path="url(#pb3846d6f8a)" d="M 25.421595 31.605586 
L 49.331615 31.605586 
" style="fill:none;stroke:#000000;stroke-width:0.5;"/>
    <path clip-path="url(#pb3846d6f8a)" d="M 29.585613 64.362202 
L 42.125753 64.362202 
" style="fill:none;stroke:#000000;stroke-width:0.5;"/>
    <path clip-path="url(#pb3846d6f8a)" d="M 18.038011 45.009714 
L 66.670299 45.009714 
" style="fill:none;stroke:#000000;stroke-width:0.5;"/>
    <path clip-path="url(#pb3846d6f8a)" d="M 27.052806 74.506844 
L 30.191889 74.506844 
" style="fill:none;stroke:#000000;stroke-width:0.5;"/>
    <path clip-path="url(#pb3846d6f8a)" d="M 25.433657 81.988417 
L 36.855455 81.988417 
" style="fill:none;stroke:#000000;stroke-width:0.5;"/>
    <path clip-path="url(#pb3846d6f8a)" d="M 27.337461 75.041259 
L 36.832175 75.041259 
" style="fill:none;stroke:#000000;stroke-width:0.5;"/>
    <path clip-path="url(#pb3846d6f8a)" d="M 27.022172 78.251836 
L 37.019324 78.251836 
" style="fill:none;stroke:#000000;stroke-width:0.5;"/>
    <path clip-path="url(#pb3846d6f8a)" d="M 26.563195 77.985208 
L 31.619735 77.985208 
" style="fill:none;stroke:#000000;stroke-width:0.5;"/>
    <path clip-path="url(#pb3846d6f8a)" d="M 27.149363 86.627256 
L 31.22972 86.627256 
" style="fill:none;stroke:#000000;stroke-width:0.5;"/>
    <path clip-path="url(#pb3846d6f8a)" d="M 33.34604 61.330755 
L 51.882026 61.330755 
" style="fill:none;stroke:#000000;stroke-width:0.5;"/>
    <path clip-path="url(#pb3846d6f8a)" d="M 27.780713 81.341541 
L 32.503978 81.341541 
" style="fill:none;stroke:#000000;stroke-width:0.5;"/>
    <path clip-path="url(#pb3846d6f8a)" d="M 26.340934 92.456041 
L 28.568443 92.456041 
" style="fill:none;stroke:#000000;stroke-width:0.5;"/>
    <path clip-path="url(#pb3846d6f8a)" d="M 25.853042 73.091053 
L 40.686246 73.091053 
" style="fill:none;stroke:#000000;stroke-width:0.5;"/>
    <path clip-path="url(#pb3846d6f8a)" d="M 28.430322 68.196111 
L 36.432844 68.196111 
" style="fill:none;stroke:#000000;stroke-width:0.5;"/>
   </g>
   <g id="LineCollection_2">
    <path clip-path="url(#pb3846d6f8a)" d="M 39.048483 55.35303 
L 39.048483 41.046859 
" style="fill:none;stroke:#000000;stroke-width:0.5;"/>
    <path clip-path="url(#pb3846d6f8a)" d="M 27.423189 90.676128 
L 27.423189 86.773318 
" style="fill:none;stroke:#000000;stroke-width:0.5;"/>
    <path clip-path="url(#pb3846d6f8a)" d="M 35.995987 67.88787 
L 35.995987 51.493544 
" style="fill:none;stroke:#000000;stroke-width:0.5;"/>
    <path clip-path="url(#pb3846d6f8a)" d="M 30.259294 90.923623 
L 30.259294 78.585421 
" style="fill:none;stroke:#000000;stroke-width:0.5;"/>
    <path clip-path="url(#pb3846d6f8a)" d="M 32.3943 74.798449 
L 32.3943 67.529533 
" style="fill:none;stroke:#000000;stroke-width:0.5;"/>
    <path clip-path="url(#pb3846d6f8a)" d="M 30.760719 84.557056 
L 30.760719 84.557056 
" style="fill:none;stroke:#000000;stroke-width:0.5;"/>
    <path clip-path="url(#pb3846d6f8a)" d="M 39.539855 48.349169 
L 39.539855 21.194776 
" style="fill:none;stroke:#000000;stroke-width:0.5;"/>
    <path clip-path="url(#pb3846d6f8a)" d="M 29.862359 78.837837 
L 29.862359 69.486154 
" style="fill:none;stroke:#000000;stroke-width:0.5;"/>
    <path clip-path="url(#pb3846d6f8a)" d="M 36.2079 55.925281 
L 36.2079 47.736038 
" style="fill:none;stroke:#000000;stroke-width:0.5;"/>
    <path clip-path="url(#pb3846d6f8a)" d="M 37.755974 51.760261 
L 37.755974 35.04768 
" style="fill:none;stroke:#000000;stroke-width:0.5;"/>
    <path clip-path="url(#pb3846d6f8a)" d="M 33.364747 64.976652 
L 33.364747 39.96378 
" style="fill:none;stroke:#000000;stroke-width:0.5;"/>
    <path clip-path="url(#pb3846d6f8a)" d="M 28.713935 88.31531 
L 28.713935 81.672299 
" style="fill:none;stroke:#000000;stroke-width:0.5;"/>
    <path clip-path="url(#pb3846d6f8a)" d="M 31.225894 86.148056 
L 31.225894 76.283636 
" style="fill:none;stroke:#000000;stroke-width:0.5;"/>
    <path clip-path="url(#pb3846d6f8a)" d="M 29.755369 91.864559 
L 29.755369 73.751214 
" style="fill:none;stroke:#000000;stroke-width:0.5;"/>
    <path clip-path="url(#pb3846d6f8a)" d="M 30.471717 85.37284 
L 30.471717 76.878208 
" style="fill:none;stroke:#000000;stroke-width:0.5;"/>
    <path clip-path="url(#pb3846d6f8a)" d="M 34.494542 57.63649 
L 34.494542 46.255527 
" style="fill:none;stroke:#000000;stroke-width:0.5;"/>
    <path clip-path="url(#pb3846d6f8a)" d="M 37.376605 42.038488 
L 37.376605 21.172684 
" style="fill:none;stroke:#000000;stroke-width:0.5;"/>
    <path clip-path="url(#pb3846d6f8a)" d="M 35.855683 71.043159 
L 35.855683 57.681244 
" style="fill:none;stroke:#000000;stroke-width:0.5;"/>
    <path clip-path="url(#pb3846d6f8a)" d="M 42.354155 73.198511 
L 42.354155 16.820918 
" style="fill:none;stroke:#000000;stroke-width:0.5;"/>
    <path clip-path="url(#pb3846d6f8a)" d="M 28.622348 83.056922 
L 28.622348 65.956765 
" style="fill:none;stroke:#000000;stroke-width:0.5;"/>
    <path clip-path="url(#pb3846d6f8a)" d="M 31.144556 91.541716 
L 31.144556 72.435118 
" style="fill:none;stroke:#000000;stroke-width:0.5;"/>
    <path clip-path="url(#pb3846d6f8a)" d="M 32.084818 79.83616 
L 32.084818 70.246359 
" style="fill:none;stroke:#000000;stroke-width:0.5;"/>
    <path clip-path="url(#pb3846d6f8a)" d="M 32.020748 85.677974 
L 32.020748 70.825698 
" style="fill:none;stroke:#000000;stroke-width:0.5;"/>
    <path clip-path="url(#pb3846d6f8a)" d="M 29.091465 80.69958 
L 29.091465 75.270835 
" style="fill:none;stroke:#000000;stroke-width:0.5;"/>
    <path clip-path="url(#pb3846d6f8a)" d="M 29.189542 88.641355 
L 29.189542 84.613156 
" style="fill:none;stroke:#000000;stroke-width:0.5;"/>
    <path clip-path="url(#pb3846d6f8a)" d="M 42.614033 71.250231 
L 42.614033 51.411279 
" style="fill:none;stroke:#000000;stroke-width:0.5;"/>
    <path clip-path="url(#pb3846d6f8a)" d="M 30.142345 85.044538 
L 30.142345 77.638544 
" style="fill:none;stroke:#000000;stroke-width:0.5;"/>
    <path clip-path="url(#pb3846d6f8a)" d="M 27.454688 94.039285 
L 27.454688 90.872798 
" style="fill:none;stroke:#000000;stroke-width:0.5;"/>
    <path clip-path="url(#pb3846d6f8a)" d="M 33.269644 83.712426 
L 33.269644 62.469681 
" style="fill:none;stroke:#000000;stroke-width:0.5;"/>
    <path clip-path="url(#pb3846d6f8a)" d="M 32.431583 72.354593 
L 32.431583 64.037629 
" style="fill:none;stroke:#000000;stroke-width:0.5;"/>
   </g>
   <g id="line2d_1">
    <path clip-path="url(#pb3846d6f8a)" d="M 27 89.477429 
L 27.768595 86.857578 
L 28.53719 84.237727 
L 29.305785 81.617876 
L 30.07438 78.998025 
L 30.842975 76.378174 
L 31.61157 73.758323 
L 32.380165 71.138472 
L 33.14876 68.518621 
L 33.917355 65.89877 
L 34.68595 63.278919 
L 35.454545 60.659068 
L 36.22314 58.039217 
L 36.991736 55.419365 
L 37.760331 52.799514 
L 38.528926 50.179663 
L 39.297521 47.559812 
L 40.066116 44.939961 
L 40.834711 42.32011 
L 41.603306 39.700259 
L 42.371901 37.080408 
L 43.140496 34.460557 
L 43.909091 31.840706 
L 44.677686 29.220855 
L 45.446281 26.601004 
L 46.214876 23.981153 
L 46.983471 21.361302 
L 47.752066 18.741451 
L 48.520661 16.1216 
L 49.289256 13.501749 
L 50.057851 10.881898 
L 50.826446 8.262047 
L 51.595041 5.642196 
L 52.363636 3.022345 
L 53.132231 0.402494 
L 53.543686 -1 
" style="fill:none;stroke:#000000;stroke-dasharray:1.85,0.8;stroke-dashoffset:0;stroke-width:0.5;"/>
   </g>
   <g id="line2d_2">
    <defs>
     <path d="M 0 3 
C 0.795609 3 1.55874 2.683901 2.12132 2.12132 
C 2.683901 1.55874 3 0.795609 3 0 
C 3 -0.795609 2.683901 -1.55874 2.12132 -2.12132 
C 1.55874 -2.683901 0.795609 -3 0 -3 
C -0.795609 -3 -1.55874 -2.683901 -2.12132 -2.12132 
C -2.683901 -1.55874 -3 -0.795609 -3 0 
C -3 0.795609 -2.683901 1.55874 -2.12132 2.12132 
C -1.55874 2.683901 -0.795609 3 0 3 
z
" id="ma17d21d4bc" style="stroke:#000000;"/>
    </defs>
    <g clip-path="url(#pb3846d6f8a)">
     <use style="stroke:#000000;" x="39.048483" xlink:href="#ma17d21d4bc" y="48.199944"/>
     <use style="stroke:#000000;" x="27.423189" xlink:href="#ma17d21d4bc" y="88.724723"/>
     <use style="stroke:#000000;" x="35.995987" xlink:href="#ma17d21d4bc" y="59.690707"/>
     <use style="stroke:#000000;" x="30.259294" xlink:href="#ma17d21d4bc" y="84.754522"/>
     <use style="stroke:#000000;" x="32.3943" xlink:href="#ma17d21d4bc" y="71.163991"/>
     <use style="stroke:#000000;" x="30.760719" xlink:href="#ma17d21d4bc" y="84.557056"/>
     <use style="stroke:#000000;" x="39.539855" xlink:href="#ma17d21d4bc" y="34.771973"/>
     <use style="stroke:#000000;" x="29.862359" xlink:href="#ma17d21d4bc" y="74.161996"/>
     <use style="stroke:#000000;" x="36.2079" xlink:href="#ma17d21d4bc" y="51.83066"/>
     <use style="stroke:#000000;" x="37.755974" xlink:href="#ma17d21d4bc" y="43.40397"/>
     <use style="stroke:#000000;" x="33.364747" xlink:href="#ma17d21d4bc" y="52.470216"/>
     <use style="stroke:#000000;" x="28.713935" xlink:href="#ma17d21d4bc" y="84.993804"/>
     <use style="stroke:#000000;" x="31.225894" xlink:href="#ma17d21d4bc" y="81.215846"/>
     <use style="stroke:#000000;" x="29.755369" xlink:href="#ma17d21d4bc" y="82.807886"/>
     <use style="stroke:#000000;" x="30.471717" xlink:href="#ma17d21d4bc" y="81.125524"/>
     <use style="stroke:#000000;" x="34.494542" xlink:href="#ma17d21d4bc" y="51.946008"/>
     <use style="stroke:#000000;" x="37.376605" xlink:href="#ma17d21d4bc" y="31.605586"/>
     <use style="stroke:#000000;" x="35.855683" xlink:href="#ma17d21d4bc" y="64.362202"/>
     <use style="stroke:#000000;" x="42.354155" xlink:href="#ma17d21d4bc" y="45.009714"/>
     <use style="stroke:#000000;" x="28.622348" xlink:href="#ma17d21d4bc" y="74.506844"/>
     <use style="stroke:#000000;" x="31.144556" xlink:href="#ma17d21d4bc" y="81.988417"/>
     <use style="stroke:#000000;" x="32.084818" xlink:href="#ma17d21d4bc" y="75.041259"/>
     <use style="stroke:#000000;" x="32.020748" xlink:href="#ma17d21d4bc" y="78.251836"/>
     <use style="stroke:#000000;" x="29.091465" xlink:href="#ma17d21d4bc" y="77.985208"/>
     <use style="stroke:#000000;" x="29.189542" xlink:href="#ma17d21d4bc" y="86.627256"/>
     <use style="stroke:#000000;" x="42.614033" xlink:href="#ma17d21d4bc" y="61.330755"/>
     <use style="stroke:#000000;" x="30.142345" xlink:href="#ma17d21d4bc" y="81.341541"/>
     <use style="stroke:#000000;" x="27.454688" xlink:href="#ma17d21d4bc" y="92.456041"/>
     <use style="stroke:#000000;" x="33.269644" xlink:href="#ma17d21d4bc" y="73.091053"/>
     <use style="stroke:#000000;" x="32.431583" xlink:href="#ma17d21d4bc" y="68.196111"/>
    </g>
   </g>
   <g id="patch_3">
    <path d="M 27 94.5 
L 27 12.96 
" style="fill:none;stroke:#000000;stroke-linecap:square;stroke-linejoin:miter;"/>
   </g>
   <g id="patch_4">
    <path d="M 27 94.5 
L 103.090909 94.5 
" style="fill:none;stroke:#000000;stroke-linecap:square;stroke-linejoin:miter;"/>
   </g>
   <g id="matplotlib.axis_1">
    <g id="xtick_1">
     <g id="line2d_3"/>
     <g id="text_1">
      <text style="font-family:Arial;font-size:8px;font-style:normal;font-weight:normal;text-anchor:middle;" transform="rotate(-0, 27, 103.72625)" x="27" y="103.72625">0</text>
     </g>
    </g>
    <g id="xtick_2">
     <g id="line2d_4"/>
     <g id="text_2">
      <text style="font-family:Arial;font-size:8px;font-style:normal;font-weight:normal;text-anchor:middle;" transform="rotate(-0, 56.446099, 103.72625)" x="56.446099" y="103.72625">5</text>
     </g>
    </g>
    <g id="xtick_3">
     <g id="line2d_5"/>
     <g id="text_3">
      <text style="font-family:Arial;font-size:8px;font-style:normal;font-weight:normal;text-anchor:middle;" transform="rotate(-0, 85.892197, 103.72625)" x="85.892197" y="103.72625">10</text>
     </g>
    </g>
    <g id="text_4">
     <text style="font-family:Arial;font-size:10px;font-style:normal;font-weight:normal;text-anchor:middle;" transform="rotate(-0, 65.045455, 116.474063)" x="65.045455" y="116.474063">Exc</text>
    </g>
   </g>
   <g id="matplotlib.axis_2">
    <g id="ytick_1">
     <g id="line2d_6"/>
     <g id="text_5">
      <text style="font-family:Arial;font-size:8px;font-style:normal;font-weight:normal;text-anchor:end;" transform="rotate(-0, 23.5, 97.363125)" x="23.5" y="97.363125">0</text>
     </g>
    </g>
    <g id="ytick_2">
     <g id="line2d_7"/>
     <g id="text_6">
      <text style="font-family:Arial;font-size:8px;font-style:normal;font-weight:normal;text-anchor:end;" transform="rotate(-0, 23.5, 65.808306)" x="23.5" y="65.808306">5</text>
     </g>
    </g>
    <g id="ytick_3">
     <g id="line2d_8"/>
     <g id="text_7">
      <text style="font-family:Arial;font-size:8px;font-style:normal;font-weight:normal;text-anchor:end;" transform="rotate(-0, 23.5, 34.253487)" x="23.5" y="34.253487">10</text>
     </g>
    </g>
    <g id="text_8">
     <text style="font-family:Arial;font-size:10px;font-style:normal;font-weight:normal;text-anchor:middle;" transform="rotate(-90, 8.615, 53.73)" x="8.615" y="53.73">Inh</text>
    </g>
   </g>
   <g id="legend_1">
    <g id="line2d_9">
     <path d="M 36 75.622656 
L 56 75.622656 
" style="fill:none;stroke:#000000;stroke-dasharray:1.85,0.8;stroke-dashoffset:0;stroke-width:0.5;"/>
    </g>
    <g id="line2d_10"/>
    <g id="text_9">
     <!-- $R^2$ 0.72 -->
     <g transform="translate(64 72.875)">
      <text>
       <tspan style="font-family:DejaVu Sans;font-size:10px;font-style:oblique;font-weight:oblique;" x="0" y="-0.9765625">R</tspan>
       <tspan style="font-family:DejaVu Sans;font-size:7px;font-style:book;font-weight:book;" x="7.650794" y="-4.8046875">2</tspan>
       <tspan style="font-family:Arial;font-size:10px;font-style:regular;font-weight:regular;" x="12.377845 15.156165 20.717689 23.496009 29.057533" y="-0.9765625"> 0.72</tspan>
      </text>
     </g>
     <text style="font-family:Arial;font-size:10px;font-style:normal;font-weight:normal;" transform="translate(64 83.4875)"> slope 3.18</text>
    </g>
   </g>
  </g>
  <g id="axes_2">
   <g id="patch_5">
    <path d="M 118.309091 94.5 
L 194.4 94.5 
L 194.4 12.96 
L 118.309091 12.96 
z
" style="fill:#ffffff;"/>
   </g>
   <g id="PathCollection_1">
    <defs>
     <path d="M 0 2.44949 
C 0.649612 2.44949 1.272706 2.191396 1.732051 1.732051 
C 2.191396 1.272706 2.44949 0.649612 2.44949 0 
C 2.44949 -0.649612 2.191396 -1.272706 1.732051 -1.732051 
C 1.272706 -2.191396 0.649612 -2.44949 0 -2.44949 
C -0.649612 -2.44949 -1.272706 -2.191396 -1.732051 -1.732051 
C -2.191396 -1.272706 -2.44949 -0.649612 -2.44949 0 
C -2.44949 0.649612 -2.191396 1.272706 -1.732051 1.732051 
C -1.272706 2.191396 -0.649612 2.44949 0 2.44949 
z
" id="m8b529acf2c" style="stroke:#000000;"/>
    </defs>
    <g clip-path="url(#p16a6e48967)">
     <use style="stroke:#000000;" x="144.853366" xlink:href="#m8b529acf2c" y="74.845937"/>
     <use style="stroke:#000000;" x="121.157278" xlink:href="#m8b529acf2c" y="89.138252"/>
     <use style="stroke:#000000;" x="149.120294" xlink:href="#m8b529acf2c" y="71.977194"/>
     <use style="stroke:#000000;" x="126.435709" xlink:href="#m8b529acf2c" y="77.549568"/>
     <use style="stroke:#000000;" x="126.130859" xlink:href="#m8b529acf2c" y="84.513838"/>
     <use style="stroke:#000000;" x="129.628413" xlink:href="#m8b529acf2c" y="94.5"/>
     <use style="stroke:#000000;" x="152.609744" xlink:href="#m8b529acf2c" y="57.19483"/>
     <use style="stroke:#000000;" x="130.788305" xlink:href="#m8b529acf2c" y="81.652498"/>
     <use style="stroke:#000000;" x="138.077922" xlink:href="#m8b529acf2c" y="83.249478"/>
     <use style="stroke:#000000;" x="155.324672" xlink:href="#m8b529acf2c" y="71.539971"/>
     <use style="stroke:#000000;" x="151.166466" xlink:href="#m8b529acf2c" y="60.136889"/>
     <use style="stroke:#000000;" x="126.532276" xlink:href="#m8b529acf2c" y="85.373719"/>
     <use style="stroke:#000000;" x="136.297101" xlink:href="#m8b529acf2c" y="80.948091"/>
     <use style="stroke:#000000;" x="136.853553" xlink:href="#m8b529acf2c" y="69.615577"/>
     <use style="stroke:#000000;" x="129.458417" xlink:href="#m8b529acf2c" y="82.829929"/>
     <use style="stroke:#000000;" x="142.620587" xlink:href="#m8b529acf2c" y="78.864638"/>
     <use style="stroke:#000000;" x="151.157087" xlink:href="#m8b529acf2c" y="65.834202"/>
     <use style="stroke:#000000;" x="135.536949" xlink:href="#m8b529acf2c" y="76.143173"/>
     <use style="stroke:#000000;" x="185.12096" xlink:href="#m8b529acf2c" y="17.047499"/>
     <use style="stroke:#000000;" x="122.621618" xlink:href="#m8b529acf2c" y="71.007512"/>
     <use style="stroke:#000000;" x="134.000553" xlink:href="#m8b529acf2c" y="68.251029"/>
     <use style="stroke:#000000;" x="131.353092" xlink:href="#m8b529acf2c" y="81.325367"/>
     <use style="stroke:#000000;" x="132.04335" xlink:href="#m8b529acf2c" y="74.09569"/>
     <use style="stroke:#000000;" x="125.255852" xlink:href="#m8b529acf2c" y="87.041898"/>
     <use style="stroke:#000000;" x="123.914755" xlink:href="#m8b529acf2c" y="88.965991"/>
     <use style="stroke:#000000;" x="143.774146" xlink:href="#m8b529acf2c" y="67.244907"/>
     <use style="stroke:#000000;" x="124.797992" xlink:href="#m8b529acf2c" y="84.325518"/>
     <use style="stroke:#000000;" x="121.369281" xlink:href="#m8b529acf2c" y="90.149826"/>
     <use style="stroke:#000000;" x="138.6872" xlink:href="#m8b529acf2c" y="65.316353"/>
     <use style="stroke:#000000;" x="129.303092" xlink:href="#m8b529acf2c" y="83.074013"/>
    </g>
   </g>
   <g id="line2d_11">
    <path clip-path="url(#p16a6e48967)" d="M 118.309091 92.275154 
L 119.077686 91.565909 
L 119.846281 90.856664 
L 120.614876 90.147419 
L 121.383471 89.438173 
L 122.152066 88.728928 
L 122.920661 88.019683 
L 123.689256 87.310438 
L 124.457851 86.601193 
L 125.226446 85.891948 
L 125.995041 85.182703 
L 126.763636 84.473458 
L 127.532231 83.764213 
L 128.300826 83.054968 
L 129.069421 82.345723 
L 129.838017 81.636478 
L 130.606612 80.927233 
L 131.375207 80.217988 
L 132.143802 79.508743 
L 132.912397 78.799498 
L 133.680992 78.090253 
L 134.449587 77.381008 
L 135.218182 76.671763 
L 135.986777 75.962518 
L 136.755372 75.253273 
L 137.523967 74.544028 
L 138.292562 73.834783 
L 139.061157 73.125538 
L 139.829752 72.416293 
L 140.598347 71.707048 
L 141.366942 70.997803 
L 142.135537 70.288558 
L 142.904132 69.579313 
L 143.672727 68.870068 
L 144.441322 68.160823 
L 145.209917 67.451578 
L 145.978512 66.742333 
L 146.747107 66.033088 
L 147.515702 65.323843 
L 148.284298 64.614598 
L 149.052893 63.905353 
L 149.821488 63.196108 
L 150.590083 62.486863 
L 151.358678 61.777618 
L 152.127273 61.068373 
L 152.895868 60.359127 
L 153.664463 59.649882 
L 154.433058 58.940637 
L 155.201653 58.231392 
L 155.970248 57.522147 
L 156.738843 56.812902 
L 157.507438 56.103657 
L 158.276033 55.394412 
L 159.044628 54.685167 
L 159.813223 53.975922 
L 160.581818 53.266677 
L 161.350413 52.557432 
L 162.119008 51.848187 
L 162.887603 51.138942 
L 163.656198 50.429697 
L 164.424793 49.720452 
L 165.193388 49.011207 
L 165.961983 48.301962 
L 166.730579 47.592717 
L 167.499174 46.883472 
L 168.267769 46.174227 
L 169.036364 45.464982 
L 169.804959 44.755737 
L 170.573554 44.046492 
L 171.342149 43.337247 
L 172.110744 42.628002 
L 172.879339 41.918757 
L 173.647934 41.209512 
L 174.416529 40.500267 
L 175.185124 39.791022 
L 175.953719 39.081777 
L 176.722314 38.372532 
L 177.490909 37.663287 
L 178.259504 36.954042 
L 179.028099 36.244797 
L 179.796694 35.535552 
L 180.565289 34.826307 
L 181.333884 34.117062 
L 182.102479 33.407817 
L 182.871074 32.698572 
L 183.639669 31.989326 
L 184.408264 31.280081 
L 185.17686 30.570836 
L 185.945455 29.861591 
L 186.71405 29.152346 
L 187.482645 28.443101 
L 188.25124 27.733856 
L 189.019835 27.024611 
L 189.78843 26.315366 
L 190.557025 25.606121 
L 191.32562 24.896876 
L 192.094215 24.187631 
L 192.86281 23.478386 
L 193.631405 22.769141 
L 194.4 22.059896 
" style="fill:none;stroke:#000000;stroke-dasharray:1.85,0.8;stroke-dashoffset:0;stroke-width:0.5;"/>
   </g>
   <g id="patch_6">
    <path d="M 118.309091 94.5 
L 118.309091 12.96 
" style="fill:none;stroke:#000000;stroke-linecap:square;stroke-linejoin:miter;"/>
   </g>
   <g id="patch_7">
    <path d="M 118.309091 94.5 
L 194.4 94.5 
" style="fill:none;stroke:#000000;stroke-linecap:square;stroke-linejoin:miter;"/>
   </g>
   <g id="matplotlib.axis_3">
    <g id="xtick_4">
     <g id="line2d_12"/>
     <g id="text_10">
      <text style="font-family:Arial;font-size:8px;font-style:normal;font-weight:normal;text-anchor:middle;" transform="rotate(-0, 118.309091, 103.72625)" x="118.309091" y="103.72625">0</text>
     </g>
    </g>
    <g id="xtick_5">
     <g id="line2d_13"/>
     <g id="text_11">
      <text style="font-family:Arial;font-size:8px;font-style:normal;font-weight:normal;text-anchor:middle;" transform="rotate(-0, 150.671934, 103.72625)" x="150.671934" y="103.72625">2</text>
     </g>
    </g>
    <g id="xtick_6">
     <g id="line2d_14"/>
     <g id="text_12">
      <text style="font-family:Arial;font-size:8px;font-style:normal;font-weight:normal;text-anchor:middle;" transform="rotate(-0, 183.034778, 103.72625)" x="183.034778" y="103.72625">4</text>
     </g>
    </g>
    <g id="text_13">
     <!-- $\sigma$(Exc) -->
     <g transform="translate(141.504545 116.61625)">
      <text>
       <tspan style="font-family:DejaVu Sans;font-size:10px;font-style:oblique;font-weight:oblique;" x="0" y="-0.71875">σ</tspan>
       <tspan style="font-family:Arial;font-size:10px;font-style:regular;font-weight:regular;" x="6.337891 9.667969 16.337891 21.337891 26.337891" y="-0.71875">(Exc)</tspan>
      </text>
     </g>
    </g>
   </g>
   <g id="matplotlib.axis_4">
    <g id="ytick_4">
     <g id="line2d_15"/>
     <g id="text_14">
      <text style="font-family:Arial;font-size:8px;font-style:normal;font-weight:normal;text-anchor:end;" transform="rotate(-0, 114.809091, 97.363125)" x="114.809091" y="97.363125">0</text>
     </g>
    </g>
    <g id="ytick_5">
     <g id="line2d_16"/>
     <g id="text_15">
      <text style="font-family:Arial;font-size:8px;font-style:normal;font-weight:normal;text-anchor:end;" transform="rotate(-0, 114.809091, 80.022905)" x="114.809091" y="80.022905">1</text>
     </g>
    </g>
    <g id="ytick_6">
     <g id="line2d_17"/>
     <g id="text_16">
      <text style="font-family:Arial;font-size:8px;font-style:normal;font-weight:normal;text-anchor:end;" transform="rotate(-0, 114.809091, 62.682684)" x="114.809091" y="62.682684">2</text>
     </g>
    </g>
    <g id="ytick_7">
     <g id="line2d_18"/>
     <g id="text_17">
      <text style="font-family:Arial;font-size:8px;font-style:normal;font-weight:normal;text-anchor:end;" transform="rotate(-0, 114.809091, 45.342464)" x="114.809091" y="45.342464">3</text>
     </g>
    </g>
    <g id="ytick_8">
     <g id="line2d_19"/>
     <g id="text_18">
      <text style="font-family:Arial;font-size:8px;font-style:normal;font-weight:normal;text-anchor:end;" transform="rotate(-0, 114.809091, 28.002244)" x="114.809091" y="28.002244">4</text>
     </g>
    </g>
    <g id="text_19">
     <!-- $\sigma$(Inh) -->
     <g transform="translate(104.160341 67.18)rotate(-90)">
      <text>
       <tspan style="font-family:DejaVu Sans;font-size:10px;font-style:oblique;font-weight:oblique;" x="0" y="-0.71875">σ</tspan>
       <tspan style="font-family:Arial;font-size:10px;font-style:regular;font-weight:regular;" x="6.337891 9.667969 12.446289 18.007812 23.569336" y="-0.71875">(Inh)</tspan>
      </text>
     </g>
    </g>
   </g>
   <g id="legend_2">
    <g id="line2d_20">
     <path d="M 108.478125 31.995156 
L 128.478125 31.995156 
" style="fill:none;stroke:#000000;stroke-dasharray:1.85,0.8;stroke-dashoffset:0;stroke-width:0.5;"/>
    </g>
    <g id="line2d_21"/>
    <g id="text_20">
     <!-- $R^2$ 0.76 -->
     <g transform="translate(136.478125 29.2475)">
      <text>
       <tspan style="font-family:DejaVu Sans;font-size:10px;font-style:oblique;font-weight:oblique;" x="0" y="-0.9765625">R</tspan>
       <tspan style="font-family:DejaVu Sans;font-size:7px;font-style:book;font-weight:book;" x="7.650794" y="-4.8046875">2</tspan>
       <tspan style="font-family:Arial;font-size:10px;font-style:regular;font-weight:regular;" x="12.377845 15.156165 20.717689 23.496009 29.057533" y="-0.9765625"> 0.76</tspan>
      </text>
     </g>
     <text style="font-family:Arial;font-size:10px;font-style:normal;font-weight:normal;" transform="translate(136.478125 39.86)"> slope 0.86</text>
    </g>
   </g>
  </g>
 </g>
 <defs>
  <clipPath id="pb3846d6f8a">
   <rect height="81.54" width="76.090909" x="27" y="12.96"/>
  </clipPath>
  <clipPath id="p16a6e48967">
   <rect height="81.54" width="76.090909" x="118.309091" y="12.96"/>
  </clipPath>
 </defs>
</svg>
