<?xml version="1.0" encoding="utf-8" standalone="no"?>
<!DOCTYPE svg PUBLIC "-//W3C//DTD SVG 1.1//EN"
  "http://www.w3.org/Graphics/SVG/1.1/DTD/svg11.dtd">
<!-- Created with matplotlib (http://matplotlib.org/) -->
<svg height="108pt" version="1.1" viewBox="0 0 216 108" width="216pt" xmlns="http://www.w3.org/2000/svg" xmlns:xlink="http://www.w3.org/1999/xlink">
 <defs>
  <style type="text/css">
*{stroke-linecap:butt;stroke-linejoin:round;}
  </style>
 </defs>
 <g id="figure_1">
  <g id="patch_1">
   <path d="M 0 108 
L 216 108 
L 216 0 
L 0 0 
z
" style="fill:#ffffff;"/>
  </g>
  <g id="axes_1">
   <g id="patch_2">
    <path d="M 27 94.5 
L 103.090909 94.5 
L 103.090909 12.96 
L 27 12.96 
z
" style="fill:#ffffff;"/>
   </g>
   <g id="LineCollection_1">
    <path clip-path="url(#pd84544aa95)" d="M 25.393555 76.33476 
L 30.823012 76.33476 
" style="fill:none;stroke:#000000;stroke-width:0.5;"/>
    <path clip-path="url(#pd84544aa95)" d="M 28.709594 77.042535 
L 34.16011 77.042535 
" style="fill:none;stroke:#000000;stroke-width:0.5;"/>
    <path clip-path="url(#pd84544aa95)" d="M 29.778653 84.28853 
L 35.137914 84.28853 
" style="fill:none;stroke:#000000;stroke-width:0.5;"/>
    <path clip-path="url(#pd84544aa95)" d="M 28.363283 78.943095 
L 37.973704 78.943095 
" style="fill:none;stroke:#000000;stroke-width:0.5;"/>
    <path clip-path="url(#pd84544aa95)" d="M 26.633443 75.674356 
L 33.910067 75.674356 
" style="fill:none;stroke:#000000;stroke-width:0.5;"/>
    <path clip-path="url(#pd84544aa95)" d="M 29.628009 68.408724 
L 40.435261 68.408724 
" style="fill:none;stroke:#000000;stroke-width:0.5;"/>
    <path clip-path="url(#pd84544aa95)" d="M 26.511471 48.623501 
L 42.573958 48.623501 
" style="fill:none;stroke:#000000;stroke-width:0.5;"/>
    <path clip-path="url(#pd84544aa95)" d="M 25.953295 58.101921 
L 39.512059 58.101921 
" style="fill:none;stroke:#000000;stroke-width:0.5;"/>
    <path clip-path="url(#pd84544aa95)" d="M 27.877037 76.829817 
L 33.35728 76.829817 
" style="fill:none;stroke:#000000;stroke-width:0.5;"/>
    <path clip-path="url(#pd84544aa95)" d="M 24.955084 76.920022 
L 31.866483 76.920022 
" style="fill:none;stroke:#000000;stroke-width:0.5;"/>
    <path clip-path="url(#pd84544aa95)" d="M 26.869136 79.018026 
L 34.677539 79.018026 
" style="fill:none;stroke:#000000;stroke-width:0.5;"/>
    <path clip-path="url(#pd84544aa95)" d="M 14.156481 45.343179 
L 60.369359 45.343179 
" style="fill:none;stroke:#000000;stroke-width:0.5;"/>
    <path clip-path="url(#pd84544aa95)" d="M 25.990706 88.274229 
L 29.401914 88.274229 
" style="fill:none;stroke:#000000;stroke-width:0.5;"/>
    <path clip-path="url(#pd84544aa95)" d="M 27.156772 64.518485 
L 38.882105 64.518485 
" style="fill:none;stroke:#000000;stroke-width:0.5;"/>
    <path clip-path="url(#pd84544aa95)" d="M 26.550193 74.332608 
L 36.305314 74.332608 
" style="fill:none;stroke:#000000;stroke-width:0.5;"/>
    <path clip-path="url(#pd84544aa95)" d="M 27.59578 79.508923 
L 31.858074 79.508923 
" style="fill:none;stroke:#000000;stroke-width:0.5;"/>
    <path clip-path="url(#pd84544aa95)" d="M 25.801593 83.72803 
L 32.535017 83.72803 
" style="fill:none;stroke:#000000;stroke-width:0.5;"/>
    <path clip-path="url(#pd84544aa95)" d="M 31.693751 53.943653 
L 36.92171 53.943653 
" style="fill:none;stroke:#000000;stroke-width:0.5;"/>
    <path clip-path="url(#pd84544aa95)" d="M 26.00321 59.524317 
L 35.653297 59.524317 
" style="fill:none;stroke:#000000;stroke-width:0.5;"/>
    <path clip-path="url(#pd84544aa95)" d="M 26.068225 84.705005 
L 32.667229 84.705005 
" style="fill:none;stroke:#000000;stroke-width:0.5;"/>
    <path clip-path="url(#pd84544aa95)" d="M 28.38276 61.28737 
L 41.445622 61.28737 
" style="fill:none;stroke:#000000;stroke-width:0.5;"/>
    <path clip-path="url(#pd84544aa95)" d="M 27.894199 50.928848 
L 39.082334 50.928848 
" style="fill:none;stroke:#000000;stroke-width:0.5;"/>
    <path clip-path="url(#pd84544aa95)" d="M 25.838042 80.288766 
L 32.08547 80.288766 
" style="fill:none;stroke:#000000;stroke-width:0.5;"/>
    <path clip-path="url(#pd84544aa95)" d="M 27.74301 80.635552 
L 33.067535 80.635552 
" style="fill:none;stroke:#000000;stroke-width:0.5;"/>
    <path clip-path="url(#pd84544aa95)" d="M 28.153423 77.685544 
L 37.492582 77.685544 
" style="fill:none;stroke:#000000;stroke-width:0.5;"/>
    <path clip-path="url(#pd84544aa95)" d="M 25.758545 86.163333 
L 32.748595 86.163333 
" style="fill:none;stroke:#000000;stroke-width:0.5;"/>
    <path clip-path="url(#pd84544aa95)" d="M 15.212248 55.905685 
L 56.964189 55.905685 
" style="fill:none;stroke:#000000;stroke-width:0.5;"/>
    <path clip-path="url(#pd84544aa95)" d="M 26.639623 74.694908 
L 33.580383 74.694908 
" style="fill:none;stroke:#000000;stroke-width:0.5;"/>
    <path clip-path="url(#pd84544aa95)" d="M 26.031716 74.417261 
L 29.304317 74.417261 
" style="fill:none;stroke:#000000;stroke-width:0.5;"/>
    <path clip-path="url(#pd84544aa95)" d="M 26.183299 81.417036 
L 35.789112 81.417036 
" style="fill:none;stroke:#000000;stroke-width:0.5;"/>
   </g>
   <g id="LineCollection_2">
    <path clip-path="url(#pd84544aa95)" d="M 28.108283 82.126376 
L 28.108283 70.543144 
" style="fill:none;stroke:#000000;stroke-width:0.5;"/>
    <path clip-path="url(#pd84544aa95)" d="M 31.434852 80.258391 
L 31.434852 73.826679 
" style="fill:none;stroke:#000000;stroke-width:0.5;"/>
    <path clip-path="url(#pd84544aa95)" d="M 32.458283 87.536156 
L 32.458283 81.040905 
" style="fill:none;stroke:#000000;stroke-width:0.5;"/>
    <path clip-path="url(#pd84544aa95)" d="M 33.168493 81.165662 
L 33.168493 76.720528 
" style="fill:none;stroke:#000000;stroke-width:0.5;"/>
    <path clip-path="url(#pd84544aa95)" d="M 30.271755 81.052474 
L 30.271755 70.296238 
" style="fill:none;stroke:#000000;stroke-width:0.5;"/>
    <path clip-path="url(#pd84544aa95)" d="M 35.031635 73.760236 
L 35.031635 63.057213 
" style="fill:none;stroke:#000000;stroke-width:0.5;"/>
    <path clip-path="url(#pd84544aa95)" d="M 34.542714 58.022475 
L 34.542714 39.224526 
" style="fill:none;stroke:#000000;stroke-width:0.5;"/>
    <path clip-path="url(#pd84544aa95)" d="M 32.732677 66.738263 
L 32.732677 49.465579 
" style="fill:none;stroke:#000000;stroke-width:0.5;"/>
    <path clip-path="url(#pd84544aa95)" d="M 30.617158 79.768438 
L 30.617158 73.891196 
" style="fill:none;stroke:#000000;stroke-width:0.5;"/>
    <path clip-path="url(#pd84544aa95)" d="M 28.410784 82.417423 
L 28.410784 71.42262 
" style="fill:none;stroke:#000000;stroke-width:0.5;"/>
    <path clip-path="url(#pd84544aa95)" d="M 30.773338 82.168944 
L 30.773338 75.867109 
" style="fill:none;stroke:#000000;stroke-width:0.5;"/>
    <path clip-path="url(#pd84544aa95)" d="M 37.26292 73.980952 
L 37.26292 16.705406 
" style="fill:none;stroke:#000000;stroke-width:0.5;"/>
    <path clip-path="url(#pd84544aa95)" d="M 27.69631 89.504192 
L 27.69631 87.044266 
" style="fill:none;stroke:#000000;stroke-width:0.5;"/>
    <path clip-path="url(#pd84544aa95)" d="M 33.019438 72.614659 
L 33.019438 56.422311 
" style="fill:none;stroke:#000000;stroke-width:0.5;"/>
    <path clip-path="url(#pd84544aa95)" d="M 31.427753 78.47995 
L 31.427753 70.185266 
" style="fill:none;stroke:#000000;stroke-width:0.5;"/>
    <path clip-path="url(#pd84544aa95)" d="M 29.726927 87.660061 
L 29.726927 71.357785 
" style="fill:none;stroke:#000000;stroke-width:0.5;"/>
    <path clip-path="url(#pd84544aa95)" d="M 29.168305 87.288119 
L 29.168305 80.167941 
" style="fill:none;stroke:#000000;stroke-width:0.5;"/>
    <path clip-path="url(#pd84544aa95)" d="M 34.30773 63.356687 
L 34.30773 44.530619 
" style="fill:none;stroke:#000000;stroke-width:0.5;"/>
    <path clip-path="url(#pd84544aa95)" d="M 30.828254 66.91948 
L 30.828254 52.129155 
" style="fill:none;stroke:#000000;stroke-width:0.5;"/>
    <path clip-path="url(#pd84544aa95)" d="M 29.367727 88.981554 
L 29.367727 80.428457 
" style="fill:none;stroke:#000000;stroke-width:0.5;"/>
    <path clip-path="url(#pd84544aa95)" d="M 34.914191 70.476711 
L 34.914191 52.09803 
" style="fill:none;stroke:#000000;stroke-width:0.5;"/>
    <path clip-path="url(#pd84544aa95)" d="M 33.488266 65.919061 
L 33.488266 35.938635 
" style="fill:none;stroke:#000000;stroke-width:0.5;"/>
    <path clip-path="url(#pd84544aa95)" d="M 28.961756 83.505274 
L 28.961756 77.072259 
" style="fill:none;stroke:#000000;stroke-width:0.5;"/>
    <path clip-path="url(#pd84544aa95)" d="M 30.405272 83.416952 
L 30.405272 77.854153 
" style="fill:none;stroke:#000000;stroke-width:0.5;"/>
    <path clip-path="url(#pd84544aa95)" d="M 32.823002 81.345522 
L 32.823002 74.025567 
" style="fill:none;stroke:#000000;stroke-width:0.5;"/>
    <path clip-path="url(#pd84544aa95)" d="M 29.25357 91.613535 
L 29.25357 80.713131 
" style="fill:none;stroke:#000000;stroke-width:0.5;"/>
    <path clip-path="url(#pd84544aa95)" d="M 36.088218 85.829885 
L 36.088218 25.981484 
" style="fill:none;stroke:#000000;stroke-width:0.5;"/>
    <path clip-path="url(#pd84544aa95)" d="M 30.110003 76.004357 
L 30.110003 73.385459 
" style="fill:none;stroke:#000000;stroke-width:0.5;"/>
    <path clip-path="url(#pd84544aa95)" d="M 27.668017 82.241423 
L 27.668017 66.5931 
" style="fill:none;stroke:#000000;stroke-width:0.5;"/>
    <path clip-path="url(#pd84544aa95)" d="M 30.986206 86.599075 
L 30.986206 76.234998 
" style="fill:none;stroke:#000000;stroke-width:0.5;"/>
   </g>
   <g id="line2d_1">
    <path clip-path="url(#pd84544aa95)" d="M 27 88.095413 
L 27.768595 85.333134 
L 28.53719 82.570856 
L 29.305785 79.808577 
L 30.07438 77.046298 
L 30.842975 74.28402 
L 31.61157 71.521741 
L 32.380165 68.759463 
L 33.14876 65.997184 
L 33.917355 63.234906 
L 34.68595 60.472627 
L 35.454545 57.710348 
L 36.22314 54.94807 
L 36.991736 52.185791 
L 37.760331 49.423513 
L 38.528926 46.661234 
L 39.297521 43.898956 
L 40.066116 41.136677 
L 40.834711 38.374398 
L 41.603306 35.61212 
L 42.371901 32.849841 
L 43.140496 30.087563 
L 43.909091 27.325284 
L 44.677686 24.563006 
L 45.446281 21.800727 
L 46.214876 19.038448 
L 46.983471 16.27617 
L 47.752066 13.513891 
L 48.520661 10.751613 
L 49.289256 7.989334 
L 50.057851 5.227056 
L 50.826446 2.464777 
L 51.595041 -0.297502 
L 51.790509 -1 
" style="fill:none;stroke:#000000;stroke-dasharray:1.85,0.8;stroke-dashoffset:0;stroke-width:0.5;"/>
   </g>
   <g id="line2d_2">
    <defs>
     <path d="M 0 3 
C 0.795609 3 1.55874 2.683901 2.12132 2.12132 
C 2.683901 1.55874 3 0.795609 3 0 
C 3 -0.795609 2.683901 -1.55874 2.12132 -2.12132 
C 1.55874 -2.683901 0.795609 -3 0 -3 
C -0.795609 -3 -1.55874 -2.683901 -2.12132 -2.12132 
C -2.683901 -1.55874 -3 -0.795609 -3 0 
C -3 0.795609 -2.683901 1.55874 -2.12132 2.12132 
C -1.55874 2.683901 -0.795609 3 0 3 
z
" id="md2e088e147" style="stroke:#000000;"/>
    </defs>
    <g clip-path="url(#pd84544aa95)">
     <use style="stroke:#000000;" x="28.108283" xlink:href="#md2e088e147" y="76.33476"/>
     <use style="stroke:#000000;" x="31.434852" xlink:href="#md2e088e147" y="77.042535"/>
     <use style="stroke:#000000;" x="32.458283" xlink:href="#md2e088e147" y="84.28853"/>
     <use style="stroke:#000000;" x="33.168493" xlink:href="#md2e088e147" y="78.943095"/>
     <use style="stroke:#000000;" x="30.271755" xlink:href="#md2e088e147" y="75.674356"/>
     <use style="stroke:#000000;" x="35.031635" xlink:href="#md2e088e147" y="68.408724"/>
     <use style="stroke:#000000;" x="34.542714" xlink:href="#md2e088e147" y="48.623501"/>
     <use style="stroke:#000000;" x="32.732677" xlink:href="#md2e088e147" y="58.101921"/>
     <use style="stroke:#000000;" x="30.617158" xlink:href="#md2e088e147" y="76.829817"/>
     <use style="stroke:#000000;" x="28.410784" xlink:href="#md2e088e147" y="76.920022"/>
     <use style="stroke:#000000;" x="30.773338" xlink:href="#md2e088e147" y="79.018026"/>
     <use style="stroke:#000000;" x="37.26292" xlink:href="#md2e088e147" y="45.343179"/>
     <use style="stroke:#000000;" x="27.69631" xlink:href="#md2e088e147" y="88.274229"/>
     <use style="stroke:#000000;" x="33.019438" xlink:href="#md2e088e147" y="64.518485"/>
     <use style="stroke:#000000;" x="31.427753" xlink:href="#md2e088e147" y="74.332608"/>
     <use style="stroke:#000000;" x="29.726927" xlink:href="#md2e088e147" y="79.508923"/>
     <use style="stroke:#000000;" x="29.168305" xlink:href="#md2e088e147" y="83.72803"/>
     <use style="stroke:#000000;" x="34.30773" xlink:href="#md2e088e147" y="53.943653"/>
     <use style="stroke:#000000;" x="30.828254" xlink:href="#md2e088e147" y="59.524317"/>
     <use style="stroke:#000000;" x="29.367727" xlink:href="#md2e088e147" y="84.705005"/>
     <use style="stroke:#000000;" x="34.914191" xlink:href="#md2e088e147" y="61.28737"/>
     <use style="stroke:#000000;" x="33.488266" xlink:href="#md2e088e147" y="50.928848"/>
     <use style="stroke:#000000;" x="28.961756" xlink:href="#md2e088e147" y="80.288766"/>
     <use style="stroke:#000000;" x="30.405272" xlink:href="#md2e088e147" y="80.635552"/>
     <use style="stroke:#000000;" x="32.823002" xlink:href="#md2e088e147" y="77.685544"/>
     <use style="stroke:#000000;" x="29.25357" xlink:href="#md2e088e147" y="86.163333"/>
     <use style="stroke:#000000;" x="36.088218" xlink:href="#md2e088e147" y="55.905685"/>
     <use style="stroke:#000000;" x="30.110003" xlink:href="#md2e088e147" y="74.694908"/>
     <use style="stroke:#000000;" x="27.668017" xlink:href="#md2e088e147" y="74.417261"/>
     <use style="stroke:#000000;" x="30.986206" xlink:href="#md2e088e147" y="81.417036"/>
    </g>
   </g>
   <g id="patch_3">
    <path d="M 27 94.5 
L 27 12.96 
" style="fill:none;stroke:#000000;stroke-linecap:square;stroke-linejoin:miter;"/>
   </g>
   <g id="patch_4">
    <path d="M 27 94.5 
L 103.090909 94.5 
" style="fill:none;stroke:#000000;stroke-linecap:square;stroke-linejoin:miter;"/>
   </g>
   <g id="matplotlib.axis_1">
    <g id="xtick_1">
     <g id="line2d_3"/>
     <g id="text_1">
      <text style="font-family:Arial;font-size:8px;font-style:normal;font-weight:normal;text-anchor:middle;" transform="rotate(-0, 27, 103.72625)" x="27" y="103.72625">0</text>
     </g>
    </g>
    <g id="xtick_2">
     <g id="line2d_4"/>
     <g id="text_2">
      <text style="font-family:Arial;font-size:8px;font-style:normal;font-weight:normal;text-anchor:middle;" transform="rotate(-0, 62.128499, 103.72625)" x="62.128499" y="103.72625">5</text>
     </g>
    </g>
    <g id="xtick_3">
     <g id="line2d_5"/>
     <g id="text_3">
      <text style="font-family:Arial;font-size:8px;font-style:normal;font-weight:normal;text-anchor:middle;" transform="rotate(-0, 97.256997, 103.72625)" x="97.256997" y="103.72625">10</text>
     </g>
    </g>
    <g id="text_4">
     <text style="font-family:Arial;font-size:10px;font-style:normal;font-weight:normal;text-anchor:middle;" transform="rotate(-0, 65.045455, 116.474063)" x="65.045455" y="116.474063">Exc</text>
    </g>
   </g>
   <g id="matplotlib.axis_2">
    <g id="ytick_1">
     <g id="line2d_6"/>
     <g id="text_5">
      <text style="font-family:Arial;font-size:8px;font-style:normal;font-weight:normal;text-anchor:end;" transform="rotate(-0, 23.5, 97.363125)" x="23.5" y="97.363125">0.0</text>
     </g>
    </g>
    <g id="ytick_2">
     <g id="line2d_7"/>
     <g id="text_6">
      <text style="font-family:Arial;font-size:8px;font-style:normal;font-weight:normal;text-anchor:end;" transform="rotate(-0, 23.5, 78.541049)" x="23.5" y="78.541049">2.5</text>
     </g>
    </g>
    <g id="ytick_3">
     <g id="line2d_8"/>
     <g id="text_7">
      <text style="font-family:Arial;font-size:8px;font-style:normal;font-weight:normal;text-anchor:end;" transform="rotate(-0, 23.5, 59.718973)" x="23.5" y="59.718973">5.0</text>
     </g>
    </g>
    <g id="ytick_4">
     <g id="line2d_9"/>
     <g id="text_8">
      <text style="font-family:Arial;font-size:8px;font-style:normal;font-weight:normal;text-anchor:end;" transform="rotate(-0, 23.5, 40.896897)" x="23.5" y="40.896897">7.5</text>
     </g>
    </g>
    <g id="ytick_5">
     <g id="line2d_10"/>
     <g id="text_9">
      <text style="font-family:Arial;font-size:8px;font-style:normal;font-weight:normal;text-anchor:end;" transform="rotate(-0, 23.5, 22.07482)" x="23.5" y="22.07482">10.0</text>
     </g>
    </g>
    <g id="text_10">
     <text style="font-family:Arial;font-size:10px;font-style:normal;font-weight:normal;text-anchor:middle;" transform="rotate(-90, 1.94375, 53.73)" x="1.94375" y="53.73">Inh</text>
    </g>
   </g>
   <g id="legend_1">
    <g id="line2d_11">
     <path d="M 36 75.622656 
L 56 75.622656 
" style="fill:none;stroke:#000000;stroke-dasharray:1.85,0.8;stroke-dashoffset:0;stroke-width:0.5;"/>
    </g>
    <g id="line2d_12"/>
    <g id="text_11">
     <!-- $R^2$ 0.57 -->
     <g transform="translate(64 72.875)">
      <text>
       <tspan style="font-family:DejaVu Sans;font-size:10px;font-style:oblique;font-weight:oblique;" x="0" y="-0.9765625">R</tspan>
       <tspan style="font-family:DejaVu Sans;font-size:7px;font-style:book;font-weight:book;" x="7.650794" y="-4.8046875">2</tspan>
       <tspan style="font-family:Arial;font-size:10px;font-style:regular;font-weight:regular;" x="12.377845 15.156165 20.717689 23.496009 29.057533" y="-0.9765625"> 0.57</tspan>
      </text>
     </g>
     <text style="font-family:Arial;font-size:10px;font-style:normal;font-weight:normal;" transform="translate(64 83.4875)"> slope 3.35</text>
    </g>
   </g>
  </g>
  <g id="axes_2">
   <g id="patch_5">
    <path d="M 118.309091 94.5 
L 194.4 94.5 
L 194.4 12.96 
L 118.309091 12.96 
z
" style="fill:#ffffff;"/>
   </g>
   <g id="PathCollection_1">
    <defs>
     <path d="M 0 2.44949 
C 0.649612 2.44949 1.272706 2.191396 1.732051 1.732051 
C 2.191396 1.272706 2.44949 0.649612 2.44949 0 
C 2.44949 -0.649612 2.191396 -1.272706 1.732051 -1.732051 
C 1.272706 -2.191396 0.649612 -2.44949 0 -2.44949 
C -0.649612 -2.44949 -1.272706 -2.191396 -1.732051 -1.732051 
C -2.191396 -1.272706 -2.44949 -0.649612 -2.44949 0 
C -2.44949 0.649612 -2.191396 1.272706 -1.732051 1.732051 
C -1.272706 2.191396 -0.649612 2.44949 0 2.44949 
z
" id="m99a6d266cf" style="stroke:#000000;"/>
    </defs>
    <g clip-path="url(#p1cf3a9197b)">
     <use style="stroke:#000000;" x="125.347038" xlink:href="#m99a6d266cf" y="79.485208"/>
     <use style="stroke:#000000;" x="125.374335" xlink:href="#m99a6d266cf" y="86.162879"/>
     <use style="stroke:#000000;" x="125.256046" xlink:href="#m99a6d266cf" y="86.080515"/>
     <use style="stroke:#000000;" x="130.766623" xlink:href="#m99a6d266cf" y="88.737985"/>
     <use style="stroke:#000000;" x="127.741432" xlink:href="#m99a6d266cf" y="80.557203"/>
     <use style="stroke:#000000;" x="132.318017" xlink:href="#m99a6d266cf" y="80.62618"/>
     <use style="stroke:#000000;" x="139.130129" xlink:href="#m99a6d266cf" y="70.133113"/>
     <use style="stroke:#000000;" x="135.884672" xlink:href="#m99a6d266cf" y="72.110241"/>
     <use style="stroke:#000000;" x="125.412869" xlink:href="#m99a6d266cf" y="86.881611"/>
     <use style="stroke:#000000;" x="127.268009" xlink:href="#m99a6d266cf" y="80.24796"/>
     <use style="stroke:#000000;" x="128.430752" xlink:href="#m99a6d266cf" y="86.331231"/>
     <use style="stroke:#000000;" x="178.212646" xlink:href="#m99a6d266cf" y="20.256435"/>
     <use style="stroke:#000000;" x="122.730878" xlink:href="#m99a6d266cf" y="91.311316"/>
     <use style="stroke:#000000;" x="133.508082" xlink:href="#m99a6d266cf" y="73.51063"/>
     <use style="stroke:#000000;" x="130.954191" xlink:href="#m99a6d266cf" y="83.747995"/>
     <use style="stroke:#000000;" x="123.8341" xlink:href="#m99a6d266cf" y="73.368135"/>
     <use style="stroke:#000000;" x="127.037308" xlink:href="#m99a6d266cf" y="85.270452"/>
     <use style="stroke:#000000;" x="125.085845" xlink:href="#m99a6d266cf" y="70.096664"/>
     <use style="stroke:#000000;" x="130.81804" xlink:href="#m99a6d266cf" y="75.328005"/>
     <use style="stroke:#000000;" x="126.863067" xlink:href="#m99a6d266cf" y="83.413027"/>
     <use style="stroke:#000000;" x="135.241858" xlink:href="#m99a6d266cf" y="70.67659"/>
     <use style="stroke:#000000;" x="132.811738" xlink:href="#m99a6d266cf" y="55.6378"/>
     <use style="stroke:#000000;" x="126.407335" xlink:href="#m99a6d266cf" y="86.161188"/>
     <use style="stroke:#000000;" x="125.21102" xlink:href="#m99a6d266cf" y="87.289208"/>
     <use style="stroke:#000000;" x="130.414998" xlink:href="#m99a6d266cf" y="85.01149"/>
     <use style="stroke:#000000;" x="127.36996" xlink:href="#m99a6d266cf" y="80.370325"/>
     <use style="stroke:#000000;" x="172.430147" xlink:href="#m99a6d266cf" y="16.921364"/>
     <use style="stroke:#000000;" x="127.306068" xlink:href="#m99a6d266cf" y="91.105246"/>
     <use style="stroke:#000000;" x="122.551208" xlink:href="#m99a6d266cf" y="74.215823"/>
     <use style="stroke:#000000;" x="130.760649" xlink:href="#m99a6d266cf" y="81.06554"/>
    </g>
   </g>
   <g id="line2d_13">
    <path clip-path="url(#p1cf3a9197b)" d="M 118.309091 93.148692 
L 119.077686 92.172048 
L 119.846281 91.195403 
L 120.614876 90.218759 
L 121.383471 89.242114 
L 122.152066 88.26547 
L 122.920661 87.288826 
L 123.689256 86.312181 
L 124.457851 85.335537 
L 125.226446 84.358892 
L 125.995041 83.382248 
L 126.763636 82.405604 
L 127.532231 81.428959 
L 128.300826 80.452315 
L 129.069421 79.47567 
L 129.838017 78.499026 
L 130.606612 77.522381 
L 131.375207 76.545737 
L 132.143802 75.569093 
L 132.912397 74.592448 
L 133.680992 73.615804 
L 134.449587 72.639159 
L 135.218182 71.662515 
L 135.986777 70.685871 
L 136.755372 69.709226 
L 137.523967 68.732582 
L 138.292562 67.755937 
L 139.061157 66.779293 
L 139.829752 65.802649 
L 140.598347 64.826004 
L 141.366942 63.84936 
L 142.135537 62.872715 
L 142.904132 61.896071 
L 143.672727 60.919426 
L 144.441322 59.942782 
L 145.209917 58.966138 
L 145.978512 57.989493 
L 146.747107 57.012849 
L 147.515702 56.036204 
L 148.284298 55.05956 
L 149.052893 54.082916 
L 149.821488 53.106271 
L 150.590083 52.129627 
L 151.358678 51.152982 
L 152.127273 50.176338 
L 152.895868 49.199694 
L 153.664463 48.223049 
L 154.433058 47.246405 
L 155.201653 46.26976 
L 155.970248 45.293116 
L 156.738843 44.316472 
L 157.507438 43.339827 
L 158.276033 42.363183 
L 159.044628 41.386538 
L 159.813223 40.409894 
L 160.581818 39.433249 
L 161.350413 38.456605 
L 162.119008 37.479961 
L 162.887603 36.503316 
L 163.656198 35.526672 
L 164.424793 34.550027 
L 165.193388 33.573383 
L 165.961983 32.596739 
L 166.730579 31.620094 
L 167.499174 30.64345 
L 168.267769 29.666805 
L 169.036364 28.690161 
L 169.804959 27.713517 
L 170.573554 26.736872 
L 171.342149 25.760228 
L 172.110744 24.783583 
L 172.879339 23.806939 
L 173.647934 22.830294 
L 174.416529 21.85365 
L 175.185124 20.877006 
L 175.953719 19.900361 
L 176.722314 18.923717 
L 177.490909 17.947072 
L 178.259504 16.970428 
L 179.028099 15.993784 
L 179.796694 15.017139 
L 180.565289 14.040495 
L 181.333884 13.06385 
L 182.102479 12.087206 
L 182.871074 11.110562 
L 183.639669 10.133917 
L 184.408264 9.157273 
L 185.17686 8.180628 
L 185.945455 7.203984 
L 186.71405 6.22734 
L 187.482645 5.250695 
L 188.25124 4.274051 
L 189.019835 3.297406 
L 189.78843 2.320762 
L 190.557025 1.344117 
L 191.32562 0.367473 
L 192.094215 -0.609171 
L 192.401787 -1 
" style="fill:none;stroke:#000000;stroke-dasharray:1.85,0.8;stroke-dashoffset:0;stroke-width:0.5;"/>
   </g>
   <g id="patch_6">
    <path d="M 118.309091 94.5 
L 118.309091 12.96 
" style="fill:none;stroke:#000000;stroke-linecap:square;stroke-linejoin:miter;"/>
   </g>
   <g id="patch_7">
    <path d="M 118.309091 94.5 
L 194.4 94.5 
" style="fill:none;stroke:#000000;stroke-linecap:square;stroke-linejoin:miter;"/>
   </g>
   <g id="matplotlib.axis_3">
    <g id="xtick_4">
     <g id="line2d_14"/>
     <g id="text_12">
      <text style="font-family:Arial;font-size:8px;font-style:normal;font-weight:normal;text-anchor:middle;" transform="rotate(-0, 118.309091, 103.72625)" x="118.309091" y="103.72625">0</text>
     </g>
    </g>
    <g id="xtick_5">
     <g id="line2d_15"/>
     <g id="text_13">
      <text style="font-family:Arial;font-size:8px;font-style:normal;font-weight:normal;text-anchor:middle;" transform="rotate(-0, 154.737412, 103.72625)" x="154.737412" y="103.72625">2</text>
     </g>
    </g>
    <g id="xtick_6">
     <g id="line2d_16"/>
     <g id="text_14">
      <text style="font-family:Arial;font-size:8px;font-style:normal;font-weight:normal;text-anchor:middle;" transform="rotate(-0, 191.165733, 103.72625)" x="191.165733" y="103.72625">4</text>
     </g>
    </g>
    <g id="text_15">
     <!-- $\sigma$(Exc) -->
     <g transform="translate(141.504545 116.61625)">
      <text>
       <tspan style="font-family:DejaVu Sans;font-size:10px;font-style:oblique;font-weight:oblique;" x="0" y="-0.71875">σ</tspan>
       <tspan style="font-family:Arial;font-size:10px;font-style:regular;font-weight:regular;" x="6.337891 9.667969 16.337891 21.337891 26.337891" y="-0.71875">(Exc)</tspan>
      </text>
     </g>
    </g>
   </g>
   <g id="matplotlib.axis_4">
    <g id="ytick_6">
     <g id="line2d_17"/>
     <g id="text_16">
      <text style="font-family:Arial;font-size:8px;font-style:normal;font-weight:normal;text-anchor:end;" transform="rotate(-0, 114.809091, 97.363125)" x="114.809091" y="97.363125">0</text>
     </g>
    </g>
    <g id="ytick_7">
     <g id="line2d_18"/>
     <g id="text_17">
      <text style="font-family:Arial;font-size:8px;font-style:normal;font-weight:normal;text-anchor:end;" transform="rotate(-0, 114.809091, 77.844596)" x="114.809091" y="77.844596">1</text>
     </g>
    </g>
    <g id="ytick_8">
     <g id="line2d_19"/>
     <g id="text_18">
      <text style="font-family:Arial;font-size:8px;font-style:normal;font-weight:normal;text-anchor:end;" transform="rotate(-0, 114.809091, 58.326066)" x="114.809091" y="58.326066">2</text>
     </g>
    </g>
    <g id="ytick_9">
     <g id="line2d_20"/>
     <g id="text_19">
      <text style="font-family:Arial;font-size:8px;font-style:normal;font-weight:normal;text-anchor:end;" transform="rotate(-0, 114.809091, 38.807537)" x="114.809091" y="38.807537">3</text>
     </g>
    </g>
    <g id="ytick_10">
     <g id="line2d_21"/>
     <g id="text_20">
      <text style="font-family:Arial;font-size:8px;font-style:normal;font-weight:normal;text-anchor:end;" transform="rotate(-0, 114.809091, 19.289007)" x="114.809091" y="19.289007">4</text>
     </g>
    </g>
    <g id="text_21">
     <!-- $\sigma$(Inh) -->
     <g transform="translate(104.160341 67.18)rotate(-90)">
      <text>
       <tspan style="font-family:DejaVu Sans;font-size:10px;font-style:oblique;font-weight:oblique;" x="0" y="-0.71875">σ</tspan>
       <tspan style="font-family:Arial;font-size:10px;font-style:regular;font-weight:regular;" x="6.337891 9.667969 12.446289 18.007812 23.569336" y="-0.71875">(Inh)</tspan>
      </text>
     </g>
    </g>
   </g>
   <g id="legend_2">
    <g id="line2d_22">
     <path d="M 108.478125 31.995156 
L 128.478125 31.995156 
" style="fill:none;stroke:#000000;stroke-dasharray:1.85,0.8;stroke-dashoffset:0;stroke-width:0.5;"/>
    </g>
    <g id="line2d_23"/>
    <g id="text_22">
     <!-- $R^2$ 0.83 -->
     <g transform="translate(136.478125 29.2475)">
      <text>
       <tspan style="font-family:DejaVu Sans;font-size:10px;font-style:oblique;font-weight:oblique;" x="0" y="-0.9765625">R</tspan>
       <tspan style="font-family:DejaVu Sans;font-size:7px;font-style:book;font-weight:book;" x="7.650794" y="-4.8046875">2</tspan>
       <tspan style="font-family:Arial;font-size:10px;font-style:regular;font-weight:regular;" x="12.377845 15.156165 20.717689 23.496009 29.057533" y="-0.9765625"> 0.83</tspan>
      </text>
     </g>
     <text style="font-family:Arial;font-size:10px;font-style:normal;font-weight:normal;" transform="translate(136.478125 39.86)"> slope 1.19</text>
    </g>
   </g>
  </g>
 </g>
 <defs>
  <clipPath id="pd84544aa95">
   <rect height="81.54" width="76.090909" x="27" y="12.96"/>
  </clipPath>
  <clipPath id="p1cf3a9197b">
   <rect height="81.54" width="76.090909" x="118.309091" y="12.96"/>
  </clipPath>
 </defs>
</svg>
