<?xml version="1.0" encoding="utf-8" standalone="no"?>
<!DOCTYPE svg PUBLIC "-//W3C//DTD SVG 1.1//EN"
  "http://www.w3.org/Graphics/SVG/1.1/DTD/svg11.dtd">
<!-- Created with matplotlib (http://matplotlib.org/) -->
<svg height="108pt" version="1.1" viewBox="0 0 216 108" width="216pt" xmlns="http://www.w3.org/2000/svg" xmlns:xlink="http://www.w3.org/1999/xlink">
 <defs>
  <style type="text/css">
*{stroke-linecap:butt;stroke-linejoin:round;}
  </style>
 </defs>
 <g id="figure_1">
  <g id="patch_1">
   <path d="M 0 108 
L 216 108 
L 216 0 
L 0 0 
z
" style="fill:#ffffff;"/>
  </g>
  <g id="axes_1">
   <g id="patch_2">
    <path d="M 27 94.5 
L 103.090909 94.5 
L 103.090909 12.96 
L 27 12.96 
z
" style="fill:#ffffff;"/>
   </g>
   <g id="LineCollection_1">
    <path clip-path="url(#pce1308a750)" d="M 24.609257 78.066433 
L 32.68948 78.066433 
" style="fill:none;stroke:#000000;stroke-width:0.5;"/>
    <path clip-path="url(#pce1308a750)" d="M 28.535693 85.98005 
L 39.090484 85.98005 
" style="fill:none;stroke:#000000;stroke-width:0.5;"/>
    <path clip-path="url(#pce1308a750)" d="M 22.306987 33.776185 
L 56.24884 33.776185 
" style="fill:none;stroke:#000000;stroke-width:0.5;"/>
    <path clip-path="url(#pce1308a750)" d="M 25.809831 68.086771 
L 53.759944 68.086771 
" style="fill:none;stroke:#000000;stroke-width:0.5;"/>
    <path clip-path="url(#pce1308a750)" d="M 26.952554 61.14232 
L 41.772486 61.14232 
" style="fill:none;stroke:#000000;stroke-width:0.5;"/>
    <path clip-path="url(#pce1308a750)" d="M 23.505906 74.040827 
L 43.218551 74.040827 
" style="fill:none;stroke:#000000;stroke-width:0.5;"/>
    <path clip-path="url(#pce1308a750)" d="M 29.91342 45.65845 
L 42.96892 45.65845 
" style="fill:none;stroke:#000000;stroke-width:0.5;"/>
    <path clip-path="url(#pce1308a750)" d="M 31.727403 55.521625 
L 44.764664 55.521625 
" style="fill:none;stroke:#000000;stroke-width:0.5;"/>
    <path clip-path="url(#pce1308a750)" d="M 31.180581 73.62669 
L 42.138405 73.62669 
" style="fill:none;stroke:#000000;stroke-width:0.5;"/>
    <path clip-path="url(#pce1308a750)" d="M 31.728299 50.711112 
L 54.740276 50.711112 
" style="fill:none;stroke:#000000;stroke-width:0.5;"/>
    <path clip-path="url(#pce1308a750)" d="M 29.194435 31.132288 
L 41.645365 31.132288 
" style="fill:none;stroke:#000000;stroke-width:0.5;"/>
    <path clip-path="url(#pce1308a750)" d="M 25.454702 76.830096 
L 45.819723 76.830096 
" style="fill:none;stroke:#000000;stroke-width:0.5;"/>
    <path clip-path="url(#pce1308a750)" d="M 26.233807 83.596926 
L 33.555044 83.596926 
" style="fill:none;stroke:#000000;stroke-width:0.5;"/>
    <path clip-path="url(#pce1308a750)" d="M 34.22312 53.929176 
L 47.575141 53.929176 
" style="fill:none;stroke:#000000;stroke-width:0.5;"/>
    <path clip-path="url(#pce1308a750)" d="M 28.113711 65.77531 
L 36.309803 65.77531 
" style="fill:none;stroke:#000000;stroke-width:0.5;"/>
    <path clip-path="url(#pce1308a750)" d="M 26.350295 73.023555 
L 38.078724 73.023555 
" style="fill:none;stroke:#000000;stroke-width:0.5;"/>
    <path clip-path="url(#pce1308a750)" d="M 26.655741 60.707625 
L 43.856028 60.707625 
" style="fill:none;stroke:#000000;stroke-width:0.5;"/>
    <path clip-path="url(#pce1308a750)" d="M 27 76.806612 
L 27 76.806612 
" style="fill:none;stroke:#000000;stroke-width:0.5;"/>
    <path clip-path="url(#pce1308a750)" d="M 29.464754 56.788718 
L 44.778371 56.788718 
" style="fill:none;stroke:#000000;stroke-width:0.5;"/>
    <path clip-path="url(#pce1308a750)" d="M 32.973166 64.597384 
L 37.173527 64.597384 
" style="fill:none;stroke:#000000;stroke-width:0.5;"/>
    <path clip-path="url(#pce1308a750)" d="M 25.337893 84.224529 
L 34.375983 84.224529 
" style="fill:none;stroke:#000000;stroke-width:0.5;"/>
    <path clip-path="url(#pce1308a750)" d="M 25.37515 66.647331 
L 34.243099 66.647331 
" style="fill:none;stroke:#000000;stroke-width:0.5;"/>
    <path clip-path="url(#pce1308a750)" d="M 27.420131 48.95197 
L 50.390346 48.95197 
" style="fill:none;stroke:#000000;stroke-width:0.5;"/>
    <path clip-path="url(#pce1308a750)" d="M 26.077662 69.741595 
L 42.783122 69.741595 
" style="fill:none;stroke:#000000;stroke-width:0.5;"/>
    <path clip-path="url(#pce1308a750)" d="M 29.595569 48.072361 
L 42.843729 48.072361 
" style="fill:none;stroke:#000000;stroke-width:0.5;"/>
    <path clip-path="url(#pce1308a750)" d="M 26.149525 68.643055 
L 39.189984 68.643055 
" style="fill:none;stroke:#000000;stroke-width:0.5;"/>
    <path clip-path="url(#pce1308a750)" d="M 25.451039 86.893397 
L 34.189822 86.893397 
" style="fill:none;stroke:#000000;stroke-width:0.5;"/>
    <path clip-path="url(#pce1308a750)" d="M 26.306986 88.274949 
L 32.581189 88.274949 
" style="fill:none;stroke:#000000;stroke-width:0.5;"/>
    <path clip-path="url(#pce1308a750)" d="M 27 75.378848 
L 27 75.378848 
" style="fill:none;stroke:#000000;stroke-width:0.5;"/>
    <path clip-path="url(#pce1308a750)" d="M 24.645866 47.294782 
L 54.656892 47.294782 
" style="fill:none;stroke:#000000;stroke-width:0.5;"/>
   </g>
   <g id="LineCollection_2">
    <path clip-path="url(#pce1308a750)" d="M 28.649368 82.281226 
L 28.649368 73.851641 
" style="fill:none;stroke:#000000;stroke-width:0.5;"/>
    <path clip-path="url(#pce1308a750)" d="M 33.813088 90.153956 
L 33.813088 81.806144 
" style="fill:none;stroke:#000000;stroke-width:0.5;"/>
    <path clip-path="url(#pce1308a750)" d="M 39.277914 45.963057 
L 39.277914 21.589313 
" style="fill:none;stroke:#000000;stroke-width:0.5;"/>
    <path clip-path="url(#pce1308a750)" d="M 39.784887 83.55887 
L 39.784887 52.614673 
" style="fill:none;stroke:#000000;stroke-width:0.5;"/>
    <path clip-path="url(#pce1308a750)" d="M 34.36252 75.959844 
L 34.36252 46.324796 
" style="fill:none;stroke:#000000;stroke-width:0.5;"/>
    <path clip-path="url(#pce1308a750)" d="M 33.362229 74.040827 
L 33.362229 74.040827 
" style="fill:none;stroke:#000000;stroke-width:0.5;"/>
    <path clip-path="url(#pce1308a750)" d="M 36.44117 56.788835 
L 36.44117 34.528066 
" style="fill:none;stroke:#000000;stroke-width:0.5;"/>
    <path clip-path="url(#pce1308a750)" d="M 38.246033 61.54038 
L 38.246033 49.50287 
" style="fill:none;stroke:#000000;stroke-width:0.5;"/>
    <path clip-path="url(#pce1308a750)" d="M 36.659493 78.189356 
L 36.659493 69.064024 
" style="fill:none;stroke:#000000;stroke-width:0.5;"/>
    <path clip-path="url(#pce1308a750)" d="M 43.234288 59.103812 
L 43.234288 42.318413 
" style="fill:none;stroke:#000000;stroke-width:0.5;"/>
    <path clip-path="url(#pce1308a750)" d="M 35.4199 45.606487 
L 35.4199 16.658088 
" style="fill:none;stroke:#000000;stroke-width:0.5;"/>
    <path clip-path="url(#pce1308a750)" d="M 35.637213 84.605562 
L 35.637213 69.05463 
" style="fill:none;stroke:#000000;stroke-width:0.5;"/>
    <path clip-path="url(#pce1308a750)" d="M 29.894425 87.265051 
L 29.894425 79.928802 
" style="fill:none;stroke:#000000;stroke-width:0.5;"/>
    <path clip-path="url(#pce1308a750)" d="M 40.899131 59.494961 
L 40.899131 48.363391 
" style="fill:none;stroke:#000000;stroke-width:0.5;"/>
    <path clip-path="url(#pce1308a750)" d="M 32.211757 70.934854 
L 32.211757 60.615767 
" style="fill:none;stroke:#000000;stroke-width:0.5;"/>
    <path clip-path="url(#pce1308a750)" d="M 32.214509 78.645869 
L 32.214509 67.401241 
" style="fill:none;stroke:#000000;stroke-width:0.5;"/>
    <path clip-path="url(#pce1308a750)" d="M 35.255885 68.540357 
L 35.255885 52.874893 
" style="fill:none;stroke:#000000;stroke-width:0.5;"/>
    <path clip-path="url(#pce1308a750)" d="M 27 80.031698 
L 27 73.581527 
" style="fill:none;stroke:#000000;stroke-width:0.5;"/>
    <path clip-path="url(#pce1308a750)" d="M 37.121562 60.436084 
L 37.121562 53.141351 
" style="fill:none;stroke:#000000;stroke-width:0.5;"/>
    <path clip-path="url(#pce1308a750)" d="M 35.073346 75.315445 
L 35.073346 53.879322 
" style="fill:none;stroke:#000000;stroke-width:0.5;"/>
    <path clip-path="url(#pce1308a750)" d="M 29.856938 89.220236 
L 29.856938 79.228821 
" style="fill:none;stroke:#000000;stroke-width:0.5;"/>
    <path clip-path="url(#pce1308a750)" d="M 29.809124 72.178971 
L 29.809124 61.11569 
" style="fill:none;stroke:#000000;stroke-width:0.5;"/>
    <path clip-path="url(#pce1308a750)" d="M 38.905238 60.548026 
L 38.905238 37.355913 
" style="fill:none;stroke:#000000;stroke-width:0.5;"/>
    <path clip-path="url(#pce1308a750)" d="M 34.430392 76.136111 
L 34.430392 63.347078 
" style="fill:none;stroke:#000000;stroke-width:0.5;"/>
    <path clip-path="url(#pce1308a750)" d="M 36.219649 48.072361 
L 36.219649 48.072361 
" style="fill:none;stroke:#000000;stroke-width:0.5;"/>
    <path clip-path="url(#pce1308a750)" d="M 32.669754 74.138718 
L 32.669754 63.147392 
" style="fill:none;stroke:#000000;stroke-width:0.5;"/>
    <path clip-path="url(#pce1308a750)" d="M 29.82043 90.619856 
L 29.82043 83.166938 
" style="fill:none;stroke:#000000;stroke-width:0.5;"/>
    <path clip-path="url(#pce1308a750)" d="M 29.444088 90.455516 
L 29.444088 86.094381 
" style="fill:none;stroke:#000000;stroke-width:0.5;"/>
    <path clip-path="url(#pce1308a750)" d="M 27 79.699408 
L 27 71.058288 
" style="fill:none;stroke:#000000;stroke-width:0.5;"/>
    <path clip-path="url(#pce1308a750)" d="M 39.651379 59.563007 
L 39.651379 35.026558 
" style="fill:none;stroke:#000000;stroke-width:0.5;"/>
   </g>
   <g id="line2d_1">
    <path clip-path="url(#pce1308a750)" d="M 27 83.720368 
L 27.768595 81.792743 
L 28.53719 79.865117 
L 29.305785 77.937492 
L 30.07438 76.009866 
L 30.842975 74.082241 
L 31.61157 72.154615 
L 32.380165 70.226989 
L 33.14876 68.299364 
L 33.917355 66.371738 
L 34.68595 64.444113 
L 35.454545 62.516487 
L 36.22314 60.588862 
L 36.991736 58.661236 
L 37.760331 56.73361 
L 38.528926 54.805985 
L 39.297521 52.878359 
L 40.066116 50.950734 
L 40.834711 49.023108 
L 41.603306 47.095483 
L 42.371901 45.167857 
L 43.140496 43.240231 
L 43.909091 41.312606 
L 44.677686 39.38498 
L 45.446281 37.457355 
L 46.214876 35.529729 
L 46.983471 33.602104 
L 47.752066 31.674478 
L 48.520661 29.746853 
L 49.289256 27.819227 
L 50.057851 25.891601 
L 50.826446 23.963976 
L 51.595041 22.03635 
L 52.363636 20.108725 
L 53.132231 18.181099 
L 53.900826 16.253474 
L 54.669421 14.325848 
L 55.438017 12.398222 
L 56.206612 10.470597 
L 56.975207 8.542971 
L 57.743802 6.615346 
L 58.512397 4.68772 
L 59.280992 2.760095 
L 60.049587 0.832469 
L 60.78024 -1 
" style="fill:none;stroke:#000000;stroke-dasharray:1.85,0.8;stroke-dashoffset:0;stroke-width:0.5;"/>
   </g>
   <g id="line2d_2">
    <defs>
     <path d="M 0 3 
C 0.795609 3 1.55874 2.683901 2.12132 2.12132 
C 2.683901 1.55874 3 0.795609 3 0 
C 3 -0.795609 2.683901 -1.55874 2.12132 -2.12132 
C 1.55874 -2.683901 0.795609 -3 0 -3 
C -0.795609 -3 -1.55874 -2.683901 -2.12132 -2.12132 
C -2.683901 -1.55874 -3 -0.795609 -3 0 
C -3 0.795609 -2.683901 1.55874 -2.12132 2.12132 
C -1.55874 2.683901 -0.795609 3 0 3 
z
" id="m8cd8757d8a" style="stroke:#000000;"/>
    </defs>
    <g clip-path="url(#pce1308a750)">
     <use style="stroke:#000000;" x="28.649368" xlink:href="#m8cd8757d8a" y="78.066433"/>
     <use style="stroke:#000000;" x="33.813088" xlink:href="#m8cd8757d8a" y="85.98005"/>
     <use style="stroke:#000000;" x="39.277914" xlink:href="#m8cd8757d8a" y="33.776185"/>
     <use style="stroke:#000000;" x="39.784887" xlink:href="#m8cd8757d8a" y="68.086771"/>
     <use style="stroke:#000000;" x="34.36252" xlink:href="#m8cd8757d8a" y="61.14232"/>
     <use style="stroke:#000000;" x="33.362229" xlink:href="#m8cd8757d8a" y="74.040827"/>
     <use style="stroke:#000000;" x="36.44117" xlink:href="#m8cd8757d8a" y="45.65845"/>
     <use style="stroke:#000000;" x="38.246033" xlink:href="#m8cd8757d8a" y="55.521625"/>
     <use style="stroke:#000000;" x="36.659493" xlink:href="#m8cd8757d8a" y="73.62669"/>
     <use style="stroke:#000000;" x="43.234288" xlink:href="#m8cd8757d8a" y="50.711112"/>
     <use style="stroke:#000000;" x="35.4199" xlink:href="#m8cd8757d8a" y="31.132288"/>
     <use style="stroke:#000000;" x="35.637213" xlink:href="#m8cd8757d8a" y="76.830096"/>
     <use style="stroke:#000000;" x="29.894425" xlink:href="#m8cd8757d8a" y="83.596926"/>
     <use style="stroke:#000000;" x="40.899131" xlink:href="#m8cd8757d8a" y="53.929176"/>
     <use style="stroke:#000000;" x="32.211757" xlink:href="#m8cd8757d8a" y="65.77531"/>
     <use style="stroke:#000000;" x="32.214509" xlink:href="#m8cd8757d8a" y="73.023555"/>
     <use style="stroke:#000000;" x="35.255885" xlink:href="#m8cd8757d8a" y="60.707625"/>
     <use style="stroke:#000000;" x="27" xlink:href="#m8cd8757d8a" y="76.806612"/>
     <use style="stroke:#000000;" x="37.121562" xlink:href="#m8cd8757d8a" y="56.788718"/>
     <use style="stroke:#000000;" x="35.073346" xlink:href="#m8cd8757d8a" y="64.597384"/>
     <use style="stroke:#000000;" x="29.856938" xlink:href="#m8cd8757d8a" y="84.224529"/>
     <use style="stroke:#000000;" x="29.809124" xlink:href="#m8cd8757d8a" y="66.647331"/>
     <use style="stroke:#000000;" x="38.905238" xlink:href="#m8cd8757d8a" y="48.95197"/>
     <use style="stroke:#000000;" x="34.430392" xlink:href="#m8cd8757d8a" y="69.741595"/>
     <use style="stroke:#000000;" x="36.219649" xlink:href="#m8cd8757d8a" y="48.072361"/>
     <use style="stroke:#000000;" x="32.669754" xlink:href="#m8cd8757d8a" y="68.643055"/>
     <use style="stroke:#000000;" x="29.82043" xlink:href="#m8cd8757d8a" y="86.893397"/>
     <use style="stroke:#000000;" x="29.444088" xlink:href="#m8cd8757d8a" y="88.274949"/>
     <use style="stroke:#000000;" x="27" xlink:href="#m8cd8757d8a" y="75.378848"/>
     <use style="stroke:#000000;" x="39.651379" xlink:href="#m8cd8757d8a" y="47.294782"/>
    </g>
   </g>
   <g id="patch_3">
    <path d="M 27 94.5 
L 27 12.96 
" style="fill:none;stroke:#000000;stroke-linecap:square;stroke-linejoin:miter;"/>
   </g>
   <g id="patch_4">
    <path d="M 27 94.5 
L 103.090909 94.5 
" style="fill:none;stroke:#000000;stroke-linecap:square;stroke-linejoin:miter;"/>
   </g>
   <g id="matplotlib.axis_1">
    <g id="xtick_1">
     <g id="line2d_3"/>
     <g id="text_1">
      <text style="font-family:Arial;font-size:8px;font-style:normal;font-weight:normal;text-anchor:middle;" transform="rotate(-0, 27, 103.72625)" x="27" y="103.72625">0</text>
     </g>
    </g>
    <g id="xtick_2">
     <g id="line2d_4"/>
     <g id="text_2">
      <text style="font-family:Arial;font-size:8px;font-style:normal;font-weight:normal;text-anchor:middle;" transform="rotate(-0, 75.183345, 103.72625)" x="75.183345" y="103.72625">5</text>
     </g>
    </g>
    <g id="text_3">
     <text style="font-family:Arial;font-size:10px;font-style:normal;font-weight:normal;text-anchor:middle;" transform="rotate(-0, 65.045455, 116.474063)" x="65.045455" y="116.474063">Exc</text>
    </g>
   </g>
   <g id="matplotlib.axis_2">
    <g id="ytick_1">
     <g id="line2d_5"/>
     <g id="text_4">
      <text style="font-family:Arial;font-size:8px;font-style:normal;font-weight:normal;text-anchor:end;" transform="rotate(-0, 23.5, 97.363125)" x="23.5" y="97.363125">0</text>
     </g>
    </g>
    <g id="ytick_2">
     <g id="line2d_6"/>
     <g id="text_5">
      <text style="font-family:Arial;font-size:8px;font-style:normal;font-weight:normal;text-anchor:end;" transform="rotate(-0, 23.5, 76.709567)" x="23.5" y="76.709567">2</text>
     </g>
    </g>
    <g id="ytick_3">
     <g id="line2d_7"/>
     <g id="text_6">
      <text style="font-family:Arial;font-size:8px;font-style:normal;font-weight:normal;text-anchor:end;" transform="rotate(-0, 23.5, 56.05601)" x="23.5" y="56.05601">4</text>
     </g>
    </g>
    <g id="ytick_4">
     <g id="line2d_8"/>
     <g id="text_7">
      <text style="font-family:Arial;font-size:8px;font-style:normal;font-weight:normal;text-anchor:end;" transform="rotate(-0, 23.5, 35.402452)" x="23.5" y="35.402452">6</text>
     </g>
    </g>
    <g id="text_8">
     <text style="font-family:Arial;font-size:10px;font-style:normal;font-weight:normal;text-anchor:middle;" transform="rotate(-90, 13.06375, 53.73)" x="13.06375" y="53.73">Inh</text>
    </g>
   </g>
   <g id="legend_1">
    <g id="line2d_9">
     <path d="M 36 75.622656 
L 56 75.622656 
" style="fill:none;stroke:#000000;stroke-dasharray:1.85,0.8;stroke-dashoffset:0;stroke-width:0.5;"/>
    </g>
    <g id="line2d_10"/>
    <g id="text_9">
     <!-- $R^2$ 0.48 -->
     <g transform="translate(64 72.875)">
      <text>
       <tspan style="font-family:DejaVu Sans;font-size:10px;font-style:oblique;font-weight:oblique;" x="0" y="-0.9765625">R</tspan>
       <tspan style="font-family:DejaVu Sans;font-size:7px;font-style:book;font-weight:book;" x="7.650794" y="-4.8046875">2</tspan>
       <tspan style="font-family:Arial;font-size:10px;font-style:regular;font-weight:regular;" x="12.377845 15.156165 20.717689 23.496009 29.057533" y="-0.9765625"> 0.48</tspan>
      </text>
     </g>
     <text style="font-family:Arial;font-size:10px;font-style:normal;font-weight:normal;" transform="translate(64 83.4875)"> slope 2.34</text>
    </g>
   </g>
  </g>
  <g id="axes_2">
   <g id="patch_5">
    <path d="M 118.309091 94.5 
L 194.4 94.5 
L 194.4 12.96 
L 118.309091 12.96 
z
" style="fill:#ffffff;"/>
   </g>
   <g id="PathCollection_1">
    <defs>
     <path d="M 0 2.44949 
C 0.649612 2.44949 1.272706 2.191396 1.732051 1.732051 
C 2.191396 1.272706 2.44949 0.649612 2.44949 0 
C 2.44949 -0.649612 2.191396 -1.272706 1.732051 -1.732051 
C 1.272706 -2.191396 0.649612 -2.44949 0 -2.44949 
C -0.649612 -2.44949 -1.272706 -2.191396 -1.732051 -1.732051 
C -2.191396 -1.272706 -2.44949 -0.649612 -2.44949 0 
C -2.44949 0.649612 -2.191396 1.272706 -1.732051 1.732051 
C -1.272706 2.191396 -0.649612 2.44949 0 2.44949 
z
" id="m1073692c7d" style="stroke:#000000;"/>
    </defs>
    <g clip-path="url(#p598935aec7)">
     <use style="stroke:#000000;" x="135.397147" xlink:href="#m1073692c7d" y="76.673111"/>
     <use style="stroke:#000000;" x="140.630365" xlink:href="#m1073692c7d" y="76.846045"/>
     <use style="stroke:#000000;" x="190.089329" xlink:href="#m1073692c7d" y="42.9544"/>
     <use style="stroke:#000000;" x="177.417996" xlink:href="#m1073692c7d" y="29.059204"/>
     <use style="stroke:#000000;" x="149.650285" xlink:href="#m1073692c7d" y="31.827794"/>
     <use style="stroke:#000000;" x="159.997395" xlink:href="#m1073692c7d" y="94.5"/>
     <use style="stroke:#000000;" x="145.918867" xlink:href="#m1073692c7d" y="47.42292"/>
     <use style="stroke:#000000;" x="145.880294" xlink:href="#m1073692c7d" y="69.04307"/>
     <use style="stroke:#000000;" x="141.482699" xlink:href="#m1073692c7d" y="75.201746"/>
     <use style="stroke:#000000;" x="166.974826" xlink:href="#m1073692c7d" y="59.002235"/>
     <use style="stroke:#000000;" x="144.640322" xlink:href="#m1073692c7d" y="33.27992"/>
     <use style="stroke:#000000;" x="161.377044" xlink:href="#m1073692c7d" y="61.612886"/>
     <use style="stroke:#000000;" x="133.792044" xlink:href="#m1073692c7d" y="78.9853"/>
     <use style="stroke:#000000;" x="146.545947" xlink:href="#m1073692c7d" y="70.958952"/>
     <use style="stroke:#000000;" x="135.642188" xlink:href="#m1073692c7d" y="72.677194"/>
     <use style="stroke:#000000;" x="143.112375" xlink:href="#m1073692c7d" y="70.719859"/>
     <use style="stroke:#000000;" x="154.684262" xlink:href="#m1073692c7d" y="61.370672"/>
     <use style="stroke:#000000;" x="118.309091" xlink:href="#m1073692c7d" y="80.859178"/>
     <use style="stroke:#000000;" x="150.694333" xlink:href="#m1073692c7d" y="79.073096"/>
     <use style="stroke:#000000;" x="127.192016" xlink:href="#m1073692c7d" y="49.166883"/>
     <use style="stroke:#000000;" x="137.422847" xlink:href="#m1073692c7d" y="73.370151"/>
     <use style="stroke:#000000;" x="137.063031" xlink:href="#m1073692c7d" y="71.103371"/>
     <use style="stroke:#000000;" x="166.886508" xlink:href="#m1073692c7d" y="45.453313"/>
     <use style="stroke:#000000;" x="153.637802" xlink:href="#m1073692c7d" y="67.453751"/>
     <use style="stroke:#000000;" x="146.326301" xlink:href="#m1073692c7d" y="94.5"/>
     <use style="stroke:#000000;" x="145.887057" xlink:href="#m1073692c7d" y="71.255539"/>
     <use style="stroke:#000000;" x="136.789871" xlink:href="#m1073692c7d" y="78.738566"/>
     <use style="stroke:#000000;" x="131.577776" xlink:href="#m1073692c7d" y="85.277071"/>
     <use style="stroke:#000000;" x="118.309091" xlink:href="#m1073692c7d" y="76.225756"/>
     <use style="stroke:#000000;" x="181.776417" xlink:href="#m1073692c7d" y="42.610312"/>
    </g>
   </g>
   <g id="line2d_11">
    <path clip-path="url(#p598935aec7)" d="M 118.309091 81.630989 
L 119.077686 81.208263 
L 119.846281 80.785536 
L 120.614876 80.362809 
L 121.383471 79.940083 
L 122.152066 79.517356 
L 122.920661 79.094629 
L 123.689256 78.671902 
L 124.457851 78.249176 
L 125.226446 77.826449 
L 125.995041 77.403722 
L 126.763636 76.980996 
L 127.532231 76.558269 
L 128.300826 76.135542 
L 129.069421 75.712816 
L 129.838017 75.290089 
L 130.606612 74.867362 
L 131.375207 74.444635 
L 132.143802 74.021909 
L 132.912397 73.599182 
L 133.680992 73.176455 
L 134.449587 72.753729 
L 135.218182 72.331002 
L 135.986777 71.908275 
L 136.755372 71.485549 
L 137.523967 71.062822 
L 138.292562 70.640095 
L 139.061157 70.217368 
L 139.829752 69.794642 
L 140.598347 69.371915 
L 141.366942 68.949188 
L 142.135537 68.526462 
L 142.904132 68.103735 
L 143.672727 67.681008 
L 144.441322 67.258282 
L 145.209917 66.835555 
L 145.978512 66.412828 
L 146.747107 65.990101 
L 147.515702 65.567375 
L 148.284298 65.144648 
L 149.052893 64.721921 
L 149.821488 64.299195 
L 150.590083 63.876468 
L 151.358678 63.453741 
L 152.127273 63.031015 
L 152.895868 62.608288 
L 153.664463 62.185561 
L 154.433058 61.762834 
L 155.201653 61.340108 
L 155.970248 60.917381 
L 156.738843 60.494654 
L 157.507438 60.071928 
L 158.276033 59.649201 
L 159.044628 59.226474 
L 159.813223 58.803748 
L 160.581818 58.381021 
L 161.350413 57.958294 
L 162.119008 57.535567 
L 162.887603 57.112841 
L 163.656198 56.690114 
L 164.424793 56.267387 
L 165.193388 55.844661 
L 165.961983 55.421934 
L 166.730579 54.999207 
L 167.499174 54.576481 
L 168.267769 54.153754 
L 169.036364 53.731027 
L 169.804959 53.308301 
L 170.573554 52.885574 
L 171.342149 52.462847 
L 172.110744 52.04012 
L 172.879339 51.617394 
L 173.647934 51.194667 
L 174.416529 50.77194 
L 175.185124 50.349214 
L 175.953719 49.926487 
L 176.722314 49.50376 
L 177.490909 49.081034 
L 178.259504 48.658307 
L 179.028099 48.23558 
L 179.796694 47.812853 
L 180.565289 47.390127 
L 181.333884 46.9674 
L 182.102479 46.544673 
L 182.871074 46.121947 
L 183.639669 45.69922 
L 184.408264 45.276493 
L 185.17686 44.853767 
L 185.945455 44.43104 
L 186.71405 44.008313 
L 187.482645 43.585586 
L 188.25124 43.16286 
L 189.019835 42.740133 
L 189.78843 42.317406 
L 190.557025 41.89468 
L 191.32562 41.471953 
L 192.094215 41.049226 
L 192.86281 40.6265 
L 193.631405 40.203773 
L 194.4 39.781046 
" style="fill:none;stroke:#000000;stroke-dasharray:1.85,0.8;stroke-dashoffset:0;stroke-width:0.5;"/>
   </g>
   <g id="patch_6">
    <path d="M 118.309091 94.5 
L 118.309091 12.96 
" style="fill:none;stroke:#000000;stroke-linecap:square;stroke-linejoin:miter;"/>
   </g>
   <g id="patch_7">
    <path d="M 118.309091 94.5 
L 194.4 94.5 
" style="fill:none;stroke:#000000;stroke-linecap:square;stroke-linejoin:miter;"/>
   </g>
   <g id="matplotlib.axis_3">
    <g id="xtick_3">
     <g id="line2d_12"/>
     <g id="text_10">
      <text style="font-family:Arial;font-size:8px;font-style:normal;font-weight:normal;text-anchor:middle;" transform="rotate(-0, 118.309091, 103.72625)" x="118.309091" y="103.72625">0</text>
     </g>
    </g>
    <g id="xtick_4">
     <g id="line2d_13"/>
     <g id="text_11">
      <text style="font-family:Arial;font-size:8px;font-style:normal;font-weight:normal;text-anchor:middle;" transform="rotate(-0, 159.06835, 103.72625)" x="159.06835" y="103.72625">1</text>
     </g>
    </g>
    <g id="text_12">
     <!-- $\sigma$(Exc) -->
     <g transform="translate(141.504545 116.61625)">
      <text>
       <tspan style="font-family:DejaVu Sans;font-size:10px;font-style:oblique;font-weight:oblique;" x="0" y="-0.71875">σ</tspan>
       <tspan style="font-family:Arial;font-size:10px;font-style:regular;font-weight:regular;" x="6.337891 9.667969 16.337891 21.337891 26.337891" y="-0.71875">(Exc)</tspan>
      </text>
     </g>
    </g>
   </g>
   <g id="matplotlib.axis_4">
    <g id="ytick_5">
     <g id="line2d_14"/>
     <g id="text_13">
      <text style="font-family:Arial;font-size:8px;font-style:normal;font-weight:normal;text-anchor:end;" transform="rotate(-0, 114.809091, 97.363125)" x="114.809091" y="97.363125">0.0</text>
     </g>
    </g>
    <g id="ytick_6">
     <g id="line2d_15"/>
     <g id="text_14">
      <text style="font-family:Arial;font-size:8px;font-style:normal;font-weight:normal;text-anchor:end;" transform="rotate(-0, 114.809091, 75.524051)" x="114.809091" y="75.524051">0.5</text>
     </g>
    </g>
    <g id="ytick_7">
     <g id="line2d_16"/>
     <g id="text_15">
      <text style="font-family:Arial;font-size:8px;font-style:normal;font-weight:normal;text-anchor:end;" transform="rotate(-0, 114.809091, 53.684977)" x="114.809091" y="53.684977">1.0</text>
     </g>
    </g>
    <g id="ytick_8">
     <g id="line2d_17"/>
     <g id="text_16">
      <text style="font-family:Arial;font-size:8px;font-style:normal;font-weight:normal;text-anchor:end;" transform="rotate(-0, 114.809091, 31.845902)" x="114.809091" y="31.845902">1.5</text>
     </g>
    </g>
    <g id="text_17">
     <!-- $\sigma$(Inh) -->
     <g transform="translate(97.489091 67.18)rotate(-90)">
      <text>
       <tspan style="font-family:DejaVu Sans;font-size:10px;font-style:oblique;font-weight:oblique;" x="0" y="-0.71875">σ</tspan>
       <tspan style="font-family:Arial;font-size:10px;font-style:regular;font-weight:regular;" x="6.337891 9.667969 12.446289 18.007812 23.569336" y="-0.71875">(Inh)</tspan>
      </text>
     </g>
    </g>
   </g>
   <g id="legend_2">
    <g id="line2d_18">
     <path d="M 108.478125 31.995156 
L 128.478125 31.995156 
" style="fill:none;stroke:#000000;stroke-dasharray:1.85,0.8;stroke-dashoffset:0;stroke-width:0.5;"/>
    </g>
    <g id="line2d_19"/>
    <g id="text_18">
     <!-- $R^2$ 0.28 -->
     <g transform="translate(136.478125 29.2475)">
      <text>
       <tspan style="font-family:DejaVu Sans;font-size:10px;font-style:oblique;font-weight:oblique;" x="0" y="-0.9765625">R</tspan>
       <tspan style="font-family:DejaVu Sans;font-size:7px;font-style:book;font-weight:book;" x="7.650794" y="-4.8046875">2</tspan>
       <tspan style="font-family:Arial;font-size:10px;font-style:regular;font-weight:regular;" x="12.377845 15.156165 20.717689 23.496009 29.057533" y="-0.9765625"> 0.28</tspan>
      </text>
     </g>
     <text style="font-family:Arial;font-size:10px;font-style:normal;font-weight:normal;" transform="translate(136.478125 39.86)"> slope 0.51</text>
    </g>
   </g>
  </g>
 </g>
 <defs>
  <clipPath id="pce1308a750">
   <rect height="81.54" width="76.090909" x="27" y="12.96"/>
  </clipPath>
  <clipPath id="p598935aec7">
   <rect height="81.54" width="76.090909" x="118.309091" y="12.96"/>
  </clipPath>
 </defs>
</svg>
