<?xml version="1.0" encoding="utf-8" standalone="no"?>
<!DOCTYPE svg PUBLIC "-//W3C//DTD SVG 1.1//EN"
  "http://www.w3.org/Graphics/SVG/1.1/DTD/svg11.dtd">
<!-- Created with matplotlib (http://matplotlib.org/) -->
<svg height="108pt" version="1.1" viewBox="0 0 216 108" width="216pt" xmlns="http://www.w3.org/2000/svg" xmlns:xlink="http://www.w3.org/1999/xlink">
 <defs>
  <style type="text/css">
*{stroke-linecap:butt;stroke-linejoin:round;}
  </style>
 </defs>
 <g id="figure_1">
  <g id="patch_1">
   <path d="M 0 108 
L 216 108 
L 216 0 
L 0 0 
z
" style="fill:#ffffff;"/>
  </g>
  <g id="axes_1">
   <g id="patch_2">
    <path d="M 27 94.5 
L 103.090909 94.5 
L 103.090909 12.96 
L 27 12.96 
z
" style="fill:#ffffff;"/>
   </g>
   <g id="LineCollection_1">
    <path clip-path="url(#ped90983360)" d="M 24.810574 59.925068 
L 40.81717 59.925068 
" style="fill:none;stroke:#000000;stroke-width:0.5;"/>
    <path clip-path="url(#ped90983360)" d="M 25.858254 79.018753 
L 31.207032 79.018753 
" style="fill:none;stroke:#000000;stroke-width:0.5;"/>
    <path clip-path="url(#ped90983360)" d="M 27.599281 77.040458 
L 35.985618 77.040458 
" style="fill:none;stroke:#000000;stroke-width:0.5;"/>
    <path clip-path="url(#ped90983360)" d="M 26.014498 84.120217 
L 35.677644 84.120217 
" style="fill:none;stroke:#000000;stroke-width:0.5;"/>
    <path clip-path="url(#ped90983360)" d="M 28.171879 64.857376 
L 38.12942 64.857376 
" style="fill:none;stroke:#000000;stroke-width:0.5;"/>
    <path clip-path="url(#ped90983360)" d="M 29.19825 56.997357 
L 46.974586 56.997357 
" style="fill:none;stroke:#000000;stroke-width:0.5;"/>
    <path clip-path="url(#ped90983360)" d="M 26.70373 72.66311 
L 32.804938 72.66311 
" style="fill:none;stroke:#000000;stroke-width:0.5;"/>
    <path clip-path="url(#ped90983360)" d="M 27.726589 35.819977 
L 71.294989 35.819977 
" style="fill:none;stroke:#000000;stroke-width:0.5;"/>
    <path clip-path="url(#ped90983360)" d="M 18.087289 52.253985 
L 48.210433 52.253985 
" style="fill:none;stroke:#000000;stroke-width:0.5;"/>
    <path clip-path="url(#ped90983360)" d="M 26.33462 80.414814 
L 34.891985 80.414814 
" style="fill:none;stroke:#000000;stroke-width:0.5;"/>
    <path clip-path="url(#ped90983360)" d="M 27.708318 58.916119 
L 37.740138 58.916119 
" style="fill:none;stroke:#000000;stroke-width:0.5;"/>
    <path clip-path="url(#ped90983360)" d="M 27 94.5 
L 27 94.5 
" style="fill:none;stroke:#000000;stroke-width:0.5;"/>
    <path clip-path="url(#ped90983360)" d="M 26.469564 76.220129 
L 35.735101 76.220129 
" style="fill:none;stroke:#000000;stroke-width:0.5;"/>
    <path clip-path="url(#ped90983360)" d="M 26.5205 86.085121 
L 31.206864 86.085121 
" style="fill:none;stroke:#000000;stroke-width:0.5;"/>
    <path clip-path="url(#ped90983360)" d="M 29.652875 73.018825 
L 38.781128 73.018825 
" style="fill:none;stroke:#000000;stroke-width:0.5;"/>
    <path clip-path="url(#ped90983360)" d="M 27.42527 79.581594 
L 38.73643 79.581594 
" style="fill:none;stroke:#000000;stroke-width:0.5;"/>
    <path clip-path="url(#ped90983360)" d="M 27.351563 68.797459 
L 44.260861 68.797459 
" style="fill:none;stroke:#000000;stroke-width:0.5;"/>
    <path clip-path="url(#ped90983360)" d="M 29.942508 57.685383 
L 38.266138 57.685383 
" style="fill:none;stroke:#000000;stroke-width:0.5;"/>
    <path clip-path="url(#ped90983360)" d="M 25.586442 63.069845 
L 31.682461 63.069845 
" style="fill:none;stroke:#000000;stroke-width:0.5;"/>
    <path clip-path="url(#ped90983360)" d="M 27.125813 69.36227 
L 35.314158 69.36227 
" style="fill:none;stroke:#000000;stroke-width:0.5;"/>
    <path clip-path="url(#ped90983360)" d="M 35.611019 26.831667 
L 59.974916 26.831667 
" style="fill:none;stroke:#000000;stroke-width:0.5;"/>
    <path clip-path="url(#ped90983360)" d="M 25.484114 76.614221 
L 32.735403 76.614221 
" style="fill:none;stroke:#000000;stroke-width:0.5;"/>
    <path clip-path="url(#ped90983360)" d="M 25.412838 44.046685 
L 59.561627 44.046685 
" style="fill:none;stroke:#000000;stroke-width:0.5;"/>
    <path clip-path="url(#ped90983360)" d="M 27.525366 58.693414 
L 47.101328 58.693414 
" style="fill:none;stroke:#000000;stroke-width:0.5;"/>
    <path clip-path="url(#ped90983360)" d="M 25.835537 76.947933 
L 29.771184 76.947933 
" style="fill:none;stroke:#000000;stroke-width:0.5;"/>
    <path clip-path="url(#ped90983360)" d="M 22.464837 71.47222 
L 40.280485 71.47222 
" style="fill:none;stroke:#000000;stroke-width:0.5;"/>
    <path clip-path="url(#ped90983360)" d="M 26.750066 63.207437 
L 40.648913 63.207437 
" style="fill:none;stroke:#000000;stroke-width:0.5;"/>
    <path clip-path="url(#ped90983360)" d="M 26.372216 87.480107 
L 29.827382 87.480107 
" style="fill:none;stroke:#000000;stroke-width:0.5;"/>
    <path clip-path="url(#ped90983360)" d="M 30.550745 73.322251 
L 39.304018 73.322251 
" style="fill:none;stroke:#000000;stroke-width:0.5;"/>
    <path clip-path="url(#ped90983360)" d="M 23.93047 79.229893 
L 45.31048 79.229893 
" style="fill:none;stroke:#000000;stroke-width:0.5;"/>
   </g>
   <g id="LineCollection_2">
    <path clip-path="url(#ped90983360)" d="M 32.813872 65.393493 
L 32.813872 54.456644 
" style="fill:none;stroke:#000000;stroke-width:0.5;"/>
    <path clip-path="url(#ped90983360)" d="M 28.532643 82.32142 
L 28.532643 75.716086 
" style="fill:none;stroke:#000000;stroke-width:0.5;"/>
    <path clip-path="url(#ped90983360)" d="M 31.792449 81.13586 
L 31.792449 72.945056 
" style="fill:none;stroke:#000000;stroke-width:0.5;"/>
    <path clip-path="url(#ped90983360)" d="M 30.846071 89.87161 
L 30.846071 78.368824 
" style="fill:none;stroke:#000000;stroke-width:0.5;"/>
    <path clip-path="url(#ped90983360)" d="M 33.15065 79.463271 
L 33.15065 50.251482 
" style="fill:none;stroke:#000000;stroke-width:0.5;"/>
    <path clip-path="url(#ped90983360)" d="M 38.086418 63.562735 
L 38.086418 50.431979 
" style="fill:none;stroke:#000000;stroke-width:0.5;"/>
    <path clip-path="url(#ped90983360)" d="M 29.754334 83.340905 
L 29.754334 61.985316 
" style="fill:none;stroke:#000000;stroke-width:0.5;"/>
    <path clip-path="url(#ped90983360)" d="M 49.510789 54.797096 
L 49.510789 16.842857 
" style="fill:none;stroke:#000000;stroke-width:0.5;"/>
    <path clip-path="url(#ped90983360)" d="M 33.148861 53.354155 
L 33.148861 51.153814 
" style="fill:none;stroke:#000000;stroke-width:0.5;"/>
    <path clip-path="url(#ped90983360)" d="M 30.613302 85.192789 
L 30.613302 75.636839 
" style="fill:none;stroke:#000000;stroke-width:0.5;"/>
    <path clip-path="url(#ped90983360)" d="M 32.724228 66.954768 
L 32.724228 50.877469 
" style="fill:none;stroke:#000000;stroke-width:0.5;"/>
    <path clip-path="url(#ped90983360)" d="M 27 94.5 
L 27 94.5 
" style="fill:none;stroke:#000000;stroke-width:0.5;"/>
    <path clip-path="url(#ped90983360)" d="M 31.102333 81.439583 
L 31.102333 71.000676 
" style="fill:none;stroke:#000000;stroke-width:0.5;"/>
    <path clip-path="url(#ped90983360)" d="M 28.863682 86.797326 
L 28.863682 85.372917 
" style="fill:none;stroke:#000000;stroke-width:0.5;"/>
    <path clip-path="url(#ped90983360)" d="M 34.217001 75.01752 
L 34.217001 71.020129 
" style="fill:none;stroke:#000000;stroke-width:0.5;"/>
    <path clip-path="url(#ped90983360)" d="M 33.08085 85.617734 
L 33.08085 73.545454 
" style="fill:none;stroke:#000000;stroke-width:0.5;"/>
    <path clip-path="url(#ped90983360)" d="M 35.806212 74.972545 
L 35.806212 62.622372 
" style="fill:none;stroke:#000000;stroke-width:0.5;"/>
    <path clip-path="url(#ped90983360)" d="M 34.104323 61.454475 
L 34.104323 53.916291 
" style="fill:none;stroke:#000000;stroke-width:0.5;"/>
    <path clip-path="url(#ped90983360)" d="M 28.634451 81.161254 
L 28.634451 44.978436 
" style="fill:none;stroke:#000000;stroke-width:0.5;"/>
    <path clip-path="url(#ped90983360)" d="M 31.219985 72.661141 
L 31.219985 66.063399 
" style="fill:none;stroke:#000000;stroke-width:0.5;"/>
    <path clip-path="url(#ped90983360)" d="M 47.792967 35.771049 
L 47.792967 17.892286 
" style="fill:none;stroke:#000000;stroke-width:0.5;"/>
    <path clip-path="url(#ped90983360)" d="M 29.109759 79.312829 
L 29.109759 73.915613 
" style="fill:none;stroke:#000000;stroke-width:0.5;"/>
    <path clip-path="url(#ped90983360)" d="M 42.487232 50.382213 
L 42.487232 37.711157 
" style="fill:none;stroke:#000000;stroke-width:0.5;"/>
    <path clip-path="url(#ped90983360)" d="M 37.313347 63.516499 
L 37.313347 53.870329 
" style="fill:none;stroke:#000000;stroke-width:0.5;"/>
    <path clip-path="url(#ped90983360)" d="M 27.803361 80.403501 
L 27.803361 73.492366 
" style="fill:none;stroke:#000000;stroke-width:0.5;"/>
    <path clip-path="url(#ped90983360)" d="M 31.372661 80.4208 
L 31.372661 62.52364 
" style="fill:none;stroke:#000000;stroke-width:0.5;"/>
    <path clip-path="url(#ped90983360)" d="M 33.699489 69.352202 
L 33.699489 57.062672 
" style="fill:none;stroke:#000000;stroke-width:0.5;"/>
    <path clip-path="url(#ped90983360)" d="M 28.099799 88.723109 
L 28.099799 86.237105 
" style="fill:none;stroke:#000000;stroke-width:0.5;"/>
    <path clip-path="url(#ped90983360)" d="M 34.927382 77.860666 
L 34.927382 68.783835 
" style="fill:none;stroke:#000000;stroke-width:0.5;"/>
    <path clip-path="url(#ped90983360)" d="M 34.620475 89.108749 
L 34.620475 69.351037 
" style="fill:none;stroke:#000000;stroke-width:0.5;"/>
   </g>
   <g id="line2d_1">
    <path clip-path="url(#ped90983360)" d="M 27 83.69336 
L 27.768595 81.843703 
L 28.53719 79.994046 
L 29.305785 78.14439 
L 30.07438 76.294733 
L 30.842975 74.445076 
L 31.61157 72.595419 
L 32.380165 70.745763 
L 33.14876 68.896106 
L 33.917355 67.046449 
L 34.68595 65.196792 
L 35.454545 63.347136 
L 36.22314 61.497479 
L 36.991736 59.647822 
L 37.760331 57.798165 
L 38.528926 55.948509 
L 39.297521 54.098852 
L 40.066116 52.249195 
L 40.834711 50.399538 
L 41.603306 48.549882 
L 42.371901 46.700225 
L 43.140496 44.850568 
L 43.909091 43.000911 
L 44.677686 41.151255 
L 45.446281 39.301598 
L 46.214876 37.451941 
L 46.983471 35.602284 
L 47.752066 33.752627 
L 48.520661 31.902971 
L 49.289256 30.053314 
L 50.057851 28.203657 
L 50.826446 26.354 
L 51.595041 24.504344 
L 52.363636 22.654687 
L 53.132231 20.80503 
L 53.900826 18.955373 
L 54.669421 17.105717 
L 55.438017 15.25606 
L 56.206612 13.406403 
L 56.975207 11.556746 
L 57.743802 9.70709 
L 58.512397 7.857433 
L 59.280992 6.007776 
L 60.049587 4.158119 
L 60.818182 2.308463 
L 61.586777 0.458806 
L 62.19296 -1 
" style="fill:none;stroke:#000000;stroke-dasharray:1.85,0.8;stroke-dashoffset:0;stroke-width:0.5;"/>
   </g>
   <g id="line2d_2">
    <defs>
     <path d="M 0 3 
C 0.795609 3 1.55874 2.683901 2.12132 2.12132 
C 2.683901 1.55874 3 0.795609 3 0 
C 3 -0.795609 2.683901 -1.55874 2.12132 -2.12132 
C 1.55874 -2.683901 0.795609 -3 0 -3 
C -0.795609 -3 -1.55874 -2.683901 -2.12132 -2.12132 
C -2.683901 -1.55874 -3 -0.795609 -3 0 
C -3 0.795609 -2.683901 1.55874 -2.12132 2.12132 
C -1.55874 2.683901 -0.795609 3 0 3 
z
" id="m73e78e20f3" style="stroke:#000000;"/>
    </defs>
    <g clip-path="url(#ped90983360)">
     <use style="stroke:#000000;" x="32.813872" xlink:href="#m73e78e20f3" y="59.925068"/>
     <use style="stroke:#000000;" x="28.532643" xlink:href="#m73e78e20f3" y="79.018753"/>
     <use style="stroke:#000000;" x="31.792449" xlink:href="#m73e78e20f3" y="77.040458"/>
     <use style="stroke:#000000;" x="30.846071" xlink:href="#m73e78e20f3" y="84.120217"/>
     <use style="stroke:#000000;" x="33.15065" xlink:href="#m73e78e20f3" y="64.857376"/>
     <use style="stroke:#000000;" x="38.086418" xlink:href="#m73e78e20f3" y="56.997357"/>
     <use style="stroke:#000000;" x="29.754334" xlink:href="#m73e78e20f3" y="72.66311"/>
     <use style="stroke:#000000;" x="49.510789" xlink:href="#m73e78e20f3" y="35.819977"/>
     <use style="stroke:#000000;" x="33.148861" xlink:href="#m73e78e20f3" y="52.253985"/>
     <use style="stroke:#000000;" x="30.613302" xlink:href="#m73e78e20f3" y="80.414814"/>
     <use style="stroke:#000000;" x="32.724228" xlink:href="#m73e78e20f3" y="58.916119"/>
     <use style="stroke:#000000;" x="27" xlink:href="#m73e78e20f3" y="94.5"/>
     <use style="stroke:#000000;" x="31.102333" xlink:href="#m73e78e20f3" y="76.220129"/>
     <use style="stroke:#000000;" x="28.863682" xlink:href="#m73e78e20f3" y="86.085121"/>
     <use style="stroke:#000000;" x="34.217001" xlink:href="#m73e78e20f3" y="73.018825"/>
     <use style="stroke:#000000;" x="33.08085" xlink:href="#m73e78e20f3" y="79.581594"/>
     <use style="stroke:#000000;" x="35.806212" xlink:href="#m73e78e20f3" y="68.797459"/>
     <use style="stroke:#000000;" x="34.104323" xlink:href="#m73e78e20f3" y="57.685383"/>
     <use style="stroke:#000000;" x="28.634451" xlink:href="#m73e78e20f3" y="63.069845"/>
     <use style="stroke:#000000;" x="31.219985" xlink:href="#m73e78e20f3" y="69.36227"/>
     <use style="stroke:#000000;" x="47.792967" xlink:href="#m73e78e20f3" y="26.831667"/>
     <use style="stroke:#000000;" x="29.109759" xlink:href="#m73e78e20f3" y="76.614221"/>
     <use style="stroke:#000000;" x="42.487232" xlink:href="#m73e78e20f3" y="44.046685"/>
     <use style="stroke:#000000;" x="37.313347" xlink:href="#m73e78e20f3" y="58.693414"/>
     <use style="stroke:#000000;" x="27.803361" xlink:href="#m73e78e20f3" y="76.947933"/>
     <use style="stroke:#000000;" x="31.372661" xlink:href="#m73e78e20f3" y="71.47222"/>
     <use style="stroke:#000000;" x="33.699489" xlink:href="#m73e78e20f3" y="63.207437"/>
     <use style="stroke:#000000;" x="28.099799" xlink:href="#m73e78e20f3" y="87.480107"/>
     <use style="stroke:#000000;" x="34.927382" xlink:href="#m73e78e20f3" y="73.322251"/>
     <use style="stroke:#000000;" x="34.620475" xlink:href="#m73e78e20f3" y="79.229893"/>
    </g>
   </g>
   <g id="patch_3">
    <path d="M 27 94.5 
L 27 12.96 
" style="fill:none;stroke:#000000;stroke-linecap:square;stroke-linejoin:miter;"/>
   </g>
   <g id="patch_4">
    <path d="M 27 94.5 
L 103.090909 94.5 
" style="fill:none;stroke:#000000;stroke-linecap:square;stroke-linejoin:miter;"/>
   </g>
   <g id="matplotlib.axis_1">
    <g id="xtick_1">
     <g id="line2d_3"/>
     <g id="text_1">
      <text style="font-family:Arial;font-size:8px;font-style:normal;font-weight:normal;text-anchor:middle;" transform="rotate(-0, 27, 103.72625)" x="27" y="103.72625">0</text>
     </g>
    </g>
    <g id="xtick_2">
     <g id="line2d_4"/>
     <g id="text_2">
      <text style="font-family:Arial;font-size:8px;font-style:normal;font-weight:normal;text-anchor:middle;" transform="rotate(-0, 65.734147, 103.72625)" x="65.734147" y="103.72625">5</text>
     </g>
    </g>
    <g id="text_3">
     <text style="font-family:Arial;font-size:10px;font-style:normal;font-weight:normal;text-anchor:middle;" transform="rotate(-0, 65.045455, 116.474063)" x="65.045455" y="116.474063">Exc</text>
    </g>
   </g>
   <g id="matplotlib.axis_2">
    <g id="ytick_1">
     <g id="line2d_5"/>
     <g id="text_4">
      <text style="font-family:Arial;font-size:8px;font-style:normal;font-weight:normal;text-anchor:end;" transform="rotate(-0, 23.5, 97.363125)" x="23.5" y="97.363125">0</text>
     </g>
    </g>
    <g id="ytick_2">
     <g id="line2d_6"/>
     <g id="text_5">
      <text style="font-family:Arial;font-size:8px;font-style:normal;font-weight:normal;text-anchor:end;" transform="rotate(-0, 23.5, 80.75992)" x="23.5" y="80.75992">2</text>
     </g>
    </g>
    <g id="ytick_3">
     <g id="line2d_7"/>
     <g id="text_6">
      <text style="font-family:Arial;font-size:8px;font-style:normal;font-weight:normal;text-anchor:end;" transform="rotate(-0, 23.5, 64.156715)" x="23.5" y="64.156715">4</text>
     </g>
    </g>
    <g id="ytick_4">
     <g id="line2d_8"/>
     <g id="text_7">
      <text style="font-family:Arial;font-size:8px;font-style:normal;font-weight:normal;text-anchor:end;" transform="rotate(-0, 23.5, 47.553511)" x="23.5" y="47.553511">6</text>
     </g>
    </g>
    <g id="ytick_5">
     <g id="line2d_9"/>
     <g id="text_8">
      <text style="font-family:Arial;font-size:8px;font-style:normal;font-weight:normal;text-anchor:end;" transform="rotate(-0, 23.5, 30.950306)" x="23.5" y="30.950306">8</text>
     </g>
    </g>
    <g id="text_9">
     <text style="font-family:Arial;font-size:10px;font-style:normal;font-weight:normal;text-anchor:middle;" transform="rotate(-90, 13.06375, 53.73)" x="13.06375" y="53.73">Inh</text>
    </g>
   </g>
   <g id="legend_1">
    <g id="line2d_10">
     <path d="M 36 75.622656 
L 56 75.622656 
" style="fill:none;stroke:#000000;stroke-dasharray:1.85,0.8;stroke-dashoffset:0;stroke-width:0.5;"/>
    </g>
    <g id="line2d_11"/>
    <g id="text_10">
     <!-- $R^2$ 0.72 -->
     <g transform="translate(64 72.875)">
      <text>
       <tspan style="font-family:DejaVu Sans;font-size:10px;font-style:oblique;font-weight:oblique;" x="0" y="-0.9765625">R</tspan>
       <tspan style="font-family:DejaVu Sans;font-size:7px;font-style:book;font-weight:book;" x="7.650794" y="-4.8046875">2</tspan>
       <tspan style="font-family:Arial;font-size:10px;font-style:regular;font-weight:regular;" x="12.377845 15.156165 20.717689 23.496009 29.057533" y="-0.9765625"> 0.72</tspan>
      </text>
     </g>
     <text style="font-family:Arial;font-size:10px;font-style:normal;font-weight:normal;" transform="translate(64 83.4875)"> slope 2.25</text>
    </g>
   </g>
  </g>
  <g id="axes_2">
   <g id="patch_5">
    <path d="M 118.309091 94.5 
L 194.4 94.5 
L 194.4 12.96 
L 118.309091 12.96 
z
" style="fill:#ffffff;"/>
   </g>
   <g id="PathCollection_1">
    <defs>
     <path d="M 0 2.44949 
C 0.649612 2.44949 1.272706 2.191396 1.732051 1.732051 
C 2.191396 1.272706 2.44949 0.649612 2.44949 0 
C 2.44949 -0.649612 2.191396 -1.272706 1.732051 -1.732051 
C 1.272706 -2.191396 0.649612 -2.44949 0 -2.44949 
C -0.649612 -2.44949 -1.272706 -2.191396 -1.732051 -1.732051 
C -2.191396 -1.272706 -2.44949 -0.649612 -2.44949 0 
C -2.44949 0.649612 -2.191396 1.272706 -1.732051 1.732051 
C -1.272706 2.191396 -0.649612 2.44949 0 2.44949 
z
" id="mecbc146143" style="stroke:#000000;"/>
    </defs>
    <g clip-path="url(#pc0f63d1c2b)">
     <use style="stroke:#000000;" x="144.774241" xlink:href="#mecbc146143" y="76.417121"/>
     <use style="stroke:#000000;" x="127.152709" xlink:href="#mecbc146143" y="83.578805"/>
     <use style="stroke:#000000;" x="132.17498" xlink:href="#mecbc146143" y="80.957405"/>
     <use style="stroke:#000000;" x="134.286043" xlink:href="#mecbc146143" y="75.481404"/>
     <use style="stroke:#000000;" x="134.772793" xlink:href="#mecbc146143" y="46.201511"/>
     <use style="stroke:#000000;" x="147.700313" xlink:href="#mecbc146143" y="72.789734"/>
     <use style="stroke:#000000;" x="128.396768" xlink:href="#mecbc146143" y="59.190876"/>
     <use style="stroke:#000000;" x="190.344661" xlink:href="#mecbc146143" y="31.74683"/>
     <use style="stroke:#000000;" x="168.114406" xlink:href="#mecbc146143" y="90.861977"/>
     <use style="stroke:#000000;" x="132.457755" xlink:href="#mecbc146143" y="78.700284"/>
     <use style="stroke:#000000;" x="134.895605" xlink:href="#mecbc146143" y="67.91795"/>
     <use style="stroke:#000000;" x="118.309091" xlink:href="#mecbc146143" y="94.5"/>
     <use style="stroke:#000000;" x="133.62864" xlink:href="#mecbc146143" y="77.240412"/>
     <use style="stroke:#000000;" x="126.05748" xlink:href="#mecbc146143" y="92.144896"/>
     <use style="stroke:#000000;" x="133.401657" xlink:href="#mecbc146143" y="87.890752"/>
     <use style="stroke:#000000;" x="137.010854" xlink:href="#mecbc146143" y="74.53981"/>
     <use style="stroke:#000000;" x="146.266759" xlink:href="#mecbc146143" y="74.080343"/>
     <use style="stroke:#000000;" x="132.0713" xlink:href="#mecbc146143" y="82.036439"/>
     <use style="stroke:#000000;" x="128.388189" xlink:href="#mecbc146143" y="34.67568"/>
     <use style="stroke:#000000;" x="131.847622" xlink:href="#mecbc146143" y="83.591357"/>
     <use style="stroke:#000000;" x="158.592123" xlink:href="#mecbc146143" y="64.939427"/>
     <use style="stroke:#000000;" x="130.298303" xlink:href="#mecbc146143" y="85.576296"/>
     <use style="stroke:#000000;" x="174.770368" xlink:href="#mecbc146143" y="73.549798"/>
     <use style="stroke:#000000;" x="150.675797" xlink:href="#mecbc146143" y="78.551116"/>
     <use style="stroke:#000000;" x="124.816252" xlink:href="#mecbc146143" y="83.073195"/>
     <use style="stroke:#000000;" x="147.765311" xlink:href="#mecbc146143" y="64.909008"/>
     <use style="stroke:#000000;" x="141.28931" xlink:href="#mecbc146143" y="74.18061"/>
     <use style="stroke:#000000;" x="124.021829" xlink:href="#mecbc146143" y="90.389664"/>
     <use style="stroke:#000000;" x="132.781668" xlink:href="#mecbc146143" y="79.492456"/>
     <use style="stroke:#000000;" x="153.658591" xlink:href="#mecbc146143" y="61.832791"/>
    </g>
   </g>
   <g id="line2d_12">
    <path clip-path="url(#pc0f63d1c2b)" d="M 118.309091 82.534665 
L 119.077686 82.233807 
L 119.846281 81.93295 
L 120.614876 81.632092 
L 121.383471 81.331234 
L 122.152066 81.030377 
L 122.920661 80.729519 
L 123.689256 80.428662 
L 124.457851 80.127804 
L 125.226446 79.826947 
L 125.995041 79.526089 
L 126.763636 79.225231 
L 127.532231 78.924374 
L 128.300826 78.623516 
L 129.069421 78.322659 
L 129.838017 78.021801 
L 130.606612 77.720944 
L 131.375207 77.420086 
L 132.143802 77.119229 
L 132.912397 76.818371 
L 133.680992 76.517513 
L 134.449587 76.216656 
L 135.218182 75.915798 
L 135.986777 75.614941 
L 136.755372 75.314083 
L 137.523967 75.013226 
L 138.292562 74.712368 
L 139.061157 74.41151 
L 139.829752 74.110653 
L 140.598347 73.809795 
L 141.366942 73.508938 
L 142.135537 73.20808 
L 142.904132 72.907223 
L 143.672727 72.606365 
L 144.441322 72.305507 
L 145.209917 72.00465 
L 145.978512 71.703792 
L 146.747107 71.402935 
L 147.515702 71.102077 
L 148.284298 70.80122 
L 149.052893 70.500362 
L 149.821488 70.199504 
L 150.590083 69.898647 
L 151.358678 69.597789 
L 152.127273 69.296932 
L 152.895868 68.996074 
L 153.664463 68.695217 
L 154.433058 68.394359 
L 155.201653 68.093501 
L 155.970248 67.792644 
L 156.738843 67.491786 
L 157.507438 67.190929 
L 158.276033 66.890071 
L 159.044628 66.589214 
L 159.813223 66.288356 
L 160.581818 65.987499 
L 161.350413 65.686641 
L 162.119008 65.385783 
L 162.887603 65.084926 
L 163.656198 64.784068 
L 164.424793 64.483211 
L 165.193388 64.182353 
L 165.961983 63.881496 
L 166.730579 63.580638 
L 167.499174 63.27978 
L 168.267769 62.978923 
L 169.036364 62.678065 
L 169.804959 62.377208 
L 170.573554 62.07635 
L 171.342149 61.775493 
L 172.110744 61.474635 
L 172.879339 61.173777 
L 173.647934 60.87292 
L 174.416529 60.572062 
L 175.185124 60.271205 
L 175.953719 59.970347 
L 176.722314 59.66949 
L 177.490909 59.368632 
L 178.259504 59.067774 
L 179.028099 58.766917 
L 179.796694 58.466059 
L 180.565289 58.165202 
L 181.333884 57.864344 
L 182.102479 57.563487 
L 182.871074 57.262629 
L 183.639669 56.961771 
L 184.408264 56.660914 
L 185.17686 56.360056 
L 185.945455 56.059199 
L 186.71405 55.758341 
L 187.482645 55.457484 
L 188.25124 55.156626 
L 189.019835 54.855768 
L 189.78843 54.554911 
L 190.557025 54.254053 
L 191.32562 53.953196 
L 192.094215 53.652338 
L 192.86281 53.351481 
L 193.631405 53.050623 
L 194.4 52.749766 
" style="fill:none;stroke:#000000;stroke-dasharray:1.85,0.8;stroke-dashoffset:0;stroke-width:0.5;"/>
   </g>
   <g id="patch_6">
    <path d="M 118.309091 94.5 
L 118.309091 12.96 
" style="fill:none;stroke:#000000;stroke-linecap:square;stroke-linejoin:miter;"/>
   </g>
   <g id="patch_7">
    <path d="M 118.309091 94.5 
L 194.4 94.5 
" style="fill:none;stroke:#000000;stroke-linecap:square;stroke-linejoin:miter;"/>
   </g>
   <g id="matplotlib.axis_3">
    <g id="xtick_3">
     <g id="line2d_13"/>
     <g id="text_11">
      <text style="font-family:Arial;font-size:8px;font-style:normal;font-weight:normal;text-anchor:middle;" transform="rotate(-0, 118.309091, 103.72625)" x="118.309091" y="103.72625">0</text>
     </g>
    </g>
    <g id="xtick_4">
     <g id="line2d_14"/>
     <g id="text_12">
      <text style="font-family:Arial;font-size:8px;font-style:normal;font-weight:normal;text-anchor:middle;" transform="rotate(-0, 143.926156, 103.72625)" x="143.926156" y="103.72625">1</text>
     </g>
    </g>
    <g id="xtick_5">
     <g id="line2d_15"/>
     <g id="text_13">
      <text style="font-family:Arial;font-size:8px;font-style:normal;font-weight:normal;text-anchor:middle;" transform="rotate(-0, 169.543222, 103.72625)" x="169.543222" y="103.72625">2</text>
     </g>
    </g>
    <g id="text_14">
     <!-- $\sigma$(Exc) -->
     <g transform="translate(141.504545 116.61625)">
      <text>
       <tspan style="font-family:DejaVu Sans;font-size:10px;font-style:oblique;font-weight:oblique;" x="0" y="-0.71875">σ</tspan>
       <tspan style="font-family:Arial;font-size:10px;font-style:regular;font-weight:regular;" x="6.337891 9.667969 16.337891 21.337891 26.337891" y="-0.71875">(Exc)</tspan>
      </text>
     </g>
    </g>
   </g>
   <g id="matplotlib.axis_4">
    <g id="ytick_6">
     <g id="line2d_16"/>
     <g id="text_15">
      <text style="font-family:Arial;font-size:8px;font-style:normal;font-weight:normal;text-anchor:end;" transform="rotate(-0, 114.809091, 97.363125)" x="114.809091" y="97.363125">0</text>
     </g>
    </g>
    <g id="ytick_7">
     <g id="line2d_17"/>
     <g id="text_16">
      <text style="font-family:Arial;font-size:8px;font-style:normal;font-weight:normal;text-anchor:end;" transform="rotate(-0, 114.809091, 69.911547)" x="114.809091" y="69.911547">1</text>
     </g>
    </g>
    <g id="ytick_8">
     <g id="line2d_18"/>
     <g id="text_17">
      <text style="font-family:Arial;font-size:8px;font-style:normal;font-weight:normal;text-anchor:end;" transform="rotate(-0, 114.809091, 42.45997)" x="114.809091" y="42.45997">2</text>
     </g>
    </g>
    <g id="text_18">
     <!-- $\sigma$(Inh) -->
     <g transform="translate(104.160341 67.18)rotate(-90)">
      <text>
       <tspan style="font-family:DejaVu Sans;font-size:10px;font-style:oblique;font-weight:oblique;" x="0" y="-0.71875">σ</tspan>
       <tspan style="font-family:Arial;font-size:10px;font-style:regular;font-weight:regular;" x="6.337891 9.667969 12.446289 18.007812 23.569336" y="-0.71875">(Inh)</tspan>
      </text>
     </g>
    </g>
   </g>
   <g id="legend_2">
    <g id="line2d_19">
     <path d="M 108.478125 31.995156 
L 128.478125 31.995156 
" style="fill:none;stroke:#000000;stroke-dasharray:1.85,0.8;stroke-dashoffset:0;stroke-width:0.5;"/>
    </g>
    <g id="line2d_20"/>
    <g id="text_19">
     <!-- $R^2$ 0.17 -->
     <g transform="translate(136.478125 29.2475)">
      <text>
       <tspan style="font-family:DejaVu Sans;font-size:10px;font-style:oblique;font-weight:oblique;" x="0" y="-0.9765625">R</tspan>
       <tspan style="font-family:DejaVu Sans;font-size:7px;font-style:book;font-weight:book;" x="7.650794" y="-4.8046875">2</tspan>
       <tspan style="font-family:Arial;font-size:10px;font-style:regular;font-weight:regular;" x="12.377845 15.156165 20.717689 23.496009 29.057533" y="-0.9765625"> 0.17</tspan>
      </text>
     </g>
     <text style="font-family:Arial;font-size:10px;font-style:normal;font-weight:normal;" transform="translate(136.478125 39.86)"> slope 0.37</text>
    </g>
   </g>
  </g>
 </g>
 <defs>
  <clipPath id="ped90983360">
   <rect height="81.54" width="76.090909" x="27" y="12.96"/>
  </clipPath>
  <clipPath id="pc0f63d1c2b">
   <rect height="81.54" width="76.090909" x="118.309091" y="12.96"/>
  </clipPath>
 </defs>
</svg>
