<?xml version="1.0" encoding="utf-8" standalone="no"?>
<!DOCTYPE svg PUBLIC "-//W3C//DTD SVG 1.1//EN"
  "http://www.w3.org/Graphics/SVG/1.1/DTD/svg11.dtd">
<!-- Created with matplotlib (http://matplotlib.org/) -->
<svg height="108pt" version="1.1" viewBox="0 0 216 108" width="216pt" xmlns="http://www.w3.org/2000/svg" xmlns:xlink="http://www.w3.org/1999/xlink">
 <defs>
  <style type="text/css">
*{stroke-linecap:butt;stroke-linejoin:round;}
  </style>
 </defs>
 <g id="figure_1">
  <g id="patch_1">
   <path d="M 0 108 
L 216 108 
L 216 0 
L 0 0 
z
" style="fill:#ffffff;"/>
  </g>
  <g id="axes_1">
   <g id="patch_2">
    <path d="M 27 94.5 
L 103.090909 94.5 
L 103.090909 12.96 
L 27 12.96 
z
" style="fill:#ffffff;"/>
   </g>
   <g id="LineCollection_1">
    <path clip-path="url(#p13b4e2d879)" d="M 39.628143 33.936862 
L 62.353762 33.936862 
" style="fill:none;stroke:#000000;stroke-width:0.5;"/>
    <path clip-path="url(#p13b4e2d879)" d="M 26.596081 80.538691 
L 35.86783 80.538691 
" style="fill:none;stroke:#000000;stroke-width:0.5;"/>
    <path clip-path="url(#p13b4e2d879)" d="M 23.545201 50.623951 
L 50.058564 50.623951 
" style="fill:none;stroke:#000000;stroke-width:0.5;"/>
    <path clip-path="url(#p13b4e2d879)" d="M 28.027361 68.115897 
L 45.820937 68.115897 
" style="fill:none;stroke:#000000;stroke-width:0.5;"/>
    <path clip-path="url(#p13b4e2d879)" d="M 25.018395 53.578187 
L 43.134286 53.578187 
" style="fill:none;stroke:#000000;stroke-width:0.5;"/>
    <path clip-path="url(#p13b4e2d879)" d="M 26.899184 59.903212 
L 47.927621 59.903212 
" style="fill:none;stroke:#000000;stroke-width:0.5;"/>
    <path clip-path="url(#p13b4e2d879)" d="M 24.186072 71.45737 
L 41.86031 71.45737 
" style="fill:none;stroke:#000000;stroke-width:0.5;"/>
    <path clip-path="url(#p13b4e2d879)" d="M 25.578954 87.872272 
L 33.596074 87.872272 
" style="fill:none;stroke:#000000;stroke-width:0.5;"/>
    <path clip-path="url(#p13b4e2d879)" d="M 30.328853 27.563791 
L 51.105274 27.563791 
" style="fill:none;stroke:#000000;stroke-width:0.5;"/>
    <path clip-path="url(#p13b4e2d879)" d="M 25.228323 78.343236 
L 31.21623 78.343236 
" style="fill:none;stroke:#000000;stroke-width:0.5;"/>
    <path clip-path="url(#p13b4e2d879)" d="M 27.459811 76.555693 
L 35.927769 76.555693 
" style="fill:none;stroke:#000000;stroke-width:0.5;"/>
    <path clip-path="url(#p13b4e2d879)" d="M 27.582131 62.931715 
L 36.119639 62.931715 
" style="fill:none;stroke:#000000;stroke-width:0.5;"/>
    <path clip-path="url(#p13b4e2d879)" d="M 27.135615 80.190923 
L 34.179136 80.190923 
" style="fill:none;stroke:#000000;stroke-width:0.5;"/>
    <path clip-path="url(#p13b4e2d879)" d="M 27.603121 60.496342 
L 45.51661 60.496342 
" style="fill:none;stroke:#000000;stroke-width:0.5;"/>
    <path clip-path="url(#p13b4e2d879)" d="M 30.176931 57.899484 
L 49.949582 57.899484 
" style="fill:none;stroke:#000000;stroke-width:0.5;"/>
    <path clip-path="url(#p13b4e2d879)" d="M 27.287484 25.456614 
L 66.542529 25.456614 
" style="fill:none;stroke:#000000;stroke-width:0.5;"/>
    <path clip-path="url(#p13b4e2d879)" d="M 25.660737 61.901352 
L 40.900735 61.901352 
" style="fill:none;stroke:#000000;stroke-width:0.5;"/>
    <path clip-path="url(#p13b4e2d879)" d="M 24.559518 54.09116 
L 42.687074 54.09116 
" style="fill:none;stroke:#000000;stroke-width:0.5;"/>
    <path clip-path="url(#p13b4e2d879)" d="M 33.992049 50.403872 
L 49.054867 50.403872 
" style="fill:none;stroke:#000000;stroke-width:0.5;"/>
    <path clip-path="url(#p13b4e2d879)" d="M 33.184698 50.6187 
L 40.64327 50.6187 
" style="fill:none;stroke:#000000;stroke-width:0.5;"/>
    <path clip-path="url(#p13b4e2d879)" d="M 22.702645 61.747859 
L 37.226827 61.747859 
" style="fill:none;stroke:#000000;stroke-width:0.5;"/>
    <path clip-path="url(#p13b4e2d879)" d="M 27.871194 70.792863 
L 40.508375 70.792863 
" style="fill:none;stroke:#000000;stroke-width:0.5;"/>
    <path clip-path="url(#p13b4e2d879)" d="M 32.139793 45.942181 
L 46.788633 45.942181 
" style="fill:none;stroke:#000000;stroke-width:0.5;"/>
    <path clip-path="url(#p13b4e2d879)" d="M 30.704237 65.488247 
L 40.72117 65.488247 
" style="fill:none;stroke:#000000;stroke-width:0.5;"/>
    <path clip-path="url(#p13b4e2d879)" d="M 26.351307 57.102856 
L 38.608686 57.102856 
" style="fill:none;stroke:#000000;stroke-width:0.5;"/>
    <path clip-path="url(#p13b4e2d879)" d="M 27.256185 49.309287 
L 42.695034 49.309287 
" style="fill:none;stroke:#000000;stroke-width:0.5;"/>
    <path clip-path="url(#p13b4e2d879)" d="M 25.710348 46.377203 
L 37.994678 46.377203 
" style="fill:none;stroke:#000000;stroke-width:0.5;"/>
    <path clip-path="url(#p13b4e2d879)" d="M 27.614841 66.167353 
L 40.9174 66.167353 
" style="fill:none;stroke:#000000;stroke-width:0.5;"/>
    <path clip-path="url(#p13b4e2d879)" d="M 25.368951 67.539465 
L 40.813477 67.539465 
" style="fill:none;stroke:#000000;stroke-width:0.5;"/>
    <path clip-path="url(#p13b4e2d879)" d="M 24.046364 77.268092 
L 40.597951 77.268092 
" style="fill:none;stroke:#000000;stroke-width:0.5;"/>
   </g>
   <g id="LineCollection_2">
    <path clip-path="url(#p13b4e2d879)" d="M 50.990953 41.260273 
L 50.990953 26.613452 
" style="fill:none;stroke:#000000;stroke-width:0.5;"/>
    <path clip-path="url(#p13b4e2d879)" d="M 31.231955 87.457172 
L 31.231955 73.620211 
" style="fill:none;stroke:#000000;stroke-width:0.5;"/>
    <path clip-path="url(#p13b4e2d879)" d="M 36.801883 60.24174 
L 36.801883 41.006162 
" style="fill:none;stroke:#000000;stroke-width:0.5;"/>
    <path clip-path="url(#p13b4e2d879)" d="M 36.924149 78.230276 
L 36.924149 58.001519 
" style="fill:none;stroke:#000000;stroke-width:0.5;"/>
    <path clip-path="url(#p13b4e2d879)" d="M 34.07634 61.447628 
L 34.07634 45.708746 
" style="fill:none;stroke:#000000;stroke-width:0.5;"/>
    <path clip-path="url(#p13b4e2d879)" d="M 37.413403 68.809765 
L 37.413403 50.996659 
" style="fill:none;stroke:#000000;stroke-width:0.5;"/>
    <path clip-path="url(#p13b4e2d879)" d="M 33.023191 74.910999 
L 33.023191 68.00374 
" style="fill:none;stroke:#000000;stroke-width:0.5;"/>
    <path clip-path="url(#p13b4e2d879)" d="M 29.587514 91.119182 
L 29.587514 84.625362 
" style="fill:none;stroke:#000000;stroke-width:0.5;"/>
    <path clip-path="url(#p13b4e2d879)" d="M 40.717064 38.445716 
L 40.717064 16.681866 
" style="fill:none;stroke:#000000;stroke-width:0.5;"/>
    <path clip-path="url(#p13b4e2d879)" d="M 28.222277 85.536613 
L 28.222277 71.149859 
" style="fill:none;stroke:#000000;stroke-width:0.5;"/>
    <path clip-path="url(#p13b4e2d879)" d="M 31.69379 81.945275 
L 31.69379 71.166111 
" style="fill:none;stroke:#000000;stroke-width:0.5;"/>
    <path clip-path="url(#p13b4e2d879)" d="M 31.850885 69.086872 
L 31.850885 56.776557 
" style="fill:none;stroke:#000000;stroke-width:0.5;"/>
    <path clip-path="url(#p13b4e2d879)" d="M 30.657376 83.64255 
L 30.657376 76.739295 
" style="fill:none;stroke:#000000;stroke-width:0.5;"/>
    <path clip-path="url(#p13b4e2d879)" d="M 36.559865 75.382813 
L 36.559865 45.60987 
" style="fill:none;stroke:#000000;stroke-width:0.5;"/>
    <path clip-path="url(#p13b4e2d879)" d="M 40.063257 64.088056 
L 40.063257 51.710913 
" style="fill:none;stroke:#000000;stroke-width:0.5;"/>
    <path clip-path="url(#p13b4e2d879)" d="M 46.915006 32.425959 
L 46.915006 18.487269 
" style="fill:none;stroke:#000000;stroke-width:0.5;"/>
    <path clip-path="url(#p13b4e2d879)" d="M 33.280736 65.579074 
L 33.280736 58.22363 
" style="fill:none;stroke:#000000;stroke-width:0.5;"/>
    <path clip-path="url(#p13b4e2d879)" d="M 33.623296 65.665779 
L 33.623296 42.516541 
" style="fill:none;stroke:#000000;stroke-width:0.5;"/>
    <path clip-path="url(#p13b4e2d879)" d="M 41.523458 56.115622 
L 41.523458 44.692121 
" style="fill:none;stroke:#000000;stroke-width:0.5;"/>
    <path clip-path="url(#p13b4e2d879)" d="M 36.913984 54.494415 
L 36.913984 46.742984 
" style="fill:none;stroke:#000000;stroke-width:0.5;"/>
    <path clip-path="url(#p13b4e2d879)" d="M 29.964736 73.28253 
L 29.964736 50.213188 
" style="fill:none;stroke:#000000;stroke-width:0.5;"/>
    <path clip-path="url(#p13b4e2d879)" d="M 34.189785 79.436131 
L 34.189785 62.149595 
" style="fill:none;stroke:#000000;stroke-width:0.5;"/>
    <path clip-path="url(#p13b4e2d879)" d="M 39.464213 53.745576 
L 39.464213 38.138787 
" style="fill:none;stroke:#000000;stroke-width:0.5;"/>
    <path clip-path="url(#p13b4e2d879)" d="M 35.712703 71.652831 
L 35.712703 59.323664 
" style="fill:none;stroke:#000000;stroke-width:0.5;"/>
    <path clip-path="url(#p13b4e2d879)" d="M 32.479997 66.832838 
L 32.479997 47.372874 
" style="fill:none;stroke:#000000;stroke-width:0.5;"/>
    <path clip-path="url(#p13b4e2d879)" d="M 34.97561 62.774017 
L 34.97561 35.844558 
" style="fill:none;stroke:#000000;stroke-width:0.5;"/>
    <path clip-path="url(#p13b4e2d879)" d="M 31.852513 53.745223 
L 31.852513 39.009183 
" style="fill:none;stroke:#000000;stroke-width:0.5;"/>
    <path clip-path="url(#p13b4e2d879)" d="M 34.26612 75.641434 
L 34.26612 56.693271 
" style="fill:none;stroke:#000000;stroke-width:0.5;"/>
    <path clip-path="url(#p13b4e2d879)" d="M 33.091214 72.586016 
L 33.091214 62.492914 
" style="fill:none;stroke:#000000;stroke-width:0.5;"/>
    <path clip-path="url(#p13b4e2d879)" d="M 32.322158 83.563893 
L 32.322158 70.97229 
" style="fill:none;stroke:#000000;stroke-width:0.5;"/>
   </g>
   <g id="line2d_1">
    <path clip-path="url(#p13b4e2d879)" d="M 27 79.683008 
L 27.768595 77.871099 
L 28.53719 76.05919 
L 29.305785 74.247282 
L 30.07438 72.435373 
L 30.842975 70.623464 
L 31.61157 68.811555 
L 32.380165 66.999646 
L 33.14876 65.187737 
L 33.917355 63.375828 
L 34.68595 61.563919 
L 35.454545 59.75201 
L 36.22314 57.940101 
L 36.991736 56.128193 
L 37.760331 54.316284 
L 38.528926 52.504375 
L 39.297521 50.692466 
L 40.066116 48.880557 
L 40.834711 47.068648 
L 41.603306 45.256739 
L 42.371901 43.44483 
L 43.140496 41.632921 
L 43.909091 39.821012 
L 44.677686 38.009104 
L 45.446281 36.197195 
L 46.214876 34.385286 
L 46.983471 32.573377 
L 47.752066 30.761468 
L 48.520661 28.949559 
L 49.289256 27.13765 
L 50.057851 25.325741 
L 50.826446 23.513832 
L 51.595041 21.701923 
L 52.363636 19.890015 
L 53.132231 18.078106 
L 53.900826 16.266197 
L 54.669421 14.454288 
L 55.438017 12.642379 
L 56.206612 10.83047 
L 56.975207 9.018561 
L 57.743802 7.206652 
L 58.512397 5.394743 
L 59.280992 3.582834 
L 60.049587 1.770926 
L 60.818182 -0.040983 
L 61.224988 -1 
" style="fill:none;stroke:#000000;stroke-dasharray:1.85,0.8;stroke-dashoffset:0;stroke-width:0.5;"/>
   </g>
   <g id="line2d_2">
    <defs>
     <path d="M 0 3 
C 0.795609 3 1.55874 2.683901 2.12132 2.12132 
C 2.683901 1.55874 3 0.795609 3 0 
C 3 -0.795609 2.683901 -1.55874 2.12132 -2.12132 
C 1.55874 -2.683901 0.795609 -3 0 -3 
C -0.795609 -3 -1.55874 -2.683901 -2.12132 -2.12132 
C -2.683901 -1.55874 -3 -0.795609 -3 0 
C -3 0.795609 -2.683901 1.55874 -2.12132 2.12132 
C -1.55874 2.683901 -0.795609 3 0 3 
z
" id="md573cfc3fa" style="stroke:#000000;"/>
    </defs>
    <g clip-path="url(#p13b4e2d879)">
     <use style="stroke:#000000;" x="50.990953" xlink:href="#md573cfc3fa" y="33.936862"/>
     <use style="stroke:#000000;" x="31.231955" xlink:href="#md573cfc3fa" y="80.538691"/>
     <use style="stroke:#000000;" x="36.801883" xlink:href="#md573cfc3fa" y="50.623951"/>
     <use style="stroke:#000000;" x="36.924149" xlink:href="#md573cfc3fa" y="68.115897"/>
     <use style="stroke:#000000;" x="34.07634" xlink:href="#md573cfc3fa" y="53.578187"/>
     <use style="stroke:#000000;" x="37.413403" xlink:href="#md573cfc3fa" y="59.903212"/>
     <use style="stroke:#000000;" x="33.023191" xlink:href="#md573cfc3fa" y="71.45737"/>
     <use style="stroke:#000000;" x="29.587514" xlink:href="#md573cfc3fa" y="87.872272"/>
     <use style="stroke:#000000;" x="40.717064" xlink:href="#md573cfc3fa" y="27.563791"/>
     <use style="stroke:#000000;" x="28.222277" xlink:href="#md573cfc3fa" y="78.343236"/>
     <use style="stroke:#000000;" x="31.69379" xlink:href="#md573cfc3fa" y="76.555693"/>
     <use style="stroke:#000000;" x="31.850885" xlink:href="#md573cfc3fa" y="62.931715"/>
     <use style="stroke:#000000;" x="30.657376" xlink:href="#md573cfc3fa" y="80.190923"/>
     <use style="stroke:#000000;" x="36.559865" xlink:href="#md573cfc3fa" y="60.496342"/>
     <use style="stroke:#000000;" x="40.063257" xlink:href="#md573cfc3fa" y="57.899484"/>
     <use style="stroke:#000000;" x="46.915006" xlink:href="#md573cfc3fa" y="25.456614"/>
     <use style="stroke:#000000;" x="33.280736" xlink:href="#md573cfc3fa" y="61.901352"/>
     <use style="stroke:#000000;" x="33.623296" xlink:href="#md573cfc3fa" y="54.09116"/>
     <use style="stroke:#000000;" x="41.523458" xlink:href="#md573cfc3fa" y="50.403872"/>
     <use style="stroke:#000000;" x="36.913984" xlink:href="#md573cfc3fa" y="50.6187"/>
     <use style="stroke:#000000;" x="29.964736" xlink:href="#md573cfc3fa" y="61.747859"/>
     <use style="stroke:#000000;" x="34.189785" xlink:href="#md573cfc3fa" y="70.792863"/>
     <use style="stroke:#000000;" x="39.464213" xlink:href="#md573cfc3fa" y="45.942181"/>
     <use style="stroke:#000000;" x="35.712703" xlink:href="#md573cfc3fa" y="65.488247"/>
     <use style="stroke:#000000;" x="32.479997" xlink:href="#md573cfc3fa" y="57.102856"/>
     <use style="stroke:#000000;" x="34.97561" xlink:href="#md573cfc3fa" y="49.309287"/>
     <use style="stroke:#000000;" x="31.852513" xlink:href="#md573cfc3fa" y="46.377203"/>
     <use style="stroke:#000000;" x="34.26612" xlink:href="#md573cfc3fa" y="66.167353"/>
     <use style="stroke:#000000;" x="33.091214" xlink:href="#md573cfc3fa" y="67.539465"/>
     <use style="stroke:#000000;" x="32.322158" xlink:href="#md573cfc3fa" y="77.268092"/>
    </g>
   </g>
   <g id="patch_3">
    <path d="M 27 94.5 
L 27 12.96 
" style="fill:none;stroke:#000000;stroke-linecap:square;stroke-linejoin:miter;"/>
   </g>
   <g id="patch_4">
    <path d="M 27 94.5 
L 103.090909 94.5 
" style="fill:none;stroke:#000000;stroke-linecap:square;stroke-linejoin:miter;"/>
   </g>
   <g id="matplotlib.axis_1">
    <g id="xtick_1">
     <g id="line2d_3"/>
     <g id="text_1">
      <text style="font-family:Arial;font-size:8px;font-style:normal;font-weight:normal;text-anchor:middle;" transform="rotate(-0, 27, 103.72625)" x="27" y="103.72625">0.0</text>
     </g>
    </g>
    <g id="xtick_2">
     <g id="line2d_4"/>
     <g id="text_2">
      <text style="font-family:Arial;font-size:8px;font-style:normal;font-weight:normal;text-anchor:middle;" transform="rotate(-0, 52.746041, 103.72625)" x="52.746041" y="103.72625">2.5</text>
     </g>
    </g>
    <g id="xtick_3">
     <g id="line2d_5"/>
     <g id="text_3">
      <text style="font-family:Arial;font-size:8px;font-style:normal;font-weight:normal;text-anchor:middle;" transform="rotate(-0, 78.492082, 103.72625)" x="78.492082" y="103.72625">5.0</text>
     </g>
    </g>
    <g id="text_4">
     <text style="font-family:Arial;font-size:10px;font-style:normal;font-weight:normal;text-anchor:middle;" transform="rotate(-0, 65.045455, 116.474063)" x="65.045455" y="116.474063">Exc</text>
    </g>
   </g>
   <g id="matplotlib.axis_2">
    <g id="ytick_1">
     <g id="line2d_6"/>
     <g id="text_5">
      <text style="font-family:Arial;font-size:8px;font-style:normal;font-weight:normal;text-anchor:end;" transform="rotate(-0, 23.5, 97.363125)" x="23.5" y="97.363125">0</text>
     </g>
    </g>
    <g id="ytick_2">
     <g id="line2d_7"/>
     <g id="text_6">
      <text style="font-family:Arial;font-size:8px;font-style:normal;font-weight:normal;text-anchor:end;" transform="rotate(-0, 23.5, 75.291293)" x="23.5" y="75.291293">2</text>
     </g>
    </g>
    <g id="ytick_3">
     <g id="line2d_8"/>
     <g id="text_7">
      <text style="font-family:Arial;font-size:8px;font-style:normal;font-weight:normal;text-anchor:end;" transform="rotate(-0, 23.5, 53.219462)" x="23.5" y="53.219462">4</text>
     </g>
    </g>
    <g id="ytick_4">
     <g id="line2d_9"/>
     <g id="text_8">
      <text style="font-family:Arial;font-size:8px;font-style:normal;font-weight:normal;text-anchor:end;" transform="rotate(-0, 23.5, 31.14763)" x="23.5" y="31.14763">6</text>
     </g>
    </g>
    <g id="text_9">
     <text style="font-family:Arial;font-size:10px;font-style:normal;font-weight:normal;text-anchor:middle;" transform="rotate(-90, 13.06375, 53.73)" x="13.06375" y="53.73">Inh</text>
    </g>
   </g>
   <g id="legend_1">
    <g id="line2d_10">
     <path d="M 36 75.622656 
L 56 75.622656 
" style="fill:none;stroke:#000000;stroke-dasharray:1.85,0.8;stroke-dashoffset:0;stroke-width:0.5;"/>
    </g>
    <g id="line2d_11"/>
    <g id="text_10">
     <!-- $R^2$ 0.60 -->
     <g transform="translate(64 72.875)">
      <text>
       <tspan style="font-family:DejaVu Sans;font-size:10px;font-style:oblique;font-weight:oblique;" x="0" y="-0.9765625">R</tspan>
       <tspan style="font-family:DejaVu Sans;font-size:7px;font-style:book;font-weight:book;" x="7.650794" y="-4.8046875">2</tspan>
       <tspan style="font-family:Arial;font-size:10px;font-style:regular;font-weight:regular;" x="12.377845 15.156165 20.717689 23.496009 29.057533" y="-0.9765625"> 0.60</tspan>
      </text>
     </g>
     <text style="font-family:Arial;font-size:10px;font-style:normal;font-weight:normal;" transform="translate(64 83.4875)"> slope 2.20</text>
    </g>
   </g>
  </g>
  <g id="axes_2">
   <g id="patch_5">
    <path d="M 118.309091 94.5 
L 194.4 94.5 
L 194.4 12.96 
L 118.309091 12.96 
z
" style="fill:#ffffff;"/>
   </g>
   <g id="PathCollection_1">
    <defs>
     <path d="M 0 2.44949 
C 0.649612 2.44949 1.272706 2.191396 1.732051 1.732051 
C 2.191396 1.272706 2.44949 0.649612 2.44949 0 
C 2.44949 -0.649612 2.191396 -1.272706 1.732051 -1.732051 
C 1.272706 -2.191396 0.649612 -2.44949 0 -2.44949 
C -0.649612 -2.44949 -1.272706 -2.191396 -1.732051 -1.732051 
C -2.191396 -1.272706 -2.44949 -0.649612 -2.44949 0 
C -2.44949 0.649612 -2.191396 1.272706 -1.732051 1.732051 
C -1.272706 2.191396 -0.649612 2.44949 0 2.44949 
z
" id="m633714da0f" style="stroke:#000000;"/>
    </defs>
    <g clip-path="url(#p13e55b729b)">
     <use style="stroke:#000000;" x="160.195818" xlink:href="#m633714da0f" y="67.503709"/>
     <use style="stroke:#000000;" x="135.398317" xlink:href="#m633714da0f" y="68.996402"/>
     <use style="stroke:#000000;" x="167.1772" xlink:href="#m633714da0f" y="59.045942"/>
     <use style="stroke:#000000;" x="151.105324" xlink:href="#m633714da0f" y="57.215364"/>
     <use style="stroke:#000000;" x="151.699397" xlink:href="#m633714da0f" y="65.490877"/>
     <use style="stroke:#000000;" x="157.067657" xlink:href="#m633714da0f" y="61.667771"/>
     <use style="stroke:#000000;" x="150.885365" xlink:href="#m633714da0f" y="81.768883"/>
     <use style="stroke:#000000;" x="133.085846" xlink:href="#m633714da0f" y="82.530914"/>
     <use style="stroke:#000000;" x="156.603155" xlink:href="#m633714da0f" y="54.385956"/>
     <use style="stroke:#000000;" x="129.345704" xlink:href="#m633714da0f" y="67.983052"/>
     <use style="stroke:#000000;" x="133.916808" xlink:href="#m633714da0f" y="74.632381"/>
     <use style="stroke:#000000;" x="134.044999" xlink:href="#m633714da0f" y="71.810241"/>
     <use style="stroke:#000000;" x="131.291358" xlink:href="#m633714da0f" y="81.776264"/>
     <use style="stroke:#000000;" x="151.326341" xlink:href="#m633714da0f" y="39.623996"/>
     <use style="stroke:#000000;" x="154.753056" xlink:href="#m633714da0f" y="71.687069"/>
     <use style="stroke:#000000;" x="190.662033" xlink:href="#m633714da0f" y="68.808901"/>
     <use style="stroke:#000000;" x="146.398696" xlink:href="#m633714da0f" y="80.942812"/>
     <use style="stroke:#000000;" x="151.720898" xlink:href="#m633714da0f" y="51.832479"/>
     <use style="stroke:#000000;" x="146.072127" xlink:href="#m633714da0f" y="73.444773"/>
     <use style="stroke:#000000;" x="132.056359" xlink:href="#m633714da0f" y="80.212949"/>
     <use style="stroke:#000000;" x="145.079339" xlink:href="#m633714da0f" y="51.979739"/>
     <use style="stroke:#000000;" x="141.601313" xlink:href="#m633714da0f" y="62.63832"/>
     <use style="stroke:#000000;" x="145.309102" xlink:href="#m633714da0f" y="65.734345"/>
     <use style="stroke:#000000;" x="136.771801" xlink:href="#m633714da0f" y="71.775493"/>
     <use style="stroke:#000000;" x="140.90128" xlink:href="#m633714da0f" y="58.632365"/>
     <use style="stroke:#000000;" x="146.765208" xlink:href="#m633714da0f" y="44.864963"/>
     <use style="stroke:#000000;" x="140.950955" xlink:href="#m633714da0f" y="67.339265"/>
     <use style="stroke:#000000;" x="142.827705" xlink:href="#m633714da0f" y="59.575692"/>
     <use style="stroke:#000000;" x="146.77567" xlink:href="#m633714da0f" y="75.896898"/>
     <use style="stroke:#000000;" x="148.816149" xlink:href="#m633714da0f" y="71.291785"/>
    </g>
   </g>
   <g id="line2d_12">
    <path clip-path="url(#p13e55b729b)" d="M 118.309091 73.687899 
L 119.077686 73.489689 
L 119.846281 73.291478 
L 120.614876 73.093268 
L 121.383471 72.895057 
L 122.152066 72.696847 
L 122.920661 72.498636 
L 123.689256 72.300426 
L 124.457851 72.102215 
L 125.226446 71.904005 
L 125.995041 71.705794 
L 126.763636 71.507583 
L 127.532231 71.309373 
L 128.300826 71.111162 
L 129.069421 70.912952 
L 129.838017 70.714741 
L 130.606612 70.516531 
L 131.375207 70.31832 
L 132.143802 70.12011 
L 132.912397 69.921899 
L 133.680992 69.723689 
L 134.449587 69.525478 
L 135.218182 69.327267 
L 135.986777 69.129057 
L 136.755372 68.930846 
L 137.523967 68.732636 
L 138.292562 68.534425 
L 139.061157 68.336215 
L 139.829752 68.138004 
L 140.598347 67.939794 
L 141.366942 67.741583 
L 142.135537 67.543373 
L 142.904132 67.345162 
L 143.672727 67.146951 
L 144.441322 66.948741 
L 145.209917 66.75053 
L 145.978512 66.55232 
L 146.747107 66.354109 
L 147.515702 66.155899 
L 148.284298 65.957688 
L 149.052893 65.759478 
L 149.821488 65.561267 
L 150.590083 65.363057 
L 151.358678 65.164846 
L 152.127273 64.966635 
L 152.895868 64.768425 
L 153.664463 64.570214 
L 154.433058 64.372004 
L 155.201653 64.173793 
L 155.970248 63.975583 
L 156.738843 63.777372 
L 157.507438 63.579162 
L 158.276033 63.380951 
L 159.044628 63.182741 
L 159.813223 62.98453 
L 160.581818 62.786319 
L 161.350413 62.588109 
L 162.119008 62.389898 
L 162.887603 62.191688 
L 163.656198 61.993477 
L 164.424793 61.795267 
L 165.193388 61.597056 
L 165.961983 61.398846 
L 166.730579 61.200635 
L 167.499174 61.002425 
L 168.267769 60.804214 
L 169.036364 60.606004 
L 169.804959 60.407793 
L 170.573554 60.209582 
L 171.342149 60.011372 
L 172.110744 59.813161 
L 172.879339 59.614951 
L 173.647934 59.41674 
L 174.416529 59.21853 
L 175.185124 59.020319 
L 175.953719 58.822109 
L 176.722314 58.623898 
L 177.490909 58.425688 
L 178.259504 58.227477 
L 179.028099 58.029266 
L 179.796694 57.831056 
L 180.565289 57.632845 
L 181.333884 57.434635 
L 182.102479 57.236424 
L 182.871074 57.038214 
L 183.639669 56.840003 
L 184.408264 56.641793 
L 185.17686 56.443582 
L 185.945455 56.245372 
L 186.71405 56.047161 
L 187.482645 55.84895 
L 188.25124 55.65074 
L 189.019835 55.452529 
L 189.78843 55.254319 
L 190.557025 55.056108 
L 191.32562 54.857898 
L 192.094215 54.659687 
L 192.86281 54.461477 
L 193.631405 54.263266 
L 194.4 54.065056 
" style="fill:none;stroke:#000000;stroke-dasharray:1.85,0.8;stroke-dashoffset:0;stroke-width:0.5;"/>
   </g>
   <g id="patch_6">
    <path d="M 118.309091 94.5 
L 118.309091 12.96 
" style="fill:none;stroke:#000000;stroke-linecap:square;stroke-linejoin:miter;"/>
   </g>
   <g id="patch_7">
    <path d="M 118.309091 94.5 
L 194.4 94.5 
" style="fill:none;stroke:#000000;stroke-linecap:square;stroke-linejoin:miter;"/>
   </g>
   <g id="matplotlib.axis_3">
    <g id="xtick_4">
     <g id="line2d_13"/>
     <g id="text_11">
      <text style="font-family:Arial;font-size:8px;font-style:normal;font-weight:normal;text-anchor:middle;" transform="rotate(-0, 118.309091, 103.72625)" x="118.309091" y="103.72625">0</text>
     </g>
    </g>
    <g id="xtick_5">
     <g id="line2d_14"/>
     <g id="text_12">
      <text style="font-family:Arial;font-size:8px;font-style:normal;font-weight:normal;text-anchor:middle;" transform="rotate(-0, 156.272146, 103.72625)" x="156.272146" y="103.72625">1</text>
     </g>
    </g>
    <g id="xtick_6">
     <g id="line2d_15"/>
     <g id="text_13">
      <text style="font-family:Arial;font-size:8px;font-style:normal;font-weight:normal;text-anchor:middle;" transform="rotate(-0, 194.235201, 103.72625)" x="194.235201" y="103.72625">2</text>
     </g>
    </g>
    <g id="text_14">
     <!-- $\sigma$(Exc) -->
     <g transform="translate(141.504545 116.61625)">
      <text>
       <tspan style="font-family:DejaVu Sans;font-size:10px;font-style:oblique;font-weight:oblique;" x="0" y="-0.71875">σ</tspan>
       <tspan style="font-family:Arial;font-size:10px;font-style:regular;font-weight:regular;" x="6.337891 9.667969 16.337891 21.337891 26.337891" y="-0.71875">(Exc)</tspan>
      </text>
     </g>
    </g>
   </g>
   <g id="matplotlib.axis_4">
    <g id="ytick_5">
     <g id="line2d_16"/>
     <g id="text_15">
      <text style="font-family:Arial;font-size:8px;font-style:normal;font-weight:normal;text-anchor:end;" transform="rotate(-0, 114.809091, 97.363125)" x="114.809091" y="97.363125">0.0</text>
     </g>
    </g>
    <g id="ytick_6">
     <g id="line2d_17"/>
     <g id="text_16">
      <text style="font-family:Arial;font-size:8px;font-style:normal;font-weight:normal;text-anchor:end;" transform="rotate(-0, 114.809091, 77.022275)" x="114.809091" y="77.022275">0.5</text>
     </g>
    </g>
    <g id="ytick_7">
     <g id="line2d_18"/>
     <g id="text_17">
      <text style="font-family:Arial;font-size:8px;font-style:normal;font-weight:normal;text-anchor:end;" transform="rotate(-0, 114.809091, 56.681425)" x="114.809091" y="56.681425">1.0</text>
     </g>
    </g>
    <g id="ytick_8">
     <g id="line2d_19"/>
     <g id="text_18">
      <text style="font-family:Arial;font-size:8px;font-style:normal;font-weight:normal;text-anchor:end;" transform="rotate(-0, 114.809091, 36.340576)" x="114.809091" y="36.340576">1.5</text>
     </g>
    </g>
    <g id="ytick_9">
     <g id="line2d_20"/>
     <g id="text_19">
      <text style="font-family:Arial;font-size:8px;font-style:normal;font-weight:normal;text-anchor:end;" transform="rotate(-0, 114.809091, 15.999726)" x="114.809091" y="15.999726">2.0</text>
     </g>
    </g>
    <g id="text_20">
     <!-- $\sigma$(Inh) -->
     <g transform="translate(97.489091 67.18)rotate(-90)">
      <text>
       <tspan style="font-family:DejaVu Sans;font-size:10px;font-style:oblique;font-weight:oblique;" x="0" y="-0.71875">σ</tspan>
       <tspan style="font-family:Arial;font-size:10px;font-style:regular;font-weight:regular;" x="6.337891 9.667969 12.446289 18.007812 23.569336" y="-0.71875">(Inh)</tspan>
      </text>
     </g>
    </g>
   </g>
   <g id="legend_2">
    <g id="line2d_21">
     <path d="M 108.478125 31.995156 
L 128.478125 31.995156 
" style="fill:none;stroke:#000000;stroke-dasharray:1.85,0.8;stroke-dashoffset:0;stroke-width:0.5;"/>
    </g>
    <g id="line2d_22"/>
    <g id="text_21">
     <!-- $R^2$ 0.09 -->
     <g transform="translate(136.478125 29.2475)">
      <text>
       <tspan style="font-family:DejaVu Sans;font-size:10px;font-style:oblique;font-weight:oblique;" x="0" y="-0.9765625">R</tspan>
       <tspan style="font-family:DejaVu Sans;font-size:7px;font-style:book;font-weight:book;" x="7.650794" y="-4.8046875">2</tspan>
       <tspan style="font-family:Arial;font-size:10px;font-style:regular;font-weight:regular;" x="12.377845 15.156165 20.717689 23.496009 29.057533" y="-0.9765625"> 0.09</tspan>
      </text>
     </g>
     <text style="font-family:Arial;font-size:10px;font-style:normal;font-weight:normal;" transform="translate(136.478125 39.86)"> slope 0.24</text>
    </g>
   </g>
  </g>
 </g>
 <defs>
  <clipPath id="p13b4e2d879">
   <rect height="81.54" width="76.090909" x="27" y="12.96"/>
  </clipPath>
  <clipPath id="p13e55b729b">
   <rect height="81.54" width="76.090909" x="118.309091" y="12.96"/>
  </clipPath>
 </defs>
</svg>
