<?xml version="1.0" encoding="utf-8" standalone="no"?>
<!DOCTYPE svg PUBLIC "-//W3C//DTD SVG 1.1//EN"
  "http://www.w3.org/Graphics/SVG/1.1/DTD/svg11.dtd">
<!-- Created with matplotlib (http://matplotlib.org/) -->
<svg height="108pt" version="1.1" viewBox="0 0 216 108" width="216pt" xmlns="http://www.w3.org/2000/svg" xmlns:xlink="http://www.w3.org/1999/xlink">
 <defs>
  <style type="text/css">
*{stroke-linecap:butt;stroke-linejoin:round;}
  </style>
 </defs>
 <g id="figure_1">
  <g id="patch_1">
   <path d="M 0 108 
L 216 108 
L 216 0 
L 0 0 
z
" style="fill:#ffffff;"/>
  </g>
  <g id="axes_1">
   <g id="patch_2">
    <path d="M 27 94.5 
L 103.090909 94.5 
L 103.090909 12.96 
L 27 12.96 
z
" style="fill:#ffffff;"/>
   </g>
   <g id="LineCollection_1">
    <path clip-path="url(#p535986946e)" d="M 28.435393 44.504502 
L 47.731523 44.504502 
" style="fill:none;stroke:#000000;stroke-width:0.5;"/>
    <path clip-path="url(#p535986946e)" d="M 27.67714 29.214742 
L 48.115825 29.214742 
" style="fill:none;stroke:#000000;stroke-width:0.5;"/>
    <path clip-path="url(#p535986946e)" d="M 26.161971 78.572121 
L 32.734666 78.572121 
" style="fill:none;stroke:#000000;stroke-width:0.5;"/>
    <path clip-path="url(#p535986946e)" d="M 37.204854 28.665819 
L 70.875807 28.665819 
" style="fill:none;stroke:#000000;stroke-width:0.5;"/>
    <path clip-path="url(#p535986946e)" d="M 25.330545 81.300252 
L 36.068609 81.300252 
" style="fill:none;stroke:#000000;stroke-width:0.5;"/>
    <path clip-path="url(#p535986946e)" d="M 27.320598 64.178158 
L 32.278288 64.178158 
" style="fill:none;stroke:#000000;stroke-width:0.5;"/>
    <path clip-path="url(#p535986946e)" d="M 24.379791 55.933627 
L 42.019742 55.933627 
" style="fill:none;stroke:#000000;stroke-width:0.5;"/>
    <path clip-path="url(#p535986946e)" d="M 26.662997 75.072354 
L 36.463771 75.072354 
" style="fill:none;stroke:#000000;stroke-width:0.5;"/>
    <path clip-path="url(#p535986946e)" d="M 25.583953 53.258666 
L 40.991411 53.258666 
" style="fill:none;stroke:#000000;stroke-width:0.5;"/>
    <path clip-path="url(#p535986946e)" d="M 26.188752 55.018241 
L 50.098276 55.018241 
" style="fill:none;stroke:#000000;stroke-width:0.5;"/>
    <path clip-path="url(#p535986946e)" d="M 21.939629 49.084631 
L 52.949732 49.084631 
" style="fill:none;stroke:#000000;stroke-width:0.5;"/>
    <path clip-path="url(#p535986946e)" d="M 29.263721 58.513266 
L 52.540298 58.513266 
" style="fill:none;stroke:#000000;stroke-width:0.5;"/>
    <path clip-path="url(#p535986946e)" d="M 24.998866 82.167924 
L 31.76229 82.167924 
" style="fill:none;stroke:#000000;stroke-width:0.5;"/>
    <path clip-path="url(#p535986946e)" d="M 29.53197 76.461671 
L 38.646445 76.461671 
" style="fill:none;stroke:#000000;stroke-width:0.5;"/>
    <path clip-path="url(#p535986946e)" d="M 26.93678 73.631753 
L 39.760266 73.631753 
" style="fill:none;stroke:#000000;stroke-width:0.5;"/>
    <path clip-path="url(#p535986946e)" d="M 35.666878 44.442667 
L 43.486798 44.442667 
" style="fill:none;stroke:#000000;stroke-width:0.5;"/>
    <path clip-path="url(#p535986946e)" d="M 26.67561 50.089149 
L 33.650005 50.089149 
" style="fill:none;stroke:#000000;stroke-width:0.5;"/>
    <path clip-path="url(#p535986946e)" d="M 31.312654 30.337315 
L 54.318935 30.337315 
" style="fill:none;stroke:#000000;stroke-width:0.5;"/>
    <path clip-path="url(#p535986946e)" d="M 23.213171 60.433621 
L 38.045975 60.433621 
" style="fill:none;stroke:#000000;stroke-width:0.5;"/>
    <path clip-path="url(#p535986946e)" d="M 27.850542 52.45628 
L 55.109662 52.45628 
" style="fill:none;stroke:#000000;stroke-width:0.5;"/>
    <path clip-path="url(#p535986946e)" d="M 27.351952 22.378707 
L 47.594903 22.378707 
" style="fill:none;stroke:#000000;stroke-width:0.5;"/>
    <path clip-path="url(#p535986946e)" d="M 33.917671 33.147367 
L 47.743715 33.147367 
" style="fill:none;stroke:#000000;stroke-width:0.5;"/>
    <path clip-path="url(#p535986946e)" d="M 26.121951 77.704279 
L 31.075646 77.704279 
" style="fill:none;stroke:#000000;stroke-width:0.5;"/>
    <path clip-path="url(#p535986946e)" d="M 28.707097 51.741492 
L 39.116888 51.741492 
" style="fill:none;stroke:#000000;stroke-width:0.5;"/>
    <path clip-path="url(#p535986946e)" d="M 27.072195 71.840134 
L 34.995596 71.840134 
" style="fill:none;stroke:#000000;stroke-width:0.5;"/>
    <path clip-path="url(#p535986946e)" d="M 24.919196 73.338898 
L 43.737779 73.338898 
" style="fill:none;stroke:#000000;stroke-width:0.5;"/>
    <path clip-path="url(#p535986946e)" d="M 25.989111 87.735308 
L 31.692249 87.735308 
" style="fill:none;stroke:#000000;stroke-width:0.5;"/>
    <path clip-path="url(#p535986946e)" d="M 27.128192 44.40961 
L 46.332149 44.40961 
" style="fill:none;stroke:#000000;stroke-width:0.5;"/>
    <path clip-path="url(#p535986946e)" d="M 25.503758 80.057885 
L 33.148867 80.057885 
" style="fill:none;stroke:#000000;stroke-width:0.5;"/>
    <path clip-path="url(#p535986946e)" d="M 26.886946 66.113606 
L 43.535338 66.113606 
" style="fill:none;stroke:#000000;stroke-width:0.5;"/>
   </g>
   <g id="LineCollection_2">
    <path clip-path="url(#p535986946e)" d="M 38.083458 54.684225 
L 38.083458 34.32478 
" style="fill:none;stroke:#000000;stroke-width:0.5;"/>
    <path clip-path="url(#p535986946e)" d="M 37.896482 33.664316 
L 37.896482 24.765169 
" style="fill:none;stroke:#000000;stroke-width:0.5;"/>
    <path clip-path="url(#p535986946e)" d="M 29.448319 83.276895 
L 29.448319 73.867347 
" style="fill:none;stroke:#000000;stroke-width:0.5;"/>
    <path clip-path="url(#p535986946e)" d="M 54.040331 40.695756 
L 54.040331 16.635881 
" style="fill:none;stroke:#000000;stroke-width:0.5;"/>
    <path clip-path="url(#p535986946e)" d="M 30.699577 89.371188 
L 30.699577 73.229316 
" style="fill:none;stroke:#000000;stroke-width:0.5;"/>
    <path clip-path="url(#p535986946e)" d="M 29.799443 67.934605 
L 29.799443 60.421711 
" style="fill:none;stroke:#000000;stroke-width:0.5;"/>
    <path clip-path="url(#p535986946e)" d="M 33.199766 61.109571 
L 33.199766 50.757683 
" style="fill:none;stroke:#000000;stroke-width:0.5;"/>
    <path clip-path="url(#p535986946e)" d="M 31.563384 79.439208 
L 31.563384 70.7055 
" style="fill:none;stroke:#000000;stroke-width:0.5;"/>
    <path clip-path="url(#p535986946e)" d="M 33.287682 67.817949 
L 33.287682 38.699383 
" style="fill:none;stroke:#000000;stroke-width:0.5;"/>
    <path clip-path="url(#p535986946e)" d="M 38.143514 63.379486 
L 38.143514 46.656996 
" style="fill:none;stroke:#000000;stroke-width:0.5;"/>
    <path clip-path="url(#p535986946e)" d="M 37.444681 77.413183 
L 37.444681 20.75608 
" style="fill:none;stroke:#000000;stroke-width:0.5;"/>
    <path clip-path="url(#p535986946e)" d="M 40.90201 67.809937 
L 40.90201 49.216595 
" style="fill:none;stroke:#000000;stroke-width:0.5;"/>
    <path clip-path="url(#p535986946e)" d="M 28.380578 89.72872 
L 28.380578 74.607129 
" style="fill:none;stroke:#000000;stroke-width:0.5;"/>
    <path clip-path="url(#p535986946e)" d="M 34.089207 76.461671 
L 34.089207 76.461671 
" style="fill:none;stroke:#000000;stroke-width:0.5;"/>
    <path clip-path="url(#p535986946e)" d="M 33.348523 78.868643 
L 33.348523 68.394862 
" style="fill:none;stroke:#000000;stroke-width:0.5;"/>
    <path clip-path="url(#p535986946e)" d="M 39.576838 53.908969 
L 39.576838 34.976365 
" style="fill:none;stroke:#000000;stroke-width:0.5;"/>
    <path clip-path="url(#p535986946e)" d="M 30.162807 58.326325 
L 30.162807 41.851973 
" style="fill:none;stroke:#000000;stroke-width:0.5;"/>
    <path clip-path="url(#p535986946e)" d="M 42.815795 37.193424 
L 42.815795 23.481207 
" style="fill:none;stroke:#000000;stroke-width:0.5;"/>
    <path clip-path="url(#p535986946e)" d="M 30.629573 69.213358 
L 30.629573 51.653885 
" style="fill:none;stroke:#000000;stroke-width:0.5;"/>
    <path clip-path="url(#p535986946e)" d="M 41.480102 77.922851 
L 41.480102 26.989709 
" style="fill:none;stroke:#000000;stroke-width:0.5;"/>
    <path clip-path="url(#p535986946e)" d="M 37.473427 26.838887 
L 37.473427 17.918527 
" style="fill:none;stroke:#000000;stroke-width:0.5;"/>
    <path clip-path="url(#p535986946e)" d="M 40.830693 42.857089 
L 40.830693 23.437645 
" style="fill:none;stroke:#000000;stroke-width:0.5;"/>
    <path clip-path="url(#p535986946e)" d="M 28.598798 83.624332 
L 28.598798 71.784226 
" style="fill:none;stroke:#000000;stroke-width:0.5;"/>
    <path clip-path="url(#p535986946e)" d="M 33.911992 61.616686 
L 33.911992 41.866298 
" style="fill:none;stroke:#000000;stroke-width:0.5;"/>
    <path clip-path="url(#p535986946e)" d="M 31.033896 76.431884 
L 31.033896 67.248385 
" style="fill:none;stroke:#000000;stroke-width:0.5;"/>
    <path clip-path="url(#p535986946e)" d="M 34.328488 83.831708 
L 34.328488 62.846088 
" style="fill:none;stroke:#000000;stroke-width:0.5;"/>
    <path clip-path="url(#p535986946e)" d="M 28.84068 90.153503 
L 28.84068 85.317113 
" style="fill:none;stroke:#000000;stroke-width:0.5;"/>
    <path clip-path="url(#p535986946e)" d="M 36.73017 55.136749 
L 36.73017 33.682472 
" style="fill:none;stroke:#000000;stroke-width:0.5;"/>
    <path clip-path="url(#p535986946e)" d="M 29.326312 84.702854 
L 29.326312 75.412916 
" style="fill:none;stroke:#000000;stroke-width:0.5;"/>
    <path clip-path="url(#p535986946e)" d="M 35.211142 68.793945 
L 35.211142 63.433267 
" style="fill:none;stroke:#000000;stroke-width:0.5;"/>
   </g>
   <g id="line2d_1">
    <path clip-path="url(#p535986946e)" d="M 27 78.190842 
L 27.768595 76.298893 
L 28.53719 74.406945 
L 29.305785 72.514997 
L 30.07438 70.623048 
L 30.842975 68.7311 
L 31.61157 66.839152 
L 32.380165 64.947203 
L 33.14876 63.055255 
L 33.917355 61.163306 
L 34.68595 59.271358 
L 35.454545 57.37941 
L 36.22314 55.487461 
L 36.991736 53.595513 
L 37.760331 51.703564 
L 38.528926 49.811616 
L 39.297521 47.919668 
L 40.066116 46.027719 
L 40.834711 44.135771 
L 41.603306 42.243823 
L 42.371901 40.351874 
L 43.140496 38.459926 
L 43.909091 36.567977 
L 44.677686 34.676029 
L 45.446281 32.784081 
L 46.214876 30.892132 
L 46.983471 29.000184 
L 47.752066 27.108235 
L 48.520661 25.216287 
L 49.289256 23.324339 
L 50.057851 21.43239 
L 50.826446 19.540442 
L 51.595041 17.648494 
L 52.363636 15.756545 
L 53.132231 13.864597 
L 53.900826 11.972648 
L 54.669421 10.0807 
L 55.438017 8.188752 
L 56.206612 6.296803 
L 56.975207 4.404855 
L 57.743802 2.512906 
L 58.512397 0.620958 
L 59.170903 -1 
" style="fill:none;stroke:#000000;stroke-dasharray:1.85,0.8;stroke-dashoffset:0;stroke-width:0.5;"/>
   </g>
   <g id="line2d_2">
    <defs>
     <path d="M 0 3 
C 0.795609 3 1.55874 2.683901 2.12132 2.12132 
C 2.683901 1.55874 3 0.795609 3 0 
C 3 -0.795609 2.683901 -1.55874 2.12132 -2.12132 
C 1.55874 -2.683901 0.795609 -3 0 -3 
C -0.795609 -3 -1.55874 -2.683901 -2.12132 -2.12132 
C -2.683901 -1.55874 -3 -0.795609 -3 0 
C -3 0.795609 -2.683901 1.55874 -2.12132 2.12132 
C -1.55874 2.683901 -0.795609 3 0 3 
z
" id="mc085318bff" style="stroke:#000000;"/>
    </defs>
    <g clip-path="url(#p535986946e)">
     <use style="stroke:#000000;" x="38.083458" xlink:href="#mc085318bff" y="44.504502"/>
     <use style="stroke:#000000;" x="37.896482" xlink:href="#mc085318bff" y="29.214742"/>
     <use style="stroke:#000000;" x="29.448319" xlink:href="#mc085318bff" y="78.572121"/>
     <use style="stroke:#000000;" x="54.040331" xlink:href="#mc085318bff" y="28.665819"/>
     <use style="stroke:#000000;" x="30.699577" xlink:href="#mc085318bff" y="81.300252"/>
     <use style="stroke:#000000;" x="29.799443" xlink:href="#mc085318bff" y="64.178158"/>
     <use style="stroke:#000000;" x="33.199766" xlink:href="#mc085318bff" y="55.933627"/>
     <use style="stroke:#000000;" x="31.563384" xlink:href="#mc085318bff" y="75.072354"/>
     <use style="stroke:#000000;" x="33.287682" xlink:href="#mc085318bff" y="53.258666"/>
     <use style="stroke:#000000;" x="38.143514" xlink:href="#mc085318bff" y="55.018241"/>
     <use style="stroke:#000000;" x="37.444681" xlink:href="#mc085318bff" y="49.084631"/>
     <use style="stroke:#000000;" x="40.90201" xlink:href="#mc085318bff" y="58.513266"/>
     <use style="stroke:#000000;" x="28.380578" xlink:href="#mc085318bff" y="82.167924"/>
     <use style="stroke:#000000;" x="34.089207" xlink:href="#mc085318bff" y="76.461671"/>
     <use style="stroke:#000000;" x="33.348523" xlink:href="#mc085318bff" y="73.631753"/>
     <use style="stroke:#000000;" x="39.576838" xlink:href="#mc085318bff" y="44.442667"/>
     <use style="stroke:#000000;" x="30.162807" xlink:href="#mc085318bff" y="50.089149"/>
     <use style="stroke:#000000;" x="42.815795" xlink:href="#mc085318bff" y="30.337315"/>
     <use style="stroke:#000000;" x="30.629573" xlink:href="#mc085318bff" y="60.433621"/>
     <use style="stroke:#000000;" x="41.480102" xlink:href="#mc085318bff" y="52.45628"/>
     <use style="stroke:#000000;" x="37.473427" xlink:href="#mc085318bff" y="22.378707"/>
     <use style="stroke:#000000;" x="40.830693" xlink:href="#mc085318bff" y="33.147367"/>
     <use style="stroke:#000000;" x="28.598798" xlink:href="#mc085318bff" y="77.704279"/>
     <use style="stroke:#000000;" x="33.911992" xlink:href="#mc085318bff" y="51.741492"/>
     <use style="stroke:#000000;" x="31.033896" xlink:href="#mc085318bff" y="71.840134"/>
     <use style="stroke:#000000;" x="34.328488" xlink:href="#mc085318bff" y="73.338898"/>
     <use style="stroke:#000000;" x="28.84068" xlink:href="#mc085318bff" y="87.735308"/>
     <use style="stroke:#000000;" x="36.73017" xlink:href="#mc085318bff" y="44.40961"/>
     <use style="stroke:#000000;" x="29.326312" xlink:href="#mc085318bff" y="80.057885"/>
     <use style="stroke:#000000;" x="35.211142" xlink:href="#mc085318bff" y="66.113606"/>
    </g>
   </g>
   <g id="patch_3">
    <path d="M 27 94.5 
L 27 12.96 
" style="fill:none;stroke:#000000;stroke-linecap:square;stroke-linejoin:miter;"/>
   </g>
   <g id="patch_4">
    <path d="M 27 94.5 
L 103.090909 94.5 
" style="fill:none;stroke:#000000;stroke-linecap:square;stroke-linejoin:miter;"/>
   </g>
   <g id="matplotlib.axis_1">
    <g id="xtick_1">
     <g id="line2d_3"/>
     <g id="text_1">
      <text style="font-family:Arial;font-size:8px;font-style:normal;font-weight:normal;text-anchor:middle;" transform="rotate(-0, 27, 103.72625)" x="27" y="103.72625">0</text>
     </g>
    </g>
    <g id="xtick_2">
     <g id="line2d_4"/>
     <g id="text_2">
      <text style="font-family:Arial;font-size:8px;font-style:normal;font-weight:normal;text-anchor:middle;" transform="rotate(-0, 77.619599, 103.72625)" x="77.619599" y="103.72625">5</text>
     </g>
    </g>
    <g id="text_3">
     <text style="font-family:Arial;font-size:10px;font-style:normal;font-weight:normal;text-anchor:middle;" transform="rotate(-0, 65.045455, 116.474063)" x="65.045455" y="116.474063">Exc</text>
    </g>
   </g>
   <g id="matplotlib.axis_2">
    <g id="ytick_1">
     <g id="line2d_5"/>
     <g id="text_4">
      <text style="font-family:Arial;font-size:8px;font-style:normal;font-weight:normal;text-anchor:end;" transform="rotate(-0, 23.5, 97.363125)" x="23.5" y="97.363125">0</text>
     </g>
    </g>
    <g id="ytick_2">
     <g id="line2d_6"/>
     <g id="text_5">
      <text style="font-family:Arial;font-size:8px;font-style:normal;font-weight:normal;text-anchor:end;" transform="rotate(-0, 23.5, 75.665279)" x="23.5" y="75.665279">2</text>
     </g>
    </g>
    <g id="ytick_3">
     <g id="line2d_7"/>
     <g id="text_6">
      <text style="font-family:Arial;font-size:8px;font-style:normal;font-weight:normal;text-anchor:end;" transform="rotate(-0, 23.5, 53.967433)" x="23.5" y="53.967433">4</text>
     </g>
    </g>
    <g id="ytick_4">
     <g id="line2d_8"/>
     <g id="text_7">
      <text style="font-family:Arial;font-size:8px;font-style:normal;font-weight:normal;text-anchor:end;" transform="rotate(-0, 23.5, 32.269587)" x="23.5" y="32.269587">6</text>
     </g>
    </g>
    <g id="text_8">
     <text style="font-family:Arial;font-size:10px;font-style:normal;font-weight:normal;text-anchor:middle;" transform="rotate(-90, 13.06375, 53.73)" x="13.06375" y="53.73">Inh</text>
    </g>
   </g>
   <g id="legend_1">
    <g id="line2d_9">
     <path d="M 36 75.622656 
L 56 75.622656 
" style="fill:none;stroke:#000000;stroke-dasharray:1.85,0.8;stroke-dashoffset:0;stroke-width:0.5;"/>
    </g>
    <g id="line2d_10"/>
    <g id="text_9">
     <!-- $R^2$ 0.56 -->
     <g transform="translate(64 72.875)">
      <text>
       <tspan style="font-family:DejaVu Sans;font-size:10px;font-style:oblique;font-weight:oblique;" x="0" y="-0.9765625">R</tspan>
       <tspan style="font-family:DejaVu Sans;font-size:7px;font-style:book;font-weight:book;" x="7.650794" y="-4.8046875">2</tspan>
       <tspan style="font-family:Arial;font-size:10px;font-style:regular;font-weight:regular;" x="12.377845 15.156165 20.717689 23.496009 29.057533" y="-0.9765625"> 0.56</tspan>
      </text>
     </g>
     <text style="font-family:Arial;font-size:10px;font-style:normal;font-weight:normal;" transform="translate(64 83.4875)"> slope 2.30</text>
    </g>
   </g>
  </g>
  <g id="axes_2">
   <g id="patch_5">
    <path d="M 118.309091 94.5 
L 194.4 94.5 
L 194.4 12.96 
L 118.309091 12.96 
z
" style="fill:#ffffff;"/>
   </g>
   <g id="PathCollection_1">
    <defs>
     <path d="M 0 2.44949 
C 0.649612 2.44949 1.272706 2.191396 1.732051 1.732051 
C 2.191396 1.272706 2.44949 0.649612 2.44949 0 
C 2.44949 -0.649612 2.191396 -1.272706 1.732051 -1.732051 
C 1.272706 -2.191396 0.649612 -2.44949 0 -2.44949 
C -0.649612 -2.44949 -1.272706 -2.191396 -1.732051 -1.732051 
C -2.191396 -1.272706 -2.44949 -0.649612 -2.44949 0 
C -2.44949 0.649612 -2.191396 1.272706 -1.732051 1.732051 
C -1.272706 2.191396 -0.649612 2.44949 0 2.44949 
z
" id="m97442d086b" style="stroke:#000000;"/>
    </defs>
    <g clip-path="url(#pc35e5494db)">
     <use style="stroke:#000000;" x="144.638362" xlink:href="#m97442d086b" y="66.719852"/>
     <use style="stroke:#000000;" x="146.19736" xlink:href="#m97442d086b" y="82.357251"/>
     <use style="stroke:#000000;" x="127.277431" xlink:href="#m97442d086b" y="81.660817"/>
     <use style="stroke:#000000;" x="164.252586" xlink:href="#m97442d086b" y="61.670672"/>
     <use style="stroke:#000000;" x="132.961012" xlink:href="#m97442d086b" y="72.474665"/>
     <use style="stroke:#000000;" x="125.073783" xlink:href="#m97442d086b" y="84.248773"/>
     <use style="stroke:#000000;" x="142.378531" xlink:href="#m97442d086b" y="80.375009"/>
     <use style="stroke:#000000;" x="131.682095" xlink:href="#m97442d086b" y="82.58299"/>
     <use style="stroke:#000000;" x="139.332329" xlink:href="#m97442d086b" y="54.768166"/>
     <use style="stroke:#000000;" x="150.933268" xlink:href="#m97442d086b" y="71.682421"/>
     <use style="stroke:#000000;" x="160.621897" xlink:href="#m97442d086b" y="17.192259"/>
     <use style="stroke:#000000;" x="150.069622" xlink:href="#m97442d086b" y="69.129671"/>
     <use style="stroke:#000000;" x="127.537679" xlink:href="#m97442d086b" y="73.866823"/>
     <use style="stroke:#000000;" x="130.745651" xlink:href="#m97442d086b" y="94.5"/>
     <use style="stroke:#000000;" x="135.80654" xlink:href="#m97442d086b" y="80.208688"/>
     <use style="stroke:#000000;" x="128.979251" xlink:href="#m97442d086b" y="68.666754"/>
     <use style="stroke:#000000;" x="127.825545" xlink:href="#m97442d086b" y="72.021002"/>
     <use style="stroke:#000000;" x="149.700806" xlink:href="#m97442d086b" y="75.789891"/>
     <use style="stroke:#000000;" x="138.548223" xlink:href="#m97442d086b" y="70.54037"/>
     <use style="stroke:#000000;" x="155.503738" xlink:href="#m97442d086b" y="25.002515"/>
     <use style="stroke:#000000;" x="145.930284" xlink:href="#m97442d086b" y="82.328307"/>
     <use style="stroke:#000000;" x="137.174513" xlink:href="#m97442d086b" y="68.002469"/>
     <use style="stroke:#000000;" x="125.068331" xlink:href="#m97442d086b" y="78.344358"/>
     <use style="stroke:#000000;" x="132.513091" xlink:href="#m97442d086b" y="67.5509"/>
     <use style="stroke:#000000;" x="129.120449" xlink:href="#m97442d086b" y="81.969258"/>
     <use style="stroke:#000000;" x="143.986757" xlink:href="#m97442d086b" y="65.865446"/>
     <use style="stroke:#000000;" x="126.090936" xlink:href="#m97442d086b" y="87.90082"/>
     <use style="stroke:#000000;" x="144.512594" xlink:href="#m97442d086b" y="65.22597"/>
     <use style="stroke:#000000;" x="128.740725" xlink:href="#m97442d086b" y="81.824023"/>
     <use style="stroke:#000000;" x="141.025564" xlink:href="#m97442d086b" y="87.185438"/>
    </g>
   </g>
   <g id="line2d_11">
    <path clip-path="url(#pc35e5494db)" d="M 118.309091 90.501059 
L 119.077686 89.79693 
L 119.846281 89.092802 
L 120.614876 88.388673 
L 121.383471 87.684545 
L 122.152066 86.980417 
L 122.920661 86.276288 
L 123.689256 85.57216 
L 124.457851 84.868031 
L 125.226446 84.163903 
L 125.995041 83.459775 
L 126.763636 82.755646 
L 127.532231 82.051518 
L 128.300826 81.34739 
L 129.069421 80.643261 
L 129.838017 79.939133 
L 130.606612 79.235004 
L 131.375207 78.530876 
L 132.143802 77.826748 
L 132.912397 77.122619 
L 133.680992 76.418491 
L 134.449587 75.714362 
L 135.218182 75.010234 
L 135.986777 74.306106 
L 136.755372 73.601977 
L 137.523967 72.897849 
L 138.292562 72.19372 
L 139.061157 71.489592 
L 139.829752 70.785464 
L 140.598347 70.081335 
L 141.366942 69.377207 
L 142.135537 68.673078 
L 142.904132 67.96895 
L 143.672727 67.264822 
L 144.441322 66.560693 
L 145.209917 65.856565 
L 145.978512 65.152436 
L 146.747107 64.448308 
L 147.515702 63.74418 
L 148.284298 63.040051 
L 149.052893 62.335923 
L 149.821488 61.631794 
L 150.590083 60.927666 
L 151.358678 60.223538 
L 152.127273 59.519409 
L 152.895868 58.815281 
L 153.664463 58.111153 
L 154.433058 57.407024 
L 155.201653 56.702896 
L 155.970248 55.998767 
L 156.738843 55.294639 
L 157.507438 54.590511 
L 158.276033 53.886382 
L 159.044628 53.182254 
L 159.813223 52.478125 
L 160.581818 51.773997 
L 161.350413 51.069869 
L 162.119008 50.36574 
L 162.887603 49.661612 
L 163.656198 48.957483 
L 164.424793 48.253355 
L 165.193388 47.549227 
L 165.961983 46.845098 
L 166.730579 46.14097 
L 167.499174 45.436841 
L 168.267769 44.732713 
L 169.036364 44.028585 
L 169.804959 43.324456 
L 170.573554 42.620328 
L 171.342149 41.916199 
L 172.110744 41.212071 
L 172.879339 40.507943 
L 173.647934 39.803814 
L 174.416529 39.099686 
L 175.185124 38.395558 
L 175.953719 37.691429 
L 176.722314 36.987301 
L 177.490909 36.283172 
L 178.259504 35.579044 
L 179.028099 34.874916 
L 179.796694 34.170787 
L 180.565289 33.466659 
L 181.333884 32.76253 
L 182.102479 32.058402 
L 182.871074 31.354274 
L 183.639669 30.650145 
L 184.408264 29.946017 
L 185.17686 29.241888 
L 185.945455 28.53776 
L 186.71405 27.833632 
L 187.482645 27.129503 
L 188.25124 26.425375 
L 189.019835 25.721246 
L 189.78843 25.017118 
L 190.557025 24.31299 
L 191.32562 23.608861 
L 192.094215 22.904733 
L 192.86281 22.200604 
L 193.631405 21.496476 
L 194.4 20.792348 
" style="fill:none;stroke:#000000;stroke-dasharray:1.85,0.8;stroke-dashoffset:0;stroke-width:0.5;"/>
   </g>
   <g id="patch_6">
    <path d="M 118.309091 94.5 
L 118.309091 12.96 
" style="fill:none;stroke:#000000;stroke-linecap:square;stroke-linejoin:miter;"/>
   </g>
   <g id="patch_7">
    <path d="M 118.309091 94.5 
L 194.4 94.5 
" style="fill:none;stroke:#000000;stroke-linecap:square;stroke-linejoin:miter;"/>
   </g>
   <g id="matplotlib.axis_3">
    <g id="xtick_3">
     <g id="line2d_12"/>
     <g id="text_10">
      <text style="font-family:Arial;font-size:8px;font-style:normal;font-weight:normal;text-anchor:middle;" transform="rotate(-0, 118.309091, 103.72625)" x="118.309091" y="103.72625">0</text>
     </g>
    </g>
    <g id="xtick_4">
     <g id="line2d_13"/>
     <g id="text_11">
      <text style="font-family:Arial;font-size:8px;font-style:normal;font-weight:normal;text-anchor:middle;" transform="rotate(-0, 145.936955, 103.72625)" x="145.936955" y="103.72625">1</text>
     </g>
    </g>
    <g id="xtick_5">
     <g id="line2d_14"/>
     <g id="text_12">
      <text style="font-family:Arial;font-size:8px;font-style:normal;font-weight:normal;text-anchor:middle;" transform="rotate(-0, 173.564819, 103.72625)" x="173.564819" y="103.72625">2</text>
     </g>
    </g>
    <g id="text_13">
     <!-- $\sigma$(Exc) -->
     <g transform="translate(141.504545 116.61625)">
      <text>
       <tspan style="font-family:DejaVu Sans;font-size:10px;font-style:oblique;font-weight:oblique;" x="0" y="-0.71875">σ</tspan>
       <tspan style="font-family:Arial;font-size:10px;font-style:regular;font-weight:regular;" x="6.337891 9.667969 16.337891 21.337891 26.337891" y="-0.71875">(Exc)</tspan>
      </text>
     </g>
    </g>
   </g>
   <g id="matplotlib.axis_4">
    <g id="ytick_5">
     <g id="line2d_15"/>
     <g id="text_14">
      <text style="font-family:Arial;font-size:8px;font-style:normal;font-weight:normal;text-anchor:end;" transform="rotate(-0, 114.809091, 97.363125)" x="114.809091" y="97.363125">0</text>
     </g>
    </g>
    <g id="ytick_6">
     <g id="line2d_16"/>
     <g id="text_15">
      <text style="font-family:Arial;font-size:8px;font-style:normal;font-weight:normal;text-anchor:end;" transform="rotate(-0, 114.809091, 67.756749)" x="114.809091" y="67.756749">1</text>
     </g>
    </g>
    <g id="ytick_7">
     <g id="line2d_17"/>
     <g id="text_16">
      <text style="font-family:Arial;font-size:8px;font-style:normal;font-weight:normal;text-anchor:end;" transform="rotate(-0, 114.809091, 38.150374)" x="114.809091" y="38.150374">2</text>
     </g>
    </g>
    <g id="text_17">
     <!-- $\sigma$(Inh) -->
     <g transform="translate(104.160341 67.18)rotate(-90)">
      <text>
       <tspan style="font-family:DejaVu Sans;font-size:10px;font-style:oblique;font-weight:oblique;" x="0" y="-0.71875">σ</tspan>
       <tspan style="font-family:Arial;font-size:10px;font-style:regular;font-weight:regular;" x="6.337891 9.667969 12.446289 18.007812 23.569336" y="-0.71875">(Inh)</tspan>
      </text>
     </g>
    </g>
   </g>
   <g id="legend_2">
    <g id="line2d_18">
     <path d="M 108.478125 31.995156 
L 128.478125 31.995156 
" style="fill:none;stroke:#000000;stroke-dasharray:1.85,0.8;stroke-dashoffset:0;stroke-width:0.5;"/>
    </g>
    <g id="line2d_19"/>
    <g id="text_18">
     <!-- $R^2$ 0.37 -->
     <g transform="translate(136.478125 29.2475)">
      <text>
       <tspan style="font-family:DejaVu Sans;font-size:10px;font-style:oblique;font-weight:oblique;" x="0" y="-0.9765625">R</tspan>
       <tspan style="font-family:DejaVu Sans;font-size:7px;font-style:book;font-weight:book;" x="7.650794" y="-4.8046875">2</tspan>
       <tspan style="font-family:Arial;font-size:10px;font-style:regular;font-weight:regular;" x="12.377845 15.156165 20.717689 23.496009 29.057533" y="-0.9765625"> 0.37</tspan>
      </text>
     </g>
     <text style="font-family:Arial;font-size:10px;font-style:normal;font-weight:normal;" transform="translate(136.478125 39.86)"> slope 0.85</text>
    </g>
   </g>
  </g>
 </g>
 <defs>
  <clipPath id="p535986946e">
   <rect height="81.54" width="76.090909" x="27" y="12.96"/>
  </clipPath>
  <clipPath id="pc35e5494db">
   <rect height="81.54" width="76.090909" x="118.309091" y="12.96"/>
  </clipPath>
 </defs>
</svg>
