<?xml version="1.0" encoding="utf-8" standalone="no"?>
<!DOCTYPE svg PUBLIC "-//W3C//DTD SVG 1.1//EN"
  "http://www.w3.org/Graphics/SVG/1.1/DTD/svg11.dtd">
<!-- Created with matplotlib (http://matplotlib.org/) -->
<svg height="108pt" version="1.1" viewBox="0 0 216 108" width="216pt" xmlns="http://www.w3.org/2000/svg" xmlns:xlink="http://www.w3.org/1999/xlink">
 <defs>
  <style type="text/css">
*{stroke-linecap:butt;stroke-linejoin:round;}
  </style>
 </defs>
 <g id="figure_1">
  <g id="patch_1">
   <path d="M 0 108 
L 216 108 
L 216 0 
L 0 0 
z
" style="fill:#ffffff;"/>
  </g>
  <g id="axes_1">
   <g id="patch_2">
    <path d="M 27 94.5 
L 103.090909 94.5 
L 103.090909 12.96 
L 27 12.96 
z
" style="fill:#ffffff;"/>
   </g>
   <g id="LineCollection_1">
    <path clip-path="url(#p0820fadb37)" d="M 28.890936 74.182704 
L 34.55032 74.182704 
" style="fill:none;stroke:#000000;stroke-width:0.5;"/>
    <path clip-path="url(#p0820fadb37)" d="M 26.44139 90.23113 
L 28.329379 90.23113 
" style="fill:none;stroke:#000000;stroke-width:0.5;"/>
    <path clip-path="url(#p0820fadb37)" d="M 29.50607 36.136209 
L 36.160117 36.136209 
" style="fill:none;stroke:#000000;stroke-width:0.5;"/>
    <path clip-path="url(#p0820fadb37)" d="M 25.777862 88.666962 
L 30.706447 88.666962 
" style="fill:none;stroke:#000000;stroke-width:0.5;"/>
    <path clip-path="url(#p0820fadb37)" d="M 26.478253 84.602551 
L 28.241652 84.602551 
" style="fill:none;stroke:#000000;stroke-width:0.5;"/>
    <path clip-path="url(#p0820fadb37)" d="M 26.431072 62.942278 
L 45.258347 62.942278 
" style="fill:none;stroke:#000000;stroke-width:0.5;"/>
    <path clip-path="url(#p0820fadb37)" d="M 32.253384 26.003093 
L 42.829874 26.003093 
" style="fill:none;stroke:#000000;stroke-width:0.5;"/>
    <path clip-path="url(#p0820fadb37)" d="M 23.235112 66.041058 
L 44.369478 66.041058 
" style="fill:none;stroke:#000000;stroke-width:0.5;"/>
    <path clip-path="url(#p0820fadb37)" d="M 28.747685 70.306438 
L 40.121802 70.306438 
" style="fill:none;stroke:#000000;stroke-width:0.5;"/>
    <path clip-path="url(#p0820fadb37)" d="M 26.406364 60.981983 
L 32.391956 60.981983 
" style="fill:none;stroke:#000000;stroke-width:0.5;"/>
    <path clip-path="url(#p0820fadb37)" d="M 26.654316 66.680431 
L 39.126637 66.680431 
" style="fill:none;stroke:#000000;stroke-width:0.5;"/>
    <path clip-path="url(#p0820fadb37)" d="M 26.807927 90.774641 
L 31.216849 90.774641 
" style="fill:none;stroke:#000000;stroke-width:0.5;"/>
    <path clip-path="url(#p0820fadb37)" d="M 22.740298 59.633469 
L 42.30274 59.633469 
" style="fill:none;stroke:#000000;stroke-width:0.5;"/>
    <path clip-path="url(#p0820fadb37)" d="M 24.765513 74.816444 
L 35.306973 74.816444 
" style="fill:none;stroke:#000000;stroke-width:0.5;"/>
    <path clip-path="url(#p0820fadb37)" d="M 28.050292 58.291477 
L 43.844985 58.291477 
" style="fill:none;stroke:#000000;stroke-width:0.5;"/>
    <path clip-path="url(#p0820fadb37)" d="M 25.568463 70.148601 
L 30.406765 70.148601 
" style="fill:none;stroke:#000000;stroke-width:0.5;"/>
    <path clip-path="url(#p0820fadb37)" d="M 26.137433 81.232605 
L 30.808735 81.232605 
" style="fill:none;stroke:#000000;stroke-width:0.5;"/>
    <path clip-path="url(#p0820fadb37)" d="M 27.236718 74.231568 
L 34.560077 74.231568 
" style="fill:none;stroke:#000000;stroke-width:0.5;"/>
    <path clip-path="url(#p0820fadb37)" d="M 26.73475 77.796735 
L 31.198507 77.796735 
" style="fill:none;stroke:#000000;stroke-width:0.5;"/>
    <path clip-path="url(#p0820fadb37)" d="M 25.449253 84.428921 
L 33.694083 84.428921 
" style="fill:none;stroke:#000000;stroke-width:0.5;"/>
    <path clip-path="url(#p0820fadb37)" d="M 26.691818 77.944337 
L 30.514846 77.944337 
" style="fill:none;stroke:#000000;stroke-width:0.5;"/>
    <path clip-path="url(#p0820fadb37)" d="M 26.466626 70.613816 
L 38.159764 70.613816 
" style="fill:none;stroke:#000000;stroke-width:0.5;"/>
    <path clip-path="url(#p0820fadb37)" d="M 25.791327 72.21641 
L 36.446938 72.21641 
" style="fill:none;stroke:#000000;stroke-width:0.5;"/>
    <path clip-path="url(#p0820fadb37)" d="M 26.686269 88.35531 
L 30.28474 88.35531 
" style="fill:none;stroke:#000000;stroke-width:0.5;"/>
    <path clip-path="url(#p0820fadb37)" d="M 27.413022 88.436026 
L 31.383485 88.436026 
" style="fill:none;stroke:#000000;stroke-width:0.5;"/>
    <path clip-path="url(#p0820fadb37)" d="M 26.790803 57.325955 
L 42.847805 57.325955 
" style="fill:none;stroke:#000000;stroke-width:0.5;"/>
    <path clip-path="url(#p0820fadb37)" d="M 31.504516 74.653578 
L 42.784136 74.653578 
" style="fill:none;stroke:#000000;stroke-width:0.5;"/>
    <path clip-path="url(#p0820fadb37)" d="M 27.591076 76.725378 
L 34.848749 76.725378 
" style="fill:none;stroke:#000000;stroke-width:0.5;"/>
    <path clip-path="url(#p0820fadb37)" d="M 25.879979 83.577368 
L 33.558122 83.577368 
" style="fill:none;stroke:#000000;stroke-width:0.5;"/>
    <path clip-path="url(#p0820fadb37)" d="M 26.521572 92.566664 
L 29.220721 92.566664 
" style="fill:none;stroke:#000000;stroke-width:0.5;"/>
   </g>
   <g id="LineCollection_2">
    <path clip-path="url(#p0820fadb37)" d="M 31.720628 77.754206 
L 31.720628 70.611202 
" style="fill:none;stroke:#000000;stroke-width:0.5;"/>
    <path clip-path="url(#p0820fadb37)" d="M 27.385384 91.283511 
L 27.385384 89.178748 
" style="fill:none;stroke:#000000;stroke-width:0.5;"/>
    <path clip-path="url(#p0820fadb37)" d="M 32.833093 50.859363 
L 32.833093 21.413055 
" style="fill:none;stroke:#000000;stroke-width:0.5;"/>
    <path clip-path="url(#p0820fadb37)" d="M 28.242155 90.78655 
L 28.242155 86.547374 
" style="fill:none;stroke:#000000;stroke-width:0.5;"/>
    <path clip-path="url(#p0820fadb37)" d="M 27.359952 86.255865 
L 27.359952 82.949237 
" style="fill:none;stroke:#000000;stroke-width:0.5;"/>
    <path clip-path="url(#p0820fadb37)" d="M 35.84471 68.719511 
L 35.84471 57.165045 
" style="fill:none;stroke:#000000;stroke-width:0.5;"/>
    <path clip-path="url(#p0820fadb37)" d="M 37.541629 35.18408 
L 37.541629 16.822106 
" style="fill:none;stroke:#000000;stroke-width:0.5;"/>
    <path clip-path="url(#p0820fadb37)" d="M 33.802295 76.274106 
L 33.802295 55.808011 
" style="fill:none;stroke:#000000;stroke-width:0.5;"/>
    <path clip-path="url(#p0820fadb37)" d="M 34.434744 71.985768 
L 34.434744 68.627108 
" style="fill:none;stroke:#000000;stroke-width:0.5;"/>
    <path clip-path="url(#p0820fadb37)" d="M 29.39916 63.737071 
L 29.39916 58.226895 
" style="fill:none;stroke:#000000;stroke-width:0.5;"/>
    <path clip-path="url(#p0820fadb37)" d="M 32.890476 70.0428 
L 32.890476 63.318061 
" style="fill:none;stroke:#000000;stroke-width:0.5;"/>
    <path clip-path="url(#p0820fadb37)" d="M 29.012388 92.599687 
L 29.012388 88.949596 
" style="fill:none;stroke:#000000;stroke-width:0.5;"/>
    <path clip-path="url(#p0820fadb37)" d="M 32.521519 67.516087 
L 32.521519 51.750851 
" style="fill:none;stroke:#000000;stroke-width:0.5;"/>
    <path clip-path="url(#p0820fadb37)" d="M 30.036243 78.810678 
L 30.036243 70.82221 
" style="fill:none;stroke:#000000;stroke-width:0.5;"/>
    <path clip-path="url(#p0820fadb37)" d="M 35.947639 69.395624 
L 35.947639 47.18733 
" style="fill:none;stroke:#000000;stroke-width:0.5;"/>
    <path clip-path="url(#p0820fadb37)" d="M 27.987614 72.829017 
L 27.987614 67.468184 
" style="fill:none;stroke:#000000;stroke-width:0.5;"/>
    <path clip-path="url(#p0820fadb37)" d="M 28.473084 84.270261 
L 28.473084 78.194949 
" style="fill:none;stroke:#000000;stroke-width:0.5;"/>
    <path clip-path="url(#p0820fadb37)" d="M 30.898397 75.984029 
L 30.898397 72.479106 
" style="fill:none;stroke:#000000;stroke-width:0.5;"/>
    <path clip-path="url(#p0820fadb37)" d="M 28.966628 82.094589 
L 28.966628 73.498881 
" style="fill:none;stroke:#000000;stroke-width:0.5;"/>
    <path clip-path="url(#p0820fadb37)" d="M 29.571668 89.149513 
L 29.571668 79.708328 
" style="fill:none;stroke:#000000;stroke-width:0.5;"/>
    <path clip-path="url(#p0820fadb37)" d="M 28.603332 82.754451 
L 28.603332 73.134223 
" style="fill:none;stroke:#000000;stroke-width:0.5;"/>
    <path clip-path="url(#p0820fadb37)" d="M 32.313195 78.480682 
L 32.313195 62.746951 
" style="fill:none;stroke:#000000;stroke-width:0.5;"/>
    <path clip-path="url(#p0820fadb37)" d="M 31.119132 78.056523 
L 31.119132 66.376297 
" style="fill:none;stroke:#000000;stroke-width:0.5;"/>
    <path clip-path="url(#p0820fadb37)" d="M 28.485505 90.36231 
L 28.485505 86.348309 
" style="fill:none;stroke:#000000;stroke-width:0.5;"/>
    <path clip-path="url(#p0820fadb37)" d="M 29.398254 91.247661 
L 29.398254 85.624391 
" style="fill:none;stroke:#000000;stroke-width:0.5;"/>
    <path clip-path="url(#p0820fadb37)" d="M 34.819304 65.381843 
L 34.819304 49.270067 
" style="fill:none;stroke:#000000;stroke-width:0.5;"/>
    <path clip-path="url(#p0820fadb37)" d="M 37.144326 79.494465 
L 37.144326 69.812691 
" style="fill:none;stroke:#000000;stroke-width:0.5;"/>
    <path clip-path="url(#p0820fadb37)" d="M 31.219912 78.535833 
L 31.219912 74.914922 
" style="fill:none;stroke:#000000;stroke-width:0.5;"/>
    <path clip-path="url(#p0820fadb37)" d="M 29.71905 87.177744 
L 29.71905 79.976993 
" style="fill:none;stroke:#000000;stroke-width:0.5;"/>
    <path clip-path="url(#p0820fadb37)" d="M 27.871147 94.06422 
L 27.871147 91.069108 
" style="fill:none;stroke:#000000;stroke-width:0.5;"/>
   </g>
   <g id="line2d_1">
    <path clip-path="url(#p0820fadb37)" d="M 27 88.017306 
L 27.768595 85.201701 
L 28.53719 82.386097 
L 29.305785 79.570492 
L 30.07438 76.754887 
L 30.842975 73.939283 
L 31.61157 71.123678 
L 32.380165 68.308074 
L 33.14876 65.492469 
L 33.917355 62.676864 
L 34.68595 59.86126 
L 35.454545 57.045655 
L 36.22314 54.230051 
L 36.991736 51.414446 
L 37.760331 48.598841 
L 38.528926 45.783237 
L 39.297521 42.967632 
L 40.066116 40.152028 
L 40.834711 37.336423 
L 41.603306 34.520818 
L 42.371901 31.705214 
L 43.140496 28.889609 
L 43.909091 26.074005 
L 44.677686 23.2584 
L 45.446281 20.442796 
L 46.214876 17.627191 
L 46.983471 14.811586 
L 47.752066 11.995982 
L 48.520661 9.180377 
L 49.289256 6.364773 
L 50.057851 3.549168 
L 50.826446 0.733563 
L 51.299669 -1 
" style="fill:none;stroke:#000000;stroke-dasharray:1.85,0.8;stroke-dashoffset:0;stroke-width:0.5;"/>
   </g>
   <g id="line2d_2">
    <defs>
     <path d="M 0 3 
C 0.795609 3 1.55874 2.683901 2.12132 2.12132 
C 2.683901 1.55874 3 0.795609 3 0 
C 3 -0.795609 2.683901 -1.55874 2.12132 -2.12132 
C 1.55874 -2.683901 0.795609 -3 0 -3 
C -0.795609 -3 -1.55874 -2.683901 -2.12132 -2.12132 
C -2.683901 -1.55874 -3 -0.795609 -3 0 
C -3 0.795609 -2.683901 1.55874 -2.12132 2.12132 
C -1.55874 2.683901 -0.795609 3 0 3 
z
" id="m251e73330b" style="stroke:#000000;"/>
    </defs>
    <g clip-path="url(#p0820fadb37)">
     <use style="stroke:#000000;" x="31.720628" xlink:href="#m251e73330b" y="74.182704"/>
     <use style="stroke:#000000;" x="27.385384" xlink:href="#m251e73330b" y="90.23113"/>
     <use style="stroke:#000000;" x="32.833093" xlink:href="#m251e73330b" y="36.136209"/>
     <use style="stroke:#000000;" x="28.242155" xlink:href="#m251e73330b" y="88.666962"/>
     <use style="stroke:#000000;" x="27.359952" xlink:href="#m251e73330b" y="84.602551"/>
     <use style="stroke:#000000;" x="35.84471" xlink:href="#m251e73330b" y="62.942278"/>
     <use style="stroke:#000000;" x="37.541629" xlink:href="#m251e73330b" y="26.003093"/>
     <use style="stroke:#000000;" x="33.802295" xlink:href="#m251e73330b" y="66.041058"/>
     <use style="stroke:#000000;" x="34.434744" xlink:href="#m251e73330b" y="70.306438"/>
     <use style="stroke:#000000;" x="29.39916" xlink:href="#m251e73330b" y="60.981983"/>
     <use style="stroke:#000000;" x="32.890476" xlink:href="#m251e73330b" y="66.680431"/>
     <use style="stroke:#000000;" x="29.012388" xlink:href="#m251e73330b" y="90.774641"/>
     <use style="stroke:#000000;" x="32.521519" xlink:href="#m251e73330b" y="59.633469"/>
     <use style="stroke:#000000;" x="30.036243" xlink:href="#m251e73330b" y="74.816444"/>
     <use style="stroke:#000000;" x="35.947639" xlink:href="#m251e73330b" y="58.291477"/>
     <use style="stroke:#000000;" x="27.987614" xlink:href="#m251e73330b" y="70.148601"/>
     <use style="stroke:#000000;" x="28.473084" xlink:href="#m251e73330b" y="81.232605"/>
     <use style="stroke:#000000;" x="30.898397" xlink:href="#m251e73330b" y="74.231568"/>
     <use style="stroke:#000000;" x="28.966628" xlink:href="#m251e73330b" y="77.796735"/>
     <use style="stroke:#000000;" x="29.571668" xlink:href="#m251e73330b" y="84.428921"/>
     <use style="stroke:#000000;" x="28.603332" xlink:href="#m251e73330b" y="77.944337"/>
     <use style="stroke:#000000;" x="32.313195" xlink:href="#m251e73330b" y="70.613816"/>
     <use style="stroke:#000000;" x="31.119132" xlink:href="#m251e73330b" y="72.21641"/>
     <use style="stroke:#000000;" x="28.485505" xlink:href="#m251e73330b" y="88.35531"/>
     <use style="stroke:#000000;" x="29.398254" xlink:href="#m251e73330b" y="88.436026"/>
     <use style="stroke:#000000;" x="34.819304" xlink:href="#m251e73330b" y="57.325955"/>
     <use style="stroke:#000000;" x="37.144326" xlink:href="#m251e73330b" y="74.653578"/>
     <use style="stroke:#000000;" x="31.219912" xlink:href="#m251e73330b" y="76.725378"/>
     <use style="stroke:#000000;" x="29.71905" xlink:href="#m251e73330b" y="83.577368"/>
     <use style="stroke:#000000;" x="27.871147" xlink:href="#m251e73330b" y="92.566664"/>
    </g>
   </g>
   <g id="patch_3">
    <path d="M 27 94.5 
L 27 12.96 
" style="fill:none;stroke:#000000;stroke-linecap:square;stroke-linejoin:miter;"/>
   </g>
   <g id="patch_4">
    <path d="M 27 94.5 
L 103.090909 94.5 
" style="fill:none;stroke:#000000;stroke-linecap:square;stroke-linejoin:miter;"/>
   </g>
   <g id="matplotlib.axis_1">
    <g id="xtick_1">
     <g id="line2d_3"/>
     <g id="text_1">
      <text style="font-family:Arial;font-size:8px;font-style:normal;font-weight:normal;text-anchor:middle;" transform="rotate(-0, 27, 103.72625)" x="27" y="103.72625">0</text>
     </g>
    </g>
    <g id="xtick_2">
     <g id="line2d_4"/>
     <g id="text_2">
      <text style="font-family:Arial;font-size:8px;font-style:normal;font-weight:normal;text-anchor:middle;" transform="rotate(-0, 57.302821, 103.72625)" x="57.302821" y="103.72625">5</text>
     </g>
    </g>
    <g id="xtick_3">
     <g id="line2d_5"/>
     <g id="text_3">
      <text style="font-family:Arial;font-size:8px;font-style:normal;font-weight:normal;text-anchor:middle;" transform="rotate(-0, 87.605642, 103.72625)" x="87.605642" y="103.72625">10</text>
     </g>
    </g>
    <g id="text_4">
     <text style="font-family:Arial;font-size:10px;font-style:normal;font-weight:normal;text-anchor:middle;" transform="rotate(-0, 65.045455, 116.474063)" x="65.045455" y="116.474063">Exc</text>
    </g>
   </g>
   <g id="matplotlib.axis_2">
    <g id="ytick_1">
     <g id="line2d_6"/>
     <g id="text_5">
      <text style="font-family:Arial;font-size:8px;font-style:normal;font-weight:normal;text-anchor:end;" transform="rotate(-0, 23.5, 97.363125)" x="23.5" y="97.363125">0</text>
     </g>
    </g>
    <g id="ytick_2">
     <g id="line2d_7"/>
     <g id="text_6">
      <text style="font-family:Arial;font-size:8px;font-style:normal;font-weight:normal;text-anchor:end;" transform="rotate(-0, 23.5, 64.890231)" x="23.5" y="64.890231">5</text>
     </g>
    </g>
    <g id="ytick_3">
     <g id="line2d_8"/>
     <g id="text_7">
      <text style="font-family:Arial;font-size:8px;font-style:normal;font-weight:normal;text-anchor:end;" transform="rotate(-0, 23.5, 32.417337)" x="23.5" y="32.417337">10</text>
     </g>
    </g>
    <g id="text_8">
     <text style="font-family:Arial;font-size:10px;font-style:normal;font-weight:normal;text-anchor:middle;" transform="rotate(-90, 8.615, 53.73)" x="8.615" y="53.73">Inh</text>
    </g>
   </g>
   <g id="legend_1">
    <g id="line2d_9">
     <path d="M 36 75.622656 
L 56 75.622656 
" style="fill:none;stroke:#000000;stroke-dasharray:1.85,0.8;stroke-dashoffset:0;stroke-width:0.5;"/>
    </g>
    <g id="line2d_10"/>
    <g id="text_9">
     <!-- $R^2$ 0.52 -->
     <g transform="translate(64 72.875)">
      <text>
       <tspan style="font-family:DejaVu Sans;font-size:10px;font-style:oblique;font-weight:oblique;" x="0" y="-0.9765625">R</tspan>
       <tspan style="font-family:DejaVu Sans;font-size:7px;font-style:book;font-weight:book;" x="7.650794" y="-4.8046875">2</tspan>
       <tspan style="font-family:Arial;font-size:10px;font-style:regular;font-weight:regular;" x="12.377845 15.156165 20.717689 23.496009 29.057533" y="-0.9765625"> 0.52</tspan>
      </text>
     </g>
     <text style="font-family:Arial;font-size:10px;font-style:normal;font-weight:normal;" transform="translate(64 83.4875)"> slope 3.42</text>
    </g>
   </g>
  </g>
  <g id="axes_2">
   <g id="patch_5">
    <path d="M 118.309091 94.5 
L 194.4 94.5 
L 194.4 12.96 
L 118.309091 12.96 
z
" style="fill:#ffffff;"/>
   </g>
   <g id="PathCollection_1">
    <defs>
     <path d="M 0 2.44949 
C 0.649612 2.44949 1.272706 2.191396 1.732051 1.732051 
C 2.191396 1.272706 2.44949 0.649612 2.44949 0 
C 2.44949 -0.649612 2.191396 -1.272706 1.732051 -1.732051 
C 1.272706 -2.191396 0.649612 -2.44949 0 -2.44949 
C -0.649612 -2.44949 -1.272706 -2.191396 -1.732051 -1.732051 
C -2.191396 -1.272706 -2.44949 -0.649612 -2.44949 0 
C -2.44949 0.649612 -2.191396 1.272706 -1.732051 1.732051 
C -1.272706 2.191396 -0.649612 2.44949 0 2.44949 
z
" id="m48038a91e0" style="stroke:#000000;"/>
    </defs>
    <g clip-path="url(#p90182870d3)">
     <use style="stroke:#000000;" x="133.207427" xlink:href="#m48038a91e0" y="75.696034"/>
     <use style="stroke:#000000;" x="123.279224" xlink:href="#m48038a91e0" y="88.959209"/>
     <use style="stroke:#000000;" x="135.825879" xlink:href="#m48038a91e0" y="16.982552"/>
     <use style="stroke:#000000;" x="131.283597" xlink:href="#m48038a91e0" y="83.340362"/>
     <use style="stroke:#000000;" x="122.951243" xlink:href="#m48038a91e0" y="85.795297"/>
     <use style="stroke:#000000;" x="167.871918" xlink:href="#m48038a91e0" y="64.082853"/>
     <use style="stroke:#000000;" x="146.151715" xlink:href="#m48038a91e0" y="46.162076"/>
     <use style="stroke:#000000;" x="173.945338" xlink:href="#m48038a91e0" y="40.622977"/>
     <use style="stroke:#000000;" x="148.251468" xlink:href="#m48038a91e0" y="85.658321"/>
     <use style="stroke:#000000;" x="134.066169" xlink:href="#m48038a91e0" y="79.994454"/>
     <use style="stroke:#000000;" x="151.142493" xlink:href="#m48038a91e0" y="76.797117"/>
     <use style="stroke:#000000;" x="129.915583" xlink:href="#m48038a91e0" y="84.89113"/>
     <use style="stroke:#000000;" x="169.807247" xlink:href="#m48038a91e0" y="52.997994"/>
     <use style="stroke:#000000;" x="146.0595" xlink:href="#m48038a91e0" y="73.470348"/>
     <use style="stroke:#000000;" x="159.88864" xlink:href="#m48038a91e0" y="36.036637"/>
     <use style="stroke:#000000;" x="131.045926" xlink:href="#m48038a91e0" y="80.387598"/>
     <use style="stroke:#000000;" x="130.606298" xlink:href="#m48038a91e0" y="78.506732"/>
     <use style="stroke:#000000;" x="137.587843" xlink:href="#m48038a91e0" y="85.273285"/>
     <use style="stroke:#000000;" x="130.059937" xlink:href="#m48038a91e0" y="71.871787"/>
     <use style="stroke:#000000;" x="140.013619" xlink:href="#m48038a91e0" y="69.646068"/>
     <use style="stroke:#000000;" x="128.373215" xlink:href="#m48038a91e0" y="69.174735"/>
     <use style="stroke:#000000;" x="149.091294" xlink:href="#m48038a91e0" y="53.080931"/>
     <use style="stroke:#000000;" x="146.360001" xlink:href="#m48038a91e0" y="63.751789"/>
     <use style="stroke:#000000;" x="127.782072" xlink:href="#m48038a91e0" y="83.933136"/>
     <use style="stroke:#000000;" x="128.761339" xlink:href="#m48038a91e0" y="79.696733"/>
     <use style="stroke:#000000;" x="160.579171" xlink:href="#m48038a91e0" y="52.085725"/>
     <use style="stroke:#000000;" x="148.002705" xlink:href="#m48038a91e0" y="69.012716"/>
     <use style="stroke:#000000;" x="137.414924" xlink:href="#m48038a91e0" y="84.967948"/>
     <use style="stroke:#000000;" x="138.521813" xlink:href="#m48038a91e0" y="75.544015"/>
     <use style="stroke:#000000;" x="125.414604" xlink:href="#m48038a91e0" y="86.615364"/>
    </g>
   </g>
   <g id="line2d_11">
    <path clip-path="url(#p90182870d3)" d="M 118.309091 86.902797 
L 119.077686 86.327411 
L 119.846281 85.752026 
L 120.614876 85.17664 
L 121.383471 84.601255 
L 122.152066 84.02587 
L 122.920661 83.450484 
L 123.689256 82.875099 
L 124.457851 82.299714 
L 125.226446 81.724328 
L 125.995041 81.148943 
L 126.763636 80.573558 
L 127.532231 79.998172 
L 128.300826 79.422787 
L 129.069421 78.847401 
L 129.838017 78.272016 
L 130.606612 77.696631 
L 131.375207 77.121245 
L 132.143802 76.54586 
L 132.912397 75.970475 
L 133.680992 75.395089 
L 134.449587 74.819704 
L 135.218182 74.244319 
L 135.986777 73.668933 
L 136.755372 73.093548 
L 137.523967 72.518163 
L 138.292562 71.942777 
L 139.061157 71.367392 
L 139.829752 70.792006 
L 140.598347 70.216621 
L 141.366942 69.641236 
L 142.135537 69.06585 
L 142.904132 68.490465 
L 143.672727 67.91508 
L 144.441322 67.339694 
L 145.209917 66.764309 
L 145.978512 66.188924 
L 146.747107 65.613538 
L 147.515702 65.038153 
L 148.284298 64.462767 
L 149.052893 63.887382 
L 149.821488 63.311997 
L 150.590083 62.736611 
L 151.358678 62.161226 
L 152.127273 61.585841 
L 152.895868 61.010455 
L 153.664463 60.43507 
L 154.433058 59.859685 
L 155.201653 59.284299 
L 155.970248 58.708914 
L 156.738843 58.133529 
L 157.507438 57.558143 
L 158.276033 56.982758 
L 159.044628 56.407372 
L 159.813223 55.831987 
L 160.581818 55.256602 
L 161.350413 54.681216 
L 162.119008 54.105831 
L 162.887603 53.530446 
L 163.656198 52.95506 
L 164.424793 52.379675 
L 165.193388 51.80429 
L 165.961983 51.228904 
L 166.730579 50.653519 
L 167.499174 50.078133 
L 168.267769 49.502748 
L 169.036364 48.927363 
L 169.804959 48.351977 
L 170.573554 47.776592 
L 171.342149 47.201207 
L 172.110744 46.625821 
L 172.879339 46.050436 
L 173.647934 45.475051 
L 174.416529 44.899665 
L 175.185124 44.32428 
L 175.953719 43.748895 
L 176.722314 43.173509 
L 177.490909 42.598124 
L 178.259504 42.022738 
L 179.028099 41.447353 
L 179.796694 40.871968 
L 180.565289 40.296582 
L 181.333884 39.721197 
L 182.102479 39.145812 
L 182.871074 38.570426 
L 183.639669 37.995041 
L 184.408264 37.419656 
L 185.17686 36.84427 
L 185.945455 36.268885 
L 186.71405 35.693499 
L 187.482645 35.118114 
L 188.25124 34.542729 
L 189.019835 33.967343 
L 189.78843 33.391958 
L 190.557025 32.816573 
L 191.32562 32.241187 
L 192.094215 31.665802 
L 192.86281 31.090417 
L 193.631405 30.515031 
L 194.4 29.939646 
" style="fill:none;stroke:#000000;stroke-dasharray:1.85,0.8;stroke-dashoffset:0;stroke-width:0.5;"/>
   </g>
   <g id="patch_6">
    <path d="M 118.309091 94.5 
L 118.309091 12.96 
" style="fill:none;stroke:#000000;stroke-linecap:square;stroke-linejoin:miter;"/>
   </g>
   <g id="patch_7">
    <path d="M 118.309091 94.5 
L 194.4 94.5 
" style="fill:none;stroke:#000000;stroke-linecap:square;stroke-linejoin:miter;"/>
   </g>
   <g id="matplotlib.axis_3">
    <g id="xtick_4">
     <g id="line2d_12"/>
     <g id="text_10">
      <text style="font-family:Arial;font-size:8px;font-style:normal;font-weight:normal;text-anchor:middle;" transform="rotate(-0, 118.309091, 103.72625)" x="118.309091" y="103.72625">0</text>
     </g>
    </g>
    <g id="xtick_5">
     <g id="line2d_13"/>
     <g id="text_11">
      <text style="font-family:Arial;font-size:8px;font-style:normal;font-weight:normal;text-anchor:middle;" transform="rotate(-0, 150.217978, 103.72625)" x="150.217978" y="103.72625">1</text>
     </g>
    </g>
    <g id="xtick_6">
     <g id="line2d_14"/>
     <g id="text_12">
      <text style="font-family:Arial;font-size:8px;font-style:normal;font-weight:normal;text-anchor:middle;" transform="rotate(-0, 182.126865, 103.72625)" x="182.126865" y="103.72625">2</text>
     </g>
    </g>
    <g id="text_13">
     <!-- $\sigma$(Exc) -->
     <g transform="translate(141.504545 116.61625)">
      <text>
       <tspan style="font-family:DejaVu Sans;font-size:10px;font-style:oblique;font-weight:oblique;" x="0" y="-0.71875">σ</tspan>
       <tspan style="font-family:Arial;font-size:10px;font-style:regular;font-weight:regular;" x="6.337891 9.667969 16.337891 21.337891 26.337891" y="-0.71875">(Exc)</tspan>
      </text>
     </g>
    </g>
   </g>
   <g id="matplotlib.axis_4">
    <g id="ytick_4">
     <g id="line2d_15"/>
     <g id="text_14">
      <text style="font-family:Arial;font-size:8px;font-style:normal;font-weight:normal;text-anchor:end;" transform="rotate(-0, 114.809091, 97.363125)" x="114.809091" y="97.363125">0.0</text>
     </g>
    </g>
    <g id="ytick_5">
     <g id="line2d_16"/>
     <g id="text_15">
      <text style="font-family:Arial;font-size:8px;font-style:normal;font-weight:normal;text-anchor:end;" transform="rotate(-0, 114.809091, 80.266137)" x="114.809091" y="80.266137">0.5</text>
     </g>
    </g>
    <g id="ytick_6">
     <g id="line2d_17"/>
     <g id="text_16">
      <text style="font-family:Arial;font-size:8px;font-style:normal;font-weight:normal;text-anchor:end;" transform="rotate(-0, 114.809091, 63.16915)" x="114.809091" y="63.16915">1.0</text>
     </g>
    </g>
    <g id="ytick_7">
     <g id="line2d_18"/>
     <g id="text_17">
      <text style="font-family:Arial;font-size:8px;font-style:normal;font-weight:normal;text-anchor:end;" transform="rotate(-0, 114.809091, 46.072162)" x="114.809091" y="46.072162">1.5</text>
     </g>
    </g>
    <g id="ytick_8">
     <g id="line2d_19"/>
     <g id="text_18">
      <text style="font-family:Arial;font-size:8px;font-style:normal;font-weight:normal;text-anchor:end;" transform="rotate(-0, 114.809091, 28.975174)" x="114.809091" y="28.975174">2.0</text>
     </g>
    </g>
    <g id="text_19">
     <!-- $\sigma$(Inh) -->
     <g transform="translate(97.489091 67.18)rotate(-90)">
      <text>
       <tspan style="font-family:DejaVu Sans;font-size:10px;font-style:oblique;font-weight:oblique;" x="0" y="-0.71875">σ</tspan>
       <tspan style="font-family:Arial;font-size:10px;font-style:regular;font-weight:regular;" x="6.337891 9.667969 12.446289 18.007812 23.569336" y="-0.71875">(Inh)</tspan>
      </text>
     </g>
    </g>
   </g>
   <g id="legend_2">
    <g id="line2d_20">
     <path d="M 108.478125 31.995156 
L 128.478125 31.995156 
" style="fill:none;stroke:#000000;stroke-dasharray:1.85,0.8;stroke-dashoffset:0;stroke-width:0.5;"/>
    </g>
    <g id="line2d_21"/>
    <g id="text_20">
     <!-- $R^2$ 0.36 -->
     <g transform="translate(136.478125 29.2475)">
      <text>
       <tspan style="font-family:DejaVu Sans;font-size:10px;font-style:oblique;font-weight:oblique;" x="0" y="-0.9765625">R</tspan>
       <tspan style="font-family:DejaVu Sans;font-size:7px;font-style:book;font-weight:book;" x="7.650794" y="-4.8046875">2</tspan>
       <tspan style="font-family:Arial;font-size:10px;font-style:regular;font-weight:regular;" x="12.377845 15.156165 20.717689 23.496009 29.057533" y="-0.9765625"> 0.36</tspan>
      </text>
     </g>
     <text style="font-family:Arial;font-size:10px;font-style:normal;font-weight:normal;" transform="translate(136.478125 39.86)"> slope 0.70</text>
    </g>
   </g>
  </g>
 </g>
 <defs>
  <clipPath id="p0820fadb37">
   <rect height="81.54" width="76.090909" x="27" y="12.96"/>
  </clipPath>
  <clipPath id="p90182870d3">
   <rect height="81.54" width="76.090909" x="118.309091" y="12.96"/>
  </clipPath>
 </defs>
</svg>
