<?xml version="1.0" encoding="utf-8" standalone="no"?>
<!DOCTYPE svg PUBLIC "-//W3C//DTD SVG 1.1//EN"
  "http://www.w3.org/Graphics/SVG/1.1/DTD/svg11.dtd">
<!-- Created with matplotlib (http://matplotlib.org/) -->
<svg height="108pt" version="1.1" viewBox="0 0 216 108" width="216pt" xmlns="http://www.w3.org/2000/svg" xmlns:xlink="http://www.w3.org/1999/xlink">
 <defs>
  <style type="text/css">
*{stroke-linecap:butt;stroke-linejoin:round;}
  </style>
 </defs>
 <g id="figure_1">
  <g id="patch_1">
   <path d="M 0 108 
L 216 108 
L 216 0 
L 0 0 
z
" style="fill:#ffffff;"/>
  </g>
  <g id="axes_1">
   <g id="patch_2">
    <path d="M 27 94.5 
L 103.090909 94.5 
L 103.090909 12.96 
L 27 12.96 
z
" style="fill:#ffffff;"/>
   </g>
   <g id="LineCollection_1">
    <path clip-path="url(#pba15881d4d)" d="M 22.849459 68.942577 
L 38.722906 68.942577 
" style="fill:none;stroke:#000000;stroke-width:0.5;"/>
    <path clip-path="url(#pba15881d4d)" d="M 28.249914 76.684101 
L 38.671646 76.684101 
" style="fill:none;stroke:#000000;stroke-width:0.5;"/>
    <path clip-path="url(#pba15881d4d)" d="M 26.388964 80.035409 
L 34.87323 80.035409 
" style="fill:none;stroke:#000000;stroke-width:0.5;"/>
    <path clip-path="url(#pba15881d4d)" d="M 31.289337 60.940839 
L 43.285735 60.940839 
" style="fill:none;stroke:#000000;stroke-width:0.5;"/>
    <path clip-path="url(#pba15881d4d)" d="M 25.149369 77.977276 
L 33.210053 77.977276 
" style="fill:none;stroke:#000000;stroke-width:0.5;"/>
    <path clip-path="url(#pba15881d4d)" d="M 27.207177 72.610411 
L 31.913319 72.610411 
" style="fill:none;stroke:#000000;stroke-width:0.5;"/>
    <path clip-path="url(#pba15881d4d)" d="M 25.546233 71.637634 
L 36.62236 71.637634 
" style="fill:none;stroke:#000000;stroke-width:0.5;"/>
    <path clip-path="url(#pba15881d4d)" d="M 25.06195 52.013057 
L 48.824398 52.013057 
" style="fill:none;stroke:#000000;stroke-width:0.5;"/>
    <path clip-path="url(#pba15881d4d)" d="M 24.740251 54.113538 
L 47.54075 54.113538 
" style="fill:none;stroke:#000000;stroke-width:0.5;"/>
    <path clip-path="url(#pba15881d4d)" d="M 32.235844 39.413928 
L 49.62231 39.413928 
" style="fill:none;stroke:#000000;stroke-width:0.5;"/>
    <path clip-path="url(#pba15881d4d)" d="M 27.896653 59.41797 
L 38.172082 59.41797 
" style="fill:none;stroke:#000000;stroke-width:0.5;"/>
    <path clip-path="url(#pba15881d4d)" d="M 25.518603 64.43855 
L 42.863845 64.43855 
" style="fill:none;stroke:#000000;stroke-width:0.5;"/>
    <path clip-path="url(#pba15881d4d)" d="M 26.111154 77.801082 
L 35.816458 77.801082 
" style="fill:none;stroke:#000000;stroke-width:0.5;"/>
    <path clip-path="url(#pba15881d4d)" d="M 25.117788 74.31434 
L 39.015919 74.31434 
" style="fill:none;stroke:#000000;stroke-width:0.5;"/>
    <path clip-path="url(#pba15881d4d)" d="M 27.756834 72.192583 
L 35.923167 72.192583 
" style="fill:none;stroke:#000000;stroke-width:0.5;"/>
    <path clip-path="url(#pba15881d4d)" d="M 28.646815 68.464556 
L 39.665021 68.464556 
" style="fill:none;stroke:#000000;stroke-width:0.5;"/>
    <path clip-path="url(#pba15881d4d)" d="M 27.593651 56.009047 
L 44.284402 56.009047 
" style="fill:none;stroke:#000000;stroke-width:0.5;"/>
    <path clip-path="url(#pba15881d4d)" d="M 16.378433 55.469436 
L 54.197707 55.469436 
" style="fill:none;stroke:#000000;stroke-width:0.5;"/>
    <path clip-path="url(#pba15881d4d)" d="M 27.028495 85.721203 
L 37.804684 85.721203 
" style="fill:none;stroke:#000000;stroke-width:0.5;"/>
    <path clip-path="url(#pba15881d4d)" d="M 29.237743 30.320299 
L 55.73352 30.320299 
" style="fill:none;stroke:#000000;stroke-width:0.5;"/>
    <path clip-path="url(#pba15881d4d)" d="M 24.650665 62.64291 
L 42.56582 62.64291 
" style="fill:none;stroke:#000000;stroke-width:0.5;"/>
    <path clip-path="url(#pba15881d4d)" d="M 24.280408 82.891845 
L 34.808473 82.891845 
" style="fill:none;stroke:#000000;stroke-width:0.5;"/>
    <path clip-path="url(#pba15881d4d)" d="M 29.298145 69.611506 
L 34.913961 69.611506 
" style="fill:none;stroke:#000000;stroke-width:0.5;"/>
    <path clip-path="url(#pba15881d4d)" d="M 27.25584 82.882489 
L 33.315752 82.882489 
" style="fill:none;stroke:#000000;stroke-width:0.5;"/>
    <path clip-path="url(#pba15881d4d)" d="M 28.534228 69.371589 
L 33.970492 69.371589 
" style="fill:none;stroke:#000000;stroke-width:0.5;"/>
    <path clip-path="url(#pba15881d4d)" d="M 27.394221 40.571712 
L 54.604922 40.571712 
" style="fill:none;stroke:#000000;stroke-width:0.5;"/>
    <path clip-path="url(#pba15881d4d)" d="M 25.81028 78.531495 
L 32.159733 78.531495 
" style="fill:none;stroke:#000000;stroke-width:0.5;"/>
    <path clip-path="url(#pba15881d4d)" d="M 27.245892 66.337456 
L 37.116634 66.337456 
" style="fill:none;stroke:#000000;stroke-width:0.5;"/>
    <path clip-path="url(#pba15881d4d)" d="M 26.544719 88.321766 
L 31.373087 88.321766 
" style="fill:none;stroke:#000000;stroke-width:0.5;"/>
    <path clip-path="url(#pba15881d4d)" d="M 27.345069 72.389905 
L 39.766159 72.389905 
" style="fill:none;stroke:#000000;stroke-width:0.5;"/>
   </g>
   <g id="LineCollection_2">
    <path clip-path="url(#pba15881d4d)" d="M 30.786183 75.351274 
L 30.786183 62.533879 
" style="fill:none;stroke:#000000;stroke-width:0.5;"/>
    <path clip-path="url(#pba15881d4d)" d="M 33.46078 79.997851 
L 33.46078 73.37035 
" style="fill:none;stroke:#000000;stroke-width:0.5;"/>
    <path clip-path="url(#pba15881d4d)" d="M 30.631097 83.416985 
L 30.631097 76.653833 
" style="fill:none;stroke:#000000;stroke-width:0.5;"/>
    <path clip-path="url(#pba15881d4d)" d="M 37.287536 68.488789 
L 37.287536 53.392889 
" style="fill:none;stroke:#000000;stroke-width:0.5;"/>
    <path clip-path="url(#pba15881d4d)" d="M 29.179711 81.734494 
L 29.179711 74.220059 
" style="fill:none;stroke:#000000;stroke-width:0.5;"/>
    <path clip-path="url(#pba15881d4d)" d="M 29.560248 75.802823 
L 29.560248 69.417999 
" style="fill:none;stroke:#000000;stroke-width:0.5;"/>
    <path clip-path="url(#pba15881d4d)" d="M 31.084297 71.637634 
L 31.084297 71.637634 
" style="fill:none;stroke:#000000;stroke-width:0.5;"/>
    <path clip-path="url(#pba15881d4d)" d="M 36.943174 59.527937 
L 36.943174 44.498177 
" style="fill:none;stroke:#000000;stroke-width:0.5;"/>
    <path clip-path="url(#pba15881d4d)" d="M 36.1405 61.000444 
L 36.1405 47.226633 
" style="fill:none;stroke:#000000;stroke-width:0.5;"/>
    <path clip-path="url(#pba15881d4d)" d="M 40.929077 62.145404 
L 40.929077 16.682451 
" style="fill:none;stroke:#000000;stroke-width:0.5;"/>
    <path clip-path="url(#pba15881d4d)" d="M 33.034367 67.311317 
L 33.034367 51.524623 
" style="fill:none;stroke:#000000;stroke-width:0.5;"/>
    <path clip-path="url(#pba15881d4d)" d="M 34.191224 68.052652 
L 34.191224 60.824447 
" style="fill:none;stroke:#000000;stroke-width:0.5;"/>
    <path clip-path="url(#pba15881d4d)" d="M 30.963806 84.311408 
L 30.963806 71.290755 
" style="fill:none;stroke:#000000;stroke-width:0.5;"/>
    <path clip-path="url(#pba15881d4d)" d="M 32.066854 80.098104 
L 32.066854 68.530575 
" style="fill:none;stroke:#000000;stroke-width:0.5;"/>
    <path clip-path="url(#pba15881d4d)" d="M 31.840001 77.448681 
L 31.840001 66.936485 
" style="fill:none;stroke:#000000;stroke-width:0.5;"/>
    <path clip-path="url(#pba15881d4d)" d="M 34.155918 73.635565 
L 34.155918 63.293546 
" style="fill:none;stroke:#000000;stroke-width:0.5;"/>
    <path clip-path="url(#pba15881d4d)" d="M 35.939026 66.247069 
L 35.939026 45.771025 
" style="fill:none;stroke:#000000;stroke-width:0.5;"/>
    <path clip-path="url(#pba15881d4d)" d="M 35.28807 73.355439 
L 35.28807 37.583432 
" style="fill:none;stroke:#000000;stroke-width:0.5;"/>
    <path clip-path="url(#pba15881d4d)" d="M 32.416589 90.003949 
L 32.416589 81.438457 
" style="fill:none;stroke:#000000;stroke-width:0.5;"/>
    <path clip-path="url(#pba15881d4d)" d="M 42.485632 39.367245 
L 42.485632 21.273353 
" style="fill:none;stroke:#000000;stroke-width:0.5;"/>
    <path clip-path="url(#pba15881d4d)" d="M 33.608243 73.875813 
L 33.608243 51.410008 
" style="fill:none;stroke:#000000;stroke-width:0.5;"/>
    <path clip-path="url(#pba15881d4d)" d="M 29.544441 87.532372 
L 29.544441 78.251318 
" style="fill:none;stroke:#000000;stroke-width:0.5;"/>
    <path clip-path="url(#pba15881d4d)" d="M 32.106053 77.443505 
L 32.106053 61.779507 
" style="fill:none;stroke:#000000;stroke-width:0.5;"/>
    <path clip-path="url(#pba15881d4d)" d="M 30.285796 84.754806 
L 30.285796 81.010173 
" style="fill:none;stroke:#000000;stroke-width:0.5;"/>
    <path clip-path="url(#pba15881d4d)" d="M 31.25236 72.422527 
L 31.25236 66.32065 
" style="fill:none;stroke:#000000;stroke-width:0.5;"/>
    <path clip-path="url(#pba15881d4d)" d="M 40.999572 50.353072 
L 40.999572 30.790353 
" style="fill:none;stroke:#000000;stroke-width:0.5;"/>
    <path clip-path="url(#pba15881d4d)" d="M 28.985007 81.941525 
L 28.985007 75.121464 
" style="fill:none;stroke:#000000;stroke-width:0.5;"/>
    <path clip-path="url(#pba15881d4d)" d="M 32.181263 70.906373 
L 32.181263 61.768539 
" style="fill:none;stroke:#000000;stroke-width:0.5;"/>
    <path clip-path="url(#pba15881d4d)" d="M 28.958903 91.131471 
L 28.958903 85.51206 
" style="fill:none;stroke:#000000;stroke-width:0.5;"/>
    <path clip-path="url(#pba15881d4d)" d="M 33.555614 76.574427 
L 33.555614 68.205382 
" style="fill:none;stroke:#000000;stroke-width:0.5;"/>
   </g>
   <g id="line2d_1">
    <path clip-path="url(#pba15881d4d)" d="M 27 89.595848 
L 27.768595 86.86006 
L 28.53719 84.124273 
L 29.305785 81.388485 
L 30.07438 78.652697 
L 30.842975 75.91691 
L 31.61157 73.181122 
L 32.380165 70.445334 
L 33.14876 67.709546 
L 33.917355 64.973759 
L 34.68595 62.237971 
L 35.454545 59.502183 
L 36.22314 56.766395 
L 36.991736 54.030608 
L 37.760331 51.29482 
L 38.528926 48.559032 
L 39.297521 45.823244 
L 40.066116 43.087457 
L 40.834711 40.351669 
L 41.603306 37.615881 
L 42.371901 34.880093 
L 43.140496 32.144306 
L 43.909091 29.408518 
L 44.677686 26.67273 
L 45.446281 23.936942 
L 46.214876 21.201155 
L 46.983471 18.465367 
L 47.752066 15.729579 
L 48.520661 12.993792 
L 49.289256 10.258004 
L 50.057851 7.522216 
L 50.826446 4.786428 
L 51.595041 2.050641 
L 52.363636 -0.685147 
L 52.452091 -1 
" style="fill:none;stroke:#000000;stroke-dasharray:1.85,0.8;stroke-dashoffset:0;stroke-width:0.5;"/>
   </g>
   <g id="line2d_2">
    <defs>
     <path d="M 0 3 
C 0.795609 3 1.55874 2.683901 2.12132 2.12132 
C 2.683901 1.55874 3 0.795609 3 0 
C 3 -0.795609 2.683901 -1.55874 2.12132 -2.12132 
C 1.55874 -2.683901 0.795609 -3 0 -3 
C -0.795609 -3 -1.55874 -2.683901 -2.12132 -2.12132 
C -2.683901 -1.55874 -3 -0.795609 -3 0 
C -3 0.795609 -2.683901 1.55874 -2.12132 2.12132 
C -1.55874 2.683901 -0.795609 3 0 3 
z
" id="m09d1de49dd" style="stroke:#000000;"/>
    </defs>
    <g clip-path="url(#pba15881d4d)">
     <use style="stroke:#000000;" x="30.786183" xlink:href="#m09d1de49dd" y="68.942577"/>
     <use style="stroke:#000000;" x="33.46078" xlink:href="#m09d1de49dd" y="76.684101"/>
     <use style="stroke:#000000;" x="30.631097" xlink:href="#m09d1de49dd" y="80.035409"/>
     <use style="stroke:#000000;" x="37.287536" xlink:href="#m09d1de49dd" y="60.940839"/>
     <use style="stroke:#000000;" x="29.179711" xlink:href="#m09d1de49dd" y="77.977276"/>
     <use style="stroke:#000000;" x="29.560248" xlink:href="#m09d1de49dd" y="72.610411"/>
     <use style="stroke:#000000;" x="31.084297" xlink:href="#m09d1de49dd" y="71.637634"/>
     <use style="stroke:#000000;" x="36.943174" xlink:href="#m09d1de49dd" y="52.013057"/>
     <use style="stroke:#000000;" x="36.1405" xlink:href="#m09d1de49dd" y="54.113538"/>
     <use style="stroke:#000000;" x="40.929077" xlink:href="#m09d1de49dd" y="39.413928"/>
     <use style="stroke:#000000;" x="33.034367" xlink:href="#m09d1de49dd" y="59.41797"/>
     <use style="stroke:#000000;" x="34.191224" xlink:href="#m09d1de49dd" y="64.43855"/>
     <use style="stroke:#000000;" x="30.963806" xlink:href="#m09d1de49dd" y="77.801082"/>
     <use style="stroke:#000000;" x="32.066854" xlink:href="#m09d1de49dd" y="74.31434"/>
     <use style="stroke:#000000;" x="31.840001" xlink:href="#m09d1de49dd" y="72.192583"/>
     <use style="stroke:#000000;" x="34.155918" xlink:href="#m09d1de49dd" y="68.464556"/>
     <use style="stroke:#000000;" x="35.939026" xlink:href="#m09d1de49dd" y="56.009047"/>
     <use style="stroke:#000000;" x="35.28807" xlink:href="#m09d1de49dd" y="55.469436"/>
     <use style="stroke:#000000;" x="32.416589" xlink:href="#m09d1de49dd" y="85.721203"/>
     <use style="stroke:#000000;" x="42.485632" xlink:href="#m09d1de49dd" y="30.320299"/>
     <use style="stroke:#000000;" x="33.608243" xlink:href="#m09d1de49dd" y="62.64291"/>
     <use style="stroke:#000000;" x="29.544441" xlink:href="#m09d1de49dd" y="82.891845"/>
     <use style="stroke:#000000;" x="32.106053" xlink:href="#m09d1de49dd" y="69.611506"/>
     <use style="stroke:#000000;" x="30.285796" xlink:href="#m09d1de49dd" y="82.882489"/>
     <use style="stroke:#000000;" x="31.25236" xlink:href="#m09d1de49dd" y="69.371589"/>
     <use style="stroke:#000000;" x="40.999572" xlink:href="#m09d1de49dd" y="40.571712"/>
     <use style="stroke:#000000;" x="28.985007" xlink:href="#m09d1de49dd" y="78.531495"/>
     <use style="stroke:#000000;" x="32.181263" xlink:href="#m09d1de49dd" y="66.337456"/>
     <use style="stroke:#000000;" x="28.958903" xlink:href="#m09d1de49dd" y="88.321766"/>
     <use style="stroke:#000000;" x="33.555614" xlink:href="#m09d1de49dd" y="72.389905"/>
    </g>
   </g>
   <g id="patch_3">
    <path d="M 27 94.5 
L 27 12.96 
" style="fill:none;stroke:#000000;stroke-linecap:square;stroke-linejoin:miter;"/>
   </g>
   <g id="patch_4">
    <path d="M 27 94.5 
L 103.090909 94.5 
" style="fill:none;stroke:#000000;stroke-linecap:square;stroke-linejoin:miter;"/>
   </g>
   <g id="matplotlib.axis_1">
    <g id="xtick_1">
     <g id="line2d_3"/>
     <g id="text_1">
      <text style="font-family:Arial;font-size:8px;font-style:normal;font-weight:normal;text-anchor:middle;" transform="rotate(-0, 27, 103.72625)" x="27" y="103.72625">0</text>
     </g>
    </g>
    <g id="xtick_2">
     <g id="line2d_4"/>
     <g id="text_2">
      <text style="font-family:Arial;font-size:8px;font-style:normal;font-weight:normal;text-anchor:middle;" transform="rotate(-0, 59.910659, 103.72625)" x="59.910659" y="103.72625">5</text>
     </g>
    </g>
    <g id="xtick_3">
     <g id="line2d_5"/>
     <g id="text_3">
      <text style="font-family:Arial;font-size:8px;font-style:normal;font-weight:normal;text-anchor:middle;" transform="rotate(-0, 92.821317, 103.72625)" x="92.821317" y="103.72625">10</text>
     </g>
    </g>
    <g id="text_4">
     <text style="font-family:Arial;font-size:10px;font-style:normal;font-weight:normal;text-anchor:middle;" transform="rotate(-0, 65.045455, 116.474063)" x="65.045455" y="116.474063">Exc</text>
    </g>
   </g>
   <g id="matplotlib.axis_2">
    <g id="ytick_1">
     <g id="line2d_6"/>
     <g id="text_5">
      <text style="font-family:Arial;font-size:8px;font-style:normal;font-weight:normal;text-anchor:end;" transform="rotate(-0, 23.5, 97.363125)" x="23.5" y="97.363125">0.0</text>
     </g>
    </g>
    <g id="ytick_2">
     <g id="line2d_7"/>
     <g id="text_6">
      <text style="font-family:Arial;font-size:8px;font-style:normal;font-weight:normal;text-anchor:end;" transform="rotate(-0, 23.5, 79.729382)" x="23.5" y="79.729382">2.5</text>
     </g>
    </g>
    <g id="ytick_3">
     <g id="line2d_8"/>
     <g id="text_7">
      <text style="font-family:Arial;font-size:8px;font-style:normal;font-weight:normal;text-anchor:end;" transform="rotate(-0, 23.5, 62.095639)" x="23.5" y="62.095639">5.0</text>
     </g>
    </g>
    <g id="ytick_4">
     <g id="line2d_9"/>
     <g id="text_8">
      <text style="font-family:Arial;font-size:8px;font-style:normal;font-weight:normal;text-anchor:end;" transform="rotate(-0, 23.5, 44.461895)" x="23.5" y="44.461895">7.5</text>
     </g>
    </g>
    <g id="ytick_5">
     <g id="line2d_10"/>
     <g id="text_9">
      <text style="font-family:Arial;font-size:8px;font-style:normal;font-weight:normal;text-anchor:end;" transform="rotate(-0, 23.5, 26.828152)" x="23.5" y="26.828152">10.0</text>
     </g>
    </g>
    <g id="text_10">
     <text style="font-family:Arial;font-size:10px;font-style:normal;font-weight:normal;text-anchor:middle;" transform="rotate(-90, 1.94375, 53.73)" x="1.94375" y="53.73">Inh</text>
    </g>
   </g>
   <g id="legend_1">
    <g id="line2d_11">
     <path d="M 36 75.622656 
L 56 75.622656 
" style="fill:none;stroke:#000000;stroke-dasharray:1.85,0.8;stroke-dashoffset:0;stroke-width:0.5;"/>
    </g>
    <g id="line2d_12"/>
    <g id="text_11">
     <!-- $R^2$ 0.84 -->
     <g transform="translate(64 72.875)">
      <text>
       <tspan style="font-family:DejaVu Sans;font-size:10px;font-style:oblique;font-weight:oblique;" x="0" y="-0.9765625">R</tspan>
       <tspan style="font-family:DejaVu Sans;font-size:7px;font-style:book;font-weight:book;" x="7.650794" y="-4.8046875">2</tspan>
       <tspan style="font-family:Arial;font-size:10px;font-style:regular;font-weight:regular;" x="12.377845 15.156165 20.717689 23.496009 29.057533" y="-0.9765625"> 0.84</tspan>
      </text>
     </g>
     <text style="font-family:Arial;font-size:10px;font-style:normal;font-weight:normal;" transform="translate(64 83.4875)"> slope 3.32</text>
    </g>
   </g>
  </g>
  <g id="axes_2">
   <g id="patch_5">
    <path d="M 118.309091 94.5 
L 194.4 94.5 
L 194.4 12.96 
L 118.309091 12.96 
z
" style="fill:#ffffff;"/>
   </g>
   <g id="PathCollection_1">
    <defs>
     <path d="M 0 2.44949 
C 0.649612 2.44949 1.272706 2.191396 1.732051 1.732051 
C 2.191396 1.272706 2.44949 0.649612 2.44949 0 
C 2.44949 -0.649612 2.191396 -1.272706 1.732051 -1.732051 
C 1.272706 -2.191396 0.649612 -2.44949 0 -2.44949 
C -0.649612 -2.44949 -1.272706 -2.191396 -1.732051 -1.732051 
C -2.191396 -1.272706 -2.44949 -0.649612 -2.44949 0 
C -2.44949 0.649612 -2.191396 1.272706 -1.732051 1.732051 
C -1.272706 2.191396 -0.649612 2.44949 0 2.44949 
z
" id="mde0c2e169d" style="stroke:#000000;"/>
    </defs>
    <g clip-path="url(#p16fe5582d2)">
     <use style="stroke:#000000;" x="145.324251" xlink:href="#mde0c2e169d" y="72.685962"/>
     <use style="stroke:#000000;" x="136.045929" xlink:href="#mde0c2e169d" y="83.220598"/>
     <use style="stroke:#000000;" x="132.748538" xlink:href="#mde0c2e169d" y="82.989732"/>
     <use style="stroke:#000000;" x="138.725865" xlink:href="#mde0c2e169d" y="68.808155"/>
     <use style="stroke:#000000;" x="132.027641" xlink:href="#mde0c2e169d" y="81.711118"/>
     <use style="stroke:#000000;" x="126.318515" xlink:href="#mde0c2e169d" y="83.633611"/>
     <use style="stroke:#000000;" x="137.159649" xlink:href="#mde0c2e169d" y="94.5"/>
     <use style="stroke:#000000;" x="158.75061" xlink:href="#mde0c2e169d" y="68.920719"/>
     <use style="stroke:#000000;" x="157.11346" xlink:href="#mde0c2e169d" y="71.058229"/>
     <use style="stroke:#000000;" x="147.89927" xlink:href="#mde0c2e169d" y="17.126199"/>
     <use style="stroke:#000000;" x="135.796933" xlink:href="#mde0c2e169d" y="67.632486"/>
     <use style="stroke:#000000;" x="147.829111" xlink:href="#mde0c2e169d" y="82.198254"/>
     <use style="stroke:#000000;" x="134.826633" xlink:href="#mde0c2e169d" y="72.340035"/>
     <use style="stroke:#000000;" x="141.962443" xlink:href="#mde0c2e169d" y="74.81312"/>
     <use style="stroke:#000000;" x="132.207445" xlink:href="#mde0c2e169d" y="76.6092"/>
     <use style="stroke:#000000;" x="137.061072" xlink:href="#mde0c2e169d" y="76.898826"/>
     <use style="stroke:#000000;" x="146.715226" xlink:href="#mde0c2e169d" y="59.65164"/>
     <use style="stroke:#000000;" x="182.674048" xlink:href="#mde0c2e169d" y="33.619307"/>
     <use style="stroke:#000000;" x="136.649181" xlink:href="#mde0c2e169d" y="79.922314"/>
     <use style="stroke:#000000;" x="163.402486" xlink:href="#mde0c2e169d" y="63.705845"/>
     <use style="stroke:#000000;" x="148.799051" xlink:href="#mde0c2e169d" y="56.265248"/>
     <use style="stroke:#000000;" x="136.226897" xlink:href="#mde0c2e169d" y="78.704492"/>
     <use style="stroke:#000000;" x="127.866698" xlink:href="#mde0c2e169d" y="67.841303"/>
     <use style="stroke:#000000;" x="128.62251" xlink:href="#mde0c2e169d" y="88.126977"/>
     <use style="stroke:#000000;" x="127.561118" xlink:href="#mde0c2e169d" y="84.115162"/>
     <use style="stroke:#000000;" x="164.619222" xlink:href="#mde0c2e169d" y="61.206035"/>
     <use style="stroke:#000000;" x="129.115282" xlink:href="#mde0c2e169d" y="82.892878"/>
     <use style="stroke:#000000;" x="135.108195" xlink:href="#mde0c2e169d" y="78.948239"/>
     <use style="stroke:#000000;" x="126.526534" xlink:href="#mde0c2e169d" y="84.936275"/>
     <use style="stroke:#000000;" x="139.448652" xlink:href="#mde0c2e169d" y="80.256648"/>
    </g>
   </g>
   <g id="line2d_13">
    <path clip-path="url(#p16fe5582d2)" d="M 118.309091 89.956707 
L 119.077686 89.370211 
L 119.846281 88.783715 
L 120.614876 88.19722 
L 121.383471 87.610724 
L 122.152066 87.024228 
L 122.920661 86.437732 
L 123.689256 85.851236 
L 124.457851 85.26474 
L 125.226446 84.678244 
L 125.995041 84.091748 
L 126.763636 83.505253 
L 127.532231 82.918757 
L 128.300826 82.332261 
L 129.069421 81.745765 
L 129.838017 81.159269 
L 130.606612 80.572773 
L 131.375207 79.986277 
L 132.143802 79.399782 
L 132.912397 78.813286 
L 133.680992 78.22679 
L 134.449587 77.640294 
L 135.218182 77.053798 
L 135.986777 76.467302 
L 136.755372 75.880806 
L 137.523967 75.29431 
L 138.292562 74.707815 
L 139.061157 74.121319 
L 139.829752 73.534823 
L 140.598347 72.948327 
L 141.366942 72.361831 
L 142.135537 71.775335 
L 142.904132 71.188839 
L 143.672727 70.602343 
L 144.441322 70.015848 
L 145.209917 69.429352 
L 145.978512 68.842856 
L 146.747107 68.25636 
L 147.515702 67.669864 
L 148.284298 67.083368 
L 149.052893 66.496872 
L 149.821488 65.910376 
L 150.590083 65.323881 
L 151.358678 64.737385 
L 152.127273 64.150889 
L 152.895868 63.564393 
L 153.664463 62.977897 
L 154.433058 62.391401 
L 155.201653 61.804905 
L 155.970248 61.218409 
L 156.738843 60.631914 
L 157.507438 60.045418 
L 158.276033 59.458922 
L 159.044628 58.872426 
L 159.813223 58.28593 
L 160.581818 57.699434 
L 161.350413 57.112938 
L 162.119008 56.526442 
L 162.887603 55.939947 
L 163.656198 55.353451 
L 164.424793 54.766955 
L 165.193388 54.180459 
L 165.961983 53.593963 
L 166.730579 53.007467 
L 167.499174 52.420971 
L 168.267769 51.834475 
L 169.036364 51.24798 
L 169.804959 50.661484 
L 170.573554 50.074988 
L 171.342149 49.488492 
L 172.110744 48.901996 
L 172.879339 48.3155 
L 173.647934 47.729004 
L 174.416529 47.142508 
L 175.185124 46.556013 
L 175.953719 45.969517 
L 176.722314 45.383021 
L 177.490909 44.796525 
L 178.259504 44.210029 
L 179.028099 43.623533 
L 179.796694 43.037037 
L 180.565289 42.450541 
L 181.333884 41.864046 
L 182.102479 41.27755 
L 182.871074 40.691054 
L 183.639669 40.104558 
L 184.408264 39.518062 
L 185.17686 38.931566 
L 185.945455 38.34507 
L 186.71405 37.758574 
L 187.482645 37.172079 
L 188.25124 36.585583 
L 189.019835 35.999087 
L 189.78843 35.412591 
L 190.557025 34.826095 
L 191.32562 34.239599 
L 192.094215 33.653103 
L 192.86281 33.066607 
L 193.631405 32.480112 
L 194.4 31.893616 
" style="fill:none;stroke:#000000;stroke-dasharray:1.85,0.8;stroke-dashoffset:0;stroke-width:0.5;"/>
   </g>
   <g id="patch_6">
    <path d="M 118.309091 94.5 
L 118.309091 12.96 
" style="fill:none;stroke:#000000;stroke-linecap:square;stroke-linejoin:miter;"/>
   </g>
   <g id="patch_7">
    <path d="M 118.309091 94.5 
L 194.4 94.5 
" style="fill:none;stroke:#000000;stroke-linecap:square;stroke-linejoin:miter;"/>
   </g>
   <g id="matplotlib.axis_3">
    <g id="xtick_4">
     <g id="line2d_14"/>
     <g id="text_12">
      <text style="font-family:Arial;font-size:8px;font-style:normal;font-weight:normal;text-anchor:middle;" transform="rotate(-0, 118.309091, 103.72625)" x="118.309091" y="103.72625">0</text>
     </g>
    </g>
    <g id="xtick_5">
     <g id="line2d_15"/>
     <g id="text_13">
      <text style="font-family:Arial;font-size:8px;font-style:normal;font-weight:normal;text-anchor:middle;" transform="rotate(-0, 163.117843, 103.72625)" x="163.117843" y="103.72625">2</text>
     </g>
    </g>
    <g id="text_14">
     <!-- $\sigma$(Exc) -->
     <g transform="translate(141.504545 116.61625)">
      <text>
       <tspan style="font-family:DejaVu Sans;font-size:10px;font-style:oblique;font-weight:oblique;" x="0" y="-0.71875">σ</tspan>
       <tspan style="font-family:Arial;font-size:10px;font-style:regular;font-weight:regular;" x="6.337891 9.667969 16.337891 21.337891 26.337891" y="-0.71875">(Exc)</tspan>
      </text>
     </g>
    </g>
   </g>
   <g id="matplotlib.axis_4">
    <g id="ytick_6">
     <g id="line2d_16"/>
     <g id="text_15">
      <text style="font-family:Arial;font-size:8px;font-style:normal;font-weight:normal;text-anchor:end;" transform="rotate(-0, 114.809091, 97.363125)" x="114.809091" y="97.363125">0</text>
     </g>
    </g>
    <g id="ytick_7">
     <g id="line2d_17"/>
     <g id="text_16">
      <text style="font-family:Arial;font-size:8px;font-style:normal;font-weight:normal;text-anchor:end;" transform="rotate(-0, 114.809091, 73.354307)" x="114.809091" y="73.354307">1</text>
     </g>
    </g>
    <g id="ytick_8">
     <g id="line2d_18"/>
     <g id="text_17">
      <text style="font-family:Arial;font-size:8px;font-style:normal;font-weight:normal;text-anchor:end;" transform="rotate(-0, 114.809091, 49.345488)" x="114.809091" y="49.345488">2</text>
     </g>
    </g>
    <g id="ytick_9">
     <g id="line2d_19"/>
     <g id="text_18">
      <text style="font-family:Arial;font-size:8px;font-style:normal;font-weight:normal;text-anchor:end;" transform="rotate(-0, 114.809091, 25.33667)" x="114.809091" y="25.33667">3</text>
     </g>
    </g>
    <g id="text_19">
     <!-- $\sigma$(Inh) -->
     <g transform="translate(104.160341 67.18)rotate(-90)">
      <text>
       <tspan style="font-family:DejaVu Sans;font-size:10px;font-style:oblique;font-weight:oblique;" x="0" y="-0.71875">σ</tspan>
       <tspan style="font-family:Arial;font-size:10px;font-style:regular;font-weight:regular;" x="6.337891 9.667969 12.446289 18.007812 23.569336" y="-0.71875">(Inh)</tspan>
      </text>
     </g>
    </g>
   </g>
   <g id="legend_2">
    <g id="line2d_20">
     <path d="M 108.478125 31.995156 
L 128.478125 31.995156 
" style="fill:none;stroke:#000000;stroke-dasharray:1.85,0.8;stroke-dashoffset:0;stroke-width:0.5;"/>
    </g>
    <g id="line2d_21"/>
    <g id="text_20">
     <!-- $R^2$ 0.41 -->
     <g transform="translate(136.478125 29.2475)">
      <text>
       <tspan style="font-family:DejaVu Sans;font-size:10px;font-style:oblique;font-weight:oblique;" x="0" y="-0.9765625">R</tspan>
       <tspan style="font-family:DejaVu Sans;font-size:7px;font-style:book;font-weight:book;" x="7.650794" y="-4.8046875">2</tspan>
       <tspan style="font-family:Arial;font-size:10px;font-style:regular;font-weight:regular;" x="12.377845 15.156165 20.717689 23.496009 29.057533" y="-0.9765625"> 0.41</tspan>
      </text>
     </g>
     <text style="font-family:Arial;font-size:10px;font-style:normal;font-weight:normal;" transform="translate(136.478125 39.86)"> slope 0.71</text>
    </g>
   </g>
  </g>
 </g>
 <defs>
  <clipPath id="pba15881d4d">
   <rect height="81.54" width="76.090909" x="27" y="12.96"/>
  </clipPath>
  <clipPath id="p16fe5582d2">
   <rect height="81.54" width="76.090909" x="118.309091" y="12.96"/>
  </clipPath>
 </defs>
</svg>
