<?xml version="1.0" encoding="utf-8" standalone="no"?>
<!DOCTYPE svg PUBLIC "-//W3C//DTD SVG 1.1//EN"
  "http://www.w3.org/Graphics/SVG/1.1/DTD/svg11.dtd">
<!-- Created with matplotlib (http://matplotlib.org/) -->
<svg height="108pt" version="1.1" viewBox="0 0 216 108" width="216pt" xmlns="http://www.w3.org/2000/svg" xmlns:xlink="http://www.w3.org/1999/xlink">
 <defs>
  <style type="text/css">
*{stroke-linecap:butt;stroke-linejoin:round;}
  </style>
 </defs>
 <g id="figure_1">
  <g id="patch_1">
   <path d="M 0 108 
L 216 108 
L 216 0 
L 0 0 
z
" style="fill:#ffffff;"/>
  </g>
  <g id="axes_1">
   <g id="patch_2">
    <path d="M 27 94.5 
L 103.090909 94.5 
L 103.090909 12.96 
L 27 12.96 
z
" style="fill:#ffffff;"/>
   </g>
   <g id="LineCollection_1">
    <path clip-path="url(#pc24f4d68e6)" d="M 31.423182 63.885248 
L 40.345608 63.885248 
" style="fill:none;stroke:#000000;stroke-width:0.5;"/>
    <path clip-path="url(#pc24f4d68e6)" d="M 28.421294 81.033705 
L 35.087528 81.033705 
" style="fill:none;stroke:#000000;stroke-width:0.5;"/>
    <path clip-path="url(#pc24f4d68e6)" d="M 27.778152 83.627366 
L 33.917554 83.627366 
" style="fill:none;stroke:#000000;stroke-width:0.5;"/>
    <path clip-path="url(#pc24f4d68e6)" d="M 28.16516 39.972292 
L 43.528971 39.972292 
" style="fill:none;stroke:#000000;stroke-width:0.5;"/>
    <path clip-path="url(#pc24f4d68e6)" d="M 24.829643 69.863146 
L 39.006225 69.863146 
" style="fill:none;stroke:#000000;stroke-width:0.5;"/>
    <path clip-path="url(#pc24f4d68e6)" d="M 24.892604 83.739701 
L 36.781909 83.739701 
" style="fill:none;stroke:#000000;stroke-width:0.5;"/>
    <path clip-path="url(#pc24f4d68e6)" d="M 25.602841 71.85889 
L 33.273794 71.85889 
" style="fill:none;stroke:#000000;stroke-width:0.5;"/>
    <path clip-path="url(#pc24f4d68e6)" d="M 28.108297 82.813696 
L 34.138182 82.813696 
" style="fill:none;stroke:#000000;stroke-width:0.5;"/>
    <path clip-path="url(#pc24f4d68e6)" d="M 23.307621 66.642838 
L 35.787109 66.642838 
" style="fill:none;stroke:#000000;stroke-width:0.5;"/>
    <path clip-path="url(#pc24f4d68e6)" d="M 26.505898 88.811287 
L 30.9711 88.811287 
" style="fill:none;stroke:#000000;stroke-width:0.5;"/>
    <path clip-path="url(#pc24f4d68e6)" d="M 25.20097 79.66592 
L 31.281324 79.66592 
" style="fill:none;stroke:#000000;stroke-width:0.5;"/>
    <path clip-path="url(#pc24f4d68e6)" d="M 33.434697 62.984995 
L 45.801769 62.984995 
" style="fill:none;stroke:#000000;stroke-width:0.5;"/>
    <path clip-path="url(#pc24f4d68e6)" d="M 27 94.5 
L 27 94.5 
" style="fill:none;stroke:#000000;stroke-width:0.5;"/>
    <path clip-path="url(#pc24f4d68e6)" d="M 27 82.675693 
L 27 82.675693 
" style="fill:none;stroke:#000000;stroke-width:0.5;"/>
    <path clip-path="url(#pc24f4d68e6)" d="M 26.875256 91.419329 
L 29.738691 91.419329 
" style="fill:none;stroke:#000000;stroke-width:0.5;"/>
    <path clip-path="url(#pc24f4d68e6)" d="M 26.215265 70.694199 
L 33.146336 70.694199 
" style="fill:none;stroke:#000000;stroke-width:0.5;"/>
    <path clip-path="url(#pc24f4d68e6)" d="M 27.122376 44.579663 
L 45.417726 44.579663 
" style="fill:none;stroke:#000000;stroke-width:0.5;"/>
    <path clip-path="url(#pc24f4d68e6)" d="M 27.123209 44.42392 
L 46.169952 44.42392 
" style="fill:none;stroke:#000000;stroke-width:0.5;"/>
    <path clip-path="url(#pc24f4d68e6)" d="M 25.22829 78.534695 
L 32.981124 78.534695 
" style="fill:none;stroke:#000000;stroke-width:0.5;"/>
    <path clip-path="url(#pc24f4d68e6)" d="M 26.867904 89.174254 
L 29.298583 89.174254 
" style="fill:none;stroke:#000000;stroke-width:0.5;"/>
    <path clip-path="url(#pc24f4d68e6)" d="M 20.226569 56.509453 
L 47.615181 56.509453 
" style="fill:none;stroke:#000000;stroke-width:0.5;"/>
    <path clip-path="url(#pc24f4d68e6)" d="M 27.480598 71.106934 
L 40.897134 71.106934 
" style="fill:none;stroke:#000000;stroke-width:0.5;"/>
    <path clip-path="url(#pc24f4d68e6)" d="M 30.242188 50.662765 
L 43.141796 50.662765 
" style="fill:none;stroke:#000000;stroke-width:0.5;"/>
    <path clip-path="url(#pc24f4d68e6)" d="M 20.642854 31.35445 
L 68.050052 31.35445 
" style="fill:none;stroke:#000000;stroke-width:0.5;"/>
    <path clip-path="url(#pc24f4d68e6)" d="M 27.735803 42.350451 
L 45.328121 42.350451 
" style="fill:none;stroke:#000000;stroke-width:0.5;"/>
    <path clip-path="url(#pc24f4d68e6)" d="M 26.460683 64.197252 
L 32.05545 64.197252 
" style="fill:none;stroke:#000000;stroke-width:0.5;"/>
    <path clip-path="url(#pc24f4d68e6)" d="M 29.081983 57.149169 
L 42.444938 57.149169 
" style="fill:none;stroke:#000000;stroke-width:0.5;"/>
    <path clip-path="url(#pc24f4d68e6)" d="M 26.700891 72.593747 
L 31.615175 72.593747 
" style="fill:none;stroke:#000000;stroke-width:0.5;"/>
    <path clip-path="url(#pc24f4d68e6)" d="M 24.264337 71.075399 
L 38.055297 71.075399 
" style="fill:none;stroke:#000000;stroke-width:0.5;"/>
    <path clip-path="url(#pc24f4d68e6)" d="M 26.432278 59.353648 
L 43.212889 59.353648 
" style="fill:none;stroke:#000000;stroke-width:0.5;"/>
   </g>
   <g id="LineCollection_2">
    <path clip-path="url(#pc24f4d68e6)" d="M 35.884395 69.689901 
L 35.884395 58.080596 
" style="fill:none;stroke:#000000;stroke-width:0.5;"/>
    <path clip-path="url(#pc24f4d68e6)" d="M 31.754411 84.32949 
L 31.754411 77.73792 
" style="fill:none;stroke:#000000;stroke-width:0.5;"/>
    <path clip-path="url(#pc24f4d68e6)" d="M 30.847853 87.930612 
L 30.847853 79.32412 
" style="fill:none;stroke:#000000;stroke-width:0.5;"/>
    <path clip-path="url(#pc24f4d68e6)" d="M 35.847066 63.101726 
L 35.847066 16.842857 
" style="fill:none;stroke:#000000;stroke-width:0.5;"/>
    <path clip-path="url(#pc24f4d68e6)" d="M 31.917934 79.230496 
L 31.917934 60.495796 
" style="fill:none;stroke:#000000;stroke-width:0.5;"/>
    <path clip-path="url(#pc24f4d68e6)" d="M 30.837257 89.657048 
L 30.837257 77.822354 
" style="fill:none;stroke:#000000;stroke-width:0.5;"/>
    <path clip-path="url(#pc24f4d68e6)" d="M 29.438317 75.919013 
L 29.438317 67.798767 
" style="fill:none;stroke:#000000;stroke-width:0.5;"/>
    <path clip-path="url(#pc24f4d68e6)" d="M 31.123239 88.230678 
L 31.123239 77.396713 
" style="fill:none;stroke:#000000;stroke-width:0.5;"/>
    <path clip-path="url(#pc24f4d68e6)" d="M 29.547365 74.988439 
L 29.547365 58.297237 
" style="fill:none;stroke:#000000;stroke-width:0.5;"/>
    <path clip-path="url(#pc24f4d68e6)" d="M 28.738499 90.897499 
L 28.738499 86.725074 
" style="fill:none;stroke:#000000;stroke-width:0.5;"/>
    <path clip-path="url(#pc24f4d68e6)" d="M 28.241147 83.780841 
L 28.241147 75.550998 
" style="fill:none;stroke:#000000;stroke-width:0.5;"/>
    <path clip-path="url(#pc24f4d68e6)" d="M 39.618233 69.688475 
L 39.618233 56.281514 
" style="fill:none;stroke:#000000;stroke-width:0.5;"/>
    <path clip-path="url(#pc24f4d68e6)" d="M 27 94.5 
L 27 94.5 
" style="fill:none;stroke:#000000;stroke-width:0.5;"/>
    <path clip-path="url(#pc24f4d68e6)" d="M 27 82.675693 
L 27 82.675693 
" style="fill:none;stroke:#000000;stroke-width:0.5;"/>
    <path clip-path="url(#pc24f4d68e6)" d="M 28.306973 91.419329 
L 28.306973 91.419329 
" style="fill:none;stroke:#000000;stroke-width:0.5;"/>
    <path clip-path="url(#pc24f4d68e6)" d="M 29.6808 74.234178 
L 29.6808 67.154219 
" style="fill:none;stroke:#000000;stroke-width:0.5;"/>
    <path clip-path="url(#pc24f4d68e6)" d="M 36.270051 53.884926 
L 36.270051 35.274401 
" style="fill:none;stroke:#000000;stroke-width:0.5;"/>
    <path clip-path="url(#pc24f4d68e6)" d="M 36.646581 54.235816 
L 36.646581 34.612024 
" style="fill:none;stroke:#000000;stroke-width:0.5;"/>
    <path clip-path="url(#pc24f4d68e6)" d="M 29.104707 82.929096 
L 29.104707 74.140294 
" style="fill:none;stroke:#000000;stroke-width:0.5;"/>
    <path clip-path="url(#pc24f4d68e6)" d="M 28.083243 90.987344 
L 28.083243 87.361163 
" style="fill:none;stroke:#000000;stroke-width:0.5;"/>
    <path clip-path="url(#pc24f4d68e6)" d="M 33.920875 72.683904 
L 33.920875 40.335002 
" style="fill:none;stroke:#000000;stroke-width:0.5;"/>
    <path clip-path="url(#pc24f4d68e6)" d="M 34.188866 78.490038 
L 34.188866 63.723831 
" style="fill:none;stroke:#000000;stroke-width:0.5;"/>
    <path clip-path="url(#pc24f4d68e6)" d="M 36.691992 60.142912 
L 36.691992 41.182618 
" style="fill:none;stroke:#000000;stroke-width:0.5;"/>
    <path clip-path="url(#pc24f4d68e6)" d="M 44.346453 32.877512 
L 44.346453 29.831387 
" style="fill:none;stroke:#000000;stroke-width:0.5;"/>
    <path clip-path="url(#pc24f4d68e6)" d="M 36.531962 52.734563 
L 36.531962 31.96634 
" style="fill:none;stroke:#000000;stroke-width:0.5;"/>
    <path clip-path="url(#pc24f4d68e6)" d="M 29.258066 67.231175 
L 29.258066 61.163328 
" style="fill:none;stroke:#000000;stroke-width:0.5;"/>
    <path clip-path="url(#pc24f4d68e6)" d="M 35.763461 65.632472 
L 35.763461 48.665867 
" style="fill:none;stroke:#000000;stroke-width:0.5;"/>
    <path clip-path="url(#pc24f4d68e6)" d="M 29.158033 82.177826 
L 29.158033 63.009668 
" style="fill:none;stroke:#000000;stroke-width:0.5;"/>
    <path clip-path="url(#pc24f4d68e6)" d="M 31.159817 84.479983 
L 31.159817 57.670815 
" style="fill:none;stroke:#000000;stroke-width:0.5;"/>
    <path clip-path="url(#pc24f4d68e6)" d="M 34.822584 62.06931 
L 34.822584 56.637986 
" style="fill:none;stroke:#000000;stroke-width:0.5;"/>
   </g>
   <g id="line2d_1">
    <path clip-path="url(#pc24f4d68e6)" d="M 27 86.546188 
L 27.768595 83.936534 
L 28.53719 81.326881 
L 29.305785 78.717227 
L 30.07438 76.107573 
L 30.842975 73.497919 
L 31.61157 70.888265 
L 32.380165 68.278612 
L 33.14876 65.668958 
L 33.917355 63.059304 
L 34.68595 60.44965 
L 35.454545 57.839996 
L 36.22314 55.230342 
L 36.991736 52.620689 
L 37.760331 50.011035 
L 38.528926 47.401381 
L 39.297521 44.791727 
L 40.066116 42.182073 
L 40.834711 39.57242 
L 41.603306 36.962766 
L 42.371901 34.353112 
L 43.140496 31.743458 
L 43.909091 29.133804 
L 44.677686 26.52415 
L 45.446281 23.914497 
L 46.214876 21.304843 
L 46.983471 18.695189 
L 47.752066 16.085535 
L 48.520661 13.475881 
L 49.289256 10.866227 
L 50.057851 8.256574 
L 50.826446 5.64692 
L 51.595041 3.037266 
L 52.363636 0.427612 
L 52.784097 -1 
" style="fill:none;stroke:#000000;stroke-dasharray:1.85,0.8;stroke-dashoffset:0;stroke-width:0.5;"/>
   </g>
   <g id="line2d_2">
    <defs>
     <path d="M 0 3 
C 0.795609 3 1.55874 2.683901 2.12132 2.12132 
C 2.683901 1.55874 3 0.795609 3 0 
C 3 -0.795609 2.683901 -1.55874 2.12132 -2.12132 
C 1.55874 -2.683901 0.795609 -3 0 -3 
C -0.795609 -3 -1.55874 -2.683901 -2.12132 -2.12132 
C -2.683901 -1.55874 -3 -0.795609 -3 0 
C -3 0.795609 -2.683901 1.55874 -2.12132 2.12132 
C -1.55874 2.683901 -0.795609 3 0 3 
z
" id="m1e12b3b9ee" style="stroke:#000000;"/>
    </defs>
    <g clip-path="url(#pc24f4d68e6)">
     <use style="stroke:#000000;" x="35.884395" xlink:href="#m1e12b3b9ee" y="63.885248"/>
     <use style="stroke:#000000;" x="31.754411" xlink:href="#m1e12b3b9ee" y="81.033705"/>
     <use style="stroke:#000000;" x="30.847853" xlink:href="#m1e12b3b9ee" y="83.627366"/>
     <use style="stroke:#000000;" x="35.847066" xlink:href="#m1e12b3b9ee" y="39.972292"/>
     <use style="stroke:#000000;" x="31.917934" xlink:href="#m1e12b3b9ee" y="69.863146"/>
     <use style="stroke:#000000;" x="30.837257" xlink:href="#m1e12b3b9ee" y="83.739701"/>
     <use style="stroke:#000000;" x="29.438317" xlink:href="#m1e12b3b9ee" y="71.85889"/>
     <use style="stroke:#000000;" x="31.123239" xlink:href="#m1e12b3b9ee" y="82.813696"/>
     <use style="stroke:#000000;" x="29.547365" xlink:href="#m1e12b3b9ee" y="66.642838"/>
     <use style="stroke:#000000;" x="28.738499" xlink:href="#m1e12b3b9ee" y="88.811287"/>
     <use style="stroke:#000000;" x="28.241147" xlink:href="#m1e12b3b9ee" y="79.66592"/>
     <use style="stroke:#000000;" x="39.618233" xlink:href="#m1e12b3b9ee" y="62.984995"/>
     <use style="stroke:#000000;" x="27" xlink:href="#m1e12b3b9ee" y="94.5"/>
     <use style="stroke:#000000;" x="27" xlink:href="#m1e12b3b9ee" y="82.675693"/>
     <use style="stroke:#000000;" x="28.306973" xlink:href="#m1e12b3b9ee" y="91.419329"/>
     <use style="stroke:#000000;" x="29.6808" xlink:href="#m1e12b3b9ee" y="70.694199"/>
     <use style="stroke:#000000;" x="36.270051" xlink:href="#m1e12b3b9ee" y="44.579663"/>
     <use style="stroke:#000000;" x="36.646581" xlink:href="#m1e12b3b9ee" y="44.42392"/>
     <use style="stroke:#000000;" x="29.104707" xlink:href="#m1e12b3b9ee" y="78.534695"/>
     <use style="stroke:#000000;" x="28.083243" xlink:href="#m1e12b3b9ee" y="89.174254"/>
     <use style="stroke:#000000;" x="33.920875" xlink:href="#m1e12b3b9ee" y="56.509453"/>
     <use style="stroke:#000000;" x="34.188866" xlink:href="#m1e12b3b9ee" y="71.106934"/>
     <use style="stroke:#000000;" x="36.691992" xlink:href="#m1e12b3b9ee" y="50.662765"/>
     <use style="stroke:#000000;" x="44.346453" xlink:href="#m1e12b3b9ee" y="31.35445"/>
     <use style="stroke:#000000;" x="36.531962" xlink:href="#m1e12b3b9ee" y="42.350451"/>
     <use style="stroke:#000000;" x="29.258066" xlink:href="#m1e12b3b9ee" y="64.197252"/>
     <use style="stroke:#000000;" x="35.763461" xlink:href="#m1e12b3b9ee" y="57.149169"/>
     <use style="stroke:#000000;" x="29.158033" xlink:href="#m1e12b3b9ee" y="72.593747"/>
     <use style="stroke:#000000;" x="31.159817" xlink:href="#m1e12b3b9ee" y="71.075399"/>
     <use style="stroke:#000000;" x="34.822584" xlink:href="#m1e12b3b9ee" y="59.353648"/>
    </g>
   </g>
   <g id="patch_3">
    <path d="M 27 94.5 
L 27 12.96 
" style="fill:none;stroke:#000000;stroke-linecap:square;stroke-linejoin:miter;"/>
   </g>
   <g id="patch_4">
    <path d="M 27 94.5 
L 103.090909 94.5 
" style="fill:none;stroke:#000000;stroke-linecap:square;stroke-linejoin:miter;"/>
   </g>
   <g id="matplotlib.axis_1">
    <g id="xtick_1">
     <g id="line2d_3"/>
     <g id="text_1">
      <text style="font-family:Arial;font-size:8px;font-style:normal;font-weight:normal;text-anchor:middle;" transform="rotate(-0, 27, 103.72625)" x="27" y="103.72625">0</text>
     </g>
    </g>
    <g id="xtick_2">
     <g id="line2d_4"/>
     <g id="text_2">
      <text style="font-family:Arial;font-size:8px;font-style:normal;font-weight:normal;text-anchor:middle;" transform="rotate(-0, 60.905138, 103.72625)" x="60.905138" y="103.72625">5</text>
     </g>
    </g>
    <g id="xtick_3">
     <g id="line2d_5"/>
     <g id="text_3">
      <text style="font-family:Arial;font-size:8px;font-style:normal;font-weight:normal;text-anchor:middle;" transform="rotate(-0, 94.810276, 103.72625)" x="94.810276" y="103.72625">10</text>
     </g>
    </g>
    <g id="text_4">
     <text style="font-family:Arial;font-size:10px;font-style:normal;font-weight:normal;text-anchor:middle;" transform="rotate(-0, 65.045455, 116.474063)" x="65.045455" y="116.474063">Exc</text>
    </g>
   </g>
   <g id="matplotlib.axis_2">
    <g id="ytick_1">
     <g id="line2d_6"/>
     <g id="text_5">
      <text style="font-family:Arial;font-size:8px;font-style:normal;font-weight:normal;text-anchor:end;" transform="rotate(-0, 23.5, 97.363125)" x="23.5" y="97.363125">0.0</text>
     </g>
    </g>
    <g id="ytick_2">
     <g id="line2d_7"/>
     <g id="text_6">
      <text style="font-family:Arial;font-size:8px;font-style:normal;font-weight:normal;text-anchor:end;" transform="rotate(-0, 23.5, 79.196533)" x="23.5" y="79.196533">2.5</text>
     </g>
    </g>
    <g id="ytick_3">
     <g id="line2d_8"/>
     <g id="text_7">
      <text style="font-family:Arial;font-size:8px;font-style:normal;font-weight:normal;text-anchor:end;" transform="rotate(-0, 23.5, 61.029942)" x="23.5" y="61.029942">5.0</text>
     </g>
    </g>
    <g id="ytick_4">
     <g id="line2d_9"/>
     <g id="text_8">
      <text style="font-family:Arial;font-size:8px;font-style:normal;font-weight:normal;text-anchor:end;" transform="rotate(-0, 23.5, 42.86335)" x="23.5" y="42.86335">7.5</text>
     </g>
    </g>
    <g id="ytick_5">
     <g id="line2d_10"/>
     <g id="text_9">
      <text style="font-family:Arial;font-size:8px;font-style:normal;font-weight:normal;text-anchor:end;" transform="rotate(-0, 23.5, 24.696759)" x="23.5" y="24.696759">10.0</text>
     </g>
    </g>
    <g id="text_10">
     <text style="font-family:Arial;font-size:10px;font-style:normal;font-weight:normal;text-anchor:middle;" transform="rotate(-90, 1.94375, 53.73)" x="1.94375" y="53.73">Inh</text>
    </g>
   </g>
   <g id="legend_1">
    <g id="line2d_11">
     <path d="M 36 75.622656 
L 56 75.622656 
" style="fill:none;stroke:#000000;stroke-dasharray:1.85,0.8;stroke-dashoffset:0;stroke-width:0.5;"/>
    </g>
    <g id="line2d_12"/>
    <g id="text_11">
     <!-- $R^2$ 0.71 -->
     <g transform="translate(64 72.875)">
      <text>
       <tspan style="font-family:DejaVu Sans;font-size:10px;font-style:oblique;font-weight:oblique;" x="0" y="-0.9765625">R</tspan>
       <tspan style="font-family:DejaVu Sans;font-size:7px;font-style:book;font-weight:book;" x="7.650794" y="-4.8046875">2</tspan>
       <tspan style="font-family:Arial;font-size:10px;font-style:regular;font-weight:regular;" x="12.377845 15.156165 20.717689 23.496009 29.057533" y="-0.9765625"> 0.71</tspan>
      </text>
     </g>
     <text style="font-family:Arial;font-size:10px;font-style:normal;font-weight:normal;" transform="translate(64 83.4875)"> slope 3.17</text>
    </g>
   </g>
  </g>
  <g id="axes_2">
   <g id="patch_5">
    <path d="M 118.309091 94.5 
L 194.4 94.5 
L 194.4 12.96 
L 118.309091 12.96 
z
" style="fill:#ffffff;"/>
   </g>
   <g id="PathCollection_1">
    <defs>
     <path d="M 0 2.44949 
C 0.649612 2.44949 1.272706 2.191396 1.732051 1.732051 
C 2.191396 1.272706 2.44949 0.649612 2.44949 0 
C 2.44949 -0.649612 2.191396 -1.272706 1.732051 -1.732051 
C 1.272706 -2.191396 0.649612 -2.44949 0 -2.44949 
C -0.649612 -2.44949 -1.272706 -2.191396 -1.732051 -1.732051 
C -2.191396 -1.272706 -2.44949 -0.649612 -2.44949 0 
C -2.44949 0.649612 -2.191396 1.272706 -1.732051 1.732051 
C -1.272706 2.191396 -0.649612 2.44949 0 2.44949 
z
" id="m521e823a82" style="stroke:#000000;"/>
    </defs>
    <g clip-path="url(#pfb0e360e69)">
     <use style="stroke:#000000;" x="131.882601" xlink:href="#m521e823a82" y="76.838993"/>
     <use style="stroke:#000000;" x="128.450301" xlink:href="#m521e823a82" y="84.472375"/>
     <use style="stroke:#000000;" x="127.648842" xlink:href="#m521e823a82" y="81.407113"/>
     <use style="stroke:#000000;" x="141.681754" xlink:href="#m521e823a82" y="24.127296"/>
     <use style="stroke:#000000;" x="139.875645" xlink:href="#m521e823a82" y="65.999271"/>
     <use style="stroke:#000000;" x="136.396056" xlink:href="#m521e823a82" y="76.496113"/>
     <use style="stroke:#000000;" x="129.97876" xlink:href="#m521e823a82" y="82.14683"/>
     <use style="stroke:#000000;" x="127.482236" xlink:href="#m521e823a82" y="78.018502"/>
     <use style="stroke:#000000;" x="137.29389" xlink:href="#m521e823a82" y="69.108004"/>
     <use style="stroke:#000000;" x="125.101915" xlink:href="#m521e823a82" y="88.152571"/>
     <use style="stroke:#000000;" x="127.559014" xlink:href="#m521e823a82" y="81.980102"/>
     <use style="stroke:#000000;" x="137.122873" xlink:href="#m521e823a82" y="74.104255"/>
     <use style="stroke:#000000;" x="118.309091" xlink:href="#m521e823a82" y="94.5"/>
     <use style="stroke:#000000;" x="118.309091" xlink:href="#m521e823a82" y="94.5"/>
     <use style="stroke:#000000;" x="122.665179" xlink:href="#m521e823a82" y="94.5"/>
     <use style="stroke:#000000;" x="128.853193" xlink:href="#m521e823a82" y="83.729399"/>
     <use style="stroke:#000000;" x="146.141445" xlink:href="#m521e823a82" y="66.188175"/>
     <use style="stroke:#000000;" x="147.284525" xlink:href="#m521e823a82" y="64.646714"/>
     <use style="stroke:#000000;" x="130.103324" xlink:href="#m521e823a82" y="81.129769"/>
     <use style="stroke:#000000;" x="122.006835" xlink:href="#m521e823a82" y="88.983562"/>
     <use style="stroke:#000000;" x="159.974846" xlink:href="#m521e823a82" y="45.288255"/>
     <use style="stroke:#000000;" x="138.719402" xlink:href="#m521e823a82" y="72.036461"/>
     <use style="stroke:#000000;" x="137.93301" xlink:href="#m521e823a82" y="65.65608"/>
     <use style="stroke:#000000;" x="190.428726" xlink:href="#m521e823a82" y="89.865991"/>
     <use style="stroke:#000000;" x="145.071937" xlink:href="#m521e823a82" y="62.905713"/>
     <use style="stroke:#000000;" x="126.820299" xlink:href="#m521e823a82" y="85.269105"/>
     <use style="stroke:#000000;" x="138.637891" xlink:href="#m521e823a82" y="68.689039"/>
     <use style="stroke:#000000;" x="125.785094" xlink:href="#m521e823a82" y="65.33986"/>
     <use style="stroke:#000000;" x="139.289007" xlink:href="#m521e823a82" y="53.715742"/>
     <use style="stroke:#000000;" x="143.837104" xlink:href="#m521e823a82" y="86.237435"/>
    </g>
   </g>
   <g id="line2d_13">
    <path clip-path="url(#pfb0e360e69)" d="M 118.309091 81.632725 
L 119.077686 81.333542 
L 119.846281 81.034358 
L 120.614876 80.735175 
L 121.383471 80.435991 
L 122.152066 80.136808 
L 122.920661 79.837624 
L 123.689256 79.538441 
L 124.457851 79.239258 
L 125.226446 78.940074 
L 125.995041 78.640891 
L 126.763636 78.341707 
L 127.532231 78.042524 
L 128.300826 77.74334 
L 129.069421 77.444157 
L 129.838017 77.144973 
L 130.606612 76.84579 
L 131.375207 76.546607 
L 132.143802 76.247423 
L 132.912397 75.94824 
L 133.680992 75.649056 
L 134.449587 75.349873 
L 135.218182 75.050689 
L 135.986777 74.751506 
L 136.755372 74.452323 
L 137.523967 74.153139 
L 138.292562 73.853956 
L 139.061157 73.554772 
L 139.829752 73.255589 
L 140.598347 72.956405 
L 141.366942 72.657222 
L 142.135537 72.358039 
L 142.904132 72.058855 
L 143.672727 71.759672 
L 144.441322 71.460488 
L 145.209917 71.161305 
L 145.978512 70.862121 
L 146.747107 70.562938 
L 147.515702 70.263755 
L 148.284298 69.964571 
L 149.052893 69.665388 
L 149.821488 69.366204 
L 150.590083 69.067021 
L 151.358678 68.767837 
L 152.127273 68.468654 
L 152.895868 68.169471 
L 153.664463 67.870287 
L 154.433058 67.571104 
L 155.201653 67.27192 
L 155.970248 66.972737 
L 156.738843 66.673553 
L 157.507438 66.37437 
L 158.276033 66.075187 
L 159.044628 65.776003 
L 159.813223 65.47682 
L 160.581818 65.177636 
L 161.350413 64.878453 
L 162.119008 64.579269 
L 162.887603 64.280086 
L 163.656198 63.980903 
L 164.424793 63.681719 
L 165.193388 63.382536 
L 165.961983 63.083352 
L 166.730579 62.784169 
L 167.499174 62.484985 
L 168.267769 62.185802 
L 169.036364 61.886619 
L 169.804959 61.587435 
L 170.573554 61.288252 
L 171.342149 60.989068 
L 172.110744 60.689885 
L 172.879339 60.390701 
L 173.647934 60.091518 
L 174.416529 59.792334 
L 175.185124 59.493151 
L 175.953719 59.193968 
L 176.722314 58.894784 
L 177.490909 58.595601 
L 178.259504 58.296417 
L 179.028099 57.997234 
L 179.796694 57.69805 
L 180.565289 57.398867 
L 181.333884 57.099684 
L 182.102479 56.8005 
L 182.871074 56.501317 
L 183.639669 56.202133 
L 184.408264 55.90295 
L 185.17686 55.603766 
L 185.945455 55.304583 
L 186.71405 55.0054 
L 187.482645 54.706216 
L 188.25124 54.407033 
L 189.019835 54.107849 
L 189.78843 53.808666 
L 190.557025 53.509482 
L 191.32562 53.210299 
L 192.094215 52.911116 
L 192.86281 52.611932 
L 193.631405 52.312749 
L 194.4 52.013565 
" style="fill:none;stroke:#000000;stroke-dasharray:1.85,0.8;stroke-dashoffset:0;stroke-width:0.5;"/>
   </g>
   <g id="patch_6">
    <path d="M 118.309091 94.5 
L 118.309091 12.96 
" style="fill:none;stroke:#000000;stroke-linecap:square;stroke-linejoin:miter;"/>
   </g>
   <g id="patch_7">
    <path d="M 118.309091 94.5 
L 194.4 94.5 
" style="fill:none;stroke:#000000;stroke-linecap:square;stroke-linejoin:miter;"/>
   </g>
   <g id="matplotlib.axis_3">
    <g id="xtick_4">
     <g id="line2d_14"/>
     <g id="text_12">
      <text style="font-family:Arial;font-size:8px;font-style:normal;font-weight:normal;text-anchor:middle;" transform="rotate(-0, 118.309091, 103.72625)" x="118.309091" y="103.72625">0</text>
     </g>
    </g>
    <g id="xtick_5">
     <g id="line2d_15"/>
     <g id="text_13">
      <text style="font-family:Arial;font-size:8px;font-style:normal;font-weight:normal;text-anchor:middle;" transform="rotate(-0, 159.572464, 103.72625)" x="159.572464" y="103.72625">2</text>
     </g>
    </g>
    <g id="text_14">
     <!-- $\sigma$(Exc) -->
     <g transform="translate(141.504545 116.61625)">
      <text>
       <tspan style="font-family:DejaVu Sans;font-size:10px;font-style:oblique;font-weight:oblique;" x="0" y="-0.71875">σ</tspan>
       <tspan style="font-family:Arial;font-size:10px;font-style:regular;font-weight:regular;" x="6.337891 9.667969 16.337891 21.337891 26.337891" y="-0.71875">(Exc)</tspan>
      </text>
     </g>
    </g>
   </g>
   <g id="matplotlib.axis_4">
    <g id="ytick_6">
     <g id="line2d_16"/>
     <g id="text_15">
      <text style="font-family:Arial;font-size:8px;font-style:normal;font-weight:normal;text-anchor:end;" transform="rotate(-0, 114.809091, 97.363125)" x="114.809091" y="97.363125">0</text>
     </g>
    </g>
    <g id="ytick_7">
     <g id="line2d_17"/>
     <g id="text_16">
      <text style="font-family:Arial;font-size:8px;font-style:normal;font-weight:normal;text-anchor:end;" transform="rotate(-0, 114.809091, 75.253943)" x="114.809091" y="75.253943">1</text>
     </g>
    </g>
    <g id="ytick_8">
     <g id="line2d_18"/>
     <g id="text_17">
      <text style="font-family:Arial;font-size:8px;font-style:normal;font-weight:normal;text-anchor:end;" transform="rotate(-0, 114.809091, 53.144762)" x="114.809091" y="53.144762">2</text>
     </g>
    </g>
    <g id="ytick_9">
     <g id="line2d_19"/>
     <g id="text_18">
      <text style="font-family:Arial;font-size:8px;font-style:normal;font-weight:normal;text-anchor:end;" transform="rotate(-0, 114.809091, 31.03558)" x="114.809091" y="31.03558">3</text>
     </g>
    </g>
    <g id="text_19">
     <!-- $\sigma$(Inh) -->
     <g transform="translate(104.160341 67.18)rotate(-90)">
      <text>
       <tspan style="font-family:DejaVu Sans;font-size:10px;font-style:oblique;font-weight:oblique;" x="0" y="-0.71875">σ</tspan>
       <tspan style="font-family:Arial;font-size:10px;font-style:regular;font-weight:regular;" x="6.337891 9.667969 12.446289 18.007812 23.569336" y="-0.71875">(Inh)</tspan>
      </text>
     </g>
    </g>
   </g>
   <g id="legend_2">
    <g id="line2d_20">
     <path d="M 108.478125 31.995156 
L 128.478125 31.995156 
" style="fill:none;stroke:#000000;stroke-dasharray:1.85,0.8;stroke-dashoffset:0;stroke-width:0.5;"/>
    </g>
    <g id="line2d_21"/>
    <g id="text_20">
     <!-- $R^2$ 0.12 -->
     <g transform="translate(136.478125 29.2475)">
      <text>
       <tspan style="font-family:DejaVu Sans;font-size:10px;font-style:oblique;font-weight:oblique;" x="0" y="-0.9765625">R</tspan>
       <tspan style="font-family:DejaVu Sans;font-size:7px;font-style:book;font-weight:book;" x="7.650794" y="-4.8046875">2</tspan>
       <tspan style="font-family:Arial;font-size:10px;font-style:regular;font-weight:regular;" x="12.377845 15.156165 20.717689 23.496009 29.057533" y="-0.9765625"> 0.12</tspan>
      </text>
     </g>
     <text style="font-family:Arial;font-size:10px;font-style:normal;font-weight:normal;" transform="translate(136.478125 39.86)"> slope 0.36</text>
    </g>
   </g>
  </g>
 </g>
 <defs>
  <clipPath id="pc24f4d68e6">
   <rect height="81.54" width="76.090909" x="27" y="12.96"/>
  </clipPath>
  <clipPath id="pfb0e360e69">
   <rect height="81.54" width="76.090909" x="118.309091" y="12.96"/>
  </clipPath>
 </defs>
</svg>
