<?xml version="1.0" encoding="utf-8" standalone="no"?>
<!DOCTYPE svg PUBLIC "-//W3C//DTD SVG 1.1//EN"
  "http://www.w3.org/Graphics/SVG/1.1/DTD/svg11.dtd">
<!-- Created with matplotlib (http://matplotlib.org/) -->
<svg height="108pt" version="1.1" viewBox="0 0 216 108" width="216pt" xmlns="http://www.w3.org/2000/svg" xmlns:xlink="http://www.w3.org/1999/xlink">
 <defs>
  <style type="text/css">
*{stroke-linecap:butt;stroke-linejoin:round;}
  </style>
 </defs>
 <g id="figure_1">
  <g id="patch_1">
   <path d="M 0 108 
L 216 108 
L 216 0 
L 0 0 
z
" style="fill:#ffffff;"/>
  </g>
  <g id="axes_1">
   <g id="patch_2">
    <path d="M 27 94.5 
L 103.090909 94.5 
L 103.090909 12.96 
L 27 12.96 
z
" style="fill:#ffffff;"/>
   </g>
   <g id="LineCollection_1">
    <path clip-path="url(#pa6601b82da)" d="M 29.713497 70.802107 
L 40.081994 70.802107 
" style="fill:none;stroke:#000000;stroke-width:0.5;"/>
    <path clip-path="url(#pa6601b82da)" d="M 25.136201 72.114811 
L 37.516895 72.114811 
" style="fill:none;stroke:#000000;stroke-width:0.5;"/>
    <path clip-path="url(#pa6601b82da)" d="M 40.790299 28.289793 
L 49.572487 28.289793 
" style="fill:none;stroke:#000000;stroke-width:0.5;"/>
    <path clip-path="url(#pa6601b82da)" d="M 36.995815 24.680415 
L 48.353157 24.680415 
" style="fill:none;stroke:#000000;stroke-width:0.5;"/>
    <path clip-path="url(#pa6601b82da)" d="M 27.781223 56.009348 
L 41.202449 56.009348 
" style="fill:none;stroke:#000000;stroke-width:0.5;"/>
    <path clip-path="url(#pa6601b82da)" d="M 24.391669 68.350122 
L 45.203765 68.350122 
" style="fill:none;stroke:#000000;stroke-width:0.5;"/>
    <path clip-path="url(#pa6601b82da)" d="M 26.418776 91.81074 
L 28.383194 91.81074 
" style="fill:none;stroke:#000000;stroke-width:0.5;"/>
    <path clip-path="url(#pa6601b82da)" d="M 29.840012 78.338568 
L 42.116848 78.338568 
" style="fill:none;stroke:#000000;stroke-width:0.5;"/>
    <path clip-path="url(#pa6601b82da)" d="M 25.314221 52.02691 
L 40.889899 52.02691 
" style="fill:none;stroke:#000000;stroke-width:0.5;"/>
    <path clip-path="url(#pa6601b82da)" d="M 26.822536 61.839969 
L 44.269156 61.839969 
" style="fill:none;stroke:#000000;stroke-width:0.5;"/>
    <path clip-path="url(#pa6601b82da)" d="M 25.229361 80.205082 
L 32.523941 80.205082 
" style="fill:none;stroke:#000000;stroke-width:0.5;"/>
    <path clip-path="url(#pa6601b82da)" d="M 26.530578 81.613021 
L 31.319487 81.613021 
" style="fill:none;stroke:#000000;stroke-width:0.5;"/>
    <path clip-path="url(#pa6601b82da)" d="M 25.783624 68.267265 
L 39.598795 68.267265 
" style="fill:none;stroke:#000000;stroke-width:0.5;"/>
    <path clip-path="url(#pa6601b82da)" d="M 27.367165 29.184004 
L 41.089447 29.184004 
" style="fill:none;stroke:#000000;stroke-width:0.5;"/>
    <path clip-path="url(#pa6601b82da)" d="M 25.276508 65.576487 
L 33.530848 65.576487 
" style="fill:none;stroke:#000000;stroke-width:0.5;"/>
    <path clip-path="url(#pa6601b82da)" d="M 23.982439 72.050705 
L 34.181179 72.050705 
" style="fill:none;stroke:#000000;stroke-width:0.5;"/>
    <path clip-path="url(#pa6601b82da)" d="M 27.067682 44.677589 
L 59.388842 44.677589 
" style="fill:none;stroke:#000000;stroke-width:0.5;"/>
    <path clip-path="url(#pa6601b82da)" d="M 29.593286 54.336657 
L 42.579456 54.336657 
" style="fill:none;stroke:#000000;stroke-width:0.5;"/>
    <path clip-path="url(#pa6601b82da)" d="M 28.521472 84.08037 
L 34.847211 84.08037 
" style="fill:none;stroke:#000000;stroke-width:0.5;"/>
    <path clip-path="url(#pa6601b82da)" d="M 26.357994 86.820692 
L 28.527843 86.820692 
" style="fill:none;stroke:#000000;stroke-width:0.5;"/>
    <path clip-path="url(#pa6601b82da)" d="M 27 94.5 
L 27 94.5 
" style="fill:none;stroke:#000000;stroke-width:0.5;"/>
    <path clip-path="url(#pa6601b82da)" d="M 28.290538 70.76064 
L 34.449922 70.76064 
" style="fill:none;stroke:#000000;stroke-width:0.5;"/>
    <path clip-path="url(#pa6601b82da)" d="M 25.614762 69.51887 
L 38.410168 69.51887 
" style="fill:none;stroke:#000000;stroke-width:0.5;"/>
    <path clip-path="url(#pa6601b82da)" d="M 27.420238 84.8951 
L 33.112696 84.8951 
" style="fill:none;stroke:#000000;stroke-width:0.5;"/>
    <path clip-path="url(#pa6601b82da)" d="M 25.681763 80.811982 
L 30.137136 80.811982 
" style="fill:none;stroke:#000000;stroke-width:0.5;"/>
    <path clip-path="url(#pa6601b82da)" d="M 29.713669 39.040003 
L 43.693366 39.040003 
" style="fill:none;stroke:#000000;stroke-width:0.5;"/>
    <path clip-path="url(#pa6601b82da)" d="M 25.316048 80.943195 
L 31.007463 80.943195 
" style="fill:none;stroke:#000000;stroke-width:0.5;"/>
    <path clip-path="url(#pa6601b82da)" d="M 26.414051 92.341129 
L 28.39444 92.341129 
" style="fill:none;stroke:#000000;stroke-width:0.5;"/>
    <path clip-path="url(#pa6601b82da)" d="M 27.587245 34.80094 
L 40.715999 34.80094 
" style="fill:none;stroke:#000000;stroke-width:0.5;"/>
    <path clip-path="url(#pa6601b82da)" d="M 34.114317 46.490129 
L 40.300937 46.490129 
" style="fill:none;stroke:#000000;stroke-width:0.5;"/>
   </g>
   <g id="LineCollection_2">
    <path clip-path="url(#pa6601b82da)" d="M 34.897745 78.848357 
L 34.897745 62.755857 
" style="fill:none;stroke:#000000;stroke-width:0.5;"/>
    <path clip-path="url(#pa6601b82da)" d="M 31.326548 77.106665 
L 31.326548 67.122957 
" style="fill:none;stroke:#000000;stroke-width:0.5;"/>
    <path clip-path="url(#pa6601b82da)" d="M 45.181393 36.748519 
L 45.181393 19.831068 
" style="fill:none;stroke:#000000;stroke-width:0.5;"/>
    <path clip-path="url(#pa6601b82da)" d="M 42.674486 32.517972 
L 42.674486 16.842857 
" style="fill:none;stroke:#000000;stroke-width:0.5;"/>
    <path clip-path="url(#pa6601b82da)" d="M 34.491836 58.994328 
L 34.491836 53.024369 
" style="fill:none;stroke:#000000;stroke-width:0.5;"/>
    <path clip-path="url(#pa6601b82da)" d="M 34.797717 78.946739 
L 34.797717 57.753506 
" style="fill:none;stroke:#000000;stroke-width:0.5;"/>
    <path clip-path="url(#pa6601b82da)" d="M 27.400985 91.81074 
L 27.400985 91.81074 
" style="fill:none;stroke:#000000;stroke-width:0.5;"/>
    <path clip-path="url(#pa6601b82da)" d="M 35.97843 79.502885 
L 35.97843 77.17425 
" style="fill:none;stroke:#000000;stroke-width:0.5;"/>
    <path clip-path="url(#pa6601b82da)" d="M 33.10206 58.290837 
L 33.10206 45.762984 
" style="fill:none;stroke:#000000;stroke-width:0.5;"/>
    <path clip-path="url(#pa6601b82da)" d="M 35.545846 71.932625 
L 35.545846 51.747314 
" style="fill:none;stroke:#000000;stroke-width:0.5;"/>
    <path clip-path="url(#pa6601b82da)" d="M 28.876651 87.278525 
L 28.876651 73.131639 
" style="fill:none;stroke:#000000;stroke-width:0.5;"/>
    <path clip-path="url(#pa6601b82da)" d="M 28.925033 82.82213 
L 28.925033 80.403911 
" style="fill:none;stroke:#000000;stroke-width:0.5;"/>
    <path clip-path="url(#pa6601b82da)" d="M 32.691209 72.164087 
L 32.691209 64.370444 
" style="fill:none;stroke:#000000;stroke-width:0.5;"/>
    <path clip-path="url(#pa6601b82da)" d="M 34.228306 40.124294 
L 34.228306 18.243714 
" style="fill:none;stroke:#000000;stroke-width:0.5;"/>
    <path clip-path="url(#pa6601b82da)" d="M 29.403678 70.72215 
L 29.403678 60.430825 
" style="fill:none;stroke:#000000;stroke-width:0.5;"/>
    <path clip-path="url(#pa6601b82da)" d="M 29.081809 78.498935 
L 29.081809 65.602475 
" style="fill:none;stroke:#000000;stroke-width:0.5;"/>
    <path clip-path="url(#pa6601b82da)" d="M 43.228262 59.890445 
L 43.228262 29.464734 
" style="fill:none;stroke:#000000;stroke-width:0.5;"/>
    <path clip-path="url(#pa6601b82da)" d="M 36.086371 60.910364 
L 36.086371 47.76295 
" style="fill:none;stroke:#000000;stroke-width:0.5;"/>
    <path clip-path="url(#pa6601b82da)" d="M 31.684342 88.054605 
L 31.684342 80.106134 
" style="fill:none;stroke:#000000;stroke-width:0.5;"/>
    <path clip-path="url(#pa6601b82da)" d="M 27.442919 88.519493 
L 27.442919 85.121891 
" style="fill:none;stroke:#000000;stroke-width:0.5;"/>
    <path clip-path="url(#pa6601b82da)" d="M 27 94.5 
L 27 94.5 
" style="fill:none;stroke:#000000;stroke-width:0.5;"/>
    <path clip-path="url(#pa6601b82da)" d="M 31.37023 78.838666 
L 31.37023 62.682614 
" style="fill:none;stroke:#000000;stroke-width:0.5;"/>
    <path clip-path="url(#pa6601b82da)" d="M 32.012465 76.297533 
L 32.012465 62.740206 
" style="fill:none;stroke:#000000;stroke-width:0.5;"/>
    <path clip-path="url(#pa6601b82da)" d="M 30.266467 86.987142 
L 30.266467 82.803059 
" style="fill:none;stroke:#000000;stroke-width:0.5;"/>
    <path clip-path="url(#pa6601b82da)" d="M 27.909449 84.414281 
L 27.909449 77.209684 
" style="fill:none;stroke:#000000;stroke-width:0.5;"/>
    <path clip-path="url(#pa6601b82da)" d="M 36.703517 50.664114 
L 36.703517 27.415892 
" style="fill:none;stroke:#000000;stroke-width:0.5;"/>
    <path clip-path="url(#pa6601b82da)" d="M 28.161755 85.986848 
L 28.161755 75.899543 
" style="fill:none;stroke:#000000;stroke-width:0.5;"/>
    <path clip-path="url(#pa6601b82da)" d="M 27.404245 93.398755 
L 27.404245 91.283502 
" style="fill:none;stroke:#000000;stroke-width:0.5;"/>
    <path clip-path="url(#pa6601b82da)" d="M 34.151622 44.044604 
L 34.151622 25.557275 
" style="fill:none;stroke:#000000;stroke-width:0.5;"/>
    <path clip-path="url(#pa6601b82da)" d="M 37.207627 53.308779 
L 37.207627 39.671478 
" style="fill:none;stroke:#000000;stroke-width:0.5;"/>
   </g>
   <g id="line2d_1">
    <path clip-path="url(#pa6601b82da)" d="M 27 86.170324 
L 27.768595 83.511899 
L 28.53719 80.853474 
L 29.305785 78.195049 
L 30.07438 75.536624 
L 30.842975 72.878199 
L 31.61157 70.219774 
L 32.380165 67.561349 
L 33.14876 64.902924 
L 33.917355 62.244499 
L 34.68595 59.586075 
L 35.454545 56.92765 
L 36.22314 54.269225 
L 36.991736 51.6108 
L 37.760331 48.952375 
L 38.528926 46.29395 
L 39.297521 43.635525 
L 40.066116 40.9771 
L 40.834711 38.318675 
L 41.603306 35.660251 
L 42.371901 33.001826 
L 43.140496 30.343401 
L 43.909091 27.684976 
L 44.677686 25.026551 
L 45.446281 22.368126 
L 46.214876 19.709701 
L 46.983471 17.051276 
L 47.752066 14.392851 
L 48.520661 11.734427 
L 49.289256 9.076002 
L 50.057851 6.417577 
L 50.826446 3.759152 
L 51.595041 1.100727 
L 52.202397 -1 
" style="fill:none;stroke:#000000;stroke-dasharray:1.85,0.8;stroke-dashoffset:0;stroke-width:0.5;"/>
   </g>
   <g id="line2d_2">
    <defs>
     <path d="M 0 3 
C 0.795609 3 1.55874 2.683901 2.12132 2.12132 
C 2.683901 1.55874 3 0.795609 3 0 
C 3 -0.795609 2.683901 -1.55874 2.12132 -2.12132 
C 1.55874 -2.683901 0.795609 -3 0 -3 
C -0.795609 -3 -1.55874 -2.683901 -2.12132 -2.12132 
C -2.683901 -1.55874 -3 -0.795609 -3 0 
C -3 0.795609 -2.683901 1.55874 -2.12132 2.12132 
C -1.55874 2.683901 -0.795609 3 0 3 
z
" id="m8caee9cae7" style="stroke:#000000;"/>
    </defs>
    <g clip-path="url(#pa6601b82da)">
     <use style="stroke:#000000;" x="34.897745" xlink:href="#m8caee9cae7" y="70.802107"/>
     <use style="stroke:#000000;" x="31.326548" xlink:href="#m8caee9cae7" y="72.114811"/>
     <use style="stroke:#000000;" x="45.181393" xlink:href="#m8caee9cae7" y="28.289793"/>
     <use style="stroke:#000000;" x="42.674486" xlink:href="#m8caee9cae7" y="24.680415"/>
     <use style="stroke:#000000;" x="34.491836" xlink:href="#m8caee9cae7" y="56.009348"/>
     <use style="stroke:#000000;" x="34.797717" xlink:href="#m8caee9cae7" y="68.350122"/>
     <use style="stroke:#000000;" x="27.400985" xlink:href="#m8caee9cae7" y="91.81074"/>
     <use style="stroke:#000000;" x="35.97843" xlink:href="#m8caee9cae7" y="78.338568"/>
     <use style="stroke:#000000;" x="33.10206" xlink:href="#m8caee9cae7" y="52.02691"/>
     <use style="stroke:#000000;" x="35.545846" xlink:href="#m8caee9cae7" y="61.839969"/>
     <use style="stroke:#000000;" x="28.876651" xlink:href="#m8caee9cae7" y="80.205082"/>
     <use style="stroke:#000000;" x="28.925033" xlink:href="#m8caee9cae7" y="81.613021"/>
     <use style="stroke:#000000;" x="32.691209" xlink:href="#m8caee9cae7" y="68.267265"/>
     <use style="stroke:#000000;" x="34.228306" xlink:href="#m8caee9cae7" y="29.184004"/>
     <use style="stroke:#000000;" x="29.403678" xlink:href="#m8caee9cae7" y="65.576487"/>
     <use style="stroke:#000000;" x="29.081809" xlink:href="#m8caee9cae7" y="72.050705"/>
     <use style="stroke:#000000;" x="43.228262" xlink:href="#m8caee9cae7" y="44.677589"/>
     <use style="stroke:#000000;" x="36.086371" xlink:href="#m8caee9cae7" y="54.336657"/>
     <use style="stroke:#000000;" x="31.684342" xlink:href="#m8caee9cae7" y="84.08037"/>
     <use style="stroke:#000000;" x="27.442919" xlink:href="#m8caee9cae7" y="86.820692"/>
     <use style="stroke:#000000;" x="27" xlink:href="#m8caee9cae7" y="94.5"/>
     <use style="stroke:#000000;" x="31.37023" xlink:href="#m8caee9cae7" y="70.76064"/>
     <use style="stroke:#000000;" x="32.012465" xlink:href="#m8caee9cae7" y="69.51887"/>
     <use style="stroke:#000000;" x="30.266467" xlink:href="#m8caee9cae7" y="84.8951"/>
     <use style="stroke:#000000;" x="27.909449" xlink:href="#m8caee9cae7" y="80.811982"/>
     <use style="stroke:#000000;" x="36.703517" xlink:href="#m8caee9cae7" y="39.040003"/>
     <use style="stroke:#000000;" x="28.161755" xlink:href="#m8caee9cae7" y="80.943195"/>
     <use style="stroke:#000000;" x="27.404245" xlink:href="#m8caee9cae7" y="92.341129"/>
     <use style="stroke:#000000;" x="34.151622" xlink:href="#m8caee9cae7" y="34.80094"/>
     <use style="stroke:#000000;" x="37.207627" xlink:href="#m8caee9cae7" y="46.490129"/>
    </g>
   </g>
   <g id="patch_3">
    <path d="M 27 94.5 
L 27 12.96 
" style="fill:none;stroke:#000000;stroke-linecap:square;stroke-linejoin:miter;"/>
   </g>
   <g id="patch_4">
    <path d="M 27 94.5 
L 103.090909 94.5 
" style="fill:none;stroke:#000000;stroke-linecap:square;stroke-linejoin:miter;"/>
   </g>
   <g id="matplotlib.axis_1">
    <g id="xtick_1">
     <g id="line2d_3"/>
     <g id="text_1">
      <text style="font-family:Arial;font-size:8px;font-style:normal;font-weight:normal;text-anchor:middle;" transform="rotate(-0, 27, 103.72625)" x="27" y="103.72625">0</text>
     </g>
    </g>
    <g id="xtick_2">
     <g id="line2d_4"/>
     <g id="text_2">
      <text style="font-family:Arial;font-size:8px;font-style:normal;font-weight:normal;text-anchor:middle;" transform="rotate(-0, 66.501874, 103.72625)" x="66.501874" y="103.72625">5</text>
     </g>
    </g>
    <g id="text_3">
     <text style="font-family:Arial;font-size:10px;font-style:normal;font-weight:normal;text-anchor:middle;" transform="rotate(-0, 65.045455, 116.474063)" x="65.045455" y="116.474063">Exc</text>
    </g>
   </g>
   <g id="matplotlib.axis_2">
    <g id="ytick_1">
     <g id="line2d_5"/>
     <g id="text_4">
      <text style="font-family:Arial;font-size:8px;font-style:normal;font-weight:normal;text-anchor:end;" transform="rotate(-0, 23.5, 97.363125)" x="23.5" y="97.363125">0</text>
     </g>
    </g>
    <g id="ytick_2">
     <g id="line2d_6"/>
     <g id="text_5">
      <text style="font-family:Arial;font-size:8px;font-style:normal;font-weight:normal;text-anchor:end;" transform="rotate(-0, 23.5, 80.430838)" x="23.5" y="80.430838">2</text>
     </g>
    </g>
    <g id="ytick_3">
     <g id="line2d_7"/>
     <g id="text_6">
      <text style="font-family:Arial;font-size:8px;font-style:normal;font-weight:normal;text-anchor:end;" transform="rotate(-0, 23.5, 63.49855)" x="23.5" y="63.49855">4</text>
     </g>
    </g>
    <g id="ytick_4">
     <g id="line2d_8"/>
     <g id="text_7">
      <text style="font-family:Arial;font-size:8px;font-style:normal;font-weight:normal;text-anchor:end;" transform="rotate(-0, 23.5, 46.566263)" x="23.5" y="46.566263">6</text>
     </g>
    </g>
    <g id="ytick_5">
     <g id="line2d_9"/>
     <g id="text_8">
      <text style="font-family:Arial;font-size:8px;font-style:normal;font-weight:normal;text-anchor:end;" transform="rotate(-0, 23.5, 29.633976)" x="23.5" y="29.633976">8</text>
     </g>
    </g>
    <g id="text_9">
     <text style="font-family:Arial;font-size:10px;font-style:normal;font-weight:normal;text-anchor:middle;" transform="rotate(-90, 13.06375, 53.73)" x="13.06375" y="53.73">Inh</text>
    </g>
   </g>
   <g id="legend_1">
    <g id="line2d_10">
     <path d="M 36 75.622656 
L 56 75.622656 
" style="fill:none;stroke:#000000;stroke-dasharray:1.85,0.8;stroke-dashoffset:0;stroke-width:0.5;"/>
    </g>
    <g id="line2d_11"/>
    <g id="text_10">
     <!-- $R^2$ 0.67 -->
     <g transform="translate(64 72.875)">
      <text>
       <tspan style="font-family:DejaVu Sans;font-size:10px;font-style:oblique;font-weight:oblique;" x="0" y="-0.9765625">R</tspan>
       <tspan style="font-family:DejaVu Sans;font-size:7px;font-style:book;font-weight:book;" x="7.650794" y="-4.8046875">2</tspan>
       <tspan style="font-family:Arial;font-size:10px;font-style:regular;font-weight:regular;" x="12.377845 15.156165 20.717689 23.496009 29.057533" y="-0.9765625"> 0.67</tspan>
      </text>
     </g>
     <text style="font-family:Arial;font-size:10px;font-style:normal;font-weight:normal;" transform="translate(64 83.4875)"> slope 3.23</text>
    </g>
   </g>
  </g>
  <g id="axes_2">
   <g id="patch_5">
    <path d="M 118.309091 94.5 
L 194.4 94.5 
L 194.4 12.96 
L 118.309091 12.96 
z
" style="fill:#ffffff;"/>
   </g>
   <g id="PathCollection_1">
    <defs>
     <path d="M 0 2.44949 
C 0.649612 2.44949 1.272706 2.191396 1.732051 1.732051 
C 2.191396 1.272706 2.44949 0.649612 2.44949 0 
C 2.44949 -0.649612 2.191396 -1.272706 1.732051 -1.732051 
C 1.272706 -2.191396 0.649612 -2.44949 0 -2.44949 
C -0.649612 -2.44949 -1.272706 -2.191396 -1.732051 -1.732051 
C -2.191396 -1.272706 -2.44949 -0.649612 -2.44949 0 
C -2.44949 0.649612 -2.191396 1.272706 -1.732051 1.732051 
C -1.272706 2.191396 -0.649612 2.44949 0 2.44949 
z
" id="m3348688ba7" style="stroke:#000000;"/>
    </defs>
    <g clip-path="url(#pd94bb0b74c)">
     <use style="stroke:#000000;" x="141.366312" xlink:href="#m3348688ba7" y="58.713878"/>
     <use style="stroke:#000000;" x="145.840988" xlink:href="#m3348688ba7" y="72.298466"/>
     <use style="stroke:#000000;" x="137.838716" xlink:href="#m3348688ba7" y="56.87937"/>
     <use style="stroke:#000000;" x="143.565281" xlink:href="#m3348688ba7" y="59.642047"/>
     <use style="stroke:#000000;" x="148.154896" xlink:href="#m3348688ba7" y="81.224144"/>
     <use style="stroke:#000000;" x="164.59054" xlink:href="#m3348688ba7" y="47.370986"/>
     <use style="stroke:#000000;" x="122.677518" xlink:href="#m3348688ba7" y="94.5"/>
     <use style="stroke:#000000;" x="145.610032" xlink:href="#m3348688ba7" y="89.321637"/>
     <use style="stroke:#000000;" x="152.945918" xlink:href="#m3348688ba7" y="66.640856"/>
     <use style="stroke:#000000;" x="157.106476" xlink:href="#m3348688ba7" y="49.61238"/>
     <use style="stroke:#000000;" x="134.530605" xlink:href="#m3348688ba7" y="63.040488"/>
     <use style="stroke:#000000;" x="128.958554" xlink:href="#m3348688ba7" y="89.122422"/>
     <use style="stroke:#000000;" x="149.030944" xlink:href="#m3348688ba7" y="77.168681"/>
     <use style="stroke:#000000;" x="148.82438" xlink:href="#m3348688ba7" y="45.842479"/>
     <use style="stroke:#000000;" x="136.664898" xlink:href="#m3348688ba7" y="71.614392"/>
     <use style="stroke:#000000;" x="140.98881" xlink:href="#m3348688ba7" y="65.821154"/>
     <use style="stroke:#000000;" x="190.184128" xlink:href="#m3348688ba7" y="26.840018"/>
     <use style="stroke:#000000;" x="147.187431" xlink:href="#m3348688ba7" y="65.263089"/>
     <use style="stroke:#000000;" x="132.376121" xlink:href="#m3348688ba7" y="76.824377"/>
     <use style="stroke:#000000;" x="123.134349" xlink:href="#m3348688ba7" y="86.944494"/>
     <use style="stroke:#000000;" x="118.309091" xlink:href="#m3348688ba7" y="94.5"/>
     <use style="stroke:#000000;" x="132.006186" xlink:href="#m3348688ba7" y="58.572551"/>
     <use style="stroke:#000000;" x="146.763215" xlink:href="#m3348688ba7" y="64.351535"/>
     <use style="stroke:#000000;" x="130.967847" xlink:href="#m3348688ba7" y="85.195534"/>
     <use style="stroke:#000000;" x="128.216844" xlink:href="#m3348688ba7" y="78.478587"/>
     <use style="stroke:#000000;" x="149.396812" xlink:href="#m3348688ba7" y="42.801151"/>
     <use style="stroke:#000000;" x="130.965527" xlink:href="#m3348688ba7" y="72.068088"/>
     <use style="stroke:#000000;" x="122.713035" xlink:href="#m3348688ba7" y="89.79615"/>
     <use style="stroke:#000000;" x="147.504505" xlink:href="#m3348688ba7" y="53.388312"/>
     <use style="stroke:#000000;" x="132.06675" xlink:href="#m3348688ba7" y="64.173689"/>
    </g>
   </g>
   <g id="line2d_12">
    <path clip-path="url(#pd94bb0b74c)" d="M 118.309091 88.373182 
L 119.077686 87.692626 
L 119.846281 87.012069 
L 120.614876 86.331512 
L 121.383471 85.650956 
L 122.152066 84.970399 
L 122.920661 84.289843 
L 123.689256 83.609286 
L 124.457851 82.92873 
L 125.226446 82.248173 
L 125.995041 81.567617 
L 126.763636 80.88706 
L 127.532231 80.206504 
L 128.300826 79.525947 
L 129.069421 78.845391 
L 129.838017 78.164834 
L 130.606612 77.484278 
L 131.375207 76.803721 
L 132.143802 76.123165 
L 132.912397 75.442608 
L 133.680992 74.762051 
L 134.449587 74.081495 
L 135.218182 73.400938 
L 135.986777 72.720382 
L 136.755372 72.039825 
L 137.523967 71.359269 
L 138.292562 70.678712 
L 139.061157 69.998156 
L 139.829752 69.317599 
L 140.598347 68.637043 
L 141.366942 67.956486 
L 142.135537 67.27593 
L 142.904132 66.595373 
L 143.672727 65.914817 
L 144.441322 65.23426 
L 145.209917 64.553704 
L 145.978512 63.873147 
L 146.747107 63.192591 
L 147.515702 62.512034 
L 148.284298 61.831477 
L 149.052893 61.150921 
L 149.821488 60.470364 
L 150.590083 59.789808 
L 151.358678 59.109251 
L 152.127273 58.428695 
L 152.895868 57.748138 
L 153.664463 57.067582 
L 154.433058 56.387025 
L 155.201653 55.706469 
L 155.970248 55.025912 
L 156.738843 54.345356 
L 157.507438 53.664799 
L 158.276033 52.984243 
L 159.044628 52.303686 
L 159.813223 51.62313 
L 160.581818 50.942573 
L 161.350413 50.262016 
L 162.119008 49.58146 
L 162.887603 48.900903 
L 163.656198 48.220347 
L 164.424793 47.53979 
L 165.193388 46.859234 
L 165.961983 46.178677 
L 166.730579 45.498121 
L 167.499174 44.817564 
L 168.267769 44.137008 
L 169.036364 43.456451 
L 169.804959 42.775895 
L 170.573554 42.095338 
L 171.342149 41.414782 
L 172.110744 40.734225 
L 172.879339 40.053669 
L 173.647934 39.373112 
L 174.416529 38.692556 
L 175.185124 38.011999 
L 175.953719 37.331442 
L 176.722314 36.650886 
L 177.490909 35.970329 
L 178.259504 35.289773 
L 179.028099 34.609216 
L 179.796694 33.92866 
L 180.565289 33.248103 
L 181.333884 32.567547 
L 182.102479 31.88699 
L 182.871074 31.206434 
L 183.639669 30.525877 
L 184.408264 29.845321 
L 185.17686 29.164764 
L 185.945455 28.484208 
L 186.71405 27.803651 
L 187.482645 27.123095 
L 188.25124 26.442538 
L 189.019835 25.761981 
L 189.78843 25.081425 
L 190.557025 24.400868 
L 191.32562 23.720312 
L 192.094215 23.039755 
L 192.86281 22.359199 
L 193.631405 21.678642 
L 194.4 20.998086 
" style="fill:none;stroke:#000000;stroke-dasharray:1.85,0.8;stroke-dashoffset:0;stroke-width:0.5;"/>
   </g>
   <g id="patch_6">
    <path d="M 118.309091 94.5 
L 118.309091 12.96 
" style="fill:none;stroke:#000000;stroke-linecap:square;stroke-linejoin:miter;"/>
   </g>
   <g id="patch_7">
    <path d="M 118.309091 94.5 
L 194.4 94.5 
" style="fill:none;stroke:#000000;stroke-linecap:square;stroke-linejoin:miter;"/>
   </g>
   <g id="matplotlib.axis_3">
    <g id="xtick_3">
     <g id="line2d_13"/>
     <g id="text_11">
      <text style="font-family:Arial;font-size:8px;font-style:normal;font-weight:normal;text-anchor:middle;" transform="rotate(-0, 118.309091, 103.72625)" x="118.309091" y="103.72625">0</text>
     </g>
    </g>
    <g id="xtick_4">
     <g id="line2d_14"/>
     <g id="text_12">
      <text style="font-family:Arial;font-size:8px;font-style:normal;font-weight:normal;text-anchor:middle;" transform="rotate(-0, 153.446427, 103.72625)" x="153.446427" y="103.72625">1</text>
     </g>
    </g>
    <g id="xtick_5">
     <g id="line2d_15"/>
     <g id="text_13">
      <text style="font-family:Arial;font-size:8px;font-style:normal;font-weight:normal;text-anchor:middle;" transform="rotate(-0, 188.583763, 103.72625)" x="188.583763" y="103.72625">2</text>
     </g>
    </g>
    <g id="text_14">
     <!-- $\sigma$(Exc) -->
     <g transform="translate(141.504545 116.61625)">
      <text>
       <tspan style="font-family:DejaVu Sans;font-size:10px;font-style:oblique;font-weight:oblique;" x="0" y="-0.71875">σ</tspan>
       <tspan style="font-family:Arial;font-size:10px;font-style:regular;font-weight:regular;" x="6.337891 9.667969 16.337891 21.337891 26.337891" y="-0.71875">(Exc)</tspan>
      </text>
     </g>
    </g>
   </g>
   <g id="matplotlib.axis_4">
    <g id="ytick_6">
     <g id="line2d_16"/>
     <g id="text_15">
      <text style="font-family:Arial;font-size:8px;font-style:normal;font-weight:normal;text-anchor:end;" transform="rotate(-0, 114.809091, 97.363125)" x="114.809091" y="97.363125">0.0</text>
     </g>
    </g>
    <g id="ytick_7">
     <g id="line2d_17"/>
     <g id="text_16">
      <text style="font-family:Arial;font-size:8px;font-style:normal;font-weight:normal;text-anchor:end;" transform="rotate(-0, 114.809091, 78.536314)" x="114.809091" y="78.536314">0.5</text>
     </g>
    </g>
    <g id="ytick_8">
     <g id="line2d_18"/>
     <g id="text_17">
      <text style="font-family:Arial;font-size:8px;font-style:normal;font-weight:normal;text-anchor:end;" transform="rotate(-0, 114.809091, 59.709502)" x="114.809091" y="59.709502">1.0</text>
     </g>
    </g>
    <g id="ytick_9">
     <g id="line2d_19"/>
     <g id="text_18">
      <text style="font-family:Arial;font-size:8px;font-style:normal;font-weight:normal;text-anchor:end;" transform="rotate(-0, 114.809091, 40.882691)" x="114.809091" y="40.882691">1.5</text>
     </g>
    </g>
    <g id="ytick_10">
     <g id="line2d_20"/>
     <g id="text_19">
      <text style="font-family:Arial;font-size:8px;font-style:normal;font-weight:normal;text-anchor:end;" transform="rotate(-0, 114.809091, 22.05588)" x="114.809091" y="22.05588">2.0</text>
     </g>
    </g>
    <g id="text_20">
     <!-- $\sigma$(Inh) -->
     <g transform="translate(97.489091 67.18)rotate(-90)">
      <text>
       <tspan style="font-family:DejaVu Sans;font-size:10px;font-style:oblique;font-weight:oblique;" x="0" y="-0.71875">σ</tspan>
       <tspan style="font-family:Arial;font-size:10px;font-style:regular;font-weight:regular;" x="6.337891 9.667969 12.446289 18.007812 23.569336" y="-0.71875">(Inh)</tspan>
      </text>
     </g>
    </g>
   </g>
   <g id="legend_2">
    <g id="line2d_21">
     <path d="M 108.478125 31.995156 
L 128.478125 31.995156 
" style="fill:none;stroke:#000000;stroke-dasharray:1.85,0.8;stroke-dashoffset:0;stroke-width:0.5;"/>
    </g>
    <g id="line2d_22"/>
    <g id="text_21">
     <!-- $R^2$ 0.59 -->
     <g transform="translate(136.478125 29.2475)">
      <text>
       <tspan style="font-family:DejaVu Sans;font-size:10px;font-style:oblique;font-weight:oblique;" x="0" y="-0.9765625">R</tspan>
       <tspan style="font-family:DejaVu Sans;font-size:7px;font-style:book;font-weight:book;" x="7.650794" y="-4.8046875">2</tspan>
       <tspan style="font-family:Arial;font-size:10px;font-style:regular;font-weight:regular;" x="12.377845 15.156165 20.717689 23.496009 29.057533" y="-0.9765625"> 0.59</tspan>
      </text>
     </g>
     <text style="font-family:Arial;font-size:10px;font-style:normal;font-weight:normal;" transform="translate(136.478125 39.86)"> slope 0.83</text>
    </g>
   </g>
  </g>
 </g>
 <defs>
  <clipPath id="pa6601b82da">
   <rect height="81.54" width="76.090909" x="27" y="12.96"/>
  </clipPath>
  <clipPath id="pd94bb0b74c">
   <rect height="81.54" width="76.090909" x="118.309091" y="12.96"/>
  </clipPath>
 </defs>
</svg>
