<?xml version="1.0" encoding="utf-8" standalone="no"?>
<!DOCTYPE svg PUBLIC "-//W3C//DTD SVG 1.1//EN"
  "http://www.w3.org/Graphics/SVG/1.1/DTD/svg11.dtd">
<!-- Created with matplotlib (http://matplotlib.org/) -->
<svg height="108pt" version="1.1" viewBox="0 0 216 108" width="216pt" xmlns="http://www.w3.org/2000/svg" xmlns:xlink="http://www.w3.org/1999/xlink">
 <defs>
  <style type="text/css">
*{stroke-linecap:butt;stroke-linejoin:round;}
  </style>
 </defs>
 <g id="figure_1">
  <g id="patch_1">
   <path d="M 0 108 
L 216 108 
L 216 0 
L 0 0 
z
" style="fill:#ffffff;"/>
  </g>
  <g id="axes_1">
   <g id="patch_2">
    <path d="M 27 94.5 
L 103.090909 94.5 
L 103.090909 12.96 
L 27 12.96 
z
" style="fill:#ffffff;"/>
   </g>
   <g id="LineCollection_1">
    <path clip-path="url(#p85bc292886)" d="M 27.470057 81.822142 
L 31.03093 81.822142 
" style="fill:none;stroke:#000000;stroke-width:0.5;"/>
    <path clip-path="url(#p85bc292886)" d="M 26.374243 75.200651 
L 35.060434 75.200651 
" style="fill:none;stroke:#000000;stroke-width:0.5;"/>
    <path clip-path="url(#p85bc292886)" d="M 26.962502 93.969687 
L 27.82324 93.969687 
" style="fill:none;stroke:#000000;stroke-width:0.5;"/>
    <path clip-path="url(#p85bc292886)" d="M 27.132842 52.819788 
L 50.258052 52.819788 
" style="fill:none;stroke:#000000;stroke-width:0.5;"/>
    <path clip-path="url(#p85bc292886)" d="M 26.649442 88.431488 
L 27.834255 88.431488 
" style="fill:none;stroke:#000000;stroke-width:0.5;"/>
    <path clip-path="url(#p85bc292886)" d="M 27.156971 74.201944 
L 34.741526 74.201944 
" style="fill:none;stroke:#000000;stroke-width:0.5;"/>
    <path clip-path="url(#p85bc292886)" d="M 29.623156 65.715607 
L 46.53752 65.715607 
" style="fill:none;stroke:#000000;stroke-width:0.5;"/>
    <path clip-path="url(#p85bc292886)" d="M 28.97005 84.601888 
L 35.507994 84.601888 
" style="fill:none;stroke:#000000;stroke-width:0.5;"/>
    <path clip-path="url(#p85bc292886)" d="M 26.815517 92.54229 
L 27.439033 92.54229 
" style="fill:none;stroke:#000000;stroke-width:0.5;"/>
    <path clip-path="url(#p85bc292886)" d="M 28.630534 78.138309 
L 34.308207 78.138309 
" style="fill:none;stroke:#000000;stroke-width:0.5;"/>
    <path clip-path="url(#p85bc292886)" d="M 17.371669 30.862783 
L 76.233245 30.862783 
" style="fill:none;stroke:#000000;stroke-width:0.5;"/>
    <path clip-path="url(#p85bc292886)" d="M 26.490937 89.451552 
L 31.908396 89.451552 
" style="fill:none;stroke:#000000;stroke-width:0.5;"/>
    <path clip-path="url(#p85bc292886)" d="M 31.570703 44.41695 
L 61.908208 44.41695 
" style="fill:none;stroke:#000000;stroke-width:0.5;"/>
    <path clip-path="url(#p85bc292886)" d="M 26.873483 79.413843 
L 33.984716 79.413843 
" style="fill:none;stroke:#000000;stroke-width:0.5;"/>
    <path clip-path="url(#p85bc292886)" d="M 28.300503 74.40069 
L 37.391946 74.40069 
" style="fill:none;stroke:#000000;stroke-width:0.5;"/>
    <path clip-path="url(#p85bc292886)" d="M 27.179321 86.362178 
L 34.051567 86.362178 
" style="fill:none;stroke:#000000;stroke-width:0.5;"/>
    <path clip-path="url(#p85bc292886)" d="M 30.767101 38.37189 
L 74.541724 38.37189 
" style="fill:none;stroke:#000000;stroke-width:0.5;"/>
    <path clip-path="url(#p85bc292886)" d="M 27.566342 78.274597 
L 35.673652 78.274597 
" style="fill:none;stroke:#000000;stroke-width:0.5;"/>
    <path clip-path="url(#p85bc292886)" d="M 25.924359 78.090125 
L 33.016684 78.090125 
" style="fill:none;stroke:#000000;stroke-width:0.5;"/>
    <path clip-path="url(#p85bc292886)" d="M 30.633127 72.396144 
L 46.260765 72.396144 
" style="fill:none;stroke:#000000;stroke-width:0.5;"/>
    <path clip-path="url(#p85bc292886)" d="M 26.184545 82.298537 
L 30.785101 82.298537 
" style="fill:none;stroke:#000000;stroke-width:0.5;"/>
    <path clip-path="url(#p85bc292886)" d="M 25.793167 84.586757 
L 33.914356 84.586757 
" style="fill:none;stroke:#000000;stroke-width:0.5;"/>
    <path clip-path="url(#p85bc292886)" d="M 25.1459 73.909873 
L 36.962282 73.909873 
" style="fill:none;stroke:#000000;stroke-width:0.5;"/>
    <path clip-path="url(#p85bc292886)" d="M 26.364228 69.119539 
L 36.440367 69.119539 
" style="fill:none;stroke:#000000;stroke-width:0.5;"/>
    <path clip-path="url(#p85bc292886)" d="M 25.699671 84.710827 
L 31.037586 84.710827 
" style="fill:none;stroke:#000000;stroke-width:0.5;"/>
    <path clip-path="url(#p85bc292886)" d="M 28.062204 82.369362 
L 31.094844 82.369362 
" style="fill:none;stroke:#000000;stroke-width:0.5;"/>
    <path clip-path="url(#p85bc292886)" d="M 23.575428 70.814138 
L 40.304899 70.814138 
" style="fill:none;stroke:#000000;stroke-width:0.5;"/>
    <path clip-path="url(#p85bc292886)" d="M 26.684649 86.782028 
L 32.712874 86.782028 
" style="fill:none;stroke:#000000;stroke-width:0.5;"/>
    <path clip-path="url(#p85bc292886)" d="M 13.380294 41.832321 
L 60.024257 41.832321 
" style="fill:none;stroke:#000000;stroke-width:0.5;"/>
    <path clip-path="url(#p85bc292886)" d="M 25.32871 63.534287 
L 56.202537 63.534287 
" style="fill:none;stroke:#000000;stroke-width:0.5;"/>
   </g>
   <g id="LineCollection_2">
    <path clip-path="url(#p85bc292886)" d="M 29.250494 84.82964 
L 29.250494 78.814645 
" style="fill:none;stroke:#000000;stroke-width:0.5;"/>
    <path clip-path="url(#p85bc292886)" d="M 30.717339 79.498787 
L 30.717339 70.902515 
" style="fill:none;stroke:#000000;stroke-width:0.5;"/>
    <path clip-path="url(#p85bc292886)" d="M 27.392871 94.229486 
L 27.392871 93.709888 
" style="fill:none;stroke:#000000;stroke-width:0.5;"/>
    <path clip-path="url(#p85bc292886)" d="M 38.695447 61.284527 
L 38.695447 44.35505 
" style="fill:none;stroke:#000000;stroke-width:0.5;"/>
    <path clip-path="url(#p85bc292886)" d="M 27.241849 91.294289 
L 27.241849 85.568687 
" style="fill:none;stroke:#000000;stroke-width:0.5;"/>
    <path clip-path="url(#p85bc292886)" d="M 30.949248 79.113729 
L 30.949248 69.29016 
" style="fill:none;stroke:#000000;stroke-width:0.5;"/>
    <path clip-path="url(#p85bc292886)" d="M 38.080338 67.297342 
L 38.080338 64.133871 
" style="fill:none;stroke:#000000;stroke-width:0.5;"/>
    <path clip-path="url(#p85bc292886)" d="M 32.239022 89.126683 
L 32.239022 80.077092 
" style="fill:none;stroke:#000000;stroke-width:0.5;"/>
    <path clip-path="url(#p85bc292886)" d="M 27.127275 93.087386 
L 27.127275 91.997193 
" style="fill:none;stroke:#000000;stroke-width:0.5;"/>
    <path clip-path="url(#p85bc292886)" d="M 31.469371 81.165577 
L 31.469371 75.111041 
" style="fill:none;stroke:#000000;stroke-width:0.5;"/>
    <path clip-path="url(#p85bc292886)" d="M 46.802457 30.994375 
L 46.802457 30.731192 
" style="fill:none;stroke:#000000;stroke-width:0.5;"/>
    <path clip-path="url(#p85bc292886)" d="M 29.199666 91.467562 
L 29.199666 87.435543 
" style="fill:none;stroke:#000000;stroke-width:0.5;"/>
    <path clip-path="url(#p85bc292886)" d="M 46.739455 57.86126 
L 46.739455 30.97264 
" style="fill:none;stroke:#000000;stroke-width:0.5;"/>
    <path clip-path="url(#p85bc292886)" d="M 30.4291 83.029026 
L 30.4291 75.79866 
" style="fill:none;stroke:#000000;stroke-width:0.5;"/>
    <path clip-path="url(#p85bc292886)" d="M 32.846225 79.106299 
L 32.846225 69.695081 
" style="fill:none;stroke:#000000;stroke-width:0.5;"/>
    <path clip-path="url(#p85bc292886)" d="M 30.615444 87.160651 
L 30.615444 85.563704 
" style="fill:none;stroke:#000000;stroke-width:0.5;"/>
    <path clip-path="url(#p85bc292886)" d="M 52.654413 53.695976 
L 52.654413 23.047804 
" style="fill:none;stroke:#000000;stroke-width:0.5;"/>
    <path clip-path="url(#p85bc292886)" d="M 31.619997 80.983849 
L 31.619997 75.565344 
" style="fill:none;stroke:#000000;stroke-width:0.5;"/>
    <path clip-path="url(#p85bc292886)" d="M 29.470521 83.033214 
L 29.470521 73.147037 
" style="fill:none;stroke:#000000;stroke-width:0.5;"/>
    <path clip-path="url(#p85bc292886)" d="M 38.446946 76.655 
L 38.446946 68.137289 
" style="fill:none;stroke:#000000;stroke-width:0.5;"/>
    <path clip-path="url(#p85bc292886)" d="M 28.484823 82.298537 
L 28.484823 82.298537 
" style="fill:none;stroke:#000000;stroke-width:0.5;"/>
    <path clip-path="url(#p85bc292886)" d="M 29.853761 88.009738 
L 29.853761 81.163776 
" style="fill:none;stroke:#000000;stroke-width:0.5;"/>
    <path clip-path="url(#p85bc292886)" d="M 31.054091 83.264671 
L 31.054091 64.555074 
" style="fill:none;stroke:#000000;stroke-width:0.5;"/>
    <path clip-path="url(#p85bc292886)" d="M 31.402297 75.278423 
L 31.402297 62.960655 
" style="fill:none;stroke:#000000;stroke-width:0.5;"/>
    <path clip-path="url(#p85bc292886)" d="M 28.368628 88.084392 
L 28.368628 81.337262 
" style="fill:none;stroke:#000000;stroke-width:0.5;"/>
    <path clip-path="url(#p85bc292886)" d="M 29.578524 86.053768 
L 29.578524 78.684955 
" style="fill:none;stroke:#000000;stroke-width:0.5;"/>
    <path clip-path="url(#p85bc292886)" d="M 31.940164 84.533365 
L 31.940164 57.094911 
" style="fill:none;stroke:#000000;stroke-width:0.5;"/>
    <path clip-path="url(#p85bc292886)" d="M 29.698762 91.328085 
L 29.698762 82.23597 
" style="fill:none;stroke:#000000;stroke-width:0.5;"/>
    <path clip-path="url(#p85bc292886)" d="M 36.702275 66.834667 
L 36.702275 16.829976 
" style="fill:none;stroke:#000000;stroke-width:0.5;"/>
    <path clip-path="url(#p85bc292886)" d="M 40.765623 82.74073 
L 40.765623 44.327845 
" style="fill:none;stroke:#000000;stroke-width:0.5;"/>
   </g>
   <g id="line2d_1">
    <path clip-path="url(#p85bc292886)" d="M 27 87.994239 
L 27.768595 86.211242 
L 28.53719 84.428246 
L 29.305785 82.645249 
L 30.07438 80.862253 
L 30.842975 79.079256 
L 31.61157 77.29626 
L 32.380165 75.513263 
L 33.14876 73.730266 
L 33.917355 71.94727 
L 34.68595 70.164273 
L 35.454545 68.381277 
L 36.22314 66.59828 
L 36.991736 64.815284 
L 37.760331 63.032287 
L 38.528926 61.249291 
L 39.297521 59.466294 
L 40.066116 57.683298 
L 40.834711 55.900301 
L 41.603306 54.117305 
L 42.371901 52.334308 
L 43.140496 50.551312 
L 43.909091 48.768315 
L 44.677686 46.985319 
L 45.446281 45.202322 
L 46.214876 43.419326 
L 46.983471 41.636329 
L 47.752066 39.853333 
L 48.520661 38.070336 
L 49.289256 36.28734 
L 50.057851 34.504343 
L 50.826446 32.721346 
L 51.595041 30.93835 
L 52.363636 29.155353 
L 53.132231 27.372357 
L 53.900826 25.58936 
L 54.669421 23.806364 
L 55.438017 22.023367 
L 56.206612 20.240371 
L 56.975207 18.457374 
L 57.743802 16.674378 
L 58.512397 14.891381 
L 59.280992 13.108385 
L 60.049587 11.325388 
L 60.818182 9.542392 
L 61.586777 7.759395 
L 62.355372 5.976399 
L 63.123967 4.193402 
L 63.892562 2.410406 
L 64.661157 0.627409 
L 65.362683 -1 
" style="fill:none;stroke:#000000;stroke-dasharray:1.85,0.8;stroke-dashoffset:0;stroke-width:0.5;"/>
   </g>
   <g id="line2d_2">
    <defs>
     <path d="M 0 3 
C 0.795609 3 1.55874 2.683901 2.12132 2.12132 
C 2.683901 1.55874 3 0.795609 3 0 
C 3 -0.795609 2.683901 -1.55874 2.12132 -2.12132 
C 1.55874 -2.683901 0.795609 -3 0 -3 
C -0.795609 -3 -1.55874 -2.683901 -2.12132 -2.12132 
C -2.683901 -1.55874 -3 -0.795609 -3 0 
C -3 0.795609 -2.683901 1.55874 -2.12132 2.12132 
C -1.55874 2.683901 -0.795609 3 0 3 
z
" id="m48b36094c7" style="stroke:#000000;"/>
    </defs>
    <g clip-path="url(#p85bc292886)">
     <use style="stroke:#000000;" x="29.250494" xlink:href="#m48b36094c7" y="81.822142"/>
     <use style="stroke:#000000;" x="30.717339" xlink:href="#m48b36094c7" y="75.200651"/>
     <use style="stroke:#000000;" x="27.392871" xlink:href="#m48b36094c7" y="93.969687"/>
     <use style="stroke:#000000;" x="38.695447" xlink:href="#m48b36094c7" y="52.819788"/>
     <use style="stroke:#000000;" x="27.241849" xlink:href="#m48b36094c7" y="88.431488"/>
     <use style="stroke:#000000;" x="30.949248" xlink:href="#m48b36094c7" y="74.201944"/>
     <use style="stroke:#000000;" x="38.080338" xlink:href="#m48b36094c7" y="65.715607"/>
     <use style="stroke:#000000;" x="32.239022" xlink:href="#m48b36094c7" y="84.601888"/>
     <use style="stroke:#000000;" x="27.127275" xlink:href="#m48b36094c7" y="92.54229"/>
     <use style="stroke:#000000;" x="31.469371" xlink:href="#m48b36094c7" y="78.138309"/>
     <use style="stroke:#000000;" x="46.802457" xlink:href="#m48b36094c7" y="30.862783"/>
     <use style="stroke:#000000;" x="29.199666" xlink:href="#m48b36094c7" y="89.451552"/>
     <use style="stroke:#000000;" x="46.739455" xlink:href="#m48b36094c7" y="44.41695"/>
     <use style="stroke:#000000;" x="30.4291" xlink:href="#m48b36094c7" y="79.413843"/>
     <use style="stroke:#000000;" x="32.846225" xlink:href="#m48b36094c7" y="74.40069"/>
     <use style="stroke:#000000;" x="30.615444" xlink:href="#m48b36094c7" y="86.362178"/>
     <use style="stroke:#000000;" x="52.654413" xlink:href="#m48b36094c7" y="38.37189"/>
     <use style="stroke:#000000;" x="31.619997" xlink:href="#m48b36094c7" y="78.274597"/>
     <use style="stroke:#000000;" x="29.470521" xlink:href="#m48b36094c7" y="78.090125"/>
     <use style="stroke:#000000;" x="38.446946" xlink:href="#m48b36094c7" y="72.396144"/>
     <use style="stroke:#000000;" x="28.484823" xlink:href="#m48b36094c7" y="82.298537"/>
     <use style="stroke:#000000;" x="29.853761" xlink:href="#m48b36094c7" y="84.586757"/>
     <use style="stroke:#000000;" x="31.054091" xlink:href="#m48b36094c7" y="73.909873"/>
     <use style="stroke:#000000;" x="31.402297" xlink:href="#m48b36094c7" y="69.119539"/>
     <use style="stroke:#000000;" x="28.368628" xlink:href="#m48b36094c7" y="84.710827"/>
     <use style="stroke:#000000;" x="29.578524" xlink:href="#m48b36094c7" y="82.369362"/>
     <use style="stroke:#000000;" x="31.940164" xlink:href="#m48b36094c7" y="70.814138"/>
     <use style="stroke:#000000;" x="29.698762" xlink:href="#m48b36094c7" y="86.782028"/>
     <use style="stroke:#000000;" x="36.702275" xlink:href="#m48b36094c7" y="41.832321"/>
     <use style="stroke:#000000;" x="40.765623" xlink:href="#m48b36094c7" y="63.534287"/>
    </g>
   </g>
   <g id="patch_3">
    <path d="M 27 94.5 
L 27 12.96 
" style="fill:none;stroke:#000000;stroke-linecap:square;stroke-linejoin:miter;"/>
   </g>
   <g id="patch_4">
    <path d="M 27 94.5 
L 103.090909 94.5 
" style="fill:none;stroke:#000000;stroke-linecap:square;stroke-linejoin:miter;"/>
   </g>
   <g id="matplotlib.axis_1">
    <g id="xtick_1">
     <g id="line2d_3"/>
     <g id="text_1">
      <text style="font-family:Arial;font-size:8px;font-style:normal;font-weight:normal;text-anchor:middle;" transform="rotate(-0, 27, 103.72625)" x="27" y="103.72625">0</text>
     </g>
    </g>
    <g id="xtick_2">
     <g id="line2d_4"/>
     <g id="text_2">
      <text style="font-family:Arial;font-size:8px;font-style:normal;font-weight:normal;text-anchor:middle;" transform="rotate(-0, 71.053505, 103.72625)" x="71.053505" y="103.72625">10</text>
     </g>
    </g>
    <g id="text_3">
     <text style="font-family:Arial;font-size:10px;font-style:normal;font-weight:normal;text-anchor:middle;" transform="rotate(-0, 65.045455, 116.474063)" x="65.045455" y="116.474063">Exc</text>
    </g>
   </g>
   <g id="matplotlib.axis_2">
    <g id="ytick_1">
     <g id="line2d_5"/>
     <g id="text_4">
      <text style="font-family:Arial;font-size:8px;font-style:normal;font-weight:normal;text-anchor:end;" transform="rotate(-0, 23.5, 97.363125)" x="23.5" y="97.363125">0</text>
     </g>
    </g>
    <g id="ytick_2">
     <g id="line2d_6"/>
     <g id="text_5">
      <text style="font-family:Arial;font-size:8px;font-style:normal;font-weight:normal;text-anchor:end;" transform="rotate(-0, 23.5, 73.758973)" x="23.5" y="73.758973">5</text>
     </g>
    </g>
    <g id="ytick_3">
     <g id="line2d_7"/>
     <g id="text_6">
      <text style="font-family:Arial;font-size:8px;font-style:normal;font-weight:normal;text-anchor:end;" transform="rotate(-0, 23.5, 50.154821)" x="23.5" y="50.154821">10</text>
     </g>
    </g>
    <g id="ytick_4">
     <g id="line2d_8"/>
     <g id="text_7">
      <text style="font-family:Arial;font-size:8px;font-style:normal;font-weight:normal;text-anchor:end;" transform="rotate(-0, 23.5, 26.550669)" x="23.5" y="26.550669">15</text>
     </g>
    </g>
    <g id="text_8">
     <text style="font-family:Arial;font-size:10px;font-style:normal;font-weight:normal;text-anchor:middle;" transform="rotate(-90, 8.615, 53.73)" x="8.615" y="53.73">Inh</text>
    </g>
   </g>
   <g id="legend_1">
    <g id="line2d_9">
     <path d="M 36 75.622656 
L 56 75.622656 
" style="fill:none;stroke:#000000;stroke-dasharray:1.85,0.8;stroke-dashoffset:0;stroke-width:0.5;"/>
    </g>
    <g id="line2d_10"/>
    <g id="text_9">
     <!-- $R^2$ 0.81 -->
     <g transform="translate(64 72.875)">
      <text>
       <tspan style="font-family:DejaVu Sans;font-size:10px;font-style:oblique;font-weight:oblique;" x="0" y="-0.9765625">R</tspan>
       <tspan style="font-family:DejaVu Sans;font-size:7px;font-style:book;font-weight:book;" x="7.650794" y="-4.8046875">2</tspan>
       <tspan style="font-family:Arial;font-size:10px;font-style:regular;font-weight:regular;" x="12.377845 15.156165 20.717689 23.496009 29.057533" y="-0.9765625"> 0.81</tspan>
      </text>
     </g>
     <text style="font-family:Arial;font-size:10px;font-style:normal;font-weight:normal;" transform="translate(64 83.4875)"> slope 2.16</text>
    </g>
   </g>
  </g>
  <g id="axes_2">
   <g id="patch_5">
    <path d="M 118.309091 94.5 
L 194.4 94.5 
L 194.4 12.96 
L 118.309091 12.96 
z
" style="fill:#ffffff;"/>
   </g>
   <g id="PathCollection_1">
    <defs>
     <path d="M 0 2.44949 
C 0.649612 2.44949 1.272706 2.191396 1.732051 1.732051 
C 2.191396 1.272706 2.44949 0.649612 2.44949 0 
C 2.44949 -0.649612 2.191396 -1.272706 1.732051 -1.732051 
C 1.272706 -2.191396 0.649612 -2.44949 0 -2.44949 
C -0.649612 -2.44949 -1.272706 -2.191396 -1.732051 -1.732051 
C -2.191396 -1.272706 -2.44949 -0.649612 -2.44949 0 
C -2.44949 0.649612 -2.191396 1.272706 -1.732051 1.732051 
C -1.272706 2.191396 -0.649612 2.44949 0 2.44949 
z
" id="mc04d818f8f" style="stroke:#000000;"/>
    </defs>
    <g clip-path="url(#p905d7d7246)">
     <use style="stroke:#000000;" x="122.684229" xlink:href="#mc04d818f8f" y="87.109553"/>
     <use style="stroke:#000000;" x="128.981556" xlink:href="#mc04d818f8f" y="83.938015"/>
     <use style="stroke:#000000;" x="119.366653" xlink:href="#mc04d818f8f" y="93.861585"/>
     <use style="stroke:#000000;" x="146.72235" xlink:href="#mc04d818f8f" y="73.699254"/>
     <use style="stroke:#000000;" x="119.764835" xlink:href="#mc04d818f8f" y="87.465123"/>
     <use style="stroke:#000000;" x="127.628008" xlink:href="#mc04d818f8f" y="82.430072"/>
     <use style="stroke:#000000;" x="139.091268" xlink:href="#mc04d818f8f" y="90.613137"/>
     <use style="stroke:#000000;" x="126.342068" xlink:href="#mc04d818f8f" y="83.381036"/>
     <use style="stroke:#000000;" x="119.075187" xlink:href="#mc04d818f8f" y="93.160511"/>
     <use style="stroke:#000000;" x="125.285079" xlink:href="#mc04d818f8f" y="87.060972"/>
     <use style="stroke:#000000;" x="190.630562" xlink:href="#mc04d818f8f" y="94.176635"/>
     <use style="stroke:#000000;" x="124.965363" xlink:href="#mc04d818f8f" y="89.545978"/>
     <use style="stroke:#000000;" x="155.583883" xlink:href="#mc04d818f8f" y="61.46275"/>
     <use style="stroke:#000000;" x="127.046452" xlink:href="#mc04d818f8f" y="85.616264"/>
     <use style="stroke:#000000;" x="129.479477" xlink:href="#mc04d818f8f" y="82.936715"/>
     <use style="stroke:#000000;" x="126.752815" xlink:href="#mc04d818f8f" y="92.537878"/>
     <use style="stroke:#000000;" x="172.093672" xlink:href="#mc04d818f8f" y="56.843501"/>
     <use style="stroke:#000000;" x="128.270302" xlink:href="#mc04d818f8f" y="87.842443"/>
     <use style="stroke:#000000;" x="127.02322" xlink:href="#mc04d818f8f" y="82.353148"/>
     <use style="stroke:#000000;" x="137.510306" xlink:href="#mc04d818f8f" y="84.034542"/>
     <use style="stroke:#000000;" x="123.961657" xlink:href="#mc04d818f8f" y="94.5"/>
     <use style="stroke:#000000;" x="128.287355" xlink:href="#mc04d818f8f" y="86.08857"/>
     <use style="stroke:#000000;" x="132.827529" xlink:href="#mc04d818f8f" y="71.512073"/>
     <use style="stroke:#000000;" x="130.689344" xlink:href="#mc04d818f8f" y="79.365523"/>
     <use style="stroke:#000000;" x="124.867629" xlink:href="#mc04d818f8f" y="86.210001"/>
     <use style="stroke:#000000;" x="122.035206" xlink:href="#mc04d818f8f" y="85.446159"/>
     <use style="stroke:#000000;" x="138.864096" xlink:href="#mc04d818f8f" y="60.787186"/>
     <use style="stroke:#000000;" x="125.715792" xlink:href="#mc04d818f8f" y="83.328788"/>
     <use style="stroke:#000000;" x="175.619143" xlink:href="#mc04d818f8f" y="33.060719"/>
     <use style="stroke:#000000;" x="156.242845" xlink:href="#mc04d818f8f" y="47.303228"/>
    </g>
   </g>
   <g id="line2d_11">
    <path clip-path="url(#p905d7d7246)" d="M 118.309091 88.614235 
L 119.077686 88.231937 
L 119.846281 87.84964 
L 120.614876 87.467342 
L 121.383471 87.085045 
L 122.152066 86.702748 
L 122.920661 86.32045 
L 123.689256 85.938153 
L 124.457851 85.555855 
L 125.226446 85.173558 
L 125.995041 84.79126 
L 126.763636 84.408963 
L 127.532231 84.026666 
L 128.300826 83.644368 
L 129.069421 83.262071 
L 129.838017 82.879773 
L 130.606612 82.497476 
L 131.375207 82.115178 
L 132.143802 81.732881 
L 132.912397 81.350584 
L 133.680992 80.968286 
L 134.449587 80.585989 
L 135.218182 80.203691 
L 135.986777 79.821394 
L 136.755372 79.439096 
L 137.523967 79.056799 
L 138.292562 78.674502 
L 139.061157 78.292204 
L 139.829752 77.909907 
L 140.598347 77.527609 
L 141.366942 77.145312 
L 142.135537 76.763014 
L 142.904132 76.380717 
L 143.672727 75.99842 
L 144.441322 75.616122 
L 145.209917 75.233825 
L 145.978512 74.851527 
L 146.747107 74.46923 
L 147.515702 74.086932 
L 148.284298 73.704635 
L 149.052893 73.322338 
L 149.821488 72.94004 
L 150.590083 72.557743 
L 151.358678 72.175445 
L 152.127273 71.793148 
L 152.895868 71.41085 
L 153.664463 71.028553 
L 154.433058 70.646256 
L 155.201653 70.263958 
L 155.970248 69.881661 
L 156.738843 69.499363 
L 157.507438 69.117066 
L 158.276033 68.734769 
L 159.044628 68.352471 
L 159.813223 67.970174 
L 160.581818 67.587876 
L 161.350413 67.205579 
L 162.119008 66.823281 
L 162.887603 66.440984 
L 163.656198 66.058687 
L 164.424793 65.676389 
L 165.193388 65.294092 
L 165.961983 64.911794 
L 166.730579 64.529497 
L 167.499174 64.147199 
L 168.267769 63.764902 
L 169.036364 63.382605 
L 169.804959 63.000307 
L 170.573554 62.61801 
L 171.342149 62.235712 
L 172.110744 61.853415 
L 172.879339 61.471117 
L 173.647934 61.08882 
L 174.416529 60.706523 
L 175.185124 60.324225 
L 175.953719 59.941928 
L 176.722314 59.55963 
L 177.490909 59.177333 
L 178.259504 58.795035 
L 179.028099 58.412738 
L 179.796694 58.030441 
L 180.565289 57.648143 
L 181.333884 57.265846 
L 182.102479 56.883548 
L 182.871074 56.501251 
L 183.639669 56.118953 
L 184.408264 55.736656 
L 185.17686 55.354359 
L 185.945455 54.972061 
L 186.71405 54.589764 
L 187.482645 54.207466 
L 188.25124 53.825169 
L 189.019835 53.442871 
L 189.78843 53.060574 
L 190.557025 52.678277 
L 191.32562 52.295979 
L 192.094215 51.913682 
L 192.86281 51.531384 
L 193.631405 51.149087 
L 194.4 50.76679 
" style="fill:none;stroke:#000000;stroke-dasharray:1.85,0.8;stroke-dashoffset:0;stroke-width:0.5;"/>
   </g>
   <g id="patch_6">
    <path d="M 118.309091 94.5 
L 118.309091 12.96 
" style="fill:none;stroke:#000000;stroke-linecap:square;stroke-linejoin:miter;"/>
   </g>
   <g id="patch_7">
    <path d="M 118.309091 94.5 
L 194.4 94.5 
" style="fill:none;stroke:#000000;stroke-linecap:square;stroke-linejoin:miter;"/>
   </g>
   <g id="matplotlib.axis_3">
    <g id="xtick_3">
     <g id="line2d_12"/>
     <g id="text_10">
      <text style="font-family:Arial;font-size:8px;font-style:normal;font-weight:normal;text-anchor:middle;" transform="rotate(-0, 118.309091, 103.72625)" x="118.309091" y="103.72625">0.0</text>
     </g>
    </g>
    <g id="xtick_4">
     <g id="line2d_13"/>
     <g id="text_11">
      <text style="font-family:Arial;font-size:8px;font-style:normal;font-weight:normal;text-anchor:middle;" transform="rotate(-0, 145.372708, 103.72625)" x="145.372708" y="103.72625">2.5</text>
     </g>
    </g>
    <g id="xtick_5">
     <g id="line2d_14"/>
     <g id="text_12">
      <text style="font-family:Arial;font-size:8px;font-style:normal;font-weight:normal;text-anchor:middle;" transform="rotate(-0, 172.436325, 103.72625)" x="172.436325" y="103.72625">5.0</text>
     </g>
    </g>
    <g id="text_13">
     <!-- $\sigma$(Exc) -->
     <g transform="translate(141.504545 116.61625)">
      <text>
       <tspan style="font-family:DejaVu Sans;font-size:10px;font-style:oblique;font-weight:oblique;" x="0" y="-0.71875">σ</tspan>
       <tspan style="font-family:Arial;font-size:10px;font-style:regular;font-weight:regular;" x="6.337891 9.667969 16.337891 21.337891 26.337891" y="-0.71875">(Exc)</tspan>
      </text>
     </g>
    </g>
   </g>
   <g id="matplotlib.axis_4">
    <g id="ytick_5">
     <g id="line2d_15"/>
     <g id="text_14">
      <text style="font-family:Arial;font-size:8px;font-style:normal;font-weight:normal;text-anchor:end;" transform="rotate(-0, 114.809091, 97.363125)" x="114.809091" y="97.363125">0</text>
     </g>
    </g>
    <g id="ytick_6">
     <g id="line2d_16"/>
     <g id="text_15">
      <text style="font-family:Arial;font-size:8px;font-style:normal;font-weight:normal;text-anchor:end;" transform="rotate(-0, 114.809091, 74.161748)" x="114.809091" y="74.161748">2</text>
     </g>
    </g>
    <g id="ytick_7">
     <g id="line2d_17"/>
     <g id="text_16">
      <text style="font-family:Arial;font-size:8px;font-style:normal;font-weight:normal;text-anchor:end;" transform="rotate(-0, 114.809091, 50.960371)" x="114.809091" y="50.960371">4</text>
     </g>
    </g>
    <g id="ytick_8">
     <g id="line2d_18"/>
     <g id="text_17">
      <text style="font-family:Arial;font-size:8px;font-style:normal;font-weight:normal;text-anchor:end;" transform="rotate(-0, 114.809091, 27.758994)" x="114.809091" y="27.758994">6</text>
     </g>
    </g>
    <g id="text_18">
     <!-- $\sigma$(Inh) -->
     <g transform="translate(104.160341 67.18)rotate(-90)">
      <text>
       <tspan style="font-family:DejaVu Sans;font-size:10px;font-style:oblique;font-weight:oblique;" x="0" y="-0.71875">σ</tspan>
       <tspan style="font-family:Arial;font-size:10px;font-style:regular;font-weight:regular;" x="6.337891 9.667969 12.446289 18.007812 23.569336" y="-0.71875">(Inh)</tspan>
      </text>
     </g>
    </g>
   </g>
   <g id="legend_2">
    <g id="line2d_19">
     <path d="M 108.478125 31.995156 
L 128.478125 31.995156 
" style="fill:none;stroke:#000000;stroke-dasharray:1.85,0.8;stroke-dashoffset:0;stroke-width:0.5;"/>
    </g>
    <g id="line2d_20"/>
    <g id="text_19">
     <!-- $R^2$ 0.37 -->
     <g transform="translate(136.478125 29.2475)">
      <text>
       <tspan style="font-family:DejaVu Sans;font-size:10px;font-style:oblique;font-weight:oblique;" x="0" y="-0.9765625">R</tspan>
       <tspan style="font-family:DejaVu Sans;font-size:7px;font-style:book;font-weight:book;" x="7.650794" y="-4.8046875">2</tspan>
       <tspan style="font-family:Arial;font-size:10px;font-style:regular;font-weight:regular;" x="12.377845 15.156165 20.717689 23.496009 29.057533" y="-0.9765625"> 0.37</tspan>
      </text>
     </g>
     <text style="font-family:Arial;font-size:10px;font-style:normal;font-weight:normal;" transform="translate(136.478125 39.86)"> slope 0.46</text>
    </g>
   </g>
  </g>
 </g>
 <defs>
  <clipPath id="p85bc292886">
   <rect height="81.54" width="76.090909" x="27" y="12.96"/>
  </clipPath>
  <clipPath id="p905d7d7246">
   <rect height="81.54" width="76.090909" x="118.309091" y="12.96"/>
  </clipPath>
 </defs>
</svg>
