<?xml version="1.0" encoding="utf-8" standalone="no"?>
<!DOCTYPE svg PUBLIC "-//W3C//DTD SVG 1.1//EN"
  "http://www.w3.org/Graphics/SVG/1.1/DTD/svg11.dtd">
<!-- Created with matplotlib (http://matplotlib.org/) -->
<svg height="108pt" version="1.1" viewBox="0 0 216 108" width="216pt" xmlns="http://www.w3.org/2000/svg" xmlns:xlink="http://www.w3.org/1999/xlink">
 <defs>
  <style type="text/css">
*{stroke-linecap:butt;stroke-linejoin:round;}
  </style>
 </defs>
 <g id="figure_1">
  <g id="patch_1">
   <path d="M 0 108 
L 216 108 
L 216 0 
L 0 0 
z
" style="fill:#ffffff;"/>
  </g>
  <g id="axes_1">
   <g id="patch_2">
    <path d="M 27 94.5 
L 103.090909 94.5 
L 103.090909 12.96 
L 27 12.96 
z
" style="fill:#ffffff;"/>
   </g>
   <g id="LineCollection_1">
    <path clip-path="url(#pe986ea7bb4)" d="M 24.713796 31.241194 
L 52.176286 31.241194 
" style="fill:none;stroke:#000000;stroke-width:0.5;"/>
    <path clip-path="url(#pe986ea7bb4)" d="M 26.511545 68.296957 
L 33.008358 68.296957 
" style="fill:none;stroke:#000000;stroke-width:0.5;"/>
    <path clip-path="url(#pe986ea7bb4)" d="M 29.66173 66.653966 
L 35.861901 66.653966 
" style="fill:none;stroke:#000000;stroke-width:0.5;"/>
    <path clip-path="url(#pe986ea7bb4)" d="M 27.895559 37.821351 
L 44.408389 37.821351 
" style="fill:none;stroke:#000000;stroke-width:0.5;"/>
    <path clip-path="url(#pe986ea7bb4)" d="M 28.414797 54.487035 
L 50.449632 54.487035 
" style="fill:none;stroke:#000000;stroke-width:0.5;"/>
    <path clip-path="url(#pe986ea7bb4)" d="M 25.287917 73.905894 
L 37.391789 73.905894 
" style="fill:none;stroke:#000000;stroke-width:0.5;"/>
    <path clip-path="url(#pe986ea7bb4)" d="M 27 75.84352 
L 27 75.84352 
" style="fill:none;stroke:#000000;stroke-width:0.5;"/>
    <path clip-path="url(#pe986ea7bb4)" d="M 30.235363 33.117031 
L 50.019673 33.117031 
" style="fill:none;stroke:#000000;stroke-width:0.5;"/>
    <path clip-path="url(#pe986ea7bb4)" d="M 27.494394 29.251558 
L 43.5294 29.251558 
" style="fill:none;stroke:#000000;stroke-width:0.5;"/>
    <path clip-path="url(#pe986ea7bb4)" d="M 29.814211 57.893786 
L 56.381396 57.893786 
" style="fill:none;stroke:#000000;stroke-width:0.5;"/>
    <path clip-path="url(#pe986ea7bb4)" d="M 26.216068 60.794076 
L 34.569468 60.794076 
" style="fill:none;stroke:#000000;stroke-width:0.5;"/>
    <path clip-path="url(#pe986ea7bb4)" d="M 30.867835 56.854641 
L 44.613255 56.854641 
" style="fill:none;stroke:#000000;stroke-width:0.5;"/>
    <path clip-path="url(#pe986ea7bb4)" d="M 29.181166 40.670601 
L 48.625911 40.670601 
" style="fill:none;stroke:#000000;stroke-width:0.5;"/>
    <path clip-path="url(#pe986ea7bb4)" d="M 25.823314 73.72418 
L 41.912531 73.72418 
" style="fill:none;stroke:#000000;stroke-width:0.5;"/>
    <path clip-path="url(#pe986ea7bb4)" d="M 30.633248 65.165268 
L 38.982441 65.165268 
" style="fill:none;stroke:#000000;stroke-width:0.5;"/>
    <path clip-path="url(#pe986ea7bb4)" d="M 24.815588 80.718964 
L 36.100798 80.718964 
" style="fill:none;stroke:#000000;stroke-width:0.5;"/>
    <path clip-path="url(#pe986ea7bb4)" d="M 27.126224 52.610167 
L 44.546811 52.610167 
" style="fill:none;stroke:#000000;stroke-width:0.5;"/>
    <path clip-path="url(#pe986ea7bb4)" d="M 23.047698 32.484448 
L 67.263234 32.484448 
" style="fill:none;stroke:#000000;stroke-width:0.5;"/>
    <path clip-path="url(#pe986ea7bb4)" d="M 27.830818 83.079342 
L 35.080258 83.079342 
" style="fill:none;stroke:#000000;stroke-width:0.5;"/>
    <path clip-path="url(#pe986ea7bb4)" d="M 28.624455 63.921419 
L 41.55572 63.921419 
" style="fill:none;stroke:#000000;stroke-width:0.5;"/>
    <path clip-path="url(#pe986ea7bb4)" d="M 24.372936 57.075159 
L 43.876776 57.075159 
" style="fill:none;stroke:#000000;stroke-width:0.5;"/>
    <path clip-path="url(#pe986ea7bb4)" d="M 31.162379 44.945987 
L 47.861695 44.945987 
" style="fill:none;stroke:#000000;stroke-width:0.5;"/>
    <path clip-path="url(#pe986ea7bb4)" d="M 27.89815 64.731739 
L 51.399177 64.731739 
" style="fill:none;stroke:#000000;stroke-width:0.5;"/>
    <path clip-path="url(#pe986ea7bb4)" d="M 28.384942 46.645065 
L 46.679251 46.645065 
" style="fill:none;stroke:#000000;stroke-width:0.5;"/>
    <path clip-path="url(#pe986ea7bb4)" d="M 26.198663 56.030894 
L 39.063649 56.030894 
" style="fill:none;stroke:#000000;stroke-width:0.5;"/>
    <path clip-path="url(#pe986ea7bb4)" d="M 25.633804 43.897086 
L 43.157688 43.897086 
" style="fill:none;stroke:#000000;stroke-width:0.5;"/>
    <path clip-path="url(#pe986ea7bb4)" d="M 28.791249 55.114968 
L 47.756801 55.114968 
" style="fill:none;stroke:#000000;stroke-width:0.5;"/>
    <path clip-path="url(#pe986ea7bb4)" d="M 26.040656 80.878983 
L 31.452992 80.878983 
" style="fill:none;stroke:#000000;stroke-width:0.5;"/>
    <path clip-path="url(#pe986ea7bb4)" d="M 26.428337 59.29605 
L 31.89416 59.29605 
" style="fill:none;stroke:#000000;stroke-width:0.5;"/>
    <path clip-path="url(#pe986ea7bb4)" d="M 34.73123 58.893818 
L 43.131714 58.893818 
" style="fill:none;stroke:#000000;stroke-width:0.5;"/>
   </g>
   <g id="LineCollection_2">
    <path clip-path="url(#pe986ea7bb4)" d="M 38.445041 43.611743 
L 38.445041 18.870646 
" style="fill:none;stroke:#000000;stroke-width:0.5;"/>
    <path clip-path="url(#pe986ea7bb4)" d="M 29.759952 82.444396 
L 29.759952 54.149517 
" style="fill:none;stroke:#000000;stroke-width:0.5;"/>
    <path clip-path="url(#pe986ea7bb4)" d="M 32.761816 72.353844 
L 32.761816 60.954087 
" style="fill:none;stroke:#000000;stroke-width:0.5;"/>
    <path clip-path="url(#pe986ea7bb4)" d="M 36.151974 46.842756 
L 36.151974 28.799945 
" style="fill:none;stroke:#000000;stroke-width:0.5;"/>
    <path clip-path="url(#pe986ea7bb4)" d="M 39.432214 59.079173 
L 39.432214 49.894896 
" style="fill:none;stroke:#000000;stroke-width:0.5;"/>
    <path clip-path="url(#pe986ea7bb4)" d="M 31.339853 77.371191 
L 31.339853 70.440597 
" style="fill:none;stroke:#000000;stroke-width:0.5;"/>
    <path clip-path="url(#pe986ea7bb4)" d="M 27 83.184662 
L 27 68.502377 
" style="fill:none;stroke:#000000;stroke-width:0.5;"/>
    <path clip-path="url(#pe986ea7bb4)" d="M 40.127518 48.038697 
L 40.127518 18.195366 
" style="fill:none;stroke:#000000;stroke-width:0.5;"/>
    <path clip-path="url(#pe986ea7bb4)" d="M 35.511897 41.907529 
L 35.511897 16.595588 
" style="fill:none;stroke:#000000;stroke-width:0.5;"/>
    <path clip-path="url(#pe986ea7bb4)" d="M 43.097803 64.112356 
L 43.097803 51.675215 
" style="fill:none;stroke:#000000;stroke-width:0.5;"/>
    <path clip-path="url(#pe986ea7bb4)" d="M 30.392768 68.733404 
L 30.392768 52.854748 
" style="fill:none;stroke:#000000;stroke-width:0.5;"/>
    <path clip-path="url(#pe986ea7bb4)" d="M 37.740545 68.693272 
L 37.740545 45.01601 
" style="fill:none;stroke:#000000;stroke-width:0.5;"/>
    <path clip-path="url(#pe986ea7bb4)" d="M 38.903539 52.738665 
L 38.903539 28.602537 
" style="fill:none;stroke:#000000;stroke-width:0.5;"/>
    <path clip-path="url(#pe986ea7bb4)" d="M 33.867923 87.860745 
L 33.867923 59.587614 
" style="fill:none;stroke:#000000;stroke-width:0.5;"/>
    <path clip-path="url(#pe986ea7bb4)" d="M 34.807845 71.42794 
L 34.807845 58.902597 
" style="fill:none;stroke:#000000;stroke-width:0.5;"/>
    <path clip-path="url(#pe986ea7bb4)" d="M 30.458193 88.782082 
L 30.458193 72.655846 
" style="fill:none;stroke:#000000;stroke-width:0.5;"/>
    <path clip-path="url(#pe986ea7bb4)" d="M 35.836518 60.038755 
L 35.836518 45.181579 
" style="fill:none;stroke:#000000;stroke-width:0.5;"/>
    <path clip-path="url(#pe986ea7bb4)" d="M 45.155466 47.92567 
L 45.155466 17.043226 
" style="fill:none;stroke:#000000;stroke-width:0.5;"/>
    <path clip-path="url(#pe986ea7bb4)" d="M 31.455538 89.30734 
L 31.455538 76.851343 
" style="fill:none;stroke:#000000;stroke-width:0.5;"/>
    <path clip-path="url(#pe986ea7bb4)" d="M 35.090087 71.001875 
L 35.090087 56.840964 
" style="fill:none;stroke:#000000;stroke-width:0.5;"/>
    <path clip-path="url(#pe986ea7bb4)" d="M 34.124856 63.488762 
L 34.124856 50.661556 
" style="fill:none;stroke:#000000;stroke-width:0.5;"/>
    <path clip-path="url(#pe986ea7bb4)" d="M 39.512037 53.289851 
L 39.512037 36.602123 
" style="fill:none;stroke:#000000;stroke-width:0.5;"/>
    <path clip-path="url(#pe986ea7bb4)" d="M 39.648664 66.549026 
L 39.648664 62.914452 
" style="fill:none;stroke:#000000;stroke-width:0.5;"/>
    <path clip-path="url(#pe986ea7bb4)" d="M 37.532097 55.410819 
L 37.532097 37.879311 
" style="fill:none;stroke:#000000;stroke-width:0.5;"/>
    <path clip-path="url(#pe986ea7bb4)" d="M 32.631156 66.094571 
L 32.631156 45.967216 
" style="fill:none;stroke:#000000;stroke-width:0.5;"/>
    <path clip-path="url(#pe986ea7bb4)" d="M 34.395746 50.130084 
L 34.395746 37.664088 
" style="fill:none;stroke:#000000;stroke-width:0.5;"/>
    <path clip-path="url(#pe986ea7bb4)" d="M 38.274025 60.218743 
L 38.274025 50.011192 
" style="fill:none;stroke:#000000;stroke-width:0.5;"/>
    <path clip-path="url(#pe986ea7bb4)" d="M 28.746824 84.043272 
L 28.746824 77.714695 
" style="fill:none;stroke:#000000;stroke-width:0.5;"/>
    <path clip-path="url(#pe986ea7bb4)" d="M 29.161249 62.801901 
L 29.161249 55.790199 
" style="fill:none;stroke:#000000;stroke-width:0.5;"/>
    <path clip-path="url(#pe986ea7bb4)" d="M 38.931472 63.139759 
L 38.931472 54.647878 
" style="fill:none;stroke:#000000;stroke-width:0.5;"/>
   </g>
   <g id="line2d_1">
    <path clip-path="url(#pe986ea7bb4)" d="M 27 75.867624 
L 27.768595 74.11734 
L 28.53719 72.367057 
L 29.305785 70.616773 
L 30.07438 68.86649 
L 30.842975 67.116206 
L 31.61157 65.365923 
L 32.380165 63.615639 
L 33.14876 61.865355 
L 33.917355 60.115072 
L 34.68595 58.364788 
L 35.454545 56.614505 
L 36.22314 54.864221 
L 36.991736 53.113938 
L 37.760331 51.363654 
L 38.528926 49.613371 
L 39.297521 47.863087 
L 40.066116 46.112804 
L 40.834711 44.36252 
L 41.603306 42.612237 
L 42.371901 40.861953 
L 43.140496 39.111669 
L 43.909091 37.361386 
L 44.677686 35.611102 
L 45.446281 33.860819 
L 46.214876 32.110535 
L 46.983471 30.360252 
L 47.752066 28.609968 
L 48.520661 26.859685 
L 49.289256 25.109401 
L 50.057851 23.359118 
L 50.826446 21.608834 
L 51.595041 19.858551 
L 52.363636 18.108267 
L 53.132231 16.357983 
L 53.900826 14.6077 
L 54.669421 12.857416 
L 55.438017 11.107133 
L 56.206612 9.356849 
L 56.975207 7.606566 
L 57.743802 5.856282 
L 58.512397 4.105999 
L 59.280992 2.355715 
L 60.049587 0.605432 
L 60.754574 -1 
" style="fill:none;stroke:#000000;stroke-dasharray:1.85,0.8;stroke-dashoffset:0;stroke-width:0.5;"/>
   </g>
   <g id="line2d_2">
    <defs>
     <path d="M 0 3 
C 0.795609 3 1.55874 2.683901 2.12132 2.12132 
C 2.683901 1.55874 3 0.795609 3 0 
C 3 -0.795609 2.683901 -1.55874 2.12132 -2.12132 
C 1.55874 -2.683901 0.795609 -3 0 -3 
C -0.795609 -3 -1.55874 -2.683901 -2.12132 -2.12132 
C -2.683901 -1.55874 -3 -0.795609 -3 0 
C -3 0.795609 -2.683901 1.55874 -2.12132 2.12132 
C -1.55874 2.683901 -0.795609 3 0 3 
z
" id="m2c69a26b60" style="stroke:#000000;"/>
    </defs>
    <g clip-path="url(#pe986ea7bb4)">
     <use style="stroke:#000000;" x="38.445041" xlink:href="#m2c69a26b60" y="31.241194"/>
     <use style="stroke:#000000;" x="29.759952" xlink:href="#m2c69a26b60" y="68.296957"/>
     <use style="stroke:#000000;" x="32.761816" xlink:href="#m2c69a26b60" y="66.653966"/>
     <use style="stroke:#000000;" x="36.151974" xlink:href="#m2c69a26b60" y="37.821351"/>
     <use style="stroke:#000000;" x="39.432214" xlink:href="#m2c69a26b60" y="54.487035"/>
     <use style="stroke:#000000;" x="31.339853" xlink:href="#m2c69a26b60" y="73.905894"/>
     <use style="stroke:#000000;" x="27" xlink:href="#m2c69a26b60" y="75.84352"/>
     <use style="stroke:#000000;" x="40.127518" xlink:href="#m2c69a26b60" y="33.117031"/>
     <use style="stroke:#000000;" x="35.511897" xlink:href="#m2c69a26b60" y="29.251558"/>
     <use style="stroke:#000000;" x="43.097803" xlink:href="#m2c69a26b60" y="57.893786"/>
     <use style="stroke:#000000;" x="30.392768" xlink:href="#m2c69a26b60" y="60.794076"/>
     <use style="stroke:#000000;" x="37.740545" xlink:href="#m2c69a26b60" y="56.854641"/>
     <use style="stroke:#000000;" x="38.903539" xlink:href="#m2c69a26b60" y="40.670601"/>
     <use style="stroke:#000000;" x="33.867923" xlink:href="#m2c69a26b60" y="73.72418"/>
     <use style="stroke:#000000;" x="34.807845" xlink:href="#m2c69a26b60" y="65.165268"/>
     <use style="stroke:#000000;" x="30.458193" xlink:href="#m2c69a26b60" y="80.718964"/>
     <use style="stroke:#000000;" x="35.836518" xlink:href="#m2c69a26b60" y="52.610167"/>
     <use style="stroke:#000000;" x="45.155466" xlink:href="#m2c69a26b60" y="32.484448"/>
     <use style="stroke:#000000;" x="31.455538" xlink:href="#m2c69a26b60" y="83.079342"/>
     <use style="stroke:#000000;" x="35.090087" xlink:href="#m2c69a26b60" y="63.921419"/>
     <use style="stroke:#000000;" x="34.124856" xlink:href="#m2c69a26b60" y="57.075159"/>
     <use style="stroke:#000000;" x="39.512037" xlink:href="#m2c69a26b60" y="44.945987"/>
     <use style="stroke:#000000;" x="39.648664" xlink:href="#m2c69a26b60" y="64.731739"/>
     <use style="stroke:#000000;" x="37.532097" xlink:href="#m2c69a26b60" y="46.645065"/>
     <use style="stroke:#000000;" x="32.631156" xlink:href="#m2c69a26b60" y="56.030894"/>
     <use style="stroke:#000000;" x="34.395746" xlink:href="#m2c69a26b60" y="43.897086"/>
     <use style="stroke:#000000;" x="38.274025" xlink:href="#m2c69a26b60" y="55.114968"/>
     <use style="stroke:#000000;" x="28.746824" xlink:href="#m2c69a26b60" y="80.878983"/>
     <use style="stroke:#000000;" x="29.161249" xlink:href="#m2c69a26b60" y="59.29605"/>
     <use style="stroke:#000000;" x="38.931472" xlink:href="#m2c69a26b60" y="58.893818"/>
    </g>
   </g>
   <g id="patch_3">
    <path d="M 27 94.5 
L 27 12.96 
" style="fill:none;stroke:#000000;stroke-linecap:square;stroke-linejoin:miter;"/>
   </g>
   <g id="patch_4">
    <path d="M 27 94.5 
L 103.090909 94.5 
" style="fill:none;stroke:#000000;stroke-linecap:square;stroke-linejoin:miter;"/>
   </g>
   <g id="matplotlib.axis_1">
    <g id="xtick_1">
     <g id="line2d_3"/>
     <g id="text_1">
      <text style="font-family:Arial;font-size:8px;font-style:normal;font-weight:normal;text-anchor:middle;" transform="rotate(-0, 27, 103.72625)" x="27" y="103.72625">0</text>
     </g>
    </g>
    <g id="xtick_2">
     <g id="line2d_4"/>
     <g id="text_2">
      <text style="font-family:Arial;font-size:8px;font-style:normal;font-weight:normal;text-anchor:middle;" transform="rotate(-0, 76.803882, 103.72625)" x="76.803882" y="103.72625">5</text>
     </g>
    </g>
    <g id="text_3">
     <text style="font-family:Arial;font-size:10px;font-style:normal;font-weight:normal;text-anchor:middle;" transform="rotate(-0, 65.045455, 116.474063)" x="65.045455" y="116.474063">Exc</text>
    </g>
   </g>
   <g id="matplotlib.axis_2">
    <g id="ytick_1">
     <g id="line2d_5"/>
     <g id="text_4">
      <text style="font-family:Arial;font-size:8px;font-style:normal;font-weight:normal;text-anchor:end;" transform="rotate(-0, 23.5, 97.363125)" x="23.5" y="97.363125">0</text>
     </g>
    </g>
    <g id="ytick_2">
     <g id="line2d_6"/>
     <g id="text_5">
      <text style="font-family:Arial;font-size:8px;font-style:normal;font-weight:normal;text-anchor:end;" transform="rotate(-0, 23.5, 76.014932)" x="23.5" y="76.014932">2</text>
     </g>
    </g>
    <g id="ytick_3">
     <g id="line2d_7"/>
     <g id="text_6">
      <text style="font-family:Arial;font-size:8px;font-style:normal;font-weight:normal;text-anchor:end;" transform="rotate(-0, 23.5, 54.666739)" x="23.5" y="54.666739">4</text>
     </g>
    </g>
    <g id="ytick_4">
     <g id="line2d_8"/>
     <g id="text_7">
      <text style="font-family:Arial;font-size:8px;font-style:normal;font-weight:normal;text-anchor:end;" transform="rotate(-0, 23.5, 33.318546)" x="23.5" y="33.318546">6</text>
     </g>
    </g>
    <g id="text_8">
     <text style="font-family:Arial;font-size:10px;font-style:normal;font-weight:normal;text-anchor:middle;" transform="rotate(-90, 13.06375, 53.73)" x="13.06375" y="53.73">Inh</text>
    </g>
   </g>
   <g id="legend_1">
    <g id="line2d_9">
     <path d="M 36 75.622656 
L 56 75.622656 
" style="fill:none;stroke:#000000;stroke-dasharray:1.85,0.8;stroke-dashoffset:0;stroke-width:0.5;"/>
    </g>
    <g id="line2d_10"/>
    <g id="text_9">
     <!-- $R^2$ 0.43 -->
     <g transform="translate(64 72.875)">
      <text>
       <tspan style="font-family:DejaVu Sans;font-size:10px;font-style:oblique;font-weight:oblique;" x="0" y="-0.9765625">R</tspan>
       <tspan style="font-family:DejaVu Sans;font-size:7px;font-style:book;font-weight:book;" x="7.650794" y="-4.8046875">2</tspan>
       <tspan style="font-family:Arial;font-size:10px;font-style:regular;font-weight:regular;" x="12.377845 15.156165 20.717689 23.496009 29.057533" y="-0.9765625"> 0.43</tspan>
      </text>
     </g>
     <text style="font-family:Arial;font-size:10px;font-style:normal;font-weight:normal;" transform="translate(64 83.4875)"> slope 2.13</text>
    </g>
   </g>
  </g>
  <g id="axes_2">
   <g id="patch_5">
    <path d="M 118.309091 94.5 
L 194.4 94.5 
L 194.4 12.96 
L 118.309091 12.96 
z
" style="fill:#ffffff;"/>
   </g>
   <g id="PathCollection_1">
    <defs>
     <path d="M 0 2.44949 
C 0.649612 2.44949 1.272706 2.191396 1.732051 1.732051 
C 2.191396 1.272706 2.44949 0.649612 2.44949 0 
C 2.44949 -0.649612 2.191396 -1.272706 1.732051 -1.732051 
C 1.272706 -2.191396 0.649612 -2.44949 0 -2.44949 
C -0.649612 -2.44949 -1.272706 -2.191396 -1.732051 -1.732051 
C -2.191396 -1.272706 -2.44949 -0.649612 -2.44949 0 
C -2.44949 0.649612 -2.191396 1.272706 -1.732051 1.732051 
C -1.272706 2.191396 -0.649612 2.44949 0 2.44949 
z
" id="m61e8c9b1ec" style="stroke:#000000;"/>
    </defs>
    <g clip-path="url(#pa26ca77acc)">
     <use style="stroke:#000000;" x="162.979657" xlink:href="#m61e8c9b1ec" y="54.256059"/>
     <use style="stroke:#000000;" x="128.876826" xlink:href="#m61e8c9b1ec" y="48.475467"/>
     <use style="stroke:#000000;" x="128.394307" xlink:href="#m61e8c9b1ec" y="75.957122"/>
     <use style="stroke:#000000;" x="145.168909" xlink:href="#m61e8c9b1ec" y="65.151511"/>
     <use style="stroke:#000000;" x="154.151019" xlink:href="#m61e8c9b1ec" y="79.560828"/>
     <use style="stroke:#000000;" x="137.997285" xlink:href="#m61e8c9b1ec" y="83.226677"/>
     <use style="stroke:#000000;" x="118.309091" xlink:href="#m61e8c9b1ec" y="70.617752"/>
     <use style="stroke:#000000;" x="150.490308" xlink:href="#m61e8c9b1ec" y="45.95675"/>
     <use style="stroke:#000000;" x="144.391679" xlink:href="#m61e8c9b1ec" y="53.327523"/>
     <use style="stroke:#000000;" x="161.523352" xlink:href="#m61e8c9b1ec" y="74.26971"/>
     <use style="stroke:#000000;" x="131.896755" xlink:href="#m61e8c9b1ec" y="68.67173"/>
     <use style="stroke:#000000;" x="140.66743" xlink:href="#m61e8c9b1ec" y="55.986496"/>
     <use style="stroke:#000000;" x="149.937969" xlink:href="#m61e8c9b1ec" y="55.240103"/>
     <use style="stroke:#000000;" x="144.479858" xlink:href="#m61e8c9b1ec" y="48.510842"/>
     <use style="stroke:#000000;" x="131.889914" xlink:href="#m61e8c9b1ec" y="74.12624"/>
     <use style="stroke:#000000;" x="136.665647" xlink:href="#m61e8c9b1ec" y="68.269017"/>
     <use style="stroke:#000000;" x="146.645469" xlink:href="#m61e8c9b1ec" y="70.333275"/>
     <use style="stroke:#000000;" x="190.23021" xlink:href="#m61e8c9b1ec" y="44.266525"/>
     <use style="stroke:#000000;" x="130.101051" xlink:href="#m61e8c9b1ec" y="74.239039"/>
     <use style="stroke:#000000;" x="139.343125" xlink:href="#m61e8c9b1ec" y="71.465821"/>
     <use style="stroke:#000000;" x="150.034093" xlink:href="#m61e8c9b1ec" y="73.63523"/>
     <use style="stroke:#000000;" x="145.472248" xlink:href="#m61e8c9b1ec" y="67.355694"/>
     <use style="stroke:#000000;" x="156.535929" xlink:href="#m61e8c9b1ec" y="88.587991"/>
     <use style="stroke:#000000;" x="148.066668" xlink:href="#m61e8c9b1ec" y="65.983197"/>
     <use style="stroke:#000000;" x="139.235316" xlink:href="#m61e8c9b1ec" y="61.760787"/>
     <use style="stroke:#000000;" x="146.813491" xlink:href="#m61e8c9b1ec" y="74.222775"/>
     <use style="stroke:#000000;" x="149.158514" xlink:href="#m61e8c9b1ec" y="77.896367"/>
     <use style="stroke:#000000;" x="127.112814" xlink:href="#m61e8c9b1ec" y="84.205919"/>
     <use style="stroke:#000000;" x="127.199814" xlink:href="#m61e8c9b1ec" y="83.094745"/>
     <use style="stroke:#000000;" x="131.973342" xlink:href="#m61e8c9b1ec" y="80.68708"/>
    </g>
   </g>
   <g id="line2d_11">
    <path clip-path="url(#pa26ca77acc)" d="M 118.309091 75.821311 
L 119.077686 75.579036 
L 119.846281 75.33676 
L 120.614876 75.094485 
L 121.383471 74.852209 
L 122.152066 74.609934 
L 122.920661 74.367658 
L 123.689256 74.125383 
L 124.457851 73.883107 
L 125.226446 73.640832 
L 125.995041 73.398556 
L 126.763636 73.156281 
L 127.532231 72.914005 
L 128.300826 72.67173 
L 129.069421 72.429454 
L 129.838017 72.187179 
L 130.606612 71.944903 
L 131.375207 71.702628 
L 132.143802 71.460352 
L 132.912397 71.218077 
L 133.680992 70.975801 
L 134.449587 70.733526 
L 135.218182 70.49125 
L 135.986777 70.248975 
L 136.755372 70.006699 
L 137.523967 69.764424 
L 138.292562 69.522148 
L 139.061157 69.279873 
L 139.829752 69.037597 
L 140.598347 68.795322 
L 141.366942 68.553046 
L 142.135537 68.310771 
L 142.904132 68.068495 
L 143.672727 67.82622 
L 144.441322 67.583944 
L 145.209917 67.341669 
L 145.978512 67.099393 
L 146.747107 66.857118 
L 147.515702 66.614842 
L 148.284298 66.372567 
L 149.052893 66.130291 
L 149.821488 65.888016 
L 150.590083 65.645741 
L 151.358678 65.403465 
L 152.127273 65.16119 
L 152.895868 64.918914 
L 153.664463 64.676639 
L 154.433058 64.434363 
L 155.201653 64.192088 
L 155.970248 63.949812 
L 156.738843 63.707537 
L 157.507438 63.465261 
L 158.276033 63.222986 
L 159.044628 62.98071 
L 159.813223 62.738435 
L 160.581818 62.496159 
L 161.350413 62.253884 
L 162.119008 62.011608 
L 162.887603 61.769333 
L 163.656198 61.527057 
L 164.424793 61.284782 
L 165.193388 61.042506 
L 165.961983 60.800231 
L 166.730579 60.557955 
L 167.499174 60.31568 
L 168.267769 60.073404 
L 169.036364 59.831129 
L 169.804959 59.588853 
L 170.573554 59.346578 
L 171.342149 59.104302 
L 172.110744 58.862027 
L 172.879339 58.619751 
L 173.647934 58.377476 
L 174.416529 58.1352 
L 175.185124 57.892925 
L 175.953719 57.650649 
L 176.722314 57.408374 
L 177.490909 57.166098 
L 178.259504 56.923823 
L 179.028099 56.681547 
L 179.796694 56.439272 
L 180.565289 56.196997 
L 181.333884 55.954721 
L 182.102479 55.712446 
L 182.871074 55.47017 
L 183.639669 55.227895 
L 184.408264 54.985619 
L 185.17686 54.743344 
L 185.945455 54.501068 
L 186.71405 54.258793 
L 187.482645 54.016517 
L 188.25124 53.774242 
L 189.019835 53.531966 
L 189.78843 53.289691 
L 190.557025 53.047415 
L 191.32562 52.80514 
L 192.094215 52.562864 
L 192.86281 52.320589 
L 193.631405 52.078313 
L 194.4 51.836038 
" style="fill:none;stroke:#000000;stroke-dasharray:1.85,0.8;stroke-dashoffset:0;stroke-width:0.5;"/>
   </g>
   <g id="patch_6">
    <path d="M 118.309091 94.5 
L 118.309091 12.96 
" style="fill:none;stroke:#000000;stroke-linecap:square;stroke-linejoin:miter;"/>
   </g>
   <g id="patch_7">
    <path d="M 118.309091 94.5 
L 194.4 94.5 
" style="fill:none;stroke:#000000;stroke-linecap:square;stroke-linejoin:miter;"/>
   </g>
   <g id="matplotlib.axis_3">
    <g id="xtick_3">
     <g id="line2d_12"/>
     <g id="text_10">
      <text style="font-family:Arial;font-size:8px;font-style:normal;font-weight:normal;text-anchor:middle;" transform="rotate(-0, 118.309091, 103.72625)" x="118.309091" y="103.72625">0</text>
     </g>
    </g>
    <g id="xtick_4">
     <g id="line2d_13"/>
     <g id="text_11">
      <text style="font-family:Arial;font-size:8px;font-style:normal;font-weight:normal;text-anchor:middle;" transform="rotate(-0, 150.713547, 103.72625)" x="150.713547" y="103.72625">1</text>
     </g>
    </g>
    <g id="xtick_5">
     <g id="line2d_14"/>
     <g id="text_12">
      <text style="font-family:Arial;font-size:8px;font-style:normal;font-weight:normal;text-anchor:middle;" transform="rotate(-0, 183.118003, 103.72625)" x="183.118003" y="103.72625">2</text>
     </g>
    </g>
    <g id="text_13">
     <!-- $\sigma$(Exc) -->
     <g transform="translate(141.504545 116.61625)">
      <text>
       <tspan style="font-family:DejaVu Sans;font-size:10px;font-style:oblique;font-weight:oblique;" x="0" y="-0.71875">σ</tspan>
       <tspan style="font-family:Arial;font-size:10px;font-style:regular;font-weight:regular;" x="6.337891 9.667969 16.337891 21.337891 26.337891" y="-0.71875">(Exc)</tspan>
      </text>
     </g>
    </g>
   </g>
   <g id="matplotlib.axis_4">
    <g id="ytick_5">
     <g id="line2d_15"/>
     <g id="text_14">
      <text style="font-family:Arial;font-size:8px;font-style:normal;font-weight:normal;text-anchor:end;" transform="rotate(-0, 114.809091, 97.363125)" x="114.809091" y="97.363125">0.0</text>
     </g>
    </g>
    <g id="ytick_6">
     <g id="line2d_16"/>
     <g id="text_15">
      <text style="font-family:Arial;font-size:8px;font-style:normal;font-weight:normal;text-anchor:end;" transform="rotate(-0, 114.809091, 80.000608)" x="114.809091" y="80.000608">0.5</text>
     </g>
    </g>
    <g id="ytick_7">
     <g id="line2d_17"/>
     <g id="text_16">
      <text style="font-family:Arial;font-size:8px;font-style:normal;font-weight:normal;text-anchor:end;" transform="rotate(-0, 114.809091, 62.638092)" x="114.809091" y="62.638092">1.0</text>
     </g>
    </g>
    <g id="ytick_8">
     <g id="line2d_18"/>
     <g id="text_17">
      <text style="font-family:Arial;font-size:8px;font-style:normal;font-weight:normal;text-anchor:end;" transform="rotate(-0, 114.809091, 45.275575)" x="114.809091" y="45.275575">1.5</text>
     </g>
    </g>
    <g id="ytick_9">
     <g id="line2d_19"/>
     <g id="text_18">
      <text style="font-family:Arial;font-size:8px;font-style:normal;font-weight:normal;text-anchor:end;" transform="rotate(-0, 114.809091, 27.913058)" x="114.809091" y="27.913058">2.0</text>
     </g>
    </g>
    <g id="text_19">
     <!-- $\sigma$(Inh) -->
     <g transform="translate(97.489091 67.18)rotate(-90)">
      <text>
       <tspan style="font-family:DejaVu Sans;font-size:10px;font-style:oblique;font-weight:oblique;" x="0" y="-0.71875">σ</tspan>
       <tspan style="font-family:Arial;font-size:10px;font-style:regular;font-weight:regular;" x="6.337891 9.667969 12.446289 18.007812 23.569336" y="-0.71875">(Inh)</tspan>
      </text>
     </g>
    </g>
   </g>
   <g id="legend_2">
    <g id="line2d_20">
     <path d="M 108.478125 31.995156 
L 128.478125 31.995156 
" style="fill:none;stroke:#000000;stroke-dasharray:1.85,0.8;stroke-dashoffset:0;stroke-width:0.5;"/>
    </g>
    <g id="line2d_21"/>
    <g id="text_20">
     <!-- $R^2$ 0.13 -->
     <g transform="translate(136.478125 29.2475)">
      <text>
       <tspan style="font-family:DejaVu Sans;font-size:10px;font-style:oblique;font-weight:oblique;" x="0" y="-0.9765625">R</tspan>
       <tspan style="font-family:DejaVu Sans;font-size:7px;font-style:book;font-weight:book;" x="7.650794" y="-4.8046875">2</tspan>
       <tspan style="font-family:Arial;font-size:10px;font-style:regular;font-weight:regular;" x="12.377845 15.156165 20.717689 23.496009 29.057533" y="-0.9765625"> 0.13</tspan>
      </text>
     </g>
     <text style="font-family:Arial;font-size:10px;font-style:normal;font-weight:normal;" transform="translate(136.478125 39.86)"> slope 0.29</text>
    </g>
   </g>
  </g>
 </g>
 <defs>
  <clipPath id="pe986ea7bb4">
   <rect height="81.54" width="76.090909" x="27" y="12.96"/>
  </clipPath>
  <clipPath id="pa26ca77acc">
   <rect height="81.54" width="76.090909" x="118.309091" y="12.96"/>
  </clipPath>
 </defs>
</svg>
