<?xml version="1.0" encoding="utf-8" standalone="no"?>
<!DOCTYPE svg PUBLIC "-//W3C//DTD SVG 1.1//EN"
  "http://www.w3.org/Graphics/SVG/1.1/DTD/svg11.dtd">
<!-- Created with matplotlib (http://matplotlib.org/) -->
<svg height="108pt" version="1.1" viewBox="0 0 216 108" width="216pt" xmlns="http://www.w3.org/2000/svg" xmlns:xlink="http://www.w3.org/1999/xlink">
 <defs>
  <style type="text/css">
*{stroke-linecap:butt;stroke-linejoin:round;}
  </style>
 </defs>
 <g id="figure_1">
  <g id="patch_1">
   <path d="M 0 108 
L 216 108 
L 216 0 
L 0 0 
z
" style="fill:#ffffff;"/>
  </g>
  <g id="axes_1">
   <g id="patch_2">
    <path d="M 27 94.5 
L 103.090909 94.5 
L 103.090909 12.96 
L 27 12.96 
z
" style="fill:#ffffff;"/>
   </g>
   <g id="LineCollection_1">
    <path clip-path="url(#p84ea179273)" d="M 27.673084 64.545915 
L 41.3996 64.545915 
" style="fill:none;stroke:#000000;stroke-width:0.5;"/>
    <path clip-path="url(#p84ea179273)" d="M 25.542556 87.463306 
L 35.221967 87.463306 
" style="fill:none;stroke:#000000;stroke-width:0.5;"/>
    <path clip-path="url(#p84ea179273)" d="M 26.118066 89.44621 
L 30.936229 89.44621 
" style="fill:none;stroke:#000000;stroke-width:0.5;"/>
    <path clip-path="url(#p84ea179273)" d="M 28.319514 85.132399 
L 33.637611 85.132399 
" style="fill:none;stroke:#000000;stroke-width:0.5;"/>
    <path clip-path="url(#p84ea179273)" d="M 25.396552 73.580609 
L 36.545786 73.580609 
" style="fill:none;stroke:#000000;stroke-width:0.5;"/>
    <path clip-path="url(#p84ea179273)" d="M 24.414253 83.375522 
L 35.572068 83.375522 
" style="fill:none;stroke:#000000;stroke-width:0.5;"/>
    <path clip-path="url(#p84ea179273)" d="M 23.040052 58.081619 
L 39.812526 58.081619 
" style="fill:none;stroke:#000000;stroke-width:0.5;"/>
    <path clip-path="url(#p84ea179273)" d="M 25.976325 91.110626 
L 29.436137 91.110626 
" style="fill:none;stroke:#000000;stroke-width:0.5;"/>
    <path clip-path="url(#p84ea179273)" d="M 25.037845 58.495197 
L 33.44071 58.495197 
" style="fill:none;stroke:#000000;stroke-width:0.5;"/>
    <path clip-path="url(#p84ea179273)" d="M 29.812803 41.825691 
L 54.288981 41.825691 
" style="fill:none;stroke:#000000;stroke-width:0.5;"/>
    <path clip-path="url(#p84ea179273)" d="M 30.792834 53.960466 
L 55.87521 53.960466 
" style="fill:none;stroke:#000000;stroke-width:0.5;"/>
    <path clip-path="url(#p84ea179273)" d="M 24.564476 45.891026 
L 41.90031 45.891026 
" style="fill:none;stroke:#000000;stroke-width:0.5;"/>
    <path clip-path="url(#p84ea179273)" d="M 26.160497 59.299998 
L 33.398968 59.299998 
" style="fill:none;stroke:#000000;stroke-width:0.5;"/>
    <path clip-path="url(#p84ea179273)" d="M 28.319597 61.858896 
L 39.16853 61.858896 
" style="fill:none;stroke:#000000;stroke-width:0.5;"/>
    <path clip-path="url(#p84ea179273)" d="M 26.349163 77.322661 
L 30.020994 77.322661 
" style="fill:none;stroke:#000000;stroke-width:0.5;"/>
    <path clip-path="url(#p84ea179273)" d="M 25.3114 71.285023 
L 38.896156 71.285023 
" style="fill:none;stroke:#000000;stroke-width:0.5;"/>
    <path clip-path="url(#p84ea179273)" d="M 26.973249 67.377445 
L 35.385522 67.377445 
" style="fill:none;stroke:#000000;stroke-width:0.5;"/>
    <path clip-path="url(#p84ea179273)" d="M 25.758002 90.218047 
L 29.955701 90.218047 
" style="fill:none;stroke:#000000;stroke-width:0.5;"/>
    <path clip-path="url(#p84ea179273)" d="M 27.879523 77.213872 
L 34.406492 77.213872 
" style="fill:none;stroke:#000000;stroke-width:0.5;"/>
    <path clip-path="url(#p84ea179273)" d="M 27.792479 71.484014 
L 45.389239 71.484014 
" style="fill:none;stroke:#000000;stroke-width:0.5;"/>
    <path clip-path="url(#p84ea179273)" d="M 25.435688 49.456569 
L 42.057786 49.456569 
" style="fill:none;stroke:#000000;stroke-width:0.5;"/>
    <path clip-path="url(#p84ea179273)" d="M 25.378698 69.198629 
L 41.519623 69.198629 
" style="fill:none;stroke:#000000;stroke-width:0.5;"/>
    <path clip-path="url(#p84ea179273)" d="M 19.59146 72.189434 
L 44.630814 72.189434 
" style="fill:none;stroke:#000000;stroke-width:0.5;"/>
    <path clip-path="url(#p84ea179273)" d="M 28.354069 48.864058 
L 44.300182 48.864058 
" style="fill:none;stroke:#000000;stroke-width:0.5;"/>
    <path clip-path="url(#p84ea179273)" d="M 22.241015 33.139907 
L 63.716891 33.139907 
" style="fill:none;stroke:#000000;stroke-width:0.5;"/>
    <path clip-path="url(#p84ea179273)" d="M 25.769818 66.063254 
L 36.952087 66.063254 
" style="fill:none;stroke:#000000;stroke-width:0.5;"/>
    <path clip-path="url(#p84ea179273)" d="M 28.698611 59.705552 
L 46.376599 59.705552 
" style="fill:none;stroke:#000000;stroke-width:0.5;"/>
    <path clip-path="url(#p84ea179273)" d="M 23.168876 34.533351 
L 48.704115 34.533351 
" style="fill:none;stroke:#000000;stroke-width:0.5;"/>
    <path clip-path="url(#p84ea179273)" d="M 25.312652 87.413418 
L 31.015544 87.413418 
" style="fill:none;stroke:#000000;stroke-width:0.5;"/>
    <path clip-path="url(#p84ea179273)" d="M 26.480896 85.600505 
L 35.258872 85.600505 
" style="fill:none;stroke:#000000;stroke-width:0.5;"/>
   </g>
   <g id="LineCollection_2">
    <path clip-path="url(#p84ea179273)" d="M 34.536342 72.233448 
L 34.536342 56.858382 
" style="fill:none;stroke:#000000;stroke-width:0.5;"/>
    <path clip-path="url(#p84ea179273)" d="M 30.382261 92.471447 
L 30.382261 82.455165 
" style="fill:none;stroke:#000000;stroke-width:0.5;"/>
    <path clip-path="url(#p84ea179273)" d="M 28.527148 90.283956 
L 28.527148 88.608465 
" style="fill:none;stroke:#000000;stroke-width:0.5;"/>
    <path clip-path="url(#p84ea179273)" d="M 30.978563 88.045131 
L 30.978563 82.219667 
" style="fill:none;stroke:#000000;stroke-width:0.5;"/>
    <path clip-path="url(#p84ea179273)" d="M 30.971169 79.146451 
L 30.971169 68.014766 
" style="fill:none;stroke:#000000;stroke-width:0.5;"/>
    <path clip-path="url(#p84ea179273)" d="M 29.99316 88.811665 
L 29.99316 77.939379 
" style="fill:none;stroke:#000000;stroke-width:0.5;"/>
    <path clip-path="url(#p84ea179273)" d="M 31.426289 63.685036 
L 31.426289 52.478203 
" style="fill:none;stroke:#000000;stroke-width:0.5;"/>
    <path clip-path="url(#p84ea179273)" d="M 27.706231 92.771073 
L 27.706231 89.450178 
" style="fill:none;stroke:#000000;stroke-width:0.5;"/>
    <path clip-path="url(#p84ea179273)" d="M 29.239277 66.168836 
L 29.239277 50.821557 
" style="fill:none;stroke:#000000;stroke-width:0.5;"/>
    <path clip-path="url(#p84ea179273)" d="M 42.050892 48.953845 
L 42.050892 34.697537 
" style="fill:none;stroke:#000000;stroke-width:0.5;"/>
    <path clip-path="url(#p84ea179273)" d="M 43.334022 62.808971 
L 43.334022 45.11196 
" style="fill:none;stroke:#000000;stroke-width:0.5;"/>
    <path clip-path="url(#p84ea179273)" d="M 33.232393 55.47204 
L 33.232393 36.310013 
" style="fill:none;stroke:#000000;stroke-width:0.5;"/>
    <path clip-path="url(#p84ea179273)" d="M 29.779732 70.292795 
L 29.779732 48.3072 
" style="fill:none;stroke:#000000;stroke-width:0.5;"/>
    <path clip-path="url(#p84ea179273)" d="M 33.744063 67.188113 
L 33.744063 56.529679 
" style="fill:none;stroke:#000000;stroke-width:0.5;"/>
    <path clip-path="url(#p84ea179273)" d="M 28.185078 81.947049 
L 28.185078 72.698273 
" style="fill:none;stroke:#000000;stroke-width:0.5;"/>
    <path clip-path="url(#p84ea179273)" d="M 32.103778 78.655095 
L 32.103778 63.914951 
" style="fill:none;stroke:#000000;stroke-width:0.5;"/>
    <path clip-path="url(#p84ea179273)" d="M 31.179386 73.091821 
L 31.179386 61.663068 
" style="fill:none;stroke:#000000;stroke-width:0.5;"/>
    <path clip-path="url(#p84ea179273)" d="M 27.856852 92.315767 
L 27.856852 88.120327 
" style="fill:none;stroke:#000000;stroke-width:0.5;"/>
    <path clip-path="url(#p84ea179273)" d="M 31.143007 83.750938 
L 31.143007 70.676806 
" style="fill:none;stroke:#000000;stroke-width:0.5;"/>
    <path clip-path="url(#p84ea179273)" d="M 36.590859 79.407897 
L 36.590859 63.560132 
" style="fill:none;stroke:#000000;stroke-width:0.5;"/>
    <path clip-path="url(#p84ea179273)" d="M 33.746737 58.502341 
L 33.746737 40.410796 
" style="fill:none;stroke:#000000;stroke-width:0.5;"/>
    <path clip-path="url(#p84ea179273)" d="M 33.44916 75.526757 
L 33.44916 62.870501 
" style="fill:none;stroke:#000000;stroke-width:0.5;"/>
    <path clip-path="url(#p84ea179273)" d="M 32.111137 83.478514 
L 32.111137 60.900355 
" style="fill:none;stroke:#000000;stroke-width:0.5;"/>
    <path clip-path="url(#p84ea179273)" d="M 36.327126 57.60645 
L 36.327126 40.121667 
" style="fill:none;stroke:#000000;stroke-width:0.5;"/>
    <path clip-path="url(#p84ea179273)" d="M 42.978953 49.519286 
L 42.978953 16.760527 
" style="fill:none;stroke:#000000;stroke-width:0.5;"/>
    <path clip-path="url(#p84ea179273)" d="M 31.360952 70.779912 
L 31.360952 61.346596 
" style="fill:none;stroke:#000000;stroke-width:0.5;"/>
    <path clip-path="url(#p84ea179273)" d="M 37.537605 63.350257 
L 37.537605 56.060847 
" style="fill:none;stroke:#000000;stroke-width:0.5;"/>
    <path clip-path="url(#p84ea179273)" d="M 35.936495 43.272706 
L 35.936495 25.793997 
" style="fill:none;stroke:#000000;stroke-width:0.5;"/>
    <path clip-path="url(#p84ea179273)" d="M 28.164098 90.982893 
L 28.164098 83.843943 
" style="fill:none;stroke:#000000;stroke-width:0.5;"/>
    <path clip-path="url(#p84ea179273)" d="M 30.869884 92.678872 
L 30.869884 78.522139 
" style="fill:none;stroke:#000000;stroke-width:0.5;"/>
   </g>
   <g id="line2d_1">
    <path clip-path="url(#p84ea179273)" d="M 27 84.104406 
L 27.768595 81.878918 
L 28.53719 79.653431 
L 29.305785 77.427943 
L 30.07438 75.202455 
L 30.842975 72.976967 
L 31.61157 70.751479 
L 32.380165 68.525991 
L 33.14876 66.300503 
L 33.917355 64.075015 
L 34.68595 61.849527 
L 35.454545 59.62404 
L 36.22314 57.398552 
L 36.991736 55.173064 
L 37.760331 52.947576 
L 38.528926 50.722088 
L 39.297521 48.4966 
L 40.066116 46.271112 
L 40.834711 44.045624 
L 41.603306 41.820136 
L 42.371901 39.594648 
L 43.140496 37.369161 
L 43.909091 35.143673 
L 44.677686 32.918185 
L 45.446281 30.692697 
L 46.214876 28.467209 
L 46.983471 26.241721 
L 47.752066 24.016233 
L 48.520661 21.790745 
L 49.289256 19.565257 
L 50.057851 17.339769 
L 50.826446 15.114282 
L 51.595041 12.888794 
L 52.363636 10.663306 
L 53.132231 8.437818 
L 53.900826 6.21233 
L 54.669421 3.986842 
L 55.438017 1.761354 
L 56.206612 -0.464134 
L 56.391678 -1 
" style="fill:none;stroke:#000000;stroke-dasharray:1.85,0.8;stroke-dashoffset:0;stroke-width:0.5;"/>
   </g>
   <g id="line2d_2">
    <defs>
     <path d="M 0 3 
C 0.795609 3 1.55874 2.683901 2.12132 2.12132 
C 2.683901 1.55874 3 0.795609 3 0 
C 3 -0.795609 2.683901 -1.55874 2.12132 -2.12132 
C 1.55874 -2.683901 0.795609 -3 0 -3 
C -0.795609 -3 -1.55874 -2.683901 -2.12132 -2.12132 
C -2.683901 -1.55874 -3 -0.795609 -3 0 
C -3 0.795609 -2.683901 1.55874 -2.12132 2.12132 
C -1.55874 2.683901 -0.795609 3 0 3 
z
" id="m58dad97326" style="stroke:#000000;"/>
    </defs>
    <g clip-path="url(#p84ea179273)">
     <use style="stroke:#000000;" x="34.536342" xlink:href="#m58dad97326" y="64.545915"/>
     <use style="stroke:#000000;" x="30.382261" xlink:href="#m58dad97326" y="87.463306"/>
     <use style="stroke:#000000;" x="28.527148" xlink:href="#m58dad97326" y="89.44621"/>
     <use style="stroke:#000000;" x="30.978563" xlink:href="#m58dad97326" y="85.132399"/>
     <use style="stroke:#000000;" x="30.971169" xlink:href="#m58dad97326" y="73.580609"/>
     <use style="stroke:#000000;" x="29.99316" xlink:href="#m58dad97326" y="83.375522"/>
     <use style="stroke:#000000;" x="31.426289" xlink:href="#m58dad97326" y="58.081619"/>
     <use style="stroke:#000000;" x="27.706231" xlink:href="#m58dad97326" y="91.110626"/>
     <use style="stroke:#000000;" x="29.239277" xlink:href="#m58dad97326" y="58.495197"/>
     <use style="stroke:#000000;" x="42.050892" xlink:href="#m58dad97326" y="41.825691"/>
     <use style="stroke:#000000;" x="43.334022" xlink:href="#m58dad97326" y="53.960466"/>
     <use style="stroke:#000000;" x="33.232393" xlink:href="#m58dad97326" y="45.891026"/>
     <use style="stroke:#000000;" x="29.779732" xlink:href="#m58dad97326" y="59.299998"/>
     <use style="stroke:#000000;" x="33.744063" xlink:href="#m58dad97326" y="61.858896"/>
     <use style="stroke:#000000;" x="28.185078" xlink:href="#m58dad97326" y="77.322661"/>
     <use style="stroke:#000000;" x="32.103778" xlink:href="#m58dad97326" y="71.285023"/>
     <use style="stroke:#000000;" x="31.179386" xlink:href="#m58dad97326" y="67.377445"/>
     <use style="stroke:#000000;" x="27.856852" xlink:href="#m58dad97326" y="90.218047"/>
     <use style="stroke:#000000;" x="31.143007" xlink:href="#m58dad97326" y="77.213872"/>
     <use style="stroke:#000000;" x="36.590859" xlink:href="#m58dad97326" y="71.484014"/>
     <use style="stroke:#000000;" x="33.746737" xlink:href="#m58dad97326" y="49.456569"/>
     <use style="stroke:#000000;" x="33.44916" xlink:href="#m58dad97326" y="69.198629"/>
     <use style="stroke:#000000;" x="32.111137" xlink:href="#m58dad97326" y="72.189434"/>
     <use style="stroke:#000000;" x="36.327126" xlink:href="#m58dad97326" y="48.864058"/>
     <use style="stroke:#000000;" x="42.978953" xlink:href="#m58dad97326" y="33.139907"/>
     <use style="stroke:#000000;" x="31.360952" xlink:href="#m58dad97326" y="66.063254"/>
     <use style="stroke:#000000;" x="37.537605" xlink:href="#m58dad97326" y="59.705552"/>
     <use style="stroke:#000000;" x="35.936495" xlink:href="#m58dad97326" y="34.533351"/>
     <use style="stroke:#000000;" x="28.164098" xlink:href="#m58dad97326" y="87.413418"/>
     <use style="stroke:#000000;" x="30.869884" xlink:href="#m58dad97326" y="85.600505"/>
    </g>
   </g>
   <g id="patch_3">
    <path d="M 27 94.5 
L 27 12.96 
" style="fill:none;stroke:#000000;stroke-linecap:square;stroke-linejoin:miter;"/>
   </g>
   <g id="patch_4">
    <path d="M 27 94.5 
L 103.090909 94.5 
" style="fill:none;stroke:#000000;stroke-linecap:square;stroke-linejoin:miter;"/>
   </g>
   <g id="matplotlib.axis_1">
    <g id="xtick_1">
     <g id="line2d_3"/>
     <g id="text_1">
      <text style="font-family:Arial;font-size:8px;font-style:normal;font-weight:normal;text-anchor:middle;" transform="rotate(-0, 27, 103.72625)" x="27" y="103.72625">0</text>
     </g>
    </g>
    <g id="xtick_2">
     <g id="line2d_4"/>
     <g id="text_2">
      <text style="font-family:Arial;font-size:8px;font-style:normal;font-weight:normal;text-anchor:middle;" transform="rotate(-0, 68.544141, 103.72625)" x="68.544141" y="103.72625">5</text>
     </g>
    </g>
    <g id="text_3">
     <text style="font-family:Arial;font-size:10px;font-style:normal;font-weight:normal;text-anchor:middle;" transform="rotate(-0, 65.045455, 116.474063)" x="65.045455" y="116.474063">Exc</text>
    </g>
   </g>
   <g id="matplotlib.axis_2">
    <g id="ytick_1">
     <g id="line2d_5"/>
     <g id="text_4">
      <text style="font-family:Arial;font-size:8px;font-style:normal;font-weight:normal;text-anchor:end;" transform="rotate(-0, 23.5, 97.363125)" x="23.5" y="97.363125">0</text>
     </g>
    </g>
    <g id="ytick_2">
     <g id="line2d_6"/>
     <g id="text_5">
      <text style="font-family:Arial;font-size:8px;font-style:normal;font-weight:normal;text-anchor:end;" transform="rotate(-0, 23.5, 79.55543)" x="23.5" y="79.55543">2</text>
     </g>
    </g>
    <g id="ytick_3">
     <g id="line2d_7"/>
     <g id="text_6">
      <text style="font-family:Arial;font-size:8px;font-style:normal;font-weight:normal;text-anchor:end;" transform="rotate(-0, 23.5, 61.747735)" x="23.5" y="61.747735">4</text>
     </g>
    </g>
    <g id="ytick_4">
     <g id="line2d_8"/>
     <g id="text_7">
      <text style="font-family:Arial;font-size:8px;font-style:normal;font-weight:normal;text-anchor:end;" transform="rotate(-0, 23.5, 43.94004)" x="23.5" y="43.94004">6</text>
     </g>
    </g>
    <g id="ytick_5">
     <g id="line2d_9"/>
     <g id="text_8">
      <text style="font-family:Arial;font-size:8px;font-style:normal;font-weight:normal;text-anchor:end;" transform="rotate(-0, 23.5, 26.132345)" x="23.5" y="26.132345">8</text>
     </g>
    </g>
    <g id="text_9">
     <text style="font-family:Arial;font-size:10px;font-style:normal;font-weight:normal;text-anchor:middle;" transform="rotate(-90, 13.06375, 53.73)" x="13.06375" y="53.73">Inh</text>
    </g>
   </g>
   <g id="legend_1">
    <g id="line2d_10">
     <path d="M 36 75.622656 
L 56 75.622656 
" style="fill:none;stroke:#000000;stroke-dasharray:1.85,0.8;stroke-dashoffset:0;stroke-width:0.5;"/>
    </g>
    <g id="line2d_11"/>
    <g id="text_10">
     <!-- $R^2$ 0.55 -->
     <g transform="translate(64 72.875)">
      <text>
       <tspan style="font-family:DejaVu Sans;font-size:10px;font-style:oblique;font-weight:oblique;" x="0" y="-0.9765625">R</tspan>
       <tspan style="font-family:DejaVu Sans;font-size:7px;font-style:book;font-weight:book;" x="7.650794" y="-4.8046875">2</tspan>
       <tspan style="font-family:Arial;font-size:10px;font-style:regular;font-weight:regular;" x="12.377845 15.156165 20.717689 23.496009 29.057533" y="-0.9765625"> 0.55</tspan>
      </text>
     </g>
     <text style="font-family:Arial;font-size:10px;font-style:normal;font-weight:normal;" transform="translate(64 83.4875)"> slope 2.70</text>
    </g>
   </g>
  </g>
  <g id="axes_2">
   <g id="patch_5">
    <path d="M 118.309091 94.5 
L 194.4 94.5 
L 194.4 12.96 
L 118.309091 12.96 
z
" style="fill:#ffffff;"/>
   </g>
   <g id="PathCollection_1">
    <defs>
     <path d="M 0 2.44949 
C 0.649612 2.44949 1.272706 2.191396 1.732051 1.732051 
C 2.191396 1.272706 2.44949 0.649612 2.44949 0 
C 2.44949 -0.649612 2.191396 -1.272706 1.732051 -1.732051 
C 1.272706 -2.191396 0.649612 -2.44949 0 -2.44949 
C -0.649612 -2.44949 -1.272706 -2.191396 -1.732051 -1.732051 
C -2.191396 -1.272706 -2.44949 -0.649612 -2.44949 0 
C -2.44949 0.649612 -2.191396 1.272706 -1.732051 1.732051 
C -1.272706 2.191396 -0.649612 2.44949 0 2.44949 
z
" id="m6ead8aee48" style="stroke:#000000;"/>
    </defs>
    <g clip-path="url(#p60ce96b99a)">
     <use style="stroke:#000000;" x="142.225773" xlink:href="#m6ead8aee48" y="67.710933"/>
     <use style="stroke:#000000;" x="135.174216" xlink:href="#m6ead8aee48" y="77.04792"/>
     <use style="stroke:#000000;" x="126.704117" xlink:href="#m6ead8aee48" y="91.580673"/>
     <use style="stroke:#000000;" x="127.575189" xlink:href="#m6ead8aee48" y="84.34988"/>
     <use style="stroke:#000000;" x="137.735191" xlink:href="#m6ead8aee48" y="75.104476"/>
     <use style="stroke:#000000;" x="137.750143" xlink:href="#m6ead8aee48" y="75.556444"/>
     <use style="stroke:#000000;" x="147.53296" xlink:href="#m6ead8aee48" y="74.97354"/>
     <use style="stroke:#000000;" x="124.337367" xlink:href="#m6ead8aee48" y="88.713769"/>
     <use style="stroke:#000000;" x="132.949999" xlink:href="#m6ead8aee48" y="67.759349"/>
     <use style="stroke:#000000;" x="160.955672" xlink:href="#m6ead8aee48" y="69.660222"/>
     <use style="stroke:#000000;" x="162.011894" xlink:href="#m6ead8aee48" y="63.665242"/>
     <use style="stroke:#000000;" x="148.514544" xlink:href="#m6ead8aee48" y="61.112641"/>
     <use style="stroke:#000000;" x="130.921192" xlink:href="#m6ead8aee48" y="56.192938"/>
     <use style="stroke:#000000;" x="137.211956" xlink:href="#m6ead8aee48" y="75.929055"/>
     <use style="stroke:#000000;" x="124.706782" xlink:href="#m6ead8aee48" y="78.385201"/>
     <use style="stroke:#000000;" x="141.978774" xlink:href="#m6ead8aee48" y="68.817203"/>
     <use style="stroke:#000000;" x="132.966391" xlink:href="#m6ead8aee48" y="74.586874"/>
     <use style="stroke:#000000;" x="125.62304" xlink:href="#m6ead8aee48" y="87.189987"/>
     <use style="stroke:#000000;" x="129.681491" xlink:href="#m6ead8aee48" y="71.720012"/>
     <use style="stroke:#000000;" x="148.969174" xlink:href="#m6ead8aee48" y="66.887314"/>
     <use style="stroke:#000000;" x="147.270951" xlink:href="#m6ead8aee48" y="62.977819"/>
     <use style="stroke:#000000;" x="146.432569" xlink:href="#m6ead8aee48" y="72.448108"/>
     <use style="stroke:#000000;" x="161.936934" xlink:href="#m6ead8aee48" y="55.160473"/>
     <use style="stroke:#000000;" x="146.093135" xlink:href="#m6ead8aee48" y="64.035022"/>
     <use style="stroke:#000000;" x="190.575452" xlink:href="#m6ead8aee48" y="37.422092"/>
     <use style="stroke:#000000;" x="137.792751" xlink:href="#m6ead8aee48" y="78.063665"/>
     <use style="stroke:#000000;" x="149.110703" xlink:href="#m6ead8aee48" y="81.799144"/>
     <use style="stroke:#000000;" x="162.800948" xlink:href="#m6ead8aee48" y="64.045605"/>
     <use style="stroke:#000000;" x="128.245645" xlink:href="#m6ead8aee48" y="82.061301"/>
     <use style="stroke:#000000;" x="133.603581" xlink:href="#m6ead8aee48" y="69.833719"/>
    </g>
   </g>
   <g id="line2d_12">
    <path clip-path="url(#p60ce96b99a)" d="M 118.309091 85.173793 
L 119.077686 84.729571 
L 119.846281 84.285349 
L 120.614876 83.841127 
L 121.383471 83.396904 
L 122.152066 82.952682 
L 122.920661 82.50846 
L 123.689256 82.064238 
L 124.457851 81.620016 
L 125.226446 81.175793 
L 125.995041 80.731571 
L 126.763636 80.287349 
L 127.532231 79.843127 
L 128.300826 79.398904 
L 129.069421 78.954682 
L 129.838017 78.51046 
L 130.606612 78.066238 
L 131.375207 77.622016 
L 132.143802 77.177793 
L 132.912397 76.733571 
L 133.680992 76.289349 
L 134.449587 75.845127 
L 135.218182 75.400905 
L 135.986777 74.956682 
L 136.755372 74.51246 
L 137.523967 74.068238 
L 138.292562 73.624016 
L 139.061157 73.179793 
L 139.829752 72.735571 
L 140.598347 72.291349 
L 141.366942 71.847127 
L 142.135537 71.402905 
L 142.904132 70.958682 
L 143.672727 70.51446 
L 144.441322 70.070238 
L 145.209917 69.626016 
L 145.978512 69.181793 
L 146.747107 68.737571 
L 147.515702 68.293349 
L 148.284298 67.849127 
L 149.052893 67.404905 
L 149.821488 66.960682 
L 150.590083 66.51646 
L 151.358678 66.072238 
L 152.127273 65.628016 
L 152.895868 65.183794 
L 153.664463 64.739571 
L 154.433058 64.295349 
L 155.201653 63.851127 
L 155.970248 63.406905 
L 156.738843 62.962682 
L 157.507438 62.51846 
L 158.276033 62.074238 
L 159.044628 61.630016 
L 159.813223 61.185794 
L 160.581818 60.741571 
L 161.350413 60.297349 
L 162.119008 59.853127 
L 162.887603 59.408905 
L 163.656198 58.964682 
L 164.424793 58.52046 
L 165.193388 58.076238 
L 165.961983 57.632016 
L 166.730579 57.187794 
L 167.499174 56.743571 
L 168.267769 56.299349 
L 169.036364 55.855127 
L 169.804959 55.410905 
L 170.573554 54.966683 
L 171.342149 54.52246 
L 172.110744 54.078238 
L 172.879339 53.634016 
L 173.647934 53.189794 
L 174.416529 52.745571 
L 175.185124 52.301349 
L 175.953719 51.857127 
L 176.722314 51.412905 
L 177.490909 50.968683 
L 178.259504 50.52446 
L 179.028099 50.080238 
L 179.796694 49.636016 
L 180.565289 49.191794 
L 181.333884 48.747571 
L 182.102479 48.303349 
L 182.871074 47.859127 
L 183.639669 47.414905 
L 184.408264 46.970683 
L 185.17686 46.52646 
L 185.945455 46.082238 
L 186.71405 45.638016 
L 187.482645 45.193794 
L 188.25124 44.749572 
L 189.019835 44.305349 
L 189.78843 43.861127 
L 190.557025 43.416905 
L 191.32562 42.972683 
L 192.094215 42.52846 
L 192.86281 42.084238 
L 193.631405 41.640016 
L 194.4 41.195794 
" style="fill:none;stroke:#000000;stroke-dasharray:1.85,0.8;stroke-dashoffset:0;stroke-width:0.5;"/>
   </g>
   <g id="patch_6">
    <path d="M 118.309091 94.5 
L 118.309091 12.96 
" style="fill:none;stroke:#000000;stroke-linecap:square;stroke-linejoin:miter;"/>
   </g>
   <g id="patch_7">
    <path d="M 118.309091 94.5 
L 194.4 94.5 
" style="fill:none;stroke:#000000;stroke-linecap:square;stroke-linejoin:miter;"/>
   </g>
   <g id="matplotlib.axis_3">
    <g id="xtick_3">
     <g id="line2d_13"/>
     <g id="text_11">
      <text style="font-family:Arial;font-size:8px;font-style:normal;font-weight:normal;text-anchor:middle;" transform="rotate(-0, 118.309091, 103.72625)" x="118.309091" y="103.72625">0</text>
     </g>
    </g>
    <g id="xtick_4">
     <g id="line2d_14"/>
     <g id="text_12">
      <text style="font-family:Arial;font-size:8px;font-style:normal;font-weight:normal;text-anchor:middle;" transform="rotate(-0, 147.263212, 103.72625)" x="147.263212" y="103.72625">1</text>
     </g>
    </g>
    <g id="xtick_5">
     <g id="line2d_15"/>
     <g id="text_13">
      <text style="font-family:Arial;font-size:8px;font-style:normal;font-weight:normal;text-anchor:middle;" transform="rotate(-0, 176.217333, 103.72625)" x="176.217333" y="103.72625">2</text>
     </g>
    </g>
    <g id="text_14">
     <!-- $\sigma$(Exc) -->
     <g transform="translate(141.504545 116.61625)">
      <text>
       <tspan style="font-family:DejaVu Sans;font-size:10px;font-style:oblique;font-weight:oblique;" x="0" y="-0.71875">σ</tspan>
       <tspan style="font-family:Arial;font-size:10px;font-style:regular;font-weight:regular;" x="6.337891 9.667969 16.337891 21.337891 26.337891" y="-0.71875">(Exc)</tspan>
      </text>
     </g>
    </g>
   </g>
   <g id="matplotlib.axis_4">
    <g id="ytick_6">
     <g id="line2d_16"/>
     <g id="text_15">
      <text style="font-family:Arial;font-size:8px;font-style:normal;font-weight:normal;text-anchor:end;" transform="rotate(-0, 114.809091, 97.363125)" x="114.809091" y="97.363125">0</text>
     </g>
    </g>
    <g id="ytick_7">
     <g id="line2d_17"/>
     <g id="text_16">
      <text style="font-family:Arial;font-size:8px;font-style:normal;font-weight:normal;text-anchor:end;" transform="rotate(-0, 114.809091, 66.335515)" x="114.809091" y="66.335515">1</text>
     </g>
    </g>
    <g id="ytick_8">
     <g id="line2d_18"/>
     <g id="text_17">
      <text style="font-family:Arial;font-size:8px;font-style:normal;font-weight:normal;text-anchor:end;" transform="rotate(-0, 114.809091, 35.307905)" x="114.809091" y="35.307905">2</text>
     </g>
    </g>
    <g id="text_18">
     <!-- $\sigma$(Inh) -->
     <g transform="translate(104.160341 67.18)rotate(-90)">
      <text>
       <tspan style="font-family:DejaVu Sans;font-size:10px;font-style:oblique;font-weight:oblique;" x="0" y="-0.71875">σ</tspan>
       <tspan style="font-family:Arial;font-size:10px;font-style:regular;font-weight:regular;" x="6.337891 9.667969 12.446289 18.007812 23.569336" y="-0.71875">(Inh)</tspan>
      </text>
     </g>
    </g>
   </g>
   <g id="legend_2">
    <g id="line2d_19">
     <path d="M 108.478125 31.995156 
L 128.478125 31.995156 
" style="fill:none;stroke:#000000;stroke-dasharray:1.85,0.8;stroke-dashoffset:0;stroke-width:0.5;"/>
    </g>
    <g id="line2d_20"/>
    <g id="text_19">
     <!-- $R^2$ 0.59 -->
     <g transform="translate(136.478125 29.2475)">
      <text>
       <tspan style="font-family:DejaVu Sans;font-size:10px;font-style:oblique;font-weight:oblique;" x="0" y="-0.9765625">R</tspan>
       <tspan style="font-family:DejaVu Sans;font-size:7px;font-style:book;font-weight:book;" x="7.650794" y="-4.8046875">2</tspan>
       <tspan style="font-family:Arial;font-size:10px;font-style:regular;font-weight:regular;" x="12.377845 15.156165 20.717689 23.496009 29.057533" y="-0.9765625"> 0.59</tspan>
      </text>
     </g>
     <text style="font-family:Arial;font-size:10px;font-style:normal;font-weight:normal;" transform="translate(136.478125 39.86)"> slope 0.54</text>
    </g>
   </g>
  </g>
 </g>
 <defs>
  <clipPath id="p84ea179273">
   <rect height="81.54" width="76.090909" x="27" y="12.96"/>
  </clipPath>
  <clipPath id="p60ce96b99a">
   <rect height="81.54" width="76.090909" x="118.309091" y="12.96"/>
  </clipPath>
 </defs>
</svg>
