<?xml version="1.0" encoding="utf-8" standalone="no"?>
<!DOCTYPE svg PUBLIC "-//W3C//DTD SVG 1.1//EN"
  "http://www.w3.org/Graphics/SVG/1.1/DTD/svg11.dtd">
<!-- Created with matplotlib (http://matplotlib.org/) -->
<svg height="108pt" version="1.1" viewBox="0 0 216 108" width="216pt" xmlns="http://www.w3.org/2000/svg" xmlns:xlink="http://www.w3.org/1999/xlink">
 <defs>
  <style type="text/css">
*{stroke-linecap:butt;stroke-linejoin:round;}
  </style>
 </defs>
 <g id="figure_1">
  <g id="patch_1">
   <path d="M 0 108 
L 216 108 
L 216 0 
L 0 0 
z
" style="fill:#ffffff;"/>
  </g>
  <g id="axes_1">
   <g id="patch_2">
    <path d="M 27 94.5 
L 103.090909 94.5 
L 103.090909 12.96 
L 27 12.96 
z
" style="fill:#ffffff;"/>
   </g>
   <g id="LineCollection_1">
    <path clip-path="url(#p81b4d67e40)" d="M 23.848597 65.388615 
L 38.648334 65.388615 
" style="fill:none;stroke:#000000;stroke-width:0.5;"/>
    <path clip-path="url(#p81b4d67e40)" d="M 30.852855 62.701144 
L 46.231578 62.701144 
" style="fill:none;stroke:#000000;stroke-width:0.5;"/>
    <path clip-path="url(#p81b4d67e40)" d="M 23.324645 65.857907 
L 43.689984 65.857907 
" style="fill:none;stroke:#000000;stroke-width:0.5;"/>
    <path clip-path="url(#p81b4d67e40)" d="M 33.517428 53.537754 
L 41.974702 53.537754 
" style="fill:none;stroke:#000000;stroke-width:0.5;"/>
    <path clip-path="url(#p81b4d67e40)" d="M 24.983673 63.231113 
L 40.171829 63.231113 
" style="fill:none;stroke:#000000;stroke-width:0.5;"/>
    <path clip-path="url(#p81b4d67e40)" d="M 26.175993 85.386474 
L 30.824799 85.386474 
" style="fill:none;stroke:#000000;stroke-width:0.5;"/>
    <path clip-path="url(#p81b4d67e40)" d="M 26.092296 72.899803 
L 34.297974 72.899803 
" style="fill:none;stroke:#000000;stroke-width:0.5;"/>
    <path clip-path="url(#p81b4d67e40)" d="M 27.509084 58.382765 
L 42.079146 58.382765 
" style="fill:none;stroke:#000000;stroke-width:0.5;"/>
    <path clip-path="url(#p81b4d67e40)" d="M 27.441367 77.818641 
L 40.505795 77.818641 
" style="fill:none;stroke:#000000;stroke-width:0.5;"/>
    <path clip-path="url(#p81b4d67e40)" d="M 27 88.098471 
L 27 88.098471 
" style="fill:none;stroke:#000000;stroke-width:0.5;"/>
    <path clip-path="url(#p81b4d67e40)" d="M 26.944042 70.49775 
L 37.374328 70.49775 
" style="fill:none;stroke:#000000;stroke-width:0.5;"/>
    <path clip-path="url(#p81b4d67e40)" d="M 26.829565 66.495507 
L 30.725239 66.495507 
" style="fill:none;stroke:#000000;stroke-width:0.5;"/>
    <path clip-path="url(#p81b4d67e40)" d="M 27.263593 73.909179 
L 39.279681 73.909179 
" style="fill:none;stroke:#000000;stroke-width:0.5;"/>
    <path clip-path="url(#p81b4d67e40)" d="M 38.114733 31.536054 
L 48.693084 31.536054 
" style="fill:none;stroke:#000000;stroke-width:0.5;"/>
    <path clip-path="url(#p81b4d67e40)" d="M 29.855481 62.272112 
L 37.177538 62.272112 
" style="fill:none;stroke:#000000;stroke-width:0.5;"/>
    <path clip-path="url(#p81b4d67e40)" d="M 25.722461 77.232305 
L 30.040281 77.232305 
" style="fill:none;stroke:#000000;stroke-width:0.5;"/>
    <path clip-path="url(#p81b4d67e40)" d="M 25.957298 88.963061 
L 31.371485 88.963061 
" style="fill:none;stroke:#000000;stroke-width:0.5;"/>
    <path clip-path="url(#p81b4d67e40)" d="M 29.158754 50.778405 
L 38.663398 50.778405 
" style="fill:none;stroke:#000000;stroke-width:0.5;"/>
    <path clip-path="url(#p81b4d67e40)" d="M 35.739147 29.82287 
L 54.624693 29.82287 
" style="fill:none;stroke:#000000;stroke-width:0.5;"/>
    <path clip-path="url(#p81b4d67e40)" d="M 29.072319 55.839743 
L 43.520185 55.839743 
" style="fill:none;stroke:#000000;stroke-width:0.5;"/>
    <path clip-path="url(#p81b4d67e40)" d="M 26.486639 77.308151 
L 33.228754 77.308151 
" style="fill:none;stroke:#000000;stroke-width:0.5;"/>
    <path clip-path="url(#p81b4d67e40)" d="M 27.500313 61.352092 
L 38.610048 61.352092 
" style="fill:none;stroke:#000000;stroke-width:0.5;"/>
    <path clip-path="url(#p81b4d67e40)" d="M 22.658252 61.86903 
L 48.647107 61.86903 
" style="fill:none;stroke:#000000;stroke-width:0.5;"/>
    <path clip-path="url(#p81b4d67e40)" d="M 28.024491 54.073949 
L 44.346958 54.073949 
" style="fill:none;stroke:#000000;stroke-width:0.5;"/>
    <path clip-path="url(#p81b4d67e40)" d="M 26.868466 70.00556 
L 41.03711 70.00556 
" style="fill:none;stroke:#000000;stroke-width:0.5;"/>
    <path clip-path="url(#p81b4d67e40)" d="M 26.648356 71.2898 
L 32.593796 71.2898 
" style="fill:none;stroke:#000000;stroke-width:0.5;"/>
    <path clip-path="url(#p81b4d67e40)" d="M 25.121756 61.401277 
L 49.550401 61.401277 
" style="fill:none;stroke:#000000;stroke-width:0.5;"/>
    <path clip-path="url(#p81b4d67e40)" d="M 27.430493 82.179086 
L 38.950666 82.179086 
" style="fill:none;stroke:#000000;stroke-width:0.5;"/>
    <path clip-path="url(#p81b4d67e40)" d="M 28.272138 65.631212 
L 37.635737 65.631212 
" style="fill:none;stroke:#000000;stroke-width:0.5;"/>
    <path clip-path="url(#p81b4d67e40)" d="M 24.521999 82.631894 
L 34.86217 82.631894 
" style="fill:none;stroke:#000000;stroke-width:0.5;"/>
   </g>
   <g id="LineCollection_2">
    <path clip-path="url(#p81b4d67e40)" d="M 31.248465 70.268588 
L 31.248465 60.508641 
" style="fill:none;stroke:#000000;stroke-width:0.5;"/>
    <path clip-path="url(#p81b4d67e40)" d="M 38.542216 67.291177 
L 38.542216 58.111111 
" style="fill:none;stroke:#000000;stroke-width:0.5;"/>
    <path clip-path="url(#p81b4d67e40)" d="M 33.507315 72.248095 
L 33.507315 59.467719 
" style="fill:none;stroke:#000000;stroke-width:0.5;"/>
    <path clip-path="url(#p81b4d67e40)" d="M 37.746065 58.532815 
L 37.746065 48.542693 
" style="fill:none;stroke:#000000;stroke-width:0.5;"/>
    <path clip-path="url(#p81b4d67e40)" d="M 32.577751 66.89716 
L 32.577751 59.565066 
" style="fill:none;stroke:#000000;stroke-width:0.5;"/>
    <path clip-path="url(#p81b4d67e40)" d="M 28.500396 89.038926 
L 28.500396 81.734022 
" style="fill:none;stroke:#000000;stroke-width:0.5;"/>
    <path clip-path="url(#p81b4d67e40)" d="M 30.195135 75.562952 
L 30.195135 70.236654 
" style="fill:none;stroke:#000000;stroke-width:0.5;"/>
    <path clip-path="url(#p81b4d67e40)" d="M 34.794115 67.331267 
L 34.794115 49.434263 
" style="fill:none;stroke:#000000;stroke-width:0.5;"/>
    <path clip-path="url(#p81b4d67e40)" d="M 33.973581 83.478416 
L 33.973581 72.158865 
" style="fill:none;stroke:#000000;stroke-width:0.5;"/>
    <path clip-path="url(#p81b4d67e40)" d="M 27 88.098471 
L 27 88.098471 
" style="fill:none;stroke:#000000;stroke-width:0.5;"/>
    <path clip-path="url(#p81b4d67e40)" d="M 32.159185 78.320426 
L 32.159185 62.675074 
" style="fill:none;stroke:#000000;stroke-width:0.5;"/>
    <path clip-path="url(#p81b4d67e40)" d="M 28.777402 79.055009 
L 28.777402 53.936004 
" style="fill:none;stroke:#000000;stroke-width:0.5;"/>
    <path clip-path="url(#p81b4d67e40)" d="M 33.271637 79.040854 
L 33.271637 68.777504 
" style="fill:none;stroke:#000000;stroke-width:0.5;"/>
    <path clip-path="url(#p81b4d67e40)" d="M 43.403909 43.857187 
L 43.403909 19.214921 
" style="fill:none;stroke:#000000;stroke-width:0.5;"/>
    <path clip-path="url(#p81b4d67e40)" d="M 33.51651 69.933813 
L 33.51651 54.610411 
" style="fill:none;stroke:#000000;stroke-width:0.5;"/>
    <path clip-path="url(#p81b4d67e40)" d="M 27.881371 81.162216 
L 27.881371 73.302395 
" style="fill:none;stroke:#000000;stroke-width:0.5;"/>
    <path clip-path="url(#p81b4d67e40)" d="M 28.664391 90.928838 
L 28.664391 86.997284 
" style="fill:none;stroke:#000000;stroke-width:0.5;"/>
    <path clip-path="url(#p81b4d67e40)" d="M 33.911076 58.239023 
L 33.911076 43.317787 
" style="fill:none;stroke:#000000;stroke-width:0.5;"/>
    <path clip-path="url(#p81b4d67e40)" d="M 45.18192 42.972938 
L 45.18192 16.672802 
" style="fill:none;stroke:#000000;stroke-width:0.5;"/>
    <path clip-path="url(#p81b4d67e40)" d="M 36.296252 61.663453 
L 36.296252 50.016032 
" style="fill:none;stroke:#000000;stroke-width:0.5;"/>
    <path clip-path="url(#p81b4d67e40)" d="M 29.857697 82.600751 
L 29.857697 72.015552 
" style="fill:none;stroke:#000000;stroke-width:0.5;"/>
    <path clip-path="url(#p81b4d67e40)" d="M 33.055181 67.57435 
L 33.055181 55.129835 
" style="fill:none;stroke:#000000;stroke-width:0.5;"/>
    <path clip-path="url(#p81b4d67e40)" d="M 35.652679 69.220757 
L 35.652679 54.517302 
" style="fill:none;stroke:#000000;stroke-width:0.5;"/>
    <path clip-path="url(#p81b4d67e40)" d="M 36.185724 62.912871 
L 36.185724 45.235026 
" style="fill:none;stroke:#000000;stroke-width:0.5;"/>
    <path clip-path="url(#p81b4d67e40)" d="M 33.952788 70.00556 
L 33.952788 70.00556 
" style="fill:none;stroke:#000000;stroke-width:0.5;"/>
    <path clip-path="url(#p81b4d67e40)" d="M 29.621076 73.68576 
L 29.621076 68.89384 
" style="fill:none;stroke:#000000;stroke-width:0.5;"/>
    <path clip-path="url(#p81b4d67e40)" d="M 37.336079 70.868288 
L 37.336079 51.934266 
" style="fill:none;stroke:#000000;stroke-width:0.5;"/>
    <path clip-path="url(#p81b4d67e40)" d="M 33.190579 89.644118 
L 33.190579 74.714054 
" style="fill:none;stroke:#000000;stroke-width:0.5;"/>
    <path clip-path="url(#p81b4d67e40)" d="M 32.953937 71.867991 
L 32.953937 59.394433 
" style="fill:none;stroke:#000000;stroke-width:0.5;"/>
    <path clip-path="url(#p81b4d67e40)" d="M 29.692085 86.932622 
L 29.692085 78.331165 
" style="fill:none;stroke:#000000;stroke-width:0.5;"/>
   </g>
   <g id="line2d_1">
    <path clip-path="url(#p81b4d67e40)" d="M 27 84.766664 
L 27.768595 82.553963 
L 28.53719 80.341262 
L 29.305785 78.128561 
L 30.07438 75.915861 
L 30.842975 73.70316 
L 31.61157 71.490459 
L 32.380165 69.277758 
L 33.14876 67.065057 
L 33.917355 64.852356 
L 34.68595 62.639656 
L 35.454545 60.426955 
L 36.22314 58.214254 
L 36.991736 56.001553 
L 37.760331 53.788852 
L 38.528926 51.576151 
L 39.297521 49.363451 
L 40.066116 47.15075 
L 40.834711 44.938049 
L 41.603306 42.725348 
L 42.371901 40.512647 
L 43.140496 38.299946 
L 43.909091 36.087246 
L 44.677686 33.874545 
L 45.446281 31.661844 
L 46.214876 29.449143 
L 46.983471 27.236442 
L 47.752066 25.023742 
L 48.520661 22.811041 
L 49.289256 20.59834 
L 50.057851 18.385639 
L 50.826446 16.172938 
L 51.595041 13.960237 
L 52.363636 11.747537 
L 53.132231 9.534836 
L 53.900826 7.322135 
L 54.669421 5.109434 
L 55.438017 2.896733 
L 56.206612 0.684032 
L 56.79157 -1 
" style="fill:none;stroke:#000000;stroke-dasharray:1.85,0.8;stroke-dashoffset:0;stroke-width:0.5;"/>
   </g>
   <g id="line2d_2">
    <defs>
     <path d="M 0 3 
C 0.795609 3 1.55874 2.683901 2.12132 2.12132 
C 2.683901 1.55874 3 0.795609 3 0 
C 3 -0.795609 2.683901 -1.55874 2.12132 -2.12132 
C 1.55874 -2.683901 0.795609 -3 0 -3 
C -0.795609 -3 -1.55874 -2.683901 -2.12132 -2.12132 
C -2.683901 -1.55874 -3 -0.795609 -3 0 
C -3 0.795609 -2.683901 1.55874 -2.12132 2.12132 
C -1.55874 2.683901 -0.795609 3 0 3 
z
" id="m25f531855b" style="stroke:#000000;"/>
    </defs>
    <g clip-path="url(#p81b4d67e40)">
     <use style="stroke:#000000;" x="31.248465" xlink:href="#m25f531855b" y="65.388615"/>
     <use style="stroke:#000000;" x="38.542216" xlink:href="#m25f531855b" y="62.701144"/>
     <use style="stroke:#000000;" x="33.507315" xlink:href="#m25f531855b" y="65.857907"/>
     <use style="stroke:#000000;" x="37.746065" xlink:href="#m25f531855b" y="53.537754"/>
     <use style="stroke:#000000;" x="32.577751" xlink:href="#m25f531855b" y="63.231113"/>
     <use style="stroke:#000000;" x="28.500396" xlink:href="#m25f531855b" y="85.386474"/>
     <use style="stroke:#000000;" x="30.195135" xlink:href="#m25f531855b" y="72.899803"/>
     <use style="stroke:#000000;" x="34.794115" xlink:href="#m25f531855b" y="58.382765"/>
     <use style="stroke:#000000;" x="33.973581" xlink:href="#m25f531855b" y="77.818641"/>
     <use style="stroke:#000000;" x="27" xlink:href="#m25f531855b" y="88.098471"/>
     <use style="stroke:#000000;" x="32.159185" xlink:href="#m25f531855b" y="70.49775"/>
     <use style="stroke:#000000;" x="28.777402" xlink:href="#m25f531855b" y="66.495507"/>
     <use style="stroke:#000000;" x="33.271637" xlink:href="#m25f531855b" y="73.909179"/>
     <use style="stroke:#000000;" x="43.403909" xlink:href="#m25f531855b" y="31.536054"/>
     <use style="stroke:#000000;" x="33.51651" xlink:href="#m25f531855b" y="62.272112"/>
     <use style="stroke:#000000;" x="27.881371" xlink:href="#m25f531855b" y="77.232305"/>
     <use style="stroke:#000000;" x="28.664391" xlink:href="#m25f531855b" y="88.963061"/>
     <use style="stroke:#000000;" x="33.911076" xlink:href="#m25f531855b" y="50.778405"/>
     <use style="stroke:#000000;" x="45.18192" xlink:href="#m25f531855b" y="29.82287"/>
     <use style="stroke:#000000;" x="36.296252" xlink:href="#m25f531855b" y="55.839743"/>
     <use style="stroke:#000000;" x="29.857697" xlink:href="#m25f531855b" y="77.308151"/>
     <use style="stroke:#000000;" x="33.055181" xlink:href="#m25f531855b" y="61.352092"/>
     <use style="stroke:#000000;" x="35.652679" xlink:href="#m25f531855b" y="61.86903"/>
     <use style="stroke:#000000;" x="36.185724" xlink:href="#m25f531855b" y="54.073949"/>
     <use style="stroke:#000000;" x="33.952788" xlink:href="#m25f531855b" y="70.00556"/>
     <use style="stroke:#000000;" x="29.621076" xlink:href="#m25f531855b" y="71.2898"/>
     <use style="stroke:#000000;" x="37.336079" xlink:href="#m25f531855b" y="61.401277"/>
     <use style="stroke:#000000;" x="33.190579" xlink:href="#m25f531855b" y="82.179086"/>
     <use style="stroke:#000000;" x="32.953937" xlink:href="#m25f531855b" y="65.631212"/>
     <use style="stroke:#000000;" x="29.692085" xlink:href="#m25f531855b" y="82.631894"/>
    </g>
   </g>
   <g id="patch_3">
    <path d="M 27 94.5 
L 27 12.96 
" style="fill:none;stroke:#000000;stroke-linecap:square;stroke-linejoin:miter;"/>
   </g>
   <g id="patch_4">
    <path d="M 27 94.5 
L 103.090909 94.5 
" style="fill:none;stroke:#000000;stroke-linecap:square;stroke-linejoin:miter;"/>
   </g>
   <g id="matplotlib.axis_1">
    <g id="xtick_1">
     <g id="line2d_3"/>
     <g id="text_1">
      <text style="font-family:Arial;font-size:8px;font-style:normal;font-weight:normal;text-anchor:middle;" transform="rotate(-0, 27, 103.72625)" x="27" y="103.72625">0</text>
     </g>
    </g>
    <g id="xtick_2">
     <g id="line2d_4"/>
     <g id="text_2">
      <text style="font-family:Arial;font-size:8px;font-style:normal;font-weight:normal;text-anchor:middle;" transform="rotate(-0, 69.08817, 103.72625)" x="69.08817" y="103.72625">5</text>
     </g>
    </g>
    <g id="text_3">
     <text style="font-family:Arial;font-size:10px;font-style:normal;font-weight:normal;text-anchor:middle;" transform="rotate(-0, 65.045455, 116.474063)" x="65.045455" y="116.474063">Exc</text>
    </g>
   </g>
   <g id="matplotlib.axis_2">
    <g id="ytick_1">
     <g id="line2d_5"/>
     <g id="text_4">
      <text style="font-family:Arial;font-size:8px;font-style:normal;font-weight:normal;text-anchor:end;" transform="rotate(-0, 23.5, 97.363125)" x="23.5" y="97.363125">0</text>
     </g>
    </g>
    <g id="ytick_2">
     <g id="line2d_6"/>
     <g id="text_5">
      <text style="font-family:Arial;font-size:8px;font-style:normal;font-weight:normal;text-anchor:end;" transform="rotate(-0, 23.5, 79.322235)" x="23.5" y="79.322235">2</text>
     </g>
    </g>
    <g id="ytick_3">
     <g id="line2d_7"/>
     <g id="text_6">
      <text style="font-family:Arial;font-size:8px;font-style:normal;font-weight:normal;text-anchor:end;" transform="rotate(-0, 23.5, 61.281344)" x="23.5" y="61.281344">4</text>
     </g>
    </g>
    <g id="ytick_4">
     <g id="line2d_8"/>
     <g id="text_7">
      <text style="font-family:Arial;font-size:8px;font-style:normal;font-weight:normal;text-anchor:end;" transform="rotate(-0, 23.5, 43.240454)" x="23.5" y="43.240454">6</text>
     </g>
    </g>
    <g id="ytick_5">
     <g id="line2d_9"/>
     <g id="text_8">
      <text style="font-family:Arial;font-size:8px;font-style:normal;font-weight:normal;text-anchor:end;" transform="rotate(-0, 23.5, 25.199563)" x="23.5" y="25.199563">8</text>
     </g>
    </g>
    <g id="text_9">
     <text style="font-family:Arial;font-size:10px;font-style:normal;font-weight:normal;text-anchor:middle;" transform="rotate(-90, 13.06375, 53.73)" x="13.06375" y="53.73">Inh</text>
    </g>
   </g>
   <g id="legend_1">
    <g id="line2d_10">
     <path d="M 17.169034 31.995156 
L 37.169034 31.995156 
" style="fill:none;stroke:#000000;stroke-dasharray:1.85,0.8;stroke-dashoffset:0;stroke-width:0.5;"/>
    </g>
    <g id="line2d_11"/>
    <g id="text_10">
     <!-- $R^2$ 0.75 -->
     <g transform="translate(45.169034 29.2475)">
      <text>
       <tspan style="font-family:DejaVu Sans;font-size:10px;font-style:oblique;font-weight:oblique;" x="0" y="-0.9765625">R</tspan>
       <tspan style="font-family:DejaVu Sans;font-size:7px;font-style:book;font-weight:book;" x="7.650794" y="-4.8046875">2</tspan>
       <tspan style="font-family:Arial;font-size:10px;font-style:regular;font-weight:regular;" x="12.377845 15.156165 20.717689 23.496009 29.057533" y="-0.9765625"> 0.75</tspan>
      </text>
     </g>
     <text style="font-family:Arial;font-size:10px;font-style:normal;font-weight:normal;" transform="translate(45.169034 39.86)"> slope 2.69</text>
    </g>
   </g>
  </g>
  <g id="axes_2">
   <g id="patch_5">
    <path d="M 118.309091 94.5 
L 194.4 94.5 
L 194.4 12.96 
L 118.309091 12.96 
z
" style="fill:#ffffff;"/>
   </g>
   <g id="PathCollection_1">
    <defs>
     <path d="M 0 2.44949 
C 0.649612 2.44949 1.272706 2.191396 1.732051 1.732051 
C 2.191396 1.272706 2.44949 0.649612 2.44949 0 
C 2.44949 -0.649612 2.191396 -1.272706 1.732051 -1.732051 
C 1.272706 -2.191396 0.649612 -2.44949 0 -2.44949 
C -0.649612 -2.44949 -1.272706 -2.191396 -1.732051 -1.732051 
C -2.191396 -1.272706 -2.44949 -0.649612 -2.44949 0 
C -2.44949 0.649612 -2.191396 1.272706 -1.732051 1.732051 
C -1.272706 2.191396 -0.649612 2.44949 0 2.44949 
z
" id="m50459bb5c3" style="stroke:#000000;"/>
    </defs>
    <g clip-path="url(#pcd63409827)">
     <use style="stroke:#000000;" x="159.130892" xlink:href="#m50459bb5c3" y="67.579345"/>
     <use style="stroke:#000000;" x="160.727897" xlink:href="#m50459bb5c3" y="69.178819"/>
     <use style="stroke:#000000;" x="174.482375" xlink:href="#m50459bb5c3" y="59.248158"/>
     <use style="stroke:#000000;" x="141.636611" xlink:href="#m50459bb5c3" y="66.944457"/>
     <use style="stroke:#000000;" x="160.202262" xlink:href="#m50459bb5c3" y="74.276039"/>
     <use style="stroke:#000000;" x="131.131797" xlink:href="#m50459bb5c3" y="74.351039"/>
     <use style="stroke:#000000;" x="140.942641" xlink:href="#m50459bb5c3" y="79.808585"/>
     <use style="stroke:#000000;" x="158.497384" xlink:href="#m50459bb5c3" y="45.135073"/>
     <use style="stroke:#000000;" x="154.344427" xlink:href="#m50459bb5c3" y="63.277523"/>
     <use style="stroke:#000000;" x="118.309091" xlink:href="#m50459bb5c3" y="94.5"/>
     <use style="stroke:#000000;" x="147.078728" xlink:href="#m50459bb5c3" y="51.345757"/>
     <use style="stroke:#000000;" x="129.054447" xlink:href="#m50459bb5c3" y="25.21478"/>
     <use style="stroke:#000000;" x="151.452813" xlink:href="#m50459bb5c3" y="66.190818"/>
     <use style="stroke:#000000;" x="147.487134" xlink:href="#m50459bb5c3" y="26.529759"/>
     <use style="stroke:#000000;" x="138.505364" xlink:href="#m50459bb5c3" y="52.233785"/>
     <use style="stroke:#000000;" x="130.218842" xlink:href="#m50459bb5c3" y="72.820422"/>
     <use style="stroke:#000000;" x="133.24293" xlink:href="#m50459bb5c3" y="83.655678"/>
     <use style="stroke:#000000;" x="144.525548" xlink:href="#m50459bb5c3" y="53.34307"/>
     <use style="stroke:#000000;" x="170.400694" xlink:href="#m50459bb5c3" y="21.956891"/>
     <use style="stroke:#000000;" x="158.160334" xlink:href="#m50459bb5c3" y="62.373163"/>
     <use style="stroke:#000000;" x="136.905725" xlink:href="#m50459bb5c3" y="65.303071"/>
     <use style="stroke:#000000;" x="148.952838" xlink:href="#m50459bb5c3" y="60.174556"/>
     <use style="stroke:#000000;" x="189.993601" xlink:href="#m50459bb5c3" y="53.943773"/>
     <use style="stroke:#000000;" x="163.331007" xlink:href="#m50459bb5c3" y="45.739573"/>
     <use style="stroke:#000000;" x="157.390163" xlink:href="#m50459bb5c3" y="94.5"/>
     <use style="stroke:#000000;" x="134.70827" xlink:href="#m50459bb5c3" y="81.282547"/>
     <use style="stroke:#000000;" x="185.690105" xlink:href="#m50459bb5c3" y="42.274689"/>
     <use style="stroke:#000000;" x="150.084941" xlink:href="#m50459bb5c3" y="53.318721"/>
     <use style="stroke:#000000;" x="144.136508" xlink:href="#m50459bb5c3" y="60.094447"/>
     <use style="stroke:#000000;" x="146.830166" xlink:href="#m50459bb5c3" y="70.774782"/>
    </g>
   </g>
   <g id="line2d_12">
    <path clip-path="url(#pcd63409827)" d="M 118.309091 73.898571 
L 119.077686 73.594121 
L 119.846281 73.289671 
L 120.614876 72.985221 
L 121.383471 72.680771 
L 122.152066 72.37632 
L 122.920661 72.07187 
L 123.689256 71.76742 
L 124.457851 71.46297 
L 125.226446 71.15852 
L 125.995041 70.85407 
L 126.763636 70.54962 
L 127.532231 70.24517 
L 128.300826 69.94072 
L 129.069421 69.636269 
L 129.838017 69.331819 
L 130.606612 69.027369 
L 131.375207 68.722919 
L 132.143802 68.418469 
L 132.912397 68.114019 
L 133.680992 67.809569 
L 134.449587 67.505119 
L 135.218182 67.200668 
L 135.986777 66.896218 
L 136.755372 66.591768 
L 137.523967 66.287318 
L 138.292562 65.982868 
L 139.061157 65.678418 
L 139.829752 65.373968 
L 140.598347 65.069518 
L 141.366942 64.765068 
L 142.135537 64.460617 
L 142.904132 64.156167 
L 143.672727 63.851717 
L 144.441322 63.547267 
L 145.209917 63.242817 
L 145.978512 62.938367 
L 146.747107 62.633917 
L 147.515702 62.329467 
L 148.284298 62.025017 
L 149.052893 61.720566 
L 149.821488 61.416116 
L 150.590083 61.111666 
L 151.358678 60.807216 
L 152.127273 60.502766 
L 152.895868 60.198316 
L 153.664463 59.893866 
L 154.433058 59.589416 
L 155.201653 59.284966 
L 155.970248 58.980515 
L 156.738843 58.676065 
L 157.507438 58.371615 
L 158.276033 58.067165 
L 159.044628 57.762715 
L 159.813223 57.458265 
L 160.581818 57.153815 
L 161.350413 56.849365 
L 162.119008 56.544915 
L 162.887603 56.240464 
L 163.656198 55.936014 
L 164.424793 55.631564 
L 165.193388 55.327114 
L 165.961983 55.022664 
L 166.730579 54.718214 
L 167.499174 54.413764 
L 168.267769 54.109314 
L 169.036364 53.804864 
L 169.804959 53.500413 
L 170.573554 53.195963 
L 171.342149 52.891513 
L 172.110744 52.587063 
L 172.879339 52.282613 
L 173.647934 51.978163 
L 174.416529 51.673713 
L 175.185124 51.369263 
L 175.953719 51.064813 
L 176.722314 50.760362 
L 177.490909 50.455912 
L 178.259504 50.151462 
L 179.028099 49.847012 
L 179.796694 49.542562 
L 180.565289 49.238112 
L 181.333884 48.933662 
L 182.102479 48.629212 
L 182.871074 48.324762 
L 183.639669 48.020311 
L 184.408264 47.715861 
L 185.17686 47.411411 
L 185.945455 47.106961 
L 186.71405 46.802511 
L 187.482645 46.498061 
L 188.25124 46.193611 
L 189.019835 45.889161 
L 189.78843 45.58471 
L 190.557025 45.28026 
L 191.32562 44.97581 
L 192.094215 44.67136 
L 192.86281 44.36691 
L 193.631405 44.06246 
L 194.4 43.75801 
" style="fill:none;stroke:#000000;stroke-dasharray:1.85,0.8;stroke-dashoffset:0;stroke-width:0.5;"/>
   </g>
   <g id="patch_6">
    <path d="M 118.309091 94.5 
L 118.309091 12.96 
" style="fill:none;stroke:#000000;stroke-linecap:square;stroke-linejoin:miter;"/>
   </g>
   <g id="patch_7">
    <path d="M 118.309091 94.5 
L 194.4 94.5 
" style="fill:none;stroke:#000000;stroke-linecap:square;stroke-linejoin:miter;"/>
   </g>
   <g id="matplotlib.axis_3">
    <g id="xtick_3">
     <g id="line2d_13"/>
     <g id="text_11">
      <text style="font-family:Arial;font-size:8px;font-style:normal;font-weight:normal;text-anchor:middle;" transform="rotate(-0, 118.309091, 103.72625)" x="118.309091" y="103.72625">0</text>
     </g>
    </g>
    <g id="xtick_4">
     <g id="line2d_14"/>
     <g id="text_12">
      <text style="font-family:Arial;font-size:8px;font-style:normal;font-weight:normal;text-anchor:middle;" transform="rotate(-0, 164.745455, 103.72625)" x="164.745455" y="103.72625">1</text>
     </g>
    </g>
    <g id="text_13">
     <!-- $\sigma$(Exc) -->
     <g transform="translate(141.504545 116.61625)">
      <text>
       <tspan style="font-family:DejaVu Sans;font-size:10px;font-style:oblique;font-weight:oblique;" x="0" y="-0.71875">σ</tspan>
       <tspan style="font-family:Arial;font-size:10px;font-style:regular;font-weight:regular;" x="6.337891 9.667969 16.337891 21.337891 26.337891" y="-0.71875">(Exc)</tspan>
      </text>
     </g>
    </g>
   </g>
   <g id="matplotlib.axis_4">
    <g id="ytick_6">
     <g id="line2d_15"/>
     <g id="text_14">
      <text style="font-family:Arial;font-size:8px;font-style:normal;font-weight:normal;text-anchor:end;" transform="rotate(-0, 114.809091, 97.363125)" x="114.809091" y="97.363125">0.0</text>
     </g>
    </g>
    <g id="ytick_7">
     <g id="line2d_16"/>
     <g id="text_15">
      <text style="font-family:Arial;font-size:8px;font-style:normal;font-weight:normal;text-anchor:end;" transform="rotate(-0, 114.809091, 72.482222)" x="114.809091" y="72.482222">0.5</text>
     </g>
    </g>
    <g id="ytick_8">
     <g id="line2d_17"/>
     <g id="text_16">
      <text style="font-family:Arial;font-size:8px;font-style:normal;font-weight:normal;text-anchor:end;" transform="rotate(-0, 114.809091, 47.601319)" x="114.809091" y="47.601319">1.0</text>
     </g>
    </g>
    <g id="ytick_9">
     <g id="line2d_18"/>
     <g id="text_17">
      <text style="font-family:Arial;font-size:8px;font-style:normal;font-weight:normal;text-anchor:end;" transform="rotate(-0, 114.809091, 22.720415)" x="114.809091" y="22.720415">1.5</text>
     </g>
    </g>
    <g id="text_18">
     <!-- $\sigma$(Inh) -->
     <g transform="translate(97.489091 67.18)rotate(-90)">
      <text>
       <tspan style="font-family:DejaVu Sans;font-size:10px;font-style:oblique;font-weight:oblique;" x="0" y="-0.71875">σ</tspan>
       <tspan style="font-family:Arial;font-size:10px;font-style:regular;font-weight:regular;" x="6.337891 9.667969 12.446289 18.007812 23.569336" y="-0.71875">(Inh)</tspan>
      </text>
     </g>
    </g>
   </g>
   <g id="legend_2">
    <g id="line2d_19">
     <path d="M 108.478125 31.995156 
L 128.478125 31.995156 
" style="fill:none;stroke:#000000;stroke-dasharray:1.85,0.8;stroke-dashoffset:0;stroke-width:0.5;"/>
    </g>
    <g id="line2d_20"/>
    <g id="text_19">
     <!-- $R^2$ 0.13 -->
     <g transform="translate(136.478125 29.2475)">
      <text>
       <tspan style="font-family:DejaVu Sans;font-size:10px;font-style:oblique;font-weight:oblique;" x="0" y="-0.9765625">R</tspan>
       <tspan style="font-family:DejaVu Sans;font-size:7px;font-style:book;font-weight:book;" x="7.650794" y="-4.8046875">2</tspan>
       <tspan style="font-family:Arial;font-size:10px;font-style:regular;font-weight:regular;" x="12.377845 15.156165 20.717689 23.496009 29.057533" y="-0.9765625"> 0.13</tspan>
      </text>
     </g>
     <text style="font-family:Arial;font-size:10px;font-style:normal;font-weight:normal;" transform="translate(136.478125 39.86)"> slope 0.37</text>
    </g>
   </g>
  </g>
 </g>
 <defs>
  <clipPath id="p81b4d67e40">
   <rect height="81.54" width="76.090909" x="27" y="12.96"/>
  </clipPath>
  <clipPath id="pcd63409827">
   <rect height="81.54" width="76.090909" x="118.309091" y="12.96"/>
  </clipPath>
 </defs>
</svg>
