<?xml version="1.0" encoding="utf-8" standalone="no"?>
<!DOCTYPE svg PUBLIC "-//W3C//DTD SVG 1.1//EN"
  "http://www.w3.org/Graphics/SVG/1.1/DTD/svg11.dtd">
<!-- Created with matplotlib (http://matplotlib.org/) -->
<svg height="108pt" version="1.1" viewBox="0 0 216 108" width="216pt" xmlns="http://www.w3.org/2000/svg" xmlns:xlink="http://www.w3.org/1999/xlink">
 <defs>
  <style type="text/css">
*{stroke-linecap:butt;stroke-linejoin:round;}
  </style>
 </defs>
 <g id="figure_1">
  <g id="patch_1">
   <path d="M 0 108 
L 216 108 
L 216 0 
L 0 0 
z
" style="fill:#ffffff;"/>
  </g>
  <g id="axes_1">
   <g id="patch_2">
    <path d="M 27 94.5 
L 103.090909 94.5 
L 103.090909 12.96 
L 27 12.96 
z
" style="fill:#ffffff;"/>
   </g>
   <g id="LineCollection_1">
    <path clip-path="url(#p9abd083c53)" d="M 28.435711 73.131805 
L 42.37276 73.131805 
" style="fill:none;stroke:#000000;stroke-width:0.5;"/>
    <path clip-path="url(#p9abd083c53)" d="M 25.01794 32.640659 
L 62.791674 32.640659 
" style="fill:none;stroke:#000000;stroke-width:0.5;"/>
    <path clip-path="url(#p9abd083c53)" d="M 25.034368 70.584777 
L 38.50028 70.584777 
" style="fill:none;stroke:#000000;stroke-width:0.5;"/>
    <path clip-path="url(#p9abd083c53)" d="M 26.384645 80.138871 
L 33.724507 80.138871 
" style="fill:none;stroke:#000000;stroke-width:0.5;"/>
    <path clip-path="url(#p9abd083c53)" d="M 27.313607 87.250042 
L 33.533427 87.250042 
" style="fill:none;stroke:#000000;stroke-width:0.5;"/>
    <path clip-path="url(#p9abd083c53)" d="M 31.269929 58.873559 
L 45.287674 58.873559 
" style="fill:none;stroke:#000000;stroke-width:0.5;"/>
    <path clip-path="url(#p9abd083c53)" d="M 27 92.098025 
L 27 92.098025 
" style="fill:none;stroke:#000000;stroke-width:0.5;"/>
    <path clip-path="url(#p9abd083c53)" d="M 26.015626 78.372217 
L 30.614005 78.372217 
" style="fill:none;stroke:#000000;stroke-width:0.5;"/>
    <path clip-path="url(#p9abd083c53)" d="M 26.442945 91.623 
L 28.325676 91.623 
" style="fill:none;stroke:#000000;stroke-width:0.5;"/>
    <path clip-path="url(#p9abd083c53)" d="M 24.169174 65.895467 
L 39.600253 65.895467 
" style="fill:none;stroke:#000000;stroke-width:0.5;"/>
    <path clip-path="url(#p9abd083c53)" d="M 28.496715 80.20193 
L 37.644961 80.20193 
" style="fill:none;stroke:#000000;stroke-width:0.5;"/>
    <path clip-path="url(#p9abd083c53)" d="M 28.565419 82.573418 
L 31.846937 82.573418 
" style="fill:none;stroke:#000000;stroke-width:0.5;"/>
    <path clip-path="url(#p9abd083c53)" d="M 25.192905 75.462995 
L 33.544078 75.462995 
" style="fill:none;stroke:#000000;stroke-width:0.5;"/>
    <path clip-path="url(#p9abd083c53)" d="M 31.924941 50.057817 
L 42.861535 50.057817 
" style="fill:none;stroke:#000000;stroke-width:0.5;"/>
    <path clip-path="url(#p9abd083c53)" d="M 24.146066 78.193551 
L 33.791781 78.193551 
" style="fill:none;stroke:#000000;stroke-width:0.5;"/>
    <path clip-path="url(#p9abd083c53)" d="M 27.077462 60.898642 
L 36.161179 60.898642 
" style="fill:none;stroke:#000000;stroke-width:0.5;"/>
    <path clip-path="url(#p9abd083c53)" d="M 25.273096 86.581838 
L 31.109679 86.581838 
" style="fill:none;stroke:#000000;stroke-width:0.5;"/>
    <path clip-path="url(#p9abd083c53)" d="M 25.81388 79.954802 
L 35.022474 79.954802 
" style="fill:none;stroke:#000000;stroke-width:0.5;"/>
    <path clip-path="url(#p9abd083c53)" d="M 29.214343 64.3934 
L 35.229219 64.3934 
" style="fill:none;stroke:#000000;stroke-width:0.5;"/>
    <path clip-path="url(#p9abd083c53)" d="M 25.229204 79.412691 
L 33.400516 79.412691 
" style="fill:none;stroke:#000000;stroke-width:0.5;"/>
    <path clip-path="url(#p9abd083c53)" d="M 25.786496 77.295153 
L 39.745592 77.295153 
" style="fill:none;stroke:#000000;stroke-width:0.5;"/>
    <path clip-path="url(#p9abd083c53)" d="M 27.183046 62.904455 
L 35.310986 62.904455 
" style="fill:none;stroke:#000000;stroke-width:0.5;"/>
    <path clip-path="url(#p9abd083c53)" d="M 29.347366 61.047914 
L 39.341468 61.047914 
" style="fill:none;stroke:#000000;stroke-width:0.5;"/>
    <path clip-path="url(#p9abd083c53)" d="M 26.169525 80.23304 
L 30.775091 80.23304 
" style="fill:none;stroke:#000000;stroke-width:0.5;"/>
    <path clip-path="url(#p9abd083c53)" d="M 26.407589 83.080448 
L 28.409817 83.080448 
" style="fill:none;stroke:#000000;stroke-width:0.5;"/>
    <path clip-path="url(#p9abd083c53)" d="M 27.19941 75.698663 
L 33.126227 75.698663 
" style="fill:none;stroke:#000000;stroke-width:0.5;"/>
    <path clip-path="url(#p9abd083c53)" d="M 28.193653 83.708782 
L 31.978961 83.708782 
" style="fill:none;stroke:#000000;stroke-width:0.5;"/>
    <path clip-path="url(#p9abd083c53)" d="M 42.758926 30.14033 
L 54.421504 30.14033 
" style="fill:none;stroke:#000000;stroke-width:0.5;"/>
    <path clip-path="url(#p9abd083c53)" d="M 25.644684 76.414519 
L 40.37623 76.414519 
" style="fill:none;stroke:#000000;stroke-width:0.5;"/>
    <path clip-path="url(#p9abd083c53)" d="M 24.741481 67.384909 
L 38.680812 67.384909 
" style="fill:none;stroke:#000000;stroke-width:0.5;"/>
   </g>
   <g id="LineCollection_2">
    <path clip-path="url(#p9abd083c53)" d="M 35.404236 79.367547 
L 35.404236 66.896062 
" style="fill:none;stroke:#000000;stroke-width:0.5;"/>
    <path clip-path="url(#p9abd083c53)" d="M 43.904807 48.464242 
L 43.904807 16.817076 
" style="fill:none;stroke:#000000;stroke-width:0.5;"/>
    <path clip-path="url(#p9abd083c53)" d="M 31.767324 75.306543 
L 31.767324 65.863011 
" style="fill:none;stroke:#000000;stroke-width:0.5;"/>
    <path clip-path="url(#p9abd083c53)" d="M 30.054576 80.138871 
L 30.054576 80.138871 
" style="fill:none;stroke:#000000;stroke-width:0.5;"/>
    <path clip-path="url(#p9abd083c53)" d="M 30.423517 89.523043 
L 30.423517 84.977041 
" style="fill:none;stroke:#000000;stroke-width:0.5;"/>
    <path clip-path="url(#p9abd083c53)" d="M 38.278802 65.097254 
L 38.278802 52.649863 
" style="fill:none;stroke:#000000;stroke-width:0.5;"/>
    <path clip-path="url(#p9abd083c53)" d="M 27 93.958587 
L 27 90.237463 
" style="fill:none;stroke:#000000;stroke-width:0.5;"/>
    <path clip-path="url(#p9abd083c53)" d="M 28.314815 84.015624 
L 28.314815 72.728811 
" style="fill:none;stroke:#000000;stroke-width:0.5;"/>
    <path clip-path="url(#p9abd083c53)" d="M 27.384311 91.623 
L 27.384311 91.623 
" style="fill:none;stroke:#000000;stroke-width:0.5;"/>
    <path clip-path="url(#p9abd083c53)" d="M 31.884714 70.987027 
L 31.884714 60.803908 
" style="fill:none;stroke:#000000;stroke-width:0.5;"/>
    <path clip-path="url(#p9abd083c53)" d="M 33.070838 83.952288 
L 33.070838 76.451573 
" style="fill:none;stroke:#000000;stroke-width:0.5;"/>
    <path clip-path="url(#p9abd083c53)" d="M 30.206178 84.083744 
L 30.206178 81.063092 
" style="fill:none;stroke:#000000;stroke-width:0.5;"/>
    <path clip-path="url(#p9abd083c53)" d="M 29.368491 82.553351 
L 29.368491 68.372639 
" style="fill:none;stroke:#000000;stroke-width:0.5;"/>
    <path clip-path="url(#p9abd083c53)" d="M 37.393238 64.443345 
L 37.393238 35.672289 
" style="fill:none;stroke:#000000;stroke-width:0.5;"/>
    <path clip-path="url(#p9abd083c53)" d="M 28.968923 83.31954 
L 28.968923 73.067563 
" style="fill:none;stroke:#000000;stroke-width:0.5;"/>
    <path clip-path="url(#p9abd083c53)" d="M 31.61932 63.968965 
L 31.61932 57.828318 
" style="fill:none;stroke:#000000;stroke-width:0.5;"/>
    <path clip-path="url(#p9abd083c53)" d="M 28.191388 86.581838 
L 28.191388 86.581838 
" style="fill:none;stroke:#000000;stroke-width:0.5;"/>
    <path clip-path="url(#p9abd083c53)" d="M 30.418177 84.985173 
L 30.418177 74.92443 
" style="fill:none;stroke:#000000;stroke-width:0.5;"/>
    <path clip-path="url(#p9abd083c53)" d="M 32.221781 70.207819 
L 32.221781 58.578981 
" style="fill:none;stroke:#000000;stroke-width:0.5;"/>
    <path clip-path="url(#p9abd083c53)" d="M 29.31486 79.412691 
L 29.31486 79.412691 
" style="fill:none;stroke:#000000;stroke-width:0.5;"/>
    <path clip-path="url(#p9abd083c53)" d="M 32.766044 80.911705 
L 32.766044 73.678602 
" style="fill:none;stroke:#000000;stroke-width:0.5;"/>
    <path clip-path="url(#p9abd083c53)" d="M 31.247016 70.960228 
L 31.247016 54.848682 
" style="fill:none;stroke:#000000;stroke-width:0.5;"/>
    <path clip-path="url(#p9abd083c53)" d="M 34.344417 63.883175 
L 34.344417 58.212652 
" style="fill:none;stroke:#000000;stroke-width:0.5;"/>
    <path clip-path="url(#p9abd083c53)" d="M 28.472308 83.389284 
L 28.472308 77.076795 
" style="fill:none;stroke:#000000;stroke-width:0.5;"/>
    <path clip-path="url(#p9abd083c53)" d="M 27.408703 86.883599 
L 27.408703 79.277296 
" style="fill:none;stroke:#000000;stroke-width:0.5;"/>
    <path clip-path="url(#p9abd083c53)" d="M 30.162818 79.864599 
L 30.162818 71.532727 
" style="fill:none;stroke:#000000;stroke-width:0.5;"/>
    <path clip-path="url(#p9abd083c53)" d="M 30.086307 86.539043 
L 30.086307 80.87852 
" style="fill:none;stroke:#000000;stroke-width:0.5;"/>
    <path clip-path="url(#p9abd083c53)" d="M 48.590215 42.612501 
L 48.590215 17.668158 
" style="fill:none;stroke:#000000;stroke-width:0.5;"/>
    <path clip-path="url(#p9abd083c53)" d="M 33.010457 83.246158 
L 33.010457 69.58288 
" style="fill:none;stroke:#000000;stroke-width:0.5;"/>
    <path clip-path="url(#p9abd083c53)" d="M 31.711146 67.384909 
L 31.711146 67.384909 
" style="fill:none;stroke:#000000;stroke-width:0.5;"/>
   </g>
   <g id="line2d_1">
    <path clip-path="url(#p9abd083c53)" d="M 27 86.629251 
L 27.768595 84.45579 
L 28.53719 82.28233 
L 29.305785 80.108869 
L 30.07438 77.935409 
L 30.842975 75.761948 
L 31.61157 73.588488 
L 32.380165 71.415027 
L 33.14876 69.241567 
L 33.917355 67.068107 
L 34.68595 64.894646 
L 35.454545 62.721186 
L 36.22314 60.547725 
L 36.991736 58.374265 
L 37.760331 56.200804 
L 38.528926 54.027344 
L 39.297521 51.853883 
L 40.066116 49.680423 
L 40.834711 47.506962 
L 41.603306 45.333502 
L 42.371901 43.160041 
L 43.140496 40.986581 
L 43.909091 38.81312 
L 44.677686 36.63966 
L 45.446281 34.466199 
L 46.214876 32.292739 
L 46.983471 30.119278 
L 47.752066 27.945818 
L 48.520661 25.772357 
L 49.289256 23.598897 
L 50.057851 21.425437 
L 50.826446 19.251976 
L 51.595041 17.078516 
L 52.363636 14.905055 
L 53.132231 12.731595 
L 53.900826 10.558134 
L 54.669421 8.384674 
L 55.438017 6.211213 
L 56.206612 4.037753 
L 56.975207 1.864292 
L 57.743802 -0.309168 
L 57.988099 -1 
" style="fill:none;stroke:#000000;stroke-dasharray:1.85,0.8;stroke-dashoffset:0;stroke-width:0.5;"/>
   </g>
   <g id="line2d_2">
    <defs>
     <path d="M 0 3 
C 0.795609 3 1.55874 2.683901 2.12132 2.12132 
C 2.683901 1.55874 3 0.795609 3 0 
C 3 -0.795609 2.683901 -1.55874 2.12132 -2.12132 
C 1.55874 -2.683901 0.795609 -3 0 -3 
C -0.795609 -3 -1.55874 -2.683901 -2.12132 -2.12132 
C -2.683901 -1.55874 -3 -0.795609 -3 0 
C -3 0.795609 -2.683901 1.55874 -2.12132 2.12132 
C -1.55874 2.683901 -0.795609 3 0 3 
z
" id="maeae97e0fd" style="stroke:#000000;"/>
    </defs>
    <g clip-path="url(#p9abd083c53)">
     <use style="stroke:#000000;" x="35.404236" xlink:href="#maeae97e0fd" y="73.131805"/>
     <use style="stroke:#000000;" x="43.904807" xlink:href="#maeae97e0fd" y="32.640659"/>
     <use style="stroke:#000000;" x="31.767324" xlink:href="#maeae97e0fd" y="70.584777"/>
     <use style="stroke:#000000;" x="30.054576" xlink:href="#maeae97e0fd" y="80.138871"/>
     <use style="stroke:#000000;" x="30.423517" xlink:href="#maeae97e0fd" y="87.250042"/>
     <use style="stroke:#000000;" x="38.278802" xlink:href="#maeae97e0fd" y="58.873559"/>
     <use style="stroke:#000000;" x="27" xlink:href="#maeae97e0fd" y="92.098025"/>
     <use style="stroke:#000000;" x="28.314815" xlink:href="#maeae97e0fd" y="78.372217"/>
     <use style="stroke:#000000;" x="27.384311" xlink:href="#maeae97e0fd" y="91.623"/>
     <use style="stroke:#000000;" x="31.884714" xlink:href="#maeae97e0fd" y="65.895467"/>
     <use style="stroke:#000000;" x="33.070838" xlink:href="#maeae97e0fd" y="80.20193"/>
     <use style="stroke:#000000;" x="30.206178" xlink:href="#maeae97e0fd" y="82.573418"/>
     <use style="stroke:#000000;" x="29.368491" xlink:href="#maeae97e0fd" y="75.462995"/>
     <use style="stroke:#000000;" x="37.393238" xlink:href="#maeae97e0fd" y="50.057817"/>
     <use style="stroke:#000000;" x="28.968923" xlink:href="#maeae97e0fd" y="78.193551"/>
     <use style="stroke:#000000;" x="31.61932" xlink:href="#maeae97e0fd" y="60.898642"/>
     <use style="stroke:#000000;" x="28.191388" xlink:href="#maeae97e0fd" y="86.581838"/>
     <use style="stroke:#000000;" x="30.418177" xlink:href="#maeae97e0fd" y="79.954802"/>
     <use style="stroke:#000000;" x="32.221781" xlink:href="#maeae97e0fd" y="64.3934"/>
     <use style="stroke:#000000;" x="29.31486" xlink:href="#maeae97e0fd" y="79.412691"/>
     <use style="stroke:#000000;" x="32.766044" xlink:href="#maeae97e0fd" y="77.295153"/>
     <use style="stroke:#000000;" x="31.247016" xlink:href="#maeae97e0fd" y="62.904455"/>
     <use style="stroke:#000000;" x="34.344417" xlink:href="#maeae97e0fd" y="61.047914"/>
     <use style="stroke:#000000;" x="28.472308" xlink:href="#maeae97e0fd" y="80.23304"/>
     <use style="stroke:#000000;" x="27.408703" xlink:href="#maeae97e0fd" y="83.080448"/>
     <use style="stroke:#000000;" x="30.162818" xlink:href="#maeae97e0fd" y="75.698663"/>
     <use style="stroke:#000000;" x="30.086307" xlink:href="#maeae97e0fd" y="83.708782"/>
     <use style="stroke:#000000;" x="48.590215" xlink:href="#maeae97e0fd" y="30.14033"/>
     <use style="stroke:#000000;" x="33.010457" xlink:href="#maeae97e0fd" y="76.414519"/>
     <use style="stroke:#000000;" x="31.711146" xlink:href="#maeae97e0fd" y="67.384909"/>
    </g>
   </g>
   <g id="patch_3">
    <path d="M 27 94.5 
L 27 12.96 
" style="fill:none;stroke:#000000;stroke-linecap:square;stroke-linejoin:miter;"/>
   </g>
   <g id="patch_4">
    <path d="M 27 94.5 
L 103.090909 94.5 
" style="fill:none;stroke:#000000;stroke-linecap:square;stroke-linejoin:miter;"/>
   </g>
   <g id="matplotlib.axis_1">
    <g id="xtick_1">
     <g id="line2d_3"/>
     <g id="text_1">
      <text style="font-family:Arial;font-size:8px;font-style:normal;font-weight:normal;text-anchor:middle;" transform="rotate(-0, 27, 103.72625)" x="27" y="103.72625">0</text>
     </g>
    </g>
    <g id="xtick_2">
     <g id="line2d_4"/>
     <g id="text_2">
      <text style="font-family:Arial;font-size:8px;font-style:normal;font-weight:normal;text-anchor:middle;" transform="rotate(-0, 61.144381, 103.72625)" x="61.144381" y="103.72625">5</text>
     </g>
    </g>
    <g id="xtick_3">
     <g id="line2d_5"/>
     <g id="text_3">
      <text style="font-family:Arial;font-size:8px;font-style:normal;font-weight:normal;text-anchor:middle;" transform="rotate(-0, 95.288762, 103.72625)" x="95.288762" y="103.72625">10</text>
     </g>
    </g>
    <g id="text_4">
     <text style="font-family:Arial;font-size:10px;font-style:normal;font-weight:normal;text-anchor:middle;" transform="rotate(-0, 65.045455, 116.474063)" x="65.045455" y="116.474063">Exc</text>
    </g>
   </g>
   <g id="matplotlib.axis_2">
    <g id="ytick_1">
     <g id="line2d_6"/>
     <g id="text_5">
      <text style="font-family:Arial;font-size:8px;font-style:normal;font-weight:normal;text-anchor:end;" transform="rotate(-0, 23.5, 97.363125)" x="23.5" y="97.363125">0.0</text>
     </g>
    </g>
    <g id="ytick_2">
     <g id="line2d_7"/>
     <g id="text_6">
      <text style="font-family:Arial;font-size:8px;font-style:normal;font-weight:normal;text-anchor:end;" transform="rotate(-0, 23.5, 79.068346)" x="23.5" y="79.068346">2.5</text>
     </g>
    </g>
    <g id="ytick_3">
     <g id="line2d_8"/>
     <g id="text_7">
      <text style="font-family:Arial;font-size:8px;font-style:normal;font-weight:normal;text-anchor:end;" transform="rotate(-0, 23.5, 60.773566)" x="23.5" y="60.773566">5.0</text>
     </g>
    </g>
    <g id="ytick_4">
     <g id="line2d_9"/>
     <g id="text_8">
      <text style="font-family:Arial;font-size:8px;font-style:normal;font-weight:normal;text-anchor:end;" transform="rotate(-0, 23.5, 42.478787)" x="23.5" y="42.478787">7.5</text>
     </g>
    </g>
    <g id="ytick_5">
     <g id="line2d_10"/>
     <g id="text_9">
      <text style="font-family:Arial;font-size:8px;font-style:normal;font-weight:normal;text-anchor:end;" transform="rotate(-0, 23.5, 24.184007)" x="23.5" y="24.184007">10.0</text>
     </g>
    </g>
    <g id="text_10">
     <text style="font-family:Arial;font-size:10px;font-style:normal;font-weight:normal;text-anchor:middle;" transform="rotate(-90, 1.94375, 53.73)" x="1.94375" y="53.73">Inh</text>
    </g>
   </g>
   <g id="legend_1">
    <g id="line2d_11">
     <path d="M 36 75.622656 
L 56 75.622656 
" style="fill:none;stroke:#000000;stroke-dasharray:1.85,0.8;stroke-dashoffset:0;stroke-width:0.5;"/>
    </g>
    <g id="line2d_12"/>
    <g id="text_11">
     <!-- $R^2$ 0.81 -->
     <g transform="translate(64 72.875)">
      <text>
       <tspan style="font-family:DejaVu Sans;font-size:10px;font-style:oblique;font-weight:oblique;" x="0" y="-0.9765625">R</tspan>
       <tspan style="font-family:DejaVu Sans;font-size:7px;font-style:book;font-weight:book;" x="7.650794" y="-4.8046875">2</tspan>
       <tspan style="font-family:Arial;font-size:10px;font-style:regular;font-weight:regular;" x="12.377845 15.156165 20.717689 23.496009 29.057533" y="-0.9765625"> 0.81</tspan>
      </text>
     </g>
     <text style="font-family:Arial;font-size:10px;font-style:normal;font-weight:normal;" transform="translate(64 83.4875)"> slope 2.64</text>
    </g>
   </g>
  </g>
  <g id="axes_2">
   <g id="patch_5">
    <path d="M 118.309091 94.5 
L 194.4 94.5 
L 194.4 12.96 
L 118.309091 12.96 
z
" style="fill:#ffffff;"/>
   </g>
   <g id="PathCollection_1">
    <defs>
     <path d="M 0 2.44949 
C 0.649612 2.44949 1.272706 2.191396 1.732051 1.732051 
C 2.191396 1.272706 2.44949 0.649612 2.44949 0 
C 2.44949 -0.649612 2.191396 -1.272706 1.732051 -1.732051 
C 1.272706 -2.191396 0.649612 -2.44949 0 -2.44949 
C -0.649612 -2.44949 -1.272706 -2.191396 -1.732051 -1.732051 
C -2.191396 -1.272706 -2.44949 -0.649612 -2.44949 0 
C -2.44949 0.649612 -2.191396 1.272706 -1.732051 1.732051 
C -1.272706 2.191396 -0.649612 2.44949 0 2.44949 
z
" id="m6879ae97e5" style="stroke:#000000;"/>
    </defs>
    <g clip-path="url(#p050def9e60)">
     <use style="stroke:#000000;" x="144.884782" xlink:href="#m6879ae97e5" y="70.718901"/>
     <use style="stroke:#000000;" x="190.337477" xlink:href="#m6879ae97e5" y="34.153986"/>
     <use style="stroke:#000000;" x="143.986403" xlink:href="#m6879ae97e5" y="76.492717"/>
     <use style="stroke:#000000;" x="132.305017" xlink:href="#m6879ae97e5" y="94.5"/>
     <use style="stroke:#000000;" x="130.16928" xlink:href="#m6879ae97e5" y="85.831512"/>
     <use style="stroke:#000000;" x="145.038657" xlink:href="#m6879ae97e5" y="70.764844"/>
     <use style="stroke:#000000;" x="118.309091" xlink:href="#m6879ae97e5" y="87.40442"/>
     <use style="stroke:#000000;" x="127.077453" xlink:href="#m6879ae97e5" y="72.977878"/>
     <use style="stroke:#000000;" x="121.899153" xlink:href="#m6879ae97e5" y="94.5"/>
     <use style="stroke:#000000;" x="147.733655" xlink:href="#m6879ae97e5" y="75.082442"/>
     <use style="stroke:#000000;" x="135.753313" xlink:href="#m6879ae97e5" y="80.197353"/>
     <use style="stroke:#000000;" x="124.566414" xlink:href="#m6879ae97e5" y="88.740106"/>
     <use style="stroke:#000000;" x="134.233423" xlink:href="#m6879ae97e5" y="67.459682"/>
     <use style="stroke:#000000;" x="139.163402" xlink:href="#m6879ae97e5" y="39.638261"/>
     <use style="stroke:#000000;" x="136.701906" xlink:href="#m6879ae97e5" y="74.951142"/>
     <use style="stroke:#000000;" x="135.630265" xlink:href="#m6879ae97e5" y="82.790781"/>
     <use style="stroke:#000000;" x="129.438508" xlink:href="#m6879ae97e5" y="94.5"/>
     <use style="stroke:#000000;" x="135.868387" xlink:href="#m6879ae97e5" y="75.315794"/>
     <use style="stroke:#000000;" x="129.778485" xlink:href="#m6879ae97e5" y="72.325693"/>
     <use style="stroke:#000000;" x="133.890458" xlink:href="#m6879ae97e5" y="94.5"/>
     <use style="stroke:#000000;" x="144.926823" xlink:href="#m6879ae97e5" y="80.707646"/>
     <use style="stroke:#000000;" x="133.807756" xlink:href="#m6879ae97e5" y="63.777894"/>
     <use style="stroke:#000000;" x="137.366222" xlink:href="#m6879ae97e5" y="83.687231"/>
     <use style="stroke:#000000;" x="127.091157" xlink:href="#m6879ae97e5" y="82.463107"/>
     <use style="stroke:#000000;" x="122.127014" xlink:href="#m6879ae97e5" y="79.996014"/>
     <use style="stroke:#000000;" x="129.610568" xlink:href="#m6879ae97e5" y="78.612471"/>
     <use style="stroke:#000000;" x="125.52706" xlink:href="#m6879ae97e5" y="83.706301"/>
     <use style="stroke:#000000;" x="140.547737" xlink:href="#m6879ae97e5" y="46.935182"/>
     <use style="stroke:#000000;" x="146.399761" xlink:href="#m6879ae97e5" y="68.446345"/>
     <use style="stroke:#000000;" x="144.889135" xlink:href="#m6879ae97e5" y="94.5"/>
    </g>
   </g>
   <g id="line2d_13">
    <path clip-path="url(#p050def9e60)" d="M 118.309091 89.399944 
L 119.077686 88.849867 
L 119.846281 88.299789 
L 120.614876 87.749712 
L 121.383471 87.199635 
L 122.152066 86.649557 
L 122.920661 86.09948 
L 123.689256 85.549402 
L 124.457851 84.999325 
L 125.226446 84.449247 
L 125.995041 83.89917 
L 126.763636 83.349093 
L 127.532231 82.799015 
L 128.300826 82.248938 
L 129.069421 81.69886 
L 129.838017 81.148783 
L 130.606612 80.598705 
L 131.375207 80.048628 
L 132.143802 79.498551 
L 132.912397 78.948473 
L 133.680992 78.398396 
L 134.449587 77.848318 
L 135.218182 77.298241 
L 135.986777 76.748163 
L 136.755372 76.198086 
L 137.523967 75.648009 
L 138.292562 75.097931 
L 139.061157 74.547854 
L 139.829752 73.997776 
L 140.598347 73.447699 
L 141.366942 72.897621 
L 142.135537 72.347544 
L 142.904132 71.797467 
L 143.672727 71.247389 
L 144.441322 70.697312 
L 145.209917 70.147234 
L 145.978512 69.597157 
L 146.747107 69.047079 
L 147.515702 68.497002 
L 148.284298 67.946925 
L 149.052893 67.396847 
L 149.821488 66.84677 
L 150.590083 66.296692 
L 151.358678 65.746615 
L 152.127273 65.196537 
L 152.895868 64.64646 
L 153.664463 64.096383 
L 154.433058 63.546305 
L 155.201653 62.996228 
L 155.970248 62.44615 
L 156.738843 61.896073 
L 157.507438 61.345995 
L 158.276033 60.795918 
L 159.044628 60.245841 
L 159.813223 59.695763 
L 160.581818 59.145686 
L 161.350413 58.595608 
L 162.119008 58.045531 
L 162.887603 57.495453 
L 163.656198 56.945376 
L 164.424793 56.395299 
L 165.193388 55.845221 
L 165.961983 55.295144 
L 166.730579 54.745066 
L 167.499174 54.194989 
L 168.267769 53.644911 
L 169.036364 53.094834 
L 169.804959 52.544757 
L 170.573554 51.994679 
L 171.342149 51.444602 
L 172.110744 50.894524 
L 172.879339 50.344447 
L 173.647934 49.794369 
L 174.416529 49.244292 
L 175.185124 48.694215 
L 175.953719 48.144137 
L 176.722314 47.59406 
L 177.490909 47.043982 
L 178.259504 46.493905 
L 179.028099 45.943827 
L 179.796694 45.39375 
L 180.565289 44.843673 
L 181.333884 44.293595 
L 182.102479 43.743518 
L 182.871074 43.19344 
L 183.639669 42.643363 
L 184.408264 42.093285 
L 185.17686 41.543208 
L 185.945455 40.993131 
L 186.71405 40.443053 
L 187.482645 39.892976 
L 188.25124 39.342898 
L 189.019835 38.792821 
L 189.78843 38.242743 
L 190.557025 37.692666 
L 191.32562 37.142589 
L 192.094215 36.592511 
L 192.86281 36.042434 
L 193.631405 35.492356 
L 194.4 34.942279 
" style="fill:none;stroke:#000000;stroke-dasharray:1.85,0.8;stroke-dashoffset:0;stroke-width:0.5;"/>
   </g>
   <g id="patch_6">
    <path d="M 118.309091 94.5 
L 118.309091 12.96 
" style="fill:none;stroke:#000000;stroke-linecap:square;stroke-linejoin:miter;"/>
   </g>
   <g id="patch_7">
    <path d="M 118.309091 94.5 
L 194.4 94.5 
" style="fill:none;stroke:#000000;stroke-linecap:square;stroke-linejoin:miter;"/>
   </g>
   <g id="matplotlib.axis_3">
    <g id="xtick_4">
     <g id="line2d_14"/>
     <g id="text_12">
      <text style="font-family:Arial;font-size:8px;font-style:normal;font-weight:normal;text-anchor:middle;" transform="rotate(-0, 118.309091, 103.72625)" x="118.309091" y="103.72625">0</text>
     </g>
    </g>
    <g id="xtick_5">
     <g id="line2d_15"/>
     <g id="text_13">
      <text style="font-family:Arial;font-size:8px;font-style:normal;font-weight:normal;text-anchor:middle;" transform="rotate(-0, 144.35221, 103.72625)" x="144.35221" y="103.72625">1</text>
     </g>
    </g>
    <g id="xtick_6">
     <g id="line2d_16"/>
     <g id="text_14">
      <text style="font-family:Arial;font-size:8px;font-style:normal;font-weight:normal;text-anchor:middle;" transform="rotate(-0, 170.395329, 103.72625)" x="170.395329" y="103.72625">2</text>
     </g>
    </g>
    <g id="text_15">
     <!-- $\sigma$(Exc) -->
     <g transform="translate(141.504545 116.61625)">
      <text>
       <tspan style="font-family:DejaVu Sans;font-size:10px;font-style:oblique;font-weight:oblique;" x="0" y="-0.71875">σ</tspan>
       <tspan style="font-family:Arial;font-size:10px;font-style:regular;font-weight:regular;" x="6.337891 9.667969 16.337891 21.337891 26.337891" y="-0.71875">(Exc)</tspan>
      </text>
     </g>
    </g>
   </g>
   <g id="matplotlib.axis_4">
    <g id="ytick_6">
     <g id="line2d_17"/>
     <g id="text_16">
      <text style="font-family:Arial;font-size:8px;font-style:normal;font-weight:normal;text-anchor:end;" transform="rotate(-0, 114.809091, 97.363125)" x="114.809091" y="97.363125">0</text>
     </g>
    </g>
    <g id="ytick_7">
     <g id="line2d_18"/>
     <g id="text_17">
      <text style="font-family:Arial;font-size:8px;font-style:normal;font-weight:normal;text-anchor:end;" transform="rotate(-0, 114.809091, 69.454983)" x="114.809091" y="69.454983">1</text>
     </g>
    </g>
    <g id="ytick_8">
     <g id="line2d_19"/>
     <g id="text_18">
      <text style="font-family:Arial;font-size:8px;font-style:normal;font-weight:normal;text-anchor:end;" transform="rotate(-0, 114.809091, 41.54684)" x="114.809091" y="41.54684">2</text>
     </g>
    </g>
    <g id="text_19">
     <!-- $\sigma$(Inh) -->
     <g transform="translate(104.160341 67.18)rotate(-90)">
      <text>
       <tspan style="font-family:DejaVu Sans;font-size:10px;font-style:oblique;font-weight:oblique;" x="0" y="-0.71875">σ</tspan>
       <tspan style="font-family:Arial;font-size:10px;font-style:regular;font-weight:regular;" x="6.337891 9.667969 12.446289 18.007812 23.569336" y="-0.71875">(Inh)</tspan>
      </text>
     </g>
    </g>
   </g>
   <g id="legend_2">
    <g id="line2d_20">
     <path d="M 108.478125 31.995156 
L 128.478125 31.995156 
" style="fill:none;stroke:#000000;stroke-dasharray:1.85,0.8;stroke-dashoffset:0;stroke-width:0.5;"/>
    </g>
    <g id="line2d_21"/>
    <g id="text_20">
     <!-- $R^2$ 0.38 -->
     <g transform="translate(136.478125 29.2475)">
      <text>
       <tspan style="font-family:DejaVu Sans;font-size:10px;font-style:oblique;font-weight:oblique;" x="0" y="-0.9765625">R</tspan>
       <tspan style="font-family:DejaVu Sans;font-size:7px;font-style:book;font-weight:book;" x="7.650794" y="-4.8046875">2</tspan>
       <tspan style="font-family:Arial;font-size:10px;font-style:regular;font-weight:regular;" x="12.377845 15.156165 20.717689 23.496009 29.057533" y="-0.9765625"> 0.38</tspan>
      </text>
     </g>
     <text style="font-family:Arial;font-size:10px;font-style:normal;font-weight:normal;" transform="translate(136.478125 39.86)"> slope 0.67</text>
    </g>
   </g>
  </g>
 </g>
 <defs>
  <clipPath id="p9abd083c53">
   <rect height="81.54" width="76.090909" x="27" y="12.96"/>
  </clipPath>
  <clipPath id="p050def9e60">
   <rect height="81.54" width="76.090909" x="118.309091" y="12.96"/>
  </clipPath>
 </defs>
</svg>
