<?xml version="1.0" encoding="utf-8" standalone="no"?>
<!DOCTYPE svg PUBLIC "-//W3C//DTD SVG 1.1//EN"
  "http://www.w3.org/Graphics/SVG/1.1/DTD/svg11.dtd">
<!-- Created with matplotlib (http://matplotlib.org/) -->
<svg height="108pt" version="1.1" viewBox="0 0 216 108" width="216pt" xmlns="http://www.w3.org/2000/svg" xmlns:xlink="http://www.w3.org/1999/xlink">
 <defs>
  <style type="text/css">
*{stroke-linecap:butt;stroke-linejoin:round;}
  </style>
 </defs>
 <g id="figure_1">
  <g id="patch_1">
   <path d="M 0 108 
L 216 108 
L 216 0 
L 0 0 
z
" style="fill:#ffffff;"/>
  </g>
  <g id="axes_1">
   <g id="patch_2">
    <path d="M 27 94.5 
L 103.090909 94.5 
L 103.090909 12.96 
L 27 12.96 
z
" style="fill:#ffffff;"/>
   </g>
   <g id="LineCollection_1">
    <path clip-path="url(#p10f830f06f)" d="M 25.968541 64.287065 
L 31.787728 64.287065 
" style="fill:none;stroke:#000000;stroke-width:0.5;"/>
    <path clip-path="url(#p10f830f06f)" d="M 25.102382 64.561681 
L 42.447928 64.561681 
" style="fill:none;stroke:#000000;stroke-width:0.5;"/>
    <path clip-path="url(#p10f830f06f)" d="M 26.263711 74.181145 
L 37.124995 74.181145 
" style="fill:none;stroke:#000000;stroke-width:0.5;"/>
    <path clip-path="url(#p10f830f06f)" d="M 34.572668 56.025508 
L 44.249572 56.025508 
" style="fill:none;stroke:#000000;stroke-width:0.5;"/>
    <path clip-path="url(#p10f830f06f)" d="M 27.310949 73.029043 
L 41.333125 73.029043 
" style="fill:none;stroke:#000000;stroke-width:0.5;"/>
    <path clip-path="url(#p10f830f06f)" d="M 27.590266 57.69877 
L 38.760871 57.69877 
" style="fill:none;stroke:#000000;stroke-width:0.5;"/>
    <path clip-path="url(#p10f830f06f)" d="M 24.610513 68.479873 
L 38.969661 68.479873 
" style="fill:none;stroke:#000000;stroke-width:0.5;"/>
    <path clip-path="url(#p10f830f06f)" d="M 33.975972 43.801465 
L 48.469725 43.801465 
" style="fill:none;stroke:#000000;stroke-width:0.5;"/>
    <path clip-path="url(#p10f830f06f)" d="M 28.44556 81.875772 
L 36.971491 81.875772 
" style="fill:none;stroke:#000000;stroke-width:0.5;"/>
    <path clip-path="url(#p10f830f06f)" d="M 27.463996 59.463172 
L 39.793692 59.463172 
" style="fill:none;stroke:#000000;stroke-width:0.5;"/>
    <path clip-path="url(#p10f830f06f)" d="M 32.405194 27.704845 
L 52.500471 27.704845 
" style="fill:none;stroke:#000000;stroke-width:0.5;"/>
    <path clip-path="url(#p10f830f06f)" d="M 25.285448 67.979665 
L 41.495716 67.979665 
" style="fill:none;stroke:#000000;stroke-width:0.5;"/>
    <path clip-path="url(#p10f830f06f)" d="M 24.977919 65.561556 
L 33.560958 65.561556 
" style="fill:none;stroke:#000000;stroke-width:0.5;"/>
    <path clip-path="url(#p10f830f06f)" d="M 28.518452 73.435778 
L 37.597729 73.435778 
" style="fill:none;stroke:#000000;stroke-width:0.5;"/>
    <path clip-path="url(#p10f830f06f)" d="M 30.276496 42.822794 
L 47.717725 42.822794 
" style="fill:none;stroke:#000000;stroke-width:0.5;"/>
    <path clip-path="url(#p10f830f06f)" d="M 30.008221 66.938019 
L 39.651526 66.938019 
" style="fill:none;stroke:#000000;stroke-width:0.5;"/>
    <path clip-path="url(#p10f830f06f)" d="M 27.374845 34.436065 
L 43.561864 34.436065 
" style="fill:none;stroke:#000000;stroke-width:0.5;"/>
    <path clip-path="url(#p10f830f06f)" d="M 25.398808 80.803069 
L 34.306819 80.803069 
" style="fill:none;stroke:#000000;stroke-width:0.5;"/>
    <path clip-path="url(#p10f830f06f)" d="M 27.433862 51.708721 
L 32.448508 51.708721 
" style="fill:none;stroke:#000000;stroke-width:0.5;"/>
    <path clip-path="url(#p10f830f06f)" d="M 26.574597 81.026819 
L 33.676359 81.026819 
" style="fill:none;stroke:#000000;stroke-width:0.5;"/>
    <path clip-path="url(#p10f830f06f)" d="M 24.264259 65.564591 
L 35.247646 65.564591 
" style="fill:none;stroke:#000000;stroke-width:0.5;"/>
    <path clip-path="url(#p10f830f06f)" d="M 23.799077 57.67157 
L 46.881191 57.67157 
" style="fill:none;stroke:#000000;stroke-width:0.5;"/>
    <path clip-path="url(#p10f830f06f)" d="M 41.178407 23.120336 
L 62.911594 23.120336 
" style="fill:none;stroke:#000000;stroke-width:0.5;"/>
    <path clip-path="url(#p10f830f06f)" d="M 21.393545 70.514907 
L 40.342218 70.514907 
" style="fill:none;stroke:#000000;stroke-width:0.5;"/>
    <path clip-path="url(#p10f830f06f)" d="M 26.199316 81.803158 
L 35.460892 81.803158 
" style="fill:none;stroke:#000000;stroke-width:0.5;"/>
    <path clip-path="url(#p10f830f06f)" d="M 29.427953 73.308346 
L 53.257717 73.308346 
" style="fill:none;stroke:#000000;stroke-width:0.5;"/>
    <path clip-path="url(#p10f830f06f)" d="M 18.761823 48.668681 
L 51.917964 48.668681 
" style="fill:none;stroke:#000000;stroke-width:0.5;"/>
    <path clip-path="url(#p10f830f06f)" d="M 35.787622 26.330406 
L 54.94214 26.330406 
" style="fill:none;stroke:#000000;stroke-width:0.5;"/>
    <path clip-path="url(#p10f830f06f)" d="M 24.220773 41.339234 
L 51.156833 41.339234 
" style="fill:none;stroke:#000000;stroke-width:0.5;"/>
    <path clip-path="url(#p10f830f06f)" d="M 37.322764 62.898667 
L 47.079905 62.898667 
" style="fill:none;stroke:#000000;stroke-width:0.5;"/>
   </g>
   <g id="LineCollection_2">
    <path clip-path="url(#p10f830f06f)" d="M 28.878135 71.958017 
L 28.878135 56.616113 
" style="fill:none;stroke:#000000;stroke-width:0.5;"/>
    <path clip-path="url(#p10f830f06f)" d="M 33.775155 73.683987 
L 33.775155 55.439374 
" style="fill:none;stroke:#000000;stroke-width:0.5;"/>
    <path clip-path="url(#p10f830f06f)" d="M 31.694353 79.042514 
L 31.694353 69.319775 
" style="fill:none;stroke:#000000;stroke-width:0.5;"/>
    <path clip-path="url(#p10f830f06f)" d="M 39.41112 59.897326 
L 39.41112 52.15369 
" style="fill:none;stroke:#000000;stroke-width:0.5;"/>
    <path clip-path="url(#p10f830f06f)" d="M 34.322037 80.022522 
L 34.322037 66.035564 
" style="fill:none;stroke:#000000;stroke-width:0.5;"/>
    <path clip-path="url(#p10f830f06f)" d="M 33.175569 65.296918 
L 33.175569 50.100622 
" style="fill:none;stroke:#000000;stroke-width:0.5;"/>
    <path clip-path="url(#p10f830f06f)" d="M 31.790087 71.181895 
L 31.790087 65.777851 
" style="fill:none;stroke:#000000;stroke-width:0.5;"/>
    <path clip-path="url(#p10f830f06f)" d="M 41.222849 58.004109 
L 41.222849 29.598821 
" style="fill:none;stroke:#000000;stroke-width:0.5;"/>
    <path clip-path="url(#p10f830f06f)" d="M 32.708525 86.9237 
L 32.708525 76.827843 
" style="fill:none;stroke:#000000;stroke-width:0.5;"/>
    <path clip-path="url(#p10f830f06f)" d="M 33.628844 65.3443 
L 33.628844 53.582043 
" style="fill:none;stroke:#000000;stroke-width:0.5;"/>
    <path clip-path="url(#p10f830f06f)" d="M 42.452833 36.616715 
L 42.452833 18.792976 
" style="fill:none;stroke:#000000;stroke-width:0.5;"/>
    <path clip-path="url(#p10f830f06f)" d="M 33.390582 70.640398 
L 33.390582 65.318933 
" style="fill:none;stroke:#000000;stroke-width:0.5;"/>
    <path clip-path="url(#p10f830f06f)" d="M 29.269438 71.109218 
L 29.269438 60.013893 
" style="fill:none;stroke:#000000;stroke-width:0.5;"/>
    <path clip-path="url(#p10f830f06f)" d="M 33.058091 77.391257 
L 33.058091 69.480299 
" style="fill:none;stroke:#000000;stroke-width:0.5;"/>
    <path clip-path="url(#p10f830f06f)" d="M 38.99711 50.542266 
L 38.99711 35.103322 
" style="fill:none;stroke:#000000;stroke-width:0.5;"/>
    <path clip-path="url(#p10f830f06f)" d="M 34.829873 73.240261 
L 34.829873 60.635777 
" style="fill:none;stroke:#000000;stroke-width:0.5;"/>
    <path clip-path="url(#p10f830f06f)" d="M 35.468355 42.179841 
L 35.468355 26.692289 
" style="fill:none;stroke:#000000;stroke-width:0.5;"/>
    <path clip-path="url(#p10f830f06f)" d="M 29.852814 85.059872 
L 29.852814 76.546267 
" style="fill:none;stroke:#000000;stroke-width:0.5;"/>
    <path clip-path="url(#p10f830f06f)" d="M 29.941185 64.793785 
L 29.941185 38.623657 
" style="fill:none;stroke:#000000;stroke-width:0.5;"/>
    <path clip-path="url(#p10f830f06f)" d="M 30.125478 83.419572 
L 30.125478 78.634067 
" style="fill:none;stroke:#000000;stroke-width:0.5;"/>
    <path clip-path="url(#p10f830f06f)" d="M 29.755953 75.007295 
L 29.755953 56.121888 
" style="fill:none;stroke:#000000;stroke-width:0.5;"/>
    <path clip-path="url(#p10f830f06f)" d="M 35.340134 69.522115 
L 35.340134 45.821025 
" style="fill:none;stroke:#000000;stroke-width:0.5;"/>
    <path clip-path="url(#p10f830f06f)" d="M 52.045 29.758591 
L 52.045 16.482081 
" style="fill:none;stroke:#000000;stroke-width:0.5;"/>
    <path clip-path="url(#p10f830f06f)" d="M 30.867882 70.514907 
L 30.867882 70.514907 
" style="fill:none;stroke:#000000;stroke-width:0.5;"/>
    <path clip-path="url(#p10f830f06f)" d="M 30.830104 84.479542 
L 30.830104 79.126774 
" style="fill:none;stroke:#000000;stroke-width:0.5;"/>
    <path clip-path="url(#p10f830f06f)" d="M 41.342835 82.07242 
L 41.342835 64.544273 
" style="fill:none;stroke:#000000;stroke-width:0.5;"/>
    <path clip-path="url(#p10f830f06f)" d="M 35.339893 64.897686 
L 35.339893 32.439676 
" style="fill:none;stroke:#000000;stroke-width:0.5;"/>
    <path clip-path="url(#p10f830f06f)" d="M 45.364881 33.173942 
L 45.364881 19.48687 
" style="fill:none;stroke:#000000;stroke-width:0.5;"/>
    <path clip-path="url(#p10f830f06f)" d="M 37.688803 52.188109 
L 37.688803 30.490359 
" style="fill:none;stroke:#000000;stroke-width:0.5;"/>
    <path clip-path="url(#p10f830f06f)" d="M 42.201335 70.033837 
L 42.201335 55.763497 
" style="fill:none;stroke:#000000;stroke-width:0.5;"/>
   </g>
   <g id="line2d_1">
    <path clip-path="url(#p10f830f06f)" d="M 27 77.862623 
L 27.768595 76.166938 
L 28.53719 74.471254 
L 29.305785 72.77557 
L 30.07438 71.079885 
L 30.842975 69.384201 
L 31.61157 67.688516 
L 32.380165 65.992832 
L 33.14876 64.297148 
L 33.917355 62.601463 
L 34.68595 60.905779 
L 35.454545 59.210094 
L 36.22314 57.51441 
L 36.991736 55.818726 
L 37.760331 54.123041 
L 38.528926 52.427357 
L 39.297521 50.731672 
L 40.066116 49.035988 
L 40.834711 47.340304 
L 41.603306 45.644619 
L 42.371901 43.948935 
L 43.140496 42.25325 
L 43.909091 40.557566 
L 44.677686 38.861882 
L 45.446281 37.166197 
L 46.214876 35.470513 
L 46.983471 33.774829 
L 47.752066 32.079144 
L 48.520661 30.38346 
L 49.289256 28.687775 
L 50.057851 26.992091 
L 50.826446 25.296407 
L 51.595041 23.600722 
L 52.363636 21.905038 
L 53.132231 20.209353 
L 53.900826 18.513669 
L 54.669421 16.817985 
L 55.438017 15.1223 
L 56.206612 13.426616 
L 56.975207 11.730931 
L 57.743802 10.035247 
L 58.512397 8.339563 
L 59.280992 6.643878 
L 60.049587 4.948194 
L 60.818182 3.25251 
L 61.586777 1.556825 
L 62.355372 -0.138859 
L 62.745697 -1 
" style="fill:none;stroke:#000000;stroke-dasharray:1.85,0.8;stroke-dashoffset:0;stroke-width:0.5;"/>
   </g>
   <g id="line2d_2">
    <defs>
     <path d="M 0 3 
C 0.795609 3 1.55874 2.683901 2.12132 2.12132 
C 2.683901 1.55874 3 0.795609 3 0 
C 3 -0.795609 2.683901 -1.55874 2.12132 -2.12132 
C 1.55874 -2.683901 0.795609 -3 0 -3 
C -0.795609 -3 -1.55874 -2.683901 -2.12132 -2.12132 
C -2.683901 -1.55874 -3 -0.795609 -3 0 
C -3 0.795609 -2.683901 1.55874 -2.12132 2.12132 
C -1.55874 2.683901 -0.795609 3 0 3 
z
" id="m9f54ccccd2" style="stroke:#000000;"/>
    </defs>
    <g clip-path="url(#p10f830f06f)">
     <use style="stroke:#000000;" x="28.878135" xlink:href="#m9f54ccccd2" y="64.287065"/>
     <use style="stroke:#000000;" x="33.775155" xlink:href="#m9f54ccccd2" y="64.561681"/>
     <use style="stroke:#000000;" x="31.694353" xlink:href="#m9f54ccccd2" y="74.181145"/>
     <use style="stroke:#000000;" x="39.41112" xlink:href="#m9f54ccccd2" y="56.025508"/>
     <use style="stroke:#000000;" x="34.322037" xlink:href="#m9f54ccccd2" y="73.029043"/>
     <use style="stroke:#000000;" x="33.175569" xlink:href="#m9f54ccccd2" y="57.69877"/>
     <use style="stroke:#000000;" x="31.790087" xlink:href="#m9f54ccccd2" y="68.479873"/>
     <use style="stroke:#000000;" x="41.222849" xlink:href="#m9f54ccccd2" y="43.801465"/>
     <use style="stroke:#000000;" x="32.708525" xlink:href="#m9f54ccccd2" y="81.875772"/>
     <use style="stroke:#000000;" x="33.628844" xlink:href="#m9f54ccccd2" y="59.463172"/>
     <use style="stroke:#000000;" x="42.452833" xlink:href="#m9f54ccccd2" y="27.704845"/>
     <use style="stroke:#000000;" x="33.390582" xlink:href="#m9f54ccccd2" y="67.979665"/>
     <use style="stroke:#000000;" x="29.269438" xlink:href="#m9f54ccccd2" y="65.561556"/>
     <use style="stroke:#000000;" x="33.058091" xlink:href="#m9f54ccccd2" y="73.435778"/>
     <use style="stroke:#000000;" x="38.99711" xlink:href="#m9f54ccccd2" y="42.822794"/>
     <use style="stroke:#000000;" x="34.829873" xlink:href="#m9f54ccccd2" y="66.938019"/>
     <use style="stroke:#000000;" x="35.468355" xlink:href="#m9f54ccccd2" y="34.436065"/>
     <use style="stroke:#000000;" x="29.852814" xlink:href="#m9f54ccccd2" y="80.803069"/>
     <use style="stroke:#000000;" x="29.941185" xlink:href="#m9f54ccccd2" y="51.708721"/>
     <use style="stroke:#000000;" x="30.125478" xlink:href="#m9f54ccccd2" y="81.026819"/>
     <use style="stroke:#000000;" x="29.755953" xlink:href="#m9f54ccccd2" y="65.564591"/>
     <use style="stroke:#000000;" x="35.340134" xlink:href="#m9f54ccccd2" y="57.67157"/>
     <use style="stroke:#000000;" x="52.045" xlink:href="#m9f54ccccd2" y="23.120336"/>
     <use style="stroke:#000000;" x="30.867882" xlink:href="#m9f54ccccd2" y="70.514907"/>
     <use style="stroke:#000000;" x="30.830104" xlink:href="#m9f54ccccd2" y="81.803158"/>
     <use style="stroke:#000000;" x="41.342835" xlink:href="#m9f54ccccd2" y="73.308346"/>
     <use style="stroke:#000000;" x="35.339893" xlink:href="#m9f54ccccd2" y="48.668681"/>
     <use style="stroke:#000000;" x="45.364881" xlink:href="#m9f54ccccd2" y="26.330406"/>
     <use style="stroke:#000000;" x="37.688803" xlink:href="#m9f54ccccd2" y="41.339234"/>
     <use style="stroke:#000000;" x="42.201335" xlink:href="#m9f54ccccd2" y="62.898667"/>
    </g>
   </g>
   <g id="patch_3">
    <path d="M 27 94.5 
L 27 12.96 
" style="fill:none;stroke:#000000;stroke-linecap:square;stroke-linejoin:miter;"/>
   </g>
   <g id="patch_4">
    <path d="M 27 94.5 
L 103.090909 94.5 
" style="fill:none;stroke:#000000;stroke-linecap:square;stroke-linejoin:miter;"/>
   </g>
   <g id="matplotlib.axis_1">
    <g id="xtick_1">
     <g id="line2d_3"/>
     <g id="text_1">
      <text style="font-family:Arial;font-size:8px;font-style:normal;font-weight:normal;text-anchor:middle;" transform="rotate(-0, 27, 103.72625)" x="27" y="103.72625">0</text>
     </g>
    </g>
    <g id="xtick_2">
     <g id="line2d_4"/>
     <g id="text_2">
      <text style="font-family:Arial;font-size:8px;font-style:normal;font-weight:normal;text-anchor:middle;" transform="rotate(-0, 75.878365, 103.72625)" x="75.878365" y="103.72625">5</text>
     </g>
    </g>
    <g id="text_3">
     <text style="font-family:Arial;font-size:10px;font-style:normal;font-weight:normal;text-anchor:middle;" transform="rotate(-0, 65.045455, 116.474063)" x="65.045455" y="116.474063">Exc</text>
    </g>
   </g>
   <g id="matplotlib.axis_2">
    <g id="ytick_1">
     <g id="line2d_5"/>
     <g id="text_4">
      <text style="font-family:Arial;font-size:8px;font-style:normal;font-weight:normal;text-anchor:end;" transform="rotate(-0, 23.5, 97.363125)" x="23.5" y="97.363125">0</text>
     </g>
    </g>
    <g id="ytick_2">
     <g id="line2d_6"/>
     <g id="text_5">
      <text style="font-family:Arial;font-size:8px;font-style:normal;font-weight:normal;text-anchor:end;" transform="rotate(-0, 23.5, 76.41165)" x="23.5" y="76.41165">2</text>
     </g>
    </g>
    <g id="ytick_3">
     <g id="line2d_7"/>
     <g id="text_6">
      <text style="font-family:Arial;font-size:8px;font-style:normal;font-weight:normal;text-anchor:end;" transform="rotate(-0, 23.5, 55.460175)" x="23.5" y="55.460175">4</text>
     </g>
    </g>
    <g id="ytick_4">
     <g id="line2d_8"/>
     <g id="text_7">
      <text style="font-family:Arial;font-size:8px;font-style:normal;font-weight:normal;text-anchor:end;" transform="rotate(-0, 23.5, 34.5087)" x="23.5" y="34.5087">6</text>
     </g>
    </g>
    <g id="text_8">
     <text style="font-family:Arial;font-size:10px;font-style:normal;font-weight:normal;text-anchor:middle;" transform="rotate(-90, 13.06375, 53.73)" x="13.06375" y="53.73">Inh</text>
    </g>
   </g>
   <g id="legend_1">
    <g id="line2d_9">
     <path d="M 36 75.622656 
L 56 75.622656 
" style="fill:none;stroke:#000000;stroke-dasharray:1.85,0.8;stroke-dashoffset:0;stroke-width:0.5;"/>
    </g>
    <g id="line2d_10"/>
    <g id="text_9">
     <!-- $R^2$ 0.51 -->
     <g transform="translate(64 72.875)">
      <text>
       <tspan style="font-family:DejaVu Sans;font-size:10px;font-style:oblique;font-weight:oblique;" x="0" y="-0.9765625">R</tspan>
       <tspan style="font-family:DejaVu Sans;font-size:7px;font-style:book;font-weight:book;" x="7.650794" y="-4.8046875">2</tspan>
       <tspan style="font-family:Arial;font-size:10px;font-style:regular;font-weight:regular;" x="12.377845 15.156165 20.717689 23.496009 29.057533" y="-0.9765625"> 0.51</tspan>
      </text>
     </g>
     <text style="font-family:Arial;font-size:10px;font-style:normal;font-weight:normal;" transform="translate(64 83.4875)"> slope 2.06</text>
    </g>
   </g>
  </g>
  <g id="axes_2">
   <g id="patch_5">
    <path d="M 118.309091 94.5 
L 194.4 94.5 
L 194.4 12.96 
L 118.309091 12.96 
z
" style="fill:#ffffff;"/>
   </g>
   <g id="PathCollection_1">
    <defs>
     <path d="M 0 2.44949 
C 0.649612 2.44949 1.272706 2.191396 1.732051 1.732051 
C 2.191396 1.272706 2.44949 0.649612 2.44949 0 
C 2.44949 -0.649612 2.191396 -1.272706 1.732051 -1.732051 
C 1.272706 -2.191396 0.649612 -2.44949 0 -2.44949 
C -0.649612 -2.44949 -1.272706 -2.191396 -1.732051 -1.732051 
C -2.191396 -1.272706 -2.44949 -0.649612 -2.44949 0 
C -2.44949 0.649612 -2.191396 1.272706 -1.732051 1.732051 
C -1.272706 2.191396 -0.649612 2.44949 0 2.44949 
z
" id="m51a54a8bfc" style="stroke:#000000;"/>
    </defs>
    <g clip-path="url(#p03bccb8c75)">
     <use style="stroke:#000000;" x="130.992996" xlink:href="#m51a54a8bfc" y="61.059719"/>
     <use style="stroke:#000000;" x="156.116647" xlink:href="#m51a54a8bfc" y="54.732773"/>
     <use style="stroke:#000000;" x="141.983099" xlink:href="#m51a54a8bfc" y="73.307643"/>
     <use style="stroke:#000000;" x="139.401543" xlink:href="#m51a54a8bfc" y="77.621433"/>
     <use style="stroke:#000000;" x="148.8728" xlink:href="#m51a54a8bfc" y="64.013055"/>
     <use style="stroke:#000000;" x="142.657319" xlink:href="#m51a54a8bfc" y="61.377098"/>
     <use style="stroke:#000000;" x="149.607286" xlink:href="#m51a54a8bfc" y="82.72097"/>
     <use style="stroke:#000000;" x="149.900682" xlink:href="#m51a54a8bfc" y="32.585861"/>
     <use style="stroke:#000000;" x="136.8928" xlink:href="#m51a54a8bfc" y="72.494368"/>
     <use style="stroke:#000000;" x="145.183751" xlink:href="#m51a54a8bfc" y="68.862167"/>
     <use style="stroke:#000000;" x="162.110154" xlink:href="#m51a54a8bfc" y="55.650141"/>
     <use style="stroke:#000000;" x="153.642116" xlink:href="#m51a54a8bfc" y="82.900964"/>
     <use style="stroke:#000000;" x="137.017278" xlink:href="#m51a54a8bfc" y="70.315859"/>
     <use style="stroke:#000000;" x="138.098914" xlink:href="#m51a54a8bfc" y="77.256727"/>
     <use style="stroke:#000000;" x="156.325205" xlink:href="#m51a54a8bfc" y="60.848206"/>
     <use style="stroke:#000000;" x="139.328307" xlink:href="#m51a54a8bfc" y="67.026391"/>
     <use style="stroke:#000000;" x="153.591443" xlink:href="#m51a54a8bfc" y="60.742256"/>
     <use style="stroke:#000000;" x="137.725612" xlink:href="#m51a54a8bfc" y="75.943155"/>
     <use style="stroke:#000000;" x="129.239363" xlink:href="#m51a54a8bfc" y="37.457772"/>
     <use style="stroke:#000000;" x="133.788584" xlink:href="#m51a54a8bfc" y="84.06918"/>
     <use style="stroke:#000000;" x="142.249244" xlink:href="#m51a54a8bfc" y="53.336056"/>
     <use style="stroke:#000000;" x="168.620469" xlink:href="#m51a54a8bfc" y="42.839457"/>
     <use style="stroke:#000000;" x="165.680254" xlink:href="#m51a54a8bfc" y="65.561598"/>
     <use style="stroke:#000000;" x="159.610934" xlink:href="#m51a54a8bfc" y="94.5"/>
     <use style="stroke:#000000;" x="138.496265" xlink:href="#m51a54a8bfc" y="82.832735"/>
     <use style="stroke:#000000;" x="170.2501" xlink:href="#m51a54a8bfc" y="56.294433"/>
     <use style="stroke:#000000;" x="190.578519" xlink:href="#m51a54a8bfc" y="23.752266"/>
     <use style="stroke:#000000;" x="160.059609" xlink:href="#m51a54a8bfc" y="64.666707"/>
     <use style="stroke:#000000;" x="177.020799" xlink:href="#m51a54a8bfc" y="47.206077"/>
     <use style="stroke:#000000;" x="139.576433" xlink:href="#m51a54a8bfc" y="63.395376"/>
    </g>
   </g>
   <g id="line2d_11">
    <path clip-path="url(#p03bccb8c75)" d="M 118.309091 79.33435 
L 119.077686 78.956567 
L 119.846281 78.578784 
L 120.614876 78.201001 
L 121.383471 77.823218 
L 122.152066 77.445436 
L 122.920661 77.067653 
L 123.689256 76.68987 
L 124.457851 76.312087 
L 125.226446 75.934304 
L 125.995041 75.556521 
L 126.763636 75.178739 
L 127.532231 74.800956 
L 128.300826 74.423173 
L 129.069421 74.04539 
L 129.838017 73.667607 
L 130.606612 73.289825 
L 131.375207 72.912042 
L 132.143802 72.534259 
L 132.912397 72.156476 
L 133.680992 71.778693 
L 134.449587 71.40091 
L 135.218182 71.023128 
L 135.986777 70.645345 
L 136.755372 70.267562 
L 137.523967 69.889779 
L 138.292562 69.511996 
L 139.061157 69.134213 
L 139.829752 68.756431 
L 140.598347 68.378648 
L 141.366942 68.000865 
L 142.135537 67.623082 
L 142.904132 67.245299 
L 143.672727 66.867516 
L 144.441322 66.489734 
L 145.209917 66.111951 
L 145.978512 65.734168 
L 146.747107 65.356385 
L 147.515702 64.978602 
L 148.284298 64.600819 
L 149.052893 64.223037 
L 149.821488 63.845254 
L 150.590083 63.467471 
L 151.358678 63.089688 
L 152.127273 62.711905 
L 152.895868 62.334122 
L 153.664463 61.95634 
L 154.433058 61.578557 
L 155.201653 61.200774 
L 155.970248 60.822991 
L 156.738843 60.445208 
L 157.507438 60.067426 
L 158.276033 59.689643 
L 159.044628 59.31186 
L 159.813223 58.934077 
L 160.581818 58.556294 
L 161.350413 58.178511 
L 162.119008 57.800729 
L 162.887603 57.422946 
L 163.656198 57.045163 
L 164.424793 56.66738 
L 165.193388 56.289597 
L 165.961983 55.911814 
L 166.730579 55.534032 
L 167.499174 55.156249 
L 168.267769 54.778466 
L 169.036364 54.400683 
L 169.804959 54.0229 
L 170.573554 53.645117 
L 171.342149 53.267335 
L 172.110744 52.889552 
L 172.879339 52.511769 
L 173.647934 52.133986 
L 174.416529 51.756203 
L 175.185124 51.37842 
L 175.953719 51.000638 
L 176.722314 50.622855 
L 177.490909 50.245072 
L 178.259504 49.867289 
L 179.028099 49.489506 
L 179.796694 49.111724 
L 180.565289 48.733941 
L 181.333884 48.356158 
L 182.102479 47.978375 
L 182.871074 47.600592 
L 183.639669 47.222809 
L 184.408264 46.845027 
L 185.17686 46.467244 
L 185.945455 46.089461 
L 186.71405 45.711678 
L 187.482645 45.333895 
L 188.25124 44.956112 
L 189.019835 44.57833 
L 189.78843 44.200547 
L 190.557025 43.822764 
L 191.32562 43.444981 
L 192.094215 43.067198 
L 192.86281 42.689415 
L 193.631405 42.311633 
L 194.4 41.93385 
" style="fill:none;stroke:#000000;stroke-dasharray:1.85,0.8;stroke-dashoffset:0;stroke-width:0.5;"/>
   </g>
   <g id="patch_6">
    <path d="M 118.309091 94.5 
L 118.309091 12.96 
" style="fill:none;stroke:#000000;stroke-linecap:square;stroke-linejoin:miter;"/>
   </g>
   <g id="patch_7">
    <path d="M 118.309091 94.5 
L 194.4 94.5 
" style="fill:none;stroke:#000000;stroke-linecap:square;stroke-linejoin:miter;"/>
   </g>
   <g id="matplotlib.axis_3">
    <g id="xtick_3">
     <g id="line2d_12"/>
     <g id="text_10">
      <text style="font-family:Arial;font-size:8px;font-style:normal;font-weight:normal;text-anchor:middle;" transform="rotate(-0, 118.309091, 103.72625)" x="118.309091" y="103.72625">0</text>
     </g>
    </g>
    <g id="xtick_4">
     <g id="line2d_13"/>
     <g id="text_11">
      <text style="font-family:Arial;font-size:8px;font-style:normal;font-weight:normal;text-anchor:middle;" transform="rotate(-0, 160.924563, 103.72625)" x="160.924563" y="103.72625">1</text>
     </g>
    </g>
    <g id="text_12">
     <!-- $\sigma$(Exc) -->
     <g transform="translate(141.504545 116.61625)">
      <text>
       <tspan style="font-family:DejaVu Sans;font-size:10px;font-style:oblique;font-weight:oblique;" x="0" y="-0.71875">σ</tspan>
       <tspan style="font-family:Arial;font-size:10px;font-style:regular;font-weight:regular;" x="6.337891 9.667969 16.337891 21.337891 26.337891" y="-0.71875">(Exc)</tspan>
      </text>
     </g>
    </g>
   </g>
   <g id="matplotlib.axis_4">
    <g id="ytick_5">
     <g id="line2d_14"/>
     <g id="text_13">
      <text style="font-family:Arial;font-size:8px;font-style:normal;font-weight:normal;text-anchor:end;" transform="rotate(-0, 114.809091, 97.363125)" x="114.809091" y="97.363125">0.0</text>
     </g>
    </g>
    <g id="ytick_6">
     <g id="line2d_15"/>
     <g id="text_14">
      <text style="font-family:Arial;font-size:8px;font-style:normal;font-weight:normal;text-anchor:end;" transform="rotate(-0, 114.809091, 74.52948)" x="114.809091" y="74.52948">0.5</text>
     </g>
    </g>
    <g id="ytick_7">
     <g id="line2d_16"/>
     <g id="text_15">
      <text style="font-family:Arial;font-size:8px;font-style:normal;font-weight:normal;text-anchor:end;" transform="rotate(-0, 114.809091, 51.695835)" x="114.809091" y="51.695835">1.0</text>
     </g>
    </g>
    <g id="ytick_8">
     <g id="line2d_17"/>
     <g id="text_16">
      <text style="font-family:Arial;font-size:8px;font-style:normal;font-weight:normal;text-anchor:end;" transform="rotate(-0, 114.809091, 28.86219)" x="114.809091" y="28.86219">1.5</text>
     </g>
    </g>
    <g id="text_17">
     <!-- $\sigma$(Inh) -->
     <g transform="translate(97.489091 67.18)rotate(-90)">
      <text>
       <tspan style="font-family:DejaVu Sans;font-size:10px;font-style:oblique;font-weight:oblique;" x="0" y="-0.71875">σ</tspan>
       <tspan style="font-family:Arial;font-size:10px;font-style:regular;font-weight:regular;" x="6.337891 9.667969 12.446289 18.007812 23.569336" y="-0.71875">(Inh)</tspan>
      </text>
     </g>
    </g>
   </g>
   <g id="legend_2">
    <g id="line2d_18">
     <path d="M 108.478125 31.995156 
L 128.478125 31.995156 
" style="fill:none;stroke:#000000;stroke-dasharray:1.85,0.8;stroke-dashoffset:0;stroke-width:0.5;"/>
    </g>
    <g id="line2d_19"/>
    <g id="text_18">
     <!-- $R^2$ 0.20 -->
     <g transform="translate(136.478125 29.2475)">
      <text>
       <tspan style="font-family:DejaVu Sans;font-size:10px;font-style:oblique;font-weight:oblique;" x="0" y="-0.9765625">R</tspan>
       <tspan style="font-family:DejaVu Sans;font-size:7px;font-style:book;font-weight:book;" x="7.650794" y="-4.8046875">2</tspan>
       <tspan style="font-family:Arial;font-size:10px;font-style:regular;font-weight:regular;" x="12.377845 15.156165 20.717689 23.496009 29.057533" y="-0.9765625"> 0.20</tspan>
      </text>
     </g>
     <text style="font-family:Arial;font-size:10px;font-style:normal;font-weight:normal;" transform="translate(136.478125 39.86)"> slope 0.46</text>
    </g>
   </g>
  </g>
 </g>
 <defs>
  <clipPath id="p10f830f06f">
   <rect height="81.54" width="76.090909" x="27" y="12.96"/>
  </clipPath>
  <clipPath id="p03bccb8c75">
   <rect height="81.54" width="76.090909" x="118.309091" y="12.96"/>
  </clipPath>
 </defs>
</svg>
