<?xml version="1.0" encoding="utf-8" standalone="no"?>
<!DOCTYPE svg PUBLIC "-//W3C//DTD SVG 1.1//EN"
  "http://www.w3.org/Graphics/SVG/1.1/DTD/svg11.dtd">
<!-- Created with matplotlib (http://matplotlib.org/) -->
<svg height="108pt" version="1.1" viewBox="0 0 216 108" width="216pt" xmlns="http://www.w3.org/2000/svg" xmlns:xlink="http://www.w3.org/1999/xlink">
 <defs>
  <style type="text/css">
*{stroke-linecap:butt;stroke-linejoin:round;}
  </style>
 </defs>
 <g id="figure_1">
  <g id="patch_1">
   <path d="M 0 108 
L 216 108 
L 216 0 
L 0 0 
z
" style="fill:#ffffff;"/>
  </g>
  <g id="axes_1">
   <g id="patch_2">
    <path d="M 27 94.5 
L 103.090909 94.5 
L 103.090909 12.96 
L 27 12.96 
z
" style="fill:#ffffff;"/>
   </g>
   <g id="LineCollection_1">
    <path clip-path="url(#pac2f73cd03)" d="M 25.141738 79.760786 
L 34.19456 79.760786 
" style="fill:none;stroke:#000000;stroke-width:0.5;"/>
    <path clip-path="url(#pac2f73cd03)" d="M 27.908151 36.46893 
L 56.179599 36.46893 
" style="fill:none;stroke:#000000;stroke-width:0.5;"/>
    <path clip-path="url(#pac2f73cd03)" d="M 26.331525 86.889959 
L 30.004132 86.889959 
" style="fill:none;stroke:#000000;stroke-width:0.5;"/>
    <path clip-path="url(#pac2f73cd03)" d="M 32.492265 46.118574 
L 41.25353 46.118574 
" style="fill:none;stroke:#000000;stroke-width:0.5;"/>
    <path clip-path="url(#pac2f73cd03)" d="M 25.914608 82.205121 
L 29.58301 82.205121 
" style="fill:none;stroke:#000000;stroke-width:0.5;"/>
    <path clip-path="url(#pac2f73cd03)" d="M 21.506481 76.036142 
L 43.785713 76.036142 
" style="fill:none;stroke:#000000;stroke-width:0.5;"/>
    <path clip-path="url(#pac2f73cd03)" d="M 26.195678 80.916577 
L 30.645131 80.916577 
" style="fill:none;stroke:#000000;stroke-width:0.5;"/>
    <path clip-path="url(#pac2f73cd03)" d="M 24.300002 66.608831 
L 39.074719 66.608831 
" style="fill:none;stroke:#000000;stroke-width:0.5;"/>
    <path clip-path="url(#pac2f73cd03)" d="M 30.47028 33.574815 
L 41.380226 33.574815 
" style="fill:none;stroke:#000000;stroke-width:0.5;"/>
    <path clip-path="url(#pac2f73cd03)" d="M 25.978757 57.528307 
L 36.32836 57.528307 
" style="fill:none;stroke:#000000;stroke-width:0.5;"/>
    <path clip-path="url(#pac2f73cd03)" d="M 30.460114 56.89968 
L 46.6055 56.89968 
" style="fill:none;stroke:#000000;stroke-width:0.5;"/>
    <path clip-path="url(#pac2f73cd03)" d="M 31.463971 47.734618 
L 42.489797 47.734618 
" style="fill:none;stroke:#000000;stroke-width:0.5;"/>
    <path clip-path="url(#pac2f73cd03)" d="M 25.895639 67.213361 
L 32.097792 67.213361 
" style="fill:none;stroke:#000000;stroke-width:0.5;"/>
    <path clip-path="url(#pac2f73cd03)" d="M 25.379997 75.580788 
L 41.548731 75.580788 
" style="fill:none;stroke:#000000;stroke-width:0.5;"/>
    <path clip-path="url(#pac2f73cd03)" d="M 34.705702 33.601163 
L 60.077194 33.601163 
" style="fill:none;stroke:#000000;stroke-width:0.5;"/>
    <path clip-path="url(#pac2f73cd03)" d="M 26.476857 66.169479 
L 28.244973 66.169479 
" style="fill:none;stroke:#000000;stroke-width:0.5;"/>
    <path clip-path="url(#pac2f73cd03)" d="M 24.917357 79.774947 
L 36.664437 79.774947 
" style="fill:none;stroke:#000000;stroke-width:0.5;"/>
    <path clip-path="url(#pac2f73cd03)" d="M 25.649962 71.222429 
L 36.067764 71.222429 
" style="fill:none;stroke:#000000;stroke-width:0.5;"/>
    <path clip-path="url(#pac2f73cd03)" d="M 24.551621 74.189422 
L 32.826643 74.189422 
" style="fill:none;stroke:#000000;stroke-width:0.5;"/>
    <path clip-path="url(#pac2f73cd03)" d="M 25.269938 45.383567 
L 54.763472 45.383567 
" style="fill:none;stroke:#000000;stroke-width:0.5;"/>
    <path clip-path="url(#pac2f73cd03)" d="M 26.030361 69.835858 
L 40.194611 69.835858 
" style="fill:none;stroke:#000000;stroke-width:0.5;"/>
    <path clip-path="url(#pac2f73cd03)" d="M 25.602496 76.092554 
L 46.830736 76.092554 
" style="fill:none;stroke:#000000;stroke-width:0.5;"/>
    <path clip-path="url(#pac2f73cd03)" d="M 36.452774 26.642708 
L 62.597916 26.642708 
" style="fill:none;stroke:#000000;stroke-width:0.5;"/>
    <path clip-path="url(#pac2f73cd03)" d="M 26.038874 88.207583 
L 31.461264 88.207583 
" style="fill:none;stroke:#000000;stroke-width:0.5;"/>
    <path clip-path="url(#pac2f73cd03)" d="M 26.46528 69.226435 
L 38.61524 69.226435 
" style="fill:none;stroke:#000000;stroke-width:0.5;"/>
    <path clip-path="url(#pac2f73cd03)" d="M 26.76724 63.378098 
L 39.37616 63.378098 
" style="fill:none;stroke:#000000;stroke-width:0.5;"/>
    <path clip-path="url(#pac2f73cd03)" d="M 27.986772 55.221125 
L 36.319399 55.221125 
" style="fill:none;stroke:#000000;stroke-width:0.5;"/>
    <path clip-path="url(#pac2f73cd03)" d="M 33.112613 36.340112 
L 45.15231 36.340112 
" style="fill:none;stroke:#000000;stroke-width:0.5;"/>
    <path clip-path="url(#pac2f73cd03)" d="M 26.39712 58.585615 
L 38.960783 58.585615 
" style="fill:none;stroke:#000000;stroke-width:0.5;"/>
    <path clip-path="url(#pac2f73cd03)" d="M 28.007476 53.917659 
L 57.698669 53.917659 
" style="fill:none;stroke:#000000;stroke-width:0.5;"/>
   </g>
   <g id="LineCollection_2">
    <path clip-path="url(#pac2f73cd03)" d="M 29.668149 86.982118 
L 29.668149 72.539454 
" style="fill:none;stroke:#000000;stroke-width:0.5;"/>
    <path clip-path="url(#pac2f73cd03)" d="M 42.043875 44.524933 
L 42.043875 28.412926 
" style="fill:none;stroke:#000000;stroke-width:0.5;"/>
    <path clip-path="url(#pac2f73cd03)" d="M 28.167828 88.292517 
L 28.167828 85.487402 
" style="fill:none;stroke:#000000;stroke-width:0.5;"/>
    <path clip-path="url(#pac2f73cd03)" d="M 36.872898 55.337174 
L 36.872898 36.899974 
" style="fill:none;stroke:#000000;stroke-width:0.5;"/>
    <path clip-path="url(#pac2f73cd03)" d="M 27.748809 88.64066 
L 27.748809 75.769583 
" style="fill:none;stroke:#000000;stroke-width:0.5;"/>
    <path clip-path="url(#pac2f73cd03)" d="M 32.646097 88.133352 
L 32.646097 63.938932 
" style="fill:none;stroke:#000000;stroke-width:0.5;"/>
    <path clip-path="url(#pac2f73cd03)" d="M 28.420405 85.01836 
L 28.420405 76.814795 
" style="fill:none;stroke:#000000;stroke-width:0.5;"/>
    <path clip-path="url(#pac2f73cd03)" d="M 31.687361 72.772859 
L 31.687361 60.444803 
" style="fill:none;stroke:#000000;stroke-width:0.5;"/>
    <path clip-path="url(#pac2f73cd03)" d="M 35.925253 47.353138 
L 35.925253 19.796492 
" style="fill:none;stroke:#000000;stroke-width:0.5;"/>
    <path clip-path="url(#pac2f73cd03)" d="M 31.153559 67.073363 
L 31.153559 47.983251 
" style="fill:none;stroke:#000000;stroke-width:0.5;"/>
    <path clip-path="url(#pac2f73cd03)" d="M 38.532807 64.908084 
L 38.532807 48.891277 
" style="fill:none;stroke:#000000;stroke-width:0.5;"/>
    <path clip-path="url(#pac2f73cd03)" d="M 36.976884 56.606695 
L 36.976884 38.862541 
" style="fill:none;stroke:#000000;stroke-width:0.5;"/>
    <path clip-path="url(#pac2f73cd03)" d="M 28.996715 76.005369 
L 28.996715 58.421352 
" style="fill:none;stroke:#000000;stroke-width:0.5;"/>
    <path clip-path="url(#pac2f73cd03)" d="M 33.464364 83.447562 
L 33.464364 67.714014 
" style="fill:none;stroke:#000000;stroke-width:0.5;"/>
    <path clip-path="url(#pac2f73cd03)" d="M 47.391448 42.327195 
L 47.391448 24.875131 
" style="fill:none;stroke:#000000;stroke-width:0.5;"/>
    <path clip-path="url(#pac2f73cd03)" d="M 27.360915 79.715565 
L 27.360915 52.623393 
" style="fill:none;stroke:#000000;stroke-width:0.5;"/>
    <path clip-path="url(#pac2f73cd03)" d="M 30.790897 84.506827 
L 30.790897 75.043067 
" style="fill:none;stroke:#000000;stroke-width:0.5;"/>
    <path clip-path="url(#pac2f73cd03)" d="M 30.858863 74.684927 
L 30.858863 67.759931 
" style="fill:none;stroke:#000000;stroke-width:0.5;"/>
    <path clip-path="url(#pac2f73cd03)" d="M 28.689132 84.139533 
L 28.689132 64.239312 
" style="fill:none;stroke:#000000;stroke-width:0.5;"/>
    <path clip-path="url(#pac2f73cd03)" d="M 40.016705 55.303045 
L 40.016705 35.464089 
" style="fill:none;stroke:#000000;stroke-width:0.5;"/>
    <path clip-path="url(#pac2f73cd03)" d="M 33.112486 72.550027 
L 33.112486 67.121688 
" style="fill:none;stroke:#000000;stroke-width:0.5;"/>
    <path clip-path="url(#pac2f73cd03)" d="M 36.216616 81.873044 
L 36.216616 70.312063 
" style="fill:none;stroke:#000000;stroke-width:0.5;"/>
    <path clip-path="url(#pac2f73cd03)" d="M 49.525345 36.550237 
L 49.525345 16.73518 
" style="fill:none;stroke:#000000;stroke-width:0.5;"/>
    <path clip-path="url(#pac2f73cd03)" d="M 28.750069 92.238784 
L 28.750069 84.176382 
" style="fill:none;stroke:#000000;stroke-width:0.5;"/>
    <path clip-path="url(#pac2f73cd03)" d="M 32.54026 73.390125 
L 32.54026 65.062746 
" style="fill:none;stroke:#000000;stroke-width:0.5;"/>
    <path clip-path="url(#pac2f73cd03)" d="M 33.0717 70.883649 
L 33.0717 55.872546 
" style="fill:none;stroke:#000000;stroke-width:0.5;"/>
    <path clip-path="url(#pac2f73cd03)" d="M 32.153086 61.552978 
L 32.153086 48.889271 
" style="fill:none;stroke:#000000;stroke-width:0.5;"/>
    <path clip-path="url(#pac2f73cd03)" d="M 39.132461 44.10678 
L 39.132461 28.573445 
" style="fill:none;stroke:#000000;stroke-width:0.5;"/>
    <path clip-path="url(#pac2f73cd03)" d="M 32.678951 60.870626 
L 32.678951 56.300605 
" style="fill:none;stroke:#000000;stroke-width:0.5;"/>
    <path clip-path="url(#pac2f73cd03)" d="M 42.853072 64.769792 
L 42.853072 43.065526 
" style="fill:none;stroke:#000000;stroke-width:0.5;"/>
   </g>
   <g id="line2d_1">
    <path clip-path="url(#pac2f73cd03)" d="M 27 80.070432 
L 27.768595 78.158947 
L 28.53719 76.247461 
L 29.305785 74.335976 
L 30.07438 72.424491 
L 30.842975 70.513005 
L 31.61157 68.60152 
L 32.380165 66.690035 
L 33.14876 64.77855 
L 33.917355 62.867064 
L 34.68595 60.955579 
L 35.454545 59.044094 
L 36.22314 57.132609 
L 36.991736 55.221123 
L 37.760331 53.309638 
L 38.528926 51.398153 
L 39.297521 49.486668 
L 40.066116 47.575182 
L 40.834711 45.663697 
L 41.603306 43.752212 
L 42.371901 41.840726 
L 43.140496 39.929241 
L 43.909091 38.017756 
L 44.677686 36.106271 
L 45.446281 34.194785 
L 46.214876 32.2833 
L 46.983471 30.371815 
L 47.752066 28.46033 
L 48.520661 26.548844 
L 49.289256 24.637359 
L 50.057851 22.725874 
L 50.826446 20.814389 
L 51.595041 18.902903 
L 52.363636 16.991418 
L 53.132231 15.079933 
L 53.900826 13.168447 
L 54.669421 11.256962 
L 55.438017 9.345477 
L 56.206612 7.433992 
L 56.975207 5.522506 
L 57.743802 3.611021 
L 58.512397 1.699536 
L 59.280992 -0.211949 
L 59.597861 -1 
" style="fill:none;stroke:#000000;stroke-dasharray:1.85,0.8;stroke-dashoffset:0;stroke-width:0.5;"/>
   </g>
   <g id="line2d_2">
    <defs>
     <path d="M 0 3 
C 0.795609 3 1.55874 2.683901 2.12132 2.12132 
C 2.683901 1.55874 3 0.795609 3 0 
C 3 -0.795609 2.683901 -1.55874 2.12132 -2.12132 
C 1.55874 -2.683901 0.795609 -3 0 -3 
C -0.795609 -3 -1.55874 -2.683901 -2.12132 -2.12132 
C -2.683901 -1.55874 -3 -0.795609 -3 0 
C -3 0.795609 -2.683901 1.55874 -2.12132 2.12132 
C -1.55874 2.683901 -0.795609 3 0 3 
z
" id="mabcd4383c9" style="stroke:#000000;"/>
    </defs>
    <g clip-path="url(#pac2f73cd03)">
     <use style="stroke:#000000;" x="29.668149" xlink:href="#mabcd4383c9" y="79.760786"/>
     <use style="stroke:#000000;" x="42.043875" xlink:href="#mabcd4383c9" y="36.46893"/>
     <use style="stroke:#000000;" x="28.167828" xlink:href="#mabcd4383c9" y="86.889959"/>
     <use style="stroke:#000000;" x="36.872898" xlink:href="#mabcd4383c9" y="46.118574"/>
     <use style="stroke:#000000;" x="27.748809" xlink:href="#mabcd4383c9" y="82.205121"/>
     <use style="stroke:#000000;" x="32.646097" xlink:href="#mabcd4383c9" y="76.036142"/>
     <use style="stroke:#000000;" x="28.420405" xlink:href="#mabcd4383c9" y="80.916577"/>
     <use style="stroke:#000000;" x="31.687361" xlink:href="#mabcd4383c9" y="66.608831"/>
     <use style="stroke:#000000;" x="35.925253" xlink:href="#mabcd4383c9" y="33.574815"/>
     <use style="stroke:#000000;" x="31.153559" xlink:href="#mabcd4383c9" y="57.528307"/>
     <use style="stroke:#000000;" x="38.532807" xlink:href="#mabcd4383c9" y="56.89968"/>
     <use style="stroke:#000000;" x="36.976884" xlink:href="#mabcd4383c9" y="47.734618"/>
     <use style="stroke:#000000;" x="28.996715" xlink:href="#mabcd4383c9" y="67.213361"/>
     <use style="stroke:#000000;" x="33.464364" xlink:href="#mabcd4383c9" y="75.580788"/>
     <use style="stroke:#000000;" x="47.391448" xlink:href="#mabcd4383c9" y="33.601163"/>
     <use style="stroke:#000000;" x="27.360915" xlink:href="#mabcd4383c9" y="66.169479"/>
     <use style="stroke:#000000;" x="30.790897" xlink:href="#mabcd4383c9" y="79.774947"/>
     <use style="stroke:#000000;" x="30.858863" xlink:href="#mabcd4383c9" y="71.222429"/>
     <use style="stroke:#000000;" x="28.689132" xlink:href="#mabcd4383c9" y="74.189422"/>
     <use style="stroke:#000000;" x="40.016705" xlink:href="#mabcd4383c9" y="45.383567"/>
     <use style="stroke:#000000;" x="33.112486" xlink:href="#mabcd4383c9" y="69.835858"/>
     <use style="stroke:#000000;" x="36.216616" xlink:href="#mabcd4383c9" y="76.092554"/>
     <use style="stroke:#000000;" x="49.525345" xlink:href="#mabcd4383c9" y="26.642708"/>
     <use style="stroke:#000000;" x="28.750069" xlink:href="#mabcd4383c9" y="88.207583"/>
     <use style="stroke:#000000;" x="32.54026" xlink:href="#mabcd4383c9" y="69.226435"/>
     <use style="stroke:#000000;" x="33.0717" xlink:href="#mabcd4383c9" y="63.378098"/>
     <use style="stroke:#000000;" x="32.153086" xlink:href="#mabcd4383c9" y="55.221125"/>
     <use style="stroke:#000000;" x="39.132461" xlink:href="#mabcd4383c9" y="36.340112"/>
     <use style="stroke:#000000;" x="32.678951" xlink:href="#mabcd4383c9" y="58.585615"/>
     <use style="stroke:#000000;" x="42.853072" xlink:href="#mabcd4383c9" y="53.917659"/>
    </g>
   </g>
   <g id="patch_3">
    <path d="M 27 94.5 
L 27 12.96 
" style="fill:none;stroke:#000000;stroke-linecap:square;stroke-linejoin:miter;"/>
   </g>
   <g id="patch_4">
    <path d="M 27 94.5 
L 103.090909 94.5 
" style="fill:none;stroke:#000000;stroke-linecap:square;stroke-linejoin:miter;"/>
   </g>
   <g id="matplotlib.axis_1">
    <g id="xtick_1">
     <g id="line2d_3"/>
     <g id="text_1">
      <text style="font-family:Arial;font-size:8px;font-style:normal;font-weight:normal;text-anchor:middle;" transform="rotate(-0, 27, 103.72625)" x="27" y="103.72625">0</text>
     </g>
    </g>
    <g id="xtick_2">
     <g id="line2d_4"/>
     <g id="text_2">
      <text style="font-family:Arial;font-size:8px;font-style:normal;font-weight:normal;text-anchor:middle;" transform="rotate(-0, 77.40643, 103.72625)" x="77.40643" y="103.72625">5</text>
     </g>
    </g>
    <g id="text_3">
     <text style="font-family:Arial;font-size:10px;font-style:normal;font-weight:normal;text-anchor:middle;" transform="rotate(-0, 65.045455, 116.474063)" x="65.045455" y="116.474063">Exc</text>
    </g>
   </g>
   <g id="matplotlib.axis_2">
    <g id="ytick_1">
     <g id="line2d_5"/>
     <g id="text_4">
      <text style="font-family:Arial;font-size:8px;font-style:normal;font-weight:normal;text-anchor:end;" transform="rotate(-0, 23.5, 97.363125)" x="23.5" y="97.363125">0</text>
     </g>
    </g>
    <g id="ytick_2">
     <g id="line2d_6"/>
     <g id="text_5">
      <text style="font-family:Arial;font-size:8px;font-style:normal;font-weight:normal;text-anchor:end;" transform="rotate(-0, 23.5, 75.756653)" x="23.5" y="75.756653">2</text>
     </g>
    </g>
    <g id="ytick_3">
     <g id="line2d_7"/>
     <g id="text_6">
      <text style="font-family:Arial;font-size:8px;font-style:normal;font-weight:normal;text-anchor:end;" transform="rotate(-0, 23.5, 54.15018)" x="23.5" y="54.15018">4</text>
     </g>
    </g>
    <g id="ytick_4">
     <g id="line2d_8"/>
     <g id="text_7">
      <text style="font-family:Arial;font-size:8px;font-style:normal;font-weight:normal;text-anchor:end;" transform="rotate(-0, 23.5, 32.543708)" x="23.5" y="32.543708">6</text>
     </g>
    </g>
    <g id="text_8">
     <text style="font-family:Arial;font-size:10px;font-style:normal;font-weight:normal;text-anchor:middle;" transform="rotate(-90, 13.06375, 53.73)" x="13.06375" y="53.73">Inh</text>
    </g>
   </g>
   <g id="legend_1">
    <g id="line2d_9">
     <path d="M 36 75.622656 
L 56 75.622656 
" style="fill:none;stroke:#000000;stroke-dasharray:1.85,0.8;stroke-dashoffset:0;stroke-width:0.5;"/>
    </g>
    <g id="line2d_10"/>
    <g id="text_9">
     <!-- $R^2$ 0.68 -->
     <g transform="translate(64 72.875)">
      <text>
       <tspan style="font-family:DejaVu Sans;font-size:10px;font-style:oblique;font-weight:oblique;" x="0" y="-0.9765625">R</tspan>
       <tspan style="font-family:DejaVu Sans;font-size:7px;font-style:book;font-weight:book;" x="7.650794" y="-4.8046875">2</tspan>
       <tspan style="font-family:Arial;font-size:10px;font-style:regular;font-weight:regular;" x="12.377845 15.156165 20.717689 23.496009 29.057533" y="-0.9765625"> 0.68</tspan>
      </text>
     </g>
     <text style="font-family:Arial;font-size:10px;font-style:normal;font-weight:normal;" transform="translate(64 83.4875)"> slope 2.32</text>
    </g>
   </g>
  </g>
  <g id="axes_2">
   <g id="patch_5">
    <path d="M 118.309091 94.5 
L 194.4 94.5 
L 194.4 12.96 
L 118.309091 12.96 
z
" style="fill:#ffffff;"/>
   </g>
   <g id="PathCollection_1">
    <defs>
     <path d="M 0 2.44949 
C 0.649612 2.44949 1.272706 2.191396 1.732051 1.732051 
C 2.191396 1.272706 2.44949 0.649612 2.44949 0 
C 2.44949 -0.649612 2.191396 -1.272706 1.732051 -1.732051 
C 1.272706 -2.191396 0.649612 -2.44949 0 -2.44949 
C -0.649612 -2.44949 -1.272706 -2.191396 -1.732051 -1.732051 
C -2.191396 -1.272706 -2.44949 -0.649612 -2.44949 0 
C -2.44949 0.649612 -2.191396 1.272706 -1.732051 1.732051 
C -1.272706 2.191396 -0.649612 2.44949 0 2.44949 
z
" id="mb39c4a5089" style="stroke:#000000;"/>
    </defs>
    <g clip-path="url(#peca711b6af)">
     <use style="stroke:#000000;" x="140.21566" xlink:href="#mb39c4a5089" y="59.550763"/>
     <use style="stroke:#000000;" x="186.722058" xlink:href="#mb39c4a5089" y="55.511187"/>
     <use style="stroke:#000000;" x="127.196289" xlink:href="#mb39c4a5089" y="87.712011"/>
     <use style="stroke:#000000;" x="139.510133" xlink:href="#mb39c4a5089" y="49.884544"/>
     <use style="stroke:#000000;" x="127.186112" xlink:href="#mb39c4a5089" y="63.353785"/>
     <use style="stroke:#000000;" x="172.221729" xlink:href="#mb39c4a5089" y="35.952874"/>
     <use style="stroke:#000000;" x="129.076147" xlink:href="#mb39c4a5089" y="74.648515"/>
     <use style="stroke:#000000;" x="154.061848" xlink:href="#mb39c4a5089" y="64.667822"/>
     <use style="stroke:#000000;" x="144.709641" xlink:href="#mb39c4a5089" y="27.816756"/>
     <use style="stroke:#000000;" x="143.35369" xlink:href="#mb39c4a5089" y="48.304589"/>
     <use style="stroke:#000000;" x="157.378676" xlink:href="#mb39c4a5089" y="55.741558"/>
     <use style="stroke:#000000;" x="144.990054" xlink:href="#mb39c4a5089" y="51.56162"/>
     <use style="stroke:#000000;" x="133.317439" xlink:href="#mb39c4a5089" y="51.949127"/>
     <use style="stroke:#000000;" x="157.435176" xlink:href="#mb39c4a5089" y="56.427004"/>
     <use style="stroke:#000000;" x="179.704568" xlink:href="#mb39c4a5089" y="52.268436"/>
     <use style="stroke:#000000;" x="122.587686" xlink:href="#mb39c4a5089" y="28.940718"/>
     <use style="stroke:#000000;" x="146.73539" xlink:href="#mb39c4a5089" y="71.599017"/>
     <use style="stroke:#000000;" x="143.518721" xlink:href="#mb39c4a5089" y="77.742474"/>
     <use style="stroke:#000000;" x="138.333491" xlink:href="#mb39c4a5089" y="46.344237"/>
     <use style="stroke:#000000;" x="189.679336" xlink:href="#mb39c4a5089" y="46.492489"/>
     <use style="stroke:#000000;" x="152.584603" xlink:href="#mb39c4a5089" y="81.364177"/>
     <use style="stroke:#000000;" x="169.678473" xlink:href="#mb39c4a5089" y="66.524036"/>
     <use style="stroke:#000000;" x="181.576693" xlink:href="#mb39c4a5089" y="46.550323"/>
     <use style="stroke:#000000;" x="131.430519" xlink:href="#mb39c4a5089" y="74.990112"/>
     <use style="stroke:#000000;" x="147.710302" xlink:href="#mb39c4a5089" y="74.348904"/>
     <use style="stroke:#000000;" x="148.820919" xlink:href="#mb39c4a5089" y="58.175221"/>
     <use style="stroke:#000000;" x="138.472888" xlink:href="#mb39c4a5089" y="63.855593"/>
     <use style="stroke:#000000;" x="147.44348" xlink:href="#mb39c4a5089" y="56.911492"/>
     <use style="stroke:#000000;" x="148.711405" xlink:href="#mb39c4a5089" y="83.441185"/>
     <use style="stroke:#000000;" x="190.157645" xlink:href="#mb39c4a5089" y="41.978701"/>
    </g>
   </g>
   <g id="line2d_11">
    <path clip-path="url(#peca711b6af)" d="M 118.309091 65.773358 
L 119.077686 65.602834 
L 119.846281 65.43231 
L 120.614876 65.261786 
L 121.383471 65.091262 
L 122.152066 64.920738 
L 122.920661 64.750214 
L 123.689256 64.57969 
L 124.457851 64.409167 
L 125.226446 64.238643 
L 125.995041 64.068119 
L 126.763636 63.897595 
L 127.532231 63.727071 
L 128.300826 63.556547 
L 129.069421 63.386023 
L 129.838017 63.215499 
L 130.606612 63.044976 
L 131.375207 62.874452 
L 132.143802 62.703928 
L 132.912397 62.533404 
L 133.680992 62.36288 
L 134.449587 62.192356 
L 135.218182 62.021832 
L 135.986777 61.851308 
L 136.755372 61.680785 
L 137.523967 61.510261 
L 138.292562 61.339737 
L 139.061157 61.169213 
L 139.829752 60.998689 
L 140.598347 60.828165 
L 141.366942 60.657641 
L 142.135537 60.487118 
L 142.904132 60.316594 
L 143.672727 60.14607 
L 144.441322 59.975546 
L 145.209917 59.805022 
L 145.978512 59.634498 
L 146.747107 59.463974 
L 147.515702 59.29345 
L 148.284298 59.122927 
L 149.052893 58.952403 
L 149.821488 58.781879 
L 150.590083 58.611355 
L 151.358678 58.440831 
L 152.127273 58.270307 
L 152.895868 58.099783 
L 153.664463 57.929259 
L 154.433058 57.758736 
L 155.201653 57.588212 
L 155.970248 57.417688 
L 156.738843 57.247164 
L 157.507438 57.07664 
L 158.276033 56.906116 
L 159.044628 56.735592 
L 159.813223 56.565068 
L 160.581818 56.394545 
L 161.350413 56.224021 
L 162.119008 56.053497 
L 162.887603 55.882973 
L 163.656198 55.712449 
L 164.424793 55.541925 
L 165.193388 55.371401 
L 165.961983 55.200877 
L 166.730579 55.030354 
L 167.499174 54.85983 
L 168.267769 54.689306 
L 169.036364 54.518782 
L 169.804959 54.348258 
L 170.573554 54.177734 
L 171.342149 54.00721 
L 172.110744 53.836686 
L 172.879339 53.666163 
L 173.647934 53.495639 
L 174.416529 53.325115 
L 175.185124 53.154591 
L 175.953719 52.984067 
L 176.722314 52.813543 
L 177.490909 52.643019 
L 178.259504 52.472495 
L 179.028099 52.301972 
L 179.796694 52.131448 
L 180.565289 51.960924 
L 181.333884 51.7904 
L 182.102479 51.619876 
L 182.871074 51.449352 
L 183.639669 51.278828 
L 184.408264 51.108304 
L 185.17686 50.937781 
L 185.945455 50.767257 
L 186.71405 50.596733 
L 187.482645 50.426209 
L 188.25124 50.255685 
L 189.019835 50.085161 
L 189.78843 49.914637 
L 190.557025 49.744113 
L 191.32562 49.57359 
L 192.094215 49.403066 
L 192.86281 49.232542 
L 193.631405 49.062018 
L 194.4 48.891494 
" style="fill:none;stroke:#000000;stroke-dasharray:1.85,0.8;stroke-dashoffset:0;stroke-width:0.5;"/>
   </g>
   <g id="patch_6">
    <path d="M 118.309091 94.5 
L 118.309091 12.96 
" style="fill:none;stroke:#000000;stroke-linecap:square;stroke-linejoin:miter;"/>
   </g>
   <g id="patch_7">
    <path d="M 118.309091 94.5 
L 194.4 94.5 
" style="fill:none;stroke:#000000;stroke-linecap:square;stroke-linejoin:miter;"/>
   </g>
   <g id="matplotlib.axis_3">
    <g id="xtick_3">
     <g id="line2d_12"/>
     <g id="text_10">
      <text style="font-family:Arial;font-size:8px;font-style:normal;font-weight:normal;text-anchor:middle;" transform="rotate(-0, 118.309091, 103.72625)" x="118.309091" y="103.72625">0</text>
     </g>
    </g>
    <g id="xtick_4">
     <g id="line2d_13"/>
     <g id="text_11">
      <text style="font-family:Arial;font-size:8px;font-style:normal;font-weight:normal;text-anchor:middle;" transform="rotate(-0, 167.099707, 103.72625)" x="167.099707" y="103.72625">1</text>
     </g>
    </g>
    <g id="text_12">
     <!-- $\sigma$(Exc) -->
     <g transform="translate(141.504545 116.61625)">
      <text>
       <tspan style="font-family:DejaVu Sans;font-size:10px;font-style:oblique;font-weight:oblique;" x="0" y="-0.71875">σ</tspan>
       <tspan style="font-family:Arial;font-size:10px;font-style:regular;font-weight:regular;" x="6.337891 9.667969 16.337891 21.337891 26.337891" y="-0.71875">(Exc)</tspan>
      </text>
     </g>
    </g>
   </g>
   <g id="matplotlib.axis_4">
    <g id="ytick_5">
     <g id="line2d_14"/>
     <g id="text_13">
      <text style="font-family:Arial;font-size:8px;font-style:normal;font-weight:normal;text-anchor:end;" transform="rotate(-0, 114.809091, 97.363125)" x="114.809091" y="97.363125">0.0</text>
     </g>
    </g>
    <g id="ytick_6">
     <g id="line2d_15"/>
     <g id="text_14">
      <text style="font-family:Arial;font-size:8px;font-style:normal;font-weight:normal;text-anchor:end;" transform="rotate(-0, 114.809091, 71.220798)" x="114.809091" y="71.220798">0.5</text>
     </g>
    </g>
    <g id="ytick_7">
     <g id="line2d_16"/>
     <g id="text_15">
      <text style="font-family:Arial;font-size:8px;font-style:normal;font-weight:normal;text-anchor:end;" transform="rotate(-0, 114.809091, 45.078471)" x="114.809091" y="45.078471">1.0</text>
     </g>
    </g>
    <g id="ytick_8">
     <g id="line2d_17"/>
     <g id="text_16">
      <text style="font-family:Arial;font-size:8px;font-style:normal;font-weight:normal;text-anchor:end;" transform="rotate(-0, 114.809091, 18.936144)" x="114.809091" y="18.936144">1.5</text>
     </g>
    </g>
    <g id="text_17">
     <!-- $\sigma$(Inh) -->
     <g transform="translate(97.489091 67.18)rotate(-90)">
      <text>
       <tspan style="font-family:DejaVu Sans;font-size:10px;font-style:oblique;font-weight:oblique;" x="0" y="-0.71875">σ</tspan>
       <tspan style="font-family:Arial;font-size:10px;font-style:regular;font-weight:regular;" x="6.337891 9.667969 12.446289 18.007812 23.569336" y="-0.71875">(Inh)</tspan>
      </text>
     </g>
    </g>
   </g>
   <g id="legend_2">
    <g id="line2d_18">
     <path d="M 108.478125 31.995156 
L 128.478125 31.995156 
" style="fill:none;stroke:#000000;stroke-dasharray:1.85,0.8;stroke-dashoffset:0;stroke-width:0.5;"/>
    </g>
    <g id="line2d_19"/>
    <g id="text_18">
     <!-- $R^2$ 0.08 -->
     <g transform="translate(136.478125 29.2475)">
      <text>
       <tspan style="font-family:DejaVu Sans;font-size:10px;font-style:oblique;font-weight:oblique;" x="0" y="-0.9765625">R</tspan>
       <tspan style="font-family:DejaVu Sans;font-size:7px;font-style:book;font-weight:book;" x="7.650794" y="-4.8046875">2</tspan>
       <tspan style="font-family:Arial;font-size:10px;font-style:regular;font-weight:regular;" x="12.377845 15.156165 20.717689 23.496009 29.057533" y="-0.9765625"> 0.08</tspan>
      </text>
     </g>
     <text style="font-family:Arial;font-size:10px;font-style:normal;font-weight:normal;" transform="translate(136.478125 39.86)"> slope 0.21</text>
    </g>
   </g>
  </g>
 </g>
 <defs>
  <clipPath id="pac2f73cd03">
   <rect height="81.54" width="76.090909" x="27" y="12.96"/>
  </clipPath>
  <clipPath id="peca711b6af">
   <rect height="81.54" width="76.090909" x="118.309091" y="12.96"/>
  </clipPath>
 </defs>
</svg>
