<?xml version="1.0" encoding="utf-8" standalone="no"?>
<!DOCTYPE svg PUBLIC "-//W3C//DTD SVG 1.1//EN"
  "http://www.w3.org/Graphics/SVG/1.1/DTD/svg11.dtd">
<!-- Created with matplotlib (http://matplotlib.org/) -->
<svg height="108pt" version="1.1" viewBox="0 0 216 108" width="216pt" xmlns="http://www.w3.org/2000/svg" xmlns:xlink="http://www.w3.org/1999/xlink">
 <defs>
  <style type="text/css">
*{stroke-linecap:butt;stroke-linejoin:round;}
  </style>
 </defs>
 <g id="figure_1">
  <g id="patch_1">
   <path d="M 0 108 
L 216 108 
L 216 0 
L 0 0 
z
" style="fill:#ffffff;"/>
  </g>
  <g id="axes_1">
   <g id="patch_2">
    <path d="M 27 94.5 
L 103.090909 94.5 
L 103.090909 12.96 
L 27 12.96 
z
" style="fill:#ffffff;"/>
   </g>
   <g id="LineCollection_1">
    <path clip-path="url(#p1738285ee9)" d="M 34.773784 41.747351 
L 49.036346 41.747351 
" style="fill:none;stroke:#000000;stroke-width:0.5;"/>
    <path clip-path="url(#p1738285ee9)" d="M 26.934777 82.69718 
L 30.211487 82.69718 
" style="fill:none;stroke:#000000;stroke-width:0.5;"/>
    <path clip-path="url(#p1738285ee9)" d="M 25.023405 70.377664 
L 38.136426 70.377664 
" style="fill:none;stroke:#000000;stroke-width:0.5;"/>
    <path clip-path="url(#p1738285ee9)" d="M 26.409394 75.856657 
L 33.911421 75.856657 
" style="fill:none;stroke:#000000;stroke-width:0.5;"/>
    <path clip-path="url(#p1738285ee9)" d="M 26.922704 60.164579 
L 37.236029 60.164579 
" style="fill:none;stroke:#000000;stroke-width:0.5;"/>
    <path clip-path="url(#p1738285ee9)" d="M 26.241464 77.884017 
L 34.202347 77.884017 
" style="fill:none;stroke:#000000;stroke-width:0.5;"/>
    <path clip-path="url(#p1738285ee9)" d="M 21.584232 39.910508 
L 63.610344 39.910508 
" style="fill:none;stroke:#000000;stroke-width:0.5;"/>
    <path clip-path="url(#p1738285ee9)" d="M 27.871785 85.678678 
L 30.891806 85.678678 
" style="fill:none;stroke:#000000;stroke-width:0.5;"/>
    <path clip-path="url(#p1738285ee9)" d="M 26.892943 77.233013 
L 35.951699 77.233013 
" style="fill:none;stroke:#000000;stroke-width:0.5;"/>
    <path clip-path="url(#p1738285ee9)" d="M 26.80508 59.56387 
L 39.572122 59.56387 
" style="fill:none;stroke:#000000;stroke-width:0.5;"/>
    <path clip-path="url(#p1738285ee9)" d="M 26.745462 81.868944 
L 36.784626 81.868944 
" style="fill:none;stroke:#000000;stroke-width:0.5;"/>
    <path clip-path="url(#p1738285ee9)" d="M 33.09888 51.382282 
L 36.822986 51.382282 
" style="fill:none;stroke:#000000;stroke-width:0.5;"/>
    <path clip-path="url(#p1738285ee9)" d="M 27 94.5 
L 27 94.5 
" style="fill:none;stroke:#000000;stroke-width:0.5;"/>
    <path clip-path="url(#p1738285ee9)" d="M 26.460973 78.727914 
L 29.502006 78.727914 
" style="fill:none;stroke:#000000;stroke-width:0.5;"/>
    <path clip-path="url(#p1738285ee9)" d="M 27.348124 73.933599 
L 31.094099 73.933599 
" style="fill:none;stroke:#000000;stroke-width:0.5;"/>
    <path clip-path="url(#p1738285ee9)" d="M 25.915764 61.928518 
L 42.780868 61.928518 
" style="fill:none;stroke:#000000;stroke-width:0.5;"/>
    <path clip-path="url(#p1738285ee9)" d="M 26.45305 82.801539 
L 28.301628 82.801539 
" style="fill:none;stroke:#000000;stroke-width:0.5;"/>
    <path clip-path="url(#p1738285ee9)" d="M 26.103679 77.051867 
L 33.15348 77.051867 
" style="fill:none;stroke:#000000;stroke-width:0.5;"/>
    <path clip-path="url(#p1738285ee9)" d="M 25.932883 87.45307 
L 29.53952 87.45307 
" style="fill:none;stroke:#000000;stroke-width:0.5;"/>
    <path clip-path="url(#p1738285ee9)" d="M 26.563343 87.613879 
L 29.272232 87.613879 
" style="fill:none;stroke:#000000;stroke-width:0.5;"/>
    <path clip-path="url(#p1738285ee9)" d="M 27.123023 83.085553 
L 30.747744 83.085553 
" style="fill:none;stroke:#000000;stroke-width:0.5;"/>
    <path clip-path="url(#p1738285ee9)" d="M 27.005099 75.14511 
L 33.664104 75.14511 
" style="fill:none;stroke:#000000;stroke-width:0.5;"/>
    <path clip-path="url(#p1738285ee9)" d="M 27.947746 67.383856 
L 36.523792 67.383856 
" style="fill:none;stroke:#000000;stroke-width:0.5;"/>
    <path clip-path="url(#p1738285ee9)" d="M 27.626476 70.585957 
L 42.967943 70.585957 
" style="fill:none;stroke:#000000;stroke-width:0.5;"/>
    <path clip-path="url(#p1738285ee9)" d="M 26.023831 82.772062 
L 30.305992 82.772062 
" style="fill:none;stroke:#000000;stroke-width:0.5;"/>
    <path clip-path="url(#p1738285ee9)" d="M 26.304237 70.171903 
L 41.426552 70.171903 
" style="fill:none;stroke:#000000;stroke-width:0.5;"/>
    <path clip-path="url(#p1738285ee9)" d="M 25.994695 62.547557 
L 31.707674 62.547557 
" style="fill:none;stroke:#000000;stroke-width:0.5;"/>
    <path clip-path="url(#p1738285ee9)" d="M 26.831648 88.097384 
L 30.692929 88.097384 
" style="fill:none;stroke:#000000;stroke-width:0.5;"/>
    <path clip-path="url(#p1738285ee9)" d="M 28.002401 79.267063 
L 36.012385 79.267063 
" style="fill:none;stroke:#000000;stroke-width:0.5;"/>
    <path clip-path="url(#p1738285ee9)" d="M 26.907839 87.222012 
L 30.961293 87.222012 
" style="fill:none;stroke:#000000;stroke-width:0.5;"/>
   </g>
   <g id="LineCollection_2">
    <path clip-path="url(#p1738285ee9)" d="M 41.905065 52.716141 
L 41.905065 30.778561 
" style="fill:none;stroke:#000000;stroke-width:0.5;"/>
    <path clip-path="url(#p1738285ee9)" d="M 28.573132 86.333061 
L 28.573132 79.061299 
" style="fill:none;stroke:#000000;stroke-width:0.5;"/>
    <path clip-path="url(#p1738285ee9)" d="M 31.579916 77.365209 
L 31.579916 63.39012 
" style="fill:none;stroke:#000000;stroke-width:0.5;"/>
    <path clip-path="url(#p1738285ee9)" d="M 30.160407 84.029378 
L 30.160407 67.683937 
" style="fill:none;stroke:#000000;stroke-width:0.5;"/>
    <path clip-path="url(#p1738285ee9)" d="M 32.079366 64.946795 
L 32.079366 55.382362 
" style="fill:none;stroke:#000000;stroke-width:0.5;"/>
    <path clip-path="url(#p1738285ee9)" d="M 30.221906 80.120727 
L 30.221906 75.647308 
" style="fill:none;stroke:#000000;stroke-width:0.5;"/>
    <path clip-path="url(#p1738285ee9)" d="M 42.597288 62.978158 
L 42.597288 16.842857 
" style="fill:none;stroke:#000000;stroke-width:0.5;"/>
    <path clip-path="url(#p1738285ee9)" d="M 29.381795 88.76858 
L 29.381795 82.588777 
" style="fill:none;stroke:#000000;stroke-width:0.5;"/>
    <path clip-path="url(#p1738285ee9)" d="M 31.422321 79.82478 
L 31.422321 74.641245 
" style="fill:none;stroke:#000000;stroke-width:0.5;"/>
    <path clip-path="url(#p1738285ee9)" d="M 33.188601 63.525718 
L 33.188601 55.602023 
" style="fill:none;stroke:#000000;stroke-width:0.5;"/>
    <path clip-path="url(#p1738285ee9)" d="M 31.765044 87.576804 
L 31.765044 76.161084 
" style="fill:none;stroke:#000000;stroke-width:0.5;"/>
    <path clip-path="url(#p1738285ee9)" d="M 34.960933 60.040237 
L 34.960933 42.724327 
" style="fill:none;stroke:#000000;stroke-width:0.5;"/>
    <path clip-path="url(#p1738285ee9)" d="M 27 94.5 
L 27 94.5 
" style="fill:none;stroke:#000000;stroke-width:0.5;"/>
    <path clip-path="url(#p1738285ee9)" d="M 27.981489 85.186825 
L 27.981489 72.269003 
" style="fill:none;stroke:#000000;stroke-width:0.5;"/>
    <path clip-path="url(#p1738285ee9)" d="M 29.221112 75.653305 
L 29.221112 72.213893 
" style="fill:none;stroke:#000000;stroke-width:0.5;"/>
    <path clip-path="url(#p1738285ee9)" d="M 34.348316 65.721852 
L 34.348316 58.135184 
" style="fill:none;stroke:#000000;stroke-width:0.5;"/>
    <path clip-path="url(#p1738285ee9)" d="M 27.377339 82.801539 
L 27.377339 82.801539 
" style="fill:none;stroke:#000000;stroke-width:0.5;"/>
    <path clip-path="url(#p1738285ee9)" d="M 29.628579 79.85637 
L 29.628579 74.247365 
" style="fill:none;stroke:#000000;stroke-width:0.5;"/>
    <path clip-path="url(#p1738285ee9)" d="M 27.736202 89.737551 
L 27.736202 85.16859 
" style="fill:none;stroke:#000000;stroke-width:0.5;"/>
    <path clip-path="url(#p1738285ee9)" d="M 27.917788 88.396653 
L 27.917788 86.831104 
" style="fill:none;stroke:#000000;stroke-width:0.5;"/>
    <path clip-path="url(#p1738285ee9)" d="M 28.935383 83.600561 
L 28.935383 82.570546 
" style="fill:none;stroke:#000000;stroke-width:0.5;"/>
    <path clip-path="url(#p1738285ee9)" d="M 30.334601 77.707719 
L 30.334601 72.582502 
" style="fill:none;stroke:#000000;stroke-width:0.5;"/>
    <path clip-path="url(#p1738285ee9)" d="M 32.235769 70.874505 
L 32.235769 63.893207 
" style="fill:none;stroke:#000000;stroke-width:0.5;"/>
    <path clip-path="url(#p1738285ee9)" d="M 35.297209 80.094327 
L 35.297209 61.077587 
" style="fill:none;stroke:#000000;stroke-width:0.5;"/>
    <path clip-path="url(#p1738285ee9)" d="M 28.164911 85.013241 
L 28.164911 80.530882 
" style="fill:none;stroke:#000000;stroke-width:0.5;"/>
    <path clip-path="url(#p1738285ee9)" d="M 33.865395 79.960651 
L 33.865395 60.383155 
" style="fill:none;stroke:#000000;stroke-width:0.5;"/>
    <path clip-path="url(#p1738285ee9)" d="M 28.851184 69.972435 
L 28.851184 55.122679 
" style="fill:none;stroke:#000000;stroke-width:0.5;"/>
    <path clip-path="url(#p1738285ee9)" d="M 28.762289 89.836738 
L 28.762289 86.358029 
" style="fill:none;stroke:#000000;stroke-width:0.5;"/>
    <path clip-path="url(#p1738285ee9)" d="M 32.007393 81.801636 
L 32.007393 76.73249 
" style="fill:none;stroke:#000000;stroke-width:0.5;"/>
    <path clip-path="url(#p1738285ee9)" d="M 28.934566 90.91353 
L 28.934566 83.530493 
" style="fill:none;stroke:#000000;stroke-width:0.5;"/>
   </g>
   <g id="line2d_1">
    <path clip-path="url(#p1738285ee9)" d="M 27 86.888725 
L 27.768595 84.505724 
L 28.53719 82.122722 
L 29.305785 79.73972 
L 30.07438 77.356718 
L 30.842975 74.973717 
L 31.61157 72.590715 
L 32.380165 70.207713 
L 33.14876 67.824712 
L 33.917355 65.44171 
L 34.68595 63.058708 
L 35.454545 60.675706 
L 36.22314 58.292705 
L 36.991736 55.909703 
L 37.760331 53.526701 
L 38.528926 51.143699 
L 39.297521 48.760698 
L 40.066116 46.377696 
L 40.834711 43.994694 
L 41.603306 41.611693 
L 42.371901 39.228691 
L 43.140496 36.845689 
L 43.909091 34.462687 
L 44.677686 32.079686 
L 45.446281 29.696684 
L 46.214876 27.313682 
L 46.983471 24.93068 
L 47.752066 22.547679 
L 48.520661 20.164677 
L 49.289256 17.781675 
L 50.057851 15.398674 
L 50.826446 13.015672 
L 51.595041 10.63267 
L 52.363636 8.249668 
L 53.132231 5.866667 
L 53.900826 3.483665 
L 54.669421 1.100663 
L 55.346953 -1 
" style="fill:none;stroke:#000000;stroke-dasharray:1.85,0.8;stroke-dashoffset:0;stroke-width:0.5;"/>
   </g>
   <g id="line2d_2">
    <defs>
     <path d="M 0 3 
C 0.795609 3 1.55874 2.683901 2.12132 2.12132 
C 2.683901 1.55874 3 0.795609 3 0 
C 3 -0.795609 2.683901 -1.55874 2.12132 -2.12132 
C 1.55874 -2.683901 0.795609 -3 0 -3 
C -0.795609 -3 -1.55874 -2.683901 -2.12132 -2.12132 
C -2.683901 -1.55874 -3 -0.795609 -3 0 
C -3 0.795609 -2.683901 1.55874 -2.12132 2.12132 
C -1.55874 2.683901 -0.795609 3 0 3 
z
" id="m66979aaf50" style="stroke:#000000;"/>
    </defs>
    <g clip-path="url(#p1738285ee9)">
     <use style="stroke:#000000;" x="41.905065" xlink:href="#m66979aaf50" y="41.747351"/>
     <use style="stroke:#000000;" x="28.573132" xlink:href="#m66979aaf50" y="82.69718"/>
     <use style="stroke:#000000;" x="31.579916" xlink:href="#m66979aaf50" y="70.377664"/>
     <use style="stroke:#000000;" x="30.160407" xlink:href="#m66979aaf50" y="75.856657"/>
     <use style="stroke:#000000;" x="32.079366" xlink:href="#m66979aaf50" y="60.164579"/>
     <use style="stroke:#000000;" x="30.221906" xlink:href="#m66979aaf50" y="77.884017"/>
     <use style="stroke:#000000;" x="42.597288" xlink:href="#m66979aaf50" y="39.910508"/>
     <use style="stroke:#000000;" x="29.381795" xlink:href="#m66979aaf50" y="85.678678"/>
     <use style="stroke:#000000;" x="31.422321" xlink:href="#m66979aaf50" y="77.233013"/>
     <use style="stroke:#000000;" x="33.188601" xlink:href="#m66979aaf50" y="59.56387"/>
     <use style="stroke:#000000;" x="31.765044" xlink:href="#m66979aaf50" y="81.868944"/>
     <use style="stroke:#000000;" x="34.960933" xlink:href="#m66979aaf50" y="51.382282"/>
     <use style="stroke:#000000;" x="27" xlink:href="#m66979aaf50" y="94.5"/>
     <use style="stroke:#000000;" x="27.981489" xlink:href="#m66979aaf50" y="78.727914"/>
     <use style="stroke:#000000;" x="29.221112" xlink:href="#m66979aaf50" y="73.933599"/>
     <use style="stroke:#000000;" x="34.348316" xlink:href="#m66979aaf50" y="61.928518"/>
     <use style="stroke:#000000;" x="27.377339" xlink:href="#m66979aaf50" y="82.801539"/>
     <use style="stroke:#000000;" x="29.628579" xlink:href="#m66979aaf50" y="77.051867"/>
     <use style="stroke:#000000;" x="27.736202" xlink:href="#m66979aaf50" y="87.45307"/>
     <use style="stroke:#000000;" x="27.917788" xlink:href="#m66979aaf50" y="87.613879"/>
     <use style="stroke:#000000;" x="28.935383" xlink:href="#m66979aaf50" y="83.085553"/>
     <use style="stroke:#000000;" x="30.334601" xlink:href="#m66979aaf50" y="75.14511"/>
     <use style="stroke:#000000;" x="32.235769" xlink:href="#m66979aaf50" y="67.383856"/>
     <use style="stroke:#000000;" x="35.297209" xlink:href="#m66979aaf50" y="70.585957"/>
     <use style="stroke:#000000;" x="28.164911" xlink:href="#m66979aaf50" y="82.772062"/>
     <use style="stroke:#000000;" x="33.865395" xlink:href="#m66979aaf50" y="70.171903"/>
     <use style="stroke:#000000;" x="28.851184" xlink:href="#m66979aaf50" y="62.547557"/>
     <use style="stroke:#000000;" x="28.762289" xlink:href="#m66979aaf50" y="88.097384"/>
     <use style="stroke:#000000;" x="32.007393" xlink:href="#m66979aaf50" y="79.267063"/>
     <use style="stroke:#000000;" x="28.934566" xlink:href="#m66979aaf50" y="87.222012"/>
    </g>
   </g>
   <g id="patch_3">
    <path d="M 27 94.5 
L 27 12.96 
" style="fill:none;stroke:#000000;stroke-linecap:square;stroke-linejoin:miter;"/>
   </g>
   <g id="patch_4">
    <path d="M 27 94.5 
L 103.090909 94.5 
" style="fill:none;stroke:#000000;stroke-linecap:square;stroke-linejoin:miter;"/>
   </g>
   <g id="matplotlib.axis_1">
    <g id="xtick_1">
     <g id="line2d_3"/>
     <g id="text_1">
      <text style="font-family:Arial;font-size:8px;font-style:normal;font-weight:normal;text-anchor:middle;" transform="rotate(-0, 27, 103.72625)" x="27" y="103.72625">0</text>
     </g>
    </g>
    <g id="xtick_2">
     <g id="line2d_4"/>
     <g id="text_2">
      <text style="font-family:Arial;font-size:8px;font-style:normal;font-weight:normal;text-anchor:middle;" transform="rotate(-0, 75.91709, 103.72625)" x="75.91709" y="103.72625">10</text>
     </g>
    </g>
    <g id="text_3">
     <text style="font-family:Arial;font-size:10px;font-style:normal;font-weight:normal;text-anchor:middle;" transform="rotate(-0, 65.045455, 116.474063)" x="65.045455" y="116.474063">Exc</text>
    </g>
   </g>
   <g id="matplotlib.axis_2">
    <g id="ytick_1">
     <g id="line2d_5"/>
     <g id="text_4">
      <text style="font-family:Arial;font-size:8px;font-style:normal;font-weight:normal;text-anchor:end;" transform="rotate(-0, 23.5, 97.363125)" x="23.5" y="97.363125">0</text>
     </g>
    </g>
    <g id="ytick_2">
     <g id="line2d_6"/>
     <g id="text_5">
      <text style="font-family:Arial;font-size:8px;font-style:normal;font-weight:normal;text-anchor:end;" transform="rotate(-0, 23.5, 71.153033)" x="23.5" y="71.153033">5</text>
     </g>
    </g>
    <g id="ytick_3">
     <g id="line2d_7"/>
     <g id="text_6">
      <text style="font-family:Arial;font-size:8px;font-style:normal;font-weight:normal;text-anchor:end;" transform="rotate(-0, 23.5, 44.942941)" x="23.5" y="44.942941">10</text>
     </g>
    </g>
    <g id="ytick_4">
     <g id="line2d_8"/>
     <g id="text_7">
      <text style="font-family:Arial;font-size:8px;font-style:normal;font-weight:normal;text-anchor:end;" transform="rotate(-0, 23.5, 18.732848)" x="23.5" y="18.732848">15</text>
     </g>
    </g>
    <g id="text_8">
     <text style="font-family:Arial;font-size:10px;font-style:normal;font-weight:normal;text-anchor:middle;" transform="rotate(-90, 8.615, 53.73)" x="8.615" y="53.73">Inh</text>
    </g>
   </g>
   <g id="legend_1">
    <g id="line2d_9">
     <path d="M 36 75.622656 
L 56 75.622656 
" style="fill:none;stroke:#000000;stroke-dasharray:1.85,0.8;stroke-dashoffset:0;stroke-width:0.5;"/>
    </g>
    <g id="line2d_10"/>
    <g id="text_9">
     <!-- $R^2$ 0.76 -->
     <g transform="translate(64 72.875)">
      <text>
       <tspan style="font-family:DejaVu Sans;font-size:10px;font-style:oblique;font-weight:oblique;" x="0" y="-0.9765625">R</tspan>
       <tspan style="font-family:DejaVu Sans;font-size:7px;font-style:book;font-weight:book;" x="7.650794" y="-4.8046875">2</tspan>
       <tspan style="font-family:Arial;font-size:10px;font-style:regular;font-weight:regular;" x="12.377845 15.156165 20.717689 23.496009 29.057533" y="-0.9765625"> 0.76</tspan>
      </text>
     </g>
     <text style="font-family:Arial;font-size:10px;font-style:normal;font-weight:normal;" transform="translate(64 83.4875)"> slope 2.89</text>
    </g>
   </g>
  </g>
  <g id="axes_2">
   <g id="patch_5">
    <path d="M 118.309091 94.5 
L 194.4 94.5 
L 194.4 12.96 
L 118.309091 12.96 
z
" style="fill:#ffffff;"/>
   </g>
   <g id="PathCollection_1">
    <defs>
     <path d="M 0 2.44949 
C 0.649612 2.44949 1.272706 2.191396 1.732051 1.732051 
C 2.191396 1.272706 2.44949 0.649612 2.44949 0 
C 2.44949 -0.649612 2.191396 -1.272706 1.732051 -1.732051 
C 1.272706 -2.191396 0.649612 -2.44949 0 -2.44949 
C -0.649612 -2.44949 -1.272706 -2.191396 -1.732051 -1.732051 
C -2.191396 -1.272706 -2.44949 -0.649612 -2.44949 0 
C -2.44949 0.649612 -2.191396 1.272706 -1.732051 1.732051 
C -1.272706 2.191396 -0.649612 2.44949 0 2.44949 
z
" id="m6c09cc5adb" style="stroke:#000000;"/>
    </defs>
    <g clip-path="url(#p35e17f009f)">
     <use style="stroke:#000000;" x="142.252305" xlink:href="#m6c09cc5adb" y="57.672383"/>
     <use style="stroke:#000000;" x="123.809854" xlink:href="#m6c09cc5adb" y="82.292562"/>
     <use style="stroke:#000000;" x="140.322517" xlink:href="#m6c09cc5adb" y="71.03938"/>
     <use style="stroke:#000000;" x="130.903085" xlink:href="#m6c09cc5adb" y="67.060162"/>
     <use style="stroke:#000000;" x="135.622539" xlink:href="#m6c09cc5adb" y="78.443749"/>
     <use style="stroke:#000000;" x="131.673389" xlink:href="#m6c09cc5adb" y="86.990268"/>
     <use style="stroke:#000000;" x="188.860243" xlink:href="#m6c09cc5adb" y="17.050565"/>
     <use style="stroke:#000000;" x="123.378938" xlink:href="#m6c09cc5adb" y="84.125682"/>
     <use style="stroke:#000000;" x="133.516438" xlink:href="#m6c09cc5adb" y="85.798163"/>
     <use style="stroke:#000000;" x="139.741707" xlink:href="#m6c09cc5adb" y="81.198132"/>
     <use style="stroke:#000000;" x="135.162293" xlink:href="#m6c09cc5adb" y="75.33591"/>
     <use style="stroke:#000000;" x="124.560918" xlink:href="#m6c09cc5adb" y="65.430991"/>
     <use style="stroke:#000000;" x="118.309091" xlink:href="#m6c09cc5adb" y="94.5"/>
     <use style="stroke:#000000;" x="123.414213" xlink:href="#m6c09cc5adb" y="72.814263"/>
     <use style="stroke:#000000;" x="124.59763" xlink:href="#m6c09cc5adb" y="88.726102"/>
     <use style="stroke:#000000;" x="146.62131" xlink:href="#m6c09cc5adb" y="81.763914"/>
     <use style="stroke:#000000;" x="121.412383" xlink:href="#m6c09cc5adb" y="94.5"/>
     <use style="stroke:#000000;" x="130.143912" xlink:href="#m6c09cc5adb" y="85.083907"/>
     <use style="stroke:#000000;" x="124.363717" xlink:href="#m6c09cc5adb" y="86.829877"/>
     <use style="stroke:#000000;" x="122.856627" xlink:href="#m6c09cc5adb" y="91.871842"/>
     <use style="stroke:#000000;" x="124.394075" xlink:href="#m6c09cc5adb" y="92.770867"/>
     <use style="stroke:#000000;" x="129.487867" xlink:href="#m6c09cc5adb" y="85.896065"/>
     <use style="stroke:#000000;" x="132.706091" xlink:href="#m6c09cc5adb" y="82.780177"/>
     <use style="stroke:#000000;" x="144.063511" xlink:href="#m6c09cc5adb" y="62.575732"/>
     <use style="stroke:#000000;" x="125.497751" xlink:href="#m6c09cc5adb" y="86.975259"/>
     <use style="stroke:#000000;" x="143.695611" xlink:href="#m6c09cc5adb" y="61.634364"/>
     <use style="stroke:#000000;" x="127.89973" xlink:href="#m6c09cc5adb" y="69.571038"/>
     <use style="stroke:#000000;" x="124.7912" xlink:href="#m6c09cc5adb" y="88.660133"/>
     <use style="stroke:#000000;" x="131.755818" xlink:href="#m6c09cc5adb" y="85.990193"/>
     <use style="stroke:#000000;" x="125.113808" xlink:href="#m6c09cc5adb" y="82.105759"/>
    </g>
   </g>
   <g id="line2d_11">
    <path clip-path="url(#p35e17f009f)" d="M 118.309091 92.123301 
L 119.077686 91.36463 
L 119.846281 90.605959 
L 120.614876 89.847287 
L 121.383471 89.088616 
L 122.152066 88.329945 
L 122.920661 87.571274 
L 123.689256 86.812602 
L 124.457851 86.053931 
L 125.226446 85.29526 
L 125.995041 84.536589 
L 126.763636 83.777917 
L 127.532231 83.019246 
L 128.300826 82.260575 
L 129.069421 81.501904 
L 129.838017 80.743232 
L 130.606612 79.984561 
L 131.375207 79.22589 
L 132.143802 78.467218 
L 132.912397 77.708547 
L 133.680992 76.949876 
L 134.449587 76.191205 
L 135.218182 75.432533 
L 135.986777 74.673862 
L 136.755372 73.915191 
L 137.523967 73.15652 
L 138.292562 72.397848 
L 139.061157 71.639177 
L 139.829752 70.880506 
L 140.598347 70.121835 
L 141.366942 69.363163 
L 142.135537 68.604492 
L 142.904132 67.845821 
L 143.672727 67.08715 
L 144.441322 66.328478 
L 145.209917 65.569807 
L 145.978512 64.811136 
L 146.747107 64.052465 
L 147.515702 63.293793 
L 148.284298 62.535122 
L 149.052893 61.776451 
L 149.821488 61.01778 
L 150.590083 60.259108 
L 151.358678 59.500437 
L 152.127273 58.741766 
L 152.895868 57.983094 
L 153.664463 57.224423 
L 154.433058 56.465752 
L 155.201653 55.707081 
L 155.970248 54.948409 
L 156.738843 54.189738 
L 157.507438 53.431067 
L 158.276033 52.672396 
L 159.044628 51.913724 
L 159.813223 51.155053 
L 160.581818 50.396382 
L 161.350413 49.637711 
L 162.119008 48.879039 
L 162.887603 48.120368 
L 163.656198 47.361697 
L 164.424793 46.603026 
L 165.193388 45.844354 
L 165.961983 45.085683 
L 166.730579 44.327012 
L 167.499174 43.568341 
L 168.267769 42.809669 
L 169.036364 42.050998 
L 169.804959 41.292327 
L 170.573554 40.533655 
L 171.342149 39.774984 
L 172.110744 39.016313 
L 172.879339 38.257642 
L 173.647934 37.49897 
L 174.416529 36.740299 
L 175.185124 35.981628 
L 175.953719 35.222957 
L 176.722314 34.464285 
L 177.490909 33.705614 
L 178.259504 32.946943 
L 179.028099 32.188272 
L 179.796694 31.4296 
L 180.565289 30.670929 
L 181.333884 29.912258 
L 182.102479 29.153587 
L 182.871074 28.394915 
L 183.639669 27.636244 
L 184.408264 26.877573 
L 185.17686 26.118902 
L 185.945455 25.36023 
L 186.71405 24.601559 
L 187.482645 23.842888 
L 188.25124 23.084217 
L 189.019835 22.325545 
L 189.78843 21.566874 
L 190.557025 20.808203 
L 191.32562 20.049531 
L 192.094215 19.29086 
L 192.86281 18.532189 
L 193.631405 17.773518 
L 194.4 17.014846 
" style="fill:none;stroke:#000000;stroke-dasharray:1.85,0.8;stroke-dashoffset:0;stroke-width:0.5;"/>
   </g>
   <g id="patch_6">
    <path d="M 118.309091 94.5 
L 118.309091 12.96 
" style="fill:none;stroke:#000000;stroke-linecap:square;stroke-linejoin:miter;"/>
   </g>
   <g id="patch_7">
    <path d="M 118.309091 94.5 
L 194.4 94.5 
" style="fill:none;stroke:#000000;stroke-linecap:square;stroke-linejoin:miter;"/>
   </g>
   <g id="matplotlib.axis_3">
    <g id="xtick_3">
     <g id="line2d_12"/>
     <g id="text_10">
      <text style="font-family:Arial;font-size:8px;font-style:normal;font-weight:normal;text-anchor:middle;" transform="rotate(-0, 118.309091, 103.72625)" x="118.309091" y="103.72625">0</text>
     </g>
    </g>
    <g id="xtick_4">
     <g id="line2d_13"/>
     <g id="text_11">
      <text style="font-family:Arial;font-size:8px;font-style:normal;font-weight:normal;text-anchor:middle;" transform="rotate(-0, 151.156831, 103.72625)" x="151.156831" y="103.72625">2</text>
     </g>
    </g>
    <g id="xtick_5">
     <g id="line2d_14"/>
     <g id="text_12">
      <text style="font-family:Arial;font-size:8px;font-style:normal;font-weight:normal;text-anchor:middle;" transform="rotate(-0, 184.004571, 103.72625)" x="184.004571" y="103.72625">4</text>
     </g>
    </g>
    <g id="text_13">
     <!-- $\sigma$(Exc) -->
     <g transform="translate(141.504545 116.61625)">
      <text>
       <tspan style="font-family:DejaVu Sans;font-size:10px;font-style:oblique;font-weight:oblique;" x="0" y="-0.71875">σ</tspan>
       <tspan style="font-family:Arial;font-size:10px;font-style:regular;font-weight:regular;" x="6.337891 9.667969 16.337891 21.337891 26.337891" y="-0.71875">(Exc)</tspan>
      </text>
     </g>
    </g>
   </g>
   <g id="matplotlib.axis_4">
    <g id="ytick_5">
     <g id="line2d_15"/>
     <g id="text_14">
      <text style="font-family:Arial;font-size:8px;font-style:normal;font-weight:normal;text-anchor:end;" transform="rotate(-0, 114.809091, 97.363125)" x="114.809091" y="97.363125">0</text>
     </g>
    </g>
    <g id="ytick_6">
     <g id="line2d_16"/>
     <g id="text_15">
      <text style="font-family:Arial;font-size:8px;font-style:normal;font-weight:normal;text-anchor:end;" transform="rotate(-0, 114.809091, 79.763094)" x="114.809091" y="79.763094">1</text>
     </g>
    </g>
    <g id="ytick_7">
     <g id="line2d_17"/>
     <g id="text_16">
      <text style="font-family:Arial;font-size:8px;font-style:normal;font-weight:normal;text-anchor:end;" transform="rotate(-0, 114.809091, 62.163063)" x="114.809091" y="62.163063">2</text>
     </g>
    </g>
    <g id="ytick_8">
     <g id="line2d_18"/>
     <g id="text_17">
      <text style="font-family:Arial;font-size:8px;font-style:normal;font-weight:normal;text-anchor:end;" transform="rotate(-0, 114.809091, 44.563032)" x="114.809091" y="44.563032">3</text>
     </g>
    </g>
    <g id="ytick_9">
     <g id="line2d_19"/>
     <g id="text_18">
      <text style="font-family:Arial;font-size:8px;font-style:normal;font-weight:normal;text-anchor:end;" transform="rotate(-0, 114.809091, 26.963001)" x="114.809091" y="26.963001">4</text>
     </g>
    </g>
    <g id="text_19">
     <!-- $\sigma$(Inh) -->
     <g transform="translate(104.160341 67.18)rotate(-90)">
      <text>
       <tspan style="font-family:DejaVu Sans;font-size:10px;font-style:oblique;font-weight:oblique;" x="0" y="-0.71875">σ</tspan>
       <tspan style="font-family:Arial;font-size:10px;font-style:regular;font-weight:regular;" x="6.337891 9.667969 12.446289 18.007812 23.569336" y="-0.71875">(Inh)</tspan>
      </text>
     </g>
    </g>
   </g>
   <g id="legend_2">
    <g id="line2d_20">
     <path d="M 108.478125 31.995156 
L 128.478125 31.995156 
" style="fill:none;stroke:#000000;stroke-dasharray:1.85,0.8;stroke-dashoffset:0;stroke-width:0.5;"/>
    </g>
    <g id="line2d_21"/>
    <g id="text_20">
     <!-- $R^2$ 0.71 -->
     <g transform="translate(136.478125 29.2475)">
      <text>
       <tspan style="font-family:DejaVu Sans;font-size:10px;font-style:oblique;font-weight:oblique;" x="0" y="-0.9765625">R</tspan>
       <tspan style="font-family:DejaVu Sans;font-size:7px;font-style:book;font-weight:book;" x="7.650794" y="-4.8046875">2</tspan>
       <tspan style="font-family:Arial;font-size:10px;font-style:regular;font-weight:regular;" x="12.377845 15.156165 20.717689 23.496009 29.057533" y="-0.9765625"> 0.71</tspan>
      </text>
     </g>
     <text style="font-family:Arial;font-size:10px;font-style:normal;font-weight:normal;" transform="translate(136.478125 39.86)"> slope 0.92</text>
    </g>
   </g>
  </g>
 </g>
 <defs>
  <clipPath id="p1738285ee9">
   <rect height="81.54" width="76.090909" x="27" y="12.96"/>
  </clipPath>
  <clipPath id="p35e17f009f">
   <rect height="81.54" width="76.090909" x="118.309091" y="12.96"/>
  </clipPath>
 </defs>
</svg>
