<?xml version="1.0" encoding="utf-8" standalone="no"?>
<!DOCTYPE svg PUBLIC "-//W3C//DTD SVG 1.1//EN"
  "http://www.w3.org/Graphics/SVG/1.1/DTD/svg11.dtd">
<!-- Created with matplotlib (http://matplotlib.org/) -->
<svg height="108pt" version="1.1" viewBox="0 0 216 108" width="216pt" xmlns="http://www.w3.org/2000/svg" xmlns:xlink="http://www.w3.org/1999/xlink">
 <defs>
  <style type="text/css">
*{stroke-linecap:butt;stroke-linejoin:round;}
  </style>
 </defs>
 <g id="figure_1">
  <g id="patch_1">
   <path d="M 0 108 
L 216 108 
L 216 0 
L 0 0 
z
" style="fill:#ffffff;"/>
  </g>
  <g id="axes_1">
   <g id="patch_2">
    <path d="M 27 94.5 
L 103.090909 94.5 
L 103.090909 12.96 
L 27 12.96 
z
" style="fill:#ffffff;"/>
   </g>
   <g id="LineCollection_1">
    <path clip-path="url(#p988dbb0318)" d="M 28.495049 58.389209 
L 41.591459 58.389209 
" style="fill:none;stroke:#000000;stroke-width:0.5;"/>
    <path clip-path="url(#p988dbb0318)" d="M 25.135099 47.232733 
L 41.970615 47.232733 
" style="fill:none;stroke:#000000;stroke-width:0.5;"/>
    <path clip-path="url(#p988dbb0318)" d="M 25.225906 84.778957 
L 34.489815 84.778957 
" style="fill:none;stroke:#000000;stroke-width:0.5;"/>
    <path clip-path="url(#p988dbb0318)" d="M 27.682379 73.092776 
L 37.569214 73.092776 
" style="fill:none;stroke:#000000;stroke-width:0.5;"/>
    <path clip-path="url(#p988dbb0318)" d="M 27.998268 22.803904 
L 53.599349 22.803904 
" style="fill:none;stroke:#000000;stroke-width:0.5;"/>
    <path clip-path="url(#p988dbb0318)" d="M 26.87072 54.010981 
L 42.792597 54.010981 
" style="fill:none;stroke:#000000;stroke-width:0.5;"/>
    <path clip-path="url(#p988dbb0318)" d="M 28.499324 37.749186 
L 44.299558 37.749186 
" style="fill:none;stroke:#000000;stroke-width:0.5;"/>
    <path clip-path="url(#p988dbb0318)" d="M 30.234444 49.914649 
L 44.577315 49.914649 
" style="fill:none;stroke:#000000;stroke-width:0.5;"/>
    <path clip-path="url(#p988dbb0318)" d="M 24.205834 55.761578 
L 48.628128 55.761578 
" style="fill:none;stroke:#000000;stroke-width:0.5;"/>
    <path clip-path="url(#p988dbb0318)" d="M 24.998922 44.506252 
L 41.062869 44.506252 
" style="fill:none;stroke:#000000;stroke-width:0.5;"/>
    <path clip-path="url(#p988dbb0318)" d="M 25.073584 55.818984 
L 40.532326 55.818984 
" style="fill:none;stroke:#000000;stroke-width:0.5;"/>
    <path clip-path="url(#p988dbb0318)" d="M 24.981804 73.466029 
L 35.377448 73.466029 
" style="fill:none;stroke:#000000;stroke-width:0.5;"/>
    <path clip-path="url(#p988dbb0318)" d="M 24.357389 66.768921 
L 44.255046 66.768921 
" style="fill:none;stroke:#000000;stroke-width:0.5;"/>
    <path clip-path="url(#p988dbb0318)" d="M 25.993095 86.94254 
L 31.673757 86.94254 
" style="fill:none;stroke:#000000;stroke-width:0.5;"/>
    <path clip-path="url(#p988dbb0318)" d="M 25.613547 46.537198 
L 35.784726 46.537198 
" style="fill:none;stroke:#000000;stroke-width:0.5;"/>
    <path clip-path="url(#p988dbb0318)" d="M 29.505887 74.636695 
L 34.328889 74.636695 
" style="fill:none;stroke:#000000;stroke-width:0.5;"/>
    <path clip-path="url(#p988dbb0318)" d="M 28.013288 49.83143 
L 47.149274 49.83143 
" style="fill:none;stroke:#000000;stroke-width:0.5;"/>
    <path clip-path="url(#p988dbb0318)" d="M 28.130717 74.897436 
L 36.471596 74.897436 
" style="fill:none;stroke:#000000;stroke-width:0.5;"/>
    <path clip-path="url(#p988dbb0318)" d="M 38.442149 36.463516 
L 61.508484 36.463516 
" style="fill:none;stroke:#000000;stroke-width:0.5;"/>
    <path clip-path="url(#p988dbb0318)" d="M 27.757012 67.136123 
L 40.808627 67.136123 
" style="fill:none;stroke:#000000;stroke-width:0.5;"/>
    <path clip-path="url(#p988dbb0318)" d="M 27.913232 45.346547 
L 41.324294 45.346547 
" style="fill:none;stroke:#000000;stroke-width:0.5;"/>
    <path clip-path="url(#p988dbb0318)" d="M 26.258386 62.492999 
L 37.464474 62.492999 
" style="fill:none;stroke:#000000;stroke-width:0.5;"/>
    <path clip-path="url(#p988dbb0318)" d="M 25.146153 58.474516 
L 44.189976 58.474516 
" style="fill:none;stroke:#000000;stroke-width:0.5;"/>
    <path clip-path="url(#p988dbb0318)" d="M 27 83.751802 
L 27 83.751802 
" style="fill:none;stroke:#000000;stroke-width:0.5;"/>
    <path clip-path="url(#p988dbb0318)" d="M 30.813477 58.36935 
L 41.419436 58.36935 
" style="fill:none;stroke:#000000;stroke-width:0.5;"/>
    <path clip-path="url(#p988dbb0318)" d="M 40.00531 32.998141 
L 72.798799 32.998141 
" style="fill:none;stroke:#000000;stroke-width:0.5;"/>
    <path clip-path="url(#p988dbb0318)" d="M 32.531249 29.825276 
L 62.323819 29.825276 
" style="fill:none;stroke:#000000;stroke-width:0.5;"/>
    <path clip-path="url(#p988dbb0318)" d="M 28.618761 76.335083 
L 38.535652 76.335083 
" style="fill:none;stroke:#000000;stroke-width:0.5;"/>
    <path clip-path="url(#p988dbb0318)" d="M 25.659342 54.961562 
L 43.26384 54.961562 
" style="fill:none;stroke:#000000;stroke-width:0.5;"/>
    <path clip-path="url(#p988dbb0318)" d="M 26.289594 46.814223 
L 46.537679 46.814223 
" style="fill:none;stroke:#000000;stroke-width:0.5;"/>
   </g>
   <g id="LineCollection_2">
    <path clip-path="url(#p988dbb0318)" d="M 35.043254 74.007297 
L 35.043254 42.771122 
" style="fill:none;stroke:#000000;stroke-width:0.5;"/>
    <path clip-path="url(#p988dbb0318)" d="M 33.552857 55.088868 
L 33.552857 39.376598 
" style="fill:none;stroke:#000000;stroke-width:0.5;"/>
    <path clip-path="url(#p988dbb0318)" d="M 29.85786 87.155827 
L 29.85786 82.402087 
" style="fill:none;stroke:#000000;stroke-width:0.5;"/>
    <path clip-path="url(#p988dbb0318)" d="M 32.625797 79.164387 
L 32.625797 67.021165 
" style="fill:none;stroke:#000000;stroke-width:0.5;"/>
    <path clip-path="url(#p988dbb0318)" d="M 40.798808 28.983418 
L 40.798808 16.624389 
" style="fill:none;stroke:#000000;stroke-width:0.5;"/>
    <path clip-path="url(#p988dbb0318)" d="M 34.831658 63.609767 
L 34.831658 44.412195 
" style="fill:none;stroke:#000000;stroke-width:0.5;"/>
    <path clip-path="url(#p988dbb0318)" d="M 36.399441 48.390795 
L 36.399441 27.107576 
" style="fill:none;stroke:#000000;stroke-width:0.5;"/>
    <path clip-path="url(#p988dbb0318)" d="M 37.40588 60.400796 
L 37.40588 39.428503 
" style="fill:none;stroke:#000000;stroke-width:0.5;"/>
    <path clip-path="url(#p988dbb0318)" d="M 36.416981 59.223969 
L 36.416981 52.299186 
" style="fill:none;stroke:#000000;stroke-width:0.5;"/>
    <path clip-path="url(#p988dbb0318)" d="M 33.030895 56.888241 
L 33.030895 32.124264 
" style="fill:none;stroke:#000000;stroke-width:0.5;"/>
    <path clip-path="url(#p988dbb0318)" d="M 32.802955 62.326018 
L 32.802955 49.31195 
" style="fill:none;stroke:#000000;stroke-width:0.5;"/>
    <path clip-path="url(#p988dbb0318)" d="M 30.179626 78.931508 
L 30.179626 68.00055 
" style="fill:none;stroke:#000000;stroke-width:0.5;"/>
    <path clip-path="url(#p988dbb0318)" d="M 34.306217 70.754598 
L 34.306217 62.783243 
" style="fill:none;stroke:#000000;stroke-width:0.5;"/>
    <path clip-path="url(#p988dbb0318)" d="M 28.833426 89.912166 
L 28.833426 83.972915 
" style="fill:none;stroke:#000000;stroke-width:0.5;"/>
    <path clip-path="url(#p988dbb0318)" d="M 30.699136 57.333398 
L 30.699136 35.740998 
" style="fill:none;stroke:#000000;stroke-width:0.5;"/>
    <path clip-path="url(#p988dbb0318)" d="M 31.917388 77.879297 
L 31.917388 71.394093 
" style="fill:none;stroke:#000000;stroke-width:0.5;"/>
    <path clip-path="url(#p988dbb0318)" d="M 37.581281 61.003692 
L 37.581281 38.659169 
" style="fill:none;stroke:#000000;stroke-width:0.5;"/>
    <path clip-path="url(#p988dbb0318)" d="M 32.301157 82.012103 
L 32.301157 67.782769 
" style="fill:none;stroke:#000000;stroke-width:0.5;"/>
    <path clip-path="url(#p988dbb0318)" d="M 49.975316 45.210334 
L 49.975316 27.716697 
" style="fill:none;stroke:#000000;stroke-width:0.5;"/>
    <path clip-path="url(#p988dbb0318)" d="M 34.282819 80.611788 
L 34.282819 53.660458 
" style="fill:none;stroke:#000000;stroke-width:0.5;"/>
    <path clip-path="url(#p988dbb0318)" d="M 34.618763 56.48846 
L 34.618763 34.204633 
" style="fill:none;stroke:#000000;stroke-width:0.5;"/>
    <path clip-path="url(#p988dbb0318)" d="M 31.86143 67.548574 
L 31.86143 57.437423 
" style="fill:none;stroke:#000000;stroke-width:0.5;"/>
    <path clip-path="url(#p988dbb0318)" d="M 34.668064 68.320802 
L 34.668064 48.62823 
" style="fill:none;stroke:#000000;stroke-width:0.5;"/>
    <path clip-path="url(#p988dbb0318)" d="M 27 83.751802 
L 27 83.751802 
" style="fill:none;stroke:#000000;stroke-width:0.5;"/>
    <path clip-path="url(#p988dbb0318)" d="M 36.116457 66.521453 
L 36.116457 50.217248 
" style="fill:none;stroke:#000000;stroke-width:0.5;"/>
    <path clip-path="url(#p988dbb0318)" d="M 56.402055 45.153465 
L 56.402055 20.842817 
" style="fill:none;stroke:#000000;stroke-width:0.5;"/>
    <path clip-path="url(#p988dbb0318)" d="M 47.427534 37.80631 
L 47.427534 21.844242 
" style="fill:none;stroke:#000000;stroke-width:0.5;"/>
    <path clip-path="url(#p988dbb0318)" d="M 33.577207 82.654209 
L 33.577207 70.015957 
" style="fill:none;stroke:#000000;stroke-width:0.5;"/>
    <path clip-path="url(#p988dbb0318)" d="M 34.461591 63.839724 
L 34.461591 46.083401 
" style="fill:none;stroke:#000000;stroke-width:0.5;"/>
    <path clip-path="url(#p988dbb0318)" d="M 36.413637 56.682163 
L 36.413637 36.946283 
" style="fill:none;stroke:#000000;stroke-width:0.5;"/>
   </g>
   <g id="line2d_1">
    <path clip-path="url(#p988dbb0318)" d="M 27 73.758358 
L 27.768595 72.245656 
L 28.53719 70.732954 
L 29.305785 69.220252 
L 30.07438 67.707549 
L 30.842975 66.194847 
L 31.61157 64.682145 
L 32.380165 63.169442 
L 33.14876 61.65674 
L 33.917355 60.144038 
L 34.68595 58.631336 
L 35.454545 57.118633 
L 36.22314 55.605931 
L 36.991736 54.093229 
L 37.760331 52.580526 
L 38.528926 51.067824 
L 39.297521 49.555122 
L 40.066116 48.04242 
L 40.834711 46.529717 
L 41.603306 45.017015 
L 42.371901 43.504313 
L 43.140496 41.99161 
L 43.909091 40.478908 
L 44.677686 38.966206 
L 45.446281 37.453504 
L 46.214876 35.940801 
L 46.983471 34.428099 
L 47.752066 32.915397 
L 48.520661 31.402695 
L 49.289256 29.889992 
L 50.057851 28.37729 
L 50.826446 26.864588 
L 51.595041 25.351885 
L 52.363636 23.839183 
L 53.132231 22.326481 
L 53.900826 20.813779 
L 54.669421 19.301076 
L 55.438017 17.788374 
L 56.206612 16.275672 
L 56.975207 14.762969 
L 57.743802 13.250267 
L 58.512397 11.737565 
L 59.280992 10.224863 
L 60.049587 8.71216 
L 60.818182 7.199458 
L 61.586777 5.686756 
L 62.355372 4.174053 
L 63.123967 2.661351 
L 63.892562 1.148649 
L 64.661157 -0.364053 
L 64.984278 -1 
" style="fill:none;stroke:#000000;stroke-dasharray:1.85,0.8;stroke-dashoffset:0;stroke-width:0.5;"/>
   </g>
   <g id="line2d_2">
    <defs>
     <path d="M 0 3 
C 0.795609 3 1.55874 2.683901 2.12132 2.12132 
C 2.683901 1.55874 3 0.795609 3 0 
C 3 -0.795609 2.683901 -1.55874 2.12132 -2.12132 
C 1.55874 -2.683901 0.795609 -3 0 -3 
C -0.795609 -3 -1.55874 -2.683901 -2.12132 -2.12132 
C -2.683901 -1.55874 -3 -0.795609 -3 0 
C -3 0.795609 -2.683901 1.55874 -2.12132 2.12132 
C -1.55874 2.683901 -0.795609 3 0 3 
z
" id="m99f46c6cd8" style="stroke:#000000;"/>
    </defs>
    <g clip-path="url(#p988dbb0318)">
     <use style="stroke:#000000;" x="35.043254" xlink:href="#m99f46c6cd8" y="58.389209"/>
     <use style="stroke:#000000;" x="33.552857" xlink:href="#m99f46c6cd8" y="47.232733"/>
     <use style="stroke:#000000;" x="29.85786" xlink:href="#m99f46c6cd8" y="84.778957"/>
     <use style="stroke:#000000;" x="32.625797" xlink:href="#m99f46c6cd8" y="73.092776"/>
     <use style="stroke:#000000;" x="40.798808" xlink:href="#m99f46c6cd8" y="22.803904"/>
     <use style="stroke:#000000;" x="34.831658" xlink:href="#m99f46c6cd8" y="54.010981"/>
     <use style="stroke:#000000;" x="36.399441" xlink:href="#m99f46c6cd8" y="37.749186"/>
     <use style="stroke:#000000;" x="37.40588" xlink:href="#m99f46c6cd8" y="49.914649"/>
     <use style="stroke:#000000;" x="36.416981" xlink:href="#m99f46c6cd8" y="55.761578"/>
     <use style="stroke:#000000;" x="33.030895" xlink:href="#m99f46c6cd8" y="44.506252"/>
     <use style="stroke:#000000;" x="32.802955" xlink:href="#m99f46c6cd8" y="55.818984"/>
     <use style="stroke:#000000;" x="30.179626" xlink:href="#m99f46c6cd8" y="73.466029"/>
     <use style="stroke:#000000;" x="34.306217" xlink:href="#m99f46c6cd8" y="66.768921"/>
     <use style="stroke:#000000;" x="28.833426" xlink:href="#m99f46c6cd8" y="86.94254"/>
     <use style="stroke:#000000;" x="30.699136" xlink:href="#m99f46c6cd8" y="46.537198"/>
     <use style="stroke:#000000;" x="31.917388" xlink:href="#m99f46c6cd8" y="74.636695"/>
     <use style="stroke:#000000;" x="37.581281" xlink:href="#m99f46c6cd8" y="49.83143"/>
     <use style="stroke:#000000;" x="32.301157" xlink:href="#m99f46c6cd8" y="74.897436"/>
     <use style="stroke:#000000;" x="49.975316" xlink:href="#m99f46c6cd8" y="36.463516"/>
     <use style="stroke:#000000;" x="34.282819" xlink:href="#m99f46c6cd8" y="67.136123"/>
     <use style="stroke:#000000;" x="34.618763" xlink:href="#m99f46c6cd8" y="45.346547"/>
     <use style="stroke:#000000;" x="31.86143" xlink:href="#m99f46c6cd8" y="62.492999"/>
     <use style="stroke:#000000;" x="34.668064" xlink:href="#m99f46c6cd8" y="58.474516"/>
     <use style="stroke:#000000;" x="27" xlink:href="#m99f46c6cd8" y="83.751802"/>
     <use style="stroke:#000000;" x="36.116457" xlink:href="#m99f46c6cd8" y="58.36935"/>
     <use style="stroke:#000000;" x="56.402055" xlink:href="#m99f46c6cd8" y="32.998141"/>
     <use style="stroke:#000000;" x="47.427534" xlink:href="#m99f46c6cd8" y="29.825276"/>
     <use style="stroke:#000000;" x="33.577207" xlink:href="#m99f46c6cd8" y="76.335083"/>
     <use style="stroke:#000000;" x="34.461591" xlink:href="#m99f46c6cd8" y="54.961562"/>
     <use style="stroke:#000000;" x="36.413637" xlink:href="#m99f46c6cd8" y="46.814223"/>
    </g>
   </g>
   <g id="patch_3">
    <path d="M 27 94.5 
L 27 12.96 
" style="fill:none;stroke:#000000;stroke-linecap:square;stroke-linejoin:miter;"/>
   </g>
   <g id="patch_4">
    <path d="M 27 94.5 
L 103.090909 94.5 
" style="fill:none;stroke:#000000;stroke-linecap:square;stroke-linejoin:miter;"/>
   </g>
   <g id="matplotlib.axis_1">
    <g id="xtick_1">
     <g id="line2d_3"/>
     <g id="text_1">
      <text style="font-family:Arial;font-size:8px;font-style:normal;font-weight:normal;text-anchor:middle;" transform="rotate(-0, 27, 103.72625)" x="27" y="103.72625">0.0</text>
     </g>
    </g>
    <g id="xtick_2">
     <g id="line2d_4"/>
     <g id="text_2">
      <text style="font-family:Arial;font-size:8px;font-style:normal;font-weight:normal;text-anchor:middle;" transform="rotate(-0, 53.123531, 103.72625)" x="53.123531" y="103.72625">2.5</text>
     </g>
    </g>
    <g id="xtick_3">
     <g id="line2d_5"/>
     <g id="text_3">
      <text style="font-family:Arial;font-size:8px;font-style:normal;font-weight:normal;text-anchor:middle;" transform="rotate(-0, 79.247062, 103.72625)" x="79.247062" y="103.72625">5.0</text>
     </g>
    </g>
    <g id="text_4">
     <text style="font-family:Arial;font-size:10px;font-style:normal;font-weight:normal;text-anchor:middle;" transform="rotate(-0, 65.045455, 116.474063)" x="65.045455" y="116.474063">Exc</text>
    </g>
   </g>
   <g id="matplotlib.axis_2">
    <g id="ytick_1">
     <g id="line2d_6"/>
     <g id="text_5">
      <text style="font-family:Arial;font-size:8px;font-style:normal;font-weight:normal;text-anchor:end;" transform="rotate(-0, 23.5, 97.363125)" x="23.5" y="97.363125">0</text>
     </g>
    </g>
    <g id="ytick_2">
     <g id="line2d_7"/>
     <g id="text_6">
      <text style="font-family:Arial;font-size:8px;font-style:normal;font-weight:normal;text-anchor:end;" transform="rotate(-0, 23.5, 74.967675)" x="23.5" y="74.967675">2</text>
     </g>
    </g>
    <g id="ytick_3">
     <g id="line2d_8"/>
     <g id="text_7">
      <text style="font-family:Arial;font-size:8px;font-style:normal;font-weight:normal;text-anchor:end;" transform="rotate(-0, 23.5, 52.572224)" x="23.5" y="52.572224">4</text>
     </g>
    </g>
    <g id="ytick_4">
     <g id="line2d_9"/>
     <g id="text_8">
      <text style="font-family:Arial;font-size:8px;font-style:normal;font-weight:normal;text-anchor:end;" transform="rotate(-0, 23.5, 30.176774)" x="23.5" y="30.176774">6</text>
     </g>
    </g>
    <g id="text_9">
     <text style="font-family:Arial;font-size:10px;font-style:normal;font-weight:normal;text-anchor:middle;" transform="rotate(-90, 13.06375, 53.73)" x="13.06375" y="53.73">Inh</text>
    </g>
   </g>
   <g id="legend_1">
    <g id="line2d_10">
     <path d="M 36 75.622656 
L 56 75.622656 
" style="fill:none;stroke:#000000;stroke-dasharray:1.85,0.8;stroke-dashoffset:0;stroke-width:0.5;"/>
    </g>
    <g id="line2d_11"/>
    <g id="text_10">
     <!-- $R^2$ 0.52 -->
     <g transform="translate(64 72.875)">
      <text>
       <tspan style="font-family:DejaVu Sans;font-size:10px;font-style:oblique;font-weight:oblique;" x="0" y="-0.9765625">R</tspan>
       <tspan style="font-family:DejaVu Sans;font-size:7px;font-style:book;font-weight:book;" x="7.650794" y="-4.8046875">2</tspan>
       <tspan style="font-family:Arial;font-size:10px;font-style:regular;font-weight:regular;" x="12.377845 15.156165 20.717689 23.496009 29.057533" y="-0.9765625"> 0.52</tspan>
      </text>
     </g>
     <text style="font-family:Arial;font-size:10px;font-style:normal;font-weight:normal;" transform="translate(64 83.4875)"> slope 1.84</text>
    </g>
   </g>
  </g>
  <g id="axes_2">
   <g id="patch_5">
    <path d="M 118.309091 94.5 
L 194.4 94.5 
L 194.4 12.96 
L 118.309091 12.96 
z
" style="fill:#ffffff;"/>
   </g>
   <g id="PathCollection_1">
    <defs>
     <path d="M 0 2.44949 
C 0.649612 2.44949 1.272706 2.191396 1.732051 1.732051 
C 2.191396 1.272706 2.44949 0.649612 2.44949 0 
C 2.44949 -0.649612 2.191396 -1.272706 1.732051 -1.732051 
C 1.272706 -2.191396 0.649612 -2.44949 0 -2.44949 
C -0.649612 -2.44949 -1.272706 -2.191396 -1.732051 -1.732051 
C -2.191396 -1.272706 -2.44949 -0.649612 -2.44949 0 
C -2.44949 0.649612 -2.191396 1.272706 -1.732051 1.732051 
C -1.272706 2.191396 -0.649612 2.44949 0 2.44949 
z
" id="mac24452f0d" style="stroke:#000000;"/>
    </defs>
    <g clip-path="url(#p6b72a01948)">
     <use style="stroke:#000000;" x="146.942038" xlink:href="#mac24452f0d" y="26.207718"/>
     <use style="stroke:#000000;" x="155.116922" xlink:href="#mac24452f0d" y="60.147945"/>
     <use style="stroke:#000000;" x="138.562962" xlink:href="#mac24452f0d" y="84.1068"/>
     <use style="stroke:#000000;" x="139.92488" xlink:href="#mac24452f0d" y="67.951027"/>
     <use style="stroke:#000000;" x="174.281253" xlink:href="#mac24452f0d" y="67.479203"/>
     <use style="stroke:#000000;" x="153.119413" xlink:href="#mac24452f0d" y="52.52796"/>
     <use style="stroke:#000000;" x="152.853464" xlink:href="#mac24452f0d" y="47.968066"/>
     <use style="stroke:#000000;" x="149.667201" xlink:href="#mac24452f0d" y="48.647851"/>
     <use style="stroke:#000000;" x="171.704047" xlink:href="#mac24452f0d" y="79.360206"/>
     <use style="stroke:#000000;" x="153.430022" xlink:href="#mac24452f0d" y="40.358016"/>
     <use style="stroke:#000000;" x="152.106853" xlink:href="#mac24452f0d" y="66.047078"/>
     <use style="stroke:#000000;" x="141.037298" xlink:href="#mac24452f0d" y="70.601424"/>
     <use style="stroke:#000000;" x="161.811741" xlink:href="#mac24452f0d" y="77.072066"/>
     <use style="stroke:#000000;" x="130.728839" xlink:href="#mac24452f0d" y="81.514896"/>
     <use style="stroke:#000000;" x="140.546546" xlink:href="#mac24452f0d" y="47.292098"/>
     <use style="stroke:#000000;" x="128.853719" xlink:href="#mac24452f0d" y="80.321267"/>
     <use style="stroke:#000000;" x="160.146485" xlink:href="#mac24452f0d" y="45.647716"/>
     <use style="stroke:#000000;" x="136.544924" xlink:href="#mac24452f0d" y="63.390119"/>
     <use style="stroke:#000000;" x="168.739488" xlink:href="#mac24452f0d" y="56.253308"/>
     <use style="stroke:#000000;" x="146.844102" xlink:href="#mac24452f0d" y="35.575761"/>
     <use style="stroke:#000000;" x="147.629968" xlink:href="#mac24452f0d" y="45.780417"/>
     <use style="stroke:#000000;" x="142.809189" xlink:href="#mac24452f0d" y="72.393786"/>
     <use style="stroke:#000000;" x="159.944987" xlink:href="#mac24452f0d" y="51.445729"/>
     <use style="stroke:#000000;" x="118.309091" xlink:href="#mac24452f0d" y="94.5"/>
     <use style="stroke:#000000;" x="141.497114" xlink:href="#mac24452f0d" y="58.853786"/>
     <use style="stroke:#000000;" x="190.00616" xlink:href="#mac24452f0d" y="41.349137"/>
     <use style="stroke:#000000;" x="183.445191" xlink:href="#mac24452f0d" y="59.601807"/>
     <use style="stroke:#000000;" x="139.99059" xlink:href="#mac24452f0d" y="66.868733"/>
     <use style="stroke:#000000;" x="156.798162" xlink:href="#mac24452f0d" y="55.678989"/>
     <use style="stroke:#000000;" x="162.57789" xlink:href="#mac24452f0d" y="51.351046"/>
    </g>
   </g>
   <g id="line2d_12">
    <path clip-path="url(#p6b72a01948)" d="M 118.309091 72.333062 
L 119.077686 72.044888 
L 119.846281 71.756714 
L 120.614876 71.46854 
L 121.383471 71.180366 
L 122.152066 70.892192 
L 122.920661 70.604018 
L 123.689256 70.315844 
L 124.457851 70.02767 
L 125.226446 69.739496 
L 125.995041 69.451322 
L 126.763636 69.163148 
L 127.532231 68.874974 
L 128.300826 68.5868 
L 129.069421 68.298626 
L 129.838017 68.010452 
L 130.606612 67.722278 
L 131.375207 67.434104 
L 132.143802 67.145931 
L 132.912397 66.857757 
L 133.680992 66.569583 
L 134.449587 66.281409 
L 135.218182 65.993235 
L 135.986777 65.705061 
L 136.755372 65.416887 
L 137.523967 65.128713 
L 138.292562 64.840539 
L 139.061157 64.552365 
L 139.829752 64.264191 
L 140.598347 63.976017 
L 141.366942 63.687843 
L 142.135537 63.399669 
L 142.904132 63.111495 
L 143.672727 62.823321 
L 144.441322 62.535147 
L 145.209917 62.246973 
L 145.978512 61.958799 
L 146.747107 61.670625 
L 147.515702 61.382451 
L 148.284298 61.094277 
L 149.052893 60.806104 
L 149.821488 60.51793 
L 150.590083 60.229756 
L 151.358678 59.941582 
L 152.127273 59.653408 
L 152.895868 59.365234 
L 153.664463 59.07706 
L 154.433058 58.788886 
L 155.201653 58.500712 
L 155.970248 58.212538 
L 156.738843 57.924364 
L 157.507438 57.63619 
L 158.276033 57.348016 
L 159.044628 57.059842 
L 159.813223 56.771668 
L 160.581818 56.483494 
L 161.350413 56.19532 
L 162.119008 55.907146 
L 162.887603 55.618972 
L 163.656198 55.330798 
L 164.424793 55.042624 
L 165.193388 54.75445 
L 165.961983 54.466277 
L 166.730579 54.178103 
L 167.499174 53.889929 
L 168.267769 53.601755 
L 169.036364 53.313581 
L 169.804959 53.025407 
L 170.573554 52.737233 
L 171.342149 52.449059 
L 172.110744 52.160885 
L 172.879339 51.872711 
L 173.647934 51.584537 
L 174.416529 51.296363 
L 175.185124 51.008189 
L 175.953719 50.720015 
L 176.722314 50.431841 
L 177.490909 50.143667 
L 178.259504 49.855493 
L 179.028099 49.567319 
L 179.796694 49.279145 
L 180.565289 48.990971 
L 181.333884 48.702797 
L 182.102479 48.414623 
L 182.871074 48.126449 
L 183.639669 47.838276 
L 184.408264 47.550102 
L 185.17686 47.261928 
L 185.945455 46.973754 
L 186.71405 46.68558 
L 187.482645 46.397406 
L 188.25124 46.109232 
L 189.019835 45.821058 
L 189.78843 45.532884 
L 190.557025 45.24471 
L 191.32562 44.956536 
L 192.094215 44.668362 
L 192.86281 44.380188 
L 193.631405 44.092014 
L 194.4 43.80384 
" style="fill:none;stroke:#000000;stroke-dasharray:1.85,0.8;stroke-dashoffset:0;stroke-width:0.5;"/>
   </g>
   <g id="patch_6">
    <path d="M 118.309091 94.5 
L 118.309091 12.96 
" style="fill:none;stroke:#000000;stroke-linecap:square;stroke-linejoin:miter;"/>
   </g>
   <g id="patch_7">
    <path d="M 118.309091 94.5 
L 194.4 94.5 
" style="fill:none;stroke:#000000;stroke-linecap:square;stroke-linejoin:miter;"/>
   </g>
   <g id="matplotlib.axis_3">
    <g id="xtick_4">
     <g id="line2d_13"/>
     <g id="text_11">
      <text style="font-family:Arial;font-size:8px;font-style:normal;font-weight:normal;text-anchor:middle;" transform="rotate(-0, 118.309091, 103.72625)" x="118.309091" y="103.72625">0</text>
     </g>
    </g>
    <g id="xtick_5">
     <g id="line2d_14"/>
     <g id="text_12">
      <text style="font-family:Arial;font-size:8px;font-style:normal;font-weight:normal;text-anchor:middle;" transform="rotate(-0, 164.000616, 103.72625)" x="164.000616" y="103.72625">1</text>
     </g>
    </g>
    <g id="text_13">
     <!-- $\sigma$(Exc) -->
     <g transform="translate(141.504545 116.61625)">
      <text>
       <tspan style="font-family:DejaVu Sans;font-size:10px;font-style:oblique;font-weight:oblique;" x="0" y="-0.71875">σ</tspan>
       <tspan style="font-family:Arial;font-size:10px;font-style:regular;font-weight:regular;" x="6.337891 9.667969 16.337891 21.337891 26.337891" y="-0.71875">(Exc)</tspan>
      </text>
     </g>
    </g>
   </g>
   <g id="matplotlib.axis_4">
    <g id="ytick_5">
     <g id="line2d_15"/>
     <g id="text_14">
      <text style="font-family:Arial;font-size:8px;font-style:normal;font-weight:normal;text-anchor:end;" transform="rotate(-0, 114.809091, 97.363125)" x="114.809091" y="97.363125">0.0</text>
     </g>
    </g>
    <g id="ytick_6">
     <g id="line2d_16"/>
     <g id="text_15">
      <text style="font-family:Arial;font-size:8px;font-style:normal;font-weight:normal;text-anchor:end;" transform="rotate(-0, 114.809091, 72.881311)" x="114.809091" y="72.881311">0.5</text>
     </g>
    </g>
    <g id="ytick_7">
     <g id="line2d_17"/>
     <g id="text_16">
      <text style="font-family:Arial;font-size:8px;font-style:normal;font-weight:normal;text-anchor:end;" transform="rotate(-0, 114.809091, 48.399497)" x="114.809091" y="48.399497">1.0</text>
     </g>
    </g>
    <g id="ytick_8">
     <g id="line2d_18"/>
     <g id="text_17">
      <text style="font-family:Arial;font-size:8px;font-style:normal;font-weight:normal;text-anchor:end;" transform="rotate(-0, 114.809091, 23.917684)" x="114.809091" y="23.917684">1.5</text>
     </g>
    </g>
    <g id="text_18">
     <!-- $\sigma$(Inh) -->
     <g transform="translate(97.489091 67.18)rotate(-90)">
      <text>
       <tspan style="font-family:DejaVu Sans;font-size:10px;font-style:oblique;font-weight:oblique;" x="0" y="-0.71875">σ</tspan>
       <tspan style="font-family:Arial;font-size:10px;font-style:regular;font-weight:regular;" x="6.337891 9.667969 12.446289 18.007812 23.569336" y="-0.71875">(Inh)</tspan>
      </text>
     </g>
    </g>
   </g>
   <g id="legend_2">
    <g id="line2d_19">
     <path d="M 108.478125 31.995156 
L 128.478125 31.995156 
" style="fill:none;stroke:#000000;stroke-dasharray:1.85,0.8;stroke-dashoffset:0;stroke-width:0.5;"/>
    </g>
    <g id="line2d_20"/>
    <g id="text_19">
     <!-- $R^2$ 0.14 -->
     <g transform="translate(136.478125 29.2475)">
      <text>
       <tspan style="font-family:DejaVu Sans;font-size:10px;font-style:oblique;font-weight:oblique;" x="0" y="-0.9765625">R</tspan>
       <tspan style="font-family:DejaVu Sans;font-size:7px;font-style:book;font-weight:book;" x="7.650794" y="-4.8046875">2</tspan>
       <tspan style="font-family:Arial;font-size:10px;font-style:regular;font-weight:regular;" x="12.377845 15.156165 20.717689 23.496009 29.057533" y="-0.9765625"> 0.14</tspan>
      </text>
     </g>
     <text style="font-family:Arial;font-size:10px;font-style:normal;font-weight:normal;" transform="translate(136.478125 39.86)"> slope 0.35</text>
    </g>
   </g>
  </g>
 </g>
 <defs>
  <clipPath id="p988dbb0318">
   <rect height="81.54" width="76.090909" x="27" y="12.96"/>
  </clipPath>
  <clipPath id="p6b72a01948">
   <rect height="81.54" width="76.090909" x="118.309091" y="12.96"/>
  </clipPath>
 </defs>
</svg>
