<?xml version="1.0" encoding="utf-8" standalone="no"?>
<!DOCTYPE svg PUBLIC "-//W3C//DTD SVG 1.1//EN"
  "http://www.w3.org/Graphics/SVG/1.1/DTD/svg11.dtd">
<!-- Created with matplotlib (http://matplotlib.org/) -->
<svg height="108pt" version="1.1" viewBox="0 0 216 108" width="216pt" xmlns="http://www.w3.org/2000/svg" xmlns:xlink="http://www.w3.org/1999/xlink">
 <defs>
  <style type="text/css">
*{stroke-linecap:butt;stroke-linejoin:round;}
  </style>
 </defs>
 <g id="figure_1">
  <g id="patch_1">
   <path d="M 0 108 
L 216 108 
L 216 0 
L 0 0 
z
" style="fill:#ffffff;"/>
  </g>
  <g id="axes_1">
   <g id="patch_2">
    <path d="M 27 94.5 
L 103.090909 94.5 
L 103.090909 12.96 
L 27 12.96 
z
" style="fill:#ffffff;"/>
   </g>
   <g id="LineCollection_1">
    <path clip-path="url(#pec0fe72441)" d="M 27.555226 76.713772 
L 34.291687 76.713772 
" style="fill:none;stroke:#000000;stroke-width:0.5;"/>
    <path clip-path="url(#pec0fe72441)" d="M 25.585821 81.28604 
L 34.471899 81.28604 
" style="fill:none;stroke:#000000;stroke-width:0.5;"/>
    <path clip-path="url(#pec0fe72441)" d="M 26.80641 80.817741 
L 29.748209 80.817741 
" style="fill:none;stroke:#000000;stroke-width:0.5;"/>
    <path clip-path="url(#pec0fe72441)" d="M 26.833003 87.79319 
L 28.56898 87.79319 
" style="fill:none;stroke:#000000;stroke-width:0.5;"/>
    <path clip-path="url(#pec0fe72441)" d="M 27.617235 70.848558 
L 39.278809 70.848558 
" style="fill:none;stroke:#000000;stroke-width:0.5;"/>
    <path clip-path="url(#pec0fe72441)" d="M 26.263768 85.721145 
L 30.392541 85.721145 
" style="fill:none;stroke:#000000;stroke-width:0.5;"/>
    <path clip-path="url(#pec0fe72441)" d="M 25.849955 79.195356 
L 37.410376 79.195356 
" style="fill:none;stroke:#000000;stroke-width:0.5;"/>
    <path clip-path="url(#pec0fe72441)" d="M 27.502799 90.439943 
L 31.193547 90.439943 
" style="fill:none;stroke:#000000;stroke-width:0.5;"/>
    <path clip-path="url(#pec0fe72441)" d="M 26.797564 91.958878 
L 27.481755 91.958878 
" style="fill:none;stroke:#000000;stroke-width:0.5;"/>
    <path clip-path="url(#pec0fe72441)" d="M 26.623365 88.437396 
L 32.818402 88.437396 
" style="fill:none;stroke:#000000;stroke-width:0.5;"/>
    <path clip-path="url(#pec0fe72441)" d="M 26.195969 81.029425 
L 34.39344 81.029425 
" style="fill:none;stroke:#000000;stroke-width:0.5;"/>
    <path clip-path="url(#pec0fe72441)" d="M 27.169646 88.870621 
L 28.99753 88.870621 
" style="fill:none;stroke:#000000;stroke-width:0.5;"/>
    <path clip-path="url(#pec0fe72441)" d="M 27.230464 86.869468 
L 30.112313 86.869468 
" style="fill:none;stroke:#000000;stroke-width:0.5;"/>
    <path clip-path="url(#pec0fe72441)" d="M 25.268617 70.950552 
L 34.686843 70.950552 
" style="fill:none;stroke:#000000;stroke-width:0.5;"/>
    <path clip-path="url(#pec0fe72441)" d="M 26.603592 87.555804 
L 30.691139 87.555804 
" style="fill:none;stroke:#000000;stroke-width:0.5;"/>
    <path clip-path="url(#pec0fe72441)" d="M 26.887324 88.374135 
L 29.640434 88.374135 
" style="fill:none;stroke:#000000;stroke-width:0.5;"/>
    <path clip-path="url(#pec0fe72441)" d="M 26.516734 86.274987 
L 31.760634 86.274987 
" style="fill:none;stroke:#000000;stroke-width:0.5;"/>
    <path clip-path="url(#pec0fe72441)" d="M 26.348753 85.501259 
L 30.50185 85.501259 
" style="fill:none;stroke:#000000;stroke-width:0.5;"/>
    <path clip-path="url(#pec0fe72441)" d="M 26.746495 93.258382 
L 28.176698 93.258382 
" style="fill:none;stroke:#000000;stroke-width:0.5;"/>
    <path clip-path="url(#pec0fe72441)" d="M 27.181745 79.38128 
L 32.042088 79.38128 
" style="fill:none;stroke:#000000;stroke-width:0.5;"/>
    <path clip-path="url(#pec0fe72441)" d="M 26.829531 93.002578 
L 27.711413 93.002578 
" style="fill:none;stroke:#000000;stroke-width:0.5;"/>
    <path clip-path="url(#pec0fe72441)" d="M 27.009934 85.762863 
L 27.83477 85.762863 
" style="fill:none;stroke:#000000;stroke-width:0.5;"/>
    <path clip-path="url(#pec0fe72441)" d="M 14.872942 41.258736 
L 59.983013 41.258736 
" style="fill:none;stroke:#000000;stroke-width:0.5;"/>
    <path clip-path="url(#pec0fe72441)" d="M 26.369033 48.475416 
L 31.664278 48.475416 
" style="fill:none;stroke:#000000;stroke-width:0.5;"/>
    <path clip-path="url(#pec0fe72441)" d="M 26.817806 73.043545 
L 28.53147 73.043545 
" style="fill:none;stroke:#000000;stroke-width:0.5;"/>
    <path clip-path="url(#pec0fe72441)" d="M 27.989308 84.760577 
L 30.645307 84.760577 
" style="fill:none;stroke:#000000;stroke-width:0.5;"/>
    <path clip-path="url(#pec0fe72441)" d="M 26.960416 87.552457 
L 31.899393 87.552457 
" style="fill:none;stroke:#000000;stroke-width:0.5;"/>
    <path clip-path="url(#pec0fe72441)" d="M 26.419801 90.468691 
L 28.380755 90.468691 
" style="fill:none;stroke:#000000;stroke-width:0.5;"/>
    <path clip-path="url(#pec0fe72441)" d="M 26.135525 83.7328 
L 30.64273 83.7328 
" style="fill:none;stroke:#000000;stroke-width:0.5;"/>
    <path clip-path="url(#pec0fe72441)" d="M 27.936586 82.602657 
L 31.941181 82.602657 
" style="fill:none;stroke:#000000;stroke-width:0.5;"/>
   </g>
   <g id="LineCollection_2">
    <path clip-path="url(#pec0fe72441)" d="M 30.923456 79.68005 
L 30.923456 73.747494 
" style="fill:none;stroke:#000000;stroke-width:0.5;"/>
    <path clip-path="url(#pec0fe72441)" d="M 30.02886 82.306536 
L 30.02886 80.265543 
" style="fill:none;stroke:#000000;stroke-width:0.5;"/>
    <path clip-path="url(#pec0fe72441)" d="M 28.27731 82.241215 
L 28.27731 79.394266 
" style="fill:none;stroke:#000000;stroke-width:0.5;"/>
    <path clip-path="url(#pec0fe72441)" d="M 27.700991 89.243822 
L 27.700991 86.342558 
" style="fill:none;stroke:#000000;stroke-width:0.5;"/>
    <path clip-path="url(#pec0fe72441)" d="M 33.448022 78.216675 
L 33.448022 63.48044 
" style="fill:none;stroke:#000000;stroke-width:0.5;"/>
    <path clip-path="url(#pec0fe72441)" d="M 28.328155 86.392236 
L 28.328155 85.050054 
" style="fill:none;stroke:#000000;stroke-width:0.5;"/>
    <path clip-path="url(#pec0fe72441)" d="M 31.630166 80.388069 
L 31.630166 78.002644 
" style="fill:none;stroke:#000000;stroke-width:0.5;"/>
    <path clip-path="url(#pec0fe72441)" d="M 29.348173 92.949906 
L 29.348173 87.92998 
" style="fill:none;stroke:#000000;stroke-width:0.5;"/>
    <path clip-path="url(#pec0fe72441)" d="M 27.13966 92.754189 
L 27.13966 91.163567 
" style="fill:none;stroke:#000000;stroke-width:0.5;"/>
    <path clip-path="url(#pec0fe72441)" d="M 29.720883 92.317705 
L 29.720883 84.557087 
" style="fill:none;stroke:#000000;stroke-width:0.5;"/>
    <path clip-path="url(#pec0fe72441)" d="M 30.294704 87.25647 
L 30.294704 74.802379 
" style="fill:none;stroke:#000000;stroke-width:0.5;"/>
    <path clip-path="url(#pec0fe72441)" d="M 28.083588 89.849163 
L 28.083588 87.892079 
" style="fill:none;stroke:#000000;stroke-width:0.5;"/>
    <path clip-path="url(#pec0fe72441)" d="M 28.671388 89.450368 
L 28.671388 84.288568 
" style="fill:none;stroke:#000000;stroke-width:0.5;"/>
    <path clip-path="url(#pec0fe72441)" d="M 29.97773 76.311113 
L 29.97773 65.589992 
" style="fill:none;stroke:#000000;stroke-width:0.5;"/>
    <path clip-path="url(#pec0fe72441)" d="M 28.647365 89.909809 
L 28.647365 85.201799 
" style="fill:none;stroke:#000000;stroke-width:0.5;"/>
    <path clip-path="url(#pec0fe72441)" d="M 28.263879 92.163805 
L 28.263879 84.584466 
" style="fill:none;stroke:#000000;stroke-width:0.5;"/>
    <path clip-path="url(#pec0fe72441)" d="M 29.138684 87.005726 
L 29.138684 85.544249 
" style="fill:none;stroke:#000000;stroke-width:0.5;"/>
    <path clip-path="url(#pec0fe72441)" d="M 28.425301 88.334219 
L 28.425301 82.668298 
" style="fill:none;stroke:#000000;stroke-width:0.5;"/>
    <path clip-path="url(#pec0fe72441)" d="M 27.461596 93.866648 
L 27.461596 92.650117 
" style="fill:none;stroke:#000000;stroke-width:0.5;"/>
    <path clip-path="url(#pec0fe72441)" d="M 29.611917 82.158378 
L 29.611917 76.604182 
" style="fill:none;stroke:#000000;stroke-width:0.5;"/>
    <path clip-path="url(#pec0fe72441)" d="M 27.270472 93.736162 
L 27.270472 92.268993 
" style="fill:none;stroke:#000000;stroke-width:0.5;"/>
    <path clip-path="url(#pec0fe72441)" d="M 27.422352 93.204257 
L 27.422352 78.32147 
" style="fill:none;stroke:#000000;stroke-width:0.5;"/>
    <path clip-path="url(#pec0fe72441)" d="M 37.427977 65.704774 
L 37.427977 16.812698 
" style="fill:none;stroke:#000000;stroke-width:0.5;"/>
    <path clip-path="url(#pec0fe72441)" d="M 29.016656 79.284522 
L 29.016656 17.666309 
" style="fill:none;stroke:#000000;stroke-width:0.5;"/>
    <path clip-path="url(#pec0fe72441)" d="M 27.674638 74.196119 
L 27.674638 71.89097 
" style="fill:none;stroke:#000000;stroke-width:0.5;"/>
    <path clip-path="url(#pec0fe72441)" d="M 29.317308 87.918696 
L 29.317308 81.602457 
" style="fill:none;stroke:#000000;stroke-width:0.5;"/>
    <path clip-path="url(#pec0fe72441)" d="M 29.429905 91.307533 
L 29.429905 83.797381 
" style="fill:none;stroke:#000000;stroke-width:0.5;"/>
    <path clip-path="url(#pec0fe72441)" d="M 27.400278 91.964536 
L 27.400278 88.972845 
" style="fill:none;stroke:#000000;stroke-width:0.5;"/>
    <path clip-path="url(#pec0fe72441)" d="M 28.389127 86.440267 
L 28.389127 81.025334 
" style="fill:none;stroke:#000000;stroke-width:0.5;"/>
    <path clip-path="url(#pec0fe72441)" d="M 29.938883 85.681289 
L 29.938883 79.524025 
" style="fill:none;stroke:#000000;stroke-width:0.5;"/>
   </g>
   <g id="line2d_1">
    <path clip-path="url(#pec0fe72441)" d="M 27 90.819926 
L 27.768595 87.756536 
L 28.53719 84.693145 
L 29.305785 81.629755 
L 30.07438 78.566365 
L 30.842975 75.502975 
L 31.61157 72.439585 
L 32.380165 69.376195 
L 33.14876 66.312805 
L 33.917355 63.249415 
L 34.68595 60.186025 
L 35.454545 57.122635 
L 36.22314 54.059245 
L 36.991736 50.995855 
L 37.760331 47.932465 
L 38.528926 44.869075 
L 39.297521 41.805685 
L 40.066116 38.742295 
L 40.834711 35.678905 
L 41.603306 32.615515 
L 42.371901 29.552125 
L 43.140496 26.488735 
L 43.909091 23.425345 
L 44.677686 20.361955 
L 45.446281 17.298565 
L 46.214876 14.235174 
L 46.983471 11.171784 
L 47.752066 8.108394 
L 48.520661 5.045004 
L 49.289256 1.981614 
L 50.037334 -1 
" style="fill:none;stroke:#000000;stroke-dasharray:1.85,0.8;stroke-dashoffset:0;stroke-width:0.5;"/>
   </g>
   <g id="line2d_2">
    <defs>
     <path d="M 0 3 
C 0.795609 3 1.55874 2.683901 2.12132 2.12132 
C 2.683901 1.55874 3 0.795609 3 0 
C 3 -0.795609 2.683901 -1.55874 2.12132 -2.12132 
C 1.55874 -2.683901 0.795609 -3 0 -3 
C -0.795609 -3 -1.55874 -2.683901 -2.12132 -2.12132 
C -2.683901 -1.55874 -3 -0.795609 -3 0 
C -3 0.795609 -2.683901 1.55874 -2.12132 2.12132 
C -1.55874 2.683901 -0.795609 3 0 3 
z
" id="m8a827c2640" style="stroke:#000000;"/>
    </defs>
    <g clip-path="url(#pec0fe72441)">
     <use style="stroke:#000000;" x="30.923456" xlink:href="#m8a827c2640" y="76.713772"/>
     <use style="stroke:#000000;" x="30.02886" xlink:href="#m8a827c2640" y="81.28604"/>
     <use style="stroke:#000000;" x="28.27731" xlink:href="#m8a827c2640" y="80.817741"/>
     <use style="stroke:#000000;" x="27.700991" xlink:href="#m8a827c2640" y="87.79319"/>
     <use style="stroke:#000000;" x="33.448022" xlink:href="#m8a827c2640" y="70.848558"/>
     <use style="stroke:#000000;" x="28.328155" xlink:href="#m8a827c2640" y="85.721145"/>
     <use style="stroke:#000000;" x="31.630166" xlink:href="#m8a827c2640" y="79.195356"/>
     <use style="stroke:#000000;" x="29.348173" xlink:href="#m8a827c2640" y="90.439943"/>
     <use style="stroke:#000000;" x="27.13966" xlink:href="#m8a827c2640" y="91.958878"/>
     <use style="stroke:#000000;" x="29.720883" xlink:href="#m8a827c2640" y="88.437396"/>
     <use style="stroke:#000000;" x="30.294704" xlink:href="#m8a827c2640" y="81.029425"/>
     <use style="stroke:#000000;" x="28.083588" xlink:href="#m8a827c2640" y="88.870621"/>
     <use style="stroke:#000000;" x="28.671388" xlink:href="#m8a827c2640" y="86.869468"/>
     <use style="stroke:#000000;" x="29.97773" xlink:href="#m8a827c2640" y="70.950552"/>
     <use style="stroke:#000000;" x="28.647365" xlink:href="#m8a827c2640" y="87.555804"/>
     <use style="stroke:#000000;" x="28.263879" xlink:href="#m8a827c2640" y="88.374135"/>
     <use style="stroke:#000000;" x="29.138684" xlink:href="#m8a827c2640" y="86.274987"/>
     <use style="stroke:#000000;" x="28.425301" xlink:href="#m8a827c2640" y="85.501259"/>
     <use style="stroke:#000000;" x="27.461596" xlink:href="#m8a827c2640" y="93.258382"/>
     <use style="stroke:#000000;" x="29.611917" xlink:href="#m8a827c2640" y="79.38128"/>
     <use style="stroke:#000000;" x="27.270472" xlink:href="#m8a827c2640" y="93.002578"/>
     <use style="stroke:#000000;" x="27.422352" xlink:href="#m8a827c2640" y="85.762863"/>
     <use style="stroke:#000000;" x="37.427977" xlink:href="#m8a827c2640" y="41.258736"/>
     <use style="stroke:#000000;" x="29.016656" xlink:href="#m8a827c2640" y="48.475416"/>
     <use style="stroke:#000000;" x="27.674638" xlink:href="#m8a827c2640" y="73.043545"/>
     <use style="stroke:#000000;" x="29.317308" xlink:href="#m8a827c2640" y="84.760577"/>
     <use style="stroke:#000000;" x="29.429905" xlink:href="#m8a827c2640" y="87.552457"/>
     <use style="stroke:#000000;" x="27.400278" xlink:href="#m8a827c2640" y="90.468691"/>
     <use style="stroke:#000000;" x="28.389127" xlink:href="#m8a827c2640" y="83.7328"/>
     <use style="stroke:#000000;" x="29.938883" xlink:href="#m8a827c2640" y="82.602657"/>
    </g>
   </g>
   <g id="patch_3">
    <path d="M 27 94.5 
L 27 12.96 
" style="fill:none;stroke:#000000;stroke-linecap:square;stroke-linejoin:miter;"/>
   </g>
   <g id="patch_4">
    <path d="M 27 94.5 
L 103.090909 94.5 
" style="fill:none;stroke:#000000;stroke-linecap:square;stroke-linejoin:miter;"/>
   </g>
   <g id="matplotlib.axis_1">
    <g id="xtick_1">
     <g id="line2d_3"/>
     <g id="text_1">
      <text style="font-family:Arial;font-size:8px;font-style:normal;font-weight:normal;text-anchor:middle;" transform="rotate(-0, 27, 103.72625)" x="27" y="103.72625">0</text>
     </g>
    </g>
    <g id="xtick_2">
     <g id="line2d_4"/>
     <g id="text_2">
      <text style="font-family:Arial;font-size:8px;font-style:normal;font-weight:normal;text-anchor:middle;" transform="rotate(-0, 55.50222, 103.72625)" x="55.50222" y="103.72625">10</text>
     </g>
    </g>
    <g id="xtick_3">
     <g id="line2d_5"/>
     <g id="text_3">
      <text style="font-family:Arial;font-size:8px;font-style:normal;font-weight:normal;text-anchor:middle;" transform="rotate(-0, 84.00444, 103.72625)" x="84.00444" y="103.72625">20</text>
     </g>
    </g>
    <g id="text_4">
     <text style="font-family:Arial;font-size:10px;font-style:normal;font-weight:normal;text-anchor:middle;" transform="rotate(-0, 65.045455, 116.474063)" x="65.045455" y="116.474063">Exc</text>
    </g>
   </g>
   <g id="matplotlib.axis_2">
    <g id="ytick_1">
     <g id="line2d_6"/>
     <g id="text_5">
      <text style="font-family:Arial;font-size:8px;font-style:normal;font-weight:normal;text-anchor:end;" transform="rotate(-0, 23.5, 97.363125)" x="23.5" y="97.363125">0</text>
     </g>
    </g>
    <g id="ytick_2">
     <g id="line2d_7"/>
     <g id="text_6">
      <text style="font-family:Arial;font-size:8px;font-style:normal;font-weight:normal;text-anchor:end;" transform="rotate(-0, 23.5, 66.819778)" x="23.5" y="66.819778">10</text>
     </g>
    </g>
    <g id="ytick_3">
     <g id="line2d_8"/>
     <g id="text_7">
      <text style="font-family:Arial;font-size:8px;font-style:normal;font-weight:normal;text-anchor:end;" transform="rotate(-0, 23.5, 36.276432)" x="23.5" y="36.276432">20</text>
     </g>
    </g>
    <g id="text_8">
     <text style="font-family:Arial;font-size:10px;font-style:normal;font-weight:normal;text-anchor:middle;" transform="rotate(-90, 8.615, 53.73)" x="8.615" y="53.73">Inh</text>
    </g>
   </g>
   <g id="legend_1">
    <g id="line2d_9">
     <path d="M 36 75.622656 
L 56 75.622656 
" style="fill:none;stroke:#000000;stroke-dasharray:1.85,0.8;stroke-dashoffset:0;stroke-width:0.5;"/>
    </g>
    <g id="line2d_10"/>
    <g id="text_9">
     <!-- $R^2$ 0.50 -->
     <g transform="translate(64 72.875)">
      <text>
       <tspan style="font-family:DejaVu Sans;font-size:10px;font-style:oblique;font-weight:oblique;" x="0" y="-0.9765625">R</tspan>
       <tspan style="font-family:DejaVu Sans;font-size:7px;font-style:book;font-weight:book;" x="7.650794" y="-4.8046875">2</tspan>
       <tspan style="font-family:Arial;font-size:10px;font-style:regular;font-weight:regular;" x="12.377845 15.156165 20.717689 23.496009 29.057533" y="-0.9765625"> 0.50</tspan>
      </text>
     </g>
     <text style="font-family:Arial;font-size:10px;font-style:normal;font-weight:normal;" transform="translate(64 83.4875)"> slope 3.72</text>
    </g>
   </g>
  </g>
  <g id="axes_2">
   <g id="patch_5">
    <path d="M 118.309091 94.5 
L 194.4 94.5 
L 194.4 12.96 
L 118.309091 12.96 
z
" style="fill:#ffffff;"/>
   </g>
   <g id="PathCollection_1">
    <defs>
     <path d="M 0 2.44949 
C 0.649612 2.44949 1.272706 2.191396 1.732051 1.732051 
C 2.191396 1.272706 2.44949 0.649612 2.44949 0 
C 2.44949 -0.649612 2.191396 -1.272706 1.732051 -1.732051 
C 1.272706 -2.191396 0.649612 -2.44949 0 -2.44949 
C -0.649612 -2.44949 -1.272706 -2.191396 -1.732051 -1.732051 
C -2.191396 -1.272706 -2.44949 -0.649612 -2.44949 0 
C -2.44949 0.649612 -2.191396 1.272706 -1.732051 1.732051 
C -1.272706 2.191396 -0.649612 2.44949 0 2.44949 
z
" id="m5d84dae14e" style="stroke:#000000;"/>
    </defs>
    <g clip-path="url(#p7337bd5c88)">
     <use style="stroke:#000000;" x="126.797071" xlink:href="#m5d84dae14e" y="87.024945"/>
     <use style="stroke:#000000;" x="129.505599" xlink:href="#m5d84dae14e" y="91.928338"/>
     <use style="stroke:#000000;" x="122.015775" xlink:href="#m5d84dae14e" y="90.912828"/>
     <use style="stroke:#000000;" x="120.496433" xlink:href="#m5d84dae14e" y="90.844391"/>
     <use style="stroke:#000000;" x="133.00274" xlink:href="#m5d84dae14e" y="75.93226"/>
     <use style="stroke:#000000;" x="123.511369" xlink:href="#m5d84dae14e" y="92.808843"/>
     <use style="stroke:#000000;" x="132.875288" xlink:href="#m5d84dae14e" y="91.494351"/>
     <use style="stroke:#000000;" x="122.959454" xlink:href="#m5d84dae14e" y="88.174865"/>
     <use style="stroke:#000000;" x="119.171175" xlink:href="#m5d84dae14e" y="92.495807"/>
     <use style="stroke:#000000;" x="126.114872" xlink:href="#m5d84dae14e" y="84.721577"/>
     <use style="stroke:#000000;" x="128.637951" xlink:href="#m5d84dae14e" y="78.807774"/>
     <use style="stroke:#000000;" x="120.612235" xlink:href="#m5d84dae14e" y="92.034063"/>
     <use style="stroke:#000000;" x="121.940237" xlink:href="#m5d84dae14e" y="87.996102"/>
     <use style="stroke:#000000;" x="130.176108" xlink:href="#m5d84dae14e" y="80.991327"/>
     <use style="stroke:#000000;" x="123.459423" xlink:href="#m5d84dae14e" y="88.567881"/>
     <use style="stroke:#000000;" x="121.778026" xlink:href="#m5d84dae14e" y="84.949989"/>
     <use style="stroke:#000000;" x="124.916434" xlink:href="#m5d84dae14e" y="92.658531"/>
     <use style="stroke:#000000;" x="123.542017" xlink:href="#m5d84dae14e" y="87.360907"/>
     <use style="stroke:#000000;" x="120.111155" xlink:href="#m5d84dae14e" y="92.967163"/>
     <use style="stroke:#000000;" x="124.433151" xlink:href="#m5d84dae14e" y="87.501681"/>
     <use style="stroke:#000000;" x="119.420267" xlink:href="#m5d84dae14e" y="92.65136"/>
     <use style="stroke:#000000;" x="119.348389" xlink:href="#m5d84dae14e" y="75.747604"/>
     <use style="stroke:#000000;" x="175.148038" xlink:href="#m5d84dae14e" y="32.895705"/>
     <use style="stroke:#000000;" x="124.981129" xlink:href="#m5d84dae14e" y="16.860701"/>
     <use style="stroke:#000000;" x="120.468317" xlink:href="#m5d84dae14e" y="91.595499"/>
     <use style="stroke:#000000;" x="121.655665" xlink:href="#m5d84dae14e" y="86.541504"/>
     <use style="stroke:#000000;" x="124.53223" xlink:href="#m5d84dae14e" y="85.037166"/>
     <use style="stroke:#000000;" x="120.779903" xlink:href="#m5d84dae14e" y="90.730453"/>
     <use style="stroke:#000000;" x="123.988195" xlink:href="#m5d84dae14e" y="87.677154"/>
     <use style="stroke:#000000;" x="123.354903" xlink:href="#m5d84dae14e" y="86.741812"/>
    </g>
   </g>
   <g id="line2d_11">
    <path clip-path="url(#p7337bd5c88)" d="M 118.309091 90.698152 
L 119.077686 89.951063 
L 119.846281 89.203975 
L 120.614876 88.456886 
L 121.383471 87.709798 
L 122.152066 86.962709 
L 122.920661 86.215621 
L 123.689256 85.468532 
L 124.457851 84.721444 
L 125.226446 83.974355 
L 125.995041 83.227267 
L 126.763636 82.480178 
L 127.532231 81.73309 
L 128.300826 80.986001 
L 129.069421 80.238913 
L 129.838017 79.491824 
L 130.606612 78.744736 
L 131.375207 77.997647 
L 132.143802 77.250559 
L 132.912397 76.50347 
L 133.680992 75.756382 
L 134.449587 75.009293 
L 135.218182 74.262205 
L 135.986777 73.515116 
L 136.755372 72.768028 
L 137.523967 72.020939 
L 138.292562 71.273851 
L 139.061157 70.526762 
L 139.829752 69.779674 
L 140.598347 69.032585 
L 141.366942 68.285497 
L 142.135537 67.538408 
L 142.904132 66.79132 
L 143.672727 66.044231 
L 144.441322 65.297143 
L 145.209917 64.550054 
L 145.978512 63.802966 
L 146.747107 63.055877 
L 147.515702 62.308789 
L 148.284298 61.5617 
L 149.052893 60.814612 
L 149.821488 60.067523 
L 150.590083 59.320435 
L 151.358678 58.573346 
L 152.127273 57.826258 
L 152.895868 57.079169 
L 153.664463 56.332081 
L 154.433058 55.584992 
L 155.201653 54.837904 
L 155.970248 54.090815 
L 156.738843 53.343727 
L 157.507438 52.596638 
L 158.276033 51.84955 
L 159.044628 51.102461 
L 159.813223 50.355373 
L 160.581818 49.608284 
L 161.350413 48.861196 
L 162.119008 48.114107 
L 162.887603 47.367019 
L 163.656198 46.61993 
L 164.424793 45.872842 
L 165.193388 45.125753 
L 165.961983 44.378665 
L 166.730579 43.631576 
L 167.499174 42.884488 
L 168.267769 42.137399 
L 169.036364 41.390311 
L 169.804959 40.643222 
L 170.573554 39.896134 
L 171.342149 39.149045 
L 172.110744 38.401957 
L 172.879339 37.654868 
L 173.647934 36.90778 
L 174.416529 36.160691 
L 175.185124 35.413603 
L 175.953719 34.666514 
L 176.722314 33.919426 
L 177.490909 33.172337 
L 178.259504 32.425249 
L 179.028099 31.67816 
L 179.796694 30.931072 
L 180.565289 30.183983 
L 181.333884 29.436895 
L 182.102479 28.689806 
L 182.871074 27.942718 
L 183.639669 27.195629 
L 184.408264 26.448541 
L 185.17686 25.701452 
L 185.945455 24.954364 
L 186.71405 24.207275 
L 187.482645 23.460187 
L 188.25124 22.713098 
L 189.019835 21.96601 
L 189.78843 21.218921 
L 190.557025 20.471833 
L 191.32562 19.724744 
L 192.094215 18.977656 
L 192.86281 18.230567 
L 193.631405 17.483479 
L 194.4 16.73639 
" style="fill:none;stroke:#000000;stroke-dasharray:1.85,0.8;stroke-dashoffset:0;stroke-width:0.5;"/>
   </g>
   <g id="patch_6">
    <path d="M 118.309091 94.5 
L 118.309091 12.96 
" style="fill:none;stroke:#000000;stroke-linecap:square;stroke-linejoin:miter;"/>
   </g>
   <g id="patch_7">
    <path d="M 118.309091 94.5 
L 194.4 94.5 
" style="fill:none;stroke:#000000;stroke-linecap:square;stroke-linejoin:miter;"/>
   </g>
   <g id="matplotlib.axis_3">
    <g id="xtick_4">
     <g id="line2d_12"/>
     <g id="text_10">
      <text style="font-family:Arial;font-size:8px;font-style:normal;font-weight:normal;text-anchor:middle;" transform="rotate(-0, 118.309091, 103.72625)" x="118.309091" y="103.72625">0</text>
     </g>
    </g>
    <g id="xtick_5">
     <g id="line2d_13"/>
     <g id="text_11">
      <text style="font-family:Arial;font-size:8px;font-style:normal;font-weight:normal;text-anchor:middle;" transform="rotate(-0, 154.22205, 103.72625)" x="154.22205" y="103.72625">5</text>
     </g>
    </g>
    <g id="xtick_6">
     <g id="line2d_14"/>
     <g id="text_12">
      <text style="font-family:Arial;font-size:8px;font-style:normal;font-weight:normal;text-anchor:middle;" transform="rotate(-0, 190.13501, 103.72625)" x="190.13501" y="103.72625">10</text>
     </g>
    </g>
    <g id="text_13">
     <!-- $\sigma$(Exc) -->
     <g transform="translate(141.504545 116.61625)">
      <text>
       <tspan style="font-family:DejaVu Sans;font-size:10px;font-style:oblique;font-weight:oblique;" x="0" y="-0.71875">σ</tspan>
       <tspan style="font-family:Arial;font-size:10px;font-style:regular;font-weight:regular;" x="6.337891 9.667969 16.337891 21.337891 26.337891" y="-0.71875">(Exc)</tspan>
      </text>
     </g>
    </g>
   </g>
   <g id="matplotlib.axis_4">
    <g id="ytick_4">
     <g id="line2d_15"/>
     <g id="text_14">
      <text style="font-family:Arial;font-size:8px;font-style:normal;font-weight:normal;text-anchor:end;" transform="rotate(-0, 114.809091, 97.363125)" x="114.809091" y="97.363125">0.0</text>
     </g>
    </g>
    <g id="ytick_5">
     <g id="line2d_16"/>
     <g id="text_15">
      <text style="font-family:Arial;font-size:8px;font-style:normal;font-weight:normal;text-anchor:end;" transform="rotate(-0, 114.809091, 78.12073)" x="114.809091" y="78.12073">2.5</text>
     </g>
    </g>
    <g id="ytick_6">
     <g id="line2d_17"/>
     <g id="text_16">
      <text style="font-family:Arial;font-size:8px;font-style:normal;font-weight:normal;text-anchor:end;" transform="rotate(-0, 114.809091, 58.878334)" x="114.809091" y="58.878334">5.0</text>
     </g>
    </g>
    <g id="ytick_7">
     <g id="line2d_18"/>
     <g id="text_17">
      <text style="font-family:Arial;font-size:8px;font-style:normal;font-weight:normal;text-anchor:end;" transform="rotate(-0, 114.809091, 39.635939)" x="114.809091" y="39.635939">7.5</text>
     </g>
    </g>
    <g id="ytick_8">
     <g id="line2d_19"/>
     <g id="text_18">
      <text style="font-family:Arial;font-size:8px;font-style:normal;font-weight:normal;text-anchor:end;" transform="rotate(-0, 114.809091, 20.393544)" x="114.809091" y="20.393544">10.0</text>
     </g>
    </g>
    <g id="text_19">
     <!-- $\sigma$(Inh) -->
     <g transform="translate(93.040341 67.18)rotate(-90)">
      <text>
       <tspan style="font-family:DejaVu Sans;font-size:10px;font-style:oblique;font-weight:oblique;" x="0" y="-0.71875">σ</tspan>
       <tspan style="font-family:Arial;font-size:10px;font-style:regular;font-weight:regular;" x="6.337891 9.667969 12.446289 18.007812 23.569336" y="-0.71875">(Inh)</tspan>
      </text>
     </g>
    </g>
   </g>
   <g id="legend_2">
    <g id="line2d_20">
     <path d="M 108.478125 31.995156 
L 128.478125 31.995156 
" style="fill:none;stroke:#000000;stroke-dasharray:1.85,0.8;stroke-dashoffset:0;stroke-width:0.5;"/>
    </g>
    <g id="line2d_21"/>
    <g id="text_20">
     <!-- $R^2$ 0.34 -->
     <g transform="translate(136.478125 29.2475)">
      <text>
       <tspan style="font-family:DejaVu Sans;font-size:10px;font-style:oblique;font-weight:oblique;" x="0" y="-0.9765625">R</tspan>
       <tspan style="font-family:DejaVu Sans;font-size:7px;font-style:book;font-weight:book;" x="7.650794" y="-4.8046875">2</tspan>
       <tspan style="font-family:Arial;font-size:10px;font-style:regular;font-weight:regular;" x="12.377845 15.156165 20.717689 23.496009 29.057533" y="-0.9765625"> 0.34</tspan>
      </text>
     </g>
     <text style="font-family:Arial;font-size:10px;font-style:normal;font-weight:normal;" transform="translate(136.478125 39.86)"> slope 0.91</text>
    </g>
   </g>
  </g>
 </g>
 <defs>
  <clipPath id="pec0fe72441">
   <rect height="81.54" width="76.090909" x="27" y="12.96"/>
  </clipPath>
  <clipPath id="p7337bd5c88">
   <rect height="81.54" width="76.090909" x="118.309091" y="12.96"/>
  </clipPath>
 </defs>
</svg>
