<?xml version="1.0" encoding="utf-8" standalone="no"?>
<!DOCTYPE svg PUBLIC "-//W3C//DTD SVG 1.1//EN"
  "http://www.w3.org/Graphics/SVG/1.1/DTD/svg11.dtd">
<!-- Created with matplotlib (http://matplotlib.org/) -->
<svg height="108pt" version="1.1" viewBox="0 0 216 108" width="216pt" xmlns="http://www.w3.org/2000/svg" xmlns:xlink="http://www.w3.org/1999/xlink">
 <defs>
  <style type="text/css">
*{stroke-linecap:butt;stroke-linejoin:round;}
  </style>
 </defs>
 <g id="figure_1">
  <g id="patch_1">
   <path d="M 0 108 
L 216 108 
L 216 0 
L 0 0 
z
" style="fill:#ffffff;"/>
  </g>
  <g id="axes_1">
   <g id="patch_2">
    <path d="M 27 94.5 
L 103.090909 94.5 
L 103.090909 12.96 
L 27 12.96 
z
" style="fill:#ffffff;"/>
   </g>
   <g id="LineCollection_1">
    <path clip-path="url(#p2ef0555abd)" d="M 28.716536 76.049001 
L 35.492146 76.049001 
" style="fill:none;stroke:#000000;stroke-width:0.5;"/>
    <path clip-path="url(#p2ef0555abd)" d="M 26.562127 84.333517 
L 31.945665 84.333517 
" style="fill:none;stroke:#000000;stroke-width:0.5;"/>
    <path clip-path="url(#p2ef0555abd)" d="M 27.343052 84.112124 
L 34.381471 84.112124 
" style="fill:none;stroke:#000000;stroke-width:0.5;"/>
    <path clip-path="url(#p2ef0555abd)" d="M 26.324179 85.357168 
L 30.006532 85.357168 
" style="fill:none;stroke:#000000;stroke-width:0.5;"/>
    <path clip-path="url(#p2ef0555abd)" d="M 29.868258 72.552458 
L 39.94708 72.552458 
" style="fill:none;stroke:#000000;stroke-width:0.5;"/>
    <path clip-path="url(#p2ef0555abd)" d="M 25.847093 62.505442 
L 48.376809 62.505442 
" style="fill:none;stroke:#000000;stroke-width:0.5;"/>
    <path clip-path="url(#p2ef0555abd)" d="M 26.908226 82.530885 
L 32.075933 82.530885 
" style="fill:none;stroke:#000000;stroke-width:0.5;"/>
    <path clip-path="url(#p2ef0555abd)" d="M 27.034501 86.431897 
L 30.099512 86.431897 
" style="fill:none;stroke:#000000;stroke-width:0.5;"/>
    <path clip-path="url(#p2ef0555abd)" d="M 28.419086 71.232858 
L 43.769383 71.232858 
" style="fill:none;stroke:#000000;stroke-width:0.5;"/>
    <path clip-path="url(#p2ef0555abd)" d="M 26.994896 81.572607 
L 36.474872 81.572607 
" style="fill:none;stroke:#000000;stroke-width:0.5;"/>
    <path clip-path="url(#p2ef0555abd)" d="M 24.647535 74.022753 
L 37.230982 74.022753 
" style="fill:none;stroke:#000000;stroke-width:0.5;"/>
    <path clip-path="url(#p2ef0555abd)" d="M 26.892934 47.544651 
L 36.349182 47.544651 
" style="fill:none;stroke:#000000;stroke-width:0.5;"/>
    <path clip-path="url(#p2ef0555abd)" d="M 26.778078 66.636307 
L 38.607292 66.636307 
" style="fill:none;stroke:#000000;stroke-width:0.5;"/>
    <path clip-path="url(#p2ef0555abd)" d="M 25.322123 57.588937 
L 51.459262 57.588937 
" style="fill:none;stroke:#000000;stroke-width:0.5;"/>
    <path clip-path="url(#p2ef0555abd)" d="M 27.254473 87.028913 
L 31.779628 87.028913 
" style="fill:none;stroke:#000000;stroke-width:0.5;"/>
    <path clip-path="url(#p2ef0555abd)" d="M 27.184296 91.780283 
L 28.838784 91.780283 
" style="fill:none;stroke:#000000;stroke-width:0.5;"/>
    <path clip-path="url(#p2ef0555abd)" d="M 26.983235 86.428083 
L 27.368077 86.428083 
" style="fill:none;stroke:#000000;stroke-width:0.5;"/>
    <path clip-path="url(#p2ef0555abd)" d="M 25.507257 76.90735 
L 34.441021 76.90735 
" style="fill:none;stroke:#000000;stroke-width:0.5;"/>
    <path clip-path="url(#p2ef0555abd)" d="M 27.861128 73.332689 
L 35.72012 73.332689 
" style="fill:none;stroke:#000000;stroke-width:0.5;"/>
    <path clip-path="url(#p2ef0555abd)" d="M 26.630552 75.354324 
L 40.608501 75.354324 
" style="fill:none;stroke:#000000;stroke-width:0.5;"/>
    <path clip-path="url(#p2ef0555abd)" d="M 26.796618 88.021615 
L 31.32869 88.021615 
" style="fill:none;stroke:#000000;stroke-width:0.5;"/>
    <path clip-path="url(#p2ef0555abd)" d="M 28.179366 65.228876 
L 40.3656 65.228876 
" style="fill:none;stroke:#000000;stroke-width:0.5;"/>
    <path clip-path="url(#p2ef0555abd)" d="M 26.245535 89.373282 
L 29.387923 89.373282 
" style="fill:none;stroke:#000000;stroke-width:0.5;"/>
    <path clip-path="url(#p2ef0555abd)" d="M 21.366962 44.082761 
L 57.226134 44.082761 
" style="fill:none;stroke:#000000;stroke-width:0.5;"/>
    <path clip-path="url(#p2ef0555abd)" d="M 22.724707 54.943961 
L 51.116407 54.943961 
" style="fill:none;stroke:#000000;stroke-width:0.5;"/>
    <path clip-path="url(#p2ef0555abd)" d="M 26.195908 86.65278 
L 30.329604 86.65278 
" style="fill:none;stroke:#000000;stroke-width:0.5;"/>
    <path clip-path="url(#p2ef0555abd)" d="M 27.879646 77.174078 
L 35.724931 77.174078 
" style="fill:none;stroke:#000000;stroke-width:0.5;"/>
    <path clip-path="url(#p2ef0555abd)" d="M 26.611944 86.029433 
L 28.755279 86.029433 
" style="fill:none;stroke:#000000;stroke-width:0.5;"/>
    <path clip-path="url(#p2ef0555abd)" d="M 26.767633 92.010299 
L 28.52161 92.010299 
" style="fill:none;stroke:#000000;stroke-width:0.5;"/>
    <path clip-path="url(#p2ef0555abd)" d="M 27.480104 76.631705 
L 36.408901 76.631705 
" style="fill:none;stroke:#000000;stroke-width:0.5;"/>
   </g>
   <g id="LineCollection_2">
    <path clip-path="url(#p2ef0555abd)" d="M 32.104341 77.379011 
L 32.104341 74.718991 
" style="fill:none;stroke:#000000;stroke-width:0.5;"/>
    <path clip-path="url(#p2ef0555abd)" d="M 29.253896 87.404285 
L 29.253896 81.262749 
" style="fill:none;stroke:#000000;stroke-width:0.5;"/>
    <path clip-path="url(#p2ef0555abd)" d="M 30.862261 89.985079 
L 30.862261 78.239169 
" style="fill:none;stroke:#000000;stroke-width:0.5;"/>
    <path clip-path="url(#p2ef0555abd)" d="M 28.165355 87.467351 
L 28.165355 83.246984 
" style="fill:none;stroke:#000000;stroke-width:0.5;"/>
    <path clip-path="url(#p2ef0555abd)" d="M 34.907669 76.058768 
L 34.907669 69.046147 
" style="fill:none;stroke:#000000;stroke-width:0.5;"/>
    <path clip-path="url(#p2ef0555abd)" d="M 37.111951 63.270711 
L 37.111951 61.740172 
" style="fill:none;stroke:#000000;stroke-width:0.5;"/>
    <path clip-path="url(#p2ef0555abd)" d="M 29.49208 87.80712 
L 29.49208 77.25465 
" style="fill:none;stroke:#000000;stroke-width:0.5;"/>
    <path clip-path="url(#p2ef0555abd)" d="M 28.567006 87.316673 
L 28.567006 85.547121 
" style="fill:none;stroke:#000000;stroke-width:0.5;"/>
    <path clip-path="url(#p2ef0555abd)" d="M 36.094234 77.738424 
L 36.094234 64.727291 
" style="fill:none;stroke:#000000;stroke-width:0.5;"/>
    <path clip-path="url(#p2ef0555abd)" d="M 31.734884 84.757652 
L 31.734884 78.387562 
" style="fill:none;stroke:#000000;stroke-width:0.5;"/>
    <path clip-path="url(#p2ef0555abd)" d="M 30.939258 79.187604 
L 30.939258 68.857903 
" style="fill:none;stroke:#000000;stroke-width:0.5;"/>
    <path clip-path="url(#p2ef0555abd)" d="M 31.621058 55.759363 
L 31.621058 39.329939 
" style="fill:none;stroke:#000000;stroke-width:0.5;"/>
    <path clip-path="url(#p2ef0555abd)" d="M 32.692685 78.076742 
L 32.692685 55.195872 
" style="fill:none;stroke:#000000;stroke-width:0.5;"/>
    <path clip-path="url(#p2ef0555abd)" d="M 38.390692 61.496007 
L 38.390692 53.681866 
" style="fill:none;stroke:#000000;stroke-width:0.5;"/>
    <path clip-path="url(#p2ef0555abd)" d="M 29.517051 88.098063 
L 29.517051 85.959764 
" style="fill:none;stroke:#000000;stroke-width:0.5;"/>
    <path clip-path="url(#p2ef0555abd)" d="M 28.01154 92.202248 
L 28.01154 91.358317 
" style="fill:none;stroke:#000000;stroke-width:0.5;"/>
    <path clip-path="url(#p2ef0555abd)" d="M 27.175656 86.714576 
L 27.175656 86.141591 
" style="fill:none;stroke:#000000;stroke-width:0.5;"/>
    <path clip-path="url(#p2ef0555abd)" d="M 29.974139 82.429643 
L 29.974139 71.385058 
" style="fill:none;stroke:#000000;stroke-width:0.5;"/>
    <path clip-path="url(#p2ef0555abd)" d="M 31.790624 76.518558 
L 31.790624 70.146821 
" style="fill:none;stroke:#000000;stroke-width:0.5;"/>
    <path clip-path="url(#p2ef0555abd)" d="M 33.619527 80.383965 
L 33.619527 70.324682 
" style="fill:none;stroke:#000000;stroke-width:0.5;"/>
    <path clip-path="url(#p2ef0555abd)" d="M 29.062654 90.439428 
L 29.062654 85.603802 
" style="fill:none;stroke:#000000;stroke-width:0.5;"/>
    <path clip-path="url(#p2ef0555abd)" d="M 34.272483 71.55159 
L 34.272483 58.906163 
" style="fill:none;stroke:#000000;stroke-width:0.5;"/>
    <path clip-path="url(#p2ef0555abd)" d="M 27.816729 90.889838 
L 27.816729 87.856727 
" style="fill:none;stroke:#000000;stroke-width:0.5;"/>
    <path clip-path="url(#p2ef0555abd)" d="M 39.296548 71.415222 
L 39.296548 16.750301 
" style="fill:none;stroke:#000000;stroke-width:0.5;"/>
    <path clip-path="url(#p2ef0555abd)" d="M 36.920557 71.576656 
L 36.920557 38.311265 
" style="fill:none;stroke:#000000;stroke-width:0.5;"/>
    <path clip-path="url(#p2ef0555abd)" d="M 28.262756 90.267876 
L 28.262756 83.037685 
" style="fill:none;stroke:#000000;stroke-width:0.5;"/>
    <path clip-path="url(#p2ef0555abd)" d="M 31.802289 82.200683 
L 31.802289 72.147473 
" style="fill:none;stroke:#000000;stroke-width:0.5;"/>
    <path clip-path="url(#p2ef0555abd)" d="M 27.683612 87.516474 
L 27.683612 84.542392 
" style="fill:none;stroke:#000000;stroke-width:0.5;"/>
    <path clip-path="url(#p2ef0555abd)" d="M 27.644622 92.556313 
L 27.644622 91.464286 
" style="fill:none;stroke:#000000;stroke-width:0.5;"/>
    <path clip-path="url(#p2ef0555abd)" d="M 31.944502 79.111304 
L 31.944502 74.152106 
" style="fill:none;stroke:#000000;stroke-width:0.5;"/>
   </g>
   <g id="line2d_1">
    <path clip-path="url(#p2ef0555abd)" d="M 27 90.474043 
L 27.768595 88.052618 
L 28.53719 85.631193 
L 29.305785 83.209768 
L 30.07438 80.788343 
L 30.842975 78.366918 
L 31.61157 75.945493 
L 32.380165 73.524068 
L 33.14876 71.102643 
L 33.917355 68.681218 
L 34.68595 66.259793 
L 35.454545 63.838368 
L 36.22314 61.416943 
L 36.991736 58.995518 
L 37.760331 56.574093 
L 38.528926 54.152668 
L 39.297521 51.731243 
L 40.066116 49.309818 
L 40.834711 46.888394 
L 41.603306 44.466969 
L 42.371901 42.045544 
L 43.140496 39.624119 
L 43.909091 37.202694 
L 44.677686 34.781269 
L 45.446281 32.359844 
L 46.214876 29.938419 
L 46.983471 27.516994 
L 47.752066 25.095569 
L 48.520661 22.674144 
L 49.289256 20.252719 
L 50.057851 17.831294 
L 50.826446 15.409869 
L 51.595041 12.988444 
L 52.363636 10.567019 
L 53.132231 8.145594 
L 53.900826 5.724169 
L 54.669421 3.302744 
L 55.438017 0.881319 
L 56.035174 -1 
" style="fill:none;stroke:#000000;stroke-dasharray:1.85,0.8;stroke-dashoffset:0;stroke-width:0.5;"/>
   </g>
   <g id="line2d_2">
    <defs>
     <path d="M 0 3 
C 0.795609 3 1.55874 2.683901 2.12132 2.12132 
C 2.683901 1.55874 3 0.795609 3 0 
C 3 -0.795609 2.683901 -1.55874 2.12132 -2.12132 
C 1.55874 -2.683901 0.795609 -3 0 -3 
C -0.795609 -3 -1.55874 -2.683901 -2.12132 -2.12132 
C -2.683901 -1.55874 -3 -0.795609 -3 0 
C -3 0.795609 -2.683901 1.55874 -2.12132 2.12132 
C -1.55874 2.683901 -0.795609 3 0 3 
z
" id="mf30e91bb7b" style="stroke:#000000;"/>
    </defs>
    <g clip-path="url(#p2ef0555abd)">
     <use style="stroke:#000000;" x="32.104341" xlink:href="#mf30e91bb7b" y="76.049001"/>
     <use style="stroke:#000000;" x="29.253896" xlink:href="#mf30e91bb7b" y="84.333517"/>
     <use style="stroke:#000000;" x="30.862261" xlink:href="#mf30e91bb7b" y="84.112124"/>
     <use style="stroke:#000000;" x="28.165355" xlink:href="#mf30e91bb7b" y="85.357168"/>
     <use style="stroke:#000000;" x="34.907669" xlink:href="#mf30e91bb7b" y="72.552458"/>
     <use style="stroke:#000000;" x="37.111951" xlink:href="#mf30e91bb7b" y="62.505442"/>
     <use style="stroke:#000000;" x="29.49208" xlink:href="#mf30e91bb7b" y="82.530885"/>
     <use style="stroke:#000000;" x="28.567006" xlink:href="#mf30e91bb7b" y="86.431897"/>
     <use style="stroke:#000000;" x="36.094234" xlink:href="#mf30e91bb7b" y="71.232858"/>
     <use style="stroke:#000000;" x="31.734884" xlink:href="#mf30e91bb7b" y="81.572607"/>
     <use style="stroke:#000000;" x="30.939258" xlink:href="#mf30e91bb7b" y="74.022753"/>
     <use style="stroke:#000000;" x="31.621058" xlink:href="#mf30e91bb7b" y="47.544651"/>
     <use style="stroke:#000000;" x="32.692685" xlink:href="#mf30e91bb7b" y="66.636307"/>
     <use style="stroke:#000000;" x="38.390692" xlink:href="#mf30e91bb7b" y="57.588937"/>
     <use style="stroke:#000000;" x="29.517051" xlink:href="#mf30e91bb7b" y="87.028913"/>
     <use style="stroke:#000000;" x="28.01154" xlink:href="#mf30e91bb7b" y="91.780283"/>
     <use style="stroke:#000000;" x="27.175656" xlink:href="#mf30e91bb7b" y="86.428083"/>
     <use style="stroke:#000000;" x="29.974139" xlink:href="#mf30e91bb7b" y="76.90735"/>
     <use style="stroke:#000000;" x="31.790624" xlink:href="#mf30e91bb7b" y="73.332689"/>
     <use style="stroke:#000000;" x="33.619527" xlink:href="#mf30e91bb7b" y="75.354324"/>
     <use style="stroke:#000000;" x="29.062654" xlink:href="#mf30e91bb7b" y="88.021615"/>
     <use style="stroke:#000000;" x="34.272483" xlink:href="#mf30e91bb7b" y="65.228876"/>
     <use style="stroke:#000000;" x="27.816729" xlink:href="#mf30e91bb7b" y="89.373282"/>
     <use style="stroke:#000000;" x="39.296548" xlink:href="#mf30e91bb7b" y="44.082761"/>
     <use style="stroke:#000000;" x="36.920557" xlink:href="#mf30e91bb7b" y="54.943961"/>
     <use style="stroke:#000000;" x="28.262756" xlink:href="#mf30e91bb7b" y="86.65278"/>
     <use style="stroke:#000000;" x="31.802289" xlink:href="#mf30e91bb7b" y="77.174078"/>
     <use style="stroke:#000000;" x="27.683612" xlink:href="#mf30e91bb7b" y="86.029433"/>
     <use style="stroke:#000000;" x="27.644622" xlink:href="#mf30e91bb7b" y="92.010299"/>
     <use style="stroke:#000000;" x="31.944502" xlink:href="#mf30e91bb7b" y="76.631705"/>
    </g>
   </g>
   <g id="patch_3">
    <path d="M 27 94.5 
L 27 12.96 
" style="fill:none;stroke:#000000;stroke-linecap:square;stroke-linejoin:miter;"/>
   </g>
   <g id="patch_4">
    <path d="M 27 94.5 
L 103.090909 94.5 
" style="fill:none;stroke:#000000;stroke-linecap:square;stroke-linejoin:miter;"/>
   </g>
   <g id="matplotlib.axis_1">
    <g id="xtick_1">
     <g id="line2d_3"/>
     <g id="text_1">
      <text style="font-family:Arial;font-size:8px;font-style:normal;font-weight:normal;text-anchor:middle;" transform="rotate(-0, 27, 103.72625)" x="27" y="103.72625">0</text>
     </g>
    </g>
    <g id="xtick_2">
     <g id="line2d_4"/>
     <g id="text_2">
      <text style="font-family:Arial;font-size:8px;font-style:normal;font-weight:normal;text-anchor:middle;" transform="rotate(-0, 70.533509, 103.72625)" x="70.533509" y="103.72625">10</text>
     </g>
    </g>
    <g id="text_3">
     <text style="font-family:Arial;font-size:10px;font-style:normal;font-weight:normal;text-anchor:middle;" transform="rotate(-0, 65.045455, 116.474063)" x="65.045455" y="116.474063">Exc</text>
    </g>
   </g>
   <g id="matplotlib.axis_2">
    <g id="ytick_1">
     <g id="line2d_5"/>
     <g id="text_4">
      <text style="font-family:Arial;font-size:8px;font-style:normal;font-weight:normal;text-anchor:end;" transform="rotate(-0, 23.5, 97.363125)" x="23.5" y="97.363125">0</text>
     </g>
    </g>
    <g id="ytick_2">
     <g id="line2d_6"/>
     <g id="text_5">
      <text style="font-family:Arial;font-size:8px;font-style:normal;font-weight:normal;text-anchor:end;" transform="rotate(-0, 23.5, 74.03759)" x="23.5" y="74.03759">5</text>
     </g>
    </g>
    <g id="ytick_3">
     <g id="line2d_7"/>
     <g id="text_6">
      <text style="font-family:Arial;font-size:8px;font-style:normal;font-weight:normal;text-anchor:end;" transform="rotate(-0, 23.5, 50.712056)" x="23.5" y="50.712056">10</text>
     </g>
    </g>
    <g id="ytick_4">
     <g id="line2d_8"/>
     <g id="text_7">
      <text style="font-family:Arial;font-size:8px;font-style:normal;font-weight:normal;text-anchor:end;" transform="rotate(-0, 23.5, 27.386521)" x="23.5" y="27.386521">15</text>
     </g>
    </g>
    <g id="text_8">
     <text style="font-family:Arial;font-size:10px;font-style:normal;font-weight:normal;text-anchor:middle;" transform="rotate(-90, 8.615, 53.73)" x="8.615" y="53.73">Inh</text>
    </g>
   </g>
   <g id="legend_1">
    <g id="line2d_9">
     <path d="M 17.169034 31.995156 
L 37.169034 31.995156 
" style="fill:none;stroke:#000000;stroke-dasharray:1.85,0.8;stroke-dashoffset:0;stroke-width:0.5;"/>
    </g>
    <g id="line2d_10"/>
    <g id="text_9">
     <!-- $R^2$ 0.72 -->
     <g transform="translate(45.169034 29.2475)">
      <text>
       <tspan style="font-family:DejaVu Sans;font-size:10px;font-style:oblique;font-weight:oblique;" x="0" y="-0.9765625">R</tspan>
       <tspan style="font-family:DejaVu Sans;font-size:7px;font-style:book;font-weight:book;" x="7.650794" y="-4.8046875">2</tspan>
       <tspan style="font-family:Arial;font-size:10px;font-style:regular;font-weight:regular;" x="12.377845 15.156165 20.717689 23.496009 29.057533" y="-0.9765625"> 0.72</tspan>
      </text>
     </g>
     <text style="font-family:Arial;font-size:10px;font-style:normal;font-weight:normal;" transform="translate(45.169034 39.86)"> slope 2.94</text>
    </g>
   </g>
  </g>
  <g id="axes_2">
   <g id="patch_5">
    <path d="M 118.309091 94.5 
L 194.4 94.5 
L 194.4 12.96 
L 118.309091 12.96 
z
" style="fill:#ffffff;"/>
   </g>
   <g id="PathCollection_1">
    <defs>
     <path d="M 0 2.44949 
C 0.649612 2.44949 1.272706 2.191396 1.732051 1.732051 
C 2.191396 1.272706 2.44949 0.649612 2.44949 0 
C 2.44949 -0.649612 2.191396 -1.272706 1.732051 -1.732051 
C 1.272706 -2.191396 0.649612 -2.44949 0 -2.44949 
C -0.649612 -2.44949 -1.272706 -2.191396 -1.732051 -1.732051 
C -2.191396 -1.272706 -2.44949 -0.649612 -2.44949 0 
C -2.44949 0.649612 -2.191396 1.272706 -1.732051 1.732051 
C -1.272706 2.191396 -0.649612 2.44949 0 2.44949 
z
" id="m71afffb496" style="stroke:#000000;"/>
    </defs>
    <g clip-path="url(#pc1d8bbf50f)">
     <use style="stroke:#000000;" x="127.91998" xlink:href="#m71afffb496" y="90.726885"/>
     <use style="stroke:#000000;" x="125.945391" xlink:href="#m71afffb496" y="85.788515"/>
     <use style="stroke:#000000;" x="128.292762" xlink:href="#m71afffb496" y="77.838971"/>
     <use style="stroke:#000000;" x="123.532338" xlink:href="#m71afffb496" y="88.513605"/>
     <use style="stroke:#000000;" x="132.605432" xlink:href="#m71afffb496" y="84.552922"/>
     <use style="stroke:#000000;" x="150.266449" xlink:href="#m71afffb496" y="92.329001"/>
     <use style="stroke:#000000;" x="125.639244" xlink:href="#m71afffb496" y="79.53181"/>
     <use style="stroke:#000000;" x="122.656667" xlink:href="#m71afffb496" y="91.989973"/>
     <use style="stroke:#000000;" x="140.082776" xlink:href="#m71afffb496" y="76.044312"/>
     <use style="stroke:#000000;" x="131.755997" xlink:href="#m71afffb496" y="85.464323"/>
     <use style="stroke:#000000;" x="136.158128" xlink:href="#m71afffb496" y="79.847799"/>
     <use style="stroke:#000000;" x="131.722341" xlink:href="#m71afffb496" y="71.195624"/>
     <use style="stroke:#000000;" x="135.088282" xlink:href="#m71afffb496" y="62.044546"/>
     <use style="stroke:#000000;" x="155.383412" xlink:href="#m71afffb496" y="83.416004"/>
     <use style="stroke:#000000;" x="124.727815" xlink:href="#m71afffb496" y="91.466921"/>
     <use style="stroke:#000000;" x="120.655904" xlink:href="#m71afffb496" y="93.302923"/>
     <use style="stroke:#000000;" x="118.854972" xlink:href="#m71afffb496" y="93.687247"/>
     <use style="stroke:#000000;" x="130.981222" xlink:href="#m71afffb496" y="78.833769"/>
     <use style="stroke:#000000;" x="129.456706" xlink:href="#m71afffb496" y="85.461986"/>
     <use style="stroke:#000000;" x="138.136163" xlink:href="#m71afffb496" y="80.231372"/>
     <use style="stroke:#000000;" x="124.737625" xlink:href="#m71afffb496" y="87.640889"/>
     <use style="stroke:#000000;" x="135.594699" xlink:href="#m71afffb496" y="76.563047"/>
     <use style="stroke:#000000;" x="122.766422" xlink:href="#m71afffb496" y="90.197673"/>
     <use style="stroke:#000000;" x="169.173664" xlink:href="#m71afffb496" y="16.960342"/>
     <use style="stroke:#000000;" x="158.581403" xlink:href="#m71afffb496" y="47.314584"/>
     <use style="stroke:#000000;" x="124.172547" xlink:href="#m71afffb496" y="84.244309"/>
     <use style="stroke:#000000;" x="129.437264" xlink:href="#m71afffb496" y="80.239988"/>
     <use style="stroke:#000000;" x="121.349312" xlink:href="#m71afffb496" y="90.281403"/>
     <use style="stroke:#000000;" x="120.797026" xlink:href="#m71afffb496" y="92.95101"/>
     <use style="stroke:#000000;" x="130.974176" xlink:href="#m71afffb496" y="87.465606"/>
    </g>
   </g>
   <g id="line2d_11">
    <path clip-path="url(#pc1d8bbf50f)" d="M 118.309091 94.639697 
L 119.077686 93.880494 
L 119.846281 93.121291 
L 120.614876 92.362088 
L 121.383471 91.602884 
L 122.152066 90.843681 
L 122.920661 90.084478 
L 123.689256 89.325274 
L 124.457851 88.566071 
L 125.226446 87.806868 
L 125.995041 87.047665 
L 126.763636 86.288461 
L 127.532231 85.529258 
L 128.300826 84.770055 
L 129.069421 84.010852 
L 129.838017 83.251648 
L 130.606612 82.492445 
L 131.375207 81.733242 
L 132.143802 80.974038 
L 132.912397 80.214835 
L 133.680992 79.455632 
L 134.449587 78.696429 
L 135.218182 77.937225 
L 135.986777 77.178022 
L 136.755372 76.418819 
L 137.523967 75.659616 
L 138.292562 74.900412 
L 139.061157 74.141209 
L 139.829752 73.382006 
L 140.598347 72.622803 
L 141.366942 71.863599 
L 142.135537 71.104396 
L 142.904132 70.345193 
L 143.672727 69.585989 
L 144.441322 68.826786 
L 145.209917 68.067583 
L 145.978512 67.30838 
L 146.747107 66.549176 
L 147.515702 65.789973 
L 148.284298 65.03077 
L 149.052893 64.271567 
L 149.821488 63.512363 
L 150.590083 62.75316 
L 151.358678 61.993957 
L 152.127273 61.234753 
L 152.895868 60.47555 
L 153.664463 59.716347 
L 154.433058 58.957144 
L 155.201653 58.19794 
L 155.970248 57.438737 
L 156.738843 56.679534 
L 157.507438 55.920331 
L 158.276033 55.161127 
L 159.044628 54.401924 
L 159.813223 53.642721 
L 160.581818 52.883518 
L 161.350413 52.124314 
L 162.119008 51.365111 
L 162.887603 50.605908 
L 163.656198 49.846704 
L 164.424793 49.087501 
L 165.193388 48.328298 
L 165.961983 47.569095 
L 166.730579 46.809891 
L 167.499174 46.050688 
L 168.267769 45.291485 
L 169.036364 44.532282 
L 169.804959 43.773078 
L 170.573554 43.013875 
L 171.342149 42.254672 
L 172.110744 41.495468 
L 172.879339 40.736265 
L 173.647934 39.977062 
L 174.416529 39.217859 
L 175.185124 38.458655 
L 175.953719 37.699452 
L 176.722314 36.940249 
L 177.490909 36.181046 
L 178.259504 35.421842 
L 179.028099 34.662639 
L 179.796694 33.903436 
L 180.565289 33.144233 
L 181.333884 32.385029 
L 182.102479 31.625826 
L 182.871074 30.866623 
L 183.639669 30.107419 
L 184.408264 29.348216 
L 185.17686 28.589013 
L 185.945455 27.82981 
L 186.71405 27.070606 
L 187.482645 26.311403 
L 188.25124 25.5522 
L 189.019835 24.792997 
L 189.78843 24.033793 
L 190.557025 23.27459 
L 191.32562 22.515387 
L 192.094215 21.756184 
L 192.86281 20.99698 
L 193.631405 20.237777 
L 194.4 19.478574 
" style="fill:none;stroke:#000000;stroke-dasharray:1.85,0.8;stroke-dashoffset:0;stroke-width:0.5;"/>
   </g>
   <g id="patch_6">
    <path d="M 118.309091 94.5 
L 118.309091 12.96 
" style="fill:none;stroke:#000000;stroke-linecap:square;stroke-linejoin:miter;"/>
   </g>
   <g id="patch_7">
    <path d="M 118.309091 94.5 
L 194.4 94.5 
" style="fill:none;stroke:#000000;stroke-linecap:square;stroke-linejoin:miter;"/>
   </g>
   <g id="matplotlib.axis_3">
    <g id="xtick_3">
     <g id="line2d_12"/>
     <g id="text_10">
      <text style="font-family:Arial;font-size:8px;font-style:normal;font-weight:normal;text-anchor:middle;" transform="rotate(-0, 118.309091, 103.72625)" x="118.309091" y="103.72625">0.0</text>
     </g>
    </g>
    <g id="xtick_4">
     <g id="line2d_13"/>
     <g id="text_11">
      <text style="font-family:Arial;font-size:8px;font-style:normal;font-weight:normal;text-anchor:middle;" transform="rotate(-0, 149.184223, 103.72625)" x="149.184223" y="103.72625">2.5</text>
     </g>
    </g>
    <g id="xtick_5">
     <g id="line2d_14"/>
     <g id="text_12">
      <text style="font-family:Arial;font-size:8px;font-style:normal;font-weight:normal;text-anchor:middle;" transform="rotate(-0, 180.059356, 103.72625)" x="180.059356" y="103.72625">5.0</text>
     </g>
    </g>
    <g id="text_13">
     <!-- $\sigma$(Exc) -->
     <g transform="translate(141.504545 116.61625)">
      <text>
       <tspan style="font-family:DejaVu Sans;font-size:10px;font-style:oblique;font-weight:oblique;" x="0" y="-0.71875">σ</tspan>
       <tspan style="font-family:Arial;font-size:10px;font-style:regular;font-weight:regular;" x="6.337891 9.667969 16.337891 21.337891 26.337891" y="-0.71875">(Exc)</tspan>
      </text>
     </g>
    </g>
   </g>
   <g id="matplotlib.axis_4">
    <g id="ytick_5">
     <g id="line2d_15"/>
     <g id="text_14">
      <text style="font-family:Arial;font-size:8px;font-style:normal;font-weight:normal;text-anchor:end;" transform="rotate(-0, 114.809091, 97.363125)" x="114.809091" y="97.363125">0</text>
     </g>
    </g>
    <g id="ytick_6">
     <g id="line2d_16"/>
     <g id="text_15">
      <text style="font-family:Arial;font-size:8px;font-style:normal;font-weight:normal;text-anchor:end;" transform="rotate(-0, 114.809091, 70.894173)" x="114.809091" y="70.894173">2</text>
     </g>
    </g>
    <g id="ytick_7">
     <g id="line2d_17"/>
     <g id="text_16">
      <text style="font-family:Arial;font-size:8px;font-style:normal;font-weight:normal;text-anchor:end;" transform="rotate(-0, 114.809091, 44.425221)" x="114.809091" y="44.425221">4</text>
     </g>
    </g>
    <g id="ytick_8">
     <g id="line2d_18"/>
     <g id="text_17">
      <text style="font-family:Arial;font-size:8px;font-style:normal;font-weight:normal;text-anchor:end;" transform="rotate(-0, 114.809091, 17.956268)" x="114.809091" y="17.956268">6</text>
     </g>
    </g>
    <g id="text_18">
     <!-- $\sigma$(Inh) -->
     <g transform="translate(104.160341 67.18)rotate(-90)">
      <text>
       <tspan style="font-family:DejaVu Sans;font-size:10px;font-style:oblique;font-weight:oblique;" x="0" y="-0.71875">σ</tspan>
       <tspan style="font-family:Arial;font-size:10px;font-style:regular;font-weight:regular;" x="6.337891 9.667969 12.446289 18.007812 23.569336" y="-0.71875">(Inh)</tspan>
      </text>
     </g>
    </g>
   </g>
   <g id="legend_2">
    <g id="line2d_19">
     <path d="M 108.478125 31.995156 
L 128.478125 31.995156 
" style="fill:none;stroke:#000000;stroke-dasharray:1.85,0.8;stroke-dashoffset:0;stroke-width:0.5;"/>
    </g>
    <g id="line2d_20"/>
    <g id="text_19">
     <!-- $R^2$ 0.58 -->
     <g transform="translate(136.478125 29.2475)">
      <text>
       <tspan style="font-family:DejaVu Sans;font-size:10px;font-style:oblique;font-weight:oblique;" x="0" y="-0.9765625">R</tspan>
       <tspan style="font-family:DejaVu Sans;font-size:7px;font-style:book;font-weight:book;" x="7.650794" y="-4.8046875">2</tspan>
       <tspan style="font-family:Arial;font-size:10px;font-style:regular;font-weight:regular;" x="12.377845 15.156165 20.717689 23.496009 29.057533" y="-0.9765625"> 0.58</tspan>
      </text>
     </g>
     <text style="font-family:Arial;font-size:10px;font-style:normal;font-weight:normal;" transform="translate(136.478125 39.86)"> slope 0.92</text>
    </g>
   </g>
  </g>
 </g>
 <defs>
  <clipPath id="p2ef0555abd">
   <rect height="81.54" width="76.090909" x="27" y="12.96"/>
  </clipPath>
  <clipPath id="pc1d8bbf50f">
   <rect height="81.54" width="76.090909" x="118.309091" y="12.96"/>
  </clipPath>
 </defs>
</svg>
