<?xml version="1.0" encoding="utf-8" standalone="no"?>
<!DOCTYPE svg PUBLIC "-//W3C//DTD SVG 1.1//EN"
  "http://www.w3.org/Graphics/SVG/1.1/DTD/svg11.dtd">
<!-- Created with matplotlib (http://matplotlib.org/) -->
<svg height="108pt" version="1.1" viewBox="0 0 216 108" width="216pt" xmlns="http://www.w3.org/2000/svg" xmlns:xlink="http://www.w3.org/1999/xlink">
 <defs>
  <style type="text/css">
*{stroke-linecap:butt;stroke-linejoin:round;}
  </style>
 </defs>
 <g id="figure_1">
  <g id="patch_1">
   <path d="M 0 108 
L 216 108 
L 216 0 
L 0 0 
z
" style="fill:#ffffff;"/>
  </g>
  <g id="axes_1">
   <g id="patch_2">
    <path d="M 27 94.5 
L 103.090909 94.5 
L 103.090909 12.96 
L 27 12.96 
z
" style="fill:#ffffff;"/>
   </g>
   <g id="LineCollection_1">
    <path clip-path="url(#p092554b2e3)" d="M 23.176658 72.682844 
L 37.656876 72.682844 
" style="fill:none;stroke:#000000;stroke-width:0.5;"/>
    <path clip-path="url(#p092554b2e3)" d="M 25.763525 82.487385 
L 29.942558 82.487385 
" style="fill:none;stroke:#000000;stroke-width:0.5;"/>
    <path clip-path="url(#p092554b2e3)" d="M 33.867338 44.775916 
L 45.256277 44.775916 
" style="fill:none;stroke:#000000;stroke-width:0.5;"/>
    <path clip-path="url(#p092554b2e3)" d="M 27.357345 57.383027 
L 48.412542 57.383027 
" style="fill:none;stroke:#000000;stroke-width:0.5;"/>
    <path clip-path="url(#p092554b2e3)" d="M 26.317128 75.031869 
L 37.63859 75.031869 
" style="fill:none;stroke:#000000;stroke-width:0.5;"/>
    <path clip-path="url(#p092554b2e3)" d="M 33.972111 32.413142 
L 52.444392 32.413142 
" style="fill:none;stroke:#000000;stroke-width:0.5;"/>
    <path clip-path="url(#p092554b2e3)" d="M 27.492003 83.226776 
L 38.768737 83.226776 
" style="fill:none;stroke:#000000;stroke-width:0.5;"/>
    <path clip-path="url(#p092554b2e3)" d="M 25.1947 54.471169 
L 45.972319 54.471169 
" style="fill:none;stroke:#000000;stroke-width:0.5;"/>
    <path clip-path="url(#p092554b2e3)" d="M 27.08522 59.327462 
L 38.080272 59.327462 
" style="fill:none;stroke:#000000;stroke-width:0.5;"/>
    <path clip-path="url(#p092554b2e3)" d="M 33.489098 46.74985 
L 50.300151 46.74985 
" style="fill:none;stroke:#000000;stroke-width:0.5;"/>
    <path clip-path="url(#p092554b2e3)" d="M 26.323491 70.956783 
L 37.016578 70.956783 
" style="fill:none;stroke:#000000;stroke-width:0.5;"/>
    <path clip-path="url(#p092554b2e3)" d="M 28.856064 70.237083 
L 37.813073 70.237083 
" style="fill:none;stroke:#000000;stroke-width:0.5;"/>
    <path clip-path="url(#p092554b2e3)" d="M 25.756684 61.237524 
L 38.819214 61.237524 
" style="fill:none;stroke:#000000;stroke-width:0.5;"/>
    <path clip-path="url(#p092554b2e3)" d="M 29.019018 50.378371 
L 38.3432 50.378371 
" style="fill:none;stroke:#000000;stroke-width:0.5;"/>
    <path clip-path="url(#p092554b2e3)" d="M 28.345227 74.15925 
L 41.735812 74.15925 
" style="fill:none;stroke:#000000;stroke-width:0.5;"/>
    <path clip-path="url(#p092554b2e3)" d="M 25.72363 82.142389 
L 32.924531 82.142389 
" style="fill:none;stroke:#000000;stroke-width:0.5;"/>
    <path clip-path="url(#p092554b2e3)" d="M 29.17793 73.334556 
L 38.28884 73.334556 
" style="fill:none;stroke:#000000;stroke-width:0.5;"/>
    <path clip-path="url(#p092554b2e3)" d="M 27.372015 70.099384 
L 32.720312 70.099384 
" style="fill:none;stroke:#000000;stroke-width:0.5;"/>
    <path clip-path="url(#p092554b2e3)" d="M 28.090065 76.29273 
L 34.482195 76.29273 
" style="fill:none;stroke:#000000;stroke-width:0.5;"/>
    <path clip-path="url(#p092554b2e3)" d="M 27.905828 74.537312 
L 36.96621 74.537312 
" style="fill:none;stroke:#000000;stroke-width:0.5;"/>
    <path clip-path="url(#p092554b2e3)" d="M 27.312664 41.512079 
L 49.038399 41.512079 
" style="fill:none;stroke:#000000;stroke-width:0.5;"/>
    <path clip-path="url(#p092554b2e3)" d="M 33.964679 54.123826 
L 47.979314 54.123826 
" style="fill:none;stroke:#000000;stroke-width:0.5;"/>
    <path clip-path="url(#p092554b2e3)" d="M 27.42062 59.583132 
L 43.745615 59.583132 
" style="fill:none;stroke:#000000;stroke-width:0.5;"/>
    <path clip-path="url(#p092554b2e3)" d="M 26.717626 67.028339 
L 39.183699 67.028339 
" style="fill:none;stroke:#000000;stroke-width:0.5;"/>
    <path clip-path="url(#p092554b2e3)" d="M 30.505726 66.668088 
L 40.668311 66.668088 
" style="fill:none;stroke:#000000;stroke-width:0.5;"/>
    <path clip-path="url(#p092554b2e3)" d="M 24.889485 78.682687 
L 40.689459 78.682687 
" style="fill:none;stroke:#000000;stroke-width:0.5;"/>
    <path clip-path="url(#p092554b2e3)" d="M 27 86.199797 
L 27 86.199797 
" style="fill:none;stroke:#000000;stroke-width:0.5;"/>
    <path clip-path="url(#p092554b2e3)" d="M 30.460602 32.851853 
L 60.186611 32.851853 
" style="fill:none;stroke:#000000;stroke-width:0.5;"/>
    <path clip-path="url(#p092554b2e3)" d="M 28.149999 60.975617 
L 43.273458 60.975617 
" style="fill:none;stroke:#000000;stroke-width:0.5;"/>
    <path clip-path="url(#p092554b2e3)" d="M 27.87038 67.853011 
L 38.470499 67.853011 
" style="fill:none;stroke:#000000;stroke-width:0.5;"/>
   </g>
   <g id="LineCollection_2">
    <path clip-path="url(#p092554b2e3)" d="M 30.416767 85.164919 
L 30.416767 60.200769 
" style="fill:none;stroke:#000000;stroke-width:0.5;"/>
    <path clip-path="url(#p092554b2e3)" d="M 27.853042 86.45309 
L 27.853042 78.521681 
" style="fill:none;stroke:#000000;stroke-width:0.5;"/>
    <path clip-path="url(#p092554b2e3)" d="M 39.561807 55.759953 
L 39.561807 33.791878 
" style="fill:none;stroke:#000000;stroke-width:0.5;"/>
    <path clip-path="url(#p092554b2e3)" d="M 37.884944 64.902381 
L 37.884944 49.863674 
" style="fill:none;stroke:#000000;stroke-width:0.5;"/>
    <path clip-path="url(#p092554b2e3)" d="M 31.977859 78.443454 
L 31.977859 71.620284 
" style="fill:none;stroke:#000000;stroke-width:0.5;"/>
    <path clip-path="url(#p092554b2e3)" d="M 43.208252 48.185044 
L 43.208252 16.64124 
" style="fill:none;stroke:#000000;stroke-width:0.5;"/>
    <path clip-path="url(#p092554b2e3)" d="M 33.13037 89.197561 
L 33.13037 77.25599 
" style="fill:none;stroke:#000000;stroke-width:0.5;"/>
    <path clip-path="url(#p092554b2e3)" d="M 35.58351 60.754049 
L 35.58351 48.188288 
" style="fill:none;stroke:#000000;stroke-width:0.5;"/>
    <path clip-path="url(#p092554b2e3)" d="M 32.582746 64.787796 
L 32.582746 53.867128 
" style="fill:none;stroke:#000000;stroke-width:0.5;"/>
    <path clip-path="url(#p092554b2e3)" d="M 41.894625 51.832843 
L 41.894625 41.666858 
" style="fill:none;stroke:#000000;stroke-width:0.5;"/>
    <path clip-path="url(#p092554b2e3)" d="M 31.670035 77.892034 
L 31.670035 64.021532 
" style="fill:none;stroke:#000000;stroke-width:0.5;"/>
    <path clip-path="url(#p092554b2e3)" d="M 33.334569 76.174098 
L 33.334569 64.300068 
" style="fill:none;stroke:#000000;stroke-width:0.5;"/>
    <path clip-path="url(#p092554b2e3)" d="M 32.287949 71.012941 
L 32.287949 51.462106 
" style="fill:none;stroke:#000000;stroke-width:0.5;"/>
    <path clip-path="url(#p092554b2e3)" d="M 33.681109 55.298282 
L 33.681109 45.458459 
" style="fill:none;stroke:#000000;stroke-width:0.5;"/>
    <path clip-path="url(#p092554b2e3)" d="M 35.040519 81.97395 
L 35.040519 66.344551 
" style="fill:none;stroke:#000000;stroke-width:0.5;"/>
    <path clip-path="url(#p092554b2e3)" d="M 29.324081 85.832284 
L 29.324081 78.452493 
" style="fill:none;stroke:#000000;stroke-width:0.5;"/>
    <path clip-path="url(#p092554b2e3)" d="M 33.733385 77.204643 
L 33.733385 69.464469 
" style="fill:none;stroke:#000000;stroke-width:0.5;"/>
    <path clip-path="url(#p092554b2e3)" d="M 30.046164 75.78726 
L 30.046164 64.411508 
" style="fill:none;stroke:#000000;stroke-width:0.5;"/>
    <path clip-path="url(#p092554b2e3)" d="M 31.28613 79.473574 
L 31.28613 73.111885 
" style="fill:none;stroke:#000000;stroke-width:0.5;"/>
    <path clip-path="url(#p092554b2e3)" d="M 32.436019 78.288141 
L 32.436019 70.786484 
" style="fill:none;stroke:#000000;stroke-width:0.5;"/>
    <path clip-path="url(#p092554b2e3)" d="M 38.175532 49.285541 
L 38.175532 33.738617 
" style="fill:none;stroke:#000000;stroke-width:0.5;"/>
    <path clip-path="url(#p092554b2e3)" d="M 40.971997 59.867127 
L 40.971997 48.380525 
" style="fill:none;stroke:#000000;stroke-width:0.5;"/>
    <path clip-path="url(#p092554b2e3)" d="M 35.583117 66.589823 
L 35.583117 52.576442 
" style="fill:none;stroke:#000000;stroke-width:0.5;"/>
    <path clip-path="url(#p092554b2e3)" d="M 32.950663 72.437322 
L 32.950663 61.619356 
" style="fill:none;stroke:#000000;stroke-width:0.5;"/>
    <path clip-path="url(#p092554b2e3)" d="M 35.587018 71.06917 
L 35.587018 62.267006 
" style="fill:none;stroke:#000000;stroke-width:0.5;"/>
    <path clip-path="url(#p092554b2e3)" d="M 32.789472 84.101324 
L 32.789472 73.26405 
" style="fill:none;stroke:#000000;stroke-width:0.5;"/>
    <path clip-path="url(#p092554b2e3)" d="M 27 90.26605 
L 27 82.133545 
" style="fill:none;stroke:#000000;stroke-width:0.5;"/>
    <path clip-path="url(#p092554b2e3)" d="M 45.323607 46.974761 
L 45.323607 18.728944 
" style="fill:none;stroke:#000000;stroke-width:0.5;"/>
    <path clip-path="url(#p092554b2e3)" d="M 35.711728 66.315048 
L 35.711728 55.636185 
" style="fill:none;stroke:#000000;stroke-width:0.5;"/>
    <path clip-path="url(#p092554b2e3)" d="M 33.17044 70.063075 
L 33.17044 65.642947 
" style="fill:none;stroke:#000000;stroke-width:0.5;"/>
   </g>
   <g id="line2d_1">
    <path clip-path="url(#p092554b2e3)" d="M 27 85.938272 
L 27.768595 83.707384 
L 28.53719 81.476497 
L 29.305785 79.245609 
L 30.07438 77.014722 
L 30.842975 74.783834 
L 31.61157 72.552947 
L 32.380165 70.322059 
L 33.14876 68.091172 
L 33.917355 65.860284 
L 34.68595 63.629396 
L 35.454545 61.398509 
L 36.22314 59.167621 
L 36.991736 56.936734 
L 37.760331 54.705846 
L 38.528926 52.474959 
L 39.297521 50.244071 
L 40.066116 48.013184 
L 40.834711 45.782296 
L 41.603306 43.551408 
L 42.371901 41.320521 
L 43.140496 39.089633 
L 43.909091 36.858746 
L 44.677686 34.627858 
L 45.446281 32.396971 
L 46.214876 30.166083 
L 46.983471 27.935196 
L 47.752066 25.704308 
L 48.520661 23.47342 
L 49.289256 21.242533 
L 50.057851 19.011645 
L 50.826446 16.780758 
L 51.595041 14.54987 
L 52.363636 12.318983 
L 53.132231 10.088095 
L 53.900826 7.857208 
L 54.669421 5.62632 
L 55.438017 3.395432 
L 56.206612 1.164545 
L 56.95235 -1 
" style="fill:none;stroke:#000000;stroke-dasharray:1.85,0.8;stroke-dashoffset:0;stroke-width:0.5;"/>
   </g>
   <g id="line2d_2">
    <defs>
     <path d="M 0 3 
C 0.795609 3 1.55874 2.683901 2.12132 2.12132 
C 2.683901 1.55874 3 0.795609 3 0 
C 3 -0.795609 2.683901 -1.55874 2.12132 -2.12132 
C 1.55874 -2.683901 0.795609 -3 0 -3 
C -0.795609 -3 -1.55874 -2.683901 -2.12132 -2.12132 
C -2.683901 -1.55874 -3 -0.795609 -3 0 
C -3 0.795609 -2.683901 1.55874 -2.12132 2.12132 
C -1.55874 2.683901 -0.795609 3 0 3 
z
" id="mc56e3cf878" style="stroke:#000000;"/>
    </defs>
    <g clip-path="url(#p092554b2e3)">
     <use style="stroke:#000000;" x="30.416767" xlink:href="#mc56e3cf878" y="72.682844"/>
     <use style="stroke:#000000;" x="27.853042" xlink:href="#mc56e3cf878" y="82.487385"/>
     <use style="stroke:#000000;" x="39.561807" xlink:href="#mc56e3cf878" y="44.775916"/>
     <use style="stroke:#000000;" x="37.884944" xlink:href="#mc56e3cf878" y="57.383027"/>
     <use style="stroke:#000000;" x="31.977859" xlink:href="#mc56e3cf878" y="75.031869"/>
     <use style="stroke:#000000;" x="43.208252" xlink:href="#mc56e3cf878" y="32.413142"/>
     <use style="stroke:#000000;" x="33.13037" xlink:href="#mc56e3cf878" y="83.226776"/>
     <use style="stroke:#000000;" x="35.58351" xlink:href="#mc56e3cf878" y="54.471169"/>
     <use style="stroke:#000000;" x="32.582746" xlink:href="#mc56e3cf878" y="59.327462"/>
     <use style="stroke:#000000;" x="41.894625" xlink:href="#mc56e3cf878" y="46.74985"/>
     <use style="stroke:#000000;" x="31.670035" xlink:href="#mc56e3cf878" y="70.956783"/>
     <use style="stroke:#000000;" x="33.334569" xlink:href="#mc56e3cf878" y="70.237083"/>
     <use style="stroke:#000000;" x="32.287949" xlink:href="#mc56e3cf878" y="61.237524"/>
     <use style="stroke:#000000;" x="33.681109" xlink:href="#mc56e3cf878" y="50.378371"/>
     <use style="stroke:#000000;" x="35.040519" xlink:href="#mc56e3cf878" y="74.15925"/>
     <use style="stroke:#000000;" x="29.324081" xlink:href="#mc56e3cf878" y="82.142389"/>
     <use style="stroke:#000000;" x="33.733385" xlink:href="#mc56e3cf878" y="73.334556"/>
     <use style="stroke:#000000;" x="30.046164" xlink:href="#mc56e3cf878" y="70.099384"/>
     <use style="stroke:#000000;" x="31.28613" xlink:href="#mc56e3cf878" y="76.29273"/>
     <use style="stroke:#000000;" x="32.436019" xlink:href="#mc56e3cf878" y="74.537312"/>
     <use style="stroke:#000000;" x="38.175532" xlink:href="#mc56e3cf878" y="41.512079"/>
     <use style="stroke:#000000;" x="40.971997" xlink:href="#mc56e3cf878" y="54.123826"/>
     <use style="stroke:#000000;" x="35.583117" xlink:href="#mc56e3cf878" y="59.583132"/>
     <use style="stroke:#000000;" x="32.950663" xlink:href="#mc56e3cf878" y="67.028339"/>
     <use style="stroke:#000000;" x="35.587018" xlink:href="#mc56e3cf878" y="66.668088"/>
     <use style="stroke:#000000;" x="32.789472" xlink:href="#mc56e3cf878" y="78.682687"/>
     <use style="stroke:#000000;" x="27" xlink:href="#mc56e3cf878" y="86.199797"/>
     <use style="stroke:#000000;" x="45.323607" xlink:href="#mc56e3cf878" y="32.851853"/>
     <use style="stroke:#000000;" x="35.711728" xlink:href="#mc56e3cf878" y="60.975617"/>
     <use style="stroke:#000000;" x="33.17044" xlink:href="#mc56e3cf878" y="67.853011"/>
    </g>
   </g>
   <g id="patch_3">
    <path d="M 27 94.5 
L 27 12.96 
" style="fill:none;stroke:#000000;stroke-linecap:square;stroke-linejoin:miter;"/>
   </g>
   <g id="patch_4">
    <path d="M 27 94.5 
L 103.090909 94.5 
" style="fill:none;stroke:#000000;stroke-linecap:square;stroke-linejoin:miter;"/>
   </g>
   <g id="matplotlib.axis_1">
    <g id="xtick_1">
     <g id="line2d_3"/>
     <g id="text_1">
      <text style="font-family:Arial;font-size:8px;font-style:normal;font-weight:normal;text-anchor:middle;" transform="rotate(-0, 27, 103.72625)" x="27" y="103.72625">0</text>
     </g>
    </g>
    <g id="xtick_2">
     <g id="line2d_4"/>
     <g id="text_2">
      <text style="font-family:Arial;font-size:8px;font-style:normal;font-weight:normal;text-anchor:middle;" transform="rotate(-0, 73.779242, 103.72625)" x="73.779242" y="103.72625">5</text>
     </g>
    </g>
    <g id="text_3">
     <text style="font-family:Arial;font-size:10px;font-style:normal;font-weight:normal;text-anchor:middle;" transform="rotate(-0, 65.045455, 116.474063)" x="65.045455" y="116.474063">Exc</text>
    </g>
   </g>
   <g id="matplotlib.axis_2">
    <g id="ytick_1">
     <g id="line2d_5"/>
     <g id="text_4">
      <text style="font-family:Arial;font-size:8px;font-style:normal;font-weight:normal;text-anchor:end;" transform="rotate(-0, 23.5, 97.363125)" x="23.5" y="97.363125">0</text>
     </g>
    </g>
    <g id="ytick_2">
     <g id="line2d_6"/>
     <g id="text_5">
      <text style="font-family:Arial;font-size:8px;font-style:normal;font-weight:normal;text-anchor:end;" transform="rotate(-0, 23.5, 77.311429)" x="23.5" y="77.311429">2</text>
     </g>
    </g>
    <g id="ytick_3">
     <g id="line2d_7"/>
     <g id="text_6">
      <text style="font-family:Arial;font-size:8px;font-style:normal;font-weight:normal;text-anchor:end;" transform="rotate(-0, 23.5, 57.259734)" x="23.5" y="57.259734">4</text>
     </g>
    </g>
    <g id="ytick_4">
     <g id="line2d_8"/>
     <g id="text_7">
      <text style="font-family:Arial;font-size:8px;font-style:normal;font-weight:normal;text-anchor:end;" transform="rotate(-0, 23.5, 37.208038)" x="23.5" y="37.208038">6</text>
     </g>
    </g>
    <g id="ytick_5">
     <g id="line2d_9"/>
     <g id="text_8">
      <text style="font-family:Arial;font-size:8px;font-style:normal;font-weight:normal;text-anchor:end;" transform="rotate(-0, 23.5, 17.156342)" x="23.5" y="17.156342">8</text>
     </g>
    </g>
    <g id="text_9">
     <text style="font-family:Arial;font-size:10px;font-style:normal;font-weight:normal;text-anchor:middle;" transform="rotate(-90, 13.06375, 53.73)" x="13.06375" y="53.73">Inh</text>
    </g>
   </g>
   <g id="legend_1">
    <g id="line2d_10">
     <path d="M 36 75.622656 
L 56 75.622656 
" style="fill:none;stroke:#000000;stroke-dasharray:1.85,0.8;stroke-dashoffset:0;stroke-width:0.5;"/>
    </g>
    <g id="line2d_11"/>
    <g id="text_10">
     <!-- $R^2$ 0.76 -->
     <g transform="translate(64 72.875)">
      <text>
       <tspan style="font-family:DejaVu Sans;font-size:10px;font-style:oblique;font-weight:oblique;" x="0" y="-0.9765625">R</tspan>
       <tspan style="font-family:DejaVu Sans;font-size:7px;font-style:book;font-weight:book;" x="7.650794" y="-4.8046875">2</tspan>
       <tspan style="font-family:Arial;font-size:10px;font-style:regular;font-weight:regular;" x="12.377845 15.156165 20.717689 23.496009 29.057533" y="-0.9765625"> 0.76</tspan>
      </text>
     </g>
     <text style="font-family:Arial;font-size:10px;font-style:normal;font-weight:normal;" transform="translate(64 83.4875)"> slope 2.71</text>
    </g>
   </g>
  </g>
  <g id="axes_2">
   <g id="patch_5">
    <path d="M 118.309091 94.5 
L 194.4 94.5 
L 194.4 12.96 
L 118.309091 12.96 
z
" style="fill:#ffffff;"/>
   </g>
   <g id="PathCollection_1">
    <defs>
     <path d="M 0 2.44949 
C 0.649612 2.44949 1.272706 2.191396 1.732051 1.732051 
C 2.191396 1.272706 2.44949 0.649612 2.44949 0 
C 2.44949 -0.649612 2.191396 -1.272706 1.732051 -1.732051 
C 1.272706 -2.191396 0.649612 -2.44949 0 -2.44949 
C -0.649612 -2.44949 -1.272706 -2.191396 -1.732051 -1.732051 
C -2.191396 -1.272706 -2.44949 -0.649612 -2.44949 0 
C -2.44949 0.649612 -2.191396 1.272706 -1.732051 1.732051 
C -1.272706 2.191396 -0.649612 2.44949 0 2.44949 
z
" id="m07d3767670" style="stroke:#000000;"/>
    </defs>
    <g clip-path="url(#pd6dcc6e26a)">
     <use style="stroke:#000000;" x="153.238925" xlink:href="#m07d3767670" y="34.280354"/>
     <use style="stroke:#000000;" x="128.389943" xlink:href="#m07d3767670" y="75.367498"/>
     <use style="stroke:#000000;" x="145.782002" xlink:href="#m07d3767670" y="41.50762"/>
     <use style="stroke:#000000;" x="169.099385" xlink:href="#m07d3767670" y="58.222952"/>
     <use style="stroke:#000000;" x="145.61923" xlink:href="#m07d3767670" y="78.040841"/>
     <use style="stroke:#000000;" x="162.868759" xlink:href="#m07d3767670" y="18.408616"/>
     <use style="stroke:#000000;" x="145.511337" xlink:href="#m07d3767670" y="65.694005"/>
     <use style="stroke:#000000;" x="168.4298" xlink:href="#m07d3767670" y="64.188306"/>
     <use style="stroke:#000000;" x="144.831851" xlink:href="#m07d3767670" y="68.156672"/>
     <use style="stroke:#000000;" x="158.861471" xlink:href="#m07d3767670" y="69.977155"/>
     <use style="stroke:#000000;" x="144.103437" xlink:href="#m07d3767670" y="61.040951"/>
     <use style="stroke:#000000;" x="139.915591" xlink:href="#m07d3767670" y="65.856931"/>
     <use style="stroke:#000000;" x="149.819115" xlink:href="#m07d3767670" y="47.338595"/>
     <use style="stroke:#000000;" x="140.801303" xlink:href="#m07d3767670" y="70.763934"/>
     <use style="stroke:#000000;" x="150.610462" xlink:href="#m07d3767670" y="56.79806"/>
     <use style="stroke:#000000;" x="135.679428" xlink:href="#m07d3767670" y="76.698135"/>
     <use style="stroke:#000000;" x="140.286837" xlink:href="#m07d3767670" y="75.828803"/>
     <use style="stroke:#000000;" x="131.210493" xlink:href="#m07d3767670" y="67.0589"/>
     <use style="stroke:#000000;" x="133.728475" xlink:href="#m07d3767670" y="79.154047"/>
     <use style="stroke:#000000;" x="140.164954" xlink:href="#m07d3767670" y="76.404164"/>
     <use style="stroke:#000000;" x="170.716888" xlink:href="#m07d3767670" y="56.997009"/>
     <use style="stroke:#000000;" x="152.115826" xlink:href="#m07d3767670" y="66.791501"/>
     <use style="stroke:#000000;" x="157.688979" xlink:href="#m07d3767670" y="60.696291"/>
     <use style="stroke:#000000;" x="148.380314" xlink:href="#m07d3767670" y="68.404416"/>
     <use style="stroke:#000000;" x="142.823736" xlink:href="#m07d3767670" y="73.267024"/>
     <use style="stroke:#000000;" x="156.422499" xlink:href="#m07d3767670" y="68.357839"/>
     <use style="stroke:#000000;" x="118.309091" xlink:href="#m07d3767670" y="74.882406"/>
     <use style="stroke:#000000;" x="190.015507" xlink:href="#m07d3767670" y="26.364168"/>
     <use style="stroke:#000000;" x="154.790579" xlink:href="#m07d3767670" y="68.739967"/>
     <use style="stroke:#000000;" x="143.879175" xlink:href="#m07d3767670" y="83.837567"/>
    </g>
   </g>
   <g id="line2d_12">
    <path clip-path="url(#pd6dcc6e26a)" d="M 118.309091 83.529742 
L 119.077686 83.019962 
L 119.846281 82.510182 
L 120.614876 82.000401 
L 121.383471 81.490621 
L 122.152066 80.980841 
L 122.920661 80.471061 
L 123.689256 79.96128 
L 124.457851 79.4515 
L 125.226446 78.94172 
L 125.995041 78.43194 
L 126.763636 77.922159 
L 127.532231 77.412379 
L 128.300826 76.902599 
L 129.069421 76.392819 
L 129.838017 75.883038 
L 130.606612 75.373258 
L 131.375207 74.863478 
L 132.143802 74.353698 
L 132.912397 73.843917 
L 133.680992 73.334137 
L 134.449587 72.824357 
L 135.218182 72.314577 
L 135.986777 71.804797 
L 136.755372 71.295016 
L 137.523967 70.785236 
L 138.292562 70.275456 
L 139.061157 69.765676 
L 139.829752 69.255895 
L 140.598347 68.746115 
L 141.366942 68.236335 
L 142.135537 67.726555 
L 142.904132 67.216774 
L 143.672727 66.706994 
L 144.441322 66.197214 
L 145.209917 65.687434 
L 145.978512 65.177653 
L 146.747107 64.667873 
L 147.515702 64.158093 
L 148.284298 63.648313 
L 149.052893 63.138532 
L 149.821488 62.628752 
L 150.590083 62.118972 
L 151.358678 61.609192 
L 152.127273 61.099411 
L 152.895868 60.589631 
L 153.664463 60.079851 
L 154.433058 59.570071 
L 155.201653 59.06029 
L 155.970248 58.55051 
L 156.738843 58.04073 
L 157.507438 57.53095 
L 158.276033 57.021169 
L 159.044628 56.511389 
L 159.813223 56.001609 
L 160.581818 55.491829 
L 161.350413 54.982048 
L 162.119008 54.472268 
L 162.887603 53.962488 
L 163.656198 53.452708 
L 164.424793 52.942927 
L 165.193388 52.433147 
L 165.961983 51.923367 
L 166.730579 51.413587 
L 167.499174 50.903806 
L 168.267769 50.394026 
L 169.036364 49.884246 
L 169.804959 49.374466 
L 170.573554 48.864685 
L 171.342149 48.354905 
L 172.110744 47.845125 
L 172.879339 47.335345 
L 173.647934 46.825565 
L 174.416529 46.315784 
L 175.185124 45.806004 
L 175.953719 45.296224 
L 176.722314 44.786444 
L 177.490909 44.276663 
L 178.259504 43.766883 
L 179.028099 43.257103 
L 179.796694 42.747323 
L 180.565289 42.237542 
L 181.333884 41.727762 
L 182.102479 41.217982 
L 182.871074 40.708202 
L 183.639669 40.198421 
L 184.408264 39.688641 
L 185.17686 39.178861 
L 185.945455 38.669081 
L 186.71405 38.1593 
L 187.482645 37.64952 
L 188.25124 37.13974 
L 189.019835 36.62996 
L 189.78843 36.120179 
L 190.557025 35.610399 
L 191.32562 35.100619 
L 192.094215 34.590839 
L 192.86281 34.081058 
L 193.631405 33.571278 
L 194.4 33.061498 
" style="fill:none;stroke:#000000;stroke-dasharray:1.85,0.8;stroke-dashoffset:0;stroke-width:0.5;"/>
   </g>
   <g id="patch_6">
    <path d="M 118.309091 94.5 
L 118.309091 12.96 
" style="fill:none;stroke:#000000;stroke-linecap:square;stroke-linejoin:miter;"/>
   </g>
   <g id="patch_7">
    <path d="M 118.309091 94.5 
L 194.4 94.5 
" style="fill:none;stroke:#000000;stroke-linecap:square;stroke-linejoin:miter;"/>
   </g>
   <g id="matplotlib.axis_3">
    <g id="xtick_3">
     <g id="line2d_13"/>
     <g id="text_11">
      <text style="font-family:Arial;font-size:8px;font-style:normal;font-weight:normal;text-anchor:middle;" transform="rotate(-0, 118.309091, 103.72625)" x="118.309091" y="103.72625">0</text>
     </g>
    </g>
    <g id="xtick_4">
     <g id="line2d_14"/>
     <g id="text_12">
      <text style="font-family:Arial;font-size:8px;font-style:normal;font-weight:normal;text-anchor:middle;" transform="rotate(-0, 163.446288, 103.72625)" x="163.446288" y="103.72625">1</text>
     </g>
    </g>
    <g id="text_13">
     <!-- $\sigma$(Exc) -->
     <g transform="translate(141.504545 116.61625)">
      <text>
       <tspan style="font-family:DejaVu Sans;font-size:10px;font-style:oblique;font-weight:oblique;" x="0" y="-0.71875">σ</tspan>
       <tspan style="font-family:Arial;font-size:10px;font-style:regular;font-weight:regular;" x="6.337891 9.667969 16.337891 21.337891 26.337891" y="-0.71875">(Exc)</tspan>
      </text>
     </g>
    </g>
   </g>
   <g id="matplotlib.axis_4">
    <g id="ytick_6">
     <g id="line2d_15"/>
     <g id="text_14">
      <text style="font-family:Arial;font-size:8px;font-style:normal;font-weight:normal;text-anchor:end;" transform="rotate(-0, 114.809091, 97.363125)" x="114.809091" y="97.363125">0.0</text>
     </g>
    </g>
    <g id="ytick_7">
     <g id="line2d_16"/>
     <g id="text_15">
      <text style="font-family:Arial;font-size:8px;font-style:normal;font-weight:normal;text-anchor:end;" transform="rotate(-0, 114.809091, 73.178323)" x="114.809091" y="73.178323">0.5</text>
     </g>
    </g>
    <g id="ytick_8">
     <g id="line2d_17"/>
     <g id="text_16">
      <text style="font-family:Arial;font-size:8px;font-style:normal;font-weight:normal;text-anchor:end;" transform="rotate(-0, 114.809091, 48.993522)" x="114.809091" y="48.993522">1.0</text>
     </g>
    </g>
    <g id="ytick_9">
     <g id="line2d_18"/>
     <g id="text_17">
      <text style="font-family:Arial;font-size:8px;font-style:normal;font-weight:normal;text-anchor:end;" transform="rotate(-0, 114.809091, 24.80872)" x="114.809091" y="24.80872">1.5</text>
     </g>
    </g>
    <g id="text_18">
     <!-- $\sigma$(Inh) -->
     <g transform="translate(97.489091 67.18)rotate(-90)">
      <text>
       <tspan style="font-family:DejaVu Sans;font-size:10px;font-style:oblique;font-weight:oblique;" x="0" y="-0.71875">σ</tspan>
       <tspan style="font-family:Arial;font-size:10px;font-style:regular;font-weight:regular;" x="6.337891 9.667969 12.446289 18.007812 23.569336" y="-0.71875">(Inh)</tspan>
      </text>
     </g>
    </g>
   </g>
   <g id="legend_2">
    <g id="line2d_19">
     <path d="M 108.478125 31.995156 
L 128.478125 31.995156 
" style="fill:none;stroke:#000000;stroke-dasharray:1.85,0.8;stroke-dashoffset:0;stroke-width:0.5;"/>
    </g>
    <g id="line2d_20"/>
    <g id="text_19">
     <!-- $R^2$ 0.37 -->
     <g transform="translate(136.478125 29.2475)">
      <text>
       <tspan style="font-family:DejaVu Sans;font-size:10px;font-style:oblique;font-weight:oblique;" x="0" y="-0.9765625">R</tspan>
       <tspan style="font-family:DejaVu Sans;font-size:7px;font-style:book;font-weight:book;" x="7.650794" y="-4.8046875">2</tspan>
       <tspan style="font-family:Arial;font-size:10px;font-style:regular;font-weight:regular;" x="12.377845 15.156165 20.717689 23.496009 29.057533" y="-0.9765625"> 0.37</tspan>
      </text>
     </g>
     <text style="font-family:Arial;font-size:10px;font-style:normal;font-weight:normal;" transform="translate(136.478125 39.86)"> slope 0.62</text>
    </g>
   </g>
  </g>
 </g>
 <defs>
  <clipPath id="p092554b2e3">
   <rect height="81.54" width="76.090909" x="27" y="12.96"/>
  </clipPath>
  <clipPath id="pd6dcc6e26a">
   <rect height="81.54" width="76.090909" x="118.309091" y="12.96"/>
  </clipPath>
 </defs>
</svg>
