<?xml version="1.0" encoding="utf-8" standalone="no"?>
<!DOCTYPE svg PUBLIC "-//W3C//DTD SVG 1.1//EN"
  "http://www.w3.org/Graphics/SVG/1.1/DTD/svg11.dtd">
<!-- Created with matplotlib (http://matplotlib.org/) -->
<svg height="108pt" version="1.1" viewBox="0 0 216 108" width="216pt" xmlns="http://www.w3.org/2000/svg" xmlns:xlink="http://www.w3.org/1999/xlink">
 <defs>
  <style type="text/css">
*{stroke-linecap:butt;stroke-linejoin:round;}
  </style>
 </defs>
 <g id="figure_1">
  <g id="patch_1">
   <path d="M 0 108 
L 216 108 
L 216 0 
L 0 0 
z
" style="fill:#ffffff;"/>
  </g>
  <g id="axes_1">
   <g id="patch_2">
    <path d="M 27 94.5 
L 103.090909 94.5 
L 103.090909 12.96 
L 27 12.96 
z
" style="fill:#ffffff;"/>
   </g>
   <g id="LineCollection_1">
    <path clip-path="url(#peb3f636fab)" d="M 25.803635 80.487643 
L 36.340717 80.487643 
" style="fill:none;stroke:#000000;stroke-width:0.5;"/>
    <path clip-path="url(#peb3f636fab)" d="M 27.980687 83.756725 
L 31.107258 83.756725 
" style="fill:none;stroke:#000000;stroke-width:0.5;"/>
    <path clip-path="url(#peb3f636fab)" d="M 29.093098 50.257364 
L 46.338459 50.257364 
" style="fill:none;stroke:#000000;stroke-width:0.5;"/>
    <path clip-path="url(#peb3f636fab)" d="M 21.007117 66.618291 
L 41.955037 66.618291 
" style="fill:none;stroke:#000000;stroke-width:0.5;"/>
    <path clip-path="url(#peb3f636fab)" d="M 23.868182 70.477444 
L 41.734832 70.477444 
" style="fill:none;stroke:#000000;stroke-width:0.5;"/>
    <path clip-path="url(#peb3f636fab)" d="M 26.736032 86.956293 
L 28.081523 86.956293 
" style="fill:none;stroke:#000000;stroke-width:0.5;"/>
    <path clip-path="url(#peb3f636fab)" d="M 26.140391 84.170155 
L 32.200137 84.170155 
" style="fill:none;stroke:#000000;stroke-width:0.5;"/>
    <path clip-path="url(#peb3f636fab)" d="M 26.763429 89.572274 
L 27.562991 89.572274 
" style="fill:none;stroke:#000000;stroke-width:0.5;"/>
    <path clip-path="url(#peb3f636fab)" d="M 28.868654 78.409318 
L 36.64993 78.409318 
" style="fill:none;stroke:#000000;stroke-width:0.5;"/>
    <path clip-path="url(#peb3f636fab)" d="M 26.405021 86.148661 
L 32.797966 86.148661 
" style="fill:none;stroke:#000000;stroke-width:0.5;"/>
    <path clip-path="url(#peb3f636fab)" d="M 23.271723 62.766877 
L 50.313936 62.766877 
" style="fill:none;stroke:#000000;stroke-width:0.5;"/>
    <path clip-path="url(#peb3f636fab)" d="M 24.559281 71.042722 
L 43.280417 71.042722 
" style="fill:none;stroke:#000000;stroke-width:0.5;"/>
    <path clip-path="url(#peb3f636fab)" d="M 27.929972 55.871739 
L 47.585294 55.871739 
" style="fill:none;stroke:#000000;stroke-width:0.5;"/>
    <path clip-path="url(#peb3f636fab)" d="M 26.272763 55.445233 
L 44.678454 55.445233 
" style="fill:none;stroke:#000000;stroke-width:0.5;"/>
    <path clip-path="url(#peb3f636fab)" d="M 26.101185 78.264782 
L 31.171997 78.264782 
" style="fill:none;stroke:#000000;stroke-width:0.5;"/>
    <path clip-path="url(#peb3f636fab)" d="M 26.232966 89.031809 
L 28.825385 89.031809 
" style="fill:none;stroke:#000000;stroke-width:0.5;"/>
    <path clip-path="url(#peb3f636fab)" d="M 28.262737 83.042997 
L 35.468514 83.042997 
" style="fill:none;stroke:#000000;stroke-width:0.5;"/>
    <path clip-path="url(#peb3f636fab)" d="M 27.651628 66.905199 
L 40.059407 66.905199 
" style="fill:none;stroke:#000000;stroke-width:0.5;"/>
    <path clip-path="url(#peb3f636fab)" d="M 27 91.04754 
L 27 91.04754 
" style="fill:none;stroke:#000000;stroke-width:0.5;"/>
    <path clip-path="url(#peb3f636fab)" d="M 27.219823 48.187114 
L 48.259707 48.187114 
" style="fill:none;stroke:#000000;stroke-width:0.5;"/>
    <path clip-path="url(#peb3f636fab)" d="M 25.788712 77.458492 
L 34.99855 77.458492 
" style="fill:none;stroke:#000000;stroke-width:0.5;"/>
    <path clip-path="url(#peb3f636fab)" d="M 26.613138 90.551747 
L 28.795701 90.551747 
" style="fill:none;stroke:#000000;stroke-width:0.5;"/>
    <path clip-path="url(#peb3f636fab)" d="M 25.936882 42.470035 
L 38.271108 42.470035 
" style="fill:none;stroke:#000000;stroke-width:0.5;"/>
    <path clip-path="url(#peb3f636fab)" d="M 26.573883 86.37026 
L 29.890878 86.37026 
" style="fill:none;stroke:#000000;stroke-width:0.5;"/>
    <path clip-path="url(#peb3f636fab)" d="M 23.133294 21.903601 
L 63.839299 21.903601 
" style="fill:none;stroke:#000000;stroke-width:0.5;"/>
    <path clip-path="url(#peb3f636fab)" d="M 26.864297 79.398407 
L 27.629894 79.398407 
" style="fill:none;stroke:#000000;stroke-width:0.5;"/>
    <path clip-path="url(#peb3f636fab)" d="M 26.329335 83.607978 
L 31.028005 83.607978 
" style="fill:none;stroke:#000000;stroke-width:0.5;"/>
    <path clip-path="url(#peb3f636fab)" d="M 25.698805 75.397923 
L 33.039765 75.397923 
" style="fill:none;stroke:#000000;stroke-width:0.5;"/>
    <path clip-path="url(#peb3f636fab)" d="M 28.481273 82.493135 
L 36.457444 82.493135 
" style="fill:none;stroke:#000000;stroke-width:0.5;"/>
    <path clip-path="url(#peb3f636fab)" d="M 27.71219 83.645855 
L 36.985193 83.645855 
" style="fill:none;stroke:#000000;stroke-width:0.5;"/>
   </g>
   <g id="LineCollection_2">
    <path clip-path="url(#peb3f636fab)" d="M 31.072176 83.84069 
L 31.072176 77.134597 
" style="fill:none;stroke:#000000;stroke-width:0.5;"/>
    <path clip-path="url(#peb3f636fab)" d="M 29.543973 85.599814 
L 29.543973 81.913637 
" style="fill:none;stroke:#000000;stroke-width:0.5;"/>
    <path clip-path="url(#peb3f636fab)" d="M 37.715778 55.263512 
L 37.715778 45.251216 
" style="fill:none;stroke:#000000;stroke-width:0.5;"/>
    <path clip-path="url(#peb3f636fab)" d="M 31.481077 83.757517 
L 31.481077 49.479066 
" style="fill:none;stroke:#000000;stroke-width:0.5;"/>
    <path clip-path="url(#peb3f636fab)" d="M 32.801507 71.238702 
L 32.801507 69.716186 
" style="fill:none;stroke:#000000;stroke-width:0.5;"/>
    <path clip-path="url(#peb3f636fab)" d="M 27.408778 88.938545 
L 27.408778 84.97404 
" style="fill:none;stroke:#000000;stroke-width:0.5;"/>
    <path clip-path="url(#peb3f636fab)" d="M 29.170264 88.619228 
L 29.170264 79.721082 
" style="fill:none;stroke:#000000;stroke-width:0.5;"/>
    <path clip-path="url(#peb3f636fab)" d="M 27.16321 91.226254 
L 27.16321 87.918294 
" style="fill:none;stroke:#000000;stroke-width:0.5;"/>
    <path clip-path="url(#peb3f636fab)" d="M 32.759292 83.271008 
L 32.759292 73.547628 
" style="fill:none;stroke:#000000;stroke-width:0.5;"/>
    <path clip-path="url(#peb3f636fab)" d="M 29.601493 87.728805 
L 29.601493 84.568518 
" style="fill:none;stroke:#000000;stroke-width:0.5;"/>
    <path clip-path="url(#peb3f636fab)" d="M 36.79283 64.043866 
L 36.79283 61.489889 
" style="fill:none;stroke:#000000;stroke-width:0.5;"/>
    <path clip-path="url(#peb3f636fab)" d="M 33.919849 80.245342 
L 33.919849 61.840102 
" style="fill:none;stroke:#000000;stroke-width:0.5;"/>
    <path clip-path="url(#peb3f636fab)" d="M 37.757633 63.55705 
L 37.757633 48.186428 
" style="fill:none;stroke:#000000;stroke-width:0.5;"/>
    <path clip-path="url(#peb3f636fab)" d="M 35.475608 66.182507 
L 35.475608 44.707958 
" style="fill:none;stroke:#000000;stroke-width:0.5;"/>
    <path clip-path="url(#peb3f636fab)" d="M 28.636591 81.949299 
L 28.636591 74.580265 
" style="fill:none;stroke:#000000;stroke-width:0.5;"/>
    <path clip-path="url(#peb3f636fab)" d="M 27.529175 90.716034 
L 27.529175 87.347583 
" style="fill:none;stroke:#000000;stroke-width:0.5;"/>
    <path clip-path="url(#peb3f636fab)" d="M 31.865625 85.843612 
L 31.865625 80.242383 
" style="fill:none;stroke:#000000;stroke-width:0.5;"/>
    <path clip-path="url(#peb3f636fab)" d="M 33.855517 71.499115 
L 33.855517 62.311284 
" style="fill:none;stroke:#000000;stroke-width:0.5;"/>
    <path clip-path="url(#peb3f636fab)" d="M 27 91.04754 
L 27 91.04754 
" style="fill:none;stroke:#000000;stroke-width:0.5;"/>
    <path clip-path="url(#peb3f636fab)" d="M 37.739765 53.704287 
L 37.739765 42.669941 
" style="fill:none;stroke:#000000;stroke-width:0.5;"/>
    <path clip-path="url(#peb3f636fab)" d="M 30.393631 78.477832 
L 30.393631 76.439153 
" style="fill:none;stroke:#000000;stroke-width:0.5;"/>
    <path clip-path="url(#peb3f636fab)" d="M 27.704419 91.157069 
L 27.704419 89.946426 
" style="fill:none;stroke:#000000;stroke-width:0.5;"/>
    <path clip-path="url(#peb3f636fab)" d="M 32.103995 68.253105 
L 32.103995 16.686964 
" style="fill:none;stroke:#000000;stroke-width:0.5;"/>
    <path clip-path="url(#peb3f636fab)" d="M 28.232381 87.661969 
L 28.232381 85.078551 
" style="fill:none;stroke:#000000;stroke-width:0.5;"/>
    <path clip-path="url(#peb3f636fab)" d="M 43.486297 23.921627 
L 43.486297 19.885576 
" style="fill:none;stroke:#000000;stroke-width:0.5;"/>
    <path clip-path="url(#peb3f636fab)" d="M 27.247095 81.0278 
L 27.247095 77.769015 
" style="fill:none;stroke:#000000;stroke-width:0.5;"/>
    <path clip-path="url(#peb3f636fab)" d="M 28.67867 86.13159 
L 28.67867 81.084367 
" style="fill:none;stroke:#000000;stroke-width:0.5;"/>
    <path clip-path="url(#peb3f636fab)" d="M 29.369285 78.679767 
L 29.369285 72.116079 
" style="fill:none;stroke:#000000;stroke-width:0.5;"/>
    <path clip-path="url(#peb3f636fab)" d="M 32.469359 86.970858 
L 32.469359 78.015412 
" style="fill:none;stroke:#000000;stroke-width:0.5;"/>
    <path clip-path="url(#peb3f636fab)" d="M 32.348692 89.522043 
L 32.348692 77.769668 
" style="fill:none;stroke:#000000;stroke-width:0.5;"/>
   </g>
   <g id="line2d_1">
    <path clip-path="url(#peb3f636fab)" d="M 27 90.410345 
L 27.768595 87.633687 
L 28.53719 84.857029 
L 29.305785 82.080371 
L 30.07438 79.303713 
L 30.842975 76.527056 
L 31.61157 73.750398 
L 32.380165 70.97374 
L 33.14876 68.197082 
L 33.917355 65.420424 
L 34.68595 62.643766 
L 35.454545 59.867108 
L 36.22314 57.09045 
L 36.991736 54.313792 
L 37.760331 51.537135 
L 38.528926 48.760477 
L 39.297521 45.983819 
L 40.066116 43.207161 
L 40.834711 40.430503 
L 41.603306 37.653845 
L 42.371901 34.877187 
L 43.140496 32.100529 
L 43.909091 29.323872 
L 44.677686 26.547214 
L 45.446281 23.770556 
L 46.214876 20.993898 
L 46.983471 18.21724 
L 47.752066 15.440582 
L 48.520661 12.663924 
L 49.289256 9.887266 
L 50.057851 7.110609 
L 50.826446 4.333951 
L 51.595041 1.557293 
L 52.302915 -1 
" style="fill:none;stroke:#000000;stroke-dasharray:1.85,0.8;stroke-dashoffset:0;stroke-width:0.5;"/>
   </g>
   <g id="line2d_2">
    <defs>
     <path d="M 0 3 
C 0.795609 3 1.55874 2.683901 2.12132 2.12132 
C 2.683901 1.55874 3 0.795609 3 0 
C 3 -0.795609 2.683901 -1.55874 2.12132 -2.12132 
C 1.55874 -2.683901 0.795609 -3 0 -3 
C -0.795609 -3 -1.55874 -2.683901 -2.12132 -2.12132 
C -2.683901 -1.55874 -3 -0.795609 -3 0 
C -3 0.795609 -2.683901 1.55874 -2.12132 2.12132 
C -1.55874 2.683901 -0.795609 3 0 3 
z
" id="mefcdf25fcb" style="stroke:#000000;"/>
    </defs>
    <g clip-path="url(#peb3f636fab)">
     <use style="stroke:#000000;" x="31.072176" xlink:href="#mefcdf25fcb" y="80.487643"/>
     <use style="stroke:#000000;" x="29.543973" xlink:href="#mefcdf25fcb" y="83.756725"/>
     <use style="stroke:#000000;" x="37.715778" xlink:href="#mefcdf25fcb" y="50.257364"/>
     <use style="stroke:#000000;" x="31.481077" xlink:href="#mefcdf25fcb" y="66.618291"/>
     <use style="stroke:#000000;" x="32.801507" xlink:href="#mefcdf25fcb" y="70.477444"/>
     <use style="stroke:#000000;" x="27.408778" xlink:href="#mefcdf25fcb" y="86.956293"/>
     <use style="stroke:#000000;" x="29.170264" xlink:href="#mefcdf25fcb" y="84.170155"/>
     <use style="stroke:#000000;" x="27.16321" xlink:href="#mefcdf25fcb" y="89.572274"/>
     <use style="stroke:#000000;" x="32.759292" xlink:href="#mefcdf25fcb" y="78.409318"/>
     <use style="stroke:#000000;" x="29.601493" xlink:href="#mefcdf25fcb" y="86.148661"/>
     <use style="stroke:#000000;" x="36.79283" xlink:href="#mefcdf25fcb" y="62.766877"/>
     <use style="stroke:#000000;" x="33.919849" xlink:href="#mefcdf25fcb" y="71.042722"/>
     <use style="stroke:#000000;" x="37.757633" xlink:href="#mefcdf25fcb" y="55.871739"/>
     <use style="stroke:#000000;" x="35.475608" xlink:href="#mefcdf25fcb" y="55.445233"/>
     <use style="stroke:#000000;" x="28.636591" xlink:href="#mefcdf25fcb" y="78.264782"/>
     <use style="stroke:#000000;" x="27.529175" xlink:href="#mefcdf25fcb" y="89.031809"/>
     <use style="stroke:#000000;" x="31.865625" xlink:href="#mefcdf25fcb" y="83.042997"/>
     <use style="stroke:#000000;" x="33.855517" xlink:href="#mefcdf25fcb" y="66.905199"/>
     <use style="stroke:#000000;" x="27" xlink:href="#mefcdf25fcb" y="91.04754"/>
     <use style="stroke:#000000;" x="37.739765" xlink:href="#mefcdf25fcb" y="48.187114"/>
     <use style="stroke:#000000;" x="30.393631" xlink:href="#mefcdf25fcb" y="77.458492"/>
     <use style="stroke:#000000;" x="27.704419" xlink:href="#mefcdf25fcb" y="90.551747"/>
     <use style="stroke:#000000;" x="32.103995" xlink:href="#mefcdf25fcb" y="42.470035"/>
     <use style="stroke:#000000;" x="28.232381" xlink:href="#mefcdf25fcb" y="86.37026"/>
     <use style="stroke:#000000;" x="43.486297" xlink:href="#mefcdf25fcb" y="21.903601"/>
     <use style="stroke:#000000;" x="27.247095" xlink:href="#mefcdf25fcb" y="79.398407"/>
     <use style="stroke:#000000;" x="28.67867" xlink:href="#mefcdf25fcb" y="83.607978"/>
     <use style="stroke:#000000;" x="29.369285" xlink:href="#mefcdf25fcb" y="75.397923"/>
     <use style="stroke:#000000;" x="32.469359" xlink:href="#mefcdf25fcb" y="82.493135"/>
     <use style="stroke:#000000;" x="32.348692" xlink:href="#mefcdf25fcb" y="83.645855"/>
    </g>
   </g>
   <g id="patch_3">
    <path d="M 27 94.5 
L 27 12.96 
" style="fill:none;stroke:#000000;stroke-linecap:square;stroke-linejoin:miter;"/>
   </g>
   <g id="patch_4">
    <path d="M 27 94.5 
L 103.090909 94.5 
" style="fill:none;stroke:#000000;stroke-linecap:square;stroke-linejoin:miter;"/>
   </g>
   <g id="matplotlib.axis_1">
    <g id="xtick_1">
     <g id="line2d_3"/>
     <g id="text_1">
      <text style="font-family:Arial;font-size:8px;font-style:normal;font-weight:normal;text-anchor:middle;" transform="rotate(-0, 27, 103.72625)" x="27" y="103.72625">0</text>
     </g>
    </g>
    <g id="xtick_2">
     <g id="line2d_4"/>
     <g id="text_2">
      <text style="font-family:Arial;font-size:8px;font-style:normal;font-weight:normal;text-anchor:middle;" transform="rotate(-0, 74.752013, 103.72625)" x="74.752013" y="103.72625">10</text>
     </g>
    </g>
    <g id="text_3">
     <text style="font-family:Arial;font-size:10px;font-style:normal;font-weight:normal;text-anchor:middle;" transform="rotate(-0, 65.045455, 116.474063)" x="65.045455" y="116.474063">Exc</text>
    </g>
   </g>
   <g id="matplotlib.axis_2">
    <g id="ytick_1">
     <g id="line2d_5"/>
     <g id="text_4">
      <text style="font-family:Arial;font-size:8px;font-style:normal;font-weight:normal;text-anchor:end;" transform="rotate(-0, 23.5, 97.363125)" x="23.5" y="97.363125">0</text>
     </g>
    </g>
    <g id="ytick_2">
     <g id="line2d_6"/>
     <g id="text_5">
      <text style="font-family:Arial;font-size:8px;font-style:normal;font-weight:normal;text-anchor:end;" transform="rotate(-0, 23.5, 71.777288)" x="23.5" y="71.777288">5</text>
     </g>
    </g>
    <g id="ytick_3">
     <g id="line2d_7"/>
     <g id="text_6">
      <text style="font-family:Arial;font-size:8px;font-style:normal;font-weight:normal;text-anchor:end;" transform="rotate(-0, 23.5, 46.191452)" x="23.5" y="46.191452">10</text>
     </g>
    </g>
    <g id="ytick_4">
     <g id="line2d_8"/>
     <g id="text_7">
      <text style="font-family:Arial;font-size:8px;font-style:normal;font-weight:normal;text-anchor:end;" transform="rotate(-0, 23.5, 20.605615)" x="23.5" y="20.605615">15</text>
     </g>
    </g>
    <g id="text_8">
     <text style="font-family:Arial;font-size:10px;font-style:normal;font-weight:normal;text-anchor:middle;" transform="rotate(-90, 8.615, 53.73)" x="8.615" y="53.73">Inh</text>
    </g>
   </g>
   <g id="legend_1">
    <g id="line2d_9">
     <path d="M 36 75.622656 
L 56 75.622656 
" style="fill:none;stroke:#000000;stroke-dasharray:1.85,0.8;stroke-dashoffset:0;stroke-width:0.5;"/>
    </g>
    <g id="line2d_10"/>
    <g id="text_9">
     <!-- $R^2$ 0.76 -->
     <g transform="translate(64 72.875)">
      <text>
       <tspan style="font-family:DejaVu Sans;font-size:10px;font-style:oblique;font-weight:oblique;" x="0" y="-0.9765625">R</tspan>
       <tspan style="font-family:DejaVu Sans;font-size:7px;font-style:book;font-weight:book;" x="7.650794" y="-4.8046875">2</tspan>
       <tspan style="font-family:Arial;font-size:10px;font-style:regular;font-weight:regular;" x="12.377845 15.156165 20.717689 23.496009 29.057533" y="-0.9765625"> 0.76</tspan>
      </text>
     </g>
     <text style="font-family:Arial;font-size:10px;font-style:normal;font-weight:normal;" transform="translate(64 83.4875)"> slope 3.37</text>
    </g>
   </g>
  </g>
  <g id="axes_2">
   <g id="patch_5">
    <path d="M 118.309091 94.5 
L 194.4 94.5 
L 194.4 12.96 
L 118.309091 12.96 
z
" style="fill:#ffffff;"/>
   </g>
   <g id="PathCollection_1">
    <defs>
     <path d="M 0 2.44949 
C 0.649612 2.44949 1.272706 2.191396 1.732051 1.732051 
C 2.191396 1.272706 2.44949 0.649612 2.44949 0 
C 2.44949 -0.649612 2.191396 -1.272706 1.732051 -1.732051 
C 1.272706 -2.191396 0.649612 -2.44949 0 -2.44949 
C -0.649612 -2.44949 -1.272706 -2.191396 -1.732051 -1.732051 
C -2.191396 -1.272706 -2.44949 -0.649612 -2.44949 0 
C -2.44949 0.649612 -2.191396 1.272706 -1.732051 1.732051 
C -1.272706 2.191396 -0.649612 2.44949 0 2.44949 
z
" id="mc472d5095a" style="stroke:#000000;"/>
    </defs>
    <g clip-path="url(#p48b7953c6d)">
     <use style="stroke:#000000;" x="134.140556" xlink:href="#mc472d5095a" y="84.424414"/>
     <use style="stroke:#000000;" x="123.006616" xlink:href="#mc472d5095a" y="88.961695"/>
     <use style="stroke:#000000;" x="144.219425" xlink:href="#mc472d5095a" y="79.457002"/>
     <use style="stroke:#000000;" x="149.782345" xlink:href="#mc472d5095a" y="42.998257"/>
     <use style="stroke:#000000;" x="145.152884" xlink:href="#mc472d5095a" y="92.212492"/>
     <use style="stroke:#000000;" x="120.330628" xlink:href="#mc472d5095a" y="88.54352"/>
     <use style="stroke:#000000;" x="127.413572" xlink:href="#mc472d5095a" y="81.130959"/>
     <use style="stroke:#000000;" x="119.510396" xlink:href="#mc472d5095a" y="89.529947"/>
     <use style="stroke:#000000;" x="130.000089" xlink:href="#mc472d5095a" y="79.891084"/>
     <use style="stroke:#000000;" x="127.914188" xlink:href="#mc472d5095a" y="89.751819"/>
     <use style="stroke:#000000;" x="158.93873" xlink:href="#mc472d5095a" y="90.662771"/>
     <use style="stroke:#000000;" x="146.436707" xlink:href="#mc472d5095a" y="66.847001"/>
     <use style="stroke:#000000;" x="147.840279" xlink:href="#mc472d5095a" y="71.40637"/>
     <use style="stroke:#000000;" x="145.962766" xlink:href="#mc472d5095a" y="62.235512"/>
     <use style="stroke:#000000;" x="125.927745" xlink:href="#mc472d5095a" y="83.428377"/>
     <use style="stroke:#000000;" x="122.204077" xlink:href="#mc472d5095a" y="89.439063"/>
     <use style="stroke:#000000;" x="129.135428" xlink:href="#mc472d5095a" y="86.084419"/>
     <use style="stroke:#000000;" x="136.951188" xlink:href="#mc472d5095a" y="80.695722"/>
     <use style="stroke:#000000;" x="118.309091" xlink:href="#mc472d5095a" y="94.5"/>
     <use style="stroke:#000000;" x="149.920517" xlink:href="#mc472d5095a" y="77.921419"/>
     <use style="stroke:#000000;" x="132.146435" xlink:href="#mc472d5095a" y="91.436982"/>
     <use style="stroke:#000000;" x="121.588289" xlink:href="#mc472d5095a" y="92.681066"/>
     <use style="stroke:#000000;" x="136.840678" xlink:href="#mc472d5095a" y="17.024325"/>
     <use style="stroke:#000000;" x="123.292717" xlink:href="#mc472d5095a" y="90.618537"/>
     <use style="stroke:#000000;" x="179.467929" xlink:href="#mc472d5095a" y="88.436025"/>
     <use style="stroke:#000000;" x="119.459365" xlink:href="#mc472d5095a" y="89.60383"/>
     <use style="stroke:#000000;" x="125.368619" xlink:href="#mc472d5095a" y="86.916788"/>
     <use style="stroke:#000000;" x="129.338534" xlink:href="#mc472d5095a" y="84.638371"/>
     <use style="stroke:#000000;" x="130.292908" xlink:href="#mc472d5095a" y="81.044869"/>
     <use style="stroke:#000000;" x="132.241337" xlink:href="#mc472d5095a" y="76.842615"/>
    </g>
   </g>
   <g id="line2d_11">
    <path clip-path="url(#p48b7953c6d)" d="M 118.309091 85.951208 
L 119.077686 85.698371 
L 119.846281 85.445534 
L 120.614876 85.192697 
L 121.383471 84.93986 
L 122.152066 84.687023 
L 122.920661 84.434186 
L 123.689256 84.181349 
L 124.457851 83.928512 
L 125.226446 83.675675 
L 125.995041 83.422838 
L 126.763636 83.170001 
L 127.532231 82.917164 
L 128.300826 82.664327 
L 129.069421 82.41149 
L 129.838017 82.158653 
L 130.606612 81.905816 
L 131.375207 81.652979 
L 132.143802 81.400142 
L 132.912397 81.147305 
L 133.680992 80.894468 
L 134.449587 80.641631 
L 135.218182 80.388794 
L 135.986777 80.135957 
L 136.755372 79.88312 
L 137.523967 79.630283 
L 138.292562 79.377447 
L 139.061157 79.12461 
L 139.829752 78.871773 
L 140.598347 78.618936 
L 141.366942 78.366099 
L 142.135537 78.113262 
L 142.904132 77.860425 
L 143.672727 77.607588 
L 144.441322 77.354751 
L 145.209917 77.101914 
L 145.978512 76.849077 
L 146.747107 76.59624 
L 147.515702 76.343403 
L 148.284298 76.090566 
L 149.052893 75.837729 
L 149.821488 75.584892 
L 150.590083 75.332055 
L 151.358678 75.079218 
L 152.127273 74.826381 
L 152.895868 74.573544 
L 153.664463 74.320707 
L 154.433058 74.06787 
L 155.201653 73.815033 
L 155.970248 73.562196 
L 156.738843 73.309359 
L 157.507438 73.056522 
L 158.276033 72.803685 
L 159.044628 72.550848 
L 159.813223 72.298011 
L 160.581818 72.045174 
L 161.350413 71.792337 
L 162.119008 71.5395 
L 162.887603 71.286663 
L 163.656198 71.033826 
L 164.424793 70.780989 
L 165.193388 70.528153 
L 165.961983 70.275316 
L 166.730579 70.022479 
L 167.499174 69.769642 
L 168.267769 69.516805 
L 169.036364 69.263968 
L 169.804959 69.011131 
L 170.573554 68.758294 
L 171.342149 68.505457 
L 172.110744 68.25262 
L 172.879339 67.999783 
L 173.647934 67.746946 
L 174.416529 67.494109 
L 175.185124 67.241272 
L 175.953719 66.988435 
L 176.722314 66.735598 
L 177.490909 66.482761 
L 178.259504 66.229924 
L 179.028099 65.977087 
L 179.796694 65.72425 
L 180.565289 65.471413 
L 181.333884 65.218576 
L 182.102479 64.965739 
L 182.871074 64.712902 
L 183.639669 64.460065 
L 184.408264 64.207228 
L 185.17686 63.954391 
L 185.945455 63.701554 
L 186.71405 63.448717 
L 187.482645 63.19588 
L 188.25124 62.943043 
L 189.019835 62.690206 
L 189.78843 62.437369 
L 190.557025 62.184532 
L 191.32562 61.931696 
L 192.094215 61.678859 
L 192.86281 61.426022 
L 193.631405 61.173185 
L 194.4 60.920348 
" style="fill:none;stroke:#000000;stroke-dasharray:1.85,0.8;stroke-dashoffset:0;stroke-width:0.5;"/>
   </g>
   <g id="patch_6">
    <path d="M 118.309091 94.5 
L 118.309091 12.96 
" style="fill:none;stroke:#000000;stroke-linecap:square;stroke-linejoin:miter;"/>
   </g>
   <g id="patch_7">
    <path d="M 118.309091 94.5 
L 194.4 94.5 
" style="fill:none;stroke:#000000;stroke-linecap:square;stroke-linejoin:miter;"/>
   </g>
   <g id="matplotlib.axis_3">
    <g id="xtick_3">
     <g id="line2d_12"/>
     <g id="text_10">
      <text style="font-family:Arial;font-size:8px;font-style:normal;font-weight:normal;text-anchor:middle;" transform="rotate(-0, 118.309091, 103.72625)" x="118.309091" y="103.72625">0</text>
     </g>
    </g>
    <g id="xtick_4">
     <g id="line2d_13"/>
     <g id="text_11">
      <text style="font-family:Arial;font-size:8px;font-style:normal;font-weight:normal;text-anchor:middle;" transform="rotate(-0, 147.007143, 103.72625)" x="147.007143" y="103.72625">2</text>
     </g>
    </g>
    <g id="xtick_5">
     <g id="line2d_14"/>
     <g id="text_12">
      <text style="font-family:Arial;font-size:8px;font-style:normal;font-weight:normal;text-anchor:middle;" transform="rotate(-0, 175.705194, 103.72625)" x="175.705194" y="103.72625">4</text>
     </g>
    </g>
    <g id="text_13">
     <!-- $\sigma$(Exc) -->
     <g transform="translate(141.504545 116.61625)">
      <text>
       <tspan style="font-family:DejaVu Sans;font-size:10px;font-style:oblique;font-weight:oblique;" x="0" y="-0.71875">σ</tspan>
       <tspan style="font-family:Arial;font-size:10px;font-style:regular;font-weight:regular;" x="6.337891 9.667969 16.337891 21.337891 26.337891" y="-0.71875">(Exc)</tspan>
      </text>
     </g>
    </g>
   </g>
   <g id="matplotlib.axis_4">
    <g id="ytick_5">
     <g id="line2d_15"/>
     <g id="text_14">
      <text style="font-family:Arial;font-size:8px;font-style:normal;font-weight:normal;text-anchor:end;" transform="rotate(-0, 114.809091, 97.363125)" x="114.809091" y="97.363125">0</text>
     </g>
    </g>
    <g id="ytick_6">
     <g id="line2d_16"/>
     <g id="text_15">
      <text style="font-family:Arial;font-size:8px;font-style:normal;font-weight:normal;text-anchor:end;" transform="rotate(-0, 114.809091, 66.609922)" x="114.809091" y="66.609922">2</text>
     </g>
    </g>
    <g id="ytick_7">
     <g id="line2d_17"/>
     <g id="text_16">
      <text style="font-family:Arial;font-size:8px;font-style:normal;font-weight:normal;text-anchor:end;" transform="rotate(-0, 114.809091, 35.85672)" x="114.809091" y="35.85672">4</text>
     </g>
    </g>
    <g id="text_17">
     <!-- $\sigma$(Inh) -->
     <g transform="translate(104.160341 67.18)rotate(-90)">
      <text>
       <tspan style="font-family:DejaVu Sans;font-size:10px;font-style:oblique;font-weight:oblique;" x="0" y="-0.71875">σ</tspan>
       <tspan style="font-family:Arial;font-size:10px;font-style:regular;font-weight:regular;" x="6.337891 9.667969 12.446289 18.007812 23.569336" y="-0.71875">(Inh)</tspan>
      </text>
     </g>
    </g>
   </g>
   <g id="legend_2">
    <g id="line2d_18">
     <path d="M 108.478125 31.995156 
L 128.478125 31.995156 
" style="fill:none;stroke:#000000;stroke-dasharray:1.85,0.8;stroke-dashoffset:0;stroke-width:0.5;"/>
    </g>
    <g id="line2d_19"/>
    <g id="text_18">
     <!-- $R^2$ 0.08 -->
     <g transform="translate(136.478125 29.2475)">
      <text>
       <tspan style="font-family:DejaVu Sans;font-size:10px;font-style:oblique;font-weight:oblique;" x="0" y="-0.9765625">R</tspan>
       <tspan style="font-family:DejaVu Sans;font-size:7px;font-style:book;font-weight:book;" x="7.650794" y="-4.8046875">2</tspan>
       <tspan style="font-family:Arial;font-size:10px;font-style:regular;font-weight:regular;" x="12.377845 15.156165 20.717689 23.496009 29.057533" y="-0.9765625"> 0.08</tspan>
      </text>
     </g>
     <text style="font-family:Arial;font-size:10px;font-style:normal;font-weight:normal;" transform="translate(136.478125 39.86)"> slope 0.31</text>
    </g>
   </g>
  </g>
 </g>
 <defs>
  <clipPath id="peb3f636fab">
   <rect height="81.54" width="76.090909" x="27" y="12.96"/>
  </clipPath>
  <clipPath id="p48b7953c6d">
   <rect height="81.54" width="76.090909" x="118.309091" y="12.96"/>
  </clipPath>
 </defs>
</svg>
