<?xml version="1.0" encoding="utf-8" standalone="no"?>
<!DOCTYPE svg PUBLIC "-//W3C//DTD SVG 1.1//EN"
  "http://www.w3.org/Graphics/SVG/1.1/DTD/svg11.dtd">
<!-- Created with matplotlib (http://matplotlib.org/) -->
<svg height="108pt" version="1.1" viewBox="0 0 216 108" width="216pt" xmlns="http://www.w3.org/2000/svg" xmlns:xlink="http://www.w3.org/1999/xlink">
 <defs>
  <style type="text/css">
*{stroke-linecap:butt;stroke-linejoin:round;}
  </style>
 </defs>
 <g id="figure_1">
  <g id="patch_1">
   <path d="M 0 108 
L 216 108 
L 216 0 
L 0 0 
z
" style="fill:#ffffff;"/>
  </g>
  <g id="axes_1">
   <g id="patch_2">
    <path d="M 27 94.5 
L 103.090909 94.5 
L 103.090909 12.96 
L 27 12.96 
z
" style="fill:#ffffff;"/>
   </g>
   <g id="LineCollection_1">
    <path clip-path="url(#p5903206fbd)" d="M 26.576056 90.815141 
L 28.684049 90.815141 
" style="fill:none;stroke:#000000;stroke-width:0.5;"/>
    <path clip-path="url(#p5903206fbd)" d="M 26.187353 28.862617 
L 37.63273 28.862617 
" style="fill:none;stroke:#000000;stroke-width:0.5;"/>
    <path clip-path="url(#p5903206fbd)" d="M 27.609875 79.40916 
L 35.062738 79.40916 
" style="fill:none;stroke:#000000;stroke-width:0.5;"/>
    <path clip-path="url(#p5903206fbd)" d="M 25.175012 54.251694 
L 41.961755 54.251694 
" style="fill:none;stroke:#000000;stroke-width:0.5;"/>
    <path clip-path="url(#p5903206fbd)" d="M 29.650561 50.415322 
L 47.908013 50.415322 
" style="fill:none;stroke:#000000;stroke-width:0.5;"/>
    <path clip-path="url(#p5903206fbd)" d="M 30.378205 48.56247 
L 42.257262 48.56247 
" style="fill:none;stroke:#000000;stroke-width:0.5;"/>
    <path clip-path="url(#p5903206fbd)" d="M 26.488758 71.295178 
L 37.614642 71.295178 
" style="fill:none;stroke:#000000;stroke-width:0.5;"/>
    <path clip-path="url(#p5903206fbd)" d="M 27.360622 73.63759 
L 38.29828 73.63759 
" style="fill:none;stroke:#000000;stroke-width:0.5;"/>
    <path clip-path="url(#p5903206fbd)" d="M 29.280792 61.159407 
L 42.13874 61.159407 
" style="fill:none;stroke:#000000;stroke-width:0.5;"/>
    <path clip-path="url(#p5903206fbd)" d="M 26.626225 80.906106 
L 35.206023 80.906106 
" style="fill:none;stroke:#000000;stroke-width:0.5;"/>
    <path clip-path="url(#p5903206fbd)" d="M 27.104064 84.646101 
L 33.49965 84.646101 
" style="fill:none;stroke:#000000;stroke-width:0.5;"/>
    <path clip-path="url(#p5903206fbd)" d="M 25.053007 82.894693 
L 35.713792 82.894693 
" style="fill:none;stroke:#000000;stroke-width:0.5;"/>
    <path clip-path="url(#p5903206fbd)" d="M 27.702288 75.592734 
L 34.462926 75.592734 
" style="fill:none;stroke:#000000;stroke-width:0.5;"/>
    <path clip-path="url(#p5903206fbd)" d="M 26.525564 92.762971 
L 28.12906 92.762971 
" style="fill:none;stroke:#000000;stroke-width:0.5;"/>
    <path clip-path="url(#p5903206fbd)" d="M 25.64104 83.103748 
L 33.28136 83.103748 
" style="fill:none;stroke:#000000;stroke-width:0.5;"/>
    <path clip-path="url(#p5903206fbd)" d="M 25.608361 85.483049 
L 31.356478 85.483049 
" style="fill:none;stroke:#000000;stroke-width:0.5;"/>
    <path clip-path="url(#p5903206fbd)" d="M 29.096093 45.051711 
L 46.516568 45.051711 
" style="fill:none;stroke:#000000;stroke-width:0.5;"/>
    <path clip-path="url(#p5903206fbd)" d="M 26.472609 88.657934 
L 28.255082 88.657934 
" style="fill:none;stroke:#000000;stroke-width:0.5;"/>
    <path clip-path="url(#p5903206fbd)" d="M 28.832429 72.195131 
L 43.695728 72.195131 
" style="fill:none;stroke:#000000;stroke-width:0.5;"/>
    <path clip-path="url(#p5903206fbd)" d="M 25.580002 72.987718 
L 33.383638 72.987718 
" style="fill:none;stroke:#000000;stroke-width:0.5;"/>
    <path clip-path="url(#p5903206fbd)" d="M 26.396466 80.998622 
L 33.058196 80.998622 
" style="fill:none;stroke:#000000;stroke-width:0.5;"/>
    <path clip-path="url(#p5903206fbd)" d="M 26.802006 86.801713 
L 31.346848 86.801713 
" style="fill:none;stroke:#000000;stroke-width:0.5;"/>
    <path clip-path="url(#p5903206fbd)" d="M 24.36124 51.332716 
L 41.888264 51.332716 
" style="fill:none;stroke:#000000;stroke-width:0.5;"/>
    <path clip-path="url(#p5903206fbd)" d="M 29.977618 64.590513 
L 39.963939 64.590513 
" style="fill:none;stroke:#000000;stroke-width:0.5;"/>
    <path clip-path="url(#p5903206fbd)" d="M 27.207845 71.264321 
L 41.566235 71.264321 
" style="fill:none;stroke:#000000;stroke-width:0.5;"/>
    <path clip-path="url(#p5903206fbd)" d="M 27 88.137632 
L 27 88.137632 
" style="fill:none;stroke:#000000;stroke-width:0.5;"/>
    <path clip-path="url(#p5903206fbd)" d="M 27.25241 82.233503 
L 31.429562 82.233503 
" style="fill:none;stroke:#000000;stroke-width:0.5;"/>
    <path clip-path="url(#p5903206fbd)" d="M 27.823564 60.738934 
L 40.400947 60.738934 
" style="fill:none;stroke:#000000;stroke-width:0.5;"/>
    <path clip-path="url(#p5903206fbd)" d="M 30.891937 64.016632 
L 43.088098 64.016632 
" style="fill:none;stroke:#000000;stroke-width:0.5;"/>
    <path clip-path="url(#p5903206fbd)" d="M 28.345427 56.238199 
L 39.777689 56.238199 
" style="fill:none;stroke:#000000;stroke-width:0.5;"/>
   </g>
   <g id="LineCollection_2">
    <path clip-path="url(#p5903206fbd)" d="M 27.630052 91.289795 
L 27.630052 90.340486 
" style="fill:none;stroke:#000000;stroke-width:0.5;"/>
    <path clip-path="url(#p5903206fbd)" d="M 31.910041 40.901022 
L 31.910041 16.824213 
" style="fill:none;stroke:#000000;stroke-width:0.5;"/>
    <path clip-path="url(#p5903206fbd)" d="M 31.336306 83.565083 
L 31.336306 75.253237 
" style="fill:none;stroke:#000000;stroke-width:0.5;"/>
    <path clip-path="url(#p5903206fbd)" d="M 33.568383 59.586204 
L 33.568383 48.917184 
" style="fill:none;stroke:#000000;stroke-width:0.5;"/>
    <path clip-path="url(#p5903206fbd)" d="M 38.779287 54.346946 
L 38.779287 46.483698 
" style="fill:none;stroke:#000000;stroke-width:0.5;"/>
    <path clip-path="url(#p5903206fbd)" d="M 36.317734 57.742423 
L 36.317734 39.382516 
" style="fill:none;stroke:#000000;stroke-width:0.5;"/>
    <path clip-path="url(#p5903206fbd)" d="M 32.0517 74.162726 
L 32.0517 68.427631 
" style="fill:none;stroke:#000000;stroke-width:0.5;"/>
    <path clip-path="url(#p5903206fbd)" d="M 32.829451 78.068041 
L 32.829451 69.20714 
" style="fill:none;stroke:#000000;stroke-width:0.5;"/>
    <path clip-path="url(#p5903206fbd)" d="M 35.709766 70.325749 
L 35.709766 51.993064 
" style="fill:none;stroke:#000000;stroke-width:0.5;"/>
    <path clip-path="url(#p5903206fbd)" d="M 30.916124 82.508451 
L 30.916124 79.303761 
" style="fill:none;stroke:#000000;stroke-width:0.5;"/>
    <path clip-path="url(#p5903206fbd)" d="M 30.301857 86.4786 
L 30.301857 82.813603 
" style="fill:none;stroke:#000000;stroke-width:0.5;"/>
    <path clip-path="url(#p5903206fbd)" d="M 30.3834 87.878372 
L 30.3834 77.911013 
" style="fill:none;stroke:#000000;stroke-width:0.5;"/>
    <path clip-path="url(#p5903206fbd)" d="M 31.082607 79.328114 
L 31.082607 71.857353 
" style="fill:none;stroke:#000000;stroke-width:0.5;"/>
    <path clip-path="url(#p5903206fbd)" d="M 27.327312 94.108468 
L 27.327312 91.417475 
" style="fill:none;stroke:#000000;stroke-width:0.5;"/>
    <path clip-path="url(#p5903206fbd)" d="M 29.4612 85.807704 
L 29.4612 80.399793 
" style="fill:none;stroke:#000000;stroke-width:0.5;"/>
    <path clip-path="url(#p5903206fbd)" d="M 28.482419 86.418701 
L 28.482419 84.547397 
" style="fill:none;stroke:#000000;stroke-width:0.5;"/>
    <path clip-path="url(#p5903206fbd)" d="M 37.80633 54.678997 
L 37.80633 35.424425 
" style="fill:none;stroke:#000000;stroke-width:0.5;"/>
    <path clip-path="url(#p5903206fbd)" d="M 27.363846 91.700507 
L 27.363846 85.615362 
" style="fill:none;stroke:#000000;stroke-width:0.5;"/>
    <path clip-path="url(#p5903206fbd)" d="M 36.264079 80.727093 
L 36.264079 63.663169 
" style="fill:none;stroke:#000000;stroke-width:0.5;"/>
    <path clip-path="url(#p5903206fbd)" d="M 29.48182 74.471661 
L 29.48182 71.503775 
" style="fill:none;stroke:#000000;stroke-width:0.5;"/>
    <path clip-path="url(#p5903206fbd)" d="M 29.727331 83.798465 
L 29.727331 78.198779 
" style="fill:none;stroke:#000000;stroke-width:0.5;"/>
    <path clip-path="url(#p5903206fbd)" d="M 29.074427 90.955933 
L 29.074427 82.647493 
" style="fill:none;stroke:#000000;stroke-width:0.5;"/>
    <path clip-path="url(#p5903206fbd)" d="M 33.124752 59.04871 
L 33.124752 43.616723 
" style="fill:none;stroke:#000000;stroke-width:0.5;"/>
    <path clip-path="url(#p5903206fbd)" d="M 34.970779 72.79025 
L 34.970779 56.390776 
" style="fill:none;stroke:#000000;stroke-width:0.5;"/>
    <path clip-path="url(#p5903206fbd)" d="M 34.38704 79.855576 
L 34.38704 62.673067 
" style="fill:none;stroke:#000000;stroke-width:0.5;"/>
    <path clip-path="url(#p5903206fbd)" d="M 27 88.137632 
L 27 88.137632 
" style="fill:none;stroke:#000000;stroke-width:0.5;"/>
    <path clip-path="url(#p5903206fbd)" d="M 29.340986 86.169416 
L 29.340986 78.29759 
" style="fill:none;stroke:#000000;stroke-width:0.5;"/>
    <path clip-path="url(#p5903206fbd)" d="M 34.112256 75.222563 
L 34.112256 46.255305 
" style="fill:none;stroke:#000000;stroke-width:0.5;"/>
    <path clip-path="url(#p5903206fbd)" d="M 36.990018 67.939637 
L 36.990018 60.093628 
" style="fill:none;stroke:#000000;stroke-width:0.5;"/>
    <path clip-path="url(#p5903206fbd)" d="M 34.061558 60.024849 
L 34.061558 52.451548 
" style="fill:none;stroke:#000000;stroke-width:0.5;"/>
   </g>
   <g id="line2d_1">
    <path clip-path="url(#p5903206fbd)" d="M 27 89.244399 
L 27.768595 86.468169 
L 28.53719 83.691938 
L 29.305785 80.915707 
L 30.07438 78.139477 
L 30.842975 75.363246 
L 31.61157 72.587016 
L 32.380165 69.810785 
L 33.14876 67.034554 
L 33.917355 64.258324 
L 34.68595 61.482093 
L 35.454545 58.705863 
L 36.22314 55.929632 
L 36.991736 53.153401 
L 37.760331 50.377171 
L 38.528926 47.60094 
L 39.297521 44.82471 
L 40.066116 42.048479 
L 40.834711 39.272248 
L 41.603306 36.496018 
L 42.371901 33.719787 
L 43.140496 30.943557 
L 43.909091 28.167326 
L 44.677686 25.391095 
L 45.446281 22.614865 
L 46.214876 19.838634 
L 46.983471 17.062404 
L 47.752066 14.286173 
L 48.520661 11.509942 
L 49.289256 8.733712 
L 50.057851 5.957481 
L 50.826446 3.181251 
L 51.595041 0.40502 
L 51.984019 -1 
" style="fill:none;stroke:#000000;stroke-dasharray:1.85,0.8;stroke-dashoffset:0;stroke-width:0.5;"/>
   </g>
   <g id="line2d_2">
    <defs>
     <path d="M 0 3 
C 0.795609 3 1.55874 2.683901 2.12132 2.12132 
C 2.683901 1.55874 3 0.795609 3 0 
C 3 -0.795609 2.683901 -1.55874 2.12132 -2.12132 
C 1.55874 -2.683901 0.795609 -3 0 -3 
C -0.795609 -3 -1.55874 -2.683901 -2.12132 -2.12132 
C -2.683901 -1.55874 -3 -0.795609 -3 0 
C -3 0.795609 -2.683901 1.55874 -2.12132 2.12132 
C -1.55874 2.683901 -0.795609 3 0 3 
z
" id="m5db8847064" style="stroke:#000000;"/>
    </defs>
    <g clip-path="url(#p5903206fbd)">
     <use style="stroke:#000000;" x="27.630052" xlink:href="#m5db8847064" y="90.815141"/>
     <use style="stroke:#000000;" x="31.910041" xlink:href="#m5db8847064" y="28.862617"/>
     <use style="stroke:#000000;" x="31.336306" xlink:href="#m5db8847064" y="79.40916"/>
     <use style="stroke:#000000;" x="33.568383" xlink:href="#m5db8847064" y="54.251694"/>
     <use style="stroke:#000000;" x="38.779287" xlink:href="#m5db8847064" y="50.415322"/>
     <use style="stroke:#000000;" x="36.317734" xlink:href="#m5db8847064" y="48.56247"/>
     <use style="stroke:#000000;" x="32.0517" xlink:href="#m5db8847064" y="71.295178"/>
     <use style="stroke:#000000;" x="32.829451" xlink:href="#m5db8847064" y="73.63759"/>
     <use style="stroke:#000000;" x="35.709766" xlink:href="#m5db8847064" y="61.159407"/>
     <use style="stroke:#000000;" x="30.916124" xlink:href="#m5db8847064" y="80.906106"/>
     <use style="stroke:#000000;" x="30.301857" xlink:href="#m5db8847064" y="84.646101"/>
     <use style="stroke:#000000;" x="30.3834" xlink:href="#m5db8847064" y="82.894693"/>
     <use style="stroke:#000000;" x="31.082607" xlink:href="#m5db8847064" y="75.592734"/>
     <use style="stroke:#000000;" x="27.327312" xlink:href="#m5db8847064" y="92.762971"/>
     <use style="stroke:#000000;" x="29.4612" xlink:href="#m5db8847064" y="83.103748"/>
     <use style="stroke:#000000;" x="28.482419" xlink:href="#m5db8847064" y="85.483049"/>
     <use style="stroke:#000000;" x="37.80633" xlink:href="#m5db8847064" y="45.051711"/>
     <use style="stroke:#000000;" x="27.363846" xlink:href="#m5db8847064" y="88.657934"/>
     <use style="stroke:#000000;" x="36.264079" xlink:href="#m5db8847064" y="72.195131"/>
     <use style="stroke:#000000;" x="29.48182" xlink:href="#m5db8847064" y="72.987718"/>
     <use style="stroke:#000000;" x="29.727331" xlink:href="#m5db8847064" y="80.998622"/>
     <use style="stroke:#000000;" x="29.074427" xlink:href="#m5db8847064" y="86.801713"/>
     <use style="stroke:#000000;" x="33.124752" xlink:href="#m5db8847064" y="51.332716"/>
     <use style="stroke:#000000;" x="34.970779" xlink:href="#m5db8847064" y="64.590513"/>
     <use style="stroke:#000000;" x="34.38704" xlink:href="#m5db8847064" y="71.264321"/>
     <use style="stroke:#000000;" x="27" xlink:href="#m5db8847064" y="88.137632"/>
     <use style="stroke:#000000;" x="29.340986" xlink:href="#m5db8847064" y="82.233503"/>
     <use style="stroke:#000000;" x="34.112256" xlink:href="#m5db8847064" y="60.738934"/>
     <use style="stroke:#000000;" x="36.990018" xlink:href="#m5db8847064" y="64.016632"/>
     <use style="stroke:#000000;" x="34.061558" xlink:href="#m5db8847064" y="56.238199"/>
    </g>
   </g>
   <g id="patch_3">
    <path d="M 27 94.5 
L 27 12.96 
" style="fill:none;stroke:#000000;stroke-linecap:square;stroke-linejoin:miter;"/>
   </g>
   <g id="patch_4">
    <path d="M 27 94.5 
L 103.090909 94.5 
" style="fill:none;stroke:#000000;stroke-linecap:square;stroke-linejoin:miter;"/>
   </g>
   <g id="matplotlib.axis_1">
    <g id="xtick_1">
     <g id="line2d_3"/>
     <g id="text_1">
      <text style="font-family:Arial;font-size:8px;font-style:normal;font-weight:normal;text-anchor:middle;" transform="rotate(-0, 27, 103.72625)" x="27" y="103.72625">0</text>
     </g>
    </g>
    <g id="xtick_2">
     <g id="line2d_4"/>
     <g id="text_2">
      <text style="font-family:Arial;font-size:8px;font-style:normal;font-weight:normal;text-anchor:middle;" transform="rotate(-0, 53.078621, 103.72625)" x="53.078621" y="103.72625">5</text>
     </g>
    </g>
    <g id="xtick_3">
     <g id="line2d_5"/>
     <g id="text_3">
      <text style="font-family:Arial;font-size:8px;font-style:normal;font-weight:normal;text-anchor:middle;" transform="rotate(-0, 79.157243, 103.72625)" x="79.157243" y="103.72625">10</text>
     </g>
    </g>
    <g id="text_4">
     <text style="font-family:Arial;font-size:10px;font-style:normal;font-weight:normal;text-anchor:middle;" transform="rotate(-0, 65.045455, 116.474063)" x="65.045455" y="116.474063">Exc</text>
    </g>
   </g>
   <g id="matplotlib.axis_2">
    <g id="ytick_1">
     <g id="line2d_6"/>
     <g id="text_5">
      <text style="font-family:Arial;font-size:8px;font-style:normal;font-weight:normal;text-anchor:end;" transform="rotate(-0, 23.5, 97.363125)" x="23.5" y="97.363125">0</text>
     </g>
    </g>
    <g id="ytick_2">
     <g id="line2d_7"/>
     <g id="text_6">
      <text style="font-family:Arial;font-size:8px;font-style:normal;font-weight:normal;text-anchor:end;" transform="rotate(-0, 23.5, 69.416938)" x="23.5" y="69.416938">5</text>
     </g>
    </g>
    <g id="ytick_3">
     <g id="line2d_8"/>
     <g id="text_7">
      <text style="font-family:Arial;font-size:8px;font-style:normal;font-weight:normal;text-anchor:end;" transform="rotate(-0, 23.5, 41.470751)" x="23.5" y="41.470751">10</text>
     </g>
    </g>
    <g id="text_8">
     <text style="font-family:Arial;font-size:10px;font-style:normal;font-weight:normal;text-anchor:middle;" transform="rotate(-90, 8.615, 53.73)" x="8.615" y="53.73">Inh</text>
    </g>
   </g>
   <g id="legend_1">
    <g id="line2d_9">
     <path d="M 36 75.622656 
L 56 75.622656 
" style="fill:none;stroke:#000000;stroke-dasharray:1.85,0.8;stroke-dashoffset:0;stroke-width:0.5;"/>
    </g>
    <g id="line2d_10"/>
    <g id="text_9">
     <!-- $R^2$ 0.57 -->
     <g transform="translate(64 72.875)">
      <text>
       <tspan style="font-family:DejaVu Sans;font-size:10px;font-style:oblique;font-weight:oblique;" x="0" y="-0.9765625">R</tspan>
       <tspan style="font-family:DejaVu Sans;font-size:7px;font-style:book;font-weight:book;" x="7.650794" y="-4.8046875">2</tspan>
       <tspan style="font-family:Arial;font-size:10px;font-style:regular;font-weight:regular;" x="12.377845 15.156165 20.717689 23.496009 29.057533" y="-0.9765625"> 0.57</tspan>
      </text>
     </g>
     <text style="font-family:Arial;font-size:10px;font-style:normal;font-weight:normal;" transform="translate(64 83.4875)"> slope 3.37</text>
    </g>
   </g>
  </g>
  <g id="axes_2">
   <g id="patch_5">
    <path d="M 118.309091 94.5 
L 194.4 94.5 
L 194.4 12.96 
L 118.309091 12.96 
z
" style="fill:#ffffff;"/>
   </g>
   <g id="PathCollection_1">
    <defs>
     <path d="M 0 2.44949 
C 0.649612 2.44949 1.272706 2.191396 1.732051 1.732051 
C 2.191396 1.272706 2.44949 0.649612 2.44949 0 
C 2.44949 -0.649612 2.191396 -1.272706 1.732051 -1.732051 
C 1.272706 -2.191396 0.649612 -2.44949 0 -2.44949 
C -0.649612 -2.44949 -1.272706 -2.191396 -1.732051 -1.732051 
C -2.191396 -1.272706 -2.44949 -0.649612 -2.44949 0 
C -2.44949 0.649612 -2.191396 1.272706 -1.732051 1.732051 
C -1.272706 2.191396 -0.649612 2.44949 0 2.44949 
z
" id="me82c1aac82" style="stroke:#000000;"/>
    </defs>
    <g clip-path="url(#p46c10c44d9)">
     <use style="stroke:#000000;" x="123.934704" xlink:href="#me82c1aac82" y="91.966574"/>
     <use style="stroke:#000000;" x="148.853431" xlink:href="#me82c1aac82" y="30.246089"/>
     <use style="stroke:#000000;" x="138.198585" xlink:href="#me82c1aac82" y="72.318132"/>
     <use style="stroke:#000000;" x="163.107965" xlink:href="#me82c1aac82" y="66.027528"/>
     <use style="stroke:#000000;" x="167.03285" xlink:href="#me82c1aac82" y="73.515308"/>
     <use style="stroke:#000000;" x="150.010795" xlink:href="#me82c1aac82" y="45.502817"/>
     <use style="stroke:#000000;" x="148.000798" xlink:href="#me82c1aac82" y="79.194722"/>
     <use style="stroke:#000000;" x="147.498478" xlink:href="#me82c1aac82" y="70.852866"/>
     <use style="stroke:#000000;" x="152.623166" xlink:href="#me82c1aac82" y="45.575463"/>
     <use style="stroke:#000000;" x="141.206044" xlink:href="#me82c1aac82" y="85.947626"/>
     <use style="stroke:#000000;" x="135.377027" xlink:href="#me82c1aac82" y="84.719204"/>
     <use style="stroke:#000000;" x="146.759586" xlink:href="#me82c1aac82" y="67.900056"/>
     <use style="stroke:#000000;" x="136.351242" xlink:href="#me82c1aac82" y="74.562742"/>
     <use style="stroke:#000000;" x="122.588347" xlink:href="#me82c1aac82" y="87.318531"/>
     <use style="stroke:#000000;" x="138.698855" xlink:href="#me82c1aac82" y="80.067879"/>
     <use style="stroke:#000000;" x="133.649123" xlink:href="#me82c1aac82" y="89.506042"/>
     <use style="stroke:#000000;" x="164.799207" xlink:href="#me82c1aac82" y="43.115222"/>
     <use style="stroke:#000000;" x="123.065985" xlink:href="#me82c1aac82" y="78.260541"/>
     <use style="stroke:#000000;" x="157.974857" xlink:href="#me82c1aac82" y="48.961416"/>
     <use style="stroke:#000000;" x="139.134695" xlink:href="#me82c1aac82" y="86.579587"/>
     <use style="stroke:#000000;" x="136.087285" xlink:href="#me82c1aac82" y="79.556088"/>
     <use style="stroke:#000000;" x="130.437935" xlink:href="#me82c1aac82" y="72.32722"/>
     <use style="stroke:#000000;" x="165.083553" xlink:href="#me82c1aac82" y="53.316572"/>
     <use style="stroke:#000000;" x="144.959638" xlink:href="#me82c1aac82" y="50.734633"/>
     <use style="stroke:#000000;" x="156.627405" xlink:href="#me82c1aac82" y="48.644946"/>
     <use style="stroke:#000000;" x="118.309091" xlink:href="#me82c1aac82" y="94.5"/>
     <use style="stroke:#000000;" x="129.456679" xlink:href="#me82c1aac82" y="73.492414"/>
     <use style="stroke:#000000;" x="151.874419" xlink:href="#me82c1aac82" y="17.194922"/>
     <use style="stroke:#000000;" x="150.857052" xlink:href="#me82c1aac82" y="73.561315"/>
     <use style="stroke:#000000;" x="148.81843" xlink:href="#me82c1aac82" y="74.289091"/>
    </g>
   </g>
   <g id="line2d_11">
    <path clip-path="url(#p46c10c44d9)" d="M 118.309091 91.148011 
L 119.077686 90.44741 
L 119.846281 89.746809 
L 120.614876 89.046208 
L 121.383471 88.345607 
L 122.152066 87.645005 
L 122.920661 86.944404 
L 123.689256 86.243803 
L 124.457851 85.543202 
L 125.226446 84.842601 
L 125.995041 84.142 
L 126.763636 83.441399 
L 127.532231 82.740797 
L 128.300826 82.040196 
L 129.069421 81.339595 
L 129.838017 80.638994 
L 130.606612 79.938393 
L 131.375207 79.237792 
L 132.143802 78.53719 
L 132.912397 77.836589 
L 133.680992 77.135988 
L 134.449587 76.435387 
L 135.218182 75.734786 
L 135.986777 75.034185 
L 136.755372 74.333584 
L 137.523967 73.632982 
L 138.292562 72.932381 
L 139.061157 72.23178 
L 139.829752 71.531179 
L 140.598347 70.830578 
L 141.366942 70.129977 
L 142.135537 69.429376 
L 142.904132 68.728774 
L 143.672727 68.028173 
L 144.441322 67.327572 
L 145.209917 66.626971 
L 145.978512 65.92637 
L 146.747107 65.225769 
L 147.515702 64.525168 
L 148.284298 63.824566 
L 149.052893 63.123965 
L 149.821488 62.423364 
L 150.590083 61.722763 
L 151.358678 61.022162 
L 152.127273 60.321561 
L 152.895868 59.62096 
L 153.664463 58.920358 
L 154.433058 58.219757 
L 155.201653 57.519156 
L 155.970248 56.818555 
L 156.738843 56.117954 
L 157.507438 55.417353 
L 158.276033 54.716752 
L 159.044628 54.01615 
L 159.813223 53.315549 
L 160.581818 52.614948 
L 161.350413 51.914347 
L 162.119008 51.213746 
L 162.887603 50.513145 
L 163.656198 49.812544 
L 164.424793 49.111942 
L 165.193388 48.411341 
L 165.961983 47.71074 
L 166.730579 47.010139 
L 167.499174 46.309538 
L 168.267769 45.608937 
L 169.036364 44.908336 
L 169.804959 44.207734 
L 170.573554 43.507133 
L 171.342149 42.806532 
L 172.110744 42.105931 
L 172.879339 41.40533 
L 173.647934 40.704729 
L 174.416529 40.004128 
L 175.185124 39.303526 
L 175.953719 38.602925 
L 176.722314 37.902324 
L 177.490909 37.201723 
L 178.259504 36.501122 
L 179.028099 35.800521 
L 179.796694 35.09992 
L 180.565289 34.399318 
L 181.333884 33.698717 
L 182.102479 32.998116 
L 182.871074 32.297515 
L 183.639669 31.596914 
L 184.408264 30.896313 
L 185.17686 30.195712 
L 185.945455 29.49511 
L 186.71405 28.794509 
L 187.482645 28.093908 
L 188.25124 27.393307 
L 189.019835 26.692706 
L 189.78843 25.992105 
L 190.557025 25.291504 
L 191.32562 24.590902 
L 192.094215 23.890301 
L 192.86281 23.1897 
L 193.631405 22.489099 
L 194.4 21.788498 
" style="fill:none;stroke:#000000;stroke-dasharray:1.85,0.8;stroke-dashoffset:0;stroke-width:0.5;"/>
   </g>
   <g id="patch_6">
    <path d="M 118.309091 94.5 
L 118.309091 12.96 
" style="fill:none;stroke:#000000;stroke-linecap:square;stroke-linejoin:miter;"/>
   </g>
   <g id="patch_7">
    <path d="M 118.309091 94.5 
L 194.4 94.5 
" style="fill:none;stroke:#000000;stroke-linecap:square;stroke-linejoin:miter;"/>
   </g>
   <g id="matplotlib.axis_3">
    <g id="xtick_4">
     <g id="line2d_12"/>
     <g id="text_10">
      <text style="font-family:Arial;font-size:8px;font-style:normal;font-weight:normal;text-anchor:middle;" transform="rotate(-0, 118.309091, 103.72625)" x="118.309091" y="103.72625">0</text>
     </g>
    </g>
    <g id="xtick_5">
     <g id="line2d_13"/>
     <g id="text_11">
      <text style="font-family:Arial;font-size:8px;font-style:normal;font-weight:normal;text-anchor:middle;" transform="rotate(-0, 146.147554, 103.72625)" x="146.147554" y="103.72625">1</text>
     </g>
    </g>
    <g id="xtick_6">
     <g id="line2d_14"/>
     <g id="text_12">
      <text style="font-family:Arial;font-size:8px;font-style:normal;font-weight:normal;text-anchor:middle;" transform="rotate(-0, 173.986017, 103.72625)" x="173.986017" y="103.72625">2</text>
     </g>
    </g>
    <g id="text_13">
     <!-- $\sigma$(Exc) -->
     <g transform="translate(141.504545 116.61625)">
      <text>
       <tspan style="font-family:DejaVu Sans;font-size:10px;font-style:oblique;font-weight:oblique;" x="0" y="-0.71875">σ</tspan>
       <tspan style="font-family:Arial;font-size:10px;font-style:regular;font-weight:regular;" x="6.337891 9.667969 16.337891 21.337891 26.337891" y="-0.71875">(Exc)</tspan>
      </text>
     </g>
    </g>
   </g>
   <g id="matplotlib.axis_4">
    <g id="ytick_4">
     <g id="line2d_15"/>
     <g id="text_14">
      <text style="font-family:Arial;font-size:8px;font-style:normal;font-weight:normal;text-anchor:end;" transform="rotate(-0, 114.809091, 97.363125)" x="114.809091" y="97.363125">0</text>
     </g>
    </g>
    <g id="ytick_5">
     <g id="line2d_16"/>
     <g id="text_15">
      <text style="font-family:Arial;font-size:8px;font-style:normal;font-weight:normal;text-anchor:end;" transform="rotate(-0, 114.809091, 67.531069)" x="114.809091" y="67.531069">1</text>
     </g>
    </g>
    <g id="ytick_6">
     <g id="line2d_17"/>
     <g id="text_16">
      <text style="font-family:Arial;font-size:8px;font-style:normal;font-weight:normal;text-anchor:end;" transform="rotate(-0, 114.809091, 37.699013)" x="114.809091" y="37.699013">2</text>
     </g>
    </g>
    <g id="text_17">
     <!-- $\sigma$(Inh) -->
     <g transform="translate(104.160341 67.18)rotate(-90)">
      <text>
       <tspan style="font-family:DejaVu Sans;font-size:10px;font-style:oblique;font-weight:oblique;" x="0" y="-0.71875">σ</tspan>
       <tspan style="font-family:Arial;font-size:10px;font-style:regular;font-weight:regular;" x="6.337891 9.667969 12.446289 18.007812 23.569336" y="-0.71875">(Inh)</tspan>
      </text>
     </g>
    </g>
   </g>
   <g id="legend_2">
    <g id="line2d_18">
     <path d="M 108.478125 31.995156 
L 128.478125 31.995156 
" style="fill:none;stroke:#000000;stroke-dasharray:1.85,0.8;stroke-dashoffset:0;stroke-width:0.5;"/>
    </g>
    <g id="line2d_19"/>
    <g id="text_18">
     <!-- $R^2$ 0.40 -->
     <g transform="translate(136.478125 29.2475)">
      <text>
       <tspan style="font-family:DejaVu Sans;font-size:10px;font-style:oblique;font-weight:oblique;" x="0" y="-0.9765625">R</tspan>
       <tspan style="font-family:DejaVu Sans;font-size:7px;font-style:book;font-weight:book;" x="7.650794" y="-4.8046875">2</tspan>
       <tspan style="font-family:Arial;font-size:10px;font-style:regular;font-weight:regular;" x="12.377845 15.156165 20.717689 23.496009 29.057533" y="-0.9765625"> 0.40</tspan>
      </text>
     </g>
     <text style="font-family:Arial;font-size:10px;font-style:normal;font-weight:normal;" transform="translate(136.478125 39.86)"> slope 0.85</text>
    </g>
   </g>
  </g>
 </g>
 <defs>
  <clipPath id="p5903206fbd">
   <rect height="81.54" width="76.090909" x="27" y="12.96"/>
  </clipPath>
  <clipPath id="p46c10c44d9">
   <rect height="81.54" width="76.090909" x="118.309091" y="12.96"/>
  </clipPath>
 </defs>
</svg>
