<?xml version="1.0" encoding="utf-8" standalone="no"?>
<!DOCTYPE svg PUBLIC "-//W3C//DTD SVG 1.1//EN"
  "http://www.w3.org/Graphics/SVG/1.1/DTD/svg11.dtd">
<!-- Created with matplotlib (http://matplotlib.org/) -->
<svg height="108pt" version="1.1" viewBox="0 0 216 108" width="216pt" xmlns="http://www.w3.org/2000/svg" xmlns:xlink="http://www.w3.org/1999/xlink">
 <defs>
  <style type="text/css">
*{stroke-linecap:butt;stroke-linejoin:round;}
  </style>
 </defs>
 <g id="figure_1">
  <g id="patch_1">
   <path d="M 0 108 
L 216 108 
L 216 0 
L 0 0 
z
" style="fill:#ffffff;"/>
  </g>
  <g id="axes_1">
   <g id="patch_2">
    <path d="M 27 94.5 
L 103.090909 94.5 
L 103.090909 12.96 
L 27 12.96 
z
" style="fill:#ffffff;"/>
   </g>
   <g id="LineCollection_1">
    <path clip-path="url(#pec06bcefb1)" d="M 26.501525 76.227144 
L 32.279189 76.227144 
" style="fill:none;stroke:#000000;stroke-width:0.5;"/>
    <path clip-path="url(#pec06bcefb1)" d="M 27.834144 69.185411 
L 42.144094 69.185411 
" style="fill:none;stroke:#000000;stroke-width:0.5;"/>
    <path clip-path="url(#pec06bcefb1)" d="M 26.873395 75.783879 
L 31.374531 75.783879 
" style="fill:none;stroke:#000000;stroke-width:0.5;"/>
    <path clip-path="url(#pec06bcefb1)" d="M 29.382863 83.936504 
L 32.512815 83.936504 
" style="fill:none;stroke:#000000;stroke-width:0.5;"/>
    <path clip-path="url(#pec06bcefb1)" d="M 27.399357 78.521728 
L 30.050163 78.521728 
" style="fill:none;stroke:#000000;stroke-width:0.5;"/>
    <path clip-path="url(#pec06bcefb1)" d="M 26.117165 84.265183 
L 31.694084 84.265183 
" style="fill:none;stroke:#000000;stroke-width:0.5;"/>
    <path clip-path="url(#pec06bcefb1)" d="M 27.07891 86.535426 
L 29.812071 86.535426 
" style="fill:none;stroke:#000000;stroke-width:0.5;"/>
    <path clip-path="url(#pec06bcefb1)" d="M 27.364382 82.956004 
L 34.302335 82.956004 
" style="fill:none;stroke:#000000;stroke-width:0.5;"/>
    <path clip-path="url(#pec06bcefb1)" d="M 27.228627 77.939489 
L 35.998351 77.939489 
" style="fill:none;stroke:#000000;stroke-width:0.5;"/>
    <path clip-path="url(#pec06bcefb1)" d="M 22.729957 71.7137 
L 39.55261 71.7137 
" style="fill:none;stroke:#000000;stroke-width:0.5;"/>
    <path clip-path="url(#pec06bcefb1)" d="M 27.582108 49.295756 
L 34.254738 49.295756 
" style="fill:none;stroke:#000000;stroke-width:0.5;"/>
    <path clip-path="url(#pec06bcefb1)" d="M 29.105751 81.614091 
L 33.990183 81.614091 
" style="fill:none;stroke:#000000;stroke-width:0.5;"/>
    <path clip-path="url(#pec06bcefb1)" d="M 26.564812 85.384633 
L 31.634694 85.384633 
" style="fill:none;stroke:#000000;stroke-width:0.5;"/>
    <path clip-path="url(#pec06bcefb1)" d="M 26.771329 75.743623 
L 29.36074 75.743623 
" style="fill:none;stroke:#000000;stroke-width:0.5;"/>
    <path clip-path="url(#pec06bcefb1)" d="M 24.049097 72.292627 
L 40.695745 72.292627 
" style="fill:none;stroke:#000000;stroke-width:0.5;"/>
    <path clip-path="url(#pec06bcefb1)" d="M 26.66544 90.002655 
L 27.796184 90.002655 
" style="fill:none;stroke:#000000;stroke-width:0.5;"/>
    <path clip-path="url(#pec06bcefb1)" d="M 30.391789 74.69688 
L 39.279504 74.69688 
" style="fill:none;stroke:#000000;stroke-width:0.5;"/>
    <path clip-path="url(#pec06bcefb1)" d="M 27.512086 56.872423 
L 40.418702 56.872423 
" style="fill:none;stroke:#000000;stroke-width:0.5;"/>
    <path clip-path="url(#pec06bcefb1)" d="M 27 94.5 
L 27 94.5 
" style="fill:none;stroke:#000000;stroke-width:0.5;"/>
    <path clip-path="url(#pec06bcefb1)" d="M 26.667806 79.394029 
L 30.465528 79.394029 
" style="fill:none;stroke:#000000;stroke-width:0.5;"/>
    <path clip-path="url(#pec06bcefb1)" d="M 27 93.69994 
L 27 93.69994 
" style="fill:none;stroke:#000000;stroke-width:0.5;"/>
    <path clip-path="url(#pec06bcefb1)" d="M 26.365794 60.265341 
L 29.596989 60.265341 
" style="fill:none;stroke:#000000;stroke-width:0.5;"/>
    <path clip-path="url(#pec06bcefb1)" d="M 28.524575 86.889775 
L 31.428544 86.889775 
" style="fill:none;stroke:#000000;stroke-width:0.5;"/>
    <path clip-path="url(#pec06bcefb1)" d="M 26.792252 90.585307 
L 27.494398 90.585307 
" style="fill:none;stroke:#000000;stroke-width:0.5;"/>
    <path clip-path="url(#pec06bcefb1)" d="M 27.818067 76.250095 
L 40.308048 76.250095 
" style="fill:none;stroke:#000000;stroke-width:0.5;"/>
    <path clip-path="url(#pec06bcefb1)" d="M 23.232093 33.404305 
L 54.39505 33.404305 
" style="fill:none;stroke:#000000;stroke-width:0.5;"/>
    <path clip-path="url(#pec06bcefb1)" d="M 28.807724 83.23321 
L 34.676318 83.23321 
" style="fill:none;stroke:#000000;stroke-width:0.5;"/>
    <path clip-path="url(#pec06bcefb1)" d="M 28.530804 87.12042 
L 32.022567 87.12042 
" style="fill:none;stroke:#000000;stroke-width:0.5;"/>
    <path clip-path="url(#pec06bcefb1)" d="M 27.187483 72.270277 
L 33.411274 72.270277 
" style="fill:none;stroke:#000000;stroke-width:0.5;"/>
    <path clip-path="url(#pec06bcefb1)" d="M 31.791476 72.536871 
L 41.213061 72.536871 
" style="fill:none;stroke:#000000;stroke-width:0.5;"/>
   </g>
   <g id="LineCollection_2">
    <path clip-path="url(#pec06bcefb1)" d="M 29.390357 78.974132 
L 29.390357 73.480156 
" style="fill:none;stroke:#000000;stroke-width:0.5;"/>
    <path clip-path="url(#pec06bcefb1)" d="M 34.989119 73.312826 
L 34.989119 65.057997 
" style="fill:none;stroke:#000000;stroke-width:0.5;"/>
    <path clip-path="url(#pec06bcefb1)" d="M 29.123963 79.502341 
L 29.123963 72.065417 
" style="fill:none;stroke:#000000;stroke-width:0.5;"/>
    <path clip-path="url(#pec06bcefb1)" d="M 30.947839 87.136151 
L 30.947839 80.736857 
" style="fill:none;stroke:#000000;stroke-width:0.5;"/>
    <path clip-path="url(#pec06bcefb1)" d="M 28.72476 83.893994 
L 28.72476 73.149462 
" style="fill:none;stroke:#000000;stroke-width:0.5;"/>
    <path clip-path="url(#pec06bcefb1)" d="M 28.905625 85.137325 
L 28.905625 83.39304 
" style="fill:none;stroke:#000000;stroke-width:0.5;"/>
    <path clip-path="url(#pec06bcefb1)" d="M 28.445491 88.196022 
L 28.445491 84.874829 
" style="fill:none;stroke:#000000;stroke-width:0.5;"/>
    <path clip-path="url(#pec06bcefb1)" d="M 30.833358 85.98314 
L 30.833358 79.928868 
" style="fill:none;stroke:#000000;stroke-width:0.5;"/>
    <path clip-path="url(#pec06bcefb1)" d="M 31.613489 79.961176 
L 31.613489 75.917801 
" style="fill:none;stroke:#000000;stroke-width:0.5;"/>
    <path clip-path="url(#pec06bcefb1)" d="M 31.141283 84.537393 
L 31.141283 58.890008 
" style="fill:none;stroke:#000000;stroke-width:0.5;"/>
    <path clip-path="url(#pec06bcefb1)" d="M 30.918423 53.134488 
L 30.918423 45.457023 
" style="fill:none;stroke:#000000;stroke-width:0.5;"/>
    <path clip-path="url(#pec06bcefb1)" d="M 31.547967 85.492563 
L 31.547967 77.735619 
" style="fill:none;stroke:#000000;stroke-width:0.5;"/>
    <path clip-path="url(#pec06bcefb1)" d="M 29.099753 86.899932 
L 29.099753 83.869333 
" style="fill:none;stroke:#000000;stroke-width:0.5;"/>
    <path clip-path="url(#pec06bcefb1)" d="M 28.066034 77.603083 
L 28.066034 73.884162 
" style="fill:none;stroke:#000000;stroke-width:0.5;"/>
    <path clip-path="url(#pec06bcefb1)" d="M 32.372421 79.928829 
L 32.372421 64.656424 
" style="fill:none;stroke:#000000;stroke-width:0.5;"/>
    <path clip-path="url(#pec06bcefb1)" d="M 27.230812 92.400185 
L 27.230812 87.605126 
" style="fill:none;stroke:#000000;stroke-width:0.5;"/>
    <path clip-path="url(#pec06bcefb1)" d="M 34.835647 82.78007 
L 34.835647 66.61369 
" style="fill:none;stroke:#000000;stroke-width:0.5;"/>
    <path clip-path="url(#pec06bcefb1)" d="M 33.965394 64.673085 
L 33.965394 49.07176 
" style="fill:none;stroke:#000000;stroke-width:0.5;"/>
    <path clip-path="url(#pec06bcefb1)" d="M 27 94.5 
L 27 94.5 
" style="fill:none;stroke:#000000;stroke-width:0.5;"/>
    <path clip-path="url(#pec06bcefb1)" d="M 28.566667 83.655949 
L 28.566667 75.132109 
" style="fill:none;stroke:#000000;stroke-width:0.5;"/>
    <path clip-path="url(#pec06bcefb1)" d="M 27 93.69994 
L 27 93.69994 
" style="fill:none;stroke:#000000;stroke-width:0.5;"/>
    <path clip-path="url(#pec06bcefb1)" d="M 27.981392 68.925642 
L 27.981392 51.60504 
" style="fill:none;stroke:#000000;stroke-width:0.5;"/>
    <path clip-path="url(#pec06bcefb1)" d="M 29.97656 88.10981 
L 29.97656 85.66974 
" style="fill:none;stroke:#000000;stroke-width:0.5;"/>
    <path clip-path="url(#pec06bcefb1)" d="M 27.143325 91.182647 
L 27.143325 89.987967 
" style="fill:none;stroke:#000000;stroke-width:0.5;"/>
    <path clip-path="url(#pec06bcefb1)" d="M 34.063057 85.110966 
L 34.063057 67.389224 
" style="fill:none;stroke:#000000;stroke-width:0.5;"/>
    <path clip-path="url(#pec06bcefb1)" d="M 38.813572 49.965753 
L 38.813572 16.842857 
" style="fill:none;stroke:#000000;stroke-width:0.5;"/>
    <path clip-path="url(#pec06bcefb1)" d="M 31.742021 87.012528 
L 31.742021 79.453893 
" style="fill:none;stroke:#000000;stroke-width:0.5;"/>
    <path clip-path="url(#pec06bcefb1)" d="M 30.276686 88.675815 
L 30.276686 85.565024 
" style="fill:none;stroke:#000000;stroke-width:0.5;"/>
    <path clip-path="url(#pec06bcefb1)" d="M 30.299378 75.292384 
L 30.299378 69.248169 
" style="fill:none;stroke:#000000;stroke-width:0.5;"/>
    <path clip-path="url(#pec06bcefb1)" d="M 36.502268 73.896197 
L 36.502268 71.177544 
" style="fill:none;stroke:#000000;stroke-width:0.5;"/>
   </g>
   <g id="line2d_1">
    <path clip-path="url(#pec06bcefb1)" d="M 27 87.43291 
L 27.768595 85.228299 
L 28.53719 83.023687 
L 29.305785 80.819075 
L 30.07438 78.614463 
L 30.842975 76.409851 
L 31.61157 74.20524 
L 32.380165 72.000628 
L 33.14876 69.796016 
L 33.917355 67.591404 
L 34.68595 65.386793 
L 35.454545 63.182181 
L 36.22314 60.977569 
L 36.991736 58.772957 
L 37.760331 56.568345 
L 38.528926 54.363734 
L 39.297521 52.159122 
L 40.066116 49.95451 
L 40.834711 47.749898 
L 41.603306 45.545286 
L 42.371901 43.340675 
L 43.140496 41.136063 
L 43.909091 38.931451 
L 44.677686 36.726839 
L 45.446281 34.522228 
L 46.214876 32.317616 
L 46.983471 30.113004 
L 47.752066 27.908392 
L 48.520661 25.70378 
L 49.289256 23.499169 
L 50.057851 21.294557 
L 50.826446 19.089945 
L 51.595041 16.885333 
L 52.363636 14.680721 
L 53.132231 12.47611 
L 53.900826 10.271498 
L 54.669421 8.066886 
L 55.438017 5.862274 
L 56.206612 3.657663 
L 56.975207 1.453051 
L 57.743802 -0.751561 
L 57.830415 -1 
" style="fill:none;stroke:#000000;stroke-dasharray:1.85,0.8;stroke-dashoffset:0;stroke-width:0.5;"/>
   </g>
   <g id="line2d_2">
    <defs>
     <path d="M 0 3 
C 0.795609 3 1.55874 2.683901 2.12132 2.12132 
C 2.683901 1.55874 3 0.795609 3 0 
C 3 -0.795609 2.683901 -1.55874 2.12132 -2.12132 
C 1.55874 -2.683901 0.795609 -3 0 -3 
C -0.795609 -3 -1.55874 -2.683901 -2.12132 -2.12132 
C -2.683901 -1.55874 -3 -0.795609 -3 0 
C -3 0.795609 -2.683901 1.55874 -2.12132 2.12132 
C -1.55874 2.683901 -0.795609 3 0 3 
z
" id="m98818bcb3f" style="stroke:#000000;"/>
    </defs>
    <g clip-path="url(#pec06bcefb1)">
     <use style="stroke:#000000;" x="29.390357" xlink:href="#m98818bcb3f" y="76.227144"/>
     <use style="stroke:#000000;" x="34.989119" xlink:href="#m98818bcb3f" y="69.185411"/>
     <use style="stroke:#000000;" x="29.123963" xlink:href="#m98818bcb3f" y="75.783879"/>
     <use style="stroke:#000000;" x="30.947839" xlink:href="#m98818bcb3f" y="83.936504"/>
     <use style="stroke:#000000;" x="28.72476" xlink:href="#m98818bcb3f" y="78.521728"/>
     <use style="stroke:#000000;" x="28.905625" xlink:href="#m98818bcb3f" y="84.265183"/>
     <use style="stroke:#000000;" x="28.445491" xlink:href="#m98818bcb3f" y="86.535426"/>
     <use style="stroke:#000000;" x="30.833358" xlink:href="#m98818bcb3f" y="82.956004"/>
     <use style="stroke:#000000;" x="31.613489" xlink:href="#m98818bcb3f" y="77.939489"/>
     <use style="stroke:#000000;" x="31.141283" xlink:href="#m98818bcb3f" y="71.7137"/>
     <use style="stroke:#000000;" x="30.918423" xlink:href="#m98818bcb3f" y="49.295756"/>
     <use style="stroke:#000000;" x="31.547967" xlink:href="#m98818bcb3f" y="81.614091"/>
     <use style="stroke:#000000;" x="29.099753" xlink:href="#m98818bcb3f" y="85.384633"/>
     <use style="stroke:#000000;" x="28.066034" xlink:href="#m98818bcb3f" y="75.743623"/>
     <use style="stroke:#000000;" x="32.372421" xlink:href="#m98818bcb3f" y="72.292627"/>
     <use style="stroke:#000000;" x="27.230812" xlink:href="#m98818bcb3f" y="90.002655"/>
     <use style="stroke:#000000;" x="34.835647" xlink:href="#m98818bcb3f" y="74.69688"/>
     <use style="stroke:#000000;" x="33.965394" xlink:href="#m98818bcb3f" y="56.872423"/>
     <use style="stroke:#000000;" x="27" xlink:href="#m98818bcb3f" y="94.5"/>
     <use style="stroke:#000000;" x="28.566667" xlink:href="#m98818bcb3f" y="79.394029"/>
     <use style="stroke:#000000;" x="27" xlink:href="#m98818bcb3f" y="93.69994"/>
     <use style="stroke:#000000;" x="27.981392" xlink:href="#m98818bcb3f" y="60.265341"/>
     <use style="stroke:#000000;" x="29.97656" xlink:href="#m98818bcb3f" y="86.889775"/>
     <use style="stroke:#000000;" x="27.143325" xlink:href="#m98818bcb3f" y="90.585307"/>
     <use style="stroke:#000000;" x="34.063057" xlink:href="#m98818bcb3f" y="76.250095"/>
     <use style="stroke:#000000;" x="38.813572" xlink:href="#m98818bcb3f" y="33.404305"/>
     <use style="stroke:#000000;" x="31.742021" xlink:href="#m98818bcb3f" y="83.23321"/>
     <use style="stroke:#000000;" x="30.276686" xlink:href="#m98818bcb3f" y="87.12042"/>
     <use style="stroke:#000000;" x="30.299378" xlink:href="#m98818bcb3f" y="72.270277"/>
     <use style="stroke:#000000;" x="36.502268" xlink:href="#m98818bcb3f" y="72.536871"/>
    </g>
   </g>
   <g id="patch_3">
    <path d="M 27 94.5 
L 27 12.96 
" style="fill:none;stroke:#000000;stroke-linecap:square;stroke-linejoin:miter;"/>
   </g>
   <g id="patch_4">
    <path d="M 27 94.5 
L 103.090909 94.5 
" style="fill:none;stroke:#000000;stroke-linecap:square;stroke-linejoin:miter;"/>
   </g>
   <g id="matplotlib.axis_1">
    <g id="xtick_1">
     <g id="line2d_3"/>
     <g id="text_1">
      <text style="font-family:Arial;font-size:8px;font-style:normal;font-weight:normal;text-anchor:middle;" transform="rotate(-0, 27, 103.72625)" x="27" y="103.72625">0</text>
     </g>
    </g>
    <g id="xtick_2">
     <g id="line2d_4"/>
     <g id="text_2">
      <text style="font-family:Arial;font-size:8px;font-style:normal;font-weight:normal;text-anchor:middle;" transform="rotate(-0, 59.886986, 103.72625)" x="59.886986" y="103.72625">10</text>
     </g>
    </g>
    <g id="xtick_3">
     <g id="line2d_5"/>
     <g id="text_3">
      <text style="font-family:Arial;font-size:8px;font-style:normal;font-weight:normal;text-anchor:middle;" transform="rotate(-0, 92.773972, 103.72625)" x="92.773972" y="103.72625">20</text>
     </g>
    </g>
    <g id="text_4">
     <text style="font-family:Arial;font-size:10px;font-style:normal;font-weight:normal;text-anchor:middle;" transform="rotate(-0, 65.045455, 116.474063)" x="65.045455" y="116.474063">Exc</text>
    </g>
   </g>
   <g id="matplotlib.axis_2">
    <g id="ytick_1">
     <g id="line2d_6"/>
     <g id="text_5">
      <text style="font-family:Arial;font-size:8px;font-style:normal;font-weight:normal;text-anchor:end;" transform="rotate(-0, 23.5, 97.363125)" x="23.5" y="97.363125">0</text>
     </g>
    </g>
    <g id="ytick_2">
     <g id="line2d_7"/>
     <g id="text_6">
      <text style="font-family:Arial;font-size:8px;font-style:normal;font-weight:normal;text-anchor:end;" transform="rotate(-0, 23.5, 79.742066)" x="23.5" y="79.742066">5</text>
     </g>
    </g>
    <g id="ytick_3">
     <g id="line2d_8"/>
     <g id="text_7">
      <text style="font-family:Arial;font-size:8px;font-style:normal;font-weight:normal;text-anchor:end;" transform="rotate(-0, 23.5, 62.121006)" x="23.5" y="62.121006">10</text>
     </g>
    </g>
    <g id="ytick_4">
     <g id="line2d_9"/>
     <g id="text_8">
      <text style="font-family:Arial;font-size:8px;font-style:normal;font-weight:normal;text-anchor:end;" transform="rotate(-0, 23.5, 44.499947)" x="23.5" y="44.499947">15</text>
     </g>
    </g>
    <g id="ytick_5">
     <g id="line2d_10"/>
     <g id="text_9">
      <text style="font-family:Arial;font-size:8px;font-style:normal;font-weight:normal;text-anchor:end;" transform="rotate(-0, 23.5, 26.878888)" x="23.5" y="26.878888">20</text>
     </g>
    </g>
    <g id="text_10">
     <text style="font-family:Arial;font-size:10px;font-style:normal;font-weight:normal;text-anchor:middle;" transform="rotate(-90, 8.615, 53.73)" x="8.615" y="53.73">Inh</text>
    </g>
   </g>
   <g id="legend_1">
    <g id="line2d_11">
     <path d="M 36 75.622656 
L 56 75.622656 
" style="fill:none;stroke:#000000;stroke-dasharray:1.85,0.8;stroke-dashoffset:0;stroke-width:0.5;"/>
    </g>
    <g id="line2d_12"/>
    <g id="text_11">
     <!-- $R^2$ 0.42 -->
     <g transform="translate(64 72.875)">
      <text>
       <tspan style="font-family:DejaVu Sans;font-size:10px;font-style:oblique;font-weight:oblique;" x="0" y="-0.9765625">R</tspan>
       <tspan style="font-family:DejaVu Sans;font-size:7px;font-style:book;font-weight:book;" x="7.650794" y="-4.8046875">2</tspan>
       <tspan style="font-family:Arial;font-size:10px;font-style:regular;font-weight:regular;" x="12.377845 15.156165 20.717689 23.496009 29.057533" y="-0.9765625"> 0.42</tspan>
      </text>
     </g>
     <text style="font-family:Arial;font-size:10px;font-style:normal;font-weight:normal;" transform="translate(64 83.4875)"> slope 2.68</text>
    </g>
   </g>
  </g>
  <g id="axes_2">
   <g id="patch_5">
    <path d="M 118.309091 94.5 
L 194.4 94.5 
L 194.4 12.96 
L 118.309091 12.96 
z
" style="fill:#ffffff;"/>
   </g>
   <g id="PathCollection_1">
    <defs>
     <path d="M 0 2.44949 
C 0.649612 2.44949 1.272706 2.191396 1.732051 1.732051 
C 2.191396 1.272706 2.44949 0.649612 2.44949 0 
C 2.44949 -0.649612 2.191396 -1.272706 1.732051 -1.732051 
C 1.272706 -2.191396 0.649612 -2.44949 0 -2.44949 
C -0.649612 -2.44949 -1.272706 -2.191396 -1.732051 -1.732051 
C -2.191396 -1.272706 -2.44949 -0.649612 -2.44949 0 
C -2.44949 0.649612 -2.191396 1.272706 -1.732051 1.732051 
C -1.272706 2.191396 -0.649612 2.44949 0 2.44949 
z
" id="m34cc69822c" style="stroke:#000000;"/>
    </defs>
    <g clip-path="url(#paeac56fd41)">
     <use style="stroke:#000000;" x="131.697044" xlink:href="#m34cc69822c" y="81.769405"/>
     <use style="stroke:#000000;" x="151.467983" xlink:href="#m34cc69822c" y="75.371982"/>
     <use style="stroke:#000000;" x="128.739084" xlink:href="#m34cc69822c" y="77.267225"/>
     <use style="stroke:#000000;" x="125.561789" xlink:href="#m34cc69822c" y="79.671611"/>
     <use style="stroke:#000000;" x="124.451517" xlink:href="#m34cc69822c" y="69.602864"/>
     <use style="stroke:#000000;" x="131.23188" xlink:href="#m34cc69822c" y="90.458157"/>
     <use style="stroke:#000000;" x="124.642347" xlink:href="#m34cc69822c" y="86.804162"/>
     <use style="stroke:#000000;" x="134.385656" xlink:href="#m34cc69822c" y="80.471095"/>
     <use style="stroke:#000000;" x="138.630218" xlink:href="#m34cc69822c" y="85.130728"/>
     <use style="stroke:#000000;" x="157.290394" xlink:href="#m34cc69822c" y="35.070105"/>
     <use style="stroke:#000000;" x="133.770851" xlink:href="#m34cc69822c" y="76.709845"/>
     <use style="stroke:#000000;" x="129.627254" xlink:href="#m34cc69822c" y="76.525677"/>
     <use style="stroke:#000000;" x="130.056978" xlink:href="#m34cc69822c" y="87.477522"/>
     <use style="stroke:#000000;" x="124.309253" xlink:href="#m34cc69822c" y="85.88255"/>
     <use style="stroke:#000000;" x="156.882559" xlink:href="#m34cc69822c" y="59.110916"/>
     <use style="stroke:#000000;" x="120.92924" xlink:href="#m34cc69822c" y="83.388931"/>
     <use style="stroke:#000000;" x="138.903626" xlink:href="#m34cc69822c" y="57.039406"/>
     <use style="stroke:#000000;" x="148.216189" xlink:href="#m34cc69822c" y="58.348747"/>
     <use style="stroke:#000000;" x="118.309091" xlink:href="#m34cc69822c" y="94.5"/>
     <use style="stroke:#000000;" x="127.10914" xlink:href="#m34cc69822c" y="74.748633"/>
     <use style="stroke:#000000;" x="118.309091" xlink:href="#m34cc69822c" y="94.5"/>
     <use style="stroke:#000000;" x="125.796386" xlink:href="#m34cc69822c" y="54.364853"/>
     <use style="stroke:#000000;" x="125.038142" xlink:href="#m34cc69822c" y="88.845891"/>
     <use style="stroke:#000000;" x="119.936097" xlink:href="#m34cc69822c" y="91.731697"/>
     <use style="stroke:#000000;" x="147.250767" xlink:href="#m34cc69822c" y="53.435333"/>
     <use style="stroke:#000000;" x="190.519624" xlink:href="#m34cc69822c" y="17.747915"/>
     <use style="stroke:#000000;" x="131.907745" xlink:href="#m34cc69822c" y="76.985198"/>
     <use style="stroke:#000000;" x="126.400172" xlink:href="#m34cc69822c" y="87.291703"/>
     <use style="stroke:#000000;" x="132.730805" xlink:href="#m34cc69822c" y="80.494398"/>
     <use style="stroke:#000000;" x="140.140706" xlink:href="#m34cc69822c" y="88.200363"/>
    </g>
   </g>
   <g id="line2d_13">
    <path clip-path="url(#paeac56fd41)" d="M 118.309091 90.60991 
L 119.077686 89.866068 
L 119.846281 89.122225 
L 120.614876 88.378383 
L 121.383471 87.634541 
L 122.152066 86.890698 
L 122.920661 86.146856 
L 123.689256 85.403014 
L 124.457851 84.659172 
L 125.226446 83.915329 
L 125.995041 83.171487 
L 126.763636 82.427645 
L 127.532231 81.683802 
L 128.300826 80.93996 
L 129.069421 80.196118 
L 129.838017 79.452276 
L 130.606612 78.708433 
L 131.375207 77.964591 
L 132.143802 77.220749 
L 132.912397 76.476906 
L 133.680992 75.733064 
L 134.449587 74.989222 
L 135.218182 74.245379 
L 135.986777 73.501537 
L 136.755372 72.757695 
L 137.523967 72.013853 
L 138.292562 71.27001 
L 139.061157 70.526168 
L 139.829752 69.782326 
L 140.598347 69.038483 
L 141.366942 68.294641 
L 142.135537 67.550799 
L 142.904132 66.806957 
L 143.672727 66.063114 
L 144.441322 65.319272 
L 145.209917 64.57543 
L 145.978512 63.831587 
L 146.747107 63.087745 
L 147.515702 62.343903 
L 148.284298 61.600061 
L 149.052893 60.856218 
L 149.821488 60.112376 
L 150.590083 59.368534 
L 151.358678 58.624691 
L 152.127273 57.880849 
L 152.895868 57.137007 
L 153.664463 56.393164 
L 154.433058 55.649322 
L 155.201653 54.90548 
L 155.970248 54.161638 
L 156.738843 53.417795 
L 157.507438 52.673953 
L 158.276033 51.930111 
L 159.044628 51.186268 
L 159.813223 50.442426 
L 160.581818 49.698584 
L 161.350413 48.954742 
L 162.119008 48.210899 
L 162.887603 47.467057 
L 163.656198 46.723215 
L 164.424793 45.979372 
L 165.193388 45.23553 
L 165.961983 44.491688 
L 166.730579 43.747846 
L 167.499174 43.004003 
L 168.267769 42.260161 
L 169.036364 41.516319 
L 169.804959 40.772476 
L 170.573554 40.028634 
L 171.342149 39.284792 
L 172.110744 38.540949 
L 172.879339 37.797107 
L 173.647934 37.053265 
L 174.416529 36.309423 
L 175.185124 35.56558 
L 175.953719 34.821738 
L 176.722314 34.077896 
L 177.490909 33.334053 
L 178.259504 32.590211 
L 179.028099 31.846369 
L 179.796694 31.102527 
L 180.565289 30.358684 
L 181.333884 29.614842 
L 182.102479 28.871 
L 182.871074 28.127157 
L 183.639669 27.383315 
L 184.408264 26.639473 
L 185.17686 25.895631 
L 185.945455 25.151788 
L 186.71405 24.407946 
L 187.482645 23.664104 
L 188.25124 22.920261 
L 189.019835 22.176419 
L 189.78843 21.432577 
L 190.557025 20.688735 
L 191.32562 19.944892 
L 192.094215 19.20105 
L 192.86281 18.457208 
L 193.631405 17.713365 
L 194.4 16.969523 
" style="fill:none;stroke:#000000;stroke-dasharray:1.85,0.8;stroke-dashoffset:0;stroke-width:0.5;"/>
   </g>
   <g id="patch_6">
    <path d="M 118.309091 94.5 
L 118.309091 12.96 
" style="fill:none;stroke:#000000;stroke-linecap:square;stroke-linejoin:miter;"/>
   </g>
   <g id="patch_7">
    <path d="M 118.309091 94.5 
L 194.4 94.5 
" style="fill:none;stroke:#000000;stroke-linecap:square;stroke-linejoin:miter;"/>
   </g>
   <g id="matplotlib.axis_3">
    <g id="xtick_4">
     <g id="line2d_14"/>
     <g id="text_12">
      <text style="font-family:Arial;font-size:8px;font-style:normal;font-weight:normal;text-anchor:middle;" transform="rotate(-0, 118.309091, 103.72625)" x="118.309091" y="103.72625">0</text>
     </g>
    </g>
    <g id="xtick_5">
     <g id="line2d_15"/>
     <g id="text_13">
      <text style="font-family:Arial;font-size:8px;font-style:normal;font-weight:normal;text-anchor:middle;" transform="rotate(-0, 148.791266, 103.72625)" x="148.791266" y="103.72625">2</text>
     </g>
    </g>
    <g id="xtick_6">
     <g id="line2d_16"/>
     <g id="text_14">
      <text style="font-family:Arial;font-size:8px;font-style:normal;font-weight:normal;text-anchor:middle;" transform="rotate(-0, 179.27344, 103.72625)" x="179.27344" y="103.72625">4</text>
     </g>
    </g>
    <g id="text_15">
     <!-- $\sigma$(Exc) -->
     <g transform="translate(141.504545 116.61625)">
      <text>
       <tspan style="font-family:DejaVu Sans;font-size:10px;font-style:oblique;font-weight:oblique;" x="0" y="-0.71875">σ</tspan>
       <tspan style="font-family:Arial;font-size:10px;font-style:regular;font-weight:regular;" x="6.337891 9.667969 16.337891 21.337891 26.337891" y="-0.71875">(Exc)</tspan>
      </text>
     </g>
    </g>
   </g>
   <g id="matplotlib.axis_4">
    <g id="ytick_6">
     <g id="line2d_17"/>
     <g id="text_16">
      <text style="font-family:Arial;font-size:8px;font-style:normal;font-weight:normal;text-anchor:end;" transform="rotate(-0, 114.809091, 97.363125)" x="114.809091" y="97.363125">0</text>
     </g>
    </g>
    <g id="ytick_7">
     <g id="line2d_18"/>
     <g id="text_17">
      <text style="font-family:Arial;font-size:8px;font-style:normal;font-weight:normal;text-anchor:end;" transform="rotate(-0, 114.809091, 81.030579)" x="114.809091" y="81.030579">1</text>
     </g>
    </g>
    <g id="ytick_8">
     <g id="line2d_19"/>
     <g id="text_18">
      <text style="font-family:Arial;font-size:8px;font-style:normal;font-weight:normal;text-anchor:end;" transform="rotate(-0, 114.809091, 64.698033)" x="114.809091" y="64.698033">2</text>
     </g>
    </g>
    <g id="ytick_9">
     <g id="line2d_20"/>
     <g id="text_19">
      <text style="font-family:Arial;font-size:8px;font-style:normal;font-weight:normal;text-anchor:end;" transform="rotate(-0, 114.809091, 48.365487)" x="114.809091" y="48.365487">3</text>
     </g>
    </g>
    <g id="ytick_10">
     <g id="line2d_21"/>
     <g id="text_20">
      <text style="font-family:Arial;font-size:8px;font-style:normal;font-weight:normal;text-anchor:end;" transform="rotate(-0, 114.809091, 32.032941)" x="114.809091" y="32.032941">4</text>
     </g>
    </g>
    <g id="ytick_11">
     <g id="line2d_22"/>
     <g id="text_21">
      <text style="font-family:Arial;font-size:8px;font-style:normal;font-weight:normal;text-anchor:end;" transform="rotate(-0, 114.809091, 15.700395)" x="114.809091" y="15.700395">5</text>
     </g>
    </g>
    <g id="text_22">
     <!-- $\sigma$(Inh) -->
     <g transform="translate(104.160341 67.18)rotate(-90)">
      <text>
       <tspan style="font-family:DejaVu Sans;font-size:10px;font-style:oblique;font-weight:oblique;" x="0" y="-0.71875">σ</tspan>
       <tspan style="font-family:Arial;font-size:10px;font-style:regular;font-weight:regular;" x="6.337891 9.667969 12.446289 18.007812 23.569336" y="-0.71875">(Inh)</tspan>
      </text>
     </g>
    </g>
   </g>
   <g id="legend_2">
    <g id="line2d_23">
     <path d="M 108.478125 31.995156 
L 128.478125 31.995156 
" style="fill:none;stroke:#000000;stroke-dasharray:1.85,0.8;stroke-dashoffset:0;stroke-width:0.5;"/>
    </g>
    <g id="line2d_24"/>
    <g id="text_23">
     <!-- $R^2$ 0.67 -->
     <g transform="translate(136.478125 29.2475)">
      <text>
       <tspan style="font-family:DejaVu Sans;font-size:10px;font-style:oblique;font-weight:oblique;" x="0" y="-0.9765625">R</tspan>
       <tspan style="font-family:DejaVu Sans;font-size:7px;font-style:book;font-weight:book;" x="7.650794" y="-4.8046875">2</tspan>
       <tspan style="font-family:Arial;font-size:10px;font-style:regular;font-weight:regular;" x="12.377845 15.156165 20.717689 23.496009 29.057533" y="-0.9765625"> 0.67</tspan>
      </text>
     </g>
     <text style="font-family:Arial;font-size:10px;font-style:normal;font-weight:normal;" transform="translate(136.478125 39.86)"> slope 0.90</text>
    </g>
   </g>
  </g>
 </g>
 <defs>
  <clipPath id="pec06bcefb1">
   <rect height="81.54" width="76.090909" x="27" y="12.96"/>
  </clipPath>
  <clipPath id="paeac56fd41">
   <rect height="81.54" width="76.090909" x="118.309091" y="12.96"/>
  </clipPath>
 </defs>
</svg>
