<?xml version="1.0" encoding="utf-8" standalone="no"?>
<!DOCTYPE svg PUBLIC "-//W3C//DTD SVG 1.1//EN"
  "http://www.w3.org/Graphics/SVG/1.1/DTD/svg11.dtd">
<!-- Created with matplotlib (http://matplotlib.org/) -->
<svg height="108pt" version="1.1" viewBox="0 0 216 108" width="216pt" xmlns="http://www.w3.org/2000/svg" xmlns:xlink="http://www.w3.org/1999/xlink">
 <defs>
  <style type="text/css">
*{stroke-linecap:butt;stroke-linejoin:round;}
  </style>
 </defs>
 <g id="figure_1">
  <g id="patch_1">
   <path d="M 0 108 
L 216 108 
L 216 0 
L 0 0 
z
" style="fill:#ffffff;"/>
  </g>
  <g id="axes_1">
   <g id="patch_2">
    <path d="M 27 94.5 
L 103.090909 94.5 
L 103.090909 12.96 
L 27 12.96 
z
" style="fill:#ffffff;"/>
   </g>
   <g id="LineCollection_1">
    <path clip-path="url(#p193f939410)" d="M 24.369142 49.884446 
L 42.847412 49.884446 
" style="fill:none;stroke:#000000;stroke-width:0.5;"/>
    <path clip-path="url(#p193f939410)" d="M 32.701905 58.317641 
L 47.230292 58.317641 
" style="fill:none;stroke:#000000;stroke-width:0.5;"/>
    <path clip-path="url(#p193f939410)" d="M 26.358129 79.809849 
L 41.091916 79.809849 
" style="fill:none;stroke:#000000;stroke-width:0.5;"/>
    <path clip-path="url(#p193f939410)" d="M 28.412371 62.168991 
L 43.485876 62.168991 
" style="fill:none;stroke:#000000;stroke-width:0.5;"/>
    <path clip-path="url(#p193f939410)" d="M 25.697638 25.722226 
L 50.901697 25.722226 
" style="fill:none;stroke:#000000;stroke-width:0.5;"/>
    <path clip-path="url(#p193f939410)" d="M 26.69496 59.582563 
L 43.298141 59.582563 
" style="fill:none;stroke:#000000;stroke-width:0.5;"/>
    <path clip-path="url(#p193f939410)" d="M 29.990731 57.510204 
L 43.952952 57.510204 
" style="fill:none;stroke:#000000;stroke-width:0.5;"/>
    <path clip-path="url(#p193f939410)" d="M 26.47609 51.745419 
L 38.502165 51.745419 
" style="fill:none;stroke:#000000;stroke-width:0.5;"/>
    <path clip-path="url(#p193f939410)" d="M 23.719249 34.018862 
L 48.77301 34.018862 
" style="fill:none;stroke:#000000;stroke-width:0.5;"/>
    <path clip-path="url(#p193f939410)" d="M 29.667808 75.691104 
L 38.784609 75.691104 
" style="fill:none;stroke:#000000;stroke-width:0.5;"/>
    <path clip-path="url(#p193f939410)" d="M 29.57762 58.247846 
L 43.693619 58.247846 
" style="fill:none;stroke:#000000;stroke-width:0.5;"/>
    <path clip-path="url(#p193f939410)" d="M 36.711013 42.383718 
L 50.6922 42.383718 
" style="fill:none;stroke:#000000;stroke-width:0.5;"/>
    <path clip-path="url(#p193f939410)" d="M 20.405796 55.039026 
L 55.581195 55.039026 
" style="fill:none;stroke:#000000;stroke-width:0.5;"/>
    <path clip-path="url(#p193f939410)" d="M 25.560071 33.628786 
L 55.910513 33.628786 
" style="fill:none;stroke:#000000;stroke-width:0.5;"/>
    <path clip-path="url(#p193f939410)" d="M 24.408744 61.494901 
L 39.018615 61.494901 
" style="fill:none;stroke:#000000;stroke-width:0.5;"/>
    <path clip-path="url(#p193f939410)" d="M 29.240562 64.468205 
L 37.155002 64.468205 
" style="fill:none;stroke:#000000;stroke-width:0.5;"/>
    <path clip-path="url(#p193f939410)" d="M 24.51249 53.714351 
L 47.668373 53.714351 
" style="fill:none;stroke:#000000;stroke-width:0.5;"/>
    <path clip-path="url(#p193f939410)" d="M 25.013103 72.884049 
L 38.994066 72.884049 
" style="fill:none;stroke:#000000;stroke-width:0.5;"/>
    <path clip-path="url(#p193f939410)" d="M 31.210771 63.268464 
L 46.159543 63.268464 
" style="fill:none;stroke:#000000;stroke-width:0.5;"/>
    <path clip-path="url(#p193f939410)" d="M 25.800105 56.264577 
L 44.184641 56.264577 
" style="fill:none;stroke:#000000;stroke-width:0.5;"/>
    <path clip-path="url(#p193f939410)" d="M 28.148862 69.776745 
L 44.511783 69.776745 
" style="fill:none;stroke:#000000;stroke-width:0.5;"/>
    <path clip-path="url(#p193f939410)" d="M 28.520888 62.395279 
L 38.161885 62.395279 
" style="fill:none;stroke:#000000;stroke-width:0.5;"/>
    <path clip-path="url(#p193f939410)" d="M 24.785409 68.33277 
L 48.108214 68.33277 
" style="fill:none;stroke:#000000;stroke-width:0.5;"/>
    <path clip-path="url(#p193f939410)" d="M 26.585834 70.095788 
L 34.741169 70.095788 
" style="fill:none;stroke:#000000;stroke-width:0.5;"/>
    <path clip-path="url(#p193f939410)" d="M 28.183837 82.862369 
L 36.320331 82.862369 
" style="fill:none;stroke:#000000;stroke-width:0.5;"/>
    <path clip-path="url(#p193f939410)" d="M 27 83.785436 
L 27 83.785436 
" style="fill:none;stroke:#000000;stroke-width:0.5;"/>
    <path clip-path="url(#p193f939410)" d="M 27.560448 55.96885 
L 42.647785 55.96885 
" style="fill:none;stroke:#000000;stroke-width:0.5;"/>
    <path clip-path="url(#p193f939410)" d="M 25.957112 66.887049 
L 42.843633 66.887049 
" style="fill:none;stroke:#000000;stroke-width:0.5;"/>
    <path clip-path="url(#p193f939410)" d="M 27.255518 77.106 
L 35.991331 77.106 
" style="fill:none;stroke:#000000;stroke-width:0.5;"/>
    <path clip-path="url(#p193f939410)" d="M 31.085467 27.211904 
L 44.915376 27.211904 
" style="fill:none;stroke:#000000;stroke-width:0.5;"/>
   </g>
   <g id="LineCollection_2">
    <path clip-path="url(#p193f939410)" d="M 33.608277 62.85448 
L 33.608277 36.914412 
" style="fill:none;stroke:#000000;stroke-width:0.5;"/>
    <path clip-path="url(#p193f939410)" d="M 39.966099 69.030728 
L 39.966099 47.604553 
" style="fill:none;stroke:#000000;stroke-width:0.5;"/>
    <path clip-path="url(#p193f939410)" d="M 33.725023 79.809849 
L 33.725023 79.809849 
" style="fill:none;stroke:#000000;stroke-width:0.5;"/>
    <path clip-path="url(#p193f939410)" d="M 35.949123 72.972151 
L 35.949123 51.36583 
" style="fill:none;stroke:#000000;stroke-width:0.5;"/>
    <path clip-path="url(#p193f939410)" d="M 38.299668 33.071501 
L 38.299668 18.372952 
" style="fill:none;stroke:#000000;stroke-width:0.5;"/>
    <path clip-path="url(#p193f939410)" d="M 34.99655 70.489433 
L 34.99655 48.675693 
" style="fill:none;stroke:#000000;stroke-width:0.5;"/>
    <path clip-path="url(#p193f939410)" d="M 36.971841 66.054161 
L 36.971841 48.966248 
" style="fill:none;stroke:#000000;stroke-width:0.5;"/>
    <path clip-path="url(#p193f939410)" d="M 32.489127 54.521721 
L 32.489127 48.969117 
" style="fill:none;stroke:#000000;stroke-width:0.5;"/>
    <path clip-path="url(#p193f939410)" d="M 36.24613 51.455129 
L 36.24613 16.582594 
" style="fill:none;stroke:#000000;stroke-width:0.5;"/>
    <path clip-path="url(#p193f939410)" d="M 34.226209 79.818456 
L 34.226209 71.563752 
" style="fill:none;stroke:#000000;stroke-width:0.5;"/>
    <path clip-path="url(#p193f939410)" d="M 36.635619 60.825816 
L 36.635619 55.669876 
" style="fill:none;stroke:#000000;stroke-width:0.5;"/>
    <path clip-path="url(#p193f939410)" d="M 43.701607 49.989521 
L 43.701607 34.777915 
" style="fill:none;stroke:#000000;stroke-width:0.5;"/>
    <path clip-path="url(#p193f939410)" d="M 37.993495 68.116923 
L 37.993495 41.961129 
" style="fill:none;stroke:#000000;stroke-width:0.5;"/>
    <path clip-path="url(#p193f939410)" d="M 40.735292 43.96342 
L 40.735292 23.294152 
" style="fill:none;stroke:#000000;stroke-width:0.5;"/>
    <path clip-path="url(#p193f939410)" d="M 31.713679 68.787493 
L 31.713679 54.202309 
" style="fill:none;stroke:#000000;stroke-width:0.5;"/>
    <path clip-path="url(#p193f939410)" d="M 33.197782 77.165805 
L 33.197782 51.770604 
" style="fill:none;stroke:#000000;stroke-width:0.5;"/>
    <path clip-path="url(#p193f939410)" d="M 36.090431 61.1539 
L 36.090431 46.274802 
" style="fill:none;stroke:#000000;stroke-width:0.5;"/>
    <path clip-path="url(#p193f939410)" d="M 32.003585 79.751532 
L 32.003585 66.016566 
" style="fill:none;stroke:#000000;stroke-width:0.5;"/>
    <path clip-path="url(#p193f939410)" d="M 38.685157 70.331967 
L 38.685157 56.20496 
" style="fill:none;stroke:#000000;stroke-width:0.5;"/>
    <path clip-path="url(#p193f939410)" d="M 34.992373 68.809829 
L 34.992373 43.719325 
" style="fill:none;stroke:#000000;stroke-width:0.5;"/>
    <path clip-path="url(#p193f939410)" d="M 36.330323 74.784042 
L 36.330323 64.769448 
" style="fill:none;stroke:#000000;stroke-width:0.5;"/>
    <path clip-path="url(#p193f939410)" d="M 33.341387 66.794771 
L 33.341387 57.995788 
" style="fill:none;stroke:#000000;stroke-width:0.5;"/>
    <path clip-path="url(#p193f939410)" d="M 36.446811 73.37839 
L 36.446811 63.287149 
" style="fill:none;stroke:#000000;stroke-width:0.5;"/>
    <path clip-path="url(#p193f939410)" d="M 30.663501 74.242095 
L 30.663501 65.94948 
" style="fill:none;stroke:#000000;stroke-width:0.5;"/>
    <path clip-path="url(#p193f939410)" d="M 32.252084 87.115846 
L 32.252084 78.608892 
" style="fill:none;stroke:#000000;stroke-width:0.5;"/>
    <path clip-path="url(#p193f939410)" d="M 27 89.034479 
L 27 78.536393 
" style="fill:none;stroke:#000000;stroke-width:0.5;"/>
    <path clip-path="url(#p193f939410)" d="M 35.104117 62.207981 
L 35.104117 49.729718 
" style="fill:none;stroke:#000000;stroke-width:0.5;"/>
    <path clip-path="url(#p193f939410)" d="M 34.400372 73.898138 
L 34.400372 59.87596 
" style="fill:none;stroke:#000000;stroke-width:0.5;"/>
    <path clip-path="url(#p193f939410)" d="M 31.623425 81.585702 
L 31.623425 72.626298 
" style="fill:none;stroke:#000000;stroke-width:0.5;"/>
    <path clip-path="url(#p193f939410)" d="M 38.000421 32.140718 
L 38.000421 22.283091 
" style="fill:none;stroke:#000000;stroke-width:0.5;"/>
   </g>
   <g id="line2d_1">
    <path clip-path="url(#p193f939410)" d="M 27 83.589281 
L 27.768595 81.329345 
L 28.53719 79.069409 
L 29.305785 76.809473 
L 30.07438 74.549536 
L 30.842975 72.2896 
L 31.61157 70.029664 
L 32.380165 67.769728 
L 33.14876 65.509792 
L 33.917355 63.249856 
L 34.68595 60.989919 
L 35.454545 58.729983 
L 36.22314 56.470047 
L 36.991736 54.210111 
L 37.760331 51.950175 
L 38.528926 49.690239 
L 39.297521 47.430302 
L 40.066116 45.170366 
L 40.834711 42.91043 
L 41.603306 40.650494 
L 42.371901 38.390558 
L 43.140496 36.130622 
L 43.909091 33.870685 
L 44.677686 31.610749 
L 45.446281 29.350813 
L 46.214876 27.090877 
L 46.983471 24.830941 
L 47.752066 22.571004 
L 48.520661 20.311068 
L 49.289256 18.051132 
L 50.057851 15.791196 
L 50.826446 13.53126 
L 51.595041 11.271324 
L 52.363636 9.011387 
L 53.132231 6.751451 
L 53.900826 4.491515 
L 54.669421 2.231579 
L 55.438017 -0.028357 
L 55.768468 -1 
" style="fill:none;stroke:#000000;stroke-dasharray:1.85,0.8;stroke-dashoffset:0;stroke-width:0.5;"/>
   </g>
   <g id="line2d_2">
    <defs>
     <path d="M 0 3 
C 0.795609 3 1.55874 2.683901 2.12132 2.12132 
C 2.683901 1.55874 3 0.795609 3 0 
C 3 -0.795609 2.683901 -1.55874 2.12132 -2.12132 
C 1.55874 -2.683901 0.795609 -3 0 -3 
C -0.795609 -3 -1.55874 -2.683901 -2.12132 -2.12132 
C -2.683901 -1.55874 -3 -0.795609 -3 0 
C -3 0.795609 -2.683901 1.55874 -2.12132 2.12132 
C -1.55874 2.683901 -0.795609 3 0 3 
z
" id="mae2597247b" style="stroke:#000000;"/>
    </defs>
    <g clip-path="url(#p193f939410)">
     <use style="stroke:#000000;" x="33.608277" xlink:href="#mae2597247b" y="49.884446"/>
     <use style="stroke:#000000;" x="39.966099" xlink:href="#mae2597247b" y="58.317641"/>
     <use style="stroke:#000000;" x="33.725023" xlink:href="#mae2597247b" y="79.809849"/>
     <use style="stroke:#000000;" x="35.949123" xlink:href="#mae2597247b" y="62.168991"/>
     <use style="stroke:#000000;" x="38.299668" xlink:href="#mae2597247b" y="25.722226"/>
     <use style="stroke:#000000;" x="34.99655" xlink:href="#mae2597247b" y="59.582563"/>
     <use style="stroke:#000000;" x="36.971841" xlink:href="#mae2597247b" y="57.510204"/>
     <use style="stroke:#000000;" x="32.489127" xlink:href="#mae2597247b" y="51.745419"/>
     <use style="stroke:#000000;" x="36.24613" xlink:href="#mae2597247b" y="34.018862"/>
     <use style="stroke:#000000;" x="34.226209" xlink:href="#mae2597247b" y="75.691104"/>
     <use style="stroke:#000000;" x="36.635619" xlink:href="#mae2597247b" y="58.247846"/>
     <use style="stroke:#000000;" x="43.701607" xlink:href="#mae2597247b" y="42.383718"/>
     <use style="stroke:#000000;" x="37.993495" xlink:href="#mae2597247b" y="55.039026"/>
     <use style="stroke:#000000;" x="40.735292" xlink:href="#mae2597247b" y="33.628786"/>
     <use style="stroke:#000000;" x="31.713679" xlink:href="#mae2597247b" y="61.494901"/>
     <use style="stroke:#000000;" x="33.197782" xlink:href="#mae2597247b" y="64.468205"/>
     <use style="stroke:#000000;" x="36.090431" xlink:href="#mae2597247b" y="53.714351"/>
     <use style="stroke:#000000;" x="32.003585" xlink:href="#mae2597247b" y="72.884049"/>
     <use style="stroke:#000000;" x="38.685157" xlink:href="#mae2597247b" y="63.268464"/>
     <use style="stroke:#000000;" x="34.992373" xlink:href="#mae2597247b" y="56.264577"/>
     <use style="stroke:#000000;" x="36.330323" xlink:href="#mae2597247b" y="69.776745"/>
     <use style="stroke:#000000;" x="33.341387" xlink:href="#mae2597247b" y="62.395279"/>
     <use style="stroke:#000000;" x="36.446811" xlink:href="#mae2597247b" y="68.33277"/>
     <use style="stroke:#000000;" x="30.663501" xlink:href="#mae2597247b" y="70.095788"/>
     <use style="stroke:#000000;" x="32.252084" xlink:href="#mae2597247b" y="82.862369"/>
     <use style="stroke:#000000;" x="27" xlink:href="#mae2597247b" y="83.785436"/>
     <use style="stroke:#000000;" x="35.104117" xlink:href="#mae2597247b" y="55.96885"/>
     <use style="stroke:#000000;" x="34.400372" xlink:href="#mae2597247b" y="66.887049"/>
     <use style="stroke:#000000;" x="31.623425" xlink:href="#mae2597247b" y="77.106"/>
     <use style="stroke:#000000;" x="38.000421" xlink:href="#mae2597247b" y="27.211904"/>
    </g>
   </g>
   <g id="patch_3">
    <path d="M 27 94.5 
L 27 12.96 
" style="fill:none;stroke:#000000;stroke-linecap:square;stroke-linejoin:miter;"/>
   </g>
   <g id="patch_4">
    <path d="M 27 94.5 
L 103.090909 94.5 
" style="fill:none;stroke:#000000;stroke-linecap:square;stroke-linejoin:miter;"/>
   </g>
   <g id="matplotlib.axis_1">
    <g id="xtick_1">
     <g id="line2d_3"/>
     <g id="text_1">
      <text style="font-family:Arial;font-size:8px;font-style:normal;font-weight:normal;text-anchor:middle;" transform="rotate(-0, 27, 103.72625)" x="27" y="103.72625">0.0</text>
     </g>
    </g>
    <g id="xtick_2">
     <g id="line2d_4"/>
     <g id="text_2">
      <text style="font-family:Arial;font-size:8px;font-style:normal;font-weight:normal;text-anchor:middle;" transform="rotate(-0, 55.233637, 103.72625)" x="55.233637" y="103.72625">2.5</text>
     </g>
    </g>
    <g id="xtick_3">
     <g id="line2d_5"/>
     <g id="text_3">
      <text style="font-family:Arial;font-size:8px;font-style:normal;font-weight:normal;text-anchor:middle;" transform="rotate(-0, 83.467275, 103.72625)" x="83.467275" y="103.72625">5.0</text>
     </g>
    </g>
    <g id="text_4">
     <text style="font-family:Arial;font-size:10px;font-style:normal;font-weight:normal;text-anchor:middle;" transform="rotate(-0, 65.045455, 116.474063)" x="65.045455" y="116.474063">Exc</text>
    </g>
   </g>
   <g id="matplotlib.axis_2">
    <g id="ytick_1">
     <g id="line2d_6"/>
     <g id="text_5">
      <text style="font-family:Arial;font-size:8px;font-style:normal;font-weight:normal;text-anchor:end;" transform="rotate(-0, 23.5, 97.363125)" x="23.5" y="97.363125">0</text>
     </g>
    </g>
    <g id="ytick_2">
     <g id="line2d_7"/>
     <g id="text_6">
      <text style="font-family:Arial;font-size:8px;font-style:normal;font-weight:normal;text-anchor:end;" transform="rotate(-0, 23.5, 73.158701)" x="23.5" y="73.158701">2</text>
     </g>
    </g>
    <g id="ytick_3">
     <g id="line2d_8"/>
     <g id="text_7">
      <text style="font-family:Arial;font-size:8px;font-style:normal;font-weight:normal;text-anchor:end;" transform="rotate(-0, 23.5, 48.954277)" x="23.5" y="48.954277">4</text>
     </g>
    </g>
    <g id="ytick_4">
     <g id="line2d_9"/>
     <g id="text_8">
      <text style="font-family:Arial;font-size:8px;font-style:normal;font-weight:normal;text-anchor:end;" transform="rotate(-0, 23.5, 24.749853)" x="23.5" y="24.749853">6</text>
     </g>
    </g>
    <g id="text_9">
     <text style="font-family:Arial;font-size:10px;font-style:normal;font-weight:normal;text-anchor:middle;" transform="rotate(-90, 13.06375, 53.73)" x="13.06375" y="53.73">Inh</text>
    </g>
   </g>
   <g id="legend_1">
    <g id="line2d_10">
     <path d="M 36 75.622656 
L 56 75.622656 
" style="fill:none;stroke:#000000;stroke-dasharray:1.85,0.8;stroke-dashoffset:0;stroke-width:0.5;"/>
    </g>
    <g id="line2d_11"/>
    <g id="text_10">
     <!-- $R^2$ 0.42 -->
     <g transform="translate(64 72.875)">
      <text>
       <tspan style="font-family:DejaVu Sans;font-size:10px;font-style:oblique;font-weight:oblique;" x="0" y="-0.9765625">R</tspan>
       <tspan style="font-family:DejaVu Sans;font-size:7px;font-style:book;font-weight:book;" x="7.650794" y="-4.8046875">2</tspan>
       <tspan style="font-family:Arial;font-size:10px;font-style:regular;font-weight:regular;" x="12.377845 15.156165 20.717689 23.496009 29.057533" y="-0.9765625"> 0.42</tspan>
      </text>
     </g>
     <text style="font-family:Arial;font-size:10px;font-style:normal;font-weight:normal;" transform="translate(64 83.4875)"> slope 2.74</text>
    </g>
   </g>
  </g>
  <g id="axes_2">
   <g id="patch_5">
    <path d="M 118.309091 94.5 
L 194.4 94.5 
L 194.4 12.96 
L 118.309091 12.96 
z
" style="fill:#ffffff;"/>
   </g>
   <g id="PathCollection_1">
    <defs>
     <path d="M 0 2.44949 
C 0.649612 2.44949 1.272706 2.191396 1.732051 1.732051 
C 2.191396 1.272706 2.44949 0.649612 2.44949 0 
C 2.44949 -0.649612 2.191396 -1.272706 1.732051 -1.732051 
C 1.272706 -2.191396 0.649612 -2.44949 0 -2.44949 
C -0.649612 -2.44949 -1.272706 -2.191396 -1.732051 -1.732051 
C -2.191396 -1.272706 -2.44949 -0.649612 -2.44949 0 
C -2.44949 0.649612 -2.191396 1.272706 -1.732051 1.732051 
C -1.272706 2.191396 -0.649612 2.44949 0 2.44949 
z
" id="mdf9358c19d" style="stroke:#000000;"/>
    </defs>
    <g clip-path="url(#pd480f44fb6)">
     <use style="stroke:#000000;" x="155.969814" xlink:href="#mdf9358c19d" y="41.631324"/>
     <use style="stroke:#000000;" x="147.919522" xlink:href="#mdf9358c19d" y="50.831127"/>
     <use style="stroke:#000000;" x="148.338148" xlink:href="#mdf9358c19d" y="94.5"/>
     <use style="stroke:#000000;" x="149.030533" xlink:href="#mdf9358c19d" y="50.463971"/>
     <use style="stroke:#000000;" x="169.677701" xlink:href="#mdf9358c19d" y="64.542759"/>
     <use style="stroke:#000000;" x="152.148178" xlink:href="#mdf9358c19d" y="50.041227"/>
     <use style="stroke:#000000;" x="146.765614" xlink:href="#mdf9358c19d" y="59.672976"/>
     <use style="stroke:#000000;" x="142.819539" xlink:href="#mdf9358c19d" y="83.183191"/>
     <use style="stroke:#000000;" x="169.371377" xlink:href="#mdf9358c19d" y="23.425984"/>
     <use style="stroke:#000000;" x="136.890122" xlink:href="#mdf9358c19d" y="77.676016"/>
     <use style="stroke:#000000;" x="147.07903" xlink:href="#mdf9358c19d" y="83.991634"/>
     <use style="stroke:#000000;" x="146.804269" xlink:href="#mdf9358c19d" y="63.497095"/>
     <use style="stroke:#000000;" x="190.000376" xlink:href="#mdf9358c19d" y="41.191648"/>
     <use style="stroke:#000000;" x="180.16659" xlink:href="#mdf9358c19d" y="52.373784"/>
     <use style="stroke:#000000;" x="148.085594" xlink:href="#mdf9358c19d" y="64.773811"/>
     <use style="stroke:#000000;" x="134.43958" xlink:href="#mdf9358c19d" y="42.741821"/>
     <use style="stroke:#000000;" x="165.503297" xlink:href="#mdf9358c19d" y="64.174781"/>
     <use style="stroke:#000000;" x="146.803813" xlink:href="#mdf9358c19d" y="66.506646"/>
     <use style="stroke:#000000;" x="148.776311" xlink:href="#mdf9358c19d" y="65.707624"/>
     <use style="stroke:#000000;" x="155.778772" xlink:href="#mdf9358c19d" y="43.362826"/>
     <use style="stroke:#000000;" x="151.658502" xlink:href="#mdf9358c19d" y="74.089168"/>
     <use style="stroke:#000000;" x="137.958491" xlink:href="#mdf9358c19d" y="76.566716"/>
     <use style="stroke:#000000;" x="165.843501" xlink:href="#mdf9358c19d" y="73.932954"/>
     <use style="stroke:#000000;" x="134.93055" xlink:href="#mdf9358c19d" y="77.598749"/>
     <use style="stroke:#000000;" x="134.892149" xlink:href="#mdf9358c19d" y="77.161903"/>
     <use style="stroke:#000000;" x="118.309091" xlink:href="#mdf9358c19d" y="73.103761"/>
     <use style="stroke:#000000;" x="149.058725" xlink:href="#mdf9358c19d" y="69.067944"/>
     <use style="stroke:#000000;" x="152.725654" xlink:href="#mdf9358c19d" y="65.921278"/>
     <use style="stroke:#000000;" x="136.113627" xlink:href="#mdf9358c19d" y="76.239762"/>
     <use style="stroke:#000000;" x="146.495948" xlink:href="#mdf9358c19d" y="74.409084"/>
    </g>
   </g>
   <g id="line2d_12">
    <path clip-path="url(#pd480f44fb6)" d="M 118.309091 80.922785 
L 119.077686 80.518685 
L 119.846281 80.114586 
L 120.614876 79.710486 
L 121.383471 79.306387 
L 122.152066 78.902287 
L 122.920661 78.498188 
L 123.689256 78.094089 
L 124.457851 77.689989 
L 125.226446 77.28589 
L 125.995041 76.88179 
L 126.763636 76.477691 
L 127.532231 76.073591 
L 128.300826 75.669492 
L 129.069421 75.265392 
L 129.838017 74.861293 
L 130.606612 74.457193 
L 131.375207 74.053094 
L 132.143802 73.648994 
L 132.912397 73.244895 
L 133.680992 72.840795 
L 134.449587 72.436696 
L 135.218182 72.032597 
L 135.986777 71.628497 
L 136.755372 71.224398 
L 137.523967 70.820298 
L 138.292562 70.416199 
L 139.061157 70.012099 
L 139.829752 69.608 
L 140.598347 69.2039 
L 141.366942 68.799801 
L 142.135537 68.395701 
L 142.904132 67.991602 
L 143.672727 67.587502 
L 144.441322 67.183403 
L 145.209917 66.779304 
L 145.978512 66.375204 
L 146.747107 65.971105 
L 147.515702 65.567005 
L 148.284298 65.162906 
L 149.052893 64.758806 
L 149.821488 64.354707 
L 150.590083 63.950607 
L 151.358678 63.546508 
L 152.127273 63.142408 
L 152.895868 62.738309 
L 153.664463 62.334209 
L 154.433058 61.93011 
L 155.201653 61.52601 
L 155.970248 61.121911 
L 156.738843 60.717812 
L 157.507438 60.313712 
L 158.276033 59.909613 
L 159.044628 59.505513 
L 159.813223 59.101414 
L 160.581818 58.697314 
L 161.350413 58.293215 
L 162.119008 57.889115 
L 162.887603 57.485016 
L 163.656198 57.080916 
L 164.424793 56.676817 
L 165.193388 56.272717 
L 165.961983 55.868618 
L 166.730579 55.464519 
L 167.499174 55.060419 
L 168.267769 54.65632 
L 169.036364 54.25222 
L 169.804959 53.848121 
L 170.573554 53.444021 
L 171.342149 53.039922 
L 172.110744 52.635822 
L 172.879339 52.231723 
L 173.647934 51.827623 
L 174.416529 51.423524 
L 175.185124 51.019424 
L 175.953719 50.615325 
L 176.722314 50.211225 
L 177.490909 49.807126 
L 178.259504 49.403027 
L 179.028099 48.998927 
L 179.796694 48.594828 
L 180.565289 48.190728 
L 181.333884 47.786629 
L 182.102479 47.382529 
L 182.871074 46.97843 
L 183.639669 46.57433 
L 184.408264 46.170231 
L 185.17686 45.766131 
L 185.945455 45.362032 
L 186.71405 44.957932 
L 187.482645 44.553833 
L 188.25124 44.149734 
L 189.019835 43.745634 
L 189.78843 43.341535 
L 190.557025 42.937435 
L 191.32562 42.533336 
L 192.094215 42.129236 
L 192.86281 41.725137 
L 193.631405 41.321037 
L 194.4 40.916938 
" style="fill:none;stroke:#000000;stroke-dasharray:1.85,0.8;stroke-dashoffset:0;stroke-width:0.5;"/>
   </g>
   <g id="patch_6">
    <path d="M 118.309091 94.5 
L 118.309091 12.96 
" style="fill:none;stroke:#000000;stroke-linecap:square;stroke-linejoin:miter;"/>
   </g>
   <g id="patch_7">
    <path d="M 118.309091 94.5 
L 194.4 94.5 
" style="fill:none;stroke:#000000;stroke-linecap:square;stroke-linejoin:miter;"/>
   </g>
   <g id="matplotlib.axis_3">
    <g id="xtick_4">
     <g id="line2d_13"/>
     <g id="text_11">
      <text style="font-family:Arial;font-size:8px;font-style:normal;font-weight:normal;text-anchor:middle;" transform="rotate(-0, 118.309091, 103.72625)" x="118.309091" y="103.72625">0</text>
     </g>
    </g>
    <g id="xtick_5">
     <g id="line2d_14"/>
     <g id="text_12">
      <text style="font-family:Arial;font-size:8px;font-style:normal;font-weight:normal;text-anchor:middle;" transform="rotate(-0, 164.343668, 103.72625)" x="164.343668" y="103.72625">1</text>
     </g>
    </g>
    <g id="text_13">
     <!-- $\sigma$(Exc) -->
     <g transform="translate(141.504545 116.61625)">
      <text>
       <tspan style="font-family:DejaVu Sans;font-size:10px;font-style:oblique;font-weight:oblique;" x="0" y="-0.71875">σ</tspan>
       <tspan style="font-family:Arial;font-size:10px;font-style:regular;font-weight:regular;" x="6.337891 9.667969 16.337891 21.337891 26.337891" y="-0.71875">(Exc)</tspan>
      </text>
     </g>
    </g>
   </g>
   <g id="matplotlib.axis_4">
    <g id="ytick_5">
     <g id="line2d_15"/>
     <g id="text_14">
      <text style="font-family:Arial;font-size:8px;font-style:normal;font-weight:normal;text-anchor:end;" transform="rotate(-0, 114.809091, 97.363125)" x="114.809091" y="97.363125">0.0</text>
     </g>
    </g>
    <g id="ytick_6">
     <g id="line2d_16"/>
     <g id="text_15">
      <text style="font-family:Arial;font-size:8px;font-style:normal;font-weight:normal;text-anchor:end;" transform="rotate(-0, 114.809091, 72.697502)" x="114.809091" y="72.697502">0.5</text>
     </g>
    </g>
    <g id="ytick_7">
     <g id="line2d_17"/>
     <g id="text_16">
      <text style="font-family:Arial;font-size:8px;font-style:normal;font-weight:normal;text-anchor:end;" transform="rotate(-0, 114.809091, 48.031878)" x="114.809091" y="48.031878">1.0</text>
     </g>
    </g>
    <g id="ytick_8">
     <g id="line2d_18"/>
     <g id="text_17">
      <text style="font-family:Arial;font-size:8px;font-style:normal;font-weight:normal;text-anchor:end;" transform="rotate(-0, 114.809091, 23.366255)" x="114.809091" y="23.366255">1.5</text>
     </g>
    </g>
    <g id="text_18">
     <!-- $\sigma$(Inh) -->
     <g transform="translate(97.489091 67.18)rotate(-90)">
      <text>
       <tspan style="font-family:DejaVu Sans;font-size:10px;font-style:oblique;font-weight:oblique;" x="0" y="-0.71875">σ</tspan>
       <tspan style="font-family:Arial;font-size:10px;font-style:regular;font-weight:regular;" x="6.337891 9.667969 12.446289 18.007812 23.569336" y="-0.71875">(Inh)</tspan>
      </text>
     </g>
    </g>
   </g>
   <g id="legend_2">
    <g id="line2d_19">
     <path d="M 108.478125 31.995156 
L 128.478125 31.995156 
" style="fill:none;stroke:#000000;stroke-dasharray:1.85,0.8;stroke-dashoffset:0;stroke-width:0.5;"/>
    </g>
    <g id="line2d_20"/>
    <g id="text_19">
     <!-- $R^2$ 0.24 -->
     <g transform="translate(136.478125 29.2475)">
      <text>
       <tspan style="font-family:DejaVu Sans;font-size:10px;font-style:oblique;font-weight:oblique;" x="0" y="-0.9765625">R</tspan>
       <tspan style="font-family:DejaVu Sans;font-size:7px;font-style:book;font-weight:book;" x="7.650794" y="-4.8046875">2</tspan>
       <tspan style="font-family:Arial;font-size:10px;font-style:regular;font-weight:regular;" x="12.377845 15.156165 20.717689 23.496009 29.057533" y="-0.9765625"> 0.24</tspan>
      </text>
     </g>
     <text style="font-family:Arial;font-size:10px;font-style:normal;font-weight:normal;" transform="translate(136.478125 39.86)"> slope 0.49</text>
    </g>
   </g>
  </g>
 </g>
 <defs>
  <clipPath id="p193f939410">
   <rect height="81.54" width="76.090909" x="27" y="12.96"/>
  </clipPath>
  <clipPath id="pd480f44fb6">
   <rect height="81.54" width="76.090909" x="118.309091" y="12.96"/>
  </clipPath>
 </defs>
</svg>
