<?xml version="1.0" encoding="utf-8" standalone="no"?>
<!DOCTYPE svg PUBLIC "-//W3C//DTD SVG 1.1//EN"
  "http://www.w3.org/Graphics/SVG/1.1/DTD/svg11.dtd">
<!-- Created with matplotlib (http://matplotlib.org/) -->
<svg height="108pt" version="1.1" viewBox="0 0 216 108" width="216pt" xmlns="http://www.w3.org/2000/svg" xmlns:xlink="http://www.w3.org/1999/xlink">
 <defs>
  <style type="text/css">
*{stroke-linecap:butt;stroke-linejoin:round;}
  </style>
 </defs>
 <g id="figure_1">
  <g id="patch_1">
   <path d="M 0 108 
L 216 108 
L 216 0 
L 0 0 
z
" style="fill:#ffffff;"/>
  </g>
  <g id="axes_1">
   <g id="patch_2">
    <path d="M 27 94.5 
L 103.090909 94.5 
L 103.090909 12.96 
L 27 12.96 
z
" style="fill:#ffffff;"/>
   </g>
   <g id="LineCollection_1">
    <path clip-path="url(#p41953bb4c1)" d="M 31.131607 60.496793 
L 41.157069 60.496793 
" style="fill:none;stroke:#000000;stroke-width:0.5;"/>
    <path clip-path="url(#p41953bb4c1)" d="M 25.909996 86.632415 
L 31.796569 86.632415 
" style="fill:none;stroke:#000000;stroke-width:0.5;"/>
    <path clip-path="url(#p41953bb4c1)" d="M 27 94.5 
L 27 94.5 
" style="fill:none;stroke:#000000;stroke-width:0.5;"/>
    <path clip-path="url(#p41953bb4c1)" d="M 26.587835 76.028668 
L 34.560338 76.028668 
" style="fill:none;stroke:#000000;stroke-width:0.5;"/>
    <path clip-path="url(#p41953bb4c1)" d="M 28.984668 63.172654 
L 43.059527 63.172654 
" style="fill:none;stroke:#000000;stroke-width:0.5;"/>
    <path clip-path="url(#p41953bb4c1)" d="M 26.285668 78.779349 
L 33.773448 78.779349 
" style="fill:none;stroke:#000000;stroke-width:0.5;"/>
    <path clip-path="url(#p41953bb4c1)" d="M 25.544231 73.581998 
L 44.14657 73.581998 
" style="fill:none;stroke:#000000;stroke-width:0.5;"/>
    <path clip-path="url(#p41953bb4c1)" d="M 26.087137 53.128178 
L 41.590534 53.128178 
" style="fill:none;stroke:#000000;stroke-width:0.5;"/>
    <path clip-path="url(#p41953bb4c1)" d="M 28.493927 82.462203 
L 33.402748 82.462203 
" style="fill:none;stroke:#000000;stroke-width:0.5;"/>
    <path clip-path="url(#p41953bb4c1)" d="M 31.029857 46.129165 
L 40.54866 46.129165 
" style="fill:none;stroke:#000000;stroke-width:0.5;"/>
    <path clip-path="url(#p41953bb4c1)" d="M 27.395577 73.325904 
L 35.04601 73.325904 
" style="fill:none;stroke:#000000;stroke-width:0.5;"/>
    <path clip-path="url(#p41953bb4c1)" d="M 26.322665 78.475834 
L 33.055665 78.475834 
" style="fill:none;stroke:#000000;stroke-width:0.5;"/>
    <path clip-path="url(#p41953bb4c1)" d="M 37.087181 22.992946 
L 48.390709 22.992946 
" style="fill:none;stroke:#000000;stroke-width:0.5;"/>
    <path clip-path="url(#p41953bb4c1)" d="M 25.019289 66.752118 
L 31.713687 66.752118 
" style="fill:none;stroke:#000000;stroke-width:0.5;"/>
    <path clip-path="url(#p41953bb4c1)" d="M 27.923559 70.954191 
L 41.555035 70.954191 
" style="fill:none;stroke:#000000;stroke-width:0.5;"/>
    <path clip-path="url(#p41953bb4c1)" d="M 26.179942 76.720157 
L 35.617132 76.720157 
" style="fill:none;stroke:#000000;stroke-width:0.5;"/>
    <path clip-path="url(#p41953bb4c1)" d="M 25.78431 63.307074 
L 34.172512 63.307074 
" style="fill:none;stroke:#000000;stroke-width:0.5;"/>
    <path clip-path="url(#p41953bb4c1)" d="M 25.556987 88.363836 
L 30.434075 88.363836 
" style="fill:none;stroke:#000000;stroke-width:0.5;"/>
    <path clip-path="url(#p41953bb4c1)" d="M 29.812995 67.60296 
L 48.320116 67.60296 
" style="fill:none;stroke:#000000;stroke-width:0.5;"/>
    <path clip-path="url(#p41953bb4c1)" d="M 26.898662 56.621551 
L 41.563222 56.621551 
" style="fill:none;stroke:#000000;stroke-width:0.5;"/>
    <path clip-path="url(#p41953bb4c1)" d="M 30.013656 61.293226 
L 39.426124 61.293226 
" style="fill:none;stroke:#000000;stroke-width:0.5;"/>
    <path clip-path="url(#p41953bb4c1)" d="M 28.75113 74.237589 
L 40.96179 74.237589 
" style="fill:none;stroke:#000000;stroke-width:0.5;"/>
    <path clip-path="url(#p41953bb4c1)" d="M 36.293464 61.752357 
L 48.615559 61.752357 
" style="fill:none;stroke:#000000;stroke-width:0.5;"/>
    <path clip-path="url(#p41953bb4c1)" d="M 24.395711 76.196027 
L 33.197675 76.196027 
" style="fill:none;stroke:#000000;stroke-width:0.5;"/>
    <path clip-path="url(#p41953bb4c1)" d="M 29.254928 74.566169 
L 36.915345 74.566169 
" style="fill:none;stroke:#000000;stroke-width:0.5;"/>
    <path clip-path="url(#p41953bb4c1)" d="M 25.384515 84.811329 
L 36.543587 84.811329 
" style="fill:none;stroke:#000000;stroke-width:0.5;"/>
    <path clip-path="url(#p41953bb4c1)" d="M 33.29136 71.160593 
L 37.421519 71.160593 
" style="fill:none;stroke:#000000;stroke-width:0.5;"/>
    <path clip-path="url(#p41953bb4c1)" d="M 25.687657 85.93544 
L 31.585458 85.93544 
" style="fill:none;stroke:#000000;stroke-width:0.5;"/>
    <path clip-path="url(#p41953bb4c1)" d="M 24.988031 48.738101 
L 40.905489 48.738101 
" style="fill:none;stroke:#000000;stroke-width:0.5;"/>
    <path clip-path="url(#p41953bb4c1)" d="M 25.976571 83.976013 
L 31.033748 83.976013 
" style="fill:none;stroke:#000000;stroke-width:0.5;"/>
   </g>
   <g id="LineCollection_2">
    <path clip-path="url(#p41953bb4c1)" d="M 36.144338 64.07762 
L 36.144338 56.915966 
" style="fill:none;stroke:#000000;stroke-width:0.5;"/>
    <path clip-path="url(#p41953bb4c1)" d="M 28.853283 91.879015 
L 28.853283 81.385816 
" style="fill:none;stroke:#000000;stroke-width:0.5;"/>
    <path clip-path="url(#p41953bb4c1)" d="M 27 94.5 
L 27 94.5 
" style="fill:none;stroke:#000000;stroke-width:0.5;"/>
    <path clip-path="url(#p41953bb4c1)" d="M 30.574087 79.556911 
L 30.574087 72.500424 
" style="fill:none;stroke:#000000;stroke-width:0.5;"/>
    <path clip-path="url(#p41953bb4c1)" d="M 36.022098 66.2959 
L 36.022098 60.049409 
" style="fill:none;stroke:#000000;stroke-width:0.5;"/>
    <path clip-path="url(#p41953bb4c1)" d="M 30.029558 82.519426 
L 30.029558 75.039272 
" style="fill:none;stroke:#000000;stroke-width:0.5;"/>
    <path clip-path="url(#p41953bb4c1)" d="M 34.8454 79.981814 
L 34.8454 67.182181 
" style="fill:none;stroke:#000000;stroke-width:0.5;"/>
    <path clip-path="url(#p41953bb4c1)" d="M 33.838836 63.542351 
L 33.838836 42.714004 
" style="fill:none;stroke:#000000;stroke-width:0.5;"/>
    <path clip-path="url(#p41953bb4c1)" d="M 30.948337 85.720568 
L 30.948337 79.203838 
" style="fill:none;stroke:#000000;stroke-width:0.5;"/>
    <path clip-path="url(#p41953bb4c1)" d="M 35.789258 50.211918 
L 35.789258 42.046412 
" style="fill:none;stroke:#000000;stroke-width:0.5;"/>
    <path clip-path="url(#p41953bb4c1)" d="M 31.220794 76.100447 
L 31.220794 70.551362 
" style="fill:none;stroke:#000000;stroke-width:0.5;"/>
    <path clip-path="url(#p41953bb4c1)" d="M 29.689165 82.602042 
L 29.689165 74.349626 
" style="fill:none;stroke:#000000;stroke-width:0.5;"/>
    <path clip-path="url(#p41953bb4c1)" d="M 42.738945 29.143036 
L 42.738945 16.842857 
" style="fill:none;stroke:#000000;stroke-width:0.5;"/>
    <path clip-path="url(#p41953bb4c1)" d="M 28.366488 77.430646 
L 28.366488 56.07359 
" style="fill:none;stroke:#000000;stroke-width:0.5;"/>
    <path clip-path="url(#p41953bb4c1)" d="M 34.739297 77.104518 
L 34.739297 64.803864 
" style="fill:none;stroke:#000000;stroke-width:0.5;"/>
    <path clip-path="url(#p41953bb4c1)" d="M 30.898537 79.946829 
L 30.898537 73.493484 
" style="fill:none;stroke:#000000;stroke-width:0.5;"/>
    <path clip-path="url(#p41953bb4c1)" d="M 29.978411 66.672095 
L 29.978411 59.942052 
" style="fill:none;stroke:#000000;stroke-width:0.5;"/>
    <path clip-path="url(#p41953bb4c1)" d="M 27.995531 88.363836 
L 27.995531 88.363836 
" style="fill:none;stroke:#000000;stroke-width:0.5;"/>
    <path clip-path="url(#p41953bb4c1)" d="M 39.066556 72.484629 
L 39.066556 62.721291 
" style="fill:none;stroke:#000000;stroke-width:0.5;"/>
    <path clip-path="url(#p41953bb4c1)" d="M 34.230942 64.954993 
L 34.230942 48.28811 
" style="fill:none;stroke:#000000;stroke-width:0.5;"/>
    <path clip-path="url(#p41953bb4c1)" d="M 34.71989 63.55376 
L 34.71989 59.032691 
" style="fill:none;stroke:#000000;stroke-width:0.5;"/>
    <path clip-path="url(#p41953bb4c1)" d="M 34.85646 81.105884 
L 34.85646 67.369294 
" style="fill:none;stroke:#000000;stroke-width:0.5;"/>
    <path clip-path="url(#p41953bb4c1)" d="M 42.454511 68.839687 
L 42.454511 54.665027 
" style="fill:none;stroke:#000000;stroke-width:0.5;"/>
    <path clip-path="url(#p41953bb4c1)" d="M 28.796693 77.854995 
L 28.796693 74.537059 
" style="fill:none;stroke:#000000;stroke-width:0.5;"/>
    <path clip-path="url(#p41953bb4c1)" d="M 33.085137 78.237026 
L 33.085137 70.895312 
" style="fill:none;stroke:#000000;stroke-width:0.5;"/>
    <path clip-path="url(#p41953bb4c1)" d="M 30.964051 87.375958 
L 30.964051 82.246701 
" style="fill:none;stroke:#000000;stroke-width:0.5;"/>
    <path clip-path="url(#p41953bb4c1)" d="M 35.35644 77.275417 
L 35.35644 65.045768 
" style="fill:none;stroke:#000000;stroke-width:0.5;"/>
    <path clip-path="url(#p41953bb4c1)" d="M 28.636558 90.411946 
L 28.636558 81.458935 
" style="fill:none;stroke:#000000;stroke-width:0.5;"/>
    <path clip-path="url(#p41953bb4c1)" d="M 32.94676 51.869297 
L 32.94676 45.606904 
" style="fill:none;stroke:#000000;stroke-width:0.5;"/>
    <path clip-path="url(#p41953bb4c1)" d="M 28.50516 85.884944 
L 28.50516 82.067081 
" style="fill:none;stroke:#000000;stroke-width:0.5;"/>
   </g>
   <g id="line2d_1">
    <path clip-path="url(#p41953bb4c1)" d="M 27 85.526514 
L 27.768595 83.472537 
L 28.53719 81.41856 
L 29.305785 79.364582 
L 30.07438 77.310605 
L 30.842975 75.256628 
L 31.61157 73.202651 
L 32.380165 71.148674 
L 33.14876 69.094697 
L 33.917355 67.04072 
L 34.68595 64.986743 
L 35.454545 62.932766 
L 36.22314 60.878789 
L 36.991736 58.824812 
L 37.760331 56.770835 
L 38.528926 54.716858 
L 39.297521 52.662881 
L 40.066116 50.608904 
L 40.834711 48.554927 
L 41.603306 46.50095 
L 42.371901 44.446973 
L 43.140496 42.392996 
L 43.909091 40.339019 
L 44.677686 38.285042 
L 45.446281 36.231065 
L 46.214876 34.177088 
L 46.983471 32.123111 
L 47.752066 30.069134 
L 48.520661 28.015157 
L 49.289256 25.961179 
L 50.057851 23.907202 
L 50.826446 21.853225 
L 51.595041 19.799248 
L 52.363636 17.745271 
L 53.132231 15.691294 
L 53.900826 13.637317 
L 54.669421 11.58334 
L 55.438017 9.529363 
L 56.206612 7.475386 
L 56.975207 5.421409 
L 57.743802 3.367432 
L 58.512397 1.313455 
L 59.280992 -0.740522 
L 59.378088 -1 
" style="fill:none;stroke:#000000;stroke-dasharray:1.85,0.8;stroke-dashoffset:0;stroke-width:0.5;"/>
   </g>
   <g id="line2d_2">
    <defs>
     <path d="M 0 3 
C 0.795609 3 1.55874 2.683901 2.12132 2.12132 
C 2.683901 1.55874 3 0.795609 3 0 
C 3 -0.795609 2.683901 -1.55874 2.12132 -2.12132 
C 1.55874 -2.683901 0.795609 -3 0 -3 
C -0.795609 -3 -1.55874 -2.683901 -2.12132 -2.12132 
C -2.683901 -1.55874 -3 -0.795609 -3 0 
C -3 0.795609 -2.683901 1.55874 -2.12132 2.12132 
C -1.55874 2.683901 -0.795609 3 0 3 
z
" id="mc8a23e6532" style="stroke:#000000;"/>
    </defs>
    <g clip-path="url(#p41953bb4c1)">
     <use style="stroke:#000000;" x="36.144338" xlink:href="#mc8a23e6532" y="60.496793"/>
     <use style="stroke:#000000;" x="28.853283" xlink:href="#mc8a23e6532" y="86.632415"/>
     <use style="stroke:#000000;" x="27" xlink:href="#mc8a23e6532" y="94.5"/>
     <use style="stroke:#000000;" x="30.574087" xlink:href="#mc8a23e6532" y="76.028668"/>
     <use style="stroke:#000000;" x="36.022098" xlink:href="#mc8a23e6532" y="63.172654"/>
     <use style="stroke:#000000;" x="30.029558" xlink:href="#mc8a23e6532" y="78.779349"/>
     <use style="stroke:#000000;" x="34.8454" xlink:href="#mc8a23e6532" y="73.581998"/>
     <use style="stroke:#000000;" x="33.838836" xlink:href="#mc8a23e6532" y="53.128178"/>
     <use style="stroke:#000000;" x="30.948337" xlink:href="#mc8a23e6532" y="82.462203"/>
     <use style="stroke:#000000;" x="35.789258" xlink:href="#mc8a23e6532" y="46.129165"/>
     <use style="stroke:#000000;" x="31.220794" xlink:href="#mc8a23e6532" y="73.325904"/>
     <use style="stroke:#000000;" x="29.689165" xlink:href="#mc8a23e6532" y="78.475834"/>
     <use style="stroke:#000000;" x="42.738945" xlink:href="#mc8a23e6532" y="22.992946"/>
     <use style="stroke:#000000;" x="28.366488" xlink:href="#mc8a23e6532" y="66.752118"/>
     <use style="stroke:#000000;" x="34.739297" xlink:href="#mc8a23e6532" y="70.954191"/>
     <use style="stroke:#000000;" x="30.898537" xlink:href="#mc8a23e6532" y="76.720157"/>
     <use style="stroke:#000000;" x="29.978411" xlink:href="#mc8a23e6532" y="63.307074"/>
     <use style="stroke:#000000;" x="27.995531" xlink:href="#mc8a23e6532" y="88.363836"/>
     <use style="stroke:#000000;" x="39.066556" xlink:href="#mc8a23e6532" y="67.60296"/>
     <use style="stroke:#000000;" x="34.230942" xlink:href="#mc8a23e6532" y="56.621551"/>
     <use style="stroke:#000000;" x="34.71989" xlink:href="#mc8a23e6532" y="61.293226"/>
     <use style="stroke:#000000;" x="34.85646" xlink:href="#mc8a23e6532" y="74.237589"/>
     <use style="stroke:#000000;" x="42.454511" xlink:href="#mc8a23e6532" y="61.752357"/>
     <use style="stroke:#000000;" x="28.796693" xlink:href="#mc8a23e6532" y="76.196027"/>
     <use style="stroke:#000000;" x="33.085137" xlink:href="#mc8a23e6532" y="74.566169"/>
     <use style="stroke:#000000;" x="30.964051" xlink:href="#mc8a23e6532" y="84.811329"/>
     <use style="stroke:#000000;" x="35.35644" xlink:href="#mc8a23e6532" y="71.160593"/>
     <use style="stroke:#000000;" x="28.636558" xlink:href="#mc8a23e6532" y="85.93544"/>
     <use style="stroke:#000000;" x="32.94676" xlink:href="#mc8a23e6532" y="48.738101"/>
     <use style="stroke:#000000;" x="28.50516" xlink:href="#mc8a23e6532" y="83.976013"/>
    </g>
   </g>
   <g id="patch_3">
    <path d="M 27 94.5 
L 27 12.96 
" style="fill:none;stroke:#000000;stroke-linecap:square;stroke-linejoin:miter;"/>
   </g>
   <g id="patch_4">
    <path d="M 27 94.5 
L 103.090909 94.5 
" style="fill:none;stroke:#000000;stroke-linecap:square;stroke-linejoin:miter;"/>
   </g>
   <g id="matplotlib.axis_1">
    <g id="xtick_1">
     <g id="line2d_3"/>
     <g id="text_1">
      <text style="font-family:Arial;font-size:8px;font-style:normal;font-weight:normal;text-anchor:middle;" transform="rotate(-0, 27, 103.72625)" x="27" y="103.72625">0</text>
     </g>
    </g>
    <g id="xtick_2">
     <g id="line2d_4"/>
     <g id="text_2">
      <text style="font-family:Arial;font-size:8px;font-style:normal;font-weight:normal;text-anchor:middle;" transform="rotate(-0, 58.035379, 103.72625)" x="58.035379" y="103.72625">5</text>
     </g>
    </g>
    <g id="xtick_3">
     <g id="line2d_5"/>
     <g id="text_3">
      <text style="font-family:Arial;font-size:8px;font-style:normal;font-weight:normal;text-anchor:middle;" transform="rotate(-0, 89.070759, 103.72625)" x="89.070759" y="103.72625">10</text>
     </g>
    </g>
    <g id="text_4">
     <text style="font-family:Arial;font-size:10px;font-style:normal;font-weight:normal;text-anchor:middle;" transform="rotate(-0, 65.045455, 116.474063)" x="65.045455" y="116.474063">Exc</text>
    </g>
   </g>
   <g id="matplotlib.axis_2">
    <g id="ytick_1">
     <g id="line2d_6"/>
     <g id="text_5">
      <text style="font-family:Arial;font-size:8px;font-style:normal;font-weight:normal;text-anchor:end;" transform="rotate(-0, 23.5, 97.363125)" x="23.5" y="97.363125">0.0</text>
     </g>
    </g>
    <g id="ytick_2">
     <g id="line2d_7"/>
     <g id="text_6">
      <text style="font-family:Arial;font-size:8px;font-style:normal;font-weight:normal;text-anchor:end;" transform="rotate(-0, 23.5, 80.734169)" x="23.5" y="80.734169">2.5</text>
     </g>
    </g>
    <g id="ytick_3">
     <g id="line2d_8"/>
     <g id="text_7">
      <text style="font-family:Arial;font-size:8px;font-style:normal;font-weight:normal;text-anchor:end;" transform="rotate(-0, 23.5, 64.105212)" x="23.5" y="64.105212">5.0</text>
     </g>
    </g>
    <g id="ytick_4">
     <g id="line2d_9"/>
     <g id="text_8">
      <text style="font-family:Arial;font-size:8px;font-style:normal;font-weight:normal;text-anchor:end;" transform="rotate(-0, 23.5, 47.476256)" x="23.5" y="47.476256">7.5</text>
     </g>
    </g>
    <g id="ytick_5">
     <g id="line2d_10"/>
     <g id="text_9">
      <text style="font-family:Arial;font-size:8px;font-style:normal;font-weight:normal;text-anchor:end;" transform="rotate(-0, 23.5, 30.847299)" x="23.5" y="30.847299">10.0</text>
     </g>
    </g>
    <g id="text_10">
     <text style="font-family:Arial;font-size:10px;font-style:normal;font-weight:normal;text-anchor:middle;" transform="rotate(-90, 1.94375, 53.73)" x="1.94375" y="53.73">Inh</text>
    </g>
   </g>
   <g id="legend_1">
    <g id="line2d_11">
     <path d="M 36 75.622656 
L 56 75.622656 
" style="fill:none;stroke:#000000;stroke-dasharray:1.85,0.8;stroke-dashoffset:0;stroke-width:0.5;"/>
    </g>
    <g id="line2d_12"/>
    <g id="text_11">
     <!-- $R^2$ 0.53 -->
     <g transform="translate(64 72.875)">
      <text>
       <tspan style="font-family:DejaVu Sans;font-size:10px;font-style:oblique;font-weight:oblique;" x="0" y="-0.9765625">R</tspan>
       <tspan style="font-family:DejaVu Sans;font-size:7px;font-style:book;font-weight:book;" x="7.650794" y="-4.8046875">2</tspan>
       <tspan style="font-family:Arial;font-size:10px;font-style:regular;font-weight:regular;" x="12.377845 15.156165 20.717689 23.496009 29.057533" y="-0.9765625"> 0.53</tspan>
      </text>
     </g>
     <text style="font-family:Arial;font-size:10px;font-style:normal;font-weight:normal;" transform="translate(64 83.4875)"> slope 2.49</text>
    </g>
   </g>
  </g>
  <g id="axes_2">
   <g id="patch_5">
    <path d="M 118.309091 94.5 
L 194.4 94.5 
L 194.4 12.96 
L 118.309091 12.96 
z
" style="fill:#ffffff;"/>
   </g>
   <g id="PathCollection_1">
    <defs>
     <path d="M 0 2.44949 
C 0.649612 2.44949 1.272706 2.191396 1.732051 1.732051 
C 2.191396 1.272706 2.44949 0.649612 2.44949 0 
C 2.44949 -0.649612 2.191396 -1.272706 1.732051 -1.732051 
C 1.272706 -2.191396 0.649612 -2.44949 0 -2.44949 
C -0.649612 -2.44949 -1.272706 -2.191396 -1.732051 -1.732051 
C -2.191396 -1.272706 -2.44949 -0.649612 -2.44949 0 
C -2.44949 0.649612 -2.191396 1.272706 -1.732051 1.732051 
C -1.272706 2.191396 -0.649612 2.44949 0 2.44949 
z
" id="mdf136fe6e6" style="stroke:#000000;"/>
    </defs>
    <g clip-path="url(#pa7d1101e51)">
     <use style="stroke:#000000;" x="154.497007" xlink:href="#mdf136fe6e6" y="68.649292"/>
     <use style="stroke:#000000;" x="139.557271" xlink:href="#mdf136fe6e6" y="56.623744"/>
     <use style="stroke:#000000;" x="118.309091" xlink:href="#mdf136fe6e6" y="94.5"/>
     <use style="stroke:#000000;" x="147.086642" xlink:href="#mdf136fe6e6" y="69.028897"/>
     <use style="stroke:#000000;" x="169.113709" xlink:href="#mdf136fe6e6" y="71.952663"/>
     <use style="stroke:#000000;" x="145.336986" xlink:href="#mdf136fe6e6" y="67.499631"/>
     <use style="stroke:#000000;" x="185.456107" xlink:href="#mdf136fe6e6" y="48.298438"/>
     <use style="stroke:#000000;" x="174.270162" xlink:href="#mdf136fe6e6" y="19.317986"/>
     <use style="stroke:#000000;" x="136.027972" xlink:href="#mdf136fe6e6" y="70.977207"/>
     <use style="stroke:#000000;" x="152.668168" xlink:href="#mdf136fe6e6" y="65.025781"/>
     <use style="stroke:#000000;" x="145.924101" xlink:href="#mdf136fe6e6" y="74.470019"/>
     <use style="stroke:#000000;" x="142.612533" xlink:href="#mdf136fe6e6" y="64.712073"/>
     <use style="stroke:#000000;" x="159.110314" xlink:href="#mdf136fe6e6" y="50.101267"/>
     <use style="stroke:#000000;" x="142.473193" xlink:href="#mdf136fe6e6" y="17.409558"/>
     <use style="stroke:#000000;" x="167.513276" xlink:href="#mdf136fe6e6" y="50.099554"/>
     <use style="stroke:#000000;" x="152.373577" xlink:href="#mdf136fe6e6" y="71.206001"/>
     <use style="stroke:#000000;" x="148.58715" xlink:href="#mdf136fe6e6" y="70.207232"/>
     <use style="stroke:#000000;" x="135.913431" xlink:href="#mdf136fe6e6" y="94.5"/>
     <use style="stroke:#000000;" x="185.112407" xlink:href="#mdf136fe6e6" y="59.25825"/>
     <use style="stroke:#000000;" x="171.242295" xlink:href="#mdf136fe6e6" y="34.339207"/>
     <use style="stroke:#000000;" x="152.284343" xlink:href="#mdf136fe6e6" y="78.180747"/>
     <use style="stroke:#000000;" x="162.384697" xlink:href="#mdf136fe6e6" y="44.916398"/>
     <use style="stroke:#000000;" x="162.786933" xlink:href="#mdf136fe6e6" y="43.335136"/>
     <use style="stroke:#000000;" x="150.080666" xlink:href="#mdf136fe6e6" y="82.523577"/>
     <use style="stroke:#000000;" x="145.960139" xlink:href="#mdf136fe6e6" y="67.999343"/>
     <use style="stroke:#000000;" x="158.588883" xlink:href="#mdf136fe6e6" y="75.98543"/>
     <use style="stroke:#000000;" x="133.217314" xlink:href="#mdf136fe6e6" y="50.355851"/>
     <use style="stroke:#000000;" x="139.597797" xlink:href="#mdf136fe6e6" y="62.183204"/>
     <use style="stroke:#000000;" x="175.764757" xlink:href="#mdf136fe6e6" y="71.895262"/>
     <use style="stroke:#000000;" x="136.56348" xlink:href="#mdf136fe6e6" y="80.719038"/>
    </g>
   </g>
   <g id="line2d_13">
    <path clip-path="url(#pa7d1101e51)" d="M 118.309091 80.415758 
L 119.077686 80.019921 
L 119.846281 79.624084 
L 120.614876 79.228248 
L 121.383471 78.832411 
L 122.152066 78.436574 
L 122.920661 78.040737 
L 123.689256 77.6449 
L 124.457851 77.249064 
L 125.226446 76.853227 
L 125.995041 76.45739 
L 126.763636 76.061553 
L 127.532231 75.665717 
L 128.300826 75.26988 
L 129.069421 74.874043 
L 129.838017 74.478206 
L 130.606612 74.08237 
L 131.375207 73.686533 
L 132.143802 73.290696 
L 132.912397 72.894859 
L 133.680992 72.499022 
L 134.449587 72.103186 
L 135.218182 71.707349 
L 135.986777 71.311512 
L 136.755372 70.915675 
L 137.523967 70.519839 
L 138.292562 70.124002 
L 139.061157 69.728165 
L 139.829752 69.332328 
L 140.598347 68.936491 
L 141.366942 68.540655 
L 142.135537 68.144818 
L 142.904132 67.748981 
L 143.672727 67.353144 
L 144.441322 66.957308 
L 145.209917 66.561471 
L 145.978512 66.165634 
L 146.747107 65.769797 
L 147.515702 65.373961 
L 148.284298 64.978124 
L 149.052893 64.582287 
L 149.821488 64.18645 
L 150.590083 63.790613 
L 151.358678 63.394777 
L 152.127273 62.99894 
L 152.895868 62.603103 
L 153.664463 62.207266 
L 154.433058 61.81143 
L 155.201653 61.415593 
L 155.970248 61.019756 
L 156.738843 60.623919 
L 157.507438 60.228082 
L 158.276033 59.832246 
L 159.044628 59.436409 
L 159.813223 59.040572 
L 160.581818 58.644735 
L 161.350413 58.248899 
L 162.119008 57.853062 
L 162.887603 57.457225 
L 163.656198 57.061388 
L 164.424793 56.665552 
L 165.193388 56.269715 
L 165.961983 55.873878 
L 166.730579 55.478041 
L 167.499174 55.082204 
L 168.267769 54.686368 
L 169.036364 54.290531 
L 169.804959 53.894694 
L 170.573554 53.498857 
L 171.342149 53.103021 
L 172.110744 52.707184 
L 172.879339 52.311347 
L 173.647934 51.91551 
L 174.416529 51.519673 
L 175.185124 51.123837 
L 175.953719 50.728 
L 176.722314 50.332163 
L 177.490909 49.936326 
L 178.259504 49.54049 
L 179.028099 49.144653 
L 179.796694 48.748816 
L 180.565289 48.352979 
L 181.333884 47.957142 
L 182.102479 47.561306 
L 182.871074 47.165469 
L 183.639669 46.769632 
L 184.408264 46.373795 
L 185.17686 45.977959 
L 185.945455 45.582122 
L 186.71405 45.186285 
L 187.482645 44.790448 
L 188.25124 44.394612 
L 189.019835 43.998775 
L 189.78843 43.602938 
L 190.557025 43.207101 
L 191.32562 42.811264 
L 192.094215 42.415428 
L 192.86281 42.019591 
L 193.631405 41.623754 
L 194.4 41.227917 
" style="fill:none;stroke:#000000;stroke-dasharray:1.85,0.8;stroke-dashoffset:0;stroke-width:0.5;"/>
   </g>
   <g id="patch_6">
    <path d="M 118.309091 94.5 
L 118.309091 12.96 
" style="fill:none;stroke:#000000;stroke-linecap:square;stroke-linejoin:miter;"/>
   </g>
   <g id="patch_7">
    <path d="M 118.309091 94.5 
L 194.4 94.5 
" style="fill:none;stroke:#000000;stroke-linecap:square;stroke-linejoin:miter;"/>
   </g>
   <g id="matplotlib.axis_3">
    <g id="xtick_4">
     <g id="line2d_14"/>
     <g id="text_12">
      <text style="font-family:Arial;font-size:8px;font-style:normal;font-weight:normal;text-anchor:middle;" transform="rotate(-0, 118.309091, 103.72625)" x="118.309091" y="103.72625">0</text>
     </g>
    </g>
    <g id="xtick_5">
     <g id="line2d_15"/>
     <g id="text_13">
      <text style="font-family:Arial;font-size:8px;font-style:normal;font-weight:normal;text-anchor:middle;" transform="rotate(-0, 163.119221, 103.72625)" x="163.119221" y="103.72625">1</text>
     </g>
    </g>
    <g id="text_14">
     <!-- $\sigma$(Exc) -->
     <g transform="translate(141.504545 116.61625)">
      <text>
       <tspan style="font-family:DejaVu Sans;font-size:10px;font-style:oblique;font-weight:oblique;" x="0" y="-0.71875">σ</tspan>
       <tspan style="font-family:Arial;font-size:10px;font-style:regular;font-weight:regular;" x="6.337891 9.667969 16.337891 21.337891 26.337891" y="-0.71875">(Exc)</tspan>
      </text>
     </g>
    </g>
   </g>
   <g id="matplotlib.axis_4">
    <g id="ytick_6">
     <g id="line2d_16"/>
     <g id="text_15">
      <text style="font-family:Arial;font-size:8px;font-style:normal;font-weight:normal;text-anchor:end;" transform="rotate(-0, 114.809091, 97.363125)" x="114.809091" y="97.363125">0.0</text>
     </g>
    </g>
    <g id="ytick_7">
     <g id="line2d_17"/>
     <g id="text_16">
      <text style="font-family:Arial;font-size:8px;font-style:normal;font-weight:normal;text-anchor:end;" transform="rotate(-0, 114.809091, 73.353568)" x="114.809091" y="73.353568">0.5</text>
     </g>
    </g>
    <g id="ytick_8">
     <g id="line2d_18"/>
     <g id="text_17">
      <text style="font-family:Arial;font-size:8px;font-style:normal;font-weight:normal;text-anchor:end;" transform="rotate(-0, 114.809091, 49.344012)" x="114.809091" y="49.344012">1.0</text>
     </g>
    </g>
    <g id="ytick_9">
     <g id="line2d_19"/>
     <g id="text_18">
      <text style="font-family:Arial;font-size:8px;font-style:normal;font-weight:normal;text-anchor:end;" transform="rotate(-0, 114.809091, 25.334455)" x="114.809091" y="25.334455">1.5</text>
     </g>
    </g>
    <g id="text_19">
     <!-- $\sigma$(Inh) -->
     <g transform="translate(97.489091 67.18)rotate(-90)">
      <text>
       <tspan style="font-family:DejaVu Sans;font-size:10px;font-style:oblique;font-weight:oblique;" x="0" y="-0.71875">σ</tspan>
       <tspan style="font-family:Arial;font-size:10px;font-style:regular;font-weight:regular;" x="6.337891 9.667969 12.446289 18.007812 23.569336" y="-0.71875">(Inh)</tspan>
      </text>
     </g>
    </g>
   </g>
   <g id="legend_2">
    <g id="line2d_20">
     <path d="M 108.478125 31.995156 
L 128.478125 31.995156 
" style="fill:none;stroke:#000000;stroke-dasharray:1.85,0.8;stroke-dashoffset:0;stroke-width:0.5;"/>
    </g>
    <g id="line2d_21"/>
    <g id="text_20">
     <!-- $R^2$ 0.20 -->
     <g transform="translate(136.478125 29.2475)">
      <text>
       <tspan style="font-family:DejaVu Sans;font-size:10px;font-style:oblique;font-weight:oblique;" x="0" y="-0.9765625">R</tspan>
       <tspan style="font-family:DejaVu Sans;font-size:7px;font-style:book;font-weight:book;" x="7.650794" y="-4.8046875">2</tspan>
       <tspan style="font-family:Arial;font-size:10px;font-style:regular;font-weight:regular;" x="12.377845 15.156165 20.717689 23.496009 29.057533" y="-0.9765625"> 0.20</tspan>
      </text>
     </g>
     <text style="font-family:Arial;font-size:10px;font-style:normal;font-weight:normal;" transform="translate(136.478125 39.86)"> slope 0.48</text>
    </g>
   </g>
  </g>
 </g>
 <defs>
  <clipPath id="p41953bb4c1">
   <rect height="81.54" width="76.090909" x="27" y="12.96"/>
  </clipPath>
  <clipPath id="pa7d1101e51">
   <rect height="81.54" width="76.090909" x="118.309091" y="12.96"/>
  </clipPath>
 </defs>
</svg>
