<?xml version="1.0" encoding="utf-8" standalone="no"?>
<!DOCTYPE svg PUBLIC "-//W3C//DTD SVG 1.1//EN"
  "http://www.w3.org/Graphics/SVG/1.1/DTD/svg11.dtd">
<!-- Created with matplotlib (http://matplotlib.org/) -->
<svg height="108pt" version="1.1" viewBox="0 0 216 108" width="216pt" xmlns="http://www.w3.org/2000/svg" xmlns:xlink="http://www.w3.org/1999/xlink">
 <defs>
  <style type="text/css">
*{stroke-linecap:butt;stroke-linejoin:round;}
  </style>
 </defs>
 <g id="figure_1">
  <g id="patch_1">
   <path d="M 0 108 
L 216 108 
L 216 0 
L 0 0 
z
" style="fill:#ffffff;"/>
  </g>
  <g id="axes_1">
   <g id="patch_2">
    <path d="M 27 94.5 
L 103.090909 94.5 
L 103.090909 12.96 
L 27 12.96 
z
" style="fill:#ffffff;"/>
   </g>
   <g id="LineCollection_1">
    <path clip-path="url(#pfe24cca855)" d="M 25.296482 37.909621 
L 37.341097 37.909621 
" style="fill:none;stroke:#000000;stroke-width:0.5;"/>
    <path clip-path="url(#pfe24cca855)" d="M 25.914603 65.589327 
L 36.234552 65.589327 
" style="fill:none;stroke:#000000;stroke-width:0.5;"/>
    <path clip-path="url(#pfe24cca855)" d="M 33.136005 72.031397 
L 37.608477 72.031397 
" style="fill:none;stroke:#000000;stroke-width:0.5;"/>
    <path clip-path="url(#pfe24cca855)" d="M 24.826402 87.915374 
L 32.172719 87.915374 
" style="fill:none;stroke:#000000;stroke-width:0.5;"/>
    <path clip-path="url(#pfe24cca855)" d="M 28.203705 46.349407 
L 32.873385 46.349407 
" style="fill:none;stroke:#000000;stroke-width:0.5;"/>
    <path clip-path="url(#pfe24cca855)" d="M 26.396143 28.438582 
L 59.222819 28.438582 
" style="fill:none;stroke:#000000;stroke-width:0.5;"/>
    <path clip-path="url(#pfe24cca855)" d="M 27.886926 68.965777 
L 42.465828 68.965777 
" style="fill:none;stroke:#000000;stroke-width:0.5;"/>
    <path clip-path="url(#pfe24cca855)" d="M 26.041247 55.175965 
L 39.090844 55.175965 
" style="fill:none;stroke:#000000;stroke-width:0.5;"/>
    <path clip-path="url(#pfe24cca855)" d="M 29.739471 49.122821 
L 40.346655 49.122821 
" style="fill:none;stroke:#000000;stroke-width:0.5;"/>
    <path clip-path="url(#pfe24cca855)" d="M 27.218367 75.496096 
L 34.494475 75.496096 
" style="fill:none;stroke:#000000;stroke-width:0.5;"/>
    <path clip-path="url(#pfe24cca855)" d="M 26.126301 73.275557 
L 34.719213 73.275557 
" style="fill:none;stroke:#000000;stroke-width:0.5;"/>
    <path clip-path="url(#pfe24cca855)" d="M 29.612972 56.73502 
L 40.295459 56.73502 
" style="fill:none;stroke:#000000;stroke-width:0.5;"/>
    <path clip-path="url(#pfe24cca855)" d="M 28.825476 78.256396 
L 35.297922 78.256396 
" style="fill:none;stroke:#000000;stroke-width:0.5;"/>
    <path clip-path="url(#pfe24cca855)" d="M 31.038281 52.131991 
L 43.014153 52.131991 
" style="fill:none;stroke:#000000;stroke-width:0.5;"/>
    <path clip-path="url(#pfe24cca855)" d="M 29.347215 63.35544 
L 39.015177 63.35544 
" style="fill:none;stroke:#000000;stroke-width:0.5;"/>
    <path clip-path="url(#pfe24cca855)" d="M 27.537801 73.015236 
L 39.770312 73.015236 
" style="fill:none;stroke:#000000;stroke-width:0.5;"/>
    <path clip-path="url(#pfe24cca855)" d="M 27 79.040887 
L 27 79.040887 
" style="fill:none;stroke:#000000;stroke-width:0.5;"/>
    <path clip-path="url(#pfe24cca855)" d="M 25.963338 84.291708 
L 36.624816 84.291708 
" style="fill:none;stroke:#000000;stroke-width:0.5;"/>
    <path clip-path="url(#pfe24cca855)" d="M 27 77.63761 
L 27 77.63761 
" style="fill:none;stroke:#000000;stroke-width:0.5;"/>
    <path clip-path="url(#pfe24cca855)" d="M 26.547151 48.693515 
L 41.374823 48.693515 
" style="fill:none;stroke:#000000;stroke-width:0.5;"/>
    <path clip-path="url(#pfe24cca855)" d="M 23.786455 73.710446 
L 34.647582 73.710446 
" style="fill:none;stroke:#000000;stroke-width:0.5;"/>
    <path clip-path="url(#pfe24cca855)" d="M 25.738869 84.520887 
L 32.683886 84.520887 
" style="fill:none;stroke:#000000;stroke-width:0.5;"/>
    <path clip-path="url(#pfe24cca855)" d="M 27 76.506425 
L 27 76.506425 
" style="fill:none;stroke:#000000;stroke-width:0.5;"/>
    <path clip-path="url(#pfe24cca855)" d="M 30.37813 59.262998 
L 41.507692 59.262998 
" style="fill:none;stroke:#000000;stroke-width:0.5;"/>
    <path clip-path="url(#pfe24cca855)" d="M 28.090576 57.987291 
L 43.58481 57.987291 
" style="fill:none;stroke:#000000;stroke-width:0.5;"/>
    <path clip-path="url(#pfe24cca855)" d="M 25.248231 89.67866 
L 31.168854 89.67866 
" style="fill:none;stroke:#000000;stroke-width:0.5;"/>
    <path clip-path="url(#pfe24cca855)" d="M 28.29143 68.161114 
L 47.108509 68.161114 
" style="fill:none;stroke:#000000;stroke-width:0.5;"/>
    <path clip-path="url(#pfe24cca855)" d="M 30.476927 34.483851 
L 51.523325 34.483851 
" style="fill:none;stroke:#000000;stroke-width:0.5;"/>
    <path clip-path="url(#pfe24cca855)" d="M 27.177532 79.972724 
L 37.213199 79.972724 
" style="fill:none;stroke:#000000;stroke-width:0.5;"/>
    <path clip-path="url(#pfe24cca855)" d="M 27 69.073754 
L 27 69.073754 
" style="fill:none;stroke:#000000;stroke-width:0.5;"/>
   </g>
   <g id="LineCollection_2">
    <path clip-path="url(#pfe24cca855)" d="M 31.31879 42.873044 
L 31.31879 32.946199 
" style="fill:none;stroke:#000000;stroke-width:0.5;"/>
    <path clip-path="url(#pfe24cca855)" d="M 31.074577 69.296557 
L 31.074577 61.882097 
" style="fill:none;stroke:#000000;stroke-width:0.5;"/>
    <path clip-path="url(#pfe24cca855)" d="M 35.372241 80.771073 
L 35.372241 63.291721 
" style="fill:none;stroke:#000000;stroke-width:0.5;"/>
    <path clip-path="url(#pfe24cca855)" d="M 28.499561 93.015803 
L 28.499561 82.814945 
" style="fill:none;stroke:#000000;stroke-width:0.5;"/>
    <path clip-path="url(#pfe24cca855)" d="M 30.538545 49.187068 
L 30.538545 43.511746 
" style="fill:none;stroke:#000000;stroke-width:0.5;"/>
    <path clip-path="url(#pfe24cca855)" d="M 42.809481 40.086057 
L 42.809481 16.791107 
" style="fill:none;stroke:#000000;stroke-width:0.5;"/>
    <path clip-path="url(#pfe24cca855)" d="M 35.176377 69.80286 
L 35.176377 68.128694 
" style="fill:none;stroke:#000000;stroke-width:0.5;"/>
    <path clip-path="url(#pfe24cca855)" d="M 32.566045 65.291836 
L 32.566045 45.060093 
" style="fill:none;stroke:#000000;stroke-width:0.5;"/>
    <path clip-path="url(#pfe24cca855)" d="M 35.043063 60.568957 
L 35.043063 37.676685 
" style="fill:none;stroke:#000000;stroke-width:0.5;"/>
    <path clip-path="url(#pfe24cca855)" d="M 30.856421 77.387284 
L 30.856421 73.604908 
" style="fill:none;stroke:#000000;stroke-width:0.5;"/>
    <path clip-path="url(#pfe24cca855)" d="M 30.422757 79.720918 
L 30.422757 66.830195 
" style="fill:none;stroke:#000000;stroke-width:0.5;"/>
    <path clip-path="url(#pfe24cca855)" d="M 34.954216 65.835661 
L 34.954216 47.634379 
" style="fill:none;stroke:#000000;stroke-width:0.5;"/>
    <path clip-path="url(#pfe24cca855)" d="M 32.061699 81.870075 
L 32.061699 74.642718 
" style="fill:none;stroke:#000000;stroke-width:0.5;"/>
    <path clip-path="url(#pfe24cca855)" d="M 37.026217 58.435334 
L 37.026217 45.828649 
" style="fill:none;stroke:#000000;stroke-width:0.5;"/>
    <path clip-path="url(#pfe24cca855)" d="M 34.181196 74.784751 
L 34.181196 51.926129 
" style="fill:none;stroke:#000000;stroke-width:0.5;"/>
    <path clip-path="url(#pfe24cca855)" d="M 33.654056 76.981315 
L 33.654056 69.049157 
" style="fill:none;stroke:#000000;stroke-width:0.5;"/>
    <path clip-path="url(#pfe24cca855)" d="M 27 83.090796 
L 27 74.990978 
" style="fill:none;stroke:#000000;stroke-width:0.5;"/>
    <path clip-path="url(#pfe24cca855)" d="M 31.294077 87.759425 
L 31.294077 80.823992 
" style="fill:none;stroke:#000000;stroke-width:0.5;"/>
    <path clip-path="url(#pfe24cca855)" d="M 27 80.919728 
L 27 74.355492 
" style="fill:none;stroke:#000000;stroke-width:0.5;"/>
    <path clip-path="url(#pfe24cca855)" d="M 33.960987 56.950202 
L 33.960987 40.436829 
" style="fill:none;stroke:#000000;stroke-width:0.5;"/>
    <path clip-path="url(#pfe24cca855)" d="M 29.217018 78.175544 
L 29.217018 69.245348 
" style="fill:none;stroke:#000000;stroke-width:0.5;"/>
    <path clip-path="url(#pfe24cca855)" d="M 29.211378 85.868832 
L 29.211378 83.172942 
" style="fill:none;stroke:#000000;stroke-width:0.5;"/>
    <path clip-path="url(#pfe24cca855)" d="M 27 76.506425 
L 27 76.506425 
" style="fill:none;stroke:#000000;stroke-width:0.5;"/>
    <path clip-path="url(#pfe24cca855)" d="M 35.942911 61.690508 
L 35.942911 56.835488 
" style="fill:none;stroke:#000000;stroke-width:0.5;"/>
    <path clip-path="url(#pfe24cca855)" d="M 35.837693 59.793034 
L 35.837693 56.181548 
" style="fill:none;stroke:#000000;stroke-width:0.5;"/>
    <path clip-path="url(#pfe24cca855)" d="M 28.208542 93.413254 
L 28.208542 85.944066 
" style="fill:none;stroke:#000000;stroke-width:0.5;"/>
    <path clip-path="url(#pfe24cca855)" d="M 37.699969 77.742669 
L 37.699969 58.579559 
" style="fill:none;stroke:#000000;stroke-width:0.5;"/>
    <path clip-path="url(#pfe24cca855)" d="M 41.000126 44.326493 
L 41.000126 24.641208 
" style="fill:none;stroke:#000000;stroke-width:0.5;"/>
    <path clip-path="url(#pfe24cca855)" d="M 32.195365 85.690065 
L 32.195365 74.255382 
" style="fill:none;stroke:#000000;stroke-width:0.5;"/>
    <path clip-path="url(#pfe24cca855)" d="M 27 80.419354 
L 27 57.728154 
" style="fill:none;stroke:#000000;stroke-width:0.5;"/>
   </g>
   <g id="line2d_1">
    <path clip-path="url(#pfe24cca855)" d="M 27 80.795015 
L 27.768595 78.705492 
L 28.53719 76.615968 
L 29.305785 74.526445 
L 30.07438 72.436922 
L 30.842975 70.347399 
L 31.61157 68.257876 
L 32.380165 66.168352 
L 33.14876 64.078829 
L 33.917355 61.989306 
L 34.68595 59.899783 
L 35.454545 57.810259 
L 36.22314 55.720736 
L 36.991736 53.631213 
L 37.760331 51.54169 
L 38.528926 49.452166 
L 39.297521 47.362643 
L 40.066116 45.27312 
L 40.834711 43.183597 
L 41.603306 41.094074 
L 42.371901 39.00455 
L 43.140496 36.915027 
L 43.909091 34.825504 
L 44.677686 32.735981 
L 45.446281 30.646457 
L 46.214876 28.556934 
L 46.983471 26.467411 
L 47.752066 24.377888 
L 48.520661 22.288365 
L 49.289256 20.198841 
L 50.057851 18.109318 
L 50.826446 16.019795 
L 51.595041 13.930272 
L 52.363636 11.840748 
L 53.132231 9.751225 
L 53.900826 7.661702 
L 54.669421 5.572179 
L 55.438017 3.482655 
L 56.206612 1.393132 
L 56.975207 -0.696391 
L 57.086884 -1 
" style="fill:none;stroke:#000000;stroke-dasharray:1.85,0.8;stroke-dashoffset:0;stroke-width:0.5;"/>
   </g>
   <g id="line2d_2">
    <defs>
     <path d="M 0 3 
C 0.795609 3 1.55874 2.683901 2.12132 2.12132 
C 2.683901 1.55874 3 0.795609 3 0 
C 3 -0.795609 2.683901 -1.55874 2.12132 -2.12132 
C 1.55874 -2.683901 0.795609 -3 0 -3 
C -0.795609 -3 -1.55874 -2.683901 -2.12132 -2.12132 
C -2.683901 -1.55874 -3 -0.795609 -3 0 
C -3 0.795609 -2.683901 1.55874 -2.12132 2.12132 
C -1.55874 2.683901 -0.795609 3 0 3 
z
" id="m37019c84d6" style="stroke:#000000;"/>
    </defs>
    <g clip-path="url(#pfe24cca855)">
     <use style="stroke:#000000;" x="31.31879" xlink:href="#m37019c84d6" y="37.909621"/>
     <use style="stroke:#000000;" x="31.074577" xlink:href="#m37019c84d6" y="65.589327"/>
     <use style="stroke:#000000;" x="35.372241" xlink:href="#m37019c84d6" y="72.031397"/>
     <use style="stroke:#000000;" x="28.499561" xlink:href="#m37019c84d6" y="87.915374"/>
     <use style="stroke:#000000;" x="30.538545" xlink:href="#m37019c84d6" y="46.349407"/>
     <use style="stroke:#000000;" x="42.809481" xlink:href="#m37019c84d6" y="28.438582"/>
     <use style="stroke:#000000;" x="35.176377" xlink:href="#m37019c84d6" y="68.965777"/>
     <use style="stroke:#000000;" x="32.566045" xlink:href="#m37019c84d6" y="55.175965"/>
     <use style="stroke:#000000;" x="35.043063" xlink:href="#m37019c84d6" y="49.122821"/>
     <use style="stroke:#000000;" x="30.856421" xlink:href="#m37019c84d6" y="75.496096"/>
     <use style="stroke:#000000;" x="30.422757" xlink:href="#m37019c84d6" y="73.275557"/>
     <use style="stroke:#000000;" x="34.954216" xlink:href="#m37019c84d6" y="56.73502"/>
     <use style="stroke:#000000;" x="32.061699" xlink:href="#m37019c84d6" y="78.256396"/>
     <use style="stroke:#000000;" x="37.026217" xlink:href="#m37019c84d6" y="52.131991"/>
     <use style="stroke:#000000;" x="34.181196" xlink:href="#m37019c84d6" y="63.35544"/>
     <use style="stroke:#000000;" x="33.654056" xlink:href="#m37019c84d6" y="73.015236"/>
     <use style="stroke:#000000;" x="27" xlink:href="#m37019c84d6" y="79.040887"/>
     <use style="stroke:#000000;" x="31.294077" xlink:href="#m37019c84d6" y="84.291708"/>
     <use style="stroke:#000000;" x="27" xlink:href="#m37019c84d6" y="77.63761"/>
     <use style="stroke:#000000;" x="33.960987" xlink:href="#m37019c84d6" y="48.693515"/>
     <use style="stroke:#000000;" x="29.217018" xlink:href="#m37019c84d6" y="73.710446"/>
     <use style="stroke:#000000;" x="29.211378" xlink:href="#m37019c84d6" y="84.520887"/>
     <use style="stroke:#000000;" x="27" xlink:href="#m37019c84d6" y="76.506425"/>
     <use style="stroke:#000000;" x="35.942911" xlink:href="#m37019c84d6" y="59.262998"/>
     <use style="stroke:#000000;" x="35.837693" xlink:href="#m37019c84d6" y="57.987291"/>
     <use style="stroke:#000000;" x="28.208542" xlink:href="#m37019c84d6" y="89.67866"/>
     <use style="stroke:#000000;" x="37.699969" xlink:href="#m37019c84d6" y="68.161114"/>
     <use style="stroke:#000000;" x="41.000126" xlink:href="#m37019c84d6" y="34.483851"/>
     <use style="stroke:#000000;" x="32.195365" xlink:href="#m37019c84d6" y="79.972724"/>
     <use style="stroke:#000000;" x="27" xlink:href="#m37019c84d6" y="69.073754"/>
    </g>
   </g>
   <g id="patch_3">
    <path d="M 27 94.5 
L 27 12.96 
" style="fill:none;stroke:#000000;stroke-linecap:square;stroke-linejoin:miter;"/>
   </g>
   <g id="patch_4">
    <path d="M 27 94.5 
L 103.090909 94.5 
" style="fill:none;stroke:#000000;stroke-linecap:square;stroke-linejoin:miter;"/>
   </g>
   <g id="matplotlib.axis_1">
    <g id="xtick_1">
     <g id="line2d_3"/>
     <g id="text_1">
      <text style="font-family:Arial;font-size:8px;font-style:normal;font-weight:normal;text-anchor:middle;" transform="rotate(-0, 27, 103.72625)" x="27" y="103.72625">0</text>
     </g>
    </g>
    <g id="xtick_2">
     <g id="line2d_4"/>
     <g id="text_2">
      <text style="font-family:Arial;font-size:8px;font-style:normal;font-weight:normal;text-anchor:middle;" transform="rotate(-0, 61.763454, 103.72625)" x="61.763454" y="103.72625">5</text>
     </g>
    </g>
    <g id="xtick_3">
     <g id="line2d_5"/>
     <g id="text_3">
      <text style="font-family:Arial;font-size:8px;font-style:normal;font-weight:normal;text-anchor:middle;" transform="rotate(-0, 96.526907, 103.72625)" x="96.526907" y="103.72625">10</text>
     </g>
    </g>
    <g id="text_4">
     <text style="font-family:Arial;font-size:10px;font-style:normal;font-weight:normal;text-anchor:middle;" transform="rotate(-0, 65.045455, 116.474063)" x="65.045455" y="116.474063">Exc</text>
    </g>
   </g>
   <g id="matplotlib.axis_2">
    <g id="ytick_1">
     <g id="line2d_6"/>
     <g id="text_5">
      <text style="font-family:Arial;font-size:8px;font-style:normal;font-weight:normal;text-anchor:end;" transform="rotate(-0, 23.5, 97.363125)" x="23.5" y="97.363125">0.0</text>
     </g>
    </g>
    <g id="ytick_2">
     <g id="line2d_7"/>
     <g id="text_6">
      <text style="font-family:Arial;font-size:8px;font-style:normal;font-weight:normal;text-anchor:end;" transform="rotate(-0, 23.5, 78.736642)" x="23.5" y="78.736642">2.5</text>
     </g>
    </g>
    <g id="ytick_3">
     <g id="line2d_8"/>
     <g id="text_7">
      <text style="font-family:Arial;font-size:8px;font-style:normal;font-weight:normal;text-anchor:end;" transform="rotate(-0, 23.5, 60.110159)" x="23.5" y="60.110159">5.0</text>
     </g>
    </g>
    <g id="ytick_4">
     <g id="line2d_9"/>
     <g id="text_8">
      <text style="font-family:Arial;font-size:8px;font-style:normal;font-weight:normal;text-anchor:end;" transform="rotate(-0, 23.5, 41.483677)" x="23.5" y="41.483677">7.5</text>
     </g>
    </g>
    <g id="ytick_5">
     <g id="line2d_10"/>
     <g id="text_9">
      <text style="font-family:Arial;font-size:8px;font-style:normal;font-weight:normal;text-anchor:end;" transform="rotate(-0, 23.5, 22.857194)" x="23.5" y="22.857194">10.0</text>
     </g>
    </g>
    <g id="text_10">
     <text style="font-family:Arial;font-size:10px;font-style:normal;font-weight:normal;text-anchor:middle;" transform="rotate(-90, 1.94375, 53.73)" x="1.94375" y="53.73">Inh</text>
    </g>
   </g>
   <g id="legend_1">
    <g id="line2d_11">
     <path d="M 36 75.622656 
L 56 75.622656 
" style="fill:none;stroke:#000000;stroke-dasharray:1.85,0.8;stroke-dashoffset:0;stroke-width:0.5;"/>
    </g>
    <g id="line2d_12"/>
    <g id="text_11">
     <!-- $R^2$ 0.47 -->
     <g transform="translate(64 72.875)">
      <text>
       <tspan style="font-family:DejaVu Sans;font-size:10px;font-style:oblique;font-weight:oblique;" x="0" y="-0.9765625">R</tspan>
       <tspan style="font-family:DejaVu Sans;font-size:7px;font-style:book;font-weight:book;" x="7.650794" y="-4.8046875">2</tspan>
       <tspan style="font-family:Arial;font-size:10px;font-style:regular;font-weight:regular;" x="12.377845 15.156165 20.717689 23.496009 29.057533" y="-0.9765625"> 0.47</tspan>
      </text>
     </g>
     <text style="font-family:Arial;font-size:10px;font-style:normal;font-weight:normal;" transform="translate(64 83.4875)"> slope 2.54</text>
    </g>
   </g>
  </g>
  <g id="axes_2">
   <g id="patch_5">
    <path d="M 118.309091 94.5 
L 194.4 94.5 
L 194.4 12.96 
L 118.309091 12.96 
z
" style="fill:#ffffff;"/>
   </g>
   <g id="PathCollection_1">
    <defs>
     <path d="M 0 2.44949 
C 0.649612 2.44949 1.272706 2.191396 1.732051 1.732051 
C 2.191396 1.272706 2.44949 0.649612 2.44949 0 
C 2.44949 -0.649612 2.191396 -1.272706 1.732051 -1.732051 
C 1.272706 -2.191396 0.649612 -2.44949 0 -2.44949 
C -0.649612 -2.44949 -1.272706 -2.191396 -1.732051 -1.732051 
C -2.191396 -1.272706 -2.44949 -0.649612 -2.44949 0 
C -2.44949 0.649612 -2.191396 1.272706 -1.732051 1.732051 
C -1.272706 2.191396 -0.649612 2.44949 0 2.44949 
z
" id="m1f24597060" style="stroke:#000000;"/>
    </defs>
    <g clip-path="url(#p46e71e61e5)">
     <use style="stroke:#000000;" x="144.709971" xlink:href="#m1f24597060" y="72.74111"/>
     <use style="stroke:#000000;" x="140.929636" xlink:href="#m1f24597060" y="78.248067"/>
     <use style="stroke:#000000;" x="128.11241" xlink:href="#m1f24597060" y="56.18659"/>
     <use style="stroke:#000000;" x="134.411658" xlink:href="#m1f24597060" y="72.140494"/>
     <use style="stroke:#000000;" x="128.544673" xlink:href="#m1f24597060" y="82.060125"/>
     <use style="stroke:#000000;" x="190.262669" xlink:href="#m1f24597060" y="43.43924"/>
     <use style="stroke:#000000;" x="150.264935" xlink:href="#m1f24597060" y="90.830357"/>
     <use style="stroke:#000000;" x="146.912817" xlink:href="#m1f24597060" y="50.153558"/>
     <use style="stroke:#000000;" x="141.559233" xlink:href="#m1f24597060" y="44.321881"/>
     <use style="stroke:#000000;" x="134.257765" xlink:href="#m1f24597060" y="86.20932"/>
     <use style="stroke:#000000;" x="137.1441" xlink:href="#m1f24597060" y="66.244516"/>
     <use style="stroke:#000000;" x="141.72429" xlink:href="#m1f24597060" y="54.604175"/>
     <use style="stroke:#000000;" x="132.496199" xlink:href="#m1f24597060" y="78.658182"/>
     <use style="stroke:#000000;" x="144.55929" xlink:href="#m1f24597060" y="66.867104"/>
     <use style="stroke:#000000;" x="139.500527" xlink:href="#m1f24597060" y="44.39564"/>
     <use style="stroke:#000000;" x="145.121823" xlink:href="#m1f24597060" y="77.113312"/>
     <use style="stroke:#000000;" x="118.309091" xlink:href="#m1f24597060" y="76.745814"/>
     <use style="stroke:#000000;" x="141.678241" xlink:href="#m1f24597060" y="79.298057"/>
     <use style="stroke:#000000;" x="118.309091" xlink:href="#m1f24597060" y="80.111694"/>
     <use style="stroke:#000000;" x="150.810221" xlink:href="#m1f24597060" y="58.303942"/>
     <use style="stroke:#000000;" x="142.115857" xlink:href="#m1f24597060" y="74.925688"/>
     <use style="stroke:#000000;" x="133.53204" xlink:href="#m1f24597060" y="88.590815"/>
     <use style="stroke:#000000;" x="118.309091" xlink:href="#m1f24597060" y="94.5"/>
     <use style="stroke:#000000;" x="142.704244" xlink:href="#m1f24597060" y="83.858165"/>
     <use style="stroke:#000000;" x="152.271272" xlink:href="#m1f24597060" y="86.583897"/>
     <use style="stroke:#000000;" x="131.286646" xlink:href="#m1f24597060" y="78.128108"/>
     <use style="stroke:#000000;" x="159.554698" xlink:href="#m1f24597060" y="52.495922"/>
     <use style="stroke:#000000;" x="164.441196" xlink:href="#m1f24597060" y="51.351352"/>
     <use style="stroke:#000000;" x="140.306511" xlink:href="#m1f24597060" y="69.436044"/>
     <use style="stroke:#000000;" x="118.309091" xlink:href="#m1f24597060" y="44.762613"/>
    </g>
   </g>
   <g id="line2d_13">
    <path clip-path="url(#p46e71e61e5)" d="M 118.309091 78.385881 
L 119.077686 78.074966 
L 119.846281 77.764051 
L 120.614876 77.453136 
L 121.383471 77.142221 
L 122.152066 76.831306 
L 122.920661 76.520391 
L 123.689256 76.209476 
L 124.457851 75.898561 
L 125.226446 75.587646 
L 125.995041 75.276732 
L 126.763636 74.965817 
L 127.532231 74.654902 
L 128.300826 74.343987 
L 129.069421 74.033072 
L 129.838017 73.722157 
L 130.606612 73.411242 
L 131.375207 73.100327 
L 132.143802 72.789412 
L 132.912397 72.478497 
L 133.680992 72.167582 
L 134.449587 71.856667 
L 135.218182 71.545753 
L 135.986777 71.234838 
L 136.755372 70.923923 
L 137.523967 70.613008 
L 138.292562 70.302093 
L 139.061157 69.991178 
L 139.829752 69.680263 
L 140.598347 69.369348 
L 141.366942 69.058433 
L 142.135537 68.747518 
L 142.904132 68.436603 
L 143.672727 68.125688 
L 144.441322 67.814774 
L 145.209917 67.503859 
L 145.978512 67.192944 
L 146.747107 66.882029 
L 147.515702 66.571114 
L 148.284298 66.260199 
L 149.052893 65.949284 
L 149.821488 65.638369 
L 150.590083 65.327454 
L 151.358678 65.016539 
L 152.127273 64.705624 
L 152.895868 64.394709 
L 153.664463 64.083795 
L 154.433058 63.77288 
L 155.201653 63.461965 
L 155.970248 63.15105 
L 156.738843 62.840135 
L 157.507438 62.52922 
L 158.276033 62.218305 
L 159.044628 61.90739 
L 159.813223 61.596475 
L 160.581818 61.28556 
L 161.350413 60.974645 
L 162.119008 60.66373 
L 162.887603 60.352816 
L 163.656198 60.041901 
L 164.424793 59.730986 
L 165.193388 59.420071 
L 165.961983 59.109156 
L 166.730579 58.798241 
L 167.499174 58.487326 
L 168.267769 58.176411 
L 169.036364 57.865496 
L 169.804959 57.554581 
L 170.573554 57.243666 
L 171.342149 56.932751 
L 172.110744 56.621837 
L 172.879339 56.310922 
L 173.647934 56.000007 
L 174.416529 55.689092 
L 175.185124 55.378177 
L 175.953719 55.067262 
L 176.722314 54.756347 
L 177.490909 54.445432 
L 178.259504 54.134517 
L 179.028099 53.823602 
L 179.796694 53.512687 
L 180.565289 53.201772 
L 181.333884 52.890858 
L 182.102479 52.579943 
L 182.871074 52.269028 
L 183.639669 51.958113 
L 184.408264 51.647198 
L 185.17686 51.336283 
L 185.945455 51.025368 
L 186.71405 50.714453 
L 187.482645 50.403538 
L 188.25124 50.092623 
L 189.019835 49.781708 
L 189.78843 49.470793 
L 190.557025 49.159879 
L 191.32562 48.848964 
L 192.094215 48.538049 
L 192.86281 48.227134 
L 193.631405 47.916219 
L 194.4 47.605304 
" style="fill:none;stroke:#000000;stroke-dasharray:1.85,0.8;stroke-dashoffset:0;stroke-width:0.5;"/>
   </g>
   <g id="patch_6">
    <path d="M 118.309091 94.5 
L 118.309091 12.96 
" style="fill:none;stroke:#000000;stroke-linecap:square;stroke-linejoin:miter;"/>
   </g>
   <g id="patch_7">
    <path d="M 118.309091 94.5 
L 194.4 94.5 
" style="fill:none;stroke:#000000;stroke-linecap:square;stroke-linejoin:miter;"/>
   </g>
   <g id="matplotlib.axis_3">
    <g id="xtick_4">
     <g id="line2d_14"/>
     <g id="text_12">
      <text style="font-family:Arial;font-size:8px;font-style:normal;font-weight:normal;text-anchor:middle;" transform="rotate(-0, 118.309091, 103.72625)" x="118.309091" y="103.72625">0</text>
     </g>
    </g>
    <g id="xtick_5">
     <g id="line2d_15"/>
     <g id="text_13">
      <text style="font-family:Arial;font-size:8px;font-style:normal;font-weight:normal;text-anchor:middle;" transform="rotate(-0, 148.78863, 103.72625)" x="148.78863" y="103.72625">1</text>
     </g>
    </g>
    <g id="xtick_6">
     <g id="line2d_16"/>
     <g id="text_14">
      <text style="font-family:Arial;font-size:8px;font-style:normal;font-weight:normal;text-anchor:middle;" transform="rotate(-0, 179.268169, 103.72625)" x="179.268169" y="103.72625">2</text>
     </g>
    </g>
    <g id="text_15">
     <!-- $\sigma$(Exc) -->
     <g transform="translate(141.504545 116.61625)">
      <text>
       <tspan style="font-family:DejaVu Sans;font-size:10px;font-style:oblique;font-weight:oblique;" x="0" y="-0.71875">σ</tspan>
       <tspan style="font-family:Arial;font-size:10px;font-style:regular;font-weight:regular;" x="6.337891 9.667969 16.337891 21.337891 26.337891" y="-0.71875">(Exc)</tspan>
      </text>
     </g>
    </g>
   </g>
   <g id="matplotlib.axis_4">
    <g id="ytick_6">
     <g id="line2d_17"/>
     <g id="text_16">
      <text style="font-family:Arial;font-size:8px;font-style:normal;font-weight:normal;text-anchor:end;" transform="rotate(-0, 114.809091, 97.363125)" x="114.809091" y="97.363125">0.0</text>
     </g>
    </g>
    <g id="ytick_7">
     <g id="line2d_18"/>
     <g id="text_17">
      <text style="font-family:Arial;font-size:8px;font-style:normal;font-weight:normal;text-anchor:end;" transform="rotate(-0, 114.809091, 81.031991)" x="114.809091" y="81.031991">0.5</text>
     </g>
    </g>
    <g id="ytick_8">
     <g id="line2d_19"/>
     <g id="text_18">
      <text style="font-family:Arial;font-size:8px;font-style:normal;font-weight:normal;text-anchor:end;" transform="rotate(-0, 114.809091, 64.700858)" x="114.809091" y="64.700858">1.0</text>
     </g>
    </g>
    <g id="ytick_9">
     <g id="line2d_20"/>
     <g id="text_19">
      <text style="font-family:Arial;font-size:8px;font-style:normal;font-weight:normal;text-anchor:end;" transform="rotate(-0, 114.809091, 48.369724)" x="114.809091" y="48.369724">1.5</text>
     </g>
    </g>
    <g id="ytick_10">
     <g id="line2d_21"/>
     <g id="text_20">
      <text style="font-family:Arial;font-size:8px;font-style:normal;font-weight:normal;text-anchor:end;" transform="rotate(-0, 114.809091, 32.03859)" x="114.809091" y="32.03859">2.0</text>
     </g>
    </g>
    <g id="ytick_11">
     <g id="line2d_22"/>
     <g id="text_21">
      <text style="font-family:Arial;font-size:8px;font-style:normal;font-weight:normal;text-anchor:end;" transform="rotate(-0, 114.809091, 15.707456)" x="114.809091" y="15.707456">2.5</text>
     </g>
    </g>
    <g id="text_22">
     <!-- $\sigma$(Inh) -->
     <g transform="translate(97.489091 67.18)rotate(-90)">
      <text>
       <tspan style="font-family:DejaVu Sans;font-size:10px;font-style:oblique;font-weight:oblique;" x="0" y="-0.71875">σ</tspan>
       <tspan style="font-family:Arial;font-size:10px;font-style:regular;font-weight:regular;" x="6.337891 9.667969 12.446289 18.007812 23.569336" y="-0.71875">(Inh)</tspan>
      </text>
     </g>
    </g>
   </g>
   <g id="legend_2">
    <g id="line2d_23">
     <path d="M 108.478125 31.995156 
L 128.478125 31.995156 
" style="fill:none;stroke:#000000;stroke-dasharray:1.85,0.8;stroke-dashoffset:0;stroke-width:0.5;"/>
    </g>
    <g id="line2d_24"/>
    <g id="text_23">
     <!-- $R^2$ 0.15 -->
     <g transform="translate(136.478125 29.2475)">
      <text>
       <tspan style="font-family:DejaVu Sans;font-size:10px;font-style:oblique;font-weight:oblique;" x="0" y="-0.9765625">R</tspan>
       <tspan style="font-family:DejaVu Sans;font-size:7px;font-style:book;font-weight:book;" x="7.650794" y="-4.8046875">2</tspan>
       <tspan style="font-family:Arial;font-size:10px;font-style:regular;font-weight:regular;" x="12.377845 15.156165 20.717689 23.496009 29.057533" y="-0.9765625"> 0.15</tspan>
      </text>
     </g>
     <text style="font-family:Arial;font-size:10px;font-style:normal;font-weight:normal;" transform="translate(136.478125 39.86)"> slope 0.38</text>
    </g>
   </g>
  </g>
 </g>
 <defs>
  <clipPath id="pfe24cca855">
   <rect height="81.54" width="76.090909" x="27" y="12.96"/>
  </clipPath>
  <clipPath id="p46e71e61e5">
   <rect height="81.54" width="76.090909" x="118.309091" y="12.96"/>
  </clipPath>
 </defs>
</svg>
