<?xml version="1.0" encoding="utf-8" standalone="no"?>
<!DOCTYPE svg PUBLIC "-//W3C//DTD SVG 1.1//EN"
  "http://www.w3.org/Graphics/SVG/1.1/DTD/svg11.dtd">
<!-- Created with matplotlib (http://matplotlib.org/) -->
<svg height="108pt" version="1.1" viewBox="0 0 216 108" width="216pt" xmlns="http://www.w3.org/2000/svg" xmlns:xlink="http://www.w3.org/1999/xlink">
 <defs>
  <style type="text/css">
*{stroke-linecap:butt;stroke-linejoin:round;}
  </style>
 </defs>
 <g id="figure_1">
  <g id="patch_1">
   <path d="M 0 108 
L 216 108 
L 216 0 
L 0 0 
z
" style="fill:#ffffff;"/>
  </g>
  <g id="axes_1">
   <g id="patch_2">
    <path d="M 27 94.5 
L 103.090909 94.5 
L 103.090909 12.96 
L 27 12.96 
z
" style="fill:#ffffff;"/>
   </g>
   <g id="LineCollection_1">
    <path clip-path="url(#pf965aa13f3)" d="M 26.024093 72.736454 
L 38.360486 72.736454 
" style="fill:none;stroke:#000000;stroke-width:0.5;"/>
    <path clip-path="url(#pf965aa13f3)" d="M 25.395223 43.016234 
L 64.48659 43.016234 
" style="fill:none;stroke:#000000;stroke-width:0.5;"/>
    <path clip-path="url(#pf965aa13f3)" d="M 27.260764 72.385875 
L 35.317296 72.385875 
" style="fill:none;stroke:#000000;stroke-width:0.5;"/>
    <path clip-path="url(#pf965aa13f3)" d="M 23.815038 52.781692 
L 48.967242 52.781692 
" style="fill:none;stroke:#000000;stroke-width:0.5;"/>
    <path clip-path="url(#pf965aa13f3)" d="M 27.754426 67.607889 
L 39.742106 67.607889 
" style="fill:none;stroke:#000000;stroke-width:0.5;"/>
    <path clip-path="url(#pf965aa13f3)" d="M 37.624895 68.859672 
L 48.108909 68.859672 
" style="fill:none;stroke:#000000;stroke-width:0.5;"/>
    <path clip-path="url(#pf965aa13f3)" d="M 26.310313 68.785183 
L 33.377491 68.785183 
" style="fill:none;stroke:#000000;stroke-width:0.5;"/>
    <path clip-path="url(#pf965aa13f3)" d="M 30.793141 40.098075 
L 49.253569 40.098075 
" style="fill:none;stroke:#000000;stroke-width:0.5;"/>
    <path clip-path="url(#pf965aa13f3)" d="M 24.636383 58.425601 
L 52.822164 58.425601 
" style="fill:none;stroke:#000000;stroke-width:0.5;"/>
    <path clip-path="url(#pf965aa13f3)" d="M 27 87.554099 
L 27 87.554099 
" style="fill:none;stroke:#000000;stroke-width:0.5;"/>
    <path clip-path="url(#pf965aa13f3)" d="M 32.770849 40.80591 
L 51.468461 40.80591 
" style="fill:none;stroke:#000000;stroke-width:0.5;"/>
    <path clip-path="url(#pf965aa13f3)" d="M 27.300531 74.508965 
L 33.163242 74.508965 
" style="fill:none;stroke:#000000;stroke-width:0.5;"/>
    <path clip-path="url(#pf965aa13f3)" d="M 27.155538 77.888723 
L 35.424954 77.888723 
" style="fill:none;stroke:#000000;stroke-width:0.5;"/>
    <path clip-path="url(#pf965aa13f3)" d="M 29.718145 63.581282 
L 33.874282 63.581282 
" style="fill:none;stroke:#000000;stroke-width:0.5;"/>
    <path clip-path="url(#pf965aa13f3)" d="M 32.257455 81.071382 
L 42.141626 81.071382 
" style="fill:none;stroke:#000000;stroke-width:0.5;"/>
    <path clip-path="url(#pf965aa13f3)" d="M 26.008996 63.203881 
L 47.998223 63.203881 
" style="fill:none;stroke:#000000;stroke-width:0.5;"/>
    <path clip-path="url(#pf965aa13f3)" d="M 27.217613 84.316796 
L 35.287875 84.316796 
" style="fill:none;stroke:#000000;stroke-width:0.5;"/>
    <path clip-path="url(#pf965aa13f3)" d="M 24.389819 75.994373 
L 33.211698 75.994373 
" style="fill:none;stroke:#000000;stroke-width:0.5;"/>
    <path clip-path="url(#pf965aa13f3)" d="M 25.271891 63.302289 
L 42.801925 63.302289 
" style="fill:none;stroke:#000000;stroke-width:0.5;"/>
    <path clip-path="url(#pf965aa13f3)" d="M 25.112037 65.751425 
L 43.889656 65.751425 
" style="fill:none;stroke:#000000;stroke-width:0.5;"/>
    <path clip-path="url(#pf965aa13f3)" d="M 26.861177 68.372412 
L 32.816228 68.372412 
" style="fill:none;stroke:#000000;stroke-width:0.5;"/>
    <path clip-path="url(#pf965aa13f3)" d="M 29.842444 52.266933 
L 45.542436 52.266933 
" style="fill:none;stroke:#000000;stroke-width:0.5;"/>
    <path clip-path="url(#pf965aa13f3)" d="M 29.78594 64.774674 
L 34.349596 64.774674 
" style="fill:none;stroke:#000000;stroke-width:0.5;"/>
    <path clip-path="url(#pf965aa13f3)" d="M 44.389461 50.866307 
L 59.940086 50.866307 
" style="fill:none;stroke:#000000;stroke-width:0.5;"/>
    <path clip-path="url(#pf965aa13f3)" d="M 27.41566 79.339193 
L 33.459632 79.339193 
" style="fill:none;stroke:#000000;stroke-width:0.5;"/>
    <path clip-path="url(#pf965aa13f3)" d="M 25.496454 86.024336 
L 33.979018 86.024336 
" style="fill:none;stroke:#000000;stroke-width:0.5;"/>
    <path clip-path="url(#pf965aa13f3)" d="M 26.754659 71.566163 
L 41.271982 71.566163 
" style="fill:none;stroke:#000000;stroke-width:0.5;"/>
    <path clip-path="url(#pf965aa13f3)" d="M 33.388284 50.774734 
L 46.441746 50.774734 
" style="fill:none;stroke:#000000;stroke-width:0.5;"/>
    <path clip-path="url(#pf965aa13f3)" d="M 20.576964 37.763143 
L 57.994087 37.763143 
" style="fill:none;stroke:#000000;stroke-width:0.5;"/>
    <path clip-path="url(#pf965aa13f3)" d="M 33.728351 56.428532 
L 47.883693 56.428532 
" style="fill:none;stroke:#000000;stroke-width:0.5;"/>
   </g>
   <g id="LineCollection_2">
    <path clip-path="url(#pf965aa13f3)" d="M 32.192289 76.233084 
L 32.192289 69.239824 
" style="fill:none;stroke:#000000;stroke-width:0.5;"/>
    <path clip-path="url(#pf965aa13f3)" d="M 44.940907 55.585795 
L 44.940907 30.446674 
" style="fill:none;stroke:#000000;stroke-width:0.5;"/>
    <path clip-path="url(#pf965aa13f3)" d="M 31.28903 77.927201 
L 31.28903 66.844548 
" style="fill:none;stroke:#000000;stroke-width:0.5;"/>
    <path clip-path="url(#pf965aa13f3)" d="M 36.39114 70.003781 
L 36.39114 35.559603 
" style="fill:none;stroke:#000000;stroke-width:0.5;"/>
    <path clip-path="url(#pf965aa13f3)" d="M 33.748266 74.618935 
L 33.748266 60.596843 
" style="fill:none;stroke:#000000;stroke-width:0.5;"/>
    <path clip-path="url(#pf965aa13f3)" d="M 42.866902 76.593257 
L 42.866902 61.126087 
" style="fill:none;stroke:#000000;stroke-width:0.5;"/>
    <path clip-path="url(#pf965aa13f3)" d="M 29.843902 73.639837 
L 29.843902 63.930529 
" style="fill:none;stroke:#000000;stroke-width:0.5;"/>
    <path clip-path="url(#pf965aa13f3)" d="M 40.023355 43.314194 
L 40.023355 36.881955 
" style="fill:none;stroke:#000000;stroke-width:0.5;"/>
    <path clip-path="url(#pf965aa13f3)" d="M 38.729274 65.309917 
L 38.729274 51.541286 
" style="fill:none;stroke:#000000;stroke-width:0.5;"/>
    <path clip-path="url(#pf965aa13f3)" d="M 27 94.079202 
L 27 81.028996 
" style="fill:none;stroke:#000000;stroke-width:0.5;"/>
    <path clip-path="url(#pf965aa13f3)" d="M 42.119655 53.786751 
L 42.119655 27.825069 
" style="fill:none;stroke:#000000;stroke-width:0.5;"/>
    <path clip-path="url(#pf965aa13f3)" d="M 30.231886 78.379979 
L 30.231886 70.63795 
" style="fill:none;stroke:#000000;stroke-width:0.5;"/>
    <path clip-path="url(#pf965aa13f3)" d="M 31.290246 82.654264 
L 31.290246 73.123181 
" style="fill:none;stroke:#000000;stroke-width:0.5;"/>
    <path clip-path="url(#pf965aa13f3)" d="M 31.796214 71.020501 
L 31.796214 56.142062 
" style="fill:none;stroke:#000000;stroke-width:0.5;"/>
    <path clip-path="url(#pf965aa13f3)" d="M 37.199541 85.923893 
L 37.199541 76.218872 
" style="fill:none;stroke:#000000;stroke-width:0.5;"/>
    <path clip-path="url(#pf965aa13f3)" d="M 37.00361 73.312504 
L 37.00361 53.095258 
" style="fill:none;stroke:#000000;stroke-width:0.5;"/>
    <path clip-path="url(#pf965aa13f3)" d="M 31.252744 88.74378 
L 31.252744 79.889812 
" style="fill:none;stroke:#000000;stroke-width:0.5;"/>
    <path clip-path="url(#pf965aa13f3)" d="M 28.800758 75.994373 
L 28.800758 75.994373 
" style="fill:none;stroke:#000000;stroke-width:0.5;"/>
    <path clip-path="url(#pf965aa13f3)" d="M 34.036908 73.715246 
L 34.036908 52.889332 
" style="fill:none;stroke:#000000;stroke-width:0.5;"/>
    <path clip-path="url(#pf965aa13f3)" d="M 34.500846 73.062567 
L 34.500846 58.440283 
" style="fill:none;stroke:#000000;stroke-width:0.5;"/>
    <path clip-path="url(#pf965aa13f3)" d="M 29.838703 78.975611 
L 29.838703 57.769212 
" style="fill:none;stroke:#000000;stroke-width:0.5;"/>
    <path clip-path="url(#pf965aa13f3)" d="M 37.69244 58.682101 
L 37.69244 45.851765 
" style="fill:none;stroke:#000000;stroke-width:0.5;"/>
    <path clip-path="url(#pf965aa13f3)" d="M 32.067768 67.422826 
L 32.067768 62.126521 
" style="fill:none;stroke:#000000;stroke-width:0.5;"/>
    <path clip-path="url(#pf965aa13f3)" d="M 52.164774 61.439224 
L 52.164774 40.29339 
" style="fill:none;stroke:#000000;stroke-width:0.5;"/>
    <path clip-path="url(#pf965aa13f3)" d="M 30.437646 81.024271 
L 30.437646 77.654115 
" style="fill:none;stroke:#000000;stroke-width:0.5;"/>
    <path clip-path="url(#pf965aa13f3)" d="M 29.737736 89.997964 
L 29.737736 82.050709 
" style="fill:none;stroke:#000000;stroke-width:0.5;"/>
    <path clip-path="url(#pf965aa13f3)" d="M 34.01332 79.414451 
L 34.01332 63.717875 
" style="fill:none;stroke:#000000;stroke-width:0.5;"/>
    <path clip-path="url(#pf965aa13f3)" d="M 39.915015 58.220477 
L 39.915015 43.328991 
" style="fill:none;stroke:#000000;stroke-width:0.5;"/>
    <path clip-path="url(#pf965aa13f3)" d="M 39.285525 58.703467 
L 39.285525 16.822819 
" style="fill:none;stroke:#000000;stroke-width:0.5;"/>
    <path clip-path="url(#pf965aa13f3)" d="M 40.806022 61.8731 
L 40.806022 50.983964 
" style="fill:none;stroke:#000000;stroke-width:0.5;"/>
   </g>
   <g id="line2d_1">
    <path clip-path="url(#pf965aa13f3)" d="M 27 79.796252 
L 27.768595 78.410194 
L 28.53719 77.024135 
L 29.305785 75.638076 
L 30.07438 74.252017 
L 30.842975 72.865959 
L 31.61157 71.4799 
L 32.380165 70.093841 
L 33.14876 68.707782 
L 33.917355 67.321724 
L 34.68595 65.935665 
L 35.454545 64.549606 
L 36.22314 63.163547 
L 36.991736 61.777489 
L 37.760331 60.39143 
L 38.528926 59.005371 
L 39.297521 57.619312 
L 40.066116 56.233254 
L 40.834711 54.847195 
L 41.603306 53.461136 
L 42.371901 52.075077 
L 43.140496 50.689018 
L 43.909091 49.30296 
L 44.677686 47.916901 
L 45.446281 46.530842 
L 46.214876 45.144783 
L 46.983471 43.758725 
L 47.752066 42.372666 
L 48.520661 40.986607 
L 49.289256 39.600548 
L 50.057851 38.21449 
L 50.826446 36.828431 
L 51.595041 35.442372 
L 52.363636 34.056313 
L 53.132231 32.670255 
L 53.900826 31.284196 
L 54.669421 29.898137 
L 55.438017 28.512078 
L 56.206612 27.12602 
L 56.975207 25.739961 
L 57.743802 24.353902 
L 58.512397 22.967843 
L 59.280992 21.581785 
L 60.049587 20.195726 
L 60.818182 18.809667 
L 61.586777 17.423608 
L 62.355372 16.03755 
L 63.123967 14.651491 
L 63.892562 13.265432 
L 64.661157 11.879373 
L 65.429752 10.493314 
L 66.198347 9.107256 
L 66.966942 7.721197 
L 67.735537 6.335138 
L 68.504132 4.949079 
L 69.272727 3.563021 
L 70.041322 2.176962 
L 70.809917 0.790903 
L 71.578512 -0.595156 
L 71.803006 -1 
" style="fill:none;stroke:#000000;stroke-dasharray:1.85,0.8;stroke-dashoffset:0;stroke-width:0.5;"/>
   </g>
   <g id="line2d_2">
    <defs>
     <path d="M 0 3 
C 0.795609 3 1.55874 2.683901 2.12132 2.12132 
C 2.683901 1.55874 3 0.795609 3 0 
C 3 -0.795609 2.683901 -1.55874 2.12132 -2.12132 
C 1.55874 -2.683901 0.795609 -3 0 -3 
C -0.795609 -3 -1.55874 -2.683901 -2.12132 -2.12132 
C -2.683901 -1.55874 -3 -0.795609 -3 0 
C -3 0.795609 -2.683901 1.55874 -2.12132 2.12132 
C -1.55874 2.683901 -0.795609 3 0 3 
z
" id="m2d54881265" style="stroke:#000000;"/>
    </defs>
    <g clip-path="url(#pf965aa13f3)">
     <use style="stroke:#000000;" x="32.192289" xlink:href="#m2d54881265" y="72.736454"/>
     <use style="stroke:#000000;" x="44.940907" xlink:href="#m2d54881265" y="43.016234"/>
     <use style="stroke:#000000;" x="31.28903" xlink:href="#m2d54881265" y="72.385875"/>
     <use style="stroke:#000000;" x="36.39114" xlink:href="#m2d54881265" y="52.781692"/>
     <use style="stroke:#000000;" x="33.748266" xlink:href="#m2d54881265" y="67.607889"/>
     <use style="stroke:#000000;" x="42.866902" xlink:href="#m2d54881265" y="68.859672"/>
     <use style="stroke:#000000;" x="29.843902" xlink:href="#m2d54881265" y="68.785183"/>
     <use style="stroke:#000000;" x="40.023355" xlink:href="#m2d54881265" y="40.098075"/>
     <use style="stroke:#000000;" x="38.729274" xlink:href="#m2d54881265" y="58.425601"/>
     <use style="stroke:#000000;" x="27" xlink:href="#m2d54881265" y="87.554099"/>
     <use style="stroke:#000000;" x="42.119655" xlink:href="#m2d54881265" y="40.80591"/>
     <use style="stroke:#000000;" x="30.231886" xlink:href="#m2d54881265" y="74.508965"/>
     <use style="stroke:#000000;" x="31.290246" xlink:href="#m2d54881265" y="77.888723"/>
     <use style="stroke:#000000;" x="31.796214" xlink:href="#m2d54881265" y="63.581282"/>
     <use style="stroke:#000000;" x="37.199541" xlink:href="#m2d54881265" y="81.071382"/>
     <use style="stroke:#000000;" x="37.00361" xlink:href="#m2d54881265" y="63.203881"/>
     <use style="stroke:#000000;" x="31.252744" xlink:href="#m2d54881265" y="84.316796"/>
     <use style="stroke:#000000;" x="28.800758" xlink:href="#m2d54881265" y="75.994373"/>
     <use style="stroke:#000000;" x="34.036908" xlink:href="#m2d54881265" y="63.302289"/>
     <use style="stroke:#000000;" x="34.500846" xlink:href="#m2d54881265" y="65.751425"/>
     <use style="stroke:#000000;" x="29.838703" xlink:href="#m2d54881265" y="68.372412"/>
     <use style="stroke:#000000;" x="37.69244" xlink:href="#m2d54881265" y="52.266933"/>
     <use style="stroke:#000000;" x="32.067768" xlink:href="#m2d54881265" y="64.774674"/>
     <use style="stroke:#000000;" x="52.164774" xlink:href="#m2d54881265" y="50.866307"/>
     <use style="stroke:#000000;" x="30.437646" xlink:href="#m2d54881265" y="79.339193"/>
     <use style="stroke:#000000;" x="29.737736" xlink:href="#m2d54881265" y="86.024336"/>
     <use style="stroke:#000000;" x="34.01332" xlink:href="#m2d54881265" y="71.566163"/>
     <use style="stroke:#000000;" x="39.915015" xlink:href="#m2d54881265" y="50.774734"/>
     <use style="stroke:#000000;" x="39.285525" xlink:href="#m2d54881265" y="37.763143"/>
     <use style="stroke:#000000;" x="40.806022" xlink:href="#m2d54881265" y="56.428532"/>
    </g>
   </g>
   <g id="patch_3">
    <path d="M 27 94.5 
L 27 12.96 
" style="fill:none;stroke:#000000;stroke-linecap:square;stroke-linejoin:miter;"/>
   </g>
   <g id="patch_4">
    <path d="M 27 94.5 
L 103.090909 94.5 
" style="fill:none;stroke:#000000;stroke-linecap:square;stroke-linejoin:miter;"/>
   </g>
   <g id="matplotlib.axis_1">
    <g id="xtick_1">
     <g id="line2d_3"/>
     <g id="text_1">
      <text style="font-family:Arial;font-size:8px;font-style:normal;font-weight:normal;text-anchor:middle;" transform="rotate(-0, 27, 103.72625)" x="27" y="103.72625">0</text>
     </g>
    </g>
    <g id="xtick_2">
     <g id="line2d_4"/>
     <g id="text_2">
      <text style="font-family:Arial;font-size:8px;font-style:normal;font-weight:normal;text-anchor:middle;" transform="rotate(-0, 64.699127, 103.72625)" x="64.699127" y="103.72625">5</text>
     </g>
    </g>
    <g id="xtick_3">
     <g id="line2d_5"/>
     <g id="text_3">
      <text style="font-family:Arial;font-size:8px;font-style:normal;font-weight:normal;text-anchor:middle;" transform="rotate(-0, 102.398254, 103.72625)" x="102.398254" y="103.72625">10</text>
     </g>
    </g>
    <g id="text_4">
     <text style="font-family:Arial;font-size:10px;font-style:normal;font-weight:normal;text-anchor:middle;" transform="rotate(-0, 65.045455, 116.474063)" x="65.045455" y="116.474063">Exc</text>
    </g>
   </g>
   <g id="matplotlib.axis_2">
    <g id="ytick_1">
     <g id="line2d_6"/>
     <g id="text_5">
      <text style="font-family:Arial;font-size:8px;font-style:normal;font-weight:normal;text-anchor:end;" transform="rotate(-0, 23.5, 97.363125)" x="23.5" y="97.363125">0.0</text>
     </g>
    </g>
    <g id="ytick_2">
     <g id="line2d_7"/>
     <g id="text_6">
      <text style="font-family:Arial;font-size:8px;font-style:normal;font-weight:normal;text-anchor:end;" transform="rotate(-0, 23.5, 77.16369)" x="23.5" y="77.16369">2.5</text>
     </g>
    </g>
    <g id="ytick_3">
     <g id="line2d_8"/>
     <g id="text_7">
      <text style="font-family:Arial;font-size:8px;font-style:normal;font-weight:normal;text-anchor:end;" transform="rotate(-0, 23.5, 56.964254)" x="23.5" y="56.964254">5.0</text>
     </g>
    </g>
    <g id="ytick_4">
     <g id="line2d_9"/>
     <g id="text_8">
      <text style="font-family:Arial;font-size:8px;font-style:normal;font-weight:normal;text-anchor:end;" transform="rotate(-0, 23.5, 36.764819)" x="23.5" y="36.764819">7.5</text>
     </g>
    </g>
    <g id="ytick_5">
     <g id="line2d_10"/>
     <g id="text_9">
      <text style="font-family:Arial;font-size:8px;font-style:normal;font-weight:normal;text-anchor:end;" transform="rotate(-0, 23.5, 16.565383)" x="23.5" y="16.565383">10.0</text>
     </g>
    </g>
    <g id="text_10">
     <text style="font-family:Arial;font-size:10px;font-style:normal;font-weight:normal;text-anchor:middle;" transform="rotate(-90, 1.94375, 53.73)" x="1.94375" y="53.73">Inh</text>
    </g>
   </g>
   <g id="legend_1">
    <g id="line2d_11">
     <path d="M 36 75.622656 
L 56 75.622656 
" style="fill:none;stroke:#000000;stroke-dasharray:1.85,0.8;stroke-dashoffset:0;stroke-width:0.5;"/>
    </g>
    <g id="line2d_12"/>
    <g id="text_11">
     <!-- $R^2$ 0.54 -->
     <g transform="translate(64 72.875)">
      <text>
       <tspan style="font-family:DejaVu Sans;font-size:10px;font-style:oblique;font-weight:oblique;" x="0" y="-0.9765625">R</tspan>
       <tspan style="font-family:DejaVu Sans;font-size:7px;font-style:book;font-weight:book;" x="7.650794" y="-4.8046875">2</tspan>
       <tspan style="font-family:Arial;font-size:10px;font-style:regular;font-weight:regular;" x="12.377845 15.156165 20.717689 23.496009 29.057533" y="-0.9765625"> 0.54</tspan>
      </text>
     </g>
     <text style="font-family:Arial;font-size:10px;font-style:normal;font-weight:normal;" transform="translate(64 83.4875)"> slope 1.68</text>
    </g>
   </g>
  </g>
  <g id="axes_2">
   <g id="patch_5">
    <path d="M 118.309091 94.5 
L 194.4 94.5 
L 194.4 12.96 
L 118.309091 12.96 
z
" style="fill:#ffffff;"/>
   </g>
   <g id="PathCollection_1">
    <defs>
     <path d="M 0 2.44949 
C 0.649612 2.44949 1.272706 2.191396 1.732051 1.732051 
C 2.191396 1.272706 2.44949 0.649612 2.44949 0 
C 2.44949 -0.649612 2.191396 -1.272706 1.732051 -1.732051 
C 1.272706 -2.191396 0.649612 -2.44949 0 -2.44949 
C -0.649612 -2.44949 -1.272706 -2.191396 -1.732051 -1.732051 
C -2.191396 -1.272706 -2.44949 -0.649612 -2.44949 0 
C -2.44949 0.649612 -2.191396 1.272706 -1.732051 1.732051 
C -1.272706 2.191396 -0.649612 2.44949 0 2.44949 
z
" id="md3e95560a5" style="stroke:#000000;"/>
    </defs>
    <g clip-path="url(#pcc8aa9296b)">
     <use style="stroke:#000000;" x="141.030489" xlink:href="#md3e95560a5" y="81.619684"/>
     <use style="stroke:#000000;" x="190.308291" xlink:href="#md3e95560a5" y="48.198303"/>
     <use style="stroke:#000000;" x="133.147759" xlink:href="#md3e95560a5" y="74.087766"/>
     <use style="stroke:#000000;" x="164.634884" xlink:href="#md3e95560a5" y="31.060078"/>
     <use style="stroke:#000000;" x="140.388222" xlink:href="#md3e95560a5" y="68.673852"/>
     <use style="stroke:#000000;" x="137.618742" xlink:href="#md3e95560a5" y="66.012282"/>
     <use style="stroke:#000000;" x="131.32555" xlink:href="#md3e95560a5" y="76.617218"/>
     <use style="stroke:#000000;" x="152.309848" xlink:href="#md3e95560a5" y="82.652984"/>
     <use style="stroke:#000000;" x="170.222183" xlink:href="#md3e95560a5" y="69.140681"/>
     <use style="stroke:#000000;" x="118.309091" xlink:href="#md3e95560a5" y="70.463889"/>
     <use style="stroke:#000000;" x="152.746698" xlink:href="#md3e95560a5" y="46.683296"/>
     <use style="stroke:#000000;" x="129.10714" xlink:href="#md3e95560a5" y="80.240588"/>
     <use style="stroke:#000000;" x="133.539854" xlink:href="#md3e95560a5" y="76.945475"/>
     <use style="stroke:#000000;" x="125.963942" xlink:href="#md3e95560a5" y="67.096617"/>
     <use style="stroke:#000000;" x="136.513938" xlink:href="#md3e95560a5" y="76.625113"/>
     <use style="stroke:#000000;" x="158.809255" xlink:href="#md3e95560a5" y="57.263504"/>
     <use style="stroke:#000000;" x="133.173048" xlink:href="#md3e95560a5" y="78.192599"/>
     <use style="stroke:#000000;" x="134.55739" xlink:href="#md3e95560a5" y="94.5"/>
     <use style="stroke:#000000;" x="150.596232" xlink:href="#md3e95560a5" y="56.142447"/>
     <use style="stroke:#000000;" x="152.894057" xlink:href="#md3e95560a5" y="67.568408"/>
     <use style="stroke:#000000;" x="129.277214" xlink:href="#md3e95560a5" y="55.441664"/>
     <use style="stroke:#000000;" x="147.225627" xlink:href="#md3e95560a5" y="70.86885"/>
     <use style="stroke:#000000;" x="126.714517" xlink:href="#md3e95560a5" y="84.745169"/>
     <use style="stroke:#000000;" x="146.95052" xlink:href="#md3e95560a5" y="55.553214"/>
     <use style="stroke:#000000;" x="129.440991" xlink:href="#md3e95560a5" y="88.292785"/>
     <use style="stroke:#000000;" x="133.932434" xlink:href="#md3e95560a5" y="79.8626"/>
     <use style="stroke:#000000;" x="145.047364" xlink:href="#md3e95560a5" y="65.589756"/>
     <use style="stroke:#000000;" x="142.351197" xlink:href="#md3e95560a5" y="67.072586"/>
     <use style="stroke:#000000;" x="187.224638" xlink:href="#md3e95560a5" y="17.36345"/>
     <use style="stroke:#000000;" x="144.380659" xlink:href="#md3e95560a5" y="74.444189"/>
    </g>
   </g>
   <g id="line2d_13">
    <path clip-path="url(#pcc8aa9296b)" d="M 118.309091 84.916106 
L 119.077686 84.398903 
L 119.846281 83.8817 
L 120.614876 83.364497 
L 121.383471 82.847294 
L 122.152066 82.330091 
L 122.920661 81.812888 
L 123.689256 81.295685 
L 124.457851 80.778482 
L 125.226446 80.261278 
L 125.995041 79.744075 
L 126.763636 79.226872 
L 127.532231 78.709669 
L 128.300826 78.192466 
L 129.069421 77.675263 
L 129.838017 77.15806 
L 130.606612 76.640857 
L 131.375207 76.123654 
L 132.143802 75.606451 
L 132.912397 75.089248 
L 133.680992 74.572045 
L 134.449587 74.054841 
L 135.218182 73.537638 
L 135.986777 73.020435 
L 136.755372 72.503232 
L 137.523967 71.986029 
L 138.292562 71.468826 
L 139.061157 70.951623 
L 139.829752 70.43442 
L 140.598347 69.917217 
L 141.366942 69.400014 
L 142.135537 68.882811 
L 142.904132 68.365607 
L 143.672727 67.848404 
L 144.441322 67.331201 
L 145.209917 66.813998 
L 145.978512 66.296795 
L 146.747107 65.779592 
L 147.515702 65.262389 
L 148.284298 64.745186 
L 149.052893 64.227983 
L 149.821488 63.71078 
L 150.590083 63.193577 
L 151.358678 62.676374 
L 152.127273 62.15917 
L 152.895868 61.641967 
L 153.664463 61.124764 
L 154.433058 60.607561 
L 155.201653 60.090358 
L 155.970248 59.573155 
L 156.738843 59.055952 
L 157.507438 58.538749 
L 158.276033 58.021546 
L 159.044628 57.504343 
L 159.813223 56.98714 
L 160.581818 56.469937 
L 161.350413 55.952733 
L 162.119008 55.43553 
L 162.887603 54.918327 
L 163.656198 54.401124 
L 164.424793 53.883921 
L 165.193388 53.366718 
L 165.961983 52.849515 
L 166.730579 52.332312 
L 167.499174 51.815109 
L 168.267769 51.297906 
L 169.036364 50.780703 
L 169.804959 50.263499 
L 170.573554 49.746296 
L 171.342149 49.229093 
L 172.110744 48.71189 
L 172.879339 48.194687 
L 173.647934 47.677484 
L 174.416529 47.160281 
L 175.185124 46.643078 
L 175.953719 46.125875 
L 176.722314 45.608672 
L 177.490909 45.091469 
L 178.259504 44.574266 
L 179.028099 44.057062 
L 179.796694 43.539859 
L 180.565289 43.022656 
L 181.333884 42.505453 
L 182.102479 41.98825 
L 182.871074 41.471047 
L 183.639669 40.953844 
L 184.408264 40.436641 
L 185.17686 39.919438 
L 185.945455 39.402235 
L 186.71405 38.885032 
L 187.482645 38.367828 
L 188.25124 37.850625 
L 189.019835 37.333422 
L 189.78843 36.816219 
L 190.557025 36.299016 
L 191.32562 35.781813 
L 192.094215 35.26461 
L 192.86281 34.747407 
L 193.631405 34.230204 
L 194.4 33.713001 
" style="fill:none;stroke:#000000;stroke-dasharray:1.85,0.8;stroke-dashoffset:0;stroke-width:0.5;"/>
   </g>
   <g id="patch_6">
    <path d="M 118.309091 94.5 
L 118.309091 12.96 
" style="fill:none;stroke:#000000;stroke-linecap:square;stroke-linejoin:miter;"/>
   </g>
   <g id="patch_7">
    <path d="M 118.309091 94.5 
L 194.4 94.5 
" style="fill:none;stroke:#000000;stroke-linecap:square;stroke-linejoin:miter;"/>
   </g>
   <g id="matplotlib.axis_3">
    <g id="xtick_4">
     <g id="line2d_14"/>
     <g id="text_12">
      <text style="font-family:Arial;font-size:8px;font-style:normal;font-weight:normal;text-anchor:middle;" transform="rotate(-0, 118.309091, 103.72625)" x="118.309091" y="103.72625">0</text>
     </g>
    </g>
    <g id="xtick_5">
     <g id="line2d_15"/>
     <g id="text_13">
      <text style="font-family:Arial;font-size:8px;font-style:normal;font-weight:normal;text-anchor:middle;" transform="rotate(-0, 146.08307, 103.72625)" x="146.08307" y="103.72625">1</text>
     </g>
    </g>
    <g id="xtick_6">
     <g id="line2d_16"/>
     <g id="text_14">
      <text style="font-family:Arial;font-size:8px;font-style:normal;font-weight:normal;text-anchor:middle;" transform="rotate(-0, 173.857049, 103.72625)" x="173.857049" y="103.72625">2</text>
     </g>
    </g>
    <g id="text_15">
     <!-- $\sigma$(Exc) -->
     <g transform="translate(141.504545 116.61625)">
      <text>
       <tspan style="font-family:DejaVu Sans;font-size:10px;font-style:oblique;font-weight:oblique;" x="0" y="-0.71875">σ</tspan>
       <tspan style="font-family:Arial;font-size:10px;font-style:regular;font-weight:regular;" x="6.337891 9.667969 16.337891 21.337891 26.337891" y="-0.71875">(Exc)</tspan>
      </text>
     </g>
    </g>
   </g>
   <g id="matplotlib.axis_4">
    <g id="ytick_6">
     <g id="line2d_17"/>
     <g id="text_16">
      <text style="font-family:Arial;font-size:8px;font-style:normal;font-weight:normal;text-anchor:end;" transform="rotate(-0, 114.809091, 97.363125)" x="114.809091" y="97.363125">0</text>
     </g>
    </g>
    <g id="ytick_7">
     <g id="line2d_18"/>
     <g id="text_17">
      <text style="font-family:Arial;font-size:8px;font-style:normal;font-weight:normal;text-anchor:end;" transform="rotate(-0, 114.809091, 67.600171)" x="114.809091" y="67.600171">1</text>
     </g>
    </g>
    <g id="ytick_8">
     <g id="line2d_19"/>
     <g id="text_18">
      <text style="font-family:Arial;font-size:8px;font-style:normal;font-weight:normal;text-anchor:end;" transform="rotate(-0, 114.809091, 37.837217)" x="114.809091" y="37.837217">2</text>
     </g>
    </g>
    <g id="text_19">
     <!-- $\sigma$(Inh) -->
     <g transform="translate(104.160341 67.18)rotate(-90)">
      <text>
       <tspan style="font-family:DejaVu Sans;font-size:10px;font-style:oblique;font-weight:oblique;" x="0" y="-0.71875">σ</tspan>
       <tspan style="font-family:Arial;font-size:10px;font-style:regular;font-weight:regular;" x="6.337891 9.667969 12.446289 18.007812 23.569336" y="-0.71875">(Inh)</tspan>
      </text>
     </g>
    </g>
   </g>
   <g id="legend_2">
    <g id="line2d_20">
     <path d="M 108.478125 31.995156 
L 128.478125 31.995156 
" style="fill:none;stroke:#000000;stroke-dasharray:1.85,0.8;stroke-dashoffset:0;stroke-width:0.5;"/>
    </g>
    <g id="line2d_21"/>
    <g id="text_20">
     <!-- $R^2$ 0.48 -->
     <g transform="translate(136.478125 29.2475)">
      <text>
       <tspan style="font-family:DejaVu Sans;font-size:10px;font-style:oblique;font-weight:oblique;" x="0" y="-0.9765625">R</tspan>
       <tspan style="font-family:DejaVu Sans;font-size:7px;font-style:book;font-weight:book;" x="7.650794" y="-4.8046875">2</tspan>
       <tspan style="font-family:Arial;font-size:10px;font-style:regular;font-weight:regular;" x="12.377845 15.156165 20.717689 23.496009 29.057533" y="-0.9765625"> 0.48</tspan>
      </text>
     </g>
     <text style="font-family:Arial;font-size:10px;font-style:normal;font-weight:normal;" transform="translate(136.478125 39.86)"> slope 0.63</text>
    </g>
   </g>
  </g>
 </g>
 <defs>
  <clipPath id="pf965aa13f3">
   <rect height="81.54" width="76.090909" x="27" y="12.96"/>
  </clipPath>
  <clipPath id="pcc8aa9296b">
   <rect height="81.54" width="76.090909" x="118.309091" y="12.96"/>
  </clipPath>
 </defs>
</svg>
