<?xml version="1.0" encoding="utf-8" standalone="no"?>
<!DOCTYPE svg PUBLIC "-//W3C//DTD SVG 1.1//EN"
  "http://www.w3.org/Graphics/SVG/1.1/DTD/svg11.dtd">
<!-- Created with matplotlib (http://matplotlib.org/) -->
<svg height="108pt" version="1.1" viewBox="0 0 216 108" width="216pt" xmlns="http://www.w3.org/2000/svg" xmlns:xlink="http://www.w3.org/1999/xlink">
 <defs>
  <style type="text/css">
*{stroke-linecap:butt;stroke-linejoin:round;}
  </style>
 </defs>
 <g id="figure_1">
  <g id="patch_1">
   <path d="M 0 108 
L 216 108 
L 216 0 
L 0 0 
z
" style="fill:#ffffff;"/>
  </g>
  <g id="axes_1">
   <g id="patch_2">
    <path d="M 27 94.5 
L 103.090909 94.5 
L 103.090909 12.96 
L 27 12.96 
z
" style="fill:#ffffff;"/>
   </g>
   <g id="LineCollection_1">
    <path clip-path="url(#p998e258ed1)" d="M 27.757188 55.927893 
L 43.701813 55.927893 
" style="fill:none;stroke:#000000;stroke-width:0.5;"/>
    <path clip-path="url(#p998e258ed1)" d="M 35.977377 31.686336 
L 55.280206 31.686336 
" style="fill:none;stroke:#000000;stroke-width:0.5;"/>
    <path clip-path="url(#p998e258ed1)" d="M 34.211273 35.329254 
L 53.22109 35.329254 
" style="fill:none;stroke:#000000;stroke-width:0.5;"/>
    <path clip-path="url(#p998e258ed1)" d="M 24.518464 65.719252 
L 38.789414 65.719252 
" style="fill:none;stroke:#000000;stroke-width:0.5;"/>
    <path clip-path="url(#p998e258ed1)" d="M 27.370434 71.576694 
L 36.917514 71.576694 
" style="fill:none;stroke:#000000;stroke-width:0.5;"/>
    <path clip-path="url(#p998e258ed1)" d="M 28.59951 54.967099 
L 47.341408 54.967099 
" style="fill:none;stroke:#000000;stroke-width:0.5;"/>
    <path clip-path="url(#p998e258ed1)" d="M 28.544725 46.331014 
L 57.859745 46.331014 
" style="fill:none;stroke:#000000;stroke-width:0.5;"/>
    <path clip-path="url(#p998e258ed1)" d="M 26.974411 64.043908 
L 41.771158 64.043908 
" style="fill:none;stroke:#000000;stroke-width:0.5;"/>
    <path clip-path="url(#p998e258ed1)" d="M 28.062155 60.047165 
L 38.192036 60.047165 
" style="fill:none;stroke:#000000;stroke-width:0.5;"/>
    <path clip-path="url(#p998e258ed1)" d="M 24.55122 59.337643 
L 49.724545 59.337643 
" style="fill:none;stroke:#000000;stroke-width:0.5;"/>
    <path clip-path="url(#p998e258ed1)" d="M 24.68366 72.551089 
L 44.300137 72.551089 
" style="fill:none;stroke:#000000;stroke-width:0.5;"/>
    <path clip-path="url(#p998e258ed1)" d="M 24.8395 66.143467 
L 41.362699 66.143467 
" style="fill:none;stroke:#000000;stroke-width:0.5;"/>
    <path clip-path="url(#p998e258ed1)" d="M 23.744047 24.669963 
L 52.247269 24.669963 
" style="fill:none;stroke:#000000;stroke-width:0.5;"/>
    <path clip-path="url(#p998e258ed1)" d="M 24.637888 45.751795 
L 46.854987 45.751795 
" style="fill:none;stroke:#000000;stroke-width:0.5;"/>
    <path clip-path="url(#p998e258ed1)" d="M 32.162835 41.418669 
L 42.446687 41.418669 
" style="fill:none;stroke:#000000;stroke-width:0.5;"/>
    <path clip-path="url(#p998e258ed1)" d="M 27.588145 57.648267 
L 44.21893 57.648267 
" style="fill:none;stroke:#000000;stroke-width:0.5;"/>
    <path clip-path="url(#p998e258ed1)" d="M 33.179754 64.113445 
L 51.73747 64.113445 
" style="fill:none;stroke:#000000;stroke-width:0.5;"/>
    <path clip-path="url(#p998e258ed1)" d="M 26.929315 79.234325 
L 34.585434 79.234325 
" style="fill:none;stroke:#000000;stroke-width:0.5;"/>
    <path clip-path="url(#p998e258ed1)" d="M 25.830952 81.699963 
L 29.782095 81.699963 
" style="fill:none;stroke:#000000;stroke-width:0.5;"/>
    <path clip-path="url(#p998e258ed1)" d="M 27.064995 63.374687 
L 41.915429 63.374687 
" style="fill:none;stroke:#000000;stroke-width:0.5;"/>
    <path clip-path="url(#p998e258ed1)" d="M 24.580848 60.83511 
L 39.531011 60.83511 
" style="fill:none;stroke:#000000;stroke-width:0.5;"/>
    <path clip-path="url(#p998e258ed1)" d="M 29.268523 61.378487 
L 40.443197 61.378487 
" style="fill:none;stroke:#000000;stroke-width:0.5;"/>
    <path clip-path="url(#p998e258ed1)" d="M 23.890478 59.009244 
L 40.763872 59.009244 
" style="fill:none;stroke:#000000;stroke-width:0.5;"/>
    <path clip-path="url(#p998e258ed1)" d="M 25.865061 90.648481 
L 29.700923 90.648481 
" style="fill:none;stroke:#000000;stroke-width:0.5;"/>
    <path clip-path="url(#p998e258ed1)" d="M 29.655519 51.001807 
L 43.754547 51.001807 
" style="fill:none;stroke:#000000;stroke-width:0.5;"/>
    <path clip-path="url(#p998e258ed1)" d="M 29.587169 26.915498 
L 44.599459 26.915498 
" style="fill:none;stroke:#000000;stroke-width:0.5;"/>
    <path clip-path="url(#p998e258ed1)" d="M 26.337928 56.662669 
L 46.170275 56.662669 
" style="fill:none;stroke:#000000;stroke-width:0.5;"/>
    <path clip-path="url(#p998e258ed1)" d="M 22.81427 78.809938 
L 36.961182 78.809938 
" style="fill:none;stroke:#000000;stroke-width:0.5;"/>
    <path clip-path="url(#p998e258ed1)" d="M 27.957525 65.161156 
L 41.75407 65.161156 
" style="fill:none;stroke:#000000;stroke-width:0.5;"/>
    <path clip-path="url(#p998e258ed1)" d="M 24.307092 55.185291 
L 40.968622 55.185291 
" style="fill:none;stroke:#000000;stroke-width:0.5;"/>
   </g>
   <g id="LineCollection_2">
    <path clip-path="url(#p998e258ed1)" d="M 35.7295 65.463617 
L 35.7295 46.392168 
" style="fill:none;stroke:#000000;stroke-width:0.5;"/>
    <path clip-path="url(#p998e258ed1)" d="M 45.628791 44.367105 
L 45.628791 19.005567 
" style="fill:none;stroke:#000000;stroke-width:0.5;"/>
    <path clip-path="url(#p998e258ed1)" d="M 43.716182 46.394729 
L 43.716182 24.26378 
" style="fill:none;stroke:#000000;stroke-width:0.5;"/>
    <path clip-path="url(#p998e258ed1)" d="M 31.653939 71.335644 
L 31.653939 60.10286 
" style="fill:none;stroke:#000000;stroke-width:0.5;"/>
    <path clip-path="url(#p998e258ed1)" d="M 32.143974 75.571951 
L 32.143974 67.581437 
" style="fill:none;stroke:#000000;stroke-width:0.5;"/>
    <path clip-path="url(#p998e258ed1)" d="M 37.970459 69.246302 
L 37.970459 40.687896 
" style="fill:none;stroke:#000000;stroke-width:0.5;"/>
    <path clip-path="url(#p998e258ed1)" d="M 43.202235 53.800414 
L 43.202235 38.861615 
" style="fill:none;stroke:#000000;stroke-width:0.5;"/>
    <path clip-path="url(#p998e258ed1)" d="M 34.372785 72.82192 
L 34.372785 55.265896 
" style="fill:none;stroke:#000000;stroke-width:0.5;"/>
    <path clip-path="url(#p998e258ed1)" d="M 33.127095 62.080424 
L 33.127095 58.013907 
" style="fill:none;stroke:#000000;stroke-width:0.5;"/>
    <path clip-path="url(#p998e258ed1)" d="M 37.137882 70.193385 
L 37.137882 48.4819 
" style="fill:none;stroke:#000000;stroke-width:0.5;"/>
    <path clip-path="url(#p998e258ed1)" d="M 34.491898 81.709858 
L 34.491898 63.39232 
" style="fill:none;stroke:#000000;stroke-width:0.5;"/>
    <path clip-path="url(#p998e258ed1)" d="M 33.101099 70.513958 
L 33.101099 61.772977 
" style="fill:none;stroke:#000000;stroke-width:0.5;"/>
    <path clip-path="url(#p998e258ed1)" d="M 37.995658 32.590625 
L 37.995658 16.749302 
" style="fill:none;stroke:#000000;stroke-width:0.5;"/>
    <path clip-path="url(#p998e258ed1)" d="M 35.746438 52.384683 
L 35.746438 39.118906 
" style="fill:none;stroke:#000000;stroke-width:0.5;"/>
    <path clip-path="url(#p998e258ed1)" d="M 37.304761 48.229369 
L 37.304761 34.607969 
" style="fill:none;stroke:#000000;stroke-width:0.5;"/>
    <path clip-path="url(#p998e258ed1)" d="M 35.903537 62.162517 
L 35.903537 53.134017 
" style="fill:none;stroke:#000000;stroke-width:0.5;"/>
    <path clip-path="url(#p998e258ed1)" d="M 42.458612 77.578835 
L 42.458612 50.648055 
" style="fill:none;stroke:#000000;stroke-width:0.5;"/>
    <path clip-path="url(#p998e258ed1)" d="M 30.757375 81.335133 
L 30.757375 77.133516 
" style="fill:none;stroke:#000000;stroke-width:0.5;"/>
    <path clip-path="url(#p998e258ed1)" d="M 27.806524 85.328899 
L 27.806524 78.071028 
" style="fill:none;stroke:#000000;stroke-width:0.5;"/>
    <path clip-path="url(#p998e258ed1)" d="M 34.490212 71.044396 
L 34.490212 55.704977 
" style="fill:none;stroke:#000000;stroke-width:0.5;"/>
    <path clip-path="url(#p998e258ed1)" d="M 32.05593 63.606782 
L 32.05593 58.063438 
" style="fill:none;stroke:#000000;stroke-width:0.5;"/>
    <path clip-path="url(#p998e258ed1)" d="M 34.85586 75.32307 
L 34.85586 47.433905 
" style="fill:none;stroke:#000000;stroke-width:0.5;"/>
    <path clip-path="url(#p998e258ed1)" d="M 32.327175 70.300531 
L 32.327175 47.717957 
" style="fill:none;stroke:#000000;stroke-width:0.5;"/>
    <path clip-path="url(#p998e258ed1)" d="M 27.782992 92.535332 
L 27.782992 88.76163 
" style="fill:none;stroke:#000000;stroke-width:0.5;"/>
    <path clip-path="url(#p998e258ed1)" d="M 36.705033 55.611229 
L 36.705033 46.392384 
" style="fill:none;stroke:#000000;stroke-width:0.5;"/>
    <path clip-path="url(#p998e258ed1)" d="M 37.093314 35.76243 
L 37.093314 18.068565 
" style="fill:none;stroke:#000000;stroke-width:0.5;"/>
    <path clip-path="url(#p998e258ed1)" d="M 36.254101 63.309886 
L 36.254101 50.015453 
" style="fill:none;stroke:#000000;stroke-width:0.5;"/>
    <path clip-path="url(#p998e258ed1)" d="M 29.887726 86.496467 
L 29.887726 71.123409 
" style="fill:none;stroke:#000000;stroke-width:0.5;"/>
    <path clip-path="url(#p998e258ed1)" d="M 34.855798 71.370013 
L 34.855798 58.952299 
" style="fill:none;stroke:#000000;stroke-width:0.5;"/>
    <path clip-path="url(#p998e258ed1)" d="M 32.637857 66.556943 
L 32.637857 43.81364 
" style="fill:none;stroke:#000000;stroke-width:0.5;"/>
   </g>
   <g id="line2d_1">
    <path clip-path="url(#p998e258ed1)" d="M 27 80.671304 
L 27.768595 78.595685 
L 28.53719 76.520066 
L 29.305785 74.444447 
L 30.07438 72.368828 
L 30.842975 70.293209 
L 31.61157 68.21759 
L 32.380165 66.141971 
L 33.14876 64.066352 
L 33.917355 61.990733 
L 34.68595 59.915114 
L 35.454545 57.839495 
L 36.22314 55.763876 
L 36.991736 53.688257 
L 37.760331 51.612638 
L 38.528926 49.537019 
L 39.297521 47.4614 
L 40.066116 45.385781 
L 40.834711 43.310162 
L 41.603306 41.234543 
L 42.371901 39.158924 
L 43.140496 37.083304 
L 43.909091 35.007685 
L 44.677686 32.932066 
L 45.446281 30.856447 
L 46.214876 28.780828 
L 46.983471 26.705209 
L 47.752066 24.62959 
L 48.520661 22.553971 
L 49.289256 20.478352 
L 50.057851 18.402733 
L 50.826446 16.327114 
L 51.595041 14.251495 
L 52.363636 12.175876 
L 53.132231 10.100257 
L 53.900826 8.024638 
L 54.669421 5.949019 
L 55.438017 3.8734 
L 56.206612 1.797781 
L 56.975207 -0.277838 
L 57.242621 -1 
" style="fill:none;stroke:#000000;stroke-dasharray:1.85,0.8;stroke-dashoffset:0;stroke-width:0.5;"/>
   </g>
   <g id="line2d_2">
    <defs>
     <path d="M 0 3 
C 0.795609 3 1.55874 2.683901 2.12132 2.12132 
C 2.683901 1.55874 3 0.795609 3 0 
C 3 -0.795609 2.683901 -1.55874 2.12132 -2.12132 
C 1.55874 -2.683901 0.795609 -3 0 -3 
C -0.795609 -3 -1.55874 -2.683901 -2.12132 -2.12132 
C -2.683901 -1.55874 -3 -0.795609 -3 0 
C -3 0.795609 -2.683901 1.55874 -2.12132 2.12132 
C -1.55874 2.683901 -0.795609 3 0 3 
z
" id="m2a0f49dbf6" style="stroke:#000000;"/>
    </defs>
    <g clip-path="url(#p998e258ed1)">
     <use style="stroke:#000000;" x="35.7295" xlink:href="#m2a0f49dbf6" y="55.927893"/>
     <use style="stroke:#000000;" x="45.628791" xlink:href="#m2a0f49dbf6" y="31.686336"/>
     <use style="stroke:#000000;" x="43.716182" xlink:href="#m2a0f49dbf6" y="35.329254"/>
     <use style="stroke:#000000;" x="31.653939" xlink:href="#m2a0f49dbf6" y="65.719252"/>
     <use style="stroke:#000000;" x="32.143974" xlink:href="#m2a0f49dbf6" y="71.576694"/>
     <use style="stroke:#000000;" x="37.970459" xlink:href="#m2a0f49dbf6" y="54.967099"/>
     <use style="stroke:#000000;" x="43.202235" xlink:href="#m2a0f49dbf6" y="46.331014"/>
     <use style="stroke:#000000;" x="34.372785" xlink:href="#m2a0f49dbf6" y="64.043908"/>
     <use style="stroke:#000000;" x="33.127095" xlink:href="#m2a0f49dbf6" y="60.047165"/>
     <use style="stroke:#000000;" x="37.137882" xlink:href="#m2a0f49dbf6" y="59.337643"/>
     <use style="stroke:#000000;" x="34.491898" xlink:href="#m2a0f49dbf6" y="72.551089"/>
     <use style="stroke:#000000;" x="33.101099" xlink:href="#m2a0f49dbf6" y="66.143467"/>
     <use style="stroke:#000000;" x="37.995658" xlink:href="#m2a0f49dbf6" y="24.669963"/>
     <use style="stroke:#000000;" x="35.746438" xlink:href="#m2a0f49dbf6" y="45.751795"/>
     <use style="stroke:#000000;" x="37.304761" xlink:href="#m2a0f49dbf6" y="41.418669"/>
     <use style="stroke:#000000;" x="35.903537" xlink:href="#m2a0f49dbf6" y="57.648267"/>
     <use style="stroke:#000000;" x="42.458612" xlink:href="#m2a0f49dbf6" y="64.113445"/>
     <use style="stroke:#000000;" x="30.757375" xlink:href="#m2a0f49dbf6" y="79.234325"/>
     <use style="stroke:#000000;" x="27.806524" xlink:href="#m2a0f49dbf6" y="81.699963"/>
     <use style="stroke:#000000;" x="34.490212" xlink:href="#m2a0f49dbf6" y="63.374687"/>
     <use style="stroke:#000000;" x="32.05593" xlink:href="#m2a0f49dbf6" y="60.83511"/>
     <use style="stroke:#000000;" x="34.85586" xlink:href="#m2a0f49dbf6" y="61.378487"/>
     <use style="stroke:#000000;" x="32.327175" xlink:href="#m2a0f49dbf6" y="59.009244"/>
     <use style="stroke:#000000;" x="27.782992" xlink:href="#m2a0f49dbf6" y="90.648481"/>
     <use style="stroke:#000000;" x="36.705033" xlink:href="#m2a0f49dbf6" y="51.001807"/>
     <use style="stroke:#000000;" x="37.093314" xlink:href="#m2a0f49dbf6" y="26.915498"/>
     <use style="stroke:#000000;" x="36.254101" xlink:href="#m2a0f49dbf6" y="56.662669"/>
     <use style="stroke:#000000;" x="29.887726" xlink:href="#m2a0f49dbf6" y="78.809938"/>
     <use style="stroke:#000000;" x="34.855798" xlink:href="#m2a0f49dbf6" y="65.161156"/>
     <use style="stroke:#000000;" x="32.637857" xlink:href="#m2a0f49dbf6" y="55.185291"/>
    </g>
   </g>
   <g id="patch_3">
    <path d="M 27 94.5 
L 27 12.96 
" style="fill:none;stroke:#000000;stroke-linecap:square;stroke-linejoin:miter;"/>
   </g>
   <g id="patch_4">
    <path d="M 27 94.5 
L 103.090909 94.5 
" style="fill:none;stroke:#000000;stroke-linecap:square;stroke-linejoin:miter;"/>
   </g>
   <g id="matplotlib.axis_1">
    <g id="xtick_1">
     <g id="line2d_3"/>
     <g id="text_1">
      <text style="font-family:Arial;font-size:8px;font-style:normal;font-weight:normal;text-anchor:middle;" transform="rotate(-0, 27, 103.72625)" x="27" y="103.72625">0.0</text>
     </g>
    </g>
    <g id="xtick_2">
     <g id="line2d_4"/>
     <g id="text_2">
      <text style="font-family:Arial;font-size:8px;font-style:normal;font-weight:normal;text-anchor:middle;" transform="rotate(-0, 56.60137, 103.72625)" x="56.60137" y="103.72625">2.5</text>
     </g>
    </g>
    <g id="xtick_3">
     <g id="line2d_5"/>
     <g id="text_3">
      <text style="font-family:Arial;font-size:8px;font-style:normal;font-weight:normal;text-anchor:middle;" transform="rotate(-0, 86.202739, 103.72625)" x="86.202739" y="103.72625">5.0</text>
     </g>
    </g>
    <g id="text_4">
     <text style="font-family:Arial;font-size:10px;font-style:normal;font-weight:normal;text-anchor:middle;" transform="rotate(-0, 65.045455, 116.474063)" x="65.045455" y="116.474063">Exc</text>
    </g>
   </g>
   <g id="matplotlib.axis_2">
    <g id="ytick_1">
     <g id="line2d_6"/>
     <g id="text_5">
      <text style="font-family:Arial;font-size:8px;font-style:normal;font-weight:normal;text-anchor:end;" transform="rotate(-0, 23.5, 97.363125)" x="23.5" y="97.363125">0</text>
     </g>
    </g>
    <g id="ytick_2">
     <g id="line2d_7"/>
     <g id="text_6">
      <text style="font-family:Arial;font-size:8px;font-style:normal;font-weight:normal;text-anchor:end;" transform="rotate(-0, 23.5, 71.986157)" x="23.5" y="71.986157">2</text>
     </g>
    </g>
    <g id="ytick_3">
     <g id="line2d_8"/>
     <g id="text_7">
      <text style="font-family:Arial;font-size:8px;font-style:normal;font-weight:normal;text-anchor:end;" transform="rotate(-0, 23.5, 46.60919)" x="23.5" y="46.60919">4</text>
     </g>
    </g>
    <g id="ytick_4">
     <g id="line2d_9"/>
     <g id="text_8">
      <text style="font-family:Arial;font-size:8px;font-style:normal;font-weight:normal;text-anchor:end;" transform="rotate(-0, 23.5, 21.232222)" x="23.5" y="21.232222">6</text>
     </g>
    </g>
    <g id="text_9">
     <text style="font-family:Arial;font-size:10px;font-style:normal;font-weight:normal;text-anchor:middle;" transform="rotate(-90, 13.06375, 53.73)" x="13.06375" y="53.73">Inh</text>
    </g>
   </g>
   <g id="legend_1">
    <g id="line2d_10">
     <path d="M 36 75.622656 
L 56 75.622656 
" style="fill:none;stroke:#000000;stroke-dasharray:1.85,0.8;stroke-dashoffset:0;stroke-width:0.5;"/>
    </g>
    <g id="line2d_11"/>
    <g id="text_10">
     <!-- $R^2$ 0.56 -->
     <g transform="translate(64 72.875)">
      <text>
       <tspan style="font-family:DejaVu Sans;font-size:10px;font-style:oblique;font-weight:oblique;" x="0" y="-0.9765625">R</tspan>
       <tspan style="font-family:DejaVu Sans;font-size:7px;font-style:book;font-weight:book;" x="7.650794" y="-4.8046875">2</tspan>
       <tspan style="font-family:Arial;font-size:10px;font-style:regular;font-weight:regular;" x="12.377845 15.156165 20.717689 23.496009 29.057533" y="-0.9765625"> 0.56</tspan>
      </text>
     </g>
     <text style="font-family:Arial;font-size:10px;font-style:normal;font-weight:normal;" transform="translate(64 83.4875)"> slope 2.52</text>
    </g>
   </g>
  </g>
  <g id="axes_2">
   <g id="patch_5">
    <path d="M 118.309091 94.5 
L 194.4 94.5 
L 194.4 12.96 
L 118.309091 12.96 
z
" style="fill:#ffffff;"/>
   </g>
   <g id="PathCollection_1">
    <defs>
     <path d="M 0 2.44949 
C 0.649612 2.44949 1.272706 2.191396 1.732051 1.732051 
C 2.191396 1.272706 2.44949 0.649612 2.44949 0 
C 2.44949 -0.649612 2.191396 -1.272706 1.732051 -1.732051 
C 1.272706 -2.191396 0.649612 -2.44949 0 -2.44949 
C -0.649612 -2.44949 -1.272706 -2.191396 -1.732051 -1.732051 
C -2.191396 -1.272706 -2.44949 -0.649612 -2.44949 0 
C -2.44949 0.649612 -2.191396 1.272706 -1.732051 1.732051 
C -1.272706 2.191396 -0.649612 2.44949 0 2.44949 
z
" id="m172c232a68" style="stroke:#000000;"/>
    </defs>
    <g clip-path="url(#pde38a1cc7b)">
     <use style="stroke:#000000;" x="157.435469" xlink:href="#m172c232a68" y="47.700734"/>
     <use style="stroke:#000000;" x="165.676139" xlink:href="#m172c232a68" y="32.265539"/>
     <use style="stroke:#000000;" x="164.957121" xlink:href="#m172c232a68" y="40.193053"/>
     <use style="stroke:#000000;" x="153.328454" xlink:href="#m172c232a68" y="66.935967"/>
     <use style="stroke:#000000;" x="141.736589" xlink:href="#m172c232a68" y="74.892145"/>
     <use style="stroke:#000000;" x="164.299675" xlink:href="#m172c232a68" y="24.420772"/>
     <use style="stroke:#000000;" x="190.24497" xlink:href="#m172c232a68" y="57.841809"/>
     <use style="stroke:#000000;" x="154.618702" xlink:href="#m172c232a68" y="51.419422"/>
     <use style="stroke:#000000;" x="143.166718" xlink:href="#m172c232a68" y="84.521207"/>
     <use style="stroke:#000000;" x="180.0817" xlink:href="#m172c232a68" y="41.222373"/>
     <use style="stroke:#000000;" x="166.445797" xlink:href="#m172c232a68" y="49.55075"/>
     <use style="stroke:#000000;" x="158.855228" xlink:href="#m172c232a68" y="73.05058"/>
     <use style="stroke:#000000;" x="188.252906" xlink:href="#m172c232a68" y="55.62711"/>
     <use style="stroke:#000000;" x="172.827441" xlink:href="#m172c232a68" y="61.947223"/>
     <use style="stroke:#000000;" x="143.544549" xlink:href="#m172c232a68" y="61.074563"/>
     <use style="stroke:#000000;" x="159.119233" xlink:href="#m172c232a68" y="72.34504"/>
     <use style="stroke:#000000;" x="163.847714" xlink:href="#m172c232a68" y="28.414787"/>
     <use style="stroke:#000000;" x="137.096376" xlink:href="#m172c232a68" y="84.189686"/>
     <use style="stroke:#000000;" x="128.004768" xlink:href="#m172c232a68" y="76.689972"/>
     <use style="stroke:#000000;" x="154.750445" xlink:href="#m172c232a68" y="56.858732"/>
     <use style="stroke:#000000;" x="154.995167" xlink:href="#m172c232a68" y="80.897235"/>
     <use style="stroke:#000000;" x="145.730529" xlink:href="#m172c232a68" y="26.063015"/>
     <use style="stroke:#000000;" x="159.714569" xlink:href="#m172c232a68" y="39.084813"/>
     <use style="stroke:#000000;" x="127.721879" xlink:href="#m172c232a68" y="85.239744"/>
     <use style="stroke:#000000;" x="152.906574" xlink:href="#m172c232a68" y="71.877953"/>
     <use style="stroke:#000000;" x="155.147621" xlink:href="#m172c232a68" y="51.081173"/>
     <use style="stroke:#000000;" x="166.975518" xlink:href="#m172c232a68" y="61.876904"/>
     <use style="stroke:#000000;" x="153.024077" xlink:href="#m172c232a68" y="56.776183"/>
     <use style="stroke:#000000;" x="152.164318" xlink:href="#m172c232a68" y="64.028278"/>
     <use style="stroke:#000000;" x="159.194677" xlink:href="#m172c232a68" y="38.690404"/>
    </g>
   </g>
   <g id="line2d_12">
    <path clip-path="url(#pde38a1cc7b)" d="M 118.309091 79.642136 
L 119.077686 79.199076 
L 119.846281 78.756016 
L 120.614876 78.312956 
L 121.383471 77.869896 
L 122.152066 77.426837 
L 122.920661 76.983777 
L 123.689256 76.540717 
L 124.457851 76.097657 
L 125.226446 75.654597 
L 125.995041 75.211538 
L 126.763636 74.768478 
L 127.532231 74.325418 
L 128.300826 73.882358 
L 129.069421 73.439298 
L 129.838017 72.996239 
L 130.606612 72.553179 
L 131.375207 72.110119 
L 132.143802 71.667059 
L 132.912397 71.223999 
L 133.680992 70.78094 
L 134.449587 70.33788 
L 135.218182 69.89482 
L 135.986777 69.45176 
L 136.755372 69.0087 
L 137.523967 68.565641 
L 138.292562 68.122581 
L 139.061157 67.679521 
L 139.829752 67.236461 
L 140.598347 66.793401 
L 141.366942 66.350342 
L 142.135537 65.907282 
L 142.904132 65.464222 
L 143.672727 65.021162 
L 144.441322 64.578103 
L 145.209917 64.135043 
L 145.978512 63.691983 
L 146.747107 63.248923 
L 147.515702 62.805863 
L 148.284298 62.362804 
L 149.052893 61.919744 
L 149.821488 61.476684 
L 150.590083 61.033624 
L 151.358678 60.590564 
L 152.127273 60.147505 
L 152.895868 59.704445 
L 153.664463 59.261385 
L 154.433058 58.818325 
L 155.201653 58.375265 
L 155.970248 57.932206 
L 156.738843 57.489146 
L 157.507438 57.046086 
L 158.276033 56.603026 
L 159.044628 56.159966 
L 159.813223 55.716907 
L 160.581818 55.273847 
L 161.350413 54.830787 
L 162.119008 54.387727 
L 162.887603 53.944667 
L 163.656198 53.501608 
L 164.424793 53.058548 
L 165.193388 52.615488 
L 165.961983 52.172428 
L 166.730579 51.729368 
L 167.499174 51.286309 
L 168.267769 50.843249 
L 169.036364 50.400189 
L 169.804959 49.957129 
L 170.573554 49.51407 
L 171.342149 49.07101 
L 172.110744 48.62795 
L 172.879339 48.18489 
L 173.647934 47.74183 
L 174.416529 47.298771 
L 175.185124 46.855711 
L 175.953719 46.412651 
L 176.722314 45.969591 
L 177.490909 45.526531 
L 178.259504 45.083472 
L 179.028099 44.640412 
L 179.796694 44.197352 
L 180.565289 43.754292 
L 181.333884 43.311232 
L 182.102479 42.868173 
L 182.871074 42.425113 
L 183.639669 41.982053 
L 184.408264 41.538993 
L 185.17686 41.095933 
L 185.945455 40.652874 
L 186.71405 40.209814 
L 187.482645 39.766754 
L 188.25124 39.323694 
L 189.019835 38.880634 
L 189.78843 38.437575 
L 190.557025 37.994515 
L 191.32562 37.551455 
L 192.094215 37.108395 
L 192.86281 36.665336 
L 193.631405 36.222276 
L 194.4 35.779216 
" style="fill:none;stroke:#000000;stroke-dasharray:1.85,0.8;stroke-dashoffset:0;stroke-width:0.5;"/>
   </g>
   <g id="patch_6">
    <path d="M 118.309091 94.5 
L 118.309091 12.96 
" style="fill:none;stroke:#000000;stroke-linecap:square;stroke-linejoin:miter;"/>
   </g>
   <g id="patch_7">
    <path d="M 118.309091 94.5 
L 194.4 94.5 
" style="fill:none;stroke:#000000;stroke-linecap:square;stroke-linejoin:miter;"/>
   </g>
   <g id="matplotlib.axis_3">
    <g id="xtick_4">
     <g id="line2d_13"/>
     <g id="text_11">
      <text style="font-family:Arial;font-size:8px;font-style:normal;font-weight:normal;text-anchor:middle;" transform="rotate(-0, 118.309091, 103.72625)" x="118.309091" y="103.72625">0.0</text>
     </g>
    </g>
    <g id="xtick_5">
     <g id="line2d_14"/>
     <g id="text_12">
      <text style="font-family:Arial;font-size:8px;font-style:normal;font-weight:normal;text-anchor:middle;" transform="rotate(-0, 147.36451, 103.72625)" x="147.36451" y="103.72625">0.5</text>
     </g>
    </g>
    <g id="xtick_6">
     <g id="line2d_15"/>
     <g id="text_13">
      <text style="font-family:Arial;font-size:8px;font-style:normal;font-weight:normal;text-anchor:middle;" transform="rotate(-0, 176.41993, 103.72625)" x="176.41993" y="103.72625">1.0</text>
     </g>
    </g>
    <g id="text_14">
     <!-- $\sigma$(Exc) -->
     <g transform="translate(141.504545 116.61625)">
      <text>
       <tspan style="font-family:DejaVu Sans;font-size:10px;font-style:oblique;font-weight:oblique;" x="0" y="-0.71875">σ</tspan>
       <tspan style="font-family:Arial;font-size:10px;font-style:regular;font-weight:regular;" x="6.337891 9.667969 16.337891 21.337891 26.337891" y="-0.71875">(Exc)</tspan>
      </text>
     </g>
    </g>
   </g>
   <g id="matplotlib.axis_4">
    <g id="ytick_5">
     <g id="line2d_16"/>
     <g id="text_15">
      <text style="font-family:Arial;font-size:8px;font-style:normal;font-weight:normal;text-anchor:end;" transform="rotate(-0, 114.809091, 97.363125)" x="114.809091" y="97.363125">0.0</text>
     </g>
    </g>
    <g id="ytick_6">
     <g id="line2d_17"/>
     <g id="text_16">
      <text style="font-family:Arial;font-size:8px;font-style:normal;font-weight:normal;text-anchor:end;" transform="rotate(-0, 114.809091, 66.226963)" x="114.809091" y="66.226963">0.5</text>
     </g>
    </g>
    <g id="ytick_7">
     <g id="line2d_18"/>
     <g id="text_17">
      <text style="font-family:Arial;font-size:8px;font-style:normal;font-weight:normal;text-anchor:end;" transform="rotate(-0, 114.809091, 35.0908)" x="114.809091" y="35.0908">1.0</text>
     </g>
    </g>
    <g id="text_18">
     <!-- $\sigma$(Inh) -->
     <g transform="translate(97.489091 67.18)rotate(-90)">
      <text>
       <tspan style="font-family:DejaVu Sans;font-size:10px;font-style:oblique;font-weight:oblique;" x="0" y="-0.71875">σ</tspan>
       <tspan style="font-family:Arial;font-size:10px;font-style:regular;font-weight:regular;" x="6.337891 9.667969 12.446289 18.007812 23.569336" y="-0.71875">(Inh)</tspan>
      </text>
     </g>
    </g>
   </g>
   <g id="legend_2">
    <g id="line2d_19">
     <path d="M 108.478125 31.995156 
L 128.478125 31.995156 
" style="fill:none;stroke:#000000;stroke-dasharray:1.85,0.8;stroke-dashoffset:0;stroke-width:0.5;"/>
    </g>
    <g id="line2d_20"/>
    <g id="text_19">
     <!-- $R^2$ 0.22 -->
     <g transform="translate(136.478125 29.2475)">
      <text>
       <tspan style="font-family:DejaVu Sans;font-size:10px;font-style:oblique;font-weight:oblique;" x="0" y="-0.9765625">R</tspan>
       <tspan style="font-family:DejaVu Sans;font-size:7px;font-style:book;font-weight:book;" x="7.650794" y="-4.8046875">2</tspan>
       <tspan style="font-family:Arial;font-size:10px;font-style:regular;font-weight:regular;" x="12.377845 15.156165 20.717689 23.496009 29.057533" y="-0.9765625"> 0.22</tspan>
      </text>
     </g>
     <text style="font-family:Arial;font-size:10px;font-style:normal;font-weight:normal;" transform="translate(136.478125 39.86)"> slope 0.54</text>
    </g>
   </g>
  </g>
 </g>
 <defs>
  <clipPath id="p998e258ed1">
   <rect height="81.54" width="76.090909" x="27" y="12.96"/>
  </clipPath>
  <clipPath id="pde38a1cc7b">
   <rect height="81.54" width="76.090909" x="118.309091" y="12.96"/>
  </clipPath>
 </defs>
</svg>
