<?xml version="1.0" encoding="utf-8" standalone="no"?>
<!DOCTYPE svg PUBLIC "-//W3C//DTD SVG 1.1//EN"
  "http://www.w3.org/Graphics/SVG/1.1/DTD/svg11.dtd">
<!-- Created with matplotlib (http://matplotlib.org/) -->
<svg height="108pt" version="1.1" viewBox="0 0 216 108" width="216pt" xmlns="http://www.w3.org/2000/svg" xmlns:xlink="http://www.w3.org/1999/xlink">
 <defs>
  <style type="text/css">
*{stroke-linecap:butt;stroke-linejoin:round;}
  </style>
 </defs>
 <g id="figure_1">
  <g id="patch_1">
   <path d="M 0 108 
L 216 108 
L 216 0 
L 0 0 
z
" style="fill:#ffffff;"/>
  </g>
  <g id="axes_1">
   <g id="patch_2">
    <path d="M 27 94.5 
L 103.090909 94.5 
L 103.090909 12.96 
L 27 12.96 
z
" style="fill:#ffffff;"/>
   </g>
   <g id="LineCollection_1">
    <path clip-path="url(#pf2fd8ef286)" d="M 25.312752 62.664238 
L 38.671953 62.664238 
" style="fill:none;stroke:#000000;stroke-width:0.5;"/>
    <path clip-path="url(#pf2fd8ef286)" d="M 23.531239 65.789554 
L 48.421692 65.789554 
" style="fill:none;stroke:#000000;stroke-width:0.5;"/>
    <path clip-path="url(#pf2fd8ef286)" d="M 26.374202 73.025166 
L 34.939479 73.025166 
" style="fill:none;stroke:#000000;stroke-width:0.5;"/>
    <path clip-path="url(#pf2fd8ef286)" d="M 30.925424 49.958905 
L 37.980686 49.958905 
" style="fill:none;stroke:#000000;stroke-width:0.5;"/>
    <path clip-path="url(#pf2fd8ef286)" d="M 26.696909 62.048818 
L 33.631545 62.048818 
" style="fill:none;stroke:#000000;stroke-width:0.5;"/>
    <path clip-path="url(#pf2fd8ef286)" d="M 29.401719 51.498636 
L 53.439687 51.498636 
" style="fill:none;stroke:#000000;stroke-width:0.5;"/>
    <path clip-path="url(#pf2fd8ef286)" d="M 28.629329 38.215156 
L 47.384178 38.215156 
" style="fill:none;stroke:#000000;stroke-width:0.5;"/>
    <path clip-path="url(#pf2fd8ef286)" d="M 25.414372 73.612237 
L 34.360018 73.612237 
" style="fill:none;stroke:#000000;stroke-width:0.5;"/>
    <path clip-path="url(#pf2fd8ef286)" d="M 27.512607 82.028407 
L 33.894092 82.028407 
" style="fill:none;stroke:#000000;stroke-width:0.5;"/>
    <path clip-path="url(#pf2fd8ef286)" d="M 25.119051 72.885646 
L 33.494638 72.885646 
" style="fill:none;stroke:#000000;stroke-width:0.5;"/>
    <path clip-path="url(#pf2fd8ef286)" d="M 26.329171 69.268051 
L 40.511125 69.268051 
" style="fill:none;stroke:#000000;stroke-width:0.5;"/>
    <path clip-path="url(#pf2fd8ef286)" d="M 26.678707 69.07141 
L 29.605722 69.07141 
" style="fill:none;stroke:#000000;stroke-width:0.5;"/>
    <path clip-path="url(#pf2fd8ef286)" d="M 26.586178 79.815404 
L 27.984811 79.815404 
" style="fill:none;stroke:#000000;stroke-width:0.5;"/>
    <path clip-path="url(#pf2fd8ef286)" d="M 25.285733 51.857869 
L 34.281589 51.857869 
" style="fill:none;stroke:#000000;stroke-width:0.5;"/>
    <path clip-path="url(#pf2fd8ef286)" d="M 24.326838 81.537442 
L 39.408029 81.537442 
" style="fill:none;stroke:#000000;stroke-width:0.5;"/>
    <path clip-path="url(#pf2fd8ef286)" d="M 24.293483 78.486972 
L 39.562851 78.486972 
" style="fill:none;stroke:#000000;stroke-width:0.5;"/>
    <path clip-path="url(#pf2fd8ef286)" d="M 25.356335 87.955067 
L 34.629409 87.955067 
" style="fill:none;stroke:#000000;stroke-width:0.5;"/>
    <path clip-path="url(#pf2fd8ef286)" d="M 27.277971 83.378858 
L 33.8188 83.378858 
" style="fill:none;stroke:#000000;stroke-width:0.5;"/>
    <path clip-path="url(#pf2fd8ef286)" d="M 31.386229 37.428849 
L 60.931093 37.428849 
" style="fill:none;stroke:#000000;stroke-width:0.5;"/>
    <path clip-path="url(#pf2fd8ef286)" d="M 23.202001 43.500091 
L 45.051902 43.500091 
" style="fill:none;stroke:#000000;stroke-width:0.5;"/>
    <path clip-path="url(#pf2fd8ef286)" d="M 26.817497 44.596972 
L 30.357497 44.596972 
" style="fill:none;stroke:#000000;stroke-width:0.5;"/>
    <path clip-path="url(#pf2fd8ef286)" d="M 26.371913 82.943559 
L 28.494719 82.943559 
" style="fill:none;stroke:#000000;stroke-width:0.5;"/>
    <path clip-path="url(#pf2fd8ef286)" d="M 26.375646 90.067033 
L 29.898065 90.067033 
" style="fill:none;stroke:#000000;stroke-width:0.5;"/>
    <path clip-path="url(#pf2fd8ef286)" d="M 27.402206 63.41907 
L 35.950794 63.41907 
" style="fill:none;stroke:#000000;stroke-width:0.5;"/>
    <path clip-path="url(#pf2fd8ef286)" d="M 28.199154 56.679807 
L 43.813506 56.679807 
" style="fill:none;stroke:#000000;stroke-width:0.5;"/>
    <path clip-path="url(#pf2fd8ef286)" d="M 41.106661 38.324367 
L 57.081025 38.324367 
" style="fill:none;stroke:#000000;stroke-width:0.5;"/>
    <path clip-path="url(#pf2fd8ef286)" d="M 37.5411 50.610415 
L 56.776563 50.610415 
" style="fill:none;stroke:#000000;stroke-width:0.5;"/>
    <path clip-path="url(#pf2fd8ef286)" d="M 27.86323 58.004533 
L 41.439736 58.004533 
" style="fill:none;stroke:#000000;stroke-width:0.5;"/>
    <path clip-path="url(#pf2fd8ef286)" d="M 25.298344 43.643303 
L 45.717326 43.643303 
" style="fill:none;stroke:#000000;stroke-width:0.5;"/>
    <path clip-path="url(#pf2fd8ef286)" d="M 29.174228 36.513459 
L 73.552204 36.513459 
" style="fill:none;stroke:#000000;stroke-width:0.5;"/>
   </g>
   <g id="LineCollection_2">
    <path clip-path="url(#pf2fd8ef286)" d="M 31.992353 64.80943 
L 31.992353 60.519046 
" style="fill:none;stroke:#000000;stroke-width:0.5;"/>
    <path clip-path="url(#pf2fd8ef286)" d="M 35.976465 78.200749 
L 35.976465 53.378358 
" style="fill:none;stroke:#000000;stroke-width:0.5;"/>
    <path clip-path="url(#pf2fd8ef286)" d="M 30.656841 79.042119 
L 30.656841 67.008213 
" style="fill:none;stroke:#000000;stroke-width:0.5;"/>
    <path clip-path="url(#pf2fd8ef286)" d="M 34.453055 54.305348 
L 34.453055 45.612461 
" style="fill:none;stroke:#000000;stroke-width:0.5;"/>
    <path clip-path="url(#pf2fd8ef286)" d="M 30.164227 69.032035 
L 30.164227 55.0656 
" style="fill:none;stroke:#000000;stroke-width:0.5;"/>
    <path clip-path="url(#pf2fd8ef286)" d="M 41.420703 58.981222 
L 41.420703 44.01605 
" style="fill:none;stroke:#000000;stroke-width:0.5;"/>
    <path clip-path="url(#pf2fd8ef286)" d="M 38.006754 45.781202 
L 38.006754 30.649109 
" style="fill:none;stroke:#000000;stroke-width:0.5;"/>
    <path clip-path="url(#pf2fd8ef286)" d="M 29.887195 81.678005 
L 29.887195 65.546469 
" style="fill:none;stroke:#000000;stroke-width:0.5;"/>
    <path clip-path="url(#pf2fd8ef286)" d="M 30.703349 86.127775 
L 30.703349 77.929039 
" style="fill:none;stroke:#000000;stroke-width:0.5;"/>
    <path clip-path="url(#pf2fd8ef286)" d="M 29.306845 77.355616 
L 29.306845 68.415676 
" style="fill:none;stroke:#000000;stroke-width:0.5;"/>
    <path clip-path="url(#pf2fd8ef286)" d="M 33.420148 74.71647 
L 33.420148 63.819633 
" style="fill:none;stroke:#000000;stroke-width:0.5;"/>
    <path clip-path="url(#pf2fd8ef286)" d="M 28.142215 75.794885 
L 28.142215 62.347935 
" style="fill:none;stroke:#000000;stroke-width:0.5;"/>
    <path clip-path="url(#pf2fd8ef286)" d="M 27.285495 81.163374 
L 27.285495 78.467435 
" style="fill:none;stroke:#000000;stroke-width:0.5;"/>
    <path clip-path="url(#pf2fd8ef286)" d="M 29.783661 64.922622 
L 29.783661 38.793116 
" style="fill:none;stroke:#000000;stroke-width:0.5;"/>
    <path clip-path="url(#pf2fd8ef286)" d="M 31.867434 87.887773 
L 31.867434 75.187112 
" style="fill:none;stroke:#000000;stroke-width:0.5;"/>
    <path clip-path="url(#pf2fd8ef286)" d="M 31.928167 78.486972 
L 31.928167 78.486972 
" style="fill:none;stroke:#000000;stroke-width:0.5;"/>
    <path clip-path="url(#pf2fd8ef286)" d="M 29.992872 93.02475 
L 29.992872 82.885384 
" style="fill:none;stroke:#000000;stroke-width:0.5;"/>
    <path clip-path="url(#pf2fd8ef286)" d="M 30.548386 85.684136 
L 30.548386 81.07358 
" style="fill:none;stroke:#000000;stroke-width:0.5;"/>
    <path clip-path="url(#pf2fd8ef286)" d="M 46.158661 58.085091 
L 46.158661 16.772607 
" style="fill:none;stroke:#000000;stroke-width:0.5;"/>
    <path clip-path="url(#pf2fd8ef286)" d="M 34.126951 60.823079 
L 34.126951 26.177103 
" style="fill:none;stroke:#000000;stroke-width:0.5;"/>
    <path clip-path="url(#pf2fd8ef286)" d="M 28.587497 47.671926 
L 28.587497 41.522019 
" style="fill:none;stroke:#000000;stroke-width:0.5;"/>
    <path clip-path="url(#pf2fd8ef286)" d="M 27.433316 87.236069 
L 27.433316 78.651048 
" style="fill:none;stroke:#000000;stroke-width:0.5;"/>
    <path clip-path="url(#pf2fd8ef286)" d="M 28.136856 90.067033 
L 28.136856 90.067033 
" style="fill:none;stroke:#000000;stroke-width:0.5;"/>
    <path clip-path="url(#pf2fd8ef286)" d="M 31.6765 66.817949 
L 31.6765 60.020192 
" style="fill:none;stroke:#000000;stroke-width:0.5;"/>
    <path clip-path="url(#pf2fd8ef286)" d="M 36.00633 63.611227 
L 36.00633 49.748387 
" style="fill:none;stroke:#000000;stroke-width:0.5;"/>
    <path clip-path="url(#pf2fd8ef286)" d="M 49.093843 47.457415 
L 49.093843 29.191319 
" style="fill:none;stroke:#000000;stroke-width:0.5;"/>
    <path clip-path="url(#pf2fd8ef286)" d="M 47.158832 60.824375 
L 47.158832 40.396455 
" style="fill:none;stroke:#000000;stroke-width:0.5;"/>
    <path clip-path="url(#pf2fd8ef286)" d="M 34.651483 62.155501 
L 34.651483 53.853564 
" style="fill:none;stroke:#000000;stroke-width:0.5;"/>
    <path clip-path="url(#pf2fd8ef286)" d="M 35.507835 49.633269 
L 35.507835 37.653336 
" style="fill:none;stroke:#000000;stroke-width:0.5;"/>
    <path clip-path="url(#pf2fd8ef286)" d="M 51.363216 52.73505 
L 51.363216 20.291869 
" style="fill:none;stroke:#000000;stroke-width:0.5;"/>
   </g>
   <g id="line2d_1">
    <path clip-path="url(#pf2fd8ef286)" d="M 27 75.516439 
L 27.768595 74.136976 
L 28.53719 72.757514 
L 29.305785 71.378051 
L 30.07438 69.998589 
L 30.842975 68.619126 
L 31.61157 67.239664 
L 32.380165 65.860201 
L 33.14876 64.480739 
L 33.917355 63.101276 
L 34.68595 61.721814 
L 35.454545 60.342351 
L 36.22314 58.962889 
L 36.991736 57.583426 
L 37.760331 56.203964 
L 38.528926 54.824501 
L 39.297521 53.445039 
L 40.066116 52.065576 
L 40.834711 50.686114 
L 41.603306 49.306651 
L 42.371901 47.927189 
L 43.140496 46.547726 
L 43.909091 45.168264 
L 44.677686 43.788801 
L 45.446281 42.409338 
L 46.214876 41.029876 
L 46.983471 39.650413 
L 47.752066 38.270951 
L 48.520661 36.891488 
L 49.289256 35.512026 
L 50.057851 34.132563 
L 50.826446 32.753101 
L 51.595041 31.373638 
L 52.363636 29.994176 
L 53.132231 28.614713 
L 53.900826 27.235251 
L 54.669421 25.855788 
L 55.438017 24.476326 
L 56.206612 23.096863 
L 56.975207 21.717401 
L 57.743802 20.337938 
L 58.512397 18.958476 
L 59.280992 17.579013 
L 60.049587 16.199551 
L 60.818182 14.820088 
L 61.586777 13.440626 
L 62.355372 12.061163 
L 63.123967 10.681701 
L 63.892562 9.302238 
L 64.661157 7.922776 
L 65.429752 6.543313 
L 66.198347 5.163851 
L 66.966942 3.784388 
L 67.735537 2.404926 
L 68.504132 1.025463 
L 69.272727 -0.353999 
L 69.63266 -1 
" style="fill:none;stroke:#000000;stroke-dasharray:1.85,0.8;stroke-dashoffset:0;stroke-width:0.5;"/>
   </g>
   <g id="line2d_2">
    <defs>
     <path d="M 0 3 
C 0.795609 3 1.55874 2.683901 2.12132 2.12132 
C 2.683901 1.55874 3 0.795609 3 0 
C 3 -0.795609 2.683901 -1.55874 2.12132 -2.12132 
C 1.55874 -2.683901 0.795609 -3 0 -3 
C -0.795609 -3 -1.55874 -2.683901 -2.12132 -2.12132 
C -2.683901 -1.55874 -3 -0.795609 -3 0 
C -3 0.795609 -2.683901 1.55874 -2.12132 2.12132 
C -1.55874 2.683901 -0.795609 3 0 3 
z
" id="m34f8ac67b7" style="stroke:#000000;"/>
    </defs>
    <g clip-path="url(#pf2fd8ef286)">
     <use style="stroke:#000000;" x="31.992353" xlink:href="#m34f8ac67b7" y="62.664238"/>
     <use style="stroke:#000000;" x="35.976465" xlink:href="#m34f8ac67b7" y="65.789554"/>
     <use style="stroke:#000000;" x="30.656841" xlink:href="#m34f8ac67b7" y="73.025166"/>
     <use style="stroke:#000000;" x="34.453055" xlink:href="#m34f8ac67b7" y="49.958905"/>
     <use style="stroke:#000000;" x="30.164227" xlink:href="#m34f8ac67b7" y="62.048818"/>
     <use style="stroke:#000000;" x="41.420703" xlink:href="#m34f8ac67b7" y="51.498636"/>
     <use style="stroke:#000000;" x="38.006754" xlink:href="#m34f8ac67b7" y="38.215156"/>
     <use style="stroke:#000000;" x="29.887195" xlink:href="#m34f8ac67b7" y="73.612237"/>
     <use style="stroke:#000000;" x="30.703349" xlink:href="#m34f8ac67b7" y="82.028407"/>
     <use style="stroke:#000000;" x="29.306845" xlink:href="#m34f8ac67b7" y="72.885646"/>
     <use style="stroke:#000000;" x="33.420148" xlink:href="#m34f8ac67b7" y="69.268051"/>
     <use style="stroke:#000000;" x="28.142215" xlink:href="#m34f8ac67b7" y="69.07141"/>
     <use style="stroke:#000000;" x="27.285495" xlink:href="#m34f8ac67b7" y="79.815404"/>
     <use style="stroke:#000000;" x="29.783661" xlink:href="#m34f8ac67b7" y="51.857869"/>
     <use style="stroke:#000000;" x="31.867434" xlink:href="#m34f8ac67b7" y="81.537442"/>
     <use style="stroke:#000000;" x="31.928167" xlink:href="#m34f8ac67b7" y="78.486972"/>
     <use style="stroke:#000000;" x="29.992872" xlink:href="#m34f8ac67b7" y="87.955067"/>
     <use style="stroke:#000000;" x="30.548386" xlink:href="#m34f8ac67b7" y="83.378858"/>
     <use style="stroke:#000000;" x="46.158661" xlink:href="#m34f8ac67b7" y="37.428849"/>
     <use style="stroke:#000000;" x="34.126951" xlink:href="#m34f8ac67b7" y="43.500091"/>
     <use style="stroke:#000000;" x="28.587497" xlink:href="#m34f8ac67b7" y="44.596972"/>
     <use style="stroke:#000000;" x="27.433316" xlink:href="#m34f8ac67b7" y="82.943559"/>
     <use style="stroke:#000000;" x="28.136856" xlink:href="#m34f8ac67b7" y="90.067033"/>
     <use style="stroke:#000000;" x="31.6765" xlink:href="#m34f8ac67b7" y="63.41907"/>
     <use style="stroke:#000000;" x="36.00633" xlink:href="#m34f8ac67b7" y="56.679807"/>
     <use style="stroke:#000000;" x="49.093843" xlink:href="#m34f8ac67b7" y="38.324367"/>
     <use style="stroke:#000000;" x="47.158832" xlink:href="#m34f8ac67b7" y="50.610415"/>
     <use style="stroke:#000000;" x="34.651483" xlink:href="#m34f8ac67b7" y="58.004533"/>
     <use style="stroke:#000000;" x="35.507835" xlink:href="#m34f8ac67b7" y="43.643303"/>
     <use style="stroke:#000000;" x="51.363216" xlink:href="#m34f8ac67b7" y="36.513459"/>
    </g>
   </g>
   <g id="patch_3">
    <path d="M 27 94.5 
L 27 12.96 
" style="fill:none;stroke:#000000;stroke-linecap:square;stroke-linejoin:miter;"/>
   </g>
   <g id="patch_4">
    <path d="M 27 94.5 
L 103.090909 94.5 
" style="fill:none;stroke:#000000;stroke-linecap:square;stroke-linejoin:miter;"/>
   </g>
   <g id="matplotlib.axis_1">
    <g id="xtick_1">
     <g id="line2d_3"/>
     <g id="text_1">
      <text style="font-family:Arial;font-size:8px;font-style:normal;font-weight:normal;text-anchor:middle;" transform="rotate(-0, 27, 103.72625)" x="27" y="103.72625">0</text>
     </g>
    </g>
    <g id="xtick_2">
     <g id="line2d_4"/>
     <g id="text_2">
      <text style="font-family:Arial;font-size:8px;font-style:normal;font-weight:normal;text-anchor:middle;" transform="rotate(-0, 73.177464, 103.72625)" x="73.177464" y="103.72625">5</text>
     </g>
    </g>
    <g id="text_3">
     <text style="font-family:Arial;font-size:10px;font-style:normal;font-weight:normal;text-anchor:middle;" transform="rotate(-0, 65.045455, 116.474063)" x="65.045455" y="116.474063">Exc</text>
    </g>
   </g>
   <g id="matplotlib.axis_2">
    <g id="ytick_1">
     <g id="line2d_5"/>
     <g id="text_4">
      <text style="font-family:Arial;font-size:8px;font-style:normal;font-weight:normal;text-anchor:end;" transform="rotate(-0, 23.5, 97.363125)" x="23.5" y="97.363125">0</text>
     </g>
    </g>
    <g id="ytick_2">
     <g id="line2d_6"/>
     <g id="text_5">
      <text style="font-family:Arial;font-size:8px;font-style:normal;font-weight:normal;text-anchor:end;" transform="rotate(-0, 23.5, 77.569379)" x="23.5" y="77.569379">2</text>
     </g>
    </g>
    <g id="ytick_3">
     <g id="line2d_7"/>
     <g id="text_6">
      <text style="font-family:Arial;font-size:8px;font-style:normal;font-weight:normal;text-anchor:end;" transform="rotate(-0, 23.5, 57.775632)" x="23.5" y="57.775632">4</text>
     </g>
    </g>
    <g id="ytick_4">
     <g id="line2d_8"/>
     <g id="text_7">
      <text style="font-family:Arial;font-size:8px;font-style:normal;font-weight:normal;text-anchor:end;" transform="rotate(-0, 23.5, 37.981886)" x="23.5" y="37.981886">6</text>
     </g>
    </g>
    <g id="ytick_5">
     <g id="line2d_9"/>
     <g id="text_8">
      <text style="font-family:Arial;font-size:8px;font-style:normal;font-weight:normal;text-anchor:end;" transform="rotate(-0, 23.5, 18.188139)" x="23.5" y="18.188139">8</text>
     </g>
    </g>
    <g id="text_9">
     <text style="font-family:Arial;font-size:10px;font-style:normal;font-weight:normal;text-anchor:middle;" transform="rotate(-90, 13.06375, 53.73)" x="13.06375" y="53.73">Inh</text>
    </g>
   </g>
   <g id="legend_1">
    <g id="line2d_10">
     <path d="M 36 75.622656 
L 56 75.622656 
" style="fill:none;stroke:#000000;stroke-dasharray:1.85,0.8;stroke-dashoffset:0;stroke-width:0.5;"/>
    </g>
    <g id="line2d_11"/>
    <g id="text_10">
     <!-- $R^2$ 0.50 -->
     <g transform="translate(64 72.875)">
      <text>
       <tspan style="font-family:DejaVu Sans;font-size:10px;font-style:oblique;font-weight:oblique;" x="0" y="-0.9765625">R</tspan>
       <tspan style="font-family:DejaVu Sans;font-size:7px;font-style:book;font-weight:book;" x="7.650794" y="-4.8046875">2</tspan>
       <tspan style="font-family:Arial;font-size:10px;font-style:regular;font-weight:regular;" x="12.377845 15.156165 20.717689 23.496009 29.057533" y="-0.9765625"> 0.50</tspan>
      </text>
     </g>
     <text style="font-family:Arial;font-size:10px;font-style:normal;font-weight:normal;" transform="translate(64 83.4875)"> slope 1.67</text>
    </g>
   </g>
  </g>
  <g id="axes_2">
   <g id="patch_5">
    <path d="M 118.309091 94.5 
L 194.4 94.5 
L 194.4 12.96 
L 118.309091 12.96 
z
" style="fill:#ffffff;"/>
   </g>
   <g id="PathCollection_1">
    <defs>
     <path d="M 0 2.44949 
C 0.649612 2.44949 1.272706 2.191396 1.732051 1.732051 
C 2.191396 1.272706 2.44949 0.649612 2.44949 0 
C 2.44949 -0.649612 2.191396 -1.272706 1.732051 -1.732051 
C 1.272706 -2.191396 0.649612 -2.44949 0 -2.44949 
C -0.649612 -2.44949 -1.272706 -2.191396 -1.732051 -1.732051 
C -2.191396 -1.272706 -2.44949 -0.649612 -2.44949 0 
C -2.44949 0.649612 -2.191396 1.272706 -1.732051 1.732051 
C -1.272706 2.191396 -0.649612 2.44949 0 2.44949 
z
" id="m14e72bd02a" style="stroke:#000000;"/>
    </defs>
    <g clip-path="url(#p8610e4a1f3)">
     <use style="stroke:#000000;" x="140.004447" xlink:href="#m14e72bd02a" y="87.532412"/>
     <use style="stroke:#000000;" x="158.731212" xlink:href="#m14e72bd02a" y="54.188413"/>
     <use style="stroke:#000000;" x="132.21911" xlink:href="#m14e72bd02a" y="74.956924"/>
     <use style="stroke:#000000;" x="129.766843" xlink:href="#m14e72bd02a" y="80.382743"/>
     <use style="stroke:#000000;" x="129.570946" xlink:href="#m14e72bd02a" y="71.818495"/>
     <use style="stroke:#000000;" x="157.346774" xlink:href="#m14e72bd02a" y="70.196546"/>
     <use style="stroke:#000000;" x="148.766985" xlink:href="#m14e72bd02a" y="69.925466"/>
     <use style="stroke:#000000;" x="132.83683" xlink:href="#m14e72bd02a" y="68.30237"/>
     <use style="stroke:#000000;" x="128.672629" xlink:href="#m14e72bd02a" y="81.185244"/>
     <use style="stroke:#000000;" x="131.911052" xlink:href="#m14e72bd02a" y="79.981528"/>
     <use style="stroke:#000000;" x="141.340598" xlink:href="#m14e72bd02a" y="76.803526"/>
     <use style="stroke:#000000;" x="123.062566" xlink:href="#m14e72bd02a" y="72.66214"/>
     <use style="stroke:#000000;" x="120.580472" xlink:href="#m14e72bd02a" y="90.121793"/>
     <use style="stroke:#000000;" x="132.91837" xlink:href="#m14e72bd02a" y="52.065658"/>
     <use style="stroke:#000000;" x="142.800961" xlink:href="#m14e72bd02a" y="73.874114"/>
     <use style="stroke:#000000;" x="143.106559" xlink:href="#m14e72bd02a" y="94.5"/>
     <use style="stroke:#000000;" x="133.368573" xlink:href="#m14e72bd02a" y="78.03366"/>
     <use style="stroke:#000000;" x="128.931404" xlink:href="#m14e72bd02a" y="87.012452"/>
     <use style="stroke:#000000;" x="166.289979" xlink:href="#m14e72bd02a" y="27.408486"/>
     <use style="stroke:#000000;" x="153.793351" xlink:href="#m14e72bd02a" y="38.234902"/>
     <use style="stroke:#000000;" x="124.058054" xlink:href="#m14e72bd02a" y="84.512545"/>
     <use style="stroke:#000000;" x="121.75653" xlink:href="#m14e72bd02a" y="80.557919"/>
     <use style="stroke:#000000;" x="124.029502" xlink:href="#m14e72bd02a" y="94.5"/>
     <use style="stroke:#000000;" x="132.192007" xlink:href="#m14e72bd02a" y="83.460435"/>
     <use style="stroke:#000000;" x="143.666813" xlink:href="#m14e72bd02a" y="71.986734"/>
     <use style="stroke:#000000;" x="144.251473" xlink:href="#m14e72bd02a" y="64.835842"/>
     <use style="stroke:#000000;" x="149.547502" xlink:href="#m14e72bd02a" y="61.325038"/>
     <use style="stroke:#000000;" x="140.357349" xlink:href="#m14e72bd02a" y="81.017647"/>
     <use style="stroke:#000000;" x="151.469537" xlink:href="#m14e72bd02a" y="75.044576"/>
     <use style="stroke:#000000;" x="190.378968" xlink:href="#m14e72bd02a" y="41.812243"/>
    </g>
   </g>
   <g id="line2d_12">
    <path clip-path="url(#p8610e4a1f3)" d="M 118.309091 88.46147 
L 119.077686 87.885897 
L 119.846281 87.310324 
L 120.614876 86.734751 
L 121.383471 86.159178 
L 122.152066 85.583605 
L 122.920661 85.008032 
L 123.689256 84.432459 
L 124.457851 83.856886 
L 125.226446 83.281313 
L 125.995041 82.70574 
L 126.763636 82.130167 
L 127.532231 81.554593 
L 128.300826 80.97902 
L 129.069421 80.403447 
L 129.838017 79.827874 
L 130.606612 79.252301 
L 131.375207 78.676728 
L 132.143802 78.101155 
L 132.912397 77.525582 
L 133.680992 76.950009 
L 134.449587 76.374436 
L 135.218182 75.798863 
L 135.986777 75.22329 
L 136.755372 74.647717 
L 137.523967 74.072144 
L 138.292562 73.496571 
L 139.061157 72.920998 
L 139.829752 72.345425 
L 140.598347 71.769852 
L 141.366942 71.194279 
L 142.135537 70.618706 
L 142.904132 70.043133 
L 143.672727 69.46756 
L 144.441322 68.891987 
L 145.209917 68.316414 
L 145.978512 67.740841 
L 146.747107 67.165268 
L 147.515702 66.589695 
L 148.284298 66.014122 
L 149.052893 65.438549 
L 149.821488 64.862976 
L 150.590083 64.287403 
L 151.358678 63.71183 
L 152.127273 63.136257 
L 152.895868 62.560684 
L 153.664463 61.985111 
L 154.433058 61.409538 
L 155.201653 60.833965 
L 155.970248 60.258392 
L 156.738843 59.682819 
L 157.507438 59.107246 
L 158.276033 58.531673 
L 159.044628 57.9561 
L 159.813223 57.380527 
L 160.581818 56.804954 
L 161.350413 56.229381 
L 162.119008 55.653808 
L 162.887603 55.078235 
L 163.656198 54.502662 
L 164.424793 53.927088 
L 165.193388 53.351515 
L 165.961983 52.775942 
L 166.730579 52.200369 
L 167.499174 51.624796 
L 168.267769 51.049223 
L 169.036364 50.47365 
L 169.804959 49.898077 
L 170.573554 49.322504 
L 171.342149 48.746931 
L 172.110744 48.171358 
L 172.879339 47.595785 
L 173.647934 47.020212 
L 174.416529 46.444639 
L 175.185124 45.869066 
L 175.953719 45.293493 
L 176.722314 44.71792 
L 177.490909 44.142347 
L 178.259504 43.566774 
L 179.028099 42.991201 
L 179.796694 42.415628 
L 180.565289 41.840055 
L 181.333884 41.264482 
L 182.102479 40.688909 
L 182.871074 40.113336 
L 183.639669 39.537763 
L 184.408264 38.96219 
L 185.17686 38.386617 
L 185.945455 37.811044 
L 186.71405 37.235471 
L 187.482645 36.659898 
L 188.25124 36.084325 
L 189.019835 35.508752 
L 189.78843 34.933179 
L 190.557025 34.357606 
L 191.32562 33.782033 
L 192.094215 33.20646 
L 192.86281 32.630887 
L 193.631405 32.055314 
L 194.4 31.479741 
" style="fill:none;stroke:#000000;stroke-dasharray:1.85,0.8;stroke-dashoffset:0;stroke-width:0.5;"/>
   </g>
   <g id="patch_6">
    <path d="M 118.309091 94.5 
L 118.309091 12.96 
" style="fill:none;stroke:#000000;stroke-linecap:square;stroke-linejoin:miter;"/>
   </g>
   <g id="patch_7">
    <path d="M 118.309091 94.5 
L 194.4 94.5 
" style="fill:none;stroke:#000000;stroke-linecap:square;stroke-linejoin:miter;"/>
   </g>
   <g id="matplotlib.axis_3">
    <g id="xtick_3">
     <g id="line2d_13"/>
     <g id="text_11">
      <text style="font-family:Arial;font-size:8px;font-style:normal;font-weight:normal;text-anchor:middle;" transform="rotate(-0, 118.309091, 103.72625)" x="118.309091" y="103.72625">0</text>
     </g>
    </g>
    <g id="xtick_4">
     <g id="line2d_14"/>
     <g id="text_12">
      <text style="font-family:Arial;font-size:8px;font-style:normal;font-weight:normal;text-anchor:middle;" transform="rotate(-0, 148.305989, 103.72625)" x="148.305989" y="103.72625">1</text>
     </g>
    </g>
    <g id="xtick_5">
     <g id="line2d_15"/>
     <g id="text_13">
      <text style="font-family:Arial;font-size:8px;font-style:normal;font-weight:normal;text-anchor:middle;" transform="rotate(-0, 178.302888, 103.72625)" x="178.302888" y="103.72625">2</text>
     </g>
    </g>
    <g id="text_14">
     <!-- $\sigma$(Exc) -->
     <g transform="translate(141.504545 116.61625)">
      <text>
       <tspan style="font-family:DejaVu Sans;font-size:10px;font-style:oblique;font-weight:oblique;" x="0" y="-0.71875">σ</tspan>
       <tspan style="font-family:Arial;font-size:10px;font-style:regular;font-weight:regular;" x="6.337891 9.667969 16.337891 21.337891 26.337891" y="-0.71875">(Exc)</tspan>
      </text>
     </g>
    </g>
   </g>
   <g id="matplotlib.axis_4">
    <g id="ytick_6">
     <g id="line2d_16"/>
     <g id="text_15">
      <text style="font-family:Arial;font-size:8px;font-style:normal;font-weight:normal;text-anchor:end;" transform="rotate(-0, 114.809091, 97.363125)" x="114.809091" y="97.363125">0</text>
     </g>
    </g>
    <g id="ytick_7">
     <g id="line2d_17"/>
     <g id="text_16">
      <text style="font-family:Arial;font-size:8px;font-style:normal;font-weight:normal;text-anchor:end;" transform="rotate(-0, 114.809091, 65.218062)" x="114.809091" y="65.218062">1</text>
     </g>
    </g>
    <g id="ytick_8">
     <g id="line2d_18"/>
     <g id="text_17">
      <text style="font-family:Arial;font-size:8px;font-style:normal;font-weight:normal;text-anchor:end;" transform="rotate(-0, 114.809091, 33.072998)" x="114.809091" y="33.072998">2</text>
     </g>
    </g>
    <g id="text_18">
     <!-- $\sigma$(Inh) -->
     <g transform="translate(104.160341 67.18)rotate(-90)">
      <text>
       <tspan style="font-family:DejaVu Sans;font-size:10px;font-style:oblique;font-weight:oblique;" x="0" y="-0.71875">σ</tspan>
       <tspan style="font-family:Arial;font-size:10px;font-style:regular;font-weight:regular;" x="6.337891 9.667969 12.446289 18.007812 23.569336" y="-0.71875">(Inh)</tspan>
      </text>
     </g>
    </g>
   </g>
   <g id="legend_2">
    <g id="line2d_19">
     <path d="M 108.478125 31.995156 
L 128.478125 31.995156 
" style="fill:none;stroke:#000000;stroke-dasharray:1.85,0.8;stroke-dashoffset:0;stroke-width:0.5;"/>
    </g>
    <g id="line2d_20"/>
    <g id="text_19">
     <!-- $R^2$ 0.50 -->
     <g transform="translate(136.478125 29.2475)">
      <text>
       <tspan style="font-family:DejaVu Sans;font-size:10px;font-style:oblique;font-weight:oblique;" x="0" y="-0.9765625">R</tspan>
       <tspan style="font-family:DejaVu Sans;font-size:7px;font-style:book;font-weight:book;" x="7.650794" y="-4.8046875">2</tspan>
       <tspan style="font-family:Arial;font-size:10px;font-style:regular;font-weight:regular;" x="12.377845 15.156165 20.717689 23.496009 29.057533" y="-0.9765625"> 0.50</tspan>
      </text>
     </g>
     <text style="font-family:Arial;font-size:10px;font-style:normal;font-weight:normal;" transform="translate(136.478125 39.86)"> slope 0.70</text>
    </g>
   </g>
  </g>
 </g>
 <defs>
  <clipPath id="pf2fd8ef286">
   <rect height="81.54" width="76.090909" x="27" y="12.96"/>
  </clipPath>
  <clipPath id="p8610e4a1f3">
   <rect height="81.54" width="76.090909" x="118.309091" y="12.96"/>
  </clipPath>
 </defs>
</svg>
