<?xml version="1.0" encoding="utf-8" standalone="no"?>
<!DOCTYPE svg PUBLIC "-//W3C//DTD SVG 1.1//EN"
  "http://www.w3.org/Graphics/SVG/1.1/DTD/svg11.dtd">
<!-- Created with matplotlib (http://matplotlib.org/) -->
<svg height="108pt" version="1.1" viewBox="0 0 216 108" width="216pt" xmlns="http://www.w3.org/2000/svg" xmlns:xlink="http://www.w3.org/1999/xlink">
 <defs>
  <style type="text/css">
*{stroke-linecap:butt;stroke-linejoin:round;}
  </style>
 </defs>
 <g id="figure_1">
  <g id="patch_1">
   <path d="M 0 108 
L 216 108 
L 216 0 
L 0 0 
z
" style="fill:#ffffff;"/>
  </g>
  <g id="axes_1">
   <g id="patch_2">
    <path d="M 27 94.5 
L 103.090909 94.5 
L 103.090909 12.96 
L 27 12.96 
z
" style="fill:#ffffff;"/>
   </g>
   <g id="LineCollection_1">
    <path clip-path="url(#p4ae93941dc)" d="M 25.857663 78.300728 
L 33.62639 78.300728 
" style="fill:none;stroke:#000000;stroke-width:0.5;"/>
    <path clip-path="url(#p4ae93941dc)" d="M 17.758304 32.438154 
L 62.336727 32.438154 
" style="fill:none;stroke:#000000;stroke-width:0.5;"/>
    <path clip-path="url(#p4ae93941dc)" d="M 26.73352 48.249007 
L 40.446478 48.249007 
" style="fill:none;stroke:#000000;stroke-width:0.5;"/>
    <path clip-path="url(#p4ae93941dc)" d="M 27.124342 79.626598 
L 32.351743 79.626598 
" style="fill:none;stroke:#000000;stroke-width:0.5;"/>
    <path clip-path="url(#p4ae93941dc)" d="M 29.776063 35.39389 
L 46.706203 35.39389 
" style="fill:none;stroke:#000000;stroke-width:0.5;"/>
    <path clip-path="url(#p4ae93941dc)" d="M 26.843421 89.738924 
L 30.10883 89.738924 
" style="fill:none;stroke:#000000;stroke-width:0.5;"/>
    <path clip-path="url(#p4ae93941dc)" d="M 25.551471 68.621863 
L 33.295916 68.621863 
" style="fill:none;stroke:#000000;stroke-width:0.5;"/>
    <path clip-path="url(#p4ae93941dc)" d="M 30.976552 68.268173 
L 45.756275 68.268173 
" style="fill:none;stroke:#000000;stroke-width:0.5;"/>
    <path clip-path="url(#p4ae93941dc)" d="M 28.061332 69.549583 
L 41.105227 69.549583 
" style="fill:none;stroke:#000000;stroke-width:0.5;"/>
    <path clip-path="url(#p4ae93941dc)" d="M 21.957267 63.130509 
L 41.729746 63.130509 
" style="fill:none;stroke:#000000;stroke-width:0.5;"/>
    <path clip-path="url(#p4ae93941dc)" d="M 26.57473 71.830912 
L 33.028705 71.830912 
" style="fill:none;stroke:#000000;stroke-width:0.5;"/>
    <path clip-path="url(#p4ae93941dc)" d="M 21.800506 62.481798 
L 49.693955 62.481798 
" style="fill:none;stroke:#000000;stroke-width:0.5;"/>
    <path clip-path="url(#p4ae93941dc)" d="M 28.154796 75.372814 
L 39.326388 75.372814 
" style="fill:none;stroke:#000000;stroke-width:0.5;"/>
    <path clip-path="url(#p4ae93941dc)" d="M 22.315613 57.70901 
L 44.41802 57.70901 
" style="fill:none;stroke:#000000;stroke-width:0.5;"/>
    <path clip-path="url(#p4ae93941dc)" d="M 28.22968 67.492501 
L 49.225416 67.492501 
" style="fill:none;stroke:#000000;stroke-width:0.5;"/>
    <path clip-path="url(#p4ae93941dc)" d="M 27 94.5 
L 27 94.5 
" style="fill:none;stroke:#000000;stroke-width:0.5;"/>
    <path clip-path="url(#p4ae93941dc)" d="M 26.091838 81.243357 
L 29.16124 81.243357 
" style="fill:none;stroke:#000000;stroke-width:0.5;"/>
    <path clip-path="url(#p4ae93941dc)" d="M 28.112038 50.503515 
L 53.783099 50.503515 
" style="fill:none;stroke:#000000;stroke-width:0.5;"/>
    <path clip-path="url(#p4ae93941dc)" d="M 28.549599 81.022936 
L 33.909215 81.022936 
" style="fill:none;stroke:#000000;stroke-width:0.5;"/>
    <path clip-path="url(#p4ae93941dc)" d="M 27.12228 82.899459 
L 35.657836 82.899459 
" style="fill:none;stroke:#000000;stroke-width:0.5;"/>
    <path clip-path="url(#p4ae93941dc)" d="M 25.629918 79.356588 
L 36.541667 79.356588 
" style="fill:none;stroke:#000000;stroke-width:0.5;"/>
    <path clip-path="url(#p4ae93941dc)" d="M 26.003515 81.264686 
L 32.699016 81.264686 
" style="fill:none;stroke:#000000;stroke-width:0.5;"/>
    <path clip-path="url(#p4ae93941dc)" d="M 24.827761 58.059009 
L 40.586284 58.059009 
" style="fill:none;stroke:#000000;stroke-width:0.5;"/>
    <path clip-path="url(#p4ae93941dc)" d="M 32.525025 60.72567 
L 45.075133 60.72567 
" style="fill:none;stroke:#000000;stroke-width:0.5;"/>
    <path clip-path="url(#p4ae93941dc)" d="M 27.384969 78.173541 
L 36.508648 78.173541 
" style="fill:none;stroke:#000000;stroke-width:0.5;"/>
    <path clip-path="url(#p4ae93941dc)" d="M 29.667505 79.48542 
L 37.61991 79.48542 
" style="fill:none;stroke:#000000;stroke-width:0.5;"/>
    <path clip-path="url(#p4ae93941dc)" d="M 27.250017 69.904671 
L 36.787458 69.904671 
" style="fill:none;stroke:#000000;stroke-width:0.5;"/>
    <path clip-path="url(#p4ae93941dc)" d="M 27.005231 57.768491 
L 44.302941 57.768491 
" style="fill:none;stroke:#000000;stroke-width:0.5;"/>
    <path clip-path="url(#p4ae93941dc)" d="M 24.316555 50.714956 
L 35.593631 50.714956 
" style="fill:none;stroke:#000000;stroke-width:0.5;"/>
    <path clip-path="url(#p4ae93941dc)" d="M 25.262963 73.044514 
L 38.707144 73.044514 
" style="fill:none;stroke:#000000;stroke-width:0.5;"/>
   </g>
   <g id="LineCollection_2">
    <path clip-path="url(#p4ae93941dc)" d="M 29.742026 81.911418 
L 29.742026 74.690039 
" style="fill:none;stroke:#000000;stroke-width:0.5;"/>
    <path clip-path="url(#p4ae93941dc)" d="M 40.047516 38.855546 
L 40.047516 26.020762 
" style="fill:none;stroke:#000000;stroke-width:0.5;"/>
    <path clip-path="url(#p4ae93941dc)" d="M 33.589999 56.05029 
L 33.589999 40.447725 
" style="fill:none;stroke:#000000;stroke-width:0.5;"/>
    <path clip-path="url(#p4ae93941dc)" d="M 29.738043 82.494214 
L 29.738043 76.758983 
" style="fill:none;stroke:#000000;stroke-width:0.5;"/>
    <path clip-path="url(#p4ae93941dc)" d="M 38.241133 53.944924 
L 38.241133 16.842857 
" style="fill:none;stroke:#000000;stroke-width:0.5;"/>
    <path clip-path="url(#p4ae93941dc)" d="M 28.476126 90.987399 
L 28.476126 88.490449 
" style="fill:none;stroke:#000000;stroke-width:0.5;"/>
    <path clip-path="url(#p4ae93941dc)" d="M 29.423694 76.183541 
L 29.423694 61.060185 
" style="fill:none;stroke:#000000;stroke-width:0.5;"/>
    <path clip-path="url(#p4ae93941dc)" d="M 38.366413 73.869308 
L 38.366413 62.667039 
" style="fill:none;stroke:#000000;stroke-width:0.5;"/>
    <path clip-path="url(#p4ae93941dc)" d="M 34.583279 71.000796 
L 34.583279 68.098369 
" style="fill:none;stroke:#000000;stroke-width:0.5;"/>
    <path clip-path="url(#p4ae93941dc)" d="M 31.843506 77.193451 
L 31.843506 49.067568 
" style="fill:none;stroke:#000000;stroke-width:0.5;"/>
    <path clip-path="url(#p4ae93941dc)" d="M 29.801718 85.691816 
L 29.801718 57.970008 
" style="fill:none;stroke:#000000;stroke-width:0.5;"/>
    <path clip-path="url(#p4ae93941dc)" d="M 35.747231 66.944972 
L 35.747231 58.018623 
" style="fill:none;stroke:#000000;stroke-width:0.5;"/>
    <path clip-path="url(#p4ae93941dc)" d="M 33.740592 78.842212 
L 33.740592 71.903416 
" style="fill:none;stroke:#000000;stroke-width:0.5;"/>
    <path clip-path="url(#p4ae93941dc)" d="M 33.366816 63.811047 
L 33.366816 51.606972 
" style="fill:none;stroke:#000000;stroke-width:0.5;"/>
    <path clip-path="url(#p4ae93941dc)" d="M 38.727548 75.490447 
L 38.727548 59.494556 
" style="fill:none;stroke:#000000;stroke-width:0.5;"/>
    <path clip-path="url(#p4ae93941dc)" d="M 27 94.5 
L 27 94.5 
" style="fill:none;stroke:#000000;stroke-width:0.5;"/>
    <path clip-path="url(#p4ae93941dc)" d="M 27.626539 84.136387 
L 27.626539 78.350327 
" style="fill:none;stroke:#000000;stroke-width:0.5;"/>
    <path clip-path="url(#p4ae93941dc)" d="M 40.947568 62.487796 
L 40.947568 38.519234 
" style="fill:none;stroke:#000000;stroke-width:0.5;"/>
    <path clip-path="url(#p4ae93941dc)" d="M 31.229407 84.07025 
L 31.229407 77.975621 
" style="fill:none;stroke:#000000;stroke-width:0.5;"/>
    <path clip-path="url(#p4ae93941dc)" d="M 31.390058 86.349609 
L 31.390058 79.449309 
" style="fill:none;stroke:#000000;stroke-width:0.5;"/>
    <path clip-path="url(#p4ae93941dc)" d="M 31.085792 83.373757 
L 31.085792 75.339419 
" style="fill:none;stroke:#000000;stroke-width:0.5;"/>
    <path clip-path="url(#p4ae93941dc)" d="M 29.351265 83.811148 
L 29.351265 78.718224 
" style="fill:none;stroke:#000000;stroke-width:0.5;"/>
    <path clip-path="url(#p4ae93941dc)" d="M 32.707023 64.758283 
L 32.707023 51.359736 
" style="fill:none;stroke:#000000;stroke-width:0.5;"/>
    <path clip-path="url(#p4ae93941dc)" d="M 38.800079 68.563591 
L 38.800079 52.887749 
" style="fill:none;stroke:#000000;stroke-width:0.5;"/>
    <path clip-path="url(#p4ae93941dc)" d="M 31.946809 80.876099 
L 31.946809 75.470984 
" style="fill:none;stroke:#000000;stroke-width:0.5;"/>
    <path clip-path="url(#p4ae93941dc)" d="M 33.643708 82.979349 
L 33.643708 75.99149 
" style="fill:none;stroke:#000000;stroke-width:0.5;"/>
    <path clip-path="url(#p4ae93941dc)" d="M 32.018737 82.55048 
L 32.018737 57.258862 
" style="fill:none;stroke:#000000;stroke-width:0.5;"/>
    <path clip-path="url(#p4ae93941dc)" d="M 35.654086 66.446913 
L 35.654086 49.090069 
" style="fill:none;stroke:#000000;stroke-width:0.5;"/>
    <path clip-path="url(#p4ae93941dc)" d="M 29.955093 67.935522 
L 29.955093 33.49439 
" style="fill:none;stroke:#000000;stroke-width:0.5;"/>
    <path clip-path="url(#p4ae93941dc)" d="M 31.985053 78.769417 
L 31.985053 67.31961 
" style="fill:none;stroke:#000000;stroke-width:0.5;"/>
   </g>
   <g id="line2d_1">
    <path clip-path="url(#p4ae93941dc)" d="M 27 84.506548 
L 27.768595 82.430374 
L 28.53719 80.354199 
L 29.305785 78.278025 
L 30.07438 76.20185 
L 30.842975 74.125676 
L 31.61157 72.049501 
L 32.380165 69.973327 
L 33.14876 67.897152 
L 33.917355 65.820978 
L 34.68595 63.744803 
L 35.454545 61.668628 
L 36.22314 59.592454 
L 36.991736 57.516279 
L 37.760331 55.440105 
L 38.528926 53.36393 
L 39.297521 51.287756 
L 40.066116 49.211581 
L 40.834711 47.135407 
L 41.603306 45.059232 
L 42.371901 42.983058 
L 43.140496 40.906883 
L 43.909091 38.830709 
L 44.677686 36.754534 
L 45.446281 34.67836 
L 46.214876 32.602185 
L 46.983471 30.52601 
L 47.752066 28.449836 
L 48.520661 26.373661 
L 49.289256 24.297487 
L 50.057851 22.221312 
L 50.826446 20.145138 
L 51.595041 18.068963 
L 52.363636 15.992789 
L 53.132231 13.916614 
L 53.900826 11.84044 
L 54.669421 9.764265 
L 55.438017 7.688091 
L 56.206612 5.611916 
L 56.975207 3.535741 
L 57.743802 1.459567 
L 58.512397 -0.616608 
L 58.654328 -1 
" style="fill:none;stroke:#000000;stroke-dasharray:1.85,0.8;stroke-dashoffset:0;stroke-width:0.5;"/>
   </g>
   <g id="line2d_2">
    <defs>
     <path d="M 0 3 
C 0.795609 3 1.55874 2.683901 2.12132 2.12132 
C 2.683901 1.55874 3 0.795609 3 0 
C 3 -0.795609 2.683901 -1.55874 2.12132 -2.12132 
C 1.55874 -2.683901 0.795609 -3 0 -3 
C -0.795609 -3 -1.55874 -2.683901 -2.12132 -2.12132 
C -2.683901 -1.55874 -3 -0.795609 -3 0 
C -3 0.795609 -2.683901 1.55874 -2.12132 2.12132 
C -1.55874 2.683901 -0.795609 3 0 3 
z
" id="m247fcb5fe1" style="stroke:#000000;"/>
    </defs>
    <g clip-path="url(#p4ae93941dc)">
     <use style="stroke:#000000;" x="29.742026" xlink:href="#m247fcb5fe1" y="78.300728"/>
     <use style="stroke:#000000;" x="40.047516" xlink:href="#m247fcb5fe1" y="32.438154"/>
     <use style="stroke:#000000;" x="33.589999" xlink:href="#m247fcb5fe1" y="48.249007"/>
     <use style="stroke:#000000;" x="29.738043" xlink:href="#m247fcb5fe1" y="79.626598"/>
     <use style="stroke:#000000;" x="38.241133" xlink:href="#m247fcb5fe1" y="35.39389"/>
     <use style="stroke:#000000;" x="28.476126" xlink:href="#m247fcb5fe1" y="89.738924"/>
     <use style="stroke:#000000;" x="29.423694" xlink:href="#m247fcb5fe1" y="68.621863"/>
     <use style="stroke:#000000;" x="38.366413" xlink:href="#m247fcb5fe1" y="68.268173"/>
     <use style="stroke:#000000;" x="34.583279" xlink:href="#m247fcb5fe1" y="69.549583"/>
     <use style="stroke:#000000;" x="31.843506" xlink:href="#m247fcb5fe1" y="63.130509"/>
     <use style="stroke:#000000;" x="29.801718" xlink:href="#m247fcb5fe1" y="71.830912"/>
     <use style="stroke:#000000;" x="35.747231" xlink:href="#m247fcb5fe1" y="62.481798"/>
     <use style="stroke:#000000;" x="33.740592" xlink:href="#m247fcb5fe1" y="75.372814"/>
     <use style="stroke:#000000;" x="33.366816" xlink:href="#m247fcb5fe1" y="57.70901"/>
     <use style="stroke:#000000;" x="38.727548" xlink:href="#m247fcb5fe1" y="67.492501"/>
     <use style="stroke:#000000;" x="27" xlink:href="#m247fcb5fe1" y="94.5"/>
     <use style="stroke:#000000;" x="27.626539" xlink:href="#m247fcb5fe1" y="81.243357"/>
     <use style="stroke:#000000;" x="40.947568" xlink:href="#m247fcb5fe1" y="50.503515"/>
     <use style="stroke:#000000;" x="31.229407" xlink:href="#m247fcb5fe1" y="81.022936"/>
     <use style="stroke:#000000;" x="31.390058" xlink:href="#m247fcb5fe1" y="82.899459"/>
     <use style="stroke:#000000;" x="31.085792" xlink:href="#m247fcb5fe1" y="79.356588"/>
     <use style="stroke:#000000;" x="29.351265" xlink:href="#m247fcb5fe1" y="81.264686"/>
     <use style="stroke:#000000;" x="32.707023" xlink:href="#m247fcb5fe1" y="58.059009"/>
     <use style="stroke:#000000;" x="38.800079" xlink:href="#m247fcb5fe1" y="60.72567"/>
     <use style="stroke:#000000;" x="31.946809" xlink:href="#m247fcb5fe1" y="78.173541"/>
     <use style="stroke:#000000;" x="33.643708" xlink:href="#m247fcb5fe1" y="79.48542"/>
     <use style="stroke:#000000;" x="32.018737" xlink:href="#m247fcb5fe1" y="69.904671"/>
     <use style="stroke:#000000;" x="35.654086" xlink:href="#m247fcb5fe1" y="57.768491"/>
     <use style="stroke:#000000;" x="29.955093" xlink:href="#m247fcb5fe1" y="50.714956"/>
     <use style="stroke:#000000;" x="31.985053" xlink:href="#m247fcb5fe1" y="73.044514"/>
    </g>
   </g>
   <g id="patch_3">
    <path d="M 27 94.5 
L 27 12.96 
" style="fill:none;stroke:#000000;stroke-linecap:square;stroke-linejoin:miter;"/>
   </g>
   <g id="patch_4">
    <path d="M 27 94.5 
L 103.090909 94.5 
" style="fill:none;stroke:#000000;stroke-linecap:square;stroke-linejoin:miter;"/>
   </g>
   <g id="matplotlib.axis_1">
    <g id="xtick_1">
     <g id="line2d_3"/>
     <g id="text_1">
      <text style="font-family:Arial;font-size:8px;font-style:normal;font-weight:normal;text-anchor:middle;" transform="rotate(-0, 27, 103.72625)" x="27" y="103.72625">0</text>
     </g>
    </g>
    <g id="xtick_2">
     <g id="line2d_4"/>
     <g id="text_2">
      <text style="font-family:Arial;font-size:8px;font-style:normal;font-weight:normal;text-anchor:middle;" transform="rotate(-0, 63.292848, 103.72625)" x="63.292848" y="103.72625">5</text>
     </g>
    </g>
    <g id="xtick_3">
     <g id="line2d_5"/>
     <g id="text_3">
      <text style="font-family:Arial;font-size:8px;font-style:normal;font-weight:normal;text-anchor:middle;" transform="rotate(-0, 99.585695, 103.72625)" x="99.585695" y="103.72625">10</text>
     </g>
    </g>
    <g id="text_4">
     <text style="font-family:Arial;font-size:10px;font-style:normal;font-weight:normal;text-anchor:middle;" transform="rotate(-0, 65.045455, 116.474063)" x="65.045455" y="116.474063">Exc</text>
    </g>
   </g>
   <g id="matplotlib.axis_2">
    <g id="ytick_1">
     <g id="line2d_6"/>
     <g id="text_5">
      <text style="font-family:Arial;font-size:8px;font-style:normal;font-weight:normal;text-anchor:end;" transform="rotate(-0, 23.5, 97.363125)" x="23.5" y="97.363125">0.0</text>
     </g>
    </g>
    <g id="ytick_2">
     <g id="line2d_7"/>
     <g id="text_6">
      <text style="font-family:Arial;font-size:8px;font-style:normal;font-weight:normal;text-anchor:end;" transform="rotate(-0, 23.5, 77.917183)" x="23.5" y="77.917183">2.5</text>
     </g>
    </g>
    <g id="ytick_3">
     <g id="line2d_8"/>
     <g id="text_7">
      <text style="font-family:Arial;font-size:8px;font-style:normal;font-weight:normal;text-anchor:end;" transform="rotate(-0, 23.5, 58.471241)" x="23.5" y="58.471241">5.0</text>
     </g>
    </g>
    <g id="ytick_4">
     <g id="line2d_9"/>
     <g id="text_8">
      <text style="font-family:Arial;font-size:8px;font-style:normal;font-weight:normal;text-anchor:end;" transform="rotate(-0, 23.5, 39.025299)" x="23.5" y="39.025299">7.5</text>
     </g>
    </g>
    <g id="ytick_5">
     <g id="line2d_10"/>
     <g id="text_9">
      <text style="font-family:Arial;font-size:8px;font-style:normal;font-weight:normal;text-anchor:end;" transform="rotate(-0, 23.5, 19.579357)" x="23.5" y="19.579357">10.0</text>
     </g>
    </g>
    <g id="text_10">
     <text style="font-family:Arial;font-size:10px;font-style:normal;font-weight:normal;text-anchor:middle;" transform="rotate(-90, 1.94375, 53.73)" x="1.94375" y="53.73">Inh</text>
    </g>
   </g>
   <g id="legend_1">
    <g id="line2d_11">
     <path d="M 36 75.622656 
L 56 75.622656 
" style="fill:none;stroke:#000000;stroke-dasharray:1.85,0.8;stroke-dashoffset:0;stroke-width:0.5;"/>
    </g>
    <g id="line2d_12"/>
    <g id="text_11">
     <!-- $R^2$ 0.48 -->
     <g transform="translate(64 72.875)">
      <text>
       <tspan style="font-family:DejaVu Sans;font-size:10px;font-style:oblique;font-weight:oblique;" x="0" y="-0.9765625">R</tspan>
       <tspan style="font-family:DejaVu Sans;font-size:7px;font-style:book;font-weight:book;" x="7.650794" y="-4.8046875">2</tspan>
       <tspan style="font-family:Arial;font-size:10px;font-style:regular;font-weight:regular;" x="12.377845 15.156165 20.717689 23.496009 29.057533" y="-0.9765625"> 0.48</tspan>
      </text>
     </g>
     <text style="font-family:Arial;font-size:10px;font-style:normal;font-weight:normal;" transform="translate(64 83.4875)"> slope 2.52</text>
    </g>
   </g>
  </g>
  <g id="axes_2">
   <g id="patch_5">
    <path d="M 118.309091 94.5 
L 194.4 94.5 
L 194.4 12.96 
L 118.309091 12.96 
z
" style="fill:#ffffff;"/>
   </g>
   <g id="PathCollection_1">
    <defs>
     <path d="M 0 2.44949 
C 0.649612 2.44949 1.272706 2.191396 1.732051 1.732051 
C 2.191396 1.272706 2.44949 0.649612 2.44949 0 
C 2.44949 -0.649612 2.191396 -1.272706 1.732051 -1.732051 
C 1.272706 -2.191396 0.649612 -2.44949 0 -2.44949 
C -0.649612 -2.44949 -1.272706 -2.191396 -1.732051 -1.732051 
C -2.191396 -1.272706 -2.44949 -0.649612 -2.44949 0 
C -2.44949 0.649612 -2.191396 1.272706 -1.732051 1.732051 
C -1.272706 2.191396 -0.649612 2.44949 0 2.44949 
z
" id="m790818cb33" style="stroke:#000000;"/>
    </defs>
    <g clip-path="url(#p53a1c71f3c)">
     <use style="stroke:#000000;" x="130.869112" xlink:href="#m790818cb33" y="82.824899"/>
     <use style="stroke:#000000;" x="190.380858" xlink:href="#m790818cb33" y="73.749477"/>
     <use style="stroke:#000000;" x="140.479393" xlink:href="#m790818cb33" y="69.274691"/>
     <use style="stroke:#000000;" x="126.760445" xlink:href="#m790818cb33" y="85.227616"/>
     <use style="stroke:#000000;" x="145.680744" xlink:href="#m790818cb33" y="34.515564"/>
     <use style="stroke:#000000;" x="123.588411" xlink:href="#m790818cb33" y="90.463078"/>
     <use style="stroke:#000000;" x="130.829852" xlink:href="#m790818cb33" y="70.049448"/>
     <use style="stroke:#000000;" x="142.204078" xlink:href="#m790818cb33" y="76.388831"/>
     <use style="stroke:#000000;" x="139.397692" xlink:href="#m790818cb33" y="89.807527"/>
     <use style="stroke:#000000;" x="150.27607" xlink:href="#m790818cb33" y="49.02773"/>
     <use style="stroke:#000000;" x="128.743498" xlink:href="#m790818cb33" y="49.681014"/>
     <use style="stroke:#000000;" x="163.405577" xlink:href="#m790818cb33" y="80.068404"/>
     <use style="stroke:#000000;" x="136.370664" xlink:href="#m790818cb33" y="83.281763"/>
     <use style="stroke:#000000;" x="154.04296" xlink:href="#m790818cb33" y="74.76917"/>
     <use style="stroke:#000000;" x="152.253759" xlink:href="#m790818cb33" y="68.638784"/>
     <use style="stroke:#000000;" x="118.309091" xlink:href="#m790818cb33" y="94.5"/>
     <use style="stroke:#000000;" x="123.271519" xlink:href="#m790818cb33" y="85.145439"/>
     <use style="stroke:#000000;" x="159.812551" xlink:href="#m790818cb33" y="55.749041"/>
     <use style="stroke:#000000;" x="126.974204" xlink:href="#m790818cb33" y="84.646563"/>
     <use style="stroke:#000000;" x="132.108876" xlink:href="#m790818cb33" y="83.344001"/>
     <use style="stroke:#000000;" x="135.950564" xlink:href="#m790818cb33" y="81.510556"/>
     <use style="stroke:#000000;" x="129.133982" xlink:href="#m790818cb33" y="86.266061"/>
     <use style="stroke:#000000;" x="143.786543" xlink:href="#m790818cb33" y="72.838019"/>
     <use style="stroke:#000000;" x="138.599367" xlink:href="#m790818cb33" y="69.156223"/>
     <use style="stroke:#000000;" x="133.059718" xlink:href="#m790818cb33" y="85.761329"/>
     <use style="stroke:#000000;" x="131.166071" xlink:href="#m790818cb33" y="83.202441"/>
     <use style="stroke:#000000;" x="133.728663" xlink:href="#m790818cb33" y="53.610001"/>
     <use style="stroke:#000000;" x="146.275009" xlink:href="#m790818cb33" y="66.438478"/>
     <use style="stroke:#000000;" x="136.541204" xlink:href="#m790818cb33" y="38.817605"/>
     <use style="stroke:#000000;" x="140.04485" xlink:href="#m790818cb33" y="75.988627"/>
    </g>
   </g>
   <g id="line2d_13">
    <path clip-path="url(#p53a1c71f3c)" d="M 118.309091 80.056635 
L 119.077686 79.806048 
L 119.846281 79.555461 
L 120.614876 79.304874 
L 121.383471 79.054287 
L 122.152066 78.8037 
L 122.920661 78.553112 
L 123.689256 78.302525 
L 124.457851 78.051938 
L 125.226446 77.801351 
L 125.995041 77.550764 
L 126.763636 77.300176 
L 127.532231 77.049589 
L 128.300826 76.799002 
L 129.069421 76.548415 
L 129.838017 76.297828 
L 130.606612 76.04724 
L 131.375207 75.796653 
L 132.143802 75.546066 
L 132.912397 75.295479 
L 133.680992 75.044892 
L 134.449587 74.794304 
L 135.218182 74.543717 
L 135.986777 74.29313 
L 136.755372 74.042543 
L 137.523967 73.791956 
L 138.292562 73.541369 
L 139.061157 73.290781 
L 139.829752 73.040194 
L 140.598347 72.789607 
L 141.366942 72.53902 
L 142.135537 72.288433 
L 142.904132 72.037845 
L 143.672727 71.787258 
L 144.441322 71.536671 
L 145.209917 71.286084 
L 145.978512 71.035497 
L 146.747107 70.784909 
L 147.515702 70.534322 
L 148.284298 70.283735 
L 149.052893 70.033148 
L 149.821488 69.782561 
L 150.590083 69.531974 
L 151.358678 69.281386 
L 152.127273 69.030799 
L 152.895868 68.780212 
L 153.664463 68.529625 
L 154.433058 68.279038 
L 155.201653 68.02845 
L 155.970248 67.777863 
L 156.738843 67.527276 
L 157.507438 67.276689 
L 158.276033 67.026102 
L 159.044628 66.775514 
L 159.813223 66.524927 
L 160.581818 66.27434 
L 161.350413 66.023753 
L 162.119008 65.773166 
L 162.887603 65.522579 
L 163.656198 65.271991 
L 164.424793 65.021404 
L 165.193388 64.770817 
L 165.961983 64.52023 
L 166.730579 64.269643 
L 167.499174 64.019055 
L 168.267769 63.768468 
L 169.036364 63.517881 
L 169.804959 63.267294 
L 170.573554 63.016707 
L 171.342149 62.766119 
L 172.110744 62.515532 
L 172.879339 62.264945 
L 173.647934 62.014358 
L 174.416529 61.763771 
L 175.185124 61.513184 
L 175.953719 61.262596 
L 176.722314 61.012009 
L 177.490909 60.761422 
L 178.259504 60.510835 
L 179.028099 60.260248 
L 179.796694 60.00966 
L 180.565289 59.759073 
L 181.333884 59.508486 
L 182.102479 59.257899 
L 182.871074 59.007312 
L 183.639669 58.756724 
L 184.408264 58.506137 
L 185.17686 58.25555 
L 185.945455 58.004963 
L 186.71405 57.754376 
L 187.482645 57.503789 
L 188.25124 57.253201 
L 189.019835 57.002614 
L 189.78843 56.752027 
L 190.557025 56.50144 
L 191.32562 56.250853 
L 192.094215 56.000265 
L 192.86281 55.749678 
L 193.631405 55.499091 
L 194.4 55.248504 
" style="fill:none;stroke:#000000;stroke-dasharray:1.85,0.8;stroke-dashoffset:0;stroke-width:0.5;"/>
   </g>
   <g id="patch_6">
    <path d="M 118.309091 94.5 
L 118.309091 12.96 
" style="fill:none;stroke:#000000;stroke-linecap:square;stroke-linejoin:miter;"/>
   </g>
   <g id="patch_7">
    <path d="M 118.309091 94.5 
L 194.4 94.5 
" style="fill:none;stroke:#000000;stroke-linecap:square;stroke-linejoin:miter;"/>
   </g>
   <g id="matplotlib.axis_3">
    <g id="xtick_4">
     <g id="line2d_14"/>
     <g id="text_12">
      <text style="font-family:Arial;font-size:8px;font-style:normal;font-weight:normal;text-anchor:middle;" transform="rotate(-0, 118.309091, 103.72625)" x="118.309091" y="103.72625">0</text>
     </g>
    </g>
    <g id="xtick_5">
     <g id="line2d_15"/>
     <g id="text_13">
      <text style="font-family:Arial;font-size:8px;font-style:normal;font-weight:normal;text-anchor:middle;" transform="rotate(-0, 165.250001, 103.72625)" x="165.250001" y="103.72625">2</text>
     </g>
    </g>
    <g id="text_14">
     <!-- $\sigma$(Exc) -->
     <g transform="translate(141.504545 116.61625)">
      <text>
       <tspan style="font-family:DejaVu Sans;font-size:10px;font-style:oblique;font-weight:oblique;" x="0" y="-0.71875">σ</tspan>
       <tspan style="font-family:Arial;font-size:10px;font-style:regular;font-weight:regular;" x="6.337891 9.667969 16.337891 21.337891 26.337891" y="-0.71875">(Exc)</tspan>
      </text>
     </g>
    </g>
   </g>
   <g id="matplotlib.axis_4">
    <g id="ytick_6">
     <g id="line2d_16"/>
     <g id="text_15">
      <text style="font-family:Arial;font-size:8px;font-style:normal;font-weight:normal;text-anchor:end;" transform="rotate(-0, 114.809091, 97.363125)" x="114.809091" y="97.363125">0</text>
     </g>
    </g>
    <g id="ytick_7">
     <g id="line2d_17"/>
     <g id="text_16">
      <text style="font-family:Arial;font-size:8px;font-style:normal;font-weight:normal;text-anchor:end;" transform="rotate(-0, 114.809091, 72.211882)" x="114.809091" y="72.211882">1</text>
     </g>
    </g>
    <g id="ytick_8">
     <g id="line2d_18"/>
     <g id="text_17">
      <text style="font-family:Arial;font-size:8px;font-style:normal;font-weight:normal;text-anchor:end;" transform="rotate(-0, 114.809091, 47.06064)" x="114.809091" y="47.06064">2</text>
     </g>
    </g>
    <g id="ytick_9">
     <g id="line2d_19"/>
     <g id="text_18">
      <text style="font-family:Arial;font-size:8px;font-style:normal;font-weight:normal;text-anchor:end;" transform="rotate(-0, 114.809091, 21.909397)" x="114.809091" y="21.909397">3</text>
     </g>
    </g>
    <g id="text_19">
     <!-- $\sigma$(Inh) -->
     <g transform="translate(104.160341 67.18)rotate(-90)">
      <text>
       <tspan style="font-family:DejaVu Sans;font-size:10px;font-style:oblique;font-weight:oblique;" x="0" y="-0.71875">σ</tspan>
       <tspan style="font-family:Arial;font-size:10px;font-style:regular;font-weight:regular;" x="6.337891 9.667969 12.446289 18.007812 23.569336" y="-0.71875">(Inh)</tspan>
      </text>
     </g>
    </g>
   </g>
   <g id="legend_2">
    <g id="line2d_20">
     <path d="M 108.478125 31.995156 
L 128.478125 31.995156 
" style="fill:none;stroke:#000000;stroke-dasharray:1.85,0.8;stroke-dashoffset:0;stroke-width:0.5;"/>
    </g>
    <g id="line2d_21"/>
    <g id="text_20">
     <!-- $R^2$ 0.09 -->
     <g transform="translate(136.478125 29.2475)">
      <text>
       <tspan style="font-family:DejaVu Sans;font-size:10px;font-style:oblique;font-weight:oblique;" x="0" y="-0.9765625">R</tspan>
       <tspan style="font-family:DejaVu Sans;font-size:7px;font-style:book;font-weight:book;" x="7.650794" y="-4.8046875">2</tspan>
       <tspan style="font-family:Arial;font-size:10px;font-style:regular;font-weight:regular;" x="12.377845 15.156165 20.717689 23.496009 29.057533" y="-0.9765625"> 0.09</tspan>
      </text>
     </g>
     <text style="font-family:Arial;font-size:10px;font-style:normal;font-weight:normal;" transform="translate(136.478125 39.86)"> slope 0.30</text>
    </g>
   </g>
  </g>
 </g>
 <defs>
  <clipPath id="p4ae93941dc">
   <rect height="81.54" width="76.090909" x="27" y="12.96"/>
  </clipPath>
  <clipPath id="p53a1c71f3c">
   <rect height="81.54" width="76.090909" x="118.309091" y="12.96"/>
  </clipPath>
 </defs>
</svg>
