<?xml version="1.0" encoding="utf-8" standalone="no"?>
<!DOCTYPE svg PUBLIC "-//W3C//DTD SVG 1.1//EN"
  "http://www.w3.org/Graphics/SVG/1.1/DTD/svg11.dtd">
<!-- Created with matplotlib (http://matplotlib.org/) -->
<svg height="108pt" version="1.1" viewBox="0 0 216 108" width="216pt" xmlns="http://www.w3.org/2000/svg" xmlns:xlink="http://www.w3.org/1999/xlink">
 <defs>
  <style type="text/css">
*{stroke-linecap:butt;stroke-linejoin:round;}
  </style>
 </defs>
 <g id="figure_1">
  <g id="patch_1">
   <path d="M 0 108 
L 216 108 
L 216 0 
L 0 0 
z
" style="fill:#ffffff;"/>
  </g>
  <g id="axes_1">
   <g id="patch_2">
    <path d="M 27 94.5 
L 103.090909 94.5 
L 103.090909 12.96 
L 27 12.96 
z
" style="fill:#ffffff;"/>
   </g>
   <g id="LineCollection_1">
    <path clip-path="url(#p6b2e09ff44)" d="M 27.270426 60.817465 
L 46.278747 60.817465 
" style="fill:none;stroke:#000000;stroke-width:0.5;"/>
    <path clip-path="url(#p6b2e09ff44)" d="M 25.979586 82.648567 
L 31.656494 82.648567 
" style="fill:none;stroke:#000000;stroke-width:0.5;"/>
    <path clip-path="url(#p6b2e09ff44)" d="M 24.351836 63.851668 
L 37.129546 63.851668 
" style="fill:none;stroke:#000000;stroke-width:0.5;"/>
    <path clip-path="url(#p6b2e09ff44)" d="M 24.672181 45.210742 
L 52.593142 45.210742 
" style="fill:none;stroke:#000000;stroke-width:0.5;"/>
    <path clip-path="url(#p6b2e09ff44)" d="M 26.473979 80.325607 
L 37.594977 80.325607 
" style="fill:none;stroke:#000000;stroke-width:0.5;"/>
    <path clip-path="url(#p6b2e09ff44)" d="M 24.049352 69.009982 
L 42.17568 69.009982 
" style="fill:none;stroke:#000000;stroke-width:0.5;"/>
    <path clip-path="url(#p6b2e09ff44)" d="M 26.78459 90.500496 
L 27.512632 90.500496 
" style="fill:none;stroke:#000000;stroke-width:0.5;"/>
    <path clip-path="url(#p6b2e09ff44)" d="M 26.861179 77.910402 
L 36.025998 77.910402 
" style="fill:none;stroke:#000000;stroke-width:0.5;"/>
    <path clip-path="url(#p6b2e09ff44)" d="M 27.768576 69.445391 
L 43.783022 69.445391 
" style="fill:none;stroke:#000000;stroke-width:0.5;"/>
    <path clip-path="url(#p6b2e09ff44)" d="M 26.9959 39.742525 
L 50.254211 39.742525 
" style="fill:none;stroke:#000000;stroke-width:0.5;"/>
    <path clip-path="url(#p6b2e09ff44)" d="M 27.154399 66.261186 
L 40.077634 66.261186 
" style="fill:none;stroke:#000000;stroke-width:0.5;"/>
    <path clip-path="url(#p6b2e09ff44)" d="M 27 82.308126 
L 27 82.308126 
" style="fill:none;stroke:#000000;stroke-width:0.5;"/>
    <path clip-path="url(#p6b2e09ff44)" d="M 27.961494 54.613308 
L 49.696204 54.613308 
" style="fill:none;stroke:#000000;stroke-width:0.5;"/>
    <path clip-path="url(#p6b2e09ff44)" d="M 27.000789 62.355591 
L 39.914784 62.355591 
" style="fill:none;stroke:#000000;stroke-width:0.5;"/>
    <path clip-path="url(#p6b2e09ff44)" d="M 27.548938 71.532984 
L 33.243877 71.532984 
" style="fill:none;stroke:#000000;stroke-width:0.5;"/>
    <path clip-path="url(#p6b2e09ff44)" d="M 26.770299 80.158153 
L 31.134866 80.158153 
" style="fill:none;stroke:#000000;stroke-width:0.5;"/>
    <path clip-path="url(#p6b2e09ff44)" d="M 26.676196 65.973722 
L 42.50434 65.973722 
" style="fill:none;stroke:#000000;stroke-width:0.5;"/>
    <path clip-path="url(#p6b2e09ff44)" d="M 26.440601 82.707065 
L 33.730483 82.707065 
" style="fill:none;stroke:#000000;stroke-width:0.5;"/>
    <path clip-path="url(#p6b2e09ff44)" d="M 27.177286 57.112794 
L 38.792366 57.112794 
" style="fill:none;stroke:#000000;stroke-width:0.5;"/>
    <path clip-path="url(#p6b2e09ff44)" d="M 27.744131 67.546857 
L 38.216848 67.546857 
" style="fill:none;stroke:#000000;stroke-width:0.5;"/>
    <path clip-path="url(#p6b2e09ff44)" d="M 27.216014 78.143385 
L 32.088473 78.143385 
" style="fill:none;stroke:#000000;stroke-width:0.5;"/>
    <path clip-path="url(#p6b2e09ff44)" d="M 30.021277 69.324473 
L 42.715867 69.324473 
" style="fill:none;stroke:#000000;stroke-width:0.5;"/>
    <path clip-path="url(#p6b2e09ff44)" d="M 26.362836 56.523824 
L 36.11654 56.523824 
" style="fill:none;stroke:#000000;stroke-width:0.5;"/>
    <path clip-path="url(#p6b2e09ff44)" d="M 27.636565 54.475811 
L 44.662407 54.475811 
" style="fill:none;stroke:#000000;stroke-width:0.5;"/>
    <path clip-path="url(#p6b2e09ff44)" d="M 26.769481 80.04473 
L 32.060923 80.04473 
" style="fill:none;stroke:#000000;stroke-width:0.5;"/>
    <path clip-path="url(#p6b2e09ff44)" d="M 31.333132 67.155618 
L 41.418799 67.155618 
" style="fill:none;stroke:#000000;stroke-width:0.5;"/>
    <path clip-path="url(#p6b2e09ff44)" d="M 27.661897 77.37552 
L 37.090609 77.37552 
" style="fill:none;stroke:#000000;stroke-width:0.5;"/>
    <path clip-path="url(#p6b2e09ff44)" d="M 26.191622 80.563439 
L 29.803648 80.563439 
" style="fill:none;stroke:#000000;stroke-width:0.5;"/>
    <path clip-path="url(#p6b2e09ff44)" d="M 24.150038 70.163799 
L 43.10876 70.163799 
" style="fill:none;stroke:#000000;stroke-width:0.5;"/>
    <path clip-path="url(#p6b2e09ff44)" d="M 30.693657 63.264884 
L 59.185022 63.264884 
" style="fill:none;stroke:#000000;stroke-width:0.5;"/>
   </g>
   <g id="LineCollection_2">
    <path clip-path="url(#p6b2e09ff44)" d="M 36.774587 65.392774 
L 36.774587 56.242157 
" style="fill:none;stroke:#000000;stroke-width:0.5;"/>
    <path clip-path="url(#p6b2e09ff44)" d="M 28.81804 83.648525 
L 28.81804 81.64861 
" style="fill:none;stroke:#000000;stroke-width:0.5;"/>
    <path clip-path="url(#p6b2e09ff44)" d="M 30.740691 73.863857 
L 30.740691 53.83948 
" style="fill:none;stroke:#000000;stroke-width:0.5;"/>
    <path clip-path="url(#p6b2e09ff44)" d="M 38.632662 57.937406 
L 38.632662 32.484078 
" style="fill:none;stroke:#000000;stroke-width:0.5;"/>
    <path clip-path="url(#p6b2e09ff44)" d="M 32.034478 84.714082 
L 32.034478 75.937131 
" style="fill:none;stroke:#000000;stroke-width:0.5;"/>
    <path clip-path="url(#p6b2e09ff44)" d="M 33.112516 81.576058 
L 33.112516 56.443905 
" style="fill:none;stroke:#000000;stroke-width:0.5;"/>
    <path clip-path="url(#p6b2e09ff44)" d="M 27.148611 91.221324 
L 27.148611 89.779667 
" style="fill:none;stroke:#000000;stroke-width:0.5;"/>
    <path clip-path="url(#p6b2e09ff44)" d="M 31.443588 82.152048 
L 31.443588 73.668756 
" style="fill:none;stroke:#000000;stroke-width:0.5;"/>
    <path clip-path="url(#p6b2e09ff44)" d="M 35.775799 72.172017 
L 35.775799 66.718765 
" style="fill:none;stroke:#000000;stroke-width:0.5;"/>
    <path clip-path="url(#p6b2e09ff44)" d="M 38.625055 62.79832 
L 38.625055 16.68673 
" style="fill:none;stroke:#000000;stroke-width:0.5;"/>
    <path clip-path="url(#p6b2e09ff44)" d="M 33.616016 76.382273 
L 33.616016 56.1401 
" style="fill:none;stroke:#000000;stroke-width:0.5;"/>
    <path clip-path="url(#p6b2e09ff44)" d="M 27 85.417805 
L 27 79.198447 
" style="fill:none;stroke:#000000;stroke-width:0.5;"/>
    <path clip-path="url(#p6b2e09ff44)" d="M 38.828849 65.22631 
L 38.828849 44.000306 
" style="fill:none;stroke:#000000;stroke-width:0.5;"/>
    <path clip-path="url(#p6b2e09ff44)" d="M 33.457786 71.826238 
L 33.457786 52.884944 
" style="fill:none;stroke:#000000;stroke-width:0.5;"/>
    <path clip-path="url(#p6b2e09ff44)" d="M 30.396408 76.65215 
L 30.396408 66.413819 
" style="fill:none;stroke:#000000;stroke-width:0.5;"/>
    <path clip-path="url(#p6b2e09ff44)" d="M 28.952582 82.795074 
L 28.952582 77.521232 
" style="fill:none;stroke:#000000;stroke-width:0.5;"/>
    <path clip-path="url(#p6b2e09ff44)" d="M 34.590268 72.399407 
L 34.590268 59.548038 
" style="fill:none;stroke:#000000;stroke-width:0.5;"/>
    <path clip-path="url(#p6b2e09ff44)" d="M 30.085542 86.200005 
L 30.085542 79.214124 
" style="fill:none;stroke:#000000;stroke-width:0.5;"/>
    <path clip-path="url(#p6b2e09ff44)" d="M 32.984826 64.485524 
L 32.984826 49.740064 
" style="fill:none;stroke:#000000;stroke-width:0.5;"/>
    <path clip-path="url(#p6b2e09ff44)" d="M 32.980489 70.123522 
L 32.980489 64.970192 
" style="fill:none;stroke:#000000;stroke-width:0.5;"/>
    <path clip-path="url(#p6b2e09ff44)" d="M 29.652243 81.878064 
L 29.652243 74.408707 
" style="fill:none;stroke:#000000;stroke-width:0.5;"/>
    <path clip-path="url(#p6b2e09ff44)" d="M 36.368572 73.526859 
L 36.368572 65.122087 
" style="fill:none;stroke:#000000;stroke-width:0.5;"/>
    <path clip-path="url(#p6b2e09ff44)" d="M 31.239688 62.116546 
L 31.239688 50.931103 
" style="fill:none;stroke:#000000;stroke-width:0.5;"/>
    <path clip-path="url(#p6b2e09ff44)" d="M 36.149486 60.457218 
L 36.149486 48.494404 
" style="fill:none;stroke:#000000;stroke-width:0.5;"/>
    <path clip-path="url(#p6b2e09ff44)" d="M 29.415202 91.052723 
L 29.415202 69.036738 
" style="fill:none;stroke:#000000;stroke-width:0.5;"/>
    <path clip-path="url(#p6b2e09ff44)" d="M 36.375965 74.374149 
L 36.375965 59.937087 
" style="fill:none;stroke:#000000;stroke-width:0.5;"/>
    <path clip-path="url(#p6b2e09ff44)" d="M 32.376253 82.994257 
L 32.376253 71.756784 
" style="fill:none;stroke:#000000;stroke-width:0.5;"/>
    <path clip-path="url(#p6b2e09ff44)" d="M 27.997635 84.956295 
L 27.997635 76.170584 
" style="fill:none;stroke:#000000;stroke-width:0.5;"/>
    <path clip-path="url(#p6b2e09ff44)" d="M 33.629399 79.47706 
L 33.629399 60.850538 
" style="fill:none;stroke:#000000;stroke-width:0.5;"/>
    <path clip-path="url(#p6b2e09ff44)" d="M 44.93934 66.816618 
L 44.93934 59.71315 
" style="fill:none;stroke:#000000;stroke-width:0.5;"/>
   </g>
   <g id="line2d_1">
    <path clip-path="url(#p6b2e09ff44)" d="M 27 81.98505 
L 27.768595 80.346858 
L 28.53719 78.708667 
L 29.305785 77.070476 
L 30.07438 75.432284 
L 30.842975 73.794093 
L 31.61157 72.155902 
L 32.380165 70.51771 
L 33.14876 68.879519 
L 33.917355 67.241328 
L 34.68595 65.603136 
L 35.454545 63.964945 
L 36.22314 62.326754 
L 36.991736 60.688562 
L 37.760331 59.050371 
L 38.528926 57.41218 
L 39.297521 55.773988 
L 40.066116 54.135797 
L 40.834711 52.497606 
L 41.603306 50.859414 
L 42.371901 49.221223 
L 43.140496 47.583032 
L 43.909091 45.94484 
L 44.677686 44.306649 
L 45.446281 42.668458 
L 46.214876 41.030266 
L 46.983471 39.392075 
L 47.752066 37.753884 
L 48.520661 36.115692 
L 49.289256 34.477501 
L 50.057851 32.83931 
L 50.826446 31.201118 
L 51.595041 29.562927 
L 52.363636 27.924736 
L 53.132231 26.286544 
L 53.900826 24.648353 
L 54.669421 23.010162 
L 55.438017 21.37197 
L 56.206612 19.733779 
L 56.975207 18.095588 
L 57.743802 16.457396 
L 58.512397 14.819205 
L 59.280992 13.181014 
L 60.049587 11.542822 
L 60.818182 9.904631 
L 61.586777 8.26644 
L 62.355372 6.628248 
L 63.123967 4.990057 
L 63.892562 3.351866 
L 64.661157 1.713674 
L 65.429752 0.075483 
L 65.93434 -1 
" style="fill:none;stroke:#000000;stroke-dasharray:1.85,0.8;stroke-dashoffset:0;stroke-width:0.5;"/>
   </g>
   <g id="line2d_2">
    <defs>
     <path d="M 0 3 
C 0.795609 3 1.55874 2.683901 2.12132 2.12132 
C 2.683901 1.55874 3 0.795609 3 0 
C 3 -0.795609 2.683901 -1.55874 2.12132 -2.12132 
C 1.55874 -2.683901 0.795609 -3 0 -3 
C -0.795609 -3 -1.55874 -2.683901 -2.12132 -2.12132 
C -2.683901 -1.55874 -3 -0.795609 -3 0 
C -3 0.795609 -2.683901 1.55874 -2.12132 2.12132 
C -1.55874 2.683901 -0.795609 3 0 3 
z
" id="m0def250c8f" style="stroke:#000000;"/>
    </defs>
    <g clip-path="url(#p6b2e09ff44)">
     <use style="stroke:#000000;" x="36.774587" xlink:href="#m0def250c8f" y="60.817465"/>
     <use style="stroke:#000000;" x="28.81804" xlink:href="#m0def250c8f" y="82.648567"/>
     <use style="stroke:#000000;" x="30.740691" xlink:href="#m0def250c8f" y="63.851668"/>
     <use style="stroke:#000000;" x="38.632662" xlink:href="#m0def250c8f" y="45.210742"/>
     <use style="stroke:#000000;" x="32.034478" xlink:href="#m0def250c8f" y="80.325607"/>
     <use style="stroke:#000000;" x="33.112516" xlink:href="#m0def250c8f" y="69.009982"/>
     <use style="stroke:#000000;" x="27.148611" xlink:href="#m0def250c8f" y="90.500496"/>
     <use style="stroke:#000000;" x="31.443588" xlink:href="#m0def250c8f" y="77.910402"/>
     <use style="stroke:#000000;" x="35.775799" xlink:href="#m0def250c8f" y="69.445391"/>
     <use style="stroke:#000000;" x="38.625055" xlink:href="#m0def250c8f" y="39.742525"/>
     <use style="stroke:#000000;" x="33.616016" xlink:href="#m0def250c8f" y="66.261186"/>
     <use style="stroke:#000000;" x="27" xlink:href="#m0def250c8f" y="82.308126"/>
     <use style="stroke:#000000;" x="38.828849" xlink:href="#m0def250c8f" y="54.613308"/>
     <use style="stroke:#000000;" x="33.457786" xlink:href="#m0def250c8f" y="62.355591"/>
     <use style="stroke:#000000;" x="30.396408" xlink:href="#m0def250c8f" y="71.532984"/>
     <use style="stroke:#000000;" x="28.952582" xlink:href="#m0def250c8f" y="80.158153"/>
     <use style="stroke:#000000;" x="34.590268" xlink:href="#m0def250c8f" y="65.973722"/>
     <use style="stroke:#000000;" x="30.085542" xlink:href="#m0def250c8f" y="82.707065"/>
     <use style="stroke:#000000;" x="32.984826" xlink:href="#m0def250c8f" y="57.112794"/>
     <use style="stroke:#000000;" x="32.980489" xlink:href="#m0def250c8f" y="67.546857"/>
     <use style="stroke:#000000;" x="29.652243" xlink:href="#m0def250c8f" y="78.143385"/>
     <use style="stroke:#000000;" x="36.368572" xlink:href="#m0def250c8f" y="69.324473"/>
     <use style="stroke:#000000;" x="31.239688" xlink:href="#m0def250c8f" y="56.523824"/>
     <use style="stroke:#000000;" x="36.149486" xlink:href="#m0def250c8f" y="54.475811"/>
     <use style="stroke:#000000;" x="29.415202" xlink:href="#m0def250c8f" y="80.04473"/>
     <use style="stroke:#000000;" x="36.375965" xlink:href="#m0def250c8f" y="67.155618"/>
     <use style="stroke:#000000;" x="32.376253" xlink:href="#m0def250c8f" y="77.37552"/>
     <use style="stroke:#000000;" x="27.997635" xlink:href="#m0def250c8f" y="80.563439"/>
     <use style="stroke:#000000;" x="33.629399" xlink:href="#m0def250c8f" y="70.163799"/>
     <use style="stroke:#000000;" x="44.93934" xlink:href="#m0def250c8f" y="63.264884"/>
    </g>
   </g>
   <g id="patch_3">
    <path d="M 27 94.5 
L 27 12.96 
" style="fill:none;stroke:#000000;stroke-linecap:square;stroke-linejoin:miter;"/>
   </g>
   <g id="patch_4">
    <path d="M 27 94.5 
L 103.090909 94.5 
" style="fill:none;stroke:#000000;stroke-linecap:square;stroke-linejoin:miter;"/>
   </g>
   <g id="matplotlib.axis_1">
    <g id="xtick_1">
     <g id="line2d_3"/>
     <g id="text_1">
      <text style="font-family:Arial;font-size:8px;font-style:normal;font-weight:normal;text-anchor:middle;" transform="rotate(-0, 27, 103.72625)" x="27" y="103.72625">0</text>
     </g>
    </g>
    <g id="xtick_2">
     <g id="line2d_4"/>
     <g id="text_2">
      <text style="font-family:Arial;font-size:8px;font-style:normal;font-weight:normal;text-anchor:middle;" transform="rotate(-0, 56.444874, 103.72625)" x="56.444874" y="103.72625">5</text>
     </g>
    </g>
    <g id="xtick_3">
     <g id="line2d_5"/>
     <g id="text_3">
      <text style="font-family:Arial;font-size:8px;font-style:normal;font-weight:normal;text-anchor:middle;" transform="rotate(-0, 85.889749, 103.72625)" x="85.889749" y="103.72625">10</text>
     </g>
    </g>
    <g id="text_4">
     <text style="font-family:Arial;font-size:10px;font-style:normal;font-weight:normal;text-anchor:middle;" transform="rotate(-0, 65.045455, 116.474063)" x="65.045455" y="116.474063">Exc</text>
    </g>
   </g>
   <g id="matplotlib.axis_2">
    <g id="ytick_1">
     <g id="line2d_6"/>
     <g id="text_5">
      <text style="font-family:Arial;font-size:8px;font-style:normal;font-weight:normal;text-anchor:end;" transform="rotate(-0, 23.5, 97.363125)" x="23.5" y="97.363125">0</text>
     </g>
    </g>
    <g id="ytick_2">
     <g id="line2d_7"/>
     <g id="text_6">
      <text style="font-family:Arial;font-size:8px;font-style:normal;font-weight:normal;text-anchor:end;" transform="rotate(-0, 23.5, 65.809618)" x="23.5" y="65.809618">5</text>
     </g>
    </g>
    <g id="ytick_3">
     <g id="line2d_8"/>
     <g id="text_7">
      <text style="font-family:Arial;font-size:8px;font-style:normal;font-weight:normal;text-anchor:end;" transform="rotate(-0, 23.5, 34.256111)" x="23.5" y="34.256111">10</text>
     </g>
    </g>
    <g id="text_8">
     <text style="font-family:Arial;font-size:10px;font-style:normal;font-weight:normal;text-anchor:middle;" transform="rotate(-90, 8.615, 53.73)" x="8.615" y="53.73">Inh</text>
    </g>
   </g>
   <g id="legend_1">
    <g id="line2d_9">
     <path d="M 36 75.622656 
L 56 75.622656 
" style="fill:none;stroke:#000000;stroke-dasharray:1.85,0.8;stroke-dashoffset:0;stroke-width:0.5;"/>
    </g>
    <g id="line2d_10"/>
    <g id="text_9">
     <!-- $R^2$ 0.53 -->
     <g transform="translate(64 72.875)">
      <text>
       <tspan style="font-family:DejaVu Sans;font-size:10px;font-style:oblique;font-weight:oblique;" x="0" y="-0.9765625">R</tspan>
       <tspan style="font-family:DejaVu Sans;font-size:7px;font-style:book;font-weight:book;" x="7.650794" y="-4.8046875">2</tspan>
       <tspan style="font-family:Arial;font-size:10px;font-style:regular;font-weight:regular;" x="12.377845 15.156165 20.717689 23.496009 29.057533" y="-0.9765625"> 0.53</tspan>
      </text>
     </g>
     <text style="font-family:Arial;font-size:10px;font-style:normal;font-weight:normal;" transform="translate(64 83.4875)"> slope 1.99</text>
    </g>
   </g>
  </g>
  <g id="axes_2">
   <g id="patch_5">
    <path d="M 118.309091 94.5 
L 194.4 94.5 
L 194.4 12.96 
L 118.309091 12.96 
z
" style="fill:#ffffff;"/>
   </g>
   <g id="PathCollection_1">
    <defs>
     <path d="M 0 2.44949 
C 0.649612 2.44949 1.272706 2.191396 1.732051 1.732051 
C 2.191396 1.272706 2.44949 0.649612 2.44949 0 
C 2.44949 -0.649612 2.191396 -1.272706 1.732051 -1.732051 
C 1.272706 -2.191396 0.649612 -2.44949 0 -2.44949 
C -0.649612 -2.44949 -1.272706 -2.191396 -1.732051 -1.732051 
C -2.191396 -1.272706 -2.44949 -0.649612 -2.44949 0 
C -2.44949 0.649612 -2.191396 1.272706 -1.732051 1.732051 
C -1.272706 2.191396 -0.649612 2.44949 0 2.44949 
z
" id="mb713baa4b0" style="stroke:#000000;"/>
    </defs>
    <g clip-path="url(#p3c4ddddb10)">
     <use style="stroke:#000000;" x="150.265606" xlink:href="#mb713baa4b0" y="79.116114"/>
     <use style="stroke:#000000;" x="127.853027" xlink:href="#mb713baa4b0" y="91.137772"/>
     <use style="stroke:#000000;" x="139.790793" xlink:href="#mb713baa4b0" y="60.835307"/>
     <use style="stroke:#000000;" x="165.249407" xlink:href="#mb713baa4b0" y="51.708232"/>
     <use style="stroke:#000000;" x="137.005552" xlink:href="#mb713baa4b0" y="79.744316"/>
     <use style="stroke:#000000;" x="148.782812" xlink:href="#mb713baa4b0" y="52.248187"/>
     <use style="stroke:#000000;" x="119.533065" xlink:href="#mb713baa4b0" y="92.076308"/>
     <use style="stroke:#000000;" x="133.716853" xlink:href="#mb713baa4b0" y="80.238012"/>
     <use style="stroke:#000000;" x="145.232347" xlink:href="#mb713baa4b0" y="85.332071"/>
     <use style="stroke:#000000;" x="157.410629" xlink:href="#mb713baa4b0" y="16.97786"/>
     <use style="stroke:#000000;" x="140.035448" xlink:href="#mb713baa4b0" y="60.469152"/>
     <use style="stroke:#000000;" x="118.309091" xlink:href="#mb713baa4b0" y="84.044104"/>
     <use style="stroke:#000000;" x="154.849171" xlink:href="#mb713baa4b0" y="58.815147"/>
     <use style="stroke:#000000;" x="140.019913" xlink:href="#mb713baa4b0" y="62.65617"/>
     <use style="stroke:#000000;" x="127.88334" xlink:href="#mb713baa4b0" y="77.287465"/>
     <use style="stroke:#000000;" x="125.646738" xlink:href="#mb713baa4b0" y="85.633693"/>
     <use style="stroke:#000000;" x="144.919139" xlink:href="#mb713baa4b0" y="72.894464"/>
     <use style="stroke:#000000;" x="130.564735" xlink:href="#mb713baa4b0" y="82.755437"/>
     <use style="stroke:#000000;" x="137.836195" xlink:href="#mb713baa4b0" y="69.710146"/>
     <use style="stroke:#000000;" x="135.915673" xlink:href="#mb713baa4b0" y="85.836296"/>
     <use style="stroke:#000000;" x="126.500598" xlink:href="#mb713baa4b0" y="81.942624"/>
     <use style="stroke:#000000;" x="139.651052" xlink:href="#mb713baa4b0" y="80.370019"/>
     <use style="stroke:#000000;" x="134.706878" xlink:href="#mb713baa4b0" y="75.695196"/>
     <use style="stroke:#000000;" x="146.93269" xlink:href="#mb713baa4b0" y="74.388289"/>
     <use style="stroke:#000000;" x="127.204986" xlink:href="#mb713baa4b0" y="57.487043"/>
     <use style="stroke:#000000;" x="135.264969" xlink:href="#mb713baa4b0" y="70.228619"/>
     <use style="stroke:#000000;" x="134.160506" xlink:href="#mb713baa4b0" y="75.607721"/>
     <use style="stroke:#000000;" x="124.381578" xlink:href="#mb713baa4b0" y="79.729588"/>
     <use style="stroke:#000000;" x="150.182222" xlink:href="#mb713baa4b0" y="63.185359"/>
     <use style="stroke:#000000;" x="166.208363" xlink:href="#mb713baa4b0" y="82.557753"/>
    </g>
   </g>
   <g id="line2d_11">
    <path clip-path="url(#p3c4ddddb10)" d="M 118.309091 86.183535 
L 119.077686 85.666605 
L 119.846281 85.149676 
L 120.614876 84.632747 
L 121.383471 84.115817 
L 122.152066 83.598888 
L 122.920661 83.081959 
L 123.689256 82.565029 
L 124.457851 82.0481 
L 125.226446 81.53117 
L 125.995041 81.014241 
L 126.763636 80.497312 
L 127.532231 79.980382 
L 128.300826 79.463453 
L 129.069421 78.946523 
L 129.838017 78.429594 
L 130.606612 77.912665 
L 131.375207 77.395735 
L 132.143802 76.878806 
L 132.912397 76.361877 
L 133.680992 75.844947 
L 134.449587 75.328018 
L 135.218182 74.811088 
L 135.986777 74.294159 
L 136.755372 73.77723 
L 137.523967 73.2603 
L 138.292562 72.743371 
L 139.061157 72.226442 
L 139.829752 71.709512 
L 140.598347 71.192583 
L 141.366942 70.675653 
L 142.135537 70.158724 
L 142.904132 69.641795 
L 143.672727 69.124865 
L 144.441322 68.607936 
L 145.209917 68.091006 
L 145.978512 67.574077 
L 146.747107 67.057148 
L 147.515702 66.540218 
L 148.284298 66.023289 
L 149.052893 65.50636 
L 149.821488 64.98943 
L 150.590083 64.472501 
L 151.358678 63.955571 
L 152.127273 63.438642 
L 152.895868 62.921713 
L 153.664463 62.404783 
L 154.433058 61.887854 
L 155.201653 61.370925 
L 155.970248 60.853995 
L 156.738843 60.337066 
L 157.507438 59.820136 
L 158.276033 59.303207 
L 159.044628 58.786278 
L 159.813223 58.269348 
L 160.581818 57.752419 
L 161.350413 57.235489 
L 162.119008 56.71856 
L 162.887603 56.201631 
L 163.656198 55.684701 
L 164.424793 55.167772 
L 165.193388 54.650843 
L 165.961983 54.133913 
L 166.730579 53.616984 
L 167.499174 53.100054 
L 168.267769 52.583125 
L 169.036364 52.066196 
L 169.804959 51.549266 
L 170.573554 51.032337 
L 171.342149 50.515408 
L 172.110744 49.998478 
L 172.879339 49.481549 
L 173.647934 48.964619 
L 174.416529 48.44769 
L 175.185124 47.930761 
L 175.953719 47.413831 
L 176.722314 46.896902 
L 177.490909 46.379972 
L 178.259504 45.863043 
L 179.028099 45.346114 
L 179.796694 44.829184 
L 180.565289 44.312255 
L 181.333884 43.795326 
L 182.102479 43.278396 
L 182.871074 42.761467 
L 183.639669 42.244537 
L 184.408264 41.727608 
L 185.17686 41.210679 
L 185.945455 40.693749 
L 186.71405 40.17682 
L 187.482645 39.659891 
L 188.25124 39.142961 
L 189.019835 38.626032 
L 189.78843 38.109102 
L 190.557025 37.592173 
L 191.32562 37.075244 
L 192.094215 36.558314 
L 192.86281 36.041385 
L 193.631405 35.524456 
L 194.4 35.007526 
" style="fill:none;stroke:#000000;stroke-dasharray:1.85,0.8;stroke-dashoffset:0;stroke-width:0.5;"/>
   </g>
   <g id="patch_6">
    <path d="M 118.309091 94.5 
L 118.309091 12.96 
" style="fill:none;stroke:#000000;stroke-linecap:square;stroke-linejoin:miter;"/>
   </g>
   <g id="patch_7">
    <path d="M 118.309091 94.5 
L 194.4 94.5 
" style="fill:none;stroke:#000000;stroke-linecap:square;stroke-linejoin:miter;"/>
   </g>
   <g id="matplotlib.axis_3">
    <g id="xtick_4">
     <g id="line2d_12"/>
     <g id="text_10">
      <text style="font-family:Arial;font-size:8px;font-style:normal;font-weight:normal;text-anchor:middle;" transform="rotate(-0, 118.309091, 103.72625)" x="118.309091" y="103.72625">0</text>
     </g>
    </g>
    <g id="xtick_5">
     <g id="line2d_13"/>
     <g id="text_11">
      <text style="font-family:Arial;font-size:8px;font-style:normal;font-weight:normal;text-anchor:middle;" transform="rotate(-0, 157.910929, 103.72625)" x="157.910929" y="103.72625">2</text>
     </g>
    </g>
    <g id="text_12">
     <!-- $\sigma$(Exc) -->
     <g transform="translate(141.504545 116.61625)">
      <text>
       <tspan style="font-family:DejaVu Sans;font-size:10px;font-style:oblique;font-weight:oblique;" x="0" y="-0.71875">σ</tspan>
       <tspan style="font-family:Arial;font-size:10px;font-style:regular;font-weight:regular;" x="6.337891 9.667969 16.337891 21.337891 26.337891" y="-0.71875">(Exc)</tspan>
      </text>
     </g>
    </g>
   </g>
   <g id="matplotlib.axis_4">
    <g id="ytick_4">
     <g id="line2d_14"/>
     <g id="text_13">
      <text style="font-family:Arial;font-size:8px;font-style:normal;font-weight:normal;text-anchor:end;" transform="rotate(-0, 114.809091, 97.363125)" x="114.809091" y="97.363125">0</text>
     </g>
    </g>
    <g id="ytick_5">
     <g id="line2d_15"/>
     <g id="text_14">
      <text style="font-family:Arial;font-size:8px;font-style:normal;font-weight:normal;text-anchor:end;" transform="rotate(-0, 114.809091, 76.144204)" x="114.809091" y="76.144204">1</text>
     </g>
    </g>
    <g id="ytick_6">
     <g id="line2d_16"/>
     <g id="text_15">
      <text style="font-family:Arial;font-size:8px;font-style:normal;font-weight:normal;text-anchor:end;" transform="rotate(-0, 114.809091, 54.925284)" x="114.809091" y="54.925284">2</text>
     </g>
    </g>
    <g id="ytick_7">
     <g id="line2d_17"/>
     <g id="text_16">
      <text style="font-family:Arial;font-size:8px;font-style:normal;font-weight:normal;text-anchor:end;" transform="rotate(-0, 114.809091, 33.706363)" x="114.809091" y="33.706363">3</text>
     </g>
    </g>
    <g id="text_17">
     <!-- $\sigma$(Inh) -->
     <g transform="translate(104.160341 67.18)rotate(-90)">
      <text>
       <tspan style="font-family:DejaVu Sans;font-size:10px;font-style:oblique;font-weight:oblique;" x="0" y="-0.71875">σ</tspan>
       <tspan style="font-family:Arial;font-size:10px;font-style:regular;font-weight:regular;" x="6.337891 9.667969 12.446289 18.007812 23.569336" y="-0.71875">(Inh)</tspan>
      </text>
     </g>
    </g>
   </g>
   <g id="legend_2">
    <g id="line2d_18">
     <path d="M 108.478125 31.995156 
L 128.478125 31.995156 
" style="fill:none;stroke:#000000;stroke-dasharray:1.85,0.8;stroke-dashoffset:0;stroke-width:0.5;"/>
    </g>
    <g id="line2d_19"/>
    <g id="text_18">
     <!-- $R^2$ 0.29 -->
     <g transform="translate(136.478125 29.2475)">
      <text>
       <tspan style="font-family:DejaVu Sans;font-size:10px;font-style:oblique;font-weight:oblique;" x="0" y="-0.9765625">R</tspan>
       <tspan style="font-family:DejaVu Sans;font-size:7px;font-style:book;font-weight:book;" x="7.650794" y="-4.8046875">2</tspan>
       <tspan style="font-family:Arial;font-size:10px;font-style:regular;font-weight:regular;" x="12.377845 15.156165 20.717689 23.496009 29.057533" y="-0.9765625"> 0.29</tspan>
      </text>
     </g>
     <text style="font-family:Arial;font-size:10px;font-style:normal;font-weight:normal;" transform="translate(136.478125 39.86)"> slope 0.63</text>
    </g>
   </g>
  </g>
 </g>
 <defs>
  <clipPath id="p6b2e09ff44">
   <rect height="81.54" width="76.090909" x="27" y="12.96"/>
  </clipPath>
  <clipPath id="p3c4ddddb10">
   <rect height="81.54" width="76.090909" x="118.309091" y="12.96"/>
  </clipPath>
 </defs>
</svg>
