<?xml version="1.0" encoding="utf-8" standalone="no"?>
<!DOCTYPE svg PUBLIC "-//W3C//DTD SVG 1.1//EN"
  "http://www.w3.org/Graphics/SVG/1.1/DTD/svg11.dtd">
<!-- Created with matplotlib (http://matplotlib.org/) -->
<svg height="108pt" version="1.1" viewBox="0 0 216 108" width="216pt" xmlns="http://www.w3.org/2000/svg" xmlns:xlink="http://www.w3.org/1999/xlink">
 <defs>
  <style type="text/css">
*{stroke-linecap:butt;stroke-linejoin:round;}
  </style>
 </defs>
 <g id="figure_1">
  <g id="patch_1">
   <path d="M 0 108 
L 216 108 
L 216 0 
L 0 0 
z
" style="fill:#ffffff;"/>
  </g>
  <g id="axes_1">
   <g id="patch_2">
    <path d="M 27 94.5 
L 103.090909 94.5 
L 103.090909 12.96 
L 27 12.96 
z
" style="fill:#ffffff;"/>
   </g>
   <g id="LineCollection_1">
    <path clip-path="url(#p33b2a0c2fd)" d="M 28.30706 60.135004 
L 39.226559 60.135004 
" style="fill:none;stroke:#000000;stroke-width:0.5;"/>
    <path clip-path="url(#p33b2a0c2fd)" d="M 29.495801 63.559785 
L 42.494737 63.559785 
" style="fill:none;stroke:#000000;stroke-width:0.5;"/>
    <path clip-path="url(#p33b2a0c2fd)" d="M 29.074332 78.471189 
L 37.97645 78.471189 
" style="fill:none;stroke:#000000;stroke-width:0.5;"/>
    <path clip-path="url(#p33b2a0c2fd)" d="M 26.483769 90.244012 
L 29.352829 90.244012 
" style="fill:none;stroke:#000000;stroke-width:0.5;"/>
    <path clip-path="url(#p33b2a0c2fd)" d="M 25.765552 83.140588 
L 32.480083 83.140588 
" style="fill:none;stroke:#000000;stroke-width:0.5;"/>
    <path clip-path="url(#p33b2a0c2fd)" d="M 31.492537 58.14325 
L 49.700381 58.14325 
" style="fill:none;stroke:#000000;stroke-width:0.5;"/>
    <path clip-path="url(#p33b2a0c2fd)" d="M 33.949244 69.0716 
L 46.187404 69.0716 
" style="fill:none;stroke:#000000;stroke-width:0.5;"/>
    <path clip-path="url(#p33b2a0c2fd)" d="M 26.432641 81.903543 
L 39.456058 81.903543 
" style="fill:none;stroke:#000000;stroke-width:0.5;"/>
    <path clip-path="url(#p33b2a0c2fd)" d="M 24.940509 69.270673 
L 43.66712 69.270673 
" style="fill:none;stroke:#000000;stroke-width:0.5;"/>
    <path clip-path="url(#p33b2a0c2fd)" d="M 28.157075 68.180161 
L 34.193908 68.180161 
" style="fill:none;stroke:#000000;stroke-width:0.5;"/>
    <path clip-path="url(#p33b2a0c2fd)" d="M 26.470911 92.690778 
L 28.259124 92.690778 
" style="fill:none;stroke:#000000;stroke-width:0.5;"/>
    <path clip-path="url(#p33b2a0c2fd)" d="M 27 94.5 
L 27 94.5 
" style="fill:none;stroke:#000000;stroke-width:0.5;"/>
    <path clip-path="url(#p33b2a0c2fd)" d="M 29.110483 51.266867 
L 51.375874 51.266867 
" style="fill:none;stroke:#000000;stroke-width:0.5;"/>
    <path clip-path="url(#p33b2a0c2fd)" d="M 26.503534 68.277748 
L 35.216703 68.277748 
" style="fill:none;stroke:#000000;stroke-width:0.5;"/>
    <path clip-path="url(#p33b2a0c2fd)" d="M 20.086688 60.793165 
L 46.595701 60.793165 
" style="fill:none;stroke:#000000;stroke-width:0.5;"/>
    <path clip-path="url(#p33b2a0c2fd)" d="M 25.90282 76.826337 
L 40.571105 76.826337 
" style="fill:none;stroke:#000000;stroke-width:0.5;"/>
    <path clip-path="url(#p33b2a0c2fd)" d="M 26.725573 79.753603 
L 32.968573 79.753603 
" style="fill:none;stroke:#000000;stroke-width:0.5;"/>
    <path clip-path="url(#p33b2a0c2fd)" d="M 25.676131 66.783904 
L 47.715438 66.783904 
" style="fill:none;stroke:#000000;stroke-width:0.5;"/>
    <path clip-path="url(#p33b2a0c2fd)" d="M 27.235799 35.610272 
L 39.680856 35.610272 
" style="fill:none;stroke:#000000;stroke-width:0.5;"/>
    <path clip-path="url(#p33b2a0c2fd)" d="M 26.399916 84.381155 
L 33.237871 84.381155 
" style="fill:none;stroke:#000000;stroke-width:0.5;"/>
    <path clip-path="url(#p33b2a0c2fd)" d="M 26.112317 75.181879 
L 31.120364 75.181879 
" style="fill:none;stroke:#000000;stroke-width:0.5;"/>
    <path clip-path="url(#p33b2a0c2fd)" d="M 27.812451 83.659793 
L 33.55969 83.659793 
" style="fill:none;stroke:#000000;stroke-width:0.5;"/>
    <path clip-path="url(#p33b2a0c2fd)" d="M 23.440692 53.770199 
L 42.102259 53.770199 
" style="fill:none;stroke:#000000;stroke-width:0.5;"/>
    <path clip-path="url(#p33b2a0c2fd)" d="M 26.768592 82.637114 
L 32.080429 82.637114 
" style="fill:none;stroke:#000000;stroke-width:0.5;"/>
    <path clip-path="url(#p33b2a0c2fd)" d="M 24.724013 85.958488 
L 32.416385 85.958488 
" style="fill:none;stroke:#000000;stroke-width:0.5;"/>
    <path clip-path="url(#p33b2a0c2fd)" d="M 27.182935 50.519108 
L 47.800678 50.519108 
" style="fill:none;stroke:#000000;stroke-width:0.5;"/>
    <path clip-path="url(#p33b2a0c2fd)" d="M 25.980697 71.818163 
L 44.806947 71.818163 
" style="fill:none;stroke:#000000;stroke-width:0.5;"/>
    <path clip-path="url(#p33b2a0c2fd)" d="M 28.903195 57.046186 
L 43.3927 57.046186 
" style="fill:none;stroke:#000000;stroke-width:0.5;"/>
    <path clip-path="url(#p33b2a0c2fd)" d="M 28.812573 52.29473 
L 35.265592 52.29473 
" style="fill:none;stroke:#000000;stroke-width:0.5;"/>
    <path clip-path="url(#p33b2a0c2fd)" d="M 23.376402 75.857405 
L 44.553338 75.857405 
" style="fill:none;stroke:#000000;stroke-width:0.5;"/>
   </g>
   <g id="LineCollection_2">
    <path clip-path="url(#p33b2a0c2fd)" d="M 33.766809 74.677012 
L 33.766809 45.592996 
" style="fill:none;stroke:#000000;stroke-width:0.5;"/>
    <path clip-path="url(#p33b2a0c2fd)" d="M 35.995269 70.282852 
L 35.995269 56.836719 
" style="fill:none;stroke:#000000;stroke-width:0.5;"/>
    <path clip-path="url(#p33b2a0c2fd)" d="M 33.525391 84.103372 
L 33.525391 72.839005 
" style="fill:none;stroke:#000000;stroke-width:0.5;"/>
    <path clip-path="url(#p33b2a0c2fd)" d="M 27.918299 92.700098 
L 27.918299 87.787926 
" style="fill:none;stroke:#000000;stroke-width:0.5;"/>
    <path clip-path="url(#p33b2a0c2fd)" d="M 29.122818 84.987838 
L 29.122818 81.293338 
" style="fill:none;stroke:#000000;stroke-width:0.5;"/>
    <path clip-path="url(#p33b2a0c2fd)" d="M 40.596459 64.017735 
L 40.596459 52.268764 
" style="fill:none;stroke:#000000;stroke-width:0.5;"/>
    <path clip-path="url(#p33b2a0c2fd)" d="M 40.068324 80.251125 
L 40.068324 57.892074 
" style="fill:none;stroke:#000000;stroke-width:0.5;"/>
    <path clip-path="url(#p33b2a0c2fd)" d="M 32.94435 88.10976 
L 32.94435 75.697326 
" style="fill:none;stroke:#000000;stroke-width:0.5;"/>
    <path clip-path="url(#p33b2a0c2fd)" d="M 34.303815 74.666943 
L 34.303815 63.874404 
" style="fill:none;stroke:#000000;stroke-width:0.5;"/>
    <path clip-path="url(#p33b2a0c2fd)" d="M 31.175492 74.450634 
L 31.175492 61.909688 
" style="fill:none;stroke:#000000;stroke-width:0.5;"/>
    <path clip-path="url(#p33b2a0c2fd)" d="M 27.365018 93.577112 
L 27.365018 91.804443 
" style="fill:none;stroke:#000000;stroke-width:0.5;"/>
    <path clip-path="url(#p33b2a0c2fd)" d="M 27 94.5 
L 27 94.5 
" style="fill:none;stroke:#000000;stroke-width:0.5;"/>
    <path clip-path="url(#p33b2a0c2fd)" d="M 40.243178 62.06159 
L 40.243178 40.472144 
" style="fill:none;stroke:#000000;stroke-width:0.5;"/>
    <path clip-path="url(#p33b2a0c2fd)" d="M 30.860118 71.802779 
L 30.860118 64.752717 
" style="fill:none;stroke:#000000;stroke-width:0.5;"/>
    <path clip-path="url(#p33b2a0c2fd)" d="M 33.341195 71.805988 
L 33.341195 49.780342 
" style="fill:none;stroke:#000000;stroke-width:0.5;"/>
    <path clip-path="url(#p33b2a0c2fd)" d="M 33.236962 78.906242 
L 33.236962 74.746433 
" style="fill:none;stroke:#000000;stroke-width:0.5;"/>
    <path clip-path="url(#p33b2a0c2fd)" d="M 29.847073 83.800496 
L 29.847073 75.70671 
" style="fill:none;stroke:#000000;stroke-width:0.5;"/>
    <path clip-path="url(#p33b2a0c2fd)" d="M 36.695784 74.978006 
L 36.695784 58.589802 
" style="fill:none;stroke:#000000;stroke-width:0.5;"/>
    <path clip-path="url(#p33b2a0c2fd)" d="M 33.458328 54.377686 
L 33.458328 16.842857 
" style="fill:none;stroke:#000000;stroke-width:0.5;"/>
    <path clip-path="url(#p33b2a0c2fd)" d="M 29.818894 86.175692 
L 29.818894 82.586618 
" style="fill:none;stroke:#000000;stroke-width:0.5;"/>
    <path clip-path="url(#p33b2a0c2fd)" d="M 28.61634 79.889369 
L 28.61634 70.474389 
" style="fill:none;stroke:#000000;stroke-width:0.5;"/>
    <path clip-path="url(#p33b2a0c2fd)" d="M 30.68607 90.690566 
L 30.68607 76.629019 
" style="fill:none;stroke:#000000;stroke-width:0.5;"/>
    <path clip-path="url(#p33b2a0c2fd)" d="M 32.771476 64.939771 
L 32.771476 42.600627 
" style="fill:none;stroke:#000000;stroke-width:0.5;"/>
    <path clip-path="url(#p33b2a0c2fd)" d="M 29.42451 85.459792 
L 29.42451 79.814435 
" style="fill:none;stroke:#000000;stroke-width:0.5;"/>
    <path clip-path="url(#p33b2a0c2fd)" d="M 28.570199 90.142957 
L 28.570199 81.774019 
" style="fill:none;stroke:#000000;stroke-width:0.5;"/>
    <path clip-path="url(#p33b2a0c2fd)" d="M 37.491806 63.756093 
L 37.491806 37.282124 
" style="fill:none;stroke:#000000;stroke-width:0.5;"/>
    <path clip-path="url(#p33b2a0c2fd)" d="M 35.393822 79.924968 
L 35.393822 63.711357 
" style="fill:none;stroke:#000000;stroke-width:0.5;"/>
    <path clip-path="url(#p33b2a0c2fd)" d="M 36.147947 63.303575 
L 36.147947 50.788798 
" style="fill:none;stroke:#000000;stroke-width:0.5;"/>
    <path clip-path="url(#p33b2a0c2fd)" d="M 32.039082 66.30356 
L 32.039082 38.285901 
" style="fill:none;stroke:#000000;stroke-width:0.5;"/>
    <path clip-path="url(#p33b2a0c2fd)" d="M 33.96487 85.615653 
L 33.96487 66.099157 
" style="fill:none;stroke:#000000;stroke-width:0.5;"/>
   </g>
   <g id="line2d_1">
    <path clip-path="url(#p33b2a0c2fd)" d="M 27 85.529027 
L 27.768595 83.593814 
L 28.53719 81.658601 
L 29.305785 79.723389 
L 30.07438 77.788176 
L 30.842975 75.852963 
L 31.61157 73.917751 
L 32.380165 71.982538 
L 33.14876 70.047325 
L 33.917355 68.112112 
L 34.68595 66.1769 
L 35.454545 64.241687 
L 36.22314 62.306474 
L 36.991736 60.371262 
L 37.760331 58.436049 
L 38.528926 56.500836 
L 39.297521 54.565624 
L 40.066116 52.630411 
L 40.834711 50.695198 
L 41.603306 48.759986 
L 42.371901 46.824773 
L 43.140496 44.88956 
L 43.909091 42.954348 
L 44.677686 41.019135 
L 45.446281 39.083922 
L 46.214876 37.148709 
L 46.983471 35.213497 
L 47.752066 33.278284 
L 48.520661 31.343071 
L 49.289256 29.407859 
L 50.057851 27.472646 
L 50.826446 25.537433 
L 51.595041 23.602221 
L 52.363636 21.667008 
L 53.132231 19.731795 
L 53.900826 17.796583 
L 54.669421 15.86137 
L 55.438017 13.926157 
L 56.206612 11.990945 
L 56.975207 10.055732 
L 57.743802 8.120519 
L 58.512397 6.185306 
L 59.280992 4.250094 
L 60.049587 2.314881 
L 60.818182 0.379668 
L 61.366135 -1 
" style="fill:none;stroke:#000000;stroke-dasharray:1.85,0.8;stroke-dashoffset:0;stroke-width:0.5;"/>
   </g>
   <g id="line2d_2">
    <defs>
     <path d="M 0 3 
C 0.795609 3 1.55874 2.683901 2.12132 2.12132 
C 2.683901 1.55874 3 0.795609 3 0 
C 3 -0.795609 2.683901 -1.55874 2.12132 -2.12132 
C 1.55874 -2.683901 0.795609 -3 0 -3 
C -0.795609 -3 -1.55874 -2.683901 -2.12132 -2.12132 
C -2.683901 -1.55874 -3 -0.795609 -3 0 
C -3 0.795609 -2.683901 1.55874 -2.12132 2.12132 
C -1.55874 2.683901 -0.795609 3 0 3 
z
" id="md305cd01e0" style="stroke:#000000;"/>
    </defs>
    <g clip-path="url(#p33b2a0c2fd)">
     <use style="stroke:#000000;" x="33.766809" xlink:href="#md305cd01e0" y="60.135004"/>
     <use style="stroke:#000000;" x="35.995269" xlink:href="#md305cd01e0" y="63.559785"/>
     <use style="stroke:#000000;" x="33.525391" xlink:href="#md305cd01e0" y="78.471189"/>
     <use style="stroke:#000000;" x="27.918299" xlink:href="#md305cd01e0" y="90.244012"/>
     <use style="stroke:#000000;" x="29.122818" xlink:href="#md305cd01e0" y="83.140588"/>
     <use style="stroke:#000000;" x="40.596459" xlink:href="#md305cd01e0" y="58.14325"/>
     <use style="stroke:#000000;" x="40.068324" xlink:href="#md305cd01e0" y="69.0716"/>
     <use style="stroke:#000000;" x="32.94435" xlink:href="#md305cd01e0" y="81.903543"/>
     <use style="stroke:#000000;" x="34.303815" xlink:href="#md305cd01e0" y="69.270673"/>
     <use style="stroke:#000000;" x="31.175492" xlink:href="#md305cd01e0" y="68.180161"/>
     <use style="stroke:#000000;" x="27.365018" xlink:href="#md305cd01e0" y="92.690778"/>
     <use style="stroke:#000000;" x="27" xlink:href="#md305cd01e0" y="94.5"/>
     <use style="stroke:#000000;" x="40.243178" xlink:href="#md305cd01e0" y="51.266867"/>
     <use style="stroke:#000000;" x="30.860118" xlink:href="#md305cd01e0" y="68.277748"/>
     <use style="stroke:#000000;" x="33.341195" xlink:href="#md305cd01e0" y="60.793165"/>
     <use style="stroke:#000000;" x="33.236962" xlink:href="#md305cd01e0" y="76.826337"/>
     <use style="stroke:#000000;" x="29.847073" xlink:href="#md305cd01e0" y="79.753603"/>
     <use style="stroke:#000000;" x="36.695784" xlink:href="#md305cd01e0" y="66.783904"/>
     <use style="stroke:#000000;" x="33.458328" xlink:href="#md305cd01e0" y="35.610272"/>
     <use style="stroke:#000000;" x="29.818894" xlink:href="#md305cd01e0" y="84.381155"/>
     <use style="stroke:#000000;" x="28.61634" xlink:href="#md305cd01e0" y="75.181879"/>
     <use style="stroke:#000000;" x="30.68607" xlink:href="#md305cd01e0" y="83.659793"/>
     <use style="stroke:#000000;" x="32.771476" xlink:href="#md305cd01e0" y="53.770199"/>
     <use style="stroke:#000000;" x="29.42451" xlink:href="#md305cd01e0" y="82.637114"/>
     <use style="stroke:#000000;" x="28.570199" xlink:href="#md305cd01e0" y="85.958488"/>
     <use style="stroke:#000000;" x="37.491806" xlink:href="#md305cd01e0" y="50.519108"/>
     <use style="stroke:#000000;" x="35.393822" xlink:href="#md305cd01e0" y="71.818163"/>
     <use style="stroke:#000000;" x="36.147947" xlink:href="#md305cd01e0" y="57.046186"/>
     <use style="stroke:#000000;" x="32.039082" xlink:href="#md305cd01e0" y="52.29473"/>
     <use style="stroke:#000000;" x="33.96487" xlink:href="#md305cd01e0" y="75.857405"/>
    </g>
   </g>
   <g id="patch_3">
    <path d="M 27 94.5 
L 27 12.96 
" style="fill:none;stroke:#000000;stroke-linecap:square;stroke-linejoin:miter;"/>
   </g>
   <g id="patch_4">
    <path d="M 27 94.5 
L 103.090909 94.5 
" style="fill:none;stroke:#000000;stroke-linecap:square;stroke-linejoin:miter;"/>
   </g>
   <g id="matplotlib.axis_1">
    <g id="xtick_1">
     <g id="line2d_3"/>
     <g id="text_1">
      <text style="font-family:Arial;font-size:8px;font-style:normal;font-weight:normal;text-anchor:middle;" transform="rotate(-0, 27, 103.72625)" x="27" y="103.72625">0</text>
     </g>
    </g>
    <g id="xtick_2">
     <g id="line2d_4"/>
     <g id="text_2">
      <text style="font-family:Arial;font-size:8px;font-style:normal;font-weight:normal;text-anchor:middle;" transform="rotate(-0, 67.666617, 103.72625)" x="67.666617" y="103.72625">5</text>
     </g>
    </g>
    <g id="text_3">
     <text style="font-family:Arial;font-size:10px;font-style:normal;font-weight:normal;text-anchor:middle;" transform="rotate(-0, 65.045455, 116.474063)" x="65.045455" y="116.474063">Exc</text>
    </g>
   </g>
   <g id="matplotlib.axis_2">
    <g id="ytick_1">
     <g id="line2d_5"/>
     <g id="text_4">
      <text style="font-family:Arial;font-size:8px;font-style:normal;font-weight:normal;text-anchor:end;" transform="rotate(-0, 23.5, 97.363125)" x="23.5" y="97.363125">0</text>
     </g>
    </g>
    <g id="ytick_2">
     <g id="line2d_6"/>
     <g id="text_5">
      <text style="font-family:Arial;font-size:8px;font-style:normal;font-weight:normal;text-anchor:end;" transform="rotate(-0, 23.5, 79.931576)" x="23.5" y="79.931576">2</text>
     </g>
    </g>
    <g id="ytick_3">
     <g id="line2d_7"/>
     <g id="text_6">
      <text style="font-family:Arial;font-size:8px;font-style:normal;font-weight:normal;text-anchor:end;" transform="rotate(-0, 23.5, 62.500028)" x="23.5" y="62.500028">4</text>
     </g>
    </g>
    <g id="ytick_4">
     <g id="line2d_8"/>
     <g id="text_7">
      <text style="font-family:Arial;font-size:8px;font-style:normal;font-weight:normal;text-anchor:end;" transform="rotate(-0, 23.5, 45.068479)" x="23.5" y="45.068479">6</text>
     </g>
    </g>
    <g id="ytick_5">
     <g id="line2d_9"/>
     <g id="text_8">
      <text style="font-family:Arial;font-size:8px;font-style:normal;font-weight:normal;text-anchor:end;" transform="rotate(-0, 23.5, 27.636931)" x="23.5" y="27.636931">8</text>
     </g>
    </g>
    <g id="text_9">
     <text style="font-family:Arial;font-size:10px;font-style:normal;font-weight:normal;text-anchor:middle;" transform="rotate(-90, 13.06375, 53.73)" x="13.06375" y="53.73">Inh</text>
    </g>
   </g>
   <g id="legend_1">
    <g id="line2d_10">
     <path d="M 17.169034 31.995156 
L 37.169034 31.995156 
" style="fill:none;stroke:#000000;stroke-dasharray:1.85,0.8;stroke-dashoffset:0;stroke-width:0.5;"/>
    </g>
    <g id="line2d_11"/>
    <g id="text_10">
     <!-- $R^2$ 0.44 -->
     <g transform="translate(45.169034 29.2475)">
      <text>
       <tspan style="font-family:DejaVu Sans;font-size:10px;font-style:oblique;font-weight:oblique;" x="0" y="-0.9765625">R</tspan>
       <tspan style="font-family:DejaVu Sans;font-size:7px;font-style:book;font-weight:book;" x="7.650794" y="-4.8046875">2</tspan>
       <tspan style="font-family:Arial;font-size:10px;font-style:regular;font-weight:regular;" x="12.377845 15.156165 20.717689 23.496009 29.057533" y="-0.9765625"> 0.44</tspan>
      </text>
     </g>
     <text style="font-family:Arial;font-size:10px;font-style:normal;font-weight:normal;" transform="translate(45.169034 39.86)"> slope 2.35</text>
    </g>
   </g>
  </g>
  <g id="axes_2">
   <g id="patch_5">
    <path d="M 118.309091 94.5 
L 194.4 94.5 
L 194.4 12.96 
L 118.309091 12.96 
z
" style="fill:#ffffff;"/>
   </g>
   <g id="PathCollection_1">
    <defs>
     <path d="M 0 2.44949 
C 0.649612 2.44949 1.272706 2.191396 1.732051 1.732051 
C 2.191396 1.272706 2.44949 0.649612 2.44949 0 
C 2.44949 -0.649612 2.191396 -1.272706 1.732051 -1.732051 
C 1.272706 -2.191396 0.649612 -2.44949 0 -2.44949 
C -0.649612 -2.44949 -1.272706 -2.191396 -1.732051 -1.732051 
C -2.191396 -1.272706 -2.44949 -0.649612 -2.44949 0 
C -2.44949 0.649612 -2.191396 1.272706 -1.732051 1.732051 
C -1.272706 2.191396 -0.649612 2.44949 0 2.44949 
z
" id="mcb7c30a428" style="stroke:#000000;"/>
    </defs>
    <g clip-path="url(#p07f4b8efbb)">
     <use style="stroke:#000000;" x="140.777686" xlink:href="#mcb7c30a428" y="34.655042"/>
     <use style="stroke:#000000;" x="145.056455" xlink:href="#mcb7c30a428" y="66.832456"/>
     <use style="stroke:#000000;" x="136.626606" xlink:href="#mcb7c30a428" y="71.321784"/>
     <use style="stroke:#000000;" x="124.212636" xlink:href="#mcb7c30a428" y="84.39243"/>
     <use style="stroke:#000000;" x="132.1253" xlink:href="#mcb7c30a428" y="86.897983"/>
     <use style="stroke:#000000;" x="155.774608" xlink:href="#mcb7c30a428" y="70.324635"/>
     <use style="stroke:#000000;" x="143.491038" xlink:href="#mcb7c30a428" y="48.492718"/>
     <use style="stroke:#000000;" x="145.106831" xlink:href="#mcb7c30a428" y="68.959456"/>
     <use style="stroke:#000000;" x="156.842052" xlink:href="#mcb7c30a428" y="72.292644"/>
     <use style="stroke:#000000;" x="130.73083" xlink:href="#mcb7c30a428" y="68.695021"/>
     <use style="stroke:#000000;" x="121.988623" xlink:href="#mcb7c30a428" y="90.852454"/>
     <use style="stroke:#000000;" x="118.309091" xlink:href="#mcb7c30a428" y="94.5"/>
     <use style="stroke:#000000;" x="164.123653" xlink:href="#mcb7c30a428" y="50.076302"/>
     <use style="stroke:#000000;" x="136.237815" xlink:href="#mcb7c30a428" y="79.993383"/>
     <use style="stroke:#000000;" x="172.855575" xlink:href="#mcb7c30a428" y="49.178753"/>
     <use style="stroke:#000000;" x="148.491406" xlink:href="#mcb7c30a428" y="85.940535"/>
     <use style="stroke:#000000;" x="131.155052" xlink:href="#mcb7c30a428" y="77.845756"/>
     <use style="stroke:#000000;" x="163.658448" xlink:href="#mcb7c30a428" y="60.778681"/>
     <use style="stroke:#000000;" x="143.916763" xlink:href="#mcb7c30a428" y="17.266158"/>
     <use style="stroke:#000000;" x="132.379265" xlink:href="#mcb7c30a428" y="87.114914"/>
     <use style="stroke:#000000;" x="128.61394" xlink:href="#mcb7c30a428" y="75.127189"/>
     <use style="stroke:#000000;" x="130.134944" xlink:href="#mcb7c30a428" y="65.566145"/>
     <use style="stroke:#000000;" x="156.708214" xlink:href="#mcb7c30a428" y="48.533681"/>
     <use style="stroke:#000000;" x="129.239034" xlink:href="#mcb7c30a428" y="82.883787"/>
     <use style="stroke:#000000;" x="134.137363" xlink:href="#mcb7c30a428" y="77.279587"/>
     <use style="stroke:#000000;" x="160.733355" xlink:href="#mcb7c30a428" y="40.025625"/>
     <use style="stroke:#000000;" x="157.047075" xlink:href="#mcb7c30a428" y="61.137934"/>
     <use style="stroke:#000000;" x="148.123538" xlink:href="#mcb7c30a428" y="68.748869"/>
     <use style="stroke:#000000;" x="131.587198" xlink:href="#mcb7c30a428" y="36.849238"/>
     <use style="stroke:#000000;" x="161.883984" xlink:href="#mcb7c30a428" y="54.341724"/>
    </g>
   </g>
   <g id="line2d_12">
    <path clip-path="url(#p07f4b8efbb)" d="M 118.309091 82.494923 
L 119.077686 81.972654 
L 119.846281 81.450385 
L 120.614876 80.928116 
L 121.383471 80.405847 
L 122.152066 79.883578 
L 122.920661 79.361309 
L 123.689256 78.83904 
L 124.457851 78.316772 
L 125.226446 77.794503 
L 125.995041 77.272234 
L 126.763636 76.749965 
L 127.532231 76.227696 
L 128.300826 75.705427 
L 129.069421 75.183158 
L 129.838017 74.660889 
L 130.606612 74.13862 
L 131.375207 73.616352 
L 132.143802 73.094083 
L 132.912397 72.571814 
L 133.680992 72.049545 
L 134.449587 71.527276 
L 135.218182 71.005007 
L 135.986777 70.482738 
L 136.755372 69.960469 
L 137.523967 69.438201 
L 138.292562 68.915932 
L 139.061157 68.393663 
L 139.829752 67.871394 
L 140.598347 67.349125 
L 141.366942 66.826856 
L 142.135537 66.304587 
L 142.904132 65.782318 
L 143.672727 65.26005 
L 144.441322 64.737781 
L 145.209917 64.215512 
L 145.978512 63.693243 
L 146.747107 63.170974 
L 147.515702 62.648705 
L 148.284298 62.126436 
L 149.052893 61.604167 
L 149.821488 61.081899 
L 150.590083 60.55963 
L 151.358678 60.037361 
L 152.127273 59.515092 
L 152.895868 58.992823 
L 153.664463 58.470554 
L 154.433058 57.948285 
L 155.201653 57.426016 
L 155.970248 56.903747 
L 156.738843 56.381479 
L 157.507438 55.85921 
L 158.276033 55.336941 
L 159.044628 54.814672 
L 159.813223 54.292403 
L 160.581818 53.770134 
L 161.350413 53.247865 
L 162.119008 52.725596 
L 162.887603 52.203328 
L 163.656198 51.681059 
L 164.424793 51.15879 
L 165.193388 50.636521 
L 165.961983 50.114252 
L 166.730579 49.591983 
L 167.499174 49.069714 
L 168.267769 48.547445 
L 169.036364 48.025177 
L 169.804959 47.502908 
L 170.573554 46.980639 
L 171.342149 46.45837 
L 172.110744 45.936101 
L 172.879339 45.413832 
L 173.647934 44.891563 
L 174.416529 44.369294 
L 175.185124 43.847026 
L 175.953719 43.324757 
L 176.722314 42.802488 
L 177.490909 42.280219 
L 178.259504 41.75795 
L 179.028099 41.235681 
L 179.796694 40.713412 
L 180.565289 40.191143 
L 181.333884 39.668874 
L 182.102479 39.146606 
L 182.871074 38.624337 
L 183.639669 38.102068 
L 184.408264 37.579799 
L 185.17686 37.05753 
L 185.945455 36.535261 
L 186.71405 36.012992 
L 187.482645 35.490723 
L 188.25124 34.968455 
L 189.019835 34.446186 
L 189.78843 33.923917 
L 190.557025 33.401648 
L 191.32562 32.879379 
L 192.094215 32.35711 
L 192.86281 31.834841 
L 193.631405 31.312572 
L 194.4 30.790304 
" style="fill:none;stroke:#000000;stroke-dasharray:1.85,0.8;stroke-dashoffset:0;stroke-width:0.5;"/>
   </g>
   <g id="patch_6">
    <path d="M 118.309091 94.5 
L 118.309091 12.96 
" style="fill:none;stroke:#000000;stroke-linecap:square;stroke-linejoin:miter;"/>
   </g>
   <g id="patch_7">
    <path d="M 118.309091 94.5 
L 194.4 94.5 
" style="fill:none;stroke:#000000;stroke-linecap:square;stroke-linejoin:miter;"/>
   </g>
   <g id="matplotlib.axis_3">
    <g id="xtick_3">
     <g id="line2d_13"/>
     <g id="text_11">
      <text style="font-family:Arial;font-size:8px;font-style:normal;font-weight:normal;text-anchor:middle;" transform="rotate(-0, 118.309091, 103.72625)" x="118.309091" y="103.72625">0</text>
     </g>
    </g>
    <g id="xtick_4">
     <g id="line2d_14"/>
     <g id="text_12">
      <text style="font-family:Arial;font-size:8px;font-style:normal;font-weight:normal;text-anchor:middle;" transform="rotate(-0, 151.780287, 103.72625)" x="151.780287" y="103.72625">1</text>
     </g>
    </g>
    <g id="xtick_5">
     <g id="line2d_15"/>
     <g id="text_13">
      <text style="font-family:Arial;font-size:8px;font-style:normal;font-weight:normal;text-anchor:middle;" transform="rotate(-0, 185.251484, 103.72625)" x="185.251484" y="103.72625">2</text>
     </g>
    </g>
    <g id="text_14">
     <!-- $\sigma$(Exc) -->
     <g transform="translate(141.504545 116.61625)">
      <text>
       <tspan style="font-family:DejaVu Sans;font-size:10px;font-style:oblique;font-weight:oblique;" x="0" y="-0.71875">σ</tspan>
       <tspan style="font-family:Arial;font-size:10px;font-style:regular;font-weight:regular;" x="6.337891 9.667969 16.337891 21.337891 26.337891" y="-0.71875">(Exc)</tspan>
      </text>
     </g>
    </g>
   </g>
   <g id="matplotlib.axis_4">
    <g id="ytick_6">
     <g id="line2d_16"/>
     <g id="text_15">
      <text style="font-family:Arial;font-size:8px;font-style:normal;font-weight:normal;text-anchor:end;" transform="rotate(-0, 114.809091, 97.363125)" x="114.809091" y="97.363125">0.0</text>
     </g>
    </g>
    <g id="ytick_7">
     <g id="line2d_17"/>
     <g id="text_16">
      <text style="font-family:Arial;font-size:8px;font-style:normal;font-weight:normal;text-anchor:end;" transform="rotate(-0, 114.809091, 79.429042)" x="114.809091" y="79.429042">0.5</text>
     </g>
    </g>
    <g id="ytick_8">
     <g id="line2d_18"/>
     <g id="text_17">
      <text style="font-family:Arial;font-size:8px;font-style:normal;font-weight:normal;text-anchor:end;" transform="rotate(-0, 114.809091, 61.494959)" x="114.809091" y="61.494959">1.0</text>
     </g>
    </g>
    <g id="ytick_9">
     <g id="line2d_19"/>
     <g id="text_18">
      <text style="font-family:Arial;font-size:8px;font-style:normal;font-weight:normal;text-anchor:end;" transform="rotate(-0, 114.809091, 43.560876)" x="114.809091" y="43.560876">1.5</text>
     </g>
    </g>
    <g id="ytick_10">
     <g id="line2d_20"/>
     <g id="text_19">
      <text style="font-family:Arial;font-size:8px;font-style:normal;font-weight:normal;text-anchor:end;" transform="rotate(-0, 114.809091, 25.626793)" x="114.809091" y="25.626793">2.0</text>
     </g>
    </g>
    <g id="text_20">
     <!-- $\sigma$(Inh) -->
     <g transform="translate(97.489091 67.18)rotate(-90)">
      <text>
       <tspan style="font-family:DejaVu Sans;font-size:10px;font-style:oblique;font-weight:oblique;" x="0" y="-0.71875">σ</tspan>
       <tspan style="font-family:Arial;font-size:10px;font-style:regular;font-weight:regular;" x="6.337891 9.667969 12.446289 18.007812 23.569336" y="-0.71875">(Inh)</tspan>
      </text>
     </g>
    </g>
   </g>
   <g id="legend_2">
    <g id="line2d_21">
     <path d="M 108.478125 31.995156 
L 128.478125 31.995156 
" style="fill:none;stroke:#000000;stroke-dasharray:1.85,0.8;stroke-dashoffset:0;stroke-width:0.5;"/>
    </g>
    <g id="line2d_22"/>
    <g id="text_21">
     <!-- $R^2$ 0.27 -->
     <g transform="translate(136.478125 29.2475)">
      <text>
       <tspan style="font-family:DejaVu Sans;font-size:10px;font-style:oblique;font-weight:oblique;" x="0" y="-0.9765625">R</tspan>
       <tspan style="font-family:DejaVu Sans;font-size:7px;font-style:book;font-weight:book;" x="7.650794" y="-4.8046875">2</tspan>
       <tspan style="font-family:Arial;font-size:10px;font-style:regular;font-weight:regular;" x="12.377845 15.156165 20.717689 23.496009 29.057533" y="-0.9765625"> 0.27</tspan>
      </text>
     </g>
     <text style="font-family:Arial;font-size:10px;font-style:normal;font-weight:normal;" transform="translate(136.478125 39.86)"> slope 0.63</text>
    </g>
   </g>
  </g>
 </g>
 <defs>
  <clipPath id="p33b2a0c2fd">
   <rect height="81.54" width="76.090909" x="27" y="12.96"/>
  </clipPath>
  <clipPath id="p07f4b8efbb">
   <rect height="81.54" width="76.090909" x="118.309091" y="12.96"/>
  </clipPath>
 </defs>
</svg>
