<?xml version="1.0" encoding="utf-8" standalone="no"?>
<!DOCTYPE svg PUBLIC "-//W3C//DTD SVG 1.1//EN"
  "http://www.w3.org/Graphics/SVG/1.1/DTD/svg11.dtd">
<!-- Created with matplotlib (http://matplotlib.org/) -->
<svg height="108pt" version="1.1" viewBox="0 0 216 108" width="216pt" xmlns="http://www.w3.org/2000/svg" xmlns:xlink="http://www.w3.org/1999/xlink">
 <defs>
  <style type="text/css">
*{stroke-linecap:butt;stroke-linejoin:round;}
  </style>
 </defs>
 <g id="figure_1">
  <g id="patch_1">
   <path d="M 0 108 
L 216 108 
L 216 0 
L 0 0 
z
" style="fill:#ffffff;"/>
  </g>
  <g id="axes_1">
   <g id="patch_2">
    <path d="M 27 94.5 
L 103.090909 94.5 
L 103.090909 12.96 
L 27 12.96 
z
" style="fill:#ffffff;"/>
   </g>
   <g id="LineCollection_1">
    <path clip-path="url(#pec2d369a5d)" d="M 23.531606 70.340197 
L 38.753878 70.340197 
" style="fill:none;stroke:#000000;stroke-width:0.5;"/>
    <path clip-path="url(#pec2d369a5d)" d="M 27.096106 63.836297 
L 44.339918 63.836297 
" style="fill:none;stroke:#000000;stroke-width:0.5;"/>
    <path clip-path="url(#pec2d369a5d)" d="M 27.354967 28.58782 
L 38.40866 28.58782 
" style="fill:none;stroke:#000000;stroke-width:0.5;"/>
    <path clip-path="url(#pec2d369a5d)" d="M 26.450415 55.371972 
L 54.358497 55.371972 
" style="fill:none;stroke:#000000;stroke-width:0.5;"/>
    <path clip-path="url(#pec2d369a5d)" d="M 22.597818 59.763623 
L 46.242035 59.763623 
" style="fill:none;stroke:#000000;stroke-width:0.5;"/>
    <path clip-path="url(#pec2d369a5d)" d="M 23.916164 79.853349 
L 41.314255 79.853349 
" style="fill:none;stroke:#000000;stroke-width:0.5;"/>
    <path clip-path="url(#pec2d369a5d)" d="M 25.937204 63.537528 
L 51.713027 63.537528 
" style="fill:none;stroke:#000000;stroke-width:0.5;"/>
    <path clip-path="url(#pec2d369a5d)" d="M 26.202509 69.253962 
L 38.289432 69.253962 
" style="fill:none;stroke:#000000;stroke-width:0.5;"/>
    <path clip-path="url(#pec2d369a5d)" d="M 29.823992 57.016083 
L 46.742847 57.016083 
" style="fill:none;stroke:#000000;stroke-width:0.5;"/>
    <path clip-path="url(#pec2d369a5d)" d="M 25.488218 77.384817 
L 37.672372 77.384817 
" style="fill:none;stroke:#000000;stroke-width:0.5;"/>
    <path clip-path="url(#pec2d369a5d)" d="M 24.94466 63.057637 
L 35.919048 63.057637 
" style="fill:none;stroke:#000000;stroke-width:0.5;"/>
    <path clip-path="url(#pec2d369a5d)" d="M 26.650324 91.974554 
L 28.623093 91.974554 
" style="fill:none;stroke:#000000;stroke-width:0.5;"/>
    <path clip-path="url(#pec2d369a5d)" d="M 23.466352 49.186975 
L 43.921653 49.186975 
" style="fill:none;stroke:#000000;stroke-width:0.5;"/>
    <path clip-path="url(#pec2d369a5d)" d="M 35.997662 33.997256 
L 58.887443 33.997256 
" style="fill:none;stroke:#000000;stroke-width:0.5;"/>
    <path clip-path="url(#pec2d369a5d)" d="M 25.634324 86.050946 
L 32.083729 86.050946 
" style="fill:none;stroke:#000000;stroke-width:0.5;"/>
    <path clip-path="url(#pec2d369a5d)" d="M 27 94.5 
L 27 94.5 
" style="fill:none;stroke:#000000;stroke-width:0.5;"/>
    <path clip-path="url(#pec2d369a5d)" d="M 24.675237 80.760669 
L 32.532462 80.760669 
" style="fill:none;stroke:#000000;stroke-width:0.5;"/>
    <path clip-path="url(#pec2d369a5d)" d="M 30.904196 63.19739 
L 47.26147 63.19739 
" style="fill:none;stroke:#000000;stroke-width:0.5;"/>
    <path clip-path="url(#pec2d369a5d)" d="M 27.251299 60.521812 
L 40.529203 60.521812 
" style="fill:none;stroke:#000000;stroke-width:0.5;"/>
    <path clip-path="url(#pec2d369a5d)" d="M 24.669177 71.333335 
L 36.839985 71.333335 
" style="fill:none;stroke:#000000;stroke-width:0.5;"/>
    <path clip-path="url(#pec2d369a5d)" d="M 27.421053 73.901206 
L 37.545158 73.901206 
" style="fill:none;stroke:#000000;stroke-width:0.5;"/>
    <path clip-path="url(#pec2d369a5d)" d="M 32.407884 50.056057 
L 50.61818 50.056057 
" style="fill:none;stroke:#000000;stroke-width:0.5;"/>
    <path clip-path="url(#pec2d369a5d)" d="M 27.606503 26.876162 
L 48.831425 26.876162 
" style="fill:none;stroke:#000000;stroke-width:0.5;"/>
    <path clip-path="url(#pec2d369a5d)" d="M 21.898566 73.442458 
L 39.140373 73.442458 
" style="fill:none;stroke:#000000;stroke-width:0.5;"/>
    <path clip-path="url(#pec2d369a5d)" d="M 25.111217 85.482551 
L 35.767175 85.482551 
" style="fill:none;stroke:#000000;stroke-width:0.5;"/>
    <path clip-path="url(#pec2d369a5d)" d="M 26.576759 73.430729 
L 37.15312 73.430729 
" style="fill:none;stroke:#000000;stroke-width:0.5;"/>
    <path clip-path="url(#pec2d369a5d)" d="M 27.676812 65.044031 
L 37.948535 65.044031 
" style="fill:none;stroke:#000000;stroke-width:0.5;"/>
    <path clip-path="url(#pec2d369a5d)" d="M 31.028481 58.964687 
L 35.05296 58.964687 
" style="fill:none;stroke:#000000;stroke-width:0.5;"/>
    <path clip-path="url(#pec2d369a5d)" d="M 25.439723 50.070001 
L 40.697277 50.070001 
" style="fill:none;stroke:#000000;stroke-width:0.5;"/>
    <path clip-path="url(#pec2d369a5d)" d="M 32.236062 39.900317 
L 61.953365 39.900317 
" style="fill:none;stroke:#000000;stroke-width:0.5;"/>
   </g>
   <g id="LineCollection_2">
    <path clip-path="url(#pec2d369a5d)" d="M 31.142742 72.386712 
L 31.142742 68.293681 
" style="fill:none;stroke:#000000;stroke-width:0.5;"/>
    <path clip-path="url(#pec2d369a5d)" d="M 35.718012 71.78294 
L 35.718012 55.889654 
" style="fill:none;stroke:#000000;stroke-width:0.5;"/>
    <path clip-path="url(#pec2d369a5d)" d="M 32.881813 34.732296 
L 32.881813 22.443344 
" style="fill:none;stroke:#000000;stroke-width:0.5;"/>
    <path clip-path="url(#pec2d369a5d)" d="M 40.404456 70.85602 
L 40.404456 39.887924 
" style="fill:none;stroke:#000000;stroke-width:0.5;"/>
    <path clip-path="url(#pec2d369a5d)" d="M 34.419927 70.613476 
L 34.419927 48.91377 
" style="fill:none;stroke:#000000;stroke-width:0.5;"/>
    <path clip-path="url(#pec2d369a5d)" d="M 32.61521 87.028713 
L 32.61521 72.677985 
" style="fill:none;stroke:#000000;stroke-width:0.5;"/>
    <path clip-path="url(#pec2d369a5d)" d="M 38.825116 72.325731 
L 38.825116 54.749326 
" style="fill:none;stroke:#000000;stroke-width:0.5;"/>
    <path clip-path="url(#pec2d369a5d)" d="M 32.245971 77.335734 
L 32.245971 61.17219 
" style="fill:none;stroke:#000000;stroke-width:0.5;"/>
    <path clip-path="url(#pec2d369a5d)" d="M 38.28342 62.621407 
L 38.28342 51.410758 
" style="fill:none;stroke:#000000;stroke-width:0.5;"/>
    <path clip-path="url(#pec2d369a5d)" d="M 31.580295 87.402594 
L 31.580295 67.36704 
" style="fill:none;stroke:#000000;stroke-width:0.5;"/>
    <path clip-path="url(#pec2d369a5d)" d="M 30.431854 71.828071 
L 30.431854 54.287203 
" style="fill:none;stroke:#000000;stroke-width:0.5;"/>
    <path clip-path="url(#pec2d369a5d)" d="M 27.636708 91.974554 
L 27.636708 91.974554 
" style="fill:none;stroke:#000000;stroke-width:0.5;"/>
    <path clip-path="url(#pec2d369a5d)" d="M 33.694003 56.30768 
L 33.694003 42.066269 
" style="fill:none;stroke:#000000;stroke-width:0.5;"/>
    <path clip-path="url(#pec2d369a5d)" d="M 47.442553 51.151655 
L 47.442553 16.842857 
" style="fill:none;stroke:#000000;stroke-width:0.5;"/>
    <path clip-path="url(#pec2d369a5d)" d="M 28.859027 91.555475 
L 28.859027 80.546417 
" style="fill:none;stroke:#000000;stroke-width:0.5;"/>
    <path clip-path="url(#pec2d369a5d)" d="M 27 94.5 
L 27 94.5 
" style="fill:none;stroke:#000000;stroke-width:0.5;"/>
    <path clip-path="url(#pec2d369a5d)" d="M 28.60385 88.117227 
L 28.60385 73.404111 
" style="fill:none;stroke:#000000;stroke-width:0.5;"/>
    <path clip-path="url(#pec2d369a5d)" d="M 39.082833 67.935343 
L 39.082833 58.459437 
" style="fill:none;stroke:#000000;stroke-width:0.5;"/>
    <path clip-path="url(#pec2d369a5d)" d="M 33.890251 71.716229 
L 33.890251 49.327395 
" style="fill:none;stroke:#000000;stroke-width:0.5;"/>
    <path clip-path="url(#pec2d369a5d)" d="M 30.754581 80.3439 
L 30.754581 62.32277 
" style="fill:none;stroke:#000000;stroke-width:0.5;"/>
    <path clip-path="url(#pec2d369a5d)" d="M 32.483106 78.282145 
L 32.483106 69.520267 
" style="fill:none;stroke:#000000;stroke-width:0.5;"/>
    <path clip-path="url(#pec2d369a5d)" d="M 41.513032 68.524928 
L 41.513032 31.587185 
" style="fill:none;stroke:#000000;stroke-width:0.5;"/>
    <path clip-path="url(#pec2d369a5d)" d="M 38.218964 34.203102 
L 38.218964 19.549222 
" style="fill:none;stroke:#000000;stroke-width:0.5;"/>
    <path clip-path="url(#pec2d369a5d)" d="M 30.519469 82.701743 
L 30.519469 64.183173 
" style="fill:none;stroke:#000000;stroke-width:0.5;"/>
    <path clip-path="url(#pec2d369a5d)" d="M 30.439196 89.900181 
L 30.439196 81.064921 
" style="fill:none;stroke:#000000;stroke-width:0.5;"/>
    <path clip-path="url(#pec2d369a5d)" d="M 31.864939 83.547463 
L 31.864939 63.313996 
" style="fill:none;stroke:#000000;stroke-width:0.5;"/>
    <path clip-path="url(#pec2d369a5d)" d="M 32.812673 70.603969 
L 32.812673 59.484092 
" style="fill:none;stroke:#000000;stroke-width:0.5;"/>
    <path clip-path="url(#pec2d369a5d)" d="M 33.040721 69.557444 
L 33.040721 48.37193 
" style="fill:none;stroke:#000000;stroke-width:0.5;"/>
    <path clip-path="url(#pec2d369a5d)" d="M 33.0685 56.394913 
L 33.0685 43.745088 
" style="fill:none;stroke:#000000;stroke-width:0.5;"/>
    <path clip-path="url(#pec2d369a5d)" d="M 47.094714 54.232874 
L 47.094714 25.567761 
" style="fill:none;stroke:#000000;stroke-width:0.5;"/>
   </g>
   <g id="line2d_1">
    <path clip-path="url(#pec2d369a5d)" d="M 27 81.497173 
L 27.768595 79.622528 
L 28.53719 77.747884 
L 29.305785 75.87324 
L 30.07438 73.998595 
L 30.842975 72.123951 
L 31.61157 70.249306 
L 32.380165 68.374662 
L 33.14876 66.500018 
L 33.917355 64.625373 
L 34.68595 62.750729 
L 35.454545 60.876085 
L 36.22314 59.00144 
L 36.991736 57.126796 
L 37.760331 55.252151 
L 38.528926 53.377507 
L 39.297521 51.502863 
L 40.066116 49.628218 
L 40.834711 47.753574 
L 41.603306 45.878929 
L 42.371901 44.004285 
L 43.140496 42.129641 
L 43.909091 40.254996 
L 44.677686 38.380352 
L 45.446281 36.505708 
L 46.214876 34.631063 
L 46.983471 32.756419 
L 47.752066 30.881774 
L 48.520661 29.00713 
L 49.289256 27.132486 
L 50.057851 25.257841 
L 50.826446 23.383197 
L 51.595041 21.508552 
L 52.363636 19.633908 
L 53.132231 17.759264 
L 53.900826 15.884619 
L 54.669421 14.009975 
L 55.438017 12.135331 
L 56.206612 10.260686 
L 56.975207 8.386042 
L 57.743802 6.511397 
L 58.512397 4.636753 
L 59.280992 2.762109 
L 60.049587 0.887464 
L 60.818182 -0.98718 
L 60.823438 -1 
" style="fill:none;stroke:#000000;stroke-dasharray:1.85,0.8;stroke-dashoffset:0;stroke-width:0.5;"/>
   </g>
   <g id="line2d_2">
    <defs>
     <path d="M 0 3 
C 0.795609 3 1.55874 2.683901 2.12132 2.12132 
C 2.683901 1.55874 3 0.795609 3 0 
C 3 -0.795609 2.683901 -1.55874 2.12132 -2.12132 
C 1.55874 -2.683901 0.795609 -3 0 -3 
C -0.795609 -3 -1.55874 -2.683901 -2.12132 -2.12132 
C -2.683901 -1.55874 -3 -0.795609 -3 0 
C -3 0.795609 -2.683901 1.55874 -2.12132 2.12132 
C -1.55874 2.683901 -0.795609 3 0 3 
z
" id="m0b2c215cad" style="stroke:#000000;"/>
    </defs>
    <g clip-path="url(#pec2d369a5d)">
     <use style="stroke:#000000;" x="31.142742" xlink:href="#m0b2c215cad" y="70.340197"/>
     <use style="stroke:#000000;" x="35.718012" xlink:href="#m0b2c215cad" y="63.836297"/>
     <use style="stroke:#000000;" x="32.881813" xlink:href="#m0b2c215cad" y="28.58782"/>
     <use style="stroke:#000000;" x="40.404456" xlink:href="#m0b2c215cad" y="55.371972"/>
     <use style="stroke:#000000;" x="34.419927" xlink:href="#m0b2c215cad" y="59.763623"/>
     <use style="stroke:#000000;" x="32.61521" xlink:href="#m0b2c215cad" y="79.853349"/>
     <use style="stroke:#000000;" x="38.825116" xlink:href="#m0b2c215cad" y="63.537528"/>
     <use style="stroke:#000000;" x="32.245971" xlink:href="#m0b2c215cad" y="69.253962"/>
     <use style="stroke:#000000;" x="38.28342" xlink:href="#m0b2c215cad" y="57.016083"/>
     <use style="stroke:#000000;" x="31.580295" xlink:href="#m0b2c215cad" y="77.384817"/>
     <use style="stroke:#000000;" x="30.431854" xlink:href="#m0b2c215cad" y="63.057637"/>
     <use style="stroke:#000000;" x="27.636708" xlink:href="#m0b2c215cad" y="91.974554"/>
     <use style="stroke:#000000;" x="33.694003" xlink:href="#m0b2c215cad" y="49.186975"/>
     <use style="stroke:#000000;" x="47.442553" xlink:href="#m0b2c215cad" y="33.997256"/>
     <use style="stroke:#000000;" x="28.859027" xlink:href="#m0b2c215cad" y="86.050946"/>
     <use style="stroke:#000000;" x="27" xlink:href="#m0b2c215cad" y="94.5"/>
     <use style="stroke:#000000;" x="28.60385" xlink:href="#m0b2c215cad" y="80.760669"/>
     <use style="stroke:#000000;" x="39.082833" xlink:href="#m0b2c215cad" y="63.19739"/>
     <use style="stroke:#000000;" x="33.890251" xlink:href="#m0b2c215cad" y="60.521812"/>
     <use style="stroke:#000000;" x="30.754581" xlink:href="#m0b2c215cad" y="71.333335"/>
     <use style="stroke:#000000;" x="32.483106" xlink:href="#m0b2c215cad" y="73.901206"/>
     <use style="stroke:#000000;" x="41.513032" xlink:href="#m0b2c215cad" y="50.056057"/>
     <use style="stroke:#000000;" x="38.218964" xlink:href="#m0b2c215cad" y="26.876162"/>
     <use style="stroke:#000000;" x="30.519469" xlink:href="#m0b2c215cad" y="73.442458"/>
     <use style="stroke:#000000;" x="30.439196" xlink:href="#m0b2c215cad" y="85.482551"/>
     <use style="stroke:#000000;" x="31.864939" xlink:href="#m0b2c215cad" y="73.430729"/>
     <use style="stroke:#000000;" x="32.812673" xlink:href="#m0b2c215cad" y="65.044031"/>
     <use style="stroke:#000000;" x="33.040721" xlink:href="#m0b2c215cad" y="58.964687"/>
     <use style="stroke:#000000;" x="33.0685" xlink:href="#m0b2c215cad" y="50.070001"/>
     <use style="stroke:#000000;" x="47.094714" xlink:href="#m0b2c215cad" y="39.900317"/>
    </g>
   </g>
   <g id="patch_3">
    <path d="M 27 94.5 
L 27 12.96 
" style="fill:none;stroke:#000000;stroke-linecap:square;stroke-linejoin:miter;"/>
   </g>
   <g id="patch_4">
    <path d="M 27 94.5 
L 103.090909 94.5 
" style="fill:none;stroke:#000000;stroke-linecap:square;stroke-linejoin:miter;"/>
   </g>
   <g id="matplotlib.axis_1">
    <g id="xtick_1">
     <g id="line2d_3"/>
     <g id="text_1">
      <text style="font-family:Arial;font-size:8px;font-style:normal;font-weight:normal;text-anchor:middle;" transform="rotate(-0, 27, 103.72625)" x="27" y="103.72625">0</text>
     </g>
    </g>
    <g id="xtick_2">
     <g id="line2d_4"/>
     <g id="text_2">
      <text style="font-family:Arial;font-size:8px;font-style:normal;font-weight:normal;text-anchor:middle;" transform="rotate(-0, 75.657825, 103.72625)" x="75.657825" y="103.72625">5</text>
     </g>
    </g>
    <g id="text_3">
     <text style="font-family:Arial;font-size:10px;font-style:normal;font-weight:normal;text-anchor:middle;" transform="rotate(-0, 65.045455, 116.474063)" x="65.045455" y="116.474063">Exc</text>
    </g>
   </g>
   <g id="matplotlib.axis_2">
    <g id="ytick_1">
     <g id="line2d_5"/>
     <g id="text_4">
      <text style="font-family:Arial;font-size:8px;font-style:normal;font-weight:normal;text-anchor:end;" transform="rotate(-0, 23.5, 97.363125)" x="23.5" y="97.363125">0</text>
     </g>
    </g>
    <g id="ytick_2">
     <g id="line2d_6"/>
     <g id="text_5">
      <text style="font-family:Arial;font-size:8px;font-style:normal;font-weight:normal;text-anchor:end;" transform="rotate(-0, 23.5, 76.506184)" x="23.5" y="76.506184">2</text>
     </g>
    </g>
    <g id="ytick_3">
     <g id="line2d_7"/>
     <g id="text_6">
      <text style="font-family:Arial;font-size:8px;font-style:normal;font-weight:normal;text-anchor:end;" transform="rotate(-0, 23.5, 55.649242)" x="23.5" y="55.649242">4</text>
     </g>
    </g>
    <g id="ytick_4">
     <g id="line2d_8"/>
     <g id="text_7">
      <text style="font-family:Arial;font-size:8px;font-style:normal;font-weight:normal;text-anchor:end;" transform="rotate(-0, 23.5, 34.792301)" x="23.5" y="34.792301">6</text>
     </g>
    </g>
    <g id="text_8">
     <text style="font-family:Arial;font-size:10px;font-style:normal;font-weight:normal;text-anchor:middle;" transform="rotate(-90, 13.06375, 53.73)" x="13.06375" y="53.73">Inh</text>
    </g>
   </g>
   <g id="legend_1">
    <g id="line2d_9">
     <path d="M 36 75.622656 
L 56 75.622656 
" style="fill:none;stroke:#000000;stroke-dasharray:1.85,0.8;stroke-dashoffset:0;stroke-width:0.5;"/>
    </g>
    <g id="line2d_10"/>
    <g id="text_9">
     <!-- $R^2$ 0.52 -->
     <g transform="translate(64 72.875)">
      <text>
       <tspan style="font-family:DejaVu Sans;font-size:10px;font-style:oblique;font-weight:oblique;" x="0" y="-0.9765625">R</tspan>
       <tspan style="font-family:DejaVu Sans;font-size:7px;font-style:book;font-weight:book;" x="7.650794" y="-4.8046875">2</tspan>
       <tspan style="font-family:Arial;font-size:10px;font-style:regular;font-weight:regular;" x="12.377845 15.156165 20.717689 23.496009 29.057533" y="-0.9765625"> 0.52</tspan>
      </text>
     </g>
     <text style="font-family:Arial;font-size:10px;font-style:normal;font-weight:normal;" transform="translate(64 83.4875)"> slope 2.28</text>
    </g>
   </g>
  </g>
  <g id="axes_2">
   <g id="patch_5">
    <path d="M 118.309091 94.5 
L 194.4 94.5 
L 194.4 12.96 
L 118.309091 12.96 
z
" style="fill:#ffffff;"/>
   </g>
   <g id="PathCollection_1">
    <defs>
     <path d="M 0 2.44949 
C 0.649612 2.44949 1.272706 2.191396 1.732051 1.732051 
C 2.191396 1.272706 2.44949 0.649612 2.44949 0 
C 2.44949 -0.649612 2.191396 -1.272706 1.732051 -1.732051 
C 1.272706 -2.191396 0.649612 -2.44949 0 -2.44949 
C -0.649612 -2.44949 -1.272706 -2.191396 -1.732051 -1.732051 
C -2.191396 -1.272706 -2.44949 -0.649612 -2.44949 0 
C -2.44949 0.649612 -2.191396 1.272706 -1.732051 1.732051 
C -1.272706 2.191396 -0.649612 2.44949 0 2.44949 
z
" id="me8cfd839a8" style="stroke:#000000;"/>
    </defs>
    <g clip-path="url(#p5a780e4337)">
     <use style="stroke:#000000;" x="150.100231" xlink:href="#me8cfd839a8" y="85.95186"/>
     <use style="stroke:#000000;" x="154.32214" xlink:href="#me8cfd839a8" y="61.307473"/>
     <use style="stroke:#000000;" x="141.39431" xlink:href="#me8cfd839a8" y="68.834987"/>
     <use style="stroke:#000000;" x="176.594066" xlink:href="#me8cfd839a8" y="29.824303"/>
     <use style="stroke:#000000;" x="167.689143" xlink:href="#me8cfd839a8" y="49.180984"/>
     <use style="stroke:#000000;" x="154.644345" xlink:href="#me8cfd839a8" y="64.529047"/>
     <use style="stroke:#000000;" x="172.140922" xlink:href="#me8cfd839a8" y="57.792343"/>
     <use style="stroke:#000000;" x="143.552174" xlink:href="#me8cfd839a8" y="60.743049"/>
     <use style="stroke:#000000;" x="153.643481" xlink:href="#me8cfd839a8" y="71.086984"/>
     <use style="stroke:#000000;" x="143.755235" xlink:href="#me8cfd839a8" y="52.656503"/>
     <use style="stroke:#000000;" x="141.228686" xlink:href="#me8cfd839a8" y="57.866561"/>
     <use style="stroke:#000000;" x="122.429144" xlink:href="#me8cfd839a8" y="94.5"/>
     <use style="stroke:#000000;" x="161.029214" xlink:href="#me8cfd839a8" y="64.757352"/>
     <use style="stroke:#000000;" x="166.113533" xlink:href="#me8cfd839a8" y="22.847374"/>
     <use style="stroke:#000000;" x="131.778429" xlink:href="#me8cfd839a8" y="71.507998"/>
     <use style="stroke:#000000;" x="118.309091" xlink:href="#me8cfd839a8" y="94.5"/>
     <use style="stroke:#000000;" x="134.71861" xlink:href="#me8cfd839a8" y="63.772213"/>
     <use style="stroke:#000000;" x="152.470641" xlink:href="#me8cfd839a8" y="74.70993"/>
     <use style="stroke:#000000;" x="146.039491" xlink:href="#me8cfd839a8" y="47.741767"/>
     <use style="stroke:#000000;" x="143.727363" xlink:href="#me8cfd839a8" y="56.863553"/>
     <use style="stroke:#000000;" x="139.452902" xlink:href="#me8cfd839a8" y="76.201149"/>
     <use style="stroke:#000000;" x="156.340605" xlink:href="#me8cfd839a8" y="17.356921"/>
     <use style="stroke:#000000;" x="162.636538" xlink:href="#me8cfd839a8" y="63.895925"/>
     <use style="stroke:#000000;" x="154.317952" xlink:href="#me8cfd839a8" y="55.824666"/>
     <use style="stroke:#000000;" x="140.563656" xlink:href="#me8cfd839a8" y="76.047894"/>
     <use style="stroke:#000000;" x="140.397422" xlink:href="#me8cfd839a8" y="52.24317"/>
     <use style="stroke:#000000;" x="139.761196" xlink:href="#me8cfd839a8" y="71.276559"/>
     <use style="stroke:#000000;" x="126.714062" xlink:href="#me8cfd839a8" y="50.254855"/>
     <use style="stroke:#000000;" x="150.173914" xlink:href="#me8cfd839a8" y="68.081319"/>
     <use style="stroke:#000000;" x="180.372555" xlink:href="#me8cfd839a8" y="34.633995"/>
    </g>
   </g>
   <g id="line2d_11">
    <path clip-path="url(#p5a780e4337)" d="M 118.309091 83.073763 
L 119.077686 82.507734 
L 119.846281 81.941706 
L 120.614876 81.375678 
L 121.383471 80.80965 
L 122.152066 80.243622 
L 122.920661 79.677594 
L 123.689256 79.111565 
L 124.457851 78.545537 
L 125.226446 77.979509 
L 125.995041 77.413481 
L 126.763636 76.847453 
L 127.532231 76.281425 
L 128.300826 75.715397 
L 129.069421 75.149368 
L 129.838017 74.58334 
L 130.606612 74.017312 
L 131.375207 73.451284 
L 132.143802 72.885256 
L 132.912397 72.319228 
L 133.680992 71.7532 
L 134.449587 71.187171 
L 135.218182 70.621143 
L 135.986777 70.055115 
L 136.755372 69.489087 
L 137.523967 68.923059 
L 138.292562 68.357031 
L 139.061157 67.791002 
L 139.829752 67.224974 
L 140.598347 66.658946 
L 141.366942 66.092918 
L 142.135537 65.52689 
L 142.904132 64.960862 
L 143.672727 64.394834 
L 144.441322 63.828805 
L 145.209917 63.262777 
L 145.978512 62.696749 
L 146.747107 62.130721 
L 147.515702 61.564693 
L 148.284298 60.998665 
L 149.052893 60.432636 
L 149.821488 59.866608 
L 150.590083 59.30058 
L 151.358678 58.734552 
L 152.127273 58.168524 
L 152.895868 57.602496 
L 153.664463 57.036468 
L 154.433058 56.470439 
L 155.201653 55.904411 
L 155.970248 55.338383 
L 156.738843 54.772355 
L 157.507438 54.206327 
L 158.276033 53.640299 
L 159.044628 53.07427 
L 159.813223 52.508242 
L 160.581818 51.942214 
L 161.350413 51.376186 
L 162.119008 50.810158 
L 162.887603 50.24413 
L 163.656198 49.678102 
L 164.424793 49.112073 
L 165.193388 48.546045 
L 165.961983 47.980017 
L 166.730579 47.413989 
L 167.499174 46.847961 
L 168.267769 46.281933 
L 169.036364 45.715905 
L 169.804959 45.149876 
L 170.573554 44.583848 
L 171.342149 44.01782 
L 172.110744 43.451792 
L 172.879339 42.885764 
L 173.647934 42.319736 
L 174.416529 41.753707 
L 175.185124 41.187679 
L 175.953719 40.621651 
L 176.722314 40.055623 
L 177.490909 39.489595 
L 178.259504 38.923567 
L 179.028099 38.357539 
L 179.796694 37.79151 
L 180.565289 37.225482 
L 181.333884 36.659454 
L 182.102479 36.093426 
L 182.871074 35.527398 
L 183.639669 34.96137 
L 184.408264 34.395341 
L 185.17686 33.829313 
L 185.945455 33.263285 
L 186.71405 32.697257 
L 187.482645 32.131229 
L 188.25124 31.565201 
L 189.019835 30.999173 
L 189.78843 30.433144 
L 190.557025 29.867116 
L 191.32562 29.301088 
L 192.094215 28.73506 
L 192.86281 28.169032 
L 193.631405 27.603004 
L 194.4 27.036976 
" style="fill:none;stroke:#000000;stroke-dasharray:1.85,0.8;stroke-dashoffset:0;stroke-width:0.5;"/>
   </g>
   <g id="patch_6">
    <path d="M 118.309091 94.5 
L 118.309091 12.96 
" style="fill:none;stroke:#000000;stroke-linecap:square;stroke-linejoin:miter;"/>
   </g>
   <g id="patch_7">
    <path d="M 118.309091 94.5 
L 194.4 94.5 
" style="fill:none;stroke:#000000;stroke-linecap:square;stroke-linejoin:miter;"/>
   </g>
   <g id="matplotlib.axis_3">
    <g id="xtick_3">
     <g id="line2d_12"/>
     <g id="text_10">
      <text style="font-family:Arial;font-size:8px;font-style:normal;font-weight:normal;text-anchor:middle;" transform="rotate(-0, 118.309091, 103.72625)" x="118.309091" y="103.72625">0</text>
     </g>
    </g>
    <g id="xtick_4">
     <g id="line2d_13"/>
     <g id="text_11">
      <text style="font-family:Arial;font-size:8px;font-style:normal;font-weight:normal;text-anchor:middle;" transform="rotate(-0, 158.957102, 103.72625)" x="158.957102" y="103.72625">1</text>
     </g>
    </g>
    <g id="text_12">
     <!-- $\sigma$(Exc) -->
     <g transform="translate(141.504545 116.61625)">
      <text>
       <tspan style="font-family:DejaVu Sans;font-size:10px;font-style:oblique;font-weight:oblique;" x="0" y="-0.71875">σ</tspan>
       <tspan style="font-family:Arial;font-size:10px;font-style:regular;font-weight:regular;" x="6.337891 9.667969 16.337891 21.337891 26.337891" y="-0.71875">(Exc)</tspan>
      </text>
     </g>
    </g>
   </g>
   <g id="matplotlib.axis_4">
    <g id="ytick_5">
     <g id="line2d_14"/>
     <g id="text_13">
      <text style="font-family:Arial;font-size:8px;font-style:normal;font-weight:normal;text-anchor:end;" transform="rotate(-0, 114.809091, 97.363125)" x="114.809091" y="97.363125">0.0</text>
     </g>
    </g>
    <g id="ytick_6">
     <g id="line2d_15"/>
     <g id="text_14">
      <text style="font-family:Arial;font-size:8px;font-style:normal;font-weight:normal;text-anchor:end;" transform="rotate(-0, 114.809091, 75.583658)" x="114.809091" y="75.583658">0.5</text>
     </g>
    </g>
    <g id="ytick_7">
     <g id="line2d_16"/>
     <g id="text_15">
      <text style="font-family:Arial;font-size:8px;font-style:normal;font-weight:normal;text-anchor:end;" transform="rotate(-0, 114.809091, 53.804192)" x="114.809091" y="53.804192">1.0</text>
     </g>
    </g>
    <g id="ytick_8">
     <g id="line2d_17"/>
     <g id="text_16">
      <text style="font-family:Arial;font-size:8px;font-style:normal;font-weight:normal;text-anchor:end;" transform="rotate(-0, 114.809091, 32.024725)" x="114.809091" y="32.024725">1.5</text>
     </g>
    </g>
    <g id="text_17">
     <!-- $\sigma$(Inh) -->
     <g transform="translate(97.489091 67.18)rotate(-90)">
      <text>
       <tspan style="font-family:DejaVu Sans;font-size:10px;font-style:oblique;font-weight:oblique;" x="0" y="-0.71875">σ</tspan>
       <tspan style="font-family:Arial;font-size:10px;font-style:regular;font-weight:regular;" x="6.337891 9.667969 12.446289 18.007812 23.569336" y="-0.71875">(Inh)</tspan>
      </text>
     </g>
    </g>
   </g>
   <g id="legend_2">
    <g id="line2d_18">
     <path d="M 108.478125 31.995156 
L 128.478125 31.995156 
" style="fill:none;stroke:#000000;stroke-dasharray:1.85,0.8;stroke-dashoffset:0;stroke-width:0.5;"/>
    </g>
    <g id="line2d_19"/>
    <g id="text_18">
     <!-- $R^2$ 0.37 -->
     <g transform="translate(136.478125 29.2475)">
      <text>
       <tspan style="font-family:DejaVu Sans;font-size:10px;font-style:oblique;font-weight:oblique;" x="0" y="-0.9765625">R</tspan>
       <tspan style="font-family:DejaVu Sans;font-size:7px;font-style:book;font-weight:book;" x="7.650794" y="-4.8046875">2</tspan>
       <tspan style="font-family:Arial;font-size:10px;font-style:regular;font-weight:regular;" x="12.377845 15.156165 20.717689 23.496009 29.057533" y="-0.9765625"> 0.37</tspan>
      </text>
     </g>
     <text style="font-family:Arial;font-size:10px;font-style:normal;font-weight:normal;" transform="translate(136.478125 39.86)"> slope 0.69</text>
    </g>
   </g>
  </g>
 </g>
 <defs>
  <clipPath id="pec2d369a5d">
   <rect height="81.54" width="76.090909" x="27" y="12.96"/>
  </clipPath>
  <clipPath id="p5a780e4337">
   <rect height="81.54" width="76.090909" x="118.309091" y="12.96"/>
  </clipPath>
 </defs>
</svg>
