<?xml version="1.0" encoding="utf-8" standalone="no"?>
<!DOCTYPE svg PUBLIC "-//W3C//DTD SVG 1.1//EN"
  "http://www.w3.org/Graphics/SVG/1.1/DTD/svg11.dtd">
<!-- Created with matplotlib (http://matplotlib.org/) -->
<svg height="108pt" version="1.1" viewBox="0 0 216 108" width="216pt" xmlns="http://www.w3.org/2000/svg" xmlns:xlink="http://www.w3.org/1999/xlink">
 <defs>
  <style type="text/css">
*{stroke-linecap:butt;stroke-linejoin:round;}
  </style>
 </defs>
 <g id="figure_1">
  <g id="patch_1">
   <path d="M 0 108 
L 216 108 
L 216 0 
L 0 0 
z
" style="fill:#ffffff;"/>
  </g>
  <g id="axes_1">
   <g id="patch_2">
    <path d="M 27 94.5 
L 103.090909 94.5 
L 103.090909 12.96 
L 27 12.96 
z
" style="fill:#ffffff;"/>
   </g>
   <g id="LineCollection_1">
    <path clip-path="url(#p4c9d21a776)" d="M 30.646408 35.160517 
L 51.029302 35.160517 
" style="fill:none;stroke:#000000;stroke-width:0.5;"/>
    <path clip-path="url(#p4c9d21a776)" d="M 25.565537 68.911844 
L 36.025978 68.911844 
" style="fill:none;stroke:#000000;stroke-width:0.5;"/>
    <path clip-path="url(#p4c9d21a776)" d="M 32.946475 44.683133 
L 50.154241 44.683133 
" style="fill:none;stroke:#000000;stroke-width:0.5;"/>
    <path clip-path="url(#p4c9d21a776)" d="M 26.433778 45.245037 
L 53.233637 45.245037 
" style="fill:none;stroke:#000000;stroke-width:0.5;"/>
    <path clip-path="url(#p4c9d21a776)" d="M 27.294736 63.742401 
L 35.471869 63.742401 
" style="fill:none;stroke:#000000;stroke-width:0.5;"/>
    <path clip-path="url(#p4c9d21a776)" d="M 25.320251 73.772103 
L 42.995131 73.772103 
" style="fill:none;stroke:#000000;stroke-width:0.5;"/>
    <path clip-path="url(#p4c9d21a776)" d="M 32.29485 45.030858 
L 55.522755 45.030858 
" style="fill:none;stroke:#000000;stroke-width:0.5;"/>
    <path clip-path="url(#p4c9d21a776)" d="M 26.130879 67.451597 
L 30.948503 67.451597 
" style="fill:none;stroke:#000000;stroke-width:0.5;"/>
    <path clip-path="url(#p4c9d21a776)" d="M 28.069001 71.951098 
L 39.99873 71.951098 
" style="fill:none;stroke:#000000;stroke-width:0.5;"/>
    <path clip-path="url(#p4c9d21a776)" d="M 25.853187 68.395059 
L 41.707095 68.395059 
" style="fill:none;stroke:#000000;stroke-width:0.5;"/>
    <path clip-path="url(#p4c9d21a776)" d="M 26.181867 78.204882 
L 34.833401 78.204882 
" style="fill:none;stroke:#000000;stroke-width:0.5;"/>
    <path clip-path="url(#p4c9d21a776)" d="M 26.114885 64.843444 
L 36.178156 64.843444 
" style="fill:none;stroke:#000000;stroke-width:0.5;"/>
    <path clip-path="url(#p4c9d21a776)" d="M 27 90.598201 
L 27 90.598201 
" style="fill:none;stroke:#000000;stroke-width:0.5;"/>
    <path clip-path="url(#p4c9d21a776)" d="M 25.419461 74.194666 
L 38.195035 74.194666 
" style="fill:none;stroke:#000000;stroke-width:0.5;"/>
    <path clip-path="url(#p4c9d21a776)" d="M 28.21136 54.386037 
L 35.572736 54.386037 
" style="fill:none;stroke:#000000;stroke-width:0.5;"/>
    <path clip-path="url(#p4c9d21a776)" d="M 27.953782 73.27913 
L 35.356476 73.27913 
" style="fill:none;stroke:#000000;stroke-width:0.5;"/>
    <path clip-path="url(#p4c9d21a776)" d="M 25.96389 35.001774 
L 39.922179 35.001774 
" style="fill:none;stroke:#000000;stroke-width:0.5;"/>
    <path clip-path="url(#p4c9d21a776)" d="M 24.872298 55.040591 
L 32.063495 55.040591 
" style="fill:none;stroke:#000000;stroke-width:0.5;"/>
    <path clip-path="url(#p4c9d21a776)" d="M 25.788701 76.867706 
L 29.882645 76.867706 
" style="fill:none;stroke:#000000;stroke-width:0.5;"/>
    <path clip-path="url(#p4c9d21a776)" d="M 28.232816 60.717355 
L 45.71021 60.717355 
" style="fill:none;stroke:#000000;stroke-width:0.5;"/>
    <path clip-path="url(#p4c9d21a776)" d="M 37.404859 28.607354 
L 42.148429 28.607354 
" style="fill:none;stroke:#000000;stroke-width:0.5;"/>
    <path clip-path="url(#p4c9d21a776)" d="M 29.637985 76.882095 
L 40.571106 76.882095 
" style="fill:none;stroke:#000000;stroke-width:0.5;"/>
    <path clip-path="url(#p4c9d21a776)" d="M 33.132532 52.43797 
L 59.246789 52.43797 
" style="fill:none;stroke:#000000;stroke-width:0.5;"/>
    <path clip-path="url(#p4c9d21a776)" d="M 27.801727 42.655037 
L 61.448875 42.655037 
" style="fill:none;stroke:#000000;stroke-width:0.5;"/>
    <path clip-path="url(#p4c9d21a776)" d="M 27.812526 79.030572 
L 39.812251 79.030572 
" style="fill:none;stroke:#000000;stroke-width:0.5;"/>
    <path clip-path="url(#p4c9d21a776)" d="M 26.165134 60.073455 
L 43.487008 60.073455 
" style="fill:none;stroke:#000000;stroke-width:0.5;"/>
    <path clip-path="url(#p4c9d21a776)" d="M 25.178219 83.875393 
L 35.456171 83.875393 
" style="fill:none;stroke:#000000;stroke-width:0.5;"/>
    <path clip-path="url(#p4c9d21a776)" d="M 25.008145 77.418926 
L 36.245604 77.418926 
" style="fill:none;stroke:#000000;stroke-width:0.5;"/>
    <path clip-path="url(#p4c9d21a776)" d="M 28.648735 76.263307 
L 35.871516 76.263307 
" style="fill:none;stroke:#000000;stroke-width:0.5;"/>
    <path clip-path="url(#p4c9d21a776)" d="M 26.538666 68.152911 
L 36.252545 68.152911 
" style="fill:none;stroke:#000000;stroke-width:0.5;"/>
   </g>
   <g id="LineCollection_2">
    <path clip-path="url(#p4c9d21a776)" d="M 40.837855 47.63677 
L 40.837855 22.684265 
" style="fill:none;stroke:#000000;stroke-width:0.5;"/>
    <path clip-path="url(#p4c9d21a776)" d="M 30.795757 73.490545 
L 30.795757 64.333143 
" style="fill:none;stroke:#000000;stroke-width:0.5;"/>
    <path clip-path="url(#p4c9d21a776)" d="M 41.550358 53.424857 
L 41.550358 35.941409 
" style="fill:none;stroke:#000000;stroke-width:0.5;"/>
    <path clip-path="url(#p4c9d21a776)" d="M 39.833707 56.091872 
L 39.833707 34.398202 
" style="fill:none;stroke:#000000;stroke-width:0.5;"/>
    <path clip-path="url(#p4c9d21a776)" d="M 31.383302 69.410901 
L 31.383302 58.073902 
" style="fill:none;stroke:#000000;stroke-width:0.5;"/>
    <path clip-path="url(#p4c9d21a776)" d="M 34.157691 79.361512 
L 34.157691 68.182694 
" style="fill:none;stroke:#000000;stroke-width:0.5;"/>
    <path clip-path="url(#p4c9d21a776)" d="M 43.908802 54.439824 
L 43.908802 35.621893 
" style="fill:none;stroke:#000000;stroke-width:0.5;"/>
    <path clip-path="url(#p4c9d21a776)" d="M 28.539691 77.890319 
L 28.539691 57.012875 
" style="fill:none;stroke:#000000;stroke-width:0.5;"/>
    <path clip-path="url(#p4c9d21a776)" d="M 34.033865 81.29601 
L 34.033865 62.606185 
" style="fill:none;stroke:#000000;stroke-width:0.5;"/>
    <path clip-path="url(#p4c9d21a776)" d="M 33.780141 79.799651 
L 33.780141 56.990467 
" style="fill:none;stroke:#000000;stroke-width:0.5;"/>
    <path clip-path="url(#p4c9d21a776)" d="M 30.507634 80.81358 
L 30.507634 75.596183 
" style="fill:none;stroke:#000000;stroke-width:0.5;"/>
    <path clip-path="url(#p4c9d21a776)" d="M 31.14652 70.479321 
L 31.14652 59.207566 
" style="fill:none;stroke:#000000;stroke-width:0.5;"/>
    <path clip-path="url(#p4c9d21a776)" d="M 27 94.872408 
L 27 86.323994 
" style="fill:none;stroke:#000000;stroke-width:0.5;"/>
    <path clip-path="url(#p4c9d21a776)" d="M 31.807248 81.980656 
L 31.807248 66.408675 
" style="fill:none;stroke:#000000;stroke-width:0.5;"/>
    <path clip-path="url(#p4c9d21a776)" d="M 31.892048 60.478871 
L 31.892048 48.293203 
" style="fill:none;stroke:#000000;stroke-width:0.5;"/>
    <path clip-path="url(#p4c9d21a776)" d="M 31.655129 74.805039 
L 31.655129 71.75322 
" style="fill:none;stroke:#000000;stroke-width:0.5;"/>
    <path clip-path="url(#p4c9d21a776)" d="M 32.943035 53.142958 
L 32.943035 16.860591 
" style="fill:none;stroke:#000000;stroke-width:0.5;"/>
    <path clip-path="url(#p4c9d21a776)" d="M 28.467897 62.917331 
L 28.467897 47.16385 
" style="fill:none;stroke:#000000;stroke-width:0.5;"/>
    <path clip-path="url(#p4c9d21a776)" d="M 27.835673 84.748229 
L 27.835673 68.987182 
" style="fill:none;stroke:#000000;stroke-width:0.5;"/>
    <path clip-path="url(#p4c9d21a776)" d="M 36.971513 67.736317 
L 36.971513 53.698393 
" style="fill:none;stroke:#000000;stroke-width:0.5;"/>
    <path clip-path="url(#p4c9d21a776)" d="M 39.776644 33.42183 
L 39.776644 23.792878 
" style="fill:none;stroke:#000000;stroke-width:0.5;"/>
    <path clip-path="url(#p4c9d21a776)" d="M 35.104545 83.345882 
L 35.104545 70.418309 
" style="fill:none;stroke:#000000;stroke-width:0.5;"/>
    <path clip-path="url(#p4c9d21a776)" d="M 46.18966 62.453995 
L 46.18966 42.421945 
" style="fill:none;stroke:#000000;stroke-width:0.5;"/>
    <path clip-path="url(#p4c9d21a776)" d="M 44.625301 62.830777 
L 44.625301 22.479297 
" style="fill:none;stroke:#000000;stroke-width:0.5;"/>
    <path clip-path="url(#p4c9d21a776)" d="M 33.812389 87.897572 
L 33.812389 70.163573 
" style="fill:none;stroke:#000000;stroke-width:0.5;"/>
    <path clip-path="url(#p4c9d21a776)" d="M 34.826071 71.888015 
L 34.826071 48.258894 
" style="fill:none;stroke:#000000;stroke-width:0.5;"/>
    <path clip-path="url(#p4c9d21a776)" d="M 30.317195 83.875393 
L 30.317195 83.875393 
" style="fill:none;stroke:#000000;stroke-width:0.5;"/>
    <path clip-path="url(#p4c9d21a776)" d="M 30.626874 82.317148 
L 30.626874 72.520704 
" style="fill:none;stroke:#000000;stroke-width:0.5;"/>
    <path clip-path="url(#p4c9d21a776)" d="M 32.260125 81.391136 
L 32.260125 71.135478 
" style="fill:none;stroke:#000000;stroke-width:0.5;"/>
    <path clip-path="url(#p4c9d21a776)" d="M 31.395606 72.02758 
L 31.395606 64.278242 
" style="fill:none;stroke:#000000;stroke-width:0.5;"/>
   </g>
   <g id="line2d_1">
    <path clip-path="url(#p4c9d21a776)" d="M 27 78.581689 
L 27.768595 76.943616 
L 28.53719 75.305542 
L 29.305785 73.667469 
L 30.07438 72.029395 
L 30.842975 70.391322 
L 31.61157 68.753249 
L 32.380165 67.115175 
L 33.14876 65.477102 
L 33.917355 63.839028 
L 34.68595 62.200955 
L 35.454545 60.562881 
L 36.22314 58.924808 
L 36.991736 57.286735 
L 37.760331 55.648661 
L 38.528926 54.010588 
L 39.297521 52.372514 
L 40.066116 50.734441 
L 40.834711 49.096368 
L 41.603306 47.458294 
L 42.371901 45.820221 
L 43.140496 44.182147 
L 43.909091 42.544074 
L 44.677686 40.906 
L 45.446281 39.267927 
L 46.214876 37.629854 
L 46.983471 35.99178 
L 47.752066 34.353707 
L 48.520661 32.715633 
L 49.289256 31.07756 
L 50.057851 29.439486 
L 50.826446 27.801413 
L 51.595041 26.16334 
L 52.363636 24.525266 
L 53.132231 22.887193 
L 53.900826 21.249119 
L 54.669421 19.611046 
L 55.438017 17.972972 
L 56.206612 16.334899 
L 56.975207 14.696826 
L 57.743802 13.058752 
L 58.512397 11.420679 
L 59.280992 9.782605 
L 60.049587 8.144532 
L 60.818182 6.506459 
L 61.586777 4.868385 
L 62.355372 3.230312 
L 63.123967 1.592238 
L 63.892562 -0.045835 
L 64.340263 -1 
" style="fill:none;stroke:#000000;stroke-dasharray:1.85,0.8;stroke-dashoffset:0;stroke-width:0.5;"/>
   </g>
   <g id="line2d_2">
    <defs>
     <path d="M 0 3 
C 0.795609 3 1.55874 2.683901 2.12132 2.12132 
C 2.683901 1.55874 3 0.795609 3 0 
C 3 -0.795609 2.683901 -1.55874 2.12132 -2.12132 
C 1.55874 -2.683901 0.795609 -3 0 -3 
C -0.795609 -3 -1.55874 -2.683901 -2.12132 -2.12132 
C -2.683901 -1.55874 -3 -0.795609 -3 0 
C -3 0.795609 -2.683901 1.55874 -2.12132 2.12132 
C -1.55874 2.683901 -0.795609 3 0 3 
z
" id="ma0caf515c0" style="stroke:#000000;"/>
    </defs>
    <g clip-path="url(#p4c9d21a776)">
     <use style="stroke:#000000;" x="40.837855" xlink:href="#ma0caf515c0" y="35.160517"/>
     <use style="stroke:#000000;" x="30.795757" xlink:href="#ma0caf515c0" y="68.911844"/>
     <use style="stroke:#000000;" x="41.550358" xlink:href="#ma0caf515c0" y="44.683133"/>
     <use style="stroke:#000000;" x="39.833707" xlink:href="#ma0caf515c0" y="45.245037"/>
     <use style="stroke:#000000;" x="31.383302" xlink:href="#ma0caf515c0" y="63.742401"/>
     <use style="stroke:#000000;" x="34.157691" xlink:href="#ma0caf515c0" y="73.772103"/>
     <use style="stroke:#000000;" x="43.908802" xlink:href="#ma0caf515c0" y="45.030858"/>
     <use style="stroke:#000000;" x="28.539691" xlink:href="#ma0caf515c0" y="67.451597"/>
     <use style="stroke:#000000;" x="34.033865" xlink:href="#ma0caf515c0" y="71.951098"/>
     <use style="stroke:#000000;" x="33.780141" xlink:href="#ma0caf515c0" y="68.395059"/>
     <use style="stroke:#000000;" x="30.507634" xlink:href="#ma0caf515c0" y="78.204882"/>
     <use style="stroke:#000000;" x="31.14652" xlink:href="#ma0caf515c0" y="64.843444"/>
     <use style="stroke:#000000;" x="27" xlink:href="#ma0caf515c0" y="90.598201"/>
     <use style="stroke:#000000;" x="31.807248" xlink:href="#ma0caf515c0" y="74.194666"/>
     <use style="stroke:#000000;" x="31.892048" xlink:href="#ma0caf515c0" y="54.386037"/>
     <use style="stroke:#000000;" x="31.655129" xlink:href="#ma0caf515c0" y="73.27913"/>
     <use style="stroke:#000000;" x="32.943035" xlink:href="#ma0caf515c0" y="35.001774"/>
     <use style="stroke:#000000;" x="28.467897" xlink:href="#ma0caf515c0" y="55.040591"/>
     <use style="stroke:#000000;" x="27.835673" xlink:href="#ma0caf515c0" y="76.867706"/>
     <use style="stroke:#000000;" x="36.971513" xlink:href="#ma0caf515c0" y="60.717355"/>
     <use style="stroke:#000000;" x="39.776644" xlink:href="#ma0caf515c0" y="28.607354"/>
     <use style="stroke:#000000;" x="35.104545" xlink:href="#ma0caf515c0" y="76.882095"/>
     <use style="stroke:#000000;" x="46.18966" xlink:href="#ma0caf515c0" y="52.43797"/>
     <use style="stroke:#000000;" x="44.625301" xlink:href="#ma0caf515c0" y="42.655037"/>
     <use style="stroke:#000000;" x="33.812389" xlink:href="#ma0caf515c0" y="79.030572"/>
     <use style="stroke:#000000;" x="34.826071" xlink:href="#ma0caf515c0" y="60.073455"/>
     <use style="stroke:#000000;" x="30.317195" xlink:href="#ma0caf515c0" y="83.875393"/>
     <use style="stroke:#000000;" x="30.626874" xlink:href="#ma0caf515c0" y="77.418926"/>
     <use style="stroke:#000000;" x="32.260125" xlink:href="#ma0caf515c0" y="76.263307"/>
     <use style="stroke:#000000;" x="31.395606" xlink:href="#ma0caf515c0" y="68.152911"/>
    </g>
   </g>
   <g id="patch_3">
    <path d="M 27 94.5 
L 27 12.96 
" style="fill:none;stroke:#000000;stroke-linecap:square;stroke-linejoin:miter;"/>
   </g>
   <g id="patch_4">
    <path d="M 27 94.5 
L 103.090909 94.5 
" style="fill:none;stroke:#000000;stroke-linecap:square;stroke-linejoin:miter;"/>
   </g>
   <g id="matplotlib.axis_1">
    <g id="xtick_1">
     <g id="line2d_3"/>
     <g id="text_1">
      <text style="font-family:Arial;font-size:8px;font-style:normal;font-weight:normal;text-anchor:middle;" transform="rotate(-0, 27, 103.72625)" x="27" y="103.72625">0</text>
     </g>
    </g>
    <g id="xtick_2">
     <g id="line2d_4"/>
     <g id="text_2">
      <text style="font-family:Arial;font-size:8px;font-style:normal;font-weight:normal;text-anchor:middle;" transform="rotate(-0, 71.879023, 103.72625)" x="71.879023" y="103.72625">5</text>
     </g>
    </g>
    <g id="text_3">
     <text style="font-family:Arial;font-size:10px;font-style:normal;font-weight:normal;text-anchor:middle;" transform="rotate(-0, 65.045455, 116.474063)" x="65.045455" y="116.474063">Exc</text>
    </g>
   </g>
   <g id="matplotlib.axis_2">
    <g id="ytick_1">
     <g id="line2d_5"/>
     <g id="text_4">
      <text style="font-family:Arial;font-size:8px;font-style:normal;font-weight:normal;text-anchor:end;" transform="rotate(-0, 23.5, 97.363125)" x="23.5" y="97.363125">0</text>
     </g>
    </g>
    <g id="ytick_2">
     <g id="line2d_6"/>
     <g id="text_5">
      <text style="font-family:Arial;font-size:8px;font-style:normal;font-weight:normal;text-anchor:end;" transform="rotate(-0, 23.5, 78.125949)" x="23.5" y="78.125949">2</text>
     </g>
    </g>
    <g id="ytick_3">
     <g id="line2d_7"/>
     <g id="text_6">
      <text style="font-family:Arial;font-size:8px;font-style:normal;font-weight:normal;text-anchor:end;" transform="rotate(-0, 23.5, 58.888773)" x="23.5" y="58.888773">4</text>
     </g>
    </g>
    <g id="ytick_4">
     <g id="line2d_8"/>
     <g id="text_7">
      <text style="font-family:Arial;font-size:8px;font-style:normal;font-weight:normal;text-anchor:end;" transform="rotate(-0, 23.5, 39.651597)" x="23.5" y="39.651597">6</text>
     </g>
    </g>
    <g id="ytick_5">
     <g id="line2d_9"/>
     <g id="text_8">
      <text style="font-family:Arial;font-size:8px;font-style:normal;font-weight:normal;text-anchor:end;" transform="rotate(-0, 23.5, 20.414422)" x="23.5" y="20.414422">8</text>
     </g>
    </g>
    <g id="text_9">
     <text style="font-family:Arial;font-size:10px;font-style:normal;font-weight:normal;text-anchor:middle;" transform="rotate(-90, 13.06375, 53.73)" x="13.06375" y="53.73">Inh</text>
    </g>
   </g>
   <g id="legend_1">
    <g id="line2d_10">
     <path d="M 36 75.622656 
L 56 75.622656 
" style="fill:none;stroke:#000000;stroke-dasharray:1.85,0.8;stroke-dashoffset:0;stroke-width:0.5;"/>
    </g>
    <g id="line2d_11"/>
    <g id="text_10">
     <!-- $R^2$ 0.48 -->
     <g transform="translate(64 72.875)">
      <text>
       <tspan style="font-family:DejaVu Sans;font-size:10px;font-style:oblique;font-weight:oblique;" x="0" y="-0.9765625">R</tspan>
       <tspan style="font-family:DejaVu Sans;font-size:7px;font-style:book;font-weight:book;" x="7.650794" y="-4.8046875">2</tspan>
       <tspan style="font-family:Arial;font-size:10px;font-style:regular;font-weight:regular;" x="12.377845 15.156165 20.717689 23.496009 29.057533" y="-0.9765625"> 0.48</tspan>
      </text>
     </g>
     <text style="font-family:Arial;font-size:10px;font-style:normal;font-weight:normal;" transform="translate(64 83.4875)"> slope 1.99</text>
    </g>
   </g>
  </g>
  <g id="axes_2">
   <g id="patch_5">
    <path d="M 118.309091 94.5 
L 194.4 94.5 
L 194.4 12.96 
L 118.309091 12.96 
z
" style="fill:#ffffff;"/>
   </g>
   <g id="PathCollection_1">
    <defs>
     <path d="M 0 2.44949 
C 0.649612 2.44949 1.272706 2.191396 1.732051 1.732051 
C 2.191396 1.272706 2.44949 0.649612 2.44949 0 
C 2.44949 -0.649612 2.191396 -1.272706 1.732051 -1.732051 
C 1.272706 -2.191396 0.649612 -2.44949 0 -2.44949 
C -0.649612 -2.44949 -1.272706 -2.191396 -1.732051 -1.732051 
C -2.191396 -1.272706 -2.44949 -0.649612 -2.44949 0 
C -2.44949 0.649612 -2.191396 1.272706 -1.732051 1.732051 
C -1.272706 2.191396 -0.649612 2.44949 0 2.44949 
z
" id="mbb30af17ff" style="stroke:#000000;"/>
    </defs>
    <g clip-path="url(#p916ac8f80c)">
     <use style="stroke:#000000;" x="157.316866" xlink:href="#mbb30af17ff" y="46.747129"/>
     <use style="stroke:#000000;" x="138.327766" xlink:href="#mbb30af17ff" y="76.975018"/>
     <use style="stroke:#000000;" x="151.240462" xlink:href="#mbb30af17ff" y="61.041043"/>
     <use style="stroke:#000000;" x="169.597335" xlink:href="#mbb30af17ff" y="52.983727"/>
     <use style="stroke:#000000;" x="133.958083" xlink:href="#mbb30af17ff" y="72.803813"/>
     <use style="stroke:#000000;" x="152.134402" xlink:href="#mbb30af17ff" y="73.106531"/>
     <use style="stroke:#000000;" x="162.761508" xlink:href="#mbb30af17ff" y="58.487175"/>
     <use style="stroke:#000000;" x="127.528821" xlink:href="#mbb30af17ff" y="54.545781"/>
     <use style="stroke:#000000;" x="141.139615" xlink:href="#mbb30af17ff" y="58.732337"/>
     <use style="stroke:#000000;" x="148.649516" xlink:href="#mbb30af17ff" y="50.848912"/>
     <use style="stroke:#000000;" x="134.865969" xlink:href="#mbb30af17ff" y="84.515203"/>
     <use style="stroke:#000000;" x="137.567683" xlink:href="#mbb30af17ff" y="72.928672"/>
     <use style="stroke:#000000;" x="118.309091" xlink:href="#mbb30af17ff" y="78.140468"/>
     <use style="stroke:#000000;" x="142.758353" xlink:href="#mbb30af17ff" y="64.699114"/>
     <use style="stroke:#000000;" x="132.396928" xlink:href="#mbb30af17ff" y="71.17967"/>
     <use style="stroke:#000000;" x="132.476002" xlink:href="#mbb30af17ff" y="88.659581"/>
     <use style="stroke:#000000;" x="145.021774" xlink:href="#mbb30af17ff" y="25.064601"/>
     <use style="stroke:#000000;" x="132.071248" xlink:href="#mbb30af17ff" y="64.351767"/>
     <use style="stroke:#000000;" x="126.14388" xlink:href="#mbb30af17ff" y="64.337287"/>
     <use style="stroke:#000000;" x="151.756464" xlink:href="#mbb30af17ff" y="67.634915"/>
     <use style="stroke:#000000;" x="127.3871" xlink:href="#mbb30af17ff" y="76.072589"/>
     <use style="stroke:#000000;" x="139.232356" xlink:href="#mbb30af17ff" y="69.759851"/>
     <use style="stroke:#000000;" x="168.285264" xlink:href="#mbb30af17ff" y="56.163653"/>
     <use style="stroke:#000000;" x="182.701337" xlink:href="#mbb30af17ff" y="17.277334"/>
     <use style="stroke:#000000;" x="141.27357" xlink:href="#mbb30af17ff" y="60.56155"/>
     <use style="stroke:#000000;" x="151.458836" xlink:href="#mbb30af17ff" y="49.279757"/>
     <use style="stroke:#000000;" x="137.978527" xlink:href="#mbb30af17ff" y="94.5"/>
     <use style="stroke:#000000;" x="139.814785" xlink:href="#mbb30af17ff" y="75.75205"/>
     <use style="stroke:#000000;" x="132.131693" xlink:href="#mbb30af17ff" y="74.87323"/>
     <use style="stroke:#000000;" x="136.899032" xlink:href="#mbb30af17ff" y="79.669699"/>
    </g>
   </g>
   <g id="line2d_12">
    <path clip-path="url(#p916ac8f80c)" d="M 118.309091 82.931329 
L 119.077686 82.366957 
L 119.846281 81.802585 
L 120.614876 81.238212 
L 121.383471 80.67384 
L 122.152066 80.109468 
L 122.920661 79.545096 
L 123.689256 78.980723 
L 124.457851 78.416351 
L 125.226446 77.851979 
L 125.995041 77.287606 
L 126.763636 76.723234 
L 127.532231 76.158862 
L 128.300826 75.594489 
L 129.069421 75.030117 
L 129.838017 74.465745 
L 130.606612 73.901373 
L 131.375207 73.337 
L 132.143802 72.772628 
L 132.912397 72.208256 
L 133.680992 71.643883 
L 134.449587 71.079511 
L 135.218182 70.515139 
L 135.986777 69.950767 
L 136.755372 69.386394 
L 137.523967 68.822022 
L 138.292562 68.25765 
L 139.061157 67.693277 
L 139.829752 67.128905 
L 140.598347 66.564533 
L 141.366942 66.000161 
L 142.135537 65.435788 
L 142.904132 64.871416 
L 143.672727 64.307044 
L 144.441322 63.742671 
L 145.209917 63.178299 
L 145.978512 62.613927 
L 146.747107 62.049554 
L 147.515702 61.485182 
L 148.284298 60.92081 
L 149.052893 60.356438 
L 149.821488 59.792065 
L 150.590083 59.227693 
L 151.358678 58.663321 
L 152.127273 58.098948 
L 152.895868 57.534576 
L 153.664463 56.970204 
L 154.433058 56.405832 
L 155.201653 55.841459 
L 155.970248 55.277087 
L 156.738843 54.712715 
L 157.507438 54.148342 
L 158.276033 53.58397 
L 159.044628 53.019598 
L 159.813223 52.455226 
L 160.581818 51.890853 
L 161.350413 51.326481 
L 162.119008 50.762109 
L 162.887603 50.197736 
L 163.656198 49.633364 
L 164.424793 49.068992 
L 165.193388 48.504619 
L 165.961983 47.940247 
L 166.730579 47.375875 
L 167.499174 46.811503 
L 168.267769 46.24713 
L 169.036364 45.682758 
L 169.804959 45.118386 
L 170.573554 44.554013 
L 171.342149 43.989641 
L 172.110744 43.425269 
L 172.879339 42.860897 
L 173.647934 42.296524 
L 174.416529 41.732152 
L 175.185124 41.16778 
L 175.953719 40.603407 
L 176.722314 40.039035 
L 177.490909 39.474663 
L 178.259504 38.910291 
L 179.028099 38.345918 
L 179.796694 37.781546 
L 180.565289 37.217174 
L 181.333884 36.652801 
L 182.102479 36.088429 
L 182.871074 35.524057 
L 183.639669 34.959684 
L 184.408264 34.395312 
L 185.17686 33.83094 
L 185.945455 33.266568 
L 186.71405 32.702195 
L 187.482645 32.137823 
L 188.25124 31.573451 
L 189.019835 31.009078 
L 189.78843 30.444706 
L 190.557025 29.880334 
L 191.32562 29.315962 
L 192.094215 28.751589 
L 192.86281 28.187217 
L 193.631405 27.622845 
L 194.4 27.058472 
" style="fill:none;stroke:#000000;stroke-dasharray:1.85,0.8;stroke-dashoffset:0;stroke-width:0.5;"/>
   </g>
   <g id="patch_6">
    <path d="M 118.309091 94.5 
L 118.309091 12.96 
" style="fill:none;stroke:#000000;stroke-linecap:square;stroke-linejoin:miter;"/>
   </g>
   <g id="patch_7">
    <path d="M 118.309091 94.5 
L 194.4 94.5 
" style="fill:none;stroke:#000000;stroke-linecap:square;stroke-linejoin:miter;"/>
   </g>
   <g id="matplotlib.axis_3">
    <g id="xtick_3">
     <g id="line2d_13"/>
     <g id="text_11">
      <text style="font-family:Arial;font-size:8px;font-style:normal;font-weight:normal;text-anchor:middle;" transform="rotate(-0, 118.309091, 103.72625)" x="118.309091" y="103.72625">0</text>
     </g>
    </g>
    <g id="xtick_4">
     <g id="line2d_14"/>
     <g id="text_12">
      <text style="font-family:Arial;font-size:8px;font-style:normal;font-weight:normal;text-anchor:middle;" transform="rotate(-0, 152.663992, 103.72625)" x="152.663992" y="103.72625">1</text>
     </g>
    </g>
    <g id="xtick_5">
     <g id="line2d_15"/>
     <g id="text_13">
      <text style="font-family:Arial;font-size:8px;font-style:normal;font-weight:normal;text-anchor:middle;" transform="rotate(-0, 187.018894, 103.72625)" x="187.018894" y="103.72625">2</text>
     </g>
    </g>
    <g id="text_14">
     <!-- $\sigma$(Exc) -->
     <g transform="translate(141.504545 116.61625)">
      <text>
       <tspan style="font-family:DejaVu Sans;font-size:10px;font-style:oblique;font-weight:oblique;" x="0" y="-0.71875">σ</tspan>
       <tspan style="font-family:Arial;font-size:10px;font-style:regular;font-weight:regular;" x="6.337891 9.667969 16.337891 21.337891 26.337891" y="-0.71875">(Exc)</tspan>
      </text>
     </g>
    </g>
   </g>
   <g id="matplotlib.axis_4">
    <g id="ytick_6">
     <g id="line2d_16"/>
     <g id="text_15">
      <text style="font-family:Arial;font-size:8px;font-style:normal;font-weight:normal;text-anchor:end;" transform="rotate(-0, 114.809091, 97.363125)" x="114.809091" y="97.363125">0.0</text>
     </g>
    </g>
    <g id="ytick_7">
     <g id="line2d_17"/>
     <g id="text_16">
      <text style="font-family:Arial;font-size:8px;font-style:normal;font-weight:normal;text-anchor:end;" transform="rotate(-0, 114.809091, 78.955547)" x="114.809091" y="78.955547">0.5</text>
     </g>
    </g>
    <g id="ytick_8">
     <g id="line2d_18"/>
     <g id="text_17">
      <text style="font-family:Arial;font-size:8px;font-style:normal;font-weight:normal;text-anchor:end;" transform="rotate(-0, 114.809091, 60.547969)" x="114.809091" y="60.547969">1.0</text>
     </g>
    </g>
    <g id="ytick_9">
     <g id="line2d_19"/>
     <g id="text_18">
      <text style="font-family:Arial;font-size:8px;font-style:normal;font-weight:normal;text-anchor:end;" transform="rotate(-0, 114.809091, 42.140392)" x="114.809091" y="42.140392">1.5</text>
     </g>
    </g>
    <g id="ytick_10">
     <g id="line2d_20"/>
     <g id="text_19">
      <text style="font-family:Arial;font-size:8px;font-style:normal;font-weight:normal;text-anchor:end;" transform="rotate(-0, 114.809091, 23.732814)" x="114.809091" y="23.732814">2.0</text>
     </g>
    </g>
    <g id="text_20">
     <!-- $\sigma$(Inh) -->
     <g transform="translate(97.489091 67.18)rotate(-90)">
      <text>
       <tspan style="font-family:DejaVu Sans;font-size:10px;font-style:oblique;font-weight:oblique;" x="0" y="-0.71875">σ</tspan>
       <tspan style="font-family:Arial;font-size:10px;font-style:regular;font-weight:regular;" x="6.337891 9.667969 12.446289 18.007812 23.569336" y="-0.71875">(Inh)</tspan>
      </text>
     </g>
    </g>
   </g>
   <g id="legend_2">
    <g id="line2d_21">
     <path d="M 108.478125 31.995156 
L 128.478125 31.995156 
" style="fill:none;stroke:#000000;stroke-dasharray:1.85,0.8;stroke-dashoffset:0;stroke-width:0.5;"/>
    </g>
    <g id="line2d_22"/>
    <g id="text_21">
     <!-- $R^2$ 0.40 -->
     <g transform="translate(136.478125 29.2475)">
      <text>
       <tspan style="font-family:DejaVu Sans;font-size:10px;font-style:oblique;font-weight:oblique;" x="0" y="-0.9765625">R</tspan>
       <tspan style="font-family:DejaVu Sans;font-size:7px;font-style:book;font-weight:book;" x="7.650794" y="-4.8046875">2</tspan>
       <tspan style="font-family:Arial;font-size:10px;font-style:regular;font-weight:regular;" x="12.377845 15.156165 20.717689 23.496009 29.057533" y="-0.9765625"> 0.40</tspan>
      </text>
     </g>
     <text style="font-family:Arial;font-size:10px;font-style:normal;font-weight:normal;" transform="translate(136.478125 39.86)"> slope 0.69</text>
    </g>
   </g>
  </g>
 </g>
 <defs>
  <clipPath id="p4c9d21a776">
   <rect height="81.54" width="76.090909" x="27" y="12.96"/>
  </clipPath>
  <clipPath id="p916ac8f80c">
   <rect height="81.54" width="76.090909" x="118.309091" y="12.96"/>
  </clipPath>
 </defs>
</svg>
