<?xml version="1.0" encoding="utf-8" standalone="no"?>
<!DOCTYPE svg PUBLIC "-//W3C//DTD SVG 1.1//EN"
  "http://www.w3.org/Graphics/SVG/1.1/DTD/svg11.dtd">
<!-- Created with matplotlib (http://matplotlib.org/) -->
<svg height="108pt" version="1.1" viewBox="0 0 216 108" width="216pt" xmlns="http://www.w3.org/2000/svg" xmlns:xlink="http://www.w3.org/1999/xlink">
 <defs>
  <style type="text/css">
*{stroke-linecap:butt;stroke-linejoin:round;}
  </style>
 </defs>
 <g id="figure_1">
  <g id="patch_1">
   <path d="M 0 108 
L 216 108 
L 216 0 
L 0 0 
z
" style="fill:#ffffff;"/>
  </g>
  <g id="axes_1">
   <g id="patch_2">
    <path d="M 27 94.5 
L 103.090909 94.5 
L 103.090909 12.96 
L 27 12.96 
z
" style="fill:#ffffff;"/>
   </g>
   <g id="LineCollection_1">
    <path clip-path="url(#pe5524818f0)" d="M 25.523427 88.778984 
L 33.853815 88.778984 
" style="fill:none;stroke:#000000;stroke-width:0.5;"/>
    <path clip-path="url(#pe5524818f0)" d="M 27 89.325692 
L 27 89.325692 
" style="fill:none;stroke:#000000;stroke-width:0.5;"/>
    <path clip-path="url(#pe5524818f0)" d="M 25.647874 88.791438 
L 30.217785 88.791438 
" style="fill:none;stroke:#000000;stroke-width:0.5;"/>
    <path clip-path="url(#pe5524818f0)" d="M 25.215576 76.519481 
L 35.282767 76.519481 
" style="fill:none;stroke:#000000;stroke-width:0.5;"/>
    <path clip-path="url(#pe5524818f0)" d="M 32.598343 57.460656 
L 37.967948 57.460656 
" style="fill:none;stroke:#000000;stroke-width:0.5;"/>
    <path clip-path="url(#pe5524818f0)" d="M 29.971797 79.440857 
L 37.184924 79.440857 
" style="fill:none;stroke:#000000;stroke-width:0.5;"/>
    <path clip-path="url(#pe5524818f0)" d="M 30.818245 24.881674 
L 41.39782 24.881674 
" style="fill:none;stroke:#000000;stroke-width:0.5;"/>
    <path clip-path="url(#pe5524818f0)" d="M 27 83.377692 
L 27 83.377692 
" style="fill:none;stroke:#000000;stroke-width:0.5;"/>
    <path clip-path="url(#pe5524818f0)" d="M 26.549619 78.285888 
L 34.621036 78.285888 
" style="fill:none;stroke:#000000;stroke-width:0.5;"/>
    <path clip-path="url(#pe5524818f0)" d="M 26.101641 63.245323 
L 35.691817 63.245323 
" style="fill:none;stroke:#000000;stroke-width:0.5;"/>
    <path clip-path="url(#pe5524818f0)" d="M 31.735685 63.305394 
L 47.504257 63.305394 
" style="fill:none;stroke:#000000;stroke-width:0.5;"/>
    <path clip-path="url(#pe5524818f0)" d="M 24.836495 78.368883 
L 36.905435 78.368883 
" style="fill:none;stroke:#000000;stroke-width:0.5;"/>
    <path clip-path="url(#pe5524818f0)" d="M 31.094382 67.368623 
L 41.467724 67.368623 
" style="fill:none;stroke:#000000;stroke-width:0.5;"/>
    <path clip-path="url(#pe5524818f0)" d="M 25.707462 79.154158 
L 32.999578 79.154158 
" style="fill:none;stroke:#000000;stroke-width:0.5;"/>
    <path clip-path="url(#pe5524818f0)" d="M 26.043456 74.487012 
L 33.075486 74.487012 
" style="fill:none;stroke:#000000;stroke-width:0.5;"/>
    <path clip-path="url(#pe5524818f0)" d="M 24.962473 57.464905 
L 37.270812 57.464905 
" style="fill:none;stroke:#000000;stroke-width:0.5;"/>
    <path clip-path="url(#pe5524818f0)" d="M 25.057503 83.808171 
L 31.622746 83.808171 
" style="fill:none;stroke:#000000;stroke-width:0.5;"/>
    <path clip-path="url(#pe5524818f0)" d="M 29.549479 61.242911 
L 41.252127 61.242911 
" style="fill:none;stroke:#000000;stroke-width:0.5;"/>
    <path clip-path="url(#pe5524818f0)" d="M 26.789668 79.669228 
L 30.213838 79.669228 
" style="fill:none;stroke:#000000;stroke-width:0.5;"/>
    <path clip-path="url(#pe5524818f0)" d="M 28.873585 73.635768 
L 39.174951 73.635768 
" style="fill:none;stroke:#000000;stroke-width:0.5;"/>
    <path clip-path="url(#pe5524818f0)" d="M 25.242934 57.430116 
L 43.047267 57.430116 
" style="fill:none;stroke:#000000;stroke-width:0.5;"/>
    <path clip-path="url(#pe5524818f0)" d="M 27.402464 71.847673 
L 31.080976 71.847673 
" style="fill:none;stroke:#000000;stroke-width:0.5;"/>
    <path clip-path="url(#pe5524818f0)" d="M 25.078329 87.060937 
L 31.573185 87.060937 
" style="fill:none;stroke:#000000;stroke-width:0.5;"/>
    <path clip-path="url(#pe5524818f0)" d="M 23.802083 83.370111 
L 35.392864 83.370111 
" style="fill:none;stroke:#000000;stroke-width:0.5;"/>
    <path clip-path="url(#pe5524818f0)" d="M 27.909887 83.671791 
L 34.197712 83.671791 
" style="fill:none;stroke:#000000;stroke-width:0.5;"/>
    <path clip-path="url(#pe5524818f0)" d="M 27.951134 66.630464 
L 37.372774 66.630464 
" style="fill:none;stroke:#000000;stroke-width:0.5;"/>
    <path clip-path="url(#pe5524818f0)" d="M 25.772495 79.040489 
L 34.250539 79.040489 
" style="fill:none;stroke:#000000;stroke-width:0.5;"/>
    <path clip-path="url(#pe5524818f0)" d="M 26.688195 83.691275 
L 34.78153 83.691275 
" style="fill:none;stroke:#000000;stroke-width:0.5;"/>
    <path clip-path="url(#pe5524818f0)" d="M 27.871594 74.325889 
L 38.711234 74.325889 
" style="fill:none;stroke:#000000;stroke-width:0.5;"/>
    <path clip-path="url(#pe5524818f0)" d="M 25.439051 70.137525 
L 44.302905 70.137525 
" style="fill:none;stroke:#000000;stroke-width:0.5;"/>
   </g>
   <g id="LineCollection_2">
    <path clip-path="url(#pe5524818f0)" d="M 29.688621 93.210464 
L 29.688621 84.347504 
" style="fill:none;stroke:#000000;stroke-width:0.5;"/>
    <path clip-path="url(#pe5524818f0)" d="M 27 89.325692 
L 27 89.325692 
" style="fill:none;stroke:#000000;stroke-width:0.5;"/>
    <path clip-path="url(#pe5524818f0)" d="M 27.932829 88.791438 
L 27.932829 88.791438 
" style="fill:none;stroke:#000000;stroke-width:0.5;"/>
    <path clip-path="url(#pe5524818f0)" d="M 30.249172 80.190974 
L 30.249172 72.847988 
" style="fill:none;stroke:#000000;stroke-width:0.5;"/>
    <path clip-path="url(#pe5524818f0)" d="M 35.283145 63.208657 
L 35.283145 51.712656 
" style="fill:none;stroke:#000000;stroke-width:0.5;"/>
    <path clip-path="url(#pe5524818f0)" d="M 33.57836 83.19396 
L 33.57836 75.687754 
" style="fill:none;stroke:#000000;stroke-width:0.5;"/>
    <path clip-path="url(#pe5524818f0)" d="M 36.108033 32.981898 
L 36.108033 16.781451 
" style="fill:none;stroke:#000000;stroke-width:0.5;"/>
    <path clip-path="url(#pe5524818f0)" d="M 27 89.423947 
L 27 77.331438 
" style="fill:none;stroke:#000000;stroke-width:0.5;"/>
    <path clip-path="url(#pe5524818f0)" d="M 30.585327 85.953374 
L 30.585327 70.618402 
" style="fill:none;stroke:#000000;stroke-width:0.5;"/>
    <path clip-path="url(#pe5524818f0)" d="M 30.896729 68.496972 
L 30.896729 57.993673 
" style="fill:none;stroke:#000000;stroke-width:0.5;"/>
    <path clip-path="url(#pe5524818f0)" d="M 39.619971 73.496378 
L 39.619971 53.11441 
" style="fill:none;stroke:#000000;stroke-width:0.5;"/>
    <path clip-path="url(#pe5524818f0)" d="M 30.870965 83.967352 
L 30.870965 72.770413 
" style="fill:none;stroke:#000000;stroke-width:0.5;"/>
    <path clip-path="url(#pe5524818f0)" d="M 36.281053 72.047737 
L 36.281053 62.689509 
" style="fill:none;stroke:#000000;stroke-width:0.5;"/>
    <path clip-path="url(#pe5524818f0)" d="M 29.35352 82.34988 
L 29.35352 75.958435 
" style="fill:none;stroke:#000000;stroke-width:0.5;"/>
    <path clip-path="url(#pe5524818f0)" d="M 29.559471 78.460488 
L 29.559471 70.513537 
" style="fill:none;stroke:#000000;stroke-width:0.5;"/>
    <path clip-path="url(#pe5524818f0)" d="M 31.116643 60.939981 
L 31.116643 53.98983 
" style="fill:none;stroke:#000000;stroke-width:0.5;"/>
    <path clip-path="url(#pe5524818f0)" d="M 28.340125 87.512016 
L 28.340125 80.104326 
" style="fill:none;stroke:#000000;stroke-width:0.5;"/>
    <path clip-path="url(#pe5524818f0)" d="M 35.400803 69.203526 
L 35.400803 53.282295 
" style="fill:none;stroke:#000000;stroke-width:0.5;"/>
    <path clip-path="url(#pe5524818f0)" d="M 28.501753 82.197038 
L 28.501753 77.141419 
" style="fill:none;stroke:#000000;stroke-width:0.5;"/>
    <path clip-path="url(#pe5524818f0)" d="M 34.024268 79.145869 
L 34.024268 68.125668 
" style="fill:none;stroke:#000000;stroke-width:0.5;"/>
    <path clip-path="url(#pe5524818f0)" d="M 34.145101 64.456636 
L 34.145101 50.403597 
" style="fill:none;stroke:#000000;stroke-width:0.5;"/>
    <path clip-path="url(#pe5524818f0)" d="M 29.24172 74.50478 
L 29.24172 69.190565 
" style="fill:none;stroke:#000000;stroke-width:0.5;"/>
    <path clip-path="url(#pe5524818f0)" d="M 28.325757 90.705319 
L 28.325757 83.416556 
" style="fill:none;stroke:#000000;stroke-width:0.5;"/>
    <path clip-path="url(#pe5524818f0)" d="M 29.597473 91.619009 
L 29.597473 75.121213 
" style="fill:none;stroke:#000000;stroke-width:0.5;"/>
    <path clip-path="url(#pe5524818f0)" d="M 31.0538 87.236621 
L 31.0538 80.10696 
" style="fill:none;stroke:#000000;stroke-width:0.5;"/>
    <path clip-path="url(#pe5524818f0)" d="M 32.661954 68.196247 
L 32.661954 65.064681 
" style="fill:none;stroke:#000000;stroke-width:0.5;"/>
    <path clip-path="url(#pe5524818f0)" d="M 30.011517 82.434895 
L 30.011517 75.646083 
" style="fill:none;stroke:#000000;stroke-width:0.5;"/>
    <path clip-path="url(#pe5524818f0)" d="M 30.734862 88.191177 
L 30.734862 79.191373 
" style="fill:none;stroke:#000000;stroke-width:0.5;"/>
    <path clip-path="url(#pe5524818f0)" d="M 33.291414 78.413601 
L 33.291414 70.238176 
" style="fill:none;stroke:#000000;stroke-width:0.5;"/>
    <path clip-path="url(#pe5524818f0)" d="M 34.870978 77.223746 
L 34.870978 63.051305 
" style="fill:none;stroke:#000000;stroke-width:0.5;"/>
   </g>
   <g id="line2d_1">
    <path clip-path="url(#pe5524818f0)" d="M 27 86.84394 
L 27.768595 84.574941 
L 28.53719 82.305942 
L 29.305785 80.036943 
L 30.07438 77.767945 
L 30.842975 75.498946 
L 31.61157 73.229947 
L 32.380165 70.960948 
L 33.14876 68.691949 
L 33.917355 66.42295 
L 34.68595 64.153951 
L 35.454545 61.884952 
L 36.22314 59.615953 
L 36.991736 57.346954 
L 37.760331 55.077955 
L 38.528926 52.808957 
L 39.297521 50.539958 
L 40.066116 48.270959 
L 40.834711 46.00196 
L 41.603306 43.732961 
L 42.371901 41.463962 
L 43.140496 39.194963 
L 43.909091 36.925964 
L 44.677686 34.656965 
L 45.446281 32.387966 
L 46.214876 30.118967 
L 46.983471 27.849968 
L 47.752066 25.58097 
L 48.520661 23.311971 
L 49.289256 21.042972 
L 50.057851 18.773973 
L 50.826446 16.504974 
L 51.595041 14.235975 
L 52.363636 11.966976 
L 53.132231 9.697977 
L 53.900826 7.428978 
L 54.669421 5.159979 
L 55.438017 2.89098 
L 56.206612 0.621981 
L 56.756038 -1 
" style="fill:none;stroke:#000000;stroke-dasharray:1.85,0.8;stroke-dashoffset:0;stroke-width:0.5;"/>
   </g>
   <g id="line2d_2">
    <defs>
     <path d="M 0 3 
C 0.795609 3 1.55874 2.683901 2.12132 2.12132 
C 2.683901 1.55874 3 0.795609 3 0 
C 3 -0.795609 2.683901 -1.55874 2.12132 -2.12132 
C 1.55874 -2.683901 0.795609 -3 0 -3 
C -0.795609 -3 -1.55874 -2.683901 -2.12132 -2.12132 
C -2.683901 -1.55874 -3 -0.795609 -3 0 
C -3 0.795609 -2.683901 1.55874 -2.12132 2.12132 
C -1.55874 2.683901 -0.795609 3 0 3 
z
" id="me7a00a09c5" style="stroke:#000000;"/>
    </defs>
    <g clip-path="url(#pe5524818f0)">
     <use style="stroke:#000000;" x="29.688621" xlink:href="#me7a00a09c5" y="88.778984"/>
     <use style="stroke:#000000;" x="27" xlink:href="#me7a00a09c5" y="89.325692"/>
     <use style="stroke:#000000;" x="27.932829" xlink:href="#me7a00a09c5" y="88.791438"/>
     <use style="stroke:#000000;" x="30.249172" xlink:href="#me7a00a09c5" y="76.519481"/>
     <use style="stroke:#000000;" x="35.283145" xlink:href="#me7a00a09c5" y="57.460656"/>
     <use style="stroke:#000000;" x="33.57836" xlink:href="#me7a00a09c5" y="79.440857"/>
     <use style="stroke:#000000;" x="36.108033" xlink:href="#me7a00a09c5" y="24.881674"/>
     <use style="stroke:#000000;" x="27" xlink:href="#me7a00a09c5" y="83.377692"/>
     <use style="stroke:#000000;" x="30.585327" xlink:href="#me7a00a09c5" y="78.285888"/>
     <use style="stroke:#000000;" x="30.896729" xlink:href="#me7a00a09c5" y="63.245323"/>
     <use style="stroke:#000000;" x="39.619971" xlink:href="#me7a00a09c5" y="63.305394"/>
     <use style="stroke:#000000;" x="30.870965" xlink:href="#me7a00a09c5" y="78.368883"/>
     <use style="stroke:#000000;" x="36.281053" xlink:href="#me7a00a09c5" y="67.368623"/>
     <use style="stroke:#000000;" x="29.35352" xlink:href="#me7a00a09c5" y="79.154158"/>
     <use style="stroke:#000000;" x="29.559471" xlink:href="#me7a00a09c5" y="74.487012"/>
     <use style="stroke:#000000;" x="31.116643" xlink:href="#me7a00a09c5" y="57.464905"/>
     <use style="stroke:#000000;" x="28.340125" xlink:href="#me7a00a09c5" y="83.808171"/>
     <use style="stroke:#000000;" x="35.400803" xlink:href="#me7a00a09c5" y="61.242911"/>
     <use style="stroke:#000000;" x="28.501753" xlink:href="#me7a00a09c5" y="79.669228"/>
     <use style="stroke:#000000;" x="34.024268" xlink:href="#me7a00a09c5" y="73.635768"/>
     <use style="stroke:#000000;" x="34.145101" xlink:href="#me7a00a09c5" y="57.430116"/>
     <use style="stroke:#000000;" x="29.24172" xlink:href="#me7a00a09c5" y="71.847673"/>
     <use style="stroke:#000000;" x="28.325757" xlink:href="#me7a00a09c5" y="87.060937"/>
     <use style="stroke:#000000;" x="29.597473" xlink:href="#me7a00a09c5" y="83.370111"/>
     <use style="stroke:#000000;" x="31.0538" xlink:href="#me7a00a09c5" y="83.671791"/>
     <use style="stroke:#000000;" x="32.661954" xlink:href="#me7a00a09c5" y="66.630464"/>
     <use style="stroke:#000000;" x="30.011517" xlink:href="#me7a00a09c5" y="79.040489"/>
     <use style="stroke:#000000;" x="30.734862" xlink:href="#me7a00a09c5" y="83.691275"/>
     <use style="stroke:#000000;" x="33.291414" xlink:href="#me7a00a09c5" y="74.325889"/>
     <use style="stroke:#000000;" x="34.870978" xlink:href="#me7a00a09c5" y="70.137525"/>
    </g>
   </g>
   <g id="patch_3">
    <path d="M 27 94.5 
L 27 12.96 
" style="fill:none;stroke:#000000;stroke-linecap:square;stroke-linejoin:miter;"/>
   </g>
   <g id="patch_4">
    <path d="M 27 94.5 
L 103.090909 94.5 
" style="fill:none;stroke:#000000;stroke-linecap:square;stroke-linejoin:miter;"/>
   </g>
   <g id="matplotlib.axis_1">
    <g id="xtick_1">
     <g id="line2d_3"/>
     <g id="text_1">
      <text style="font-family:Arial;font-size:8px;font-style:normal;font-weight:normal;text-anchor:middle;" transform="rotate(-0, 27, 103.72625)" x="27" y="103.72625">0</text>
     </g>
    </g>
    <g id="xtick_2">
     <g id="line2d_4"/>
     <g id="text_2">
      <text style="font-family:Arial;font-size:8px;font-style:normal;font-weight:normal;text-anchor:middle;" transform="rotate(-0, 62.21919, 103.72625)" x="62.21919" y="103.72625">5</text>
     </g>
    </g>
    <g id="xtick_3">
     <g id="line2d_5"/>
     <g id="text_3">
      <text style="font-family:Arial;font-size:8px;font-style:normal;font-weight:normal;text-anchor:middle;" transform="rotate(-0, 97.438379, 103.72625)" x="97.438379" y="103.72625">10</text>
     </g>
    </g>
    <g id="text_4">
     <text style="font-family:Arial;font-size:10px;font-style:normal;font-weight:normal;text-anchor:middle;" transform="rotate(-0, 65.045455, 116.474063)" x="65.045455" y="116.474063">Exc</text>
    </g>
   </g>
   <g id="matplotlib.axis_2">
    <g id="ytick_1">
     <g id="line2d_6"/>
     <g id="text_5">
      <text style="font-family:Arial;font-size:8px;font-style:normal;font-weight:normal;text-anchor:end;" transform="rotate(-0, 23.5, 97.363125)" x="23.5" y="97.363125">0.0</text>
     </g>
    </g>
    <g id="ytick_2">
     <g id="line2d_7"/>
     <g id="text_6">
      <text style="font-family:Arial;font-size:8px;font-style:normal;font-weight:normal;text-anchor:end;" transform="rotate(-0, 23.5, 78.492456)" x="23.5" y="78.492456">2.5</text>
     </g>
    </g>
    <g id="ytick_3">
     <g id="line2d_8"/>
     <g id="text_7">
      <text style="font-family:Arial;font-size:8px;font-style:normal;font-weight:normal;text-anchor:end;" transform="rotate(-0, 23.5, 59.621787)" x="23.5" y="59.621787">5.0</text>
     </g>
    </g>
    <g id="ytick_4">
     <g id="line2d_9"/>
     <g id="text_8">
      <text style="font-family:Arial;font-size:8px;font-style:normal;font-weight:normal;text-anchor:end;" transform="rotate(-0, 23.5, 40.751118)" x="23.5" y="40.751118">7.5</text>
     </g>
    </g>
    <g id="ytick_5">
     <g id="line2d_10"/>
     <g id="text_9">
      <text style="font-family:Arial;font-size:8px;font-style:normal;font-weight:normal;text-anchor:end;" transform="rotate(-0, 23.5, 21.880449)" x="23.5" y="21.880449">10.0</text>
     </g>
    </g>
    <g id="text_10">
     <text style="font-family:Arial;font-size:10px;font-style:normal;font-weight:normal;text-anchor:middle;" transform="rotate(-90, 1.94375, 53.73)" x="1.94375" y="53.73">Inh</text>
    </g>
   </g>
   <g id="legend_1">
    <g id="line2d_11">
     <path d="M 36 75.622656 
L 56 75.622656 
" style="fill:none;stroke:#000000;stroke-dasharray:1.85,0.8;stroke-dashoffset:0;stroke-width:0.5;"/>
    </g>
    <g id="line2d_12"/>
    <g id="text_11">
     <!-- $R^2$ 0.47 -->
     <g transform="translate(64 72.875)">
      <text>
       <tspan style="font-family:DejaVu Sans;font-size:10px;font-style:oblique;font-weight:oblique;" x="0" y="-0.9765625">R</tspan>
       <tspan style="font-family:DejaVu Sans;font-size:7px;font-style:book;font-weight:book;" x="7.650794" y="-4.8046875">2</tspan>
       <tspan style="font-family:Arial;font-size:10px;font-style:regular;font-weight:regular;" x="12.377845 15.156165 20.717689 23.496009 29.057533" y="-0.9765625"> 0.47</tspan>
      </text>
     </g>
     <text style="font-family:Arial;font-size:10px;font-style:normal;font-weight:normal;" transform="translate(64 83.4875)"> slope 2.75</text>
    </g>
   </g>
  </g>
  <g id="axes_2">
   <g id="patch_5">
    <path d="M 118.309091 94.5 
L 194.4 94.5 
L 194.4 12.96 
L 118.309091 12.96 
z
" style="fill:#ffffff;"/>
   </g>
   <g id="PathCollection_1">
    <defs>
     <path d="M 0 2.44949 
C 0.649612 2.44949 1.272706 2.191396 1.732051 1.732051 
C 2.191396 1.272706 2.44949 0.649612 2.44949 0 
C 2.44949 -0.649612 2.191396 -1.272706 1.732051 -1.732051 
C 1.272706 -2.191396 0.649612 -2.44949 0 -2.44949 
C -0.649612 -2.44949 -1.272706 -2.191396 -1.732051 -1.732051 
C -2.191396 -1.272706 -2.44949 -0.649612 -2.44949 0 
C -2.44949 0.649612 -2.191396 1.272706 -1.732051 1.732051 
C -1.272706 2.191396 -0.649612 2.44949 0 2.44949 
z
" id="m2f24d5680e" style="stroke:#000000;"/>
    </defs>
    <g clip-path="url(#p352111745c)">
     <use style="stroke:#000000;" x="149.773587" xlink:href="#m2f24d5680e" y="61.023939"/>
     <use style="stroke:#000000;" x="118.309091" xlink:href="#m2f24d5680e" y="94.5"/>
     <use style="stroke:#000000;" x="135.569985" xlink:href="#m2f24d5680e" y="94.5"/>
     <use style="stroke:#000000;" x="156.33362" xlink:href="#m2f24d5680e" y="66.764993"/>
     <use style="stroke:#000000;" x="138.590491" xlink:href="#m2f24d5680e" y="51.078751"/>
     <use style="stroke:#000000;" x="145.553606" xlink:href="#m2f24d5680e" y="66.148499"/>
     <use style="stroke:#000000;" x="158.268935" xlink:href="#m2f24d5680e" y="33.309706"/>
     <use style="stroke:#000000;" x="118.309091" xlink:href="#m2f24d5680e" y="48.825692"/>
     <use style="stroke:#000000;" x="148.795435" xlink:href="#m2f24d5680e" y="36.578668"/>
     <use style="stroke:#000000;" x="154.531898" xlink:href="#m2f24d5680e" y="54.82826"/>
     <use style="stroke:#000000;" x="177.868159" xlink:href="#m2f24d5680e" y="17.515791"/>
     <use style="stroke:#000000;" x="163.894375" xlink:href="#m2f24d5680e" y="52.208327"/>
     <use style="stroke:#000000;" x="157.489977" xlink:href="#m2f24d5680e" y="59.153278"/>
     <use style="stroke:#000000;" x="145.851955" xlink:href="#m2f24d5680e" y="70.359038"/>
     <use style="stroke:#000000;" x="144.869592" xlink:href="#m2f24d5680e" y="64.483774"/>
     <use style="stroke:#000000;" x="164.798604" xlink:href="#m2f24d5680e" y="68.248762"/>
     <use style="stroke:#000000;" x="143.106504" xlink:href="#m2f24d5680e" y="66.520604"/>
     <use style="stroke:#000000;" x="162.510863" xlink:href="#m2f24d5680e" y="34.364327"/>
     <use style="stroke:#000000;" x="131.242435" xlink:href="#m2f24d5680e" y="75.404549"/>
     <use style="stroke:#000000;" x="157.218117" xlink:href="#m2f24d5680e" y="52.875878"/>
     <use style="stroke:#000000;" x="185.557381" xlink:href="#m2f24d5680e" y="41.420627"/>
     <use style="stroke:#000000;" x="132.203107" xlink:href="#m2f24d5680e" y="74.427814"/>
     <use style="stroke:#000000;" x="142.840647" xlink:href="#m2f24d5680e" y="66.969799"/>
     <use style="stroke:#000000;" x="162.088336" xlink:href="#m2f24d5680e" y="32.1866"/>
     <use style="stroke:#000000;" x="142.058674" xlink:href="#m2f24d5680e" y="67.570743"/>
     <use style="stroke:#000000;" x="153.895323" xlink:href="#m2f24d5680e" y="82.67184"/>
     <use style="stroke:#000000;" x="150.331294" xlink:href="#m2f24d5680e" y="68.85815"/>
     <use style="stroke:#000000;" x="148.878218" xlink:href="#m2f24d5680e" y="60.507072"/>
     <use style="stroke:#000000;" x="159.251221" xlink:href="#m2f24d5680e" y="63.620814"/>
     <use style="stroke:#000000;" x="189.559272" xlink:href="#m2f24d5680e" y="40.969636"/>
    </g>
   </g>
   <g id="line2d_13">
    <path clip-path="url(#p352111745c)" d="M 118.309091 80.940292 
L 119.077686 80.427796 
L 119.846281 79.9153 
L 120.614876 79.402804 
L 121.383471 78.890307 
L 122.152066 78.377811 
L 122.920661 77.865315 
L 123.689256 77.352819 
L 124.457851 76.840323 
L 125.226446 76.327827 
L 125.995041 75.815331 
L 126.763636 75.302835 
L 127.532231 74.790338 
L 128.300826 74.277842 
L 129.069421 73.765346 
L 129.838017 73.25285 
L 130.606612 72.740354 
L 131.375207 72.227858 
L 132.143802 71.715362 
L 132.912397 71.202865 
L 133.680992 70.690369 
L 134.449587 70.177873 
L 135.218182 69.665377 
L 135.986777 69.152881 
L 136.755372 68.640385 
L 137.523967 68.127889 
L 138.292562 67.615393 
L 139.061157 67.102896 
L 139.829752 66.5904 
L 140.598347 66.077904 
L 141.366942 65.565408 
L 142.135537 65.052912 
L 142.904132 64.540416 
L 143.672727 64.02792 
L 144.441322 63.515424 
L 145.209917 63.002927 
L 145.978512 62.490431 
L 146.747107 61.977935 
L 147.515702 61.465439 
L 148.284298 60.952943 
L 149.052893 60.440447 
L 149.821488 59.927951 
L 150.590083 59.415454 
L 151.358678 58.902958 
L 152.127273 58.390462 
L 152.895868 57.877966 
L 153.664463 57.36547 
L 154.433058 56.852974 
L 155.201653 56.340478 
L 155.970248 55.827982 
L 156.738843 55.315485 
L 157.507438 54.802989 
L 158.276033 54.290493 
L 159.044628 53.777997 
L 159.813223 53.265501 
L 160.581818 52.753005 
L 161.350413 52.240509 
L 162.119008 51.728013 
L 162.887603 51.215516 
L 163.656198 50.70302 
L 164.424793 50.190524 
L 165.193388 49.678028 
L 165.961983 49.165532 
L 166.730579 48.653036 
L 167.499174 48.14054 
L 168.267769 47.628044 
L 169.036364 47.115547 
L 169.804959 46.603051 
L 170.573554 46.090555 
L 171.342149 45.578059 
L 172.110744 45.065563 
L 172.879339 44.553067 
L 173.647934 44.040571 
L 174.416529 43.528074 
L 175.185124 43.015578 
L 175.953719 42.503082 
L 176.722314 41.990586 
L 177.490909 41.47809 
L 178.259504 40.965594 
L 179.028099 40.453098 
L 179.796694 39.940602 
L 180.565289 39.428105 
L 181.333884 38.915609 
L 182.102479 38.403113 
L 182.871074 37.890617 
L 183.639669 37.378121 
L 184.408264 36.865625 
L 185.17686 36.353129 
L 185.945455 35.840633 
L 186.71405 35.328136 
L 187.482645 34.81564 
L 188.25124 34.303144 
L 189.019835 33.790648 
L 189.78843 33.278152 
L 190.557025 32.765656 
L 191.32562 32.25316 
L 192.094215 31.740664 
L 192.86281 31.228167 
L 193.631405 30.715671 
L 194.4 30.203175 
" style="fill:none;stroke:#000000;stroke-dasharray:1.85,0.8;stroke-dashoffset:0;stroke-width:0.5;"/>
   </g>
   <g id="patch_6">
    <path d="M 118.309091 94.5 
L 118.309091 12.96 
" style="fill:none;stroke:#000000;stroke-linecap:square;stroke-linejoin:miter;"/>
   </g>
   <g id="patch_7">
    <path d="M 118.309091 94.5 
L 194.4 94.5 
" style="fill:none;stroke:#000000;stroke-linecap:square;stroke-linejoin:miter;"/>
   </g>
   <g id="matplotlib.axis_3">
    <g id="xtick_4">
     <g id="line2d_14"/>
     <g id="text_12">
      <text style="font-family:Arial;font-size:8px;font-style:normal;font-weight:normal;text-anchor:middle;" transform="rotate(-0, 118.309091, 103.72625)" x="118.309091" y="103.72625">0.0</text>
     </g>
    </g>
    <g id="xtick_5">
     <g id="line2d_15"/>
     <g id="text_13">
      <text style="font-family:Arial;font-size:8px;font-style:normal;font-weight:normal;text-anchor:middle;" transform="rotate(-0, 144.914191, 103.72625)" x="144.914191" y="103.72625">0.5</text>
     </g>
    </g>
    <g id="xtick_6">
     <g id="line2d_16"/>
     <g id="text_14">
      <text style="font-family:Arial;font-size:8px;font-style:normal;font-weight:normal;text-anchor:middle;" transform="rotate(-0, 171.519291, 103.72625)" x="171.519291" y="103.72625">1.0</text>
     </g>
    </g>
    <g id="text_15">
     <!-- $\sigma$(Exc) -->
     <g transform="translate(141.504545 116.61625)">
      <text>
       <tspan style="font-family:DejaVu Sans;font-size:10px;font-style:oblique;font-weight:oblique;" x="0" y="-0.71875">σ</tspan>
       <tspan style="font-family:Arial;font-size:10px;font-style:regular;font-weight:regular;" x="6.337891 9.667969 16.337891 21.337891 26.337891" y="-0.71875">(Exc)</tspan>
      </text>
     </g>
    </g>
   </g>
   <g id="matplotlib.axis_4">
    <g id="ytick_6">
     <g id="line2d_17"/>
     <g id="text_16">
      <text style="font-family:Arial;font-size:8px;font-style:normal;font-weight:normal;text-anchor:end;" transform="rotate(-0, 114.809091, 97.363125)" x="114.809091" y="97.363125">0.0</text>
     </g>
    </g>
    <g id="ytick_7">
     <g id="line2d_18"/>
     <g id="text_17">
      <text style="font-family:Arial;font-size:8px;font-style:normal;font-weight:normal;text-anchor:end;" transform="rotate(-0, 114.809091, 68.852757)" x="114.809091" y="68.852757">0.5</text>
     </g>
    </g>
    <g id="ytick_8">
     <g id="line2d_19"/>
     <g id="text_18">
      <text style="font-family:Arial;font-size:8px;font-style:normal;font-weight:normal;text-anchor:end;" transform="rotate(-0, 114.809091, 40.342388)" x="114.809091" y="40.342388">1.0</text>
     </g>
    </g>
    <g id="text_19">
     <!-- $\sigma$(Inh) -->
     <g transform="translate(97.489091 67.18)rotate(-90)">
      <text>
       <tspan style="font-family:DejaVu Sans;font-size:10px;font-style:oblique;font-weight:oblique;" x="0" y="-0.71875">σ</tspan>
       <tspan style="font-family:Arial;font-size:10px;font-style:regular;font-weight:regular;" x="6.337891 9.667969 12.446289 18.007812 23.569336" y="-0.71875">(Inh)</tspan>
      </text>
     </g>
    </g>
   </g>
   <g id="legend_2">
    <g id="line2d_20">
     <path d="M 108.478125 31.995156 
L 128.478125 31.995156 
" style="fill:none;stroke:#000000;stroke-dasharray:1.85,0.8;stroke-dashoffset:0;stroke-width:0.5;"/>
    </g>
    <g id="line2d_21"/>
    <g id="text_20">
     <!-- $R^2$ 0.37 -->
     <g transform="translate(136.478125 29.2475)">
      <text>
       <tspan style="font-family:DejaVu Sans;font-size:10px;font-style:oblique;font-weight:oblique;" x="0" y="-0.9765625">R</tspan>
       <tspan style="font-family:DejaVu Sans;font-size:7px;font-style:book;font-weight:book;" x="7.650794" y="-4.8046875">2</tspan>
       <tspan style="font-family:Arial;font-size:10px;font-style:regular;font-weight:regular;" x="12.377845 15.156165 20.717689 23.496009 29.057533" y="-0.9765625"> 0.37</tspan>
      </text>
     </g>
     <text style="font-family:Arial;font-size:10px;font-style:normal;font-weight:normal;" transform="translate(136.478125 39.86)"> slope 0.62</text>
    </g>
   </g>
  </g>
 </g>
 <defs>
  <clipPath id="pe5524818f0">
   <rect height="81.54" width="76.090909" x="27" y="12.96"/>
  </clipPath>
  <clipPath id="p352111745c">
   <rect height="81.54" width="76.090909" x="118.309091" y="12.96"/>
  </clipPath>
 </defs>
</svg>
