<?xml version="1.0" encoding="utf-8" standalone="no"?>
<!DOCTYPE svg PUBLIC "-//W3C//DTD SVG 1.1//EN"
  "http://www.w3.org/Graphics/SVG/1.1/DTD/svg11.dtd">
<!-- Created with matplotlib (http://matplotlib.org/) -->
<svg height="108pt" version="1.1" viewBox="0 0 216 108" width="216pt" xmlns="http://www.w3.org/2000/svg" xmlns:xlink="http://www.w3.org/1999/xlink">
 <defs>
  <style type="text/css">
*{stroke-linecap:butt;stroke-linejoin:round;}
  </style>
 </defs>
 <g id="figure_1">
  <g id="patch_1">
   <path d="M 0 108 
L 216 108 
L 216 0 
L 0 0 
z
" style="fill:#ffffff;"/>
  </g>
  <g id="axes_1">
   <g id="patch_2">
    <path d="M 27 94.5 
L 103.090909 94.5 
L 103.090909 12.96 
L 27 12.96 
z
" style="fill:#ffffff;"/>
   </g>
   <g id="LineCollection_1">
    <path clip-path="url(#p1969becda4)" d="M 29.007177 48.225196 
L 38.259647 48.225196 
" style="fill:none;stroke:#000000;stroke-width:0.5;"/>
    <path clip-path="url(#p1969becda4)" d="M 26.063224 83.1534 
L 30.407148 83.1534 
" style="fill:none;stroke:#000000;stroke-width:0.5;"/>
    <path clip-path="url(#p1969becda4)" d="M 34.476851 69.826628 
L 46.424407 69.826628 
" style="fill:none;stroke:#000000;stroke-width:0.5;"/>
    <path clip-path="url(#p1969becda4)" d="M 25.350298 77.705908 
L 33.518363 77.705908 
" style="fill:none;stroke:#000000;stroke-width:0.5;"/>
    <path clip-path="url(#p1969becda4)" d="M 29.721015 30.112606 
L 53.689436 30.112606 
" style="fill:none;stroke:#000000;stroke-width:0.5;"/>
    <path clip-path="url(#p1969becda4)" d="M 24.497127 85.732644 
L 32.956326 85.732644 
" style="fill:none;stroke:#000000;stroke-width:0.5;"/>
    <path clip-path="url(#p1969becda4)" d="M 25.757471 86.909179 
L 31.770438 86.909179 
" style="fill:none;stroke:#000000;stroke-width:0.5;"/>
    <path clip-path="url(#p1969becda4)" d="M 29.932632 59.519157 
L 34.96657 59.519157 
" style="fill:none;stroke:#000000;stroke-width:0.5;"/>
    <path clip-path="url(#p1969becda4)" d="M 22.028252 19.993437 
L 58.227198 19.993437 
" style="fill:none;stroke:#000000;stroke-width:0.5;"/>
    <path clip-path="url(#p1969becda4)" d="M 32.872077 58.786024 
L 44.516356 58.786024 
" style="fill:none;stroke:#000000;stroke-width:0.5;"/>
    <path clip-path="url(#p1969becda4)" d="M 28.793538 65.720203 
L 42.191071 65.720203 
" style="fill:none;stroke:#000000;stroke-width:0.5;"/>
    <path clip-path="url(#p1969becda4)" d="M 35.494333 69.075021 
L 40.640188 69.075021 
" style="fill:none;stroke:#000000;stroke-width:0.5;"/>
    <path clip-path="url(#p1969becda4)" d="M 26.357331 90.719669 
L 30.687883 90.719669 
" style="fill:none;stroke:#000000;stroke-width:0.5;"/>
    <path clip-path="url(#p1969becda4)" d="M 25.430648 73.264798 
L 30.734737 73.264798 
" style="fill:none;stroke:#000000;stroke-width:0.5;"/>
    <path clip-path="url(#p1969becda4)" d="M 23.672022 86.140712 
L 36.585897 86.140712 
" style="fill:none;stroke:#000000;stroke-width:0.5;"/>
    <path clip-path="url(#p1969becda4)" d="M 26.652706 52.664981 
L 34.59595 52.664981 
" style="fill:none;stroke:#000000;stroke-width:0.5;"/>
    <path clip-path="url(#p1969becda4)" d="M 29.868927 73.468809 
L 40.486551 73.468809 
" style="fill:none;stroke:#000000;stroke-width:0.5;"/>
    <path clip-path="url(#p1969becda4)" d="M 26.897439 74.05869 
L 38.600092 74.05869 
" style="fill:none;stroke:#000000;stroke-width:0.5;"/>
    <path clip-path="url(#p1969becda4)" d="M 27.145829 58.97447 
L 42.812433 58.97447 
" style="fill:none;stroke:#000000;stroke-width:0.5;"/>
    <path clip-path="url(#p1969becda4)" d="M 30.820978 67.331921 
L 41.375931 67.331921 
" style="fill:none;stroke:#000000;stroke-width:0.5;"/>
    <path clip-path="url(#p1969becda4)" d="M 27.833225 76.067852 
L 48.038329 76.067852 
" style="fill:none;stroke:#000000;stroke-width:0.5;"/>
    <path clip-path="url(#p1969becda4)" d="M 29.775774 77.914881 
L 40.002419 77.914881 
" style="fill:none;stroke:#000000;stroke-width:0.5;"/>
    <path clip-path="url(#p1969becda4)" d="M 28.174258 50.045957 
L 43.478578 50.045957 
" style="fill:none;stroke:#000000;stroke-width:0.5;"/>
    <path clip-path="url(#p1969becda4)" d="M 25.388921 86.805282 
L 32.511184 86.805282 
" style="fill:none;stroke:#000000;stroke-width:0.5;"/>
    <path clip-path="url(#p1969becda4)" d="M 25.250938 77.344416 
L 32.989966 77.344416 
" style="fill:none;stroke:#000000;stroke-width:0.5;"/>
    <path clip-path="url(#p1969becda4)" d="M 31.566259 40.84599 
L 59.827264 40.84599 
" style="fill:none;stroke:#000000;stroke-width:0.5;"/>
    <path clip-path="url(#p1969becda4)" d="M 26.327464 68.66654 
L 40.866245 68.66654 
" style="fill:none;stroke:#000000;stroke-width:0.5;"/>
    <path clip-path="url(#p1969becda4)" d="M 28.258977 67.585093 
L 36.8122 67.585093 
" style="fill:none;stroke:#000000;stroke-width:0.5;"/>
    <path clip-path="url(#p1969becda4)" d="M 26.491891 39.812566 
L 51.008574 39.812566 
" style="fill:none;stroke:#000000;stroke-width:0.5;"/>
    <path clip-path="url(#p1969becda4)" d="M 29.732863 50.084995 
L 49.961211 50.084995 
" style="fill:none;stroke:#000000;stroke-width:0.5;"/>
   </g>
   <g id="LineCollection_2">
    <path clip-path="url(#p1969becda4)" d="M 33.633412 57.872039 
L 33.633412 38.578353 
" style="fill:none;stroke:#000000;stroke-width:0.5;"/>
    <path clip-path="url(#p1969becda4)" d="M 28.235186 84.591463 
L 28.235186 81.715337 
" style="fill:none;stroke:#000000;stroke-width:0.5;"/>
    <path clip-path="url(#p1969becda4)" d="M 40.450629 77.593074 
L 40.450629 62.060182 
" style="fill:none;stroke:#000000;stroke-width:0.5;"/>
    <path clip-path="url(#p1969becda4)" d="M 29.43433 82.900641 
L 29.43433 72.511175 
" style="fill:none;stroke:#000000;stroke-width:0.5;"/>
    <path clip-path="url(#p1969becda4)" d="M 41.705225 38.084252 
L 41.705225 22.14096 
" style="fill:none;stroke:#000000;stroke-width:0.5;"/>
    <path clip-path="url(#p1969becda4)" d="M 28.726727 90.027754 
L 28.726727 81.437535 
" style="fill:none;stroke:#000000;stroke-width:0.5;"/>
    <path clip-path="url(#p1969becda4)" d="M 28.763955 88.629455 
L 28.763955 85.188902 
" style="fill:none;stroke:#000000;stroke-width:0.5;"/>
    <path clip-path="url(#p1969becda4)" d="M 32.449601 69.226577 
L 32.449601 49.811737 
" style="fill:none;stroke:#000000;stroke-width:0.5;"/>
    <path clip-path="url(#p1969becda4)" d="M 40.127725 23.216556 
L 40.127725 16.770319 
" style="fill:none;stroke:#000000;stroke-width:0.5;"/>
    <path clip-path="url(#p1969becda4)" d="M 38.694216 66.820681 
L 38.694216 50.751368 
" style="fill:none;stroke:#000000;stroke-width:0.5;"/>
    <path clip-path="url(#p1969becda4)" d="M 35.492305 72.935199 
L 35.492305 58.505206 
" style="fill:none;stroke:#000000;stroke-width:0.5;"/>
    <path clip-path="url(#p1969becda4)" d="M 38.067261 80.268432 
L 38.067261 57.88161 
" style="fill:none;stroke:#000000;stroke-width:0.5;"/>
    <path clip-path="url(#p1969becda4)" d="M 28.522607 92.976698 
L 28.522607 88.462639 
" style="fill:none;stroke:#000000;stroke-width:0.5;"/>
    <path clip-path="url(#p1969becda4)" d="M 28.082693 80.084286 
L 28.082693 66.445309 
" style="fill:none;stroke:#000000;stroke-width:0.5;"/>
    <path clip-path="url(#p1969becda4)" d="M 30.128959 91.724161 
L 30.128959 80.557263 
" style="fill:none;stroke:#000000;stroke-width:0.5;"/>
    <path clip-path="url(#p1969becda4)" d="M 30.624328 60.78188 
L 30.624328 44.548081 
" style="fill:none;stroke:#000000;stroke-width:0.5;"/>
    <path clip-path="url(#p1969becda4)" d="M 35.177739 80.299868 
L 35.177739 66.63775 
" style="fill:none;stroke:#000000;stroke-width:0.5;"/>
    <path clip-path="url(#p1969becda4)" d="M 32.748766 82.207004 
L 32.748766 65.910375 
" style="fill:none;stroke:#000000;stroke-width:0.5;"/>
    <path clip-path="url(#p1969becda4)" d="M 34.979131 71.591943 
L 34.979131 46.356998 
" style="fill:none;stroke:#000000;stroke-width:0.5;"/>
    <path clip-path="url(#p1969becda4)" d="M 36.098455 75.377441 
L 36.098455 59.286402 
" style="fill:none;stroke:#000000;stroke-width:0.5;"/>
    <path clip-path="url(#p1969becda4)" d="M 37.935777 83.993123 
L 37.935777 68.142581 
" style="fill:none;stroke:#000000;stroke-width:0.5;"/>
    <path clip-path="url(#p1969becda4)" d="M 34.889096 81.268616 
L 34.889096 74.561146 
" style="fill:none;stroke:#000000;stroke-width:0.5;"/>
    <path clip-path="url(#p1969becda4)" d="M 35.826418 52.570369 
L 35.826418 47.521545 
" style="fill:none;stroke:#000000;stroke-width:0.5;"/>
    <path clip-path="url(#p1969becda4)" d="M 28.950053 89.336061 
L 28.950053 84.274502 
" style="fill:none;stroke:#000000;stroke-width:0.5;"/>
    <path clip-path="url(#p1969becda4)" d="M 29.120452 81.208745 
L 29.120452 73.480088 
" style="fill:none;stroke:#000000;stroke-width:0.5;"/>
    <path clip-path="url(#p1969becda4)" d="M 45.696761 46.705971 
L 45.696761 34.986009 
" style="fill:none;stroke:#000000;stroke-width:0.5;"/>
    <path clip-path="url(#p1969becda4)" d="M 33.596854 74.857054 
L 33.596854 62.476026 
" style="fill:none;stroke:#000000;stroke-width:0.5;"/>
    <path clip-path="url(#p1969becda4)" d="M 32.535588 74.61651 
L 32.535588 60.553675 
" style="fill:none;stroke:#000000;stroke-width:0.5;"/>
    <path clip-path="url(#p1969becda4)" d="M 38.750233 54.720905 
L 38.750233 24.904227 
" style="fill:none;stroke:#000000;stroke-width:0.5;"/>
    <path clip-path="url(#p1969becda4)" d="M 39.847037 64.653875 
L 39.847037 35.516115 
" style="fill:none;stroke:#000000;stroke-width:0.5;"/>
   </g>
   <g id="line2d_1">
    <path clip-path="url(#p1969becda4)" d="M 27 85.391108 
L 27.768595 83.305074 
L 28.53719 81.219041 
L 29.305785 79.133007 
L 30.07438 77.046973 
L 30.842975 74.96094 
L 31.61157 72.874906 
L 32.380165 70.788872 
L 33.14876 68.702839 
L 33.917355 66.616805 
L 34.68595 64.530771 
L 35.454545 62.444738 
L 36.22314 60.358704 
L 36.991736 58.27267 
L 37.760331 56.186637 
L 38.528926 54.100603 
L 39.297521 52.014569 
L 40.066116 49.928536 
L 40.834711 47.842502 
L 41.603306 45.756468 
L 42.371901 43.670435 
L 43.140496 41.584401 
L 43.909091 39.498367 
L 44.677686 37.412334 
L 45.446281 35.3263 
L 46.214876 33.240266 
L 46.983471 31.154233 
L 47.752066 29.068199 
L 48.520661 26.982165 
L 49.289256 24.896132 
L 50.057851 22.810098 
L 50.826446 20.724064 
L 51.595041 18.638031 
L 52.363636 16.551997 
L 53.132231 14.465963 
L 53.900826 12.37993 
L 54.669421 10.293896 
L 55.438017 8.207862 
L 56.206612 6.121829 
L 56.975207 4.035795 
L 57.743802 1.949761 
L 58.512397 -0.136273 
L 58.830635 -1 
" style="fill:none;stroke:#000000;stroke-dasharray:1.85,0.8;stroke-dashoffset:0;stroke-width:0.5;"/>
   </g>
   <g id="line2d_2">
    <defs>
     <path d="M 0 3 
C 0.795609 3 1.55874 2.683901 2.12132 2.12132 
C 2.683901 1.55874 3 0.795609 3 0 
C 3 -0.795609 2.683901 -1.55874 2.12132 -2.12132 
C 1.55874 -2.683901 0.795609 -3 0 -3 
C -0.795609 -3 -1.55874 -2.683901 -2.12132 -2.12132 
C -2.683901 -1.55874 -3 -0.795609 -3 0 
C -3 0.795609 -2.683901 1.55874 -2.12132 2.12132 
C -1.55874 2.683901 -0.795609 3 0 3 
z
" id="m86d10163b6" style="stroke:#000000;"/>
    </defs>
    <g clip-path="url(#p1969becda4)">
     <use style="stroke:#000000;" x="33.633412" xlink:href="#m86d10163b6" y="48.225196"/>
     <use style="stroke:#000000;" x="28.235186" xlink:href="#m86d10163b6" y="83.1534"/>
     <use style="stroke:#000000;" x="40.450629" xlink:href="#m86d10163b6" y="69.826628"/>
     <use style="stroke:#000000;" x="29.43433" xlink:href="#m86d10163b6" y="77.705908"/>
     <use style="stroke:#000000;" x="41.705225" xlink:href="#m86d10163b6" y="30.112606"/>
     <use style="stroke:#000000;" x="28.726727" xlink:href="#m86d10163b6" y="85.732644"/>
     <use style="stroke:#000000;" x="28.763955" xlink:href="#m86d10163b6" y="86.909179"/>
     <use style="stroke:#000000;" x="32.449601" xlink:href="#m86d10163b6" y="59.519157"/>
     <use style="stroke:#000000;" x="40.127725" xlink:href="#m86d10163b6" y="19.993437"/>
     <use style="stroke:#000000;" x="38.694216" xlink:href="#m86d10163b6" y="58.786024"/>
     <use style="stroke:#000000;" x="35.492305" xlink:href="#m86d10163b6" y="65.720203"/>
     <use style="stroke:#000000;" x="38.067261" xlink:href="#m86d10163b6" y="69.075021"/>
     <use style="stroke:#000000;" x="28.522607" xlink:href="#m86d10163b6" y="90.719669"/>
     <use style="stroke:#000000;" x="28.082693" xlink:href="#m86d10163b6" y="73.264798"/>
     <use style="stroke:#000000;" x="30.128959" xlink:href="#m86d10163b6" y="86.140712"/>
     <use style="stroke:#000000;" x="30.624328" xlink:href="#m86d10163b6" y="52.664981"/>
     <use style="stroke:#000000;" x="35.177739" xlink:href="#m86d10163b6" y="73.468809"/>
     <use style="stroke:#000000;" x="32.748766" xlink:href="#m86d10163b6" y="74.05869"/>
     <use style="stroke:#000000;" x="34.979131" xlink:href="#m86d10163b6" y="58.97447"/>
     <use style="stroke:#000000;" x="36.098455" xlink:href="#m86d10163b6" y="67.331921"/>
     <use style="stroke:#000000;" x="37.935777" xlink:href="#m86d10163b6" y="76.067852"/>
     <use style="stroke:#000000;" x="34.889096" xlink:href="#m86d10163b6" y="77.914881"/>
     <use style="stroke:#000000;" x="35.826418" xlink:href="#m86d10163b6" y="50.045957"/>
     <use style="stroke:#000000;" x="28.950053" xlink:href="#m86d10163b6" y="86.805282"/>
     <use style="stroke:#000000;" x="29.120452" xlink:href="#m86d10163b6" y="77.344416"/>
     <use style="stroke:#000000;" x="45.696761" xlink:href="#m86d10163b6" y="40.84599"/>
     <use style="stroke:#000000;" x="33.596854" xlink:href="#m86d10163b6" y="68.66654"/>
     <use style="stroke:#000000;" x="32.535588" xlink:href="#m86d10163b6" y="67.585093"/>
     <use style="stroke:#000000;" x="38.750233" xlink:href="#m86d10163b6" y="39.812566"/>
     <use style="stroke:#000000;" x="39.847037" xlink:href="#m86d10163b6" y="50.084995"/>
    </g>
   </g>
   <g id="patch_3">
    <path d="M 27 94.5 
L 27 12.96 
" style="fill:none;stroke:#000000;stroke-linecap:square;stroke-linejoin:miter;"/>
   </g>
   <g id="patch_4">
    <path d="M 27 94.5 
L 103.090909 94.5 
" style="fill:none;stroke:#000000;stroke-linecap:square;stroke-linejoin:miter;"/>
   </g>
   <g id="matplotlib.axis_1">
    <g id="xtick_1">
     <g id="line2d_3"/>
     <g id="text_1">
      <text style="font-family:Arial;font-size:8px;font-style:normal;font-weight:normal;text-anchor:middle;" transform="rotate(-0, 27, 103.72625)" x="27" y="103.72625">0</text>
     </g>
    </g>
    <g id="xtick_2">
     <g id="line2d_4"/>
     <g id="text_2">
      <text style="font-family:Arial;font-size:8px;font-style:normal;font-weight:normal;text-anchor:middle;" transform="rotate(-0, 64.134269, 103.72625)" x="64.134269" y="103.72625">5</text>
     </g>
    </g>
    <g id="xtick_3">
     <g id="line2d_5"/>
     <g id="text_3">
      <text style="font-family:Arial;font-size:8px;font-style:normal;font-weight:normal;text-anchor:middle;" transform="rotate(-0, 101.268538, 103.72625)" x="101.268538" y="103.72625">10</text>
     </g>
    </g>
    <g id="text_4">
     <text style="font-family:Arial;font-size:10px;font-style:normal;font-weight:normal;text-anchor:middle;" transform="rotate(-0, 65.045455, 116.474063)" x="65.045455" y="116.474063">Exc</text>
    </g>
   </g>
   <g id="matplotlib.axis_2">
    <g id="ytick_1">
     <g id="line2d_6"/>
     <g id="text_5">
      <text style="font-family:Arial;font-size:8px;font-style:normal;font-weight:normal;text-anchor:end;" transform="rotate(-0, 23.5, 97.363125)" x="23.5" y="97.363125">0.0</text>
     </g>
    </g>
    <g id="ytick_2">
     <g id="line2d_7"/>
     <g id="text_6">
      <text style="font-family:Arial;font-size:8px;font-style:normal;font-weight:normal;text-anchor:end;" transform="rotate(-0, 23.5, 77.466344)" x="23.5" y="77.466344">2.5</text>
     </g>
    </g>
    <g id="ytick_3">
     <g id="line2d_8"/>
     <g id="text_7">
      <text style="font-family:Arial;font-size:8px;font-style:normal;font-weight:normal;text-anchor:end;" transform="rotate(-0, 23.5, 57.569563)" x="23.5" y="57.569563">5.0</text>
     </g>
    </g>
    <g id="ytick_4">
     <g id="line2d_9"/>
     <g id="text_8">
      <text style="font-family:Arial;font-size:8px;font-style:normal;font-weight:normal;text-anchor:end;" transform="rotate(-0, 23.5, 37.672782)" x="23.5" y="37.672782">7.5</text>
     </g>
    </g>
    <g id="ytick_5">
     <g id="line2d_10"/>
     <g id="text_9">
      <text style="font-family:Arial;font-size:8px;font-style:normal;font-weight:normal;text-anchor:end;" transform="rotate(-0, 23.5, 17.776001)" x="23.5" y="17.776001">10.0</text>
     </g>
    </g>
    <g id="text_10">
     <text style="font-family:Arial;font-size:10px;font-style:normal;font-weight:normal;text-anchor:middle;" transform="rotate(-90, 1.94375, 53.73)" x="1.94375" y="53.73">Inh</text>
    </g>
   </g>
   <g id="legend_1">
    <g id="line2d_11">
     <path d="M 36 75.622656 
L 56 75.622656 
" style="fill:none;stroke:#000000;stroke-dasharray:1.85,0.8;stroke-dashoffset:0;stroke-width:0.5;"/>
    </g>
    <g id="line2d_12"/>
    <g id="text_11">
     <!-- $R^2$ 0.53 -->
     <g transform="translate(64 72.875)">
      <text>
       <tspan style="font-family:DejaVu Sans;font-size:10px;font-style:oblique;font-weight:oblique;" x="0" y="-0.9765625">R</tspan>
       <tspan style="font-family:DejaVu Sans;font-size:7px;font-style:book;font-weight:book;" x="7.650794" y="-4.8046875">2</tspan>
       <tspan style="font-family:Arial;font-size:10px;font-style:regular;font-weight:regular;" x="12.377845 15.156165 20.717689 23.496009 29.057533" y="-0.9765625"> 0.53</tspan>
      </text>
     </g>
     <text style="font-family:Arial;font-size:10px;font-style:normal;font-weight:normal;" transform="translate(64 83.4875)"> slope 2.53</text>
    </g>
   </g>
  </g>
  <g id="axes_2">
   <g id="patch_5">
    <path d="M 118.309091 94.5 
L 194.4 94.5 
L 194.4 12.96 
L 118.309091 12.96 
z
" style="fill:#ffffff;"/>
   </g>
   <g id="PathCollection_1">
    <defs>
     <path d="M 0 2.44949 
C 0.649612 2.44949 1.272706 2.191396 1.732051 1.732051 
C 2.191396 1.272706 2.44949 0.649612 2.44949 0 
C 2.44949 -0.649612 2.191396 -1.272706 1.732051 -1.732051 
C 1.272706 -2.191396 0.649612 -2.44949 0 -2.44949 
C -0.649612 -2.44949 -1.272706 -2.191396 -1.732051 -1.732051 
C -2.191396 -1.272706 -2.44949 -0.649612 -2.44949 0 
C -2.44949 0.649612 -2.191396 1.272706 -1.732051 1.732051 
C -1.272706 2.191396 -0.649612 2.44949 0 2.44949 
z
" id="mba0147dbe1" style="stroke:#000000;"/>
    </defs>
    <g clip-path="url(#pf9badcfacc)">
     <use style="stroke:#000000;" x="136.809215" xlink:href="#mba0147dbe1" y="55.922668"/>
     <use style="stroke:#000000;" x="126.994678" xlink:href="#mba0147dbe1" y="88.749245"/>
     <use style="stroke:#000000;" x="142.197986" xlink:href="#mba0147dbe1" y="63.4423"/>
     <use style="stroke:#000000;" x="134.640972" xlink:href="#mba0147dbe1" y="73.726475"/>
     <use style="stroke:#000000;" x="166.233459" xlink:href="#mba0147dbe1" y="62.621712"/>
     <use style="stroke:#000000;" x="135.223087" xlink:href="#mba0147dbe1" y="77.324032"/>
     <use style="stroke:#000000;" x="130.331896" xlink:href="#mba0147dbe1" y="87.620684"/>
     <use style="stroke:#000000;" x="128.374349" xlink:href="#mba0147dbe1" y="55.680425"/>
     <use style="stroke:#000000;" x="190.688145" xlink:href="#mba0147dbe1" y="81.610881"/>
     <use style="stroke:#000000;" x="141.591591" xlink:href="#mba0147dbe1" y="62.369737"/>
     <use style="stroke:#000000;" x="145.097184" xlink:href="#mba0147dbe1" y="65.647522"/>
     <use style="stroke:#000000;" x="128.598124" xlink:href="#mba0147dbe1" y="49.738006"/>
     <use style="stroke:#000000;" x="126.967942" xlink:href="#mba0147dbe1" y="85.47423"/>
     <use style="stroke:#000000;" x="128.914509" xlink:href="#mba0147dbe1" y="67.229144"/>
     <use style="stroke:#000000;" x="144.130119" xlink:href="#mba0147dbe1" y="72.172016"/>
     <use style="stroke:#000000;" x="134.191445" xlink:href="#mba0147dbe1" y="62.04085"/>
     <use style="stroke:#000000;" x="139.538813" xlink:href="#mba0147dbe1" y="67.182873"/>
     <use style="stroke:#000000;" x="141.708308" xlink:href="#mba0147dbe1" y="61.915223"/>
     <use style="stroke:#000000;" x="149.634146" xlink:href="#mba0147dbe1" y="44.043242"/>
     <use style="stroke:#000000;" x="139.413506" xlink:href="#mba0147dbe1" y="62.326297"/>
     <use style="stroke:#000000;" x="158.708783" xlink:href="#mba0147dbe1" y="62.807163"/>
     <use style="stroke:#000000;" x="138.757059" xlink:href="#mba0147dbe1" y="81.088551"/>
     <use style="stroke:#000000;" x="148.909768" xlink:href="#mba0147dbe1" y="84.404979"/>
     <use style="stroke:#000000;" x="132.549911" xlink:href="#mba0147dbe1" y="84.379516"/>
     <use style="stroke:#000000;" x="133.783119" xlink:href="#mba0147dbe1" y="79.046707"/>
     <use style="stroke:#000000;" x="174.816394" xlink:href="#mba0147dbe1" y="71.066175"/>
     <use style="stroke:#000000;" x="147.379088" xlink:href="#mba0147dbe1" y="69.744386"/>
     <use style="stroke:#000000;" x="135.411086" xlink:href="#mba0147dbe1" y="66.381648"/>
     <use style="stroke:#000000;" x="167.329697" xlink:href="#mba0147dbe1" y="34.88216"/>
     <use style="stroke:#000000;" x="158.75526" xlink:href="#mba0147dbe1" y="36.239643"/>
    </g>
   </g>
   <g id="line2d_13">
    <path clip-path="url(#pf9badcfacc)" d="M 118.309091 72.69692 
L 119.077686 72.530687 
L 119.846281 72.364454 
L 120.614876 72.198222 
L 121.383471 72.031989 
L 122.152066 71.865757 
L 122.920661 71.699524 
L 123.689256 71.533291 
L 124.457851 71.367059 
L 125.226446 71.200826 
L 125.995041 71.034594 
L 126.763636 70.868361 
L 127.532231 70.702128 
L 128.300826 70.535896 
L 129.069421 70.369663 
L 129.838017 70.203431 
L 130.606612 70.037198 
L 131.375207 69.870966 
L 132.143802 69.704733 
L 132.912397 69.5385 
L 133.680992 69.372268 
L 134.449587 69.206035 
L 135.218182 69.039803 
L 135.986777 68.87357 
L 136.755372 68.707337 
L 137.523967 68.541105 
L 138.292562 68.374872 
L 139.061157 68.20864 
L 139.829752 68.042407 
L 140.598347 67.876174 
L 141.366942 67.709942 
L 142.135537 67.543709 
L 142.904132 67.377477 
L 143.672727 67.211244 
L 144.441322 67.045011 
L 145.209917 66.878779 
L 145.978512 66.712546 
L 146.747107 66.546314 
L 147.515702 66.380081 
L 148.284298 66.213848 
L 149.052893 66.047616 
L 149.821488 65.881383 
L 150.590083 65.715151 
L 151.358678 65.548918 
L 152.127273 65.382685 
L 152.895868 65.216453 
L 153.664463 65.05022 
L 154.433058 64.883988 
L 155.201653 64.717755 
L 155.970248 64.551522 
L 156.738843 64.38529 
L 157.507438 64.219057 
L 158.276033 64.052825 
L 159.044628 63.886592 
L 159.813223 63.720359 
L 160.581818 63.554127 
L 161.350413 63.387894 
L 162.119008 63.221662 
L 162.887603 63.055429 
L 163.656198 62.889196 
L 164.424793 62.722964 
L 165.193388 62.556731 
L 165.961983 62.390499 
L 166.730579 62.224266 
L 167.499174 62.058033 
L 168.267769 61.891801 
L 169.036364 61.725568 
L 169.804959 61.559336 
L 170.573554 61.393103 
L 171.342149 61.22687 
L 172.110744 61.060638 
L 172.879339 60.894405 
L 173.647934 60.728173 
L 174.416529 60.56194 
L 175.185124 60.395707 
L 175.953719 60.229475 
L 176.722314 60.063242 
L 177.490909 59.89701 
L 178.259504 59.730777 
L 179.028099 59.564544 
L 179.796694 59.398312 
L 180.565289 59.232079 
L 181.333884 59.065847 
L 182.102479 58.899614 
L 182.871074 58.733382 
L 183.639669 58.567149 
L 184.408264 58.400916 
L 185.17686 58.234684 
L 185.945455 58.068451 
L 186.71405 57.902219 
L 187.482645 57.735986 
L 188.25124 57.569753 
L 189.019835 57.403521 
L 189.78843 57.237288 
L 190.557025 57.071056 
L 191.32562 56.904823 
L 192.094215 56.73859 
L 192.86281 56.572358 
L 193.631405 56.406125 
L 194.4 56.239893 
" style="fill:none;stroke:#000000;stroke-dasharray:1.85,0.8;stroke-dashoffset:0;stroke-width:0.5;"/>
   </g>
   <g id="patch_6">
    <path d="M 118.309091 94.5 
L 118.309091 12.96 
" style="fill:none;stroke:#000000;stroke-linecap:square;stroke-linejoin:miter;"/>
   </g>
   <g id="patch_7">
    <path d="M 118.309091 94.5 
L 194.4 94.5 
" style="fill:none;stroke:#000000;stroke-linecap:square;stroke-linejoin:miter;"/>
   </g>
   <g id="matplotlib.axis_3">
    <g id="xtick_4">
     <g id="line2d_14"/>
     <g id="text_12">
      <text style="font-family:Arial;font-size:8px;font-style:normal;font-weight:normal;text-anchor:middle;" transform="rotate(-0, 118.309091, 103.72625)" x="118.309091" y="103.72625">0</text>
     </g>
    </g>
    <g id="xtick_5">
     <g id="line2d_15"/>
     <g id="text_13">
      <text style="font-family:Arial;font-size:8px;font-style:normal;font-weight:normal;text-anchor:middle;" transform="rotate(-0, 148.008776, 103.72625)" x="148.008776" y="103.72625">1</text>
     </g>
    </g>
    <g id="xtick_6">
     <g id="line2d_16"/>
     <g id="text_14">
      <text style="font-family:Arial;font-size:8px;font-style:normal;font-weight:normal;text-anchor:middle;" transform="rotate(-0, 177.708462, 103.72625)" x="177.708462" y="103.72625">2</text>
     </g>
    </g>
    <g id="text_15">
     <!-- $\sigma$(Exc) -->
     <g transform="translate(141.504545 116.61625)">
      <text>
       <tspan style="font-family:DejaVu Sans;font-size:10px;font-style:oblique;font-weight:oblique;" x="0" y="-0.71875">σ</tspan>
       <tspan style="font-family:Arial;font-size:10px;font-style:regular;font-weight:regular;" x="6.337891 9.667969 16.337891 21.337891 26.337891" y="-0.71875">(Exc)</tspan>
      </text>
     </g>
    </g>
   </g>
   <g id="matplotlib.axis_4">
    <g id="ytick_6">
     <g id="line2d_17"/>
     <g id="text_16">
      <text style="font-family:Arial;font-size:8px;font-style:normal;font-weight:normal;text-anchor:end;" transform="rotate(-0, 114.809091, 97.363125)" x="114.809091" y="97.363125">0</text>
     </g>
    </g>
    <g id="ytick_7">
     <g id="line2d_18"/>
     <g id="text_17">
      <text style="font-family:Arial;font-size:8px;font-style:normal;font-weight:normal;text-anchor:end;" transform="rotate(-0, 114.809091, 65.536559)" x="114.809091" y="65.536559">1</text>
     </g>
    </g>
    <g id="ytick_8">
     <g id="line2d_19"/>
     <g id="text_18">
      <text style="font-family:Arial;font-size:8px;font-style:normal;font-weight:normal;text-anchor:end;" transform="rotate(-0, 114.809091, 33.709992)" x="114.809091" y="33.709992">2</text>
     </g>
    </g>
    <g id="text_19">
     <!-- $\sigma$(Inh) -->
     <g transform="translate(104.160341 67.18)rotate(-90)">
      <text>
       <tspan style="font-family:DejaVu Sans;font-size:10px;font-style:oblique;font-weight:oblique;" x="0" y="-0.71875">σ</tspan>
       <tspan style="font-family:Arial;font-size:10px;font-style:regular;font-weight:regular;" x="6.337891 9.667969 12.446289 18.007812 23.569336" y="-0.71875">(Inh)</tspan>
      </text>
     </g>
    </g>
   </g>
   <g id="legend_2">
    <g id="line2d_20">
     <path d="M 108.478125 31.995156 
L 128.478125 31.995156 
" style="fill:none;stroke:#000000;stroke-dasharray:1.85,0.8;stroke-dashoffset:0;stroke-width:0.5;"/>
    </g>
    <g id="line2d_21"/>
    <g id="text_20">
     <!-- $R^2$ 0.06 -->
     <g transform="translate(136.478125 29.2475)">
      <text>
       <tspan style="font-family:DejaVu Sans;font-size:10px;font-style:oblique;font-weight:oblique;" x="0" y="-0.9765625">R</tspan>
       <tspan style="font-family:DejaVu Sans;font-size:7px;font-style:book;font-weight:book;" x="7.650794" y="-4.8046875">2</tspan>
       <tspan style="font-family:Arial;font-size:10px;font-style:regular;font-weight:regular;" x="12.377845 15.156165 20.717689 23.496009 29.057533" y="-0.9765625"> 0.06</tspan>
      </text>
     </g>
     <text style="font-family:Arial;font-size:10px;font-style:normal;font-weight:normal;" transform="translate(136.478125 39.86)"> slope 0.20</text>
    </g>
   </g>
  </g>
 </g>
 <defs>
  <clipPath id="p1969becda4">
   <rect height="81.54" width="76.090909" x="27" y="12.96"/>
  </clipPath>
  <clipPath id="pf9badcfacc">
   <rect height="81.54" width="76.090909" x="118.309091" y="12.96"/>
  </clipPath>
 </defs>
</svg>
