<?xml version="1.0" encoding="utf-8" standalone="no"?>
<!DOCTYPE svg PUBLIC "-//W3C//DTD SVG 1.1//EN"
  "http://www.w3.org/Graphics/SVG/1.1/DTD/svg11.dtd">
<!-- Created with matplotlib (http://matplotlib.org/) -->
<svg height="108pt" version="1.1" viewBox="0 0 216 108" width="216pt" xmlns="http://www.w3.org/2000/svg" xmlns:xlink="http://www.w3.org/1999/xlink">
 <defs>
  <style type="text/css">
*{stroke-linecap:butt;stroke-linejoin:round;}
  </style>
 </defs>
 <g id="figure_1">
  <g id="patch_1">
   <path d="M 0 108 
L 216 108 
L 216 0 
L 0 0 
z
" style="fill:#ffffff;"/>
  </g>
  <g id="axes_1">
   <g id="patch_2">
    <path d="M 27 94.5 
L 103.090909 94.5 
L 103.090909 12.96 
L 27 12.96 
z
" style="fill:#ffffff;"/>
   </g>
   <g id="LineCollection_1">
    <path clip-path="url(#pe42eae7254)" d="M 25.77789 77.955201 
L 38.965448 77.955201 
" style="fill:none;stroke:#000000;stroke-width:0.5;"/>
    <path clip-path="url(#pe42eae7254)" d="M 26.614986 70.16868 
L 35.452765 70.16868 
" style="fill:none;stroke:#000000;stroke-width:0.5;"/>
    <path clip-path="url(#pe42eae7254)" d="M 24.764737 66.835862 
L 37.287652 66.835862 
" style="fill:none;stroke:#000000;stroke-width:0.5;"/>
    <path clip-path="url(#pe42eae7254)" d="M 26.572658 73.539425 
L 40.754731 73.539425 
" style="fill:none;stroke:#000000;stroke-width:0.5;"/>
    <path clip-path="url(#pe42eae7254)" d="M 26.733441 66.341536 
L 32.787292 66.341536 
" style="fill:none;stroke:#000000;stroke-width:0.5;"/>
    <path clip-path="url(#pe42eae7254)" d="M 24.378777 69.20606 
L 43.309621 69.20606 
" style="fill:none;stroke:#000000;stroke-width:0.5;"/>
    <path clip-path="url(#pe42eae7254)" d="M 26.024764 66.715997 
L 40.291861 66.715997 
" style="fill:none;stroke:#000000;stroke-width:0.5;"/>
    <path clip-path="url(#pe42eae7254)" d="M 30.75727 35.12443 
L 45.158313 35.12443 
" style="fill:none;stroke:#000000;stroke-width:0.5;"/>
    <path clip-path="url(#pe42eae7254)" d="M 30.762332 64.572664 
L 39.656902 64.572664 
" style="fill:none;stroke:#000000;stroke-width:0.5;"/>
    <path clip-path="url(#pe42eae7254)" d="M 23.207247 70.353729 
L 36.025979 70.353729 
" style="fill:none;stroke:#000000;stroke-width:0.5;"/>
    <path clip-path="url(#pe42eae7254)" d="M 27.497023 69.672464 
L 34.263423 69.672464 
" style="fill:none;stroke:#000000;stroke-width:0.5;"/>
    <path clip-path="url(#pe42eae7254)" d="M 25.986229 74.395809 
L 34.820926 74.395809 
" style="fill:none;stroke:#000000;stroke-width:0.5;"/>
    <path clip-path="url(#pe42eae7254)" d="M 24.835821 47.759088 
L 46.860326 47.759088 
" style="fill:none;stroke:#000000;stroke-width:0.5;"/>
    <path clip-path="url(#pe42eae7254)" d="M 26.032735 70.46396 
L 38.171434 70.46396 
" style="fill:none;stroke:#000000;stroke-width:0.5;"/>
    <path clip-path="url(#pe42eae7254)" d="M 27.328522 64.729674 
L 46.362181 64.729674 
" style="fill:none;stroke:#000000;stroke-width:0.5;"/>
    <path clip-path="url(#pe42eae7254)" d="M 26.867912 63.451474 
L 40.030173 63.451474 
" style="fill:none;stroke:#000000;stroke-width:0.5;"/>
    <path clip-path="url(#pe42eae7254)" d="M 29.774027 52.731844 
L 48.430509 52.731844 
" style="fill:none;stroke:#000000;stroke-width:0.5;"/>
    <path clip-path="url(#pe42eae7254)" d="M 25.921217 49.270002 
L 46.270707 49.270002 
" style="fill:none;stroke:#000000;stroke-width:0.5;"/>
    <path clip-path="url(#pe42eae7254)" d="M 31.971105 57.864258 
L 47.215942 57.864258 
" style="fill:none;stroke:#000000;stroke-width:0.5;"/>
    <path clip-path="url(#pe42eae7254)" d="M 26.100516 60.808662 
L 43.912627 60.808662 
" style="fill:none;stroke:#000000;stroke-width:0.5;"/>
    <path clip-path="url(#pe42eae7254)" d="M 25.280728 73.714197 
L 37.577121 73.714197 
" style="fill:none;stroke:#000000;stroke-width:0.5;"/>
    <path clip-path="url(#pe42eae7254)" d="M 24.570156 77.59298 
L 32.782533 77.59298 
" style="fill:none;stroke:#000000;stroke-width:0.5;"/>
    <path clip-path="url(#pe42eae7254)" d="M 30.519804 23.253833 
L 56.875748 23.253833 
" style="fill:none;stroke:#000000;stroke-width:0.5;"/>
    <path clip-path="url(#pe42eae7254)" d="M 27 77.187781 
L 27 77.187781 
" style="fill:none;stroke:#000000;stroke-width:0.5;"/>
    <path clip-path="url(#pe42eae7254)" d="M 28.611876 62.481496 
L 45.206437 62.481496 
" style="fill:none;stroke:#000000;stroke-width:0.5;"/>
    <path clip-path="url(#pe42eae7254)" d="M 26.367121 72.792031 
L 37.537884 72.792031 
" style="fill:none;stroke:#000000;stroke-width:0.5;"/>
    <path clip-path="url(#pe42eae7254)" d="M 30.721745 66.581729 
L 43.19399 66.581729 
" style="fill:none;stroke:#000000;stroke-width:0.5;"/>
    <path clip-path="url(#pe42eae7254)" d="M 30.098519 63.514885 
L 43.335215 63.514885 
" style="fill:none;stroke:#000000;stroke-width:0.5;"/>
    <path clip-path="url(#pe42eae7254)" d="M 26.331949 81.960575 
L 34.015831 81.960575 
" style="fill:none;stroke:#000000;stroke-width:0.5;"/>
    <path clip-path="url(#pe42eae7254)" d="M 25.29692 69.28117 
L 31.052982 69.28117 
" style="fill:none;stroke:#000000;stroke-width:0.5;"/>
   </g>
   <g id="LineCollection_2">
    <path clip-path="url(#pe42eae7254)" d="M 32.371669 81.919207 
L 32.371669 73.991196 
" style="fill:none;stroke:#000000;stroke-width:0.5;"/>
    <path clip-path="url(#pe42eae7254)" d="M 31.033876 82.83203 
L 31.033876 57.50533 
" style="fill:none;stroke:#000000;stroke-width:0.5;"/>
    <path clip-path="url(#pe42eae7254)" d="M 31.026195 73.505124 
L 31.026195 60.1666 
" style="fill:none;stroke:#000000;stroke-width:0.5;"/>
    <path clip-path="url(#pe42eae7254)" d="M 33.663695 78.461434 
L 33.663695 68.617417 
" style="fill:none;stroke:#000000;stroke-width:0.5;"/>
    <path clip-path="url(#pe42eae7254)" d="M 29.760366 71.36729 
L 29.760366 61.315781 
" style="fill:none;stroke:#000000;stroke-width:0.5;"/>
    <path clip-path="url(#pe42eae7254)" d="M 33.844199 73.317758 
L 33.844199 65.094363 
" style="fill:none;stroke:#000000;stroke-width:0.5;"/>
    <path clip-path="url(#pe42eae7254)" d="M 33.158312 71.553 
L 33.158312 61.878995 
" style="fill:none;stroke:#000000;stroke-width:0.5;"/>
    <path clip-path="url(#pe42eae7254)" d="M 37.957791 47.794816 
L 37.957791 22.454044 
" style="fill:none;stroke:#000000;stroke-width:0.5;"/>
    <path clip-path="url(#pe42eae7254)" d="M 35.209617 77.78818 
L 35.209617 51.357148 
" style="fill:none;stroke:#000000;stroke-width:0.5;"/>
    <path clip-path="url(#pe42eae7254)" d="M 29.616613 83.931335 
L 29.616613 56.776123 
" style="fill:none;stroke:#000000;stroke-width:0.5;"/>
    <path clip-path="url(#pe42eae7254)" d="M 30.880223 72.728507 
L 30.880223 66.616422 
" style="fill:none;stroke:#000000;stroke-width:0.5;"/>
    <path clip-path="url(#pe42eae7254)" d="M 30.403577 78.507943 
L 30.403577 70.283675 
" style="fill:none;stroke:#000000;stroke-width:0.5;"/>
    <path clip-path="url(#pe42eae7254)" d="M 35.848074 60.235688 
L 35.848074 35.282487 
" style="fill:none;stroke:#000000;stroke-width:0.5;"/>
    <path clip-path="url(#pe42eae7254)" d="M 32.102084 75.959484 
L 32.102084 64.968437 
" style="fill:none;stroke:#000000;stroke-width:0.5;"/>
    <path clip-path="url(#pe42eae7254)" d="M 36.845352 83.275129 
L 36.845352 46.184218 
" style="fill:none;stroke:#000000;stroke-width:0.5;"/>
    <path clip-path="url(#pe42eae7254)" d="M 33.449042 71.336296 
L 33.449042 55.566653 
" style="fill:none;stroke:#000000;stroke-width:0.5;"/>
    <path clip-path="url(#pe42eae7254)" d="M 39.102268 63.194127 
L 39.102268 42.269562 
" style="fill:none;stroke:#000000;stroke-width:0.5;"/>
    <path clip-path="url(#pe42eae7254)" d="M 36.095962 56.903786 
L 36.095962 41.636218 
" style="fill:none;stroke:#000000;stroke-width:0.5;"/>
    <path clip-path="url(#pe42eae7254)" d="M 39.593524 65.075719 
L 39.593524 50.652798 
" style="fill:none;stroke:#000000;stroke-width:0.5;"/>
    <path clip-path="url(#pe42eae7254)" d="M 35.006572 71.215842 
L 35.006572 50.401482 
" style="fill:none;stroke:#000000;stroke-width:0.5;"/>
    <path clip-path="url(#pe42eae7254)" d="M 31.428924 78.65468 
L 31.428924 68.773714 
" style="fill:none;stroke:#000000;stroke-width:0.5;"/>
    <path clip-path="url(#pe42eae7254)" d="M 28.676344 80.243614 
L 28.676344 74.942347 
" style="fill:none;stroke:#000000;stroke-width:0.5;"/>
    <path clip-path="url(#pe42eae7254)" d="M 43.697776 30.032156 
L 43.697776 16.47551 
" style="fill:none;stroke:#000000;stroke-width:0.5;"/>
    <path clip-path="url(#pe42eae7254)" d="M 27 85.669001 
L 27 68.70656 
" style="fill:none;stroke:#000000;stroke-width:0.5;"/>
    <path clip-path="url(#pe42eae7254)" d="M 36.909156 72.557916 
L 36.909156 52.405077 
" style="fill:none;stroke:#000000;stroke-width:0.5;"/>
    <path clip-path="url(#pe42eae7254)" d="M 31.952503 75.811297 
L 31.952503 69.772765 
" style="fill:none;stroke:#000000;stroke-width:0.5;"/>
    <path clip-path="url(#pe42eae7254)" d="M 36.957868 77.43962 
L 36.957868 55.723838 
" style="fill:none;stroke:#000000;stroke-width:0.5;"/>
    <path clip-path="url(#pe42eae7254)" d="M 36.716867 74.754265 
L 36.716867 52.275505 
" style="fill:none;stroke:#000000;stroke-width:0.5;"/>
    <path clip-path="url(#pe42eae7254)" d="M 30.17389 86.785704 
L 30.17389 77.135445 
" style="fill:none;stroke:#000000;stroke-width:0.5;"/>
    <path clip-path="url(#pe42eae7254)" d="M 28.174951 77.536515 
L 28.174951 61.025824 
" style="fill:none;stroke:#000000;stroke-width:0.5;"/>
   </g>
   <g id="line2d_1">
    <path clip-path="url(#pe42eae7254)" d="M 27 82.043961 
L 27.768595 80.028249 
L 28.53719 78.012536 
L 29.305785 75.996824 
L 30.07438 73.981111 
L 30.842975 71.965399 
L 31.61157 69.949687 
L 32.380165 67.933974 
L 33.14876 65.918262 
L 33.917355 63.902549 
L 34.68595 61.886837 
L 35.454545 59.871124 
L 36.22314 57.855412 
L 36.991736 55.839699 
L 37.760331 53.823987 
L 38.528926 51.808274 
L 39.297521 49.792562 
L 40.066116 47.776849 
L 40.834711 45.761137 
L 41.603306 43.745425 
L 42.371901 41.729712 
L 43.140496 39.714 
L 43.909091 37.698287 
L 44.677686 35.682575 
L 45.446281 33.666862 
L 46.214876 31.65115 
L 46.983471 29.635437 
L 47.752066 27.619725 
L 48.520661 25.604012 
L 49.289256 23.5883 
L 50.057851 21.572587 
L 50.826446 19.556875 
L 51.595041 17.541162 
L 52.363636 15.52545 
L 53.132231 13.509738 
L 53.900826 11.494025 
L 54.669421 9.478313 
L 55.438017 7.4626 
L 56.206612 5.446888 
L 56.975207 3.431175 
L 57.743802 1.415463 
L 58.512397 -0.60025 
L 58.664822 -1 
" style="fill:none;stroke:#000000;stroke-dasharray:1.85,0.8;stroke-dashoffset:0;stroke-width:0.5;"/>
   </g>
   <g id="line2d_2">
    <defs>
     <path d="M 0 3 
C 0.795609 3 1.55874 2.683901 2.12132 2.12132 
C 2.683901 1.55874 3 0.795609 3 0 
C 3 -0.795609 2.683901 -1.55874 2.12132 -2.12132 
C 1.55874 -2.683901 0.795609 -3 0 -3 
C -0.795609 -3 -1.55874 -2.683901 -2.12132 -2.12132 
C -2.683901 -1.55874 -3 -0.795609 -3 0 
C -3 0.795609 -2.683901 1.55874 -2.12132 2.12132 
C -1.55874 2.683901 -0.795609 3 0 3 
z
" id="ma739247a1e" style="stroke:#000000;"/>
    </defs>
    <g clip-path="url(#pe42eae7254)">
     <use style="stroke:#000000;" x="32.371669" xlink:href="#ma739247a1e" y="77.955201"/>
     <use style="stroke:#000000;" x="31.033876" xlink:href="#ma739247a1e" y="70.16868"/>
     <use style="stroke:#000000;" x="31.026195" xlink:href="#ma739247a1e" y="66.835862"/>
     <use style="stroke:#000000;" x="33.663695" xlink:href="#ma739247a1e" y="73.539425"/>
     <use style="stroke:#000000;" x="29.760366" xlink:href="#ma739247a1e" y="66.341536"/>
     <use style="stroke:#000000;" x="33.844199" xlink:href="#ma739247a1e" y="69.20606"/>
     <use style="stroke:#000000;" x="33.158312" xlink:href="#ma739247a1e" y="66.715997"/>
     <use style="stroke:#000000;" x="37.957791" xlink:href="#ma739247a1e" y="35.12443"/>
     <use style="stroke:#000000;" x="35.209617" xlink:href="#ma739247a1e" y="64.572664"/>
     <use style="stroke:#000000;" x="29.616613" xlink:href="#ma739247a1e" y="70.353729"/>
     <use style="stroke:#000000;" x="30.880223" xlink:href="#ma739247a1e" y="69.672464"/>
     <use style="stroke:#000000;" x="30.403577" xlink:href="#ma739247a1e" y="74.395809"/>
     <use style="stroke:#000000;" x="35.848074" xlink:href="#ma739247a1e" y="47.759088"/>
     <use style="stroke:#000000;" x="32.102084" xlink:href="#ma739247a1e" y="70.46396"/>
     <use style="stroke:#000000;" x="36.845352" xlink:href="#ma739247a1e" y="64.729674"/>
     <use style="stroke:#000000;" x="33.449042" xlink:href="#ma739247a1e" y="63.451474"/>
     <use style="stroke:#000000;" x="39.102268" xlink:href="#ma739247a1e" y="52.731844"/>
     <use style="stroke:#000000;" x="36.095962" xlink:href="#ma739247a1e" y="49.270002"/>
     <use style="stroke:#000000;" x="39.593524" xlink:href="#ma739247a1e" y="57.864258"/>
     <use style="stroke:#000000;" x="35.006572" xlink:href="#ma739247a1e" y="60.808662"/>
     <use style="stroke:#000000;" x="31.428924" xlink:href="#ma739247a1e" y="73.714197"/>
     <use style="stroke:#000000;" x="28.676344" xlink:href="#ma739247a1e" y="77.59298"/>
     <use style="stroke:#000000;" x="43.697776" xlink:href="#ma739247a1e" y="23.253833"/>
     <use style="stroke:#000000;" x="27" xlink:href="#ma739247a1e" y="77.187781"/>
     <use style="stroke:#000000;" x="36.909156" xlink:href="#ma739247a1e" y="62.481496"/>
     <use style="stroke:#000000;" x="31.952503" xlink:href="#ma739247a1e" y="72.792031"/>
     <use style="stroke:#000000;" x="36.957868" xlink:href="#ma739247a1e" y="66.581729"/>
     <use style="stroke:#000000;" x="36.716867" xlink:href="#ma739247a1e" y="63.514885"/>
     <use style="stroke:#000000;" x="30.17389" xlink:href="#ma739247a1e" y="81.960575"/>
     <use style="stroke:#000000;" x="28.174951" xlink:href="#ma739247a1e" y="69.28117"/>
    </g>
   </g>
   <g id="patch_3">
    <path d="M 27 94.5 
L 27 12.96 
" style="fill:none;stroke:#000000;stroke-linecap:square;stroke-linejoin:miter;"/>
   </g>
   <g id="patch_4">
    <path d="M 27 94.5 
L 103.090909 94.5 
" style="fill:none;stroke:#000000;stroke-linecap:square;stroke-linejoin:miter;"/>
   </g>
   <g id="matplotlib.axis_1">
    <g id="xtick_1">
     <g id="line2d_3"/>
     <g id="text_1">
      <text style="font-family:Arial;font-size:8px;font-style:normal;font-weight:normal;text-anchor:middle;" transform="rotate(-0, 27, 103.72625)" x="27" y="103.72625">0</text>
     </g>
    </g>
    <g id="xtick_2">
     <g id="line2d_4"/>
     <g id="text_2">
      <text style="font-family:Arial;font-size:8px;font-style:normal;font-weight:normal;text-anchor:middle;" transform="rotate(-0, 73.365376, 103.72625)" x="73.365376" y="103.72625">5</text>
     </g>
    </g>
    <g id="text_3">
     <text style="font-family:Arial;font-size:10px;font-style:normal;font-weight:normal;text-anchor:middle;" transform="rotate(-0, 65.045455, 116.474063)" x="65.045455" y="116.474063">Exc</text>
    </g>
   </g>
   <g id="matplotlib.axis_2">
    <g id="ytick_1">
     <g id="line2d_5"/>
     <g id="text_4">
      <text style="font-family:Arial;font-size:8px;font-style:normal;font-weight:normal;text-anchor:end;" transform="rotate(-0, 23.5, 97.363125)" x="23.5" y="97.363125">0</text>
     </g>
    </g>
    <g id="ytick_2">
     <g id="line2d_6"/>
     <g id="text_5">
      <text style="font-family:Arial;font-size:8px;font-style:normal;font-weight:normal;text-anchor:end;" transform="rotate(-0, 23.5, 77.488831)" x="23.5" y="77.488831">2</text>
     </g>
    </g>
    <g id="ytick_3">
     <g id="line2d_7"/>
     <g id="text_6">
      <text style="font-family:Arial;font-size:8px;font-style:normal;font-weight:normal;text-anchor:end;" transform="rotate(-0, 23.5, 57.614537)" x="23.5" y="57.614537">4</text>
     </g>
    </g>
    <g id="ytick_4">
     <g id="line2d_8"/>
     <g id="text_7">
      <text style="font-family:Arial;font-size:8px;font-style:normal;font-weight:normal;text-anchor:end;" transform="rotate(-0, 23.5, 37.740243)" x="23.5" y="37.740243">6</text>
     </g>
    </g>
    <g id="ytick_5">
     <g id="line2d_9"/>
     <g id="text_8">
      <text style="font-family:Arial;font-size:8px;font-style:normal;font-weight:normal;text-anchor:end;" transform="rotate(-0, 23.5, 17.865949)" x="23.5" y="17.865949">8</text>
     </g>
    </g>
    <g id="text_9">
     <text style="font-family:Arial;font-size:10px;font-style:normal;font-weight:normal;text-anchor:middle;" transform="rotate(-90, 13.06375, 53.73)" x="13.06375" y="53.73">Inh</text>
    </g>
   </g>
   <g id="legend_1">
    <g id="line2d_10">
     <path d="M 36 75.622656 
L 56 75.622656 
" style="fill:none;stroke:#000000;stroke-dasharray:1.85,0.8;stroke-dashoffset:0;stroke-width:0.5;"/>
    </g>
    <g id="line2d_11"/>
    <g id="text_10">
     <!-- $R^2$ 0.64 -->
     <g transform="translate(64 72.875)">
      <text>
       <tspan style="font-family:DejaVu Sans;font-size:10px;font-style:oblique;font-weight:oblique;" x="0" y="-0.9765625">R</tspan>
       <tspan style="font-family:DejaVu Sans;font-size:7px;font-style:book;font-weight:book;" x="7.650794" y="-4.8046875">2</tspan>
       <tspan style="font-family:Arial;font-size:10px;font-style:regular;font-weight:regular;" x="12.377845 15.156165 20.717689 23.496009 29.057533" y="-0.9765625"> 0.64</tspan>
      </text>
     </g>
     <text style="font-family:Arial;font-size:10px;font-style:normal;font-weight:normal;" transform="translate(64 83.4875)"> slope 2.45</text>
    </g>
   </g>
  </g>
  <g id="axes_2">
   <g id="patch_5">
    <path d="M 118.309091 94.5 
L 194.4 94.5 
L 194.4 12.96 
L 118.309091 12.96 
z
" style="fill:#ffffff;"/>
   </g>
   <g id="PathCollection_1">
    <defs>
     <path d="M 0 2.44949 
C 0.649612 2.44949 1.272706 2.191396 1.732051 1.732051 
C 2.191396 1.272706 2.44949 0.649612 2.44949 0 
C 2.44949 -0.649612 2.191396 -1.272706 1.732051 -1.732051 
C 1.272706 -2.191396 0.649612 -2.44949 0 -2.44949 
C -0.649612 -2.44949 -1.272706 -2.191396 -1.732051 -1.732051 
C -2.191396 -1.272706 -2.44949 -0.649612 -2.44949 0 
C -2.44949 0.649612 -2.191396 1.272706 -1.732051 1.732051 
C -1.272706 2.191396 -0.649612 2.44949 0 2.44949 
z
" id="m55e4212570" style="stroke:#000000;"/>
    </defs>
    <g clip-path="url(#p86de9d7a41)">
     <use style="stroke:#000000;" x="145.933172" xlink:href="#m55e4212570" y="77.893132"/>
     <use style="stroke:#000000;" x="136.821655" xlink:href="#m55e4212570" y="41.447962"/>
     <use style="stroke:#000000;" x="144.540938" xlink:href="#m55e4212570" y="66.55969"/>
     <use style="stroke:#000000;" x="148.016392" xlink:href="#m55e4212570" y="73.879661"/>
     <use style="stroke:#000000;" x="130.990139" xlink:href="#m55e4212570" y="73.445025"/>
     <use style="stroke:#000000;" x="157.963678" xlink:href="#m55e4212570" y="77.274389"/>
     <use style="stroke:#000000;" x="148.194492" xlink:href="#m55e4212570" y="74.235786"/>
     <use style="stroke:#000000;" x="148.475069" xlink:href="#m55e4212570" y="41.418485"/>
     <use style="stroke:#000000;" x="136.940619" xlink:href="#m55e4212570" y="39.13471"/>
     <use style="stroke:#000000;" x="145.160589" xlink:href="#m55e4212570" y="37.617764"/>
     <use style="stroke:#000000;" x="132.482724" xlink:href="#m55e4212570" y="81.696968"/>
     <use style="stroke:#000000;" x="136.815199" xlink:href="#m55e4212570" y="77.272562"/>
     <use style="stroke:#000000;" x="164.443996" xlink:href="#m55e4212570" y="42.230332"/>
     <use style="stroke:#000000;" x="143.736119" xlink:href="#m55e4212570" y="71.476966"/>
     <use style="stroke:#000000;" x="158.179047" xlink:href="#m55e4212570" y="16.805375"/>
     <use style="stroke:#000000;" x="145.880183" xlink:href="#m55e4212570" y="61.467204"/>
     <use style="stroke:#000000;" x="157.38897" xlink:href="#m55e4212570" y="50.669148"/>
     <use style="stroke:#000000;" x="160.935328" xlink:href="#m55e4212570" y="62.518905"/>
     <use style="stroke:#000000;" x="150.242572" xlink:href="#m55e4212570" y="64.288192"/>
     <use style="stroke:#000000;" x="155.620261" xlink:href="#m55e4212570" y="50.899996"/>
     <use style="stroke:#000000;" x="144.066442" xlink:href="#m55e4212570" y="73.802263"/>
     <use style="stroke:#000000;" x="135.511622" xlink:href="#m55e4212570" y="83.395395"/>
     <use style="stroke:#000000;" x="173.517096" xlink:href="#m55e4212570" y="66.102787"/>
     <use style="stroke:#000000;" x="118.309091" xlink:href="#m55e4212570" y="58.96864"/>
     <use style="stroke:#000000;" x="153.06985" xlink:href="#m55e4212570" y="52.285688"/>
     <use style="stroke:#000000;" x="141.708575" xlink:href="#m55e4212570" y="81.851039"/>
     <use style="stroke:#000000;" x="144.434801" xlink:href="#m55e4212570" y="49.011781"/>
     <use style="stroke:#000000;" x="146.036101" xlink:href="#m55e4212570" y="47.413565"/>
     <use style="stroke:#000000;" x="134.404578" xlink:href="#m55e4212570" y="74.285526"/>
     <use style="stroke:#000000;" x="130.366359" xlink:href="#m55e4212570" y="59.914925"/>
    </g>
   </g>
   <g id="line2d_12">
    <path clip-path="url(#p86de9d7a41)" d="M 118.309091 71.226566 
L 119.077686 70.938632 
L 119.846281 70.650699 
L 120.614876 70.362765 
L 121.383471 70.074832 
L 122.152066 69.786898 
L 122.920661 69.498964 
L 123.689256 69.211031 
L 124.457851 68.923097 
L 125.226446 68.635163 
L 125.995041 68.34723 
L 126.763636 68.059296 
L 127.532231 67.771363 
L 128.300826 67.483429 
L 129.069421 67.195495 
L 129.838017 66.907562 
L 130.606612 66.619628 
L 131.375207 66.331695 
L 132.143802 66.043761 
L 132.912397 65.755827 
L 133.680992 65.467894 
L 134.449587 65.17996 
L 135.218182 64.892026 
L 135.986777 64.604093 
L 136.755372 64.316159 
L 137.523967 64.028226 
L 138.292562 63.740292 
L 139.061157 63.452358 
L 139.829752 63.164425 
L 140.598347 62.876491 
L 141.366942 62.588558 
L 142.135537 62.300624 
L 142.904132 62.01269 
L 143.672727 61.724757 
L 144.441322 61.436823 
L 145.209917 61.148889 
L 145.978512 60.860956 
L 146.747107 60.573022 
L 147.515702 60.285089 
L 148.284298 59.997155 
L 149.052893 59.709221 
L 149.821488 59.421288 
L 150.590083 59.133354 
L 151.358678 58.845421 
L 152.127273 58.557487 
L 152.895868 58.269553 
L 153.664463 57.98162 
L 154.433058 57.693686 
L 155.201653 57.405752 
L 155.970248 57.117819 
L 156.738843 56.829885 
L 157.507438 56.541952 
L 158.276033 56.254018 
L 159.044628 55.966084 
L 159.813223 55.678151 
L 160.581818 55.390217 
L 161.350413 55.102284 
L 162.119008 54.81435 
L 162.887603 54.526416 
L 163.656198 54.238483 
L 164.424793 53.950549 
L 165.193388 53.662615 
L 165.961983 53.374682 
L 166.730579 53.086748 
L 167.499174 52.798815 
L 168.267769 52.510881 
L 169.036364 52.222947 
L 169.804959 51.935014 
L 170.573554 51.64708 
L 171.342149 51.359147 
L 172.110744 51.071213 
L 172.879339 50.783279 
L 173.647934 50.495346 
L 174.416529 50.207412 
L 175.185124 49.919478 
L 175.953719 49.631545 
L 176.722314 49.343611 
L 177.490909 49.055678 
L 178.259504 48.767744 
L 179.028099 48.47981 
L 179.796694 48.191877 
L 180.565289 47.903943 
L 181.333884 47.61601 
L 182.102479 47.328076 
L 182.871074 47.040142 
L 183.639669 46.752209 
L 184.408264 46.464275 
L 185.17686 46.176341 
L 185.945455 45.888408 
L 186.71405 45.600474 
L 187.482645 45.312541 
L 188.25124 45.024607 
L 189.019835 44.736673 
L 189.78843 44.44874 
L 190.557025 44.160806 
L 191.32562 43.872873 
L 192.094215 43.584939 
L 192.86281 43.297005 
L 193.631405 43.009072 
L 194.4 42.721138 
" style="fill:none;stroke:#000000;stroke-dasharray:1.85,0.8;stroke-dashoffset:0;stroke-width:0.5;"/>
   </g>
   <g id="patch_6">
    <path d="M 118.309091 94.5 
L 118.309091 12.96 
" style="fill:none;stroke:#000000;stroke-linecap:square;stroke-linejoin:miter;"/>
   </g>
   <g id="patch_7">
    <path d="M 118.309091 94.5 
L 194.4 94.5 
" style="fill:none;stroke:#000000;stroke-linecap:square;stroke-linejoin:miter;"/>
   </g>
   <g id="matplotlib.axis_3">
    <g id="xtick_3">
     <g id="line2d_13"/>
     <g id="text_11">
      <text style="font-family:Arial;font-size:8px;font-style:normal;font-weight:normal;text-anchor:middle;" transform="rotate(-0, 118.309091, 103.72625)" x="118.309091" y="103.72625">0</text>
     </g>
    </g>
    <g id="xtick_4">
     <g id="line2d_14"/>
     <g id="text_12">
      <text style="font-family:Arial;font-size:8px;font-style:normal;font-weight:normal;text-anchor:middle;" transform="rotate(-0, 157.157858, 103.72625)" x="157.157858" y="103.72625">1</text>
     </g>
    </g>
    <g id="text_13">
     <!-- $\sigma$(Exc) -->
     <g transform="translate(141.504545 116.61625)">
      <text>
       <tspan style="font-family:DejaVu Sans;font-size:10px;font-style:oblique;font-weight:oblique;" x="0" y="-0.71875">σ</tspan>
       <tspan style="font-family:Arial;font-size:10px;font-style:regular;font-weight:regular;" x="6.337891 9.667969 16.337891 21.337891 26.337891" y="-0.71875">(Exc)</tspan>
      </text>
     </g>
    </g>
   </g>
   <g id="matplotlib.axis_4">
    <g id="ytick_6">
     <g id="line2d_15"/>
     <g id="text_14">
      <text style="font-family:Arial;font-size:8px;font-style:normal;font-weight:normal;text-anchor:end;" transform="rotate(-0, 114.809091, 97.363125)" x="114.809091" y="97.363125">0.0</text>
     </g>
    </g>
    <g id="ytick_7">
     <g id="line2d_16"/>
     <g id="text_15">
      <text style="font-family:Arial;font-size:8px;font-style:normal;font-weight:normal;text-anchor:end;" transform="rotate(-0, 114.809091, 76.547705)" x="114.809091" y="76.547705">0.5</text>
     </g>
    </g>
    <g id="ytick_8">
     <g id="line2d_17"/>
     <g id="text_16">
      <text style="font-family:Arial;font-size:8px;font-style:normal;font-weight:normal;text-anchor:end;" transform="rotate(-0, 114.809091, 55.732285)" x="114.809091" y="55.732285">1.0</text>
     </g>
    </g>
    <g id="ytick_9">
     <g id="line2d_18"/>
     <g id="text_17">
      <text style="font-family:Arial;font-size:8px;font-style:normal;font-weight:normal;text-anchor:end;" transform="rotate(-0, 114.809091, 34.916864)" x="114.809091" y="34.916864">1.5</text>
     </g>
    </g>
    <g id="text_18">
     <!-- $\sigma$(Inh) -->
     <g transform="translate(97.489091 67.18)rotate(-90)">
      <text>
       <tspan style="font-family:DejaVu Sans;font-size:10px;font-style:oblique;font-weight:oblique;" x="0" y="-0.71875">σ</tspan>
       <tspan style="font-family:Arial;font-size:10px;font-style:regular;font-weight:regular;" x="6.337891 9.667969 12.446289 18.007812 23.569336" y="-0.71875">(Inh)</tspan>
      </text>
     </g>
    </g>
   </g>
   <g id="legend_2">
    <g id="line2d_19">
     <path d="M 108.478125 31.995156 
L 128.478125 31.995156 
" style="fill:none;stroke:#000000;stroke-dasharray:1.85,0.8;stroke-dashoffset:0;stroke-width:0.5;"/>
    </g>
    <g id="line2d_20"/>
    <g id="text_19">
     <!-- $R^2$ 0.07 -->
     <g transform="translate(136.478125 29.2475)">
      <text>
       <tspan style="font-family:DejaVu Sans;font-size:10px;font-style:oblique;font-weight:oblique;" x="0" y="-0.9765625">R</tspan>
       <tspan style="font-family:DejaVu Sans;font-size:7px;font-style:book;font-weight:book;" x="7.650794" y="-4.8046875">2</tspan>
       <tspan style="font-family:Arial;font-size:10px;font-style:regular;font-weight:regular;" x="12.377845 15.156165 20.717689 23.496009 29.057533" y="-0.9765625"> 0.07</tspan>
      </text>
     </g>
     <text style="font-family:Arial;font-size:10px;font-style:normal;font-weight:normal;" transform="translate(136.478125 39.86)"> slope 0.35</text>
    </g>
   </g>
  </g>
 </g>
 <defs>
  <clipPath id="pe42eae7254">
   <rect height="81.54" width="76.090909" x="27" y="12.96"/>
  </clipPath>
  <clipPath id="p86de9d7a41">
   <rect height="81.54" width="76.090909" x="118.309091" y="12.96"/>
  </clipPath>
 </defs>
</svg>
