<?xml version="1.0" encoding="utf-8" standalone="no"?>
<!DOCTYPE svg PUBLIC "-//W3C//DTD SVG 1.1//EN"
  "http://www.w3.org/Graphics/SVG/1.1/DTD/svg11.dtd">
<!-- Created with matplotlib (http://matplotlib.org/) -->
<svg height="108pt" version="1.1" viewBox="0 0 216 108" width="216pt" xmlns="http://www.w3.org/2000/svg" xmlns:xlink="http://www.w3.org/1999/xlink">
 <defs>
  <style type="text/css">
*{stroke-linecap:butt;stroke-linejoin:round;}
  </style>
 </defs>
 <g id="figure_1">
  <g id="patch_1">
   <path d="M 0 108 
L 216 108 
L 216 0 
L 0 0 
z
" style="fill:#ffffff;"/>
  </g>
  <g id="axes_1">
   <g id="patch_2">
    <path d="M 27 94.5 
L 103.090909 94.5 
L 103.090909 12.96 
L 27 12.96 
z
" style="fill:#ffffff;"/>
   </g>
   <g id="LineCollection_1">
    <path clip-path="url(#pca8219e8d9)" d="M 26.735216 75.706283 
L 32.489813 75.706283 
" style="fill:none;stroke:#000000;stroke-width:0.5;"/>
    <path clip-path="url(#pca8219e8d9)" d="M 30.328752 63.374536 
L 50.989353 63.374536 
" style="fill:none;stroke:#000000;stroke-width:0.5;"/>
    <path clip-path="url(#pca8219e8d9)" d="M 25.599591 74.453335 
L 33.500287 74.453335 
" style="fill:none;stroke:#000000;stroke-width:0.5;"/>
    <path clip-path="url(#pca8219e8d9)" d="M 28.388509 70.402754 
L 37.611033 70.402754 
" style="fill:none;stroke:#000000;stroke-width:0.5;"/>
    <path clip-path="url(#pca8219e8d9)" d="M 26.829656 85.426751 
L 29.803634 85.426751 
" style="fill:none;stroke:#000000;stroke-width:0.5;"/>
    <path clip-path="url(#pca8219e8d9)" d="M 30.359112 71.564405 
L 37.640584 71.564405 
" style="fill:none;stroke:#000000;stroke-width:0.5;"/>
    <path clip-path="url(#pca8219e8d9)" d="M 27 81.458557 
L 27 81.458557 
" style="fill:none;stroke:#000000;stroke-width:0.5;"/>
    <path clip-path="url(#pca8219e8d9)" d="M 29.540343 37.212865 
L 52.605048 37.212865 
" style="fill:none;stroke:#000000;stroke-width:0.5;"/>
    <path clip-path="url(#pca8219e8d9)" d="M 26.513088 80.992759 
L 28.158751 80.992759 
" style="fill:none;stroke:#000000;stroke-width:0.5;"/>
    <path clip-path="url(#pca8219e8d9)" d="M 26.443024 63.689464 
L 30.570795 63.689464 
" style="fill:none;stroke:#000000;stroke-width:0.5;"/>
    <path clip-path="url(#pca8219e8d9)" d="M 24.911603 79.550859 
L 35.160444 79.550859 
" style="fill:none;stroke:#000000;stroke-width:0.5;"/>
    <path clip-path="url(#pca8219e8d9)" d="M 29.3608 69.606785 
L 43.79672 69.606785 
" style="fill:none;stroke:#000000;stroke-width:0.5;"/>
    <path clip-path="url(#pca8219e8d9)" d="M 25.831614 63.088094 
L 37.411201 63.088094 
" style="fill:none;stroke:#000000;stroke-width:0.5;"/>
    <path clip-path="url(#pca8219e8d9)" d="M 26.889723 66.928579 
L 45.171849 66.928579 
" style="fill:none;stroke:#000000;stroke-width:0.5;"/>
    <path clip-path="url(#pca8219e8d9)" d="M 26.107954 87.79976 
L 30.158399 87.79976 
" style="fill:none;stroke:#000000;stroke-width:0.5;"/>
    <path clip-path="url(#pca8219e8d9)" d="M 29.258651 75.577796 
L 36.5361 75.577796 
" style="fill:none;stroke:#000000;stroke-width:0.5;"/>
    <path clip-path="url(#pca8219e8d9)" d="M 27.434295 88.913288 
L 31.043682 88.913288 
" style="fill:none;stroke:#000000;stroke-width:0.5;"/>
    <path clip-path="url(#pca8219e8d9)" d="M 26.315105 90.424647 
L 28.62991 90.424647 
" style="fill:none;stroke:#000000;stroke-width:0.5;"/>
    <path clip-path="url(#pca8219e8d9)" d="M 27.442237 82.224929 
L 29.397004 82.224929 
" style="fill:none;stroke:#000000;stroke-width:0.5;"/>
    <path clip-path="url(#pca8219e8d9)" d="M 26.166919 72.086574 
L 33.712878 72.086574 
" style="fill:none;stroke:#000000;stroke-width:0.5;"/>
    <path clip-path="url(#pca8219e8d9)" d="M 26.315094 64.586694 
L 33.095743 64.586694 
" style="fill:none;stroke:#000000;stroke-width:0.5;"/>
    <path clip-path="url(#pca8219e8d9)" d="M 29.377887 76.414077 
L 35.970423 76.414077 
" style="fill:none;stroke:#000000;stroke-width:0.5;"/>
    <path clip-path="url(#pca8219e8d9)" d="M 26.847209 36.979337 
L 30.168291 36.979337 
" style="fill:none;stroke:#000000;stroke-width:0.5;"/>
    <path clip-path="url(#pca8219e8d9)" d="M 20.113755 32.409143 
L 53.31251 32.409143 
" style="fill:none;stroke:#000000;stroke-width:0.5;"/>
    <path clip-path="url(#pca8219e8d9)" d="M 26.226694 92.833428 
L 28.840311 92.833428 
" style="fill:none;stroke:#000000;stroke-width:0.5;"/>
    <path clip-path="url(#pca8219e8d9)" d="M 25.190447 75.091908 
L 43.374621 75.091908 
" style="fill:none;stroke:#000000;stroke-width:0.5;"/>
    <path clip-path="url(#pca8219e8d9)" d="M 26.919331 71.662622 
L 42.421547 71.662622 
" style="fill:none;stroke:#000000;stroke-width:0.5;"/>
    <path clip-path="url(#pca8219e8d9)" d="M 27.611426 67.366648 
L 42.331964 67.366648 
" style="fill:none;stroke:#000000;stroke-width:0.5;"/>
    <path clip-path="url(#pca8219e8d9)" d="M 26.373474 78.642764 
L 33.201389 78.642764 
" style="fill:none;stroke:#000000;stroke-width:0.5;"/>
    <path clip-path="url(#pca8219e8d9)" d="M 26.700925 91.967584 
L 28.257564 91.967584 
" style="fill:none;stroke:#000000;stroke-width:0.5;"/>
   </g>
   <g id="LineCollection_2">
    <path clip-path="url(#pca8219e8d9)" d="M 29.612515 78.909614 
L 29.612515 72.502951 
" style="fill:none;stroke:#000000;stroke-width:0.5;"/>
    <path clip-path="url(#pca8219e8d9)" d="M 40.659053 73.454337 
L 40.659053 53.294735 
" style="fill:none;stroke:#000000;stroke-width:0.5;"/>
    <path clip-path="url(#pca8219e8d9)" d="M 29.549939 78.505437 
L 29.549939 70.401234 
" style="fill:none;stroke:#000000;stroke-width:0.5;"/>
    <path clip-path="url(#pca8219e8d9)" d="M 32.999771 76.957625 
L 32.999771 63.847882 
" style="fill:none;stroke:#000000;stroke-width:0.5;"/>
    <path clip-path="url(#pca8219e8d9)" d="M 28.316645 88.106955 
L 28.316645 82.746547 
" style="fill:none;stroke:#000000;stroke-width:0.5;"/>
    <path clip-path="url(#pca8219e8d9)" d="M 33.999848 73.793684 
L 33.999848 69.335127 
" style="fill:none;stroke:#000000;stroke-width:0.5;"/>
    <path clip-path="url(#pca8219e8d9)" d="M 27 84.550605 
L 27 78.366509 
" style="fill:none;stroke:#000000;stroke-width:0.5;"/>
    <path clip-path="url(#pca8219e8d9)" d="M 41.072696 42.024529 
L 41.072696 32.401202 
" style="fill:none;stroke:#000000;stroke-width:0.5;"/>
    <path clip-path="url(#pca8219e8d9)" d="M 27.335919 86.692737 
L 27.335919 75.292781 
" style="fill:none;stroke:#000000;stroke-width:0.5;"/>
    <path clip-path="url(#pca8219e8d9)" d="M 28.506909 76.345029 
L 28.506909 51.033899 
" style="fill:none;stroke:#000000;stroke-width:0.5;"/>
    <path clip-path="url(#pca8219e8d9)" d="M 30.036023 84.899452 
L 30.036023 74.202266 
" style="fill:none;stroke:#000000;stroke-width:0.5;"/>
    <path clip-path="url(#pca8219e8d9)" d="M 36.57876 74.924464 
L 36.57876 64.289106 
" style="fill:none;stroke:#000000;stroke-width:0.5;"/>
    <path clip-path="url(#pca8219e8d9)" d="M 31.621408 69.706726 
L 31.621408 56.469463 
" style="fill:none;stroke:#000000;stroke-width:0.5;"/>
    <path clip-path="url(#pca8219e8d9)" d="M 36.030786 72.348317 
L 36.030786 61.508841 
" style="fill:none;stroke:#000000;stroke-width:0.5;"/>
    <path clip-path="url(#pca8219e8d9)" d="M 28.133176 89.340212 
L 28.133176 86.259308 
" style="fill:none;stroke:#000000;stroke-width:0.5;"/>
    <path clip-path="url(#pca8219e8d9)" d="M 32.897375 80.568741 
L 32.897375 70.58685 
" style="fill:none;stroke:#000000;stroke-width:0.5;"/>
    <path clip-path="url(#pca8219e8d9)" d="M 29.238988 90.285352 
L 29.238988 87.541223 
" style="fill:none;stroke:#000000;stroke-width:0.5;"/>
    <path clip-path="url(#pca8219e8d9)" d="M 27.472508 91.974548 
L 27.472508 88.874747 
" style="fill:none;stroke:#000000;stroke-width:0.5;"/>
    <path clip-path="url(#pca8219e8d9)" d="M 28.419621 85.589484 
L 28.419621 78.860375 
" style="fill:none;stroke:#000000;stroke-width:0.5;"/>
    <path clip-path="url(#pca8219e8d9)" d="M 29.939899 76.034524 
L 29.939899 68.138624 
" style="fill:none;stroke:#000000;stroke-width:0.5;"/>
    <path clip-path="url(#pca8219e8d9)" d="M 29.705418 69.502105 
L 29.705418 59.671283 
" style="fill:none;stroke:#000000;stroke-width:0.5;"/>
    <path clip-path="url(#pca8219e8d9)" d="M 32.674155 78.65097 
L 32.674155 74.177184 
" style="fill:none;stroke:#000000;stroke-width:0.5;"/>
    <path clip-path="url(#pca8219e8d9)" d="M 28.50775 57.108242 
L 28.50775 16.850432 
" style="fill:none;stroke:#000000;stroke-width:0.5;"/>
    <path clip-path="url(#pca8219e8d9)" d="M 36.713133 37.594103 
L 36.713133 27.224184 
" style="fill:none;stroke:#000000;stroke-width:0.5;"/>
    <path clip-path="url(#pca8219e8d9)" d="M 27.533502 94.659066 
L 27.533502 91.00779 
" style="fill:none;stroke:#000000;stroke-width:0.5;"/>
    <path clip-path="url(#pca8219e8d9)" d="M 34.282534 80.372784 
L 34.282534 69.811032 
" style="fill:none;stroke:#000000;stroke-width:0.5;"/>
    <path clip-path="url(#pca8219e8d9)" d="M 34.670439 76.416959 
L 34.670439 66.908285 
" style="fill:none;stroke:#000000;stroke-width:0.5;"/>
    <path clip-path="url(#pca8219e8d9)" d="M 34.971695 72.300892 
L 34.971695 62.432404 
" style="fill:none;stroke:#000000;stroke-width:0.5;"/>
    <path clip-path="url(#pca8219e8d9)" d="M 29.787431 83.741216 
L 29.787431 73.544313 
" style="fill:none;stroke:#000000;stroke-width:0.5;"/>
    <path clip-path="url(#pca8219e8d9)" d="M 27.479244 92.845608 
L 27.479244 91.08956 
" style="fill:none;stroke:#000000;stroke-width:0.5;"/>
   </g>
   <g id="line2d_1">
    <path clip-path="url(#pca8219e8d9)" d="M 27 82.681984 
L 27.768595 80.915326 
L 28.53719 79.148667 
L 29.305785 77.382009 
L 30.07438 75.615351 
L 30.842975 73.848693 
L 31.61157 72.082035 
L 32.380165 70.315377 
L 33.14876 68.548719 
L 33.917355 66.782061 
L 34.68595 65.015403 
L 35.454545 63.248745 
L 36.22314 61.482087 
L 36.991736 59.715429 
L 37.760331 57.948771 
L 38.528926 56.182113 
L 39.297521 54.415455 
L 40.066116 52.648797 
L 40.834711 50.882139 
L 41.603306 49.115481 
L 42.371901 47.348823 
L 43.140496 45.582165 
L 43.909091 43.815507 
L 44.677686 42.048849 
L 45.446281 40.282191 
L 46.214876 38.515533 
L 46.983471 36.748875 
L 47.752066 34.982217 
L 48.520661 33.215559 
L 49.289256 31.448901 
L 50.057851 29.682243 
L 50.826446 27.915585 
L 51.595041 26.148927 
L 52.363636 24.382269 
L 53.132231 22.615611 
L 53.900826 20.848953 
L 54.669421 19.082295 
L 55.438017 17.315637 
L 56.206612 15.548979 
L 56.975207 13.782321 
L 57.743802 12.015663 
L 58.512397 10.249005 
L 59.280992 8.482347 
L 60.049587 6.715689 
L 60.818182 4.949031 
L 61.586777 3.182373 
L 62.355372 1.415715 
L 63.123967 -0.350943 
L 63.406343 -1 
" style="fill:none;stroke:#000000;stroke-dasharray:1.85,0.8;stroke-dashoffset:0;stroke-width:0.5;"/>
   </g>
   <g id="line2d_2">
    <defs>
     <path d="M 0 3 
C 0.795609 3 1.55874 2.683901 2.12132 2.12132 
C 2.683901 1.55874 3 0.795609 3 0 
C 3 -0.795609 2.683901 -1.55874 2.12132 -2.12132 
C 1.55874 -2.683901 0.795609 -3 0 -3 
C -0.795609 -3 -1.55874 -2.683901 -2.12132 -2.12132 
C -2.683901 -1.55874 -3 -0.795609 -3 0 
C -3 0.795609 -2.683901 1.55874 -2.12132 2.12132 
C -1.55874 2.683901 -0.795609 3 0 3 
z
" id="m0cdc34e127" style="stroke:#000000;"/>
    </defs>
    <g clip-path="url(#pca8219e8d9)">
     <use style="stroke:#000000;" x="29.612515" xlink:href="#m0cdc34e127" y="75.706283"/>
     <use style="stroke:#000000;" x="40.659053" xlink:href="#m0cdc34e127" y="63.374536"/>
     <use style="stroke:#000000;" x="29.549939" xlink:href="#m0cdc34e127" y="74.453335"/>
     <use style="stroke:#000000;" x="32.999771" xlink:href="#m0cdc34e127" y="70.402754"/>
     <use style="stroke:#000000;" x="28.316645" xlink:href="#m0cdc34e127" y="85.426751"/>
     <use style="stroke:#000000;" x="33.999848" xlink:href="#m0cdc34e127" y="71.564405"/>
     <use style="stroke:#000000;" x="27" xlink:href="#m0cdc34e127" y="81.458557"/>
     <use style="stroke:#000000;" x="41.072696" xlink:href="#m0cdc34e127" y="37.212865"/>
     <use style="stroke:#000000;" x="27.335919" xlink:href="#m0cdc34e127" y="80.992759"/>
     <use style="stroke:#000000;" x="28.506909" xlink:href="#m0cdc34e127" y="63.689464"/>
     <use style="stroke:#000000;" x="30.036023" xlink:href="#m0cdc34e127" y="79.550859"/>
     <use style="stroke:#000000;" x="36.57876" xlink:href="#m0cdc34e127" y="69.606785"/>
     <use style="stroke:#000000;" x="31.621408" xlink:href="#m0cdc34e127" y="63.088094"/>
     <use style="stroke:#000000;" x="36.030786" xlink:href="#m0cdc34e127" y="66.928579"/>
     <use style="stroke:#000000;" x="28.133176" xlink:href="#m0cdc34e127" y="87.79976"/>
     <use style="stroke:#000000;" x="32.897375" xlink:href="#m0cdc34e127" y="75.577796"/>
     <use style="stroke:#000000;" x="29.238988" xlink:href="#m0cdc34e127" y="88.913288"/>
     <use style="stroke:#000000;" x="27.472508" xlink:href="#m0cdc34e127" y="90.424647"/>
     <use style="stroke:#000000;" x="28.419621" xlink:href="#m0cdc34e127" y="82.224929"/>
     <use style="stroke:#000000;" x="29.939899" xlink:href="#m0cdc34e127" y="72.086574"/>
     <use style="stroke:#000000;" x="29.705418" xlink:href="#m0cdc34e127" y="64.586694"/>
     <use style="stroke:#000000;" x="32.674155" xlink:href="#m0cdc34e127" y="76.414077"/>
     <use style="stroke:#000000;" x="28.50775" xlink:href="#m0cdc34e127" y="36.979337"/>
     <use style="stroke:#000000;" x="36.713133" xlink:href="#m0cdc34e127" y="32.409143"/>
     <use style="stroke:#000000;" x="27.533502" xlink:href="#m0cdc34e127" y="92.833428"/>
     <use style="stroke:#000000;" x="34.282534" xlink:href="#m0cdc34e127" y="75.091908"/>
     <use style="stroke:#000000;" x="34.670439" xlink:href="#m0cdc34e127" y="71.662622"/>
     <use style="stroke:#000000;" x="34.971695" xlink:href="#m0cdc34e127" y="67.366648"/>
     <use style="stroke:#000000;" x="29.787431" xlink:href="#m0cdc34e127" y="78.642764"/>
     <use style="stroke:#000000;" x="27.479244" xlink:href="#m0cdc34e127" y="91.967584"/>
    </g>
   </g>
   <g id="patch_3">
    <path d="M 27 94.5 
L 27 12.96 
" style="fill:none;stroke:#000000;stroke-linecap:square;stroke-linejoin:miter;"/>
   </g>
   <g id="patch_4">
    <path d="M 27 94.5 
L 103.090909 94.5 
" style="fill:none;stroke:#000000;stroke-linecap:square;stroke-linejoin:miter;"/>
   </g>
   <g id="matplotlib.axis_1">
    <g id="xtick_1">
     <g id="line2d_3"/>
     <g id="text_1">
      <text style="font-family:Arial;font-size:8px;font-style:normal;font-weight:normal;text-anchor:middle;" transform="rotate(-0, 27, 103.72625)" x="27" y="103.72625">0</text>
     </g>
    </g>
    <g id="xtick_2">
     <g id="line2d_4"/>
     <g id="text_2">
      <text style="font-family:Arial;font-size:8px;font-style:normal;font-weight:normal;text-anchor:middle;" transform="rotate(-0, 70.197824, 103.72625)" x="70.197824" y="103.72625">10</text>
     </g>
    </g>
    <g id="text_3">
     <text style="font-family:Arial;font-size:10px;font-style:normal;font-weight:normal;text-anchor:middle;" transform="rotate(-0, 65.045455, 116.474063)" x="65.045455" y="116.474063">Exc</text>
    </g>
   </g>
   <g id="matplotlib.axis_2">
    <g id="ytick_1">
     <g id="line2d_5"/>
     <g id="text_4">
      <text style="font-family:Arial;font-size:8px;font-style:normal;font-weight:normal;text-anchor:end;" transform="rotate(-0, 23.5, 97.363125)" x="23.5" y="97.363125">0</text>
     </g>
    </g>
    <g id="ytick_2">
     <g id="line2d_6"/>
     <g id="text_5">
      <text style="font-family:Arial;font-size:8px;font-style:normal;font-weight:normal;text-anchor:end;" transform="rotate(-0, 23.5, 74.217452)" x="23.5" y="74.217452">5</text>
     </g>
    </g>
    <g id="ytick_3">
     <g id="line2d_7"/>
     <g id="text_6">
      <text style="font-family:Arial;font-size:8px;font-style:normal;font-weight:normal;text-anchor:end;" transform="rotate(-0, 23.5, 51.071779)" x="23.5" y="51.071779">10</text>
     </g>
    </g>
    <g id="ytick_4">
     <g id="line2d_8"/>
     <g id="text_7">
      <text style="font-family:Arial;font-size:8px;font-style:normal;font-weight:normal;text-anchor:end;" transform="rotate(-0, 23.5, 27.926106)" x="23.5" y="27.926106">15</text>
     </g>
    </g>
    <g id="text_8">
     <text style="font-family:Arial;font-size:10px;font-style:normal;font-weight:normal;text-anchor:middle;" transform="rotate(-90, 8.615, 53.73)" x="8.615" y="53.73">Inh</text>
    </g>
   </g>
   <g id="legend_1">
    <g id="line2d_9">
     <path d="M 36 75.622656 
L 56 75.622656 
" style="fill:none;stroke:#000000;stroke-dasharray:1.85,0.8;stroke-dashoffset:0;stroke-width:0.5;"/>
    </g>
    <g id="line2d_10"/>
    <g id="text_9">
     <!-- $R^2$ 0.36 -->
     <g transform="translate(64 72.875)">
      <text>
       <tspan style="font-family:DejaVu Sans;font-size:10px;font-style:oblique;font-weight:oblique;" x="0" y="-0.9765625">R</tspan>
       <tspan style="font-family:DejaVu Sans;font-size:7px;font-style:book;font-weight:book;" x="7.650794" y="-4.8046875">2</tspan>
       <tspan style="font-family:Arial;font-size:10px;font-style:regular;font-weight:regular;" x="12.377845 15.156165 20.717689 23.496009 29.057533" y="-0.9765625"> 0.36</tspan>
      </text>
     </g>
     <text style="font-family:Arial;font-size:10px;font-style:normal;font-weight:normal;" transform="translate(64 83.4875)"> slope 2.14</text>
    </g>
   </g>
  </g>
  <g id="axes_2">
   <g id="patch_5">
    <path d="M 118.309091 94.5 
L 194.4 94.5 
L 194.4 12.96 
L 118.309091 12.96 
z
" style="fill:#ffffff;"/>
   </g>
   <g id="PathCollection_1">
    <defs>
     <path d="M 0 2.44949 
C 0.649612 2.44949 1.272706 2.191396 1.732051 1.732051 
C 2.191396 1.272706 2.44949 0.649612 2.44949 0 
C 2.44949 -0.649612 2.191396 -1.272706 1.732051 -1.732051 
C 1.272706 -2.191396 0.649612 -2.44949 0 -2.44949 
C -0.649612 -2.44949 -1.272706 -2.191396 -1.732051 -1.732051 
C -2.191396 -1.272706 -2.44949 -0.649612 -2.44949 0 
C -2.44949 0.649612 -2.191396 1.272706 -1.732051 1.732051 
C -1.272706 2.191396 -0.649612 2.44949 0 2.44949 
z
" id="m1d271ceb1f" style="stroke:#000000;"/>
    </defs>
    <g clip-path="url(#p150cd7b3bc)">
     <use style="stroke:#000000;" x="129.402619" xlink:href="#m1d271ceb1f" y="82.149441"/>
     <use style="stroke:#000000;" x="158.137933" xlink:href="#m1d271ceb1f" y="55.636967"/>
     <use style="stroke:#000000;" x="133.539799" xlink:href="#m1d271ceb1f" y="78.876977"/>
     <use style="stroke:#000000;" x="136.087977" xlink:href="#m1d271ceb1f" y="69.227459"/>
     <use style="stroke:#000000;" x="124.04223" xlink:href="#m1d271ceb1f" y="84.166378"/>
     <use style="stroke:#000000;" x="132.346078" xlink:href="#m1d271ceb1f" y="85.904937"/>
     <use style="stroke:#000000;" x="118.309091" xlink:href="#m1d271ceb1f" y="82.578498"/>
     <use style="stroke:#000000;" x="162.772488" xlink:href="#m1d271ceb1f" y="75.948459"/>
     <use style="stroke:#000000;" x="121.481546" xlink:href="#m1d271ceb1f" y="72.523531"/>
     <use style="stroke:#000000;" x="126.266476" xlink:href="#m1d271ceb1f" y="45.706018"/>
     <use style="stroke:#000000;" x="138.066477" xlink:href="#m1d271ceb1f" y="73.878309"/>
     <use style="stroke:#000000;" x="146.138194" xlink:href="#m1d271ceb1f" y="73.997499"/>
     <use style="stroke:#000000;" x="140.631846" xlink:href="#m1d271ceb1f" y="68.98163"/>
     <use style="stroke:#000000;" x="153.552787" xlink:href="#m1d271ceb1f" y="73.604007"/>
     <use style="stroke:#000000;" x="126.117407" xlink:href="#m1d271ceb1f" y="88.560732"/>
     <use style="stroke:#000000;" x="132.338324" xlink:href="#m1d271ceb1f" y="75.257231"/>
     <use style="stroke:#000000;" x="125.26715" xlink:href="#m1d271ceb1f" y="89.209956"/>
     <use style="stroke:#000000;" x="122.771499" xlink:href="#m1d271ceb1f" y="88.524302"/>
     <use style="stroke:#000000;" x="122.077427" xlink:href="#m1d271ceb1f" y="81.52784"/>
     <use style="stroke:#000000;" x="132.855949" xlink:href="#m1d271ceb1f" y="79.278537"/>
     <use style="stroke:#000000;" x="131.380609" xlink:href="#m1d271ceb1f" y="75.548458"/>
     <use style="stroke:#000000;" x="131.017969" xlink:href="#m1d271ceb1f" y="85.875578"/>
     <use style="stroke:#000000;" x="124.711366" xlink:href="#m1d271ceb1f" y="16.892286"/>
     <use style="stroke:#000000;" x="182.308585" xlink:href="#m1d271ceb1f" y="74.509203"/>
     <use style="stroke:#000000;" x="123.347537" xlink:href="#m1d271ceb1f" y="87.461187"/>
     <use style="stroke:#000000;" x="153.363958" xlink:href="#m1d271ceb1f" y="74.139394"/>
     <use style="stroke:#000000;" x="148.193764" xlink:href="#m1d271ceb1f" y="76.169483"/>
     <use style="stroke:#000000;" x="146.68687" xlink:href="#m1d271ceb1f" y="75.475846"/>
     <use style="stroke:#000000;" x="131.471725" xlink:href="#m1d271ceb1f" y="74.842738"/>
     <use style="stroke:#000000;" x="121.309931" xlink:href="#m1d271ceb1f" y="91.114747"/>
    </g>
   </g>
   <g id="line2d_11">
    <path clip-path="url(#p150cd7b3bc)" d="M 118.309091 77.657982 
L 119.077686 77.552668 
L 119.846281 77.447355 
L 120.614876 77.342042 
L 121.383471 77.236728 
L 122.152066 77.131415 
L 122.920661 77.026102 
L 123.689256 76.920789 
L 124.457851 76.815475 
L 125.226446 76.710162 
L 125.995041 76.604849 
L 126.763636 76.499536 
L 127.532231 76.394222 
L 128.300826 76.288909 
L 129.069421 76.183596 
L 129.838017 76.078283 
L 130.606612 75.972969 
L 131.375207 75.867656 
L 132.143802 75.762343 
L 132.912397 75.65703 
L 133.680992 75.551716 
L 134.449587 75.446403 
L 135.218182 75.34109 
L 135.986777 75.235777 
L 136.755372 75.130463 
L 137.523967 75.02515 
L 138.292562 74.919837 
L 139.061157 74.814524 
L 139.829752 74.70921 
L 140.598347 74.603897 
L 141.366942 74.498584 
L 142.135537 74.393271 
L 142.904132 74.287957 
L 143.672727 74.182644 
L 144.441322 74.077331 
L 145.209917 73.972018 
L 145.978512 73.866704 
L 146.747107 73.761391 
L 147.515702 73.656078 
L 148.284298 73.550765 
L 149.052893 73.445451 
L 149.821488 73.340138 
L 150.590083 73.234825 
L 151.358678 73.129512 
L 152.127273 73.024198 
L 152.895868 72.918885 
L 153.664463 72.813572 
L 154.433058 72.708258 
L 155.201653 72.602945 
L 155.970248 72.497632 
L 156.738843 72.392319 
L 157.507438 72.287005 
L 158.276033 72.181692 
L 159.044628 72.076379 
L 159.813223 71.971066 
L 160.581818 71.865752 
L 161.350413 71.760439 
L 162.119008 71.655126 
L 162.887603 71.549813 
L 163.656198 71.444499 
L 164.424793 71.339186 
L 165.193388 71.233873 
L 165.961983 71.12856 
L 166.730579 71.023246 
L 167.499174 70.917933 
L 168.267769 70.81262 
L 169.036364 70.707307 
L 169.804959 70.601993 
L 170.573554 70.49668 
L 171.342149 70.391367 
L 172.110744 70.286054 
L 172.879339 70.18074 
L 173.647934 70.075427 
L 174.416529 69.970114 
L 175.185124 69.864801 
L 175.953719 69.759487 
L 176.722314 69.654174 
L 177.490909 69.548861 
L 178.259504 69.443548 
L 179.028099 69.338234 
L 179.796694 69.232921 
L 180.565289 69.127608 
L 181.333884 69.022295 
L 182.102479 68.916981 
L 182.871074 68.811668 
L 183.639669 68.706355 
L 184.408264 68.601042 
L 185.17686 68.495728 
L 185.945455 68.390415 
L 186.71405 68.285102 
L 187.482645 68.179788 
L 188.25124 68.074475 
L 189.019835 67.969162 
L 189.78843 67.863849 
L 190.557025 67.758535 
L 191.32562 67.653222 
L 192.094215 67.547909 
L 192.86281 67.442596 
L 193.631405 67.337282 
L 194.4 67.231969 
" style="fill:none;stroke:#000000;stroke-dasharray:1.85,0.8;stroke-dashoffset:0;stroke-width:0.5;"/>
   </g>
   <g id="patch_6">
    <path d="M 118.309091 94.5 
L 118.309091 12.96 
" style="fill:none;stroke:#000000;stroke-linecap:square;stroke-linejoin:miter;"/>
   </g>
   <g id="patch_7">
    <path d="M 118.309091 94.5 
L 194.4 94.5 
" style="fill:none;stroke:#000000;stroke-linecap:square;stroke-linejoin:miter;"/>
   </g>
   <g id="matplotlib.axis_3">
    <g id="xtick_3">
     <g id="line2d_12"/>
     <g id="text_10">
      <text style="font-family:Arial;font-size:8px;font-style:normal;font-weight:normal;text-anchor:middle;" transform="rotate(-0, 118.309091, 103.72625)" x="118.309091" y="103.72625">0</text>
     </g>
    </g>
    <g id="xtick_4">
     <g id="line2d_13"/>
     <g id="text_11">
      <text style="font-family:Arial;font-size:8px;font-style:normal;font-weight:normal;text-anchor:middle;" transform="rotate(-0, 151.619242, 103.72625)" x="151.619242" y="103.72625">2</text>
     </g>
    </g>
    <g id="xtick_5">
     <g id="line2d_14"/>
     <g id="text_12">
      <text style="font-family:Arial;font-size:8px;font-style:normal;font-weight:normal;text-anchor:middle;" transform="rotate(-0, 184.929393, 103.72625)" x="184.929393" y="103.72625">4</text>
     </g>
    </g>
    <g id="text_13">
     <!-- $\sigma$(Exc) -->
     <g transform="translate(141.504545 116.61625)">
      <text>
       <tspan style="font-family:DejaVu Sans;font-size:10px;font-style:oblique;font-weight:oblique;" x="0" y="-0.71875">σ</tspan>
       <tspan style="font-family:Arial;font-size:10px;font-style:regular;font-weight:regular;" x="6.337891 9.667969 16.337891 21.337891 26.337891" y="-0.71875">(Exc)</tspan>
      </text>
     </g>
    </g>
   </g>
   <g id="matplotlib.axis_4">
    <g id="ytick_5">
     <g id="line2d_15"/>
     <g id="text_14">
      <text style="font-family:Arial;font-size:8px;font-style:normal;font-weight:normal;text-anchor:end;" transform="rotate(-0, 114.809091, 97.363125)" x="114.809091" y="97.363125">0</text>
     </g>
    </g>
    <g id="ytick_6">
     <g id="line2d_16"/>
     <g id="text_15">
      <text style="font-family:Arial;font-size:8px;font-style:normal;font-weight:normal;text-anchor:end;" transform="rotate(-0, 114.809091, 79.515331)" x="114.809091" y="79.515331">1</text>
     </g>
    </g>
    <g id="ytick_7">
     <g id="line2d_17"/>
     <g id="text_16">
      <text style="font-family:Arial;font-size:8px;font-style:normal;font-weight:normal;text-anchor:end;" transform="rotate(-0, 114.809091, 61.667537)" x="114.809091" y="61.667537">2</text>
     </g>
    </g>
    <g id="ytick_8">
     <g id="line2d_18"/>
     <g id="text_17">
      <text style="font-family:Arial;font-size:8px;font-style:normal;font-weight:normal;text-anchor:end;" transform="rotate(-0, 114.809091, 43.819744)" x="114.809091" y="43.819744">3</text>
     </g>
    </g>
    <g id="ytick_9">
     <g id="line2d_19"/>
     <g id="text_18">
      <text style="font-family:Arial;font-size:8px;font-style:normal;font-weight:normal;text-anchor:end;" transform="rotate(-0, 114.809091, 25.97195)" x="114.809091" y="25.97195">4</text>
     </g>
    </g>
    <g id="text_19">
     <!-- $\sigma$(Inh) -->
     <g transform="translate(104.160341 67.18)rotate(-90)">
      <text>
       <tspan style="font-family:DejaVu Sans;font-size:10px;font-style:oblique;font-weight:oblique;" x="0" y="-0.71875">σ</tspan>
       <tspan style="font-family:Arial;font-size:10px;font-style:regular;font-weight:regular;" x="6.337891 9.667969 12.446289 18.007812 23.569336" y="-0.71875">(Inh)</tspan>
      </text>
     </g>
    </g>
   </g>
   <g id="legend_2">
    <g id="line2d_20">
     <path d="M 108.478125 31.995156 
L 128.478125 31.995156 
" style="fill:none;stroke:#000000;stroke-dasharray:1.85,0.8;stroke-dashoffset:0;stroke-width:0.5;"/>
    </g>
    <g id="line2d_21"/>
    <g id="text_20">
     <!-- $R^2$ 0.02 -->
     <g transform="translate(136.478125 29.2475)">
      <text>
       <tspan style="font-family:DejaVu Sans;font-size:10px;font-style:oblique;font-weight:oblique;" x="0" y="-0.9765625">R</tspan>
       <tspan style="font-family:DejaVu Sans;font-size:7px;font-style:book;font-weight:book;" x="7.650794" y="-4.8046875">2</tspan>
       <tspan style="font-family:Arial;font-size:10px;font-style:regular;font-weight:regular;" x="12.377845 15.156165 20.717689 23.496009 29.057533" y="-0.9765625"> 0.02</tspan>
      </text>
     </g>
     <text style="font-family:Arial;font-size:10px;font-style:normal;font-weight:normal;" transform="translate(136.478125 39.86)"> slope 0.13</text>
    </g>
   </g>
  </g>
 </g>
 <defs>
  <clipPath id="pca8219e8d9">
   <rect height="81.54" width="76.090909" x="27" y="12.96"/>
  </clipPath>
  <clipPath id="p150cd7b3bc">
   <rect height="81.54" width="76.090909" x="118.309091" y="12.96"/>
  </clipPath>
 </defs>
</svg>
