<?xml version="1.0" encoding="utf-8" standalone="no"?>
<!DOCTYPE svg PUBLIC "-//W3C//DTD SVG 1.1//EN"
  "http://www.w3.org/Graphics/SVG/1.1/DTD/svg11.dtd">
<!-- Created with matplotlib (http://matplotlib.org/) -->
<svg height="108pt" version="1.1" viewBox="0 0 216 108" width="216pt" xmlns="http://www.w3.org/2000/svg" xmlns:xlink="http://www.w3.org/1999/xlink">
 <defs>
  <style type="text/css">
*{stroke-linecap:butt;stroke-linejoin:round;}
  </style>
 </defs>
 <g id="figure_1">
  <g id="patch_1">
   <path d="M 0 108 
L 216 108 
L 216 0 
L 0 0 
z
" style="fill:#ffffff;"/>
  </g>
  <g id="axes_1">
   <g id="patch_2">
    <path d="M 27 94.5 
L 103.090909 94.5 
L 103.090909 12.96 
L 27 12.96 
z
" style="fill:#ffffff;"/>
   </g>
   <g id="LineCollection_1">
    <path clip-path="url(#p77930d83dd)" d="M 24.55334 76.657606 
L 39.581795 76.657606 
" style="fill:none;stroke:#000000;stroke-width:0.5;"/>
    <path clip-path="url(#p77930d83dd)" d="M 27.791242 88.573275 
L 30.349424 88.573275 
" style="fill:none;stroke:#000000;stroke-width:0.5;"/>
    <path clip-path="url(#p77930d83dd)" d="M 26.766477 93.614987 
L 28.083947 93.614987 
" style="fill:none;stroke:#000000;stroke-width:0.5;"/>
    <path clip-path="url(#p77930d83dd)" d="M 27.943431 48.426338 
L 40.67575 48.426338 
" style="fill:none;stroke:#000000;stroke-width:0.5;"/>
    <path clip-path="url(#p77930d83dd)" d="M 26.927081 69.946649 
L 30.665677 69.946649 
" style="fill:none;stroke:#000000;stroke-width:0.5;"/>
    <path clip-path="url(#p77930d83dd)" d="M 29.133926 58.781268 
L 44.330642 58.781268 
" style="fill:none;stroke:#000000;stroke-width:0.5;"/>
    <path clip-path="url(#p77930d83dd)" d="M 24.896874 66.499207 
L 38.876055 66.499207 
" style="fill:none;stroke:#000000;stroke-width:0.5;"/>
    <path clip-path="url(#p77930d83dd)" d="M 25.05312 69.204887 
L 46.513515 69.204887 
" style="fill:none;stroke:#000000;stroke-width:0.5;"/>
    <path clip-path="url(#p77930d83dd)" d="M 27.740407 80.657527 
L 33.911263 80.657527 
" style="fill:none;stroke:#000000;stroke-width:0.5;"/>
    <path clip-path="url(#p77930d83dd)" d="M 26.301715 77.633688 
L 42.330472 77.633688 
" style="fill:none;stroke:#000000;stroke-width:0.5;"/>
    <path clip-path="url(#p77930d83dd)" d="M 27.535525 32.173135 
L 70.231629 32.173135 
" style="fill:none;stroke:#000000;stroke-width:0.5;"/>
    <path clip-path="url(#p77930d83dd)" d="M 25.666265 61.244392 
L 39.31513 61.244392 
" style="fill:none;stroke:#000000;stroke-width:0.5;"/>
    <path clip-path="url(#p77930d83dd)" d="M 27.229784 77.391475 
L 35.094317 77.391475 
" style="fill:none;stroke:#000000;stroke-width:0.5;"/>
    <path clip-path="url(#p77930d83dd)" d="M 25.360566 81.759043 
L 30.901518 81.759043 
" style="fill:none;stroke:#000000;stroke-width:0.5;"/>
    <path clip-path="url(#p77930d83dd)" d="M 28.122325 73.313923 
L 39.092023 73.313923 
" style="fill:none;stroke:#000000;stroke-width:0.5;"/>
    <path clip-path="url(#p77930d83dd)" d="M 29.879352 69.293613 
L 36.834864 69.293613 
" style="fill:none;stroke:#000000;stroke-width:0.5;"/>
    <path clip-path="url(#p77930d83dd)" d="M 25.106052 82.986649 
L 33.001376 82.986649 
" style="fill:none;stroke:#000000;stroke-width:0.5;"/>
    <path clip-path="url(#p77930d83dd)" d="M 30.762053 72.746199 
L 43.714721 72.746199 
" style="fill:none;stroke:#000000;stroke-width:0.5;"/>
    <path clip-path="url(#p77930d83dd)" d="M 26.507609 71.201775 
L 39.614832 71.201775 
" style="fill:none;stroke:#000000;stroke-width:0.5;"/>
    <path clip-path="url(#p77930d83dd)" d="M 28.939437 74.70568 
L 35.327829 74.70568 
" style="fill:none;stroke:#000000;stroke-width:0.5;"/>
    <path clip-path="url(#p77930d83dd)" d="M 30.707881 73.19705 
L 37.774225 73.19705 
" style="fill:none;stroke:#000000;stroke-width:0.5;"/>
    <path clip-path="url(#p77930d83dd)" d="M 18.821179 47.472487 
L 54.263531 47.472487 
" style="fill:none;stroke:#000000;stroke-width:0.5;"/>
    <path clip-path="url(#p77930d83dd)" d="M 28.592224 80.665579 
L 33.648273 80.665579 
" style="fill:none;stroke:#000000;stroke-width:0.5;"/>
    <path clip-path="url(#p77930d83dd)" d="M 25.259433 78.594941 
L 34.930278 78.594941 
" style="fill:none;stroke:#000000;stroke-width:0.5;"/>
    <path clip-path="url(#p77930d83dd)" d="M 31.284112 53.593585 
L 40.365537 53.593585 
" style="fill:none;stroke:#000000;stroke-width:0.5;"/>
    <path clip-path="url(#p77930d83dd)" d="M 24.737868 27.17379 
L 46.19463 27.17379 
" style="fill:none;stroke:#000000;stroke-width:0.5;"/>
    <path clip-path="url(#p77930d83dd)" d="M 26.360617 73.539227 
L 36.514232 73.539227 
" style="fill:none;stroke:#000000;stroke-width:0.5;"/>
    <path clip-path="url(#p77930d83dd)" d="M 25.074666 88.730547 
L 31.581902 88.730547 
" style="fill:none;stroke:#000000;stroke-width:0.5;"/>
    <path clip-path="url(#p77930d83dd)" d="M 23.156582 66.987508 
L 44.840012 66.987508 
" style="fill:none;stroke:#000000;stroke-width:0.5;"/>
    <path clip-path="url(#p77930d83dd)" d="M 26.766891 90.200832 
L 32.117775 90.200832 
" style="fill:none;stroke:#000000;stroke-width:0.5;"/>
   </g>
   <g id="LineCollection_2">
    <path clip-path="url(#p77930d83dd)" d="M 32.067568 81.205473 
L 32.067568 72.109739 
" style="fill:none;stroke:#000000;stroke-width:0.5;"/>
    <path clip-path="url(#p77930d83dd)" d="M 29.070333 90.534893 
L 29.070333 86.611657 
" style="fill:none;stroke:#000000;stroke-width:0.5;"/>
    <path clip-path="url(#p77930d83dd)" d="M 27.425212 94.300515 
L 27.425212 92.929458 
" style="fill:none;stroke:#000000;stroke-width:0.5;"/>
    <path clip-path="url(#p77930d83dd)" d="M 34.309591 52.871194 
L 34.309591 43.981481 
" style="fill:none;stroke:#000000;stroke-width:0.5;"/>
    <path clip-path="url(#p77930d83dd)" d="M 28.796379 81.633933 
L 28.796379 58.259365 
" style="fill:none;stroke:#000000;stroke-width:0.5;"/>
    <path clip-path="url(#p77930d83dd)" d="M 36.732284 70.550188 
L 36.732284 47.012348 
" style="fill:none;stroke:#000000;stroke-width:0.5;"/>
    <path clip-path="url(#p77930d83dd)" d="M 31.886464 75.115942 
L 31.886464 57.882473 
" style="fill:none;stroke:#000000;stroke-width:0.5;"/>
    <path clip-path="url(#p77930d83dd)" d="M 35.783317 75.77986 
L 35.783317 62.629914 
" style="fill:none;stroke:#000000;stroke-width:0.5;"/>
    <path clip-path="url(#p77930d83dd)" d="M 30.825835 85.117628 
L 30.825835 76.197425 
" style="fill:none;stroke:#000000;stroke-width:0.5;"/>
    <path clip-path="url(#p77930d83dd)" d="M 34.316093 78.179236 
L 34.316093 77.08814 
" style="fill:none;stroke:#000000;stroke-width:0.5;"/>
    <path clip-path="url(#p77930d83dd)" d="M 48.883577 47.512912 
L 48.883577 16.833358 
" style="fill:none;stroke:#000000;stroke-width:0.5;"/>
    <path clip-path="url(#p77930d83dd)" d="M 32.490698 71.625981 
L 32.490698 50.862803 
" style="fill:none;stroke:#000000;stroke-width:0.5;"/>
    <path clip-path="url(#p77930d83dd)" d="M 31.162051 81.584595 
L 31.162051 73.198355 
" style="fill:none;stroke:#000000;stroke-width:0.5;"/>
    <path clip-path="url(#p77930d83dd)" d="M 28.131042 85.806352 
L 28.131042 77.711734 
" style="fill:none;stroke:#000000;stroke-width:0.5;"/>
    <path clip-path="url(#p77930d83dd)" d="M 33.607174 80.544776 
L 33.607174 66.083069 
" style="fill:none;stroke:#000000;stroke-width:0.5;"/>
    <path clip-path="url(#p77930d83dd)" d="M 33.357108 71.73528 
L 33.357108 66.851947 
" style="fill:none;stroke:#000000;stroke-width:0.5;"/>
    <path clip-path="url(#p77930d83dd)" d="M 29.053714 87.314174 
L 29.053714 78.659125 
" style="fill:none;stroke:#000000;stroke-width:0.5;"/>
    <path clip-path="url(#p77930d83dd)" d="M 37.238387 82.426858 
L 37.238387 63.065539 
" style="fill:none;stroke:#000000;stroke-width:0.5;"/>
    <path clip-path="url(#p77930d83dd)" d="M 33.06122 80.351991 
L 33.06122 62.051559 
" style="fill:none;stroke:#000000;stroke-width:0.5;"/>
    <path clip-path="url(#p77930d83dd)" d="M 32.133633 77.881525 
L 32.133633 71.529835 
" style="fill:none;stroke:#000000;stroke-width:0.5;"/>
    <path clip-path="url(#p77930d83dd)" d="M 34.241053 79.760464 
L 34.241053 66.633635 
" style="fill:none;stroke:#000000;stroke-width:0.5;"/>
    <path clip-path="url(#p77930d83dd)" d="M 36.542355 73.216375 
L 36.542355 21.728598 
" style="fill:none;stroke:#000000;stroke-width:0.5;"/>
    <path clip-path="url(#p77930d83dd)" d="M 31.120249 85.340919 
L 31.120249 75.990239 
" style="fill:none;stroke:#000000;stroke-width:0.5;"/>
    <path clip-path="url(#p77930d83dd)" d="M 30.094856 84.313652 
L 30.094856 72.876231 
" style="fill:none;stroke:#000000;stroke-width:0.5;"/>
    <path clip-path="url(#p77930d83dd)" d="M 35.824824 60.947562 
L 35.824824 46.239607 
" style="fill:none;stroke:#000000;stroke-width:0.5;"/>
    <path clip-path="url(#p77930d83dd)" d="M 35.466249 33.140096 
L 35.466249 21.207485 
" style="fill:none;stroke:#000000;stroke-width:0.5;"/>
    <path clip-path="url(#p77930d83dd)" d="M 31.437424 79.583385 
L 31.437424 67.49507 
" style="fill:none;stroke:#000000;stroke-width:0.5;"/>
    <path clip-path="url(#p77930d83dd)" d="M 28.328284 93.199546 
L 28.328284 84.261548 
" style="fill:none;stroke:#000000;stroke-width:0.5;"/>
    <path clip-path="url(#p77930d83dd)" d="M 33.998297 77.993563 
L 33.998297 55.981452 
" style="fill:none;stroke:#000000;stroke-width:0.5;"/>
    <path clip-path="url(#p77930d83dd)" d="M 29.442333 92.306985 
L 29.442333 88.094678 
" style="fill:none;stroke:#000000;stroke-width:0.5;"/>
   </g>
   <g id="line2d_1">
    <path clip-path="url(#p77930d83dd)" d="M 27 87.629998 
L 27.768595 85.361375 
L 28.53719 83.092752 
L 29.305785 80.824129 
L 30.07438 78.555506 
L 30.842975 76.286883 
L 31.61157 74.01826 
L 32.380165 71.749637 
L 33.14876 69.481014 
L 33.917355 67.212391 
L 34.68595 64.943768 
L 35.454545 62.675145 
L 36.22314 60.406522 
L 36.991736 58.137899 
L 37.760331 55.869276 
L 38.528926 53.600653 
L 39.297521 51.33203 
L 40.066116 49.063407 
L 40.834711 46.794784 
L 41.603306 44.526161 
L 42.371901 42.257538 
L 43.140496 39.988915 
L 43.909091 37.720292 
L 44.677686 35.451669 
L 45.446281 33.183046 
L 46.214876 30.914423 
L 46.983471 28.6458 
L 47.752066 26.377177 
L 48.520661 24.108554 
L 49.289256 21.839931 
L 50.057851 19.571308 
L 50.826446 17.302685 
L 51.595041 15.034062 
L 52.363636 12.765438 
L 53.132231 10.496815 
L 53.900826 8.228192 
L 54.669421 5.959569 
L 55.438017 3.690946 
L 56.206612 1.422323 
L 56.975207 -0.8463 
L 57.027279 -1 
" style="fill:none;stroke:#000000;stroke-dasharray:1.85,0.8;stroke-dashoffset:0;stroke-width:0.5;"/>
   </g>
   <g id="line2d_2">
    <defs>
     <path d="M 0 3 
C 0.795609 3 1.55874 2.683901 2.12132 2.12132 
C 2.683901 1.55874 3 0.795609 3 0 
C 3 -0.795609 2.683901 -1.55874 2.12132 -2.12132 
C 1.55874 -2.683901 0.795609 -3 0 -3 
C -0.795609 -3 -1.55874 -2.683901 -2.12132 -2.12132 
C -2.683901 -1.55874 -3 -0.795609 -3 0 
C -3 0.795609 -2.683901 1.55874 -2.12132 2.12132 
C -1.55874 2.683901 -0.795609 3 0 3 
z
" id="maab6570d89" style="stroke:#000000;"/>
    </defs>
    <g clip-path="url(#p77930d83dd)">
     <use style="stroke:#000000;" x="32.067568" xlink:href="#maab6570d89" y="76.657606"/>
     <use style="stroke:#000000;" x="29.070333" xlink:href="#maab6570d89" y="88.573275"/>
     <use style="stroke:#000000;" x="27.425212" xlink:href="#maab6570d89" y="93.614987"/>
     <use style="stroke:#000000;" x="34.309591" xlink:href="#maab6570d89" y="48.426338"/>
     <use style="stroke:#000000;" x="28.796379" xlink:href="#maab6570d89" y="69.946649"/>
     <use style="stroke:#000000;" x="36.732284" xlink:href="#maab6570d89" y="58.781268"/>
     <use style="stroke:#000000;" x="31.886464" xlink:href="#maab6570d89" y="66.499207"/>
     <use style="stroke:#000000;" x="35.783317" xlink:href="#maab6570d89" y="69.204887"/>
     <use style="stroke:#000000;" x="30.825835" xlink:href="#maab6570d89" y="80.657527"/>
     <use style="stroke:#000000;" x="34.316093" xlink:href="#maab6570d89" y="77.633688"/>
     <use style="stroke:#000000;" x="48.883577" xlink:href="#maab6570d89" y="32.173135"/>
     <use style="stroke:#000000;" x="32.490698" xlink:href="#maab6570d89" y="61.244392"/>
     <use style="stroke:#000000;" x="31.162051" xlink:href="#maab6570d89" y="77.391475"/>
     <use style="stroke:#000000;" x="28.131042" xlink:href="#maab6570d89" y="81.759043"/>
     <use style="stroke:#000000;" x="33.607174" xlink:href="#maab6570d89" y="73.313923"/>
     <use style="stroke:#000000;" x="33.357108" xlink:href="#maab6570d89" y="69.293613"/>
     <use style="stroke:#000000;" x="29.053714" xlink:href="#maab6570d89" y="82.986649"/>
     <use style="stroke:#000000;" x="37.238387" xlink:href="#maab6570d89" y="72.746199"/>
     <use style="stroke:#000000;" x="33.06122" xlink:href="#maab6570d89" y="71.201775"/>
     <use style="stroke:#000000;" x="32.133633" xlink:href="#maab6570d89" y="74.70568"/>
     <use style="stroke:#000000;" x="34.241053" xlink:href="#maab6570d89" y="73.19705"/>
     <use style="stroke:#000000;" x="36.542355" xlink:href="#maab6570d89" y="47.472487"/>
     <use style="stroke:#000000;" x="31.120249" xlink:href="#maab6570d89" y="80.665579"/>
     <use style="stroke:#000000;" x="30.094856" xlink:href="#maab6570d89" y="78.594941"/>
     <use style="stroke:#000000;" x="35.824824" xlink:href="#maab6570d89" y="53.593585"/>
     <use style="stroke:#000000;" x="35.466249" xlink:href="#maab6570d89" y="27.17379"/>
     <use style="stroke:#000000;" x="31.437424" xlink:href="#maab6570d89" y="73.539227"/>
     <use style="stroke:#000000;" x="28.328284" xlink:href="#maab6570d89" y="88.730547"/>
     <use style="stroke:#000000;" x="33.998297" xlink:href="#maab6570d89" y="66.987508"/>
     <use style="stroke:#000000;" x="29.442333" xlink:href="#maab6570d89" y="90.200832"/>
    </g>
   </g>
   <g id="patch_3">
    <path d="M 27 94.5 
L 27 12.96 
" style="fill:none;stroke:#000000;stroke-linecap:square;stroke-linejoin:miter;"/>
   </g>
   <g id="patch_4">
    <path d="M 27 94.5 
L 103.090909 94.5 
" style="fill:none;stroke:#000000;stroke-linecap:square;stroke-linejoin:miter;"/>
   </g>
   <g id="matplotlib.axis_1">
    <g id="xtick_1">
     <g id="line2d_3"/>
     <g id="text_1">
      <text style="font-family:Arial;font-size:8px;font-style:normal;font-weight:normal;text-anchor:middle;" transform="rotate(-0, 27, 103.72625)" x="27" y="103.72625">0</text>
     </g>
    </g>
    <g id="xtick_2">
     <g id="line2d_4"/>
     <g id="text_2">
      <text style="font-family:Arial;font-size:8px;font-style:normal;font-weight:normal;text-anchor:middle;" transform="rotate(-0, 56.273468, 103.72625)" x="56.273468" y="103.72625">5</text>
     </g>
    </g>
    <g id="xtick_3">
     <g id="line2d_5"/>
     <g id="text_3">
      <text style="font-family:Arial;font-size:8px;font-style:normal;font-weight:normal;text-anchor:middle;" transform="rotate(-0, 85.546936, 103.72625)" x="85.546936" y="103.72625">10</text>
     </g>
    </g>
    <g id="text_4">
     <text style="font-family:Arial;font-size:10px;font-style:normal;font-weight:normal;text-anchor:middle;" transform="rotate(-0, 65.045455, 116.474063)" x="65.045455" y="116.474063">Exc</text>
    </g>
   </g>
   <g id="matplotlib.axis_2">
    <g id="ytick_1">
     <g id="line2d_6"/>
     <g id="text_5">
      <text style="font-family:Arial;font-size:8px;font-style:normal;font-weight:normal;text-anchor:end;" transform="rotate(-0, 23.5, 97.363125)" x="23.5" y="97.363125">0</text>
     </g>
    </g>
    <g id="ytick_2">
     <g id="line2d_7"/>
     <g id="text_6">
      <text style="font-family:Arial;font-size:8px;font-style:normal;font-weight:normal;text-anchor:end;" transform="rotate(-0, 23.5, 65.993299)" x="23.5" y="65.993299">5</text>
     </g>
    </g>
    <g id="ytick_3">
     <g id="line2d_8"/>
     <g id="text_7">
      <text style="font-family:Arial;font-size:8px;font-style:normal;font-weight:normal;text-anchor:end;" transform="rotate(-0, 23.5, 34.623472)" x="23.5" y="34.623472">10</text>
     </g>
    </g>
    <g id="text_8">
     <text style="font-family:Arial;font-size:10px;font-style:normal;font-weight:normal;text-anchor:middle;" transform="rotate(-90, 8.615, 53.73)" x="8.615" y="53.73">Inh</text>
    </g>
   </g>
   <g id="legend_1">
    <g id="line2d_9">
     <path d="M 17.169034 31.995156 
L 37.169034 31.995156 
" style="fill:none;stroke:#000000;stroke-dasharray:1.85,0.8;stroke-dashoffset:0;stroke-width:0.5;"/>
    </g>
    <g id="line2d_10"/>
    <g id="text_9">
     <!-- $R^2$ 0.59 -->
     <g transform="translate(45.169034 29.2475)">
      <text>
       <tspan style="font-family:DejaVu Sans;font-size:10px;font-style:oblique;font-weight:oblique;" x="0" y="-0.9765625">R</tspan>
       <tspan style="font-family:DejaVu Sans;font-size:7px;font-style:book;font-weight:book;" x="7.650794" y="-4.8046875">2</tspan>
       <tspan style="font-family:Arial;font-size:10px;font-style:regular;font-weight:regular;" x="12.377845 15.156165 20.717689 23.496009 29.057533" y="-0.9765625"> 0.59</tspan>
      </text>
     </g>
     <text style="font-family:Arial;font-size:10px;font-style:normal;font-weight:normal;" transform="translate(45.169034 39.86)"> slope 2.75</text>
    </g>
   </g>
  </g>
  <g id="axes_2">
   <g id="patch_5">
    <path d="M 118.309091 94.5 
L 194.4 94.5 
L 194.4 12.96 
L 118.309091 12.96 
z
" style="fill:#ffffff;"/>
   </g>
   <g id="PathCollection_1">
    <defs>
     <path d="M 0 2.44949 
C 0.649612 2.44949 1.272706 2.191396 1.732051 1.732051 
C 2.191396 1.272706 2.44949 0.649612 2.44949 0 
C 2.44949 -0.649612 2.191396 -1.272706 1.732051 -1.732051 
C 1.272706 -2.191396 0.649612 -2.44949 0 -2.44949 
C -0.649612 -2.44949 -1.272706 -2.191396 -1.732051 -1.732051 
C -2.191396 -1.272706 -2.44949 -0.649612 -2.44949 0 
C -2.44949 0.649612 -2.191396 1.272706 -1.732051 1.732051 
C -1.272706 2.191396 -0.649612 2.44949 0 2.44949 
z
" id="m6acec8295f" style="stroke:#000000;"/>
    </defs>
    <g clip-path="url(#p6847a12f54)">
     <use style="stroke:#000000;" x="140.933724" xlink:href="#m6acec8295f" y="80.8068"/>
     <use style="stroke:#000000;" x="122.160314" xlink:href="#m6acec8295f" y="88.593753"/>
     <use style="stroke:#000000;" x="120.29248" xlink:href="#m6acec8295f" y="92.435938"/>
     <use style="stroke:#000000;" x="137.476997" xlink:href="#m6acec8295f" y="81.116955"/>
     <use style="stroke:#000000;" x="123.937372" xlink:href="#m6acec8295f" y="59.310686"/>
     <use style="stroke:#000000;" x="141.187032" xlink:href="#m6acec8295f" y="59.064888"/>
     <use style="stroke:#000000;" x="139.354091" xlink:href="#m6acec8295f" y="68.555823"/>
     <use style="stroke:#000000;" x="150.616707" xlink:href="#m6acec8295f" y="74.703374"/>
     <use style="stroke:#000000;" x="127.599024" xlink:href="#m6acec8295f" y="81.071054"/>
     <use style="stroke:#000000;" x="142.439631" xlink:href="#m6acec8295f" y="92.857406"/>
     <use style="stroke:#000000;" x="182.586068" xlink:href="#m6acec8295f" y="48.313374"/>
     <use style="stroke:#000000;" x="138.856816" xlink:href="#m6acec8295f" y="63.242012"/>
     <use style="stroke:#000000;" x="130.148776" xlink:href="#m6acec8295f" y="81.87491"/>
     <use style="stroke:#000000;" x="126.650733" xlink:href="#m6acec8295f" y="82.313933"/>
     <use style="stroke:#000000;" x="134.823454" xlink:href="#m6acec8295f" y="72.72858"/>
     <use style="stroke:#000000;" x="128.780287" xlink:href="#m6acec8295f" y="87.148373"/>
     <use style="stroke:#000000;" x="130.19513" xlink:href="#m6acec8295f" y="81.470231"/>
     <use style="stroke:#000000;" x="137.808723" xlink:href="#m6acec8295f" y="65.352444"/>
     <use style="stroke:#000000;" x="138.041399" xlink:href="#m6acec8295f" y="66.949559"/>
     <use style="stroke:#000000;" x="127.926513" xlink:href="#m6acec8295f" y="84.937829"/>
     <use style="stroke:#000000;" x="128.947141" xlink:href="#m6acec8295f" y="74.738176"/>
     <use style="stroke:#000000;" x="171.665886" xlink:href="#m6acec8295f" y="16.987574"/>
     <use style="stroke:#000000;" x="125.920735" xlink:href="#m6acec8295f" y="80.422991"/>
     <use style="stroke:#000000;" x="132.868093" xlink:href="#m6acec8295f" y="77.281501"/>
     <use style="stroke:#000000;" x="131.980749" xlink:href="#m6acec8295f" y="72.357866"/>
     <use style="stroke:#000000;" x="150.611238" xlink:href="#m6acec8295f" y="76.536014"/>
     <use style="stroke:#000000;" x="133.59488" xlink:href="#m6acec8295f" y="76.301611"/>
     <use style="stroke:#000000;" x="128.105428" xlink:href="#m6acec8295f" y="81.044264"/>
     <use style="stroke:#000000;" x="150.952476" xlink:href="#m6acec8295f" y="61.361803"/>
     <use style="stroke:#000000;" x="126.364596" xlink:href="#m6acec8295f" y="88.158569"/>
    </g>
   </g>
   <g id="line2d_11">
    <path clip-path="url(#p6847a12f54)" d="M 118.309091 88.641306 
L 119.077686 88.02871 
L 119.846281 87.416114 
L 120.614876 86.803518 
L 121.383471 86.190922 
L 122.152066 85.578326 
L 122.920661 84.96573 
L 123.689256 84.353134 
L 124.457851 83.740538 
L 125.226446 83.127942 
L 125.995041 82.515346 
L 126.763636 81.90275 
L 127.532231 81.290154 
L 128.300826 80.677558 
L 129.069421 80.064962 
L 129.838017 79.452366 
L 130.606612 78.83977 
L 131.375207 78.227174 
L 132.143802 77.614578 
L 132.912397 77.001982 
L 133.680992 76.389386 
L 134.449587 75.77679 
L 135.218182 75.164194 
L 135.986777 74.551598 
L 136.755372 73.939002 
L 137.523967 73.326406 
L 138.292562 72.71381 
L 139.061157 72.101214 
L 139.829752 71.488618 
L 140.598347 70.876022 
L 141.366942 70.263426 
L 142.135537 69.65083 
L 142.904132 69.038234 
L 143.672727 68.425638 
L 144.441322 67.813042 
L 145.209917 67.200446 
L 145.978512 66.58785 
L 146.747107 65.975254 
L 147.515702 65.362658 
L 148.284298 64.750062 
L 149.052893 64.137466 
L 149.821488 63.52487 
L 150.590083 62.912274 
L 151.358678 62.299678 
L 152.127273 61.687082 
L 152.895868 61.074486 
L 153.664463 60.46189 
L 154.433058 59.849294 
L 155.201653 59.236698 
L 155.970248 58.624102 
L 156.738843 58.011506 
L 157.507438 57.39891 
L 158.276033 56.786314 
L 159.044628 56.173718 
L 159.813223 55.561122 
L 160.581818 54.948526 
L 161.350413 54.33593 
L 162.119008 53.723334 
L 162.887603 53.110738 
L 163.656198 52.498142 
L 164.424793 51.885546 
L 165.193388 51.27295 
L 165.961983 50.660354 
L 166.730579 50.047758 
L 167.499174 49.435162 
L 168.267769 48.822566 
L 169.036364 48.20997 
L 169.804959 47.597374 
L 170.573554 46.984779 
L 171.342149 46.372183 
L 172.110744 45.759587 
L 172.879339 45.146991 
L 173.647934 44.534395 
L 174.416529 43.921799 
L 175.185124 43.309203 
L 175.953719 42.696607 
L 176.722314 42.084011 
L 177.490909 41.471415 
L 178.259504 40.858819 
L 179.028099 40.246223 
L 179.796694 39.633627 
L 180.565289 39.021031 
L 181.333884 38.408435 
L 182.102479 37.795839 
L 182.871074 37.183243 
L 183.639669 36.570647 
L 184.408264 35.958051 
L 185.17686 35.345455 
L 185.945455 34.732859 
L 186.71405 34.120263 
L 187.482645 33.507667 
L 188.25124 32.895071 
L 189.019835 32.282475 
L 189.78843 31.669879 
L 190.557025 31.057283 
L 191.32562 30.444687 
L 192.094215 29.832091 
L 192.86281 29.219495 
L 193.631405 28.606899 
L 194.4 27.994303 
" style="fill:none;stroke:#000000;stroke-dasharray:1.85,0.8;stroke-dashoffset:0;stroke-width:0.5;"/>
   </g>
   <g id="patch_6">
    <path d="M 118.309091 94.5 
L 118.309091 12.96 
" style="fill:none;stroke:#000000;stroke-linecap:square;stroke-linejoin:miter;"/>
   </g>
   <g id="patch_7">
    <path d="M 118.309091 94.5 
L 194.4 94.5 
" style="fill:none;stroke:#000000;stroke-linecap:square;stroke-linejoin:miter;"/>
   </g>
   <g id="matplotlib.axis_3">
    <g id="xtick_4">
     <g id="line2d_12"/>
     <g id="text_10">
      <text style="font-family:Arial;font-size:8px;font-style:normal;font-weight:normal;text-anchor:middle;" transform="rotate(-0, 118.309091, 103.72625)" x="118.309091" y="103.72625">0</text>
     </g>
    </g>
    <g id="xtick_5">
     <g id="line2d_13"/>
     <g id="text_11">
      <text style="font-family:Arial;font-size:8px;font-style:normal;font-weight:normal;text-anchor:middle;" transform="rotate(-0, 153.564955, 103.72625)" x="153.564955" y="103.72625">2</text>
     </g>
    </g>
    <g id="xtick_6">
     <g id="line2d_14"/>
     <g id="text_12">
      <text style="font-family:Arial;font-size:8px;font-style:normal;font-weight:normal;text-anchor:middle;" transform="rotate(-0, 188.820819, 103.72625)" x="188.820819" y="103.72625">4</text>
     </g>
    </g>
    <g id="text_13">
     <!-- $\sigma$(Exc) -->
     <g transform="translate(141.504545 116.61625)">
      <text>
       <tspan style="font-family:DejaVu Sans;font-size:10px;font-style:oblique;font-weight:oblique;" x="0" y="-0.71875">σ</tspan>
       <tspan style="font-family:Arial;font-size:10px;font-style:regular;font-weight:regular;" x="6.337891 9.667969 16.337891 21.337891 26.337891" y="-0.71875">(Exc)</tspan>
      </text>
     </g>
    </g>
   </g>
   <g id="matplotlib.axis_4">
    <g id="ytick_4">
     <g id="line2d_15"/>
     <g id="text_14">
      <text style="font-family:Arial;font-size:8px;font-style:normal;font-weight:normal;text-anchor:end;" transform="rotate(-0, 114.809091, 97.363125)" x="114.809091" y="97.363125">0</text>
     </g>
    </g>
    <g id="ytick_5">
     <g id="line2d_16"/>
     <g id="text_15">
      <text style="font-family:Arial;font-size:8px;font-style:normal;font-weight:normal;text-anchor:end;" transform="rotate(-0, 114.809091, 78.472806)" x="114.809091" y="78.472806">1</text>
     </g>
    </g>
    <g id="ytick_6">
     <g id="line2d_17"/>
     <g id="text_16">
      <text style="font-family:Arial;font-size:8px;font-style:normal;font-weight:normal;text-anchor:end;" transform="rotate(-0, 114.809091, 59.582486)" x="114.809091" y="59.582486">2</text>
     </g>
    </g>
    <g id="ytick_7">
     <g id="line2d_18"/>
     <g id="text_17">
      <text style="font-family:Arial;font-size:8px;font-style:normal;font-weight:normal;text-anchor:end;" transform="rotate(-0, 114.809091, 40.692167)" x="114.809091" y="40.692167">3</text>
     </g>
    </g>
    <g id="ytick_8">
     <g id="line2d_19"/>
     <g id="text_18">
      <text style="font-family:Arial;font-size:8px;font-style:normal;font-weight:normal;text-anchor:end;" transform="rotate(-0, 114.809091, 21.801847)" x="114.809091" y="21.801847">4</text>
     </g>
    </g>
    <g id="text_19">
     <!-- $\sigma$(Inh) -->
     <g transform="translate(104.160341 67.18)rotate(-90)">
      <text>
       <tspan style="font-family:DejaVu Sans;font-size:10px;font-style:oblique;font-weight:oblique;" x="0" y="-0.71875">σ</tspan>
       <tspan style="font-family:Arial;font-size:10px;font-style:regular;font-weight:regular;" x="6.337891 9.667969 12.446289 18.007812 23.569336" y="-0.71875">(Inh)</tspan>
      </text>
     </g>
    </g>
   </g>
   <g id="legend_2">
    <g id="line2d_20">
     <path d="M 108.478125 31.995156 
L 128.478125 31.995156 
" style="fill:none;stroke:#000000;stroke-dasharray:1.85,0.8;stroke-dashoffset:0;stroke-width:0.5;"/>
    </g>
    <g id="line2d_21"/>
    <g id="text_20">
     <!-- $R^2$ 0.52 -->
     <g transform="translate(136.478125 29.2475)">
      <text>
       <tspan style="font-family:DejaVu Sans;font-size:10px;font-style:oblique;font-weight:oblique;" x="0" y="-0.9765625">R</tspan>
       <tspan style="font-family:DejaVu Sans;font-size:7px;font-style:book;font-weight:book;" x="7.650794" y="-4.8046875">2</tspan>
       <tspan style="font-family:Arial;font-size:10px;font-style:regular;font-weight:regular;" x="12.377845 15.156165 20.717689 23.496009 29.057533" y="-0.9765625"> 0.52</tspan>
      </text>
     </g>
     <text style="font-family:Arial;font-size:10px;font-style:normal;font-weight:normal;" transform="translate(136.478125 39.86)"> slope 0.74</text>
    </g>
   </g>
  </g>
 </g>
 <defs>
  <clipPath id="p77930d83dd">
   <rect height="81.54" width="76.090909" x="27" y="12.96"/>
  </clipPath>
  <clipPath id="p6847a12f54">
   <rect height="81.54" width="76.090909" x="118.309091" y="12.96"/>
  </clipPath>
 </defs>
</svg>
