<?xml version="1.0" encoding="utf-8" standalone="no"?>
<!DOCTYPE svg PUBLIC "-//W3C//DTD SVG 1.1//EN"
  "http://www.w3.org/Graphics/SVG/1.1/DTD/svg11.dtd">
<!-- Created with matplotlib (http://matplotlib.org/) -->
<svg height="108pt" version="1.1" viewBox="0 0 216 108" width="216pt" xmlns="http://www.w3.org/2000/svg" xmlns:xlink="http://www.w3.org/1999/xlink">
 <defs>
  <style type="text/css">
*{stroke-linecap:butt;stroke-linejoin:round;}
  </style>
 </defs>
 <g id="figure_1">
  <g id="patch_1">
   <path d="M 0 108 
L 216 108 
L 216 0 
L 0 0 
z
" style="fill:#ffffff;"/>
  </g>
  <g id="axes_1">
   <g id="patch_2">
    <path d="M 27 94.5 
L 103.090909 94.5 
L 103.090909 12.96 
L 27 12.96 
z
" style="fill:#ffffff;"/>
   </g>
   <g id="LineCollection_1">
    <path clip-path="url(#pb1ab05aa1d)" d="M 26.070317 45.883412 
L 41.345817 45.883412 
" style="fill:none;stroke:#000000;stroke-width:0.5;"/>
    <path clip-path="url(#pb1ab05aa1d)" d="M 26.244285 75.749148 
L 37.649861 75.749148 
" style="fill:none;stroke:#000000;stroke-width:0.5;"/>
    <path clip-path="url(#pb1ab05aa1d)" d="M 23.751904 55.411722 
L 43.835561 55.411722 
" style="fill:none;stroke:#000000;stroke-width:0.5;"/>
    <path clip-path="url(#pb1ab05aa1d)" d="M 24.877974 62.615194 
L 34.112199 62.615194 
" style="fill:none;stroke:#000000;stroke-width:0.5;"/>
    <path clip-path="url(#pb1ab05aa1d)" d="M 26.445645 66.234581 
L 36.595811 66.234581 
" style="fill:none;stroke:#000000;stroke-width:0.5;"/>
    <path clip-path="url(#pb1ab05aa1d)" d="M 23.980558 39.110295 
L 50.890476 39.110295 
" style="fill:none;stroke:#000000;stroke-width:0.5;"/>
    <path clip-path="url(#pb1ab05aa1d)" d="M 27.66679 71.960018 
L 34.993124 71.960018 
" style="fill:none;stroke:#000000;stroke-width:0.5;"/>
    <path clip-path="url(#pb1ab05aa1d)" d="M 25.296061 73.509327 
L 36.758123 73.509327 
" style="fill:none;stroke:#000000;stroke-width:0.5;"/>
    <path clip-path="url(#pb1ab05aa1d)" d="M 27.400642 84.34159 
L 32.556383 84.34159 
" style="fill:none;stroke:#000000;stroke-width:0.5;"/>
    <path clip-path="url(#pb1ab05aa1d)" d="M 25.031115 66.594751 
L 36.138983 66.594751 
" style="fill:none;stroke:#000000;stroke-width:0.5;"/>
    <path clip-path="url(#pb1ab05aa1d)" d="M 30.997939 61.738421 
L 36.976729 61.738421 
" style="fill:none;stroke:#000000;stroke-width:0.5;"/>
    <path clip-path="url(#pb1ab05aa1d)" d="M 24.745063 67.218938 
L 52.441143 67.218938 
" style="fill:none;stroke:#000000;stroke-width:0.5;"/>
    <path clip-path="url(#pb1ab05aa1d)" d="M 25.339882 46.268527 
L 45.063094 46.268527 
" style="fill:none;stroke:#000000;stroke-width:0.5;"/>
    <path clip-path="url(#pb1ab05aa1d)" d="M 27.900092 35.147335 
L 46.6746 35.147335 
" style="fill:none;stroke:#000000;stroke-width:0.5;"/>
    <path clip-path="url(#pb1ab05aa1d)" d="M 37.53335 46.08635 
L 68.739451 46.08635 
" style="fill:none;stroke:#000000;stroke-width:0.5;"/>
    <path clip-path="url(#pb1ab05aa1d)" d="M 26.023709 78.359208 
L 29.323373 78.359208 
" style="fill:none;stroke:#000000;stroke-width:0.5;"/>
    <path clip-path="url(#pb1ab05aa1d)" d="M 27.748696 55.940623 
L 50.626409 55.940623 
" style="fill:none;stroke:#000000;stroke-width:0.5;"/>
    <path clip-path="url(#pb1ab05aa1d)" d="M 31.231854 60.648988 
L 41.231585 60.648988 
" style="fill:none;stroke:#000000;stroke-width:0.5;"/>
    <path clip-path="url(#pb1ab05aa1d)" d="M 23.412953 55.998804 
L 53.302685 55.998804 
" style="fill:none;stroke:#000000;stroke-width:0.5;"/>
    <path clip-path="url(#pb1ab05aa1d)" d="M 27.207267 64.981781 
L 36.834452 64.981781 
" style="fill:none;stroke:#000000;stroke-width:0.5;"/>
    <path clip-path="url(#pb1ab05aa1d)" d="M 26.17094 77.673936 
L 30.848227 77.673936 
" style="fill:none;stroke:#000000;stroke-width:0.5;"/>
    <path clip-path="url(#pb1ab05aa1d)" d="M 24.782344 78.110582 
L 36.411312 78.110582 
" style="fill:none;stroke:#000000;stroke-width:0.5;"/>
    <path clip-path="url(#pb1ab05aa1d)" d="M 29.04163 56.04436 
L 49.871989 56.04436 
" style="fill:none;stroke:#000000;stroke-width:0.5;"/>
    <path clip-path="url(#pb1ab05aa1d)" d="M 30.270821 52.551316 
L 46.741669 52.551316 
" style="fill:none;stroke:#000000;stroke-width:0.5;"/>
    <path clip-path="url(#pb1ab05aa1d)" d="M 24.980128 73.858229 
L 41.999076 73.858229 
" style="fill:none;stroke:#000000;stroke-width:0.5;"/>
    <path clip-path="url(#pb1ab05aa1d)" d="M 27.725216 66.582066 
L 42.706991 66.582066 
" style="fill:none;stroke:#000000;stroke-width:0.5;"/>
    <path clip-path="url(#pb1ab05aa1d)" d="M 24.126889 70.480618 
L 46.397392 70.480618 
" style="fill:none;stroke:#000000;stroke-width:0.5;"/>
    <path clip-path="url(#pb1ab05aa1d)" d="M 27.807643 48.547538 
L 51.681265 48.547538 
" style="fill:none;stroke:#000000;stroke-width:0.5;"/>
    <path clip-path="url(#pb1ab05aa1d)" d="M 28.289823 59.79567 
L 47.676196 59.79567 
" style="fill:none;stroke:#000000;stroke-width:0.5;"/>
    <path clip-path="url(#pb1ab05aa1d)" d="M 28.277729 72.710188 
L 33.173553 72.710188 
" style="fill:none;stroke:#000000;stroke-width:0.5;"/>
   </g>
   <g id="LineCollection_2">
    <path clip-path="url(#pb1ab05aa1d)" d="M 33.708067 49.358079 
L 33.708067 42.408745 
" style="fill:none;stroke:#000000;stroke-width:0.5;"/>
    <path clip-path="url(#pb1ab05aa1d)" d="M 31.947073 78.905757 
L 31.947073 72.592538 
" style="fill:none;stroke:#000000;stroke-width:0.5;"/>
    <path clip-path="url(#pb1ab05aa1d)" d="M 33.793732 66.555618 
L 33.793732 44.267826 
" style="fill:none;stroke:#000000;stroke-width:0.5;"/>
    <path clip-path="url(#pb1ab05aa1d)" d="M 29.495087 68.492002 
L 29.495087 56.738386 
" style="fill:none;stroke:#000000;stroke-width:0.5;"/>
    <path clip-path="url(#pb1ab05aa1d)" d="M 31.520728 72.992249 
L 31.520728 59.476913 
" style="fill:none;stroke:#000000;stroke-width:0.5;"/>
    <path clip-path="url(#pb1ab05aa1d)" d="M 37.435517 54.772119 
L 37.435517 23.448471 
" style="fill:none;stroke:#000000;stroke-width:0.5;"/>
    <path clip-path="url(#pb1ab05aa1d)" d="M 31.329957 74.016337 
L 31.329957 69.9037 
" style="fill:none;stroke:#000000;stroke-width:0.5;"/>
    <path clip-path="url(#pb1ab05aa1d)" d="M 31.027092 79.082627 
L 31.027092 67.936027 
" style="fill:none;stroke:#000000;stroke-width:0.5;"/>
    <path clip-path="url(#pb1ab05aa1d)" d="M 29.978513 87.63962 
L 29.978513 81.043559 
" style="fill:none;stroke:#000000;stroke-width:0.5;"/>
    <path clip-path="url(#pb1ab05aa1d)" d="M 30.585049 75.694282 
L 30.585049 57.495221 
" style="fill:none;stroke:#000000;stroke-width:0.5;"/>
    <path clip-path="url(#pb1ab05aa1d)" d="M 33.987334 67.924701 
L 33.987334 55.552141 
" style="fill:none;stroke:#000000;stroke-width:0.5;"/>
    <path clip-path="url(#pb1ab05aa1d)" d="M 38.593103 76.418088 
L 38.593103 58.019788 
" style="fill:none;stroke:#000000;stroke-width:0.5;"/>
    <path clip-path="url(#pb1ab05aa1d)" d="M 35.201488 53.403799 
L 35.201488 39.133255 
" style="fill:none;stroke:#000000;stroke-width:0.5;"/>
    <path clip-path="url(#pb1ab05aa1d)" d="M 37.287346 53.778498 
L 37.287346 16.516172 
" style="fill:none;stroke:#000000;stroke-width:0.5;"/>
    <path clip-path="url(#pb1ab05aa1d)" d="M 53.136401 54.749466 
L 53.136401 37.423233 
" style="fill:none;stroke:#000000;stroke-width:0.5;"/>
    <path clip-path="url(#pb1ab05aa1d)" d="M 27.673541 83.530867 
L 27.673541 73.187549 
" style="fill:none;stroke:#000000;stroke-width:0.5;"/>
    <path clip-path="url(#pb1ab05aa1d)" d="M 39.187552 64.411988 
L 39.187552 47.469258 
" style="fill:none;stroke:#000000;stroke-width:0.5;"/>
    <path clip-path="url(#pb1ab05aa1d)" d="M 36.23172 66.376337 
L 36.23172 54.921638 
" style="fill:none;stroke:#000000;stroke-width:0.5;"/>
    <path clip-path="url(#pb1ab05aa1d)" d="M 38.357819 70.330312 
L 38.357819 41.667296 
" style="fill:none;stroke:#000000;stroke-width:0.5;"/>
    <path clip-path="url(#pb1ab05aa1d)" d="M 32.02086 70.015462 
L 32.02086 59.948101 
" style="fill:none;stroke:#000000;stroke-width:0.5;"/>
    <path clip-path="url(#pb1ab05aa1d)" d="M 28.509583 79.249811 
L 28.509583 76.09806 
" style="fill:none;stroke:#000000;stroke-width:0.5;"/>
    <path clip-path="url(#pb1ab05aa1d)" d="M 30.596828 80.778162 
L 30.596828 75.443003 
" style="fill:none;stroke:#000000;stroke-width:0.5;"/>
    <path clip-path="url(#pb1ab05aa1d)" d="M 39.456809 72.634516 
L 39.456809 39.454204 
" style="fill:none;stroke:#000000;stroke-width:0.5;"/>
    <path clip-path="url(#pb1ab05aa1d)" d="M 38.506245 63.697351 
L 38.506245 41.405282 
" style="fill:none;stroke:#000000;stroke-width:0.5;"/>
    <path clip-path="url(#pb1ab05aa1d)" d="M 33.489602 87.382163 
L 33.489602 60.334295 
" style="fill:none;stroke:#000000;stroke-width:0.5;"/>
    <path clip-path="url(#pb1ab05aa1d)" d="M 35.216104 71.085512 
L 35.216104 62.07862 
" style="fill:none;stroke:#000000;stroke-width:0.5;"/>
    <path clip-path="url(#pb1ab05aa1d)" d="M 35.26214 74.994649 
L 35.26214 65.966588 
" style="fill:none;stroke:#000000;stroke-width:0.5;"/>
    <path clip-path="url(#pb1ab05aa1d)" d="M 39.744454 56.877352 
L 39.744454 40.217724 
" style="fill:none;stroke:#000000;stroke-width:0.5;"/>
    <path clip-path="url(#pb1ab05aa1d)" d="M 37.983009 67.264507 
L 37.983009 52.326834 
" style="fill:none;stroke:#000000;stroke-width:0.5;"/>
    <path clip-path="url(#pb1ab05aa1d)" d="M 30.725641 77.245699 
L 30.725641 68.174677 
" style="fill:none;stroke:#000000;stroke-width:0.5;"/>
   </g>
   <g id="line2d_1">
    <path clip-path="url(#pb1ab05aa1d)" d="M 27 74.941847 
L 27.768595 73.689167 
L 28.53719 72.436487 
L 29.305785 71.183807 
L 30.07438 69.931127 
L 30.842975 68.678446 
L 31.61157 67.425766 
L 32.380165 66.173086 
L 33.14876 64.920406 
L 33.917355 63.667726 
L 34.68595 62.415046 
L 35.454545 61.162366 
L 36.22314 59.909686 
L 36.991736 58.657006 
L 37.760331 57.404326 
L 38.528926 56.151646 
L 39.297521 54.898966 
L 40.066116 53.646286 
L 40.834711 52.393605 
L 41.603306 51.140925 
L 42.371901 49.888245 
L 43.140496 48.635565 
L 43.909091 47.382885 
L 44.677686 46.130205 
L 45.446281 44.877525 
L 46.214876 43.624845 
L 46.983471 42.372165 
L 47.752066 41.119485 
L 48.520661 39.866805 
L 49.289256 38.614125 
L 50.057851 37.361445 
L 50.826446 36.108764 
L 51.595041 34.856084 
L 52.363636 33.603404 
L 53.132231 32.350724 
L 53.900826 31.098044 
L 54.669421 29.845364 
L 55.438017 28.592684 
L 56.206612 27.340004 
L 56.975207 26.087324 
L 57.743802 24.834644 
L 58.512397 23.581964 
L 59.280992 22.329284 
L 60.049587 21.076603 
L 60.818182 19.823923 
L 61.586777 18.571243 
L 62.355372 17.318563 
L 63.123967 16.065883 
L 63.892562 14.813203 
L 64.661157 13.560523 
L 65.429752 12.307843 
L 66.198347 11.055163 
L 66.966942 9.802483 
L 67.735537 8.549803 
L 68.504132 7.297123 
L 69.272727 6.044443 
L 70.041322 4.791762 
L 70.809917 3.539082 
L 71.578512 2.286402 
L 72.347107 1.033722 
L 73.115702 -0.218958 
L 73.594919 -1 
" style="fill:none;stroke:#000000;stroke-dasharray:1.85,0.8;stroke-dashoffset:0;stroke-width:0.5;"/>
   </g>
   <g id="line2d_2">
    <defs>
     <path d="M 0 3 
C 0.795609 3 1.55874 2.683901 2.12132 2.12132 
C 2.683901 1.55874 3 0.795609 3 0 
C 3 -0.795609 2.683901 -1.55874 2.12132 -2.12132 
C 1.55874 -2.683901 0.795609 -3 0 -3 
C -0.795609 -3 -1.55874 -2.683901 -2.12132 -2.12132 
C -2.683901 -1.55874 -3 -0.795609 -3 0 
C -3 0.795609 -2.683901 1.55874 -2.12132 2.12132 
C -1.55874 2.683901 -0.795609 3 0 3 
z
" id="mf331229f6f" style="stroke:#000000;"/>
    </defs>
    <g clip-path="url(#pb1ab05aa1d)">
     <use style="stroke:#000000;" x="33.708067" xlink:href="#mf331229f6f" y="45.883412"/>
     <use style="stroke:#000000;" x="31.947073" xlink:href="#mf331229f6f" y="75.749148"/>
     <use style="stroke:#000000;" x="33.793732" xlink:href="#mf331229f6f" y="55.411722"/>
     <use style="stroke:#000000;" x="29.495087" xlink:href="#mf331229f6f" y="62.615194"/>
     <use style="stroke:#000000;" x="31.520728" xlink:href="#mf331229f6f" y="66.234581"/>
     <use style="stroke:#000000;" x="37.435517" xlink:href="#mf331229f6f" y="39.110295"/>
     <use style="stroke:#000000;" x="31.329957" xlink:href="#mf331229f6f" y="71.960018"/>
     <use style="stroke:#000000;" x="31.027092" xlink:href="#mf331229f6f" y="73.509327"/>
     <use style="stroke:#000000;" x="29.978513" xlink:href="#mf331229f6f" y="84.34159"/>
     <use style="stroke:#000000;" x="30.585049" xlink:href="#mf331229f6f" y="66.594751"/>
     <use style="stroke:#000000;" x="33.987334" xlink:href="#mf331229f6f" y="61.738421"/>
     <use style="stroke:#000000;" x="38.593103" xlink:href="#mf331229f6f" y="67.218938"/>
     <use style="stroke:#000000;" x="35.201488" xlink:href="#mf331229f6f" y="46.268527"/>
     <use style="stroke:#000000;" x="37.287346" xlink:href="#mf331229f6f" y="35.147335"/>
     <use style="stroke:#000000;" x="53.136401" xlink:href="#mf331229f6f" y="46.08635"/>
     <use style="stroke:#000000;" x="27.673541" xlink:href="#mf331229f6f" y="78.359208"/>
     <use style="stroke:#000000;" x="39.187552" xlink:href="#mf331229f6f" y="55.940623"/>
     <use style="stroke:#000000;" x="36.23172" xlink:href="#mf331229f6f" y="60.648988"/>
     <use style="stroke:#000000;" x="38.357819" xlink:href="#mf331229f6f" y="55.998804"/>
     <use style="stroke:#000000;" x="32.02086" xlink:href="#mf331229f6f" y="64.981781"/>
     <use style="stroke:#000000;" x="28.509583" xlink:href="#mf331229f6f" y="77.673936"/>
     <use style="stroke:#000000;" x="30.596828" xlink:href="#mf331229f6f" y="78.110582"/>
     <use style="stroke:#000000;" x="39.456809" xlink:href="#mf331229f6f" y="56.04436"/>
     <use style="stroke:#000000;" x="38.506245" xlink:href="#mf331229f6f" y="52.551316"/>
     <use style="stroke:#000000;" x="33.489602" xlink:href="#mf331229f6f" y="73.858229"/>
     <use style="stroke:#000000;" x="35.216104" xlink:href="#mf331229f6f" y="66.582066"/>
     <use style="stroke:#000000;" x="35.26214" xlink:href="#mf331229f6f" y="70.480618"/>
     <use style="stroke:#000000;" x="39.744454" xlink:href="#mf331229f6f" y="48.547538"/>
     <use style="stroke:#000000;" x="37.983009" xlink:href="#mf331229f6f" y="59.79567"/>
     <use style="stroke:#000000;" x="30.725641" xlink:href="#mf331229f6f" y="72.710188"/>
    </g>
   </g>
   <g id="patch_3">
    <path d="M 27 94.5 
L 27 12.96 
" style="fill:none;stroke:#000000;stroke-linecap:square;stroke-linejoin:miter;"/>
   </g>
   <g id="patch_4">
    <path d="M 27 94.5 
L 103.090909 94.5 
" style="fill:none;stroke:#000000;stroke-linecap:square;stroke-linejoin:miter;"/>
   </g>
   <g id="matplotlib.axis_1">
    <g id="xtick_1">
     <g id="line2d_3"/>
     <g id="text_1">
      <text style="font-family:Arial;font-size:8px;font-style:normal;font-weight:normal;text-anchor:middle;" transform="rotate(-0, 27, 103.72625)" x="27" y="103.72625">0</text>
     </g>
    </g>
    <g id="xtick_2">
     <g id="line2d_4"/>
     <g id="text_2">
      <text style="font-family:Arial;font-size:8px;font-style:normal;font-weight:normal;text-anchor:middle;" transform="rotate(-0, 74.732807, 103.72625)" x="74.732807" y="103.72625">5</text>
     </g>
    </g>
    <g id="text_3">
     <text style="font-family:Arial;font-size:10px;font-style:normal;font-weight:normal;text-anchor:middle;" transform="rotate(-0, 65.045455, 116.474063)" x="65.045455" y="116.474063">Exc</text>
    </g>
   </g>
   <g id="matplotlib.axis_2">
    <g id="ytick_1">
     <g id="line2d_5"/>
     <g id="text_4">
      <text style="font-family:Arial;font-size:8px;font-style:normal;font-weight:normal;text-anchor:end;" transform="rotate(-0, 23.5, 97.363125)" x="23.5" y="97.363125">0</text>
     </g>
    </g>
    <g id="ytick_2">
     <g id="line2d_6"/>
     <g id="text_5">
      <text style="font-family:Arial;font-size:8px;font-style:normal;font-weight:normal;text-anchor:end;" transform="rotate(-0, 23.5, 76.902688)" x="23.5" y="76.902688">2</text>
     </g>
    </g>
    <g id="ytick_3">
     <g id="line2d_7"/>
     <g id="text_6">
      <text style="font-family:Arial;font-size:8px;font-style:normal;font-weight:normal;text-anchor:end;" transform="rotate(-0, 23.5, 56.442251)" x="23.5" y="56.442251">4</text>
     </g>
    </g>
    <g id="ytick_4">
     <g id="line2d_8"/>
     <g id="text_7">
      <text style="font-family:Arial;font-size:8px;font-style:normal;font-weight:normal;text-anchor:end;" transform="rotate(-0, 23.5, 35.981815)" x="23.5" y="35.981815">6</text>
     </g>
    </g>
    <g id="ytick_5">
     <g id="line2d_9"/>
     <g id="text_8">
      <text style="font-family:Arial;font-size:8px;font-style:normal;font-weight:normal;text-anchor:end;" transform="rotate(-0, 23.5, 15.521378)" x="23.5" y="15.521378">8</text>
     </g>
    </g>
    <g id="text_9">
     <text style="font-family:Arial;font-size:10px;font-style:normal;font-weight:normal;text-anchor:middle;" transform="rotate(-90, 13.06375, 53.73)" x="13.06375" y="53.73">Inh</text>
    </g>
   </g>
   <g id="legend_1">
    <g id="line2d_10">
     <path d="M 36 75.622656 
L 56 75.622656 
" style="fill:none;stroke:#000000;stroke-dasharray:1.85,0.8;stroke-dashoffset:0;stroke-width:0.5;"/>
    </g>
    <g id="line2d_11"/>
    <g id="text_10">
     <!-- $R^2$ 0.42 -->
     <g transform="translate(64 72.875)">
      <text>
       <tspan style="font-family:DejaVu Sans;font-size:10px;font-style:oblique;font-weight:oblique;" x="0" y="-0.9765625">R</tspan>
       <tspan style="font-family:DejaVu Sans;font-size:7px;font-style:book;font-weight:book;" x="7.650794" y="-4.8046875">2</tspan>
       <tspan style="font-family:Arial;font-size:10px;font-style:regular;font-weight:regular;" x="12.377845 15.156165 20.717689 23.496009 29.057533" y="-0.9765625"> 0.42</tspan>
      </text>
     </g>
     <text style="font-family:Arial;font-size:10px;font-style:normal;font-weight:normal;" transform="translate(64 83.4875)"> slope 1.52</text>
    </g>
   </g>
  </g>
  <g id="axes_2">
   <g id="patch_5">
    <path d="M 118.309091 94.5 
L 194.4 94.5 
L 194.4 12.96 
L 118.309091 12.96 
z
" style="fill:#ffffff;"/>
   </g>
   <g id="PathCollection_1">
    <defs>
     <path d="M 0 2.44949 
C 0.649612 2.44949 1.272706 2.191396 1.732051 1.732051 
C 2.191396 1.272706 2.44949 0.649612 2.44949 0 
C 2.44949 -0.649612 2.191396 -1.272706 1.732051 -1.732051 
C 1.272706 -2.191396 0.649612 -2.44949 0 -2.44949 
C -0.649612 -2.44949 -1.272706 -2.191396 -1.732051 -1.732051 
C -2.191396 -1.272706 -2.44949 -0.649612 -2.44949 0 
C -2.44949 0.649612 -2.191396 1.272706 -1.732051 1.732051 
C -1.272706 2.191396 -0.649612 2.44949 0 2.44949 
z
" id="m1a68574c6e" style="stroke:#000000;"/>
    </defs>
    <g clip-path="url(#p30df0208fe)">
     <use style="stroke:#000000;" x="150.06636" xlink:href="#m1a68574c6e" y="80.052559"/>
     <use style="stroke:#000000;" x="142.020913" xlink:href="#m1a68574c6e" y="81.375022"/>
     <use style="stroke:#000000;" x="160.062361" xlink:href="#m1a68574c6e" y="48.164404"/>
     <use style="stroke:#000000;" x="137.506744" xlink:href="#m1a68574c6e" y="70.064615"/>
     <use style="stroke:#000000;" x="139.410955" xlink:href="#m1a68574c6e" y="66.402057"/>
     <use style="stroke:#000000;" x="174.253936" xlink:href="#m1a68574c6e" y="29.379154"/>
     <use style="stroke:#000000;" x="133.540301" xlink:href="#m1a68574c6e" y="85.949962"/>
     <use style="stroke:#000000;" x="142.138345" xlink:href="#m1a68574c6e" y="71.326582"/>
     <use style="stroke:#000000;" x="129.027709" xlink:href="#m1a68574c6e" y="80.787003"/>
     <use style="stroke:#000000;" x="141.401987" xlink:href="#m1a68574c6e" y="56.664743"/>
     <use style="stroke:#000000;" x="130.738802" xlink:href="#m1a68574c6e" y="68.777849"/>
     <use style="stroke:#000000;" x="175.888341" xlink:href="#m1a68574c6e" y="56.250533"/>
     <use style="stroke:#000000;" x="159.313007" xlink:href="#m1a68574c6e" y="64.832003"/>
     <use style="stroke:#000000;" x="157.340683" xlink:href="#m1a68574c6e" y="17.032837"/>
     <use style="stroke:#000000;" x="183.185561" xlink:href="#m1a68574c6e" y="58.479326"/>
     <use style="stroke:#000000;" x="125.168984" xlink:href="#m1a68574c6e" y="72.996579"/>
     <use style="stroke:#000000;" x="165.871112" xlink:href="#m1a68574c6e" y="59.276616"/>
     <use style="stroke:#000000;" x="139.098206" xlink:href="#m1a68574c6e" y="70.686053"/>
     <use style="stroke:#000000;" x="180.448873" xlink:href="#m1a68574c6e" y="34.910523"/>
     <use style="stroke:#000000;" x="138.323696" xlink:href="#m1a68574c6e" y="73.570285"/>
     <use style="stroke:#000000;" x="128.033019" xlink:href="#m1a68574c6e" y="87.947614"/>
     <use style="stroke:#000000;" x="142.485336" xlink:href="#m1a68574c6e" y="83.408379"/>
     <use style="stroke:#000000;" x="161.61473" xlink:href="#m1a68574c6e" y="25.51921"/>
     <use style="stroke:#000000;" x="152.551449" xlink:href="#m1a68574c6e" y="48.155514"/>
     <use style="stroke:#000000;" x="153.690931" xlink:href="#m1a68574c6e" y="38.268361"/>
     <use style="stroke:#000000;" x="149.455714" xlink:href="#m1a68574c6e" y="75.774963"/>
     <use style="stroke:#000000;" x="164.608742" xlink:href="#m1a68574c6e" y="75.730953"/>
     <use style="stroke:#000000;" x="167.941576" xlink:href="#m1a68574c6e" y="59.865175"/>
     <use style="stroke:#000000;" x="158.612731" xlink:href="#m1a68574c6e" y="63.445063"/>
     <use style="stroke:#000000;" x="128.487349" xlink:href="#m1a68574c6e" y="75.641641"/>
    </g>
   </g>
   <g id="line2d_12">
    <path clip-path="url(#p30df0208fe)" d="M 118.309091 84.98239 
L 119.077686 84.448663 
L 119.846281 83.914937 
L 120.614876 83.38121 
L 121.383471 82.847483 
L 122.152066 82.313756 
L 122.920661 81.78003 
L 123.689256 81.246303 
L 124.457851 80.712576 
L 125.226446 80.178849 
L 125.995041 79.645122 
L 126.763636 79.111396 
L 127.532231 78.577669 
L 128.300826 78.043942 
L 129.069421 77.510215 
L 129.838017 76.976489 
L 130.606612 76.442762 
L 131.375207 75.909035 
L 132.143802 75.375308 
L 132.912397 74.841582 
L 133.680992 74.307855 
L 134.449587 73.774128 
L 135.218182 73.240401 
L 135.986777 72.706675 
L 136.755372 72.172948 
L 137.523967 71.639221 
L 138.292562 71.105494 
L 139.061157 70.571767 
L 139.829752 70.038041 
L 140.598347 69.504314 
L 141.366942 68.970587 
L 142.135537 68.43686 
L 142.904132 67.903134 
L 143.672727 67.369407 
L 144.441322 66.83568 
L 145.209917 66.301953 
L 145.978512 65.768227 
L 146.747107 65.2345 
L 147.515702 64.700773 
L 148.284298 64.167046 
L 149.052893 63.63332 
L 149.821488 63.099593 
L 150.590083 62.565866 
L 151.358678 62.032139 
L 152.127273 61.498412 
L 152.895868 60.964686 
L 153.664463 60.430959 
L 154.433058 59.897232 
L 155.201653 59.363505 
L 155.970248 58.829779 
L 156.738843 58.296052 
L 157.507438 57.762325 
L 158.276033 57.228598 
L 159.044628 56.694872 
L 159.813223 56.161145 
L 160.581818 55.627418 
L 161.350413 55.093691 
L 162.119008 54.559964 
L 162.887603 54.026238 
L 163.656198 53.492511 
L 164.424793 52.958784 
L 165.193388 52.425057 
L 165.961983 51.891331 
L 166.730579 51.357604 
L 167.499174 50.823877 
L 168.267769 50.29015 
L 169.036364 49.756424 
L 169.804959 49.222697 
L 170.573554 48.68897 
L 171.342149 48.155243 
L 172.110744 47.621517 
L 172.879339 47.08779 
L 173.647934 46.554063 
L 174.416529 46.020336 
L 175.185124 45.486609 
L 175.953719 44.952883 
L 176.722314 44.419156 
L 177.490909 43.885429 
L 178.259504 43.351702 
L 179.028099 42.817976 
L 179.796694 42.284249 
L 180.565289 41.750522 
L 181.333884 41.216795 
L 182.102479 40.683069 
L 182.871074 40.149342 
L 183.639669 39.615615 
L 184.408264 39.081888 
L 185.17686 38.548162 
L 185.945455 38.014435 
L 186.71405 37.480708 
L 187.482645 36.946981 
L 188.25124 36.413254 
L 189.019835 35.879528 
L 189.78843 35.345801 
L 190.557025 34.812074 
L 191.32562 34.278347 
L 192.094215 33.744621 
L 192.86281 33.210894 
L 193.631405 32.677167 
L 194.4 32.14344 
" style="fill:none;stroke:#000000;stroke-dasharray:1.85,0.8;stroke-dashoffset:0;stroke-width:0.5;"/>
   </g>
   <g id="patch_6">
    <path d="M 118.309091 94.5 
L 118.309091 12.96 
" style="fill:none;stroke:#000000;stroke-linecap:square;stroke-linejoin:miter;"/>
   </g>
   <g id="patch_7">
    <path d="M 118.309091 94.5 
L 194.4 94.5 
" style="fill:none;stroke:#000000;stroke-linecap:square;stroke-linejoin:miter;"/>
   </g>
   <g id="matplotlib.axis_3">
    <g id="xtick_3">
     <g id="line2d_13"/>
     <g id="text_11">
      <text style="font-family:Arial;font-size:8px;font-style:normal;font-weight:normal;text-anchor:middle;" transform="rotate(-0, 118.309091, 103.72625)" x="118.309091" y="103.72625">0</text>
     </g>
    </g>
    <g id="xtick_4">
     <g id="line2d_14"/>
     <g id="text_12">
      <text style="font-family:Arial;font-size:8px;font-style:normal;font-weight:normal;text-anchor:middle;" transform="rotate(-0, 158.003073, 103.72625)" x="158.003073" y="103.72625">1</text>
     </g>
    </g>
    <g id="text_13">
     <!-- $\sigma$(Exc) -->
     <g transform="translate(141.504545 116.61625)">
      <text>
       <tspan style="font-family:DejaVu Sans;font-size:10px;font-style:oblique;font-weight:oblique;" x="0" y="-0.71875">σ</tspan>
       <tspan style="font-family:Arial;font-size:10px;font-style:regular;font-weight:regular;" x="6.337891 9.667969 16.337891 21.337891 26.337891" y="-0.71875">(Exc)</tspan>
      </text>
     </g>
    </g>
   </g>
   <g id="matplotlib.axis_4">
    <g id="ytick_6">
     <g id="line2d_15"/>
     <g id="text_14">
      <text style="font-family:Arial;font-size:8px;font-style:normal;font-weight:normal;text-anchor:end;" transform="rotate(-0, 114.809091, 97.363125)" x="114.809091" y="97.363125">0.0</text>
     </g>
    </g>
    <g id="ytick_7">
     <g id="line2d_16"/>
     <g id="text_15">
      <text style="font-family:Arial;font-size:8px;font-style:normal;font-weight:normal;text-anchor:end;" transform="rotate(-0, 114.809091, 76.094834)" x="114.809091" y="76.094834">0.5</text>
     </g>
    </g>
    <g id="ytick_8">
     <g id="line2d_17"/>
     <g id="text_16">
      <text style="font-family:Arial;font-size:8px;font-style:normal;font-weight:normal;text-anchor:end;" transform="rotate(-0, 114.809091, 54.826542)" x="114.809091" y="54.826542">1.0</text>
     </g>
    </g>
    <g id="ytick_9">
     <g id="line2d_18"/>
     <g id="text_17">
      <text style="font-family:Arial;font-size:8px;font-style:normal;font-weight:normal;text-anchor:end;" transform="rotate(-0, 114.809091, 33.558251)" x="114.809091" y="33.558251">1.5</text>
     </g>
    </g>
    <g id="text_18">
     <!-- $\sigma$(Inh) -->
     <g transform="translate(97.489091 67.18)rotate(-90)">
      <text>
       <tspan style="font-family:DejaVu Sans;font-size:10px;font-style:oblique;font-weight:oblique;" x="0" y="-0.71875">σ</tspan>
       <tspan style="font-family:Arial;font-size:10px;font-style:regular;font-weight:regular;" x="6.337891 9.667969 12.446289 18.007812 23.569336" y="-0.71875">(Inh)</tspan>
      </text>
     </g>
    </g>
   </g>
   <g id="legend_2">
    <g id="line2d_19">
     <path d="M 108.478125 31.995156 
L 128.478125 31.995156 
" style="fill:none;stroke:#000000;stroke-dasharray:1.85,0.8;stroke-dashoffset:0;stroke-width:0.5;"/>
    </g>
    <g id="line2d_20"/>
    <g id="text_19">
     <!-- $R^2$ 0.38 -->
     <g transform="translate(136.478125 29.2475)">
      <text>
       <tspan style="font-family:DejaVu Sans;font-size:10px;font-style:oblique;font-weight:oblique;" x="0" y="-0.9765625">R</tspan>
       <tspan style="font-family:DejaVu Sans;font-size:7px;font-style:book;font-weight:book;" x="7.650794" y="-4.8046875">2</tspan>
       <tspan style="font-family:Arial;font-size:10px;font-style:regular;font-weight:regular;" x="12.377845 15.156165 20.717689 23.496009 29.057533" y="-0.9765625"> 0.38</tspan>
      </text>
     </g>
     <text style="font-family:Arial;font-size:10px;font-style:normal;font-weight:normal;" transform="translate(136.478125 39.86)"> slope 0.65</text>
    </g>
   </g>
  </g>
 </g>
 <defs>
  <clipPath id="pb1ab05aa1d">
   <rect height="81.54" width="76.090909" x="27" y="12.96"/>
  </clipPath>
  <clipPath id="p30df0208fe">
   <rect height="81.54" width="76.090909" x="118.309091" y="12.96"/>
  </clipPath>
 </defs>
</svg>
