<?xml version="1.0" encoding="utf-8" standalone="no"?>
<!DOCTYPE svg PUBLIC "-//W3C//DTD SVG 1.1//EN"
  "http://www.w3.org/Graphics/SVG/1.1/DTD/svg11.dtd">
<!-- Created with matplotlib (http://matplotlib.org/) -->
<svg height="108pt" version="1.1" viewBox="0 0 216 108" width="216pt" xmlns="http://www.w3.org/2000/svg" xmlns:xlink="http://www.w3.org/1999/xlink">
 <defs>
  <style type="text/css">
*{stroke-linecap:butt;stroke-linejoin:round;}
  </style>
 </defs>
 <g id="figure_1">
  <g id="patch_1">
   <path d="M 0 108 
L 216 108 
L 216 0 
L 0 0 
z
" style="fill:#ffffff;"/>
  </g>
  <g id="axes_1">
   <g id="patch_2">
    <path d="M 27 94.5 
L 103.090909 94.5 
L 103.090909 12.96 
L 27 12.96 
z
" style="fill:#ffffff;"/>
   </g>
   <g id="LineCollection_1">
    <path clip-path="url(#p15dbe22a64)" d="M 28.735463 75.725475 
L 32.92817 75.725475 
" style="fill:none;stroke:#000000;stroke-width:0.5;"/>
    <path clip-path="url(#p15dbe22a64)" d="M 25.691034 74.689352 
L 41.103034 74.689352 
" style="fill:none;stroke:#000000;stroke-width:0.5;"/>
    <path clip-path="url(#p15dbe22a64)" d="M 25.928927 70.000934 
L 35.629614 70.000934 
" style="fill:none;stroke:#000000;stroke-width:0.5;"/>
    <path clip-path="url(#p15dbe22a64)" d="M 26.248816 90.521136 
L 30.486776 90.521136 
" style="fill:none;stroke:#000000;stroke-width:0.5;"/>
    <path clip-path="url(#p15dbe22a64)" d="M 26.182083 57.663058 
L 41.704517 57.663058 
" style="fill:none;stroke:#000000;stroke-width:0.5;"/>
    <path clip-path="url(#p15dbe22a64)" d="M 27.658673 59.456321 
L 45.093487 59.456321 
" style="fill:none;stroke:#000000;stroke-width:0.5;"/>
    <path clip-path="url(#p15dbe22a64)" d="M 26.13144 76.44248 
L 37.983054 76.44248 
" style="fill:none;stroke:#000000;stroke-width:0.5;"/>
    <path clip-path="url(#p15dbe22a64)" d="M 30.018932 50.472613 
L 40.20625 50.472613 
" style="fill:none;stroke:#000000;stroke-width:0.5;"/>
    <path clip-path="url(#p15dbe22a64)" d="M 28.355483 60.533896 
L 41.900504 60.533896 
" style="fill:none;stroke:#000000;stroke-width:0.5;"/>
    <path clip-path="url(#p15dbe22a64)" d="M 32.427323 43.547303 
L 57.845693 43.547303 
" style="fill:none;stroke:#000000;stroke-width:0.5;"/>
    <path clip-path="url(#p15dbe22a64)" d="M 27 93.56411 
L 27 93.56411 
" style="fill:none;stroke:#000000;stroke-width:0.5;"/>
    <path clip-path="url(#p15dbe22a64)" d="M 27 90.926609 
L 27 90.926609 
" style="fill:none;stroke:#000000;stroke-width:0.5;"/>
    <path clip-path="url(#p15dbe22a64)" d="M 27.423534 59.374613 
L 37.101116 59.374613 
" style="fill:none;stroke:#000000;stroke-width:0.5;"/>
    <path clip-path="url(#p15dbe22a64)" d="M 27 85.970442 
L 27 85.970442 
" style="fill:none;stroke:#000000;stroke-width:0.5;"/>
    <path clip-path="url(#p15dbe22a64)" d="M 25.53134 69.789422 
L 33.227587 69.789422 
" style="fill:none;stroke:#000000;stroke-width:0.5;"/>
    <path clip-path="url(#p15dbe22a64)" d="M 27.919263 55.899719 
L 35.007939 55.899719 
" style="fill:none;stroke:#000000;stroke-width:0.5;"/>
    <path clip-path="url(#p15dbe22a64)" d="M 23.405273 83.582416 
L 35.554715 83.582416 
" style="fill:none;stroke:#000000;stroke-width:0.5;"/>
    <path clip-path="url(#p15dbe22a64)" d="M 31.140127 51.512566 
L 51.173153 51.512566 
" style="fill:none;stroke:#000000;stroke-width:0.5;"/>
    <path clip-path="url(#p15dbe22a64)" d="M 23.115003 31.531592 
L 48.863867 31.531592 
" style="fill:none;stroke:#000000;stroke-width:0.5;"/>
    <path clip-path="url(#p15dbe22a64)" d="M 25.441721 75.340413 
L 33.590142 75.340413 
" style="fill:none;stroke:#000000;stroke-width:0.5;"/>
    <path clip-path="url(#p15dbe22a64)" d="M 24.295658 71.838118 
L 39.552759 71.838118 
" style="fill:none;stroke:#000000;stroke-width:0.5;"/>
    <path clip-path="url(#p15dbe22a64)" d="M 37.414153 65.997235 
L 50.104437 65.997235 
" style="fill:none;stroke:#000000;stroke-width:0.5;"/>
    <path clip-path="url(#p15dbe22a64)" d="M 29.518378 58.462999 
L 37.269084 58.462999 
" style="fill:none;stroke:#000000;stroke-width:0.5;"/>
    <path clip-path="url(#p15dbe22a64)" d="M 28.583453 28.126039 
L 59.404419 28.126039 
" style="fill:none;stroke:#000000;stroke-width:0.5;"/>
    <path clip-path="url(#p15dbe22a64)" d="M 27.56653 73.465688 
L 36.745655 73.465688 
" style="fill:none;stroke:#000000;stroke-width:0.5;"/>
    <path clip-path="url(#p15dbe22a64)" d="M 26.457815 60.474789 
L 36.710074 60.474789 
" style="fill:none;stroke:#000000;stroke-width:0.5;"/>
    <path clip-path="url(#p15dbe22a64)" d="M 27.406037 60.716651 
L 35.604412 60.716651 
" style="fill:none;stroke:#000000;stroke-width:0.5;"/>
    <path clip-path="url(#p15dbe22a64)" d="M 30.970192 61.397372 
L 45.637582 61.397372 
" style="fill:none;stroke:#000000;stroke-width:0.5;"/>
    <path clip-path="url(#p15dbe22a64)" d="M 24.685442 66.314305 
L 36.584385 66.314305 
" style="fill:none;stroke:#000000;stroke-width:0.5;"/>
    <path clip-path="url(#p15dbe22a64)" d="M 27.32226 69.777827 
L 33.712443 69.777827 
" style="fill:none;stroke:#000000;stroke-width:0.5;"/>
   </g>
   <g id="LineCollection_2">
    <path clip-path="url(#p15dbe22a64)" d="M 30.831816 78.54954 
L 30.831816 72.90141 
" style="fill:none;stroke:#000000;stroke-width:0.5;"/>
    <path clip-path="url(#p15dbe22a64)" d="M 33.397034 79.451556 
L 33.397034 69.927149 
" style="fill:none;stroke:#000000;stroke-width:0.5;"/>
    <path clip-path="url(#p15dbe22a64)" d="M 30.779271 75.914419 
L 30.779271 64.087449 
" style="fill:none;stroke:#000000;stroke-width:0.5;"/>
    <path clip-path="url(#p15dbe22a64)" d="M 28.367796 92.74837 
L 28.367796 88.293901 
" style="fill:none;stroke:#000000;stroke-width:0.5;"/>
    <path clip-path="url(#p15dbe22a64)" d="M 33.9433 61.83045 
L 33.9433 53.495667 
" style="fill:none;stroke:#000000;stroke-width:0.5;"/>
    <path clip-path="url(#p15dbe22a64)" d="M 36.37608 65.54691 
L 36.37608 53.365732 
" style="fill:none;stroke:#000000;stroke-width:0.5;"/>
    <path clip-path="url(#p15dbe22a64)" d="M 32.057247 86.612742 
L 32.057247 66.272219 
" style="fill:none;stroke:#000000;stroke-width:0.5;"/>
    <path clip-path="url(#p15dbe22a64)" d="M 35.112591 54.620674 
L 35.112591 46.324552 
" style="fill:none;stroke:#000000;stroke-width:0.5;"/>
    <path clip-path="url(#p15dbe22a64)" d="M 35.127993 65.908651 
L 35.127993 55.159141 
" style="fill:none;stroke:#000000;stroke-width:0.5;"/>
    <path clip-path="url(#p15dbe22a64)" d="M 45.136508 57.1233 
L 45.136508 29.971305 
" style="fill:none;stroke:#000000;stroke-width:0.5;"/>
    <path clip-path="url(#p15dbe22a64)" d="M 27 94.589326 
L 27 92.538894 
" style="fill:none;stroke:#000000;stroke-width:0.5;"/>
    <path clip-path="url(#p15dbe22a64)" d="M 27 94.841063 
L 27 87.012155 
" style="fill:none;stroke:#000000;stroke-width:0.5;"/>
    <path clip-path="url(#p15dbe22a64)" d="M 32.262325 65.407109 
L 32.262325 53.342117 
" style="fill:none;stroke:#000000;stroke-width:0.5;"/>
    <path clip-path="url(#p15dbe22a64)" d="M 27 88.299672 
L 27 83.641212 
" style="fill:none;stroke:#000000;stroke-width:0.5;"/>
    <path clip-path="url(#p15dbe22a64)" d="M 29.379464 76.465768 
L 29.379464 63.113076 
" style="fill:none;stroke:#000000;stroke-width:0.5;"/>
    <path clip-path="url(#p15dbe22a64)" d="M 31.463601 69.590848 
L 31.463601 42.20859 
" style="fill:none;stroke:#000000;stroke-width:0.5;"/>
    <path clip-path="url(#p15dbe22a64)" d="M 29.479994 92.03914 
L 29.479994 75.125693 
" style="fill:none;stroke:#000000;stroke-width:0.5;"/>
    <path clip-path="url(#p15dbe22a64)" d="M 41.15664 56.517751 
L 41.15664 46.50738 
" style="fill:none;stroke:#000000;stroke-width:0.5;"/>
    <path clip-path="url(#p15dbe22a64)" d="M 35.989435 41.872707 
L 35.989435 21.190477 
" style="fill:none;stroke:#000000;stroke-width:0.5;"/>
    <path clip-path="url(#p15dbe22a64)" d="M 29.515931 80.182555 
L 29.515931 70.498271 
" style="fill:none;stroke:#000000;stroke-width:0.5;"/>
    <path clip-path="url(#p15dbe22a64)" d="M 31.924208 85.735205 
L 31.924208 57.94103 
" style="fill:none;stroke:#000000;stroke-width:0.5;"/>
    <path clip-path="url(#p15dbe22a64)" d="M 43.759295 75.747735 
L 43.759295 56.246735 
" style="fill:none;stroke:#000000;stroke-width:0.5;"/>
    <path clip-path="url(#p15dbe22a64)" d="M 33.393731 72.38126 
L 33.393731 44.544737 
" style="fill:none;stroke:#000000;stroke-width:0.5;"/>
    <path clip-path="url(#p15dbe22a64)" d="M 43.993936 39.392979 
L 43.993936 16.859098 
" style="fill:none;stroke:#000000;stroke-width:0.5;"/>
    <path clip-path="url(#p15dbe22a64)" d="M 32.156092 77.444788 
L 32.156092 69.486589 
" style="fill:none;stroke:#000000;stroke-width:0.5;"/>
    <path clip-path="url(#p15dbe22a64)" d="M 31.583945 72.629863 
L 31.583945 48.319715 
" style="fill:none;stroke:#000000;stroke-width:0.5;"/>
    <path clip-path="url(#p15dbe22a64)" d="M 31.505225 65.452548 
L 31.505225 55.980755 
" style="fill:none;stroke:#000000;stroke-width:0.5;"/>
    <path clip-path="url(#p15dbe22a64)" d="M 38.303887 64.3947 
L 38.303887 58.400044 
" style="fill:none;stroke:#000000;stroke-width:0.5;"/>
    <path clip-path="url(#p15dbe22a64)" d="M 30.634914 69.575487 
L 30.634914 63.053123 
" style="fill:none;stroke:#000000;stroke-width:0.5;"/>
    <path clip-path="url(#p15dbe22a64)" d="M 30.517351 74.49455 
L 30.517351 65.061105 
" style="fill:none;stroke:#000000;stroke-width:0.5;"/>
   </g>
   <g id="line2d_1">
    <path clip-path="url(#p15dbe22a64)" d="M 27 80.884004 
L 27.768595 79.041629 
L 28.53719 77.199254 
L 29.305785 75.356879 
L 30.07438 73.514503 
L 30.842975 71.672128 
L 31.61157 69.829753 
L 32.380165 67.987378 
L 33.14876 66.145003 
L 33.917355 64.302627 
L 34.68595 62.460252 
L 35.454545 60.617877 
L 36.22314 58.775502 
L 36.991736 56.933127 
L 37.760331 55.090751 
L 38.528926 53.248376 
L 39.297521 51.406001 
L 40.066116 49.563626 
L 40.834711 47.72125 
L 41.603306 45.878875 
L 42.371901 44.0365 
L 43.140496 42.194125 
L 43.909091 40.35175 
L 44.677686 38.509374 
L 45.446281 36.666999 
L 46.214876 34.824624 
L 46.983471 32.982249 
L 47.752066 31.139874 
L 48.520661 29.297498 
L 49.289256 27.455123 
L 50.057851 25.612748 
L 50.826446 23.770373 
L 51.595041 21.927998 
L 52.363636 20.085622 
L 53.132231 18.243247 
L 53.900826 16.400872 
L 54.669421 14.558497 
L 55.438017 12.716122 
L 56.206612 10.873746 
L 56.975207 9.031371 
L 57.743802 7.188996 
L 58.512397 5.346621 
L 59.280992 3.504245 
L 60.049587 1.66187 
L 60.818182 -0.180505 
L 61.160056 -1 
" style="fill:none;stroke:#000000;stroke-dasharray:1.85,0.8;stroke-dashoffset:0;stroke-width:0.5;"/>
   </g>
   <g id="line2d_2">
    <defs>
     <path d="M 0 3 
C 0.795609 3 1.55874 2.683901 2.12132 2.12132 
C 2.683901 1.55874 3 0.795609 3 0 
C 3 -0.795609 2.683901 -1.55874 2.12132 -2.12132 
C 1.55874 -2.683901 0.795609 -3 0 -3 
C -0.795609 -3 -1.55874 -2.683901 -2.12132 -2.12132 
C -2.683901 -1.55874 -3 -0.795609 -3 0 
C -3 0.795609 -2.683901 1.55874 -2.12132 2.12132 
C -1.55874 2.683901 -0.795609 3 0 3 
z
" id="m1a6a8d8bf1" style="stroke:#000000;"/>
    </defs>
    <g clip-path="url(#p15dbe22a64)">
     <use style="stroke:#000000;" x="30.831816" xlink:href="#m1a6a8d8bf1" y="75.725475"/>
     <use style="stroke:#000000;" x="33.397034" xlink:href="#m1a6a8d8bf1" y="74.689352"/>
     <use style="stroke:#000000;" x="30.779271" xlink:href="#m1a6a8d8bf1" y="70.000934"/>
     <use style="stroke:#000000;" x="28.367796" xlink:href="#m1a6a8d8bf1" y="90.521136"/>
     <use style="stroke:#000000;" x="33.9433" xlink:href="#m1a6a8d8bf1" y="57.663058"/>
     <use style="stroke:#000000;" x="36.37608" xlink:href="#m1a6a8d8bf1" y="59.456321"/>
     <use style="stroke:#000000;" x="32.057247" xlink:href="#m1a6a8d8bf1" y="76.44248"/>
     <use style="stroke:#000000;" x="35.112591" xlink:href="#m1a6a8d8bf1" y="50.472613"/>
     <use style="stroke:#000000;" x="35.127993" xlink:href="#m1a6a8d8bf1" y="60.533896"/>
     <use style="stroke:#000000;" x="45.136508" xlink:href="#m1a6a8d8bf1" y="43.547303"/>
     <use style="stroke:#000000;" x="27" xlink:href="#m1a6a8d8bf1" y="93.56411"/>
     <use style="stroke:#000000;" x="27" xlink:href="#m1a6a8d8bf1" y="90.926609"/>
     <use style="stroke:#000000;" x="32.262325" xlink:href="#m1a6a8d8bf1" y="59.374613"/>
     <use style="stroke:#000000;" x="27" xlink:href="#m1a6a8d8bf1" y="85.970442"/>
     <use style="stroke:#000000;" x="29.379464" xlink:href="#m1a6a8d8bf1" y="69.789422"/>
     <use style="stroke:#000000;" x="31.463601" xlink:href="#m1a6a8d8bf1" y="55.899719"/>
     <use style="stroke:#000000;" x="29.479994" xlink:href="#m1a6a8d8bf1" y="83.582416"/>
     <use style="stroke:#000000;" x="41.15664" xlink:href="#m1a6a8d8bf1" y="51.512566"/>
     <use style="stroke:#000000;" x="35.989435" xlink:href="#m1a6a8d8bf1" y="31.531592"/>
     <use style="stroke:#000000;" x="29.515931" xlink:href="#m1a6a8d8bf1" y="75.340413"/>
     <use style="stroke:#000000;" x="31.924208" xlink:href="#m1a6a8d8bf1" y="71.838118"/>
     <use style="stroke:#000000;" x="43.759295" xlink:href="#m1a6a8d8bf1" y="65.997235"/>
     <use style="stroke:#000000;" x="33.393731" xlink:href="#m1a6a8d8bf1" y="58.462999"/>
     <use style="stroke:#000000;" x="43.993936" xlink:href="#m1a6a8d8bf1" y="28.126039"/>
     <use style="stroke:#000000;" x="32.156092" xlink:href="#m1a6a8d8bf1" y="73.465688"/>
     <use style="stroke:#000000;" x="31.583945" xlink:href="#m1a6a8d8bf1" y="60.474789"/>
     <use style="stroke:#000000;" x="31.505225" xlink:href="#m1a6a8d8bf1" y="60.716651"/>
     <use style="stroke:#000000;" x="38.303887" xlink:href="#m1a6a8d8bf1" y="61.397372"/>
     <use style="stroke:#000000;" x="30.634914" xlink:href="#m1a6a8d8bf1" y="66.314305"/>
     <use style="stroke:#000000;" x="30.517351" xlink:href="#m1a6a8d8bf1" y="69.777827"/>
    </g>
   </g>
   <g id="patch_3">
    <path d="M 27 94.5 
L 27 12.96 
" style="fill:none;stroke:#000000;stroke-linecap:square;stroke-linejoin:miter;"/>
   </g>
   <g id="patch_4">
    <path d="M 27 94.5 
L 103.090909 94.5 
" style="fill:none;stroke:#000000;stroke-linecap:square;stroke-linejoin:miter;"/>
   </g>
   <g id="matplotlib.axis_1">
    <g id="xtick_1">
     <g id="line2d_3"/>
     <g id="text_1">
      <text style="font-family:Arial;font-size:8px;font-style:normal;font-weight:normal;text-anchor:middle;" transform="rotate(-0, 27, 103.72625)" x="27" y="103.72625">0</text>
     </g>
    </g>
    <g id="xtick_2">
     <g id="line2d_4"/>
     <g id="text_2">
      <text style="font-family:Arial;font-size:8px;font-style:normal;font-weight:normal;text-anchor:middle;" transform="rotate(-0, 69.58381, 103.72625)" x="69.58381" y="103.72625">5</text>
     </g>
    </g>
    <g id="text_3">
     <text style="font-family:Arial;font-size:10px;font-style:normal;font-weight:normal;text-anchor:middle;" transform="rotate(-0, 65.045455, 116.474063)" x="65.045455" y="116.474063">Exc</text>
    </g>
   </g>
   <g id="matplotlib.axis_2">
    <g id="ytick_1">
     <g id="line2d_5"/>
     <g id="text_4">
      <text style="font-family:Arial;font-size:8px;font-style:normal;font-weight:normal;text-anchor:end;" transform="rotate(-0, 23.5, 97.363125)" x="23.5" y="97.363125">0</text>
     </g>
    </g>
    <g id="ytick_2">
     <g id="line2d_6"/>
     <g id="text_5">
      <text style="font-family:Arial;font-size:8px;font-style:normal;font-weight:normal;text-anchor:end;" transform="rotate(-0, 23.5, 79.109781)" x="23.5" y="79.109781">2</text>
     </g>
    </g>
    <g id="ytick_3">
     <g id="line2d_7"/>
     <g id="text_6">
      <text style="font-family:Arial;font-size:8px;font-style:normal;font-weight:normal;text-anchor:end;" transform="rotate(-0, 23.5, 60.856437)" x="23.5" y="60.856437">4</text>
     </g>
    </g>
    <g id="ytick_4">
     <g id="line2d_8"/>
     <g id="text_7">
      <text style="font-family:Arial;font-size:8px;font-style:normal;font-weight:normal;text-anchor:end;" transform="rotate(-0, 23.5, 42.603093)" x="23.5" y="42.603093">6</text>
     </g>
    </g>
    <g id="ytick_5">
     <g id="line2d_9"/>
     <g id="text_8">
      <text style="font-family:Arial;font-size:8px;font-style:normal;font-weight:normal;text-anchor:end;" transform="rotate(-0, 23.5, 24.349749)" x="23.5" y="24.349749">8</text>
     </g>
    </g>
    <g id="text_9">
     <text style="font-family:Arial;font-size:10px;font-style:normal;font-weight:normal;text-anchor:middle;" transform="rotate(-90, 13.06375, 53.73)" x="13.06375" y="53.73">Inh</text>
    </g>
   </g>
   <g id="legend_1">
    <g id="line2d_10">
     <path d="M 36 75.622656 
L 56 75.622656 
" style="fill:none;stroke:#000000;stroke-dasharray:1.85,0.8;stroke-dashoffset:0;stroke-width:0.5;"/>
    </g>
    <g id="line2d_11"/>
    <g id="text_10">
     <!-- $R^2$ 0.56 -->
     <g transform="translate(64 72.875)">
      <text>
       <tspan style="font-family:DejaVu Sans;font-size:10px;font-style:oblique;font-weight:oblique;" x="0" y="-0.9765625">R</tspan>
       <tspan style="font-family:DejaVu Sans;font-size:7px;font-style:book;font-weight:book;" x="7.650794" y="-4.8046875">2</tspan>
       <tspan style="font-family:Arial;font-size:10px;font-style:regular;font-weight:regular;" x="12.377845 15.156165 20.717689 23.496009 29.057533" y="-0.9765625"> 0.56</tspan>
      </text>
     </g>
     <text style="font-family:Arial;font-size:10px;font-style:normal;font-weight:normal;" transform="translate(64 83.4875)"> slope 2.24</text>
    </g>
   </g>
  </g>
  <g id="axes_2">
   <g id="patch_5">
    <path d="M 118.309091 94.5 
L 194.4 94.5 
L 194.4 12.96 
L 118.309091 12.96 
z
" style="fill:#ffffff;"/>
   </g>
   <g id="PathCollection_1">
    <defs>
     <path d="M 0 2.44949 
C 0.649612 2.44949 1.272706 2.191396 1.732051 1.732051 
C 2.191396 1.272706 2.44949 0.649612 2.44949 0 
C 2.44949 -0.649612 2.191396 -1.272706 1.732051 -1.732051 
C 1.272706 -2.191396 0.649612 -2.44949 0 -2.44949 
C -0.649612 -2.44949 -1.272706 -2.191396 -1.732051 -1.732051 
C -2.191396 -1.272706 -2.44949 -0.649612 -2.44949 0 
C -2.44949 0.649612 -2.191396 1.272706 -1.732051 1.732051 
C -1.272706 2.191396 -0.649612 2.44949 0 2.44949 
z
" id="mede441361e" style="stroke:#000000;"/>
    </defs>
    <g clip-path="url(#pe4d3f5a9b7)">
     <use style="stroke:#000000;" x="128.076137" xlink:href="#mede441361e" y="81.342499"/>
     <use style="stroke:#000000;" x="154.211841" xlink:href="#mede441361e" y="72.312588"/>
     <use style="stroke:#000000;" x="140.907153" xlink:href="#mede441361e" y="66.948693"/>
     <use style="stroke:#000000;" x="128.181555" xlink:href="#mede441361e" y="84.12317"/>
     <use style="stroke:#000000;" x="154.4691" xlink:href="#mede441361e" y="75.083855"/>
     <use style="stroke:#000000;" x="158.924052" xlink:href="#mede441361e" y="66.123552"/>
     <use style="stroke:#000000;" x="145.917808" xlink:href="#mede441361e" y="47.116097"/>
     <use style="stroke:#000000;" x="142.040777" xlink:href="#mede441361e" y="75.173918"/>
     <use style="stroke:#000000;" x="149.862654" xlink:href="#mede441361e" y="69.45867"/>
     <use style="stroke:#000000;" x="177.522002" xlink:href="#mede441361e" y="31.248552"/>
     <use style="stroke:#000000;" x="118.309091" xlink:href="#mede441361e" y="89.723453"/>
     <use style="stroke:#000000;" x="118.309091" xlink:href="#mede441361e" y="76.262308"/>
     <use style="stroke:#000000;" x="140.85333" xlink:href="#mede441361e" y="66.394213"/>
     <use style="stroke:#000000;" x="118.309091" xlink:href="#mede441361e" y="83.647966"/>
     <use style="stroke:#000000;" x="136.237747" xlink:href="#mede441361e" y="63.394472"/>
     <use style="stroke:#000000;" x="134.822391" xlink:href="#mede441361e" y="30.712148"/>
     <use style="stroke:#000000;" x="146.611608" xlink:href="#mede441361e" y="55.099578"/>
     <use style="stroke:#000000;" x="164.97667" xlink:href="#mede441361e" y="71.180517"/>
     <use style="stroke:#000000;" x="178.291899" xlink:href="#mede441361e" y="46.320079"/>
     <use style="stroke:#000000;" x="137.2911" xlink:href="#mede441361e" y="71.940149"/>
     <use style="stroke:#000000;" x="153.851002" xlink:href="#mede441361e" y="29.752572"/>
     <use style="stroke:#000000;" x="147.871518" xlink:href="#mede441361e" y="49.071791"/>
     <use style="stroke:#000000;" x="136.364612" xlink:href="#mede441361e" y="29.653922"/>
     <use style="stroke:#000000;" x="190.107526" xlink:href="#mede441361e" y="42.006598"/>
     <use style="stroke:#000000;" x="139.692158" xlink:href="#mede441361e" y="75.961119"/>
     <use style="stroke:#000000;" x="142.192059" xlink:href="#mede441361e" y="37.868727"/>
     <use style="stroke:#000000;" x="137.407469" xlink:href="#mede441361e" y="72.435152"/>
     <use style="stroke:#000000;" x="152.47725" xlink:href="#mede441361e" y="80.535256"/>
     <use style="stroke:#000000;" x="146.028061" xlink:href="#mede441361e" y="79.305943"/>
     <use style="stroke:#000000;" x="133.195228" xlink:href="#mede441361e" y="72.524486"/>
    </g>
   </g>
   <g id="line2d_12">
    <path clip-path="url(#pe4d3f5a9b7)" d="M 118.309091 76.749539 
L 119.077686 76.357838 
L 119.846281 75.966137 
L 120.614876 75.574437 
L 121.383471 75.182736 
L 122.152066 74.791035 
L 122.920661 74.399335 
L 123.689256 74.007634 
L 124.457851 73.615934 
L 125.226446 73.224233 
L 125.995041 72.832532 
L 126.763636 72.440832 
L 127.532231 72.049131 
L 128.300826 71.657431 
L 129.069421 71.26573 
L 129.838017 70.874029 
L 130.606612 70.482329 
L 131.375207 70.090628 
L 132.143802 69.698928 
L 132.912397 69.307227 
L 133.680992 68.915526 
L 134.449587 68.523826 
L 135.218182 68.132125 
L 135.986777 67.740424 
L 136.755372 67.348724 
L 137.523967 66.957023 
L 138.292562 66.565323 
L 139.061157 66.173622 
L 139.829752 65.781921 
L 140.598347 65.390221 
L 141.366942 64.99852 
L 142.135537 64.60682 
L 142.904132 64.215119 
L 143.672727 63.823418 
L 144.441322 63.431718 
L 145.209917 63.040017 
L 145.978512 62.648317 
L 146.747107 62.256616 
L 147.515702 61.864915 
L 148.284298 61.473215 
L 149.052893 61.081514 
L 149.821488 60.689814 
L 150.590083 60.298113 
L 151.358678 59.906412 
L 152.127273 59.514712 
L 152.895868 59.123011 
L 153.664463 58.73131 
L 154.433058 58.33961 
L 155.201653 57.947909 
L 155.970248 57.556209 
L 156.738843 57.164508 
L 157.507438 56.772807 
L 158.276033 56.381107 
L 159.044628 55.989406 
L 159.813223 55.597706 
L 160.581818 55.206005 
L 161.350413 54.814304 
L 162.119008 54.422604 
L 162.887603 54.030903 
L 163.656198 53.639203 
L 164.424793 53.247502 
L 165.193388 52.855801 
L 165.961983 52.464101 
L 166.730579 52.0724 
L 167.499174 51.680699 
L 168.267769 51.288999 
L 169.036364 50.897298 
L 169.804959 50.505598 
L 170.573554 50.113897 
L 171.342149 49.722196 
L 172.110744 49.330496 
L 172.879339 48.938795 
L 173.647934 48.547095 
L 174.416529 48.155394 
L 175.185124 47.763693 
L 175.953719 47.371993 
L 176.722314 46.980292 
L 177.490909 46.588592 
L 178.259504 46.196891 
L 179.028099 45.80519 
L 179.796694 45.41349 
L 180.565289 45.021789 
L 181.333884 44.630089 
L 182.102479 44.238388 
L 182.871074 43.846687 
L 183.639669 43.454987 
L 184.408264 43.063286 
L 185.17686 42.671585 
L 185.945455 42.279885 
L 186.71405 41.888184 
L 187.482645 41.496484 
L 188.25124 41.104783 
L 189.019835 40.713082 
L 189.78843 40.321382 
L 190.557025 39.929681 
L 191.32562 39.537981 
L 192.094215 39.14628 
L 192.86281 38.754579 
L 193.631405 38.362879 
L 194.4 37.971178 
" style="fill:none;stroke:#000000;stroke-dasharray:1.85,0.8;stroke-dashoffset:0;stroke-width:0.5;"/>
   </g>
   <g id="patch_6">
    <path d="M 118.309091 94.5 
L 118.309091 12.96 
" style="fill:none;stroke:#000000;stroke-linecap:square;stroke-linejoin:miter;"/>
   </g>
   <g id="patch_7">
    <path d="M 118.309091 94.5 
L 194.4 94.5 
" style="fill:none;stroke:#000000;stroke-linecap:square;stroke-linejoin:miter;"/>
   </g>
   <g id="matplotlib.axis_3">
    <g id="xtick_3">
     <g id="line2d_13"/>
     <g id="text_11">
      <text style="font-family:Arial;font-size:8px;font-style:normal;font-weight:normal;text-anchor:middle;" transform="rotate(-0, 118.309091, 103.72625)" x="118.309091" y="103.72625">0</text>
     </g>
    </g>
    <g id="xtick_4">
     <g id="line2d_14"/>
     <g id="text_12">
      <text style="font-family:Arial;font-size:8px;font-style:normal;font-weight:normal;text-anchor:middle;" transform="rotate(-0, 157.989234, 103.72625)" x="157.989234" y="103.72625">1</text>
     </g>
    </g>
    <g id="text_13">
     <!-- $\sigma$(Exc) -->
     <g transform="translate(141.504545 116.61625)">
      <text>
       <tspan style="font-family:DejaVu Sans;font-size:10px;font-style:oblique;font-weight:oblique;" x="0" y="-0.71875">σ</tspan>
       <tspan style="font-family:Arial;font-size:10px;font-style:regular;font-weight:regular;" x="6.337891 9.667969 16.337891 21.337891 26.337891" y="-0.71875">(Exc)</tspan>
      </text>
     </g>
    </g>
   </g>
   <g id="matplotlib.axis_4">
    <g id="ytick_6">
     <g id="line2d_15"/>
     <g id="text_14">
      <text style="font-family:Arial;font-size:8px;font-style:normal;font-weight:normal;text-anchor:end;" transform="rotate(-0, 114.809091, 97.363125)" x="114.809091" y="97.363125">0.0</text>
     </g>
    </g>
    <g id="ytick_7">
     <g id="line2d_16"/>
     <g id="text_15">
      <text style="font-family:Arial;font-size:8px;font-style:normal;font-weight:normal;text-anchor:end;" transform="rotate(-0, 114.809091, 76.102248)" x="114.809091" y="76.102248">0.5</text>
     </g>
    </g>
    <g id="ytick_8">
     <g id="line2d_17"/>
     <g id="text_16">
      <text style="font-family:Arial;font-size:8px;font-style:normal;font-weight:normal;text-anchor:end;" transform="rotate(-0, 114.809091, 54.841371)" x="114.809091" y="54.841371">1.0</text>
     </g>
    </g>
    <g id="ytick_9">
     <g id="line2d_18"/>
     <g id="text_17">
      <text style="font-family:Arial;font-size:8px;font-style:normal;font-weight:normal;text-anchor:end;" transform="rotate(-0, 114.809091, 33.580495)" x="114.809091" y="33.580495">1.5</text>
     </g>
    </g>
    <g id="text_18">
     <!-- $\sigma$(Inh) -->
     <g transform="translate(97.489091 67.18)rotate(-90)">
      <text>
       <tspan style="font-family:DejaVu Sans;font-size:10px;font-style:oblique;font-weight:oblique;" x="0" y="-0.71875">σ</tspan>
       <tspan style="font-family:Arial;font-size:10px;font-style:regular;font-weight:regular;" x="6.337891 9.667969 12.446289 18.007812 23.569336" y="-0.71875">(Inh)</tspan>
      </text>
     </g>
    </g>
   </g>
   <g id="legend_2">
    <g id="line2d_19">
     <path d="M 108.478125 31.995156 
L 128.478125 31.995156 
" style="fill:none;stroke:#000000;stroke-dasharray:1.85,0.8;stroke-dashoffset:0;stroke-width:0.5;"/>
    </g>
    <g id="line2d_20"/>
    <g id="text_19">
     <!-- $R^2$ 0.22 -->
     <g transform="translate(136.478125 29.2475)">
      <text>
       <tspan style="font-family:DejaVu Sans;font-size:10px;font-style:oblique;font-weight:oblique;" x="0" y="-0.9765625">R</tspan>
       <tspan style="font-family:DejaVu Sans;font-size:7px;font-style:book;font-weight:book;" x="7.650794" y="-4.8046875">2</tspan>
       <tspan style="font-family:Arial;font-size:10px;font-style:regular;font-weight:regular;" x="12.377845 15.156165 20.717689 23.496009 29.057533" y="-0.9765625"> 0.22</tspan>
      </text>
     </g>
     <text style="font-family:Arial;font-size:10px;font-style:normal;font-weight:normal;" transform="translate(136.478125 39.86)"> slope 0.48</text>
    </g>
   </g>
  </g>
 </g>
 <defs>
  <clipPath id="p15dbe22a64">
   <rect height="81.54" width="76.090909" x="27" y="12.96"/>
  </clipPath>
  <clipPath id="pe4d3f5a9b7">
   <rect height="81.54" width="76.090909" x="118.309091" y="12.96"/>
  </clipPath>
 </defs>
</svg>
