<?xml version="1.0" encoding="utf-8" standalone="no"?>
<!DOCTYPE svg PUBLIC "-//W3C//DTD SVG 1.1//EN"
  "http://www.w3.org/Graphics/SVG/1.1/DTD/svg11.dtd">
<!-- Created with matplotlib (http://matplotlib.org/) -->
<svg height="108pt" version="1.1" viewBox="0 0 216 108" width="216pt" xmlns="http://www.w3.org/2000/svg" xmlns:xlink="http://www.w3.org/1999/xlink">
 <defs>
  <style type="text/css">
*{stroke-linecap:butt;stroke-linejoin:round;}
  </style>
 </defs>
 <g id="figure_1">
  <g id="patch_1">
   <path d="M 0 108 
L 216 108 
L 216 0 
L 0 0 
z
" style="fill:#ffffff;"/>
  </g>
  <g id="axes_1">
   <g id="patch_2">
    <path d="M 27 94.5 
L 103.090909 94.5 
L 103.090909 12.96 
L 27 12.96 
z
" style="fill:#ffffff;"/>
   </g>
   <g id="LineCollection_1">
    <path clip-path="url(#p1200742692)" d="M 35.75204 39.200815 
L 58.038987 39.200815 
" style="fill:none;stroke:#000000;stroke-width:0.5;"/>
    <path clip-path="url(#p1200742692)" d="M 27.098949 72.915179 
L 31.940123 72.915179 
" style="fill:none;stroke:#000000;stroke-width:0.5;"/>
    <path clip-path="url(#p1200742692)" d="M 21.629219 43.364711 
L 54.156723 43.364711 
" style="fill:none;stroke:#000000;stroke-width:0.5;"/>
    <path clip-path="url(#p1200742692)" d="M 29.589143 28.272533 
L 52.140251 28.272533 
" style="fill:none;stroke:#000000;stroke-width:0.5;"/>
    <path clip-path="url(#p1200742692)" d="M 21.762211 54.968311 
L 45.213826 54.968311 
" style="fill:none;stroke:#000000;stroke-width:0.5;"/>
    <path clip-path="url(#p1200742692)" d="M 27.221484 69.825908 
L 35.734082 69.825908 
" style="fill:none;stroke:#000000;stroke-width:0.5;"/>
    <path clip-path="url(#p1200742692)" d="M 29.826672 80.756717 
L 35.2654 80.756717 
" style="fill:none;stroke:#000000;stroke-width:0.5;"/>
    <path clip-path="url(#p1200742692)" d="M 26.208211 82.820912 
L 32.488412 82.820912 
" style="fill:none;stroke:#000000;stroke-width:0.5;"/>
    <path clip-path="url(#p1200742692)" d="M 26.331763 80.370847 
L 31.850017 80.370847 
" style="fill:none;stroke:#000000;stroke-width:0.5;"/>
    <path clip-path="url(#p1200742692)" d="M 27.397997 77.386238 
L 34.712922 77.386238 
" style="fill:none;stroke:#000000;stroke-width:0.5;"/>
    <path clip-path="url(#p1200742692)" d="M 27.569431 60.624605 
L 38.344349 60.624605 
" style="fill:none;stroke:#000000;stroke-width:0.5;"/>
    <path clip-path="url(#p1200742692)" d="M 26.113914 87.902382 
L 29.951252 87.902382 
" style="fill:none;stroke:#000000;stroke-width:0.5;"/>
    <path clip-path="url(#p1200742692)" d="M 26.425802 77.42493 
L 36.587939 77.42493 
" style="fill:none;stroke:#000000;stroke-width:0.5;"/>
    <path clip-path="url(#p1200742692)" d="M 28.109208 73.055864 
L 36.100435 73.055864 
" style="fill:none;stroke:#000000;stroke-width:0.5;"/>
    <path clip-path="url(#p1200742692)" d="M 32.409528 65.632612 
L 36.758576 65.632612 
" style="fill:none;stroke:#000000;stroke-width:0.5;"/>
    <path clip-path="url(#p1200742692)" d="M 27.59539 87.430362 
L 31.904083 87.430362 
" style="fill:none;stroke:#000000;stroke-width:0.5;"/>
    <path clip-path="url(#p1200742692)" d="M 28.592849 69.248594 
L 35.104515 69.248594 
" style="fill:none;stroke:#000000;stroke-width:0.5;"/>
    <path clip-path="url(#p1200742692)" d="M 26.897321 73.129807 
L 36.498809 73.129807 
" style="fill:none;stroke:#000000;stroke-width:0.5;"/>
    <path clip-path="url(#p1200742692)" d="M 31.186881 60.969167 
L 52.517071 60.969167 
" style="fill:none;stroke:#000000;stroke-width:0.5;"/>
    <path clip-path="url(#p1200742692)" d="M 27 94.5 
L 27 94.5 
" style="fill:none;stroke:#000000;stroke-width:0.5;"/>
    <path clip-path="url(#p1200742692)" d="M 27.949289 72.727411 
L 44.959788 72.727411 
" style="fill:none;stroke:#000000;stroke-width:0.5;"/>
    <path clip-path="url(#p1200742692)" d="M 28.517211 66.80745 
L 37.327861 66.80745 
" style="fill:none;stroke:#000000;stroke-width:0.5;"/>
    <path clip-path="url(#p1200742692)" d="M 26.073753 86.064591 
L 31.092102 86.064591 
" style="fill:none;stroke:#000000;stroke-width:0.5;"/>
    <path clip-path="url(#p1200742692)" d="M 29.595097 63.58376 
L 37.280039 63.58376 
" style="fill:none;stroke:#000000;stroke-width:0.5;"/>
    <path clip-path="url(#p1200742692)" d="M 27.727377 79.07322 
L 36.03491 79.07322 
" style="fill:none;stroke:#000000;stroke-width:0.5;"/>
    <path clip-path="url(#p1200742692)" d="M 28.770055 78.069009 
L 38.863991 78.069009 
" style="fill:none;stroke:#000000;stroke-width:0.5;"/>
    <path clip-path="url(#p1200742692)" d="M 28.649671 60.521978 
L 44.75551 60.521978 
" style="fill:none;stroke:#000000;stroke-width:0.5;"/>
    <path clip-path="url(#p1200742692)" d="M 28.217308 34.978057 
L 51.200057 34.978057 
" style="fill:none;stroke:#000000;stroke-width:0.5;"/>
    <path clip-path="url(#p1200742692)" d="M 27.70503 63.537555 
L 37.054436 63.537555 
" style="fill:none;stroke:#000000;stroke-width:0.5;"/>
    <path clip-path="url(#p1200742692)" d="M 26.589885 69.590237 
L 35.676719 69.590237 
" style="fill:none;stroke:#000000;stroke-width:0.5;"/>
   </g>
   <g id="LineCollection_2">
    <path clip-path="url(#p1200742692)" d="M 46.895514 49.786786 
L 46.895514 28.614844 
" style="fill:none;stroke:#000000;stroke-width:0.5;"/>
    <path clip-path="url(#p1200742692)" d="M 29.519536 76.229437 
L 29.519536 69.600922 
" style="fill:none;stroke:#000000;stroke-width:0.5;"/>
    <path clip-path="url(#p1200742692)" d="M 37.892971 60.257584 
L 37.892971 26.471838 
" style="fill:none;stroke:#000000;stroke-width:0.5;"/>
    <path clip-path="url(#p1200742692)" d="M 40.864697 39.702208 
L 40.864697 16.842857 
" style="fill:none;stroke:#000000;stroke-width:0.5;"/>
    <path clip-path="url(#p1200742692)" d="M 33.488018 64.627305 
L 33.488018 45.309317 
" style="fill:none;stroke:#000000;stroke-width:0.5;"/>
    <path clip-path="url(#p1200742692)" d="M 31.477783 76.63781 
L 31.477783 63.014005 
" style="fill:none;stroke:#000000;stroke-width:0.5;"/>
    <path clip-path="url(#p1200742692)" d="M 32.546036 83.59175 
L 32.546036 77.921684 
" style="fill:none;stroke:#000000;stroke-width:0.5;"/>
    <path clip-path="url(#p1200742692)" d="M 29.348311 86.073886 
L 29.348311 79.567939 
" style="fill:none;stroke:#000000;stroke-width:0.5;"/>
    <path clip-path="url(#p1200742692)" d="M 29.09089 82.900924 
L 29.09089 77.84077 
" style="fill:none;stroke:#000000;stroke-width:0.5;"/>
    <path clip-path="url(#p1200742692)" d="M 31.055459 78.884775 
L 31.055459 75.8877 
" style="fill:none;stroke:#000000;stroke-width:0.5;"/>
    <path clip-path="url(#p1200742692)" d="M 32.95689 67.748499 
L 32.95689 53.50071 
" style="fill:none;stroke:#000000;stroke-width:0.5;"/>
    <path clip-path="url(#p1200742692)" d="M 28.032583 91.668316 
L 28.032583 84.136447 
" style="fill:none;stroke:#000000;stroke-width:0.5;"/>
    <path clip-path="url(#p1200742692)" d="M 31.50687 77.42493 
L 31.50687 77.42493 
" style="fill:none;stroke:#000000;stroke-width:0.5;"/>
    <path clip-path="url(#p1200742692)" d="M 32.104821 75.499634 
L 32.104821 70.612093 
" style="fill:none;stroke:#000000;stroke-width:0.5;"/>
    <path clip-path="url(#p1200742692)" d="M 34.584052 75.394427 
L 34.584052 55.870797 
" style="fill:none;stroke:#000000;stroke-width:0.5;"/>
    <path clip-path="url(#p1200742692)" d="M 29.749737 89.671589 
L 29.749737 85.189135 
" style="fill:none;stroke:#000000;stroke-width:0.5;"/>
    <path clip-path="url(#p1200742692)" d="M 31.848682 74.725729 
L 31.848682 63.771459 
" style="fill:none;stroke:#000000;stroke-width:0.5;"/>
    <path clip-path="url(#p1200742692)" d="M 31.698065 77.317877 
L 31.698065 68.941737 
" style="fill:none;stroke:#000000;stroke-width:0.5;"/>
    <path clip-path="url(#p1200742692)" d="M 41.851976 73.223072 
L 41.851976 48.715263 
" style="fill:none;stroke:#000000;stroke-width:0.5;"/>
    <path clip-path="url(#p1200742692)" d="M 27 94.5 
L 27 94.5 
" style="fill:none;stroke:#000000;stroke-width:0.5;"/>
    <path clip-path="url(#p1200742692)" d="M 36.454539 82.197074 
L 36.454539 63.257749 
" style="fill:none;stroke:#000000;stroke-width:0.5;"/>
    <path clip-path="url(#p1200742692)" d="M 32.922536 75.646175 
L 32.922536 57.968725 
" style="fill:none;stroke:#000000;stroke-width:0.5;"/>
    <path clip-path="url(#p1200742692)" d="M 28.582928 89.162885 
L 28.582928 82.966298 
" style="fill:none;stroke:#000000;stroke-width:0.5;"/>
    <path clip-path="url(#p1200742692)" d="M 33.437568 69.18369 
L 33.437568 57.983829 
" style="fill:none;stroke:#000000;stroke-width:0.5;"/>
    <path clip-path="url(#p1200742692)" d="M 31.881144 80.805101 
L 31.881144 77.341338 
" style="fill:none;stroke:#000000;stroke-width:0.5;"/>
    <path clip-path="url(#p1200742692)" d="M 33.817023 84.795959 
L 33.817023 71.342059 
" style="fill:none;stroke:#000000;stroke-width:0.5;"/>
    <path clip-path="url(#p1200742692)" d="M 36.702591 67.581479 
L 36.702591 53.462476 
" style="fill:none;stroke:#000000;stroke-width:0.5;"/>
    <path clip-path="url(#p1200742692)" d="M 39.708682 48.529018 
L 39.708682 21.427097 
" style="fill:none;stroke:#000000;stroke-width:0.5;"/>
    <path clip-path="url(#p1200742692)" d="M 32.379733 70.508314 
L 32.379733 56.566797 
" style="fill:none;stroke:#000000;stroke-width:0.5;"/>
    <path clip-path="url(#p1200742692)" d="M 31.133302 73.678527 
L 31.133302 65.501947 
" style="fill:none;stroke:#000000;stroke-width:0.5;"/>
   </g>
   <g id="line2d_1">
    <path clip-path="url(#p1200742692)" d="M 27 87.469351 
L 27.768595 85.172731 
L 28.53719 82.876112 
L 29.305785 80.579492 
L 30.07438 78.282872 
L 30.842975 75.986252 
L 31.61157 73.689632 
L 32.380165 71.393012 
L 33.14876 69.096392 
L 33.917355 66.799772 
L 34.68595 64.503152 
L 35.454545 62.206532 
L 36.22314 59.909912 
L 36.991736 57.613292 
L 37.760331 55.316672 
L 38.528926 53.020052 
L 39.297521 50.723432 
L 40.066116 48.426812 
L 40.834711 46.130192 
L 41.603306 43.833572 
L 42.371901 41.536953 
L 43.140496 39.240333 
L 43.909091 36.943713 
L 44.677686 34.647093 
L 45.446281 32.350473 
L 46.214876 30.053853 
L 46.983471 27.757233 
L 47.752066 25.460613 
L 48.520661 23.163993 
L 49.289256 20.867373 
L 50.057851 18.570753 
L 50.826446 16.274133 
L 51.595041 13.977513 
L 52.363636 11.680893 
L 53.132231 9.384273 
L 53.900826 7.087653 
L 54.669421 4.791033 
L 55.438017 2.494413 
L 56.206612 0.197794 
L 56.607469 -1 
" style="fill:none;stroke:#000000;stroke-dasharray:1.85,0.8;stroke-dashoffset:0;stroke-width:0.5;"/>
   </g>
   <g id="line2d_2">
    <defs>
     <path d="M 0 3 
C 0.795609 3 1.55874 2.683901 2.12132 2.12132 
C 2.683901 1.55874 3 0.795609 3 0 
C 3 -0.795609 2.683901 -1.55874 2.12132 -2.12132 
C 1.55874 -2.683901 0.795609 -3 0 -3 
C -0.795609 -3 -1.55874 -2.683901 -2.12132 -2.12132 
C -2.683901 -1.55874 -3 -0.795609 -3 0 
C -3 0.795609 -2.683901 1.55874 -2.12132 2.12132 
C -1.55874 2.683901 -0.795609 3 0 3 
z
" id="mc1c3e642f6" style="stroke:#000000;"/>
    </defs>
    <g clip-path="url(#p1200742692)">
     <use style="stroke:#000000;" x="46.895514" xlink:href="#mc1c3e642f6" y="39.200815"/>
     <use style="stroke:#000000;" x="29.519536" xlink:href="#mc1c3e642f6" y="72.915179"/>
     <use style="stroke:#000000;" x="37.892971" xlink:href="#mc1c3e642f6" y="43.364711"/>
     <use style="stroke:#000000;" x="40.864697" xlink:href="#mc1c3e642f6" y="28.272533"/>
     <use style="stroke:#000000;" x="33.488018" xlink:href="#mc1c3e642f6" y="54.968311"/>
     <use style="stroke:#000000;" x="31.477783" xlink:href="#mc1c3e642f6" y="69.825908"/>
     <use style="stroke:#000000;" x="32.546036" xlink:href="#mc1c3e642f6" y="80.756717"/>
     <use style="stroke:#000000;" x="29.348311" xlink:href="#mc1c3e642f6" y="82.820912"/>
     <use style="stroke:#000000;" x="29.09089" xlink:href="#mc1c3e642f6" y="80.370847"/>
     <use style="stroke:#000000;" x="31.055459" xlink:href="#mc1c3e642f6" y="77.386238"/>
     <use style="stroke:#000000;" x="32.95689" xlink:href="#mc1c3e642f6" y="60.624605"/>
     <use style="stroke:#000000;" x="28.032583" xlink:href="#mc1c3e642f6" y="87.902382"/>
     <use style="stroke:#000000;" x="31.50687" xlink:href="#mc1c3e642f6" y="77.42493"/>
     <use style="stroke:#000000;" x="32.104821" xlink:href="#mc1c3e642f6" y="73.055864"/>
     <use style="stroke:#000000;" x="34.584052" xlink:href="#mc1c3e642f6" y="65.632612"/>
     <use style="stroke:#000000;" x="29.749737" xlink:href="#mc1c3e642f6" y="87.430362"/>
     <use style="stroke:#000000;" x="31.848682" xlink:href="#mc1c3e642f6" y="69.248594"/>
     <use style="stroke:#000000;" x="31.698065" xlink:href="#mc1c3e642f6" y="73.129807"/>
     <use style="stroke:#000000;" x="41.851976" xlink:href="#mc1c3e642f6" y="60.969167"/>
     <use style="stroke:#000000;" x="27" xlink:href="#mc1c3e642f6" y="94.5"/>
     <use style="stroke:#000000;" x="36.454539" xlink:href="#mc1c3e642f6" y="72.727411"/>
     <use style="stroke:#000000;" x="32.922536" xlink:href="#mc1c3e642f6" y="66.80745"/>
     <use style="stroke:#000000;" x="28.582928" xlink:href="#mc1c3e642f6" y="86.064591"/>
     <use style="stroke:#000000;" x="33.437568" xlink:href="#mc1c3e642f6" y="63.58376"/>
     <use style="stroke:#000000;" x="31.881144" xlink:href="#mc1c3e642f6" y="79.07322"/>
     <use style="stroke:#000000;" x="33.817023" xlink:href="#mc1c3e642f6" y="78.069009"/>
     <use style="stroke:#000000;" x="36.702591" xlink:href="#mc1c3e642f6" y="60.521978"/>
     <use style="stroke:#000000;" x="39.708682" xlink:href="#mc1c3e642f6" y="34.978057"/>
     <use style="stroke:#000000;" x="32.379733" xlink:href="#mc1c3e642f6" y="63.537555"/>
     <use style="stroke:#000000;" x="31.133302" xlink:href="#mc1c3e642f6" y="69.590237"/>
    </g>
   </g>
   <g id="patch_3">
    <path d="M 27 94.5 
L 27 12.96 
" style="fill:none;stroke:#000000;stroke-linecap:square;stroke-linejoin:miter;"/>
   </g>
   <g id="patch_4">
    <path d="M 27 94.5 
L 103.090909 94.5 
" style="fill:none;stroke:#000000;stroke-linecap:square;stroke-linejoin:miter;"/>
   </g>
   <g id="matplotlib.axis_1">
    <g id="xtick_1">
     <g id="line2d_3"/>
     <g id="text_1">
      <text style="font-family:Arial;font-size:8px;font-style:normal;font-weight:normal;text-anchor:middle;" transform="rotate(-0, 27, 103.72625)" x="27" y="103.72625">0</text>
     </g>
    </g>
    <g id="xtick_2">
     <g id="line2d_4"/>
     <g id="text_2">
      <text style="font-family:Arial;font-size:8px;font-style:normal;font-weight:normal;text-anchor:middle;" transform="rotate(-0, 56.656834, 103.72625)" x="56.656834" y="103.72625">5</text>
     </g>
    </g>
    <g id="xtick_3">
     <g id="line2d_5"/>
     <g id="text_3">
      <text style="font-family:Arial;font-size:8px;font-style:normal;font-weight:normal;text-anchor:middle;" transform="rotate(-0, 86.313668, 103.72625)" x="86.313668" y="103.72625">10</text>
     </g>
    </g>
    <g id="text_4">
     <text style="font-family:Arial;font-size:10px;font-style:normal;font-weight:normal;text-anchor:middle;" transform="rotate(-0, 65.045455, 116.474063)" x="65.045455" y="116.474063">Exc</text>
    </g>
   </g>
   <g id="matplotlib.axis_2">
    <g id="ytick_1">
     <g id="line2d_6"/>
     <g id="text_5">
      <text style="font-family:Arial;font-size:8px;font-style:normal;font-weight:normal;text-anchor:end;" transform="rotate(-0, 23.5, 97.363125)" x="23.5" y="97.363125">0</text>
     </g>
    </g>
    <g id="ytick_2">
     <g id="line2d_7"/>
     <g id="text_6">
      <text style="font-family:Arial;font-size:8px;font-style:normal;font-weight:normal;text-anchor:end;" transform="rotate(-0, 23.5, 65.582479)" x="23.5" y="65.582479">5</text>
     </g>
    </g>
    <g id="ytick_3">
     <g id="line2d_8"/>
     <g id="text_7">
      <text style="font-family:Arial;font-size:8px;font-style:normal;font-weight:normal;text-anchor:end;" transform="rotate(-0, 23.5, 33.801833)" x="23.5" y="33.801833">10</text>
     </g>
    </g>
    <g id="text_8">
     <text style="font-family:Arial;font-size:10px;font-style:normal;font-weight:normal;text-anchor:middle;" transform="rotate(-90, 8.615, 53.73)" x="8.615" y="53.73">Inh</text>
    </g>
   </g>
   <g id="legend_1">
    <g id="line2d_9">
     <path d="M 36 75.622656 
L 56 75.622656 
" style="fill:none;stroke:#000000;stroke-dasharray:1.85,0.8;stroke-dashoffset:0;stroke-width:0.5;"/>
    </g>
    <g id="line2d_10"/>
    <g id="text_9">
     <!-- $R^2$ 0.70 -->
     <g transform="translate(64 72.875)">
      <text>
       <tspan style="font-family:DejaVu Sans;font-size:10px;font-style:oblique;font-weight:oblique;" x="0" y="-0.9765625">R</tspan>
       <tspan style="font-family:DejaVu Sans;font-size:7px;font-style:book;font-weight:book;" x="7.650794" y="-4.8046875">2</tspan>
       <tspan style="font-family:Arial;font-size:10px;font-style:regular;font-weight:regular;" x="12.377845 15.156165 20.717689 23.496009 29.057533" y="-0.9765625"> 0.70</tspan>
      </text>
     </g>
     <text style="font-family:Arial;font-size:10px;font-style:normal;font-weight:normal;" transform="translate(64 83.4875)"> slope 2.79</text>
    </g>
   </g>
  </g>
  <g id="axes_2">
   <g id="patch_5">
    <path d="M 118.309091 94.5 
L 194.4 94.5 
L 194.4 12.96 
L 118.309091 12.96 
z
" style="fill:#ffffff;"/>
   </g>
   <g id="PathCollection_1">
    <defs>
     <path d="M 0 2.44949 
C 0.649612 2.44949 1.272706 2.191396 1.732051 1.732051 
C 2.191396 1.272706 2.44949 0.649612 2.44949 0 
C 2.44949 -0.649612 2.191396 -1.272706 1.732051 -1.732051 
C 1.272706 -2.191396 0.649612 -2.44949 0 -2.44949 
C -0.649612 -2.44949 -1.272706 -2.191396 -1.732051 -1.732051 
C -2.191396 -1.272706 -2.44949 -0.649612 -2.44949 0 
C -2.44949 0.649612 -2.191396 1.272706 -1.732051 1.732051 
C -1.272706 2.191396 -0.649612 2.44949 0 2.44949 
z
" id="m34aec599b4" style="stroke:#000000;"/>
    </defs>
    <g clip-path="url(#pf5d93df2e6)">
     <use style="stroke:#000000;" x="167.658359" xlink:href="#m34aec599b4" y="47.61965"/>
     <use style="stroke:#000000;" x="129.028747" xlink:href="#m34aec599b4" y="79.822693"/>
     <use style="stroke:#000000;" x="190.333697" xlink:href="#m34aec599b4" y="19.68931"/>
     <use style="stroke:#000000;" x="168.243283" xlink:href="#m34aec599b4" y="43.883275"/>
     <use style="stroke:#000000;" x="170.237249" xlink:href="#m34aec599b4" y="51.7248"/>
     <use style="stroke:#000000;" x="137.158263" xlink:href="#m34aec599b4" y="64.333248"/>
     <use style="stroke:#000000;" x="130.351889" xlink:href="#m34aec599b4" y="81.944955"/>
     <use style="stroke:#000000;" x="132.215136" xlink:href="#m34aec599b4" y="80.094092"/>
     <use style="stroke:#000000;" x="130.527984" xlink:href="#m34aec599b4" y="83.295463"/>
     <use style="stroke:#000000;" x="134.506294" xlink:href="#m34aec599b4" y="87.863674"/>
     <use style="stroke:#000000;" x="142.167644" xlink:href="#m34aec599b4" y="62.951581"/>
     <use style="stroke:#000000;" x="126.805985" xlink:href="#m34aec599b4" y="77.822425"/>
     <use style="stroke:#000000;" x="140.810783" xlink:href="#m34aec599b4" y="94.5"/>
     <use style="stroke:#000000;" x="136.003808" xlink:href="#m34aec599b4" y="83.677676"/>
     <use style="stroke:#000000;" x="127.93905" xlink:href="#m34aec599b4" y="51.269455"/>
     <use style="stroke:#000000;" x="127.849692" xlink:href="#m34aec599b4" y="84.574646"/>
     <use style="stroke:#000000;" x="132.727664" xlink:href="#m34aec599b4" y="70.244311"/>
     <use style="stroke:#000000;" x="139.569357" xlink:href="#m34aec599b4" y="75.952984"/>
     <use style="stroke:#000000;" x="165.539845" xlink:href="#m34aec599b4" y="40.233148"/>
     <use style="stroke:#000000;" x="118.309091" xlink:href="#m34aec599b4" y="94.5"/>
     <use style="stroke:#000000;" x="155.974892" xlink:href="#m34aec599b4" y="52.563263"/>
     <use style="stroke:#000000;" x="137.818231" xlink:href="#m34aec599b4" y="55.357391"/>
     <use style="stroke:#000000;" x="129.42106" xlink:href="#m34aec599b4" y="80.779098"/>
     <use style="stroke:#000000;" x="135.325609" xlink:href="#m34aec599b4" y="69.700508"/>
     <use style="stroke:#000000;" x="136.704193" xlink:href="#m34aec599b4" y="86.830301"/>
     <use style="stroke:#000000;" x="140.659768" xlink:href="#m34aec599b4" y="64.709461"/>
     <use style="stroke:#000000;" x="153.971731" xlink:href="#m34aec599b4" y="63.236746"/>
     <use style="stroke:#000000;" x="169.199053" xlink:href="#m34aec599b4" y="34.489089"/>
     <use style="stroke:#000000;" x="139.011179" xlink:href="#m34aec599b4" y="63.629748"/>
     <use style="stroke:#000000;" x="138.429775" xlink:href="#m34aec599b4" y="76.394862"/>
    </g>
   </g>
   <g id="line2d_11">
    <path clip-path="url(#pf5d93df2e6)" d="M 118.309091 90.175959 
L 119.077686 89.463434 
L 119.846281 88.750909 
L 120.614876 88.038384 
L 121.383471 87.325859 
L 122.152066 86.613334 
L 122.920661 85.900809 
L 123.689256 85.188284 
L 124.457851 84.475758 
L 125.226446 83.763233 
L 125.995041 83.050708 
L 126.763636 82.338183 
L 127.532231 81.625658 
L 128.300826 80.913133 
L 129.069421 80.200608 
L 129.838017 79.488083 
L 130.606612 78.775558 
L 131.375207 78.063032 
L 132.143802 77.350507 
L 132.912397 76.637982 
L 133.680992 75.925457 
L 134.449587 75.212932 
L 135.218182 74.500407 
L 135.986777 73.787882 
L 136.755372 73.075357 
L 137.523967 72.362832 
L 138.292562 71.650306 
L 139.061157 70.937781 
L 139.829752 70.225256 
L 140.598347 69.512731 
L 141.366942 68.800206 
L 142.135537 68.087681 
L 142.904132 67.375156 
L 143.672727 66.662631 
L 144.441322 65.950105 
L 145.209917 65.23758 
L 145.978512 64.525055 
L 146.747107 63.81253 
L 147.515702 63.100005 
L 148.284298 62.38748 
L 149.052893 61.674955 
L 149.821488 60.96243 
L 150.590083 60.249905 
L 151.358678 59.537379 
L 152.127273 58.824854 
L 152.895868 58.112329 
L 153.664463 57.399804 
L 154.433058 56.687279 
L 155.201653 55.974754 
L 155.970248 55.262229 
L 156.738843 54.549704 
L 157.507438 53.837179 
L 158.276033 53.124653 
L 159.044628 52.412128 
L 159.813223 51.699603 
L 160.581818 50.987078 
L 161.350413 50.274553 
L 162.119008 49.562028 
L 162.887603 48.849503 
L 163.656198 48.136978 
L 164.424793 47.424452 
L 165.193388 46.711927 
L 165.961983 45.999402 
L 166.730579 45.286877 
L 167.499174 44.574352 
L 168.267769 43.861827 
L 169.036364 43.149302 
L 169.804959 42.436777 
L 170.573554 41.724252 
L 171.342149 41.011726 
L 172.110744 40.299201 
L 172.879339 39.586676 
L 173.647934 38.874151 
L 174.416529 38.161626 
L 175.185124 37.449101 
L 175.953719 36.736576 
L 176.722314 36.024051 
L 177.490909 35.311526 
L 178.259504 34.599 
L 179.028099 33.886475 
L 179.796694 33.17395 
L 180.565289 32.461425 
L 181.333884 31.7489 
L 182.102479 31.036375 
L 182.871074 30.32385 
L 183.639669 29.611325 
L 184.408264 28.898799 
L 185.17686 28.186274 
L 185.945455 27.473749 
L 186.71405 26.761224 
L 187.482645 26.048699 
L 188.25124 25.336174 
L 189.019835 24.623649 
L 189.78843 23.911124 
L 190.557025 23.198599 
L 191.32562 22.486073 
L 192.094215 21.773548 
L 192.86281 21.061023 
L 193.631405 20.348498 
L 194.4 19.635973 
" style="fill:none;stroke:#000000;stroke-dasharray:1.85,0.8;stroke-dashoffset:0;stroke-width:0.5;"/>
   </g>
   <g id="patch_6">
    <path d="M 118.309091 94.5 
L 118.309091 12.96 
" style="fill:none;stroke:#000000;stroke-linecap:square;stroke-linejoin:miter;"/>
   </g>
   <g id="patch_7">
    <path d="M 118.309091 94.5 
L 194.4 94.5 
" style="fill:none;stroke:#000000;stroke-linecap:square;stroke-linejoin:miter;"/>
   </g>
   <g id="matplotlib.axis_3">
    <g id="xtick_4">
     <g id="line2d_12"/>
     <g id="text_10">
      <text style="font-family:Arial;font-size:8px;font-style:normal;font-weight:normal;text-anchor:middle;" transform="rotate(-0, 118.309091, 103.72625)" x="118.309091" y="103.72625">0</text>
     </g>
    </g>
    <g id="xtick_5">
     <g id="line2d_13"/>
     <g id="text_11">
      <text style="font-family:Arial;font-size:8px;font-style:normal;font-weight:normal;text-anchor:middle;" transform="rotate(-0, 144.57636, 103.72625)" x="144.57636" y="103.72625">1</text>
     </g>
    </g>
    <g id="xtick_6">
     <g id="line2d_14"/>
     <g id="text_12">
      <text style="font-family:Arial;font-size:8px;font-style:normal;font-weight:normal;text-anchor:middle;" transform="rotate(-0, 170.84363, 103.72625)" x="170.84363" y="103.72625">2</text>
     </g>
    </g>
    <g id="text_13">
     <!-- $\sigma$(Exc) -->
     <g transform="translate(141.504545 116.61625)">
      <text>
       <tspan style="font-family:DejaVu Sans;font-size:10px;font-style:oblique;font-weight:oblique;" x="0" y="-0.71875">σ</tspan>
       <tspan style="font-family:Arial;font-size:10px;font-style:regular;font-weight:regular;" x="6.337891 9.667969 16.337891 21.337891 26.337891" y="-0.71875">(Exc)</tspan>
      </text>
     </g>
    </g>
   </g>
   <g id="matplotlib.axis_4">
    <g id="ytick_4">
     <g id="line2d_15"/>
     <g id="text_14">
      <text style="font-family:Arial;font-size:8px;font-style:normal;font-weight:normal;text-anchor:end;" transform="rotate(-0, 114.809091, 97.363125)" x="114.809091" y="97.363125">0</text>
     </g>
    </g>
    <g id="ytick_5">
     <g id="line2d_16"/>
     <g id="text_15">
      <text style="font-family:Arial;font-size:8px;font-style:normal;font-weight:normal;text-anchor:end;" transform="rotate(-0, 114.809091, 69.21478)" x="114.809091" y="69.21478">1</text>
     </g>
    </g>
    <g id="ytick_6">
     <g id="line2d_17"/>
     <g id="text_16">
      <text style="font-family:Arial;font-size:8px;font-style:normal;font-weight:normal;text-anchor:end;" transform="rotate(-0, 114.809091, 41.066436)" x="114.809091" y="41.066436">2</text>
     </g>
    </g>
    <g id="text_17">
     <!-- $\sigma$(Inh) -->
     <g transform="translate(104.160341 67.18)rotate(-90)">
      <text>
       <tspan style="font-family:DejaVu Sans;font-size:10px;font-style:oblique;font-weight:oblique;" x="0" y="-0.71875">σ</tspan>
       <tspan style="font-family:Arial;font-size:10px;font-style:regular;font-weight:regular;" x="6.337891 9.667969 12.446289 18.007812 23.569336" y="-0.71875">(Inh)</tspan>
      </text>
     </g>
    </g>
   </g>
   <g id="legend_2">
    <g id="line2d_18">
     <path d="M 108.478125 31.995156 
L 128.478125 31.995156 
" style="fill:none;stroke:#000000;stroke-dasharray:1.85,0.8;stroke-dashoffset:0;stroke-width:0.5;"/>
    </g>
    <g id="line2d_19"/>
    <g id="text_18">
     <!-- $R^2$ 0.71 -->
     <g transform="translate(136.478125 29.2475)">
      <text>
       <tspan style="font-family:DejaVu Sans;font-size:10px;font-style:oblique;font-weight:oblique;" x="0" y="-0.9765625">R</tspan>
       <tspan style="font-family:DejaVu Sans;font-size:7px;font-style:book;font-weight:book;" x="7.650794" y="-4.8046875">2</tspan>
       <tspan style="font-family:Arial;font-size:10px;font-style:regular;font-weight:regular;" x="12.377845 15.156165 20.717689 23.496009 29.057533" y="-0.9765625"> 0.71</tspan>
      </text>
     </g>
     <text style="font-family:Arial;font-size:10px;font-style:normal;font-weight:normal;" transform="translate(136.478125 39.86)"> slope 0.87</text>
    </g>
   </g>
  </g>
 </g>
 <defs>
  <clipPath id="p1200742692">
   <rect height="81.54" width="76.090909" x="27" y="12.96"/>
  </clipPath>
  <clipPath id="pf5d93df2e6">
   <rect height="81.54" width="76.090909" x="118.309091" y="12.96"/>
  </clipPath>
 </defs>
</svg>
