<?xml version="1.0" encoding="utf-8" standalone="no"?>
<!DOCTYPE svg PUBLIC "-//W3C//DTD SVG 1.1//EN"
  "http://www.w3.org/Graphics/SVG/1.1/DTD/svg11.dtd">
<!-- Created with matplotlib (http://matplotlib.org/) -->
<svg height="108pt" version="1.1" viewBox="0 0 216 108" width="216pt" xmlns="http://www.w3.org/2000/svg" xmlns:xlink="http://www.w3.org/1999/xlink">
 <defs>
  <style type="text/css">
*{stroke-linecap:butt;stroke-linejoin:round;}
  </style>
 </defs>
 <g id="figure_1">
  <g id="patch_1">
   <path d="M 0 108 
L 216 108 
L 216 0 
L 0 0 
z
" style="fill:#ffffff;"/>
  </g>
  <g id="axes_1">
   <g id="patch_2">
    <path d="M 27 94.5 
L 103.090909 94.5 
L 103.090909 12.96 
L 27 12.96 
z
" style="fill:#ffffff;"/>
   </g>
   <g id="LineCollection_1">
    <path clip-path="url(#p0d7ca3e89f)" d="M 27.376899 82.824247 
L 38.824305 82.824247 
" style="fill:none;stroke:#000000;stroke-width:0.5;"/>
    <path clip-path="url(#p0d7ca3e89f)" d="M 25.540355 82.558801 
L 32.83046 82.558801 
" style="fill:none;stroke:#000000;stroke-width:0.5;"/>
    <path clip-path="url(#p0d7ca3e89f)" d="M 33.832956 67.441405 
L 39.252207 67.441405 
" style="fill:none;stroke:#000000;stroke-width:0.5;"/>
    <path clip-path="url(#p0d7ca3e89f)" d="M 32.14262 57.410041 
L 44.55965 57.410041 
" style="fill:none;stroke:#000000;stroke-width:0.5;"/>
    <path clip-path="url(#p0d7ca3e89f)" d="M 26.502148 78.885887 
L 37.235612 78.885887 
" style="fill:none;stroke:#000000;stroke-width:0.5;"/>
    <path clip-path="url(#p0d7ca3e89f)" d="M 24.348219 60.97496 
L 45.765723 60.97496 
" style="fill:none;stroke:#000000;stroke-width:0.5;"/>
    <path clip-path="url(#p0d7ca3e89f)" d="M 20.588631 44.323457 
L 50.092546 44.323457 
" style="fill:none;stroke:#000000;stroke-width:0.5;"/>
    <path clip-path="url(#p0d7ca3e89f)" d="M 27.600476 72.643565 
L 38.688576 72.643565 
" style="fill:none;stroke:#000000;stroke-width:0.5;"/>
    <path clip-path="url(#p0d7ca3e89f)" d="M 27.235367 62.907153 
L 43.638501 62.907153 
" style="fill:none;stroke:#000000;stroke-width:0.5;"/>
    <path clip-path="url(#p0d7ca3e89f)" d="M 25.823541 75.480246 
L 31.736706 75.480246 
" style="fill:none;stroke:#000000;stroke-width:0.5;"/>
    <path clip-path="url(#p0d7ca3e89f)" d="M 26.545115 88.038904 
L 28.082533 88.038904 
" style="fill:none;stroke:#000000;stroke-width:0.5;"/>
    <path clip-path="url(#p0d7ca3e89f)" d="M 29.585674 76.777224 
L 38.557092 76.777224 
" style="fill:none;stroke:#000000;stroke-width:0.5;"/>
    <path clip-path="url(#p0d7ca3e89f)" d="M 24.09149 61.644432 
L 41.977075 61.644432 
" style="fill:none;stroke:#000000;stroke-width:0.5;"/>
    <path clip-path="url(#p0d7ca3e89f)" d="M 26.464234 66.075919 
L 34.232676 66.075919 
" style="fill:none;stroke:#000000;stroke-width:0.5;"/>
    <path clip-path="url(#p0d7ca3e89f)" d="M 24.64465 41.787818 
L 54.996 41.787818 
" style="fill:none;stroke:#000000;stroke-width:0.5;"/>
    <path clip-path="url(#p0d7ca3e89f)" d="M 26.141192 80.087107 
L 35.569094 80.087107 
" style="fill:none;stroke:#000000;stroke-width:0.5;"/>
    <path clip-path="url(#p0d7ca3e89f)" d="M 24.105625 29.514968 
L 58.390601 29.514968 
" style="fill:none;stroke:#000000;stroke-width:0.5;"/>
    <path clip-path="url(#p0d7ca3e89f)" d="M 27.152165 87.301844 
L 32.239604 87.301844 
" style="fill:none;stroke:#000000;stroke-width:0.5;"/>
    <path clip-path="url(#p0d7ca3e89f)" d="M 29.86253 78.098966 
L 38.984419 78.098966 
" style="fill:none;stroke:#000000;stroke-width:0.5;"/>
    <path clip-path="url(#p0d7ca3e89f)" d="M 25.896775 83.986369 
L 31.546066 83.986369 
" style="fill:none;stroke:#000000;stroke-width:0.5;"/>
    <path clip-path="url(#p0d7ca3e89f)" d="M 26.404019 73.118732 
L 31.283649 73.118732 
" style="fill:none;stroke:#000000;stroke-width:0.5;"/>
    <path clip-path="url(#p0d7ca3e89f)" d="M 24.814982 82.433144 
L 34.530771 82.433144 
" style="fill:none;stroke:#000000;stroke-width:0.5;"/>
    <path clip-path="url(#p0d7ca3e89f)" d="M 22.138972 35.85473 
L 51.315241 35.85473 
" style="fill:none;stroke:#000000;stroke-width:0.5;"/>
    <path clip-path="url(#p0d7ca3e89f)" d="M 31.199077 66.417048 
L 41.821206 66.417048 
" style="fill:none;stroke:#000000;stroke-width:0.5;"/>
    <path clip-path="url(#p0d7ca3e89f)" d="M 23.657846 64.161326 
L 46.603908 64.161326 
" style="fill:none;stroke:#000000;stroke-width:0.5;"/>
    <path clip-path="url(#p0d7ca3e89f)" d="M 27.480346 68.194595 
L 29.41324 68.194595 
" style="fill:none;stroke:#000000;stroke-width:0.5;"/>
    <path clip-path="url(#p0d7ca3e89f)" d="M 27.093124 36.683498 
L 54.490132 36.683498 
" style="fill:none;stroke:#000000;stroke-width:0.5;"/>
    <path clip-path="url(#p0d7ca3e89f)" d="M 24.120708 79.035358 
L 39.334259 79.035358 
" style="fill:none;stroke:#000000;stroke-width:0.5;"/>
    <path clip-path="url(#p0d7ca3e89f)" d="M 26.862693 65.733469 
L 36.88064 65.733469 
" style="fill:none;stroke:#000000;stroke-width:0.5;"/>
    <path clip-path="url(#p0d7ca3e89f)" d="M 27.306783 57.328557 
L 37.063519 57.328557 
" style="fill:none;stroke:#000000;stroke-width:0.5;"/>
   </g>
   <g id="LineCollection_2">
    <path clip-path="url(#p0d7ca3e89f)" d="M 33.100602 87.040895 
L 33.100602 78.6076 
" style="fill:none;stroke:#000000;stroke-width:0.5;"/>
    <path clip-path="url(#p0d7ca3e89f)" d="M 29.185407 88.730419 
L 29.185407 76.387183 
" style="fill:none;stroke:#000000;stroke-width:0.5;"/>
    <path clip-path="url(#p0d7ca3e89f)" d="M 36.542582 72.006515 
L 36.542582 62.876295 
" style="fill:none;stroke:#000000;stroke-width:0.5;"/>
    <path clip-path="url(#p0d7ca3e89f)" d="M 38.351135 62.313026 
L 38.351135 52.507056 
" style="fill:none;stroke:#000000;stroke-width:0.5;"/>
    <path clip-path="url(#p0d7ca3e89f)" d="M 31.86888 83.072621 
L 31.86888 74.699152 
" style="fill:none;stroke:#000000;stroke-width:0.5;"/>
    <path clip-path="url(#p0d7ca3e89f)" d="M 35.056971 70.336745 
L 35.056971 51.613174 
" style="fill:none;stroke:#000000;stroke-width:0.5;"/>
    <path clip-path="url(#p0d7ca3e89f)" d="M 35.340588 49.322155 
L 35.340588 39.324759 
" style="fill:none;stroke:#000000;stroke-width:0.5;"/>
    <path clip-path="url(#p0d7ca3e89f)" d="M 33.144526 78.165943 
L 33.144526 67.121186 
" style="fill:none;stroke:#000000;stroke-width:0.5;"/>
    <path clip-path="url(#p0d7ca3e89f)" d="M 35.436934 73.042284 
L 35.436934 52.772022 
" style="fill:none;stroke:#000000;stroke-width:0.5;"/>
    <path clip-path="url(#p0d7ca3e89f)" d="M 28.780124 81.236304 
L 28.780124 69.724188 
" style="fill:none;stroke:#000000;stroke-width:0.5;"/>
    <path clip-path="url(#p0d7ca3e89f)" d="M 27.313824 92.210815 
L 27.313824 83.866992 
" style="fill:none;stroke:#000000;stroke-width:0.5;"/>
    <path clip-path="url(#p0d7ca3e89f)" d="M 34.071383 79.356596 
L 34.071383 74.197853 
" style="fill:none;stroke:#000000;stroke-width:0.5;"/>
    <path clip-path="url(#p0d7ca3e89f)" d="M 33.034283 71.22072 
L 33.034283 52.068145 
" style="fill:none;stroke:#000000;stroke-width:0.5;"/>
    <path clip-path="url(#p0d7ca3e89f)" d="M 30.348455 75.730108 
L 30.348455 56.42173 
" style="fill:none;stroke:#000000;stroke-width:0.5;"/>
    <path clip-path="url(#p0d7ca3e89f)" d="M 39.820325 50.311655 
L 39.820325 33.263981 
" style="fill:none;stroke:#000000;stroke-width:0.5;"/>
    <path clip-path="url(#p0d7ca3e89f)" d="M 30.855143 83.515387 
L 30.855143 76.658827 
" style="fill:none;stroke:#000000;stroke-width:0.5;"/>
    <path clip-path="url(#p0d7ca3e89f)" d="M 41.248113 42.296088 
L 41.248113 16.733848 
" style="fill:none;stroke:#000000;stroke-width:0.5;"/>
    <path clip-path="url(#p0d7ca3e89f)" d="M 29.695885 90.097452 
L 29.695885 84.506237 
" style="fill:none;stroke:#000000;stroke-width:0.5;"/>
    <path clip-path="url(#p0d7ca3e89f)" d="M 34.423475 81.948524 
L 34.423475 74.249408 
" style="fill:none;stroke:#000000;stroke-width:0.5;"/>
    <path clip-path="url(#p0d7ca3e89f)" d="M 28.72142 87.125307 
L 28.72142 80.847431 
" style="fill:none;stroke:#000000;stroke-width:0.5;"/>
    <path clip-path="url(#p0d7ca3e89f)" d="M 28.843834 75.645373 
L 28.843834 70.592091 
" style="fill:none;stroke:#000000;stroke-width:0.5;"/>
    <path clip-path="url(#p0d7ca3e89f)" d="M 29.672876 87.82124 
L 29.672876 77.045048 
" style="fill:none;stroke:#000000;stroke-width:0.5;"/>
    <path clip-path="url(#p0d7ca3e89f)" d="M 36.727107 43.29776 
L 36.727107 28.411699 
" style="fill:none;stroke:#000000;stroke-width:0.5;"/>
    <path clip-path="url(#p0d7ca3e89f)" d="M 36.510142 71.467814 
L 36.510142 61.366283 
" style="fill:none;stroke:#000000;stroke-width:0.5;"/>
    <path clip-path="url(#p0d7ca3e89f)" d="M 35.130877 73.521926 
L 35.130877 54.800727 
" style="fill:none;stroke:#000000;stroke-width:0.5;"/>
    <path clip-path="url(#p0d7ca3e89f)" d="M 28.446793 70.612244 
L 28.446793 65.776946 
" style="fill:none;stroke:#000000;stroke-width:0.5;"/>
    <path clip-path="url(#p0d7ca3e89f)" d="M 40.791628 44.745503 
L 40.791628 28.621493 
" style="fill:none;stroke:#000000;stroke-width:0.5;"/>
    <path clip-path="url(#p0d7ca3e89f)" d="M 31.727484 84.709026 
L 31.727484 73.36169 
" style="fill:none;stroke:#000000;stroke-width:0.5;"/>
    <path clip-path="url(#p0d7ca3e89f)" d="M 31.871667 73.472854 
L 31.871667 57.994085 
" style="fill:none;stroke:#000000;stroke-width:0.5;"/>
    <path clip-path="url(#p0d7ca3e89f)" d="M 32.185151 63.622077 
L 32.185151 51.035038 
" style="fill:none;stroke:#000000;stroke-width:0.5;"/>
   </g>
   <g id="line2d_1">
    <path clip-path="url(#p0d7ca3e89f)" d="M 27 87.968268 
L 27.768595 85.390638 
L 28.53719 82.813008 
L 29.305785 80.235378 
L 30.07438 77.657748 
L 30.842975 75.080118 
L 31.61157 72.502488 
L 32.380165 69.924858 
L 33.14876 67.347228 
L 33.917355 64.769598 
L 34.68595 62.191968 
L 35.454545 59.614337 
L 36.22314 57.036707 
L 36.991736 54.459077 
L 37.760331 51.881447 
L 38.528926 49.303817 
L 39.297521 46.726187 
L 40.066116 44.148557 
L 40.834711 41.570927 
L 41.603306 38.993297 
L 42.371901 36.415667 
L 43.140496 33.838037 
L 43.909091 31.260407 
L 44.677686 28.682777 
L 45.446281 26.105147 
L 46.214876 23.527516 
L 46.983471 20.949886 
L 47.752066 18.372256 
L 48.520661 15.794626 
L 49.289256 13.216996 
L 50.057851 10.639366 
L 50.826446 8.061736 
L 51.595041 5.484106 
L 52.363636 2.906476 
L 53.132231 0.328846 
L 53.528465 -1 
" style="fill:none;stroke:#000000;stroke-dasharray:1.85,0.8;stroke-dashoffset:0;stroke-width:0.5;"/>
   </g>
   <g id="line2d_2">
    <defs>
     <path d="M 0 3 
C 0.795609 3 1.55874 2.683901 2.12132 2.12132 
C 2.683901 1.55874 3 0.795609 3 0 
C 3 -0.795609 2.683901 -1.55874 2.12132 -2.12132 
C 1.55874 -2.683901 0.795609 -3 0 -3 
C -0.795609 -3 -1.55874 -2.683901 -2.12132 -2.12132 
C -2.683901 -1.55874 -3 -0.795609 -3 0 
C -3 0.795609 -2.683901 1.55874 -2.12132 2.12132 
C -1.55874 2.683901 -0.795609 3 0 3 
z
" id="mdca85eb584" style="stroke:#000000;"/>
    </defs>
    <g clip-path="url(#p0d7ca3e89f)">
     <use style="stroke:#000000;" x="33.100602" xlink:href="#mdca85eb584" y="82.824247"/>
     <use style="stroke:#000000;" x="29.185407" xlink:href="#mdca85eb584" y="82.558801"/>
     <use style="stroke:#000000;" x="36.542582" xlink:href="#mdca85eb584" y="67.441405"/>
     <use style="stroke:#000000;" x="38.351135" xlink:href="#mdca85eb584" y="57.410041"/>
     <use style="stroke:#000000;" x="31.86888" xlink:href="#mdca85eb584" y="78.885887"/>
     <use style="stroke:#000000;" x="35.056971" xlink:href="#mdca85eb584" y="60.97496"/>
     <use style="stroke:#000000;" x="35.340588" xlink:href="#mdca85eb584" y="44.323457"/>
     <use style="stroke:#000000;" x="33.144526" xlink:href="#mdca85eb584" y="72.643565"/>
     <use style="stroke:#000000;" x="35.436934" xlink:href="#mdca85eb584" y="62.907153"/>
     <use style="stroke:#000000;" x="28.780124" xlink:href="#mdca85eb584" y="75.480246"/>
     <use style="stroke:#000000;" x="27.313824" xlink:href="#mdca85eb584" y="88.038904"/>
     <use style="stroke:#000000;" x="34.071383" xlink:href="#mdca85eb584" y="76.777224"/>
     <use style="stroke:#000000;" x="33.034283" xlink:href="#mdca85eb584" y="61.644432"/>
     <use style="stroke:#000000;" x="30.348455" xlink:href="#mdca85eb584" y="66.075919"/>
     <use style="stroke:#000000;" x="39.820325" xlink:href="#mdca85eb584" y="41.787818"/>
     <use style="stroke:#000000;" x="30.855143" xlink:href="#mdca85eb584" y="80.087107"/>
     <use style="stroke:#000000;" x="41.248113" xlink:href="#mdca85eb584" y="29.514968"/>
     <use style="stroke:#000000;" x="29.695885" xlink:href="#mdca85eb584" y="87.301844"/>
     <use style="stroke:#000000;" x="34.423475" xlink:href="#mdca85eb584" y="78.098966"/>
     <use style="stroke:#000000;" x="28.72142" xlink:href="#mdca85eb584" y="83.986369"/>
     <use style="stroke:#000000;" x="28.843834" xlink:href="#mdca85eb584" y="73.118732"/>
     <use style="stroke:#000000;" x="29.672876" xlink:href="#mdca85eb584" y="82.433144"/>
     <use style="stroke:#000000;" x="36.727107" xlink:href="#mdca85eb584" y="35.85473"/>
     <use style="stroke:#000000;" x="36.510142" xlink:href="#mdca85eb584" y="66.417048"/>
     <use style="stroke:#000000;" x="35.130877" xlink:href="#mdca85eb584" y="64.161326"/>
     <use style="stroke:#000000;" x="28.446793" xlink:href="#mdca85eb584" y="68.194595"/>
     <use style="stroke:#000000;" x="40.791628" xlink:href="#mdca85eb584" y="36.683498"/>
     <use style="stroke:#000000;" x="31.727484" xlink:href="#mdca85eb584" y="79.035358"/>
     <use style="stroke:#000000;" x="31.871667" xlink:href="#mdca85eb584" y="65.733469"/>
     <use style="stroke:#000000;" x="32.185151" xlink:href="#mdca85eb584" y="57.328557"/>
    </g>
   </g>
   <g id="patch_3">
    <path d="M 27 94.5 
L 27 12.96 
" style="fill:none;stroke:#000000;stroke-linecap:square;stroke-linejoin:miter;"/>
   </g>
   <g id="patch_4">
    <path d="M 27 94.5 
L 103.090909 94.5 
" style="fill:none;stroke:#000000;stroke-linecap:square;stroke-linejoin:miter;"/>
   </g>
   <g id="matplotlib.axis_1">
    <g id="xtick_1">
     <g id="line2d_3"/>
     <g id="text_1">
      <text style="font-family:Arial;font-size:8px;font-style:normal;font-weight:normal;text-anchor:middle;" transform="rotate(-0, 27, 103.72625)" x="27" y="103.72625">0</text>
     </g>
    </g>
    <g id="xtick_2">
     <g id="line2d_4"/>
     <g id="text_2">
      <text style="font-family:Arial;font-size:8px;font-style:normal;font-weight:normal;text-anchor:middle;" transform="rotate(-0, 63.545164, 103.72625)" x="63.545164" y="103.72625">5</text>
     </g>
    </g>
    <g id="xtick_3">
     <g id="line2d_5"/>
     <g id="text_3">
      <text style="font-family:Arial;font-size:8px;font-style:normal;font-weight:normal;text-anchor:middle;" transform="rotate(-0, 100.090327, 103.72625)" x="100.090327" y="103.72625">10</text>
     </g>
    </g>
    <g id="text_4">
     <text style="font-family:Arial;font-size:10px;font-style:normal;font-weight:normal;text-anchor:middle;" transform="rotate(-0, 65.045455, 116.474063)" x="65.045455" y="116.474063">Exc</text>
    </g>
   </g>
   <g id="matplotlib.axis_2">
    <g id="ytick_1">
     <g id="line2d_6"/>
     <g id="text_5">
      <text style="font-family:Arial;font-size:8px;font-style:normal;font-weight:normal;text-anchor:end;" transform="rotate(-0, 23.5, 97.363125)" x="23.5" y="97.363125">0.0</text>
     </g>
    </g>
    <g id="ytick_2">
     <g id="line2d_7"/>
     <g id="text_6">
      <text style="font-family:Arial;font-size:8px;font-style:normal;font-weight:normal;text-anchor:end;" transform="rotate(-0, 23.5, 77.781991)" x="23.5" y="77.781991">2.5</text>
     </g>
    </g>
    <g id="ytick_3">
     <g id="line2d_8"/>
     <g id="text_7">
      <text style="font-family:Arial;font-size:8px;font-style:normal;font-weight:normal;text-anchor:end;" transform="rotate(-0, 23.5, 58.200856)" x="23.5" y="58.200856">5.0</text>
     </g>
    </g>
    <g id="ytick_4">
     <g id="line2d_9"/>
     <g id="text_8">
      <text style="font-family:Arial;font-size:8px;font-style:normal;font-weight:normal;text-anchor:end;" transform="rotate(-0, 23.5, 38.619722)" x="23.5" y="38.619722">7.5</text>
     </g>
    </g>
    <g id="ytick_5">
     <g id="line2d_10"/>
     <g id="text_9">
      <text style="font-family:Arial;font-size:8px;font-style:normal;font-weight:normal;text-anchor:end;" transform="rotate(-0, 23.5, 19.038587)" x="23.5" y="19.038587">10.0</text>
     </g>
    </g>
    <g id="text_10">
     <text style="font-family:Arial;font-size:10px;font-style:normal;font-weight:normal;text-anchor:middle;" transform="rotate(-90, 1.94375, 53.73)" x="1.94375" y="53.73">Inh</text>
    </g>
   </g>
   <g id="legend_1">
    <g id="line2d_11">
     <path d="M 36 75.622656 
L 56 75.622656 
" style="fill:none;stroke:#000000;stroke-dasharray:1.85,0.8;stroke-dashoffset:0;stroke-width:0.5;"/>
    </g>
    <g id="line2d_12"/>
    <g id="text_11">
     <!-- $R^2$ 0.64 -->
     <g transform="translate(64 72.875)">
      <text>
       <tspan style="font-family:DejaVu Sans;font-size:10px;font-style:oblique;font-weight:oblique;" x="0" y="-0.9765625">R</tspan>
       <tspan style="font-family:DejaVu Sans;font-size:7px;font-style:book;font-weight:book;" x="7.650794" y="-4.8046875">2</tspan>
       <tspan style="font-family:Arial;font-size:10px;font-style:regular;font-weight:regular;" x="12.377845 15.156165 20.717689 23.496009 29.057533" y="-0.9765625"> 0.64</tspan>
      </text>
     </g>
     <text style="font-family:Arial;font-size:10px;font-style:normal;font-weight:normal;" transform="translate(64 83.4875)"> slope 3.13</text>
    </g>
   </g>
  </g>
  <g id="axes_2">
   <g id="patch_5">
    <path d="M 118.309091 94.5 
L 194.4 94.5 
L 194.4 12.96 
L 118.309091 12.96 
z
" style="fill:#ffffff;"/>
   </g>
   <g id="PathCollection_1">
    <defs>
     <path d="M 0 2.44949 
C 0.649612 2.44949 1.272706 2.191396 1.732051 1.732051 
C 2.191396 1.272706 2.44949 0.649612 2.44949 0 
C 2.44949 -0.649612 2.191396 -1.272706 1.732051 -1.732051 
C 1.272706 -2.191396 0.649612 -2.44949 0 -2.44949 
C -0.649612 -2.44949 -1.272706 -2.191396 -1.732051 -1.732051 
C -2.191396 -1.272706 -2.44949 -0.649612 -2.44949 0 
C -2.44949 0.649612 -2.191396 1.272706 -1.732051 1.732051 
C -1.272706 2.191396 -0.649612 2.44949 0 2.44949 
z
" id="m77f9eacf8b" style="stroke:#000000;"/>
    </defs>
    <g clip-path="url(#paea7039332)">
     <use style="stroke:#000000;" x="142.383589" xlink:href="#m77f9eacf8b" y="76.764336"/>
     <use style="stroke:#000000;" x="133.640564" xlink:href="#m77f9eacf8b" y="68.541525"/>
     <use style="stroke:#000000;" x="129.706061" xlink:href="#m77f9eacf8b" y="75.298666"/>
     <use style="stroke:#000000;" x="144.422759" xlink:href="#m77f9eacf8b" y="73.877529"/>
     <use style="stroke:#000000;" x="140.882131" xlink:href="#m77f9eacf8b" y="76.890152"/>
     <use style="stroke:#000000;" x="163.351229" xlink:href="#m77f9eacf8b" y="55.123346"/>
     <use style="stroke:#000000;" x="180.357376" xlink:href="#m77f9eacf8b" y="73.474951"/>
     <use style="stroke:#000000;" x="141.627948" xlink:href="#m77f9eacf8b" y="71.272295"/>
     <use style="stroke:#000000;" x="152.805744" xlink:href="#m77f9eacf8b" y="51.870572"/>
     <use style="stroke:#000000;" x="130.744788" xlink:href="#m77f9eacf8b" y="70.289414"/>
     <use style="stroke:#000000;" x="121.542361" xlink:href="#m77f9eacf8b" y="76.952501"/>
     <use style="stroke:#000000;" x="137.176455" xlink:href="#m77f9eacf8b" y="83.650891"/>
     <use style="stroke:#000000;" x="155.923417" xlink:href="#m77f9eacf8b" y="54.221129"/>
     <use style="stroke:#000000;" x="134.646532" xlink:href="#m77f9eacf8b" y="53.893465"/>
     <use style="stroke:#000000;" x="182.139576" xlink:href="#m77f9eacf8b" y="58.647844"/>
     <use style="stroke:#000000;" x="138.136466" xlink:href="#m77f9eacf8b" y="80.080294"/>
     <use style="stroke:#000000;" x="190.412199" xlink:href="#m77f9eacf8b" y="40.741265"/>
     <use style="stroke:#000000;" x="129.008244" xlink:href="#m77f9eacf8b" y="82.741381"/>
     <use style="stroke:#000000;" x="137.492904" xlink:href="#m77f9eacf8b" y="78.308354"/>
     <use style="stroke:#000000;" x="130.189847" xlink:href="#m77f9eacf8b" y="81.297296"/>
     <use style="stroke:#000000;" x="128.571209" xlink:href="#m77f9eacf8b" y="83.872683"/>
     <use style="stroke:#000000;" x="138.741905" xlink:href="#m77f9eacf8b" y="71.837101"/>
     <use style="stroke:#000000;" x="179.66832" xlink:href="#m77f9eacf8b" y="63.193829"/>
     <use style="stroke:#000000;" x="140.647988" xlink:href="#m77f9eacf8b" y="73.25595"/>
     <use style="stroke:#000000;" x="166.565865" xlink:href="#m77f9eacf8b" y="55.128334"/>
     <use style="stroke:#000000;" x="122.374069" xlink:href="#m77f9eacf8b" y="84.331115"/>
     <use style="stroke:#000000;" x="175.92644" xlink:href="#m77f9eacf8b" y="60.590359"/>
     <use style="stroke:#000000;" x="150.303989" xlink:href="#m77f9eacf8b" y="70.635955"/>
     <use style="stroke:#000000;" x="139.37736" xlink:href="#m77f9eacf8b" y="61.947335"/>
     <use style="stroke:#000000;" x="138.828021" xlink:href="#m77f9eacf8b" y="68.028793"/>
    </g>
   </g>
   <g id="line2d_13">
    <path clip-path="url(#paea7039332)" d="M 118.309091 80.621087 
L 119.077686 80.311344 
L 119.846281 80.0016 
L 120.614876 79.691856 
L 121.383471 79.382112 
L 122.152066 79.072369 
L 122.920661 78.762625 
L 123.689256 78.452881 
L 124.457851 78.143137 
L 125.226446 77.833394 
L 125.995041 77.52365 
L 126.763636 77.213906 
L 127.532231 76.904162 
L 128.300826 76.594419 
L 129.069421 76.284675 
L 129.838017 75.974931 
L 130.606612 75.665187 
L 131.375207 75.355444 
L 132.143802 75.0457 
L 132.912397 74.735956 
L 133.680992 74.426212 
L 134.449587 74.116469 
L 135.218182 73.806725 
L 135.986777 73.496981 
L 136.755372 73.187237 
L 137.523967 72.877494 
L 138.292562 72.56775 
L 139.061157 72.258006 
L 139.829752 71.948262 
L 140.598347 71.638519 
L 141.366942 71.328775 
L 142.135537 71.019031 
L 142.904132 70.709287 
L 143.672727 70.399544 
L 144.441322 70.0898 
L 145.209917 69.780056 
L 145.978512 69.470312 
L 146.747107 69.160569 
L 147.515702 68.850825 
L 148.284298 68.541081 
L 149.052893 68.231337 
L 149.821488 67.921594 
L 150.590083 67.61185 
L 151.358678 67.302106 
L 152.127273 66.992362 
L 152.895868 66.682619 
L 153.664463 66.372875 
L 154.433058 66.063131 
L 155.201653 65.753387 
L 155.970248 65.443644 
L 156.738843 65.1339 
L 157.507438 64.824156 
L 158.276033 64.514412 
L 159.044628 64.204669 
L 159.813223 63.894925 
L 160.581818 63.585181 
L 161.350413 63.275437 
L 162.119008 62.965694 
L 162.887603 62.65595 
L 163.656198 62.346206 
L 164.424793 62.036462 
L 165.193388 61.726719 
L 165.961983 61.416975 
L 166.730579 61.107231 
L 167.499174 60.797487 
L 168.267769 60.487744 
L 169.036364 60.178 
L 169.804959 59.868256 
L 170.573554 59.558512 
L 171.342149 59.248769 
L 172.110744 58.939025 
L 172.879339 58.629281 
L 173.647934 58.319537 
L 174.416529 58.009793 
L 175.185124 57.70005 
L 175.953719 57.390306 
L 176.722314 57.080562 
L 177.490909 56.770818 
L 178.259504 56.461075 
L 179.028099 56.151331 
L 179.796694 55.841587 
L 180.565289 55.531843 
L 181.333884 55.2221 
L 182.102479 54.912356 
L 182.871074 54.602612 
L 183.639669 54.292868 
L 184.408264 53.983125 
L 185.17686 53.673381 
L 185.945455 53.363637 
L 186.71405 53.053893 
L 187.482645 52.74415 
L 188.25124 52.434406 
L 189.019835 52.124662 
L 189.78843 51.814918 
L 190.557025 51.505175 
L 191.32562 51.195431 
L 192.094215 50.885687 
L 192.86281 50.575943 
L 193.631405 50.2662 
L 194.4 49.956456 
" style="fill:none;stroke:#000000;stroke-dasharray:1.85,0.8;stroke-dashoffset:0;stroke-width:0.5;"/>
   </g>
   <g id="patch_6">
    <path d="M 118.309091 94.5 
L 118.309091 12.96 
" style="fill:none;stroke:#000000;stroke-linecap:square;stroke-linejoin:miter;"/>
   </g>
   <g id="patch_7">
    <path d="M 118.309091 94.5 
L 194.4 94.5 
" style="fill:none;stroke:#000000;stroke-linecap:square;stroke-linejoin:miter;"/>
   </g>
   <g id="matplotlib.axis_3">
    <g id="xtick_4">
     <g id="line2d_14"/>
     <g id="text_12">
      <text style="font-family:Arial;font-size:8px;font-style:normal;font-weight:normal;text-anchor:middle;" transform="rotate(-0, 118.309091, 103.72625)" x="118.309091" y="103.72625">0</text>
     </g>
    </g>
    <g id="xtick_5">
     <g id="line2d_15"/>
     <g id="text_13">
      <text style="font-family:Arial;font-size:8px;font-style:normal;font-weight:normal;text-anchor:middle;" transform="rotate(-0, 149.051652, 103.72625)" x="149.051652" y="103.72625">1</text>
     </g>
    </g>
    <g id="xtick_6">
     <g id="line2d_16"/>
     <g id="text_14">
      <text style="font-family:Arial;font-size:8px;font-style:normal;font-weight:normal;text-anchor:middle;" transform="rotate(-0, 179.794213, 103.72625)" x="179.794213" y="103.72625">2</text>
     </g>
    </g>
    <g id="text_15">
     <!-- $\sigma$(Exc) -->
     <g transform="translate(141.504545 116.61625)">
      <text>
       <tspan style="font-family:DejaVu Sans;font-size:10px;font-style:oblique;font-weight:oblique;" x="0" y="-0.71875">σ</tspan>
       <tspan style="font-family:Arial;font-size:10px;font-style:regular;font-weight:regular;" x="6.337891 9.667969 16.337891 21.337891 26.337891" y="-0.71875">(Exc)</tspan>
      </text>
     </g>
    </g>
   </g>
   <g id="matplotlib.axis_4">
    <g id="ytick_6">
     <g id="line2d_17"/>
     <g id="text_16">
      <text style="font-family:Arial;font-size:8px;font-style:normal;font-weight:normal;text-anchor:end;" transform="rotate(-0, 114.809091, 97.363125)" x="114.809091" y="97.363125">0.0</text>
     </g>
    </g>
    <g id="ytick_7">
     <g id="line2d_18"/>
     <g id="text_17">
      <text style="font-family:Arial;font-size:8px;font-style:normal;font-weight:normal;text-anchor:end;" transform="rotate(-0, 114.809091, 80.891063)" x="114.809091" y="80.891063">0.5</text>
     </g>
    </g>
    <g id="ytick_8">
     <g id="line2d_19"/>
     <g id="text_18">
      <text style="font-family:Arial;font-size:8px;font-style:normal;font-weight:normal;text-anchor:end;" transform="rotate(-0, 114.809091, 64.419)" x="114.809091" y="64.419">1.0</text>
     </g>
    </g>
    <g id="ytick_9">
     <g id="line2d_20"/>
     <g id="text_19">
      <text style="font-family:Arial;font-size:8px;font-style:normal;font-weight:normal;text-anchor:end;" transform="rotate(-0, 114.809091, 47.946938)" x="114.809091" y="47.946938">1.5</text>
     </g>
    </g>
    <g id="ytick_10">
     <g id="line2d_21"/>
     <g id="text_20">
      <text style="font-family:Arial;font-size:8px;font-style:normal;font-weight:normal;text-anchor:end;" transform="rotate(-0, 114.809091, 31.474875)" x="114.809091" y="31.474875">2.0</text>
     </g>
    </g>
    <g id="text_21">
     <!-- $\sigma$(Inh) -->
     <g transform="translate(97.489091 67.18)rotate(-90)">
      <text>
       <tspan style="font-family:DejaVu Sans;font-size:10px;font-style:oblique;font-weight:oblique;" x="0" y="-0.71875">σ</tspan>
       <tspan style="font-family:Arial;font-size:10px;font-style:regular;font-weight:regular;" x="6.337891 9.667969 12.446289 18.007812 23.569336" y="-0.71875">(Inh)</tspan>
      </text>
     </g>
    </g>
   </g>
   <g id="legend_2">
    <g id="line2d_22">
     <path d="M 108.478125 31.995156 
L 128.478125 31.995156 
" style="fill:none;stroke:#000000;stroke-dasharray:1.85,0.8;stroke-dashoffset:0;stroke-width:0.5;"/>
    </g>
    <g id="line2d_23"/>
    <g id="text_22">
     <!-- $R^2$ 0.46 -->
     <g transform="translate(136.478125 29.2475)">
      <text>
       <tspan style="font-family:DejaVu Sans;font-size:10px;font-style:oblique;font-weight:oblique;" x="0" y="-0.9765625">R</tspan>
       <tspan style="font-family:DejaVu Sans;font-size:7px;font-style:book;font-weight:book;" x="7.650794" y="-4.8046875">2</tspan>
       <tspan style="font-family:Arial;font-size:10px;font-style:regular;font-weight:regular;" x="12.377845 15.156165 20.717689 23.496009 29.057533" y="-0.9765625"> 0.46</tspan>
      </text>
     </g>
     <text style="font-family:Arial;font-size:10px;font-style:normal;font-weight:normal;" transform="translate(136.478125 39.86)"> slope 0.38</text>
    </g>
   </g>
  </g>
 </g>
 <defs>
  <clipPath id="p0d7ca3e89f">
   <rect height="81.54" width="76.090909" x="27" y="12.96"/>
  </clipPath>
  <clipPath id="paea7039332">
   <rect height="81.54" width="76.090909" x="118.309091" y="12.96"/>
  </clipPath>
 </defs>
</svg>
