<?xml version="1.0" encoding="utf-8" standalone="no"?>
<!DOCTYPE svg PUBLIC "-//W3C//DTD SVG 1.1//EN"
  "http://www.w3.org/Graphics/SVG/1.1/DTD/svg11.dtd">
<!-- Created with matplotlib (http://matplotlib.org/) -->
<svg height="108pt" version="1.1" viewBox="0 0 216 108" width="216pt" xmlns="http://www.w3.org/2000/svg" xmlns:xlink="http://www.w3.org/1999/xlink">
 <defs>
  <style type="text/css">
*{stroke-linecap:butt;stroke-linejoin:round;}
  </style>
 </defs>
 <g id="figure_1">
  <g id="patch_1">
   <path d="M 0 108 
L 216 108 
L 216 0 
L 0 0 
z
" style="fill:#ffffff;"/>
  </g>
  <g id="axes_1">
   <g id="patch_2">
    <path d="M 27 94.5 
L 103.090909 94.5 
L 103.090909 12.96 
L 27 12.96 
z
" style="fill:#ffffff;"/>
   </g>
   <g id="LineCollection_1">
    <path clip-path="url(#pafda5b40ba)" d="M 26.423511 64.425455 
L 33.14899 64.425455 
" style="fill:none;stroke:#000000;stroke-width:0.5;"/>
    <path clip-path="url(#pafda5b40ba)" d="M 27.872539 69.91671 
L 37.996748 69.91671 
" style="fill:none;stroke:#000000;stroke-width:0.5;"/>
    <path clip-path="url(#pafda5b40ba)" d="M 23.426341 75.00582 
L 42.988049 75.00582 
" style="fill:none;stroke:#000000;stroke-width:0.5;"/>
    <path clip-path="url(#pafda5b40ba)" d="M 25.286332 79.711537 
L 33.138733 79.711537 
" style="fill:none;stroke:#000000;stroke-width:0.5;"/>
    <path clip-path="url(#pafda5b40ba)" d="M 26.820964 87.906967 
L 30.866494 87.906967 
" style="fill:none;stroke:#000000;stroke-width:0.5;"/>
    <path clip-path="url(#pafda5b40ba)" d="M 27.304112 83.368735 
L 33.342806 83.368735 
" style="fill:none;stroke:#000000;stroke-width:0.5;"/>
    <path clip-path="url(#pafda5b40ba)" d="M 30.981011 46.520533 
L 43.894945 46.520533 
" style="fill:none;stroke:#000000;stroke-width:0.5;"/>
    <path clip-path="url(#pafda5b40ba)" d="M 27.555809 43.277207 
L 45.452991 43.277207 
" style="fill:none;stroke:#000000;stroke-width:0.5;"/>
    <path clip-path="url(#pafda5b40ba)" d="M 25.866452 74.162932 
L 36.909537 74.162932 
" style="fill:none;stroke:#000000;stroke-width:0.5;"/>
    <path clip-path="url(#pafda5b40ba)" d="M 26.405842 92.452599 
L 28.413974 92.452599 
" style="fill:none;stroke:#000000;stroke-width:0.5;"/>
    <path clip-path="url(#pafda5b40ba)" d="M 26.797497 63.214373 
L 36.722904 63.214373 
" style="fill:none;stroke:#000000;stroke-width:0.5;"/>
    <path clip-path="url(#pafda5b40ba)" d="M 23.619701 53.885092 
L 50.675256 53.885092 
" style="fill:none;stroke:#000000;stroke-width:0.5;"/>
    <path clip-path="url(#pafda5b40ba)" d="M 34.785598 21.504893 
L 47.301149 21.504893 
" style="fill:none;stroke:#000000;stroke-width:0.5;"/>
    <path clip-path="url(#pafda5b40ba)" d="M 26.576914 82.258581 
L 31.672385 82.258581 
" style="fill:none;stroke:#000000;stroke-width:0.5;"/>
    <path clip-path="url(#pafda5b40ba)" d="M 26.645593 68.946993 
L 34.564715 68.946993 
" style="fill:none;stroke:#000000;stroke-width:0.5;"/>
    <path clip-path="url(#pafda5b40ba)" d="M 27.641483 75.834917 
L 32.051464 75.834917 
" style="fill:none;stroke:#000000;stroke-width:0.5;"/>
    <path clip-path="url(#pafda5b40ba)" d="M 27.760859 82.970056 
L 34.85531 82.970056 
" style="fill:none;stroke:#000000;stroke-width:0.5;"/>
    <path clip-path="url(#pafda5b40ba)" d="M 30.435741 49.797321 
L 48.706445 49.797321 
" style="fill:none;stroke:#000000;stroke-width:0.5;"/>
    <path clip-path="url(#pafda5b40ba)" d="M 30.748416 52.720323 
L 46.122895 52.720323 
" style="fill:none;stroke:#000000;stroke-width:0.5;"/>
    <path clip-path="url(#pafda5b40ba)" d="M 25.127595 59.961025 
L 37.245585 59.961025 
" style="fill:none;stroke:#000000;stroke-width:0.5;"/>
    <path clip-path="url(#pafda5b40ba)" d="M 31.043797 59.854427 
L 39.988418 59.854427 
" style="fill:none;stroke:#000000;stroke-width:0.5;"/>
    <path clip-path="url(#pafda5b40ba)" d="M 24.579345 51.010975 
L 40.345526 51.010975 
" style="fill:none;stroke:#000000;stroke-width:0.5;"/>
    <path clip-path="url(#pafda5b40ba)" d="M 25.644781 68.487072 
L 32.967634 68.487072 
" style="fill:none;stroke:#000000;stroke-width:0.5;"/>
    <path clip-path="url(#pafda5b40ba)" d="M 33.483358 58.876463 
L 46.511613 58.876463 
" style="fill:none;stroke:#000000;stroke-width:0.5;"/>
    <path clip-path="url(#pafda5b40ba)" d="M 26.374893 79.51615 
L 29.901561 79.51615 
" style="fill:none;stroke:#000000;stroke-width:0.5;"/>
    <path clip-path="url(#pafda5b40ba)" d="M 28.172104 73.826418 
L 34.976111 73.826418 
" style="fill:none;stroke:#000000;stroke-width:0.5;"/>
    <path clip-path="url(#pafda5b40ba)" d="M 26.604998 79.223684 
L 33.75597 79.223684 
" style="fill:none;stroke:#000000;stroke-width:0.5;"/>
    <path clip-path="url(#pafda5b40ba)" d="M 33.270252 53.654085 
L 46.218552 53.654085 
" style="fill:none;stroke:#000000;stroke-width:0.5;"/>
    <path clip-path="url(#pafda5b40ba)" d="M 22.899182 69.382574 
L 41.250256 69.382574 
" style="fill:none;stroke:#000000;stroke-width:0.5;"/>
    <path clip-path="url(#pafda5b40ba)" d="M 30.035408 55.19097 
L 44.023429 55.19097 
" style="fill:none;stroke:#000000;stroke-width:0.5;"/>
   </g>
   <g id="LineCollection_2">
    <path clip-path="url(#pafda5b40ba)" d="M 29.786251 73.165877 
L 29.786251 55.685033 
" style="fill:none;stroke:#000000;stroke-width:0.5;"/>
    <path clip-path="url(#pafda5b40ba)" d="M 32.934644 75.850744 
L 32.934644 63.982676 
" style="fill:none;stroke:#000000;stroke-width:0.5;"/>
    <path clip-path="url(#pafda5b40ba)" d="M 33.207195 81.973827 
L 33.207195 68.037813 
" style="fill:none;stroke:#000000;stroke-width:0.5;"/>
    <path clip-path="url(#pafda5b40ba)" d="M 29.212532 79.711537 
L 29.212532 79.711537 
" style="fill:none;stroke:#000000;stroke-width:0.5;"/>
    <path clip-path="url(#pafda5b40ba)" d="M 28.843729 89.83196 
L 28.843729 85.981975 
" style="fill:none;stroke:#000000;stroke-width:0.5;"/>
    <path clip-path="url(#pafda5b40ba)" d="M 30.323459 87.343946 
L 30.323459 79.393524 
" style="fill:none;stroke:#000000;stroke-width:0.5;"/>
    <path clip-path="url(#pafda5b40ba)" d="M 37.437978 47.611232 
L 37.437978 45.429834 
" style="fill:none;stroke:#000000;stroke-width:0.5;"/>
    <path clip-path="url(#pafda5b40ba)" d="M 36.5044 46.215649 
L 36.5044 40.338765 
" style="fill:none;stroke:#000000;stroke-width:0.5;"/>
    <path clip-path="url(#pafda5b40ba)" d="M 31.387995 78.548403 
L 31.387995 69.777462 
" style="fill:none;stroke:#000000;stroke-width:0.5;"/>
    <path clip-path="url(#pafda5b40ba)" d="M 27.409908 93.455617 
L 27.409908 91.449581 
" style="fill:none;stroke:#000000;stroke-width:0.5;"/>
    <path clip-path="url(#pafda5b40ba)" d="M 31.7602 66.001508 
L 31.7602 60.427239 
" style="fill:none;stroke:#000000;stroke-width:0.5;"/>
    <path clip-path="url(#pafda5b40ba)" d="M 37.147479 60.92902 
L 37.147479 46.841163 
" style="fill:none;stroke:#000000;stroke-width:0.5;"/>
    <path clip-path="url(#pafda5b40ba)" d="M 41.043373 26.216662 
L 41.043373 16.793125 
" style="fill:none;stroke:#000000;stroke-width:0.5;"/>
    <path clip-path="url(#pafda5b40ba)" d="M 29.124649 86.288934 
L 29.124649 78.228228 
" style="fill:none;stroke:#000000;stroke-width:0.5;"/>
    <path clip-path="url(#pafda5b40ba)" d="M 30.605154 78.593124 
L 30.605154 59.300862 
" style="fill:none;stroke:#000000;stroke-width:0.5;"/>
    <path clip-path="url(#pafda5b40ba)" d="M 29.846473 82.001824 
L 29.846473 69.668011 
" style="fill:none;stroke:#000000;stroke-width:0.5;"/>
    <path clip-path="url(#pafda5b40ba)" d="M 31.308085 87.331321 
L 31.308085 78.60879 
" style="fill:none;stroke:#000000;stroke-width:0.5;"/>
    <path clip-path="url(#pafda5b40ba)" d="M 39.571093 55.804687 
L 39.571093 43.789955 
" style="fill:none;stroke:#000000;stroke-width:0.5;"/>
    <path clip-path="url(#pafda5b40ba)" d="M 38.435656 59.070352 
L 38.435656 46.370295 
" style="fill:none;stroke:#000000;stroke-width:0.5;"/>
    <path clip-path="url(#pafda5b40ba)" d="M 31.18659 62.454662 
L 31.18659 57.467388 
" style="fill:none;stroke:#000000;stroke-width:0.5;"/>
    <path clip-path="url(#pafda5b40ba)" d="M 35.516108 63.151603 
L 35.516108 56.557251 
" style="fill:none;stroke:#000000;stroke-width:0.5;"/>
    <path clip-path="url(#pafda5b40ba)" d="M 32.462436 56.610783 
L 32.462436 45.411167 
" style="fill:none;stroke:#000000;stroke-width:0.5;"/>
    <path clip-path="url(#pafda5b40ba)" d="M 29.306207 75.369175 
L 29.306207 61.604969 
" style="fill:none;stroke:#000000;stroke-width:0.5;"/>
    <path clip-path="url(#pafda5b40ba)" d="M 39.997486 65.62299 
L 39.997486 52.129937 
" style="fill:none;stroke:#000000;stroke-width:0.5;"/>
    <path clip-path="url(#pafda5b40ba)" d="M 28.138227 79.51615 
L 28.138227 79.51615 
" style="fill:none;stroke:#000000;stroke-width:0.5;"/>
    <path clip-path="url(#pafda5b40ba)" d="M 31.574108 76.537403 
L 31.574108 71.115434 
" style="fill:none;stroke:#000000;stroke-width:0.5;"/>
    <path clip-path="url(#pafda5b40ba)" d="M 30.180484 84.557293 
L 30.180484 73.890074 
" style="fill:none;stroke:#000000;stroke-width:0.5;"/>
    <path clip-path="url(#pafda5b40ba)" d="M 39.744402 59.594851 
L 39.744402 47.713318 
" style="fill:none;stroke:#000000;stroke-width:0.5;"/>
    <path clip-path="url(#pafda5b40ba)" d="M 32.074719 78.347297 
L 32.074719 60.417851 
" style="fill:none;stroke:#000000;stroke-width:0.5;"/>
    <path clip-path="url(#pafda5b40ba)" d="M 37.029418 64.595246 
L 37.029418 45.786694 
" style="fill:none;stroke:#000000;stroke-width:0.5;"/>
   </g>
   <g id="line2d_1">
    <path clip-path="url(#pafda5b40ba)" d="M 27 85.534459 
L 27.768595 83.061323 
L 28.53719 80.588187 
L 29.305785 78.115051 
L 30.07438 75.641915 
L 30.842975 73.168779 
L 31.61157 70.695643 
L 32.380165 68.222507 
L 33.14876 65.749371 
L 33.917355 63.276235 
L 34.68595 60.803099 
L 35.454545 58.329963 
L 36.22314 55.856827 
L 36.991736 53.383691 
L 37.760331 50.910555 
L 38.528926 48.437419 
L 39.297521 45.964283 
L 40.066116 43.491147 
L 40.834711 41.018011 
L 41.603306 38.544875 
L 42.371901 36.071739 
L 43.140496 33.598603 
L 43.909091 31.125468 
L 44.677686 28.652332 
L 45.446281 26.179196 
L 46.214876 23.70606 
L 46.983471 21.232924 
L 47.752066 18.759788 
L 48.520661 16.286652 
L 49.289256 13.813516 
L 50.057851 11.34038 
L 50.826446 8.867244 
L 51.595041 6.394108 
L 52.363636 3.920972 
L 53.132231 1.447836 
L 53.892964 -1 
" style="fill:none;stroke:#000000;stroke-dasharray:1.85,0.8;stroke-dashoffset:0;stroke-width:0.5;"/>
   </g>
   <g id="line2d_2">
    <defs>
     <path d="M 0 3 
C 0.795609 3 1.55874 2.683901 2.12132 2.12132 
C 2.683901 1.55874 3 0.795609 3 0 
C 3 -0.795609 2.683901 -1.55874 2.12132 -2.12132 
C 1.55874 -2.683901 0.795609 -3 0 -3 
C -0.795609 -3 -1.55874 -2.683901 -2.12132 -2.12132 
C -2.683901 -1.55874 -3 -0.795609 -3 0 
C -3 0.795609 -2.683901 1.55874 -2.12132 2.12132 
C -1.55874 2.683901 -0.795609 3 0 3 
z
" id="mffcc108187" style="stroke:#000000;"/>
    </defs>
    <g clip-path="url(#pafda5b40ba)">
     <use style="stroke:#000000;" x="29.786251" xlink:href="#mffcc108187" y="64.425455"/>
     <use style="stroke:#000000;" x="32.934644" xlink:href="#mffcc108187" y="69.91671"/>
     <use style="stroke:#000000;" x="33.207195" xlink:href="#mffcc108187" y="75.00582"/>
     <use style="stroke:#000000;" x="29.212532" xlink:href="#mffcc108187" y="79.711537"/>
     <use style="stroke:#000000;" x="28.843729" xlink:href="#mffcc108187" y="87.906967"/>
     <use style="stroke:#000000;" x="30.323459" xlink:href="#mffcc108187" y="83.368735"/>
     <use style="stroke:#000000;" x="37.437978" xlink:href="#mffcc108187" y="46.520533"/>
     <use style="stroke:#000000;" x="36.5044" xlink:href="#mffcc108187" y="43.277207"/>
     <use style="stroke:#000000;" x="31.387995" xlink:href="#mffcc108187" y="74.162932"/>
     <use style="stroke:#000000;" x="27.409908" xlink:href="#mffcc108187" y="92.452599"/>
     <use style="stroke:#000000;" x="31.7602" xlink:href="#mffcc108187" y="63.214373"/>
     <use style="stroke:#000000;" x="37.147479" xlink:href="#mffcc108187" y="53.885092"/>
     <use style="stroke:#000000;" x="41.043373" xlink:href="#mffcc108187" y="21.504893"/>
     <use style="stroke:#000000;" x="29.124649" xlink:href="#mffcc108187" y="82.258581"/>
     <use style="stroke:#000000;" x="30.605154" xlink:href="#mffcc108187" y="68.946993"/>
     <use style="stroke:#000000;" x="29.846473" xlink:href="#mffcc108187" y="75.834917"/>
     <use style="stroke:#000000;" x="31.308085" xlink:href="#mffcc108187" y="82.970056"/>
     <use style="stroke:#000000;" x="39.571093" xlink:href="#mffcc108187" y="49.797321"/>
     <use style="stroke:#000000;" x="38.435656" xlink:href="#mffcc108187" y="52.720323"/>
     <use style="stroke:#000000;" x="31.18659" xlink:href="#mffcc108187" y="59.961025"/>
     <use style="stroke:#000000;" x="35.516108" xlink:href="#mffcc108187" y="59.854427"/>
     <use style="stroke:#000000;" x="32.462436" xlink:href="#mffcc108187" y="51.010975"/>
     <use style="stroke:#000000;" x="29.306207" xlink:href="#mffcc108187" y="68.487072"/>
     <use style="stroke:#000000;" x="39.997486" xlink:href="#mffcc108187" y="58.876463"/>
     <use style="stroke:#000000;" x="28.138227" xlink:href="#mffcc108187" y="79.51615"/>
     <use style="stroke:#000000;" x="31.574108" xlink:href="#mffcc108187" y="73.826418"/>
     <use style="stroke:#000000;" x="30.180484" xlink:href="#mffcc108187" y="79.223684"/>
     <use style="stroke:#000000;" x="39.744402" xlink:href="#mffcc108187" y="53.654085"/>
     <use style="stroke:#000000;" x="32.074719" xlink:href="#mffcc108187" y="69.382574"/>
     <use style="stroke:#000000;" x="37.029418" xlink:href="#mffcc108187" y="55.19097"/>
    </g>
   </g>
   <g id="patch_3">
    <path d="M 27 94.5 
L 27 12.96 
" style="fill:none;stroke:#000000;stroke-linecap:square;stroke-linejoin:miter;"/>
   </g>
   <g id="patch_4">
    <path d="M 27 94.5 
L 103.090909 94.5 
" style="fill:none;stroke:#000000;stroke-linecap:square;stroke-linejoin:miter;"/>
   </g>
   <g id="matplotlib.axis_1">
    <g id="xtick_1">
     <g id="line2d_3"/>
     <g id="text_1">
      <text style="font-family:Arial;font-size:8px;font-style:normal;font-weight:normal;text-anchor:middle;" transform="rotate(-0, 27, 103.72625)" x="27" y="103.72625">0</text>
     </g>
    </g>
    <g id="xtick_2">
     <g id="line2d_4"/>
     <g id="text_2">
      <text style="font-family:Arial;font-size:8px;font-style:normal;font-weight:normal;text-anchor:middle;" transform="rotate(-0, 62.753632, 103.72625)" x="62.753632" y="103.72625">5</text>
     </g>
    </g>
    <g id="xtick_3">
     <g id="line2d_5"/>
     <g id="text_3">
      <text style="font-family:Arial;font-size:8px;font-style:normal;font-weight:normal;text-anchor:middle;" transform="rotate(-0, 98.507264, 103.72625)" x="98.507264" y="103.72625">10</text>
     </g>
    </g>
    <g id="text_4">
     <text style="font-family:Arial;font-size:10px;font-style:normal;font-weight:normal;text-anchor:middle;" transform="rotate(-0, 65.045455, 116.474063)" x="65.045455" y="116.474063">Exc</text>
    </g>
   </g>
   <g id="matplotlib.axis_2">
    <g id="ytick_1">
     <g id="line2d_6"/>
     <g id="text_5">
      <text style="font-family:Arial;font-size:8px;font-style:normal;font-weight:normal;text-anchor:end;" transform="rotate(-0, 23.5, 97.363125)" x="23.5" y="97.363125">0.0</text>
     </g>
    </g>
    <g id="ytick_2">
     <g id="line2d_7"/>
     <g id="text_6">
      <text style="font-family:Arial;font-size:8px;font-style:normal;font-weight:normal;text-anchor:end;" transform="rotate(-0, 23.5, 78.206098)" x="23.5" y="78.206098">2.5</text>
     </g>
    </g>
    <g id="ytick_3">
     <g id="line2d_8"/>
     <g id="text_7">
      <text style="font-family:Arial;font-size:8px;font-style:normal;font-weight:normal;text-anchor:end;" transform="rotate(-0, 23.5, 59.049071)" x="23.5" y="59.049071">5.0</text>
     </g>
    </g>
    <g id="ytick_4">
     <g id="line2d_9"/>
     <g id="text_8">
      <text style="font-family:Arial;font-size:8px;font-style:normal;font-weight:normal;text-anchor:end;" transform="rotate(-0, 23.5, 39.892045)" x="23.5" y="39.892045">7.5</text>
     </g>
    </g>
    <g id="ytick_5">
     <g id="line2d_10"/>
     <g id="text_9">
      <text style="font-family:Arial;font-size:8px;font-style:normal;font-weight:normal;text-anchor:end;" transform="rotate(-0, 23.5, 20.735018)" x="23.5" y="20.735018">10.0</text>
     </g>
    </g>
    <g id="text_10">
     <text style="font-family:Arial;font-size:10px;font-style:normal;font-weight:normal;text-anchor:middle;" transform="rotate(-90, 1.94375, 53.73)" x="1.94375" y="53.73">Inh</text>
    </g>
   </g>
   <g id="legend_1">
    <g id="line2d_11">
     <path d="M 36 75.622656 
L 56 75.622656 
" style="fill:none;stroke:#000000;stroke-dasharray:1.85,0.8;stroke-dashoffset:0;stroke-width:0.5;"/>
    </g>
    <g id="line2d_12"/>
    <g id="text_11">
     <!-- $R^2$ 0.70 -->
     <g transform="translate(64 72.875)">
      <text>
       <tspan style="font-family:DejaVu Sans;font-size:10px;font-style:oblique;font-weight:oblique;" x="0" y="-0.9765625">R</tspan>
       <tspan style="font-family:DejaVu Sans;font-size:7px;font-style:book;font-weight:book;" x="7.650794" y="-4.8046875">2</tspan>
       <tspan style="font-family:Arial;font-size:10px;font-style:regular;font-weight:regular;" x="12.377845 15.156165 20.717689 23.496009 29.057533" y="-0.9765625"> 0.70</tspan>
      </text>
     </g>
     <text style="font-family:Arial;font-size:10px;font-style:normal;font-weight:normal;" transform="translate(64 83.4875)"> slope 3.00</text>
    </g>
   </g>
  </g>
  <g id="axes_2">
   <g id="patch_5">
    <path d="M 118.309091 94.5 
L 194.4 94.5 
L 194.4 12.96 
L 118.309091 12.96 
z
" style="fill:#ffffff;"/>
   </g>
   <g id="PathCollection_1">
    <defs>
     <path d="M 0 2.44949 
C 0.649612 2.44949 1.272706 2.191396 1.732051 1.732051 
C 2.191396 1.272706 2.44949 0.649612 2.44949 0 
C 2.44949 -0.649612 2.191396 -1.272706 1.732051 -1.732051 
C 1.272706 -2.191396 0.649612 -2.44949 0 -2.44949 
C -0.649612 -2.44949 -1.272706 -2.191396 -1.732051 -1.732051 
C -2.191396 -1.272706 -2.44949 -0.649612 -2.44949 0 
C -2.44949 0.649612 -2.191396 1.272706 -1.732051 1.732051 
C -1.272706 2.191396 -0.649612 2.44949 0 2.44949 
z
" id="mc1a39b0ba1" style="stroke:#000000;"/>
    </defs>
    <g clip-path="url(#p881487ad9f)">
     <use style="stroke:#000000;" x="136.226717" xlink:href="#mc1a39b0ba1" y="47.928564"/>
     <use style="stroke:#000000;" x="145.281414" xlink:href="#mc1a39b0ba1" y="62.881791"/>
     <use style="stroke:#000000;" x="170.424243" xlink:href="#mc1a39b0ba1" y="57.372492"/>
     <use style="stroke:#000000;" x="139.228997" xlink:href="#mc1a39b0ba1" y="94.5"/>
     <use style="stroke:#000000;" x="129.086957" xlink:href="#mc1a39b0ba1" y="84.243097"/>
     <use style="stroke:#000000;" x="134.397024" xlink:href="#mc1a39b0ba1" y="73.318953"/>
     <use style="stroke:#000000;" x="152.713635" xlink:href="#mc1a39b0ba1" y="88.688449"/>
     <use style="stroke:#000000;" x="165.989711" xlink:href="#mc1a39b0ba1" y="78.84315"/>
     <use style="stroke:#000000;" x="147.72943" xlink:href="#mc1a39b0ba1" y="71.132976"/>
     <use style="stroke:#000000;" x="123.659039" xlink:href="#mc1a39b0ba1" y="89.155639"/>
     <use style="stroke:#000000;" x="144.751779" xlink:href="#mc1a39b0ba1" y="79.649359"/>
     <use style="stroke:#000000;" x="190.388912" xlink:href="#mc1a39b0ba1" y="56.967959"/>
     <use style="stroke:#000000;" x="151.652288" xlink:href="#mc1a39b0ba1" y="69.394364"/>
     <use style="stroke:#000000;" x="131.884147" xlink:href="#mc1a39b0ba1" y="73.025142"/>
     <use style="stroke:#000000;" x="139.406752" xlink:href="#mc1a39b0ba1" y="43.102689"/>
     <use style="stroke:#000000;" x="130.057902" xlink:href="#mc1a39b0ba1" y="61.640981"/>
     <use style="stroke:#000000;" x="137.209709" xlink:href="#mc1a39b0ba1" y="71.261945"/>
     <use style="stroke:#000000;" x="166.984827" xlink:href="#mc1a39b0ba1" y="62.491056"/>
     <use style="stroke:#000000;" x="159.268874" xlink:href="#mc1a39b0ba1" y="60.665255"/>
     <use style="stroke:#000000;" x="150.593128" xlink:href="#mc1a39b0ba1" y="81.213197"/>
     <use style="stroke:#000000;" x="142.138825" xlink:href="#mc1a39b0ba1" y="76.931715"/>
     <use style="stroke:#000000;" x="160.312424" xlink:href="#mc1a39b0ba1" y="64.662641"/>
     <use style="stroke:#000000;" x="137.818207" xlink:href="#mc1a39b0ba1" y="57.830211"/>
     <use style="stroke:#000000;" x="153.018201" xlink:href="#mc1a39b0ba1" y="58.552601"/>
     <use style="stroke:#000000;" x="127.704632" xlink:href="#mc1a39b0ba1" y="94.5"/>
     <use style="stroke:#000000;" x="136.435925" xlink:href="#mc1a39b0ba1" y="80.055109"/>
     <use style="stroke:#000000;" x="137.360291" xlink:href="#mc1a39b0ba1" y="66.081023"/>
     <use style="stroke:#000000;" x="152.80519" xlink:href="#mc1a39b0ba1" y="62.845917"/>
     <use style="stroke:#000000;" x="167.198943" xlink:href="#mc1a39b0ba1" y="46.733425"/>
     <use style="stroke:#000000;" x="155.575154" xlink:href="#mc1a39b0ba1" y="44.391362"/>
    </g>
   </g>
   <g id="line2d_13">
    <path clip-path="url(#p881487ad9f)" d="M 118.309091 79.706675 
L 119.077686 79.413468 
L 119.846281 79.120262 
L 120.614876 78.827056 
L 121.383471 78.53385 
L 122.152066 78.240644 
L 122.920661 77.947437 
L 123.689256 77.654231 
L 124.457851 77.361025 
L 125.226446 77.067819 
L 125.995041 76.774613 
L 126.763636 76.481406 
L 127.532231 76.1882 
L 128.300826 75.894994 
L 129.069421 75.601788 
L 129.838017 75.308582 
L 130.606612 75.015376 
L 131.375207 74.722169 
L 132.143802 74.428963 
L 132.912397 74.135757 
L 133.680992 73.842551 
L 134.449587 73.549345 
L 135.218182 73.256138 
L 135.986777 72.962932 
L 136.755372 72.669726 
L 137.523967 72.37652 
L 138.292562 72.083314 
L 139.061157 71.790108 
L 139.829752 71.496901 
L 140.598347 71.203695 
L 141.366942 70.910489 
L 142.135537 70.617283 
L 142.904132 70.324077 
L 143.672727 70.03087 
L 144.441322 69.737664 
L 145.209917 69.444458 
L 145.978512 69.151252 
L 146.747107 68.858046 
L 147.515702 68.564839 
L 148.284298 68.271633 
L 149.052893 67.978427 
L 149.821488 67.685221 
L 150.590083 67.392015 
L 151.358678 67.098809 
L 152.127273 66.805602 
L 152.895868 66.512396 
L 153.664463 66.21919 
L 154.433058 65.925984 
L 155.201653 65.632778 
L 155.970248 65.339571 
L 156.738843 65.046365 
L 157.507438 64.753159 
L 158.276033 64.459953 
L 159.044628 64.166747 
L 159.813223 63.873541 
L 160.581818 63.580334 
L 161.350413 63.287128 
L 162.119008 62.993922 
L 162.887603 62.700716 
L 163.656198 62.40751 
L 164.424793 62.114303 
L 165.193388 61.821097 
L 165.961983 61.527891 
L 166.730579 61.234685 
L 167.499174 60.941479 
L 168.267769 60.648272 
L 169.036364 60.355066 
L 169.804959 60.06186 
L 170.573554 59.768654 
L 171.342149 59.475448 
L 172.110744 59.182242 
L 172.879339 58.889035 
L 173.647934 58.595829 
L 174.416529 58.302623 
L 175.185124 58.009417 
L 175.953719 57.716211 
L 176.722314 57.423004 
L 177.490909 57.129798 
L 178.259504 56.836592 
L 179.028099 56.543386 
L 179.796694 56.25018 
L 180.565289 55.956974 
L 181.333884 55.663767 
L 182.102479 55.370561 
L 182.871074 55.077355 
L 183.639669 54.784149 
L 184.408264 54.490943 
L 185.17686 54.197736 
L 185.945455 53.90453 
L 186.71405 53.611324 
L 187.482645 53.318118 
L 188.25124 53.024912 
L 189.019835 52.731706 
L 189.78843 52.438499 
L 190.557025 52.145293 
L 191.32562 51.852087 
L 192.094215 51.558881 
L 192.86281 51.265675 
L 193.631405 50.972468 
L 194.4 50.679262 
" style="fill:none;stroke:#000000;stroke-dasharray:1.85,0.8;stroke-dashoffset:0;stroke-width:0.5;"/>
   </g>
   <g id="patch_6">
    <path d="M 118.309091 94.5 
L 118.309091 12.96 
" style="fill:none;stroke:#000000;stroke-linecap:square;stroke-linejoin:miter;"/>
   </g>
   <g id="patch_7">
    <path d="M 118.309091 94.5 
L 194.4 94.5 
" style="fill:none;stroke:#000000;stroke-linecap:square;stroke-linejoin:miter;"/>
   </g>
   <g id="matplotlib.axis_3">
    <g id="xtick_4">
     <g id="line2d_14"/>
     <g id="text_12">
      <text style="font-family:Arial;font-size:8px;font-style:normal;font-weight:normal;text-anchor:middle;" transform="rotate(-0, 118.309091, 103.72625)" x="118.309091" y="103.72625">0</text>
     </g>
    </g>
    <g id="xtick_5">
     <g id="line2d_15"/>
     <g id="text_13">
      <text style="font-family:Arial;font-size:8px;font-style:normal;font-weight:normal;text-anchor:middle;" transform="rotate(-0, 156.410181, 103.72625)" x="156.410181" y="103.72625">1</text>
     </g>
    </g>
    <g id="xtick_6">
     <g id="line2d_16"/>
     <g id="text_14">
      <text style="font-family:Arial;font-size:8px;font-style:normal;font-weight:normal;text-anchor:middle;" transform="rotate(-0, 194.511272, 103.72625)" x="194.511272" y="103.72625">2</text>
     </g>
    </g>
    <g id="text_15">
     <!-- $\sigma$(Exc) -->
     <g transform="translate(141.504545 116.61625)">
      <text>
       <tspan style="font-family:DejaVu Sans;font-size:10px;font-style:oblique;font-weight:oblique;" x="0" y="-0.71875">σ</tspan>
       <tspan style="font-family:Arial;font-size:10px;font-style:regular;font-weight:regular;" x="6.337891 9.667969 16.337891 21.337891 26.337891" y="-0.71875">(Exc)</tspan>
      </text>
     </g>
    </g>
   </g>
   <g id="matplotlib.axis_4">
    <g id="ytick_6">
     <g id="line2d_17"/>
     <g id="text_16">
      <text style="font-family:Arial;font-size:8px;font-style:normal;font-weight:normal;text-anchor:end;" transform="rotate(-0, 114.809091, 97.363125)" x="114.809091" y="97.363125">0.0</text>
     </g>
    </g>
    <g id="ytick_7">
     <g id="line2d_18"/>
     <g id="text_17">
      <text style="font-family:Arial;font-size:8px;font-style:normal;font-weight:normal;text-anchor:end;" transform="rotate(-0, 114.809091, 76.948315)" x="114.809091" y="76.948315">0.5</text>
     </g>
    </g>
    <g id="ytick_8">
     <g id="line2d_19"/>
     <g id="text_18">
      <text style="font-family:Arial;font-size:8px;font-style:normal;font-weight:normal;text-anchor:end;" transform="rotate(-0, 114.809091, 56.533505)" x="114.809091" y="56.533505">1.0</text>
     </g>
    </g>
    <g id="ytick_9">
     <g id="line2d_20"/>
     <g id="text_19">
      <text style="font-family:Arial;font-size:8px;font-style:normal;font-weight:normal;text-anchor:end;" transform="rotate(-0, 114.809091, 36.118695)" x="114.809091" y="36.118695">1.5</text>
     </g>
    </g>
    <g id="ytick_10">
     <g id="line2d_21"/>
     <g id="text_20">
      <text style="font-family:Arial;font-size:8px;font-style:normal;font-weight:normal;text-anchor:end;" transform="rotate(-0, 114.809091, 15.703885)" x="114.809091" y="15.703885">2.0</text>
     </g>
    </g>
    <g id="text_21">
     <!-- $\sigma$(Inh) -->
     <g transform="translate(97.489091 67.18)rotate(-90)">
      <text>
       <tspan style="font-family:DejaVu Sans;font-size:10px;font-style:oblique;font-weight:oblique;" x="0" y="-0.71875">σ</tspan>
       <tspan style="font-family:Arial;font-size:10px;font-style:regular;font-weight:regular;" x="6.337891 9.667969 12.446289 18.007812 23.569336" y="-0.71875">(Inh)</tspan>
      </text>
     </g>
    </g>
   </g>
   <g id="legend_2">
    <g id="line2d_22">
     <path d="M 108.478125 31.995156 
L 128.478125 31.995156 
" style="fill:none;stroke:#000000;stroke-dasharray:1.85,0.8;stroke-dashoffset:0;stroke-width:0.5;"/>
    </g>
    <g id="line2d_23"/>
    <g id="text_22">
     <!-- $R^2$ 0.16 -->
     <g transform="translate(136.478125 29.2475)">
      <text>
       <tspan style="font-family:DejaVu Sans;font-size:10px;font-style:oblique;font-weight:oblique;" x="0" y="-0.9765625">R</tspan>
       <tspan style="font-family:DejaVu Sans;font-size:7px;font-style:book;font-weight:book;" x="7.650794" y="-4.8046875">2</tspan>
       <tspan style="font-family:Arial;font-size:10px;font-style:regular;font-weight:regular;" x="12.377845 15.156165 20.717689 23.496009 29.057533" y="-0.9765625"> 0.16</tspan>
      </text>
     </g>
     <text style="font-family:Arial;font-size:10px;font-style:normal;font-weight:normal;" transform="translate(136.478125 39.86)"> slope 0.36</text>
    </g>
   </g>
  </g>
 </g>
 <defs>
  <clipPath id="pafda5b40ba">
   <rect height="81.54" width="76.090909" x="27" y="12.96"/>
  </clipPath>
  <clipPath id="p881487ad9f">
   <rect height="81.54" width="76.090909" x="118.309091" y="12.96"/>
  </clipPath>
 </defs>
</svg>
