<?xml version="1.0" encoding="utf-8" standalone="no"?>
<!DOCTYPE svg PUBLIC "-//W3C//DTD SVG 1.1//EN"
  "http://www.w3.org/Graphics/SVG/1.1/DTD/svg11.dtd">
<!-- Created with matplotlib (http://matplotlib.org/) -->
<svg height="108pt" version="1.1" viewBox="0 0 216 108" width="216pt" xmlns="http://www.w3.org/2000/svg" xmlns:xlink="http://www.w3.org/1999/xlink">
 <defs>
  <style type="text/css">
*{stroke-linecap:butt;stroke-linejoin:round;}
  </style>
 </defs>
 <g id="figure_1">
  <g id="patch_1">
   <path d="M 0 108 
L 216 108 
L 216 0 
L 0 0 
z
" style="fill:#ffffff;"/>
  </g>
  <g id="axes_1">
   <g id="patch_2">
    <path d="M 27 94.5 
L 103.090909 94.5 
L 103.090909 12.96 
L 27 12.96 
z
" style="fill:#ffffff;"/>
   </g>
   <g id="LineCollection_1">
    <path clip-path="url(#pe538b15930)" d="M 25.359647 56.439877 
L 47.202106 56.439877 
" style="fill:none;stroke:#000000;stroke-width:0.5;"/>
    <path clip-path="url(#pe538b15930)" d="M 27.833771 74.47401 
L 37.643629 74.47401 
" style="fill:none;stroke:#000000;stroke-width:0.5;"/>
    <path clip-path="url(#pe538b15930)" d="M 27.973277 66.416422 
L 35.425922 66.416422 
" style="fill:none;stroke:#000000;stroke-width:0.5;"/>
    <path clip-path="url(#pe538b15930)" d="M 26.452336 82.453596 
L 34.22866 82.453596 
" style="fill:none;stroke:#000000;stroke-width:0.5;"/>
    <path clip-path="url(#pe538b15930)" d="M 27.08846 82.484026 
L 36.963278 82.484026 
" style="fill:none;stroke:#000000;stroke-width:0.5;"/>
    <path clip-path="url(#pe538b15930)" d="M 26.240877 88.556817 
L 32.16364 88.556817 
" style="fill:none;stroke:#000000;stroke-width:0.5;"/>
    <path clip-path="url(#pe538b15930)" d="M 26.713576 71.076865 
L 32.744959 71.076865 
" style="fill:none;stroke:#000000;stroke-width:0.5;"/>
    <path clip-path="url(#pe538b15930)" d="M 26.03103 85.792844 
L 31.125619 85.792844 
" style="fill:none;stroke:#000000;stroke-width:0.5;"/>
    <path clip-path="url(#pe538b15930)" d="M 27.220402 43.446051 
L 34.553727 43.446051 
" style="fill:none;stroke:#000000;stroke-width:0.5;"/>
    <path clip-path="url(#pe538b15930)" d="M 28.526466 78.764781 
L 33.020033 78.764781 
" style="fill:none;stroke:#000000;stroke-width:0.5;"/>
    <path clip-path="url(#pe538b15930)" d="M 26.646503 69.617873 
L 36.493996 69.617873 
" style="fill:none;stroke:#000000;stroke-width:0.5;"/>
    <path clip-path="url(#pe538b15930)" d="M 24.225739 73.587444 
L 48.078141 73.587444 
" style="fill:none;stroke:#000000;stroke-width:0.5;"/>
    <path clip-path="url(#pe538b15930)" d="M 25.255554 76.396977 
L 34.981626 76.396977 
" style="fill:none;stroke:#000000;stroke-width:0.5;"/>
    <path clip-path="url(#pe538b15930)" d="M 26.772208 69.868242 
L 41.860517 69.868242 
" style="fill:none;stroke:#000000;stroke-width:0.5;"/>
    <path clip-path="url(#pe538b15930)" d="M 25.793648 79.739452 
L 35.359192 79.739452 
" style="fill:none;stroke:#000000;stroke-width:0.5;"/>
    <path clip-path="url(#pe538b15930)" d="M 32.24624 65.940774 
L 43.556803 65.940774 
" style="fill:none;stroke:#000000;stroke-width:0.5;"/>
    <path clip-path="url(#pe538b15930)" d="M 34.99504 67.422638 
L 46.055909 67.422638 
" style="fill:none;stroke:#000000;stroke-width:0.5;"/>
    <path clip-path="url(#pe538b15930)" d="M 28.122111 75.318827 
L 35.614831 75.318827 
" style="fill:none;stroke:#000000;stroke-width:0.5;"/>
    <path clip-path="url(#pe538b15930)" d="M 26.111743 90.694422 
L 29.11387 90.694422 
" style="fill:none;stroke:#000000;stroke-width:0.5;"/>
    <path clip-path="url(#pe538b15930)" d="M 22.511971 59.559384 
L 60.742316 59.559384 
" style="fill:none;stroke:#000000;stroke-width:0.5;"/>
    <path clip-path="url(#pe538b15930)" d="M 27.0134 80.586536 
L 33.252092 80.586536 
" style="fill:none;stroke:#000000;stroke-width:0.5;"/>
    <path clip-path="url(#pe538b15930)" d="M 27.768078 75.386653 
L 35.004063 75.386653 
" style="fill:none;stroke:#000000;stroke-width:0.5;"/>
    <path clip-path="url(#pe538b15930)" d="M 27.893246 88.209741 
L 30.632622 88.209741 
" style="fill:none;stroke:#000000;stroke-width:0.5;"/>
    <path clip-path="url(#pe538b15930)" d="M 25.614828 47.386737 
L 44.510397 47.386737 
" style="fill:none;stroke:#000000;stroke-width:0.5;"/>
    <path clip-path="url(#pe538b15930)" d="M 24.246171 32.078606 
L 56.316849 32.078606 
" style="fill:none;stroke:#000000;stroke-width:0.5;"/>
    <path clip-path="url(#pe538b15930)" d="M 25.625401 55.98341 
L 50.605486 55.98341 
" style="fill:none;stroke:#000000;stroke-width:0.5;"/>
    <path clip-path="url(#pe538b15930)" d="M 28.510137 70.739994 
L 38.725798 70.739994 
" style="fill:none;stroke:#000000;stroke-width:0.5;"/>
    <path clip-path="url(#pe538b15930)" d="M 24.233678 66.067726 
L 54.45809 66.067726 
" style="fill:none;stroke:#000000;stroke-width:0.5;"/>
    <path clip-path="url(#pe538b15930)" d="M 26.426993 70.656138 
L 37.046937 70.656138 
" style="fill:none;stroke:#000000;stroke-width:0.5;"/>
    <path clip-path="url(#pe538b15930)" d="M 27 90.169649 
L 27 90.169649 
" style="fill:none;stroke:#000000;stroke-width:0.5;"/>
   </g>
   <g id="LineCollection_2">
    <path clip-path="url(#pe538b15930)" d="M 36.280877 70.252418 
L 36.280877 42.627337 
" style="fill:none;stroke:#000000;stroke-width:0.5;"/>
    <path clip-path="url(#pe538b15930)" d="M 32.7387 80.99957 
L 32.7387 67.948451 
" style="fill:none;stroke:#000000;stroke-width:0.5;"/>
    <path clip-path="url(#pe538b15930)" d="M 31.699599 73.396582 
L 31.699599 59.436262 
" style="fill:none;stroke:#000000;stroke-width:0.5;"/>
    <path clip-path="url(#pe538b15930)" d="M 30.340498 87.718581 
L 30.340498 77.188611 
" style="fill:none;stroke:#000000;stroke-width:0.5;"/>
    <path clip-path="url(#pe538b15930)" d="M 32.025869 87.066246 
L 32.025869 77.901806 
" style="fill:none;stroke:#000000;stroke-width:0.5;"/>
    <path clip-path="url(#pe538b15930)" d="M 29.202259 90.904949 
L 29.202259 86.208684 
" style="fill:none;stroke:#000000;stroke-width:0.5;"/>
    <path clip-path="url(#pe538b15930)" d="M 29.729267 78.383162 
L 29.729267 63.770567 
" style="fill:none;stroke:#000000;stroke-width:0.5;"/>
    <path clip-path="url(#pe538b15930)" d="M 28.578325 88.457047 
L 28.578325 83.128641 
" style="fill:none;stroke:#000000;stroke-width:0.5;"/>
    <path clip-path="url(#pe538b15930)" d="M 30.887065 47.334679 
L 30.887065 39.557422 
" style="fill:none;stroke:#000000;stroke-width:0.5;"/>
    <path clip-path="url(#pe538b15930)" d="M 30.773249 81.628093 
L 30.773249 75.901469 
" style="fill:none;stroke:#000000;stroke-width:0.5;"/>
    <path clip-path="url(#pe538b15930)" d="M 31.57025 73.75733 
L 31.57025 65.478415 
" style="fill:none;stroke:#000000;stroke-width:0.5;"/>
    <path clip-path="url(#pe538b15930)" d="M 36.15194 85.364711 
L 36.15194 61.810176 
" style="fill:none;stroke:#000000;stroke-width:0.5;"/>
    <path clip-path="url(#pe538b15930)" d="M 30.11859 80.191335 
L 30.11859 72.602618 
" style="fill:none;stroke:#000000;stroke-width:0.5;"/>
    <path clip-path="url(#pe538b15930)" d="M 34.316362 75.617246 
L 34.316362 64.119238 
" style="fill:none;stroke:#000000;stroke-width:0.5;"/>
    <path clip-path="url(#pe538b15930)" d="M 30.57642 83.525377 
L 30.57642 75.953526 
" style="fill:none;stroke:#000000;stroke-width:0.5;"/>
    <path clip-path="url(#pe538b15930)" d="M 37.901522 69.532077 
L 37.901522 62.34947 
" style="fill:none;stroke:#000000;stroke-width:0.5;"/>
    <path clip-path="url(#pe538b15930)" d="M 40.525474 76.651357 
L 40.525474 58.193919 
" style="fill:none;stroke:#000000;stroke-width:0.5;"/>
    <path clip-path="url(#pe538b15930)" d="M 31.868471 78.198699 
L 31.868471 72.438955 
" style="fill:none;stroke:#000000;stroke-width:0.5;"/>
    <path clip-path="url(#pe538b15930)" d="M 27.612806 90.694422 
L 27.612806 90.694422 
" style="fill:none;stroke:#000000;stroke-width:0.5;"/>
    <path clip-path="url(#pe538b15930)" d="M 41.627144 79.840037 
L 41.627144 39.278731 
" style="fill:none;stroke:#000000;stroke-width:0.5;"/>
    <path clip-path="url(#pe538b15930)" d="M 30.132746 83.963864 
L 30.132746 77.209207 
" style="fill:none;stroke:#000000;stroke-width:0.5;"/>
    <path clip-path="url(#pe538b15930)" d="M 31.386071 78.383441 
L 31.386071 72.389864 
" style="fill:none;stroke:#000000;stroke-width:0.5;"/>
    <path clip-path="url(#pe538b15930)" d="M 29.262934 91.842795 
L 29.262934 84.576688 
" style="fill:none;stroke:#000000;stroke-width:0.5;"/>
    <path clip-path="url(#pe538b15930)" d="M 35.062612 59.876971 
L 35.062612 34.896504 
" style="fill:none;stroke:#000000;stroke-width:0.5;"/>
    <path clip-path="url(#pe538b15930)" d="M 40.28151 47.419542 
L 40.28151 16.73767 
" style="fill:none;stroke:#000000;stroke-width:0.5;"/>
    <path clip-path="url(#pe538b15930)" d="M 38.115443 72.305528 
L 38.115443 39.661291 
" style="fill:none;stroke:#000000;stroke-width:0.5;"/>
    <path clip-path="url(#pe538b15930)" d="M 33.617967 73.939539 
L 33.617967 67.54045 
" style="fill:none;stroke:#000000;stroke-width:0.5;"/>
    <path clip-path="url(#pe538b15930)" d="M 39.345884 84.026941 
L 39.345884 48.108512 
" style="fill:none;stroke:#000000;stroke-width:0.5;"/>
    <path clip-path="url(#pe538b15930)" d="M 31.736965 75.934643 
L 31.736965 65.377633 
" style="fill:none;stroke:#000000;stroke-width:0.5;"/>
    <path clip-path="url(#pe538b15930)" d="M 27 92.291079 
L 27 88.048219 
" style="fill:none;stroke:#000000;stroke-width:0.5;"/>
   </g>
   <g id="line2d_1">
    <path clip-path="url(#pe538b15930)" d="M 27 85.369395 
L 27.768595 83.556092 
L 28.53719 81.742788 
L 29.305785 79.929484 
L 30.07438 78.116181 
L 30.842975 76.302877 
L 31.61157 74.489574 
L 32.380165 72.67627 
L 33.14876 70.862966 
L 33.917355 69.049663 
L 34.68595 67.236359 
L 35.454545 65.423056 
L 36.22314 63.609752 
L 36.991736 61.796448 
L 37.760331 59.983145 
L 38.528926 58.169841 
L 39.297521 56.356538 
L 40.066116 54.543234 
L 40.834711 52.729931 
L 41.603306 50.916627 
L 42.371901 49.103323 
L 43.140496 47.29002 
L 43.909091 45.476716 
L 44.677686 43.663413 
L 45.446281 41.850109 
L 46.214876 40.036805 
L 46.983471 38.223502 
L 47.752066 36.410198 
L 48.520661 34.596895 
L 49.289256 32.783591 
L 50.057851 30.970287 
L 50.826446 29.156984 
L 51.595041 27.34368 
L 52.363636 25.530377 
L 53.132231 23.717073 
L 53.900826 21.903769 
L 54.669421 20.090466 
L 55.438017 18.277162 
L 56.206612 16.463859 
L 56.975207 14.650555 
L 57.743802 12.837251 
L 58.512397 11.023948 
L 59.280992 9.210644 
L 60.049587 7.397341 
L 60.818182 5.584037 
L 61.586777 3.770733 
L 62.355372 1.95743 
L 63.123967 0.144126 
L 63.608921 -1 
" style="fill:none;stroke:#000000;stroke-dasharray:1.85,0.8;stroke-dashoffset:0;stroke-width:0.5;"/>
   </g>
   <g id="line2d_2">
    <defs>
     <path d="M 0 3 
C 0.795609 3 1.55874 2.683901 2.12132 2.12132 
C 2.683901 1.55874 3 0.795609 3 0 
C 3 -0.795609 2.683901 -1.55874 2.12132 -2.12132 
C 1.55874 -2.683901 0.795609 -3 0 -3 
C -0.795609 -3 -1.55874 -2.683901 -2.12132 -2.12132 
C -2.683901 -1.55874 -3 -0.795609 -3 0 
C -3 0.795609 -2.683901 1.55874 -2.12132 2.12132 
C -1.55874 2.683901 -0.795609 3 0 3 
z
" id="m2be2bca443" style="stroke:#000000;"/>
    </defs>
    <g clip-path="url(#pe538b15930)">
     <use style="stroke:#000000;" x="36.280877" xlink:href="#m2be2bca443" y="56.439877"/>
     <use style="stroke:#000000;" x="32.7387" xlink:href="#m2be2bca443" y="74.47401"/>
     <use style="stroke:#000000;" x="31.699599" xlink:href="#m2be2bca443" y="66.416422"/>
     <use style="stroke:#000000;" x="30.340498" xlink:href="#m2be2bca443" y="82.453596"/>
     <use style="stroke:#000000;" x="32.025869" xlink:href="#m2be2bca443" y="82.484026"/>
     <use style="stroke:#000000;" x="29.202259" xlink:href="#m2be2bca443" y="88.556817"/>
     <use style="stroke:#000000;" x="29.729267" xlink:href="#m2be2bca443" y="71.076865"/>
     <use style="stroke:#000000;" x="28.578325" xlink:href="#m2be2bca443" y="85.792844"/>
     <use style="stroke:#000000;" x="30.887065" xlink:href="#m2be2bca443" y="43.446051"/>
     <use style="stroke:#000000;" x="30.773249" xlink:href="#m2be2bca443" y="78.764781"/>
     <use style="stroke:#000000;" x="31.57025" xlink:href="#m2be2bca443" y="69.617873"/>
     <use style="stroke:#000000;" x="36.15194" xlink:href="#m2be2bca443" y="73.587444"/>
     <use style="stroke:#000000;" x="30.11859" xlink:href="#m2be2bca443" y="76.396977"/>
     <use style="stroke:#000000;" x="34.316362" xlink:href="#m2be2bca443" y="69.868242"/>
     <use style="stroke:#000000;" x="30.57642" xlink:href="#m2be2bca443" y="79.739452"/>
     <use style="stroke:#000000;" x="37.901522" xlink:href="#m2be2bca443" y="65.940774"/>
     <use style="stroke:#000000;" x="40.525474" xlink:href="#m2be2bca443" y="67.422638"/>
     <use style="stroke:#000000;" x="31.868471" xlink:href="#m2be2bca443" y="75.318827"/>
     <use style="stroke:#000000;" x="27.612806" xlink:href="#m2be2bca443" y="90.694422"/>
     <use style="stroke:#000000;" x="41.627144" xlink:href="#m2be2bca443" y="59.559384"/>
     <use style="stroke:#000000;" x="30.132746" xlink:href="#m2be2bca443" y="80.586536"/>
     <use style="stroke:#000000;" x="31.386071" xlink:href="#m2be2bca443" y="75.386653"/>
     <use style="stroke:#000000;" x="29.262934" xlink:href="#m2be2bca443" y="88.209741"/>
     <use style="stroke:#000000;" x="35.062612" xlink:href="#m2be2bca443" y="47.386737"/>
     <use style="stroke:#000000;" x="40.28151" xlink:href="#m2be2bca443" y="32.078606"/>
     <use style="stroke:#000000;" x="38.115443" xlink:href="#m2be2bca443" y="55.98341"/>
     <use style="stroke:#000000;" x="33.617967" xlink:href="#m2be2bca443" y="70.739994"/>
     <use style="stroke:#000000;" x="39.345884" xlink:href="#m2be2bca443" y="66.067726"/>
     <use style="stroke:#000000;" x="31.736965" xlink:href="#m2be2bca443" y="70.656138"/>
     <use style="stroke:#000000;" x="27" xlink:href="#m2be2bca443" y="90.169649"/>
    </g>
   </g>
   <g id="patch_3">
    <path d="M 27 94.5 
L 27 12.96 
" style="fill:none;stroke:#000000;stroke-linecap:square;stroke-linejoin:miter;"/>
   </g>
   <g id="patch_4">
    <path d="M 27 94.5 
L 103.090909 94.5 
" style="fill:none;stroke:#000000;stroke-linecap:square;stroke-linejoin:miter;"/>
   </g>
   <g id="matplotlib.axis_1">
    <g id="xtick_1">
     <g id="line2d_3"/>
     <g id="text_1">
      <text style="font-family:Arial;font-size:8px;font-style:normal;font-weight:normal;text-anchor:middle;" transform="rotate(-0, 27, 103.72625)" x="27" y="103.72625">0</text>
     </g>
    </g>
    <g id="xtick_2">
     <g id="line2d_4"/>
     <g id="text_2">
      <text style="font-family:Arial;font-size:8px;font-style:normal;font-weight:normal;text-anchor:middle;" transform="rotate(-0, 56.393429, 103.72625)" x="56.393429" y="103.72625">5</text>
     </g>
    </g>
    <g id="xtick_3">
     <g id="line2d_5"/>
     <g id="text_3">
      <text style="font-family:Arial;font-size:8px;font-style:normal;font-weight:normal;text-anchor:middle;" transform="rotate(-0, 85.786859, 103.72625)" x="85.786859" y="103.72625">10</text>
     </g>
    </g>
    <g id="text_4">
     <text style="font-family:Arial;font-size:10px;font-style:normal;font-weight:normal;text-anchor:middle;" transform="rotate(-0, 65.045455, 116.474063)" x="65.045455" y="116.474063">Exc</text>
    </g>
   </g>
   <g id="matplotlib.axis_2">
    <g id="ytick_1">
     <g id="line2d_6"/>
     <g id="text_5">
      <text style="font-family:Arial;font-size:8px;font-style:normal;font-weight:normal;text-anchor:end;" transform="rotate(-0, 23.5, 97.363125)" x="23.5" y="97.363125">0</text>
     </g>
    </g>
    <g id="ytick_2">
     <g id="line2d_7"/>
     <g id="text_6">
      <text style="font-family:Arial;font-size:8px;font-style:normal;font-weight:normal;text-anchor:end;" transform="rotate(-0, 23.5, 65.864747)" x="23.5" y="65.864747">5</text>
     </g>
    </g>
    <g id="ytick_3">
     <g id="line2d_8"/>
     <g id="text_7">
      <text style="font-family:Arial;font-size:8px;font-style:normal;font-weight:normal;text-anchor:end;" transform="rotate(-0, 23.5, 34.366369)" x="23.5" y="34.366369">10</text>
     </g>
    </g>
    <g id="text_8">
     <text style="font-family:Arial;font-size:10px;font-style:normal;font-weight:normal;text-anchor:middle;" transform="rotate(-90, 8.615, 53.73)" x="8.615" y="53.73">Inh</text>
    </g>
   </g>
   <g id="legend_1">
    <g id="line2d_9">
     <path d="M 36 75.622656 
L 56 75.622656 
" style="fill:none;stroke:#000000;stroke-dasharray:1.85,0.8;stroke-dashoffset:0;stroke-width:0.5;"/>
    </g>
    <g id="line2d_10"/>
    <g id="text_9">
     <!-- $R^2$ 0.47 -->
     <g transform="translate(64 72.875)">
      <text>
       <tspan style="font-family:DejaVu Sans;font-size:10px;font-style:oblique;font-weight:oblique;" x="0" y="-0.9765625">R</tspan>
       <tspan style="font-family:DejaVu Sans;font-size:7px;font-style:book;font-weight:book;" x="7.650794" y="-4.8046875">2</tspan>
       <tspan style="font-family:Arial;font-size:10px;font-style:regular;font-weight:regular;" x="12.377845 15.156165 20.717689 23.496009 29.057533" y="-0.9765625"> 0.47</tspan>
      </text>
     </g>
     <text style="font-family:Arial;font-size:10px;font-style:normal;font-weight:normal;" transform="translate(64 83.4875)"> slope 2.20</text>
    </g>
   </g>
  </g>
  <g id="axes_2">
   <g id="patch_5">
    <path d="M 118.309091 94.5 
L 194.4 94.5 
L 194.4 12.96 
L 118.309091 12.96 
z
" style="fill:#ffffff;"/>
   </g>
   <g id="PathCollection_1">
    <defs>
     <path d="M 0 2.44949 
C 0.649612 2.44949 1.272706 2.191396 1.732051 1.732051 
C 2.191396 1.272706 2.44949 0.649612 2.44949 0 
C 2.44949 -0.649612 2.191396 -1.272706 1.732051 -1.732051 
C 1.272706 -2.191396 0.649612 -2.44949 0 -2.44949 
C -0.649612 -2.44949 -1.272706 -2.191396 -1.732051 -1.732051 
C -2.191396 -1.272706 -2.44949 -0.649612 -2.44949 0 
C -2.44949 0.649612 -2.191396 1.272706 -1.732051 1.732051 
C -1.272706 2.191396 -0.649612 2.44949 0 2.44949 
z
" id="m9d9c0f2302" style="stroke:#000000;"/>
    </defs>
    <g clip-path="url(#pc4bca8e7e6)">
     <use style="stroke:#000000;" x="159.498962" xlink:href="#m9d9c0f2302" y="42.405429"/>
     <use style="stroke:#000000;" x="136.808234" xlink:href="#m9d9c0f2302" y="69.888582"/>
     <use style="stroke:#000000;" x="132.363071" xlink:href="#m9d9c0f2302" y="68.174035"/>
     <use style="stroke:#000000;" x="132.973455" xlink:href="#m9d9c0f2302" y="74.64289"/>
     <use style="stroke:#000000;" x="136.930734" xlink:href="#m9d9c0f2302" y="77.217966"/>
     <use style="stroke:#000000;" x="129.478064" xlink:href="#m9d9c0f2302" y="85.643922"/>
     <use style="stroke:#000000;" x="129.682896" xlink:href="#m9d9c0f2302" y="66.943994"/>
     <use style="stroke:#000000;" x="127.916317" xlink:href="#m9d9c0f2302" y="84.451848"/>
     <use style="stroke:#000000;" x="132.138062" xlink:href="#m9d9c0f2302" y="79.833875"/>
     <use style="stroke:#000000;" x="126.782928" xlink:href="#m9d9c0f2302" y="83.700899"/>
     <use style="stroke:#000000;" x="136.879206" xlink:href="#m9d9c0f2302" y="78.887864"/>
     <use style="stroke:#000000;" x="163.289255" xlink:href="#m9d9c0f2302" y="50.081547"/>
     <use style="stroke:#000000;" x="136.650234" xlink:href="#m9d9c0f2302" y="80.18942"/>
     <use style="stroke:#000000;" x="146.762184" xlink:href="#m9d9c0f2302" y="72.817391"/>
     <use style="stroke:#000000;" x="136.347514" xlink:href="#m9d9c0f2302" y="80.221225"/>
     <use style="stroke:#000000;" x="139.638221" xlink:href="#m9d9c0f2302" y="80.955248"/>
     <use style="stroke:#000000;" x="139.167355" xlink:href="#m9d9c0f2302" y="59.693502"/>
     <use style="stroke:#000000;" x="132.438644" xlink:href="#m9d9c0f2302" y="83.638443"/>
     <use style="stroke:#000000;" x="123.970413" xlink:href="#m9d9c0f2302" y="94.5"/>
     <use style="stroke:#000000;" x="190.402758" xlink:href="#m9d9c0f2302" y="18.010674"/>
     <use style="stroke:#000000;" x="130.073833" xlink:href="#m9d9c0f2302" y="81.762265"/>
     <use style="stroke:#000000;" x="131.954501" xlink:href="#m9d9c0f2302" y="83.197487"/>
     <use style="stroke:#000000;" x="123.474927" xlink:href="#m9d9c0f2302" y="80.797787"/>
     <use style="stroke:#000000;" x="153.941803" xlink:href="#m9d9c0f2302" y="47.392564"/>
     <use style="stroke:#000000;" x="178.787039" xlink:href="#m9d9c0f2302" y="36.641022"/>
     <use style="stroke:#000000;" x="165.415807" xlink:href="#m9d9c0f2302" y="32.94045"/>
     <use style="stroke:#000000;" x="137.573487" xlink:href="#m9d9c0f2302" y="82.432786"/>
     <use style="stroke:#000000;" x="175.305403" xlink:href="#m9d9c0f2302" y="26.766074"/>
     <use style="stroke:#000000;" x="138.335871" xlink:href="#m9d9c0f2302" y="74.591898"/>
     <use style="stroke:#000000;" x="118.309091" xlink:href="#m9d9c0f2302" y="86.498939"/>
    </g>
   </g>
   <g id="line2d_11">
    <path clip-path="url(#pc4bca8e7e6)" d="M 118.309091 93.488739 
L 119.077686 92.669506 
L 119.846281 91.850273 
L 120.614876 91.03104 
L 121.383471 90.211806 
L 122.152066 89.392573 
L 122.920661 88.57334 
L 123.689256 87.754107 
L 124.457851 86.934874 
L 125.226446 86.115641 
L 125.995041 85.296408 
L 126.763636 84.477175 
L 127.532231 83.657942 
L 128.300826 82.838709 
L 129.069421 82.019475 
L 129.838017 81.200242 
L 130.606612 80.381009 
L 131.375207 79.561776 
L 132.143802 78.742543 
L 132.912397 77.92331 
L 133.680992 77.104077 
L 134.449587 76.284844 
L 135.218182 75.465611 
L 135.986777 74.646378 
L 136.755372 73.827144 
L 137.523967 73.007911 
L 138.292562 72.188678 
L 139.061157 71.369445 
L 139.829752 70.550212 
L 140.598347 69.730979 
L 141.366942 68.911746 
L 142.135537 68.092513 
L 142.904132 67.27328 
L 143.672727 66.454047 
L 144.441322 65.634813 
L 145.209917 64.81558 
L 145.978512 63.996347 
L 146.747107 63.177114 
L 147.515702 62.357881 
L 148.284298 61.538648 
L 149.052893 60.719415 
L 149.821488 59.900182 
L 150.590083 59.080949 
L 151.358678 58.261716 
L 152.127273 57.442482 
L 152.895868 56.623249 
L 153.664463 55.804016 
L 154.433058 54.984783 
L 155.201653 54.16555 
L 155.970248 53.346317 
L 156.738843 52.527084 
L 157.507438 51.707851 
L 158.276033 50.888618 
L 159.044628 50.069385 
L 159.813223 49.250151 
L 160.581818 48.430918 
L 161.350413 47.611685 
L 162.119008 46.792452 
L 162.887603 45.973219 
L 163.656198 45.153986 
L 164.424793 44.334753 
L 165.193388 43.51552 
L 165.961983 42.696287 
L 166.730579 41.877053 
L 167.499174 41.05782 
L 168.267769 40.238587 
L 169.036364 39.419354 
L 169.804959 38.600121 
L 170.573554 37.780888 
L 171.342149 36.961655 
L 172.110744 36.142422 
L 172.879339 35.323189 
L 173.647934 34.503956 
L 174.416529 33.684722 
L 175.185124 32.865489 
L 175.953719 32.046256 
L 176.722314 31.227023 
L 177.490909 30.40779 
L 178.259504 29.588557 
L 179.028099 28.769324 
L 179.796694 27.950091 
L 180.565289 27.130858 
L 181.333884 26.311625 
L 182.102479 25.492391 
L 182.871074 24.673158 
L 183.639669 23.853925 
L 184.408264 23.034692 
L 185.17686 22.215459 
L 185.945455 21.396226 
L 186.71405 20.576993 
L 187.482645 19.75776 
L 188.25124 18.938527 
L 189.019835 18.119294 
L 189.78843 17.30006 
L 190.557025 16.480827 
L 191.32562 15.661594 
L 192.094215 14.842361 
L 192.86281 14.023128 
L 193.631405 13.203895 
L 194.4 12.384662 
" style="fill:none;stroke:#000000;stroke-dasharray:1.85,0.8;stroke-dashoffset:0;stroke-width:0.5;"/>
   </g>
   <g id="patch_6">
    <path d="M 118.309091 94.5 
L 118.309091 12.96 
" style="fill:none;stroke:#000000;stroke-linecap:square;stroke-linejoin:miter;"/>
   </g>
   <g id="patch_7">
    <path d="M 118.309091 94.5 
L 194.4 94.5 
" style="fill:none;stroke:#000000;stroke-linecap:square;stroke-linejoin:miter;"/>
   </g>
   <g id="matplotlib.axis_3">
    <g id="xtick_4">
     <g id="line2d_12"/>
     <g id="text_10">
      <text style="font-family:Arial;font-size:8px;font-style:normal;font-weight:normal;text-anchor:middle;" transform="rotate(-0, 118.309091, 103.72625)" x="118.309091" y="103.72625">0</text>
     </g>
    </g>
    <g id="xtick_5">
     <g id="line2d_13"/>
     <g id="text_11">
      <text style="font-family:Arial;font-size:8px;font-style:normal;font-weight:normal;text-anchor:middle;" transform="rotate(-0, 162.652508, 103.72625)" x="162.652508" y="103.72625">2</text>
     </g>
    </g>
    <g id="text_12">
     <!-- $\sigma$(Exc) -->
     <g transform="translate(141.504545 116.61625)">
      <text>
       <tspan style="font-family:DejaVu Sans;font-size:10px;font-style:oblique;font-weight:oblique;" x="0" y="-0.71875">σ</tspan>
       <tspan style="font-family:Arial;font-size:10px;font-style:regular;font-weight:regular;" x="6.337891 9.667969 16.337891 21.337891 26.337891" y="-0.71875">(Exc)</tspan>
      </text>
     </g>
    </g>
   </g>
   <g id="matplotlib.axis_4">
    <g id="ytick_4">
     <g id="line2d_14"/>
     <g id="text_13">
      <text style="font-family:Arial;font-size:8px;font-style:normal;font-weight:normal;text-anchor:end;" transform="rotate(-0, 114.809091, 97.363125)" x="114.809091" y="97.363125">0</text>
     </g>
    </g>
    <g id="ytick_5">
     <g id="line2d_15"/>
     <g id="text_14">
      <text style="font-family:Arial;font-size:8px;font-style:normal;font-weight:normal;text-anchor:end;" transform="rotate(-0, 114.809091, 73.603636)" x="114.809091" y="73.603636">1</text>
     </g>
    </g>
    <g id="ytick_6">
     <g id="line2d_16"/>
     <g id="text_15">
      <text style="font-family:Arial;font-size:8px;font-style:normal;font-weight:normal;text-anchor:end;" transform="rotate(-0, 114.809091, 49.844147)" x="114.809091" y="49.844147">2</text>
     </g>
    </g>
    <g id="ytick_7">
     <g id="line2d_17"/>
     <g id="text_16">
      <text style="font-family:Arial;font-size:8px;font-style:normal;font-weight:normal;text-anchor:end;" transform="rotate(-0, 114.809091, 26.084658)" x="114.809091" y="26.084658">3</text>
     </g>
    </g>
    <g id="text_17">
     <!-- $\sigma$(Inh) -->
     <g transform="translate(104.160341 67.18)rotate(-90)">
      <text>
       <tspan style="font-family:DejaVu Sans;font-size:10px;font-style:oblique;font-weight:oblique;" x="0" y="-0.71875">σ</tspan>
       <tspan style="font-family:Arial;font-size:10px;font-style:regular;font-weight:regular;" x="6.337891 9.667969 12.446289 18.007812 23.569336" y="-0.71875">(Inh)</tspan>
      </text>
     </g>
    </g>
   </g>
   <g id="legend_2">
    <g id="line2d_18">
     <path d="M 108.478125 31.995156 
L 128.478125 31.995156 
" style="fill:none;stroke:#000000;stroke-dasharray:1.85,0.8;stroke-dashoffset:0;stroke-width:0.5;"/>
    </g>
    <g id="line2d_19"/>
    <g id="text_18">
     <!-- $R^2$ 0.88 -->
     <g transform="translate(136.478125 29.2475)">
      <text>
       <tspan style="font-family:DejaVu Sans;font-size:10px;font-style:oblique;font-weight:oblique;" x="0" y="-0.9765625">R</tspan>
       <tspan style="font-family:DejaVu Sans;font-size:7px;font-style:book;font-weight:book;" x="7.650794" y="-4.8046875">2</tspan>
       <tspan style="font-family:Arial;font-size:10px;font-style:regular;font-weight:regular;" x="12.377845 15.156165 20.717689 23.496009 29.057533" y="-0.9765625"> 0.88</tspan>
      </text>
     </g>
     <text style="font-family:Arial;font-size:10px;font-style:normal;font-weight:normal;" transform="translate(136.478125 39.86)"> slope 0.99</text>
    </g>
   </g>
  </g>
 </g>
 <defs>
  <clipPath id="pe538b15930">
   <rect height="81.54" width="76.090909" x="27" y="12.96"/>
  </clipPath>
  <clipPath id="pc4bca8e7e6">
   <rect height="81.54" width="76.090909" x="118.309091" y="12.96"/>
  </clipPath>
 </defs>
</svg>
