<?xml version="1.0" encoding="utf-8" standalone="no"?>
<!DOCTYPE svg PUBLIC "-//W3C//DTD SVG 1.1//EN"
  "http://www.w3.org/Graphics/SVG/1.1/DTD/svg11.dtd">
<!-- Created with matplotlib (http://matplotlib.org/) -->
<svg height="108pt" version="1.1" viewBox="0 0 216 108" width="216pt" xmlns="http://www.w3.org/2000/svg" xmlns:xlink="http://www.w3.org/1999/xlink">
 <defs>
  <style type="text/css">
*{stroke-linecap:butt;stroke-linejoin:round;}
  </style>
 </defs>
 <g id="figure_1">
  <g id="patch_1">
   <path d="M 0 108 
L 216 108 
L 216 0 
L 0 0 
z
" style="fill:#ffffff;"/>
  </g>
  <g id="axes_1">
   <g id="patch_2">
    <path d="M 27 94.5 
L 103.090909 94.5 
L 103.090909 12.96 
L 27 12.96 
z
" style="fill:#ffffff;"/>
   </g>
   <g id="LineCollection_1">
    <path clip-path="url(#pa403cceb19)" d="M 26.138684 66.441669 
L 32.397008 66.441669 
" style="fill:none;stroke:#000000;stroke-width:0.5;"/>
    <path clip-path="url(#pa403cceb19)" d="M 25.858204 81.33274 
L 36.739718 81.33274 
" style="fill:none;stroke:#000000;stroke-width:0.5;"/>
    <path clip-path="url(#pa403cceb19)" d="M 30.116096 37.283586 
L 54.036603 37.283586 
" style="fill:none;stroke:#000000;stroke-width:0.5;"/>
    <path clip-path="url(#pa403cceb19)" d="M 30.962106 68.934118 
L 43.966674 68.934118 
" style="fill:none;stroke:#000000;stroke-width:0.5;"/>
    <path clip-path="url(#pa403cceb19)" d="M 25.911099 79.461162 
L 29.591363 79.461162 
" style="fill:none;stroke:#000000;stroke-width:0.5;"/>
    <path clip-path="url(#pa403cceb19)" d="M 24.479984 79.559285 
L 36.847163 79.559285 
" style="fill:none;stroke:#000000;stroke-width:0.5;"/>
    <path clip-path="url(#pa403cceb19)" d="M 35.967359 32.568214 
L 57.481779 32.568214 
" style="fill:none;stroke:#000000;stroke-width:0.5;"/>
    <path clip-path="url(#pa403cceb19)" d="M 23.60778 71.797881 
L 47.588285 71.797881 
" style="fill:none;stroke:#000000;stroke-width:0.5;"/>
    <path clip-path="url(#pa403cceb19)" d="M 27.740166 64.325291 
L 34.29648 64.325291 
" style="fill:none;stroke:#000000;stroke-width:0.5;"/>
    <path clip-path="url(#pa403cceb19)" d="M 28.691389 70.133068 
L 40.331342 70.133068 
" style="fill:none;stroke:#000000;stroke-width:0.5;"/>
    <path clip-path="url(#pa403cceb19)" d="M 26.696571 90.09832 
L 31.007907 90.09832 
" style="fill:none;stroke:#000000;stroke-width:0.5;"/>
    <path clip-path="url(#pa403cceb19)" d="M 26.131965 90.330664 
L 31.029163 90.330664 
" style="fill:none;stroke:#000000;stroke-width:0.5;"/>
    <path clip-path="url(#pa403cceb19)" d="M 26.025737 69.996624 
L 33.481337 69.996624 
" style="fill:none;stroke:#000000;stroke-width:0.5;"/>
    <path clip-path="url(#pa403cceb19)" d="M 28.094806 67.512235 
L 44.387557 67.512235 
" style="fill:none;stroke:#000000;stroke-width:0.5;"/>
    <path clip-path="url(#pa403cceb19)" d="M 26.336707 83.283112 
L 30.078808 83.283112 
" style="fill:none;stroke:#000000;stroke-width:0.5;"/>
    <path clip-path="url(#pa403cceb19)" d="M 27.871108 81.012944 
L 38.481306 81.012944 
" style="fill:none;stroke:#000000;stroke-width:0.5;"/>
    <path clip-path="url(#pa403cceb19)" d="M 23.138854 38.285649 
L 43.521468 38.285649 
" style="fill:none;stroke:#000000;stroke-width:0.5;"/>
    <path clip-path="url(#pa403cceb19)" d="M 28.025274 31.476181 
L 47.955612 31.476181 
" style="fill:none;stroke:#000000;stroke-width:0.5;"/>
    <path clip-path="url(#pa403cceb19)" d="M 24.356012 78.866946 
L 39.272612 78.866946 
" style="fill:none;stroke:#000000;stroke-width:0.5;"/>
    <path clip-path="url(#pa403cceb19)" d="M 24.004465 78.003748 
L 36.396136 78.003748 
" style="fill:none;stroke:#000000;stroke-width:0.5;"/>
    <path clip-path="url(#pa403cceb19)" d="M 28.086771 76.26681 
L 42.019186 76.26681 
" style="fill:none;stroke:#000000;stroke-width:0.5;"/>
    <path clip-path="url(#pa403cceb19)" d="M 27.74743 66.043207 
L 44.036977 66.043207 
" style="fill:none;stroke:#000000;stroke-width:0.5;"/>
    <path clip-path="url(#pa403cceb19)" d="M 27.514657 75.63374 
L 33.59467 75.63374 
" style="fill:none;stroke:#000000;stroke-width:0.5;"/>
    <path clip-path="url(#pa403cceb19)" d="M 29.380404 69.213267 
L 41.901293 69.213267 
" style="fill:none;stroke:#000000;stroke-width:0.5;"/>
    <path clip-path="url(#pa403cceb19)" d="M 28.975869 63.462126 
L 38.805413 63.462126 
" style="fill:none;stroke:#000000;stroke-width:0.5;"/>
    <path clip-path="url(#pa403cceb19)" d="M 27.545313 54.981598 
L 37.01163 54.981598 
" style="fill:none;stroke:#000000;stroke-width:0.5;"/>
    <path clip-path="url(#pa403cceb19)" d="M 28.690385 68.091659 
L 36.628566 68.091659 
" style="fill:none;stroke:#000000;stroke-width:0.5;"/>
    <path clip-path="url(#pa403cceb19)" d="M 28.443728 64.283425 
L 44.338567 64.283425 
" style="fill:none;stroke:#000000;stroke-width:0.5;"/>
    <path clip-path="url(#pa403cceb19)" d="M 30.1348 67.483201 
L 38.564078 67.483201 
" style="fill:none;stroke:#000000;stroke-width:0.5;"/>
    <path clip-path="url(#pa403cceb19)" d="M 26.62738 63.059101 
L 53.053555 63.059101 
" style="fill:none;stroke:#000000;stroke-width:0.5;"/>
   </g>
   <g id="LineCollection_2">
    <path clip-path="url(#pa403cceb19)" d="M 29.267846 78.301062 
L 29.267846 54.582277 
" style="fill:none;stroke:#000000;stroke-width:0.5;"/>
    <path clip-path="url(#pa403cceb19)" d="M 31.298961 84.225308 
L 31.298961 78.440172 
" style="fill:none;stroke:#000000;stroke-width:0.5;"/>
    <path clip-path="url(#pa403cceb19)" d="M 42.076349 57.80337 
L 42.076349 16.763801 
" style="fill:none;stroke:#000000;stroke-width:0.5;"/>
    <path clip-path="url(#pa403cceb19)" d="M 37.46439 77.328638 
L 37.46439 60.539598 
" style="fill:none;stroke:#000000;stroke-width:0.5;"/>
    <path clip-path="url(#pa403cceb19)" d="M 27.751231 83.99401 
L 27.751231 74.928314 
" style="fill:none;stroke:#000000;stroke-width:0.5;"/>
    <path clip-path="url(#pa403cceb19)" d="M 30.663574 83.00377 
L 30.663574 76.114799 
" style="fill:none;stroke:#000000;stroke-width:0.5;"/>
    <path clip-path="url(#pa403cceb19)" d="M 46.724569 44.197383 
L 46.724569 20.939045 
" style="fill:none;stroke:#000000;stroke-width:0.5;"/>
    <path clip-path="url(#pa403cceb19)" d="M 35.598033 78.699126 
L 35.598033 64.896637 
" style="fill:none;stroke:#000000;stroke-width:0.5;"/>
    <path clip-path="url(#pa403cceb19)" d="M 31.018323 70.004447 
L 31.018323 58.646135 
" style="fill:none;stroke:#000000;stroke-width:0.5;"/>
    <path clip-path="url(#pa403cceb19)" d="M 34.511366 72.962519 
L 34.511366 67.303616 
" style="fill:none;stroke:#000000;stroke-width:0.5;"/>
    <path clip-path="url(#pa403cceb19)" d="M 28.852239 92.839825 
L 28.852239 87.356815 
" style="fill:none;stroke:#000000;stroke-width:0.5;"/>
    <path clip-path="url(#pa403cceb19)" d="M 28.580564 92.373213 
L 28.580564 88.288115 
" style="fill:none;stroke:#000000;stroke-width:0.5;"/>
    <path clip-path="url(#pa403cceb19)" d="M 29.753537 81.382534 
L 29.753537 58.610714 
" style="fill:none;stroke:#000000;stroke-width:0.5;"/>
    <path clip-path="url(#pa403cceb19)" d="M 36.241181 77.581612 
L 36.241181 57.442858 
" style="fill:none;stroke:#000000;stroke-width:0.5;"/>
    <path clip-path="url(#pa403cceb19)" d="M 28.207758 86.763735 
L 28.207758 79.80249 
" style="fill:none;stroke:#000000;stroke-width:0.5;"/>
    <path clip-path="url(#pa403cceb19)" d="M 33.176207 88.898581 
L 33.176207 73.127306 
" style="fill:none;stroke:#000000;stroke-width:0.5;"/>
    <path clip-path="url(#pa403cceb19)" d="M 33.330161 48.815886 
L 33.330161 27.755412 
" style="fill:none;stroke:#000000;stroke-width:0.5;"/>
    <path clip-path="url(#pa403cceb19)" d="M 37.990443 36.684048 
L 37.990443 26.268315 
" style="fill:none;stroke:#000000;stroke-width:0.5;"/>
    <path clip-path="url(#pa403cceb19)" d="M 31.814312 78.866946 
L 31.814312 78.866946 
" style="fill:none;stroke:#000000;stroke-width:0.5;"/>
    <path clip-path="url(#pa403cceb19)" d="M 30.2003 78.683297 
L 30.2003 77.324199 
" style="fill:none;stroke:#000000;stroke-width:0.5;"/>
    <path clip-path="url(#pa403cceb19)" d="M 35.052978 82.765131 
L 35.052978 69.768489 
" style="fill:none;stroke:#000000;stroke-width:0.5;"/>
    <path clip-path="url(#pa403cceb19)" d="M 35.892203 76.176277 
L 35.892203 55.910137 
" style="fill:none;stroke:#000000;stroke-width:0.5;"/>
    <path clip-path="url(#pa403cceb19)" d="M 30.554663 80.387444 
L 30.554663 70.880036 
" style="fill:none;stroke:#000000;stroke-width:0.5;"/>
    <path clip-path="url(#pa403cceb19)" d="M 35.640848 73.004184 
L 35.640848 65.42235 
" style="fill:none;stroke:#000000;stroke-width:0.5;"/>
    <path clip-path="url(#pa403cceb19)" d="M 33.890641 68.194259 
L 33.890641 58.729992 
" style="fill:none;stroke:#000000;stroke-width:0.5;"/>
    <path clip-path="url(#pa403cceb19)" d="M 32.278471 64.42024 
L 32.278471 45.542955 
" style="fill:none;stroke:#000000;stroke-width:0.5;"/>
    <path clip-path="url(#pa403cceb19)" d="M 32.659476 76.375418 
L 32.659476 59.807901 
" style="fill:none;stroke:#000000;stroke-width:0.5;"/>
    <path clip-path="url(#pa403cceb19)" d="M 36.391147 72.235406 
L 36.391147 56.331443 
" style="fill:none;stroke:#000000;stroke-width:0.5;"/>
    <path clip-path="url(#pa403cceb19)" d="M 34.349439 69.851147 
L 34.349439 65.115255 
" style="fill:none;stroke:#000000;stroke-width:0.5;"/>
    <path clip-path="url(#pa403cceb19)" d="M 39.840468 70.357642 
L 39.840468 55.760559 
" style="fill:none;stroke:#000000;stroke-width:0.5;"/>
   </g>
   <g id="line2d_1">
    <path clip-path="url(#pa403cceb19)" d="M 27 84.809556 
L 27.768595 82.840723 
L 28.53719 80.871891 
L 29.305785 78.903058 
L 30.07438 76.934225 
L 30.842975 74.965393 
L 31.61157 72.99656 
L 32.380165 71.027727 
L 33.14876 69.058895 
L 33.917355 67.090062 
L 34.68595 65.121229 
L 35.454545 63.152397 
L 36.22314 61.183564 
L 36.991736 59.214731 
L 37.760331 57.245899 
L 38.528926 55.277066 
L 39.297521 53.308233 
L 40.066116 51.339401 
L 40.834711 49.370568 
L 41.603306 47.401735 
L 42.371901 45.432903 
L 43.140496 43.46407 
L 43.909091 41.495237 
L 44.677686 39.526404 
L 45.446281 37.557572 
L 46.214876 35.588739 
L 46.983471 33.619906 
L 47.752066 31.651074 
L 48.520661 29.682241 
L 49.289256 27.713408 
L 50.057851 25.744576 
L 50.826446 23.775743 
L 51.595041 21.80691 
L 52.363636 19.838078 
L 53.132231 17.869245 
L 53.900826 15.900412 
L 54.669421 13.93158 
L 55.438017 11.962747 
L 56.206612 9.993914 
L 56.975207 8.025082 
L 57.743802 6.056249 
L 58.512397 4.087416 
L 59.280992 2.118584 
L 60.049587 0.149751 
L 60.498428 -1 
" style="fill:none;stroke:#000000;stroke-dasharray:1.85,0.8;stroke-dashoffset:0;stroke-width:0.5;"/>
   </g>
   <g id="line2d_2">
    <defs>
     <path d="M 0 3 
C 0.795609 3 1.55874 2.683901 2.12132 2.12132 
C 2.683901 1.55874 3 0.795609 3 0 
C 3 -0.795609 2.683901 -1.55874 2.12132 -2.12132 
C 1.55874 -2.683901 0.795609 -3 0 -3 
C -0.795609 -3 -1.55874 -2.683901 -2.12132 -2.12132 
C -2.683901 -1.55874 -3 -0.795609 -3 0 
C -3 0.795609 -2.683901 1.55874 -2.12132 2.12132 
C -1.55874 2.683901 -0.795609 3 0 3 
z
" id="mc81b25e040" style="stroke:#000000;"/>
    </defs>
    <g clip-path="url(#pa403cceb19)">
     <use style="stroke:#000000;" x="29.267846" xlink:href="#mc81b25e040" y="66.441669"/>
     <use style="stroke:#000000;" x="31.298961" xlink:href="#mc81b25e040" y="81.33274"/>
     <use style="stroke:#000000;" x="42.076349" xlink:href="#mc81b25e040" y="37.283586"/>
     <use style="stroke:#000000;" x="37.46439" xlink:href="#mc81b25e040" y="68.934118"/>
     <use style="stroke:#000000;" x="27.751231" xlink:href="#mc81b25e040" y="79.461162"/>
     <use style="stroke:#000000;" x="30.663574" xlink:href="#mc81b25e040" y="79.559285"/>
     <use style="stroke:#000000;" x="46.724569" xlink:href="#mc81b25e040" y="32.568214"/>
     <use style="stroke:#000000;" x="35.598033" xlink:href="#mc81b25e040" y="71.797881"/>
     <use style="stroke:#000000;" x="31.018323" xlink:href="#mc81b25e040" y="64.325291"/>
     <use style="stroke:#000000;" x="34.511366" xlink:href="#mc81b25e040" y="70.133068"/>
     <use style="stroke:#000000;" x="28.852239" xlink:href="#mc81b25e040" y="90.09832"/>
     <use style="stroke:#000000;" x="28.580564" xlink:href="#mc81b25e040" y="90.330664"/>
     <use style="stroke:#000000;" x="29.753537" xlink:href="#mc81b25e040" y="69.996624"/>
     <use style="stroke:#000000;" x="36.241181" xlink:href="#mc81b25e040" y="67.512235"/>
     <use style="stroke:#000000;" x="28.207758" xlink:href="#mc81b25e040" y="83.283112"/>
     <use style="stroke:#000000;" x="33.176207" xlink:href="#mc81b25e040" y="81.012944"/>
     <use style="stroke:#000000;" x="33.330161" xlink:href="#mc81b25e040" y="38.285649"/>
     <use style="stroke:#000000;" x="37.990443" xlink:href="#mc81b25e040" y="31.476181"/>
     <use style="stroke:#000000;" x="31.814312" xlink:href="#mc81b25e040" y="78.866946"/>
     <use style="stroke:#000000;" x="30.2003" xlink:href="#mc81b25e040" y="78.003748"/>
     <use style="stroke:#000000;" x="35.052978" xlink:href="#mc81b25e040" y="76.26681"/>
     <use style="stroke:#000000;" x="35.892203" xlink:href="#mc81b25e040" y="66.043207"/>
     <use style="stroke:#000000;" x="30.554663" xlink:href="#mc81b25e040" y="75.63374"/>
     <use style="stroke:#000000;" x="35.640848" xlink:href="#mc81b25e040" y="69.213267"/>
     <use style="stroke:#000000;" x="33.890641" xlink:href="#mc81b25e040" y="63.462126"/>
     <use style="stroke:#000000;" x="32.278471" xlink:href="#mc81b25e040" y="54.981598"/>
     <use style="stroke:#000000;" x="32.659476" xlink:href="#mc81b25e040" y="68.091659"/>
     <use style="stroke:#000000;" x="36.391147" xlink:href="#mc81b25e040" y="64.283425"/>
     <use style="stroke:#000000;" x="34.349439" xlink:href="#mc81b25e040" y="67.483201"/>
     <use style="stroke:#000000;" x="39.840468" xlink:href="#mc81b25e040" y="63.059101"/>
    </g>
   </g>
   <g id="patch_3">
    <path d="M 27 94.5 
L 27 12.96 
" style="fill:none;stroke:#000000;stroke-linecap:square;stroke-linejoin:miter;"/>
   </g>
   <g id="patch_4">
    <path d="M 27 94.5 
L 103.090909 94.5 
" style="fill:none;stroke:#000000;stroke-linecap:square;stroke-linejoin:miter;"/>
   </g>
   <g id="matplotlib.axis_1">
    <g id="xtick_1">
     <g id="line2d_3"/>
     <g id="text_1">
      <text style="font-family:Arial;font-size:8px;font-style:normal;font-weight:normal;text-anchor:middle;" transform="rotate(-0, 27, 103.72625)" x="27" y="103.72625">0</text>
     </g>
    </g>
    <g id="xtick_2">
     <g id="line2d_4"/>
     <g id="text_2">
      <text style="font-family:Arial;font-size:8px;font-style:normal;font-weight:normal;text-anchor:middle;" transform="rotate(-0, 66.432991, 103.72625)" x="66.432991" y="103.72625">5</text>
     </g>
    </g>
    <g id="text_3">
     <text style="font-family:Arial;font-size:10px;font-style:normal;font-weight:normal;text-anchor:middle;" transform="rotate(-0, 65.045455, 116.474063)" x="65.045455" y="116.474063">Exc</text>
    </g>
   </g>
   <g id="matplotlib.axis_2">
    <g id="ytick_1">
     <g id="line2d_5"/>
     <g id="text_4">
      <text style="font-family:Arial;font-size:8px;font-style:normal;font-weight:normal;text-anchor:end;" transform="rotate(-0, 23.5, 97.363125)" x="23.5" y="97.363125">0</text>
     </g>
    </g>
    <g id="ytick_2">
     <g id="line2d_6"/>
     <g id="text_5">
      <text style="font-family:Arial;font-size:8px;font-style:normal;font-weight:normal;text-anchor:end;" transform="rotate(-0, 23.5, 80.460364)" x="23.5" y="80.460364">2</text>
     </g>
    </g>
    <g id="ytick_3">
     <g id="line2d_7"/>
     <g id="text_6">
      <text style="font-family:Arial;font-size:8px;font-style:normal;font-weight:normal;text-anchor:end;" transform="rotate(-0, 23.5, 63.557603)" x="23.5" y="63.557603">4</text>
     </g>
    </g>
    <g id="ytick_4">
     <g id="line2d_8"/>
     <g id="text_7">
      <text style="font-family:Arial;font-size:8px;font-style:normal;font-weight:normal;text-anchor:end;" transform="rotate(-0, 23.5, 46.654842)" x="23.5" y="46.654842">6</text>
     </g>
    </g>
    <g id="ytick_5">
     <g id="line2d_9"/>
     <g id="text_8">
      <text style="font-family:Arial;font-size:8px;font-style:normal;font-weight:normal;text-anchor:end;" transform="rotate(-0, 23.5, 29.752081)" x="23.5" y="29.752081">8</text>
     </g>
    </g>
    <g id="text_9">
     <text style="font-family:Arial;font-size:10px;font-style:normal;font-weight:normal;text-anchor:middle;" transform="rotate(-90, 13.06375, 53.73)" x="13.06375" y="53.73">Inh</text>
    </g>
   </g>
   <g id="legend_1">
    <g id="line2d_10">
     <path d="M 17.169034 31.995156 
L 37.169034 31.995156 
" style="fill:none;stroke:#000000;stroke-dasharray:1.85,0.8;stroke-dashoffset:0;stroke-width:0.5;"/>
    </g>
    <g id="line2d_11"/>
    <g id="text_10">
     <!-- $R^2$ 0.52 -->
     <g transform="translate(45.169034 29.2475)">
      <text>
       <tspan style="font-family:DejaVu Sans;font-size:10px;font-style:oblique;font-weight:oblique;" x="0" y="-0.9765625">R</tspan>
       <tspan style="font-family:DejaVu Sans;font-size:7px;font-style:book;font-weight:book;" x="7.650794" y="-4.8046875">2</tspan>
       <tspan style="font-family:Arial;font-size:10px;font-style:regular;font-weight:regular;" x="12.377845 15.156165 20.717689 23.496009 29.057533" y="-0.9765625"> 0.52</tspan>
      </text>
     </g>
     <text style="font-family:Arial;font-size:10px;font-style:normal;font-weight:normal;" transform="translate(45.169034 39.86)"> slope 2.39</text>
    </g>
   </g>
  </g>
  <g id="axes_2">
   <g id="patch_5">
    <path d="M 118.309091 94.5 
L 194.4 94.5 
L 194.4 12.96 
L 118.309091 12.96 
z
" style="fill:#ffffff;"/>
   </g>
   <g id="PathCollection_1">
    <defs>
     <path d="M 0 2.44949 
C 0.649612 2.44949 1.272706 2.191396 1.732051 1.732051 
C 2.191396 1.272706 2.44949 0.649612 2.44949 0 
C 2.44949 -0.649612 2.191396 -1.272706 1.732051 -1.732051 
C 1.272706 -2.191396 0.649612 -2.44949 0 -2.44949 
C -0.649612 -2.44949 -1.272706 -2.191396 -1.732051 -1.732051 
C -2.191396 -1.272706 -2.44949 -0.649612 -2.44949 0 
C -2.44949 0.649612 -2.191396 1.272706 -1.732051 1.732051 
C -1.272706 2.191396 -0.649612 2.44949 0 2.44949 
z
" id="m0497de7036" style="stroke:#000000;"/>
    </defs>
    <g clip-path="url(#p5fa0b77d45)">
     <use style="stroke:#000000;" x="130.094123" xlink:href="#m0497de7036" y="49.835218"/>
     <use style="stroke:#000000;" x="138.800042" xlink:href="#m0497de7036" y="83.606026"/>
     <use style="stroke:#000000;" x="163.353734" xlink:href="#m0497de7036" y="17.218496"/>
     <use style="stroke:#000000;" x="142.797958" xlink:href="#m0497de7036" y="62.884604"/>
     <use style="stroke:#000000;" x="125.239386" xlink:href="#m0497de7036" y="77.428411"/>
     <use style="stroke:#000000;" x="141.597692" xlink:href="#m0497de7036" y="81.527397"/>
     <use style="stroke:#000000;" x="158.822838" xlink:href="#m0497de7036" y="50.702285"/>
     <use style="stroke:#000000;" x="163.466717" xlink:href="#m0497de7036" y="68.50857"/>
     <use style="stroke:#000000;" x="130.655267" xlink:href="#m0497de7036" y="73.111194"/>
     <use style="stroke:#000000;" x="140.228256" xlink:href="#m0497de7036" y="83.843734"/>
     <use style="stroke:#000000;" x="126.427756" xlink:href="#m0497de7036" y="84.174959"/>
     <use style="stroke:#000000;" x="127.530991" xlink:href="#m0497de7036" y="86.807363"/>
     <use style="stroke:#000000;" x="132.348711" xlink:href="#m0497de7036" y="51.618446"/>
     <use style="stroke:#000000;" x="148.989928" xlink:href="#m0497de7036" y="56.576766"/>
     <use style="stroke:#000000;" x="125.355832" xlink:href="#m0497de7036" y="81.391298"/>
     <use style="stroke:#000000;" x="138.289127" xlink:href="#m0497de7036" y="64.801153"/>
     <use style="stroke:#000000;" x="156.691537" xlink:href="#m0497de7036" y="54.841077"/>
     <use style="stroke:#000000;" x="155.839858" xlink:href="#m0497de7036" y="74.886161"/>
     <use style="stroke:#000000;" x="146.398502" xlink:href="#m0497de7036" y="94.5"/>
     <use style="stroke:#000000;" x="141.643815" xlink:href="#m0497de7036" y="91.940687"/>
     <use style="stroke:#000000;" x="144.545184" xlink:href="#m0497de7036" y="70.026057"/>
     <use style="stroke:#000000;" x="148.983894" xlink:href="#m0497de7036" y="56.336885"/>
     <use style="stroke:#000000;" x="129.758347" xlink:href="#m0497de7036" y="76.596625"/>
     <use style="stroke:#000000;" x="141.887143" xlink:href="#m0497de7036" y="80.222668"/>
     <use style="stroke:#000000;" x="136.819079" xlink:href="#m0497de7036" y="76.677864"/>
     <use style="stroke:#000000;" x="136.135087" xlink:href="#m0497de7036" y="58.952235"/>
     <use style="stroke:#000000;" x="133.25746" xlink:href="#m0497de7036" y="63.301752"/>
     <use style="stroke:#000000;" x="148.240621" xlink:href="#m0497de7036" y="64.551289"/>
     <use style="stroke:#000000;" x="134.182241" xlink:href="#m0497de7036" y="85.581854"/>
     <use style="stroke:#000000;" x="168.072151" xlink:href="#m0497de7036" y="67.012272"/>
    </g>
   </g>
   <g id="line2d_12">
    <path clip-path="url(#p5fa0b77d45)" d="M 118.309091 83.184182 
L 119.077686 82.742856 
L 119.846281 82.30153 
L 120.614876 81.860204 
L 121.383471 81.418877 
L 122.152066 80.977551 
L 122.920661 80.536225 
L 123.689256 80.094899 
L 124.457851 79.653572 
L 125.226446 79.212246 
L 125.995041 78.77092 
L 126.763636 78.329594 
L 127.532231 77.888267 
L 128.300826 77.446941 
L 129.069421 77.005615 
L 129.838017 76.564289 
L 130.606612 76.122962 
L 131.375207 75.681636 
L 132.143802 75.24031 
L 132.912397 74.798984 
L 133.680992 74.357657 
L 134.449587 73.916331 
L 135.218182 73.475005 
L 135.986777 73.033679 
L 136.755372 72.592352 
L 137.523967 72.151026 
L 138.292562 71.7097 
L 139.061157 71.268374 
L 139.829752 70.827047 
L 140.598347 70.385721 
L 141.366942 69.944395 
L 142.135537 69.503069 
L 142.904132 69.061743 
L 143.672727 68.620416 
L 144.441322 68.17909 
L 145.209917 67.737764 
L 145.978512 67.296438 
L 146.747107 66.855111 
L 147.515702 66.413785 
L 148.284298 65.972459 
L 149.052893 65.531133 
L 149.821488 65.089806 
L 150.590083 64.64848 
L 151.358678 64.207154 
L 152.127273 63.765828 
L 152.895868 63.324501 
L 153.664463 62.883175 
L 154.433058 62.441849 
L 155.201653 62.000523 
L 155.970248 61.559196 
L 156.738843 61.11787 
L 157.507438 60.676544 
L 158.276033 60.235218 
L 159.044628 59.793891 
L 159.813223 59.352565 
L 160.581818 58.911239 
L 161.350413 58.469913 
L 162.119008 58.028586 
L 162.887603 57.58726 
L 163.656198 57.145934 
L 164.424793 56.704608 
L 165.193388 56.263281 
L 165.961983 55.821955 
L 166.730579 55.380629 
L 167.499174 54.939303 
L 168.267769 54.497976 
L 169.036364 54.05665 
L 169.804959 53.615324 
L 170.573554 53.173998 
L 171.342149 52.732671 
L 172.110744 52.291345 
L 172.879339 51.850019 
L 173.647934 51.408693 
L 174.416529 50.967366 
L 175.185124 50.52604 
L 175.953719 50.084714 
L 176.722314 49.643388 
L 177.490909 49.202061 
L 178.259504 48.760735 
L 179.028099 48.319409 
L 179.796694 47.878083 
L 180.565289 47.436756 
L 181.333884 46.99543 
L 182.102479 46.554104 
L 182.871074 46.112778 
L 183.639669 45.671452 
L 184.408264 45.230125 
L 185.17686 44.788799 
L 185.945455 44.347473 
L 186.71405 43.906147 
L 187.482645 43.46482 
L 188.25124 43.023494 
L 189.019835 42.582168 
L 189.78843 42.140842 
L 190.557025 41.699515 
L 191.32562 41.258189 
L 192.094215 40.816863 
L 192.86281 40.375537 
L 193.631405 39.93421 
L 194.4 39.492884 
" style="fill:none;stroke:#000000;stroke-dasharray:1.85,0.8;stroke-dashoffset:0;stroke-width:0.5;"/>
   </g>
   <g id="patch_6">
    <path d="M 118.309091 94.5 
L 118.309091 12.96 
" style="fill:none;stroke:#000000;stroke-linecap:square;stroke-linejoin:miter;"/>
   </g>
   <g id="patch_7">
    <path d="M 118.309091 94.5 
L 194.4 94.5 
" style="fill:none;stroke:#000000;stroke-linecap:square;stroke-linejoin:miter;"/>
   </g>
   <g id="matplotlib.axis_3">
    <g id="xtick_3">
     <g id="line2d_13"/>
     <g id="text_11">
      <text style="font-family:Arial;font-size:8px;font-style:normal;font-weight:normal;text-anchor:middle;" transform="rotate(-0, 118.309091, 103.72625)" x="118.309091" y="103.72625">0</text>
     </g>
    </g>
    <g id="xtick_4">
     <g id="line2d_14"/>
     <g id="text_12">
      <text style="font-family:Arial;font-size:8px;font-style:normal;font-weight:normal;text-anchor:middle;" transform="rotate(-0, 148.011556, 103.72625)" x="148.011556" y="103.72625">1</text>
     </g>
    </g>
    <g id="xtick_5">
     <g id="line2d_15"/>
     <g id="text_13">
      <text style="font-family:Arial;font-size:8px;font-style:normal;font-weight:normal;text-anchor:middle;" transform="rotate(-0, 177.71402, 103.72625)" x="177.71402" y="103.72625">2</text>
     </g>
    </g>
    <g id="text_14">
     <!-- $\sigma$(Exc) -->
     <g transform="translate(141.504545 116.61625)">
      <text>
       <tspan style="font-family:DejaVu Sans;font-size:10px;font-style:oblique;font-weight:oblique;" x="0" y="-0.71875">σ</tspan>
       <tspan style="font-family:Arial;font-size:10px;font-style:regular;font-weight:regular;" x="6.337891 9.667969 16.337891 21.337891 26.337891" y="-0.71875">(Exc)</tspan>
      </text>
     </g>
    </g>
   </g>
   <g id="matplotlib.axis_4">
    <g id="ytick_6">
     <g id="line2d_16"/>
     <g id="text_15">
      <text style="font-family:Arial;font-size:8px;font-style:normal;font-weight:normal;text-anchor:end;" transform="rotate(-0, 114.809091, 97.363125)" x="114.809091" y="97.363125">0</text>
     </g>
    </g>
    <g id="ytick_7">
     <g id="line2d_17"/>
     <g id="text_16">
      <text style="font-family:Arial;font-size:8px;font-style:normal;font-weight:normal;text-anchor:end;" transform="rotate(-0, 114.809091, 65.533581)" x="114.809091" y="65.533581">1</text>
     </g>
    </g>
    <g id="ytick_8">
     <g id="line2d_18"/>
     <g id="text_17">
      <text style="font-family:Arial;font-size:8px;font-style:normal;font-weight:normal;text-anchor:end;" transform="rotate(-0, 114.809091, 33.704036)" x="114.809091" y="33.704036">2</text>
     </g>
    </g>
    <g id="text_18">
     <!-- $\sigma$(Inh) -->
     <g transform="translate(104.160341 67.18)rotate(-90)">
      <text>
       <tspan style="font-family:DejaVu Sans;font-size:10px;font-style:oblique;font-weight:oblique;" x="0" y="-0.71875">σ</tspan>
       <tspan style="font-family:Arial;font-size:10px;font-style:regular;font-weight:regular;" x="6.337891 9.667969 12.446289 18.007812 23.569336" y="-0.71875">(Inh)</tspan>
      </text>
     </g>
    </g>
   </g>
   <g id="legend_2">
    <g id="line2d_19">
     <path d="M 108.478125 31.995156 
L 128.478125 31.995156 
" style="fill:none;stroke:#000000;stroke-dasharray:1.85,0.8;stroke-dashoffset:0;stroke-width:0.5;"/>
    </g>
    <g id="line2d_20"/>
    <g id="text_19">
     <!-- $R^2$ 0.18 -->
     <g transform="translate(136.478125 29.2475)">
      <text>
       <tspan style="font-family:DejaVu Sans;font-size:10px;font-style:oblique;font-weight:oblique;" x="0" y="-0.9765625">R</tspan>
       <tspan style="font-family:DejaVu Sans;font-size:7px;font-style:book;font-weight:book;" x="7.650794" y="-4.8046875">2</tspan>
       <tspan style="font-family:Arial;font-size:10px;font-style:regular;font-weight:regular;" x="12.377845 15.156165 20.717689 23.496009 29.057533" y="-0.9765625"> 0.18</tspan>
      </text>
     </g>
     <text style="font-family:Arial;font-size:10px;font-style:normal;font-weight:normal;" transform="translate(136.478125 39.86)"> slope 0.54</text>
    </g>
   </g>
  </g>
 </g>
 <defs>
  <clipPath id="pa403cceb19">
   <rect height="81.54" width="76.090909" x="27" y="12.96"/>
  </clipPath>
  <clipPath id="p5fa0b77d45">
   <rect height="81.54" width="76.090909" x="118.309091" y="12.96"/>
  </clipPath>
 </defs>
</svg>
