<?xml version="1.0" encoding="utf-8" standalone="no"?>
<!DOCTYPE svg PUBLIC "-//W3C//DTD SVG 1.1//EN"
  "http://www.w3.org/Graphics/SVG/1.1/DTD/svg11.dtd">
<!-- Created with matplotlib (http://matplotlib.org/) -->
<svg height="108pt" version="1.1" viewBox="0 0 216 108" width="216pt" xmlns="http://www.w3.org/2000/svg" xmlns:xlink="http://www.w3.org/1999/xlink">
 <defs>
  <style type="text/css">
*{stroke-linecap:butt;stroke-linejoin:round;}
  </style>
 </defs>
 <g id="figure_1">
  <g id="patch_1">
   <path d="M 0 108 
L 216 108 
L 216 0 
L 0 0 
z
" style="fill:#ffffff;"/>
  </g>
  <g id="axes_1">
   <g id="patch_2">
    <path d="M 27 94.5 
L 103.090909 94.5 
L 103.090909 12.96 
L 27 12.96 
z
" style="fill:#ffffff;"/>
   </g>
   <g id="LineCollection_1">
    <path clip-path="url(#p10169412c3)" d="M 27.763969 66.543988 
L 33.240101 66.543988 
" style="fill:none;stroke:#000000;stroke-width:0.5;"/>
    <path clip-path="url(#p10169412c3)" d="M 26.431732 68.848033 
L 35.474179 68.848033 
" style="fill:none;stroke:#000000;stroke-width:0.5;"/>
    <path clip-path="url(#p10169412c3)" d="M 26.666477 74.735561 
L 39.623846 74.735561 
" style="fill:none;stroke:#000000;stroke-width:0.5;"/>
    <path clip-path="url(#p10169412c3)" d="M 25.825834 61.947592 
L 39.216157 61.947592 
" style="fill:none;stroke:#000000;stroke-width:0.5;"/>
    <path clip-path="url(#p10169412c3)" d="M 25.683713 69.777358 
L 36.622942 69.777358 
" style="fill:none;stroke:#000000;stroke-width:0.5;"/>
    <path clip-path="url(#p10169412c3)" d="M 27.984275 53.387567 
L 41.42704 53.387567 
" style="fill:none;stroke:#000000;stroke-width:0.5;"/>
    <path clip-path="url(#p10169412c3)" d="M 31.006638 63.948263 
L 42.924365 63.948263 
" style="fill:none;stroke:#000000;stroke-width:0.5;"/>
    <path clip-path="url(#p10169412c3)" d="M 41.332972 24.667593 
L 46.112038 24.667593 
" style="fill:none;stroke:#000000;stroke-width:0.5;"/>
    <path clip-path="url(#p10169412c3)" d="M 26.210859 92.406547 
L 30.662961 92.406547 
" style="fill:none;stroke:#000000;stroke-width:0.5;"/>
    <path clip-path="url(#p10169412c3)" d="M 25.943471 92.315483 
L 29.514323 92.315483 
" style="fill:none;stroke:#000000;stroke-width:0.5;"/>
    <path clip-path="url(#p10169412c3)" d="M 29.575919 76.046116 
L 38.444331 76.046116 
" style="fill:none;stroke:#000000;stroke-width:0.5;"/>
    <path clip-path="url(#p10169412c3)" d="M 25.354816 58.599609 
L 44.53854 58.599609 
" style="fill:none;stroke:#000000;stroke-width:0.5;"/>
    <path clip-path="url(#p10169412c3)" d="M 30.176523 36.612219 
L 51.62689 36.612219 
" style="fill:none;stroke:#000000;stroke-width:0.5;"/>
    <path clip-path="url(#p10169412c3)" d="M 31.026947 52.403644 
L 44.464732 52.403644 
" style="fill:none;stroke:#000000;stroke-width:0.5;"/>
    <path clip-path="url(#p10169412c3)" d="M 25.631179 81.405716 
L 32.215609 81.405716 
" style="fill:none;stroke:#000000;stroke-width:0.5;"/>
    <path clip-path="url(#p10169412c3)" d="M 27.402238 63.704186 
L 42.378176 63.704186 
" style="fill:none;stroke:#000000;stroke-width:0.5;"/>
    <path clip-path="url(#p10169412c3)" d="M 27.735736 85.702689 
L 33.140842 85.702689 
" style="fill:none;stroke:#000000;stroke-width:0.5;"/>
    <path clip-path="url(#p10169412c3)" d="M 25.517622 78.89815 
L 43.384318 78.89815 
" style="fill:none;stroke:#000000;stroke-width:0.5;"/>
    <path clip-path="url(#p10169412c3)" d="M 27.19285 63.962546 
L 35.68998 63.962546 
" style="fill:none;stroke:#000000;stroke-width:0.5;"/>
    <path clip-path="url(#p10169412c3)" d="M 27.206748 71.51124 
L 32.344562 71.51124 
" style="fill:none;stroke:#000000;stroke-width:0.5;"/>
    <path clip-path="url(#p10169412c3)" d="M 28.550801 66.068368 
L 36.389064 66.068368 
" style="fill:none;stroke:#000000;stroke-width:0.5;"/>
    <path clip-path="url(#p10169412c3)" d="M 23.993735 61.672339 
L 38.843517 61.672339 
" style="fill:none;stroke:#000000;stroke-width:0.5;"/>
    <path clip-path="url(#p10169412c3)" d="M 31.213106 34.375846 
L 68.576718 34.375846 
" style="fill:none;stroke:#000000;stroke-width:0.5;"/>
    <path clip-path="url(#p10169412c3)" d="M 28.802625 74.203678 
L 35.414019 74.203678 
" style="fill:none;stroke:#000000;stroke-width:0.5;"/>
    <path clip-path="url(#p10169412c3)" d="M 25.550087 89.201426 
L 30.450497 89.201426 
" style="fill:none;stroke:#000000;stroke-width:0.5;"/>
    <path clip-path="url(#p10169412c3)" d="M 30.593576 59.085304 
L 49.414326 59.085304 
" style="fill:none;stroke:#000000;stroke-width:0.5;"/>
    <path clip-path="url(#p10169412c3)" d="M 25.45616 59.574134 
L 43.501049 59.574134 
" style="fill:none;stroke:#000000;stroke-width:0.5;"/>
    <path clip-path="url(#p10169412c3)" d="M 24.187652 71.791515 
L 38.778164 71.791515 
" style="fill:none;stroke:#000000;stroke-width:0.5;"/>
    <path clip-path="url(#p10169412c3)" d="M 25.62107 79.466432 
L 35.07982 79.466432 
" style="fill:none;stroke:#000000;stroke-width:0.5;"/>
    <path clip-path="url(#p10169412c3)" d="M 26.896215 53.898294 
L 46.685757 53.898294 
" style="fill:none;stroke:#000000;stroke-width:0.5;"/>
   </g>
   <g id="LineCollection_2">
    <path clip-path="url(#p10169412c3)" d="M 30.502035 71.364129 
L 30.502035 61.723847 
" style="fill:none;stroke:#000000;stroke-width:0.5;"/>
    <path clip-path="url(#p10169412c3)" d="M 30.952956 71.785587 
L 30.952956 65.91048 
" style="fill:none;stroke:#000000;stroke-width:0.5;"/>
    <path clip-path="url(#p10169412c3)" d="M 33.145161 79.721334 
L 33.145161 69.749787 
" style="fill:none;stroke:#000000;stroke-width:0.5;"/>
    <path clip-path="url(#p10169412c3)" d="M 32.520995 71.287481 
L 32.520995 52.607702 
" style="fill:none;stroke:#000000;stroke-width:0.5;"/>
    <path clip-path="url(#p10169412c3)" d="M 31.153327 72.461652 
L 31.153327 67.093065 
" style="fill:none;stroke:#000000;stroke-width:0.5;"/>
    <path clip-path="url(#p10169412c3)" d="M 34.705657 59.973369 
L 34.705657 46.801765 
" style="fill:none;stroke:#000000;stroke-width:0.5;"/>
    <path clip-path="url(#p10169412c3)" d="M 36.965502 71.310779 
L 36.965502 56.585747 
" style="fill:none;stroke:#000000;stroke-width:0.5;"/>
    <path clip-path="url(#p10169412c3)" d="M 43.722505 32.482401 
L 43.722505 16.852786 
" style="fill:none;stroke:#000000;stroke-width:0.5;"/>
    <path clip-path="url(#p10169412c3)" d="M 28.43691 94.69981 
L 28.43691 90.113285 
" style="fill:none;stroke:#000000;stroke-width:0.5;"/>
    <path clip-path="url(#p10169412c3)" d="M 27.728897 94.708501 
L 27.728897 89.922465 
" style="fill:none;stroke:#000000;stroke-width:0.5;"/>
    <path clip-path="url(#p10169412c3)" d="M 34.010125 79.610945 
L 34.010125 72.481287 
" style="fill:none;stroke:#000000;stroke-width:0.5;"/>
    <path clip-path="url(#p10169412c3)" d="M 34.946678 69.086935 
L 34.946678 48.112282 
" style="fill:none;stroke:#000000;stroke-width:0.5;"/>
    <path clip-path="url(#p10169412c3)" d="M 40.901706 44.056757 
L 40.901706 29.167682 
" style="fill:none;stroke:#000000;stroke-width:0.5;"/>
    <path clip-path="url(#p10169412c3)" d="M 37.74584 55.216306 
L 37.74584 49.590983 
" style="fill:none;stroke:#000000;stroke-width:0.5;"/>
    <path clip-path="url(#p10169412c3)" d="M 28.923394 85.927955 
L 28.923394 76.883477 
" style="fill:none;stroke:#000000;stroke-width:0.5;"/>
    <path clip-path="url(#p10169412c3)" d="M 34.890207 72.612124 
L 34.890207 54.796249 
" style="fill:none;stroke:#000000;stroke-width:0.5;"/>
    <path clip-path="url(#p10169412c3)" d="M 30.438289 88.752807 
L 30.438289 82.652571 
" style="fill:none;stroke:#000000;stroke-width:0.5;"/>
    <path clip-path="url(#p10169412c3)" d="M 34.45097 88.459933 
L 34.45097 69.336368 
" style="fill:none;stroke:#000000;stroke-width:0.5;"/>
    <path clip-path="url(#p10169412c3)" d="M 31.441415 69.606933 
L 31.441415 58.318158 
" style="fill:none;stroke:#000000;stroke-width:0.5;"/>
    <path clip-path="url(#p10169412c3)" d="M 29.775655 74.840718 
L 29.775655 68.181761 
" style="fill:none;stroke:#000000;stroke-width:0.5;"/>
    <path clip-path="url(#p10169412c3)" d="M 32.469933 70.753159 
L 32.469933 61.383578 
" style="fill:none;stroke:#000000;stroke-width:0.5;"/>
    <path clip-path="url(#p10169412c3)" d="M 31.418626 65.079593 
L 31.418626 58.265085 
" style="fill:none;stroke:#000000;stroke-width:0.5;"/>
    <path clip-path="url(#p10169412c3)" d="M 49.894912 47.536264 
L 49.894912 21.215428 
" style="fill:none;stroke:#000000;stroke-width:0.5;"/>
    <path clip-path="url(#p10169412c3)" d="M 32.108322 79.954766 
L 32.108322 68.452589 
" style="fill:none;stroke:#000000;stroke-width:0.5;"/>
    <path clip-path="url(#p10169412c3)" d="M 28.000292 91.797187 
L 28.000292 86.605666 
" style="fill:none;stroke:#000000;stroke-width:0.5;"/>
    <path clip-path="url(#p10169412c3)" d="M 40.003951 65.499564 
L 40.003951 52.671044 
" style="fill:none;stroke:#000000;stroke-width:0.5;"/>
    <path clip-path="url(#p10169412c3)" d="M 34.478605 64.757405 
L 34.478605 54.390864 
" style="fill:none;stroke:#000000;stroke-width:0.5;"/>
    <path clip-path="url(#p10169412c3)" d="M 31.482908 78.510999 
L 31.482908 65.072031 
" style="fill:none;stroke:#000000;stroke-width:0.5;"/>
    <path clip-path="url(#p10169412c3)" d="M 30.350445 84.168558 
L 30.350445 74.764305 
" style="fill:none;stroke:#000000;stroke-width:0.5;"/>
    <path clip-path="url(#p10169412c3)" d="M 36.790986 68.051549 
L 36.790986 39.74504 
" style="fill:none;stroke:#000000;stroke-width:0.5;"/>
   </g>
   <g id="line2d_1">
    <path clip-path="url(#p10169412c3)" d="M 27 85.402798 
L 27.768595 83.238988 
L 28.53719 81.075179 
L 29.305785 78.91137 
L 30.07438 76.747561 
L 30.842975 74.583751 
L 31.61157 72.419942 
L 32.380165 70.256133 
L 33.14876 68.092323 
L 33.917355 65.928514 
L 34.68595 63.764705 
L 35.454545 61.600896 
L 36.22314 59.437086 
L 36.991736 57.273277 
L 37.760331 55.109468 
L 38.528926 52.945659 
L 39.297521 50.781849 
L 40.066116 48.61804 
L 40.834711 46.454231 
L 41.603306 44.290421 
L 42.371901 42.126612 
L 43.140496 39.962803 
L 43.909091 37.798994 
L 44.677686 35.635184 
L 45.446281 33.471375 
L 46.214876 31.307566 
L 46.983471 29.143757 
L 47.752066 26.979947 
L 48.520661 24.816138 
L 49.289256 22.652329 
L 50.057851 20.488519 
L 50.826446 18.32471 
L 51.595041 16.160901 
L 52.363636 13.997092 
L 53.132231 11.833282 
L 53.900826 9.669473 
L 54.669421 7.505664 
L 55.438017 5.341855 
L 56.206612 3.178045 
L 56.975207 1.014236 
L 57.690673 -1 
" style="fill:none;stroke:#000000;stroke-dasharray:1.85,0.8;stroke-dashoffset:0;stroke-width:0.5;"/>
   </g>
   <g id="line2d_2">
    <defs>
     <path d="M 0 3 
C 0.795609 3 1.55874 2.683901 2.12132 2.12132 
C 2.683901 1.55874 3 0.795609 3 0 
C 3 -0.795609 2.683901 -1.55874 2.12132 -2.12132 
C 1.55874 -2.683901 0.795609 -3 0 -3 
C -0.795609 -3 -1.55874 -2.683901 -2.12132 -2.12132 
C -2.683901 -1.55874 -3 -0.795609 -3 0 
C -3 0.795609 -2.683901 1.55874 -2.12132 2.12132 
C -1.55874 2.683901 -0.795609 3 0 3 
z
" id="m9ad6bbe788" style="stroke:#000000;"/>
    </defs>
    <g clip-path="url(#p10169412c3)">
     <use style="stroke:#000000;" x="30.502035" xlink:href="#m9ad6bbe788" y="66.543988"/>
     <use style="stroke:#000000;" x="30.952956" xlink:href="#m9ad6bbe788" y="68.848033"/>
     <use style="stroke:#000000;" x="33.145161" xlink:href="#m9ad6bbe788" y="74.735561"/>
     <use style="stroke:#000000;" x="32.520995" xlink:href="#m9ad6bbe788" y="61.947592"/>
     <use style="stroke:#000000;" x="31.153327" xlink:href="#m9ad6bbe788" y="69.777358"/>
     <use style="stroke:#000000;" x="34.705657" xlink:href="#m9ad6bbe788" y="53.387567"/>
     <use style="stroke:#000000;" x="36.965502" xlink:href="#m9ad6bbe788" y="63.948263"/>
     <use style="stroke:#000000;" x="43.722505" xlink:href="#m9ad6bbe788" y="24.667593"/>
     <use style="stroke:#000000;" x="28.43691" xlink:href="#m9ad6bbe788" y="92.406547"/>
     <use style="stroke:#000000;" x="27.728897" xlink:href="#m9ad6bbe788" y="92.315483"/>
     <use style="stroke:#000000;" x="34.010125" xlink:href="#m9ad6bbe788" y="76.046116"/>
     <use style="stroke:#000000;" x="34.946678" xlink:href="#m9ad6bbe788" y="58.599609"/>
     <use style="stroke:#000000;" x="40.901706" xlink:href="#m9ad6bbe788" y="36.612219"/>
     <use style="stroke:#000000;" x="37.74584" xlink:href="#m9ad6bbe788" y="52.403644"/>
     <use style="stroke:#000000;" x="28.923394" xlink:href="#m9ad6bbe788" y="81.405716"/>
     <use style="stroke:#000000;" x="34.890207" xlink:href="#m9ad6bbe788" y="63.704186"/>
     <use style="stroke:#000000;" x="30.438289" xlink:href="#m9ad6bbe788" y="85.702689"/>
     <use style="stroke:#000000;" x="34.45097" xlink:href="#m9ad6bbe788" y="78.89815"/>
     <use style="stroke:#000000;" x="31.441415" xlink:href="#m9ad6bbe788" y="63.962546"/>
     <use style="stroke:#000000;" x="29.775655" xlink:href="#m9ad6bbe788" y="71.51124"/>
     <use style="stroke:#000000;" x="32.469933" xlink:href="#m9ad6bbe788" y="66.068368"/>
     <use style="stroke:#000000;" x="31.418626" xlink:href="#m9ad6bbe788" y="61.672339"/>
     <use style="stroke:#000000;" x="49.894912" xlink:href="#m9ad6bbe788" y="34.375846"/>
     <use style="stroke:#000000;" x="32.108322" xlink:href="#m9ad6bbe788" y="74.203678"/>
     <use style="stroke:#000000;" x="28.000292" xlink:href="#m9ad6bbe788" y="89.201426"/>
     <use style="stroke:#000000;" x="40.003951" xlink:href="#m9ad6bbe788" y="59.085304"/>
     <use style="stroke:#000000;" x="34.478605" xlink:href="#m9ad6bbe788" y="59.574134"/>
     <use style="stroke:#000000;" x="31.482908" xlink:href="#m9ad6bbe788" y="71.791515"/>
     <use style="stroke:#000000;" x="30.350445" xlink:href="#m9ad6bbe788" y="79.466432"/>
     <use style="stroke:#000000;" x="36.790986" xlink:href="#m9ad6bbe788" y="53.898294"/>
    </g>
   </g>
   <g id="patch_3">
    <path d="M 27 94.5 
L 27 12.96 
" style="fill:none;stroke:#000000;stroke-linecap:square;stroke-linejoin:miter;"/>
   </g>
   <g id="patch_4">
    <path d="M 27 94.5 
L 103.090909 94.5 
" style="fill:none;stroke:#000000;stroke-linecap:square;stroke-linejoin:miter;"/>
   </g>
   <g id="matplotlib.axis_1">
    <g id="xtick_1">
     <g id="line2d_3"/>
     <g id="text_1">
      <text style="font-family:Arial;font-size:8px;font-style:normal;font-weight:normal;text-anchor:middle;" transform="rotate(-0, 27, 103.72625)" x="27" y="103.72625">0</text>
     </g>
    </g>
    <g id="xtick_2">
     <g id="line2d_4"/>
     <g id="text_2">
      <text style="font-family:Arial;font-size:8px;font-style:normal;font-weight:normal;text-anchor:middle;" transform="rotate(-0, 69.846403, 103.72625)" x="69.846403" y="103.72625">5</text>
     </g>
    </g>
    <g id="text_3">
     <text style="font-family:Arial;font-size:10px;font-style:normal;font-weight:normal;text-anchor:middle;" transform="rotate(-0, 65.045455, 116.474063)" x="65.045455" y="116.474063">Exc</text>
    </g>
   </g>
   <g id="matplotlib.axis_2">
    <g id="ytick_1">
     <g id="line2d_5"/>
     <g id="text_4">
      <text style="font-family:Arial;font-size:8px;font-style:normal;font-weight:normal;text-anchor:end;" transform="rotate(-0, 23.5, 97.363125)" x="23.5" y="97.363125">0</text>
     </g>
    </g>
    <g id="ytick_2">
     <g id="line2d_6"/>
     <g id="text_5">
      <text style="font-family:Arial;font-size:8px;font-style:normal;font-weight:normal;text-anchor:end;" transform="rotate(-0, 23.5, 78.997222)" x="23.5" y="78.997222">2</text>
     </g>
    </g>
    <g id="ytick_3">
     <g id="line2d_7"/>
     <g id="text_6">
      <text style="font-family:Arial;font-size:8px;font-style:normal;font-weight:normal;text-anchor:end;" transform="rotate(-0, 23.5, 60.631319)" x="23.5" y="60.631319">4</text>
     </g>
    </g>
    <g id="ytick_4">
     <g id="line2d_8"/>
     <g id="text_7">
      <text style="font-family:Arial;font-size:8px;font-style:normal;font-weight:normal;text-anchor:end;" transform="rotate(-0, 23.5, 42.265415)" x="23.5" y="42.265415">6</text>
     </g>
    </g>
    <g id="ytick_5">
     <g id="line2d_9"/>
     <g id="text_8">
      <text style="font-family:Arial;font-size:8px;font-style:normal;font-weight:normal;text-anchor:end;" transform="rotate(-0, 23.5, 23.899512)" x="23.5" y="23.899512">8</text>
     </g>
    </g>
    <g id="text_9">
     <text style="font-family:Arial;font-size:10px;font-style:normal;font-weight:normal;text-anchor:middle;" transform="rotate(-90, 13.06375, 53.73)" x="13.06375" y="53.73">Inh</text>
    </g>
   </g>
   <g id="legend_1">
    <g id="line2d_10">
     <path d="M 36 75.622656 
L 56 75.622656 
" style="fill:none;stroke:#000000;stroke-dasharray:1.85,0.8;stroke-dashoffset:0;stroke-width:0.5;"/>
    </g>
    <g id="line2d_11"/>
    <g id="text_10">
     <!-- $R^2$ 0.74 -->
     <g transform="translate(64 72.875)">
      <text>
       <tspan style="font-family:DejaVu Sans;font-size:10px;font-style:oblique;font-weight:oblique;" x="0" y="-0.9765625">R</tspan>
       <tspan style="font-family:DejaVu Sans;font-size:7px;font-style:book;font-weight:book;" x="7.650794" y="-4.8046875">2</tspan>
       <tspan style="font-family:Arial;font-size:10px;font-style:regular;font-weight:regular;" x="12.377845 15.156165 20.717689 23.496009 29.057533" y="-0.9765625"> 0.74</tspan>
      </text>
     </g>
     <text style="font-family:Arial;font-size:10px;font-style:normal;font-weight:normal;" transform="translate(64 83.4875)"> slope 2.63</text>
    </g>
   </g>
  </g>
  <g id="axes_2">
   <g id="patch_5">
    <path d="M 118.309091 94.5 
L 194.4 94.5 
L 194.4 12.96 
L 118.309091 12.96 
z
" style="fill:#ffffff;"/>
   </g>
   <g id="PathCollection_1">
    <defs>
     <path d="M 0 2.44949 
C 0.649612 2.44949 1.272706 2.191396 1.732051 1.732051 
C 2.191396 1.272706 2.44949 0.649612 2.44949 0 
C 2.44949 -0.649612 2.191396 -1.272706 1.732051 -1.732051 
C 1.272706 -2.191396 0.649612 -2.44949 0 -2.44949 
C -0.649612 -2.44949 -1.272706 -2.191396 -1.732051 -1.732051 
C -2.191396 -1.272706 -2.44949 -0.649612 -2.44949 0 
C -2.44949 0.649612 -2.191396 1.272706 -1.732051 1.732051 
C -1.272706 2.191396 -0.649612 2.44949 0 2.44949 
z
" id="m7d6b4e345c" style="stroke:#000000;"/>
    </defs>
    <g clip-path="url(#p5a6256aada)">
     <use style="stroke:#000000;" x="128.896459" xlink:href="#m7d6b4e345c" y="75.861804"/>
     <use style="stroke:#000000;" x="135.791454" xlink:href="#m7d6b4e345c" y="83.141266"/>
     <use style="stroke:#000000;" x="143.360433" xlink:href="#m7d6b4e345c" y="75.221348"/>
     <use style="stroke:#000000;" x="144.197489" xlink:href="#m7d6b4e345c" y="58.385145"/>
     <use style="stroke:#000000;" x="139.458628" xlink:href="#m7d6b4e345c" y="84.120555"/>
     <use style="stroke:#000000;" x="144.29888" xlink:href="#m7d6b4e345c" y="69.034464"/>
     <use style="stroke:#000000;" x="141.350423" xlink:href="#m7d6b4e345c" y="66.031119"/>
     <use style="stroke:#000000;" x="127.548775" xlink:href="#m7d6b4e345c" y="64.282228"/>
     <use style="stroke:#000000;" x="126.916637" xlink:href="#m7d6b4e345c" y="85.632567"/>
     <use style="stroke:#000000;" x="125.212856" xlink:href="#m7d6b4e345c" y="85.246839"/>
     <use style="stroke:#000000;" x="135.454979" xlink:href="#m7d6b4e345c" y="80.715758"/>
     <use style="stroke:#000000;" x="155.398257" xlink:href="#m7d6b4e345c" y="53.948312"/>
     <use style="stroke:#000000;" x="159.780507" xlink:href="#m7d6b4e345c" y="65.713962"/>
     <use style="stroke:#000000;" x="144.289252" xlink:href="#m7d6b4e345c" y="83.624191"/>
     <use style="stroke:#000000;" x="131.039207" xlink:href="#m7d6b4e345c" y="77.01371"/>
     <use style="stroke:#000000;" x="147.263065" xlink:href="#m7d6b4e345c" y="60.055387"/>
     <use style="stroke:#000000;" x="128.75914" xlink:href="#m7d6b4e345c" y="82.706009"/>
     <use style="stroke:#000000;" x="152.851959" xlink:href="#m7d6b4e345c" y="57.527144"/>
     <use style="stroke:#000000;" x="134.737155" xlink:href="#m7d6b4e345c" y="72.674663"/>
     <use style="stroke:#000000;" x="128.242367" xlink:href="#m7d6b4e345c" y="81.625797"/>
     <use style="stroke:#000000;" x="133.463324" xlink:href="#m7d6b4e345c" y="76.385169"/>
     <use style="stroke:#000000;" x="147.019159" xlink:href="#m7d6b4e345c" y="81.32506"/>
     <use style="stroke:#000000;" x="190.546641" xlink:href="#m7d6b4e345c" y="43.612181"/>
     <use style="stroke:#000000;" x="131.091337" xlink:href="#m7d6b4e345c" y="72.262078"/>
     <use style="stroke:#000000;" x="127.783377" xlink:href="#m7d6b4e345c" y="84.462888"/>
     <use style="stroke:#000000;" x="154.696494" xlink:href="#m7d6b4e345c" y="69.69777"/>
     <use style="stroke:#000000;" x="153.196472" xlink:href="#m7d6b4e345c" y="74.457678"/>
     <use style="stroke:#000000;" x="146.517897" xlink:href="#m7d6b4e345c" y="68.517552"/>
     <use style="stroke:#000000;" x="136.596321" xlink:href="#m7d6b4e345c" y="76.318135"/>
     <use style="stroke:#000000;" x="156.569525" xlink:href="#m7d6b4e345c" y="39.773149"/>
    </g>
   </g>
   <g id="line2d_12">
    <path clip-path="url(#p5a6256aada)" d="M 118.309091 86.549264 
L 119.077686 86.060481 
L 119.846281 85.571698 
L 120.614876 85.082914 
L 121.383471 84.594131 
L 122.152066 84.105348 
L 122.920661 83.616564 
L 123.689256 83.127781 
L 124.457851 82.638998 
L 125.226446 82.150215 
L 125.995041 81.661431 
L 126.763636 81.172648 
L 127.532231 80.683865 
L 128.300826 80.195081 
L 129.069421 79.706298 
L 129.838017 79.217515 
L 130.606612 78.728731 
L 131.375207 78.239948 
L 132.143802 77.751165 
L 132.912397 77.262381 
L 133.680992 76.773598 
L 134.449587 76.284815 
L 135.218182 75.796031 
L 135.986777 75.307248 
L 136.755372 74.818465 
L 137.523967 74.329681 
L 138.292562 73.840898 
L 139.061157 73.352115 
L 139.829752 72.863332 
L 140.598347 72.374548 
L 141.366942 71.885765 
L 142.135537 71.396982 
L 142.904132 70.908198 
L 143.672727 70.419415 
L 144.441322 69.930632 
L 145.209917 69.441848 
L 145.978512 68.953065 
L 146.747107 68.464282 
L 147.515702 67.975498 
L 148.284298 67.486715 
L 149.052893 66.997932 
L 149.821488 66.509148 
L 150.590083 66.020365 
L 151.358678 65.531582 
L 152.127273 65.042798 
L 152.895868 64.554015 
L 153.664463 64.065232 
L 154.433058 63.576448 
L 155.201653 63.087665 
L 155.970248 62.598882 
L 156.738843 62.110099 
L 157.507438 61.621315 
L 158.276033 61.132532 
L 159.044628 60.643749 
L 159.813223 60.154965 
L 160.581818 59.666182 
L 161.350413 59.177399 
L 162.119008 58.688615 
L 162.887603 58.199832 
L 163.656198 57.711049 
L 164.424793 57.222265 
L 165.193388 56.733482 
L 165.961983 56.244699 
L 166.730579 55.755915 
L 167.499174 55.267132 
L 168.267769 54.778349 
L 169.036364 54.289565 
L 169.804959 53.800782 
L 170.573554 53.311999 
L 171.342149 52.823216 
L 172.110744 52.334432 
L 172.879339 51.845649 
L 173.647934 51.356866 
L 174.416529 50.868082 
L 175.185124 50.379299 
L 175.953719 49.890516 
L 176.722314 49.401732 
L 177.490909 48.912949 
L 178.259504 48.424166 
L 179.028099 47.935382 
L 179.796694 47.446599 
L 180.565289 46.957816 
L 181.333884 46.469032 
L 182.102479 45.980249 
L 182.871074 45.491466 
L 183.639669 45.002682 
L 184.408264 44.513899 
L 185.17686 44.025116 
L 185.945455 43.536332 
L 186.71405 43.047549 
L 187.482645 42.558766 
L 188.25124 42.069983 
L 189.019835 41.581199 
L 189.78843 41.092416 
L 190.557025 40.603633 
L 191.32562 40.114849 
L 192.094215 39.626066 
L 192.86281 39.137283 
L 193.631405 38.648499 
L 194.4 38.159716 
" style="fill:none;stroke:#000000;stroke-dasharray:1.85,0.8;stroke-dashoffset:0;stroke-width:0.5;"/>
   </g>
   <g id="patch_6">
    <path d="M 118.309091 94.5 
L 118.309091 12.96 
" style="fill:none;stroke:#000000;stroke-linecap:square;stroke-linejoin:miter;"/>
   </g>
   <g id="patch_7">
    <path d="M 118.309091 94.5 
L 194.4 94.5 
" style="fill:none;stroke:#000000;stroke-linecap:square;stroke-linejoin:miter;"/>
   </g>
   <g id="matplotlib.axis_3">
    <g id="xtick_3">
     <g id="line2d_13"/>
     <g id="text_11">
      <text style="font-family:Arial;font-size:8px;font-style:normal;font-weight:normal;text-anchor:middle;" transform="rotate(-0, 118.309091, 103.72625)" x="118.309091" y="103.72625">0</text>
     </g>
    </g>
    <g id="xtick_4">
     <g id="line2d_14"/>
     <g id="text_12">
      <text style="font-family:Arial;font-size:8px;font-style:normal;font-weight:normal;text-anchor:middle;" transform="rotate(-0, 151.444208, 103.72625)" x="151.444208" y="103.72625">1</text>
     </g>
    </g>
    <g id="xtick_5">
     <g id="line2d_15"/>
     <g id="text_13">
      <text style="font-family:Arial;font-size:8px;font-style:normal;font-weight:normal;text-anchor:middle;" transform="rotate(-0, 184.579325, 103.72625)" x="184.579325" y="103.72625">2</text>
     </g>
    </g>
    <g id="text_14">
     <!-- $\sigma$(Exc) -->
     <g transform="translate(141.504545 116.61625)">
      <text>
       <tspan style="font-family:DejaVu Sans;font-size:10px;font-style:oblique;font-weight:oblique;" x="0" y="-0.71875">σ</tspan>
       <tspan style="font-family:Arial;font-size:10px;font-style:regular;font-weight:regular;" x="6.337891 9.667969 16.337891 21.337891 26.337891" y="-0.71875">(Exc)</tspan>
      </text>
     </g>
    </g>
   </g>
   <g id="matplotlib.axis_4">
    <g id="ytick_6">
     <g id="line2d_16"/>
     <g id="text_15">
      <text style="font-family:Arial;font-size:8px;font-style:normal;font-weight:normal;text-anchor:end;" transform="rotate(-0, 114.809091, 97.363125)" x="114.809091" y="97.363125">0.0</text>
     </g>
    </g>
    <g id="ytick_7">
     <g id="line2d_17"/>
     <g id="text_16">
      <text style="font-family:Arial;font-size:8px;font-style:normal;font-weight:normal;text-anchor:end;" transform="rotate(-0, 114.809091, 79.609116)" x="114.809091" y="79.609116">0.5</text>
     </g>
    </g>
    <g id="ytick_8">
     <g id="line2d_18"/>
     <g id="text_17">
      <text style="font-family:Arial;font-size:8px;font-style:normal;font-weight:normal;text-anchor:end;" transform="rotate(-0, 114.809091, 61.855106)" x="114.809091" y="61.855106">1.0</text>
     </g>
    </g>
    <g id="ytick_9">
     <g id="line2d_19"/>
     <g id="text_18">
      <text style="font-family:Arial;font-size:8px;font-style:normal;font-weight:normal;text-anchor:end;" transform="rotate(-0, 114.809091, 44.101097)" x="114.809091" y="44.101097">1.5</text>
     </g>
    </g>
    <g id="ytick_10">
     <g id="line2d_20"/>
     <g id="text_19">
      <text style="font-family:Arial;font-size:8px;font-style:normal;font-weight:normal;text-anchor:end;" transform="rotate(-0, 114.809091, 26.347087)" x="114.809091" y="26.347087">2.0</text>
     </g>
    </g>
    <g id="text_20">
     <!-- $\sigma$(Inh) -->
     <g transform="translate(97.489091 67.18)rotate(-90)">
      <text>
       <tspan style="font-family:DejaVu Sans;font-size:10px;font-style:oblique;font-weight:oblique;" x="0" y="-0.71875">σ</tspan>
       <tspan style="font-family:Arial;font-size:10px;font-style:regular;font-weight:regular;" x="6.337891 9.667969 12.446289 18.007812 23.569336" y="-0.71875">(Inh)</tspan>
      </text>
     </g>
    </g>
   </g>
   <g id="legend_2">
    <g id="line2d_21">
     <path d="M 108.478125 31.995156 
L 128.478125 31.995156 
" style="fill:none;stroke:#000000;stroke-dasharray:1.85,0.8;stroke-dashoffset:0;stroke-width:0.5;"/>
    </g>
    <g id="line2d_22"/>
    <g id="text_21">
     <!-- $R^2$ 0.52 -->
     <g transform="translate(136.478125 29.2475)">
      <text>
       <tspan style="font-family:DejaVu Sans;font-size:10px;font-style:oblique;font-weight:oblique;" x="0" y="-0.9765625">R</tspan>
       <tspan style="font-family:DejaVu Sans;font-size:7px;font-style:book;font-weight:book;" x="7.650794" y="-4.8046875">2</tspan>
       <tspan style="font-family:Arial;font-size:10px;font-style:regular;font-weight:regular;" x="12.377845 15.156165 20.717689 23.496009 29.057533" y="-0.9765625"> 0.52</tspan>
      </text>
     </g>
     <text style="font-family:Arial;font-size:10px;font-style:normal;font-weight:normal;" transform="translate(136.478125 39.86)"> slope 0.59</text>
    </g>
   </g>
  </g>
 </g>
 <defs>
  <clipPath id="p10169412c3">
   <rect height="81.54" width="76.090909" x="27" y="12.96"/>
  </clipPath>
  <clipPath id="p5a6256aada">
   <rect height="81.54" width="76.090909" x="118.309091" y="12.96"/>
  </clipPath>
 </defs>
</svg>
