<?xml version="1.0" encoding="utf-8" standalone="no"?>
<!DOCTYPE svg PUBLIC "-//W3C//DTD SVG 1.1//EN"
  "http://www.w3.org/Graphics/SVG/1.1/DTD/svg11.dtd">
<!-- Created with matplotlib (http://matplotlib.org/) -->
<svg height="108pt" version="1.1" viewBox="0 0 216 108" width="216pt" xmlns="http://www.w3.org/2000/svg" xmlns:xlink="http://www.w3.org/1999/xlink">
 <defs>
  <style type="text/css">
*{stroke-linecap:butt;stroke-linejoin:round;}
  </style>
 </defs>
 <g id="figure_1">
  <g id="patch_1">
   <path d="M 0 108 
L 216 108 
L 216 0 
L 0 0 
z
" style="fill:#ffffff;"/>
  </g>
  <g id="axes_1">
   <g id="patch_2">
    <path d="M 27 94.5 
L 103.090909 94.5 
L 103.090909 12.96 
L 27 12.96 
z
" style="fill:#ffffff;"/>
   </g>
   <g id="LineCollection_1">
    <path clip-path="url(#p31d6110fe2)" d="M 26.03327 64.837884 
L 49.819863 64.837884 
" style="fill:none;stroke:#000000;stroke-width:0.5;"/>
    <path clip-path="url(#p31d6110fe2)" d="M 25.272394 78.397666 
L 31.11135 78.397666 
" style="fill:none;stroke:#000000;stroke-width:0.5;"/>
    <path clip-path="url(#p31d6110fe2)" d="M 36.308844 40.621887 
L 56.426063 40.621887 
" style="fill:none;stroke:#000000;stroke-width:0.5;"/>
    <path clip-path="url(#p31d6110fe2)" d="M 26.453608 77.228397 
L 33.653078 77.228397 
" style="fill:none;stroke:#000000;stroke-width:0.5;"/>
    <path clip-path="url(#p31d6110fe2)" d="M 25.954625 72.852381 
L 35.484345 72.852381 
" style="fill:none;stroke:#000000;stroke-width:0.5;"/>
    <path clip-path="url(#p31d6110fe2)" d="M 25.794727 64.632426 
L 32.24331 64.632426 
" style="fill:none;stroke:#000000;stroke-width:0.5;"/>
    <path clip-path="url(#p31d6110fe2)" d="M 27.150001 66.070772 
L 36.442375 66.070772 
" style="fill:none;stroke:#000000;stroke-width:0.5;"/>
    <path clip-path="url(#p31d6110fe2)" d="M 27.412002 58.002795 
L 51.742367 58.002795 
" style="fill:none;stroke:#000000;stroke-width:0.5;"/>
    <path clip-path="url(#p31d6110fe2)" d="M 33.928703 56.142123 
L 47.776578 56.142123 
" style="fill:none;stroke:#000000;stroke-width:0.5;"/>
    <path clip-path="url(#p31d6110fe2)" d="M 28.516939 66.937904 
L 39.498499 66.937904 
" style="fill:none;stroke:#000000;stroke-width:0.5;"/>
    <path clip-path="url(#p31d6110fe2)" d="M 29.423358 66.902671 
L 38.776085 66.902671 
" style="fill:none;stroke:#000000;stroke-width:0.5;"/>
    <path clip-path="url(#p31d6110fe2)" d="M 29.803094 57.314893 
L 49.500269 57.314893 
" style="fill:none;stroke:#000000;stroke-width:0.5;"/>
    <path clip-path="url(#p31d6110fe2)" d="M 27.876568 40.707375 
L 48.45584 40.707375 
" style="fill:none;stroke:#000000;stroke-width:0.5;"/>
    <path clip-path="url(#p31d6110fe2)" d="M 23.758109 37.873319 
L 45.687093 37.873319 
" style="fill:none;stroke:#000000;stroke-width:0.5;"/>
    <path clip-path="url(#p31d6110fe2)" d="M 26.056901 87.465736 
L 29.244384 87.465736 
" style="fill:none;stroke:#000000;stroke-width:0.5;"/>
    <path clip-path="url(#p31d6110fe2)" d="M 25.820942 67.84819 
L 31.774922 67.84819 
" style="fill:none;stroke:#000000;stroke-width:0.5;"/>
    <path clip-path="url(#p31d6110fe2)" d="M 27 73.090338 
L 27 73.090338 
" style="fill:none;stroke:#000000;stroke-width:0.5;"/>
    <path clip-path="url(#p31d6110fe2)" d="M 27.177507 77.994191 
L 32.5233 77.994191 
" style="fill:none;stroke:#000000;stroke-width:0.5;"/>
    <path clip-path="url(#p31d6110fe2)" d="M 26.400444 91.276402 
L 29.782963 91.276402 
" style="fill:none;stroke:#000000;stroke-width:0.5;"/>
    <path clip-path="url(#p31d6110fe2)" d="M 27.772376 53.409541 
L 46.319636 53.409541 
" style="fill:none;stroke:#000000;stroke-width:0.5;"/>
    <path clip-path="url(#p31d6110fe2)" d="M 25.667584 34.031277 
L 48.699649 34.031277 
" style="fill:none;stroke:#000000;stroke-width:0.5;"/>
    <path clip-path="url(#p31d6110fe2)" d="M 25.825819 53.182603 
L 56.139497 53.182603 
" style="fill:none;stroke:#000000;stroke-width:0.5;"/>
    <path clip-path="url(#p31d6110fe2)" d="M 26.059185 65.117587 
L 34.783402 65.117587 
" style="fill:none;stroke:#000000;stroke-width:0.5;"/>
    <path clip-path="url(#p31d6110fe2)" d="M 26.267878 78.972919 
L 28.7423 78.972919 
" style="fill:none;stroke:#000000;stroke-width:0.5;"/>
    <path clip-path="url(#p31d6110fe2)" d="M 26.034329 56.842774 
L 40.311837 56.842774 
" style="fill:none;stroke:#000000;stroke-width:0.5;"/>
    <path clip-path="url(#p31d6110fe2)" d="M 26.997908 81.135676 
L 40.542162 81.135676 
" style="fill:none;stroke:#000000;stroke-width:0.5;"/>
    <path clip-path="url(#p31d6110fe2)" d="M 26.170496 74.709655 
L 41.002894 74.709655 
" style="fill:none;stroke:#000000;stroke-width:0.5;"/>
    <path clip-path="url(#p31d6110fe2)" d="M 28.721021 31.83992 
L 60.992491 31.83992 
" style="fill:none;stroke:#000000;stroke-width:0.5;"/>
    <path clip-path="url(#p31d6110fe2)" d="M 25.015635 85.160597 
L 33.986431 85.160597 
" style="fill:none;stroke:#000000;stroke-width:0.5;"/>
    <path clip-path="url(#p31d6110fe2)" d="M 26.111313 87.078502 
L 31.125021 87.078502 
" style="fill:none;stroke:#000000;stroke-width:0.5;"/>
   </g>
   <g id="LineCollection_2">
    <path clip-path="url(#p31d6110fe2)" d="M 37.926567 74.877185 
L 37.926567 54.798584 
" style="fill:none;stroke:#000000;stroke-width:0.5;"/>
    <path clip-path="url(#p31d6110fe2)" d="M 28.191872 83.419845 
L 28.191872 73.375488 
" style="fill:none;stroke:#000000;stroke-width:0.5;"/>
    <path clip-path="url(#p31d6110fe2)" d="M 46.367454 44.793185 
L 46.367454 36.450589 
" style="fill:none;stroke:#000000;stroke-width:0.5;"/>
    <path clip-path="url(#p31d6110fe2)" d="M 30.053343 80.493981 
L 30.053343 73.962812 
" style="fill:none;stroke:#000000;stroke-width:0.5;"/>
    <path clip-path="url(#p31d6110fe2)" d="M 30.719485 75.126216 
L 30.719485 70.578545 
" style="fill:none;stroke:#000000;stroke-width:0.5;"/>
    <path clip-path="url(#p31d6110fe2)" d="M 29.019018 66.589847 
L 29.019018 62.675004 
" style="fill:none;stroke:#000000;stroke-width:0.5;"/>
    <path clip-path="url(#p31d6110fe2)" d="M 31.796188 72.234093 
L 31.796188 59.907452 
" style="fill:none;stroke:#000000;stroke-width:0.5;"/>
    <path clip-path="url(#p31d6110fe2)" d="M 39.577185 72.44948 
L 39.577185 43.556109 
" style="fill:none;stroke:#000000;stroke-width:0.5;"/>
    <path clip-path="url(#p31d6110fe2)" d="M 40.85264 64.95387 
L 40.85264 47.330377 
" style="fill:none;stroke:#000000;stroke-width:0.5;"/>
    <path clip-path="url(#p31d6110fe2)" d="M 34.007719 73.586661 
L 34.007719 60.289146 
" style="fill:none;stroke:#000000;stroke-width:0.5;"/>
    <path clip-path="url(#p31d6110fe2)" d="M 34.099722 75.155597 
L 34.099722 58.649744 
" style="fill:none;stroke:#000000;stroke-width:0.5;"/>
    <path clip-path="url(#p31d6110fe2)" d="M 39.651681 64.456179 
L 39.651681 50.173606 
" style="fill:none;stroke:#000000;stroke-width:0.5;"/>
    <path clip-path="url(#p31d6110fe2)" d="M 38.166204 54.164443 
L 38.166204 27.250306 
" style="fill:none;stroke:#000000;stroke-width:0.5;"/>
    <path clip-path="url(#p31d6110fe2)" d="M 34.722601 46.098457 
L 34.722601 29.648181 
" style="fill:none;stroke:#000000;stroke-width:0.5;"/>
    <path clip-path="url(#p31d6110fe2)" d="M 27.650642 89.923768 
L 27.650642 85.007704 
" style="fill:none;stroke:#000000;stroke-width:0.5;"/>
    <path clip-path="url(#p31d6110fe2)" d="M 28.797932 75.005571 
L 28.797932 60.690808 
" style="fill:none;stroke:#000000;stroke-width:0.5;"/>
    <path clip-path="url(#p31d6110fe2)" d="M 27 78.951338 
L 27 67.229337 
" style="fill:none;stroke:#000000;stroke-width:0.5;"/>
    <path clip-path="url(#p31d6110fe2)" d="M 29.850404 81.426923 
L 29.850404 74.561459 
" style="fill:none;stroke:#000000;stroke-width:0.5;"/>
    <path clip-path="url(#p31d6110fe2)" d="M 28.091703 92.855636 
L 28.091703 89.697168 
" style="fill:none;stroke:#000000;stroke-width:0.5;"/>
    <path clip-path="url(#p31d6110fe2)" d="M 37.046006 62.437517 
L 37.046006 44.381566 
" style="fill:none;stroke:#000000;stroke-width:0.5;"/>
    <path clip-path="url(#p31d6110fe2)" d="M 37.183617 45.504314 
L 37.183617 22.558239 
" style="fill:none;stroke:#000000;stroke-width:0.5;"/>
    <path clip-path="url(#p31d6110fe2)" d="M 40.982658 65.392309 
L 40.982658 40.972896 
" style="fill:none;stroke:#000000;stroke-width:0.5;"/>
    <path clip-path="url(#p31d6110fe2)" d="M 30.421294 68.999588 
L 30.421294 61.235587 
" style="fill:none;stroke:#000000;stroke-width:0.5;"/>
    <path clip-path="url(#p31d6110fe2)" d="M 27.505089 81.065667 
L 27.505089 76.880171 
" style="fill:none;stroke:#000000;stroke-width:0.5;"/>
    <path clip-path="url(#p31d6110fe2)" d="M 33.173083 67.423199 
L 33.173083 46.262349 
" style="fill:none;stroke:#000000;stroke-width:0.5;"/>
    <path clip-path="url(#p31d6110fe2)" d="M 33.770035 86.128082 
L 33.770035 76.143269 
" style="fill:none;stroke:#000000;stroke-width:0.5;"/>
    <path clip-path="url(#p31d6110fe2)" d="M 33.586695 80.205079 
L 33.586695 69.214231 
" style="fill:none;stroke:#000000;stroke-width:0.5;"/>
    <path clip-path="url(#p31d6110fe2)" d="M 44.856756 46.915286 
L 44.856756 16.764554 
" style="fill:none;stroke:#000000;stroke-width:0.5;"/>
    <path clip-path="url(#p31d6110fe2)" d="M 29.501033 86.884455 
L 29.501033 83.436739 
" style="fill:none;stroke:#000000;stroke-width:0.5;"/>
    <path clip-path="url(#p31d6110fe2)" d="M 28.618167 89.428876 
L 28.618167 84.728128 
" style="fill:none;stroke:#000000;stroke-width:0.5;"/>
   </g>
   <g id="line2d_1">
    <path clip-path="url(#p31d6110fe2)" d="M 27 81.131814 
L 27.768595 79.292377 
L 28.53719 77.45294 
L 29.305785 75.613502 
L 30.07438 73.774065 
L 30.842975 71.934628 
L 31.61157 70.095191 
L 32.380165 68.255754 
L 33.14876 66.416317 
L 33.917355 64.576879 
L 34.68595 62.737442 
L 35.454545 60.898005 
L 36.22314 59.058568 
L 36.991736 57.219131 
L 37.760331 55.379694 
L 38.528926 53.540256 
L 39.297521 51.700819 
L 40.066116 49.861382 
L 40.834711 48.021945 
L 41.603306 46.182508 
L 42.371901 44.343071 
L 43.140496 42.503634 
L 43.909091 40.664196 
L 44.677686 38.824759 
L 45.446281 36.985322 
L 46.214876 35.145885 
L 46.983471 33.306448 
L 47.752066 31.467011 
L 48.520661 29.627573 
L 49.289256 27.788136 
L 50.057851 25.948699 
L 50.826446 24.109262 
L 51.595041 22.269825 
L 52.363636 20.430388 
L 53.132231 18.59095 
L 53.900826 16.751513 
L 54.669421 14.912076 
L 55.438017 13.072639 
L 56.206612 11.233202 
L 56.975207 9.393765 
L 57.743802 7.554327 
L 58.512397 5.71489 
L 59.280992 3.875453 
L 60.049587 2.036016 
L 60.818182 0.196579 
L 61.318163 -1 
" style="fill:none;stroke:#000000;stroke-dasharray:1.85,0.8;stroke-dashoffset:0;stroke-width:0.5;"/>
   </g>
   <g id="line2d_2">
    <defs>
     <path d="M 0 3 
C 0.795609 3 1.55874 2.683901 2.12132 2.12132 
C 2.683901 1.55874 3 0.795609 3 0 
C 3 -0.795609 2.683901 -1.55874 2.12132 -2.12132 
C 1.55874 -2.683901 0.795609 -3 0 -3 
C -0.795609 -3 -1.55874 -2.683901 -2.12132 -2.12132 
C -2.683901 -1.55874 -3 -0.795609 -3 0 
C -3 0.795609 -2.683901 1.55874 -2.12132 2.12132 
C -1.55874 2.683901 -0.795609 3 0 3 
z
" id="m0bfaf5ad39" style="stroke:#000000;"/>
    </defs>
    <g clip-path="url(#p31d6110fe2)">
     <use style="stroke:#000000;" x="37.926567" xlink:href="#m0bfaf5ad39" y="64.837884"/>
     <use style="stroke:#000000;" x="28.191872" xlink:href="#m0bfaf5ad39" y="78.397666"/>
     <use style="stroke:#000000;" x="46.367454" xlink:href="#m0bfaf5ad39" y="40.621887"/>
     <use style="stroke:#000000;" x="30.053343" xlink:href="#m0bfaf5ad39" y="77.228397"/>
     <use style="stroke:#000000;" x="30.719485" xlink:href="#m0bfaf5ad39" y="72.852381"/>
     <use style="stroke:#000000;" x="29.019018" xlink:href="#m0bfaf5ad39" y="64.632426"/>
     <use style="stroke:#000000;" x="31.796188" xlink:href="#m0bfaf5ad39" y="66.070772"/>
     <use style="stroke:#000000;" x="39.577185" xlink:href="#m0bfaf5ad39" y="58.002795"/>
     <use style="stroke:#000000;" x="40.85264" xlink:href="#m0bfaf5ad39" y="56.142123"/>
     <use style="stroke:#000000;" x="34.007719" xlink:href="#m0bfaf5ad39" y="66.937904"/>
     <use style="stroke:#000000;" x="34.099722" xlink:href="#m0bfaf5ad39" y="66.902671"/>
     <use style="stroke:#000000;" x="39.651681" xlink:href="#m0bfaf5ad39" y="57.314893"/>
     <use style="stroke:#000000;" x="38.166204" xlink:href="#m0bfaf5ad39" y="40.707375"/>
     <use style="stroke:#000000;" x="34.722601" xlink:href="#m0bfaf5ad39" y="37.873319"/>
     <use style="stroke:#000000;" x="27.650642" xlink:href="#m0bfaf5ad39" y="87.465736"/>
     <use style="stroke:#000000;" x="28.797932" xlink:href="#m0bfaf5ad39" y="67.84819"/>
     <use style="stroke:#000000;" x="27" xlink:href="#m0bfaf5ad39" y="73.090338"/>
     <use style="stroke:#000000;" x="29.850404" xlink:href="#m0bfaf5ad39" y="77.994191"/>
     <use style="stroke:#000000;" x="28.091703" xlink:href="#m0bfaf5ad39" y="91.276402"/>
     <use style="stroke:#000000;" x="37.046006" xlink:href="#m0bfaf5ad39" y="53.409541"/>
     <use style="stroke:#000000;" x="37.183617" xlink:href="#m0bfaf5ad39" y="34.031277"/>
     <use style="stroke:#000000;" x="40.982658" xlink:href="#m0bfaf5ad39" y="53.182603"/>
     <use style="stroke:#000000;" x="30.421294" xlink:href="#m0bfaf5ad39" y="65.117587"/>
     <use style="stroke:#000000;" x="27.505089" xlink:href="#m0bfaf5ad39" y="78.972919"/>
     <use style="stroke:#000000;" x="33.173083" xlink:href="#m0bfaf5ad39" y="56.842774"/>
     <use style="stroke:#000000;" x="33.770035" xlink:href="#m0bfaf5ad39" y="81.135676"/>
     <use style="stroke:#000000;" x="33.586695" xlink:href="#m0bfaf5ad39" y="74.709655"/>
     <use style="stroke:#000000;" x="44.856756" xlink:href="#m0bfaf5ad39" y="31.83992"/>
     <use style="stroke:#000000;" x="29.501033" xlink:href="#m0bfaf5ad39" y="85.160597"/>
     <use style="stroke:#000000;" x="28.618167" xlink:href="#m0bfaf5ad39" y="87.078502"/>
    </g>
   </g>
   <g id="patch_3">
    <path d="M 27 94.5 
L 27 12.96 
" style="fill:none;stroke:#000000;stroke-linecap:square;stroke-linejoin:miter;"/>
   </g>
   <g id="patch_4">
    <path d="M 27 94.5 
L 103.090909 94.5 
" style="fill:none;stroke:#000000;stroke-linecap:square;stroke-linejoin:miter;"/>
   </g>
   <g id="matplotlib.axis_1">
    <g id="xtick_1">
     <g id="line2d_3"/>
     <g id="text_1">
      <text style="font-family:Arial;font-size:8px;font-style:normal;font-weight:normal;text-anchor:middle;" transform="rotate(-0, 27, 103.72625)" x="27" y="103.72625">0</text>
     </g>
    </g>
    <g id="xtick_2">
     <g id="line2d_4"/>
     <g id="text_2">
      <text style="font-family:Arial;font-size:8px;font-style:normal;font-weight:normal;text-anchor:middle;" transform="rotate(-0, 67.059649, 103.72625)" x="67.059649" y="103.72625">5</text>
     </g>
    </g>
    <g id="text_3">
     <text style="font-family:Arial;font-size:10px;font-style:normal;font-weight:normal;text-anchor:middle;" transform="rotate(-0, 65.045455, 116.474063)" x="65.045455" y="116.474063">Exc</text>
    </g>
   </g>
   <g id="matplotlib.axis_2">
    <g id="ytick_1">
     <g id="line2d_5"/>
     <g id="text_4">
      <text style="font-family:Arial;font-size:8px;font-style:normal;font-weight:normal;text-anchor:end;" transform="rotate(-0, 23.5, 97.363125)" x="23.5" y="97.363125">0</text>
     </g>
    </g>
    <g id="ytick_2">
     <g id="line2d_6"/>
     <g id="text_5">
      <text style="font-family:Arial;font-size:8px;font-style:normal;font-weight:normal;text-anchor:end;" transform="rotate(-0, 23.5, 80.19175)" x="23.5" y="80.19175">2</text>
     </g>
    </g>
    <g id="ytick_3">
     <g id="line2d_7"/>
     <g id="text_6">
      <text style="font-family:Arial;font-size:8px;font-style:normal;font-weight:normal;text-anchor:end;" transform="rotate(-0, 23.5, 63.020376)" x="23.5" y="63.020376">4</text>
     </g>
    </g>
    <g id="ytick_4">
     <g id="line2d_8"/>
     <g id="text_7">
      <text style="font-family:Arial;font-size:8px;font-style:normal;font-weight:normal;text-anchor:end;" transform="rotate(-0, 23.5, 45.849001)" x="23.5" y="45.849001">6</text>
     </g>
    </g>
    <g id="ytick_5">
     <g id="line2d_9"/>
     <g id="text_8">
      <text style="font-family:Arial;font-size:8px;font-style:normal;font-weight:normal;text-anchor:end;" transform="rotate(-0, 23.5, 28.677627)" x="23.5" y="28.677627">8</text>
     </g>
    </g>
    <g id="text_9">
     <text style="font-family:Arial;font-size:10px;font-style:normal;font-weight:normal;text-anchor:middle;" transform="rotate(-90, 13.06375, 53.73)" x="13.06375" y="53.73">Inh</text>
    </g>
   </g>
   <g id="legend_1">
    <g id="line2d_10">
     <path d="M 36 75.622656 
L 56 75.622656 
" style="fill:none;stroke:#000000;stroke-dasharray:1.85,0.8;stroke-dashoffset:0;stroke-width:0.5;"/>
    </g>
    <g id="line2d_11"/>
    <g id="text_10">
     <!-- $R^2$ 0.62 -->
     <g transform="translate(64 72.875)">
      <text>
       <tspan style="font-family:DejaVu Sans;font-size:10px;font-style:oblique;font-weight:oblique;" x="0" y="-0.9765625">R</tspan>
       <tspan style="font-family:DejaVu Sans;font-size:7px;font-style:book;font-weight:book;" x="7.650794" y="-4.8046875">2</tspan>
       <tspan style="font-family:Arial;font-size:10px;font-style:regular;font-weight:regular;" x="12.377845 15.156165 20.717689 23.496009 29.057533" y="-0.9765625"> 0.62</tspan>
      </text>
     </g>
     <text style="font-family:Arial;font-size:10px;font-style:normal;font-weight:normal;" transform="translate(64 83.4875)"> slope 2.23</text>
    </g>
   </g>
  </g>
  <g id="axes_2">
   <g id="patch_5">
    <path d="M 118.309091 94.5 
L 194.4 94.5 
L 194.4 12.96 
L 118.309091 12.96 
z
" style="fill:#ffffff;"/>
   </g>
   <g id="PathCollection_1">
    <defs>
     <path d="M 0 2.44949 
C 0.649612 2.44949 1.272706 2.191396 1.732051 1.732051 
C 2.191396 1.272706 2.44949 0.649612 2.44949 0 
C 2.44949 -0.649612 2.191396 -1.272706 1.732051 -1.732051 
C 1.272706 -2.191396 0.649612 -2.44949 0 -2.44949 
C -0.649612 -2.44949 -1.272706 -2.191396 -1.732051 -1.732051 
C -2.191396 -1.272706 -2.44949 -0.649612 -2.44949 0 
C -2.44949 0.649612 -2.191396 1.272706 -1.732051 1.732051 
C -1.272706 2.191396 -0.649612 2.44949 0 2.44949 
z
" id="m6ab0195cad" style="stroke:#000000;"/>
    </defs>
    <g clip-path="url(#p8079ea597d)">
     <use style="stroke:#000000;" x="171.279814" xlink:href="#m6ab0195cad" y="49.786661"/>
     <use style="stroke:#000000;" x="131.311952" xlink:href="#m6ab0195cad" y="72.13207"/>
     <use style="stroke:#000000;" x="163.108429" xlink:href="#m6ab0195cad" y="75.921748"/>
     <use style="stroke:#000000;" x="134.341701" xlink:href="#m6ab0195cad" y="79.955643"/>
     <use style="stroke:#000000;" x="139.53097" xlink:href="#m6ab0195cad" y="84.372724"/>
     <use style="stroke:#000000;" x="132.669539" xlink:href="#m6ab0195cad" y="85.781978"/>
     <use style="stroke:#000000;" x="139.002419" xlink:href="#m6ab0195cad" y="67.049617"/>
     <use style="stroke:#000000;" x="172.490748" xlink:href="#m6ab0195cad" y="30.156917"/>
     <use style="stroke:#000000;" x="149.147132" xlink:href="#m6ab0195cad" y="55.253978"/>
     <use style="stroke:#000000;" x="142.764092" xlink:href="#m6ab0195cad" y="64.887564"/>
     <use style="stroke:#000000;" x="139.136822" xlink:href="#m6ab0195cad" y="57.742868"/>
     <use style="stroke:#000000;" x="162.173027" xlink:href="#m6ab0195cad" y="62.693921"/>
     <use style="stroke:#000000;" x="164.137383" xlink:href="#m6ab0195cad" y="34.564502"/>
     <use style="stroke:#000000;" x="167.143075" xlink:href="#m6ab0195cad" y="57.866631"/>
     <use style="stroke:#000000;" x="125.407346" xlink:href="#m6ab0195cad" y="83.552342"/>
     <use style="stroke:#000000;" x="131.5681" xlink:href="#m6ab0195cad" y="62.622238"/>
     <use style="stroke:#000000;" x="118.309091" xlink:href="#m6ab0195cad" y="68.396099"/>
     <use style="stroke:#000000;" x="130.213719" xlink:href="#m6ab0195cad" y="79.211194"/>
     <use style="stroke:#000000;" x="125.841674" xlink:href="#m6ab0195cad" y="87.46636"/>
     <use style="stroke:#000000;" x="159.612263" xlink:href="#m6ab0195cad" y="54.290931"/>
     <use style="stroke:#000000;" x="169.599545" xlink:href="#m6ab0195cad" y="43.401037"/>
     <use style="stroke:#000000;" x="185.815079" xlink:href="#m6ab0195cad" y="40.12004"/>
     <use style="stroke:#000000;" x="137.737182" xlink:href="#m6ab0195cad" y="77.21023"/>
     <use style="stroke:#000000;" x="123.819418" xlink:href="#m6ab0195cad" y="85.179254"/>
     <use style="stroke:#000000;" x="150.10389" xlink:href="#m6ab0195cad" y="47.376583"/>
     <use style="stroke:#000000;" x="148.470993" xlink:href="#m6ab0195cad" y="72.264669"/>
     <use style="stroke:#000000;" x="151.339582" xlink:href="#m6ab0195cad" y="70.024314"/>
     <use style="stroke:#000000;" x="190.174914" xlink:href="#m6ab0195cad" y="27.356879"/>
     <use style="stroke:#000000;" x="138.286292" xlink:href="#m6ab0195cad" y="86.822228"/>
     <use style="stroke:#000000;" x="129.474191" xlink:href="#m6ab0195cad" y="84.031835"/>
    </g>
   </g>
   <g id="line2d_12">
    <path clip-path="url(#p8079ea597d)" d="M 118.309091 87.036736 
L 119.077686 86.45365 
L 119.846281 85.870565 
L 120.614876 85.28748 
L 121.383471 84.704395 
L 122.152066 84.12131 
L 122.920661 83.538224 
L 123.689256 82.955139 
L 124.457851 82.372054 
L 125.226446 81.788969 
L 125.995041 81.205883 
L 126.763636 80.622798 
L 127.532231 80.039713 
L 128.300826 79.456628 
L 129.069421 78.873543 
L 129.838017 78.290457 
L 130.606612 77.707372 
L 131.375207 77.124287 
L 132.143802 76.541202 
L 132.912397 75.958116 
L 133.680992 75.375031 
L 134.449587 74.791946 
L 135.218182 74.208861 
L 135.986777 73.625776 
L 136.755372 73.04269 
L 137.523967 72.459605 
L 138.292562 71.87652 
L 139.061157 71.293435 
L 139.829752 70.71035 
L 140.598347 70.127264 
L 141.366942 69.544179 
L 142.135537 68.961094 
L 142.904132 68.378009 
L 143.672727 67.794923 
L 144.441322 67.211838 
L 145.209917 66.628753 
L 145.978512 66.045668 
L 146.747107 65.462583 
L 147.515702 64.879497 
L 148.284298 64.296412 
L 149.052893 63.713327 
L 149.821488 63.130242 
L 150.590083 62.547156 
L 151.358678 61.964071 
L 152.127273 61.380986 
L 152.895868 60.797901 
L 153.664463 60.214816 
L 154.433058 59.63173 
L 155.201653 59.048645 
L 155.970248 58.46556 
L 156.738843 57.882475 
L 157.507438 57.299389 
L 158.276033 56.716304 
L 159.044628 56.133219 
L 159.813223 55.550134 
L 160.581818 54.967049 
L 161.350413 54.383963 
L 162.119008 53.800878 
L 162.887603 53.217793 
L 163.656198 52.634708 
L 164.424793 52.051622 
L 165.193388 51.468537 
L 165.961983 50.885452 
L 166.730579 50.302367 
L 167.499174 49.719282 
L 168.267769 49.136196 
L 169.036364 48.553111 
L 169.804959 47.970026 
L 170.573554 47.386941 
L 171.342149 46.803856 
L 172.110744 46.22077 
L 172.879339 45.637685 
L 173.647934 45.0546 
L 174.416529 44.471515 
L 175.185124 43.888429 
L 175.953719 43.305344 
L 176.722314 42.722259 
L 177.490909 42.139174 
L 178.259504 41.556089 
L 179.028099 40.973003 
L 179.796694 40.389918 
L 180.565289 39.806833 
L 181.333884 39.223748 
L 182.102479 38.640662 
L 182.871074 38.057577 
L 183.639669 37.474492 
L 184.408264 36.891407 
L 185.17686 36.308322 
L 185.945455 35.725236 
L 186.71405 35.142151 
L 187.482645 34.559066 
L 188.25124 33.975981 
L 189.019835 33.392895 
L 189.78843 32.80981 
L 190.557025 32.226725 
L 191.32562 31.64364 
L 192.094215 31.060555 
L 192.86281 30.477469 
L 193.631405 29.894384 
L 194.4 29.311299 
" style="fill:none;stroke:#000000;stroke-dasharray:1.85,0.8;stroke-dashoffset:0;stroke-width:0.5;"/>
   </g>
   <g id="patch_6">
    <path d="M 118.309091 94.5 
L 118.309091 12.96 
" style="fill:none;stroke:#000000;stroke-linecap:square;stroke-linejoin:miter;"/>
   </g>
   <g id="patch_7">
    <path d="M 118.309091 94.5 
L 194.4 94.5 
" style="fill:none;stroke:#000000;stroke-linecap:square;stroke-linejoin:miter;"/>
   </g>
   <g id="matplotlib.axis_3">
    <g id="xtick_3">
     <g id="line2d_13"/>
     <g id="text_11">
      <text style="font-family:Arial;font-size:8px;font-style:normal;font-weight:normal;text-anchor:middle;" transform="rotate(-0, 118.309091, 103.72625)" x="118.309091" y="103.72625">0</text>
     </g>
    </g>
    <g id="xtick_4">
     <g id="line2d_14"/>
     <g id="text_12">
      <text style="font-family:Arial;font-size:8px;font-style:normal;font-weight:normal;text-anchor:middle;" transform="rotate(-0, 153.992865, 103.72625)" x="153.992865" y="103.72625">1</text>
     </g>
    </g>
    <g id="xtick_5">
     <g id="line2d_15"/>
     <g id="text_13">
      <text style="font-family:Arial;font-size:8px;font-style:normal;font-weight:normal;text-anchor:middle;" transform="rotate(-0, 189.67664, 103.72625)" x="189.67664" y="103.72625">2</text>
     </g>
    </g>
    <g id="text_14">
     <!-- $\sigma$(Exc) -->
     <g transform="translate(141.504545 116.61625)">
      <text>
       <tspan style="font-family:DejaVu Sans;font-size:10px;font-style:oblique;font-weight:oblique;" x="0" y="-0.71875">σ</tspan>
       <tspan style="font-family:Arial;font-size:10px;font-style:regular;font-weight:regular;" x="6.337891 9.667969 16.337891 21.337891 26.337891" y="-0.71875">(Exc)</tspan>
      </text>
     </g>
    </g>
   </g>
   <g id="matplotlib.axis_4">
    <g id="ytick_6">
     <g id="line2d_16"/>
     <g id="text_15">
      <text style="font-family:Arial;font-size:8px;font-style:normal;font-weight:normal;text-anchor:end;" transform="rotate(-0, 114.809091, 97.363125)" x="114.809091" y="97.363125">0.0</text>
     </g>
    </g>
    <g id="ytick_7">
     <g id="line2d_17"/>
     <g id="text_16">
      <text style="font-family:Arial;font-size:8px;font-style:normal;font-weight:normal;text-anchor:end;" transform="rotate(-0, 114.809091, 78.243528)" x="114.809091" y="78.243528">0.5</text>
     </g>
    </g>
    <g id="ytick_8">
     <g id="line2d_18"/>
     <g id="text_17">
      <text style="font-family:Arial;font-size:8px;font-style:normal;font-weight:normal;text-anchor:end;" transform="rotate(-0, 114.809091, 59.123932)" x="114.809091" y="59.123932">1.0</text>
     </g>
    </g>
    <g id="ytick_9">
     <g id="line2d_19"/>
     <g id="text_18">
      <text style="font-family:Arial;font-size:8px;font-style:normal;font-weight:normal;text-anchor:end;" transform="rotate(-0, 114.809091, 40.004335)" x="114.809091" y="40.004335">1.5</text>
     </g>
    </g>
    <g id="ytick_10">
     <g id="line2d_20"/>
     <g id="text_19">
      <text style="font-family:Arial;font-size:8px;font-style:normal;font-weight:normal;text-anchor:end;" transform="rotate(-0, 114.809091, 20.884739)" x="114.809091" y="20.884739">2.0</text>
     </g>
    </g>
    <g id="text_20">
     <!-- $\sigma$(Inh) -->
     <g transform="translate(97.489091 67.18)rotate(-90)">
      <text>
       <tspan style="font-family:DejaVu Sans;font-size:10px;font-style:oblique;font-weight:oblique;" x="0" y="-0.71875">σ</tspan>
       <tspan style="font-family:Arial;font-size:10px;font-style:regular;font-weight:regular;" x="6.337891 9.667969 12.446289 18.007812 23.569336" y="-0.71875">(Inh)</tspan>
      </text>
     </g>
    </g>
   </g>
   <g id="legend_2">
    <g id="line2d_21">
     <path d="M 108.478125 31.995156 
L 128.478125 31.995156 
" style="fill:none;stroke:#000000;stroke-dasharray:1.85,0.8;stroke-dashoffset:0;stroke-width:0.5;"/>
    </g>
    <g id="line2d_22"/>
    <g id="text_21">
     <!-- $R^2$ 0.66 -->
     <g transform="translate(136.478125 29.2475)">
      <text>
       <tspan style="font-family:DejaVu Sans;font-size:10px;font-style:oblique;font-weight:oblique;" x="0" y="-0.9765625">R</tspan>
       <tspan style="font-family:DejaVu Sans;font-size:7px;font-style:book;font-weight:book;" x="7.650794" y="-4.8046875">2</tspan>
       <tspan style="font-family:Arial;font-size:10px;font-style:regular;font-weight:regular;" x="12.377845 15.156165 20.717689 23.496009 29.057533" y="-0.9765625"> 0.66</tspan>
      </text>
     </g>
     <text style="font-family:Arial;font-size:10px;font-style:normal;font-weight:normal;" transform="translate(136.478125 39.86)"> slope 0.71</text>
    </g>
   </g>
  </g>
 </g>
 <defs>
  <clipPath id="p31d6110fe2">
   <rect height="81.54" width="76.090909" x="27" y="12.96"/>
  </clipPath>
  <clipPath id="p8079ea597d">
   <rect height="81.54" width="76.090909" x="118.309091" y="12.96"/>
  </clipPath>
 </defs>
</svg>
