<?xml version="1.0" encoding="utf-8" standalone="no"?>
<!DOCTYPE svg PUBLIC "-//W3C//DTD SVG 1.1//EN"
  "http://www.w3.org/Graphics/SVG/1.1/DTD/svg11.dtd">
<!-- Created with matplotlib (http://matplotlib.org/) -->
<svg height="108pt" version="1.1" viewBox="0 0 216 108" width="216pt" xmlns="http://www.w3.org/2000/svg" xmlns:xlink="http://www.w3.org/1999/xlink">
 <defs>
  <style type="text/css">
*{stroke-linecap:butt;stroke-linejoin:round;}
  </style>
 </defs>
 <g id="figure_1">
  <g id="patch_1">
   <path d="M 0 108 
L 216 108 
L 216 0 
L 0 0 
z
" style="fill:#ffffff;"/>
  </g>
  <g id="axes_1">
   <g id="patch_2">
    <path d="M 27 94.5 
L 103.090909 94.5 
L 103.090909 12.96 
L 27 12.96 
z
" style="fill:#ffffff;"/>
   </g>
   <g id="LineCollection_1">
    <path clip-path="url(#p33ca910e40)" d="M 22.49913 46.211257 
L 45.622992 46.211257 
" style="fill:none;stroke:#000000;stroke-width:0.5;"/>
    <path clip-path="url(#p33ca910e40)" d="M 26.674236 77.451565 
L 34.115849 77.451565 
" style="fill:none;stroke:#000000;stroke-width:0.5;"/>
    <path clip-path="url(#p33ca910e40)" d="M 30.288395 67.74444 
L 35.989181 67.74444 
" style="fill:none;stroke:#000000;stroke-width:0.5;"/>
    <path clip-path="url(#p33ca910e40)" d="M 27.126963 85.740501 
L 29.494177 85.740501 
" style="fill:none;stroke:#000000;stroke-width:0.5;"/>
    <path clip-path="url(#p33ca910e40)" d="M 26.696081 77.269396 
L 30.341357 77.269396 
" style="fill:none;stroke:#000000;stroke-width:0.5;"/>
    <path clip-path="url(#p33ca910e40)" d="M 24.993488 78.51824 
L 35.793976 78.51824 
" style="fill:none;stroke:#000000;stroke-width:0.5;"/>
    <path clip-path="url(#p33ca910e40)" d="M 24.916602 70.166045 
L 33.41529 70.166045 
" style="fill:none;stroke:#000000;stroke-width:0.5;"/>
    <path clip-path="url(#p33ca910e40)" d="M 25.232644 86.821362 
L 31.205948 86.821362 
" style="fill:none;stroke:#000000;stroke-width:0.5;"/>
    <path clip-path="url(#p33ca910e40)" d="M 26.858199 92.079695 
L 29.190759 92.079695 
" style="fill:none;stroke:#000000;stroke-width:0.5;"/>
    <path clip-path="url(#p33ca910e40)" d="M 27.774002 84.763901 
L 32.621628 84.763901 
" style="fill:none;stroke:#000000;stroke-width:0.5;"/>
    <path clip-path="url(#p33ca910e40)" d="M 25.234598 58.432561 
L 42.551096 58.432561 
" style="fill:none;stroke:#000000;stroke-width:0.5;"/>
    <path clip-path="url(#p33ca910e40)" d="M 28.759815 62.761638 
L 38.504057 62.761638 
" style="fill:none;stroke:#000000;stroke-width:0.5;"/>
    <path clip-path="url(#p33ca910e40)" d="M 27.200857 78.452333 
L 33.887292 78.452333 
" style="fill:none;stroke:#000000;stroke-width:0.5;"/>
    <path clip-path="url(#p33ca910e40)" d="M 26.691883 87.503953 
L 27.733255 87.503953 
" style="fill:none;stroke:#000000;stroke-width:0.5;"/>
    <path clip-path="url(#p33ca910e40)" d="M 27.855362 65.900549 
L 45.428399 65.900549 
" style="fill:none;stroke:#000000;stroke-width:0.5;"/>
    <path clip-path="url(#p33ca910e40)" d="M 26.574389 87.47258 
L 29.590503 87.47258 
" style="fill:none;stroke:#000000;stroke-width:0.5;"/>
    <path clip-path="url(#p33ca910e40)" d="M 26.916227 92.331094 
L 27.760498 92.331094 
" style="fill:none;stroke:#000000;stroke-width:0.5;"/>
    <path clip-path="url(#p33ca910e40)" d="M 22.394876 60.721219 
L 54.708151 60.721219 
" style="fill:none;stroke:#000000;stroke-width:0.5;"/>
    <path clip-path="url(#p33ca910e40)" d="M 26.713327 82.240638 
L 28.967648 82.240638 
" style="fill:none;stroke:#000000;stroke-width:0.5;"/>
    <path clip-path="url(#p33ca910e40)" d="M 27.474476 80.78337 
L 32.60149 80.78337 
" style="fill:none;stroke:#000000;stroke-width:0.5;"/>
    <path clip-path="url(#p33ca910e40)" d="M 25.996756 54.86849 
L 37.044721 54.86849 
" style="fill:none;stroke:#000000;stroke-width:0.5;"/>
    <path clip-path="url(#p33ca910e40)" d="M 25.210036 85.334351 
L 31.259748 85.334351 
" style="fill:none;stroke:#000000;stroke-width:0.5;"/>
    <path clip-path="url(#p33ca910e40)" d="M 27.486161 72.369029 
L 33.572796 72.369029 
" style="fill:none;stroke:#000000;stroke-width:0.5;"/>
    <path clip-path="url(#p33ca910e40)" d="M 30.074273 45.780758 
L 48.260352 45.780758 
" style="fill:none;stroke:#000000;stroke-width:0.5;"/>
    <path clip-path="url(#p33ca910e40)" d="M 26.635079 88.959635 
L 30.874311 88.959635 
" style="fill:none;stroke:#000000;stroke-width:0.5;"/>
    <path clip-path="url(#p33ca910e40)" d="M 27.020292 42.438752 
L 53.611044 42.438752 
" style="fill:none;stroke:#000000;stroke-width:0.5;"/>
    <path clip-path="url(#p33ca910e40)" d="M 26.965981 68.919073 
L 35.003715 68.919073 
" style="fill:none;stroke:#000000;stroke-width:0.5;"/>
    <path clip-path="url(#p33ca910e40)" d="M 24.552066 80.126508 
L 35.323767 80.126508 
" style="fill:none;stroke:#000000;stroke-width:0.5;"/>
    <path clip-path="url(#p33ca910e40)" d="M 26.854786 93.016401 
L 28.427229 93.016401 
" style="fill:none;stroke:#000000;stroke-width:0.5;"/>
    <path clip-path="url(#p33ca910e40)" d="M 24.436997 57.221627 
L 45.151699 57.221627 
" style="fill:none;stroke:#000000;stroke-width:0.5;"/>
   </g>
   <g id="LineCollection_2">
    <path clip-path="url(#p33ca910e40)" d="M 34.061061 58.984491 
L 34.061061 33.438022 
" style="fill:none;stroke:#000000;stroke-width:0.5;"/>
    <path clip-path="url(#p33ca910e40)" d="M 30.395042 81.06715 
L 30.395042 73.83598 
" style="fill:none;stroke:#000000;stroke-width:0.5;"/>
    <path clip-path="url(#p33ca910e40)" d="M 33.138788 72.937182 
L 33.138788 62.551698 
" style="fill:none;stroke:#000000;stroke-width:0.5;"/>
    <path clip-path="url(#p33ca910e40)" d="M 28.31057 90.176365 
L 28.31057 81.304638 
" style="fill:none;stroke:#000000;stroke-width:0.5;"/>
    <path clip-path="url(#p33ca910e40)" d="M 28.518719 79.037956 
L 28.518719 75.500835 
" style="fill:none;stroke:#000000;stroke-width:0.5;"/>
    <path clip-path="url(#p33ca910e40)" d="M 30.393732 82.097052 
L 30.393732 74.939427 
" style="fill:none;stroke:#000000;stroke-width:0.5;"/>
    <path clip-path="url(#p33ca910e40)" d="M 29.165946 75.931652 
L 29.165946 64.400438 
" style="fill:none;stroke:#000000;stroke-width:0.5;"/>
    <path clip-path="url(#p33ca910e40)" d="M 28.219296 87.890934 
L 28.219296 85.751789 
" style="fill:none;stroke:#000000;stroke-width:0.5;"/>
    <path clip-path="url(#p33ca910e40)" d="M 28.024479 92.863002 
L 28.024479 91.296387 
" style="fill:none;stroke:#000000;stroke-width:0.5;"/>
    <path clip-path="url(#p33ca910e40)" d="M 30.197815 87.722559 
L 30.197815 81.805242 
" style="fill:none;stroke:#000000;stroke-width:0.5;"/>
    <path clip-path="url(#p33ca910e40)" d="M 33.892847 67.22977 
L 33.892847 49.635353 
" style="fill:none;stroke:#000000;stroke-width:0.5;"/>
    <path clip-path="url(#p33ca910e40)" d="M 33.631936 65.251646 
L 33.631936 60.27163 
" style="fill:none;stroke:#000000;stroke-width:0.5;"/>
    <path clip-path="url(#p33ca910e40)" d="M 30.544075 81.406519 
L 30.544075 75.498147 
" style="fill:none;stroke:#000000;stroke-width:0.5;"/>
    <path clip-path="url(#p33ca910e40)" d="M 27.212569 90.931302 
L 27.212569 84.076604 
" style="fill:none;stroke:#000000;stroke-width:0.5;"/>
    <path clip-path="url(#p33ca910e40)" d="M 36.641881 67.480288 
L 36.641881 64.32081 
" style="fill:none;stroke:#000000;stroke-width:0.5;"/>
    <path clip-path="url(#p33ca910e40)" d="M 28.082446 88.707738 
L 28.082446 86.237422 
" style="fill:none;stroke:#000000;stroke-width:0.5;"/>
    <path clip-path="url(#p33ca910e40)" d="M 27.338363 93.093694 
L 27.338363 91.568494 
" style="fill:none;stroke:#000000;stroke-width:0.5;"/>
    <path clip-path="url(#p33ca910e40)" d="M 38.551513 73.167007 
L 38.551513 48.275432 
" style="fill:none;stroke:#000000;stroke-width:0.5;"/>
    <path clip-path="url(#p33ca910e40)" d="M 27.840487 82.886251 
L 27.840487 81.595026 
" style="fill:none;stroke:#000000;stroke-width:0.5;"/>
    <path clip-path="url(#p33ca910e40)" d="M 30.037983 82.458243 
L 30.037983 79.108498 
" style="fill:none;stroke:#000000;stroke-width:0.5;"/>
    <path clip-path="url(#p33ca910e40)" d="M 31.520739 69.850976 
L 31.520739 39.886005 
" style="fill:none;stroke:#000000;stroke-width:0.5;"/>
    <path clip-path="url(#p33ca910e40)" d="M 28.234892 88.948521 
L 28.234892 81.720181 
" style="fill:none;stroke:#000000;stroke-width:0.5;"/>
    <path clip-path="url(#p33ca910e40)" d="M 30.529478 77.4918 
L 30.529478 67.246258 
" style="fill:none;stroke:#000000;stroke-width:0.5;"/>
    <path clip-path="url(#p33ca910e40)" d="M 39.167312 55.578899 
L 39.167312 35.982617 
" style="fill:none;stroke:#000000;stroke-width:0.5;"/>
    <path clip-path="url(#p33ca910e40)" d="M 28.754695 90.351643 
L 28.754695 87.567628 
" style="fill:none;stroke:#000000;stroke-width:0.5;"/>
    <path clip-path="url(#p33ca910e40)" d="M 40.315668 68.063218 
L 40.315668 16.814285 
" style="fill:none;stroke:#000000;stroke-width:0.5;"/>
    <path clip-path="url(#p33ca910e40)" d="M 30.984848 70.784893 
L 30.984848 67.053252 
" style="fill:none;stroke:#000000;stroke-width:0.5;"/>
    <path clip-path="url(#p33ca910e40)" d="M 29.937916 84.596295 
L 29.937916 75.656722 
" style="fill:none;stroke:#000000;stroke-width:0.5;"/>
    <path clip-path="url(#p33ca910e40)" d="M 27.641008 93.89998 
L 27.641008 92.132822 
" style="fill:none;stroke:#000000;stroke-width:0.5;"/>
    <path clip-path="url(#p33ca910e40)" d="M 34.794348 73.578758 
L 34.794348 40.864496 
" style="fill:none;stroke:#000000;stroke-width:0.5;"/>
   </g>
   <g id="line2d_1">
    <path clip-path="url(#p33ca910e40)" d="M 27 88.501902 
L 27.768595 85.80344 
L 28.53719 83.104978 
L 29.305785 80.406517 
L 30.07438 77.708055 
L 30.842975 75.009593 
L 31.61157 72.311131 
L 32.380165 69.61267 
L 33.14876 66.914208 
L 33.917355 64.215746 
L 34.68595 61.517284 
L 35.454545 58.818823 
L 36.22314 56.120361 
L 36.991736 53.421899 
L 37.760331 50.723437 
L 38.528926 48.024976 
L 39.297521 45.326514 
L 40.066116 42.628052 
L 40.834711 39.92959 
L 41.603306 37.231129 
L 42.371901 34.532667 
L 43.140496 31.834205 
L 43.909091 29.135743 
L 44.677686 26.437282 
L 45.446281 23.73882 
L 46.214876 21.040358 
L 46.983471 18.341896 
L 47.752066 15.643435 
L 48.520661 12.944973 
L 49.289256 10.246511 
L 50.057851 7.548049 
L 50.826446 4.849588 
L 51.595041 2.151126 
L 52.363636 -0.547336 
L 52.492567 -1 
" style="fill:none;stroke:#000000;stroke-dasharray:1.85,0.8;stroke-dashoffset:0;stroke-width:0.5;"/>
   </g>
   <g id="line2d_2">
    <defs>
     <path d="M 0 3 
C 0.795609 3 1.55874 2.683901 2.12132 2.12132 
C 2.683901 1.55874 3 0.795609 3 0 
C 3 -0.795609 2.683901 -1.55874 2.12132 -2.12132 
C 1.55874 -2.683901 0.795609 -3 0 -3 
C -0.795609 -3 -1.55874 -2.683901 -2.12132 -2.12132 
C -2.683901 -1.55874 -3 -0.795609 -3 0 
C -3 0.795609 -2.683901 1.55874 -2.12132 2.12132 
C -1.55874 2.683901 -0.795609 3 0 3 
z
" id="m6119ce140d" style="stroke:#000000;"/>
    </defs>
    <g clip-path="url(#p33ca910e40)">
     <use style="stroke:#000000;" x="34.061061" xlink:href="#m6119ce140d" y="46.211257"/>
     <use style="stroke:#000000;" x="30.395042" xlink:href="#m6119ce140d" y="77.451565"/>
     <use style="stroke:#000000;" x="33.138788" xlink:href="#m6119ce140d" y="67.74444"/>
     <use style="stroke:#000000;" x="28.31057" xlink:href="#m6119ce140d" y="85.740501"/>
     <use style="stroke:#000000;" x="28.518719" xlink:href="#m6119ce140d" y="77.269396"/>
     <use style="stroke:#000000;" x="30.393732" xlink:href="#m6119ce140d" y="78.51824"/>
     <use style="stroke:#000000;" x="29.165946" xlink:href="#m6119ce140d" y="70.166045"/>
     <use style="stroke:#000000;" x="28.219296" xlink:href="#m6119ce140d" y="86.821362"/>
     <use style="stroke:#000000;" x="28.024479" xlink:href="#m6119ce140d" y="92.079695"/>
     <use style="stroke:#000000;" x="30.197815" xlink:href="#m6119ce140d" y="84.763901"/>
     <use style="stroke:#000000;" x="33.892847" xlink:href="#m6119ce140d" y="58.432561"/>
     <use style="stroke:#000000;" x="33.631936" xlink:href="#m6119ce140d" y="62.761638"/>
     <use style="stroke:#000000;" x="30.544075" xlink:href="#m6119ce140d" y="78.452333"/>
     <use style="stroke:#000000;" x="27.212569" xlink:href="#m6119ce140d" y="87.503953"/>
     <use style="stroke:#000000;" x="36.641881" xlink:href="#m6119ce140d" y="65.900549"/>
     <use style="stroke:#000000;" x="28.082446" xlink:href="#m6119ce140d" y="87.47258"/>
     <use style="stroke:#000000;" x="27.338363" xlink:href="#m6119ce140d" y="92.331094"/>
     <use style="stroke:#000000;" x="38.551513" xlink:href="#m6119ce140d" y="60.721219"/>
     <use style="stroke:#000000;" x="27.840487" xlink:href="#m6119ce140d" y="82.240638"/>
     <use style="stroke:#000000;" x="30.037983" xlink:href="#m6119ce140d" y="80.78337"/>
     <use style="stroke:#000000;" x="31.520739" xlink:href="#m6119ce140d" y="54.86849"/>
     <use style="stroke:#000000;" x="28.234892" xlink:href="#m6119ce140d" y="85.334351"/>
     <use style="stroke:#000000;" x="30.529478" xlink:href="#m6119ce140d" y="72.369029"/>
     <use style="stroke:#000000;" x="39.167312" xlink:href="#m6119ce140d" y="45.780758"/>
     <use style="stroke:#000000;" x="28.754695" xlink:href="#m6119ce140d" y="88.959635"/>
     <use style="stroke:#000000;" x="40.315668" xlink:href="#m6119ce140d" y="42.438752"/>
     <use style="stroke:#000000;" x="30.984848" xlink:href="#m6119ce140d" y="68.919073"/>
     <use style="stroke:#000000;" x="29.937916" xlink:href="#m6119ce140d" y="80.126508"/>
     <use style="stroke:#000000;" x="27.641008" xlink:href="#m6119ce140d" y="93.016401"/>
     <use style="stroke:#000000;" x="34.794348" xlink:href="#m6119ce140d" y="57.221627"/>
    </g>
   </g>
   <g id="patch_3">
    <path d="M 27 94.5 
L 27 12.96 
" style="fill:none;stroke:#000000;stroke-linecap:square;stroke-linejoin:miter;"/>
   </g>
   <g id="patch_4">
    <path d="M 27 94.5 
L 103.090909 94.5 
" style="fill:none;stroke:#000000;stroke-linecap:square;stroke-linejoin:miter;"/>
   </g>
   <g id="matplotlib.axis_1">
    <g id="xtick_1">
     <g id="line2d_3"/>
     <g id="text_1">
      <text style="font-family:Arial;font-size:8px;font-style:normal;font-weight:normal;text-anchor:middle;" transform="rotate(-0, 27, 103.72625)" x="27" y="103.72625">0</text>
     </g>
    </g>
    <g id="xtick_2">
     <g id="line2d_4"/>
     <g id="text_2">
      <text style="font-family:Arial;font-size:8px;font-style:normal;font-weight:normal;text-anchor:middle;" transform="rotate(-0, 67.515745, 103.72625)" x="67.515745" y="103.72625">10</text>
     </g>
    </g>
    <g id="text_3">
     <text style="font-family:Arial;font-size:10px;font-style:normal;font-weight:normal;text-anchor:middle;" transform="rotate(-0, 65.045455, 116.474063)" x="65.045455" y="116.474063">Exc</text>
    </g>
   </g>
   <g id="matplotlib.axis_2">
    <g id="ytick_1">
     <g id="line2d_5"/>
     <g id="text_4">
      <text style="font-family:Arial;font-size:8px;font-style:normal;font-weight:normal;text-anchor:end;" transform="rotate(-0, 23.5, 97.363125)" x="23.5" y="97.363125">0</text>
     </g>
    </g>
    <g id="ytick_2">
     <g id="line2d_6"/>
     <g id="text_5">
      <text style="font-family:Arial;font-size:8px;font-style:normal;font-weight:normal;text-anchor:end;" transform="rotate(-0, 23.5, 75.654527)" x="23.5" y="75.654527">5</text>
     </g>
    </g>
    <g id="ytick_3">
     <g id="line2d_7"/>
     <g id="text_6">
      <text style="font-family:Arial;font-size:8px;font-style:normal;font-weight:normal;text-anchor:end;" transform="rotate(-0, 23.5, 53.94593)" x="23.5" y="53.94593">10</text>
     </g>
    </g>
    <g id="ytick_4">
     <g id="line2d_8"/>
     <g id="text_7">
      <text style="font-family:Arial;font-size:8px;font-style:normal;font-weight:normal;text-anchor:end;" transform="rotate(-0, 23.5, 32.237332)" x="23.5" y="32.237332">15</text>
     </g>
    </g>
    <g id="text_8">
     <text style="font-family:Arial;font-size:10px;font-style:normal;font-weight:normal;text-anchor:middle;" transform="rotate(-90, 8.615, 53.73)" x="8.615" y="53.73">Inh</text>
    </g>
   </g>
   <g id="legend_1">
    <g id="line2d_9">
     <path d="M 36 75.622656 
L 56 75.622656 
" style="fill:none;stroke:#000000;stroke-dasharray:1.85,0.8;stroke-dashoffset:0;stroke-width:0.5;"/>
    </g>
    <g id="line2d_10"/>
    <g id="text_9">
     <!-- $R^2$ 0.77 -->
     <g transform="translate(64 72.875)">
      <text>
       <tspan style="font-family:DejaVu Sans;font-size:10px;font-style:oblique;font-weight:oblique;" x="0" y="-0.9765625">R</tspan>
       <tspan style="font-family:DejaVu Sans;font-size:7px;font-style:book;font-weight:book;" x="7.650794" y="-4.8046875">2</tspan>
       <tspan style="font-family:Arial;font-size:10px;font-style:regular;font-weight:regular;" x="12.377845 15.156165 20.717689 23.496009 29.057533" y="-0.9765625"> 0.77</tspan>
      </text>
     </g>
     <text style="font-family:Arial;font-size:10px;font-style:normal;font-weight:normal;" transform="translate(64 83.4875)"> slope 3.28</text>
    </g>
   </g>
  </g>
  <g id="axes_2">
   <g id="patch_5">
    <path d="M 118.309091 94.5 
L 194.4 94.5 
L 194.4 12.96 
L 118.309091 12.96 
z
" style="fill:#ffffff;"/>
   </g>
   <g id="PathCollection_1">
    <defs>
     <path d="M 0 2.44949 
C 0.649612 2.44949 1.272706 2.191396 1.732051 1.732051 
C 2.191396 1.272706 2.44949 0.649612 2.44949 0 
C 2.44949 -0.649612 2.191396 -1.272706 1.732051 -1.732051 
C 1.272706 -2.191396 0.649612 -2.44949 0 -2.44949 
C -0.649612 -2.44949 -1.272706 -2.191396 -1.732051 -1.732051 
C -2.191396 -1.272706 -2.44949 -0.649612 -2.44949 0 
C -2.44949 0.649612 -2.191396 1.272706 -1.732051 1.732051 
C -1.272706 2.191396 -0.649612 2.44949 0 2.44949 
z
" id="mf71df46427" style="stroke:#000000;"/>
    </defs>
    <g clip-path="url(#pc7ddb248b9)">
     <use style="stroke:#000000;" x="153.32051" xlink:href="#mf71df46427" y="55.820555"/>
     <use style="stroke:#000000;" x="129.576303" xlink:href="#mf71df46427" y="83.551416"/>
     <use style="stroke:#000000;" x="126.940548" xlink:href="#mf71df46427" y="78.775528"/>
     <use style="stroke:#000000;" x="121.893245" xlink:href="#mf71df46427" y="81.067481"/>
     <use style="stroke:#000000;" x="123.828337" xlink:href="#mf71df46427" y="89.144509"/>
     <use style="stroke:#000000;" x="134.661915" xlink:href="#mf71df46427" y="83.66277"/>
     <use style="stroke:#000000;" x="131.1768" xlink:href="#mf71df46427" y="77.040798"/>
     <use style="stroke:#000000;" x="127.353162" xlink:href="#mf71df46427" y="91.26116"/>
     <use style="stroke:#000000;" x="121.840776" xlink:href="#mf71df46427" y="92.128016"/>
     <use style="stroke:#000000;" x="125.648794" xlink:href="#mf71df46427" y="85.540697"/>
     <use style="stroke:#000000;" x="144.527685" xlink:href="#mf71df46427" y="67.860612"/>
     <use style="stroke:#000000;" x="133.062671" xlink:href="#mf71df46427" y="86.959848"/>
     <use style="stroke:#000000;" x="128.432901" xlink:href="#mf71df46427" y="85.554242"/>
     <use style="stroke:#000000;" x="119.885814" xlink:href="#mf71df46427" y="84.121426"/>
     <use style="stroke:#000000;" x="144.916106" xlink:href="#mf71df46427" y="89.716292"/>
     <use style="stroke:#000000;" x="122.875734" xlink:href="#mf71df46427" y="90.759739"/>
     <use style="stroke:#000000;" x="119.587386" xlink:href="#mf71df46427" y="92.190722"/>
     <use style="stroke:#000000;" x="167.234034" xlink:href="#mf71df46427" y="56.812118"/>
     <use style="stroke:#000000;" x="121.722317" xlink:href="#mf71df46427" y="92.544979"/>
     <use style="stroke:#000000;" x="126.071809" xlink:href="#mf71df46427" y="89.428212"/>
     <use style="stroke:#000000;" x="135.036615" xlink:href="#mf71df46427" y="49.130581"/>
     <use style="stroke:#000000;" x="127.468849" xlink:href="#mf71df46427" y="83.555702"/>
     <use style="stroke:#000000;" x="127.524755" xlink:href="#mf71df46427" y="78.987411"/>
     <use style="stroke:#000000;" x="145.844302" xlink:href="#mf71df46427" y="64.829625"/>
     <use style="stroke:#000000;" x="124.727634" xlink:href="#mf71df46427" y="90.284773"/>
     <use style="stroke:#000000;" x="158.569665" xlink:href="#mf71df46427" y="16.904921"/>
     <use style="stroke:#000000;" x="130.478878" xlink:href="#mf71df46427" y="88.84999"/>
     <use style="stroke:#000000;" x="134.618327" xlink:href="#mf71df46427" y="80.964756"/>
     <use style="stroke:#000000;" x="120.689898" xlink:href="#mf71df46427" y="91.824378"/>
     <use style="stroke:#000000;" x="149.672844" xlink:href="#mf71df46427" y="44.96793"/>
    </g>
   </g>
   <g id="line2d_11">
    <path clip-path="url(#pc7ddb248b9)" d="M 118.309091 94.333941 
L 119.077686 93.465479 
L 119.846281 92.597016 
L 120.614876 91.728554 
L 121.383471 90.860091 
L 122.152066 89.991629 
L 122.920661 89.123166 
L 123.689256 88.254704 
L 124.457851 87.386241 
L 125.226446 86.517779 
L 125.995041 85.649316 
L 126.763636 84.780854 
L 127.532231 83.912391 
L 128.300826 83.043929 
L 129.069421 82.175466 
L 129.838017 81.307004 
L 130.606612 80.438541 
L 131.375207 79.570079 
L 132.143802 78.701616 
L 132.912397 77.833154 
L 133.680992 76.964691 
L 134.449587 76.096229 
L 135.218182 75.227766 
L 135.986777 74.359304 
L 136.755372 73.490841 
L 137.523967 72.622379 
L 138.292562 71.753916 
L 139.061157 70.885454 
L 139.829752 70.016991 
L 140.598347 69.148529 
L 141.366942 68.280066 
L 142.135537 67.411604 
L 142.904132 66.543141 
L 143.672727 65.674679 
L 144.441322 64.806216 
L 145.209917 63.937754 
L 145.978512 63.069291 
L 146.747107 62.200829 
L 147.515702 61.332366 
L 148.284298 60.463904 
L 149.052893 59.595441 
L 149.821488 58.726979 
L 150.590083 57.858516 
L 151.358678 56.990054 
L 152.127273 56.121591 
L 152.895868 55.253129 
L 153.664463 54.384666 
L 154.433058 53.516204 
L 155.201653 52.647741 
L 155.970248 51.779278 
L 156.738843 50.910816 
L 157.507438 50.042353 
L 158.276033 49.173891 
L 159.044628 48.305428 
L 159.813223 47.436966 
L 160.581818 46.568503 
L 161.350413 45.700041 
L 162.119008 44.831578 
L 162.887603 43.963116 
L 163.656198 43.094653 
L 164.424793 42.226191 
L 165.193388 41.357728 
L 165.961983 40.489266 
L 166.730579 39.620803 
L 167.499174 38.752341 
L 168.267769 37.883878 
L 169.036364 37.015416 
L 169.804959 36.146953 
L 170.573554 35.278491 
L 171.342149 34.410028 
L 172.110744 33.541566 
L 172.879339 32.673103 
L 173.647934 31.804641 
L 174.416529 30.936178 
L 175.185124 30.067716 
L 175.953719 29.199253 
L 176.722314 28.330791 
L 177.490909 27.462328 
L 178.259504 26.593866 
L 179.028099 25.725403 
L 179.796694 24.856941 
L 180.565289 23.988478 
L 181.333884 23.120016 
L 182.102479 22.251553 
L 182.871074 21.383091 
L 183.639669 20.514628 
L 184.408264 19.646166 
L 185.17686 18.777703 
L 185.945455 17.909241 
L 186.71405 17.040778 
L 187.482645 16.172316 
L 188.25124 15.303853 
L 189.019835 14.435391 
L 189.78843 13.566928 
L 190.557025 12.698466 
L 191.32562 11.830003 
L 192.094215 10.961541 
L 192.86281 10.093078 
L 193.631405 9.224616 
L 194.4 8.356153 
" style="fill:none;stroke:#000000;stroke-dasharray:1.85,0.8;stroke-dashoffset:0;stroke-width:0.5;"/>
   </g>
   <g id="patch_6">
    <path d="M 118.309091 94.5 
L 118.309091 12.96 
" style="fill:none;stroke:#000000;stroke-linecap:square;stroke-linejoin:miter;"/>
   </g>
   <g id="patch_7">
    <path d="M 118.309091 94.5 
L 194.4 94.5 
" style="fill:none;stroke:#000000;stroke-linecap:square;stroke-linejoin:miter;"/>
   </g>
   <g id="matplotlib.axis_3">
    <g id="xtick_3">
     <g id="line2d_12"/>
     <g id="text_10">
      <text style="font-family:Arial;font-size:8px;font-style:normal;font-weight:normal;text-anchor:middle;" transform="rotate(-0, 118.309091, 103.72625)" x="118.309091" y="103.72625">0.0</text>
     </g>
    </g>
    <g id="xtick_4">
     <g id="line2d_13"/>
     <g id="text_11">
      <text style="font-family:Arial;font-size:8px;font-style:normal;font-weight:normal;text-anchor:middle;" transform="rotate(-0, 148.981167, 103.72625)" x="148.981167" y="103.72625">2.5</text>
     </g>
    </g>
    <g id="xtick_5">
     <g id="line2d_14"/>
     <g id="text_12">
      <text style="font-family:Arial;font-size:8px;font-style:normal;font-weight:normal;text-anchor:middle;" transform="rotate(-0, 179.653244, 103.72625)" x="179.653244" y="103.72625">5.0</text>
     </g>
    </g>
    <g id="text_13">
     <!-- $\sigma$(Exc) -->
     <g transform="translate(141.504545 116.61625)">
      <text>
       <tspan style="font-family:DejaVu Sans;font-size:10px;font-style:oblique;font-weight:oblique;" x="0" y="-0.71875">σ</tspan>
       <tspan style="font-family:Arial;font-size:10px;font-style:regular;font-weight:regular;" x="6.337891 9.667969 16.337891 21.337891 26.337891" y="-0.71875">(Exc)</tspan>
      </text>
     </g>
    </g>
   </g>
   <g id="matplotlib.axis_4">
    <g id="ytick_5">
     <g id="line2d_15"/>
     <g id="text_14">
      <text style="font-family:Arial;font-size:8px;font-style:normal;font-weight:normal;text-anchor:end;" transform="rotate(-0, 114.809091, 97.363125)" x="114.809091" y="97.363125">0</text>
     </g>
    </g>
    <g id="ytick_6">
     <g id="line2d_16"/>
     <g id="text_15">
      <text style="font-family:Arial;font-size:8px;font-style:normal;font-weight:normal;text-anchor:end;" transform="rotate(-0, 114.809091, 71.068251)" x="114.809091" y="71.068251">2</text>
     </g>
    </g>
    <g id="ytick_7">
     <g id="line2d_17"/>
     <g id="text_16">
      <text style="font-family:Arial;font-size:8px;font-style:normal;font-weight:normal;text-anchor:end;" transform="rotate(-0, 114.809091, 44.773377)" x="114.809091" y="44.773377">4</text>
     </g>
    </g>
    <g id="ytick_8">
     <g id="line2d_18"/>
     <g id="text_17">
      <text style="font-family:Arial;font-size:8px;font-style:normal;font-weight:normal;text-anchor:end;" transform="rotate(-0, 114.809091, 18.478502)" x="114.809091" y="18.478502">6</text>
     </g>
    </g>
    <g id="text_18">
     <!-- $\sigma$(Inh) -->
     <g transform="translate(104.160341 67.18)rotate(-90)">
      <text>
       <tspan style="font-family:DejaVu Sans;font-size:10px;font-style:oblique;font-weight:oblique;" x="0" y="-0.71875">σ</tspan>
       <tspan style="font-family:Arial;font-size:10px;font-style:regular;font-weight:regular;" x="6.337891 9.667969 12.446289 18.007812 23.569336" y="-0.71875">(Inh)</tspan>
      </text>
     </g>
    </g>
   </g>
   <g id="legend_2">
    <g id="line2d_19">
     <path d="M 108.478125 31.995156 
L 128.478125 31.995156 
" style="fill:none;stroke:#000000;stroke-dasharray:1.85,0.8;stroke-dashoffset:0;stroke-width:0.5;"/>
    </g>
    <g id="line2d_20"/>
    <g id="text_19">
     <!-- $R^2$ 0.62 -->
     <g transform="translate(136.478125 29.2475)">
      <text>
       <tspan style="font-family:DejaVu Sans;font-size:10px;font-style:oblique;font-weight:oblique;" x="0" y="-0.9765625">R</tspan>
       <tspan style="font-family:DejaVu Sans;font-size:7px;font-style:book;font-weight:book;" x="7.650794" y="-4.8046875">2</tspan>
       <tspan style="font-family:Arial;font-size:10px;font-style:regular;font-weight:regular;" x="12.377845 15.156165 20.717689 23.496009 29.057533" y="-0.9765625"> 0.62</tspan>
      </text>
     </g>
     <text style="font-family:Arial;font-size:10px;font-style:normal;font-weight:normal;" transform="translate(136.478125 39.86)"> slope 1.05</text>
    </g>
   </g>
  </g>
 </g>
 <defs>
  <clipPath id="p33ca910e40">
   <rect height="81.54" width="76.090909" x="27" y="12.96"/>
  </clipPath>
  <clipPath id="pc7ddb248b9">
   <rect height="81.54" width="76.090909" x="118.309091" y="12.96"/>
  </clipPath>
 </defs>
</svg>
