<?xml version="1.0" encoding="utf-8" standalone="no"?>
<!DOCTYPE svg PUBLIC "-//W3C//DTD SVG 1.1//EN"
  "http://www.w3.org/Graphics/SVG/1.1/DTD/svg11.dtd">
<!-- Created with matplotlib (http://matplotlib.org/) -->
<svg height="108pt" version="1.1" viewBox="0 0 216 108" width="216pt" xmlns="http://www.w3.org/2000/svg" xmlns:xlink="http://www.w3.org/1999/xlink">
 <defs>
  <style type="text/css">
*{stroke-linecap:butt;stroke-linejoin:round;}
  </style>
 </defs>
 <g id="figure_1">
  <g id="patch_1">
   <path d="M 0 108 
L 216 108 
L 216 0 
L 0 0 
z
" style="fill:#ffffff;"/>
  </g>
  <g id="axes_1">
   <g id="patch_2">
    <path d="M 27 94.5 
L 103.090909 94.5 
L 103.090909 12.96 
L 27 12.96 
z
" style="fill:#ffffff;"/>
   </g>
   <g id="LineCollection_1">
    <path clip-path="url(#pee43a8ce0d)" d="M 27.763846 80.438808 
L 34.660393 80.438808 
" style="fill:none;stroke:#000000;stroke-width:0.5;"/>
    <path clip-path="url(#pee43a8ce0d)" d="M 23.293988 75.865713 
L 36.392419 75.865713 
" style="fill:none;stroke:#000000;stroke-width:0.5;"/>
    <path clip-path="url(#pee43a8ce0d)" d="M 26.369386 81.21854 
L 30.100699 81.21854 
" style="fill:none;stroke:#000000;stroke-width:0.5;"/>
    <path clip-path="url(#pee43a8ce0d)" d="M 30.385084 60.444099 
L 35.02335 60.444099 
" style="fill:none;stroke:#000000;stroke-width:0.5;"/>
    <path clip-path="url(#pee43a8ce0d)" d="M 25.873191 86.528995 
L 32.062432 86.528995 
" style="fill:none;stroke:#000000;stroke-width:0.5;"/>
    <path clip-path="url(#pee43a8ce0d)" d="M 27.415881 77.71418 
L 36.92736 77.71418 
" style="fill:none;stroke:#000000;stroke-width:0.5;"/>
    <path clip-path="url(#pee43a8ce0d)" d="M 25.167388 57.523433 
L 34.244743 57.523433 
" style="fill:none;stroke:#000000;stroke-width:0.5;"/>
    <path clip-path="url(#pee43a8ce0d)" d="M 26.444884 75.462668 
L 40.575299 75.462668 
" style="fill:none;stroke:#000000;stroke-width:0.5;"/>
    <path clip-path="url(#pee43a8ce0d)" d="M 26.470838 82.945094 
L 28.259297 82.945094 
" style="fill:none;stroke:#000000;stroke-width:0.5;"/>
    <path clip-path="url(#pee43a8ce0d)" d="M 31.13955 38.902306 
L 47.856224 38.902306 
" style="fill:none;stroke:#000000;stroke-width:0.5;"/>
    <path clip-path="url(#pee43a8ce0d)" d="M 27 94.5 
L 27 94.5 
" style="fill:none;stroke:#000000;stroke-width:0.5;"/>
    <path clip-path="url(#pee43a8ce0d)" d="M 26.822493 29.137342 
L 56.698188 29.137342 
" style="fill:none;stroke:#000000;stroke-width:0.5;"/>
    <path clip-path="url(#pee43a8ce0d)" d="M 26.169775 74.786462 
L 30.853658 74.786462 
" style="fill:none;stroke:#000000;stroke-width:0.5;"/>
    <path clip-path="url(#pee43a8ce0d)" d="M 25.994584 87.276306 
L 29.392685 87.276306 
" style="fill:none;stroke:#000000;stroke-width:0.5;"/>
    <path clip-path="url(#pee43a8ce0d)" d="M 27.486754 71.801664 
L 42.244862 71.801664 
" style="fill:none;stroke:#000000;stroke-width:0.5;"/>
    <path clip-path="url(#pee43a8ce0d)" d="M 27.632077 82.103315 
L 30.876696 82.103315 
" style="fill:none;stroke:#000000;stroke-width:0.5;"/>
    <path clip-path="url(#pee43a8ce0d)" d="M 26.847781 75.709503 
L 35.108574 75.709503 
" style="fill:none;stroke:#000000;stroke-width:0.5;"/>
    <path clip-path="url(#pee43a8ce0d)" d="M 26.191487 91.148458 
L 28.924097 91.148458 
" style="fill:none;stroke:#000000;stroke-width:0.5;"/>
    <path clip-path="url(#pee43a8ce0d)" d="M 27.752546 74.967961 
L 32.20596 74.967961 
" style="fill:none;stroke:#000000;stroke-width:0.5;"/>
    <path clip-path="url(#pee43a8ce0d)" d="M 25.684291 76.264226 
L 37.27929 76.264226 
" style="fill:none;stroke:#000000;stroke-width:0.5;"/>
    <path clip-path="url(#pee43a8ce0d)" d="M 26.329242 78.434243 
L 36.142476 78.434243 
" style="fill:none;stroke:#000000;stroke-width:0.5;"/>
    <path clip-path="url(#pee43a8ce0d)" d="M 26.613862 80.054686 
L 31.447007 80.054686 
" style="fill:none;stroke:#000000;stroke-width:0.5;"/>
    <path clip-path="url(#pee43a8ce0d)" d="M 27.377524 69.21 
L 31.015255 69.21 
" style="fill:none;stroke:#000000;stroke-width:0.5;"/>
    <path clip-path="url(#pee43a8ce0d)" d="M 28.111613 73.801633 
L 40.747502 73.801633 
" style="fill:none;stroke:#000000;stroke-width:0.5;"/>
    <path clip-path="url(#pee43a8ce0d)" d="M 26.799238 83.322642 
L 29.480862 83.322642 
" style="fill:none;stroke:#000000;stroke-width:0.5;"/>
    <path clip-path="url(#pee43a8ce0d)" d="M 26.629189 68.16582 
L 35.999128 68.16582 
" style="fill:none;stroke:#000000;stroke-width:0.5;"/>
    <path clip-path="url(#pee43a8ce0d)" d="M 29.483785 68.339831 
L 33.778959 68.339831 
" style="fill:none;stroke:#000000;stroke-width:0.5;"/>
    <path clip-path="url(#pee43a8ce0d)" d="M 30.515877 60.931129 
L 45.47569 60.931129 
" style="fill:none;stroke:#000000;stroke-width:0.5;"/>
    <path clip-path="url(#pee43a8ce0d)" d="M 26.201187 56.536528 
L 35.725168 56.536528 
" style="fill:none;stroke:#000000;stroke-width:0.5;"/>
    <path clip-path="url(#pee43a8ce0d)" d="M 25.69547 87.581416 
L 31.645191 87.581416 
" style="fill:none;stroke:#000000;stroke-width:0.5;"/>
   </g>
   <g id="LineCollection_2">
    <path clip-path="url(#pee43a8ce0d)" d="M 31.212119 85.319753 
L 31.212119 75.557863 
" style="fill:none;stroke:#000000;stroke-width:0.5;"/>
    <path clip-path="url(#pee43a8ce0d)" d="M 29.843203 83.808193 
L 29.843203 67.923233 
" style="fill:none;stroke:#000000;stroke-width:0.5;"/>
    <path clip-path="url(#pee43a8ce0d)" d="M 28.235043 84.930683 
L 28.235043 77.506398 
" style="fill:none;stroke:#000000;stroke-width:0.5;"/>
    <path clip-path="url(#pee43a8ce0d)" d="M 32.704217 68.998264 
L 32.704217 51.889935 
" style="fill:none;stroke:#000000;stroke-width:0.5;"/>
    <path clip-path="url(#pee43a8ce0d)" d="M 28.967812 90.313829 
L 28.967812 82.74416 
" style="fill:none;stroke:#000000;stroke-width:0.5;"/>
    <path clip-path="url(#pee43a8ce0d)" d="M 32.171621 78.934892 
L 32.171621 76.493468 
" style="fill:none;stroke:#000000;stroke-width:0.5;"/>
    <path clip-path="url(#pee43a8ce0d)" d="M 29.706066 66.436669 
L 29.706066 48.610196 
" style="fill:none;stroke:#000000;stroke-width:0.5;"/>
    <path clip-path="url(#pee43a8ce0d)" d="M 33.510092 82.492657 
L 33.510092 68.432679 
" style="fill:none;stroke:#000000;stroke-width:0.5;"/>
    <path clip-path="url(#pee43a8ce0d)" d="M 27.365068 85.899239 
L 27.365068 79.990949 
" style="fill:none;stroke:#000000;stroke-width:0.5;"/>
    <path clip-path="url(#pee43a8ce0d)" d="M 39.497887 46.434888 
L 39.497887 31.369724 
" style="fill:none;stroke:#000000;stroke-width:0.5;"/>
    <path clip-path="url(#pee43a8ce0d)" d="M 27 94.5 
L 27 94.5 
" style="fill:none;stroke:#000000;stroke-width:0.5;"/>
    <path clip-path="url(#pee43a8ce0d)" d="M 41.76034 41.431827 
L 41.76034 16.842857 
" style="fill:none;stroke:#000000;stroke-width:0.5;"/>
    <path clip-path="url(#pee43a8ce0d)" d="M 28.511716 78.667675 
L 28.511716 70.905248 
" style="fill:none;stroke:#000000;stroke-width:0.5;"/>
    <path clip-path="url(#pee43a8ce0d)" d="M 27.693635 89.614374 
L 27.693635 84.938238 
" style="fill:none;stroke:#000000;stroke-width:0.5;"/>
    <path clip-path="url(#pee43a8ce0d)" d="M 34.865808 78.985785 
L 34.865808 64.617543 
" style="fill:none;stroke:#000000;stroke-width:0.5;"/>
    <path clip-path="url(#pee43a8ce0d)" d="M 29.254386 85.841886 
L 29.254386 78.364743 
" style="fill:none;stroke:#000000;stroke-width:0.5;"/>
    <path clip-path="url(#pee43a8ce0d)" d="M 30.978178 79.093449 
L 30.978178 72.325558 
" style="fill:none;stroke:#000000;stroke-width:0.5;"/>
    <path clip-path="url(#pee43a8ce0d)" d="M 27.557792 92.488046 
L 27.557792 89.80887 
" style="fill:none;stroke:#000000;stroke-width:0.5;"/>
    <path clip-path="url(#pee43a8ce0d)" d="M 29.979253 76.711249 
L 29.979253 73.224673 
" style="fill:none;stroke:#000000;stroke-width:0.5;"/>
    <path clip-path="url(#pee43a8ce0d)" d="M 31.48179 84.712807 
L 31.48179 67.815646 
" style="fill:none;stroke:#000000;stroke-width:0.5;"/>
    <path clip-path="url(#pee43a8ce0d)" d="M 31.235859 85.009137 
L 31.235859 71.85935 
" style="fill:none;stroke:#000000;stroke-width:0.5;"/>
    <path clip-path="url(#pee43a8ce0d)" d="M 29.030435 84.677306 
L 29.030435 75.432066 
" style="fill:none;stroke:#000000;stroke-width:0.5;"/>
    <path clip-path="url(#pee43a8ce0d)" d="M 29.19639 74.477206 
L 29.19639 63.942794 
" style="fill:none;stroke:#000000;stroke-width:0.5;"/>
    <path clip-path="url(#pee43a8ce0d)" d="M 34.429557 79.298178 
L 34.429557 68.305088 
" style="fill:none;stroke:#000000;stroke-width:0.5;"/>
    <path clip-path="url(#pee43a8ce0d)" d="M 28.14005 85.596428 
L 28.14005 81.048855 
" style="fill:none;stroke:#000000;stroke-width:0.5;"/>
    <path clip-path="url(#pee43a8ce0d)" d="M 31.314159 73.219561 
L 31.314159 63.112079 
" style="fill:none;stroke:#000000;stroke-width:0.5;"/>
    <path clip-path="url(#pee43a8ce0d)" d="M 31.631372 71.417414 
L 31.631372 65.262249 
" style="fill:none;stroke:#000000;stroke-width:0.5;"/>
    <path clip-path="url(#pee43a8ce0d)" d="M 37.995783 70.580791 
L 37.995783 51.281467 
" style="fill:none;stroke:#000000;stroke-width:0.5;"/>
    <path clip-path="url(#pee43a8ce0d)" d="M 30.963178 65.595966 
L 30.963178 47.477089 
" style="fill:none;stroke:#000000;stroke-width:0.5;"/>
    <path clip-path="url(#pee43a8ce0d)" d="M 28.67033 90.970816 
L 28.67033 84.192016 
" style="fill:none;stroke:#000000;stroke-width:0.5;"/>
   </g>
   <g id="line2d_1">
    <path clip-path="url(#pee43a8ce0d)" d="M 27 86.992265 
L 27.768595 84.47762 
L 28.53719 81.962975 
L 29.305785 79.448329 
L 30.07438 76.933684 
L 30.842975 74.419038 
L 31.61157 71.904393 
L 32.380165 69.389747 
L 33.14876 66.875102 
L 33.917355 64.360457 
L 34.68595 61.845811 
L 35.454545 59.331166 
L 36.22314 56.81652 
L 36.991736 54.301875 
L 37.760331 51.78723 
L 38.528926 49.272584 
L 39.297521 46.757939 
L 40.066116 44.243293 
L 40.834711 41.728648 
L 41.603306 39.214003 
L 42.371901 36.699357 
L 43.140496 34.184712 
L 43.909091 31.670066 
L 44.677686 29.155421 
L 45.446281 26.640775 
L 46.214876 24.12613 
L 46.983471 21.611485 
L 47.752066 19.096839 
L 48.520661 16.582194 
L 49.289256 14.067548 
L 50.057851 11.552903 
L 50.826446 9.038258 
L 51.595041 6.523612 
L 52.363636 4.008967 
L 53.132231 1.494321 
L 53.894614 -1 
" style="fill:none;stroke:#000000;stroke-dasharray:1.85,0.8;stroke-dashoffset:0;stroke-width:0.5;"/>
   </g>
   <g id="line2d_2">
    <defs>
     <path d="M 0 3 
C 0.795609 3 1.55874 2.683901 2.12132 2.12132 
C 2.683901 1.55874 3 0.795609 3 0 
C 3 -0.795609 2.683901 -1.55874 2.12132 -2.12132 
C 1.55874 -2.683901 0.795609 -3 0 -3 
C -0.795609 -3 -1.55874 -2.683901 -2.12132 -2.12132 
C -2.683901 -1.55874 -3 -0.795609 -3 0 
C -3 0.795609 -2.683901 1.55874 -2.12132 2.12132 
C -1.55874 2.683901 -0.795609 3 0 3 
z
" id="m5b3901f040" style="stroke:#000000;"/>
    </defs>
    <g clip-path="url(#pee43a8ce0d)">
     <use style="stroke:#000000;" x="31.212119" xlink:href="#m5b3901f040" y="80.438808"/>
     <use style="stroke:#000000;" x="29.843203" xlink:href="#m5b3901f040" y="75.865713"/>
     <use style="stroke:#000000;" x="28.235043" xlink:href="#m5b3901f040" y="81.21854"/>
     <use style="stroke:#000000;" x="32.704217" xlink:href="#m5b3901f040" y="60.444099"/>
     <use style="stroke:#000000;" x="28.967812" xlink:href="#m5b3901f040" y="86.528995"/>
     <use style="stroke:#000000;" x="32.171621" xlink:href="#m5b3901f040" y="77.71418"/>
     <use style="stroke:#000000;" x="29.706066" xlink:href="#m5b3901f040" y="57.523433"/>
     <use style="stroke:#000000;" x="33.510092" xlink:href="#m5b3901f040" y="75.462668"/>
     <use style="stroke:#000000;" x="27.365068" xlink:href="#m5b3901f040" y="82.945094"/>
     <use style="stroke:#000000;" x="39.497887" xlink:href="#m5b3901f040" y="38.902306"/>
     <use style="stroke:#000000;" x="27" xlink:href="#m5b3901f040" y="94.5"/>
     <use style="stroke:#000000;" x="41.76034" xlink:href="#m5b3901f040" y="29.137342"/>
     <use style="stroke:#000000;" x="28.511716" xlink:href="#m5b3901f040" y="74.786462"/>
     <use style="stroke:#000000;" x="27.693635" xlink:href="#m5b3901f040" y="87.276306"/>
     <use style="stroke:#000000;" x="34.865808" xlink:href="#m5b3901f040" y="71.801664"/>
     <use style="stroke:#000000;" x="29.254386" xlink:href="#m5b3901f040" y="82.103315"/>
     <use style="stroke:#000000;" x="30.978178" xlink:href="#m5b3901f040" y="75.709503"/>
     <use style="stroke:#000000;" x="27.557792" xlink:href="#m5b3901f040" y="91.148458"/>
     <use style="stroke:#000000;" x="29.979253" xlink:href="#m5b3901f040" y="74.967961"/>
     <use style="stroke:#000000;" x="31.48179" xlink:href="#m5b3901f040" y="76.264226"/>
     <use style="stroke:#000000;" x="31.235859" xlink:href="#m5b3901f040" y="78.434243"/>
     <use style="stroke:#000000;" x="29.030435" xlink:href="#m5b3901f040" y="80.054686"/>
     <use style="stroke:#000000;" x="29.19639" xlink:href="#m5b3901f040" y="69.21"/>
     <use style="stroke:#000000;" x="34.429557" xlink:href="#m5b3901f040" y="73.801633"/>
     <use style="stroke:#000000;" x="28.14005" xlink:href="#m5b3901f040" y="83.322642"/>
     <use style="stroke:#000000;" x="31.314159" xlink:href="#m5b3901f040" y="68.16582"/>
     <use style="stroke:#000000;" x="31.631372" xlink:href="#m5b3901f040" y="68.339831"/>
     <use style="stroke:#000000;" x="37.995783" xlink:href="#m5b3901f040" y="60.931129"/>
     <use style="stroke:#000000;" x="30.963178" xlink:href="#m5b3901f040" y="56.536528"/>
     <use style="stroke:#000000;" x="28.67033" xlink:href="#m5b3901f040" y="87.581416"/>
    </g>
   </g>
   <g id="patch_3">
    <path d="M 27 94.5 
L 27 12.96 
" style="fill:none;stroke:#000000;stroke-linecap:square;stroke-linejoin:miter;"/>
   </g>
   <g id="patch_4">
    <path d="M 27 94.5 
L 103.090909 94.5 
" style="fill:none;stroke:#000000;stroke-linecap:square;stroke-linejoin:miter;"/>
   </g>
   <g id="matplotlib.axis_1">
    <g id="xtick_1">
     <g id="line2d_3"/>
     <g id="text_1">
      <text style="font-family:Arial;font-size:8px;font-style:normal;font-weight:normal;text-anchor:middle;" transform="rotate(-0, 27, 103.72625)" x="27" y="103.72625">0</text>
     </g>
    </g>
    <g id="xtick_2">
     <g id="line2d_4"/>
     <g id="text_2">
      <text style="font-family:Arial;font-size:8px;font-style:normal;font-weight:normal;text-anchor:middle;" transform="rotate(-0, 52.564887, 103.72625)" x="52.564887" y="103.72625">5</text>
     </g>
    </g>
    <g id="xtick_3">
     <g id="line2d_5"/>
     <g id="text_3">
      <text style="font-family:Arial;font-size:8px;font-style:normal;font-weight:normal;text-anchor:middle;" transform="rotate(-0, 78.129775, 103.72625)" x="78.129775" y="103.72625">10</text>
     </g>
    </g>
    <g id="text_4">
     <text style="font-family:Arial;font-size:10px;font-style:normal;font-weight:normal;text-anchor:middle;" transform="rotate(-0, 65.045455, 116.474063)" x="65.045455" y="116.474063">Exc</text>
    </g>
   </g>
   <g id="matplotlib.axis_2">
    <g id="ytick_1">
     <g id="line2d_6"/>
     <g id="text_5">
      <text style="font-family:Arial;font-size:8px;font-style:normal;font-weight:normal;text-anchor:end;" transform="rotate(-0, 23.5, 97.363125)" x="23.5" y="97.363125">0</text>
     </g>
    </g>
    <g id="ytick_2">
     <g id="line2d_7"/>
     <g id="text_6">
      <text style="font-family:Arial;font-size:8px;font-style:normal;font-weight:normal;text-anchor:end;" transform="rotate(-0, 23.5, 69.967462)" x="23.5" y="69.967462">5</text>
     </g>
    </g>
    <g id="ytick_3">
     <g id="line2d_8"/>
     <g id="text_7">
      <text style="font-family:Arial;font-size:8px;font-style:normal;font-weight:normal;text-anchor:end;" transform="rotate(-0, 23.5, 42.571799)" x="23.5" y="42.571799">10</text>
     </g>
    </g>
    <g id="text_8">
     <text style="font-family:Arial;font-size:10px;font-style:normal;font-weight:normal;text-anchor:middle;" transform="rotate(-90, 8.615, 53.73)" x="8.615" y="53.73">Inh</text>
    </g>
   </g>
   <g id="legend_1">
    <g id="line2d_9">
     <path d="M 36 75.622656 
L 56 75.622656 
" style="fill:none;stroke:#000000;stroke-dasharray:1.85,0.8;stroke-dashoffset:0;stroke-width:0.5;"/>
    </g>
    <g id="line2d_10"/>
    <g id="text_9">
     <!-- $R^2$ 0.67 -->
     <g transform="translate(64 72.875)">
      <text>
       <tspan style="font-family:DejaVu Sans;font-size:10px;font-style:oblique;font-weight:oblique;" x="0" y="-0.9765625">R</tspan>
       <tspan style="font-family:DejaVu Sans;font-size:7px;font-style:book;font-weight:book;" x="7.650794" y="-4.8046875">2</tspan>
       <tspan style="font-family:Arial;font-size:10px;font-style:regular;font-weight:regular;" x="12.377845 15.156165 20.717689 23.496009 29.057533" y="-0.9765625"> 0.67</tspan>
      </text>
     </g>
     <text style="font-family:Arial;font-size:10px;font-style:normal;font-weight:normal;" transform="translate(64 83.4875)"> slope 3.05</text>
    </g>
   </g>
  </g>
  <g id="axes_2">
   <g id="patch_5">
    <path d="M 118.309091 94.5 
L 194.4 94.5 
L 194.4 12.96 
L 118.309091 12.96 
z
" style="fill:#ffffff;"/>
   </g>
   <g id="PathCollection_1">
    <defs>
     <path d="M 0 2.44949 
C 0.649612 2.44949 1.272706 2.191396 1.732051 1.732051 
C 2.191396 1.272706 2.44949 0.649612 2.44949 0 
C 2.44949 -0.649612 2.191396 -1.272706 1.732051 -1.732051 
C 1.272706 -2.191396 0.649612 -2.44949 0 -2.44949 
C -0.649612 -2.44949 -1.272706 -2.191396 -1.732051 -1.732051 
C -2.191396 -1.272706 -2.44949 -0.649612 -2.44949 0 
C -2.44949 0.649612 -2.191396 1.272706 -1.732051 1.732051 
C -1.272706 2.191396 -0.649612 2.44949 0 2.44949 
z
" id="m885b1c8f1c" style="stroke:#000000;"/>
    </defs>
    <g clip-path="url(#pa4d0620d1d)">
     <use style="stroke:#000000;" x="134.941599" xlink:href="#m885b1c8f1c" y="70.957101"/>
     <use style="stroke:#000000;" x="149.898777" xlink:href="#m885b1c8f1c" y="56.189999"/>
     <use style="stroke:#000000;" x="127.307955" xlink:href="#m885b1c8f1c" y="76.594738"/>
     <use style="stroke:#000000;" x="129.495266" xlink:href="#m885b1c8f1c" y="53.23958"/>
     <use style="stroke:#000000;" x="133.235778" xlink:href="#m885b1c8f1c" y="76.244113"/>
     <use style="stroke:#000000;" x="141.248072" xlink:href="#m885b1c8f1c" y="88.61198"/>
     <use style="stroke:#000000;" x="140.201087" xlink:href="#m885b1c8f1c" y="51.507622"/>
     <use style="stroke:#000000;" x="152.387631" xlink:href="#m885b1c8f1c" y="60.591337"/>
     <use style="stroke:#000000;" x="122.622344" xlink:href="#m885b1c8f1c" y="80.250885"/>
     <use style="stroke:#000000;" x="158.624948" xlink:href="#m885b1c8f1c" y="58.167112"/>
     <use style="stroke:#000000;" x="118.309091" xlink:href="#m885b1c8f1c" y="94.5"/>
     <use style="stroke:#000000;" x="190.360764" xlink:href="#m885b1c8f1c" y="35.198406"/>
     <use style="stroke:#000000;" x="129.605281" xlink:href="#m885b1c8f1c" y="75.779234"/>
     <use style="stroke:#000000;" x="126.504344" xlink:href="#m885b1c8f1c" y="83.222491"/>
     <use style="stroke:#000000;" x="153.901446" xlink:href="#m885b1c8f1c" y="59.84789"/>
     <use style="stroke:#000000;" x="126.134189" xlink:href="#m885b1c8f1c" y="76.46726"/>
     <use style="stroke:#000000;" x="138.231771" xlink:href="#m885b1c8f1c" y="78.177774"/>
     <use style="stroke:#000000;" x="124.899369" xlink:href="#m885b1c8f1c" y="88.03859"/>
     <use style="stroke:#000000;" x="129.049458" xlink:href="#m885b1c8f1c" y="86.091373"/>
     <use style="stroke:#000000;" x="146.272928" xlink:href="#m885b1c8f1c" y="53.748857"/>
     <use style="stroke:#000000;" x="141.975816" xlink:href="#m885b1c8f1c" y="62.786456"/>
     <use style="stroke:#000000;" x="129.965259" xlink:href="#m885b1c8f1c" y="72.203115"/>
     <use style="stroke:#000000;" x="127.082262" xlink:href="#m885b1c8f1c" y="69.093997"/>
     <use style="stroke:#000000;" x="148.783258" xlink:href="#m885b1c8f1c" y="67.987795"/>
     <use style="stroke:#000000;" x="124.776405" xlink:href="#m885b1c8f1c" y="83.532548"/>
     <use style="stroke:#000000;" x="140.906717" xlink:href="#m885b1c8f1c" y="70.12363"/>
     <use style="stroke:#000000;" x="128.667827" xlink:href="#m885b1c8f1c" y="79.655493"/>
     <use style="stroke:#000000;" x="154.387902" xlink:href="#m885b1c8f1c" y="47.955527"/>
     <use style="stroke:#000000;" x="141.27822" xlink:href="#m885b1c8f1c" y="50.802426"/>
     <use style="stroke:#000000;" x="132.658124" xlink:href="#m885b1c8f1c" y="78.151464"/>
    </g>
   </g>
   <g id="line2d_11">
    <path clip-path="url(#pa4d0620d1d)" d="M 118.309091 84.555867 
L 119.077686 83.972793 
L 119.846281 83.389718 
L 120.614876 82.806644 
L 121.383471 82.223569 
L 122.152066 81.640495 
L 122.920661 81.05742 
L 123.689256 80.474346 
L 124.457851 79.891271 
L 125.226446 79.308197 
L 125.995041 78.725122 
L 126.763636 78.142048 
L 127.532231 77.558973 
L 128.300826 76.975899 
L 129.069421 76.392824 
L 129.838017 75.80975 
L 130.606612 75.226675 
L 131.375207 74.643601 
L 132.143802 74.060526 
L 132.912397 73.477452 
L 133.680992 72.894377 
L 134.449587 72.311303 
L 135.218182 71.728228 
L 135.986777 71.145154 
L 136.755372 70.562079 
L 137.523967 69.979005 
L 138.292562 69.39593 
L 139.061157 68.812856 
L 139.829752 68.229781 
L 140.598347 67.646707 
L 141.366942 67.063632 
L 142.135537 66.480557 
L 142.904132 65.897483 
L 143.672727 65.314408 
L 144.441322 64.731334 
L 145.209917 64.148259 
L 145.978512 63.565185 
L 146.747107 62.98211 
L 147.515702 62.399036 
L 148.284298 61.815961 
L 149.052893 61.232887 
L 149.821488 60.649812 
L 150.590083 60.066738 
L 151.358678 59.483663 
L 152.127273 58.900589 
L 152.895868 58.317514 
L 153.664463 57.73444 
L 154.433058 57.151365 
L 155.201653 56.568291 
L 155.970248 55.985216 
L 156.738843 55.402142 
L 157.507438 54.819067 
L 158.276033 54.235993 
L 159.044628 53.652918 
L 159.813223 53.069844 
L 160.581818 52.486769 
L 161.350413 51.903695 
L 162.119008 51.32062 
L 162.887603 50.737546 
L 163.656198 50.154471 
L 164.424793 49.571397 
L 165.193388 48.988322 
L 165.961983 48.405248 
L 166.730579 47.822173 
L 167.499174 47.239098 
L 168.267769 46.656024 
L 169.036364 46.072949 
L 169.804959 45.489875 
L 170.573554 44.9068 
L 171.342149 44.323726 
L 172.110744 43.740651 
L 172.879339 43.157577 
L 173.647934 42.574502 
L 174.416529 41.991428 
L 175.185124 41.408353 
L 175.953719 40.825279 
L 176.722314 40.242204 
L 177.490909 39.65913 
L 178.259504 39.076055 
L 179.028099 38.492981 
L 179.796694 37.909906 
L 180.565289 37.326832 
L 181.333884 36.743757 
L 182.102479 36.160683 
L 182.871074 35.577608 
L 183.639669 34.994534 
L 184.408264 34.411459 
L 185.17686 33.828385 
L 185.945455 33.24531 
L 186.71405 32.662236 
L 187.482645 32.079161 
L 188.25124 31.496087 
L 189.019835 30.913012 
L 189.78843 30.329938 
L 190.557025 29.746863 
L 191.32562 29.163788 
L 192.094215 28.580714 
L 192.86281 27.997639 
L 193.631405 27.414565 
L 194.4 26.83149 
" style="fill:none;stroke:#000000;stroke-dasharray:1.85,0.8;stroke-dashoffset:0;stroke-width:0.5;"/>
   </g>
   <g id="patch_6">
    <path d="M 118.309091 94.5 
L 118.309091 12.96 
" style="fill:none;stroke:#000000;stroke-linecap:square;stroke-linejoin:miter;"/>
   </g>
   <g id="patch_7">
    <path d="M 118.309091 94.5 
L 194.4 94.5 
" style="fill:none;stroke:#000000;stroke-linecap:square;stroke-linejoin:miter;"/>
   </g>
   <g id="matplotlib.axis_3">
    <g id="xtick_4">
     <g id="line2d_12"/>
     <g id="text_10">
      <text style="font-family:Arial;font-size:8px;font-style:normal;font-weight:normal;text-anchor:middle;" transform="rotate(-0, 118.309091, 103.72625)" x="118.309091" y="103.72625">0</text>
     </g>
    </g>
    <g id="xtick_5">
     <g id="line2d_13"/>
     <g id="text_11">
      <text style="font-family:Arial;font-size:8px;font-style:normal;font-weight:normal;text-anchor:middle;" transform="rotate(-0, 167.633275, 103.72625)" x="167.633275" y="103.72625">2</text>
     </g>
    </g>
    <g id="text_12">
     <!-- $\sigma$(Exc) -->
     <g transform="translate(141.504545 116.61625)">
      <text>
       <tspan style="font-family:DejaVu Sans;font-size:10px;font-style:oblique;font-weight:oblique;" x="0" y="-0.71875">σ</tspan>
       <tspan style="font-family:Arial;font-size:10px;font-style:regular;font-weight:regular;" x="6.337891 9.667969 16.337891 21.337891 26.337891" y="-0.71875">(Exc)</tspan>
      </text>
     </g>
    </g>
   </g>
   <g id="matplotlib.axis_4">
    <g id="ytick_4">
     <g id="line2d_14"/>
     <g id="text_13">
      <text style="font-family:Arial;font-size:8px;font-style:normal;font-weight:normal;text-anchor:end;" transform="rotate(-0, 114.809091, 97.363125)" x="114.809091" y="97.363125">0</text>
     </g>
    </g>
    <g id="ytick_5">
     <g id="line2d_15"/>
     <g id="text_14">
      <text style="font-family:Arial;font-size:8px;font-style:normal;font-weight:normal;text-anchor:end;" transform="rotate(-0, 114.809091, 70.934909)" x="114.809091" y="70.934909">1</text>
     </g>
    </g>
    <g id="ytick_6">
     <g id="line2d_16"/>
     <g id="text_15">
      <text style="font-family:Arial;font-size:8px;font-style:normal;font-weight:normal;text-anchor:end;" transform="rotate(-0, 114.809091, 44.506693)" x="114.809091" y="44.506693">2</text>
     </g>
    </g>
    <g id="ytick_7">
     <g id="line2d_17"/>
     <g id="text_16">
      <text style="font-family:Arial;font-size:8px;font-style:normal;font-weight:normal;text-anchor:end;" transform="rotate(-0, 114.809091, 18.078476)" x="114.809091" y="18.078476">3</text>
     </g>
    </g>
    <g id="text_17">
     <!-- $\sigma$(Inh) -->
     <g transform="translate(104.160341 67.18)rotate(-90)">
      <text>
       <tspan style="font-family:DejaVu Sans;font-size:10px;font-style:oblique;font-weight:oblique;" x="0" y="-0.71875">σ</tspan>
       <tspan style="font-family:Arial;font-size:10px;font-style:regular;font-weight:regular;" x="6.337891 9.667969 12.446289 18.007812 23.569336" y="-0.71875">(Inh)</tspan>
      </text>
     </g>
    </g>
   </g>
   <g id="legend_2">
    <g id="line2d_18">
     <path d="M 108.478125 31.995156 
L 128.478125 31.995156 
" style="fill:none;stroke:#000000;stroke-dasharray:1.85,0.8;stroke-dashoffset:0;stroke-width:0.5;"/>
    </g>
    <g id="line2d_19"/>
    <g id="text_18">
     <!-- $R^2$ 0.60 -->
     <g transform="translate(136.478125 29.2475)">
      <text>
       <tspan style="font-family:DejaVu Sans;font-size:10px;font-style:oblique;font-weight:oblique;" x="0" y="-0.9765625">R</tspan>
       <tspan style="font-family:DejaVu Sans;font-size:7px;font-style:book;font-weight:book;" x="7.650794" y="-4.8046875">2</tspan>
       <tspan style="font-family:Arial;font-size:10px;font-style:regular;font-weight:regular;" x="12.377845 15.156165 20.717689 23.496009 29.057533" y="-0.9765625"> 0.60</tspan>
      </text>
     </g>
     <text style="font-family:Arial;font-size:10px;font-style:normal;font-weight:normal;" transform="translate(136.478125 39.86)"> slope 0.71</text>
    </g>
   </g>
  </g>
 </g>
 <defs>
  <clipPath id="pee43a8ce0d">
   <rect height="81.54" width="76.090909" x="27" y="12.96"/>
  </clipPath>
  <clipPath id="pa4d0620d1d">
   <rect height="81.54" width="76.090909" x="118.309091" y="12.96"/>
  </clipPath>
 </defs>
</svg>
