<?xml version="1.0" encoding="utf-8" standalone="no"?>
<!DOCTYPE svg PUBLIC "-//W3C//DTD SVG 1.1//EN"
  "http://www.w3.org/Graphics/SVG/1.1/DTD/svg11.dtd">
<!-- Created with matplotlib (http://matplotlib.org/) -->
<svg height="108pt" version="1.1" viewBox="0 0 216 108" width="216pt" xmlns="http://www.w3.org/2000/svg" xmlns:xlink="http://www.w3.org/1999/xlink">
 <defs>
  <style type="text/css">
*{stroke-linecap:butt;stroke-linejoin:round;}
  </style>
 </defs>
 <g id="figure_1">
  <g id="patch_1">
   <path d="M 0 108 
L 216 108 
L 216 0 
L 0 0 
z
" style="fill:#ffffff;"/>
  </g>
  <g id="axes_1">
   <g id="patch_2">
    <path d="M 27 94.5 
L 103.090909 94.5 
L 103.090909 12.96 
L 27 12.96 
z
" style="fill:#ffffff;"/>
   </g>
   <g id="LineCollection_1">
    <path clip-path="url(#p217c56e4d4)" d="M 26.497151 89.794484 
L 31.959757 89.794484 
" style="fill:none;stroke:#000000;stroke-width:0.5;"/>
    <path clip-path="url(#p217c56e4d4)" d="M 28.377777 80.481084 
L 34.314676 80.481084 
" style="fill:none;stroke:#000000;stroke-width:0.5;"/>
    <path clip-path="url(#p217c56e4d4)" d="M 25.206784 78.192054 
L 35.278682 78.192054 
" style="fill:none;stroke:#000000;stroke-width:0.5;"/>
    <path clip-path="url(#p217c56e4d4)" d="M 26.295777 65.786155 
L 33.462969 65.786155 
" style="fill:none;stroke:#000000;stroke-width:0.5;"/>
    <path clip-path="url(#p217c56e4d4)" d="M 25.986623 82.627611 
L 30.9071 82.627611 
" style="fill:none;stroke:#000000;stroke-width:0.5;"/>
    <path clip-path="url(#p217c56e4d4)" d="M 28.711261 89.347721 
L 29.754608 89.347721 
" style="fill:none;stroke:#000000;stroke-width:0.5;"/>
    <path clip-path="url(#p217c56e4d4)" d="M 26.819495 80.969032 
L 30.962883 80.969032 
" style="fill:none;stroke:#000000;stroke-width:0.5;"/>
    <path clip-path="url(#p217c56e4d4)" d="M 26.042846 80.185665 
L 34.979604 80.185665 
" style="fill:none;stroke:#000000;stroke-width:0.5;"/>
    <path clip-path="url(#p217c56e4d4)" d="M 25.435758 73.608088 
L 36.113429 73.608088 
" style="fill:none;stroke:#000000;stroke-width:0.5;"/>
    <path clip-path="url(#p217c56e4d4)" d="M 26.992369 72.460079 
L 43.085731 72.460079 
" style="fill:none;stroke:#000000;stroke-width:0.5;"/>
    <path clip-path="url(#p217c56e4d4)" d="M 24.499328 67.450677 
L 37.867234 67.450677 
" style="fill:none;stroke:#000000;stroke-width:0.5;"/>
    <path clip-path="url(#p217c56e4d4)" d="M 25.962856 75.940563 
L 35.165157 75.940563 
" style="fill:none;stroke:#000000;stroke-width:0.5;"/>
    <path clip-path="url(#p217c56e4d4)" d="M 29.176732 62.106789 
L 47.042424 62.106789 
" style="fill:none;stroke:#000000;stroke-width:0.5;"/>
    <path clip-path="url(#p217c56e4d4)" d="M 29.465253 74.866412 
L 41.023869 74.866412 
" style="fill:none;stroke:#000000;stroke-width:0.5;"/>
    <path clip-path="url(#p217c56e4d4)" d="M 25.160166 83.122624 
L 38.268184 83.122624 
" style="fill:none;stroke:#000000;stroke-width:0.5;"/>
    <path clip-path="url(#p217c56e4d4)" d="M 28.213964 73.734365 
L 36.630495 73.734365 
" style="fill:none;stroke:#000000;stroke-width:0.5;"/>
    <path clip-path="url(#p217c56e4d4)" d="M 24.713596 69.423743 
L 37.937658 69.423743 
" style="fill:none;stroke:#000000;stroke-width:0.5;"/>
    <path clip-path="url(#p217c56e4d4)" d="M 31.254531 29.707256 
L 45.577736 29.707256 
" style="fill:none;stroke:#000000;stroke-width:0.5;"/>
    <path clip-path="url(#p217c56e4d4)" d="M 26.762519 75.972778 
L 30.021889 75.972778 
" style="fill:none;stroke:#000000;stroke-width:0.5;"/>
    <path clip-path="url(#p217c56e4d4)" d="M 27.814784 44.495845 
L 32.265601 44.495845 
" style="fill:none;stroke:#000000;stroke-width:0.5;"/>
    <path clip-path="url(#p217c56e4d4)" d="M 26.517311 86.722346 
L 30.137992 86.722346 
" style="fill:none;stroke:#000000;stroke-width:0.5;"/>
    <path clip-path="url(#p217c56e4d4)" d="M 26.009254 71.264085 
L 33.607989 71.264085 
" style="fill:none;stroke:#000000;stroke-width:0.5;"/>
    <path clip-path="url(#p217c56e4d4)" d="M 26.124738 61.335723 
L 39.859103 61.335723 
" style="fill:none;stroke:#000000;stroke-width:0.5;"/>
    <path clip-path="url(#p217c56e4d4)" d="M 23.760451 51.411365 
L 42.037032 51.411365 
" style="fill:none;stroke:#000000;stroke-width:0.5;"/>
    <path clip-path="url(#p217c56e4d4)" d="M 24.353227 81.946096 
L 34.290914 81.946096 
" style="fill:none;stroke:#000000;stroke-width:0.5;"/>
    <path clip-path="url(#p217c56e4d4)" d="M 29.596606 47.594077 
L 54.157771 47.594077 
" style="fill:none;stroke:#000000;stroke-width:0.5;"/>
    <path clip-path="url(#p217c56e4d4)" d="M 31.586901 20.840492 
L 60.866736 20.840492 
" style="fill:none;stroke:#000000;stroke-width:0.5;"/>
    <path clip-path="url(#p217c56e4d4)" d="M 23.185827 53.759251 
L 50.662645 53.759251 
" style="fill:none;stroke:#000000;stroke-width:0.5;"/>
    <path clip-path="url(#p217c56e4d4)" d="M 26.177538 71.931297 
L 42.336348 71.931297 
" style="fill:none;stroke:#000000;stroke-width:0.5;"/>
    <path clip-path="url(#p217c56e4d4)" d="M 29.154072 33.104874 
L 36.847484 33.104874 
" style="fill:none;stroke:#000000;stroke-width:0.5;"/>
   </g>
   <g id="LineCollection_2">
    <path clip-path="url(#p217c56e4d4)" d="M 29.228454 92.682042 
L 29.228454 86.906925 
" style="fill:none;stroke:#000000;stroke-width:0.5;"/>
    <path clip-path="url(#p217c56e4d4)" d="M 31.346227 85.383171 
L 31.346227 75.578997 
" style="fill:none;stroke:#000000;stroke-width:0.5;"/>
    <path clip-path="url(#p217c56e4d4)" d="M 30.242733 83.659775 
L 30.242733 72.724333 
" style="fill:none;stroke:#000000;stroke-width:0.5;"/>
    <path clip-path="url(#p217c56e4d4)" d="M 29.879373 72.081648 
L 29.879373 59.490662 
" style="fill:none;stroke:#000000;stroke-width:0.5;"/>
    <path clip-path="url(#p217c56e4d4)" d="M 28.446861 86.515252 
L 28.446861 78.73997 
" style="fill:none;stroke:#000000;stroke-width:0.5;"/>
    <path clip-path="url(#p217c56e4d4)" d="M 29.232935 91.050875 
L 29.232935 87.644568 
" style="fill:none;stroke:#000000;stroke-width:0.5;"/>
    <path clip-path="url(#p217c56e4d4)" d="M 28.891189 83.929844 
L 28.891189 78.008221 
" style="fill:none;stroke:#000000;stroke-width:0.5;"/>
    <path clip-path="url(#p217c56e4d4)" d="M 30.511225 85.115934 
L 30.511225 75.255397 
" style="fill:none;stroke:#000000;stroke-width:0.5;"/>
    <path clip-path="url(#p217c56e4d4)" d="M 30.774593 77.781113 
L 30.774593 69.435062 
" style="fill:none;stroke:#000000;stroke-width:0.5;"/>
    <path clip-path="url(#p217c56e4d4)" d="M 35.03905 79.930695 
L 35.03905 64.989463 
" style="fill:none;stroke:#000000;stroke-width:0.5;"/>
    <path clip-path="url(#p217c56e4d4)" d="M 31.183281 71.701346 
L 31.183281 63.200007 
" style="fill:none;stroke:#000000;stroke-width:0.5;"/>
    <path clip-path="url(#p217c56e4d4)" d="M 30.564006 79.950291 
L 30.564006 71.930836 
" style="fill:none;stroke:#000000;stroke-width:0.5;"/>
    <path clip-path="url(#p217c56e4d4)" d="M 38.109578 67.474655 
L 38.109578 56.738924 
" style="fill:none;stroke:#000000;stroke-width:0.5;"/>
    <path clip-path="url(#p217c56e4d4)" d="M 35.244561 79.049289 
L 35.244561 70.683536 
" style="fill:none;stroke:#000000;stroke-width:0.5;"/>
    <path clip-path="url(#p217c56e4d4)" d="M 31.714175 89.51436 
L 31.714175 76.730888 
" style="fill:none;stroke:#000000;stroke-width:0.5;"/>
    <path clip-path="url(#p217c56e4d4)" d="M 32.42223 78.780812 
L 32.42223 68.687918 
" style="fill:none;stroke:#000000;stroke-width:0.5;"/>
    <path clip-path="url(#p217c56e4d4)" d="M 31.325627 79.323891 
L 31.325627 59.523595 
" style="fill:none;stroke:#000000;stroke-width:0.5;"/>
    <path clip-path="url(#p217c56e4d4)" d="M 38.416133 36.84568 
L 38.416133 22.568832 
" style="fill:none;stroke:#000000;stroke-width:0.5;"/>
    <path clip-path="url(#p217c56e4d4)" d="M 28.392204 80.267019 
L 28.392204 71.678536 
" style="fill:none;stroke:#000000;stroke-width:0.5;"/>
    <path clip-path="url(#p217c56e4d4)" d="M 30.040192 48.406415 
L 30.040192 40.585276 
" style="fill:none;stroke:#000000;stroke-width:0.5;"/>
    <path clip-path="url(#p217c56e4d4)" d="M 28.327651 88.826617 
L 28.327651 84.618076 
" style="fill:none;stroke:#000000;stroke-width:0.5;"/>
    <path clip-path="url(#p217c56e4d4)" d="M 29.808621 77.343661 
L 29.808621 65.18451 
" style="fill:none;stroke:#000000;stroke-width:0.5;"/>
    <path clip-path="url(#p217c56e4d4)" d="M 32.991921 64.789763 
L 32.991921 57.881684 
" style="fill:none;stroke:#000000;stroke-width:0.5;"/>
    <path clip-path="url(#p217c56e4d4)" d="M 32.898741 56.29705 
L 32.898741 46.52568 
" style="fill:none;stroke:#000000;stroke-width:0.5;"/>
    <path clip-path="url(#p217c56e4d4)" d="M 29.32207 89.070573 
L 29.32207 74.821619 
" style="fill:none;stroke:#000000;stroke-width:0.5;"/>
    <path clip-path="url(#p217c56e4d4)" d="M 41.877188 54.9723 
L 41.877188 40.215854 
" style="fill:none;stroke:#000000;stroke-width:0.5;"/>
    <path clip-path="url(#p217c56e4d4)" d="M 46.226819 24.924696 
L 46.226819 16.756288 
" style="fill:none;stroke:#000000;stroke-width:0.5;"/>
    <path clip-path="url(#p217c56e4d4)" d="M 36.924236 66.705062 
L 36.924236 40.81344 
" style="fill:none;stroke:#000000;stroke-width:0.5;"/>
    <path clip-path="url(#p217c56e4d4)" d="M 34.256943 79.819308 
L 34.256943 64.043286 
" style="fill:none;stroke:#000000;stroke-width:0.5;"/>
    <path clip-path="url(#p217c56e4d4)" d="M 33.000778 42.43705 
L 33.000778 23.772699 
" style="fill:none;stroke:#000000;stroke-width:0.5;"/>
   </g>
   <g id="line2d_1">
    <path clip-path="url(#p217c56e4d4)" d="M 27 84.872488 
L 27.768595 82.492568 
L 28.53719 80.112648 
L 29.305785 77.732728 
L 30.07438 75.352808 
L 30.842975 72.972888 
L 31.61157 70.592968 
L 32.380165 68.213049 
L 33.14876 65.833129 
L 33.917355 63.453209 
L 34.68595 61.073289 
L 35.454545 58.693369 
L 36.22314 56.313449 
L 36.991736 53.933529 
L 37.760331 51.55361 
L 38.528926 49.17369 
L 39.297521 46.79377 
L 40.066116 44.41385 
L 40.834711 42.03393 
L 41.603306 39.65401 
L 42.371901 37.27409 
L 43.140496 34.89417 
L 43.909091 32.514251 
L 44.677686 30.134331 
L 45.446281 27.754411 
L 46.214876 25.374491 
L 46.983471 22.994571 
L 47.752066 20.614651 
L 48.520661 18.234731 
L 49.289256 15.854811 
L 50.057851 13.474892 
L 50.826446 11.094972 
L 51.595041 8.715052 
L 52.363636 6.335132 
L 53.132231 3.955212 
L 53.900826 1.575292 
L 54.669421 -0.804628 
L 54.732517 -1 
" style="fill:none;stroke:#000000;stroke-dasharray:1.85,0.8;stroke-dashoffset:0;stroke-width:0.5;"/>
   </g>
   <g id="line2d_2">
    <defs>
     <path d="M 0 3 
C 0.795609 3 1.55874 2.683901 2.12132 2.12132 
C 2.683901 1.55874 3 0.795609 3 0 
C 3 -0.795609 2.683901 -1.55874 2.12132 -2.12132 
C 1.55874 -2.683901 0.795609 -3 0 -3 
C -0.795609 -3 -1.55874 -2.683901 -2.12132 -2.12132 
C -2.683901 -1.55874 -3 -0.795609 -3 0 
C -3 0.795609 -2.683901 1.55874 -2.12132 2.12132 
C -1.55874 2.683901 -0.795609 3 0 3 
z
" id="mbbb2848177" style="stroke:#000000;"/>
    </defs>
    <g clip-path="url(#p217c56e4d4)">
     <use style="stroke:#000000;" x="29.228454" xlink:href="#mbbb2848177" y="89.794484"/>
     <use style="stroke:#000000;" x="31.346227" xlink:href="#mbbb2848177" y="80.481084"/>
     <use style="stroke:#000000;" x="30.242733" xlink:href="#mbbb2848177" y="78.192054"/>
     <use style="stroke:#000000;" x="29.879373" xlink:href="#mbbb2848177" y="65.786155"/>
     <use style="stroke:#000000;" x="28.446861" xlink:href="#mbbb2848177" y="82.627611"/>
     <use style="stroke:#000000;" x="29.232935" xlink:href="#mbbb2848177" y="89.347721"/>
     <use style="stroke:#000000;" x="28.891189" xlink:href="#mbbb2848177" y="80.969032"/>
     <use style="stroke:#000000;" x="30.511225" xlink:href="#mbbb2848177" y="80.185665"/>
     <use style="stroke:#000000;" x="30.774593" xlink:href="#mbbb2848177" y="73.608088"/>
     <use style="stroke:#000000;" x="35.03905" xlink:href="#mbbb2848177" y="72.460079"/>
     <use style="stroke:#000000;" x="31.183281" xlink:href="#mbbb2848177" y="67.450677"/>
     <use style="stroke:#000000;" x="30.564006" xlink:href="#mbbb2848177" y="75.940563"/>
     <use style="stroke:#000000;" x="38.109578" xlink:href="#mbbb2848177" y="62.106789"/>
     <use style="stroke:#000000;" x="35.244561" xlink:href="#mbbb2848177" y="74.866412"/>
     <use style="stroke:#000000;" x="31.714175" xlink:href="#mbbb2848177" y="83.122624"/>
     <use style="stroke:#000000;" x="32.42223" xlink:href="#mbbb2848177" y="73.734365"/>
     <use style="stroke:#000000;" x="31.325627" xlink:href="#mbbb2848177" y="69.423743"/>
     <use style="stroke:#000000;" x="38.416133" xlink:href="#mbbb2848177" y="29.707256"/>
     <use style="stroke:#000000;" x="28.392204" xlink:href="#mbbb2848177" y="75.972778"/>
     <use style="stroke:#000000;" x="30.040192" xlink:href="#mbbb2848177" y="44.495845"/>
     <use style="stroke:#000000;" x="28.327651" xlink:href="#mbbb2848177" y="86.722346"/>
     <use style="stroke:#000000;" x="29.808621" xlink:href="#mbbb2848177" y="71.264085"/>
     <use style="stroke:#000000;" x="32.991921" xlink:href="#mbbb2848177" y="61.335723"/>
     <use style="stroke:#000000;" x="32.898741" xlink:href="#mbbb2848177" y="51.411365"/>
     <use style="stroke:#000000;" x="29.32207" xlink:href="#mbbb2848177" y="81.946096"/>
     <use style="stroke:#000000;" x="41.877188" xlink:href="#mbbb2848177" y="47.594077"/>
     <use style="stroke:#000000;" x="46.226819" xlink:href="#mbbb2848177" y="20.840492"/>
     <use style="stroke:#000000;" x="36.924236" xlink:href="#mbbb2848177" y="53.759251"/>
     <use style="stroke:#000000;" x="34.256943" xlink:href="#mbbb2848177" y="71.931297"/>
     <use style="stroke:#000000;" x="33.000778" xlink:href="#mbbb2848177" y="33.104874"/>
    </g>
   </g>
   <g id="patch_3">
    <path d="M 27 94.5 
L 27 12.96 
" style="fill:none;stroke:#000000;stroke-linecap:square;stroke-linejoin:miter;"/>
   </g>
   <g id="patch_4">
    <path d="M 27 94.5 
L 103.090909 94.5 
" style="fill:none;stroke:#000000;stroke-linecap:square;stroke-linejoin:miter;"/>
   </g>
   <g id="matplotlib.axis_1">
    <g id="xtick_1">
     <g id="line2d_3"/>
     <g id="text_1">
      <text style="font-family:Arial;font-size:8px;font-style:normal;font-weight:normal;text-anchor:middle;" transform="rotate(-0, 27, 103.72625)" x="27" y="103.72625">0</text>
     </g>
    </g>
    <g id="xtick_2">
     <g id="line2d_4"/>
     <g id="text_2">
      <text style="font-family:Arial;font-size:8px;font-style:normal;font-weight:normal;text-anchor:middle;" transform="rotate(-0, 61.987956, 103.72625)" x="61.987956" y="103.72625">5</text>
     </g>
    </g>
    <g id="xtick_3">
     <g id="line2d_5"/>
     <g id="text_3">
      <text style="font-family:Arial;font-size:8px;font-style:normal;font-weight:normal;text-anchor:middle;" transform="rotate(-0, 96.975911, 103.72625)" x="96.975911" y="103.72625">10</text>
     </g>
    </g>
    <g id="text_4">
     <text style="font-family:Arial;font-size:10px;font-style:normal;font-weight:normal;text-anchor:middle;" transform="rotate(-0, 65.045455, 116.474063)" x="65.045455" y="116.474063">Exc</text>
    </g>
   </g>
   <g id="matplotlib.axis_2">
    <g id="ytick_1">
     <g id="line2d_6"/>
     <g id="text_5">
      <text style="font-family:Arial;font-size:8px;font-style:normal;font-weight:normal;text-anchor:end;" transform="rotate(-0, 23.5, 97.363125)" x="23.5" y="97.363125">0.0</text>
     </g>
    </g>
    <g id="ytick_2">
     <g id="line2d_7"/>
     <g id="text_6">
      <text style="font-family:Arial;font-size:8px;font-style:normal;font-weight:normal;text-anchor:end;" transform="rotate(-0, 23.5, 78.616353)" x="23.5" y="78.616353">2.5</text>
     </g>
    </g>
    <g id="ytick_3">
     <g id="line2d_8"/>
     <g id="text_7">
      <text style="font-family:Arial;font-size:8px;font-style:normal;font-weight:normal;text-anchor:end;" transform="rotate(-0, 23.5, 59.86958)" x="23.5" y="59.86958">5.0</text>
     </g>
    </g>
    <g id="ytick_4">
     <g id="line2d_9"/>
     <g id="text_8">
      <text style="font-family:Arial;font-size:8px;font-style:normal;font-weight:normal;text-anchor:end;" transform="rotate(-0, 23.5, 41.122808)" x="23.5" y="41.122808">7.5</text>
     </g>
    </g>
    <g id="ytick_5">
     <g id="line2d_10"/>
     <g id="text_9">
      <text style="font-family:Arial;font-size:8px;font-style:normal;font-weight:normal;text-anchor:end;" transform="rotate(-0, 23.5, 22.376035)" x="23.5" y="22.376035">10.0</text>
     </g>
    </g>
    <g id="text_10">
     <text style="font-family:Arial;font-size:10px;font-style:normal;font-weight:normal;text-anchor:middle;" transform="rotate(-90, 1.94375, 53.73)" x="1.94375" y="53.73">Inh</text>
    </g>
   </g>
   <g id="legend_1">
    <g id="line2d_11">
     <path d="M 36 75.622656 
L 56 75.622656 
" style="fill:none;stroke:#000000;stroke-dasharray:1.85,0.8;stroke-dashoffset:0;stroke-width:0.5;"/>
    </g>
    <g id="line2d_12"/>
    <g id="text_11">
     <!-- $R^2$ 0.54 -->
     <g transform="translate(64 72.875)">
      <text>
       <tspan style="font-family:DejaVu Sans;font-size:10px;font-style:oblique;font-weight:oblique;" x="0" y="-0.9765625">R</tspan>
       <tspan style="font-family:DejaVu Sans;font-size:7px;font-style:book;font-weight:book;" x="7.650794" y="-4.8046875">2</tspan>
       <tspan style="font-family:Arial;font-size:10px;font-style:regular;font-weight:regular;" x="12.377845 15.156165 20.717689 23.496009 29.057533" y="-0.9765625"> 0.54</tspan>
      </text>
     </g>
     <text style="font-family:Arial;font-size:10px;font-style:normal;font-weight:normal;" transform="translate(64 83.4875)"> slope 2.89</text>
    </g>
   </g>
  </g>
  <g id="axes_2">
   <g id="patch_5">
    <path d="M 118.309091 94.5 
L 194.4 94.5 
L 194.4 12.96 
L 118.309091 12.96 
z
" style="fill:#ffffff;"/>
   </g>
   <g id="PathCollection_1">
    <defs>
     <path d="M 0 2.44949 
C 0.649612 2.44949 1.272706 2.191396 1.732051 1.732051 
C 2.191396 1.272706 2.44949 0.649612 2.44949 0 
C 2.44949 -0.649612 2.191396 -1.272706 1.732051 -1.732051 
C 1.272706 -2.191396 0.649612 -2.44949 0 -2.44949 
C -0.649612 -2.44949 -1.272706 -2.191396 -1.732051 -1.732051 
C -2.191396 -1.272706 -2.44949 -0.649612 -2.44949 0 
C -2.44949 0.649612 -2.191396 1.272706 -1.732051 1.732051 
C -1.272706 2.191396 -0.649612 2.44949 0 2.44949 
z
" id="mbd573b1a34" style="stroke:#000000;"/>
    </defs>
    <g clip-path="url(#pf53f945224)">
     <use style="stroke:#000000;" x="131.743546" xlink:href="#mbd573b1a34" y="80.29697"/>
     <use style="stroke:#000000;" x="132.909997" xlink:href="#mbd573b1a34" y="70.388114"/>
     <use style="stroke:#000000;" x="143.079404" xlink:href="#mbd573b1a34" y="67.605931"/>
     <use style="stroke:#000000;" x="135.935719" xlink:href="#mbd573b1a34" y="63.53437"/>
     <use style="stroke:#000000;" x="130.410262" xlink:href="#mbd573b1a34" y="75.377868"/>
     <use style="stroke:#000000;" x="120.875046" xlink:href="#mbd573b1a34" y="86.1227"/>
     <use style="stroke:#000000;" x="128.499127" xlink:href="#mbd573b1a34" y="79.936661"/>
     <use style="stroke:#000000;" x="140.287698" xlink:href="#mbd573b1a34" y="70.249497"/>
     <use style="stroke:#000000;" x="144.569213" xlink:href="#mbd573b1a34" y="73.974147"/>
     <use style="stroke:#000000;" x="157.888288" xlink:href="#mbd573b1a34" y="57.754297"/>
     <use style="stroke:#000000;" x="151.18544" xlink:href="#mbd573b1a34" y="73.592239"/>
     <use style="stroke:#000000;" x="140.940762" xlink:href="#mbd573b1a34" y="74.777361"/>
     <use style="stroke:#000000;" x="162.247066" xlink:href="#mbd573b1a34" y="68.09709"/>
     <use style="stroke:#000000;" x="146.735762" xlink:href="#mbd573b1a34" y="73.925691"/>
     <use style="stroke:#000000;" x="150.546281" xlink:href="#mbd573b1a34" y="63.060981"/>
     <use style="stroke:#000000;" x="139.008278" xlink:href="#mbd573b1a34" y="69.67805"/>
     <use style="stroke:#000000;" x="150.831678" xlink:href="#mbd573b1a34" y="45.804159"/>
     <use style="stroke:#000000;" x="153.534854" xlink:href="#mbd573b1a34" y="59.388246"/>
     <use style="stroke:#000000;" x="126.325019" xlink:href="#mbd573b1a34" y="73.37792"/>
     <use style="stroke:#000000;" x="129.255204" xlink:href="#mbd573b1a34" y="75.265088"/>
     <use style="stroke:#000000;" x="127.213611" xlink:href="#mbd573b1a34" y="84.14973"/>
     <use style="stroke:#000000;" x="136.997034" xlink:href="#mbd573b1a34" y="64.596402"/>
     <use style="stroke:#000000;" x="152.08669" xlink:href="#mbd573b1a34" y="77.510623"/>
     <use style="stroke:#000000;" x="163.257585" xlink:href="#mbd573b1a34" y="70.468791"/>
     <use style="stroke:#000000;" x="142.749332" xlink:href="#mbd573b1a34" y="59.456848"/>
     <use style="stroke:#000000;" x="178.713572" xlink:href="#mbd573b1a34" y="58.208749"/>
     <use style="stroke:#000000;" x="190.318428" xlink:href="#mbd573b1a34" y="74.411033"/>
     <use style="stroke:#000000;" x="185.884177" xlink:href="#mbd573b1a34" y="30.823463"/>
     <use style="stroke:#000000;" x="158.049245" xlink:href="#mbd573b1a34" y="55.701255"/>
     <use style="stroke:#000000;" x="137.229877" xlink:href="#mbd573b1a34" y="48.597845"/>
    </g>
   </g>
   <g id="line2d_13">
    <path clip-path="url(#pf53f945224)" d="M 118.309091 77.805839 
L 119.077686 77.523993 
L 119.846281 77.242148 
L 120.614876 76.960302 
L 121.383471 76.678456 
L 122.152066 76.396611 
L 122.920661 76.114765 
L 123.689256 75.832919 
L 124.457851 75.551074 
L 125.226446 75.269228 
L 125.995041 74.987382 
L 126.763636 74.705537 
L 127.532231 74.423691 
L 128.300826 74.141845 
L 129.069421 73.86 
L 129.838017 73.578154 
L 130.606612 73.296308 
L 131.375207 73.014463 
L 132.143802 72.732617 
L 132.912397 72.450771 
L 133.680992 72.168926 
L 134.449587 71.88708 
L 135.218182 71.605234 
L 135.986777 71.323389 
L 136.755372 71.041543 
L 137.523967 70.759697 
L 138.292562 70.477852 
L 139.061157 70.196006 
L 139.829752 69.91416 
L 140.598347 69.632315 
L 141.366942 69.350469 
L 142.135537 69.068623 
L 142.904132 68.786778 
L 143.672727 68.504932 
L 144.441322 68.223086 
L 145.209917 67.941241 
L 145.978512 67.659395 
L 146.747107 67.377549 
L 147.515702 67.095704 
L 148.284298 66.813858 
L 149.052893 66.532012 
L 149.821488 66.250167 
L 150.590083 65.968321 
L 151.358678 65.686475 
L 152.127273 65.40463 
L 152.895868 65.122784 
L 153.664463 64.840938 
L 154.433058 64.559093 
L 155.201653 64.277247 
L 155.970248 63.995401 
L 156.738843 63.713556 
L 157.507438 63.43171 
L 158.276033 63.149864 
L 159.044628 62.868019 
L 159.813223 62.586173 
L 160.581818 62.304327 
L 161.350413 62.022482 
L 162.119008 61.740636 
L 162.887603 61.45879 
L 163.656198 61.176945 
L 164.424793 60.895099 
L 165.193388 60.613253 
L 165.961983 60.331408 
L 166.730579 60.049562 
L 167.499174 59.767716 
L 168.267769 59.485871 
L 169.036364 59.204025 
L 169.804959 58.922179 
L 170.573554 58.640334 
L 171.342149 58.358488 
L 172.110744 58.076642 
L 172.879339 57.794797 
L 173.647934 57.512951 
L 174.416529 57.231105 
L 175.185124 56.94926 
L 175.953719 56.667414 
L 176.722314 56.385568 
L 177.490909 56.103723 
L 178.259504 55.821877 
L 179.028099 55.540031 
L 179.796694 55.258186 
L 180.565289 54.97634 
L 181.333884 54.694494 
L 182.102479 54.412649 
L 182.871074 54.130803 
L 183.639669 53.848957 
L 184.408264 53.567112 
L 185.17686 53.285266 
L 185.945455 53.00342 
L 186.71405 52.721575 
L 187.482645 52.439729 
L 188.25124 52.157883 
L 189.019835 51.876038 
L 189.78843 51.594192 
L 190.557025 51.312346 
L 191.32562 51.030501 
L 192.094215 50.748655 
L 192.86281 50.466809 
L 193.631405 50.184964 
L 194.4 49.903118 
" style="fill:none;stroke:#000000;stroke-dasharray:1.85,0.8;stroke-dashoffset:0;stroke-width:0.5;"/>
   </g>
   <g id="patch_6">
    <path d="M 118.309091 94.5 
L 118.309091 12.96 
" style="fill:none;stroke:#000000;stroke-linecap:square;stroke-linejoin:miter;"/>
   </g>
   <g id="patch_7">
    <path d="M 118.309091 94.5 
L 194.4 94.5 
" style="fill:none;stroke:#000000;stroke-linecap:square;stroke-linejoin:miter;"/>
   </g>
   <g id="matplotlib.axis_3">
    <g id="xtick_4">
     <g id="line2d_14"/>
     <g id="text_12">
      <text style="font-family:Arial;font-size:8px;font-style:normal;font-weight:normal;text-anchor:middle;" transform="rotate(-0, 118.309091, 103.72625)" x="118.309091" y="103.72625">0</text>
     </g>
    </g>
    <g id="xtick_5">
     <g id="line2d_15"/>
     <g id="text_13">
      <text style="font-family:Arial;font-size:8px;font-style:normal;font-weight:normal;text-anchor:middle;" transform="rotate(-0, 152.72813, 103.72625)" x="152.72813" y="103.72625">1</text>
     </g>
    </g>
    <g id="xtick_6">
     <g id="line2d_16"/>
     <g id="text_14">
      <text style="font-family:Arial;font-size:8px;font-style:normal;font-weight:normal;text-anchor:middle;" transform="rotate(-0, 187.147169, 103.72625)" x="187.147169" y="103.72625">2</text>
     </g>
    </g>
    <g id="text_15">
     <!-- $\sigma$(Exc) -->
     <g transform="translate(141.504545 116.61625)">
      <text>
       <tspan style="font-family:DejaVu Sans;font-size:10px;font-style:oblique;font-weight:oblique;" x="0" y="-0.71875">σ</tspan>
       <tspan style="font-family:Arial;font-size:10px;font-style:regular;font-weight:regular;" x="6.337891 9.667969 16.337891 21.337891 26.337891" y="-0.71875">(Exc)</tspan>
      </text>
     </g>
    </g>
   </g>
   <g id="matplotlib.axis_4">
    <g id="ytick_6">
     <g id="line2d_17"/>
     <g id="text_16">
      <text style="font-family:Arial;font-size:8px;font-style:normal;font-weight:normal;text-anchor:end;" transform="rotate(-0, 114.809091, 97.363125)" x="114.809091" y="97.363125">0.0</text>
     </g>
    </g>
    <g id="ytick_7">
     <g id="line2d_18"/>
     <g id="text_17">
      <text style="font-family:Arial;font-size:8px;font-style:normal;font-weight:normal;text-anchor:end;" transform="rotate(-0, 114.809091, 78.921182)" x="114.809091" y="78.921182">0.5</text>
     </g>
    </g>
    <g id="ytick_8">
     <g id="line2d_19"/>
     <g id="text_18">
      <text style="font-family:Arial;font-size:8px;font-style:normal;font-weight:normal;text-anchor:end;" transform="rotate(-0, 114.809091, 60.479239)" x="114.809091" y="60.479239">1.0</text>
     </g>
    </g>
    <g id="ytick_9">
     <g id="line2d_20"/>
     <g id="text_19">
      <text style="font-family:Arial;font-size:8px;font-style:normal;font-weight:normal;text-anchor:end;" transform="rotate(-0, 114.809091, 42.037296)" x="114.809091" y="42.037296">1.5</text>
     </g>
    </g>
    <g id="ytick_10">
     <g id="line2d_21"/>
     <g id="text_20">
      <text style="font-family:Arial;font-size:8px;font-style:normal;font-weight:normal;text-anchor:end;" transform="rotate(-0, 114.809091, 23.595352)" x="114.809091" y="23.595352">2.0</text>
     </g>
    </g>
    <g id="text_21">
     <!-- $\sigma$(Inh) -->
     <g transform="translate(97.489091 67.18)rotate(-90)">
      <text>
       <tspan style="font-family:DejaVu Sans;font-size:10px;font-style:oblique;font-weight:oblique;" x="0" y="-0.71875">σ</tspan>
       <tspan style="font-family:Arial;font-size:10px;font-style:regular;font-weight:regular;" x="6.337891 9.667969 12.446289 18.007812 23.569336" y="-0.71875">(Inh)</tspan>
      </text>
     </g>
    </g>
   </g>
   <g id="legend_2">
    <g id="line2d_22">
     <path d="M 108.478125 31.995156 
L 128.478125 31.995156 
" style="fill:none;stroke:#000000;stroke-dasharray:1.85,0.8;stroke-dashoffset:0;stroke-width:0.5;"/>
    </g>
    <g id="line2d_23"/>
    <g id="text_22">
     <!-- $R^2$ 0.28 -->
     <g transform="translate(136.478125 29.2475)">
      <text>
       <tspan style="font-family:DejaVu Sans;font-size:10px;font-style:oblique;font-weight:oblique;" x="0" y="-0.9765625">R</tspan>
       <tspan style="font-family:DejaVu Sans;font-size:7px;font-style:book;font-weight:book;" x="7.650794" y="-4.8046875">2</tspan>
       <tspan style="font-family:Arial;font-size:10px;font-style:regular;font-weight:regular;" x="12.377845 15.156165 20.717689 23.496009 29.057533" y="-0.9765625"> 0.28</tspan>
      </text>
     </g>
     <text style="font-family:Arial;font-size:10px;font-style:normal;font-weight:normal;" transform="translate(136.478125 39.86)"> slope 0.34</text>
    </g>
   </g>
  </g>
 </g>
 <defs>
  <clipPath id="p217c56e4d4">
   <rect height="81.54" width="76.090909" x="27" y="12.96"/>
  </clipPath>
  <clipPath id="pf53f945224">
   <rect height="81.54" width="76.090909" x="118.309091" y="12.96"/>
  </clipPath>
 </defs>
</svg>
