<?xml version="1.0" encoding="utf-8" standalone="no"?>
<!DOCTYPE svg PUBLIC "-//W3C//DTD SVG 1.1//EN"
  "http://www.w3.org/Graphics/SVG/1.1/DTD/svg11.dtd">
<!-- Created with matplotlib (http://matplotlib.org/) -->
<svg height="108pt" version="1.1" viewBox="0 0 216 108" width="216pt" xmlns="http://www.w3.org/2000/svg" xmlns:xlink="http://www.w3.org/1999/xlink">
 <defs>
  <style type="text/css">
*{stroke-linecap:butt;stroke-linejoin:round;}
  </style>
 </defs>
 <g id="figure_1">
  <g id="patch_1">
   <path d="M 0 108 
L 216 108 
L 216 0 
L 0 0 
z
" style="fill:#ffffff;"/>
  </g>
  <g id="axes_1">
   <g id="patch_2">
    <path d="M 27 94.5 
L 103.090909 94.5 
L 103.090909 12.96 
L 27 12.96 
z
" style="fill:#ffffff;"/>
   </g>
   <g id="LineCollection_1">
    <path clip-path="url(#pe7c2274466)" d="M 28.882999 72.083287 
L 38.757353 72.083287 
" style="fill:none;stroke:#000000;stroke-width:0.5;"/>
    <path clip-path="url(#pe7c2274466)" d="M 21.652613 60.365865 
L 51.820992 60.365865 
" style="fill:none;stroke:#000000;stroke-width:0.5;"/>
    <path clip-path="url(#pe7c2274466)" d="M 26.084889 89.514993 
L 30.109408 89.514993 
" style="fill:none;stroke:#000000;stroke-width:0.5;"/>
    <path clip-path="url(#pe7c2274466)" d="M 28.95733 43.4126 
L 44.190625 43.4126 
" style="fill:none;stroke:#000000;stroke-width:0.5;"/>
    <path clip-path="url(#pe7c2274466)" d="M 26.238834 57.682707 
L 33.712521 57.682707 
" style="fill:none;stroke:#000000;stroke-width:0.5;"/>
    <path clip-path="url(#pe7c2274466)" d="M 30.522084 68.089197 
L 42.140438 68.089197 
" style="fill:none;stroke:#000000;stroke-width:0.5;"/>
    <path clip-path="url(#pe7c2274466)" d="M 27.38923 84.034904 
L 28.285698 84.034904 
" style="fill:none;stroke:#000000;stroke-width:0.5;"/>
    <path clip-path="url(#pe7c2274466)" d="M 27.43395 73.277795 
L 37.773235 73.277795 
" style="fill:none;stroke:#000000;stroke-width:0.5;"/>
    <path clip-path="url(#pe7c2274466)" d="M 26.549916 68.938838 
L 43.391068 68.938838 
" style="fill:none;stroke:#000000;stroke-width:0.5;"/>
    <path clip-path="url(#pe7c2274466)" d="M 26.469589 81.714526 
L 32.373654 81.714526 
" style="fill:none;stroke:#000000;stroke-width:0.5;"/>
    <path clip-path="url(#pe7c2274466)" d="M 28.582269 70.555961 
L 34.639217 70.555961 
" style="fill:none;stroke:#000000;stroke-width:0.5;"/>
    <path clip-path="url(#pe7c2274466)" d="M 27.342887 73.189177 
L 36.976407 73.189177 
" style="fill:none;stroke:#000000;stroke-width:0.5;"/>
    <path clip-path="url(#pe7c2274466)" d="M 21.90387 71.907656 
L 44.161015 71.907656 
" style="fill:none;stroke:#000000;stroke-width:0.5;"/>
    <path clip-path="url(#pe7c2274466)" d="M 38.175126 35.2468 
L 84.352677 35.2468 
" style="fill:none;stroke:#000000;stroke-width:0.5;"/>
    <path clip-path="url(#pe7c2274466)" d="M 26.503287 72.943937 
L 37.820484 72.943937 
" style="fill:none;stroke:#000000;stroke-width:0.5;"/>
    <path clip-path="url(#pe7c2274466)" d="M 30.11315 70.748757 
L 38.9315 70.748757 
" style="fill:none;stroke:#000000;stroke-width:0.5;"/>
    <path clip-path="url(#pe7c2274466)" d="M 25.992788 60.967266 
L 48.861295 60.967266 
" style="fill:none;stroke:#000000;stroke-width:0.5;"/>
    <path clip-path="url(#pe7c2274466)" d="M 28.066914 82.829104 
L 35.418954 82.829104 
" style="fill:none;stroke:#000000;stroke-width:0.5;"/>
    <path clip-path="url(#pe7c2274466)" d="M 28.545471 37.787211 
L 63.734111 37.787211 
" style="fill:none;stroke:#000000;stroke-width:0.5;"/>
    <path clip-path="url(#pe7c2274466)" d="M 24.847062 65.648747 
L 35.016948 65.648747 
" style="fill:none;stroke:#000000;stroke-width:0.5;"/>
    <path clip-path="url(#pe7c2274466)" d="M 29.688029 56.54644 
L 44.51922 56.54644 
" style="fill:none;stroke:#000000;stroke-width:0.5;"/>
    <path clip-path="url(#pe7c2274466)" d="M 42.253654 34.195855 
L 73.691474 34.195855 
" style="fill:none;stroke:#000000;stroke-width:0.5;"/>
    <path clip-path="url(#pe7c2274466)" d="M 26.208721 73.683775 
L 44.042317 73.683775 
" style="fill:none;stroke:#000000;stroke-width:0.5;"/>
    <path clip-path="url(#pe7c2274466)" d="M 27.993409 69.753286 
L 44.040683 69.753286 
" style="fill:none;stroke:#000000;stroke-width:0.5;"/>
    <path clip-path="url(#pe7c2274466)" d="M 27.909108 68.932961 
L 36.835828 68.932961 
" style="fill:none;stroke:#000000;stroke-width:0.5;"/>
    <path clip-path="url(#pe7c2274466)" d="M 25.7135 80.320904 
L 39.432786 80.320904 
" style="fill:none;stroke:#000000;stroke-width:0.5;"/>
    <path clip-path="url(#pe7c2274466)" d="M 30.78463 54.770258 
L 45.995545 54.770258 
" style="fill:none;stroke:#000000;stroke-width:0.5;"/>
    <path clip-path="url(#pe7c2274466)" d="M 23.513734 28.925045 
L 48.540589 28.925045 
" style="fill:none;stroke:#000000;stroke-width:0.5;"/>
    <path clip-path="url(#pe7c2274466)" d="M 30.565265 29.965938 
L 51.727566 29.965938 
" style="fill:none;stroke:#000000;stroke-width:0.5;"/>
    <path clip-path="url(#pe7c2274466)" d="M 25.290642 83.139861 
L 31.067924 83.139861 
" style="fill:none;stroke:#000000;stroke-width:0.5;"/>
   </g>
   <g id="LineCollection_2">
    <path clip-path="url(#pe7c2274466)" d="M 33.820176 74.003433 
L 33.820176 70.163141 
" style="fill:none;stroke:#000000;stroke-width:0.5;"/>
    <path clip-path="url(#pe7c2274466)" d="M 36.736803 81.28751 
L 36.736803 39.44422 
" style="fill:none;stroke:#000000;stroke-width:0.5;"/>
    <path clip-path="url(#pe7c2274466)" d="M 28.097149 91.14834 
L 28.097149 87.881645 
" style="fill:none;stroke:#000000;stroke-width:0.5;"/>
    <path clip-path="url(#pe7c2274466)" d="M 36.573978 54.098485 
L 36.573978 32.726715 
" style="fill:none;stroke:#000000;stroke-width:0.5;"/>
    <path clip-path="url(#pe7c2274466)" d="M 29.975677 62.165279 
L 29.975677 53.200134 
" style="fill:none;stroke:#000000;stroke-width:0.5;"/>
    <path clip-path="url(#pe7c2274466)" d="M 36.331261 72.450421 
L 36.331261 63.727974 
" style="fill:none;stroke:#000000;stroke-width:0.5;"/>
    <path clip-path="url(#pe7c2274466)" d="M 27.837464 87.708297 
L 27.837464 80.361512 
" style="fill:none;stroke:#000000;stroke-width:0.5;"/>
    <path clip-path="url(#pe7c2274466)" d="M 32.603592 82.364816 
L 32.603592 64.190774 
" style="fill:none;stroke:#000000;stroke-width:0.5;"/>
    <path clip-path="url(#pe7c2274466)" d="M 34.970492 72.446136 
L 34.970492 65.431541 
" style="fill:none;stroke:#000000;stroke-width:0.5;"/>
    <path clip-path="url(#pe7c2274466)" d="M 29.421622 84.878358 
L 29.421622 78.550693 
" style="fill:none;stroke:#000000;stroke-width:0.5;"/>
    <path clip-path="url(#pe7c2274466)" d="M 31.610743 75.757248 
L 31.610743 65.354674 
" style="fill:none;stroke:#000000;stroke-width:0.5;"/>
    <path clip-path="url(#pe7c2274466)" d="M 32.159647 77.046431 
L 32.159647 69.331922 
" style="fill:none;stroke:#000000;stroke-width:0.5;"/>
    <path clip-path="url(#pe7c2274466)" d="M 33.032442 79.931859 
L 33.032442 63.883452 
" style="fill:none;stroke:#000000;stroke-width:0.5;"/>
    <path clip-path="url(#pe7c2274466)" d="M 61.263901 53.776975 
L 61.263901 16.716625 
" style="fill:none;stroke:#000000;stroke-width:0.5;"/>
    <path clip-path="url(#pe7c2274466)" d="M 32.161886 82.019708 
L 32.161886 63.868166 
" style="fill:none;stroke:#000000;stroke-width:0.5;"/>
    <path clip-path="url(#pe7c2274466)" d="M 34.522325 76.997974 
L 34.522325 64.49954 
" style="fill:none;stroke:#000000;stroke-width:0.5;"/>
    <path clip-path="url(#pe7c2274466)" d="M 37.427042 69.605633 
L 37.427042 52.328899 
" style="fill:none;stroke:#000000;stroke-width:0.5;"/>
    <path clip-path="url(#pe7c2274466)" d="M 31.742934 89.218832 
L 31.742934 76.439377 
" style="fill:none;stroke:#000000;stroke-width:0.5;"/>
    <path clip-path="url(#pe7c2274466)" d="M 46.139791 42.197451 
L 46.139791 33.376972 
" style="fill:none;stroke:#000000;stroke-width:0.5;"/>
    <path clip-path="url(#pe7c2274466)" d="M 29.932005 77.590834 
L 29.932005 53.70666 
" style="fill:none;stroke:#000000;stroke-width:0.5;"/>
    <path clip-path="url(#pe7c2274466)" d="M 37.103624 76.744718 
L 37.103624 36.348163 
" style="fill:none;stroke:#000000;stroke-width:0.5;"/>
    <path clip-path="url(#pe7c2274466)" d="M 57.972564 47.957725 
L 57.972564 20.433984 
" style="fill:none;stroke:#000000;stroke-width:0.5;"/>
    <path clip-path="url(#pe7c2274466)" d="M 35.125519 79.681868 
L 35.125519 67.685683 
" style="fill:none;stroke:#000000;stroke-width:0.5;"/>
    <path clip-path="url(#pe7c2274466)" d="M 36.017046 74.23429 
L 36.017046 65.272282 
" style="fill:none;stroke:#000000;stroke-width:0.5;"/>
    <path clip-path="url(#pe7c2274466)" d="M 32.372468 75.918436 
L 32.372468 61.947486 
" style="fill:none;stroke:#000000;stroke-width:0.5;"/>
    <path clip-path="url(#pe7c2274466)" d="M 32.573143 84.756827 
L 32.573143 75.884982 
" style="fill:none;stroke:#000000;stroke-width:0.5;"/>
    <path clip-path="url(#pe7c2274466)" d="M 38.390088 61.670989 
L 38.390088 47.869526 
" style="fill:none;stroke:#000000;stroke-width:0.5;"/>
    <path clip-path="url(#pe7c2274466)" d="M 36.027162 41.166835 
L 36.027162 16.683254 
" style="fill:none;stroke:#000000;stroke-width:0.5;"/>
    <path clip-path="url(#pe7c2274466)" d="M 41.146415 37.302566 
L 41.146415 22.62931 
" style="fill:none;stroke:#000000;stroke-width:0.5;"/>
    <path clip-path="url(#pe7c2274466)" d="M 28.179283 87.302948 
L 28.179283 78.976775 
" style="fill:none;stroke:#000000;stroke-width:0.5;"/>
   </g>
   <g id="line2d_1">
    <path clip-path="url(#pe7c2274466)" d="M 27 78.624077 
L 27.768595 77.336903 
L 28.53719 76.049729 
L 29.305785 74.762555 
L 30.07438 73.475381 
L 30.842975 72.188206 
L 31.61157 70.901032 
L 32.380165 69.613858 
L 33.14876 68.326684 
L 33.917355 67.03951 
L 34.68595 65.752335 
L 35.454545 64.465161 
L 36.22314 63.177987 
L 36.991736 61.890813 
L 37.760331 60.603639 
L 38.528926 59.316464 
L 39.297521 58.02929 
L 40.066116 56.742116 
L 40.834711 55.454942 
L 41.603306 54.167768 
L 42.371901 52.880593 
L 43.140496 51.593419 
L 43.909091 50.306245 
L 44.677686 49.019071 
L 45.446281 47.731897 
L 46.214876 46.444722 
L 46.983471 45.157548 
L 47.752066 43.870374 
L 48.520661 42.5832 
L 49.289256 41.296026 
L 50.057851 40.008851 
L 50.826446 38.721677 
L 51.595041 37.434503 
L 52.363636 36.147329 
L 53.132231 34.860155 
L 53.900826 33.57298 
L 54.669421 32.285806 
L 55.438017 30.998632 
L 56.206612 29.711458 
L 56.975207 28.424284 
L 57.743802 27.137109 
L 58.512397 25.849935 
L 59.280992 24.562761 
L 60.049587 23.275587 
L 60.818182 21.988413 
L 61.586777 20.701238 
L 62.355372 19.414064 
L 63.123967 18.12689 
L 63.892562 16.839716 
L 64.661157 15.552542 
L 65.429752 14.265367 
L 66.198347 12.978193 
L 66.966942 11.691019 
L 67.735537 10.403845 
L 68.504132 9.116671 
L 69.272727 7.829496 
L 70.041322 6.542322 
L 70.809917 5.255148 
L 71.578512 3.967974 
L 72.347107 2.6808 
L 73.115702 1.393625 
L 73.884298 0.106451 
L 74.54498 -1 
" style="fill:none;stroke:#000000;stroke-dasharray:1.85,0.8;stroke-dashoffset:0;stroke-width:0.5;"/>
   </g>
   <g id="line2d_2">
    <defs>
     <path d="M 0 3 
C 0.795609 3 1.55874 2.683901 2.12132 2.12132 
C 2.683901 1.55874 3 0.795609 3 0 
C 3 -0.795609 2.683901 -1.55874 2.12132 -2.12132 
C 1.55874 -2.683901 0.795609 -3 0 -3 
C -0.795609 -3 -1.55874 -2.683901 -2.12132 -2.12132 
C -2.683901 -1.55874 -3 -0.795609 -3 0 
C -3 0.795609 -2.683901 1.55874 -2.12132 2.12132 
C -1.55874 2.683901 -0.795609 3 0 3 
z
" id="m3ac1f4fb67" style="stroke:#000000;"/>
    </defs>
    <g clip-path="url(#pe7c2274466)">
     <use style="stroke:#000000;" x="33.820176" xlink:href="#m3ac1f4fb67" y="72.083287"/>
     <use style="stroke:#000000;" x="36.736803" xlink:href="#m3ac1f4fb67" y="60.365865"/>
     <use style="stroke:#000000;" x="28.097149" xlink:href="#m3ac1f4fb67" y="89.514993"/>
     <use style="stroke:#000000;" x="36.573978" xlink:href="#m3ac1f4fb67" y="43.4126"/>
     <use style="stroke:#000000;" x="29.975677" xlink:href="#m3ac1f4fb67" y="57.682707"/>
     <use style="stroke:#000000;" x="36.331261" xlink:href="#m3ac1f4fb67" y="68.089197"/>
     <use style="stroke:#000000;" x="27.837464" xlink:href="#m3ac1f4fb67" y="84.034904"/>
     <use style="stroke:#000000;" x="32.603592" xlink:href="#m3ac1f4fb67" y="73.277795"/>
     <use style="stroke:#000000;" x="34.970492" xlink:href="#m3ac1f4fb67" y="68.938838"/>
     <use style="stroke:#000000;" x="29.421622" xlink:href="#m3ac1f4fb67" y="81.714526"/>
     <use style="stroke:#000000;" x="31.610743" xlink:href="#m3ac1f4fb67" y="70.555961"/>
     <use style="stroke:#000000;" x="32.159647" xlink:href="#m3ac1f4fb67" y="73.189177"/>
     <use style="stroke:#000000;" x="33.032442" xlink:href="#m3ac1f4fb67" y="71.907656"/>
     <use style="stroke:#000000;" x="61.263901" xlink:href="#m3ac1f4fb67" y="35.2468"/>
     <use style="stroke:#000000;" x="32.161886" xlink:href="#m3ac1f4fb67" y="72.943937"/>
     <use style="stroke:#000000;" x="34.522325" xlink:href="#m3ac1f4fb67" y="70.748757"/>
     <use style="stroke:#000000;" x="37.427042" xlink:href="#m3ac1f4fb67" y="60.967266"/>
     <use style="stroke:#000000;" x="31.742934" xlink:href="#m3ac1f4fb67" y="82.829104"/>
     <use style="stroke:#000000;" x="46.139791" xlink:href="#m3ac1f4fb67" y="37.787211"/>
     <use style="stroke:#000000;" x="29.932005" xlink:href="#m3ac1f4fb67" y="65.648747"/>
     <use style="stroke:#000000;" x="37.103624" xlink:href="#m3ac1f4fb67" y="56.54644"/>
     <use style="stroke:#000000;" x="57.972564" xlink:href="#m3ac1f4fb67" y="34.195855"/>
     <use style="stroke:#000000;" x="35.125519" xlink:href="#m3ac1f4fb67" y="73.683775"/>
     <use style="stroke:#000000;" x="36.017046" xlink:href="#m3ac1f4fb67" y="69.753286"/>
     <use style="stroke:#000000;" x="32.372468" xlink:href="#m3ac1f4fb67" y="68.932961"/>
     <use style="stroke:#000000;" x="32.573143" xlink:href="#m3ac1f4fb67" y="80.320904"/>
     <use style="stroke:#000000;" x="38.390088" xlink:href="#m3ac1f4fb67" y="54.770258"/>
     <use style="stroke:#000000;" x="36.027162" xlink:href="#m3ac1f4fb67" y="28.925045"/>
     <use style="stroke:#000000;" x="41.146415" xlink:href="#m3ac1f4fb67" y="29.965938"/>
     <use style="stroke:#000000;" x="28.179283" xlink:href="#m3ac1f4fb67" y="83.139861"/>
    </g>
   </g>
   <g id="patch_3">
    <path d="M 27 94.5 
L 27 12.96 
" style="fill:none;stroke:#000000;stroke-linecap:square;stroke-linejoin:miter;"/>
   </g>
   <g id="patch_4">
    <path d="M 27 94.5 
L 103.090909 94.5 
" style="fill:none;stroke:#000000;stroke-linecap:square;stroke-linejoin:miter;"/>
   </g>
   <g id="matplotlib.axis_1">
    <g id="xtick_1">
     <g id="line2d_3"/>
     <g id="text_1">
      <text style="font-family:Arial;font-size:8px;font-style:normal;font-weight:normal;text-anchor:middle;" transform="rotate(-0, 27, 103.72625)" x="27" y="103.72625">0</text>
     </g>
    </g>
    <g id="xtick_2">
     <g id="line2d_4"/>
     <g id="text_2">
      <text style="font-family:Arial;font-size:8px;font-style:normal;font-weight:normal;text-anchor:middle;" transform="rotate(-0, 62.575977, 103.72625)" x="62.575977" y="103.72625">5</text>
     </g>
    </g>
    <g id="xtick_3">
     <g id="line2d_5"/>
     <g id="text_3">
      <text style="font-family:Arial;font-size:8px;font-style:normal;font-weight:normal;text-anchor:middle;" transform="rotate(-0, 98.151954, 103.72625)" x="98.151954" y="103.72625">10</text>
     </g>
    </g>
    <g id="text_4">
     <text style="font-family:Arial;font-size:10px;font-style:normal;font-weight:normal;text-anchor:middle;" transform="rotate(-0, 65.045455, 116.474063)" x="65.045455" y="116.474063">Exc</text>
    </g>
   </g>
   <g id="matplotlib.axis_2">
    <g id="ytick_1">
     <g id="line2d_6"/>
     <g id="text_5">
      <text style="font-family:Arial;font-size:8px;font-style:normal;font-weight:normal;text-anchor:end;" transform="rotate(-0, 23.5, 97.363125)" x="23.5" y="97.363125">0.0</text>
     </g>
    </g>
    <g id="ytick_2">
     <g id="line2d_7"/>
     <g id="text_6">
      <text style="font-family:Arial;font-size:8px;font-style:normal;font-weight:normal;text-anchor:end;" transform="rotate(-0, 23.5, 78.301287)" x="23.5" y="78.301287">2.5</text>
     </g>
    </g>
    <g id="ytick_3">
     <g id="line2d_8"/>
     <g id="text_7">
      <text style="font-family:Arial;font-size:8px;font-style:normal;font-weight:normal;text-anchor:end;" transform="rotate(-0, 23.5, 59.239449)" x="23.5" y="59.239449">5.0</text>
     </g>
    </g>
    <g id="ytick_4">
     <g id="line2d_9"/>
     <g id="text_8">
      <text style="font-family:Arial;font-size:8px;font-style:normal;font-weight:normal;text-anchor:end;" transform="rotate(-0, 23.5, 40.177611)" x="23.5" y="40.177611">7.5</text>
     </g>
    </g>
    <g id="ytick_5">
     <g id="line2d_10"/>
     <g id="text_9">
      <text style="font-family:Arial;font-size:8px;font-style:normal;font-weight:normal;text-anchor:end;" transform="rotate(-0, 23.5, 21.115773)" x="23.5" y="21.115773">10.0</text>
     </g>
    </g>
    <g id="text_10">
     <text style="font-family:Arial;font-size:10px;font-style:normal;font-weight:normal;text-anchor:middle;" transform="rotate(-90, 1.94375, 53.73)" x="1.94375" y="53.73">Inh</text>
    </g>
   </g>
   <g id="legend_1">
    <g id="line2d_11">
     <path d="M 36 75.622656 
L 56 75.622656 
" style="fill:none;stroke:#000000;stroke-dasharray:1.85,0.8;stroke-dashoffset:0;stroke-width:0.5;"/>
    </g>
    <g id="line2d_12"/>
    <g id="text_11">
     <!-- $R^2$ 0.56 -->
     <g transform="translate(64 72.875)">
      <text>
       <tspan style="font-family:DejaVu Sans;font-size:10px;font-style:oblique;font-weight:oblique;" x="0" y="-0.9765625">R</tspan>
       <tspan style="font-family:DejaVu Sans;font-size:7px;font-style:book;font-weight:book;" x="7.650794" y="-4.8046875">2</tspan>
       <tspan style="font-family:Arial;font-size:10px;font-style:regular;font-weight:regular;" x="12.377845 15.156165 20.717689 23.496009 29.057533" y="-0.9765625"> 0.56</tspan>
      </text>
     </g>
     <text style="font-family:Arial;font-size:10px;font-style:normal;font-weight:normal;" transform="translate(64 83.4875)"> slope 1.56</text>
    </g>
   </g>
  </g>
  <g id="axes_2">
   <g id="patch_5">
    <path d="M 118.309091 94.5 
L 194.4 94.5 
L 194.4 12.96 
L 118.309091 12.96 
z
" style="fill:#ffffff;"/>
   </g>
   <g id="PathCollection_1">
    <defs>
     <path d="M 0 2.44949 
C 0.649612 2.44949 1.272706 2.191396 1.732051 1.732051 
C 2.191396 1.272706 2.44949 0.649612 2.44949 0 
C 2.44949 -0.649612 2.191396 -1.272706 1.732051 -1.732051 
C 1.272706 -2.191396 0.649612 -2.44949 0 -2.44949 
C -0.649612 -2.44949 -1.272706 -2.191396 -1.732051 -1.732051 
C -2.191396 -1.272706 -2.44949 -0.649612 -2.44949 0 
C -2.44949 0.649612 -2.191396 1.272706 -1.732051 1.732051 
C -1.272706 2.191396 -0.649612 2.44949 0 2.44949 
z
" id="m49df199389" style="stroke:#000000;"/>
    </defs>
    <g clip-path="url(#p37f56299b1)">
     <use style="stroke:#000000;" x="133.739234" xlink:href="#m49df199389" y="88.498974"/>
     <use style="stroke:#000000;" x="165.451658" xlink:href="#m49df199389" y="29.113654"/>
     <use style="stroke:#000000;" x="124.597999" xlink:href="#m49df199389" y="89.395305"/>
     <use style="stroke:#000000;" x="142.113374" xlink:href="#m49df199389" y="61.103439"/>
     <use style="stroke:#000000;" x="129.987835" xlink:href="#m49df199389" y="80.490632"/>
     <use style="stroke:#000000;" x="136.464491" xlink:href="#m49df199389" y="80.869882"/>
     <use style="stroke:#000000;" x="119.709955" xlink:href="#m49df199389" y="83.019559"/>
     <use style="stroke:#000000;" x="134.465758" xlink:href="#m49df199389" y="66.100364"/>
     <use style="stroke:#000000;" x="144.625889" xlink:href="#m49df199389" y="83.538655"/>
     <use style="stroke:#000000;" x="127.535068" xlink:href="#m49df199389" y="84.612085"/>
     <use style="stroke:#000000;" x="127.773971" xlink:href="#m49df199389" y="78.244435"/>
     <use style="stroke:#000000;" x="133.362894" xlink:href="#m49df199389" y="82.444936"/>
     <use style="stroke:#000000;" x="153.089182" xlink:href="#m49df199389" y="69.421985"/>
     <use style="stroke:#000000;" x="190.468363" xlink:href="#m49df199389" y="36.587706"/>
     <use style="stroke:#000000;" x="135.99389" xlink:href="#m49df199389" y="66.135523"/>
     <use style="stroke:#000000;" x="132.08907" xlink:href="#m49df199389" y="74.969343"/>
     <use style="stroke:#000000;" x="154.044524" xlink:href="#m49df199389" y="67.502542"/>
     <use style="stroke:#000000;" x="129.797744" xlink:href="#m49df199389" y="74.530205"/>
     <use style="stroke:#000000;" x="173.296559" xlink:href="#m49df199389" y="80.716693"/>
     <use style="stroke:#000000;" x="134.201046" xlink:href="#m49df199389" y="57.177436"/>
     <use style="stroke:#000000;" x="141.485026" xlink:href="#m49df199389" y="31.374392"/>
     <use style="stroke:#000000;" x="167.435347" xlink:href="#m49df199389" y="51.490074"/>
     <use style="stroke:#000000;" x="146.176729" xlink:href="#m49df199389" y="75.754181"/>
     <use style="stroke:#000000;" x="143.385336" xlink:href="#m49df199389" y="80.495533"/>
     <use style="stroke:#000000;" x="132.258415" xlink:href="#m49df199389" y="72.668318"/>
     <use style="stroke:#000000;" x="139.747511" xlink:href="#m49df199389" y="80.636428"/>
     <use style="stroke:#000000;" x="142.078401" xlink:href="#m49df199389" y="72.933168"/>
     <use style="stroke:#000000;" x="157.417263" xlink:href="#m49df199389" y="56.240774"/>
     <use style="stroke:#000000;" x="151.378326" xlink:href="#m49df199389" y="71.570862"/>
     <use style="stroke:#000000;" x="127.336951" xlink:href="#m49df199389" y="81.48912"/>
    </g>
   </g>
   <g id="line2d_13">
    <path clip-path="url(#p37f56299b1)" d="M 118.309091 84.746722 
L 119.077686 84.285635 
L 119.846281 83.824547 
L 120.614876 83.36346 
L 121.383471 82.902373 
L 122.152066 82.441286 
L 122.920661 81.980198 
L 123.689256 81.519111 
L 124.457851 81.058024 
L 125.226446 80.596937 
L 125.995041 80.13585 
L 126.763636 79.674762 
L 127.532231 79.213675 
L 128.300826 78.752588 
L 129.069421 78.291501 
L 129.838017 77.830413 
L 130.606612 77.369326 
L 131.375207 76.908239 
L 132.143802 76.447152 
L 132.912397 75.986065 
L 133.680992 75.524977 
L 134.449587 75.06389 
L 135.218182 74.602803 
L 135.986777 74.141716 
L 136.755372 73.680629 
L 137.523967 73.219541 
L 138.292562 72.758454 
L 139.061157 72.297367 
L 139.829752 71.83628 
L 140.598347 71.375192 
L 141.366942 70.914105 
L 142.135537 70.453018 
L 142.904132 69.991931 
L 143.672727 69.530844 
L 144.441322 69.069756 
L 145.209917 68.608669 
L 145.978512 68.147582 
L 146.747107 67.686495 
L 147.515702 67.225407 
L 148.284298 66.76432 
L 149.052893 66.303233 
L 149.821488 65.842146 
L 150.590083 65.381059 
L 151.358678 64.919971 
L 152.127273 64.458884 
L 152.895868 63.997797 
L 153.664463 63.53671 
L 154.433058 63.075623 
L 155.201653 62.614535 
L 155.970248 62.153448 
L 156.738843 61.692361 
L 157.507438 61.231274 
L 158.276033 60.770186 
L 159.044628 60.309099 
L 159.813223 59.848012 
L 160.581818 59.386925 
L 161.350413 58.925838 
L 162.119008 58.46475 
L 162.887603 58.003663 
L 163.656198 57.542576 
L 164.424793 57.081489 
L 165.193388 56.620401 
L 165.961983 56.159314 
L 166.730579 55.698227 
L 167.499174 55.23714 
L 168.267769 54.776053 
L 169.036364 54.314965 
L 169.804959 53.853878 
L 170.573554 53.392791 
L 171.342149 52.931704 
L 172.110744 52.470617 
L 172.879339 52.009529 
L 173.647934 51.548442 
L 174.416529 51.087355 
L 175.185124 50.626268 
L 175.953719 50.16518 
L 176.722314 49.704093 
L 177.490909 49.243006 
L 178.259504 48.781919 
L 179.028099 48.320832 
L 179.796694 47.859744 
L 180.565289 47.398657 
L 181.333884 46.93757 
L 182.102479 46.476483 
L 182.871074 46.015395 
L 183.639669 45.554308 
L 184.408264 45.093221 
L 185.17686 44.632134 
L 185.945455 44.171047 
L 186.71405 43.709959 
L 187.482645 43.248872 
L 188.25124 42.787785 
L 189.019835 42.326698 
L 189.78843 41.865611 
L 190.557025 41.404523 
L 191.32562 40.943436 
L 192.094215 40.482349 
L 192.86281 40.021262 
L 193.631405 39.560174 
L 194.4 39.099087 
" style="fill:none;stroke:#000000;stroke-dasharray:1.85,0.8;stroke-dashoffset:0;stroke-width:0.5;"/>
   </g>
   <g id="patch_6">
    <path d="M 118.309091 94.5 
L 118.309091 12.96 
" style="fill:none;stroke:#000000;stroke-linecap:square;stroke-linejoin:miter;"/>
   </g>
   <g id="patch_7">
    <path d="M 118.309091 94.5 
L 194.4 94.5 
" style="fill:none;stroke:#000000;stroke-linecap:square;stroke-linejoin:miter;"/>
   </g>
   <g id="matplotlib.axis_3">
    <g id="xtick_4">
     <g id="line2d_14"/>
     <g id="text_12">
      <text style="font-family:Arial;font-size:8px;font-style:normal;font-weight:normal;text-anchor:middle;" transform="rotate(-0, 118.309091, 103.72625)" x="118.309091" y="103.72625">0</text>
     </g>
    </g>
    <g id="xtick_5">
     <g id="line2d_15"/>
     <g id="text_13">
      <text style="font-family:Arial;font-size:8px;font-style:normal;font-weight:normal;text-anchor:middle;" transform="rotate(-0, 162.783283, 103.72625)" x="162.783283" y="103.72625">2</text>
     </g>
    </g>
    <g id="text_14">
     <!-- $\sigma$(Exc) -->
     <g transform="translate(141.504545 116.61625)">
      <text>
       <tspan style="font-family:DejaVu Sans;font-size:10px;font-style:oblique;font-weight:oblique;" x="0" y="-0.71875">σ</tspan>
       <tspan style="font-family:Arial;font-size:10px;font-style:regular;font-weight:regular;" x="6.337891 9.667969 16.337891 21.337891 26.337891" y="-0.71875">(Exc)</tspan>
      </text>
     </g>
    </g>
   </g>
   <g id="matplotlib.axis_4">
    <g id="ytick_6">
     <g id="line2d_16"/>
     <g id="text_15">
      <text style="font-family:Arial;font-size:8px;font-style:normal;font-weight:normal;text-anchor:end;" transform="rotate(-0, 114.809091, 97.363125)" x="114.809091" y="97.363125">0</text>
     </g>
    </g>
    <g id="ytick_7">
     <g id="line2d_17"/>
     <g id="text_16">
      <text style="font-family:Arial;font-size:8px;font-style:normal;font-weight:normal;text-anchor:end;" transform="rotate(-0, 114.809091, 73.533566)" x="114.809091" y="73.533566">1</text>
     </g>
    </g>
    <g id="ytick_8">
     <g id="line2d_18"/>
     <g id="text_17">
      <text style="font-family:Arial;font-size:8px;font-style:normal;font-weight:normal;text-anchor:end;" transform="rotate(-0, 114.809091, 49.704007)" x="114.809091" y="49.704007">2</text>
     </g>
    </g>
    <g id="ytick_9">
     <g id="line2d_19"/>
     <g id="text_18">
      <text style="font-family:Arial;font-size:8px;font-style:normal;font-weight:normal;text-anchor:end;" transform="rotate(-0, 114.809091, 25.874448)" x="114.809091" y="25.874448">3</text>
     </g>
    </g>
    <g id="text_19">
     <!-- $\sigma$(Inh) -->
     <g transform="translate(104.160341 67.18)rotate(-90)">
      <text>
       <tspan style="font-family:DejaVu Sans;font-size:10px;font-style:oblique;font-weight:oblique;" x="0" y="-0.71875">σ</tspan>
       <tspan style="font-family:Arial;font-size:10px;font-style:regular;font-weight:regular;" x="6.337891 9.667969 12.446289 18.007812 23.569336" y="-0.71875">(Inh)</tspan>
      </text>
     </g>
    </g>
   </g>
   <g id="legend_2">
    <g id="line2d_20">
     <path d="M 108.478125 31.995156 
L 128.478125 31.995156 
" style="fill:none;stroke:#000000;stroke-dasharray:1.85,0.8;stroke-dashoffset:0;stroke-width:0.5;"/>
    </g>
    <g id="line2d_21"/>
    <g id="text_20">
     <!-- $R^2$ 0.36 -->
     <g transform="translate(136.478125 29.2475)">
      <text>
       <tspan style="font-family:DejaVu Sans;font-size:10px;font-style:oblique;font-weight:oblique;" x="0" y="-0.9765625">R</tspan>
       <tspan style="font-family:DejaVu Sans;font-size:7px;font-style:book;font-weight:book;" x="7.650794" y="-4.8046875">2</tspan>
       <tspan style="font-family:Arial;font-size:10px;font-style:regular;font-weight:regular;" x="12.377845 15.156165 20.717689 23.496009 29.057533" y="-0.9765625"> 0.36</tspan>
      </text>
     </g>
     <text style="font-family:Arial;font-size:10px;font-style:normal;font-weight:normal;" transform="translate(136.478125 39.86)"> slope 0.56</text>
    </g>
   </g>
  </g>
 </g>
 <defs>
  <clipPath id="pe7c2274466">
   <rect height="81.54" width="76.090909" x="27" y="12.96"/>
  </clipPath>
  <clipPath id="p37f56299b1">
   <rect height="81.54" width="76.090909" x="118.309091" y="12.96"/>
  </clipPath>
 </defs>
</svg>
