<?xml version="1.0" encoding="utf-8" standalone="no"?>
<!DOCTYPE svg PUBLIC "-//W3C//DTD SVG 1.1//EN"
  "http://www.w3.org/Graphics/SVG/1.1/DTD/svg11.dtd">
<!-- Created with matplotlib (http://matplotlib.org/) -->
<svg height="108pt" version="1.1" viewBox="0 0 216 108" width="216pt" xmlns="http://www.w3.org/2000/svg" xmlns:xlink="http://www.w3.org/1999/xlink">
 <defs>
  <style type="text/css">
*{stroke-linecap:butt;stroke-linejoin:round;}
  </style>
 </defs>
 <g id="figure_1">
  <g id="patch_1">
   <path d="M 0 108 
L 216 108 
L 216 0 
L 0 0 
z
" style="fill:#ffffff;"/>
  </g>
  <g id="axes_1">
   <g id="patch_2">
    <path d="M 27 94.5 
L 103.090909 94.5 
L 103.090909 12.96 
L 27 12.96 
z
" style="fill:#ffffff;"/>
   </g>
   <g id="LineCollection_1">
    <path clip-path="url(#p147a74df27)" d="M 25.55109 71.944734 
L 32.67561 71.944734 
" style="fill:none;stroke:#000000;stroke-width:0.5;"/>
    <path clip-path="url(#p147a74df27)" d="M 22.263318 58.575441 
L 53.887566 58.575441 
" style="fill:none;stroke:#000000;stroke-width:0.5;"/>
    <path clip-path="url(#p147a74df27)" d="M 25.536479 85.598701 
L 30.482881 85.598701 
" style="fill:none;stroke:#000000;stroke-width:0.5;"/>
    <path clip-path="url(#p147a74df27)" d="M 26.593608 78.627003 
L 35.922119 78.627003 
" style="fill:none;stroke:#000000;stroke-width:0.5;"/>
    <path clip-path="url(#p147a74df27)" d="M 25.463582 74.767988 
L 41.384175 74.767988 
" style="fill:none;stroke:#000000;stroke-width:0.5;"/>
    <path clip-path="url(#p147a74df27)" d="M 26.145611 91.626614 
L 29.033272 91.626614 
" style="fill:none;stroke:#000000;stroke-width:0.5;"/>
    <path clip-path="url(#p147a74df27)" d="M 33.092795 56.057336 
L 55.346473 56.057336 
" style="fill:none;stroke:#000000;stroke-width:0.5;"/>
    <path clip-path="url(#p147a74df27)" d="M 23.8232 61.815115 
L 40.215545 61.815115 
" style="fill:none;stroke:#000000;stroke-width:0.5;"/>
    <path clip-path="url(#p147a74df27)" d="M 27.517065 70.56405 
L 36.284848 70.56405 
" style="fill:none;stroke:#000000;stroke-width:0.5;"/>
    <path clip-path="url(#p147a74df27)" d="M 25.158258 68.276021 
L 35.506423 68.276021 
" style="fill:none;stroke:#000000;stroke-width:0.5;"/>
    <path clip-path="url(#p147a74df27)" d="M 23.132132 62.425575 
L 44.808952 62.425575 
" style="fill:none;stroke:#000000;stroke-width:0.5;"/>
    <path clip-path="url(#p147a74df27)" d="M 37.420638 29.81215 
L 46.92571 29.81215 
" style="fill:none;stroke:#000000;stroke-width:0.5;"/>
    <path clip-path="url(#p147a74df27)" d="M 25.98351 74.100469 
L 37.895997 74.100469 
" style="fill:none;stroke:#000000;stroke-width:0.5;"/>
    <path clip-path="url(#p147a74df27)" d="M 24.603324 77.22071 
L 32.703599 77.22071 
" style="fill:none;stroke:#000000;stroke-width:0.5;"/>
    <path clip-path="url(#p147a74df27)" d="M 27.980718 23.138589 
L 43.832356 23.138589 
" style="fill:none;stroke:#000000;stroke-width:0.5;"/>
    <path clip-path="url(#p147a74df27)" d="M 20.988769 40.269633 
L 46.610901 40.269633 
" style="fill:none;stroke:#000000;stroke-width:0.5;"/>
    <path clip-path="url(#p147a74df27)" d="M 31.200648 51.973222 
L 50.463054 51.973222 
" style="fill:none;stroke:#000000;stroke-width:0.5;"/>
    <path clip-path="url(#p147a74df27)" d="M 29.928813 62.603467 
L 49.501252 62.603467 
" style="fill:none;stroke:#000000;stroke-width:0.5;"/>
    <path clip-path="url(#p147a74df27)" d="M 29.708737 58.012814 
L 50.260873 58.012814 
" style="fill:none;stroke:#000000;stroke-width:0.5;"/>
    <path clip-path="url(#p147a74df27)" d="M 27.700837 50.417914 
L 43.916385 50.417914 
" style="fill:none;stroke:#000000;stroke-width:0.5;"/>
    <path clip-path="url(#p147a74df27)" d="M 27.805974 83.266125 
L 35.713288 83.266125 
" style="fill:none;stroke:#000000;stroke-width:0.5;"/>
    <path clip-path="url(#p147a74df27)" d="M 21.795606 79.155804 
L 39.385394 79.155804 
" style="fill:none;stroke:#000000;stroke-width:0.5;"/>
    <path clip-path="url(#p147a74df27)" d="M 27.681732 70.051132 
L 41.068547 70.051132 
" style="fill:none;stroke:#000000;stroke-width:0.5;"/>
    <path clip-path="url(#p147a74df27)" d="M 23.142025 72.321239 
L 44.907581 72.321239 
" style="fill:none;stroke:#000000;stroke-width:0.5;"/>
    <path clip-path="url(#p147a74df27)" d="M 30.697245 35.648726 
L 58.490625 35.648726 
" style="fill:none;stroke:#000000;stroke-width:0.5;"/>
    <path clip-path="url(#p147a74df27)" d="M 28.146684 61.643754 
L 43.016614 61.643754 
" style="fill:none;stroke:#000000;stroke-width:0.5;"/>
    <path clip-path="url(#p147a74df27)" d="M 26.743985 45.489546 
L 45.097505 45.489546 
" style="fill:none;stroke:#000000;stroke-width:0.5;"/>
    <path clip-path="url(#p147a74df27)" d="M 27.426641 86.376767 
L 32.036082 86.376767 
" style="fill:none;stroke:#000000;stroke-width:0.5;"/>
    <path clip-path="url(#p147a74df27)" d="M 27.977457 69.009271 
L 43.800997 69.009271 
" style="fill:none;stroke:#000000;stroke-width:0.5;"/>
    <path clip-path="url(#p147a74df27)" d="M 32.764182 33.941556 
L 45.453954 33.941556 
" style="fill:none;stroke:#000000;stroke-width:0.5;"/>
   </g>
   <g id="LineCollection_2">
    <path clip-path="url(#p147a74df27)" d="M 29.11335 76.472273 
L 29.11335 67.417196 
" style="fill:none;stroke:#000000;stroke-width:0.5;"/>
    <path clip-path="url(#p147a74df27)" d="M 38.075442 68.954717 
L 38.075442 48.196165 
" style="fill:none;stroke:#000000;stroke-width:0.5;"/>
    <path clip-path="url(#p147a74df27)" d="M 28.00968 89.967395 
L 28.00968 81.230008 
" style="fill:none;stroke:#000000;stroke-width:0.5;"/>
    <path clip-path="url(#p147a74df27)" d="M 31.257864 87.789395 
L 31.257864 69.464611 
" style="fill:none;stroke:#000000;stroke-width:0.5;"/>
    <path clip-path="url(#p147a74df27)" d="M 33.423879 78.011351 
L 33.423879 71.524626 
" style="fill:none;stroke:#000000;stroke-width:0.5;"/>
    <path clip-path="url(#p147a74df27)" d="M 27.589442 93.852329 
L 27.589442 89.400899 
" style="fill:none;stroke:#000000;stroke-width:0.5;"/>
    <path clip-path="url(#p147a74df27)" d="M 44.219634 72.772776 
L 44.219634 39.341895 
" style="fill:none;stroke:#000000;stroke-width:0.5;"/>
    <path clip-path="url(#p147a74df27)" d="M 32.019373 70.19545 
L 32.019373 53.434779 
" style="fill:none;stroke:#000000;stroke-width:0.5;"/>
    <path clip-path="url(#p147a74df27)" d="M 31.900956 85.639282 
L 31.900956 55.488817 
" style="fill:none;stroke:#000000;stroke-width:0.5;"/>
    <path clip-path="url(#p147a74df27)" d="M 30.332341 73.566225 
L 30.332341 62.985818 
" style="fill:none;stroke:#000000;stroke-width:0.5;"/>
    <path clip-path="url(#p147a74df27)" d="M 33.970542 66.511032 
L 33.970542 58.340118 
" style="fill:none;stroke:#000000;stroke-width:0.5;"/>
    <path clip-path="url(#p147a74df27)" d="M 42.173174 40.358658 
L 42.173174 19.265643 
" style="fill:none;stroke:#000000;stroke-width:0.5;"/>
    <path clip-path="url(#p147a74df27)" d="M 31.939753 78.664915 
L 31.939753 69.536024 
" style="fill:none;stroke:#000000;stroke-width:0.5;"/>
    <path clip-path="url(#p147a74df27)" d="M 28.653462 88.635099 
L 28.653462 65.806321 
" style="fill:none;stroke:#000000;stroke-width:0.5;"/>
    <path clip-path="url(#p147a74df27)" d="M 35.906537 29.465161 
L 35.906537 16.812016 
" style="fill:none;stroke:#000000;stroke-width:0.5;"/>
    <path clip-path="url(#p147a74df27)" d="M 33.799835 43.585109 
L 33.799835 36.954157 
" style="fill:none;stroke:#000000;stroke-width:0.5;"/>
    <path clip-path="url(#p147a74df27)" d="M 40.831851 58.178598 
L 40.831851 45.767845 
" style="fill:none;stroke:#000000;stroke-width:0.5;"/>
    <path clip-path="url(#p147a74df27)" d="M 39.715032 66.644344 
L 39.715032 58.562591 
" style="fill:none;stroke:#000000;stroke-width:0.5;"/>
    <path clip-path="url(#p147a74df27)" d="M 39.984805 62.870845 
L 39.984805 53.154782 
" style="fill:none;stroke:#000000;stroke-width:0.5;"/>
    <path clip-path="url(#p147a74df27)" d="M 35.808611 60.436798 
L 35.808611 40.39903 
" style="fill:none;stroke:#000000;stroke-width:0.5;"/>
    <path clip-path="url(#p147a74df27)" d="M 31.759631 87.072936 
L 31.759631 79.459313 
" style="fill:none;stroke:#000000;stroke-width:0.5;"/>
    <path clip-path="url(#p147a74df27)" d="M 30.5905 85.406641 
L 30.5905 72.904968 
" style="fill:none;stroke:#000000;stroke-width:0.5;"/>
    <path clip-path="url(#p147a74df27)" d="M 34.37514 75.775261 
L 34.37514 64.327003 
" style="fill:none;stroke:#000000;stroke-width:0.5;"/>
    <path clip-path="url(#p147a74df27)" d="M 34.024803 72.321239 
L 34.024803 72.321239 
" style="fill:none;stroke:#000000;stroke-width:0.5;"/>
    <path clip-path="url(#p147a74df27)" d="M 44.593935 43.483678 
L 44.593935 27.813775 
" style="fill:none;stroke:#000000;stroke-width:0.5;"/>
    <path clip-path="url(#p147a74df27)" d="M 35.581649 69.576823 
L 35.581649 53.710684 
" style="fill:none;stroke:#000000;stroke-width:0.5;"/>
    <path clip-path="url(#p147a74df27)" d="M 35.920745 54.233686 
L 35.920745 36.745406 
" style="fill:none;stroke:#000000;stroke-width:0.5;"/>
    <path clip-path="url(#p147a74df27)" d="M 29.731362 88.061229 
L 29.731362 84.692306 
" style="fill:none;stroke:#000000;stroke-width:0.5;"/>
    <path clip-path="url(#p147a74df27)" d="M 35.889227 80.428587 
L 35.889227 57.589954 
" style="fill:none;stroke:#000000;stroke-width:0.5;"/>
    <path clip-path="url(#p147a74df27)" d="M 39.109068 43.822803 
L 39.109068 24.060308 
" style="fill:none;stroke:#000000;stroke-width:0.5;"/>
   </g>
   <g id="line2d_1">
    <path clip-path="url(#p147a74df27)" d="M 27 83.876942 
L 27.768595 81.769155 
L 28.53719 79.661368 
L 29.305785 77.553581 
L 30.07438 75.445794 
L 30.842975 73.338007 
L 31.61157 71.230219 
L 32.380165 69.122432 
L 33.14876 67.014645 
L 33.917355 64.906858 
L 34.68595 62.799071 
L 35.454545 60.691284 
L 36.22314 58.583496 
L 36.991736 56.475709 
L 37.760331 54.367922 
L 38.528926 52.260135 
L 39.297521 50.152348 
L 40.066116 48.044561 
L 40.834711 45.936774 
L 41.603306 43.828986 
L 42.371901 41.721199 
L 43.140496 39.613412 
L 43.909091 37.505625 
L 44.677686 35.397838 
L 45.446281 33.290051 
L 46.214876 31.182263 
L 46.983471 29.074476 
L 47.752066 26.966689 
L 48.520661 24.858902 
L 49.289256 22.751115 
L 50.057851 20.643328 
L 50.826446 18.535541 
L 51.595041 16.427753 
L 52.363636 14.319966 
L 53.132231 12.212179 
L 53.900826 10.104392 
L 54.669421 7.996605 
L 55.438017 5.888818 
L 56.206612 3.78103 
L 56.975207 1.673243 
L 57.743802 -0.434544 
L 57.949993 -1 
" style="fill:none;stroke:#000000;stroke-dasharray:1.85,0.8;stroke-dashoffset:0;stroke-width:0.5;"/>
   </g>
   <g id="line2d_2">
    <defs>
     <path d="M 0 3 
C 0.795609 3 1.55874 2.683901 2.12132 2.12132 
C 2.683901 1.55874 3 0.795609 3 0 
C 3 -0.795609 2.683901 -1.55874 2.12132 -2.12132 
C 1.55874 -2.683901 0.795609 -3 0 -3 
C -0.795609 -3 -1.55874 -2.683901 -2.12132 -2.12132 
C -2.683901 -1.55874 -3 -0.795609 -3 0 
C -3 0.795609 -2.683901 1.55874 -2.12132 2.12132 
C -1.55874 2.683901 -0.795609 3 0 3 
z
" id="md4fdf39def" style="stroke:#000000;"/>
    </defs>
    <g clip-path="url(#p147a74df27)">
     <use style="stroke:#000000;" x="29.11335" xlink:href="#md4fdf39def" y="71.944734"/>
     <use style="stroke:#000000;" x="38.075442" xlink:href="#md4fdf39def" y="58.575441"/>
     <use style="stroke:#000000;" x="28.00968" xlink:href="#md4fdf39def" y="85.598701"/>
     <use style="stroke:#000000;" x="31.257864" xlink:href="#md4fdf39def" y="78.627003"/>
     <use style="stroke:#000000;" x="33.423879" xlink:href="#md4fdf39def" y="74.767988"/>
     <use style="stroke:#000000;" x="27.589442" xlink:href="#md4fdf39def" y="91.626614"/>
     <use style="stroke:#000000;" x="44.219634" xlink:href="#md4fdf39def" y="56.057336"/>
     <use style="stroke:#000000;" x="32.019373" xlink:href="#md4fdf39def" y="61.815115"/>
     <use style="stroke:#000000;" x="31.900956" xlink:href="#md4fdf39def" y="70.56405"/>
     <use style="stroke:#000000;" x="30.332341" xlink:href="#md4fdf39def" y="68.276021"/>
     <use style="stroke:#000000;" x="33.970542" xlink:href="#md4fdf39def" y="62.425575"/>
     <use style="stroke:#000000;" x="42.173174" xlink:href="#md4fdf39def" y="29.81215"/>
     <use style="stroke:#000000;" x="31.939753" xlink:href="#md4fdf39def" y="74.100469"/>
     <use style="stroke:#000000;" x="28.653462" xlink:href="#md4fdf39def" y="77.22071"/>
     <use style="stroke:#000000;" x="35.906537" xlink:href="#md4fdf39def" y="23.138589"/>
     <use style="stroke:#000000;" x="33.799835" xlink:href="#md4fdf39def" y="40.269633"/>
     <use style="stroke:#000000;" x="40.831851" xlink:href="#md4fdf39def" y="51.973222"/>
     <use style="stroke:#000000;" x="39.715032" xlink:href="#md4fdf39def" y="62.603467"/>
     <use style="stroke:#000000;" x="39.984805" xlink:href="#md4fdf39def" y="58.012814"/>
     <use style="stroke:#000000;" x="35.808611" xlink:href="#md4fdf39def" y="50.417914"/>
     <use style="stroke:#000000;" x="31.759631" xlink:href="#md4fdf39def" y="83.266125"/>
     <use style="stroke:#000000;" x="30.5905" xlink:href="#md4fdf39def" y="79.155804"/>
     <use style="stroke:#000000;" x="34.37514" xlink:href="#md4fdf39def" y="70.051132"/>
     <use style="stroke:#000000;" x="34.024803" xlink:href="#md4fdf39def" y="72.321239"/>
     <use style="stroke:#000000;" x="44.593935" xlink:href="#md4fdf39def" y="35.648726"/>
     <use style="stroke:#000000;" x="35.581649" xlink:href="#md4fdf39def" y="61.643754"/>
     <use style="stroke:#000000;" x="35.920745" xlink:href="#md4fdf39def" y="45.489546"/>
     <use style="stroke:#000000;" x="29.731362" xlink:href="#md4fdf39def" y="86.376767"/>
     <use style="stroke:#000000;" x="35.889227" xlink:href="#md4fdf39def" y="69.009271"/>
     <use style="stroke:#000000;" x="39.109068" xlink:href="#md4fdf39def" y="33.941556"/>
    </g>
   </g>
   <g id="patch_3">
    <path d="M 27 94.5 
L 27 12.96 
" style="fill:none;stroke:#000000;stroke-linecap:square;stroke-linejoin:miter;"/>
   </g>
   <g id="patch_4">
    <path d="M 27 94.5 
L 103.090909 94.5 
" style="fill:none;stroke:#000000;stroke-linecap:square;stroke-linejoin:miter;"/>
   </g>
   <g id="matplotlib.axis_1">
    <g id="xtick_1">
     <g id="line2d_3"/>
     <g id="text_1">
      <text style="font-family:Arial;font-size:8px;font-style:normal;font-weight:normal;text-anchor:middle;" transform="rotate(-0, 27, 103.72625)" x="27" y="103.72625">0.0</text>
     </g>
    </g>
    <g id="xtick_2">
     <g id="line2d_4"/>
     <g id="text_2">
      <text style="font-family:Arial;font-size:8px;font-style:normal;font-weight:normal;text-anchor:middle;" transform="rotate(-0, 52.581793, 103.72625)" x="52.581793" y="103.72625">2.5</text>
     </g>
    </g>
    <g id="xtick_3">
     <g id="line2d_5"/>
     <g id="text_3">
      <text style="font-family:Arial;font-size:8px;font-style:normal;font-weight:normal;text-anchor:middle;" transform="rotate(-0, 78.163585, 103.72625)" x="78.163585" y="103.72625">5.0</text>
     </g>
    </g>
    <g id="text_4">
     <text style="font-family:Arial;font-size:10px;font-style:normal;font-weight:normal;text-anchor:middle;" transform="rotate(-0, 65.045455, 116.474063)" x="65.045455" y="116.474063">Exc</text>
    </g>
   </g>
   <g id="matplotlib.axis_2">
    <g id="ytick_1">
     <g id="line2d_6"/>
     <g id="text_5">
      <text style="font-family:Arial;font-size:8px;font-style:normal;font-weight:normal;text-anchor:end;" transform="rotate(-0, 23.5, 97.363125)" x="23.5" y="97.363125">0</text>
     </g>
    </g>
    <g id="ytick_2">
     <g id="line2d_7"/>
     <g id="text_6">
      <text style="font-family:Arial;font-size:8px;font-style:normal;font-weight:normal;text-anchor:end;" transform="rotate(-0, 23.5, 75.432102)" x="23.5" y="75.432102">2</text>
     </g>
    </g>
    <g id="ytick_3">
     <g id="line2d_8"/>
     <g id="text_7">
      <text style="font-family:Arial;font-size:8px;font-style:normal;font-weight:normal;text-anchor:end;" transform="rotate(-0, 23.5, 53.501079)" x="23.5" y="53.501079">4</text>
     </g>
    </g>
    <g id="ytick_4">
     <g id="line2d_9"/>
     <g id="text_8">
      <text style="font-family:Arial;font-size:8px;font-style:normal;font-weight:normal;text-anchor:end;" transform="rotate(-0, 23.5, 31.570055)" x="23.5" y="31.570055">6</text>
     </g>
    </g>
    <g id="text_9">
     <text style="font-family:Arial;font-size:10px;font-style:normal;font-weight:normal;text-anchor:middle;" transform="rotate(-90, 13.06375, 53.73)" x="13.06375" y="53.73">Inh</text>
    </g>
   </g>
   <g id="legend_1">
    <g id="line2d_10">
     <path d="M 36 75.622656 
L 56 75.622656 
" style="fill:none;stroke:#000000;stroke-dasharray:1.85,0.8;stroke-dashoffset:0;stroke-width:0.5;"/>
    </g>
    <g id="line2d_11"/>
    <g id="text_10">
     <!-- $R^2$ 0.53 -->
     <g transform="translate(64 72.875)">
      <text>
       <tspan style="font-family:DejaVu Sans;font-size:10px;font-style:oblique;font-weight:oblique;" x="0" y="-0.9765625">R</tspan>
       <tspan style="font-family:DejaVu Sans;font-size:7px;font-style:book;font-weight:book;" x="7.650794" y="-4.8046875">2</tspan>
       <tspan style="font-family:Arial;font-size:10px;font-style:regular;font-weight:regular;" x="12.377845 15.156165 20.717689 23.496009 29.057533" y="-0.9765625"> 0.53</tspan>
      </text>
     </g>
     <text style="font-family:Arial;font-size:10px;font-style:normal;font-weight:normal;" transform="translate(64 83.4875)"> slope 2.56</text>
    </g>
   </g>
  </g>
  <g id="axes_2">
   <g id="patch_5">
    <path d="M 118.309091 94.5 
L 194.4 94.5 
L 194.4 12.96 
L 118.309091 12.96 
z
" style="fill:#ffffff;"/>
   </g>
   <g id="PathCollection_1">
    <defs>
     <path d="M 0 2.44949 
C 0.649612 2.44949 1.272706 2.191396 1.732051 1.732051 
C 2.191396 1.272706 2.44949 0.649612 2.44949 0 
C 2.44949 -0.649612 2.191396 -1.272706 1.732051 -1.732051 
C 1.272706 -2.191396 0.649612 -2.44949 0 -2.44949 
C -0.649612 -2.44949 -1.272706 -2.191396 -1.732051 -1.732051 
C -2.191396 -1.272706 -2.44949 -0.649612 -2.44949 0 
C -2.44949 0.649612 -2.191396 1.272706 -1.732051 1.732051 
C -1.272706 2.191396 -0.649612 2.44949 0 2.44949 
z
" id="ma2f2932b27" style="stroke:#000000;"/>
    </defs>
    <g clip-path="url(#pace7cbbd0a)">
     <use style="stroke:#000000;" x="134.528589" xlink:href="#ma2f2932b27" y="73.885446"/>
     <use style="stroke:#000000;" x="190.304038" xlink:href="#ma2f2932b27" y="47.241616"/>
     <use style="stroke:#000000;" x="129.569941" xlink:href="#ma2f2932b27" y="74.608691"/>
     <use style="stroke:#000000;" x="139.54614" xlink:href="#ma2f2932b27" y="52.782271"/>
     <use style="stroke:#000000;" x="154.553501" xlink:href="#ma2f2932b27" y="79.732489"/>
     <use style="stroke:#000000;" x="124.883067" xlink:href="#ma2f2932b27" y="84.365988"/>
     <use style="stroke:#000000;" x="168.971241" xlink:href="#ma2f2932b27" y="18.39212"/>
     <use style="stroke:#000000;" x="155.62748" xlink:href="#ma2f2932b27" y="56.34309"/>
     <use style="stroke:#000000;" x="138.2696" xlink:href="#ma2f2932b27" y="25.860229"/>
     <use style="stroke:#000000;" x="141.867457" xlink:href="#ma2f2932b27" y="70.412919"/>
     <use style="stroke:#000000;" x="167.657981" xlink:href="#ma2f2932b27" y="75.898307"/>
     <use style="stroke:#000000;" x="139.948092" xlink:href="#ma2f2932b27" y="46.480186"/>
     <use style="stroke:#000000;" x="145.42875" xlink:href="#ma2f2932b27" y="73.717402"/>
     <use style="stroke:#000000;" x="136.749968" xlink:href="#ma2f2932b27" y="42.528593"/>
     <use style="stroke:#000000;" x="154.39652" xlink:href="#ma2f2932b27" y="65.694175"/>
     <use style="stroke:#000000;" x="176.639775" xlink:href="#ma2f2932b27" y="79.404145"/>
     <use style="stroke:#000000;" x="162.161388" xlink:href="#ma2f2932b27" y="66.245998"/>
     <use style="stroke:#000000;" x="162.867201" xlink:href="#ma2f2932b27" y="76.101288"/>
     <use style="stroke:#000000;" x="165.097552" xlink:href="#ma2f2932b27" y="72.380662"/>
     <use style="stroke:#000000;" x="155.224987" xlink:href="#ma2f2932b27" y="48.882535"/>
     <use style="stroke:#000000;" x="136.310678" xlink:href="#ma2f2932b27" y="77.167022"/>
     <use style="stroke:#000000;" x="158.353548" xlink:href="#ma2f2932b27" y="66.039015"/>
     <use style="stroke:#000000;" x="148.785169" xlink:href="#ma2f2932b27" y="68.437191"/>
     <use style="stroke:#000000;" x="167.859995" xlink:href="#ma2f2932b27" y="94.5"/>
     <use style="stroke:#000000;" x="181.582783" xlink:href="#ma2f2932b27" y="58.826305"/>
     <use style="stroke:#000000;" x="152.161588" xlink:href="#ma2f2932b27" y="58.379559"/>
     <use style="stroke:#000000;" x="160.092241" xlink:href="#ma2f2932b27" y="54.686631"/>
     <use style="stroke:#000000;" x="128.802826" xlink:href="#ma2f2932b27" y="86.830397"/>
     <use style="stroke:#000000;" x="154.332554" xlink:href="#ma2f2932b27" y="42.506155"/>
     <use style="stroke:#000000;" x="147.1983" xlink:href="#ma2f2932b27" y="49.509213"/>
    </g>
   </g>
   <g id="line2d_12">
    <path clip-path="url(#pace7cbbd0a)" d="M 118.309091 67.287304 
L 119.077686 67.189763 
L 119.846281 67.092221 
L 120.614876 66.99468 
L 121.383471 66.897138 
L 122.152066 66.799597 
L 122.920661 66.702055 
L 123.689256 66.604514 
L 124.457851 66.506973 
L 125.226446 66.409431 
L 125.995041 66.31189 
L 126.763636 66.214348 
L 127.532231 66.116807 
L 128.300826 66.019266 
L 129.069421 65.921724 
L 129.838017 65.824183 
L 130.606612 65.726641 
L 131.375207 65.6291 
L 132.143802 65.531558 
L 132.912397 65.434017 
L 133.680992 65.336476 
L 134.449587 65.238934 
L 135.218182 65.141393 
L 135.986777 65.043851 
L 136.755372 64.94631 
L 137.523967 64.848768 
L 138.292562 64.751227 
L 139.061157 64.653686 
L 139.829752 64.556144 
L 140.598347 64.458603 
L 141.366942 64.361061 
L 142.135537 64.26352 
L 142.904132 64.165978 
L 143.672727 64.068437 
L 144.441322 63.970896 
L 145.209917 63.873354 
L 145.978512 63.775813 
L 146.747107 63.678271 
L 147.515702 63.58073 
L 148.284298 63.483188 
L 149.052893 63.385647 
L 149.821488 63.288106 
L 150.590083 63.190564 
L 151.358678 63.093023 
L 152.127273 62.995481 
L 152.895868 62.89794 
L 153.664463 62.800398 
L 154.433058 62.702857 
L 155.201653 62.605316 
L 155.970248 62.507774 
L 156.738843 62.410233 
L 157.507438 62.312691 
L 158.276033 62.21515 
L 159.044628 62.117608 
L 159.813223 62.020067 
L 160.581818 61.922526 
L 161.350413 61.824984 
L 162.119008 61.727443 
L 162.887603 61.629901 
L 163.656198 61.53236 
L 164.424793 61.434818 
L 165.193388 61.337277 
L 165.961983 61.239736 
L 166.730579 61.142194 
L 167.499174 61.044653 
L 168.267769 60.947111 
L 169.036364 60.84957 
L 169.804959 60.752028 
L 170.573554 60.654487 
L 171.342149 60.556946 
L 172.110744 60.459404 
L 172.879339 60.361863 
L 173.647934 60.264321 
L 174.416529 60.16678 
L 175.185124 60.069238 
L 175.953719 59.971697 
L 176.722314 59.874156 
L 177.490909 59.776614 
L 178.259504 59.679073 
L 179.028099 59.581531 
L 179.796694 59.48399 
L 180.565289 59.386448 
L 181.333884 59.288907 
L 182.102479 59.191366 
L 182.871074 59.093824 
L 183.639669 58.996283 
L 184.408264 58.898741 
L 185.17686 58.8012 
L 185.945455 58.703658 
L 186.71405 58.606117 
L 187.482645 58.508576 
L 188.25124 58.411034 
L 189.019835 58.313493 
L 189.78843 58.215951 
L 190.557025 58.11841 
L 191.32562 58.020868 
L 192.094215 57.923327 
L 192.86281 57.825786 
L 193.631405 57.728244 
L 194.4 57.630703 
" style="fill:none;stroke:#000000;stroke-dasharray:1.85,0.8;stroke-dashoffset:0;stroke-width:0.5;"/>
   </g>
   <g id="patch_6">
    <path d="M 118.309091 94.5 
L 118.309091 12.96 
" style="fill:none;stroke:#000000;stroke-linecap:square;stroke-linejoin:miter;"/>
   </g>
   <g id="patch_7">
    <path d="M 118.309091 94.5 
L 194.4 94.5 
" style="fill:none;stroke:#000000;stroke-linecap:square;stroke-linejoin:miter;"/>
   </g>
   <g id="matplotlib.axis_3">
    <g id="xtick_4">
     <g id="line2d_13"/>
     <g id="text_11">
      <text style="font-family:Arial;font-size:8px;font-style:normal;font-weight:normal;text-anchor:middle;" transform="rotate(-0, 118.309091, 103.72625)" x="118.309091" y="103.72625">0</text>
     </g>
    </g>
    <g id="xtick_5">
     <g id="line2d_14"/>
     <g id="text_12">
      <text style="font-family:Arial;font-size:8px;font-style:normal;font-weight:normal;text-anchor:middle;" transform="rotate(-0, 164.90017, 103.72625)" x="164.90017" y="103.72625">1</text>
     </g>
    </g>
    <g id="text_13">
     <!-- $\sigma$(Exc) -->
     <g transform="translate(141.504545 116.61625)">
      <text>
       <tspan style="font-family:DejaVu Sans;font-size:10px;font-style:oblique;font-weight:oblique;" x="0" y="-0.71875">σ</tspan>
       <tspan style="font-family:Arial;font-size:10px;font-style:regular;font-weight:regular;" x="6.337891 9.667969 16.337891 21.337891 26.337891" y="-0.71875">(Exc)</tspan>
      </text>
     </g>
    </g>
   </g>
   <g id="matplotlib.axis_4">
    <g id="ytick_5">
     <g id="line2d_15"/>
     <g id="text_14">
      <text style="font-family:Arial;font-size:8px;font-style:normal;font-weight:normal;text-anchor:end;" transform="rotate(-0, 114.809091, 97.363125)" x="114.809091" y="97.363125">0.0</text>
     </g>
    </g>
    <g id="ytick_6">
     <g id="line2d_16"/>
     <g id="text_15">
      <text style="font-family:Arial;font-size:8px;font-style:normal;font-weight:normal;text-anchor:end;" transform="rotate(-0, 114.809091, 72.399324)" x="114.809091" y="72.399324">0.5</text>
     </g>
    </g>
    <g id="ytick_7">
     <g id="line2d_17"/>
     <g id="text_16">
      <text style="font-family:Arial;font-size:8px;font-style:normal;font-weight:normal;text-anchor:end;" transform="rotate(-0, 114.809091, 47.435524)" x="114.809091" y="47.435524">1.0</text>
     </g>
    </g>
    <g id="ytick_8">
     <g id="line2d_18"/>
     <g id="text_17">
      <text style="font-family:Arial;font-size:8px;font-style:normal;font-weight:normal;text-anchor:end;" transform="rotate(-0, 114.809091, 22.471723)" x="114.809091" y="22.471723">1.5</text>
     </g>
    </g>
    <g id="text_18">
     <!-- $\sigma$(Inh) -->
     <g transform="translate(97.489091 67.18)rotate(-90)">
      <text>
       <tspan style="font-family:DejaVu Sans;font-size:10px;font-style:oblique;font-weight:oblique;" x="0" y="-0.71875">σ</tspan>
       <tspan style="font-family:Arial;font-size:10px;font-style:regular;font-weight:regular;" x="6.337891 9.667969 12.446289 18.007812 23.569336" y="-0.71875">(Inh)</tspan>
      </text>
     </g>
    </g>
   </g>
   <g id="legend_2">
    <g id="line2d_19">
     <path d="M 108.478125 31.995156 
L 128.478125 31.995156 
" style="fill:none;stroke:#000000;stroke-dasharray:1.85,0.8;stroke-dashoffset:0;stroke-width:0.5;"/>
    </g>
    <g id="line2d_20"/>
    <g id="text_19">
     <!-- $R^2$ 0.01 -->
     <g transform="translate(136.478125 29.2475)">
      <text>
       <tspan style="font-family:DejaVu Sans;font-size:10px;font-style:oblique;font-weight:oblique;" x="0" y="-0.9765625">R</tspan>
       <tspan style="font-family:DejaVu Sans;font-size:7px;font-style:book;font-weight:book;" x="7.650794" y="-4.8046875">2</tspan>
       <tspan style="font-family:Arial;font-size:10px;font-style:regular;font-weight:regular;" x="12.377845 15.156165 20.717689 23.496009 29.057533" y="-0.9765625"> 0.01</tspan>
      </text>
     </g>
     <text style="font-family:Arial;font-size:10px;font-style:normal;font-weight:normal;" transform="translate(136.478125 39.86)"> slope 0.12</text>
    </g>
   </g>
  </g>
 </g>
 <defs>
  <clipPath id="p147a74df27">
   <rect height="81.54" width="76.090909" x="27" y="12.96"/>
  </clipPath>
  <clipPath id="pace7cbbd0a">
   <rect height="81.54" width="76.090909" x="118.309091" y="12.96"/>
  </clipPath>
 </defs>
</svg>
