<?xml version="1.0" encoding="utf-8" standalone="no"?>
<!DOCTYPE svg PUBLIC "-//W3C//DTD SVG 1.1//EN"
  "http://www.w3.org/Graphics/SVG/1.1/DTD/svg11.dtd">
<!-- Created with matplotlib (http://matplotlib.org/) -->
<svg height="108pt" version="1.1" viewBox="0 0 216 108" width="216pt" xmlns="http://www.w3.org/2000/svg" xmlns:xlink="http://www.w3.org/1999/xlink">
 <defs>
  <style type="text/css">
*{stroke-linecap:butt;stroke-linejoin:round;}
  </style>
 </defs>
 <g id="figure_1">
  <g id="patch_1">
   <path d="M 0 108 
L 216 108 
L 216 0 
L 0 0 
z
" style="fill:#ffffff;"/>
  </g>
  <g id="axes_1">
   <g id="patch_2">
    <path d="M 27 94.5 
L 103.090909 94.5 
L 103.090909 12.96 
L 27 12.96 
z
" style="fill:#ffffff;"/>
   </g>
   <g id="LineCollection_1">
    <path clip-path="url(#pb945f2938e)" d="M 25.726672 73.931612 
L 38.86822 73.931612 
" style="fill:none;stroke:#000000;stroke-width:0.5;"/>
    <path clip-path="url(#pb945f2938e)" d="M 25.546292 49.921517 
L 42.313667 49.921517 
" style="fill:none;stroke:#000000;stroke-width:0.5;"/>
    <path clip-path="url(#pb945f2938e)" d="M 27 86.757403 
L 27 86.757403 
" style="fill:none;stroke:#000000;stroke-width:0.5;"/>
    <path clip-path="url(#pb945f2938e)" d="M 28.949737 70.057732 
L 36.768905 70.057732 
" style="fill:none;stroke:#000000;stroke-width:0.5;"/>
    <path clip-path="url(#pb945f2938e)" d="M 27.634225 66.13888 
L 40.026427 66.13888 
" style="fill:none;stroke:#000000;stroke-width:0.5;"/>
    <path clip-path="url(#pb945f2938e)" d="M 25.934717 64.364222 
L 31.763429 64.364222 
" style="fill:none;stroke:#000000;stroke-width:0.5;"/>
    <path clip-path="url(#pb945f2938e)" d="M 29.193998 56.574295 
L 36.646136 56.574295 
" style="fill:none;stroke:#000000;stroke-width:0.5;"/>
    <path clip-path="url(#pb945f2938e)" d="M 32.435516 35.91025 
L 52.283689 35.91025 
" style="fill:none;stroke:#000000;stroke-width:0.5;"/>
    <path clip-path="url(#pb945f2938e)" d="M 26.631861 61.211668 
L 47.645353 61.211668 
" style="fill:none;stroke:#000000;stroke-width:0.5;"/>
    <path clip-path="url(#pb945f2938e)" d="M 28.888505 58.345295 
L 52.415541 58.345295 
" style="fill:none;stroke:#000000;stroke-width:0.5;"/>
    <path clip-path="url(#pb945f2938e)" d="M 24.864246 84.490168 
L 32.08266 84.490168 
" style="fill:none;stroke:#000000;stroke-width:0.5;"/>
    <path clip-path="url(#pb945f2938e)" d="M 21.670296 58.572018 
L 51.613541 58.572018 
" style="fill:none;stroke:#000000;stroke-width:0.5;"/>
    <path clip-path="url(#pb945f2938e)" d="M 25.416438 54.315538 
L 33.79139 54.315538 
" style="fill:none;stroke:#000000;stroke-width:0.5;"/>
    <path clip-path="url(#pb945f2938e)" d="M 36.91206 46.277069 
L 57.063068 46.277069 
" style="fill:none;stroke:#000000;stroke-width:0.5;"/>
    <path clip-path="url(#pb945f2938e)" d="M 27.675508 46.297251 
L 33.587544 46.297251 
" style="fill:none;stroke:#000000;stroke-width:0.5;"/>
    <path clip-path="url(#pb945f2938e)" d="M 25.666438 80.615567 
L 33.190001 80.615567 
" style="fill:none;stroke:#000000;stroke-width:0.5;"/>
    <path clip-path="url(#pb945f2938e)" d="M 23.864384 53.443813 
L 58.227416 53.443813 
" style="fill:none;stroke:#000000;stroke-width:0.5;"/>
    <path clip-path="url(#pb945f2938e)" d="M 25.848001 57.12882 
L 38.691297 57.12882 
" style="fill:none;stroke:#000000;stroke-width:0.5;"/>
    <path clip-path="url(#pb945f2938e)" d="M 24.305291 55.217272 
L 42.61991 55.217272 
" style="fill:none;stroke:#000000;stroke-width:0.5;"/>
    <path clip-path="url(#pb945f2938e)" d="M 26.156854 75.083596 
L 45.510802 75.083596 
" style="fill:none;stroke:#000000;stroke-width:0.5;"/>
    <path clip-path="url(#pb945f2938e)" d="M 24.654956 64.111099 
L 32.580727 64.111099 
" style="fill:none;stroke:#000000;stroke-width:0.5;"/>
    <path clip-path="url(#pb945f2938e)" d="M 25.23146 46.394684 
L 44.728326 46.394684 
" style="fill:none;stroke:#000000;stroke-width:0.5;"/>
    <path clip-path="url(#pb945f2938e)" d="M 36.54523 51.089167 
L 47.054312 51.089167 
" style="fill:none;stroke:#000000;stroke-width:0.5;"/>
    <path clip-path="url(#pb945f2938e)" d="M 35.204248 32.54833 
L 58.540518 32.54833 
" style="fill:none;stroke:#000000;stroke-width:0.5;"/>
    <path clip-path="url(#pb945f2938e)" d="M 30.281565 72.313338 
L 39.938695 72.313338 
" style="fill:none;stroke:#000000;stroke-width:0.5;"/>
    <path clip-path="url(#pb945f2938e)" d="M 25.036933 47.246364 
L 43.525222 47.246364 
" style="fill:none;stroke:#000000;stroke-width:0.5;"/>
    <path clip-path="url(#pb945f2938e)" d="M 30.961805 65.425905 
L 36.274928 65.425905 
" style="fill:none;stroke:#000000;stroke-width:0.5;"/>
    <path clip-path="url(#pb945f2938e)" d="M 26.266512 68.759483 
L 36.824282 68.759483 
" style="fill:none;stroke:#000000;stroke-width:0.5;"/>
    <path clip-path="url(#pb945f2938e)" d="M 27.298058 64.232429 
L 53.296815 64.232429 
" style="fill:none;stroke:#000000;stroke-width:0.5;"/>
    <path clip-path="url(#pb945f2938e)" d="M 26.431852 67.456091 
L 39.304798 67.456091 
" style="fill:none;stroke:#000000;stroke-width:0.5;"/>
   </g>
   <g id="LineCollection_2">
    <path clip-path="url(#pb945f2938e)" d="M 32.297446 79.384822 
L 32.297446 68.478401 
" style="fill:none;stroke:#000000;stroke-width:0.5;"/>
    <path clip-path="url(#pb945f2938e)" d="M 33.929979 57.171403 
L 33.929979 42.671631 
" style="fill:none;stroke:#000000;stroke-width:0.5;"/>
    <path clip-path="url(#pb945f2938e)" d="M 27 90.550485 
L 27 82.964321 
" style="fill:none;stroke:#000000;stroke-width:0.5;"/>
    <path clip-path="url(#pb945f2938e)" d="M 32.859321 74.64208 
L 32.859321 65.473384 
" style="fill:none;stroke:#000000;stroke-width:0.5;"/>
    <path clip-path="url(#pb945f2938e)" d="M 33.830326 72.638818 
L 33.830326 59.638941 
" style="fill:none;stroke:#000000;stroke-width:0.5;"/>
    <path clip-path="url(#pb945f2938e)" d="M 28.849073 72.804026 
L 28.849073 55.924417 
" style="fill:none;stroke:#000000;stroke-width:0.5;"/>
    <path clip-path="url(#pb945f2938e)" d="M 32.920067 60.618249 
L 32.920067 52.53034 
" style="fill:none;stroke:#000000;stroke-width:0.5;"/>
    <path clip-path="url(#pb945f2938e)" d="M 42.359602 45.634455 
L 42.359602 26.186046 
" style="fill:none;stroke:#000000;stroke-width:0.5;"/>
    <path clip-path="url(#pb945f2938e)" d="M 37.138607 67.322463 
L 37.138607 55.100873 
" style="fill:none;stroke:#000000;stroke-width:0.5;"/>
    <path clip-path="url(#pb945f2938e)" d="M 40.652023 67.533668 
L 40.652023 49.156923 
" style="fill:none;stroke:#000000;stroke-width:0.5;"/>
    <path clip-path="url(#pb945f2938e)" d="M 28.473453 89.393964 
L 28.473453 79.586373 
" style="fill:none;stroke:#000000;stroke-width:0.5;"/>
    <path clip-path="url(#pb945f2938e)" d="M 36.641918 67.660505 
L 36.641918 49.483531 
" style="fill:none;stroke:#000000;stroke-width:0.5;"/>
    <path clip-path="url(#pb945f2938e)" d="M 29.603914 62.444709 
L 29.603914 46.186366 
" style="fill:none;stroke:#000000;stroke-width:0.5;"/>
    <path clip-path="url(#pb945f2938e)" d="M 46.987564 55.535235 
L 46.987564 37.018902 
" style="fill:none;stroke:#000000;stroke-width:0.5;"/>
    <path clip-path="url(#pb945f2938e)" d="M 30.631526 57.860468 
L 30.631526 34.734034 
" style="fill:none;stroke:#000000;stroke-width:0.5;"/>
    <path clip-path="url(#pb945f2938e)" d="M 29.42822 80.615567 
L 29.42822 80.615567 
" style="fill:none;stroke:#000000;stroke-width:0.5;"/>
    <path clip-path="url(#pb945f2938e)" d="M 41.0459 63.867089 
L 41.0459 43.020537 
" style="fill:none;stroke:#000000;stroke-width:0.5;"/>
    <path clip-path="url(#pb945f2938e)" d="M 32.269649 68.220828 
L 32.269649 46.036813 
" style="fill:none;stroke:#000000;stroke-width:0.5;"/>
    <path clip-path="url(#pb945f2938e)" d="M 33.4626 68.255191 
L 33.4626 42.179353 
" style="fill:none;stroke:#000000;stroke-width:0.5;"/>
    <path clip-path="url(#pb945f2938e)" d="M 35.833828 82.897493 
L 35.833828 67.269699 
" style="fill:none;stroke:#000000;stroke-width:0.5;"/>
    <path clip-path="url(#pb945f2938e)" d="M 28.617841 75.551842 
L 28.617841 52.670357 
" style="fill:none;stroke:#000000;stroke-width:0.5;"/>
    <path clip-path="url(#pb945f2938e)" d="M 34.979893 69.642022 
L 34.979893 23.147345 
" style="fill:none;stroke:#000000;stroke-width:0.5;"/>
    <path clip-path="url(#pb945f2938e)" d="M 41.799771 59.938076 
L 41.799771 42.240258 
" style="fill:none;stroke:#000000;stroke-width:0.5;"/>
    <path clip-path="url(#pb945f2938e)" d="M 46.872383 48.441876 
L 46.872383 16.654785 
" style="fill:none;stroke:#000000;stroke-width:0.5;"/>
    <path clip-path="url(#pb945f2938e)" d="M 35.11013 81.397203 
L 35.11013 63.229473 
" style="fill:none;stroke:#000000;stroke-width:0.5;"/>
    <path clip-path="url(#pb945f2938e)" d="M 34.281077 60.192003 
L 34.281077 34.300725 
" style="fill:none;stroke:#000000;stroke-width:0.5;"/>
    <path clip-path="url(#pb945f2938e)" d="M 33.618366 73.098383 
L 33.618366 57.753428 
" style="fill:none;stroke:#000000;stroke-width:0.5;"/>
    <path clip-path="url(#pb945f2938e)" d="M 31.545397 75.243646 
L 31.545397 62.27532 
" style="fill:none;stroke:#000000;stroke-width:0.5;"/>
    <path clip-path="url(#pb945f2938e)" d="M 40.297436 74.876718 
L 40.297436 53.588141 
" style="fill:none;stroke:#000000;stroke-width:0.5;"/>
    <path clip-path="url(#pb945f2938e)" d="M 32.868325 72.899681 
L 32.868325 62.012501 
" style="fill:none;stroke:#000000;stroke-width:0.5;"/>
   </g>
   <g id="line2d_1">
    <path clip-path="url(#pb945f2938e)" d="M 27 72.935545 
L 27.768595 71.719113 
L 28.53719 70.502681 
L 29.305785 69.286249 
L 30.07438 68.069817 
L 30.842975 66.853385 
L 31.61157 65.636953 
L 32.380165 64.420521 
L 33.14876 63.204089 
L 33.917355 61.987657 
L 34.68595 60.771225 
L 35.454545 59.554793 
L 36.22314 58.338361 
L 36.991736 57.121929 
L 37.760331 55.905497 
L 38.528926 54.689065 
L 39.297521 53.472633 
L 40.066116 52.256201 
L 40.834711 51.039769 
L 41.603306 49.823337 
L 42.371901 48.606905 
L 43.140496 47.390473 
L 43.909091 46.174041 
L 44.677686 44.957609 
L 45.446281 43.741177 
L 46.214876 42.524745 
L 46.983471 41.308313 
L 47.752066 40.091881 
L 48.520661 38.875449 
L 49.289256 37.659017 
L 50.057851 36.442585 
L 50.826446 35.226154 
L 51.595041 34.009722 
L 52.363636 32.79329 
L 53.132231 31.576858 
L 53.900826 30.360426 
L 54.669421 29.143994 
L 55.438017 27.927562 
L 56.206612 26.71113 
L 56.975207 25.494698 
L 57.743802 24.278266 
L 58.512397 23.061834 
L 59.280992 21.845402 
L 60.049587 20.62897 
L 60.818182 19.412538 
L 61.586777 18.196106 
L 62.355372 16.979674 
L 63.123967 15.763242 
L 63.892562 14.54681 
L 64.661157 13.330378 
L 65.429752 12.113946 
L 66.198347 10.897514 
L 66.966942 9.681082 
L 67.735537 8.46465 
L 68.504132 7.248218 
L 69.272727 6.031786 
L 70.041322 4.815354 
L 70.809917 3.598922 
L 71.578512 2.38249 
L 72.347107 1.166058 
L 73.115702 -0.050374 
L 73.715718 -1 
" style="fill:none;stroke:#000000;stroke-dasharray:1.85,0.8;stroke-dashoffset:0;stroke-width:0.5;"/>
   </g>
   <g id="line2d_2">
    <defs>
     <path d="M 0 3 
C 0.795609 3 1.55874 2.683901 2.12132 2.12132 
C 2.683901 1.55874 3 0.795609 3 0 
C 3 -0.795609 2.683901 -1.55874 2.12132 -2.12132 
C 1.55874 -2.683901 0.795609 -3 0 -3 
C -0.795609 -3 -1.55874 -2.683901 -2.12132 -2.12132 
C -2.683901 -1.55874 -3 -0.795609 -3 0 
C -3 0.795609 -2.683901 1.55874 -2.12132 2.12132 
C -1.55874 2.683901 -0.795609 3 0 3 
z
" id="medb6ba0f4e" style="stroke:#000000;"/>
    </defs>
    <g clip-path="url(#pb945f2938e)">
     <use style="stroke:#000000;" x="32.297446" xlink:href="#medb6ba0f4e" y="73.931612"/>
     <use style="stroke:#000000;" x="33.929979" xlink:href="#medb6ba0f4e" y="49.921517"/>
     <use style="stroke:#000000;" x="27" xlink:href="#medb6ba0f4e" y="86.757403"/>
     <use style="stroke:#000000;" x="32.859321" xlink:href="#medb6ba0f4e" y="70.057732"/>
     <use style="stroke:#000000;" x="33.830326" xlink:href="#medb6ba0f4e" y="66.13888"/>
     <use style="stroke:#000000;" x="28.849073" xlink:href="#medb6ba0f4e" y="64.364222"/>
     <use style="stroke:#000000;" x="32.920067" xlink:href="#medb6ba0f4e" y="56.574295"/>
     <use style="stroke:#000000;" x="42.359602" xlink:href="#medb6ba0f4e" y="35.91025"/>
     <use style="stroke:#000000;" x="37.138607" xlink:href="#medb6ba0f4e" y="61.211668"/>
     <use style="stroke:#000000;" x="40.652023" xlink:href="#medb6ba0f4e" y="58.345295"/>
     <use style="stroke:#000000;" x="28.473453" xlink:href="#medb6ba0f4e" y="84.490168"/>
     <use style="stroke:#000000;" x="36.641918" xlink:href="#medb6ba0f4e" y="58.572018"/>
     <use style="stroke:#000000;" x="29.603914" xlink:href="#medb6ba0f4e" y="54.315538"/>
     <use style="stroke:#000000;" x="46.987564" xlink:href="#medb6ba0f4e" y="46.277069"/>
     <use style="stroke:#000000;" x="30.631526" xlink:href="#medb6ba0f4e" y="46.297251"/>
     <use style="stroke:#000000;" x="29.42822" xlink:href="#medb6ba0f4e" y="80.615567"/>
     <use style="stroke:#000000;" x="41.0459" xlink:href="#medb6ba0f4e" y="53.443813"/>
     <use style="stroke:#000000;" x="32.269649" xlink:href="#medb6ba0f4e" y="57.12882"/>
     <use style="stroke:#000000;" x="33.4626" xlink:href="#medb6ba0f4e" y="55.217272"/>
     <use style="stroke:#000000;" x="35.833828" xlink:href="#medb6ba0f4e" y="75.083596"/>
     <use style="stroke:#000000;" x="28.617841" xlink:href="#medb6ba0f4e" y="64.111099"/>
     <use style="stroke:#000000;" x="34.979893" xlink:href="#medb6ba0f4e" y="46.394684"/>
     <use style="stroke:#000000;" x="41.799771" xlink:href="#medb6ba0f4e" y="51.089167"/>
     <use style="stroke:#000000;" x="46.872383" xlink:href="#medb6ba0f4e" y="32.54833"/>
     <use style="stroke:#000000;" x="35.11013" xlink:href="#medb6ba0f4e" y="72.313338"/>
     <use style="stroke:#000000;" x="34.281077" xlink:href="#medb6ba0f4e" y="47.246364"/>
     <use style="stroke:#000000;" x="33.618366" xlink:href="#medb6ba0f4e" y="65.425905"/>
     <use style="stroke:#000000;" x="31.545397" xlink:href="#medb6ba0f4e" y="68.759483"/>
     <use style="stroke:#000000;" x="40.297436" xlink:href="#medb6ba0f4e" y="64.232429"/>
     <use style="stroke:#000000;" x="32.868325" xlink:href="#medb6ba0f4e" y="67.456091"/>
    </g>
   </g>
   <g id="patch_3">
    <path d="M 27 94.5 
L 27 12.96 
" style="fill:none;stroke:#000000;stroke-linecap:square;stroke-linejoin:miter;"/>
   </g>
   <g id="patch_4">
    <path d="M 27 94.5 
L 103.090909 94.5 
" style="fill:none;stroke:#000000;stroke-linecap:square;stroke-linejoin:miter;"/>
   </g>
   <g id="matplotlib.axis_1">
    <g id="xtick_1">
     <g id="line2d_3"/>
     <g id="text_1">
      <text style="font-family:Arial;font-size:8px;font-style:normal;font-weight:normal;text-anchor:middle;" transform="rotate(-0, 27, 103.72625)" x="27" y="103.72625">0.0</text>
     </g>
    </g>
    <g id="xtick_2">
     <g id="line2d_4"/>
     <g id="text_2">
      <text style="font-family:Arial;font-size:8px;font-style:normal;font-weight:normal;text-anchor:middle;" transform="rotate(-0, 54.991413, 103.72625)" x="54.991413" y="103.72625">2.5</text>
     </g>
    </g>
    <g id="xtick_3">
     <g id="line2d_5"/>
     <g id="text_3">
      <text style="font-family:Arial;font-size:8px;font-style:normal;font-weight:normal;text-anchor:middle;" transform="rotate(-0, 82.982825, 103.72625)" x="82.982825" y="103.72625">5.0</text>
     </g>
    </g>
    <g id="text_4">
     <text style="font-family:Arial;font-size:10px;font-style:normal;font-weight:normal;text-anchor:middle;" transform="rotate(-0, 65.045455, 116.474063)" x="65.045455" y="116.474063">Exc</text>
    </g>
   </g>
   <g id="matplotlib.axis_2">
    <g id="ytick_1">
     <g id="line2d_6"/>
     <g id="text_5">
      <text style="font-family:Arial;font-size:8px;font-style:normal;font-weight:normal;text-anchor:end;" transform="rotate(-0, 23.5, 97.363125)" x="23.5" y="97.363125">0</text>
     </g>
    </g>
    <g id="ytick_2">
     <g id="line2d_7"/>
     <g id="text_6">
      <text style="font-family:Arial;font-size:8px;font-style:normal;font-weight:normal;text-anchor:end;" transform="rotate(-0, 23.5, 73.366358)" x="23.5" y="73.366358">2</text>
     </g>
    </g>
    <g id="ytick_3">
     <g id="line2d_8"/>
     <g id="text_7">
      <text style="font-family:Arial;font-size:8px;font-style:normal;font-weight:normal;text-anchor:end;" transform="rotate(-0, 23.5, 49.369591)" x="23.5" y="49.369591">4</text>
     </g>
    </g>
    <g id="ytick_4">
     <g id="line2d_9"/>
     <g id="text_8">
      <text style="font-family:Arial;font-size:8px;font-style:normal;font-weight:normal;text-anchor:end;" transform="rotate(-0, 23.5, 25.372823)" x="23.5" y="25.372823">6</text>
     </g>
    </g>
    <g id="text_9">
     <text style="font-family:Arial;font-size:10px;font-style:normal;font-weight:normal;text-anchor:middle;" transform="rotate(-90, 13.06375, 53.73)" x="13.06375" y="53.73">Inh</text>
    </g>
   </g>
   <g id="legend_1">
    <g id="line2d_10">
     <path d="M 36 75.622656 
L 56 75.622656 
" style="fill:none;stroke:#000000;stroke-dasharray:1.85,0.8;stroke-dashoffset:0;stroke-width:0.5;"/>
    </g>
    <g id="line2d_11"/>
    <g id="text_10">
     <!-- $R^2$ 0.40 -->
     <g transform="translate(64 72.875)">
      <text>
       <tspan style="font-family:DejaVu Sans;font-size:10px;font-style:oblique;font-weight:oblique;" x="0" y="-0.9765625">R</tspan>
       <tspan style="font-family:DejaVu Sans;font-size:7px;font-style:book;font-weight:book;" x="7.650794" y="-4.8046875">2</tspan>
       <tspan style="font-family:Arial;font-size:10px;font-style:regular;font-weight:regular;" x="12.377845 15.156165 20.717689 23.496009 29.057533" y="-0.9765625"> 0.40</tspan>
      </text>
     </g>
     <text style="font-family:Arial;font-size:10px;font-style:normal;font-weight:normal;" transform="translate(64 83.4875)"> slope 1.48</text>
    </g>
   </g>
  </g>
  <g id="axes_2">
   <g id="patch_5">
    <path d="M 118.309091 94.5 
L 194.4 94.5 
L 194.4 12.96 
L 118.309091 12.96 
z
" style="fill:#ffffff;"/>
   </g>
   <g id="PathCollection_1">
    <defs>
     <path d="M 0 2.44949 
C 0.649612 2.44949 1.272706 2.191396 1.732051 1.732051 
C 2.191396 1.272706 2.44949 0.649612 2.44949 0 
C 2.44949 -0.649612 2.191396 -1.272706 1.732051 -1.732051 
C 1.272706 -2.191396 0.649612 -2.44949 0 -2.44949 
C -0.649612 -2.44949 -1.272706 -2.191396 -1.732051 -1.732051 
C -2.191396 -1.272706 -2.44949 -0.649612 -2.44949 0 
C -2.44949 0.649612 -2.191396 1.272706 -1.732051 1.732051 
C -1.272706 2.191396 -0.649612 2.44949 0 2.44949 
z
" id="m1b08dd48ef" style="stroke:#000000;"/>
    </defs>
    <g clip-path="url(#pa1e5ed3d50)">
     <use style="stroke:#000000;" x="140.125709" xlink:href="#m1b08dd48ef" y="76.393974"/>
     <use style="stroke:#000000;" x="146.145036" xlink:href="#m1b08dd48ef" y="70.42856"/>
     <use style="stroke:#000000;" x="118.309091" xlink:href="#m1b08dd48ef" y="81.906015"/>
     <use style="stroke:#000000;" x="131.28989" xlink:href="#m1b08dd48ef" y="79.278814"/>
     <use style="stroke:#000000;" x="138.8817" xlink:href="#m1b08dd48ef" y="72.918573"/>
     <use style="stroke:#000000;" x="127.985484" xlink:href="#m1b08dd48ef" y="66.477732"/>
     <use style="stroke:#000000;" x="130.680574" xlink:href="#m1b08dd48ef" y="81.073057"/>
     <use style="stroke:#000000;" x="151.259547" xlink:href="#m1b08dd48ef" y="62.213202"/>
     <use style="stroke:#000000;" x="153.194122" xlink:href="#m1b08dd48ef" y="74.210628"/>
     <use style="stroke:#000000;" x="157.366922" xlink:href="#m1b08dd48ef" y="63.992298"/>
     <use style="stroke:#000000;" x="130.292564" xlink:href="#m1b08dd48ef" y="78.218167"/>
     <use style="stroke:#000000;" x="168.018634" xlink:href="#m1b08dd48ef" y="64.323943"/>
     <use style="stroke:#000000;" x="132.212562" xlink:href="#m1b08dd48ef" y="67.509112"/>
     <use style="stroke:#000000;" x="151.762292" xlink:href="#m1b08dd48ef" y="63.760565"/>
     <use style="stroke:#000000;" x="128.123813" xlink:href="#m1b08dd48ef" y="56.107219"/>
     <use style="stroke:#000000;" x="130.79915" xlink:href="#m1b08dd48ef" y="94.5"/>
     <use style="stroke:#000000;" x="175.356034" xlink:href="#m1b08dd48ef" y="59.892109"/>
     <use style="stroke:#000000;" x="139.630573" xlink:href="#m1b08dd48ef" y="57.671753"/>
     <use style="stroke:#000000;" x="148.713655" xlink:href="#m1b08dd48ef" y="51.210838"/>
     <use style="stroke:#000000;" x="150.439071" xlink:href="#m1b08dd48ef" y="68.555902"/>
     <use style="stroke:#000000;" x="131.466866" xlink:href="#m1b08dd48ef" y="56.513864"/>
     <use style="stroke:#000000;" x="150.676333" xlink:href="#m1b08dd48ef" y="17.313004"/>
     <use style="stroke:#000000;" x="135.755486" xlink:href="#m1b08dd48ef" y="65.119404"/>
     <use style="stroke:#000000;" x="157.050226" xlink:href="#m1b08dd48ef" y="41.729442"/>
     <use style="stroke:#000000;" x="134.341137" xlink:href="#m1b08dd48ef" y="64.339289"/>
     <use style="stroke:#000000;" x="149.001971" xlink:href="#m1b08dd48ef" y="51.51723"/>
     <use style="stroke:#000000;" x="127.129542" xlink:href="#m1b08dd48ef" y="69.02545"/>
     <use style="stroke:#000000;" x="135.836314" xlink:href="#m1b08dd48ef" y="72.970951"/>
     <use style="stroke:#000000;" x="161.47029" xlink:href="#m1b08dd48ef" y="59.158292"/>
     <use style="stroke:#000000;" x="139.679795" xlink:href="#m1b08dd48ef" y="76.425915"/>
    </g>
   </g>
   <g id="line2d_12">
    <path clip-path="url(#pa1e5ed3d50)" d="M 118.309091 76.416007 
L 119.077686 76.067961 
L 119.846281 75.719916 
L 120.614876 75.371871 
L 121.383471 75.023826 
L 122.152066 74.675781 
L 122.920661 74.327736 
L 123.689256 73.979691 
L 124.457851 73.631646 
L 125.226446 73.283601 
L 125.995041 72.935556 
L 126.763636 72.587511 
L 127.532231 72.239466 
L 128.300826 71.891421 
L 129.069421 71.543376 
L 129.838017 71.195331 
L 130.606612 70.847286 
L 131.375207 70.499241 
L 132.143802 70.151196 
L 132.912397 69.803151 
L 133.680992 69.455106 
L 134.449587 69.107061 
L 135.218182 68.759016 
L 135.986777 68.410971 
L 136.755372 68.062926 
L 137.523967 67.714881 
L 138.292562 67.366836 
L 139.061157 67.018791 
L 139.829752 66.670746 
L 140.598347 66.322701 
L 141.366942 65.974655 
L 142.135537 65.62661 
L 142.904132 65.278565 
L 143.672727 64.93052 
L 144.441322 64.582475 
L 145.209917 64.23443 
L 145.978512 63.886385 
L 146.747107 63.53834 
L 147.515702 63.190295 
L 148.284298 62.84225 
L 149.052893 62.494205 
L 149.821488 62.14616 
L 150.590083 61.798115 
L 151.358678 61.45007 
L 152.127273 61.102025 
L 152.895868 60.75398 
L 153.664463 60.405935 
L 154.433058 60.05789 
L 155.201653 59.709845 
L 155.970248 59.3618 
L 156.738843 59.013755 
L 157.507438 58.66571 
L 158.276033 58.317665 
L 159.044628 57.96962 
L 159.813223 57.621575 
L 160.581818 57.27353 
L 161.350413 56.925485 
L 162.119008 56.57744 
L 162.887603 56.229395 
L 163.656198 55.881349 
L 164.424793 55.533304 
L 165.193388 55.185259 
L 165.961983 54.837214 
L 166.730579 54.489169 
L 167.499174 54.141124 
L 168.267769 53.793079 
L 169.036364 53.445034 
L 169.804959 53.096989 
L 170.573554 52.748944 
L 171.342149 52.400899 
L 172.110744 52.052854 
L 172.879339 51.704809 
L 173.647934 51.356764 
L 174.416529 51.008719 
L 175.185124 50.660674 
L 175.953719 50.312629 
L 176.722314 49.964584 
L 177.490909 49.616539 
L 178.259504 49.268494 
L 179.028099 48.920449 
L 179.796694 48.572404 
L 180.565289 48.224359 
L 181.333884 47.876314 
L 182.102479 47.528269 
L 182.871074 47.180224 
L 183.639669 46.832179 
L 184.408264 46.484134 
L 185.17686 46.136089 
L 185.945455 45.788044 
L 186.71405 45.439998 
L 187.482645 45.091953 
L 188.25124 44.743908 
L 189.019835 44.395863 
L 189.78843 44.047818 
L 190.557025 43.699773 
L 191.32562 43.351728 
L 192.094215 43.003683 
L 192.86281 42.655638 
L 193.631405 42.307593 
L 194.4 41.959548 
" style="fill:none;stroke:#000000;stroke-dasharray:1.85,0.8;stroke-dashoffset:0;stroke-width:0.5;"/>
   </g>
   <g id="patch_6">
    <path d="M 118.309091 94.5 
L 118.309091 12.96 
" style="fill:none;stroke:#000000;stroke-linecap:square;stroke-linejoin:miter;"/>
   </g>
   <g id="patch_7">
    <path d="M 118.309091 94.5 
L 194.4 94.5 
" style="fill:none;stroke:#000000;stroke-linecap:square;stroke-linejoin:miter;"/>
   </g>
   <g id="matplotlib.axis_3">
    <g id="xtick_4">
     <g id="line2d_13"/>
     <g id="text_11">
      <text style="font-family:Arial;font-size:8px;font-style:normal;font-weight:normal;text-anchor:middle;" transform="rotate(-0, 118.309091, 103.72625)" x="118.309091" y="103.72625">0</text>
     </g>
    </g>
    <g id="xtick_5">
     <g id="line2d_14"/>
     <g id="text_12">
      <text style="font-family:Arial;font-size:8px;font-style:normal;font-weight:normal;text-anchor:middle;" transform="rotate(-0, 155.484496, 103.72625)" x="155.484496" y="103.72625">1</text>
     </g>
    </g>
    <g id="xtick_6">
     <g id="line2d_15"/>
     <g id="text_13">
      <text style="font-family:Arial;font-size:8px;font-style:normal;font-weight:normal;text-anchor:middle;" transform="rotate(-0, 192.659901, 103.72625)" x="192.659901" y="103.72625">2</text>
     </g>
    </g>
    <g id="text_14">
     <!-- $\sigma$(Exc) -->
     <g transform="translate(141.504545 116.61625)">
      <text>
       <tspan style="font-family:DejaVu Sans;font-size:10px;font-style:oblique;font-weight:oblique;" x="0" y="-0.71875">σ</tspan>
       <tspan style="font-family:Arial;font-size:10px;font-style:regular;font-weight:regular;" x="6.337891 9.667969 16.337891 21.337891 26.337891" y="-0.71875">(Exc)</tspan>
      </text>
     </g>
    </g>
   </g>
   <g id="matplotlib.axis_4">
    <g id="ytick_5">
     <g id="line2d_16"/>
     <g id="text_15">
      <text style="font-family:Arial;font-size:8px;font-style:normal;font-weight:normal;text-anchor:end;" transform="rotate(-0, 114.809091, 97.363125)" x="114.809091" y="97.363125">0.0</text>
     </g>
    </g>
    <g id="ytick_6">
     <g id="line2d_17"/>
     <g id="text_16">
      <text style="font-family:Arial;font-size:8px;font-style:normal;font-weight:normal;text-anchor:end;" transform="rotate(-0, 114.809091, 77.444303)" x="114.809091" y="77.444303">0.5</text>
     </g>
    </g>
    <g id="ytick_7">
     <g id="line2d_18"/>
     <g id="text_17">
      <text style="font-family:Arial;font-size:8px;font-style:normal;font-weight:normal;text-anchor:end;" transform="rotate(-0, 114.809091, 57.525481)" x="114.809091" y="57.525481">1.0</text>
     </g>
    </g>
    <g id="ytick_8">
     <g id="line2d_19"/>
     <g id="text_18">
      <text style="font-family:Arial;font-size:8px;font-style:normal;font-weight:normal;text-anchor:end;" transform="rotate(-0, 114.809091, 37.60666)" x="114.809091" y="37.60666">1.5</text>
     </g>
    </g>
    <g id="ytick_9">
     <g id="line2d_20"/>
     <g id="text_19">
      <text style="font-family:Arial;font-size:8px;font-style:normal;font-weight:normal;text-anchor:end;" transform="rotate(-0, 114.809091, 17.687838)" x="114.809091" y="17.687838">2.0</text>
     </g>
    </g>
    <g id="text_20">
     <!-- $\sigma$(Inh) -->
     <g transform="translate(97.489091 67.18)rotate(-90)">
      <text>
       <tspan style="font-family:DejaVu Sans;font-size:10px;font-style:oblique;font-weight:oblique;" x="0" y="-0.71875">σ</tspan>
       <tspan style="font-family:Arial;font-size:10px;font-style:regular;font-weight:regular;" x="6.337891 9.667969 12.446289 18.007812 23.569336" y="-0.71875">(Inh)</tspan>
      </text>
     </g>
    </g>
   </g>
   <g id="legend_2">
    <g id="line2d_21">
     <path d="M 108.478125 31.995156 
L 128.478125 31.995156 
" style="fill:none;stroke:#000000;stroke-dasharray:1.85,0.8;stroke-dashoffset:0;stroke-width:0.5;"/>
    </g>
    <g id="line2d_22"/>
    <g id="text_21">
     <!-- $R^2$ 0.19 -->
     <g transform="translate(136.478125 29.2475)">
      <text>
       <tspan style="font-family:DejaVu Sans;font-size:10px;font-style:oblique;font-weight:oblique;" x="0" y="-0.9765625">R</tspan>
       <tspan style="font-family:DejaVu Sans;font-size:7px;font-style:book;font-weight:book;" x="7.650794" y="-4.8046875">2</tspan>
       <tspan style="font-family:Arial;font-size:10px;font-style:regular;font-weight:regular;" x="12.377845 15.156165 20.717689 23.496009 29.057533" y="-0.9765625"> 0.19</tspan>
      </text>
     </g>
     <text style="font-family:Arial;font-size:10px;font-style:normal;font-weight:normal;" transform="translate(136.478125 39.86)"> slope 0.42</text>
    </g>
   </g>
  </g>
 </g>
 <defs>
  <clipPath id="pb945f2938e">
   <rect height="81.54" width="76.090909" x="27" y="12.96"/>
  </clipPath>
  <clipPath id="pa1e5ed3d50">
   <rect height="81.54" width="76.090909" x="118.309091" y="12.96"/>
  </clipPath>
 </defs>
</svg>
