<?xml version="1.0" encoding="utf-8" standalone="no"?>
<!DOCTYPE svg PUBLIC "-//W3C//DTD SVG 1.1//EN"
  "http://www.w3.org/Graphics/SVG/1.1/DTD/svg11.dtd">
<!-- Created with matplotlib (http://matplotlib.org/) -->
<svg height="108pt" version="1.1" viewBox="0 0 216 108" width="216pt" xmlns="http://www.w3.org/2000/svg" xmlns:xlink="http://www.w3.org/1999/xlink">
 <defs>
  <style type="text/css">
*{stroke-linecap:butt;stroke-linejoin:round;}
  </style>
 </defs>
 <g id="figure_1">
  <g id="patch_1">
   <path d="M 0 108 
L 216 108 
L 216 0 
L 0 0 
z
" style="fill:#ffffff;"/>
  </g>
  <g id="axes_1">
   <g id="patch_2">
    <path d="M 27 94.5 
L 103.090909 94.5 
L 103.090909 12.96 
L 27 12.96 
z
" style="fill:#ffffff;"/>
   </g>
   <g id="LineCollection_1">
    <path clip-path="url(#p6c5a8ac09d)" d="M 26.011255 79.693175 
L 31.214488 79.693175 
" style="fill:none;stroke:#000000;stroke-width:0.5;"/>
    <path clip-path="url(#p6c5a8ac09d)" d="M 26.653568 76.42596 
L 29.956949 76.42596 
" style="fill:none;stroke:#000000;stroke-width:0.5;"/>
    <path clip-path="url(#p6c5a8ac09d)" d="M 33.40585 56.785577 
L 40.514599 56.785577 
" style="fill:none;stroke:#000000;stroke-width:0.5;"/>
    <path clip-path="url(#p6c5a8ac09d)" d="M 26.834729 83.576388 
L 28.145956 83.576388 
" style="fill:none;stroke:#000000;stroke-width:0.5;"/>
    <path clip-path="url(#p6c5a8ac09d)" d="M 26.381332 79.6504 
L 36.927511 79.6504 
" style="fill:none;stroke:#000000;stroke-width:0.5;"/>
    <path clip-path="url(#p6c5a8ac09d)" d="M 27.379137 61.586246 
L 35.672848 61.586246 
" style="fill:none;stroke:#000000;stroke-width:0.5;"/>
    <path clip-path="url(#p6c5a8ac09d)" d="M 29.446054 76.111951 
L 36.408771 76.111951 
" style="fill:none;stroke:#000000;stroke-width:0.5;"/>
    <path clip-path="url(#p6c5a8ac09d)" d="M 27.26915 85.812314 
L 30.351363 85.812314 
" style="fill:none;stroke:#000000;stroke-width:0.5;"/>
    <path clip-path="url(#p6c5a8ac09d)" d="M 27.350799 77.795907 
L 32.678624 77.795907 
" style="fill:none;stroke:#000000;stroke-width:0.5;"/>
    <path clip-path="url(#p6c5a8ac09d)" d="M 25.408184 65.197344 
L 48.31343 65.197344 
" style="fill:none;stroke:#000000;stroke-width:0.5;"/>
    <path clip-path="url(#p6c5a8ac09d)" d="M 26.585487 63.647224 
L 37.452625 63.647224 
" style="fill:none;stroke:#000000;stroke-width:0.5;"/>
    <path clip-path="url(#p6c5a8ac09d)" d="M 22.296179 49.994403 
L 74.251662 49.994403 
" style="fill:none;stroke:#000000;stroke-width:0.5;"/>
    <path clip-path="url(#p6c5a8ac09d)" d="M 28.444309 67.098282 
L 40.730406 67.098282 
" style="fill:none;stroke:#000000;stroke-width:0.5;"/>
    <path clip-path="url(#p6c5a8ac09d)" d="M 27.323291 90.387498 
L 29.096213 90.387498 
" style="fill:none;stroke:#000000;stroke-width:0.5;"/>
    <path clip-path="url(#p6c5a8ac09d)" d="M 26.452832 84.274943 
L 39.012766 84.274943 
" style="fill:none;stroke:#000000;stroke-width:0.5;"/>
    <path clip-path="url(#p6c5a8ac09d)" d="M 25.821329 89.847843 
L 32.471043 89.847843 
" style="fill:none;stroke:#000000;stroke-width:0.5;"/>
    <path clip-path="url(#p6c5a8ac09d)" d="M 26.963276 68.25274 
L 36.01108 68.25274 
" style="fill:none;stroke:#000000;stroke-width:0.5;"/>
    <path clip-path="url(#p6c5a8ac09d)" d="M 21.940257 62.173957 
L 45.015562 62.173957 
" style="fill:none;stroke:#000000;stroke-width:0.5;"/>
    <path clip-path="url(#p6c5a8ac09d)" d="M 23.983835 33.874073 
L 59.437324 33.874073 
" style="fill:none;stroke:#000000;stroke-width:0.5;"/>
    <path clip-path="url(#p6c5a8ac09d)" d="M 26.294368 81.014786 
L 28.679259 81.014786 
" style="fill:none;stroke:#000000;stroke-width:0.5;"/>
    <path clip-path="url(#p6c5a8ac09d)" d="M 25.857268 84.928904 
L 30.284022 84.928904 
" style="fill:none;stroke:#000000;stroke-width:0.5;"/>
    <path clip-path="url(#p6c5a8ac09d)" d="M 26.588994 93.020004 
L 28.907769 93.020004 
" style="fill:none;stroke:#000000;stroke-width:0.5;"/>
    <path clip-path="url(#p6c5a8ac09d)" d="M 30.541392 62.977564 
L 37.749236 62.977564 
" style="fill:none;stroke:#000000;stroke-width:0.5;"/>
    <path clip-path="url(#p6c5a8ac09d)" d="M 26.830464 83.611456 
L 30.448015 83.611456 
" style="fill:none;stroke:#000000;stroke-width:0.5;"/>
    <path clip-path="url(#p6c5a8ac09d)" d="M 25.934895 88.611621 
L 32.994566 88.611621 
" style="fill:none;stroke:#000000;stroke-width:0.5;"/>
    <path clip-path="url(#p6c5a8ac09d)" d="M 25.716465 65.338177 
L 51.144668 65.338177 
" style="fill:none;stroke:#000000;stroke-width:0.5;"/>
    <path clip-path="url(#p6c5a8ac09d)" d="M 27.040646 87.149769 
L 31.272534 87.149769 
" style="fill:none;stroke:#000000;stroke-width:0.5;"/>
    <path clip-path="url(#p6c5a8ac09d)" d="M 27.782759 79.306147 
L 33.262058 79.306147 
" style="fill:none;stroke:#000000;stroke-width:0.5;"/>
    <path clip-path="url(#p6c5a8ac09d)" d="M 27 93.557342 
L 27 93.557342 
" style="fill:none;stroke:#000000;stroke-width:0.5;"/>
    <path clip-path="url(#p6c5a8ac09d)" d="M 26.529654 83.044568 
L 31.463635 83.044568 
" style="fill:none;stroke:#000000;stroke-width:0.5;"/>
   </g>
   <g id="LineCollection_2">
    <path clip-path="url(#p6c5a8ac09d)" d="M 28.612872 82.674252 
L 28.612872 76.712098 
" style="fill:none;stroke:#000000;stroke-width:0.5;"/>
    <path clip-path="url(#p6c5a8ac09d)" d="M 28.305258 78.884338 
L 28.305258 73.967583 
" style="fill:none;stroke:#000000;stroke-width:0.5;"/>
    <path clip-path="url(#p6c5a8ac09d)" d="M 36.960224 65.551952 
L 36.960224 48.019202 
" style="fill:none;stroke:#000000;stroke-width:0.5;"/>
    <path clip-path="url(#p6c5a8ac09d)" d="M 27.490342 90.797088 
L 27.490342 76.355689 
" style="fill:none;stroke:#000000;stroke-width:0.5;"/>
    <path clip-path="url(#p6c5a8ac09d)" d="M 31.654422 82.876858 
L 31.654422 76.423941 
" style="fill:none;stroke:#000000;stroke-width:0.5;"/>
    <path clip-path="url(#p6c5a8ac09d)" d="M 31.525993 69.346047 
L 31.525993 53.826446 
" style="fill:none;stroke:#000000;stroke-width:0.5;"/>
    <path clip-path="url(#p6c5a8ac09d)" d="M 32.927412 79.220564 
L 32.927412 73.003337 
" style="fill:none;stroke:#000000;stroke-width:0.5;"/>
    <path clip-path="url(#p6c5a8ac09d)" d="M 28.810256 87.716396 
L 28.810256 83.908232 
" style="fill:none;stroke:#000000;stroke-width:0.5;"/>
    <path clip-path="url(#p6c5a8ac09d)" d="M 30.014711 83.254228 
L 30.014711 72.337585 
" style="fill:none;stroke:#000000;stroke-width:0.5;"/>
    <path clip-path="url(#p6c5a8ac09d)" d="M 36.860807 74.211872 
L 36.860807 56.182816 
" style="fill:none;stroke:#000000;stroke-width:0.5;"/>
    <path clip-path="url(#p6c5a8ac09d)" d="M 32.019056 68.388983 
L 32.019056 58.905465 
" style="fill:none;stroke:#000000;stroke-width:0.5;"/>
    <path clip-path="url(#p6c5a8ac09d)" d="M 48.27392 81.647849 
L 48.27392 18.340957 
" style="fill:none;stroke:#000000;stroke-width:0.5;"/>
    <path clip-path="url(#p6c5a8ac09d)" d="M 34.587357 72.664188 
L 34.587357 61.532375 
" style="fill:none;stroke:#000000;stroke-width:0.5;"/>
    <path clip-path="url(#p6c5a8ac09d)" d="M 28.209752 91.555688 
L 28.209752 89.219308 
" style="fill:none;stroke:#000000;stroke-width:0.5;"/>
    <path clip-path="url(#p6c5a8ac09d)" d="M 32.732799 89.284177 
L 32.732799 79.265708 
" style="fill:none;stroke:#000000;stroke-width:0.5;"/>
    <path clip-path="url(#p6c5a8ac09d)" d="M 29.146186 93.451388 
L 29.146186 86.244298 
" style="fill:none;stroke:#000000;stroke-width:0.5;"/>
    <path clip-path="url(#p6c5a8ac09d)" d="M 31.487178 73.743334 
L 31.487178 62.762146 
" style="fill:none;stroke:#000000;stroke-width:0.5;"/>
    <path clip-path="url(#p6c5a8ac09d)" d="M 33.477909 71.603508 
L 33.477909 52.744406 
" style="fill:none;stroke:#000000;stroke-width:0.5;"/>
    <path clip-path="url(#p6c5a8ac09d)" d="M 41.71058 50.902091 
L 41.71058 16.846055 
" style="fill:none;stroke:#000000;stroke-width:0.5;"/>
    <path clip-path="url(#p6c5a8ac09d)" d="M 27.486814 82.209267 
L 27.486814 79.820306 
" style="fill:none;stroke:#000000;stroke-width:0.5;"/>
    <path clip-path="url(#p6c5a8ac09d)" d="M 28.070645 88.552253 
L 28.070645 81.305555 
" style="fill:none;stroke:#000000;stroke-width:0.5;"/>
    <path clip-path="url(#p6c5a8ac09d)" d="M 27.748382 94.567149 
L 27.748382 91.472859 
" style="fill:none;stroke:#000000;stroke-width:0.5;"/>
    <path clip-path="url(#p6c5a8ac09d)" d="M 34.145314 65.993188 
L 34.145314 59.961939 
" style="fill:none;stroke:#000000;stroke-width:0.5;"/>
    <path clip-path="url(#p6c5a8ac09d)" d="M 28.639239 85.690506 
L 28.639239 81.532405 
" style="fill:none;stroke:#000000;stroke-width:0.5;"/>
    <path clip-path="url(#p6c5a8ac09d)" d="M 29.464731 92.089269 
L 29.464731 85.133972 
" style="fill:none;stroke:#000000;stroke-width:0.5;"/>
    <path clip-path="url(#p6c5a8ac09d)" d="M 38.430567 75.2561 
L 38.430567 55.420254 
" style="fill:none;stroke:#000000;stroke-width:0.5;"/>
    <path clip-path="url(#p6c5a8ac09d)" d="M 29.15659 88.992581 
L 29.15659 85.306958 
" style="fill:none;stroke:#000000;stroke-width:0.5;"/>
    <path clip-path="url(#p6c5a8ac09d)" d="M 30.522408 82.686088 
L 30.522408 75.926205 
" style="fill:none;stroke:#000000;stroke-width:0.5;"/>
    <path clip-path="url(#p6c5a8ac09d)" d="M 27 94.287522 
L 27 92.827162 
" style="fill:none;stroke:#000000;stroke-width:0.5;"/>
    <path clip-path="url(#p6c5a8ac09d)" d="M 28.996644 85.344483 
L 28.996644 80.744654 
" style="fill:none;stroke:#000000;stroke-width:0.5;"/>
   </g>
   <g id="line2d_1">
    <path clip-path="url(#p6c5a8ac09d)" d="M 27 86.95439 
L 27.768595 85.071664 
L 28.53719 83.188938 
L 29.305785 81.306212 
L 30.07438 79.423486 
L 30.842975 77.54076 
L 31.61157 75.658034 
L 32.380165 73.775308 
L 33.14876 71.892581 
L 33.917355 70.009855 
L 34.68595 68.127129 
L 35.454545 66.244403 
L 36.22314 64.361677 
L 36.991736 62.478951 
L 37.760331 60.596225 
L 38.528926 58.713499 
L 39.297521 56.830772 
L 40.066116 54.948046 
L 40.834711 53.06532 
L 41.603306 51.182594 
L 42.371901 49.299868 
L 43.140496 47.417142 
L 43.909091 45.534416 
L 44.677686 43.65169 
L 45.446281 41.768964 
L 46.214876 39.886237 
L 46.983471 38.003511 
L 47.752066 36.120785 
L 48.520661 34.238059 
L 49.289256 32.355333 
L 50.057851 30.472607 
L 50.826446 28.589881 
L 51.595041 26.707155 
L 52.363636 24.824428 
L 53.132231 22.941702 
L 53.900826 21.058976 
L 54.669421 19.17625 
L 55.438017 17.293524 
L 56.206612 15.410798 
L 56.975207 13.528072 
L 57.743802 11.645346 
L 58.512397 9.762619 
L 59.280992 7.879893 
L 60.049587 5.997167 
L 60.818182 4.114441 
L 61.586777 2.231715 
L 62.355372 0.348989 
L 62.906077 -1 
" style="fill:none;stroke:#000000;stroke-dasharray:1.85,0.8;stroke-dashoffset:0;stroke-width:0.5;"/>
   </g>
   <g id="line2d_2">
    <defs>
     <path d="M 0 3 
C 0.795609 3 1.55874 2.683901 2.12132 2.12132 
C 2.683901 1.55874 3 0.795609 3 0 
C 3 -0.795609 2.683901 -1.55874 2.12132 -2.12132 
C 1.55874 -2.683901 0.795609 -3 0 -3 
C -0.795609 -3 -1.55874 -2.683901 -2.12132 -2.12132 
C -2.683901 -1.55874 -3 -0.795609 -3 0 
C -3 0.795609 -2.683901 1.55874 -2.12132 2.12132 
C -1.55874 2.683901 -0.795609 3 0 3 
z
" id="m92d14b7c89" style="stroke:#000000;"/>
    </defs>
    <g clip-path="url(#p6c5a8ac09d)">
     <use style="stroke:#000000;" x="28.612872" xlink:href="#m92d14b7c89" y="79.693175"/>
     <use style="stroke:#000000;" x="28.305258" xlink:href="#m92d14b7c89" y="76.42596"/>
     <use style="stroke:#000000;" x="36.960224" xlink:href="#m92d14b7c89" y="56.785577"/>
     <use style="stroke:#000000;" x="27.490342" xlink:href="#m92d14b7c89" y="83.576388"/>
     <use style="stroke:#000000;" x="31.654422" xlink:href="#m92d14b7c89" y="79.6504"/>
     <use style="stroke:#000000;" x="31.525993" xlink:href="#m92d14b7c89" y="61.586246"/>
     <use style="stroke:#000000;" x="32.927412" xlink:href="#m92d14b7c89" y="76.111951"/>
     <use style="stroke:#000000;" x="28.810256" xlink:href="#m92d14b7c89" y="85.812314"/>
     <use style="stroke:#000000;" x="30.014711" xlink:href="#m92d14b7c89" y="77.795907"/>
     <use style="stroke:#000000;" x="36.860807" xlink:href="#m92d14b7c89" y="65.197344"/>
     <use style="stroke:#000000;" x="32.019056" xlink:href="#m92d14b7c89" y="63.647224"/>
     <use style="stroke:#000000;" x="48.27392" xlink:href="#m92d14b7c89" y="49.994403"/>
     <use style="stroke:#000000;" x="34.587357" xlink:href="#m92d14b7c89" y="67.098282"/>
     <use style="stroke:#000000;" x="28.209752" xlink:href="#m92d14b7c89" y="90.387498"/>
     <use style="stroke:#000000;" x="32.732799" xlink:href="#m92d14b7c89" y="84.274943"/>
     <use style="stroke:#000000;" x="29.146186" xlink:href="#m92d14b7c89" y="89.847843"/>
     <use style="stroke:#000000;" x="31.487178" xlink:href="#m92d14b7c89" y="68.25274"/>
     <use style="stroke:#000000;" x="33.477909" xlink:href="#m92d14b7c89" y="62.173957"/>
     <use style="stroke:#000000;" x="41.71058" xlink:href="#m92d14b7c89" y="33.874073"/>
     <use style="stroke:#000000;" x="27.486814" xlink:href="#m92d14b7c89" y="81.014786"/>
     <use style="stroke:#000000;" x="28.070645" xlink:href="#m92d14b7c89" y="84.928904"/>
     <use style="stroke:#000000;" x="27.748382" xlink:href="#m92d14b7c89" y="93.020004"/>
     <use style="stroke:#000000;" x="34.145314" xlink:href="#m92d14b7c89" y="62.977564"/>
     <use style="stroke:#000000;" x="28.639239" xlink:href="#m92d14b7c89" y="83.611456"/>
     <use style="stroke:#000000;" x="29.464731" xlink:href="#m92d14b7c89" y="88.611621"/>
     <use style="stroke:#000000;" x="38.430567" xlink:href="#m92d14b7c89" y="65.338177"/>
     <use style="stroke:#000000;" x="29.15659" xlink:href="#m92d14b7c89" y="87.149769"/>
     <use style="stroke:#000000;" x="30.522408" xlink:href="#m92d14b7c89" y="79.306147"/>
     <use style="stroke:#000000;" x="27" xlink:href="#m92d14b7c89" y="93.557342"/>
     <use style="stroke:#000000;" x="28.996644" xlink:href="#m92d14b7c89" y="83.044568"/>
    </g>
   </g>
   <g id="patch_3">
    <path d="M 27 94.5 
L 27 12.96 
" style="fill:none;stroke:#000000;stroke-linecap:square;stroke-linejoin:miter;"/>
   </g>
   <g id="patch_4">
    <path d="M 27 94.5 
L 103.090909 94.5 
" style="fill:none;stroke:#000000;stroke-linecap:square;stroke-linejoin:miter;"/>
   </g>
   <g id="matplotlib.axis_1">
    <g id="xtick_1">
     <g id="line2d_3"/>
     <g id="text_1">
      <text style="font-family:Arial;font-size:8px;font-style:normal;font-weight:normal;text-anchor:middle;" transform="rotate(-0, 27, 103.72625)" x="27" y="103.72625">0</text>
     </g>
    </g>
    <g id="xtick_2">
     <g id="line2d_4"/>
     <g id="text_2">
      <text style="font-family:Arial;font-size:8px;font-style:normal;font-weight:normal;text-anchor:middle;" transform="rotate(-0, 69.09061, 103.72625)" x="69.09061" y="103.72625">10</text>
     </g>
    </g>
    <g id="text_3">
     <text style="font-family:Arial;font-size:10px;font-style:normal;font-weight:normal;text-anchor:middle;" transform="rotate(-0, 65.045455, 116.474063)" x="65.045455" y="116.474063">Exc</text>
    </g>
   </g>
   <g id="matplotlib.axis_2">
    <g id="ytick_1">
     <g id="line2d_5"/>
     <g id="text_4">
      <text style="font-family:Arial;font-size:8px;font-style:normal;font-weight:normal;text-anchor:end;" transform="rotate(-0, 23.5, 97.363125)" x="23.5" y="97.363125">0</text>
     </g>
    </g>
    <g id="ytick_2">
     <g id="line2d_6"/>
     <g id="text_5">
      <text style="font-family:Arial;font-size:8px;font-style:normal;font-weight:normal;text-anchor:end;" transform="rotate(-0, 23.5, 74.810705)" x="23.5" y="74.810705">5</text>
     </g>
    </g>
    <g id="ytick_3">
     <g id="line2d_7"/>
     <g id="text_6">
      <text style="font-family:Arial;font-size:8px;font-style:normal;font-weight:normal;text-anchor:end;" transform="rotate(-0, 23.5, 52.258284)" x="23.5" y="52.258284">10</text>
     </g>
    </g>
    <g id="ytick_4">
     <g id="line2d_8"/>
     <g id="text_7">
      <text style="font-family:Arial;font-size:8px;font-style:normal;font-weight:normal;text-anchor:end;" transform="rotate(-0, 23.5, 29.705864)" x="23.5" y="29.705864">15</text>
     </g>
    </g>
    <g id="text_8">
     <text style="font-family:Arial;font-size:10px;font-style:normal;font-weight:normal;text-anchor:middle;" transform="rotate(-90, 8.615, 53.73)" x="8.615" y="53.73">Inh</text>
    </g>
   </g>
   <g id="legend_1">
    <g id="line2d_9">
     <path d="M 36 75.622656 
L 56 75.622656 
" style="fill:none;stroke:#000000;stroke-dasharray:1.85,0.8;stroke-dashoffset:0;stroke-width:0.5;"/>
    </g>
    <g id="line2d_10"/>
    <g id="text_9">
     <!-- $R^2$ 0.70 -->
     <g transform="translate(64 72.875)">
      <text>
       <tspan style="font-family:DejaVu Sans;font-size:10px;font-style:oblique;font-weight:oblique;" x="0" y="-0.9765625">R</tspan>
       <tspan style="font-family:DejaVu Sans;font-size:7px;font-style:book;font-weight:book;" x="7.650794" y="-4.8046875">2</tspan>
       <tspan style="font-family:Arial;font-size:10px;font-style:regular;font-weight:regular;" x="12.377845 15.156165 20.717689 23.496009 29.057533" y="-0.9765625"> 0.70</tspan>
      </text>
     </g>
     <text style="font-family:Arial;font-size:10px;font-style:normal;font-weight:normal;" transform="translate(64 83.4875)"> slope 2.29</text>
    </g>
   </g>
  </g>
  <g id="axes_2">
   <g id="patch_5">
    <path d="M 118.309091 94.5 
L 194.4 94.5 
L 194.4 12.96 
L 118.309091 12.96 
z
" style="fill:#ffffff;"/>
   </g>
   <g id="PathCollection_1">
    <defs>
     <path d="M 0 2.44949 
C 0.649612 2.44949 1.272706 2.191396 1.732051 1.732051 
C 2.191396 1.272706 2.44949 0.649612 2.44949 0 
C 2.44949 -0.649612 2.191396 -1.272706 1.732051 -1.732051 
C 1.272706 -2.191396 0.649612 -2.44949 0 -2.44949 
C -0.649612 -2.44949 -1.272706 -2.191396 -1.732051 -1.732051 
C -2.191396 -1.272706 -2.44949 -0.649612 -2.44949 0 
C -2.44949 0.649612 -2.191396 1.272706 -1.732051 1.732051 
C -1.272706 2.191396 -0.649612 2.44949 0 2.44949 
z
" id="mcbcc2838be" style="stroke:#000000;"/>
    </defs>
    <g clip-path="url(#pebbd3a186c)">
     <use style="stroke:#000000;" x="124.68806" xlink:href="#mcbcc2838be" y="87.190622"/>
     <use style="stroke:#000000;" x="122.358912" xlink:href="#mcbcc2838be" y="88.472243"/>
     <use style="stroke:#000000;" x="127.024152" xlink:href="#mcbcc2838be" y="73.005505"/>
     <use style="stroke:#000000;" x="119.916606" xlink:href="#mcbcc2838be" y="76.795385"/>
     <use style="stroke:#000000;" x="131.238312" xlink:href="#mcbcc2838be" y="86.588966"/>
     <use style="stroke:#000000;" x="128.476871" xlink:href="#mcbcc2838be" y="75.47355"/>
     <use style="stroke:#000000;" x="126.845121" xlink:href="#mcbcc2838be" y="86.877912"/>
     <use style="stroke:#000000;" x="122.087769" xlink:href="#mcbcc2838be" y="89.831334"/>
     <use style="stroke:#000000;" x="124.840805" xlink:href="#mcbcc2838be" y="81.116604"/>
     <use style="stroke:#000000;" x="146.390065" xlink:href="#mcbcc2838be" y="72.397052"/>
     <use style="stroke:#000000;" x="131.631795" xlink:href="#mcbcc2838be" y="82.873563"/>
     <use style="stroke:#000000;" x="182.004568" xlink:href="#mcbcc2838be" y="16.88812"/>
     <use style="stroke:#000000;" x="133.371387" xlink:href="#mcbcc2838be" y="80.852814"/>
     <use style="stroke:#000000;" x="120.482628" xlink:href="#mcbcc2838be" y="91.635685"/>
     <use style="stroke:#000000;" x="133.7071" xlink:href="#mcbcc2838be" y="82.217732"/>
     <use style="stroke:#000000;" x="126.461391" xlink:href="#mcbcc2838be" y="85.664377"/>
     <use style="stroke:#000000;" x="129.40136" xlink:href="#mcbcc2838be" y="81.037475"/>
     <use style="stroke:#000000;" x="146.598551" xlink:href="#mcbcc2838be" y="71.379447"/>
     <use style="stroke:#000000;" x="161.773742" xlink:href="#mcbcc2838be" y="52.748575"/>
     <use style="stroke:#000000;" x="121.232878" xlink:href="#mcbcc2838be" y="91.571224"/>
     <use style="stroke:#000000;" x="123.736125" xlink:href="#mcbcc2838be" y="85.615819"/>
     <use style="stroke:#000000;" x="121.151823" xlink:href="#mcbcc2838be" y="90.706517"/>
     <use style="stroke:#000000;" x="127.145638" xlink:href="#mcbcc2838be" y="87.105914"/>
     <use style="stroke:#000000;" x="122.744073" xlink:href="#mcbcc2838be" y="89.402323"/>
     <use style="stroke:#000000;" x="126.963983" xlink:href="#mcbcc2838be" y="85.973065"/>
     <use style="stroke:#000000;" x="149.483116" xlink:href="#mcbcc2838be" y="70.181995"/>
     <use style="stroke:#000000;" x="123.497228" xlink:href="#mcbcc2838be" y="89.981563"/>
     <use style="stroke:#000000;" x="125.026507" xlink:href="#mcbcc2838be" y="86.212636"/>
     <use style="stroke:#000000;" x="118.309091" xlink:href="#mcbcc2838be" y="92.709654"/>
     <use style="stroke:#000000;" x="124.357967" xlink:href="#mcbcc2838be" y="88.860782"/>
    </g>
   </g>
   <g id="line2d_11">
    <path clip-path="url(#pebbd3a186c)" d="M 118.309091 93.077834 
L 119.077686 92.31481 
L 119.846281 91.551785 
L 120.614876 90.788761 
L 121.383471 90.025736 
L 122.152066 89.262712 
L 122.920661 88.499688 
L 123.689256 87.736663 
L 124.457851 86.973639 
L 125.226446 86.210614 
L 125.995041 85.44759 
L 126.763636 84.684566 
L 127.532231 83.921541 
L 128.300826 83.158517 
L 129.069421 82.395492 
L 129.838017 81.632468 
L 130.606612 80.869444 
L 131.375207 80.106419 
L 132.143802 79.343395 
L 132.912397 78.58037 
L 133.680992 77.817346 
L 134.449587 77.054322 
L 135.218182 76.291297 
L 135.986777 75.528273 
L 136.755372 74.765248 
L 137.523967 74.002224 
L 138.292562 73.2392 
L 139.061157 72.476175 
L 139.829752 71.713151 
L 140.598347 70.950126 
L 141.366942 70.187102 
L 142.135537 69.424078 
L 142.904132 68.661053 
L 143.672727 67.898029 
L 144.441322 67.135004 
L 145.209917 66.37198 
L 145.978512 65.608955 
L 146.747107 64.845931 
L 147.515702 64.082907 
L 148.284298 63.319882 
L 149.052893 62.556858 
L 149.821488 61.793833 
L 150.590083 61.030809 
L 151.358678 60.267785 
L 152.127273 59.50476 
L 152.895868 58.741736 
L 153.664463 57.978711 
L 154.433058 57.215687 
L 155.201653 56.452663 
L 155.970248 55.689638 
L 156.738843 54.926614 
L 157.507438 54.163589 
L 158.276033 53.400565 
L 159.044628 52.637541 
L 159.813223 51.874516 
L 160.581818 51.111492 
L 161.350413 50.348467 
L 162.119008 49.585443 
L 162.887603 48.822419 
L 163.656198 48.059394 
L 164.424793 47.29637 
L 165.193388 46.533345 
L 165.961983 45.770321 
L 166.730579 45.007297 
L 167.499174 44.244272 
L 168.267769 43.481248 
L 169.036364 42.718223 
L 169.804959 41.955199 
L 170.573554 41.192175 
L 171.342149 40.42915 
L 172.110744 39.666126 
L 172.879339 38.903101 
L 173.647934 38.140077 
L 174.416529 37.377053 
L 175.185124 36.614028 
L 175.953719 35.851004 
L 176.722314 35.087979 
L 177.490909 34.324955 
L 178.259504 33.561931 
L 179.028099 32.798906 
L 179.796694 32.035882 
L 180.565289 31.272857 
L 181.333884 30.509833 
L 182.102479 29.746809 
L 182.871074 28.983784 
L 183.639669 28.22076 
L 184.408264 27.457735 
L 185.17686 26.694711 
L 185.945455 25.931687 
L 186.71405 25.168662 
L 187.482645 24.405638 
L 188.25124 23.642613 
L 189.019835 22.879589 
L 189.78843 22.116565 
L 190.557025 21.35354 
L 191.32562 20.590516 
L 192.094215 19.827491 
L 192.86281 19.064467 
L 193.631405 18.301443 
L 194.4 17.538418 
" style="fill:none;stroke:#000000;stroke-dasharray:1.85,0.8;stroke-dashoffset:0;stroke-width:0.5;"/>
   </g>
   <g id="patch_6">
    <path d="M 118.309091 94.5 
L 118.309091 12.96 
" style="fill:none;stroke:#000000;stroke-linecap:square;stroke-linejoin:miter;"/>
   </g>
   <g id="patch_7">
    <path d="M 118.309091 94.5 
L 194.4 94.5 
" style="fill:none;stroke:#000000;stroke-linecap:square;stroke-linejoin:miter;"/>
   </g>
   <g id="matplotlib.axis_3">
    <g id="xtick_3">
     <g id="line2d_12"/>
     <g id="text_10">
      <text style="font-family:Arial;font-size:8px;font-style:normal;font-weight:normal;text-anchor:middle;" transform="rotate(-0, 118.309091, 103.72625)" x="118.309091" y="103.72625">0.0</text>
     </g>
    </g>
    <g id="xtick_4">
     <g id="line2d_13"/>
     <g id="text_11">
      <text style="font-family:Arial;font-size:8px;font-style:normal;font-weight:normal;text-anchor:middle;" transform="rotate(-0, 144.109847, 103.72625)" x="144.109847" y="103.72625">2.5</text>
     </g>
    </g>
    <g id="xtick_5">
     <g id="line2d_14"/>
     <g id="text_12">
      <text style="font-family:Arial;font-size:8px;font-style:normal;font-weight:normal;text-anchor:middle;" transform="rotate(-0, 169.910603, 103.72625)" x="169.910603" y="103.72625">5.0</text>
     </g>
    </g>
    <g id="text_13">
     <!-- $\sigma$(Exc) -->
     <g transform="translate(141.504545 116.61625)">
      <text>
       <tspan style="font-family:DejaVu Sans;font-size:10px;font-style:oblique;font-weight:oblique;" x="0" y="-0.71875">σ</tspan>
       <tspan style="font-family:Arial;font-size:10px;font-style:regular;font-weight:regular;" x="6.337891 9.667969 16.337891 21.337891 26.337891" y="-0.71875">(Exc)</tspan>
      </text>
     </g>
    </g>
   </g>
   <g id="matplotlib.axis_4">
    <g id="ytick_5">
     <g id="line2d_15"/>
     <g id="text_14">
      <text style="font-family:Arial;font-size:8px;font-style:normal;font-weight:normal;text-anchor:end;" transform="rotate(-0, 114.809091, 97.363125)" x="114.809091" y="97.363125">0</text>
     </g>
    </g>
    <g id="ytick_6">
     <g id="line2d_16"/>
     <g id="text_15">
      <text style="font-family:Arial;font-size:8px;font-style:normal;font-weight:normal;text-anchor:end;" transform="rotate(-0, 114.809091, 75.244387)" x="114.809091" y="75.244387">2</text>
     </g>
    </g>
    <g id="ytick_7">
     <g id="line2d_17"/>
     <g id="text_16">
      <text style="font-family:Arial;font-size:8px;font-style:normal;font-weight:normal;text-anchor:end;" transform="rotate(-0, 114.809091, 53.125648)" x="114.809091" y="53.125648">4</text>
     </g>
    </g>
    <g id="ytick_8">
     <g id="line2d_18"/>
     <g id="text_17">
      <text style="font-family:Arial;font-size:8px;font-style:normal;font-weight:normal;text-anchor:end;" transform="rotate(-0, 114.809091, 31.00691)" x="114.809091" y="31.00691">6</text>
     </g>
    </g>
    <g id="text_18">
     <!-- $\sigma$(Inh) -->
     <g transform="translate(104.160341 67.18)rotate(-90)">
      <text>
       <tspan style="font-family:DejaVu Sans;font-size:10px;font-style:oblique;font-weight:oblique;" x="0" y="-0.71875">σ</tspan>
       <tspan style="font-family:Arial;font-size:10px;font-style:regular;font-weight:regular;" x="6.337891 9.667969 12.446289 18.007812 23.569336" y="-0.71875">(Inh)</tspan>
      </text>
     </g>
    </g>
   </g>
   <g id="legend_2">
    <g id="line2d_19">
     <path d="M 108.478125 31.995156 
L 128.478125 31.995156 
" style="fill:none;stroke:#000000;stroke-dasharray:1.85,0.8;stroke-dashoffset:0;stroke-width:0.5;"/>
    </g>
    <g id="line2d_20"/>
    <g id="text_19">
     <!-- $R^2$ 0.86 -->
     <g transform="translate(136.478125 29.2475)">
      <text>
       <tspan style="font-family:DejaVu Sans;font-size:10px;font-style:oblique;font-weight:oblique;" x="0" y="-0.9765625">R</tspan>
       <tspan style="font-family:DejaVu Sans;font-size:7px;font-style:book;font-weight:book;" x="7.650794" y="-4.8046875">2</tspan>
       <tspan style="font-family:Arial;font-size:10px;font-style:regular;font-weight:regular;" x="12.377845 15.156165 20.717689 23.496009 29.057533" y="-0.9765625"> 0.86</tspan>
      </text>
     </g>
     <text style="font-family:Arial;font-size:10px;font-style:normal;font-weight:normal;" transform="translate(136.478125 39.86)"> slope 0.93</text>
    </g>
   </g>
  </g>
 </g>
 <defs>
  <clipPath id="p6c5a8ac09d">
   <rect height="81.54" width="76.090909" x="27" y="12.96"/>
  </clipPath>
  <clipPath id="pebbd3a186c">
   <rect height="81.54" width="76.090909" x="118.309091" y="12.96"/>
  </clipPath>
 </defs>
</svg>
