<?xml version="1.0" encoding="utf-8" standalone="no"?>
<!DOCTYPE svg PUBLIC "-//W3C//DTD SVG 1.1//EN"
  "http://www.w3.org/Graphics/SVG/1.1/DTD/svg11.dtd">
<!-- Created with matplotlib (http://matplotlib.org/) -->
<svg height="108pt" version="1.1" viewBox="0 0 216 108" width="216pt" xmlns="http://www.w3.org/2000/svg" xmlns:xlink="http://www.w3.org/1999/xlink">
 <defs>
  <style type="text/css">
*{stroke-linecap:butt;stroke-linejoin:round;}
  </style>
 </defs>
 <g id="figure_1">
  <g id="patch_1">
   <path d="M 0 108 
L 216 108 
L 216 0 
L 0 0 
z
" style="fill:#ffffff;"/>
  </g>
  <g id="axes_1">
   <g id="patch_2">
    <path d="M 27 94.5 
L 103.090909 94.5 
L 103.090909 12.96 
L 27 12.96 
z
" style="fill:#ffffff;"/>
   </g>
   <g id="LineCollection_1">
    <path clip-path="url(#pd137cb7f5b)" d="M 28.280006 64.645807 
L 44.893182 64.645807 
" style="fill:none;stroke:#000000;stroke-width:0.5;"/>
    <path clip-path="url(#pd137cb7f5b)" d="M 24.583924 79.252717 
L 34.708051 79.252717 
" style="fill:none;stroke:#000000;stroke-width:0.5;"/>
    <path clip-path="url(#pd137cb7f5b)" d="M 26.529411 80.758997 
L 29.174691 80.758997 
" style="fill:none;stroke:#000000;stroke-width:0.5;"/>
    <path clip-path="url(#pd137cb7f5b)" d="M 29.604109 66.885571 
L 39.652768 66.885571 
" style="fill:none;stroke:#000000;stroke-width:0.5;"/>
    <path clip-path="url(#pd137cb7f5b)" d="M 24.489474 83.742007 
L 32.97454 83.742007 
" style="fill:none;stroke:#000000;stroke-width:0.5;"/>
    <path clip-path="url(#pd137cb7f5b)" d="M 25.770855 69.717777 
L 37.643028 69.717777 
" style="fill:none;stroke:#000000;stroke-width:0.5;"/>
    <path clip-path="url(#pd137cb7f5b)" d="M 25.784412 80.28829 
L 32.642402 80.28829 
" style="fill:none;stroke:#000000;stroke-width:0.5;"/>
    <path clip-path="url(#pd137cb7f5b)" d="M 25.825177 77.142987 
L 39.628165 77.142987 
" style="fill:none;stroke:#000000;stroke-width:0.5;"/>
    <path clip-path="url(#pd137cb7f5b)" d="M 26.2833 88.047353 
L 30.326708 88.047353 
" style="fill:none;stroke:#000000;stroke-width:0.5;"/>
    <path clip-path="url(#pd137cb7f5b)" d="M 34.712044 56.815792 
L 51.281618 56.815792 
" style="fill:none;stroke:#000000;stroke-width:0.5;"/>
    <path clip-path="url(#pd137cb7f5b)" d="M 29.666881 83.395781 
L 38.430784 83.395781 
" style="fill:none;stroke:#000000;stroke-width:0.5;"/>
    <path clip-path="url(#pd137cb7f5b)" d="M 26.347215 84.199633 
L 29.847541 84.199633 
" style="fill:none;stroke:#000000;stroke-width:0.5;"/>
    <path clip-path="url(#pd137cb7f5b)" d="M 26.691262 85.515306 
L 27.734734 85.515306 
" style="fill:none;stroke:#000000;stroke-width:0.5;"/>
    <path clip-path="url(#pd137cb7f5b)" d="M 31.028751 72.026562 
L 38.909668 72.026562 
" style="fill:none;stroke:#000000;stroke-width:0.5;"/>
    <path clip-path="url(#pd137cb7f5b)" d="M 25.753604 51.181933 
L 51.637364 51.181933 
" style="fill:none;stroke:#000000;stroke-width:0.5;"/>
    <path clip-path="url(#pd137cb7f5b)" d="M 27.121026 82.965343 
L 39.161973 82.965343 
" style="fill:none;stroke:#000000;stroke-width:0.5;"/>
    <path clip-path="url(#pd137cb7f5b)" d="M 23.959254 76.180435 
L 42.587513 76.180435 
" style="fill:none;stroke:#000000;stroke-width:0.5;"/>
    <path clip-path="url(#pd137cb7f5b)" d="M 27.331534 72.473977 
L 42.598756 72.473977 
" style="fill:none;stroke:#000000;stroke-width:0.5;"/>
    <path clip-path="url(#pd137cb7f5b)" d="M 28.201057 78.377791 
L 32.918087 78.377791 
" style="fill:none;stroke:#000000;stroke-width:0.5;"/>
    <path clip-path="url(#pd137cb7f5b)" d="M 26.903749 85.838519 
L 28.804974 85.838519 
" style="fill:none;stroke:#000000;stroke-width:0.5;"/>
    <path clip-path="url(#pd137cb7f5b)" d="M 28.726503 38.282286 
L 61.198041 38.282286 
" style="fill:none;stroke:#000000;stroke-width:0.5;"/>
    <path clip-path="url(#pd137cb7f5b)" d="M 26.154926 51.340417 
L 39.957775 51.340417 
" style="fill:none;stroke:#000000;stroke-width:0.5;"/>
    <path clip-path="url(#pd137cb7f5b)" d="M 22.566885 56.339711 
L 49.706122 56.339711 
" style="fill:none;stroke:#000000;stroke-width:0.5;"/>
    <path clip-path="url(#pd137cb7f5b)" d="M 25.696118 63.215097 
L 32.984239 63.215097 
" style="fill:none;stroke:#000000;stroke-width:0.5;"/>
    <path clip-path="url(#pd137cb7f5b)" d="M 27.184562 71.271629 
L 37.053076 71.271629 
" style="fill:none;stroke:#000000;stroke-width:0.5;"/>
    <path clip-path="url(#pd137cb7f5b)" d="M 26.731565 84.816845 
L 31.878974 84.816845 
" style="fill:none;stroke:#000000;stroke-width:0.5;"/>
    <path clip-path="url(#pd137cb7f5b)" d="M 26.751675 78.449032 
L 39.501296 78.449032 
" style="fill:none;stroke:#000000;stroke-width:0.5;"/>
    <path clip-path="url(#pd137cb7f5b)" d="M 28.4347 77.400979 
L 35.592684 77.400979 
" style="fill:none;stroke:#000000;stroke-width:0.5;"/>
    <path clip-path="url(#pd137cb7f5b)" d="M 28.565185 54.75451 
L 35.903314 54.75451 
" style="fill:none;stroke:#000000;stroke-width:0.5;"/>
    <path clip-path="url(#pd137cb7f5b)" d="M 25.608056 89.234991 
L 30.312542 89.234991 
" style="fill:none;stroke:#000000;stroke-width:0.5;"/>
   </g>
   <g id="LineCollection_2">
    <path clip-path="url(#pd137cb7f5b)" d="M 36.586594 69.21285 
L 36.586594 60.078764 
" style="fill:none;stroke:#000000;stroke-width:0.5;"/>
    <path clip-path="url(#pd137cb7f5b)" d="M 29.645987 81.48313 
L 29.645987 77.022305 
" style="fill:none;stroke:#000000;stroke-width:0.5;"/>
    <path clip-path="url(#pd137cb7f5b)" d="M 27.852051 84.266641 
L 27.852051 77.251353 
" style="fill:none;stroke:#000000;stroke-width:0.5;"/>
    <path clip-path="url(#pd137cb7f5b)" d="M 34.628439 73.966482 
L 34.628439 59.804661 
" style="fill:none;stroke:#000000;stroke-width:0.5;"/>
    <path clip-path="url(#pd137cb7f5b)" d="M 28.732007 88.260514 
L 28.732007 79.223499 
" style="fill:none;stroke:#000000;stroke-width:0.5;"/>
    <path clip-path="url(#pd137cb7f5b)" d="M 31.706941 74.633472 
L 31.706941 64.802081 
" style="fill:none;stroke:#000000;stroke-width:0.5;"/>
    <path clip-path="url(#pd137cb7f5b)" d="M 29.213407 83.351944 
L 29.213407 77.224635 
" style="fill:none;stroke:#000000;stroke-width:0.5;"/>
    <path clip-path="url(#pd137cb7f5b)" d="M 32.726671 84.178864 
L 32.726671 70.107109 
" style="fill:none;stroke:#000000;stroke-width:0.5;"/>
    <path clip-path="url(#pd137cb7f5b)" d="M 28.305004 91.414309 
L 28.305004 84.680397 
" style="fill:none;stroke:#000000;stroke-width:0.5;"/>
    <path clip-path="url(#pd137cb7f5b)" d="M 42.996831 65.579204 
L 42.996831 48.052381 
" style="fill:none;stroke:#000000;stroke-width:0.5;"/>
    <path clip-path="url(#pd137cb7f5b)" d="M 34.048832 89.485435 
L 34.048832 77.306126 
" style="fill:none;stroke:#000000;stroke-width:0.5;"/>
    <path clip-path="url(#pd137cb7f5b)" d="M 28.097378 87.832066 
L 28.097378 80.5672 
" style="fill:none;stroke:#000000;stroke-width:0.5;"/>
    <path clip-path="url(#pd137cb7f5b)" d="M 27.212998 90.106185 
L 27.212998 80.924427 
" style="fill:none;stroke:#000000;stroke-width:0.5;"/>
    <path clip-path="url(#pd137cb7f5b)" d="M 34.969209 77.647084 
L 34.969209 66.40604 
" style="fill:none;stroke:#000000;stroke-width:0.5;"/>
    <path clip-path="url(#pd137cb7f5b)" d="M 38.695484 61.148674 
L 38.695484 41.215191 
" style="fill:none;stroke:#000000;stroke-width:0.5;"/>
    <path clip-path="url(#pd137cb7f5b)" d="M 33.141499 89.371158 
L 33.141499 76.559529 
" style="fill:none;stroke:#000000;stroke-width:0.5;"/>
    <path clip-path="url(#pd137cb7f5b)" d="M 33.273384 84.468296 
L 33.273384 67.892575 
" style="fill:none;stroke:#000000;stroke-width:0.5;"/>
    <path clip-path="url(#pd137cb7f5b)" d="M 34.965145 80.896277 
L 34.965145 64.051677 
" style="fill:none;stroke:#000000;stroke-width:0.5;"/>
    <path clip-path="url(#pd137cb7f5b)" d="M 30.559572 81.488487 
L 30.559572 75.267095 
" style="fill:none;stroke:#000000;stroke-width:0.5;"/>
    <path clip-path="url(#pd137cb7f5b)" d="M 27.854362 88.24055 
L 27.854362 83.436487 
" style="fill:none;stroke:#000000;stroke-width:0.5;"/>
    <path clip-path="url(#pd137cb7f5b)" d="M 44.962272 59.849604 
L 44.962272 16.714967 
" style="fill:none;stroke:#000000;stroke-width:0.5;"/>
    <path clip-path="url(#pd137cb7f5b)" d="M 33.056351 54.906071 
L 33.056351 47.774764 
" style="fill:none;stroke:#000000;stroke-width:0.5;"/>
    <path clip-path="url(#pd137cb7f5b)" d="M 36.136504 75.128559 
L 36.136504 37.550864 
" style="fill:none;stroke:#000000;stroke-width:0.5;"/>
    <path clip-path="url(#pd137cb7f5b)" d="M 29.340179 69.882082 
L 29.340179 56.548112 
" style="fill:none;stroke:#000000;stroke-width:0.5;"/>
    <path clip-path="url(#pd137cb7f5b)" d="M 32.118819 76.881632 
L 32.118819 65.661626 
" style="fill:none;stroke:#000000;stroke-width:0.5;"/>
    <path clip-path="url(#pd137cb7f5b)" d="M 29.30527 88.266209 
L 29.30527 81.367481 
" style="fill:none;stroke:#000000;stroke-width:0.5;"/>
    <path clip-path="url(#pd137cb7f5b)" d="M 33.126486 83.743231 
L 33.126486 73.154833 
" style="fill:none;stroke:#000000;stroke-width:0.5;"/>
    <path clip-path="url(#pd137cb7f5b)" d="M 32.013692 79.501303 
L 32.013692 75.300655 
" style="fill:none;stroke:#000000;stroke-width:0.5;"/>
    <path clip-path="url(#pd137cb7f5b)" d="M 32.23425 61.63907 
L 32.23425 47.86995 
" style="fill:none;stroke:#000000;stroke-width:0.5;"/>
    <path clip-path="url(#pd137cb7f5b)" d="M 27.960299 91.814308 
L 27.960299 86.655674 
" style="fill:none;stroke:#000000;stroke-width:0.5;"/>
   </g>
   <g id="line2d_1">
    <path clip-path="url(#pd137cb7f5b)" d="M 27 85.787342 
L 27.768595 83.980134 
L 28.53719 82.172926 
L 29.305785 80.365719 
L 30.07438 78.558511 
L 30.842975 76.751304 
L 31.61157 74.944096 
L 32.380165 73.136889 
L 33.14876 71.329681 
L 33.917355 69.522473 
L 34.68595 67.715266 
L 35.454545 65.908058 
L 36.22314 64.100851 
L 36.991736 62.293643 
L 37.760331 60.486436 
L 38.528926 58.679228 
L 39.297521 56.87202 
L 40.066116 55.064813 
L 40.834711 53.257605 
L 41.603306 51.450398 
L 42.371901 49.64319 
L 43.140496 47.835982 
L 43.909091 46.028775 
L 44.677686 44.221567 
L 45.446281 42.41436 
L 46.214876 40.607152 
L 46.983471 38.799945 
L 47.752066 36.992737 
L 48.520661 35.185529 
L 49.289256 33.378322 
L 50.057851 31.571114 
L 50.826446 29.763907 
L 51.595041 27.956699 
L 52.363636 26.149492 
L 53.132231 24.342284 
L 53.900826 22.535076 
L 54.669421 20.727869 
L 55.438017 18.920661 
L 56.206612 17.113454 
L 56.975207 15.306246 
L 57.743802 13.499039 
L 58.512397 11.691831 
L 59.280992 9.884623 
L 60.049587 8.077416 
L 60.818182 6.270208 
L 61.586777 4.463001 
L 62.355372 2.655793 
L 63.123967 0.848585 
L 63.892562 -0.958622 
L 63.91016 -1 
" style="fill:none;stroke:#000000;stroke-dasharray:1.85,0.8;stroke-dashoffset:0;stroke-width:0.5;"/>
   </g>
   <g id="line2d_2">
    <defs>
     <path d="M 0 3 
C 0.795609 3 1.55874 2.683901 2.12132 2.12132 
C 2.683901 1.55874 3 0.795609 3 0 
C 3 -0.795609 2.683901 -1.55874 2.12132 -2.12132 
C 1.55874 -2.683901 0.795609 -3 0 -3 
C -0.795609 -3 -1.55874 -2.683901 -2.12132 -2.12132 
C -2.683901 -1.55874 -3 -0.795609 -3 0 
C -3 0.795609 -2.683901 1.55874 -2.12132 2.12132 
C -1.55874 2.683901 -0.795609 3 0 3 
z
" id="madbd6748eb" style="stroke:#000000;"/>
    </defs>
    <g clip-path="url(#pd137cb7f5b)">
     <use style="stroke:#000000;" x="36.586594" xlink:href="#madbd6748eb" y="64.645807"/>
     <use style="stroke:#000000;" x="29.645987" xlink:href="#madbd6748eb" y="79.252717"/>
     <use style="stroke:#000000;" x="27.852051" xlink:href="#madbd6748eb" y="80.758997"/>
     <use style="stroke:#000000;" x="34.628439" xlink:href="#madbd6748eb" y="66.885571"/>
     <use style="stroke:#000000;" x="28.732007" xlink:href="#madbd6748eb" y="83.742007"/>
     <use style="stroke:#000000;" x="31.706941" xlink:href="#madbd6748eb" y="69.717777"/>
     <use style="stroke:#000000;" x="29.213407" xlink:href="#madbd6748eb" y="80.28829"/>
     <use style="stroke:#000000;" x="32.726671" xlink:href="#madbd6748eb" y="77.142987"/>
     <use style="stroke:#000000;" x="28.305004" xlink:href="#madbd6748eb" y="88.047353"/>
     <use style="stroke:#000000;" x="42.996831" xlink:href="#madbd6748eb" y="56.815792"/>
     <use style="stroke:#000000;" x="34.048832" xlink:href="#madbd6748eb" y="83.395781"/>
     <use style="stroke:#000000;" x="28.097378" xlink:href="#madbd6748eb" y="84.199633"/>
     <use style="stroke:#000000;" x="27.212998" xlink:href="#madbd6748eb" y="85.515306"/>
     <use style="stroke:#000000;" x="34.969209" xlink:href="#madbd6748eb" y="72.026562"/>
     <use style="stroke:#000000;" x="38.695484" xlink:href="#madbd6748eb" y="51.181933"/>
     <use style="stroke:#000000;" x="33.141499" xlink:href="#madbd6748eb" y="82.965343"/>
     <use style="stroke:#000000;" x="33.273384" xlink:href="#madbd6748eb" y="76.180435"/>
     <use style="stroke:#000000;" x="34.965145" xlink:href="#madbd6748eb" y="72.473977"/>
     <use style="stroke:#000000;" x="30.559572" xlink:href="#madbd6748eb" y="78.377791"/>
     <use style="stroke:#000000;" x="27.854362" xlink:href="#madbd6748eb" y="85.838519"/>
     <use style="stroke:#000000;" x="44.962272" xlink:href="#madbd6748eb" y="38.282286"/>
     <use style="stroke:#000000;" x="33.056351" xlink:href="#madbd6748eb" y="51.340417"/>
     <use style="stroke:#000000;" x="36.136504" xlink:href="#madbd6748eb" y="56.339711"/>
     <use style="stroke:#000000;" x="29.340179" xlink:href="#madbd6748eb" y="63.215097"/>
     <use style="stroke:#000000;" x="32.118819" xlink:href="#madbd6748eb" y="71.271629"/>
     <use style="stroke:#000000;" x="29.30527" xlink:href="#madbd6748eb" y="84.816845"/>
     <use style="stroke:#000000;" x="33.126486" xlink:href="#madbd6748eb" y="78.449032"/>
     <use style="stroke:#000000;" x="32.013692" xlink:href="#madbd6748eb" y="77.400979"/>
     <use style="stroke:#000000;" x="32.23425" xlink:href="#madbd6748eb" y="54.75451"/>
     <use style="stroke:#000000;" x="27.960299" xlink:href="#madbd6748eb" y="89.234991"/>
    </g>
   </g>
   <g id="patch_3">
    <path d="M 27 94.5 
L 27 12.96 
" style="fill:none;stroke:#000000;stroke-linecap:square;stroke-linejoin:miter;"/>
   </g>
   <g id="patch_4">
    <path d="M 27 94.5 
L 103.090909 94.5 
" style="fill:none;stroke:#000000;stroke-linecap:square;stroke-linejoin:miter;"/>
   </g>
   <g id="matplotlib.axis_1">
    <g id="xtick_1">
     <g id="line2d_3"/>
     <g id="text_1">
      <text style="font-family:Arial;font-size:8px;font-style:normal;font-weight:normal;text-anchor:middle;" transform="rotate(-0, 27, 103.72625)" x="27" y="103.72625">0</text>
     </g>
    </g>
    <g id="xtick_2">
     <g id="line2d_4"/>
     <g id="text_2">
      <text style="font-family:Arial;font-size:8px;font-style:normal;font-weight:normal;text-anchor:middle;" transform="rotate(-0, 72.592794, 103.72625)" x="72.592794" y="103.72625">10</text>
     </g>
    </g>
    <g id="text_3">
     <text style="font-family:Arial;font-size:10px;font-style:normal;font-weight:normal;text-anchor:middle;" transform="rotate(-0, 65.045455, 116.474063)" x="65.045455" y="116.474063">Exc</text>
    </g>
   </g>
   <g id="matplotlib.axis_2">
    <g id="ytick_1">
     <g id="line2d_5"/>
     <g id="text_4">
      <text style="font-family:Arial;font-size:8px;font-style:normal;font-weight:normal;text-anchor:end;" transform="rotate(-0, 23.5, 97.363125)" x="23.5" y="97.363125">0</text>
     </g>
    </g>
    <g id="ytick_2">
     <g id="line2d_6"/>
     <g id="text_5">
      <text style="font-family:Arial;font-size:8px;font-style:normal;font-weight:normal;text-anchor:end;" transform="rotate(-0, 23.5, 72.934212)" x="23.5" y="72.934212">5</text>
     </g>
    </g>
    <g id="ytick_3">
     <g id="line2d_7"/>
     <g id="text_6">
      <text style="font-family:Arial;font-size:8px;font-style:normal;font-weight:normal;text-anchor:end;" transform="rotate(-0, 23.5, 48.505299)" x="23.5" y="48.505299">10</text>
     </g>
    </g>
    <g id="ytick_4">
     <g id="line2d_8"/>
     <g id="text_7">
      <text style="font-family:Arial;font-size:8px;font-style:normal;font-weight:normal;text-anchor:end;" transform="rotate(-0, 23.5, 24.076386)" x="23.5" y="24.076386">15</text>
     </g>
    </g>
    <g id="text_8">
     <text style="font-family:Arial;font-size:10px;font-style:normal;font-weight:normal;text-anchor:middle;" transform="rotate(-90, 8.615, 53.73)" x="8.615" y="53.73">Inh</text>
    </g>
   </g>
   <g id="legend_1">
    <g id="line2d_9">
     <path d="M 17.169034 31.995156 
L 37.169034 31.995156 
" style="fill:none;stroke:#000000;stroke-dasharray:1.85,0.8;stroke-dashoffset:0;stroke-width:0.5;"/>
    </g>
    <g id="line2d_10"/>
    <g id="text_9">
     <!-- $R^2$ 0.61 -->
     <g transform="translate(45.169034 29.2475)">
      <text>
       <tspan style="font-family:DejaVu Sans;font-size:10px;font-style:oblique;font-weight:oblique;" x="0" y="-0.9765625">R</tspan>
       <tspan style="font-family:DejaVu Sans;font-size:7px;font-style:book;font-weight:book;" x="7.650794" y="-4.8046875">2</tspan>
       <tspan style="font-family:Arial;font-size:10px;font-style:regular;font-weight:regular;" x="12.377845 15.156165 20.717689 23.496009 29.057533" y="-0.9765625"> 0.61</tspan>
      </text>
     </g>
     <text style="font-family:Arial;font-size:10px;font-style:normal;font-weight:normal;" transform="translate(45.169034 39.86)"> slope 2.19</text>
    </g>
   </g>
  </g>
  <g id="axes_2">
   <g id="patch_5">
    <path d="M 118.309091 94.5 
L 194.4 94.5 
L 194.4 12.96 
L 118.309091 12.96 
z
" style="fill:#ffffff;"/>
   </g>
   <g id="PathCollection_1">
    <defs>
     <path d="M 0 2.44949 
C 0.649612 2.44949 1.272706 2.191396 1.732051 1.732051 
C 2.191396 1.272706 2.44949 0.649612 2.44949 0 
C 2.44949 -0.649612 2.191396 -1.272706 1.732051 -1.732051 
C 1.272706 -2.191396 0.649612 -2.44949 0 -2.44949 
C -0.649612 -2.44949 -1.272706 -2.191396 -1.732051 -1.732051 
C -2.191396 -1.272706 -2.44949 -0.649612 -2.44949 0 
C -2.44949 0.649612 -2.191396 1.272706 -1.732051 1.732051 
C -1.272706 2.191396 -0.649612 2.44949 0 2.44949 
z
" id="mdc177eebf8" style="stroke:#000000;"/>
    </defs>
    <g clip-path="url(#pb10fc8fd39)">
     <use style="stroke:#000000;" x="148.27736" xlink:href="#mdc177eebf8" y="78.023152"/>
     <use style="stroke:#000000;" x="136.571857" xlink:href="#mdc177eebf8" y="86.453183"/>
     <use style="stroke:#000000;" x="123.080873" xlink:href="#mdc177eebf8" y="81.845224"/>
     <use style="stroke:#000000;" x="136.435723" xlink:href="#mdc177eebf8" y="68.953694"/>
     <use style="stroke:#000000;" x="133.615179" xlink:href="#mdc177eebf8" y="78.198257"/>
     <use style="stroke:#000000;" x="139.725132" xlink:href="#mdc177eebf8" y="76.765295"/>
     <use style="stroke:#000000;" x="130.680121" xlink:href="#mdc177eebf8" y="83.447037"/>
     <use style="stroke:#000000;" x="143.208103" xlink:href="#mdc177eebf8" y="69.116164"/>
     <use style="stroke:#000000;" x="125.602936" xlink:href="#mdc177eebf8" y="82.352792"/>
     <use style="stroke:#000000;" x="148.198707" xlink:href="#mdc177eebf8" y="62.883615"/>
     <use style="stroke:#000000;" x="134.11817" xlink:href="#mdc177eebf8" y="72.52992"/>
     <use style="stroke:#000000;" x="124.623279" xlink:href="#mdc177eebf8" y="81.395014"/>
     <use style="stroke:#000000;" x="120.191397" xlink:href="#mdc177eebf8" y="77.937159"/>
     <use style="stroke:#000000;" x="132.525365" xlink:href="#mdc177eebf8" y="74.222443"/>
     <use style="stroke:#000000;" x="165.000434" xlink:href="#mdc177eebf8" y="58.542276"/>
     <use style="stroke:#000000;" x="140.029582" xlink:href="#mdc177eebf8" y="71.389287"/>
     <use style="stroke:#000000;" x="151.91234" xlink:href="#mdc177eebf8" y="64.599295"/>
     <use style="stroke:#000000;" x="145.849412" xlink:href="#mdc177eebf8" y="64.114268"/>
     <use style="stroke:#000000;" x="126.818073" xlink:href="#mdc177eebf8" y="83.277321"/>
     <use style="stroke:#000000;" x="121.738683" xlink:href="#mdc177eebf8" y="85.834021"/>
     <use style="stroke:#000000;" x="176.884031" xlink:href="#mdc177eebf8" y="16.690048"/>
     <use style="stroke:#000000;" x="143.207851" xlink:href="#mdc177eebf8" y="81.635938"/>
     <use style="stroke:#000000;" x="167.26517" xlink:href="#mdc177eebf8" y="26.714138"/>
     <use style="stroke:#000000;" x="131.456028" xlink:href="#mdc177eebf8" y="70.447042"/>
     <use style="stroke:#000000;" x="136.110761" xlink:href="#mdc177eebf8" y="74.260393"/>
     <use style="stroke:#000000;" x="127.59443" xlink:href="#mdc177eebf8" y="82.055485"/>
     <use style="stroke:#000000;" x="141.30795" xlink:href="#mdc177eebf8" y="75.39974"/>
     <use style="stroke:#000000;" x="131.221275" xlink:href="#mdc177eebf8" y="86.92251"/>
     <use style="stroke:#000000;" x="131.546237" xlink:href="#mdc177eebf8" y="69.662083"/>
     <use style="stroke:#000000;" x="126.795446" xlink:href="#mdc177eebf8" y="85.194414"/>
    </g>
   </g>
   <g id="line2d_11">
    <path clip-path="url(#pb10fc8fd39)" d="M 118.309091 91.840103 
L 119.077686 91.08186 
L 119.846281 90.323616 
L 120.614876 89.565372 
L 121.383471 88.807129 
L 122.152066 88.048885 
L 122.920661 87.290641 
L 123.689256 86.532397 
L 124.457851 85.774154 
L 125.226446 85.01591 
L 125.995041 84.257666 
L 126.763636 83.499423 
L 127.532231 82.741179 
L 128.300826 81.982935 
L 129.069421 81.224692 
L 129.838017 80.466448 
L 130.606612 79.708204 
L 131.375207 78.949961 
L 132.143802 78.191717 
L 132.912397 77.433473 
L 133.680992 76.675229 
L 134.449587 75.916986 
L 135.218182 75.158742 
L 135.986777 74.400498 
L 136.755372 73.642255 
L 137.523967 72.884011 
L 138.292562 72.125767 
L 139.061157 71.367524 
L 139.829752 70.60928 
L 140.598347 69.851036 
L 141.366942 69.092793 
L 142.135537 68.334549 
L 142.904132 67.576305 
L 143.672727 66.818061 
L 144.441322 66.059818 
L 145.209917 65.301574 
L 145.978512 64.54333 
L 146.747107 63.785087 
L 147.515702 63.026843 
L 148.284298 62.268599 
L 149.052893 61.510356 
L 149.821488 60.752112 
L 150.590083 59.993868 
L 151.358678 59.235625 
L 152.127273 58.477381 
L 152.895868 57.719137 
L 153.664463 56.960894 
L 154.433058 56.20265 
L 155.201653 55.444406 
L 155.970248 54.686162 
L 156.738843 53.927919 
L 157.507438 53.169675 
L 158.276033 52.411431 
L 159.044628 51.653188 
L 159.813223 50.894944 
L 160.581818 50.1367 
L 161.350413 49.378457 
L 162.119008 48.620213 
L 162.887603 47.861969 
L 163.656198 47.103726 
L 164.424793 46.345482 
L 165.193388 45.587238 
L 165.961983 44.828994 
L 166.730579 44.070751 
L 167.499174 43.312507 
L 168.267769 42.554263 
L 169.036364 41.79602 
L 169.804959 41.037776 
L 170.573554 40.279532 
L 171.342149 39.521289 
L 172.110744 38.763045 
L 172.879339 38.004801 
L 173.647934 37.246558 
L 174.416529 36.488314 
L 175.185124 35.73007 
L 175.953719 34.971826 
L 176.722314 34.213583 
L 177.490909 33.455339 
L 178.259504 32.697095 
L 179.028099 31.938852 
L 179.796694 31.180608 
L 180.565289 30.422364 
L 181.333884 29.664121 
L 182.102479 28.905877 
L 182.871074 28.147633 
L 183.639669 27.38939 
L 184.408264 26.631146 
L 185.17686 25.872902 
L 185.945455 25.114659 
L 186.71405 24.356415 
L 187.482645 23.598171 
L 188.25124 22.839927 
L 189.019835 22.081684 
L 189.78843 21.32344 
L 190.557025 20.565196 
L 191.32562 19.806953 
L 192.094215 19.048709 
L 192.86281 18.290465 
L 193.631405 17.532222 
L 194.4 16.773978 
" style="fill:none;stroke:#000000;stroke-dasharray:1.85,0.8;stroke-dashoffset:0;stroke-width:0.5;"/>
   </g>
   <g id="patch_6">
    <path d="M 118.309091 94.5 
L 118.309091 12.96 
" style="fill:none;stroke:#000000;stroke-linecap:square;stroke-linejoin:miter;"/>
   </g>
   <g id="patch_7">
    <path d="M 118.309091 94.5 
L 194.4 94.5 
" style="fill:none;stroke:#000000;stroke-linecap:square;stroke-linejoin:miter;"/>
   </g>
   <g id="matplotlib.axis_3">
    <g id="xtick_3">
     <g id="line2d_12"/>
     <g id="text_10">
      <text style="font-family:Arial;font-size:8px;font-style:normal;font-weight:normal;text-anchor:middle;" transform="rotate(-0, 118.309091, 103.72625)" x="118.309091" y="103.72625">0</text>
     </g>
    </g>
    <g id="xtick_4">
     <g id="line2d_13"/>
     <g id="text_11">
      <text style="font-family:Arial;font-size:8px;font-style:normal;font-weight:normal;text-anchor:middle;" transform="rotate(-0, 151.206765, 103.72625)" x="151.206765" y="103.72625">2</text>
     </g>
    </g>
    <g id="xtick_5">
     <g id="line2d_14"/>
     <g id="text_12">
      <text style="font-family:Arial;font-size:8px;font-style:normal;font-weight:normal;text-anchor:middle;" transform="rotate(-0, 184.104439, 103.72625)" x="184.104439" y="103.72625">4</text>
     </g>
    </g>
    <g id="text_13">
     <!-- $\sigma$(Exc) -->
     <g transform="translate(141.504545 116.61625)">
      <text>
       <tspan style="font-family:DejaVu Sans;font-size:10px;font-style:oblique;font-weight:oblique;" x="0" y="-0.71875">σ</tspan>
       <tspan style="font-family:Arial;font-size:10px;font-style:regular;font-weight:regular;" x="6.337891 9.667969 16.337891 21.337891 26.337891" y="-0.71875">(Exc)</tspan>
      </text>
     </g>
    </g>
   </g>
   <g id="matplotlib.axis_4">
    <g id="ytick_5">
     <g id="line2d_15"/>
     <g id="text_14">
      <text style="font-family:Arial;font-size:8px;font-style:normal;font-weight:normal;text-anchor:end;" transform="rotate(-0, 114.809091, 97.363125)" x="114.809091" y="97.363125">0</text>
     </g>
    </g>
    <g id="ytick_6">
     <g id="line2d_16"/>
     <g id="text_15">
      <text style="font-family:Arial;font-size:8px;font-style:normal;font-weight:normal;text-anchor:end;" transform="rotate(-0, 114.809091, 79.736339)" x="114.809091" y="79.736339">1</text>
     </g>
    </g>
    <g id="ytick_7">
     <g id="line2d_17"/>
     <g id="text_16">
      <text style="font-family:Arial;font-size:8px;font-style:normal;font-weight:normal;text-anchor:end;" transform="rotate(-0, 114.809091, 62.109553)" x="114.809091" y="62.109553">2</text>
     </g>
    </g>
    <g id="ytick_8">
     <g id="line2d_18"/>
     <g id="text_17">
      <text style="font-family:Arial;font-size:8px;font-style:normal;font-weight:normal;text-anchor:end;" transform="rotate(-0, 114.809091, 44.482767)" x="114.809091" y="44.482767">3</text>
     </g>
    </g>
    <g id="ytick_9">
     <g id="line2d_19"/>
     <g id="text_18">
      <text style="font-family:Arial;font-size:8px;font-style:normal;font-weight:normal;text-anchor:end;" transform="rotate(-0, 114.809091, 26.855981)" x="114.809091" y="26.855981">4</text>
     </g>
    </g>
    <g id="text_19">
     <!-- $\sigma$(Inh) -->
     <g transform="translate(104.160341 67.18)rotate(-90)">
      <text>
       <tspan style="font-family:DejaVu Sans;font-size:10px;font-style:oblique;font-weight:oblique;" x="0" y="-0.71875">σ</tspan>
       <tspan style="font-family:Arial;font-size:10px;font-style:regular;font-weight:regular;" x="6.337891 9.667969 12.446289 18.007812 23.569336" y="-0.71875">(Inh)</tspan>
      </text>
     </g>
    </g>
   </g>
   <g id="legend_2">
    <g id="line2d_20">
     <path d="M 108.478125 31.995156 
L 128.478125 31.995156 
" style="fill:none;stroke:#000000;stroke-dasharray:1.85,0.8;stroke-dashoffset:0;stroke-width:0.5;"/>
    </g>
    <g id="line2d_21"/>
    <g id="text_20">
     <!-- $R^2$ 0.73 -->
     <g transform="translate(136.478125 29.2475)">
      <text>
       <tspan style="font-family:DejaVu Sans;font-size:10px;font-style:oblique;font-weight:oblique;" x="0" y="-0.9765625">R</tspan>
       <tspan style="font-family:DejaVu Sans;font-size:7px;font-style:book;font-weight:book;" x="7.650794" y="-4.8046875">2</tspan>
       <tspan style="font-family:Arial;font-size:10px;font-style:regular;font-weight:regular;" x="12.377845 15.156165 20.717689 23.496009 29.057533" y="-0.9765625"> 0.73</tspan>
      </text>
     </g>
     <text style="font-family:Arial;font-size:10px;font-style:normal;font-weight:normal;" transform="translate(136.478125 39.86)"> slope 0.92</text>
    </g>
   </g>
  </g>
 </g>
 <defs>
  <clipPath id="pd137cb7f5b">
   <rect height="81.54" width="76.090909" x="27" y="12.96"/>
  </clipPath>
  <clipPath id="pb10fc8fd39">
   <rect height="81.54" width="76.090909" x="118.309091" y="12.96"/>
  </clipPath>
 </defs>
</svg>
