<?xml version="1.0" encoding="utf-8" standalone="no"?>
<!DOCTYPE svg PUBLIC "-//W3C//DTD SVG 1.1//EN"
  "http://www.w3.org/Graphics/SVG/1.1/DTD/svg11.dtd">
<!-- Created with matplotlib (http://matplotlib.org/) -->
<svg height="108pt" version="1.1" viewBox="0 0 108 108" width="108pt" xmlns="http://www.w3.org/2000/svg" xmlns:xlink="http://www.w3.org/1999/xlink">
 <defs>
  <style type="text/css">
*{stroke-linecap:butt;stroke-linejoin:round;}
  </style>
 </defs>
 <g id="figure_1">
  <g id="patch_1">
   <path d="M 0 108 
L 108 108 
L 108 0 
L 0 0 
z
" style="fill:#ffffff;"/>
  </g>
  <g id="axes_1">
   <g id="patch_2">
    <path d="M 13.5 94.5 
L 97.2 94.5 
L 97.2 12.96 
L 13.5 12.96 
z
" style="fill:#ffffff;"/>
   </g>
   <g id="patch_3">
    <path clip-path="url(#pced1d0fa8c)" d="M 17.304545 94.5 
L 24.913636 94.5 
L 24.913636 16.842857 
L 17.304545 16.842857 
z
" style="fill:#808080;"/>
   </g>
   <g id="patch_4">
    <path clip-path="url(#pced1d0fa8c)" d="M 24.913636 94.5 
L 32.522727 94.5 
L 32.522727 36.299348 
L 24.913636 36.299348 
z
" style="fill:#808080;"/>
   </g>
   <g id="patch_5">
    <path clip-path="url(#pced1d0fa8c)" d="M 32.522727 94.5 
L 40.131818 94.5 
L 40.131818 75.254534 
L 32.522727 75.254534 
z
" style="fill:#808080;"/>
   </g>
   <g id="patch_6">
    <path clip-path="url(#pced1d0fa8c)" d="M 40.131818 94.5 
L 47.740909 94.5 
L 47.740909 86.776491 
L 40.131818 86.776491 
z
" style="fill:#808080;"/>
   </g>
   <g id="patch_7">
    <path clip-path="url(#pced1d0fa8c)" d="M 47.740909 94.5 
L 55.35 94.5 
L 55.35 90.954783 
L 47.740909 90.954783 
z
" style="fill:#808080;"/>
   </g>
   <g id="patch_8">
    <path clip-path="url(#pced1d0fa8c)" d="M 55.35 94.5 
L 62.959091 94.5 
L 62.959091 93.233851 
L 55.35 93.233851 
z
" style="fill:#808080;"/>
   </g>
   <g id="patch_9">
    <path clip-path="url(#pced1d0fa8c)" d="M 62.959091 94.5 
L 70.568182 94.5 
L 70.568182 93.782516 
L 62.959091 93.782516 
z
" style="fill:#808080;"/>
   </g>
   <g id="patch_10">
    <path clip-path="url(#pced1d0fa8c)" d="M 70.568182 94.5 
L 78.177273 94.5 
L 78.177273 94.204565 
L 70.568182 94.204565 
z
" style="fill:#808080;"/>
   </g>
   <g id="patch_11">
    <path clip-path="url(#pced1d0fa8c)" d="M 78.177273 94.5 
L 85.786364 94.5 
L 85.786364 94.41559 
L 78.177273 94.41559 
z
" style="fill:#808080;"/>
   </g>
   <g id="patch_12">
    <path clip-path="url(#pced1d0fa8c)" d="M 85.786364 94.5 
L 93.395455 94.5 
L 93.395455 94.41559 
L 85.786364 94.41559 
z
" style="fill:#808080;"/>
   </g>
   <g id="patch_13">
    <path d="M 13.5 94.5 
L 13.5 12.96 
" style="fill:none;stroke:#000000;stroke-linecap:square;stroke-linejoin:miter;"/>
   </g>
   <g id="patch_14">
    <path d="M 13.5 94.5 
L 97.2 94.5 
" style="fill:none;stroke:#000000;stroke-linecap:square;stroke-linejoin:miter;"/>
   </g>
   <g id="matplotlib.axis_1">
    <g id="xtick_1">
     <g id="line2d_1"/>
     <g id="text_1">
      <text style="font-family:Arial;font-size:8px;font-style:normal;font-weight:normal;text-anchor:middle;" transform="rotate(-0, 16.586473, 103.72625)" x="16.586473" y="103.72625">0.0</text>
     </g>
    </g>
    <g id="xtick_2">
     <g id="line2d_2"/>
     <g id="text_2">
      <text style="font-family:Arial;font-size:8px;font-style:normal;font-weight:normal;text-anchor:middle;" transform="rotate(-0, 48.952156, 103.72625)" x="48.952156" y="103.72625">2.5</text>
     </g>
    </g>
    <g id="xtick_3">
     <g id="line2d_3"/>
     <g id="text_3">
      <text style="font-family:Arial;font-size:8px;font-style:normal;font-weight:normal;text-anchor:middle;" transform="rotate(-0, 81.317839, 103.72625)" x="81.317839" y="103.72625">5.0</text>
     </g>
    </g>
    <g id="text_4">
     <text style="font-family:Arial;font-size:10px;font-style:normal;font-weight:normal;text-anchor:middle;" transform="rotate(-0, 55.35, 116.474063)" x="55.35" y="116.474063">Exc wts.</text>
    </g>
   </g>
   <g id="matplotlib.axis_2">
    <g id="ytick_1">
     <g id="line2d_4"/>
     <g id="text_5">
      <text style="font-family:Arial;font-size:8px;font-style:normal;font-weight:normal;text-anchor:end;" transform="rotate(-0, 10, 97.363125)" x="10" y="97.363125">0</text>
     </g>
    </g>
    <g id="ytick_2">
     <g id="line2d_5"/>
     <g id="text_6">
      <text style="font-family:Arial;font-size:8px;font-style:normal;font-weight:normal;text-anchor:end;" transform="rotate(-0, 10, 76.260641)" x="10" y="76.260641">500</text>
     </g>
    </g>
    <g id="ytick_3">
     <g id="line2d_6"/>
     <g id="text_7">
      <text style="font-family:Arial;font-size:8px;font-style:normal;font-weight:normal;text-anchor:end;" transform="rotate(-0, 10, 55.158156)" x="10" y="55.158156">1000</text>
     </g>
    </g>
    <g id="ytick_4">
     <g id="line2d_7"/>
     <g id="text_8">
      <text style="font-family:Arial;font-size:8px;font-style:normal;font-weight:normal;text-anchor:end;" transform="rotate(-0, 10, 34.055672)" x="10" y="34.055672">1500</text>
     </g>
    </g>
    <g id="text_9">
     <text style="font-family:Arial;font-size:10px;font-style:normal;font-weight:normal;text-anchor:middle;" transform="rotate(-90, -13.7825, 53.73)" x="-13.7825" y="53.73">#</text>
    </g>
   </g>
  </g>
 </g>
 <defs>
  <clipPath id="pced1d0fa8c">
   <rect height="81.54" width="83.7" x="13.5" y="12.96"/>
  </clipPath>
 </defs>
</svg>
