<?xml version="1.0" encoding="utf-8" standalone="no"?>
<!DOCTYPE svg PUBLIC "-//W3C//DTD SVG 1.1//EN"
  "http://www.w3.org/Graphics/SVG/1.1/DTD/svg11.dtd">
<!-- Created with matplotlib (http://matplotlib.org/) -->
<svg height="345pt" version="1.1" viewBox="0 0 460 345" width="460pt" xmlns="http://www.w3.org/2000/svg" xmlns:xlink="http://www.w3.org/1999/xlink">
 <defs>
  <style type="text/css">
*{stroke-linecap:butt;stroke-linejoin:round;}
  </style>
 </defs>
 <g id="figure_1">
  <g id="patch_1">
   <path d="M 0 345.6 
L 460.8 345.6 
L 460.8 0 
L 0 0 
z
" style="fill:#ffffff;"/>
  </g>
  <g id="axes_1">
   <g id="patch_2">
    <path d="M 57.6 307.584 
L 414.72 307.584 
L 414.72 41.472 
L 57.6 41.472 
z
" style="fill:#ffffff;"/>
   </g>
   <g id="patch_3">
    <path clip-path="url(#p4a17b60523)" d="M 73.832727 307.584 
L 106.298182 307.584 
L 106.298182 282.24 
L 73.832727 282.24 
z
"/>
   </g>
   <g id="patch_4">
    <path clip-path="url(#p4a17b60523)" d="M 106.298182 307.584 
L 138.763636 307.584 
L 138.763636 155.52 
L 106.298182 155.52 
z
"/>
   </g>
   <g id="patch_5">
    <path clip-path="url(#p4a17b60523)" d="M 138.763636 307.584 
L 171.229091 307.584 
L 171.229091 54.144 
L 138.763636 54.144 
z
"/>
   </g>
   <g id="patch_6">
    <path clip-path="url(#p4a17b60523)" d="M 171.229091 307.584 
L 203.694545 307.584 
L 203.694545 79.488 
L 171.229091 79.488 
z
"/>
   </g>
   <g id="patch_7">
    <path clip-path="url(#p4a17b60523)" d="M 203.694545 307.584 
L 236.16 307.584 
L 236.16 231.552 
L 203.694545 231.552 
z
"/>
   </g>
   <g id="patch_8">
    <path clip-path="url(#p4a17b60523)" d="M 236.16 307.584 
L 268.625455 307.584 
L 268.625455 206.208 
L 236.16 206.208 
z
"/>
   </g>
   <g id="patch_9">
    <path clip-path="url(#p4a17b60523)" d="M 268.625455 307.584 
L 301.090909 307.584 
L 301.090909 307.584 
L 268.625455 307.584 
z
"/>
   </g>
   <g id="patch_10">
    <path clip-path="url(#p4a17b60523)" d="M 301.090909 307.584 
L 333.556364 307.584 
L 333.556364 256.896 
L 301.090909 256.896 
z
"/>
   </g>
   <g id="patch_11">
    <path clip-path="url(#p4a17b60523)" d="M 333.556364 307.584 
L 366.021818 307.584 
L 366.021818 282.24 
L 333.556364 282.24 
z
"/>
   </g>
   <g id="patch_12">
    <path clip-path="url(#p4a17b60523)" d="M 366.021818 307.584 
L 398.487273 307.584 
L 398.487273 282.24 
L 366.021818 282.24 
z
"/>
   </g>
   <g id="patch_13">
    <path d="M 47.6 307.584 
L 47.6 41.472 
" style="fill:none;stroke:#000000;stroke-linecap:square;stroke-linejoin:miter;"/>
   </g>
   <g id="patch_14">
    <path d="M 57.6 317.584 
L 414.72 317.584 
" style="fill:none;stroke:#000000;stroke-linecap:square;stroke-linejoin:miter;"/>
   </g>
   <g id="matplotlib.axis_1">
    <g id="xtick_1">
     <g id="line2d_1"/>
     <g id="text_1">
      <text style="font-family:Arial;font-size:8px;font-style:normal;font-weight:400;text-anchor:middle;" transform="rotate(-0, 64.173186, 326.81025)" x="64.173186" y="326.81025">1.00</text>
     </g>
    </g>
    <g id="xtick_2">
     <g id="line2d_2"/>
     <g id="text_2">
      <text style="font-family:Arial;font-size:8px;font-style:normal;font-weight:400;text-anchor:middle;" transform="rotate(-0, 109.43179, 326.81025)" x="109.43179" y="326.81025">1.25</text>
     </g>
    </g>
    <g id="xtick_3">
     <g id="line2d_3"/>
     <g id="text_3">
      <text style="font-family:Arial;font-size:8px;font-style:normal;font-weight:400;text-anchor:middle;" transform="rotate(-0, 154.690394, 326.81025)" x="154.690394" y="326.81025">1.50</text>
     </g>
    </g>
    <g id="xtick_4">
     <g id="line2d_4"/>
     <g id="text_4">
      <text style="font-family:Arial;font-size:8px;font-style:normal;font-weight:400;text-anchor:middle;" transform="rotate(-0, 199.948998, 326.81025)" x="199.948998" y="326.81025">1.75</text>
     </g>
    </g>
    <g id="xtick_5">
     <g id="line2d_5"/>
     <g id="text_5">
      <text style="font-family:Arial;font-size:8px;font-style:normal;font-weight:400;text-anchor:middle;" transform="rotate(-0, 245.207602, 326.81025)" x="245.207602" y="326.81025">2.00</text>
     </g>
    </g>
    <g id="xtick_6">
     <g id="line2d_6"/>
     <g id="text_6">
      <text style="font-family:Arial;font-size:8px;font-style:normal;font-weight:400;text-anchor:middle;" transform="rotate(-0, 290.466206, 326.81025)" x="290.466206" y="326.81025">2.25</text>
     </g>
    </g>
    <g id="xtick_7">
     <g id="line2d_7"/>
     <g id="text_7">
      <text style="font-family:Arial;font-size:8px;font-style:normal;font-weight:400;text-anchor:middle;" transform="rotate(-0, 335.72481, 326.81025)" x="335.72481" y="326.81025">2.50</text>
     </g>
    </g>
    <g id="xtick_8">
     <g id="line2d_8"/>
     <g id="text_8">
      <text style="font-family:Arial;font-size:8px;font-style:normal;font-weight:400;text-anchor:middle;" transform="rotate(-0, 380.983414, 326.81025)" x="380.983414" y="326.81025">2.75</text>
     </g>
    </g>
    <g id="text_9">
     <!-- $V_{max}$ -->
     <g transform="translate(224.96 339.558062)">
      <text>
       <tspan style="font-family:DejaVu Sans;font-size:10px;font-style:oblique;font-weight:oblique;" x="0" y="-0.703125">V</tspan>
       <tspan style="font-family:DejaVu Sans;font-size:7px;font-style:oblique;font-weight:oblique;" x="6.84082 13.659668 17.949219" y="0.9375">max</tspan>
      </text>
     </g>
    </g>
   </g>
   <g id="matplotlib.axis_2">
    <g id="ytick_1">
     <g id="line2d_9"/>
     <g id="text_10">
      <text style="font-family:Arial;font-size:8px;font-style:normal;font-weight:400;text-anchor:end;" transform="rotate(-0, 44.1, 310.447125)" x="44.1" y="310.447125">0</text>
     </g>
    </g>
    <g id="ytick_2">
     <g id="line2d_10"/>
     <g id="text_11">
      <text style="font-family:Arial;font-size:8px;font-style:normal;font-weight:400;text-anchor:end;" transform="rotate(-0, 44.1, 259.759125)" x="44.1" y="259.759125">2</text>
     </g>
    </g>
    <g id="ytick_3">
     <g id="line2d_11"/>
     <g id="text_12">
      <text style="font-family:Arial;font-size:8px;font-style:normal;font-weight:400;text-anchor:end;" transform="rotate(-0, 44.1, 209.071125)" x="44.1" y="209.071125">4</text>
     </g>
    </g>
    <g id="ytick_4">
     <g id="line2d_12"/>
     <g id="text_13">
      <text style="font-family:Arial;font-size:8px;font-style:normal;font-weight:400;text-anchor:end;" transform="rotate(-0, 44.1, 158.383125)" x="44.1" y="158.383125">6</text>
     </g>
    </g>
    <g id="ytick_5">
     <g id="line2d_13"/>
     <g id="text_14">
      <text style="font-family:Arial;font-size:8px;font-style:normal;font-weight:400;text-anchor:end;" transform="rotate(-0, 44.1, 107.695125)" x="44.1" y="107.695125">8</text>
     </g>
    </g>
    <g id="ytick_6">
     <g id="line2d_14"/>
     <g id="text_15">
      <text style="font-family:Arial;font-size:8px;font-style:normal;font-weight:400;text-anchor:end;" transform="rotate(-0, 44.1, 57.007125)" x="44.1" y="57.007125">10</text>
     </g>
    </g>
    <g id="text_16">
     <text style="font-family:Arial;font-size:10px;font-style:normal;font-weight:400;text-anchor:middle;" transform="rotate(-90, 29.215, 174.528)" x="29.215" y="174.528"># squares</text>
    </g>
   </g>
   <g id="text_17">
    <text style="font-family:Arial;font-size:9.6px;font-style:normal;font-weight:400;text-anchor:middle;" transform="rotate(-0, 236.16, 35.472)" x="236.16" y="35.472">1 square</text>
   </g>
  </g>
 </g>
 <defs>
  <clipPath id="p4a17b60523">
   <rect height="266.112" width="357.12" x="57.6" y="41.472"/>
  </clipPath>
 </defs>
</svg>
