<?xml version="1.0" encoding="utf-8" standalone="no"?>
<!DOCTYPE svg PUBLIC "-//W3C//DTD SVG 1.1//EN"
  "http://www.w3.org/Graphics/SVG/1.1/DTD/svg11.dtd">
<!-- Created with matplotlib (http://matplotlib.org/) -->
<svg height="120pt" version="1.1" viewBox="0 0 132 120" width="132pt" xmlns="http://www.w3.org/2000/svg" xmlns:xlink="http://www.w3.org/1999/xlink">
 <defs>
  <style type="text/css">
*{stroke-linecap:butt;stroke-linejoin:round;}
  </style>
 </defs>
 <g id="figure_1">
  <g id="patch_1">
   <path d="M 0 120.140625 
L 132.082969 120.140625 
L 132.082969 0 
L 0 0 
z
" style="fill:none;opacity:0;"/>
  </g>
  <g id="axes_1">
   <g id="patch_2">
    <path d="M 37.191563 88.74 
L 120.891563 88.74 
L 120.891563 7.2 
L 37.191563 7.2 
z
" style="fill:none;"/>
   </g>
   <g id="patch_3">
    <path clip-path="url(#p226fa6ca82)" d="M 40.996108 88.74 
L 40.996108 88.493469 
L 43.619932 88.493469 
L 43.619932 88.493469 
L 46.243757 88.493469 
L 46.243757 79.125306 
L 48.867581 79.125306 
L 48.867581 24.14898 
L 51.491406 24.14898 
L 51.491406 37.215102 
L 54.11523 37.215102 
L 54.11523 55.458367 
L 56.739055 55.458367 
L 56.739055 64.826531 
L 59.362879 64.826531 
L 59.362879 73.455102 
L 61.986704 73.455102 
L 61.986704 70.743265 
L 64.610528 70.743265 
L 64.610528 79.864898 
L 67.234352 79.864898 
L 67.234352 82.330204 
L 69.858177 82.330204 
L 69.858177 85.042041 
L 72.482001 85.042041 
L 72.482001 87.014286 
L 75.105826 87.014286 
L 75.105826 86.521224 
L 77.72965 86.521224 
L 77.72965 88.000408 
L 80.353475 88.000408 
L 80.353475 88.493469 
L 82.977299 88.493469 
L 82.977299 88.246939 
L 85.601124 88.246939 
L 85.601124 88.246939 
L 88.224948 88.246939 
L 88.224948 88.74 
L 90.848773 88.74 
L 90.848773 88.74 
L 93.472597 88.74 
L 93.472597 88.74 
L 96.096421 88.74 
L 96.096421 88.493469 
L 98.720246 88.493469 
L 98.720246 88.74 
L 101.34407 88.74 
L 101.34407 88.74 
L 103.967895 88.74 
L 103.967895 88.74 
L 106.591719 88.74 
L 106.591719 88.74 
L 109.215544 88.74 
L 109.215544 88.74 
L 111.839368 88.74 
L 111.839368 88.74 
L 114.463193 88.74 
L 114.463193 88.74 
L 117.087017 88.74 
L 117.087017 88.74 
" style="fill:none;stroke:#808080;stroke-linejoin:miter;"/>
   </g>
   <g id="patch_4">
    <path clip-path="url(#p226fa6ca82)" d="M 40.996108 88.74 
L 40.996108 88.74 
L 43.619932 88.74 
L 43.619932 87.507347 
L 46.243757 87.507347 
L 46.243757 70.989796 
L 48.867581 70.989796 
L 48.867581 11.082857 
L 51.491406 11.082857 
L 51.491406 51.760408 
L 54.11523 51.760408 
L 54.11523 51.760408 
L 56.739055 51.760408 
L 56.739055 61.868163 
L 59.362879 61.868163 
L 59.362879 71.482857 
L 61.986704 71.482857 
L 61.986704 80.357959 
L 64.610528 80.357959 
L 64.610528 81.097551 
L 67.234352 81.097551 
L 67.234352 82.576735 
L 69.858177 82.576735 
L 69.858177 83.809388 
L 72.482001 83.809388 
L 72.482001 85.535102 
L 75.105826 85.535102 
L 75.105826 86.274694 
L 77.72965 86.274694 
L 77.72965 86.521224 
L 80.353475 86.521224 
L 80.353475 86.274694 
L 82.977299 86.274694 
L 82.977299 86.521224 
L 85.601124 86.521224 
L 85.601124 87.260816 
L 88.224948 87.260816 
L 88.224948 86.767755 
L 90.848773 86.767755 
L 90.848773 88.246939 
L 93.472597 88.246939 
L 93.472597 87.507347 
L 96.096421 87.507347 
L 96.096421 88.000408 
L 98.720246 88.000408 
L 98.720246 88.246939 
L 101.34407 88.246939 
L 101.34407 88.246939 
L 103.967895 88.246939 
L 103.967895 88.246939 
L 106.591719 88.246939 
L 106.591719 88.493469 
L 109.215544 88.493469 
L 109.215544 88.74 
L 111.839368 88.74 
L 111.839368 88.000408 
L 114.463193 88.000408 
L 114.463193 88.493469 
L 117.087017 88.493469 
L 117.087017 88.74 
" style="fill:none;stroke:#ff0000;stroke-linejoin:miter;"/>
   </g>
   <g id="patch_5">
    <path d="M 37.191563 88.74 
L 37.191563 7.2 
" style="fill:none;stroke:#000000;stroke-linecap:square;stroke-linejoin:miter;"/>
   </g>
   <g id="patch_6">
    <path d="M 37.191563 88.74 
L 120.891563 88.74 
" style="fill:none;stroke:#000000;stroke-linecap:square;stroke-linejoin:miter;"/>
   </g>
   <g id="matplotlib.axis_1">
    <g id="xtick_1">
     <g id="line2d_1"/>
     <g id="text_1">
      <text style="font-family:Arial;font-size:8px;font-style:normal;font-weight:400;text-anchor:middle;" transform="rotate(-0, 47.581174, 97.96625)" x="47.581174" y="97.96625">0</text>
     </g>
    </g>
    <g id="xtick_2">
     <g id="line2d_2"/>
     <g id="text_2">
      <text style="font-family:Arial;font-size:8px;font-style:normal;font-weight:400;text-anchor:middle;" transform="rotate(-0, 83.243291, 97.96625)" x="83.243291" y="97.96625">5</text>
     </g>
    </g>
    <g id="xtick_3">
     <g id="line2d_3"/>
     <g id="text_3">
      <text style="font-family:Arial;font-size:8px;font-style:normal;font-weight:400;text-anchor:middle;" transform="rotate(-0, 118.905409, 97.96625)" x="118.905409" y="97.96625">10</text>
     </g>
    </g>
    <g id="text_4">
     <text style="font-family:Arial;font-size:10px;font-style:normal;font-weight:400;text-anchor:middle;" transform="rotate(-0, 79.041562, 110.835938)" x="79.041562" y="110.835938">PSP Amplitude (mV)</text>
    </g>
   </g>
   <g id="matplotlib.axis_2">
    <g id="ytick_1">
     <g id="line2d_4"/>
     <g id="text_5">
      <text style="font-family:Arial;font-size:8px;font-style:normal;font-weight:400;text-anchor:end;" transform="rotate(-0, 33.691563, 91.603125)" x="33.691563" y="91.603125">0</text>
     </g>
    </g>
    <g id="ytick_2">
     <g id="line2d_5"/>
     <g id="text_6">
      <text style="font-family:Arial;font-size:8px;font-style:normal;font-weight:400;text-anchor:end;" transform="rotate(-0, 33.691563, 66.950064)" x="33.691563" y="66.950064">100</text>
     </g>
    </g>
    <g id="ytick_3">
     <g id="line2d_6"/>
     <g id="text_7">
      <text style="font-family:Arial;font-size:8px;font-style:normal;font-weight:400;text-anchor:end;" transform="rotate(-0, 33.691563, 42.297003)" x="33.691563" y="42.297003">200</text>
     </g>
    </g>
    <g id="ytick_4">
     <g id="line2d_7"/>
     <g id="text_8">
      <text style="font-family:Arial;font-size:8px;font-style:normal;font-weight:400;text-anchor:end;" transform="rotate(-0, 33.691563, 17.643941)" x="33.691563" y="17.643941">300</text>
     </g>
    </g>
    <g id="text_9">
     <text style="font-family:Arial;font-size:10px;font-style:normal;font-weight:400;text-anchor:middle;" transform="rotate(-90, 14.357813, 47.97)" x="14.357813" y="47.97"># recorded PSPs</text>
    </g>
   </g>
   <g id="legend_1">
    <g id="patch_7">
     <path d="M 37.75875 23.357813 
L 57.75875 23.357813 
L 57.75875 16.357813 
L 37.75875 16.357813 
z
" style="fill:none;stroke:#808080;stroke-linejoin:miter;"/>
    </g>
    <g id="text_10">
     <text style="font-family:Arial;font-size:10px;font-style:normal;font-weight:400;text-anchor:start;" transform="rotate(-0, 65.75875, 23.357813)" x="65.75875" y="23.357813">Control</text>
    </g>
    <g id="patch_8">
     <path d="M 37.75875 37.503125 
L 57.75875 37.503125 
L 57.75875 30.503125 
L 37.75875 30.503125 
z
" style="fill:none;stroke:#ff0000;stroke-linejoin:miter;"/>
    </g>
    <g id="text_11">
     <text style="font-family:Arial;font-size:10px;font-style:normal;font-weight:400;text-anchor:start;" transform="rotate(-0, 65.75875, 37.503125)" x="65.75875" y="37.503125">GABAzine</text>
    </g>
   </g>
  </g>
 </g>
 <defs>
  <clipPath id="p226fa6ca82">
   <rect height="81.54" width="83.7" x="37.191563" y="7.2"/>
  </clipPath>
 </defs>
</svg>
