<?xml version="1.0" encoding="utf-8" standalone="no"?>
<!DOCTYPE svg PUBLIC "-//W3C//DTD SVG 1.1//EN"
  "http://www.w3.org/Graphics/SVG/1.1/DTD/svg11.dtd">
<!-- Created with matplotlib (http://matplotlib.org/) -->
<svg height="172pt" version="1.1" viewBox="0 0 166 172" width="166pt" xmlns="http://www.w3.org/2000/svg" xmlns:xlink="http://www.w3.org/1999/xlink">
 <defs>
  <style type="text/css">
*{stroke-linecap:butt;stroke-linejoin:round;}
  </style>
 </defs>
 <g id="figure_1">
  <g id="patch_1">
   <path d="M 0 172.141562 
L 166.10875 172.141562 
L 166.10875 0 
L 0 0 
z
" style="fill:none;"/>
  </g>
  <g id="axes_1">
   <g id="patch_2">
    <path d="M 47.30875 130.98 
L 158.90875 130.98 
L 158.90875 20.1 
L 47.30875 20.1 
z
" style="fill:none;"/>
   </g>
   <g id="patch_3">
    <path clip-path="url(#pc6590dd942)" d="M 52.381477 130.98 
L 62.526932 130.98 
L 62.526932 123.485806 
L 52.381477 123.485806 
z
"/>
   </g>
   <g id="patch_4">
    <path clip-path="url(#pc6590dd942)" d="M 62.526932 130.98 
L 72.672386 130.98 
L 72.672386 98.959355 
L 62.526932 98.959355 
z
"/>
   </g>
   <g id="patch_5">
    <path clip-path="url(#pc6590dd942)" d="M 72.672386 130.98 
L 82.817841 130.98 
L 82.817841 53.312903 
L 72.672386 53.312903 
z
"/>
   </g>
   <g id="patch_6">
    <path clip-path="url(#pc6590dd942)" d="M 82.817841 130.98 
L 92.963295 130.98 
L 92.963295 25.38 
L 82.817841 25.38 
z
"/>
   </g>
   <g id="patch_7">
    <path clip-path="url(#pc6590dd942)" d="M 92.963295 130.98 
L 103.10875 130.98 
L 103.10875 40.368387 
L 92.963295 40.368387 
z
"/>
   </g>
   <g id="patch_8">
    <path clip-path="url(#pc6590dd942)" d="M 103.10875 130.98 
L 113.254205 130.98 
L 113.254205 60.807097 
L 103.10875 60.807097 
z
"/>
   </g>
   <g id="patch_9">
    <path clip-path="url(#pc6590dd942)" d="M 113.254205 130.98 
L 123.399659 130.98 
L 123.399659 90.783871 
L 113.254205 90.783871 
z
"/>
   </g>
   <g id="patch_10">
    <path clip-path="url(#pc6590dd942)" d="M 123.399659 130.98 
L 133.545114 130.98 
L 133.545114 109.86 
L 123.399659 109.86 
z
"/>
   </g>
   <g id="patch_11">
    <path clip-path="url(#pc6590dd942)" d="M 133.545114 130.98 
L 143.690568 130.98 
L 143.690568 123.485806 
L 133.545114 123.485806 
z
"/>
   </g>
   <g id="patch_12">
    <path clip-path="url(#pc6590dd942)" d="M 143.690568 130.98 
L 153.836023 130.98 
L 153.836023 129.617419 
L 143.690568 129.617419 
z
"/>
   </g>
   <g id="patch_13">
    <path d="M 37.30875 130.98 
L 37.30875 20.1 
" style="fill:none;stroke:#000000;stroke-linecap:square;stroke-linejoin:miter;"/>
   </g>
   <g id="patch_14">
    <path d="M 47.30875 140.98 
L 158.90875 140.98 
" style="fill:none;stroke:#000000;stroke-linecap:square;stroke-linejoin:miter;"/>
   </g>
   <g id="matplotlib.axis_1">
    <g id="xtick_1">
     <g id="line2d_1"/>
     <g id="text_1">
      <text style="font-family:Arial;font-size:8px;font-style:normal;font-weight:400;text-anchor:middle;" transform="rotate(-0, 77.878619, 150.20625)" x="77.878619" y="150.20625">4</text>
     </g>
    </g>
    <g id="xtick_2">
     <g id="line2d_2"/>
     <g id="text_2">
      <text style="font-family:Arial;font-size:8px;font-style:normal;font-weight:400;text-anchor:middle;" transform="rotate(-0, 124.066221, 150.20625)" x="124.066221" y="150.20625">6</text>
     </g>
    </g>
    <g id="text_3">
     <!-- $V_{max}$ -->
     <g transform="translate(91.90875 162.954062)">
      <text>
       <tspan style="font-family:DejaVu Sans;font-size:10px;font-style:oblique;font-weight:oblique;" x="0" y="-0.703125">V</tspan>
       <tspan style="font-family:DejaVu Sans;font-size:7px;font-style:oblique;font-weight:oblique;" x="6.84082 13.659668 17.949219" y="0.9375">max</tspan>
      </text>
     </g>
    </g>
   </g>
   <g id="matplotlib.axis_2">
    <g id="ytick_1">
     <g id="line2d_3"/>
     <g id="text_4">
      <text style="font-family:Arial;font-size:8px;font-style:normal;font-weight:400;text-anchor:end;" transform="rotate(-0, 33.80875, 133.843125)" x="33.80875" y="133.843125">0</text>
     </g>
    </g>
    <g id="ytick_2">
     <g id="line2d_4"/>
     <g id="text_5">
      <text style="font-family:Arial;font-size:8px;font-style:normal;font-weight:400;text-anchor:end;" transform="rotate(-0, 33.80875, 99.778609)" x="33.80875" y="99.778609">50</text>
     </g>
    </g>
    <g id="ytick_3">
     <g id="line2d_5"/>
     <g id="text_6">
      <text style="font-family:Arial;font-size:8px;font-style:normal;font-weight:400;text-anchor:end;" transform="rotate(-0, 33.80875, 65.714093)" x="33.80875" y="65.714093">100</text>
     </g>
    </g>
    <g id="ytick_4">
     <g id="line2d_6"/>
     <g id="text_7">
      <text style="font-family:Arial;font-size:8px;font-style:normal;font-weight:400;text-anchor:end;" transform="rotate(-0, 33.80875, 31.649577)" x="33.80875" y="31.649577">150</text>
     </g>
    </g>
    <g id="text_8">
     <text style="font-family:Arial;font-size:10px;font-style:normal;font-weight:400;text-anchor:middle;" transform="rotate(-90, 14.357812, 75.54)" x="14.357812" y="75.54">Frequency</text>
    </g>
   </g>
   <g id="text_9">
    <text style="font-family:Arial;font-size:9.6px;font-style:normal;font-weight:400;text-anchor:middle;" transform="rotate(-0, 103.10875, 14.1)" x="103.10875" y="14.1">2 squares</text>
   </g>
  </g>
 </g>
 <defs>
  <clipPath id="pc6590dd942">
   <rect height="110.88" width="111.6" x="47.30875" y="20.1"/>
  </clipPath>
 </defs>
</svg>
