<?xml version="1.0" encoding="utf-8" standalone="no"?>
<!DOCTYPE svg PUBLIC "-//W3C//DTD SVG 1.1//EN"
  "http://www.w3.org/Graphics/SVG/1.1/DTD/svg11.dtd">
<!-- Created with matplotlib (http://matplotlib.org/) -->
<svg height="144pt" version="1.1" viewBox="0 0 144 144" width="144pt" xmlns="http://www.w3.org/2000/svg" xmlns:xlink="http://www.w3.org/1999/xlink">
 <defs>
  <style type="text/css">
*{stroke-linecap:butt;stroke-linejoin:round;}
  </style>
 </defs>
 <g id="figure_1">
  <g id="patch_1">
   <path d="M 0 144 
L 144 144 
L 144 0 
L 0 0 
z
" style="fill:#ffffff;"/>
  </g>
  <g id="axes_1">
   <g id="patch_2">
    <path d="M 18 128.16 
L 129.6 128.16 
L 129.6 17.28 
L 18 17.28 
z
" style="fill:#ffffff;"/>
   </g>
   <g id="patch_3">
    <path clip-path="url(#pe8256c10ae)" d="M 23.072727 128.16 
L 33.218182 128.16 
L 33.218182 22.56 
L 23.072727 22.56 
z
"/>
   </g>
   <g id="patch_4">
    <path clip-path="url(#pe8256c10ae)" d="M 33.218182 128.16 
L 43.363636 128.16 
L 43.363636 49.351903 
L 33.218182 49.351903 
z
"/>
   </g>
   <g id="patch_5">
    <path clip-path="url(#pe8256c10ae)" d="M 43.363636 128.16 
L 53.509091 128.16 
L 53.509091 71.298462 
L 43.363636 71.298462 
z
"/>
   </g>
   <g id="patch_6">
    <path clip-path="url(#pe8256c10ae)" d="M 53.509091 128.16 
L 63.654545 128.16 
L 63.654545 93.957571 
L 53.509091 93.957571 
z
"/>
   </g>
   <g id="patch_7">
    <path clip-path="url(#pe8256c10ae)" d="M 63.654545 128.16 
L 73.8 128.16 
L 73.8 107.923563 
L 63.654545 107.923563 
z
"/>
   </g>
   <g id="patch_8">
    <path clip-path="url(#pe8256c10ae)" d="M 73.8 128.16 
L 83.945455 128.16 
L 83.945455 118.326802 
L 73.8 118.326802 
z
"/>
   </g>
   <g id="patch_9">
    <path clip-path="url(#pe8256c10ae)" d="M 83.945455 128.16 
L 94.090909 128.16 
L 94.090909 122.317085 
L 83.945455 122.317085 
z
"/>
   </g>
   <g id="patch_10">
    <path clip-path="url(#pe8256c10ae)" d="M 94.090909 128.16 
L 104.236364 128.16 
L 104.236364 125.594818 
L 94.090909 125.594818 
z
"/>
   </g>
   <g id="patch_11">
    <path clip-path="url(#pe8256c10ae)" d="M 104.236364 128.16 
L 114.381818 128.16 
L 114.381818 127.58996 
L 104.236364 127.58996 
z
"/>
   </g>
   <g id="patch_12">
    <path clip-path="url(#pe8256c10ae)" d="M 114.381818 128.16 
L 124.527273 128.16 
L 124.527273 127.73247 
L 114.381818 127.73247 
z
"/>
   </g>
   <g id="patch_13">
    <path d="M 8 128.16 
L 8 17.28 
" style="fill:none;stroke:#000000;stroke-linecap:square;stroke-linejoin:miter;"/>
   </g>
   <g id="patch_14">
    <path d="M 18 138.16 
L 129.6 138.16 
" style="fill:none;stroke:#000000;stroke-linecap:square;stroke-linejoin:miter;"/>
   </g>
   <g id="matplotlib.axis_1">
    <g id="xtick_1">
     <g id="line2d_1"/>
     <g id="text_1">
      <text style="font-family:Arial;font-size:8px;font-style:normal;font-weight:400;text-anchor:middle;" transform="rotate(-0, 48.031862, 147.38625)" x="48.031862" y="147.38625">6</text>
     </g>
    </g>
    <g id="xtick_2">
     <g id="line2d_2"/>
     <g id="text_2">
      <text style="font-family:Arial;font-size:8px;font-style:normal;font-weight:400;text-anchor:middle;" transform="rotate(-0, 89.722493, 147.38625)" x="89.722493" y="147.38625">7</text>
     </g>
    </g>
    <g id="text_3">
     <!-- $V_{max}$ -->
     <g transform="translate(62.6 160.134062)">
      <text>
       <tspan style="font-family:DejaVu Sans;font-size:10px;font-style:oblique;font-weight:oblique;" x="0" y="-0.703125">V</tspan>
       <tspan style="font-family:DejaVu Sans;font-size:7px;font-style:oblique;font-weight:oblique;" x="6.84082 13.659668 17.949219" y="0.9375">max</tspan>
      </text>
     </g>
    </g>
   </g>
   <g id="matplotlib.axis_2">
    <g id="ytick_1">
     <g id="line2d_3"/>
     <g id="text_4">
      <text style="font-family:Arial;font-size:8px;font-style:normal;font-weight:400;text-anchor:end;" transform="rotate(-0, 4.5, 131.023125)" x="4.5" y="131.023125">0</text>
     </g>
    </g>
    <g id="ytick_2">
     <g id="line2d_4"/>
     <g id="text_5">
      <text style="font-family:Arial;font-size:8px;font-style:normal;font-weight:400;text-anchor:end;" transform="rotate(-0, 4.5, 102.521101)" x="4.5" y="102.521101">200</text>
     </g>
    </g>
    <g id="ytick_3">
     <g id="line2d_5"/>
     <g id="text_6">
      <text style="font-family:Arial;font-size:8px;font-style:normal;font-weight:400;text-anchor:end;" transform="rotate(-0, 4.5, 74.019076)" x="4.5" y="74.019076">400</text>
     </g>
    </g>
    <g id="ytick_4">
     <g id="line2d_6"/>
     <g id="text_7">
      <text style="font-family:Arial;font-size:8px;font-style:normal;font-weight:400;text-anchor:end;" transform="rotate(-0, 4.5, 45.517052)" x="4.5" y="45.517052">600</text>
     </g>
    </g>
    <g id="text_8">
     <text style="font-family:Arial;font-size:10px;font-style:normal;font-weight:400;text-anchor:middle;" transform="rotate(-90, -14.950938, 72.72)" x="-14.950938" y="72.72">Frequency</text>
    </g>
   </g>
   <g id="text_9">
    <text style="font-family:Arial;font-size:9.6px;font-style:normal;font-weight:400;text-anchor:middle;" transform="rotate(-0, 73.8, 11.28)" x="73.8" y="11.28">3 squares</text>
   </g>
  </g>
 </g>
 <defs>
  <clipPath id="pe8256c10ae">
   <rect height="110.88" width="111.6" x="18" y="17.28"/>
  </clipPath>
 </defs>
</svg>
