<?xml version="1.0" encoding="utf-8" standalone="no"?>
<!DOCTYPE svg PUBLIC "-//W3C//DTD SVG 1.1//EN"
  "http://www.w3.org/Graphics/SVG/1.1/DTD/svg11.dtd">
<!-- Created with matplotlib (http://matplotlib.org/) -->
<svg height="120pt" version="1.1" viewBox="0 0 120 120" width="120pt" xmlns="http://www.w3.org/2000/svg" xmlns:xlink="http://www.w3.org/1999/xlink">
 <defs>
  <style type="text/css">
*{stroke-linecap:butt;stroke-linejoin:round;}
  </style>
 </defs>
 <g id="figure_1">
  <g id="patch_1">
   <path d="M 0 120.25625 
L 120.154202 120.25625 
L 120.154202 0 
L 0 0 
z
" style="fill:none;"/>
  </g>
  <g id="axes_1">
   <g id="patch_2">
    <path d="M 28.294063 88.74 
L 111.994062 88.74 
L 111.994062 7.2 
L 28.294063 7.2 
z
" style="fill:none;"/>
   </g>
   <g id="patch_3">
    <path clip-path="url(#ped3211dfad)" d="M 50.786114 88.74 
L 56.615443 88.74 
L 56.615443 49.911429 
L 50.786114 49.911429 
z
" style="fill:#808080;"/>
   </g>
   <g id="patch_4">
    <path clip-path="url(#ped3211dfad)" d="M 56.615443 88.74 
L 62.444771 88.74 
L 62.444771 69.325714 
L 56.615443 69.325714 
z
" style="fill:#808080;"/>
   </g>
   <g id="patch_5">
    <path clip-path="url(#ped3211dfad)" d="M 62.444771 88.74 
L 68.274099 88.74 
L 68.274099 49.911429 
L 62.444771 49.911429 
z
" style="fill:#808080;"/>
   </g>
   <g id="patch_6">
    <path clip-path="url(#ped3211dfad)" d="M 68.274099 88.74 
L 74.103428 88.74 
L 74.103428 69.325714 
L 68.274099 69.325714 
z
" style="fill:#808080;"/>
   </g>
   <g id="patch_7">
    <path clip-path="url(#ped3211dfad)" d="M 74.103428 88.74 
L 79.932756 88.74 
L 79.932756 49.911429 
L 74.103428 49.911429 
z
" style="fill:#808080;"/>
   </g>
   <g id="patch_8">
    <path clip-path="url(#ped3211dfad)" d="M 79.932756 88.74 
L 85.762085 88.74 
L 85.762085 11.082857 
L 79.932756 11.082857 
z
" style="fill:#808080;"/>
   </g>
   <g id="patch_9">
    <path clip-path="url(#ped3211dfad)" d="M 85.762085 88.74 
L 91.591413 88.74 
L 91.591413 88.74 
L 85.762085 88.74 
z
" style="fill:#808080;"/>
   </g>
   <g id="patch_10">
    <path clip-path="url(#ped3211dfad)" d="M 91.591413 88.74 
L 97.420741 88.74 
L 97.420741 88.74 
L 91.591413 88.74 
z
" style="fill:#808080;"/>
   </g>
   <g id="patch_11">
    <path clip-path="url(#ped3211dfad)" d="M 97.420741 88.74 
L 103.25007 88.74 
L 103.25007 88.74 
L 97.420741 88.74 
z
" style="fill:#808080;"/>
   </g>
   <g id="patch_12">
    <path clip-path="url(#ped3211dfad)" d="M 103.25007 88.74 
L 109.079398 88.74 
L 109.079398 69.325714 
L 103.25007 69.325714 
z
" style="fill:#808080;"/>
   </g>
   <g id="LineCollection_1">
    <path clip-path="url(#ped3211dfad)" d="M 100.375756 88.74 
L 100.375756 11.082857 
" style="fill:none;stroke:#000000;stroke-dasharray:1.85,0.8;stroke-dashoffset:0;stroke-width:0.5;"/>
   </g>
   <g id="patch_13">
    <path d="M 28.294063 88.74 
L 28.294063 7.2 
" style="fill:none;stroke:#000000;stroke-linecap:square;stroke-linejoin:miter;"/>
   </g>
   <g id="patch_14">
    <path d="M 28.294063 88.74 
L 111.994062 88.74 
" style="fill:none;stroke:#000000;stroke-linecap:square;stroke-linejoin:miter;"/>
   </g>
   <g id="matplotlib.axis_1">
    <g id="xtick_1">
     <g id="line2d_1"/>
     <g id="text_1">
      <text style="font-family:Arial;font-size:8px;font-style:normal;font-weight:normal;text-anchor:middle;" transform="rotate(-0, 28.294063, 97.96625)" x="28.294063" y="97.96625">0.0</text>
     </g>
    </g>
    <g id="xtick_2">
     <g id="line2d_2"/>
     <g id="text_2">
      <text style="font-family:Arial;font-size:8px;font-style:normal;font-weight:normal;text-anchor:middle;" transform="rotate(-0, 67.844132, 97.96625)" x="67.844132" y="97.96625">0.5</text>
     </g>
    </g>
    <g id="xtick_3">
     <g id="line2d_3"/>
     <g id="text_3">
      <text style="font-family:Arial;font-size:8px;font-style:normal;font-weight:normal;text-anchor:middle;" transform="rotate(-0, 107.394202, 97.96625)" x="107.394202" y="97.96625">1.0</text>
     </g>
    </g>
    <g id="text_4">
     <!-- $\sigma$ (within cell) -->
     <g transform="translate(40.544062 110.85625)">
      <text>
       <tspan style="font-family:DejaVu Sans;font-size:10px;font-style:oblique;font-weight:oblique;" x="0" y="-0.71875">σ</tspan>
       <tspan style="font-family:Arial;font-size:10px;font-style:regular;font-weight:regular;" x="6.337891 9.116211 12.446289 19.667969 21.889648 24.667969 30.229492 32.451172 38.012695 40.791016 45.791016 51.352539 53.574219 55.795898" y="-0.71875"> (within cell)</tspan>
      </text>
     </g>
    </g>
   </g>
   <g id="matplotlib.axis_2">
    <g id="ytick_1">
     <g id="line2d_4"/>
     <g id="text_5">
      <text style="font-family:Arial;font-size:8px;font-style:normal;font-weight:normal;text-anchor:end;" transform="rotate(-0, 24.794063, 91.603125)" x="24.794063" y="91.603125">0</text>
     </g>
    </g>
    <g id="ytick_2">
     <g id="line2d_5"/>
     <g id="text_6">
      <text style="font-family:Arial;font-size:8px;font-style:normal;font-weight:normal;text-anchor:end;" transform="rotate(-0, 24.794063, 72.188839)" x="24.794063" y="72.188839">1</text>
     </g>
    </g>
    <g id="ytick_3">
     <g id="line2d_6"/>
     <g id="text_7">
      <text style="font-family:Arial;font-size:8px;font-style:normal;font-weight:normal;text-anchor:end;" transform="rotate(-0, 24.794063, 52.774554)" x="24.794063" y="52.774554">2</text>
     </g>
    </g>
    <g id="ytick_4">
     <g id="line2d_7"/>
     <g id="text_8">
      <text style="font-family:Arial;font-size:8px;font-style:normal;font-weight:normal;text-anchor:end;" transform="rotate(-0, 24.794063, 33.360268)" x="24.794063" y="33.360268">3</text>
     </g>
    </g>
    <g id="ytick_5">
     <g id="line2d_8"/>
     <g id="text_9">
      <text style="font-family:Arial;font-size:8px;font-style:normal;font-weight:normal;text-anchor:end;" transform="rotate(-0, 24.794063, 13.945982)" x="24.794063" y="13.945982">4</text>
     </g>
    </g>
    <g id="text_10">
     <text style="font-family:Arial;font-size:10px;font-style:normal;font-weight:normal;text-anchor:middle;" transform="rotate(-90, 14.357813, 47.97)" x="14.357813" y="47.97"># cells</text>
    </g>
   </g>
  </g>
 </g>
 <defs>
  <clipPath id="ped3211dfad">
   <rect height="81.54" width="83.7" x="28.294063" y="7.2"/>
  </clipPath>
 </defs>
</svg>
