<?xml version="1.0" encoding="utf-8" standalone="no"?>
<!DOCTYPE svg PUBLIC "-//W3C//DTD SVG 1.1//EN"
  "http://www.w3.org/Graphics/SVG/1.1/DTD/svg11.dtd">
<!-- Created with matplotlib (http://matplotlib.org/) -->
<svg height="134pt" version="1.1" viewBox="0 0 210 134" width="210pt" xmlns="http://www.w3.org/2000/svg" xmlns:xlink="http://www.w3.org/1999/xlink">
 <defs>
  <style type="text/css">
*{stroke-linecap:butt;stroke-linejoin:round;}
  </style>
 </defs>
 <g id="figure_1">
  <g id="patch_1">
   <path d="M 0 134.845625 
L 210.052045 134.845625 
L 210.052045 0 
L 0 0 
z
" style="fill:none;opacity:0;"/>
  </g>
  <g id="axes_1">
   <g id="patch_2">
    <path d="M 33.0975 103.329375 
L 109.188409 103.329375 
L 109.188409 21.789375 
L 33.0975 21.789375 
z
" style="fill:none;"/>
   </g>
   <g id="PathCollection_1">
    <defs>
     <path d="M 0 2.236068 
C 0.593012 2.236068 1.161816 2.000462 1.581139 1.581139 
C 2.000462 1.161816 2.236068 0.593012 2.236068 0 
C 2.236068 -0.593012 2.000462 -1.161816 1.581139 -1.581139 
C 1.161816 -2.000462 0.593012 -2.236068 0 -2.236068 
C -0.593012 -2.236068 -1.161816 -2.000462 -1.581139 -1.581139 
C -2.000462 -1.161816 -2.236068 -0.593012 -2.236068 0 
C -2.236068 0.593012 -2.000462 1.161816 -1.581139 1.581139 
C -1.161816 2.000462 -0.593012 2.236068 0 2.236068 
z
" id="m8abe07896d" style="stroke:#fde725;"/>
    </defs>
    <g clip-path="url(#p955b7770c7)">
     <use style="fill:#fde725;stroke:#fde725;" x="96.506591" xlink:href="#m8abe07896d" y="63.796293"/>
     <use style="fill:#fde725;stroke:#fde725;" x="54.15384" xlink:href="#m8abe07896d" y="63.796293"/>
     <use style="fill:#fde725;stroke:#fde725;" x="42.725973" xlink:href="#m8abe07896d" y="63.796293"/>
     <use style="fill:#fde725;stroke:#fde725;" x="43.029922" xlink:href="#m8abe07896d" y="63.796293"/>
     <use style="fill:#fde725;stroke:#fde725;" x="54.587212" xlink:href="#m8abe07896d" y="63.796293"/>
    </g>
   </g>
   <g id="PathCollection_2">
    <defs>
     <path d="M 0 2.236068 
C 0.593012 2.236068 1.161816 2.000462 1.581139 1.581139 
C 2.000462 1.161816 2.236068 0.593012 2.236068 0 
C 2.236068 -0.593012 2.000462 -1.161816 1.581139 -1.581139 
C 1.161816 -2.000462 0.593012 -2.236068 0 -2.236068 
C -0.593012 -2.236068 -1.161816 -2.000462 -1.581139 -1.581139 
C -2.000462 -1.161816 -2.236068 -0.593012 -2.236068 0 
C -2.236068 0.593012 -2.000462 1.161816 -1.581139 1.581139 
C -1.161816 2.000462 -0.593012 2.236068 0 2.236068 
z
" id="mab74ba4af3" style="stroke:#472d7b;"/>
    </defs>
    <g clip-path="url(#p955b7770c7)">
     <use style="fill:#472d7b;stroke:#472d7b;" x="35.997311" xlink:href="#mab74ba4af3" y="92.978694"/>
     <use style="fill:#472d7b;stroke:#472d7b;" x="38.011162" xlink:href="#mab74ba4af3" y="92.978694"/>
     <use style="fill:#472d7b;stroke:#472d7b;" x="45.001482" xlink:href="#mab74ba4af3" y="92.978694"/>
     <use style="fill:#472d7b;stroke:#472d7b;" x="34.639374" xlink:href="#mab74ba4af3" y="92.978694"/>
     <use style="fill:#472d7b;stroke:#472d7b;" x="35.143849" xlink:href="#mab74ba4af3" y="92.978694"/>
    </g>
   </g>
   <g id="line2d_1">
    <path clip-path="url(#p955b7770c7)" d="M 33.0975 103.329375 
L 109.188409 21.789375 
" style="fill:none;stroke:#000000;stroke-dasharray:1.85,0.8;stroke-dashoffset:0;stroke-width:0.5;"/>
   </g>
   <g id="patch_3">
    <path d="M 33.0975 103.329375 
L 33.0975 21.789375 
" style="fill:none;stroke:#000000;stroke-linecap:square;stroke-linejoin:miter;"/>
   </g>
   <g id="patch_4">
    <path d="M 33.0975 103.329375 
L 109.188409 103.329375 
" style="fill:none;stroke:#000000;stroke-linecap:square;stroke-linejoin:miter;"/>
   </g>
   <g id="matplotlib.axis_1">
    <g id="xtick_1">
     <g id="line2d_2"/>
     <g id="text_1">
      <text style="font-family:Arial;font-size:8px;font-style:normal;font-weight:normal;text-anchor:middle;" transform="rotate(-0, 33.0975, 112.555625)" x="33.0975" y="112.555625">0</text>
     </g>
    </g>
    <g id="xtick_2">
     <g id="line2d_3"/>
     <g id="text_2">
      <text style="font-family:Arial;font-size:8px;font-style:normal;font-weight:normal;text-anchor:middle;" transform="rotate(-0, 60.071619, 112.555625)" x="60.071619" y="112.555625">25</text>
     </g>
    </g>
    <g id="xtick_3">
     <g id="line2d_4"/>
     <g id="text_3">
      <text style="font-family:Arial;font-size:8px;font-style:normal;font-weight:normal;text-anchor:middle;" transform="rotate(-0, 87.045738, 112.555625)" x="87.045738" y="112.555625">50</text>
     </g>
    </g>
    <g id="text_4">
     <!-- $\sigma$ (within stimulus) -->
     <g transform="translate(30.742955 125.445625)">
      <text>
       <tspan style="font-family:DejaVu Sans;font-size:10px;font-style:oblique;font-weight:oblique;" x="0" y="-0.71875">σ</tspan>
       <tspan style="font-family:Arial;font-size:10px;font-style:regular;font-weight:regular;" x="6.337891 9.116211 12.446289 19.667969 21.889648 24.667969 30.229492 32.451172 38.012695 40.791016 45.791016 48.569336 50.791016 59.121094 64.682617 66.904297 72.46582 77.46582" y="-0.71875"> (within stimulus)</tspan>
      </text>
     </g>
    </g>
   </g>
   <g id="matplotlib.axis_2">
    <g id="ytick_1">
     <g id="line2d_5"/>
     <g id="text_5">
      <text style="font-family:Arial;font-size:8px;font-style:normal;font-weight:normal;text-anchor:end;" transform="rotate(-0, 29.5975, 106.1925)" x="29.5975" y="106.1925">0</text>
     </g>
    </g>
    <g id="ytick_2">
     <g id="line2d_6"/>
     <g id="text_6">
      <text style="font-family:Arial;font-size:8px;font-style:normal;font-weight:normal;text-anchor:end;" transform="rotate(-0, 29.5975, 83.067849)" x="29.5975" y="83.067849">20</text>
     </g>
    </g>
    <g id="ytick_3">
     <g id="line2d_7"/>
     <g id="text_7">
      <text style="font-family:Arial;font-size:8px;font-style:normal;font-weight:normal;text-anchor:end;" transform="rotate(-0, 29.5975, 59.943198)" x="29.5975" y="59.943198">40</text>
     </g>
    </g>
    <g id="ytick_4">
     <g id="line2d_8"/>
     <g id="text_8">
      <text style="font-family:Arial;font-size:8px;font-style:normal;font-weight:normal;text-anchor:end;" transform="rotate(-0, 29.5975, 36.818547)" x="29.5975" y="36.818547">60</text>
     </g>
    </g>
    <g id="text_9">
     <!-- $\sigma$ (across stimuli) -->
     <g transform="translate(14.5 100.759375)rotate(-90)">
      <text>
       <tspan style="font-family:DejaVu Sans;font-size:10px;font-style:oblique;font-weight:oblique;" x="0" y="-0.71875">σ</tspan>
       <tspan style="font-family:Arial;font-size:10px;font-style:regular;font-weight:regular;" x="6.337891 9.116211 12.446289 18.007812 23.007812 26.337891 31.899414 36.899414 41.899414 44.677734 49.677734 52.456055 54.677734 63.007812 68.569336 70.791016 73.012695" y="-0.71875"> (across stimuli)</tspan>
      </text>
     </g>
    </g>
   </g>
   <g id="text_10">
    <text style="font-family:Arial;font-size:12px;font-style:normal;font-weight:normal;text-anchor:middle;" transform="rotate(-0, 71.142955, 15.789375)" x="71.142955" y="15.789375">Excitation</text>
   </g>
  </g>
  <g id="axes_2">
   <g id="patch_5">
    <path d="M 124.406591 103.329375 
L 200.4975 103.329375 
L 200.4975 21.789375 
L 124.406591 21.789375 
z
" style="fill:none;"/>
   </g>
   <g id="PathCollection_3">
    <defs>
     <path d="M -0 2.236068 
L 2.236068 -2.236068 
L -2.236068 -2.236068 
z
" id="m6597e38834" style="stroke:#fde725;"/>
    </defs>
    <g clip-path="url(#p7fe20ebbe5)">
     <use style="fill:#fde725;stroke:#fde725;" x="187.815682" xlink:href="#m6597e38834" y="43.208576"/>
     <use style="fill:#fde725;stroke:#fde725;" x="182.170002" xlink:href="#m6597e38834" y="43.208576"/>
     <use style="fill:#fde725;stroke:#fde725;" x="154.281331" xlink:href="#m6597e38834" y="43.208576"/>
     <use style="fill:#fde725;stroke:#fde725;" x="145.439316" xlink:href="#m6597e38834" y="43.208576"/>
     <use style="fill:#fde725;stroke:#fde725;" x="170.934874" xlink:href="#m6597e38834" y="43.208576"/>
    </g>
   </g>
   <g id="PathCollection_4">
    <defs>
     <path d="M -0 2.236068 
L 2.236068 -2.236068 
L -2.236068 -2.236068 
z
" id="mc1cd8d361d" style="stroke:#472d7b;"/>
    </defs>
    <g clip-path="url(#p7fe20ebbe5)">
     <use style="fill:#472d7b;stroke:#472d7b;" x="129.883506" xlink:href="#mc1cd8d361d" y="77.934148"/>
     <use style="fill:#472d7b;stroke:#472d7b;" x="156.14721" xlink:href="#mc1cd8d361d" y="77.934148"/>
     <use style="fill:#472d7b;stroke:#472d7b;" x="151.352301" xlink:href="#mc1cd8d361d" y="77.934148"/>
     <use style="fill:#472d7b;stroke:#472d7b;" x="127.537251" xlink:href="#mc1cd8d361d" y="77.934148"/>
     <use style="fill:#472d7b;stroke:#472d7b;" x="129.341472" xlink:href="#mc1cd8d361d" y="77.934148"/>
    </g>
   </g>
   <g id="line2d_9">
    <path clip-path="url(#p7fe20ebbe5)" d="M 124.406591 103.329375 
L 200.4975 21.789375 
" style="fill:none;stroke:#000000;stroke-dasharray:1.85,0.8;stroke-dashoffset:0;stroke-width:0.5;"/>
   </g>
   <g id="patch_6">
    <path d="M 124.406591 103.329375 
L 124.406591 21.789375 
" style="fill:none;stroke:#000000;stroke-linecap:square;stroke-linejoin:miter;"/>
   </g>
   <g id="patch_7">
    <path d="M 124.406591 103.329375 
L 200.4975 103.329375 
" style="fill:none;stroke:#000000;stroke-linecap:square;stroke-linejoin:miter;"/>
   </g>
   <g id="matplotlib.axis_3">
    <g id="xtick_4">
     <g id="line2d_10"/>
     <g id="text_11">
      <text style="font-family:Arial;font-size:8px;font-style:normal;font-weight:normal;text-anchor:middle;" transform="rotate(-0, 124.406591, 112.555625)" x="124.406591" y="112.555625">0</text>
     </g>
    </g>
    <g id="xtick_5">
     <g id="line2d_11"/>
     <g id="text_12">
      <text style="font-family:Arial;font-size:8px;font-style:normal;font-weight:normal;text-anchor:middle;" transform="rotate(-0, 159.070487, 112.555625)" x="159.070487" y="112.555625">50</text>
     </g>
    </g>
    <g id="xtick_6">
     <g id="line2d_12"/>
     <g id="text_13">
      <text style="font-family:Arial;font-size:8px;font-style:normal;font-weight:normal;text-anchor:middle;" transform="rotate(-0, 193.734383, 112.555625)" x="193.734383" y="112.555625">100</text>
     </g>
    </g>
    <g id="text_14">
     <!-- $\sigma$ (within stimulus) -->
     <g transform="translate(122.052045 125.445625)">
      <text>
       <tspan style="font-family:DejaVu Sans;font-size:10px;font-style:oblique;font-weight:oblique;" x="0" y="-0.71875">σ</tspan>
       <tspan style="font-family:Arial;font-size:10px;font-style:regular;font-weight:regular;" x="6.337891 9.116211 12.446289 19.667969 21.889648 24.667969 30.229492 32.451172 38.012695 40.791016 45.791016 48.569336 50.791016 59.121094 64.682617 66.904297 72.46582 77.46582" y="-0.71875"> (within stimulus)</tspan>
      </text>
     </g>
    </g>
   </g>
   <g id="matplotlib.axis_4">
    <g id="ytick_5">
     <g id="line2d_13"/>
     <g id="text_15">
      <text style="font-family:Arial;font-size:8px;font-style:normal;font-weight:normal;text-anchor:end;" transform="rotate(-0, 120.906591, 106.1925)" x="120.906591" y="106.1925">0</text>
     </g>
    </g>
    <g id="ytick_6">
     <g id="line2d_14"/>
     <g id="text_16">
      <text style="font-family:Arial;font-size:8px;font-style:normal;font-weight:normal;text-anchor:end;" transform="rotate(-0, 120.906591, 87.619361)" x="120.906591" y="87.619361">25</text>
     </g>
    </g>
    <g id="ytick_7">
     <g id="line2d_15"/>
     <g id="text_17">
      <text style="font-family:Arial;font-size:8px;font-style:normal;font-weight:normal;text-anchor:end;" transform="rotate(-0, 120.906591, 69.046222)" x="120.906591" y="69.046222">50</text>
     </g>
    </g>
    <g id="ytick_8">
     <g id="line2d_16"/>
     <g id="text_18">
      <text style="font-family:Arial;font-size:8px;font-style:normal;font-weight:normal;text-anchor:end;" transform="rotate(-0, 120.906591, 50.473083)" x="120.906591" y="50.473083">75</text>
     </g>
    </g>
    <g id="ytick_9">
     <g id="line2d_17"/>
     <g id="text_19">
      <text style="font-family:Arial;font-size:8px;font-style:normal;font-weight:normal;text-anchor:end;" transform="rotate(-0, 120.906591, 31.899943)" x="120.906591" y="31.899943">100</text>
     </g>
    </g>
   </g>
   <g id="text_20">
    <text style="font-family:Arial;font-size:12px;font-style:normal;font-weight:normal;text-anchor:middle;" transform="rotate(-0, 162.452045, 15.789375)" x="162.452045" y="15.789375">Inhibition</text>
   </g>
  </g>
 </g>
 <defs>
  <clipPath id="p955b7770c7">
   <rect height="81.54" width="76.090909" x="33.0975" y="21.789375"/>
  </clipPath>
  <clipPath id="p7fe20ebbe5">
   <rect height="81.54" width="76.090909" x="124.406591" y="21.789375"/>
  </clipPath>
 </defs>
</svg>
