<?xml version="1.0" encoding="utf-8" standalone="no"?>
<!DOCTYPE svg PUBLIC "-//W3C//DTD SVG 1.1//EN"
  "http://www.w3.org/Graphics/SVG/1.1/DTD/svg11.dtd">
<!-- Created with matplotlib (http://matplotlib.org/) -->
<svg height="134pt" version="1.1" viewBox="0 0 205 134" width="205pt" xmlns="http://www.w3.org/2000/svg" xmlns:xlink="http://www.w3.org/1999/xlink">
 <defs>
  <style type="text/css">
*{stroke-linecap:butt;stroke-linejoin:round;}
  </style>
 </defs>
 <g id="figure_1">
  <g id="patch_1">
   <path d="M 0 134.845625 
L 205.603295 134.845625 
L 205.603295 0 
L 0 0 
z
" style="fill:none;opacity:0;"/>
  </g>
  <g id="axes_1">
   <g id="patch_2">
    <path d="M 28.64875 103.329375 
L 104.739659 103.329375 
L 104.739659 21.789375 
L 28.64875 21.789375 
z
" style="fill:none;"/>
   </g>
   <g id="PathCollection_1">
    <defs>
     <path d="M 0 2.236068 
C 0.593012 2.236068 1.161816 2.000462 1.581139 1.581139 
C 2.000462 1.161816 2.236068 0.593012 2.236068 0 
C 2.236068 -0.593012 2.000462 -1.161816 1.581139 -1.581139 
C 1.161816 -2.000462 0.593012 -2.236068 0 -2.236068 
C -0.593012 -2.236068 -1.161816 -2.000462 -1.581139 -1.581139 
C -2.000462 -1.161816 -2.236068 -0.593012 -2.236068 0 
C -2.236068 0.593012 -2.000462 1.161816 -1.581139 1.581139 
C -1.161816 2.000462 -0.593012 2.236068 0 2.236068 
z
" id="ma22e4a2d7a" style="stroke:#fde725;"/>
    </defs>
    <g clip-path="url(#pcd84001c3a)">
     <use style="fill:#fde725;stroke:#fde725;" x="51.643812" xlink:href="#ma22e4a2d7a" y="52.904654"/>
     <use style="fill:#fde725;stroke:#fde725;" x="81.422339" xlink:href="#ma22e4a2d7a" y="52.904654"/>
     <use style="fill:#fde725;stroke:#fde725;" x="58.217679" xlink:href="#ma22e4a2d7a" y="52.904654"/>
     <use style="fill:#fde725;stroke:#fde725;" x="78.18673" xlink:href="#ma22e4a2d7a" y="52.904654"/>
     <use style="fill:#fde725;stroke:#fde725;" x="92.057841" xlink:href="#ma22e4a2d7a" y="52.904654"/>
    </g>
   </g>
   <g id="PathCollection_2">
    <defs>
     <path d="M 0 2.236068 
C 0.593012 2.236068 1.161816 2.000462 1.581139 1.581139 
C 2.000462 1.161816 2.236068 0.593012 2.236068 0 
C 2.236068 -0.593012 2.000462 -1.161816 1.581139 -1.581139 
C 1.161816 -2.000462 0.593012 -2.236068 0 -2.236068 
C -0.593012 -2.236068 -1.161816 -2.000462 -1.581139 -1.581139 
C -2.000462 -1.161816 -2.236068 -0.593012 -2.236068 0 
C -2.236068 0.593012 -2.000462 1.161816 -1.581139 1.581139 
C -1.161816 2.000462 -0.593012 2.236068 0 2.236068 
z
" id="m0346fe84cf" style="stroke:#21918c;"/>
    </defs>
    <g clip-path="url(#pcd84001c3a)">
     <use style="fill:#21918c;stroke:#21918c;" x="71.354152" xlink:href="#m0346fe84cf" y="75.875334"/>
     <use style="fill:#21918c;stroke:#21918c;" x="63.115757" xlink:href="#m0346fe84cf" y="75.875334"/>
     <use style="fill:#21918c;stroke:#21918c;" x="44.792181" xlink:href="#m0346fe84cf" y="75.875334"/>
     <use style="fill:#21918c;stroke:#21918c;" x="45.17924" xlink:href="#m0346fe84cf" y="75.875334"/>
     <use style="fill:#21918c;stroke:#21918c;" x="32.300902" xlink:href="#m0346fe84cf" y="75.875334"/>
    </g>
   </g>
   <g id="PathCollection_3">
    <defs>
     <path d="M 0 2.236068 
C 0.593012 2.236068 1.161816 2.000462 1.581139 1.581139 
C 2.000462 1.161816 2.236068 0.593012 2.236068 0 
C 2.236068 -0.593012 2.000462 -1.161816 1.581139 -1.581139 
C 1.161816 -2.000462 0.593012 -2.236068 0 -2.236068 
C -0.593012 -2.236068 -1.161816 -2.000462 -1.581139 -1.581139 
C -2.000462 -1.161816 -2.236068 -0.593012 -2.236068 0 
C -2.236068 0.593012 -2.000462 1.161816 -1.581139 1.581139 
C -1.161816 2.000462 -0.593012 2.236068 0 2.236068 
z
" id="md38e91428e" style="stroke:#5ec962;"/>
    </defs>
    <g clip-path="url(#pcd84001c3a)">
     <use style="fill:#5ec962;stroke:#5ec962;" x="50.738163" xlink:href="#md38e91428e" y="60.212041"/>
     <use style="fill:#5ec962;stroke:#5ec962;" x="55.799108" xlink:href="#md38e91428e" y="60.212041"/>
     <use style="fill:#5ec962;stroke:#5ec962;" x="53.904515" xlink:href="#md38e91428e" y="60.212041"/>
     <use style="fill:#5ec962;stroke:#5ec962;" x="80.241045" xlink:href="#md38e91428e" y="60.212041"/>
     <use style="fill:#5ec962;stroke:#5ec962;" x="49.461367" xlink:href="#md38e91428e" y="60.212041"/>
    </g>
   </g>
   <g id="line2d_1">
    <path clip-path="url(#pcd84001c3a)" d="M 28.64875 103.329375 
L 104.739659 21.789375 
" style="fill:none;stroke:#000000;stroke-dasharray:1.85,0.8;stroke-dashoffset:0;stroke-width:0.5;"/>
   </g>
   <g id="patch_3">
    <path d="M 28.64875 103.329375 
L 28.64875 21.789375 
" style="fill:none;stroke:#000000;stroke-linecap:square;stroke-linejoin:miter;"/>
   </g>
   <g id="patch_4">
    <path d="M 28.64875 103.329375 
L 104.739659 103.329375 
" style="fill:none;stroke:#000000;stroke-linecap:square;stroke-linejoin:miter;"/>
   </g>
   <g id="matplotlib.axis_1">
    <g id="xtick_1">
     <g id="line2d_2"/>
     <g id="text_1">
      <text style="font-family:Arial;font-size:8px;font-style:normal;font-weight:normal;text-anchor:middle;" transform="rotate(-0, 28.64875, 112.555625)" x="28.64875" y="112.555625">0</text>
     </g>
    </g>
    <g id="xtick_2">
     <g id="line2d_3"/>
     <g id="text_2">
      <text style="font-family:Arial;font-size:8px;font-style:normal;font-weight:normal;text-anchor:middle;" transform="rotate(-0, 55.146584, 112.555625)" x="55.146584" y="112.555625">1</text>
     </g>
    </g>
    <g id="xtick_3">
     <g id="line2d_4"/>
     <g id="text_3">
      <text style="font-family:Arial;font-size:8px;font-style:normal;font-weight:normal;text-anchor:middle;" transform="rotate(-0, 81.644417, 112.555625)" x="81.644417" y="112.555625">2</text>
     </g>
    </g>
    <g id="text_4">
     <!-- $\sigma$ (within stimulus) -->
     <g transform="translate(26.294205 125.445625)">
      <text>
       <tspan style="font-family:DejaVu Sans;font-size:10px;font-style:oblique;font-weight:oblique;" x="0" y="-0.71875">σ</tspan>
       <tspan style="font-family:Arial;font-size:10px;font-style:regular;font-weight:regular;" x="6.337891 9.116211 12.446289 19.667969 21.889648 24.667969 30.229492 32.451172 38.012695 40.791016 45.791016 48.569336 50.791016 59.121094 64.682617 66.904297 72.46582 77.46582" y="-0.71875"> (within stimulus)</tspan>
      </text>
     </g>
    </g>
   </g>
   <g id="matplotlib.axis_2">
    <g id="ytick_1">
     <g id="line2d_5"/>
     <g id="text_5">
      <text style="font-family:Arial;font-size:8px;font-style:normal;font-weight:normal;text-anchor:end;" transform="rotate(-0, 25.14875, 106.1925)" x="25.14875" y="106.1925">0</text>
     </g>
    </g>
    <g id="ytick_2">
     <g id="line2d_6"/>
     <g id="text_6">
      <text style="font-family:Arial;font-size:8px;font-style:normal;font-weight:normal;text-anchor:end;" transform="rotate(-0, 25.14875, 77.79708)" x="25.14875" y="77.79708">1</text>
     </g>
    </g>
    <g id="ytick_3">
     <g id="line2d_7"/>
     <g id="text_7">
      <text style="font-family:Arial;font-size:8px;font-style:normal;font-weight:normal;text-anchor:end;" transform="rotate(-0, 25.14875, 49.401659)" x="25.14875" y="49.401659">2</text>
     </g>
    </g>
    <g id="text_8">
     <!-- $\sigma$ (across stimuli) -->
     <g transform="translate(14.5 100.759375)rotate(-90)">
      <text>
       <tspan style="font-family:DejaVu Sans;font-size:10px;font-style:oblique;font-weight:oblique;" x="0" y="-0.71875">σ</tspan>
       <tspan style="font-family:Arial;font-size:10px;font-style:regular;font-weight:regular;" x="6.337891 9.116211 12.446289 18.007812 23.007812 26.337891 31.899414 36.899414 41.899414 44.677734 49.677734 52.456055 54.677734 63.007812 68.569336 70.791016 73.012695" y="-0.71875"> (across stimuli)</tspan>
      </text>
     </g>
    </g>
   </g>
   <g id="text_9">
    <text style="font-family:Arial;font-size:12px;font-style:normal;font-weight:normal;text-anchor:middle;" transform="rotate(-0, 66.694205, 15.789375)" x="66.694205" y="15.789375">Excitation</text>
   </g>
  </g>
  <g id="axes_2">
   <g id="patch_5">
    <path d="M 119.957841 103.329375 
L 196.04875 103.329375 
L 196.04875 21.789375 
L 119.957841 21.789375 
z
" style="fill:none;"/>
   </g>
   <g id="PathCollection_4">
    <defs>
     <path d="M -0 2.236068 
L 2.236068 -2.236068 
L -2.236068 -2.236068 
z
" id="m6d84ae53b4" style="stroke:#fde725;"/>
    </defs>
    <g clip-path="url(#pd1511d7f0e)">
     <use style="fill:#fde725;stroke:#fde725;" x="148.92905" xlink:href="#m6d84ae53b4" y="55.840465"/>
     <use style="fill:#fde725;stroke:#fde725;" x="149.02494" xlink:href="#m6d84ae53b4" y="55.840465"/>
     <use style="fill:#fde725;stroke:#fde725;" x="141.227728" xlink:href="#m6d84ae53b4" y="55.840465"/>
     <use style="fill:#fde725;stroke:#fde725;" x="159.535838" xlink:href="#m6d84ae53b4" y="55.840465"/>
     <use style="fill:#fde725;stroke:#fde725;" x="183.366932" xlink:href="#m6d84ae53b4" y="55.840465"/>
    </g>
   </g>
   <g id="PathCollection_5">
    <defs>
     <path d="M -0 2.236068 
L 2.236068 -2.236068 
L -2.236068 -2.236068 
z
" id="m57d4c2ac3a" style="stroke:#21918c;"/>
    </defs>
    <g clip-path="url(#pd1511d7f0e)">
     <use style="fill:#21918c;stroke:#21918c;" x="126.25097" xlink:href="#m57d4c2ac3a" y="84.948092"/>
     <use style="fill:#21918c;stroke:#21918c;" x="139.205374" xlink:href="#m57d4c2ac3a" y="84.948092"/>
     <use style="fill:#21918c;stroke:#21918c;" x="122.828472" xlink:href="#m57d4c2ac3a" y="84.948092"/>
     <use style="fill:#21918c;stroke:#21918c;" x="155.261782" xlink:href="#m57d4c2ac3a" y="84.948092"/>
     <use style="fill:#21918c;stroke:#21918c;" x="125.414546" xlink:href="#m57d4c2ac3a" y="84.948092"/>
    </g>
   </g>
   <g id="PathCollection_6">
    <defs>
     <path d="M -0 2.236068 
L 2.236068 -2.236068 
L -2.236068 -2.236068 
z
" id="m7403823dd9" style="stroke:#5ec962;"/>
    </defs>
    <g clip-path="url(#pd1511d7f0e)">
     <use style="fill:#5ec962;stroke:#5ec962;" x="131.659841" xlink:href="#m7403823dd9" y="70.235526"/>
     <use style="fill:#5ec962;stroke:#5ec962;" x="139.905743" xlink:href="#m7403823dd9" y="70.235526"/>
     <use style="fill:#5ec962;stroke:#5ec962;" x="147.450645" xlink:href="#m7403823dd9" y="70.235526"/>
     <use style="fill:#5ec962;stroke:#5ec962;" x="163.903029" xlink:href="#m7403823dd9" y="70.235526"/>
     <use style="fill:#5ec962;stroke:#5ec962;" x="123.335011" xlink:href="#m7403823dd9" y="70.235526"/>
    </g>
   </g>
   <g id="line2d_8">
    <path clip-path="url(#pd1511d7f0e)" d="M 119.957841 103.329375 
L 196.04875 21.789375 
" style="fill:none;stroke:#000000;stroke-dasharray:1.85,0.8;stroke-dashoffset:0;stroke-width:0.5;"/>
   </g>
   <g id="patch_6">
    <path d="M 119.957841 103.329375 
L 119.957841 21.789375 
" style="fill:none;stroke:#000000;stroke-linecap:square;stroke-linejoin:miter;"/>
   </g>
   <g id="patch_7">
    <path d="M 119.957841 103.329375 
L 196.04875 103.329375 
" style="fill:none;stroke:#000000;stroke-linecap:square;stroke-linejoin:miter;"/>
   </g>
   <g id="matplotlib.axis_3">
    <g id="xtick_4">
     <g id="line2d_9"/>
     <g id="text_10">
      <text style="font-family:Arial;font-size:8px;font-style:normal;font-weight:normal;text-anchor:middle;" transform="rotate(-0, 119.957841, 112.555625)" x="119.957841" y="112.555625">0</text>
     </g>
    </g>
    <g id="xtick_5">
     <g id="line2d_10"/>
     <g id="text_11">
      <text style="font-family:Arial;font-size:8px;font-style:normal;font-weight:normal;text-anchor:middle;" transform="rotate(-0, 147.190192, 112.555625)" x="147.190192" y="112.555625">5</text>
     </g>
    </g>
    <g id="xtick_6">
     <g id="line2d_11"/>
     <g id="text_12">
      <text style="font-family:Arial;font-size:8px;font-style:normal;font-weight:normal;text-anchor:middle;" transform="rotate(-0, 174.422543, 112.555625)" x="174.422543" y="112.555625">10</text>
     </g>
    </g>
    <g id="text_13">
     <!-- $\sigma$ (within stimulus) -->
     <g transform="translate(117.603295 125.445625)">
      <text>
       <tspan style="font-family:DejaVu Sans;font-size:10px;font-style:oblique;font-weight:oblique;" x="0" y="-0.71875">σ</tspan>
       <tspan style="font-family:Arial;font-size:10px;font-style:regular;font-weight:regular;" x="6.337891 9.116211 12.446289 19.667969 21.889648 24.667969 30.229492 32.451172 38.012695 40.791016 45.791016 48.569336 50.791016 59.121094 64.682617 66.904297 72.46582 77.46582" y="-0.71875"> (within stimulus)</tspan>
      </text>
     </g>
    </g>
   </g>
   <g id="matplotlib.axis_4">
    <g id="ytick_4">
     <g id="line2d_12"/>
     <g id="text_14">
      <text style="font-family:Arial;font-size:8px;font-style:normal;font-weight:normal;text-anchor:end;" transform="rotate(-0, 116.457841, 106.1925)" x="116.457841" y="106.1925">0</text>
     </g>
    </g>
    <g id="ytick_5">
     <g id="line2d_13"/>
     <g id="text_15">
      <text style="font-family:Arial;font-size:8px;font-style:normal;font-weight:normal;text-anchor:end;" transform="rotate(-0, 116.457841, 77.009961)" x="116.457841" y="77.009961">5</text>
     </g>
    </g>
    <g id="ytick_6">
     <g id="line2d_14"/>
     <g id="text_16">
      <text style="font-family:Arial;font-size:8px;font-style:normal;font-weight:normal;text-anchor:end;" transform="rotate(-0, 116.457841, 47.827423)" x="116.457841" y="47.827423">10</text>
     </g>
    </g>
   </g>
   <g id="text_17">
    <text style="font-family:Arial;font-size:12px;font-style:normal;font-weight:normal;text-anchor:middle;" transform="rotate(-0, 158.003295, 15.789375)" x="158.003295" y="15.789375">Inhibition</text>
   </g>
  </g>
 </g>
 <defs>
  <clipPath id="pcd84001c3a">
   <rect height="81.54" width="76.090909" x="28.64875" y="21.789375"/>
  </clipPath>
  <clipPath id="pd1511d7f0e">
   <rect height="81.54" width="76.090909" x="119.957841" y="21.789375"/>
  </clipPath>
 </defs>
</svg>
