<?xml version="1.0" encoding="utf-8" standalone="no"?>
<!DOCTYPE svg PUBLIC "-//W3C//DTD SVG 1.1//EN"
  "http://www.w3.org/Graphics/SVG/1.1/DTD/svg11.dtd">
<!-- Created with matplotlib (http://matplotlib.org/) -->
<svg height="134pt" version="1.1" viewBox="0 0 212 134" width="212pt" xmlns="http://www.w3.org/2000/svg" xmlns:xlink="http://www.w3.org/1999/xlink">
 <defs>
  <style type="text/css">
*{stroke-linecap:butt;stroke-linejoin:round;}
  </style>
 </defs>
 <g id="figure_1">
  <g id="patch_1">
   <path d="M 0 134.845625 
L 212.274545 134.845625 
L 212.274545 0 
L 0 0 
z
" style="fill:none;opacity:0;"/>
  </g>
  <g id="axes_1">
   <g id="patch_2">
    <path d="M 35.32 103.329375 
L 111.410909 103.329375 
L 111.410909 21.789375 
L 35.32 21.789375 
z
" style="fill:none;"/>
   </g>
   <g id="PathCollection_1">
    <defs>
     <path d="M 0 2.236068 
C 0.593012 2.236068 1.161816 2.000462 1.581139 1.581139 
C 2.000462 1.161816 2.236068 0.593012 2.236068 0 
C 2.236068 -0.593012 2.000462 -1.161816 1.581139 -1.581139 
C 1.161816 -2.000462 0.593012 -2.236068 0 -2.236068 
C -0.593012 -2.236068 -1.161816 -2.000462 -1.581139 -1.581139 
C -2.000462 -1.161816 -2.236068 -0.593012 -2.236068 0 
C -2.236068 0.593012 -2.000462 1.161816 -1.581139 1.581139 
C -1.161816 2.000462 -0.593012 2.236068 0 2.236068 
z
" id="m80f35b9157" style="stroke:#fde725;"/>
    </defs>
    <g clip-path="url(#p20936c5748)">
     <use style="fill:#fde725;stroke:#fde725;" x="80.28698" xlink:href="#m80f35b9157" y="50.844535"/>
     <use style="fill:#fde725;stroke:#fde725;" x="79.897237" xlink:href="#m80f35b9157" y="50.844535"/>
     <use style="fill:#fde725;stroke:#fde725;" x="60.499879" xlink:href="#m80f35b9157" y="50.844535"/>
     <use style="fill:#fde725;stroke:#fde725;" x="44.608114" xlink:href="#m80f35b9157" y="50.844535"/>
     <use style="fill:#fde725;stroke:#fde725;" x="98.729091" xlink:href="#m80f35b9157" y="50.844535"/>
    </g>
   </g>
   <g id="PathCollection_2">
    <defs>
     <path d="M 0 2.236068 
C 0.593012 2.236068 1.161816 2.000462 1.581139 1.581139 
C 2.000462 1.161816 2.236068 0.593012 2.236068 0 
C 2.236068 -0.593012 2.000462 -1.161816 1.581139 -1.581139 
C 1.161816 -2.000462 0.593012 -2.236068 0 -2.236068 
C -0.593012 -2.236068 -1.161816 -2.000462 -1.581139 -1.581139 
C -2.000462 -1.161816 -2.236068 -0.593012 -2.236068 0 
C -2.236068 0.593012 -2.000462 1.161816 -1.581139 1.581139 
C -1.161816 2.000462 -0.593012 2.236068 0 2.236068 
z
" id="mc1d3c646c4" style="stroke:#3b528b;"/>
    </defs>
    <g clip-path="url(#p20936c5748)">
     <use style="fill:#3b528b;stroke:#3b528b;" x="40.995646" xlink:href="#mc1d3c646c4" y="74.571281"/>
     <use style="fill:#3b528b;stroke:#3b528b;" x="67.038875" xlink:href="#mc1d3c646c4" y="74.571281"/>
     <use style="fill:#3b528b;stroke:#3b528b;" x="48.682681" xlink:href="#mc1d3c646c4" y="74.571281"/>
     <use style="fill:#3b528b;stroke:#3b528b;" x="51.504123" xlink:href="#mc1d3c646c4" y="74.571281"/>
     <use style="fill:#3b528b;stroke:#3b528b;" x="56.113693" xlink:href="#mc1d3c646c4" y="74.571281"/>
    </g>
   </g>
   <g id="PathCollection_3">
    <defs>
     <path d="M 0 2.236068 
C 0.593012 2.236068 1.161816 2.000462 1.581139 1.581139 
C 2.000462 1.161816 2.236068 0.593012 2.236068 0 
C 2.236068 -0.593012 2.000462 -1.161816 1.581139 -1.581139 
C 1.161816 -2.000462 0.593012 -2.236068 0 -2.236068 
C -0.593012 -2.236068 -1.161816 -2.000462 -1.581139 -1.581139 
C -2.000462 -1.161816 -2.236068 -0.593012 -2.236068 0 
C -2.236068 0.593012 -2.000462 1.161816 -1.581139 1.581139 
C -1.161816 2.000462 -0.593012 2.236068 0 2.236068 
z
" id="m111ffa278c" style="stroke:#21918c;"/>
    </defs>
    <g clip-path="url(#p20936c5748)">
     <use style="fill:#21918c;stroke:#21918c;" x="58.664106" xlink:href="#m111ffa278c" y="61.850448"/>
     <use style="fill:#21918c;stroke:#21918c;" x="56.477781" xlink:href="#m111ffa278c" y="61.850448"/>
     <use style="fill:#21918c;stroke:#21918c;" x="71.396734" xlink:href="#m111ffa278c" y="61.850448"/>
     <use style="fill:#21918c;stroke:#21918c;" x="39.786184" xlink:href="#m111ffa278c" y="61.850448"/>
     <use style="fill:#21918c;stroke:#21918c;" x="50.423633" xlink:href="#m111ffa278c" y="61.850448"/>
    </g>
   </g>
   <g id="PathCollection_4">
    <defs>
     <path d="M 0 2.236068 
C 0.593012 2.236068 1.161816 2.000462 1.581139 1.581139 
C 2.000462 1.161816 2.236068 0.593012 2.236068 0 
C 2.236068 -0.593012 2.000462 -1.161816 1.581139 -1.581139 
C 1.161816 -2.000462 0.593012 -2.236068 0 -2.236068 
C -0.593012 -2.236068 -1.161816 -2.000462 -1.581139 -1.581139 
C -2.000462 -1.161816 -2.236068 -0.593012 -2.236068 0 
C -2.236068 0.593012 -2.000462 1.161816 -1.581139 1.581139 
C -1.161816 2.000462 -0.593012 2.236068 0 2.236068 
z
" id="m0074eac74d" style="stroke:#5ec962;"/>
    </defs>
    <g clip-path="url(#p20936c5748)">
     <use style="fill:#5ec962;stroke:#5ec962;" x="56.788367" xlink:href="#m0074eac74d" y="63.964707"/>
     <use style="fill:#5ec962;stroke:#5ec962;" x="56.047283" xlink:href="#m0074eac74d" y="63.964707"/>
     <use style="fill:#5ec962;stroke:#5ec962;" x="73.080823" xlink:href="#m0074eac74d" y="63.964707"/>
     <use style="fill:#5ec962;stroke:#5ec962;" x="80.622277" xlink:href="#m0074eac74d" y="63.964707"/>
     <use style="fill:#5ec962;stroke:#5ec962;" x="54.950089" xlink:href="#m0074eac74d" y="63.964707"/>
    </g>
   </g>
   <g id="line2d_1">
    <path clip-path="url(#p20936c5748)" d="M 35.32 103.329375 
L 111.410909 21.789375 
" style="fill:none;stroke:#000000;stroke-dasharray:1.85,0.8;stroke-dashoffset:0;stroke-width:0.5;"/>
   </g>
   <g id="patch_3">
    <path d="M 35.32 103.329375 
L 35.32 21.789375 
" style="fill:none;stroke:#000000;stroke-linecap:square;stroke-linejoin:miter;"/>
   </g>
   <g id="patch_4">
    <path d="M 35.32 103.329375 
L 111.410909 103.329375 
" style="fill:none;stroke:#000000;stroke-linecap:square;stroke-linejoin:miter;"/>
   </g>
   <g id="matplotlib.axis_1">
    <g id="xtick_1">
     <g id="line2d_2"/>
     <g id="text_1">
      <text style="font-family:Arial;font-size:8px;font-style:normal;font-weight:normal;text-anchor:middle;" transform="rotate(-0, 35.32, 112.555625)" x="35.32" y="112.555625">0</text>
     </g>
    </g>
    <g id="xtick_2">
     <g id="line2d_3"/>
     <g id="text_2">
      <text style="font-family:Arial;font-size:8px;font-style:normal;font-weight:normal;text-anchor:middle;" transform="rotate(-0, 74.715647, 112.555625)" x="74.715647" y="112.555625">1</text>
     </g>
    </g>
    <g id="text_3">
     <!-- $\sigma$ (within stimulus) -->
     <g transform="translate(32.965455 125.445625)">
      <text>
       <tspan style="font-family:DejaVu Sans;font-size:10px;font-style:oblique;font-weight:oblique;" x="0" y="-0.71875">σ</tspan>
       <tspan style="font-family:Arial;font-size:10px;font-style:regular;font-weight:regular;" x="6.337891 9.116211 12.446289 19.667969 21.889648 24.667969 30.229492 32.451172 38.012695 40.791016 45.791016 48.569336 50.791016 59.121094 64.682617 66.904297 72.46582 77.46582" y="-0.71875"> (within stimulus)</tspan>
      </text>
     </g>
    </g>
   </g>
   <g id="matplotlib.axis_2">
    <g id="ytick_1">
     <g id="line2d_4"/>
     <g id="text_4">
      <text style="font-family:Arial;font-size:8px;font-style:normal;font-weight:normal;text-anchor:end;" transform="rotate(-0, 31.82, 106.1925)" x="31.82" y="106.1925">0.0</text>
     </g>
    </g>
    <g id="ytick_2">
     <g id="line2d_5"/>
     <g id="text_5">
      <text style="font-family:Arial;font-size:8px;font-style:normal;font-weight:normal;text-anchor:end;" transform="rotate(-0, 31.82, 85.084058)" x="31.82" y="85.084058">0.5</text>
     </g>
    </g>
    <g id="ytick_3">
     <g id="line2d_6"/>
     <g id="text_6">
      <text style="font-family:Arial;font-size:8px;font-style:normal;font-weight:normal;text-anchor:end;" transform="rotate(-0, 31.82, 63.975617)" x="31.82" y="63.975617">1.0</text>
     </g>
    </g>
    <g id="ytick_4">
     <g id="line2d_7"/>
     <g id="text_7">
      <text style="font-family:Arial;font-size:8px;font-style:normal;font-weight:normal;text-anchor:end;" transform="rotate(-0, 31.82, 42.867175)" x="31.82" y="42.867175">1.5</text>
     </g>
    </g>
    <g id="text_8">
     <!-- $\sigma$ (across stimuli) -->
     <g transform="translate(14.5 100.759375)rotate(-90)">
      <text>
       <tspan style="font-family:DejaVu Sans;font-size:10px;font-style:oblique;font-weight:oblique;" x="0" y="-0.71875">σ</tspan>
       <tspan style="font-family:Arial;font-size:10px;font-style:regular;font-weight:regular;" x="6.337891 9.116211 12.446289 18.007812 23.007812 26.337891 31.899414 36.899414 41.899414 44.677734 49.677734 52.456055 54.677734 63.007812 68.569336 70.791016 73.012695" y="-0.71875"> (across stimuli)</tspan>
      </text>
     </g>
    </g>
   </g>
   <g id="text_9">
    <text style="font-family:Arial;font-size:12px;font-style:normal;font-weight:normal;text-anchor:middle;" transform="rotate(-0, 73.365455, 15.789375)" x="73.365455" y="15.789375">Excitation</text>
   </g>
  </g>
  <g id="axes_2">
   <g id="patch_5">
    <path d="M 126.629091 103.329375 
L 202.72 103.329375 
L 202.72 21.789375 
L 126.629091 21.789375 
z
" style="fill:none;"/>
   </g>
   <g id="PathCollection_5">
    <defs>
     <path d="M -0 2.236068 
L 2.236068 -2.236068 
L -2.236068 -2.236068 
z
" id="m9e3753e9fd" style="stroke:#fde725;"/>
    </defs>
    <g clip-path="url(#pda35113f35)">
     <use style="fill:#fde725;stroke:#fde725;" x="163.302824" xlink:href="#m9e3753e9fd" y="46.670001"/>
     <use style="fill:#fde725;stroke:#fde725;" x="166.069619" xlink:href="#m9e3753e9fd" y="46.670001"/>
     <use style="fill:#fde725;stroke:#fde725;" x="186.648332" xlink:href="#m9e3753e9fd" y="46.670001"/>
     <use style="fill:#fde725;stroke:#fde725;" x="142.084616" xlink:href="#m9e3753e9fd" y="46.670001"/>
     <use style="fill:#fde725;stroke:#fde725;" x="190.038182" xlink:href="#m9e3753e9fd" y="46.670001"/>
    </g>
   </g>
   <g id="PathCollection_6">
    <defs>
     <path d="M -0 2.236068 
L 2.236068 -2.236068 
L -2.236068 -2.236068 
z
" id="m30c3ab5de1" style="stroke:#3b528b;"/>
    </defs>
    <g clip-path="url(#pda35113f35)">
     <use style="fill:#3b528b;stroke:#3b528b;" x="129.739551" xlink:href="#m30c3ab5de1" y="79.297489"/>
     <use style="fill:#3b528b;stroke:#3b528b;" x="147.509947" xlink:href="#m30c3ab5de1" y="79.297489"/>
     <use style="fill:#3b528b;stroke:#3b528b;" x="155.543509" xlink:href="#m30c3ab5de1" y="79.297489"/>
     <use style="fill:#3b528b;stroke:#3b528b;" x="142.489007" xlink:href="#m30c3ab5de1" y="79.297489"/>
     <use style="fill:#3b528b;stroke:#3b528b;" x="135.898486" xlink:href="#m30c3ab5de1" y="79.297489"/>
    </g>
   </g>
   <g id="PathCollection_7">
    <defs>
     <path d="M -0 2.236068 
L 2.236068 -2.236068 
L -2.236068 -2.236068 
z
" id="mc8b933d6b5" style="stroke:#21918c;"/>
    </defs>
    <g clip-path="url(#pda35113f35)">
     <use style="fill:#21918c;stroke:#21918c;" x="156.663314" xlink:href="#mc8b933d6b5" y="62.137513"/>
     <use style="fill:#21918c;stroke:#21918c;" x="143.796355" xlink:href="#mc8b933d6b5" y="62.137513"/>
     <use style="fill:#21918c;stroke:#21918c;" x="180.974654" xlink:href="#mc8b933d6b5" y="62.137513"/>
     <use style="fill:#21918c;stroke:#21918c;" x="132.8631" xlink:href="#mc8b933d6b5" y="62.137513"/>
     <use style="fill:#21918c;stroke:#21918c;" x="144.81666" xlink:href="#mc8b933d6b5" y="62.137513"/>
    </g>
   </g>
   <g id="PathCollection_8">
    <defs>
     <path d="M -0 2.236068 
L 2.236068 -2.236068 
L -2.236068 -2.236068 
z
" id="mcaadade9c1" style="stroke:#5ec962;"/>
    </defs>
    <g clip-path="url(#pda35113f35)">
     <use style="fill:#5ec962;stroke:#5ec962;" x="161.939152" xlink:href="#mcaadade9c1" y="60.074922"/>
     <use style="fill:#5ec962;stroke:#5ec962;" x="148.452648" xlink:href="#mcaadade9c1" y="60.074922"/>
     <use style="fill:#5ec962;stroke:#5ec962;" x="178.030183" xlink:href="#mcaadade9c1" y="60.074922"/>
     <use style="fill:#5ec962;stroke:#5ec962;" x="151.749256" xlink:href="#mcaadade9c1" y="60.074922"/>
     <use style="fill:#5ec962;stroke:#5ec962;" x="157.461547" xlink:href="#mcaadade9c1" y="60.074922"/>
    </g>
   </g>
   <g id="line2d_8">
    <path clip-path="url(#pda35113f35)" d="M 126.629091 103.329375 
L 202.72 21.789375 
" style="fill:none;stroke:#000000;stroke-dasharray:1.85,0.8;stroke-dashoffset:0;stroke-width:0.5;"/>
   </g>
   <g id="patch_6">
    <path d="M 126.629091 103.329375 
L 126.629091 21.789375 
" style="fill:none;stroke:#000000;stroke-linecap:square;stroke-linejoin:miter;"/>
   </g>
   <g id="patch_7">
    <path d="M 126.629091 103.329375 
L 202.72 103.329375 
" style="fill:none;stroke:#000000;stroke-linecap:square;stroke-linejoin:miter;"/>
   </g>
   <g id="matplotlib.axis_3">
    <g id="xtick_3">
     <g id="line2d_9"/>
     <g id="text_10">
      <text style="font-family:Arial;font-size:8px;font-style:normal;font-weight:normal;text-anchor:middle;" transform="rotate(-0, 126.629091, 112.555625)" x="126.629091" y="112.555625">0</text>
     </g>
    </g>
    <g id="xtick_4">
     <g id="line2d_10"/>
     <g id="text_11">
      <text style="font-family:Arial;font-size:8px;font-style:normal;font-weight:normal;text-anchor:middle;" transform="rotate(-0, 157.7797, 112.555625)" x="157.7797" y="112.555625">5</text>
     </g>
    </g>
    <g id="xtick_5">
     <g id="line2d_11"/>
     <g id="text_12">
      <text style="font-family:Arial;font-size:8px;font-style:normal;font-weight:normal;text-anchor:middle;" transform="rotate(-0, 188.930308, 112.555625)" x="188.930308" y="112.555625">10</text>
     </g>
    </g>
    <g id="text_13">
     <!-- $\sigma$ (within stimulus) -->
     <g transform="translate(124.274545 125.445625)">
      <text>
       <tspan style="font-family:DejaVu Sans;font-size:10px;font-style:oblique;font-weight:oblique;" x="0" y="-0.71875">σ</tspan>
       <tspan style="font-family:Arial;font-size:10px;font-style:regular;font-weight:regular;" x="6.337891 9.116211 12.446289 19.667969 21.889648 24.667969 30.229492 32.451172 38.012695 40.791016 45.791016 48.569336 50.791016 59.121094 64.682617 66.904297 72.46582 77.46582" y="-0.71875"> (within stimulus)</tspan>
      </text>
     </g>
    </g>
   </g>
   <g id="matplotlib.axis_4">
    <g id="ytick_5">
     <g id="line2d_12"/>
     <g id="text_14">
      <text style="font-family:Arial;font-size:8px;font-style:normal;font-weight:normal;text-anchor:end;" transform="rotate(-0, 123.129091, 106.1925)" x="123.129091" y="106.1925">0.0</text>
     </g>
    </g>
    <g id="ytick_6">
     <g id="line2d_13"/>
     <g id="text_15">
      <text style="font-family:Arial;font-size:8px;font-style:normal;font-weight:normal;text-anchor:end;" transform="rotate(-0, 123.129091, 89.501803)" x="123.129091" y="89.501803">2.5</text>
     </g>
    </g>
    <g id="ytick_7">
     <g id="line2d_14"/>
     <g id="text_16">
      <text style="font-family:Arial;font-size:8px;font-style:normal;font-weight:normal;text-anchor:end;" transform="rotate(-0, 123.129091, 72.811106)" x="123.129091" y="72.811106">5.0</text>
     </g>
    </g>
    <g id="ytick_8">
     <g id="line2d_15"/>
     <g id="text_17">
      <text style="font-family:Arial;font-size:8px;font-style:normal;font-weight:normal;text-anchor:end;" transform="rotate(-0, 123.129091, 56.120409)" x="123.129091" y="56.120409">7.5</text>
     </g>
    </g>
    <g id="ytick_9">
     <g id="line2d_16"/>
     <g id="text_18">
      <text style="font-family:Arial;font-size:8px;font-style:normal;font-weight:normal;text-anchor:end;" transform="rotate(-0, 123.129091, 39.429712)" x="123.129091" y="39.429712">10.0</text>
     </g>
    </g>
   </g>
   <g id="text_19">
    <text style="font-family:Arial;font-size:12px;font-style:normal;font-weight:normal;text-anchor:middle;" transform="rotate(-0, 164.674545, 15.789375)" x="164.674545" y="15.789375">Inhibition</text>
   </g>
  </g>
 </g>
 <defs>
  <clipPath id="p20936c5748">
   <rect height="81.54" width="76.090909" x="35.32" y="21.789375"/>
  </clipPath>
  <clipPath id="pda35113f35">
   <rect height="81.54" width="76.090909" x="126.629091" y="21.789375"/>
  </clipPath>
 </defs>
</svg>
