<?xml version="1.0" encoding="utf-8" standalone="no"?>
<!DOCTYPE svg PUBLIC "-//W3C//DTD SVG 1.1//EN"
  "http://www.w3.org/Graphics/SVG/1.1/DTD/svg11.dtd">
<!-- Created with matplotlib (http://matplotlib.org/) -->
<svg height="134pt" version="1.1" viewBox="0 0 230 134" width="230pt" xmlns="http://www.w3.org/2000/svg" xmlns:xlink="http://www.w3.org/1999/xlink">
 <defs>
  <style type="text/css">
*{stroke-linecap:butt;stroke-linejoin:round;}
  </style>
 </defs>
 <g id="figure_1">
  <g id="patch_1">
   <path d="M -0 134.490938 
L 230.659375 134.490938 
L 230.659375 0 
L -0 0 
z
" style="fill:none;opacity:0;"/>
  </g>
  <g id="axes_1">
   <g id="patch_2">
    <path d="M 34.965313 103.329375 
L 202.365313 103.329375 
L 202.365313 21.789375 
L 34.965313 21.789375 
z
" style="fill:none;"/>
   </g>
   <g id="line2d_1">
    <path clip-path="url(#p84d2f33a28)" d="M 42.574403 55.424445 
L 53.444533 74.801067 
L 64.314663 93.517428 
L 75.184793 90.980462 
L 86.054923 25.495739 
L 96.925053 91.192487 
L 107.795183 95.813405 
L 118.665313 86.974211 
L 129.535442 87.176584 
L 140.405572 91.017092 
L 151.275702 94.564823 
L 162.145832 96.013407 
L 173.015962 64.096705 
L 183.886092 96.388594 
L 194.756222 99.623011 
" style="fill:none;stroke:#808000;stroke-linecap:round;stroke-width:0.5;"/>
    <defs>
     <path d="M 0 1.5 
C 0.397805 1.5 0.77937 1.341951 1.06066 1.06066 
C 1.341951 0.77937 1.5 0.397805 1.5 0 
C 1.5 -0.397805 1.341951 -0.77937 1.06066 -1.06066 
C 0.77937 -1.341951 0.397805 -1.5 0 -1.5 
C -0.397805 -1.5 -0.77937 -1.341951 -1.06066 -1.06066 
C -1.341951 -0.77937 -1.5 -0.397805 -1.5 0 
C -1.5 0.397805 -1.341951 0.77937 -1.06066 1.06066 
C -0.77937 1.341951 -0.397805 1.5 0 1.5 
z
" id="m06b54a24c0" style="stroke:#808000;"/>
    </defs>
    <g clip-path="url(#p84d2f33a28)">
     <use style="fill:#808000;stroke:#808000;" x="42.574403" xlink:href="#m06b54a24c0" y="55.424445"/>
     <use style="fill:#808000;stroke:#808000;" x="53.444533" xlink:href="#m06b54a24c0" y="74.801067"/>
     <use style="fill:#808000;stroke:#808000;" x="64.314663" xlink:href="#m06b54a24c0" y="93.517428"/>
     <use style="fill:#808000;stroke:#808000;" x="75.184793" xlink:href="#m06b54a24c0" y="90.980462"/>
     <use style="fill:#808000;stroke:#808000;" x="86.054923" xlink:href="#m06b54a24c0" y="25.495739"/>
     <use style="fill:#808000;stroke:#808000;" x="96.925053" xlink:href="#m06b54a24c0" y="91.192487"/>
     <use style="fill:#808000;stroke:#808000;" x="107.795183" xlink:href="#m06b54a24c0" y="95.813405"/>
     <use style="fill:#808000;stroke:#808000;" x="118.665313" xlink:href="#m06b54a24c0" y="86.974211"/>
     <use style="fill:#808000;stroke:#808000;" x="129.535442" xlink:href="#m06b54a24c0" y="87.176584"/>
     <use style="fill:#808000;stroke:#808000;" x="140.405572" xlink:href="#m06b54a24c0" y="91.017092"/>
     <use style="fill:#808000;stroke:#808000;" x="151.275702" xlink:href="#m06b54a24c0" y="94.564823"/>
     <use style="fill:#808000;stroke:#808000;" x="162.145832" xlink:href="#m06b54a24c0" y="96.013407"/>
     <use style="fill:#808000;stroke:#808000;" x="173.015962" xlink:href="#m06b54a24c0" y="64.096705"/>
     <use style="fill:#808000;stroke:#808000;" x="183.886092" xlink:href="#m06b54a24c0" y="96.388594"/>
     <use style="fill:#808000;stroke:#808000;" x="194.756222" xlink:href="#m06b54a24c0" y="99.623011"/>
    </g>
   </g>
   <g id="patch_3">
    <path d="M 34.965313 103.329375 
L 34.965313 21.789375 
" style="fill:none;stroke:#808000;stroke-linecap:square;stroke-linejoin:miter;"/>
   </g>
   <g id="patch_4">
    <path d="M 34.965313 103.329375 
L 202.365313 103.329375 
" style="fill:none;stroke:#000000;stroke-linecap:square;stroke-linejoin:miter;"/>
   </g>
   <g id="matplotlib.axis_1">
    <g id="xtick_1">
     <g id="line2d_2"/>
     <g id="text_1">
      <text style="font-family:Arial;font-size:8px;font-style:normal;font-weight:normal;text-anchor:middle;" transform="rotate(-0, 42.574403, 112.555625)" x="42.574403" y="112.555625">0</text>
     </g>
    </g>
    <g id="xtick_2">
     <g id="line2d_3"/>
     <g id="text_2">
      <text style="font-family:Arial;font-size:8px;font-style:normal;font-weight:normal;text-anchor:middle;" transform="rotate(-0, 96.925053, 112.555625)" x="96.925053" y="112.555625">5</text>
     </g>
    </g>
    <g id="xtick_3">
     <g id="line2d_4"/>
     <g id="text_3">
      <text style="font-family:Arial;font-size:8px;font-style:normal;font-weight:normal;text-anchor:middle;" transform="rotate(-0, 151.275702, 112.555625)" x="151.275702" y="112.555625">10</text>
     </g>
    </g>
    <g id="text_4">
     <text style="font-family:Arial;font-size:10px;font-style:normal;font-weight:normal;text-anchor:middle;" transform="rotate(-0, 118.665312, 125.303438)" x="118.665312" y="125.303438"># stimulus</text>
    </g>
   </g>
   <g id="matplotlib.axis_2">
    <g id="ytick_1">
     <g id="line2d_5"/>
     <g id="text_5">
      <text style="font-family:Arial;font-size:8px;font-style:normal;font-weight:normal;text-anchor:end;" transform="rotate(-0, 31.465313, 81.637072)" x="31.465313" y="81.637072">0.5</text>
     </g>
    </g>
    <g id="ytick_2">
     <g id="line2d_6"/>
     <g id="text_6">
      <text style="font-family:Arial;font-size:8px;font-style:normal;font-weight:normal;text-anchor:end;" transform="rotate(-0, 31.465313, 56.397456)" x="31.465313" y="56.397456">1.0</text>
     </g>
    </g>
    <g id="ytick_3">
     <g id="line2d_7"/>
     <g id="text_7">
      <text style="font-family:Arial;font-size:8px;font-style:normal;font-weight:normal;text-anchor:end;" transform="rotate(-0, 31.465313, 31.15784)" x="31.465313" y="31.15784">1.5</text>
     </g>
    </g>
    <g id="text_8">
     <text style="font-family:Arial;font-size:10px;font-style:normal;font-weight:normal;text-anchor:middle;" transform="rotate(-90, 14.357813, 62.559375)" x="14.357813" y="62.559375">Excitation</text>
    </g>
   </g>
   <g id="text_9">
    <text style="font-family:Arial;font-size:12px;font-style:normal;font-weight:normal;text-anchor:middle;" transform="rotate(-0, 118.665312, 15.789375)" x="118.665312" y="15.789375">0.39</text>
   </g>
  </g>
  <g id="axes_2">
   <g id="line2d_8">
    <path clip-path="url(#p84d2f33a28)" d="M 42.574403 67.085525 
L 53.444533 75.981827 
L 64.314663 96.607619 
L 75.184793 95.979593 
L 86.054923 60.461409 
L 96.925053 97.689741 
L 107.795183 99.41213 
L 118.665313 95.598665 
L 129.535442 87.451116 
L 140.405572 83.463621 
L 151.275702 87.132639 
L 162.145832 25.495739 
L 173.015962 78.867167 
L 183.886092 92.799375 
L 194.756222 99.623011 
" style="fill:none;stroke:#8b0046;stroke-linecap:round;stroke-width:0.5;"/>
    <defs>
     <path d="M 0 1.5 
C 0.397805 1.5 0.77937 1.341951 1.06066 1.06066 
C 1.341951 0.77937 1.5 0.397805 1.5 0 
C 1.5 -0.397805 1.341951 -0.77937 1.06066 -1.06066 
C 0.77937 -1.341951 0.397805 -1.5 0 -1.5 
C -0.397805 -1.5 -0.77937 -1.341951 -1.06066 -1.06066 
C -1.341951 -0.77937 -1.5 -0.397805 -1.5 0 
C -1.5 0.397805 -1.341951 0.77937 -1.06066 1.06066 
C -0.77937 1.341951 -0.397805 1.5 0 1.5 
z
" id="m820ec40936" style="stroke:#8b0046;"/>
    </defs>
    <g clip-path="url(#p84d2f33a28)">
     <use style="fill:#8b0046;stroke:#8b0046;" x="42.574403" xlink:href="#m820ec40936" y="67.085525"/>
     <use style="fill:#8b0046;stroke:#8b0046;" x="53.444533" xlink:href="#m820ec40936" y="75.981827"/>
     <use style="fill:#8b0046;stroke:#8b0046;" x="64.314663" xlink:href="#m820ec40936" y="96.607619"/>
     <use style="fill:#8b0046;stroke:#8b0046;" x="75.184793" xlink:href="#m820ec40936" y="95.979593"/>
     <use style="fill:#8b0046;stroke:#8b0046;" x="86.054923" xlink:href="#m820ec40936" y="60.461409"/>
     <use style="fill:#8b0046;stroke:#8b0046;" x="96.925053" xlink:href="#m820ec40936" y="97.689741"/>
     <use style="fill:#8b0046;stroke:#8b0046;" x="107.795183" xlink:href="#m820ec40936" y="99.41213"/>
     <use style="fill:#8b0046;stroke:#8b0046;" x="118.665313" xlink:href="#m820ec40936" y="95.598665"/>
     <use style="fill:#8b0046;stroke:#8b0046;" x="129.535442" xlink:href="#m820ec40936" y="87.451116"/>
     <use style="fill:#8b0046;stroke:#8b0046;" x="140.405572" xlink:href="#m820ec40936" y="83.463621"/>
     <use style="fill:#8b0046;stroke:#8b0046;" x="151.275702" xlink:href="#m820ec40936" y="87.132639"/>
     <use style="fill:#8b0046;stroke:#8b0046;" x="162.145832" xlink:href="#m820ec40936" y="25.495739"/>
     <use style="fill:#8b0046;stroke:#8b0046;" x="173.015962" xlink:href="#m820ec40936" y="78.867167"/>
     <use style="fill:#8b0046;stroke:#8b0046;" x="183.886092" xlink:href="#m820ec40936" y="92.799375"/>
     <use style="fill:#8b0046;stroke:#8b0046;" x="194.756222" xlink:href="#m820ec40936" y="99.623011"/>
    </g>
   </g>
   <g id="patch_5">
    <path d="M 202.365313 103.329375 
L 202.365313 21.789375 
" style="fill:none;stroke:#8b0046;stroke-linecap:square;stroke-linejoin:miter;"/>
   </g>
   <g id="matplotlib.axis_3">
    <g id="ytick_4">
     <g id="line2d_9"/>
     <g id="text_10">
      <text style="font-family:Arial;font-size:8px;font-style:normal;font-weight:normal;text-anchor:start;" transform="rotate(-0, 205.865313, 105.259692)" x="205.865313" y="105.259692">0</text>
     </g>
    </g>
    <g id="ytick_5">
     <g id="line2d_10"/>
     <g id="text_11">
      <text style="font-family:Arial;font-size:8px;font-style:normal;font-weight:normal;text-anchor:start;" transform="rotate(-0, 205.865313, 88.741292)" x="205.865313" y="88.741292">2</text>
     </g>
    </g>
    <g id="ytick_6">
     <g id="line2d_11"/>
     <g id="text_12">
      <text style="font-family:Arial;font-size:8px;font-style:normal;font-weight:normal;text-anchor:start;" transform="rotate(-0, 205.865313, 72.222892)" x="205.865313" y="72.222892">4</text>
     </g>
    </g>
    <g id="ytick_7">
     <g id="line2d_12"/>
     <g id="text_13">
      <text style="font-family:Arial;font-size:8px;font-style:normal;font-weight:normal;text-anchor:start;" transform="rotate(-0, 205.865313, 55.704492)" x="205.865313" y="55.704492">6</text>
     </g>
    </g>
    <g id="ytick_8">
     <g id="line2d_13"/>
     <g id="text_14">
      <text style="font-family:Arial;font-size:8px;font-style:normal;font-weight:normal;text-anchor:start;" transform="rotate(-0, 205.865313, 39.186092)" x="205.865313" y="39.186092">8</text>
     </g>
    </g>
    <g id="text_15">
     <text style="font-family:Arial;font-size:10px;font-style:normal;font-weight:normal;text-anchor:middle;" transform="rotate(-90, 221.471875, 62.559375)" x="221.471875" y="62.559375">Inhibition</text>
    </g>
   </g>
  </g>
 </g>
 <defs>
  <clipPath id="p84d2f33a28">
   <rect height="81.54" width="167.4" x="34.965313" y="21.789375"/>
  </clipPath>
 </defs>
</svg>
