<?xml version="1.0" encoding="utf-8" standalone="no"?>
<!DOCTYPE svg PUBLIC "-//W3C//DTD SVG 1.1//EN"
  "http://www.w3.org/Graphics/SVG/1.1/DTD/svg11.dtd">
<!-- Created with matplotlib (http://matplotlib.org/) -->
<svg height="108pt" version="1.1" viewBox="0 0 108 108" width="108pt" xmlns="http://www.w3.org/2000/svg" xmlns:xlink="http://www.w3.org/1999/xlink">
 <defs>
  <style type="text/css">
*{stroke-linecap:butt;stroke-linejoin:round;}
  </style>
 </defs>
 <g id="figure_1">
  <g id="patch_1">
   <path d="M 0 108 
L 108 108 
L 108 0 
L 0 0 
z
" style="fill:#ffffff;"/>
  </g>
  <g id="axes_1">
   <g id="patch_2">
    <path d="M 13.5 94.5 
L 97.2 94.5 
L 97.2 12.96 
L 13.5 12.96 
z
" style="fill:#ffffff;"/>
   </g>
   <g id="patch_3">
    <path clip-path="url(#pc035c4ae9e)" d="M 39.639621 94.5 
L 45.121562 94.5 
L 45.121562 62.523529 
L 39.639621 62.523529 
z
"/>
   </g>
   <g id="patch_4">
    <path clip-path="url(#pc035c4ae9e)" d="M 45.121562 94.5 
L 50.603503 94.5 
L 50.603503 30.547059 
L 45.121562 30.547059 
z
"/>
   </g>
   <g id="patch_5">
    <path clip-path="url(#pc035c4ae9e)" d="M 50.603503 94.5 
L 56.085444 94.5 
L 56.085444 44.251261 
L 50.603503 44.251261 
z
"/>
   </g>
   <g id="patch_6">
    <path clip-path="url(#pc035c4ae9e)" d="M 56.085444 94.5 
L 61.567385 94.5 
L 61.567385 30.547059 
L 56.085444 30.547059 
z
"/>
   </g>
   <g id="patch_7">
    <path clip-path="url(#pc035c4ae9e)" d="M 61.567385 94.5 
L 67.049326 94.5 
L 67.049326 16.842857 
L 61.567385 16.842857 
z
"/>
   </g>
   <g id="patch_8">
    <path clip-path="url(#pc035c4ae9e)" d="M 67.049326 94.5 
L 72.531266 94.5 
L 72.531266 35.115126 
L 67.049326 35.115126 
z
"/>
   </g>
   <g id="patch_9">
    <path clip-path="url(#pc035c4ae9e)" d="M 72.531266 94.5 
L 78.013207 94.5 
L 78.013207 76.227731 
L 72.531266 76.227731 
z
"/>
   </g>
   <g id="patch_10">
    <path clip-path="url(#pc035c4ae9e)" d="M 78.013207 94.5 
L 83.495148 94.5 
L 83.495148 53.387395 
L 78.013207 53.387395 
z
"/>
   </g>
   <g id="patch_11">
    <path clip-path="url(#pc035c4ae9e)" d="M 83.495148 94.5 
L 88.977089 94.5 
L 88.977089 57.955462 
L 83.495148 57.955462 
z
"/>
   </g>
   <g id="patch_12">
    <path clip-path="url(#pc035c4ae9e)" d="M 88.977089 94.5 
L 94.45903 94.5 
L 94.45903 71.659664 
L 88.977089 71.659664 
z
"/>
   </g>
   <g id="patch_13">
    <path d="M 13.5 94.5 
L 13.5 12.96 
" style="fill:none;stroke:#000000;stroke-linecap:square;stroke-linejoin:miter;"/>
   </g>
   <g id="patch_14">
    <path d="M 13.5 94.5 
L 97.2 94.5 
" style="fill:none;stroke:#000000;stroke-linecap:square;stroke-linejoin:miter;"/>
   </g>
   <g id="matplotlib.axis_1">
    <g id="xtick_1">
     <g id="line2d_1"/>
     <g id="text_1">
      <text style="font-family:Arial;font-size:8px;font-style:normal;font-weight:normal;text-anchor:middle;" transform="rotate(-0, 13.5, 103.72625)" x="13.5" y="103.72625">0</text>
     </g>
    </g>
    <g id="xtick_2">
     <g id="line2d_2"/>
     <g id="text_2">
      <text style="font-family:Arial;font-size:8px;font-style:normal;font-weight:normal;text-anchor:middle;" transform="rotate(-0, 45.478514, 103.72625)" x="45.478514" y="103.72625">100</text>
     </g>
    </g>
    <g id="xtick_3">
     <g id="line2d_3"/>
     <g id="text_3">
      <text style="font-family:Arial;font-size:8px;font-style:normal;font-weight:normal;text-anchor:middle;" transform="rotate(-0, 77.457028, 103.72625)" x="77.457028" y="103.72625">200</text>
     </g>
    </g>
    <g id="text_4">
     <!-- Inp Res (M$\Omega$) -->
     <g transform="translate(25.4 116.71625)">
      <text>
       <tspan style="font-family:Arial;font-size:10px;font-style:regular;font-weight:regular;" x="0 2.77832 8.339844 13.901367 16.679688 23.901367 29.462891 34.462891 37.241211 40.571289 56.542969" y="-0.625">Inp Res (M)</tspan>
       <tspan style="font-family:DejaVu Sans;font-size:10px;font-style:book;font-weight:book;" x="48.901367" y="-0.625">Ω</tspan>
      </text>
     </g>
    </g>
   </g>
   <g id="matplotlib.axis_2">
    <g id="ytick_1">
     <g id="line2d_4"/>
     <g id="text_5">
      <text style="font-family:Arial;font-size:8px;font-style:normal;font-weight:normal;text-anchor:end;" transform="rotate(-0, 10, 97.363125)" x="10" y="97.363125">0</text>
     </g>
    </g>
    <g id="ytick_2">
     <g id="line2d_5"/>
     <g id="text_6">
      <text style="font-family:Arial;font-size:8px;font-style:normal;font-weight:normal;text-anchor:end;" transform="rotate(-0, 10, 74.522789)" x="10" y="74.522789">5</text>
     </g>
    </g>
    <g id="ytick_3">
     <g id="line2d_6"/>
     <g id="text_7">
      <text style="font-family:Arial;font-size:8px;font-style:normal;font-weight:normal;text-anchor:end;" transform="rotate(-0, 10, 51.682453)" x="10" y="51.682453">10</text>
     </g>
    </g>
    <g id="ytick_4">
     <g id="line2d_7"/>
     <g id="text_8">
      <text style="font-family:Arial;font-size:8px;font-style:normal;font-weight:normal;text-anchor:end;" transform="rotate(-0, 10, 28.842117)" x="10" y="28.842117">15</text>
     </g>
    </g>
    <g id="text_9">
     <text style="font-family:Arial;font-size:10px;font-style:normal;font-weight:normal;text-anchor:middle;" transform="rotate(-90, -4.885, 53.73)" x="-4.885" y="53.73"># cells</text>
    </g>
   </g>
  </g>
 </g>
 <defs>
  <clipPath id="pc035c4ae9e">
   <rect height="81.54" width="83.7" x="13.5" y="12.96"/>
  </clipPath>
 </defs>
</svg>
