<?xml version="1.0" encoding="utf-8" standalone="no"?>
<!DOCTYPE svg PUBLIC "-//W3C//DTD SVG 1.1//EN"
  "http://www.w3.org/Graphics/SVG/1.1/DTD/svg11.dtd">
<!-- Created with matplotlib (http://matplotlib.org/) -->
<svg height="123pt" version="1.1" viewBox="0 0 128 123" width="128pt" xmlns="http://www.w3.org/2000/svg" xmlns:xlink="http://www.w3.org/1999/xlink">
 <defs>
  <style type="text/css">
*{stroke-linecap:butt;stroke-linejoin:round;}
  </style>
 </defs>
 <g id="figure_1">
  <g id="patch_1">
   <path d="M -0 123.901562 
L 128.735142 123.901562 
L 128.735142 0 
L -0 0 
z
" style="fill:none;opacity:0;"/>
  </g>
  <g id="axes_1">
   <g id="patch_2">
    <path d="M 34.966563 90.74 
L 118.666563 90.74 
L 118.666563 9.2 
L 34.966563 9.2 
z
" style="fill:none;"/>
   </g>
   <g id="line2d_1">
    <path clip-path="url(#p0d19af9a7e)" d="M 38.771108 59.272514 
L 38.80571 59.236025 
L 38.840313 59.264484 
L 39.013325 60.149847 
L 39.255543 61.02572 
L 39.290146 60.870142 
L 39.497761 58.15955 
L 39.566966 58.685587 
L 39.774581 61.573877 
L 39.809183 61.328145 
L 40.155208 57.434671 
L 40.189811 57.568656 
L 40.397426 59.288915 
L 40.466631 59.219611 
L 40.501233 59.188037 
L 40.535836 59.231646 
L 40.743451 60.153073 
L 40.778053 60.01192 
L 40.951066 57.882138 
L 41.297091 54.562748 
L 41.331693 54.346871 
L 41.366296 54.414911 
L 41.885333 59.548792 
L 41.919936 59.489634 
L 41.989141 59.343984 
L 42.023743 59.447134 
L 42.473576 62.450309 
L 42.646589 63.128254 
L 42.854204 65.247463 
L 42.888806 65.172568 
L 43.027216 63.71651 
L 43.269434 59.975203 
L 43.338639 60.358706 
L 43.580856 62.910723 
L 43.615459 62.875422 
L 43.753869 62.785419 
L 43.788471 62.822731 
L 43.857676 62.873315 
L 43.892279 62.819155 
L 44.030689 61.908092 
L 44.134496 61.389438 
L 44.169099 61.4002 
L 44.342111 61.989905 
L 44.376714 61.924606 
L 44.515124 60.393711 
L 44.618931 59.559757 
L 44.653534 59.659237 
L 44.791944 60.398776 
L 44.826546 60.279904 
L 45.034161 58.671487 
L 45.068764 58.819429 
L 45.207174 59.689011 
L 45.241776 59.429127 
L 45.380186 57.400584 
L 45.449391 57.697154 
L 45.657007 58.94901 
L 45.760814 59.997061 
L 45.933827 62.138369 
L 45.968429 62.131372 
L 46.072237 61.268056 
L 46.210647 60.02814 
L 46.245249 60.036786 
L 46.349057 60.82421 
L 46.660479 63.318955 
L 46.902697 64.097448 
L 47.006504 63.995202 
L 47.179517 62.960781 
L 47.421734 62.197947 
L 47.490939 62.54656 
L 47.629349 64.274502 
L 47.663952 64.179625 
L 47.836964 61.975447 
L 47.871567 62.174538 
L 48.044579 63.644048 
L 48.079182 63.591064 
L 48.182989 63.487421 
L 48.217592 63.546265 
L 48.321399 63.744929 
L 48.356002 63.701661 
L 48.459809 62.793715 
L 48.667424 60.904271 
L 49.01345 62.070753 
L 49.15186 62.850072 
L 49.186462 62.727696 
L 49.29027 62.118066 
L 49.324872 62.149258 
L 49.42868 63.828272 
L 49.636295 67.572594 
L 49.670897 67.506409 
L 49.913115 66.05592 
L 50.155332 62.630362 
L 50.224537 62.824774 
L 50.328345 63.153277 
L 50.362947 63.12435 
L 50.53596 62.772279 
L 50.67437 61.075713 
L 50.778177 60.200833 
L 50.81278 60.404035 
L 50.95119 61.800146 
L 50.985792 61.707731 
L 51.401022 58.544641 
L 51.435625 58.598742 
L 51.64324 59.191796 
L 51.816252 60.545225 
L 51.885457 60.377359 
L 52.33529 58.586237 
L 52.61211 58.970949 
L 52.681315 58.818689 
L 52.958135 58.266426 
L 53.061943 58.356794 
L 53.096545 58.396703 
L 53.131148 58.350306 
L 53.234955 57.049518 
L 53.373365 55.106678 
L 53.407968 55.550729 
L 53.753993 64.315112 
L 53.823198 63.895989 
L 54.100018 61.007445 
L 54.13462 61.100874 
L 54.27303 62.657982 
L 54.41144 64.009857 
L 54.446043 63.95845 
L 54.68826 62.851821 
L 54.757465 62.993073 
L 54.895875 64.247024 
L 55.138093 66.815366 
L 55.2419 65.608409 
L 55.38031 63.515677 
L 55.414913 63.570238 
L 55.587926 66.14934 
L 55.760938 67.897183 
L 55.795541 67.871303 
L 56.003156 66.822477 
L 56.037758 66.991993 
L 56.210771 68.443404 
L 56.245373 68.336307 
L 56.452988 66.550063 
L 56.522193 66.826987 
L 56.764411 68.086119 
L 56.937423 68.005771 
L 57.041231 67.215468 
L 57.248846 64.567484 
L 57.318051 64.716342 
L 57.664076 66.031351 
L 57.698678 65.85795 
L 57.837088 63.260804 
L 58.183113 56.620849 
L 58.494536 53.065412 
L 58.598343 51.601694 
L 59.221189 37.761025 
L 59.428804 36.125405 
L 59.671021 34.339877 
L 59.740226 34.657732 
L 60.017046 37.570385 
L 60.086251 37.275277 
L 60.709096 31.256024 
L 60.743699 31.352038 
L 60.951314 34.588829 
L 61.055121 33.556091 
L 61.262736 28.973597 
L 61.297339 29.020998 
L 61.504954 30.915859 
L 61.574159 30.558712 
L 61.816376 27.51679 
L 61.885581 27.833978 
L 62.058594 29.364011 
L 62.093197 29.227934 
L 62.439222 26.906071 
L 62.785247 26.007426 
L 62.923657 24.562422 
L 62.992862 24.80593 
L 63.165874 26.734775 
L 63.200477 26.662006 
L 63.408092 25.153609 
L 63.442694 25.288839 
L 63.650309 26.620683 
L 63.684912 26.528616 
L 63.754117 26.319084 
L 63.788719 26.390375 
L 63.892527 27.002674 
L 63.927129 26.899391 
L 64.134744 23.866181 
L 64.203949 24.308944 
L 64.446167 25.528051 
L 64.515372 25.589859 
L 64.549974 25.531699 
L 64.688384 25.102878 
L 64.722987 25.189776 
L 64.861397 25.807364 
L 64.895999 25.728393 
L 65.034409 24.697044 
L 65.172819 21.62046 
L 65.345832 17.887581 
L 65.380435 17.996408 
L 65.622652 20.861921 
L 65.86487 26.018696 
L 65.899472 25.751846 
L 66.072485 24.775307 
L 66.14169 24.666382 
L 66.2801 23.925001 
L 66.314702 24.028898 
L 66.453112 26.22192 
L 66.55692 27.366205 
L 66.591522 27.27877 
L 66.729932 24.860497 
L 66.902945 22.78571 
L 67.006752 23.010154 
L 67.041355 22.859838 
L 67.179765 20.534102 
L 67.283572 18.911467 
L 67.318175 18.989496 
L 67.94102 25.784849 
L 68.010225 25.619487 
L 68.287045 23.872301 
L 68.425455 23.934954 
L 68.563865 23.657527 
L 68.598467 23.752823 
L 68.875288 24.621234 
L 68.944493 24.632373 
L 69.082903 24.110722 
L 69.221313 22.827392 
L 69.32512 21.913422 
L 69.359723 22.206363 
L 69.60194 27.164876 
L 69.671145 26.840002 
L 69.74035 26.434709 
L 69.774953 26.518826 
L 69.982568 29.282671 
L 70.086375 28.667132 
L 70.190183 28.269196 
L 70.224785 28.374476 
L 70.29399 28.588919 
L 70.328593 28.503643 
L 70.4324 26.919613 
L 70.640015 23.869772 
L 70.778425 25.170492 
L 71.020643 27.634157 
L 71.055245 27.598704 
L 71.193655 26.351151 
L 71.332065 25.473783 
L 71.366668 25.519457 
L 71.505078 26.523835 
L 71.712693 29.835505 
L 71.781898 29.524679 
L 71.885705 28.63142 
L 71.920308 28.69423 
L 72.058718 29.742033 
L 72.127923 29.511284 
L 72.300936 28.346299 
L 72.335538 28.35988 
L 72.439346 28.792328 
L 72.716166 31.643903 
L 72.819973 31.07369 
L 72.889178 30.757328 
L 72.923781 30.863608 
L 73.131396 33.421082 
L 73.235203 32.906469 
L 73.304408 32.704685 
L 73.339011 32.821525 
L 73.581228 33.633991 
L 73.650433 33.487416 
L 73.823446 31.973249 
L 73.892651 32.23355 
L 74.238676 34.885365 
L 74.377086 35.25809 
L 74.411688 35.220648 
L 74.480893 35.180593 
L 74.515496 35.250379 
L 74.653906 36.226277 
L 74.757713 36.823502 
L 74.792316 36.72306 
L 75.242149 33.835821 
L 75.276751 33.831316 
L 75.380559 35.401678 
L 75.588174 38.379345 
L 75.657379 38.1218 
L 75.899596 35.523351 
L 76.072609 33.428287 
L 76.107211 33.467288 
L 76.176416 33.658324 
L 76.211019 33.637268 
L 76.314826 32.804037 
L 76.557044 31.299538 
L 76.695454 31.146958 
L 76.730056 31.214688 
L 76.833864 32.21479 
L 77.041479 34.434585 
L 77.076081 34.338632 
L 77.283696 33.147151 
L 77.318299 33.25022 
L 77.560516 34.809499 
L 77.629721 34.614969 
L 77.733529 34.11187 
L 77.768131 34.163136 
L 77.941144 35.472349 
L 78.010349 35.058496 
L 78.252566 31.900513 
L 78.287169 32.001532 
L 78.425579 32.441517 
L 78.460182 32.427709 
L 78.529387 32.52544 
L 78.633194 33.720386 
L 78.737002 35.091286 
L 78.771604 35.063975 
L 78.944617 32.978943 
L 79.013822 33.410584 
L 79.117629 34.543799 
L 79.152232 34.506259 
L 79.359847 31.705357 
L 79.463654 32.649337 
L 79.602064 33.897397 
L 79.636667 33.753979 
L 79.775077 33.108771 
L 79.809679 33.234677 
L 80.017294 34.225381 
L 80.051897 34.194419 
L 80.121102 34.204325 
L 80.224909 35.040041 
L 80.467127 37.132836 
L 80.640139 38.190465 
L 80.709344 37.953638 
L 80.951562 35.187255 
L 81.055369 35.479061 
L 81.089972 35.554518 
L 81.159177 35.441517 
L 81.228382 35.228463 
L 81.262984 35.250442 
L 81.435997 36.369232 
L 81.470599 36.161894 
L 81.712817 32.510107 
L 81.782022 32.958362 
L 82.058842 35.86967 
L 82.093445 35.806755 
L 82.30106 34.341227 
L 82.43947 33.822257 
L 82.474072 33.927539 
L 83.339135 39.748879 
L 83.615955 42.079917 
L 83.650557 42.096284 
L 83.68516 42.020056 
L 83.892775 40.456603 
L 83.96198 40.904151 
L 84.10039 42.013012 
L 84.134992 41.986986 
L 84.273402 41.265103 
L 84.342607 41.41677 
L 84.51562 42.1659 
L 84.550222 42.05991 
L 84.688632 41.481483 
L 84.723235 41.592356 
L 84.965452 43.318209 
L 85.000055 43.210301 
L 85.173068 41.432292 
L 85.242273 41.02788 
L 85.276875 41.128514 
L 85.48449 42.849145 
L 85.519093 42.729034 
L 85.692105 42.00595 
L 85.726708 42.135815 
L 86.280348 45.280969 
L 86.59177 46.497886 
L 86.764783 48.421138 
L 86.799385 47.986086 
L 87.007 42.46954 
L 87.076205 43.450509 
L 87.214615 45.194687 
L 87.249218 45.054455 
L 87.491435 44.090898 
L 87.595243 43.82794 
L 87.629845 43.929894 
L 87.906665 46.077635 
L 87.97587 45.904902 
L 88.11428 45.233109 
L 88.148883 45.247192 
L 88.25269 46.153473 
L 88.494908 48.342157 
L 88.633318 48.511959 
L 88.737126 47.875337 
L 88.944741 46.398876 
L 88.979343 46.447148 
L 89.117753 46.942195 
L 89.186958 46.80382 
L 89.221561 46.748158 
L 89.221561 46.748158 
L 89.221561 46.748158 
L 89.290766 47.188079 
L 89.740598 53.75775 
L 89.775201 53.65862 
L 89.913611 51.572687 
L 90.155828 47.832244 
L 90.190431 47.932686 
L 90.432648 50.355884 
L 90.501853 50.139591 
L 90.605661 49.79258 
L 90.640263 49.88175 
L 91.124698 53.520468 
L 91.228506 54.184418 
L 91.263108 54.117081 
L 91.366916 53.848588 
L 91.401518 53.899143 
L 91.470723 54.066765 
L 91.505326 54.036573 
L 91.643736 52.796447 
L 91.816749 51.99287 
L 91.989761 51.492747 
L 92.024364 51.581612 
L 92.162774 53.218888 
L 92.266581 54.001753 
L 92.301184 53.819103 
L 92.578004 49.767354 
L 92.647209 50.252766 
L 92.958631 55.013417 
L 93.062439 54.026724 
L 93.270054 49.793323 
L 93.304656 49.962187 
L 93.616079 55.575224 
L 93.719886 54.922997 
L 93.858296 54.431936 
L 93.892899 54.493282 
L 93.996706 55.701332 
L 94.135116 57.996047 
L 94.169719 57.772891 
L 94.481141 51.19086 
L 94.584949 51.550239 
L 94.688756 51.964745 
L 94.723359 51.909488 
L 94.896372 50.95116 
L 94.965577 51.220944 
L 95.138589 53.219688 
L 95.207794 52.937532 
L 95.380807 51.070141 
L 95.450012 51.197297 
L 95.623024 51.836565 
L 95.657627 51.692136 
L 95.796037 50.810497 
L 95.830639 50.971784 
L 96.245869 54.802727 
L 96.315074 54.682497 
L 96.384279 54.593216 
L 96.418882 54.665378 
L 96.557292 55.255872 
L 96.591894 55.188484 
L 96.799509 53.303961 
L 96.903317 53.753221 
L 97.007124 54.384851 
L 97.041727 54.321238 
L 97.180137 52.955547 
L 97.353149 51.655283 
L 97.387752 51.686418 
L 97.456957 51.684382 
L 97.595367 50.886265 
L 97.664572 50.666413 
L 97.699174 50.776071 
L 97.975994 52.15046 
L 98.079802 52.131125 
L 98.18361 51.985584 
L 98.287417 52.90111 
L 98.391225 53.726003 
L 98.425827 53.460243 
L 98.633442 50.521635 
L 98.668045 50.816886 
L 99.083275 56.022955 
L 99.117877 55.897475 
L 99.29089 54.262018 
L 99.325492 54.528825 
L 99.740722 59.285145 
L 99.809927 59.285678 
L 99.879132 59.632112 
L 100.086747 61.685685 
L 100.155952 61.47012 
L 100.467375 59.623804 
L 100.501977 59.654716 
L 100.605785 60.681278 
L 100.848002 63.945673 
L 100.882605 63.852201 
L 101.124822 61.008296 
L 101.263232 59.465938 
L 101.297835 59.489661 
L 101.470848 61.469834 
L 101.816873 65.082898 
L 101.886078 64.71999 
L 102.128295 61.178007 
L 102.1975 61.609078 
L 102.33591 62.568631 
L 102.370513 62.365927 
L 102.820345 57.488237 
L 102.88955 57.866843 
L 103.02796 58.713387 
L 103.062563 58.677426 
L 103.200973 57.860255 
L 103.30478 57.279355 
L 103.339383 57.417371 
L 103.5816 59.535674 
L 103.650805 59.468333 
L 103.754613 58.841448 
L 103.99683 55.848047 
L 104.066035 55.98796 
L 104.239048 57.992537 
L 104.377458 58.843368 
L 104.41206 58.797224 
L 104.515868 58.152396 
L 104.758086 55.970038 
L 104.792688 56.020767 
L 104.931098 57.098058 
L 105.069508 57.806201 
L 105.173316 56.896663 
L 105.311726 55.313648 
L 105.346328 55.398225 
L 105.519341 56.610942 
L 105.553943 56.521401 
L 106.661223 50.957382 
L 106.695826 50.965224 
L 106.834236 51.596922 
L 107.007248 52.283586 
L 107.041851 52.232239 
L 107.180261 51.086626 
L 107.284068 50.314669 
L 107.318671 50.321558 
L 107.422478 51.182273 
L 107.560888 52.168436 
L 107.595491 52.137208 
L 107.699298 52.04113 
L 107.733901 52.10116 
L 107.872311 52.633561 
L 108.045324 55.005545 
L 108.287541 57.558553 
L 108.322144 57.544887 
L 108.425951 56.52045 
L 108.633566 53.815593 
L 108.668169 53.90192 
L 108.806579 55.706467 
L 108.944989 57.483545 
L 108.979591 57.367421 
L 109.083399 55.101433 
L 109.256411 50.722685 
L 109.291014 50.847005 
L 109.775449 56.229714 
L 110.121474 58.316523 
L 110.259884 58.896381 
L 110.432896 59.852869 
L 110.467499 59.747978 
L 110.605909 59.164994 
L 110.640511 59.270612 
L 110.744319 59.816767 
L 110.813524 59.642592 
L 110.986536 58.651745 
L 111.021139 58.719344 
L 111.090344 58.873661 
L 111.124946 58.849555 
L 111.228754 57.995705 
L 111.332562 57.010114 
L 111.367164 57.06621 
L 111.470972 58.550683 
L 111.678587 61.975769 
L 111.713189 61.925026 
L 111.920804 59.758345 
L 111.990009 60.321875 
L 112.197624 62.611251 
L 112.232227 62.505462 
L 112.370637 61.051152 
L 112.543649 58.80505 
L 112.578252 58.852166 
L 112.716662 59.717439 
L 112.751264 59.646154 
L 113.270302 56.394709 
L 113.339507 56.5511 
L 113.962352 61.064518 
L 113.996954 61.018277 
L 114.100762 60.337311 
L 114.204569 59.583885 
L 114.239172 59.616612 
L 114.377582 61.064659 
L 114.481389 61.707289 
L 114.515992 61.505731 
L 114.862017 57.774452 
L 114.862017 57.774452 
" style="fill:none;stroke:#008080;stroke-linecap:round;stroke-width:0.5;"/>
   </g>
   <g id="line2d_2">
    <path clip-path="url(#p0d19af9a7e)" d="M 38.771108 86.980142 
L 38.94412 86.997973 
L 44.445919 86.890984 
L 44.618931 86.748333 
L 44.999559 86.088568 
L 45.310981 85.009763 
L 45.414789 84.064694 
L 45.483994 82.540102 
L 45.587801 82.771911 
L 45.726212 83.182036 
L 46.003032 83.663486 
L 46.245249 83.725896 
L 46.452864 83.65457 
L 46.660479 83.467339 
L 46.729684 81.523707 
L 46.868094 80.59647 
L 46.971902 80.186346 
L 47.006504 80.409239 
L 47.144914 80.123936 
L 47.179517 80.17743 
L 47.317927 80.079357 
L 47.560144 81.060089 
L 47.594747 81.006594 
L 47.767759 80.204178 
L 48.113784 80.016947 
L 48.390604 81.336477 
L 48.425207 81.291898 
L 48.598219 80.195261 
L 48.909642 80.025863 
L 49.01345 79.999115 
L 49.29027 81.318645 
L 49.463282 79.838632 
L 49.532487 79.86538 
L 49.670897 79.9902 
L 49.878512 79.704896 
L 50.086127 79.687065 
L 50.432152 80.979847 
L 50.466755 81.01551 
L 50.570562 79.794053 
L 50.605165 80.016947 
L 51.054997 79.428508 
L 51.262612 79.660317 
L 51.747047 81.702022 
L 52.05847 82.219135 
L 52.266085 82.370703 
L 52.439098 82.406366 
L 52.542905 80.47165 
L 52.577508 80.667796 
L 52.88893 80.079357 
L 52.923533 80.159599 
L 52.992738 80.070441 
L 53.061943 80.043694 
L 53.338763 81.167078 
L 53.546378 80.204178 
L 53.753993 80.043694 
L 53.892403 80.016947 
L 54.169223 81.425634 
L 54.376838 80.204178 
L 54.757465 80.025863 
L 55.034285 81.443466 
L 55.068888 81.363224 
L 55.2419 79.86538 
L 55.449515 80.070441 
L 55.484118 79.954537 
L 55.657131 79.767306 
L 55.864746 79.731643 
L 56.176168 81.523707 
L 56.245373 81.844674 
L 56.349181 80.293335 
L 56.383783 80.614302 
L 56.522193 80.435987 
L 57.179641 84.251925 
L 57.560268 85.723022 
L 57.871691 86.329293 
L 58.494536 86.819659 
L 58.944369 86.917732 
L 59.117381 86.953395 
L 59.463406 86.971226 
L 59.878636 86.989058 
L 60.086251 86.997973 
L 114.862017 86.997973 
L 114.862017 86.997973 
" style="fill:none;stroke:#0000ff;stroke-linecap:round;stroke-width:0.5;"/>
   </g>
   <g id="line2d_3">
    <path clip-path="url(#p0d19af9a7e)" d="M 38.771108 55.573173 
L 38.840313 54.821158 
L 39.013325 51.273763 
L 39.047928 51.614911 
L 39.186338 53.152627 
L 39.220941 53.067975 
L 39.290146 52.784823 
L 39.324748 52.812324 
L 39.463158 54.328431 
L 39.566966 55.031259 
L 39.601568 54.975484 
L 39.774581 54.364898 
L 39.809183 54.414227 
L 39.912991 54.659062 
L 39.947593 54.606149 
L 40.051401 54.275316 
L 40.086003 54.323454 
L 40.293618 55.832728 
L 40.328221 55.579079 
L 40.743451 50.849393 
L 40.847258 50.267238 
L 40.985668 48.940815 
L 41.054873 49.15119 
L 41.227886 51.135108 
L 41.470103 55.463792 
L 41.504706 55.420599 
L 41.643116 55.194738 
L 41.677718 55.21908 
L 41.746923 55.194221 
L 41.850731 54.607914 
L 42.023743 53.63457 
L 42.058346 53.73828 
L 42.300563 54.822851 
L 42.335166 54.791377 
L 42.508179 54.127632 
L 42.577384 54.432757 
L 42.715794 55.074006 
L 42.750396 54.972731 
L 42.958011 53.113669 
L 43.200229 51.650779 
L 43.234831 51.864201 
L 43.511651 56.243236 
L 43.615459 55.683368 
L 43.857676 54.632411 
L 44.030689 54.418627 
L 44.065291 54.545512 
L 44.549726 57.729829 
L 44.584329 57.747671 
L 44.722739 56.61365 
L 44.964956 52.863042 
L 45.034161 53.471736 
L 45.207174 56.202229 
L 45.241776 56.083675 
L 45.449391 54.142377 
L 45.518596 54.377274 
L 45.622404 55.080477 
L 45.657007 55.056891 
L 45.795417 53.600102 
L 46.037634 51.407491 
L 46.072237 51.5404 
L 46.245249 52.870442 
L 46.279852 52.679274 
L 46.418262 51.776133 
L 46.452864 51.830778 
L 46.591274 52.53122 
L 46.625877 52.491839 
L 46.729684 51.169268 
L 46.937299 48.116362 
L 46.971902 48.177285 
L 47.110312 50.214455 
L 47.248722 51.670363 
L 47.283324 51.532956 
L 47.525542 50.155949 
L 47.560144 50.163517 
L 47.629349 50.033309 
L 47.871567 48.281407 
L 47.940772 48.668503 
L 48.252194 50.785922 
L 48.286797 50.773243 
L 48.356002 50.828264 
L 48.494412 52.126255 
L 48.736629 53.540534 
L 48.771232 53.568054 
L 48.840437 52.979339 
L 49.01345 49.643995 
L 49.048052 49.866938 
L 49.255667 54.260057 
L 49.324872 53.537835 
L 49.532487 50.046207 
L 49.56709 50.258983 
L 49.809307 54.092986 
L 49.878512 53.779524 
L 50.362947 49.949975 
L 50.39755 49.886993 
L 50.432152 49.936561 
L 50.708972 51.145384 
L 50.778177 51.555815 
L 50.81278 51.515964 
L 50.985792 49.541231 
L 51.054997 49.985994 
L 51.22801 51.961424 
L 51.262612 51.838767 
L 51.50483 49.362385 
L 51.677842 47.825648 
L 51.712445 47.900565 
L 51.78165 48.070107 
L 51.816252 48.022666 
L 51.954662 47.355753 
L 52.023867 47.558706 
L 52.162277 48.635025 
L 52.19688 48.577155 
L 52.404495 46.703377 
L 52.4737 47.003355 
L 52.681315 48.691772 
L 52.715918 48.607306 
L 52.819725 46.754272 
L 52.992738 43.470409 
L 53.02734 43.708999 
L 53.16575 44.949012 
L 53.200353 44.910873 
L 53.234955 44.851432 
L 53.269558 44.929661 
L 53.373365 46.816606 
L 53.546378 49.91852 
L 53.58098 49.88697 
L 53.650185 49.756554 
L 53.684788 49.83328 
L 53.892403 51.178373 
L 53.927005 51.050629 
L 54.169223 49.945519 
L 54.203825 49.974502 
L 54.307633 50.094601 
L 54.342235 50.064084 
L 54.446043 49.529144 
L 54.722863 46.930379 
L 54.792068 47.088049 
L 54.82667 47.140025 
L 54.861273 47.056277 
L 54.999683 45.984201 
L 55.068888 46.373622 
L 55.207298 47.509702 
L 55.2419 47.414419 
L 55.311105 47.28656 
L 55.414913 48.42136 
L 55.518721 49.374396 
L 55.553323 49.265171 
L 55.726336 48.063947 
L 55.760938 48.231216 
L 56.003156 51.489026 
L 56.072361 51.034515 
L 56.695206 45.589803 
L 57.006628 40.076416 
L 57.041231 40.399458 
L 57.283448 45.390193 
L 57.352653 45.061458 
L 58.079306 35.121852 
L 58.113908 35.162394 
L 58.217716 35.425739 
L 58.252318 35.283743 
L 58.459933 33.691412 
L 58.529138 33.912621 
L 58.702151 34.996771 
L 58.736753 34.805334 
L 58.875164 31.223365 
L 58.978971 29.32523 
L 59.013574 29.679803 
L 59.221189 34.379515 
L 59.290394 34.193088 
L 59.740226 30.830709 
L 59.844034 31.053923 
L 59.913239 31.082024 
L 60.017046 30.662095 
L 60.155456 28.889961 
L 60.363071 26.573348 
L 60.466879 27.51292 
L 60.674494 28.910746 
L 60.778301 29.157993 
L 60.812904 29.127191 
L 61.055121 27.708674 
L 61.193531 27.000693 
L 61.228134 27.100337 
L 61.643364 29.462736 
L 61.677966 29.54545 
L 61.712569 29.507093 
L 61.885581 28.550059 
L 61.920184 28.737055 
L 62.162402 31.533875 
L 62.231607 31.062918 
L 62.404619 29.400204 
L 62.439222 29.507302 
L 62.646837 31.663314 
L 62.716042 31.094185 
L 62.992862 26.616953 
L 63.027464 26.819589 
L 63.200477 29.573323 
L 63.408092 32.290917 
L 63.511899 31.919585 
L 63.788719 31.280351 
L 64.100142 30.550246 
L 64.134744 30.56751 
L 64.203949 30.576645 
L 64.376962 29.96227 
L 64.446167 30.100175 
L 64.549974 31.318115 
L 64.722987 33.998233 
L 64.757589 33.921605 
L 64.965204 31.165361 
L 65.034409 31.572519 
L 65.276627 33.553247 
L 65.44964 33.610873 
L 65.622652 34.785331 
L 65.657255 34.567957 
L 65.830267 33.066987 
L 65.86487 33.118151 
L 66.00328 33.506139 
L 66.037882 33.472107 
L 66.14169 33.34109 
L 66.176292 33.401424 
L 66.660727 35.072335 
L 66.69533 35.103083 
L 66.729932 35.004367 
L 66.902945 33.145561 
L 66.97215 32.725188 
L 67.006752 32.779033 
L 67.214367 34.570888 
L 67.421982 36.467809 
L 67.456585 36.33156 
L 67.6642 34.219761 
L 67.768007 33.49541 
L 67.80261 33.539604 
L 68.252442 35.274602 
L 68.321647 35.046022 
L 68.563865 33.276995 
L 68.63307 33.406269 
L 68.77148 33.893112 
L 68.806083 33.739837 
L 68.944493 32.643203 
L 68.979095 32.735616 
L 69.18671 35.579182 
L 69.290518 35.112011 
L 69.359723 34.809395 
L 69.428928 34.908754 
L 69.498133 35.025208 
L 69.532735 34.941878 
L 69.705748 33.91474 
L 69.74035 34.091872 
L 70.01717 37.036178 
L 70.086375 36.891147 
L 70.29399 35.78033 
L 70.57081 34.522717 
L 70.674618 34.863596 
L 70.778425 35.189675 
L 70.813028 35.060921 
L 71.055245 33.023786 
L 71.12445 33.145258 
L 71.26286 33.655641 
L 71.470475 35.867683 
L 71.505078 35.571706 
L 71.747295 32.61442 
L 71.781898 32.674283 
L 71.885705 32.799993 
L 71.920308 32.73271 
L 72.024116 32.481221 
L 72.058718 32.571053 
L 72.162526 34.063733 
L 72.370141 37.450251 
L 72.404743 37.232851 
L 72.543153 33.923999 
L 72.681563 31.877984 
L 72.716166 32.051958 
L 72.819973 32.647512 
L 72.854576 32.425744 
L 73.027588 29.424611 
L 73.096793 30.027175 
L 73.339011 32.783081 
L 73.442818 33.04667 
L 73.477421 33.005585 
L 73.685036 31.896027 
L 73.754241 32.12674 
L 74.238676 33.698234 
L 74.342483 34.093272 
L 74.515496 34.81265 
L 74.550098 34.752872 
L 74.896123 33.262115 
L 74.930726 33.384019 
L 75.069136 35.654124 
L 75.311354 38.617372 
L 75.345956 38.577177 
L 75.449764 37.374211 
L 75.622776 34.788183 
L 75.657379 34.911711 
L 76.107211 40.26363 
L 76.176416 39.775374 
L 76.487839 37.033347 
L 76.591646 37.603146 
L 76.764659 39.170586 
L 76.799261 39.094116 
L 76.903069 38.514913 
L 76.937671 38.575971 
L 77.041479 40.302422 
L 77.179889 42.407319 
L 77.214491 42.278434 
L 77.387504 40.814081 
L 77.422106 40.911535 
L 77.698926 43.444161 
L 77.837336 44.501679 
L 77.871939 44.443659 
L 78.217964 42.97834 
L 78.252566 43.0347 
L 78.460182 44.760229 
L 78.529387 44.147653 
L 78.979219 38.175384 
L 79.048424 39.07378 
L 79.256039 43.768241 
L 79.290642 43.525932 
L 79.463654 41.992256 
L 79.498257 42.11733 
L 79.636667 42.642003 
L 79.671269 42.547082 
L 79.844282 41.710821 
L 79.878884 41.799732 
L 80.190307 43.125959 
L 80.224909 43.096326 
L 80.363319 42.873662 
L 80.397922 42.957505 
L 80.743947 44.451495 
L 80.778549 44.346178 
L 80.882357 42.659439 
L 81.020767 40.11579 
L 81.055369 40.295175 
L 81.262984 45.226497 
L 81.470599 47.058981 
L 81.609009 48.226218 
L 81.851227 50.551184 
L 81.88583 50.445285 
L 82.093445 47.336142 
L 82.197252 47.742909 
L 82.335662 48.356379 
L 82.370265 48.314918 
L 82.474072 47.621685 
L 82.71629 46.021258 
L 82.820097 45.620846 
L 82.889302 45.28748 
L 82.923905 45.356063 
L 83.027712 47.064347 
L 83.26993 50.409142 
L 83.477545 51.422269 
L 83.54675 51.261658 
L 83.754365 50.262007 
L 83.788967 50.3584 
L 83.96198 51.500546 
L 83.996582 51.375606 
L 84.204197 50.082135 
L 84.2388 50.1372 
L 84.411812 50.507845 
L 84.446415 50.494539 
L 84.51562 50.539113 
L 84.723235 51.104631 
L 84.757837 50.990671 
L 84.965452 48.837597 
L 85.034658 49.612767 
L 85.276875 52.143496 
L 85.34608 52.176784 
L 85.380683 52.112352 
L 85.519093 51.103565 
L 85.76131 49.075743 
L 85.830515 49.201757 
L 85.934323 49.420294 
L 85.968925 49.329245 
L 86.17654 48.386892 
L 86.245745 48.519409 
L 86.384155 48.978724 
L 86.418758 48.925211 
L 86.557168 48.503603 
L 86.59177 48.615572 
L 86.764783 49.82513 
L 86.799385 49.683231 
L 86.972398 47.732853 
L 87.007 47.892054 
L 87.249218 49.920826 
L 87.28382 49.87983 
L 87.353025 49.801779 
L 87.387628 49.858671 
L 87.526038 51.088872 
L 87.664448 51.755095 
L 87.69905 51.690631 
L 87.97587 50.757483 
L 88.045075 50.411822 
L 88.079678 50.43932 
L 88.218088 51.808717 
L 88.391101 52.465886 
L 88.494908 52.367797 
L 88.667921 51.431713 
L 88.737126 51.569668 
L 88.840933 51.885915 
L 88.875536 51.821751 
L 88.944741 51.608074 
L 88.979343 51.646159 
L 89.083151 53.15398 
L 89.221561 55.755708 
L 89.256163 55.709266 
L 89.463778 52.84956 
L 89.532983 53.436109 
L 89.844406 56.790408 
L 89.948213 55.733208 
L 90.086623 54.55503 
L 90.121226 54.741764 
L 90.259636 55.958904 
L 90.294238 55.880597 
L 90.467251 54.118834 
L 90.536456 54.481974 
L 90.709468 56.304728 
L 90.744071 56.05139 
L 90.951686 53.070999 
L 91.020891 53.489117 
L 91.297711 55.882314 
L 91.366916 56.094394 
L 91.401518 56.049284 
L 91.505326 54.842372 
L 91.678339 52.569341 
L 91.712941 52.899236 
L 91.955159 56.096879 
L 91.989761 56.090273 
L 92.058966 56.063738 
L 92.093569 56.128724 
L 92.197376 56.994373 
L 92.370389 58.678897 
L 92.404991 58.436893 
L 92.889426 52.824002 
L 92.993234 54.108271 
L 93.235451 56.590151 
L 93.408464 57.698748 
L 93.443066 57.687918 
L 93.789091 56.369456 
L 93.858296 56.486689 
L 93.962104 56.794757 
L 93.996706 56.759382 
L 94.204321 55.947513 
L 94.273526 56.059274 
L 94.342731 55.979162 
L 94.515744 55.255732 
L 94.550346 55.422556 
L 94.757961 57.992785 
L 94.792564 57.708644 
L 94.965577 54.071641 
L 95.034782 54.619425 
L 95.311602 58.549506 
L 95.450012 59.767109 
L 95.553819 60.448301 
L 95.588422 60.369563 
L 95.899844 58.341573 
L 95.969049 58.712473 
L 96.072857 59.316241 
L 96.142062 59.201462 
L 96.211267 58.977897 
L 96.245869 58.998397 
L 96.384279 59.663132 
L 96.453484 59.412022 
L 96.626497 58.567725 
L 96.661099 58.678303 
L 96.764907 60.761414 
L 96.868714 63.19516 
L 96.937919 62.742455 
L 97.110932 60.002186 
L 97.145534 60.011889 
L 97.456957 61.516035 
L 97.664572 62.911346 
L 97.768379 62.55026 
L 97.975994 60.778138 
L 98.045199 61.090952 
L 98.252815 63.824059 
L 98.32202 63.176939 
L 98.529635 58.917893 
L 98.564237 59.204831 
L 98.73725 61.849369 
L 98.806455 61.559606 
L 99.01407 58.55718 
L 99.083275 58.821872 
L 99.325492 61.179536 
L 99.360095 61.051925 
L 99.498505 60.347313 
L 99.533107 60.444246 
L 99.671517 62.386996 
L 99.809927 64.101234 
L 99.84453 63.993963 
L 100.017542 62.889251 
L 100.052145 63.012066 
L 100.12135 63.227943 
L 100.155952 63.09893 
L 100.25976 61.316981 
L 100.53658 56.481953 
L 100.67499 57.093642 
L 100.709592 57.026153 
L 100.8134 55.494181 
L 100.917207 54.100063 
L 100.95181 54.298749 
L 101.36704 60.52399 
L 101.401642 60.452292 
L 101.50545 59.278957 
L 101.678463 57.089017 
L 101.713065 57.214906 
L 101.886078 58.479677 
L 101.92068 58.306673 
L 102.1975 55.084297 
L 102.266705 55.580382 
L 102.61273 60.131045 
L 102.681935 60.34553 
L 102.716538 60.240229 
L 102.820345 58.392758 
L 102.958755 55.39815 
L 102.993358 55.682754 
L 103.270178 64.160933 
L 103.373985 62.60438 
L 103.546998 59.936459 
L 103.5816 59.96322 
L 103.789215 60.899191 
L 104.031433 62.756092 
L 104.066035 62.589485 
L 104.585073 58.547136 
L 104.619675 58.551938 
L 104.68888 58.635825 
L 104.723483 58.573068 
L 104.827291 57.626788 
L 104.965701 56.052628 
L 105.000303 56.18892 
L 105.242521 59.7186 
L 105.346328 59.366296 
L 105.415533 59.325101 
L 105.450136 59.353496 
L 105.553943 59.477702 
L 105.761558 60.460402 
L 105.830763 60.293609 
L 105.899968 60.142844 
L 105.934571 60.18433 
L 106.072981 61.077912 
L 106.176788 61.45296 
L 106.211391 61.328646 
L 106.557416 58.839938 
L 106.626621 59.100613 
L 106.765031 60.166514 
L 106.799633 60.021659 
L 106.972646 58.158306 
L 107.007248 58.40818 
L 107.422478 63.807192 
L 107.526286 63.105033 
L 107.630093 62.38578 
L 107.664696 62.411473 
L 107.803106 62.881967 
L 107.837708 62.836189 
L 107.976118 62.285713 
L 108.010721 62.371772 
L 108.218336 64.234522 
L 108.287541 63.681642 
L 108.425951 62.653223 
L 108.460554 62.803107 
L 108.598964 63.300072 
L 108.633566 63.194058 
L 108.910386 61.095584 
L 109.118001 60.213241 
L 109.187206 60.618132 
L 109.394821 63.239251 
L 109.464026 62.934564 
L 109.740846 60.538066 
L 109.810051 60.840613 
L 109.948461 62.043214 
L 109.983064 61.754572 
L 110.121474 59.605612 
L 110.190679 59.937519 
L 110.329089 61.606537 
L 110.398294 61.462326 
L 110.467499 61.303475 
L 110.502101 61.465688 
L 110.709716 64.008634 
L 110.778921 63.571669 
L 110.986536 59.866426 
L 111.055741 60.595832 
L 111.228754 63.172965 
L 111.263356 63.110488 
L 111.401767 61.038254 
L 111.574779 58.901275 
L 111.609382 59.048359 
L 111.990009 61.610791 
L 112.059214 61.710903 
L 112.093817 61.687389 
L 112.439842 60.721713 
L 112.612854 59.013025 
L 112.924277 56.851238 
L 112.958879 56.663482 
L 112.993482 56.701498 
L 113.097289 58.574435 
L 113.235699 61.26839 
L 113.270302 61.163247 
L 113.477917 58.408429 
L 113.547122 58.646611 
L 113.685532 60.490981 
L 113.823942 62.016281 
L 113.858544 61.822798 
L 114.204569 58.449447 
L 114.239172 58.547456 
L 114.377582 60.305277 
L 114.585197 62.695554 
L 114.6198 62.536037 
L 114.75821 59.420266 
L 114.862017 56.388924 
L 114.862017 56.388924 
" style="fill:none;stroke:#008080;stroke-linecap:round;stroke-width:0.5;"/>
   </g>
   <g id="line2d_4">
    <path clip-path="url(#p0d19af9a7e)" d="M 38.771108 86.997973 
L 44.515124 86.890984 
L 44.861149 86.534355 
L 45.310981 85.330729 
L 45.449391 83.476255 
L 45.518596 81.933831 
L 45.587801 82.308293 
L 45.760814 82.647091 
L 45.864622 82.638175 
L 46.141442 79.687065 
L 46.176044 79.802969 
L 46.210647 79.749475 
L 46.210647 79.749475 
L 46.383659 79.535496 
L 46.625877 79.473086 
L 47.387132 82.326124 
L 47.767759 82.566849 
L 47.836964 82.540102 
L 47.940772 80.59647 
L 48.009977 80.730206 
L 48.113784 80.204178 
L 48.148387 80.23984 
L 48.182989 80.284419 
L 48.217592 80.222009 
L 48.390604 80.106104 
L 48.494412 80.11502 
L 48.736629 81.158162 
L 48.805834 80.703459 
L 49.01345 80.159599 
L 49.29027 80.034778 
L 49.56709 81.354308 
L 49.601692 81.291898 
L 49.774705 80.230925 
L 49.98232 80.061525 
L 50.189935 80.070441 
L 50.432152 81.282982 
L 50.466755 81.336477 
L 50.639767 79.847547 
L 50.67437 79.785137 
L 50.708972 79.847547 
L 50.847382 80.008031 
L 50.881985 79.927789 
L 51.054997 79.722727 
L 51.262612 79.678149 
L 51.64324 81.024426 
L 51.747047 79.820801 
L 51.78165 79.972368 
L 51.816252 80.123936 
L 51.816252 80.123936 
L 51.816252 80.123936 
L 51.92006 79.588991 
L 51.954662 79.749475 
L 52.093072 79.473086 
L 52.127675 79.535496 
L 52.300688 79.446339 
L 52.404495 79.437424 
L 53.16575 82.121062 
L 53.477173 82.424197 
L 53.615583 82.442029 
L 53.71939 80.569723 
L 53.788595 80.712375 
L 53.892403 80.168514 
L 53.927005 80.275503 
L 53.961608 80.293335 
L 53.99621 80.213093 
L 54.238428 80.079357 
L 54.342235 80.525144 
L 54.515248 81.193825 
L 54.722863 80.257672 
L 54.930478 80.106104 
L 55.068888 80.061525 
L 55.345708 81.675275 
L 55.553323 80.293335 
L 55.760938 80.17743 
L 55.933951 80.355745 
L 57.006628 85.598202 
L 57.491063 86.507608 
L 57.594871 86.578933 
L 57.837088 86.757248 
L 58.113908 86.864237 
L 58.875164 86.96231 
L 59.186586 86.980142 
L 59.636419 86.989058 
L 114.862017 86.997973 
L 114.862017 86.997973 
" style="fill:none;stroke:#0000ff;stroke-linecap:round;stroke-width:0.5;"/>
   </g>
   <g id="line2d_5">
    <path clip-path="url(#p0d19af9a7e)" d="M 38.771108 56.543052 
L 38.978723 56.754354 
L 39.186338 57.951648 
L 39.255543 57.725704 
L 39.497761 54.831821 
L 39.566966 54.292769 
L 39.601568 54.372846 
L 39.739978 56.864399 
L 39.843786 58.191759 
L 39.878388 58.040698 
L 40.051401 56.683735 
L 40.086003 56.767966 
L 40.293618 57.782005 
L 40.328221 57.655313 
L 40.501233 55.62386 
L 40.743451 52.783277 
L 40.778053 52.846843 
L 40.916463 54.513801 
L 41.158681 58.170865 
L 41.193283 57.950805 
L 41.470103 52.8353 
L 41.539308 53.536767 
L 41.781526 56.219703 
L 42.058346 57.085978 
L 42.127551 56.838616 
L 42.369769 54.62136 
L 42.404371 54.868694 
L 42.577384 57.242799 
L 42.646589 56.909029 
L 42.992614 54.287728 
L 43.061819 54.951435 
L 43.234831 58.620181 
L 43.269434 58.474263 
L 43.477049 54.454487 
L 43.580856 55.102714 
L 43.684664 55.673299 
L 43.719266 55.620109 
L 43.788471 55.490136 
L 43.823074 55.520946 
L 43.961484 55.909075 
L 43.996086 55.87649 
L 44.099894 55.224596 
L 44.272906 53.854776 
L 44.307509 53.875169 
L 44.791944 55.265276 
L 44.861149 55.116532 
L 44.999559 54.622862 
L 45.034161 54.78744 
L 45.276379 57.094337 
L 45.310981 56.831944 
L 45.518596 52.850534 
L 45.553199 53.376426 
L 45.795417 61.875052 
L 45.864622 60.795399 
L 46.210647 54.050313 
L 46.349057 52.918071 
L 46.487467 54.37761 
L 46.625877 55.273284 
L 46.660479 55.160529 
L 46.833492 54.425258 
L 46.868094 54.439206 
L 46.937299 54.325008 
L 47.144914 52.641791 
L 47.214119 53.15928 
L 47.421734 55.782953 
L 47.456337 55.764208 
L 47.560144 55.597109 
L 47.594747 55.635628 
L 47.663952 55.657206 
L 47.836964 54.809651 
L 47.906169 55.223202 
L 48.044579 56.622567 
L 48.113784 56.42383 
L 48.356002 54.499008 
L 48.390604 54.553977 
L 48.632822 56.129946 
L 48.944245 57.979493 
L 49.01345 57.862126 
L 49.186462 57.114367 
L 49.221065 57.176607 
L 49.29027 57.31048 
L 49.324872 57.264642 
L 49.497885 56.295607 
L 49.532487 56.477406 
L 49.7055 59.787905 
L 49.809307 61.197865 
L 49.84391 61.141384 
L 49.947717 59.27359 
L 50.155332 56.233862 
L 50.293742 56.878422 
L 50.53596 59.5029 
L 50.605165 59.138372 
L 50.881985 55.164485 
L 50.916587 55.350294 
L 51.158805 58.013485 
L 51.193407 57.79509 
L 51.435625 55.277058 
L 51.470227 55.384573 
L 51.712445 57.59911 
L 51.78165 57.150226 
L 51.954662 56.259821 
L 52.05847 56.437133 
L 52.19688 56.813803 
L 52.231483 56.792216 
L 52.33529 56.170991 
L 52.715918 53.087468 
L 52.819725 53.03224 
L 53.02734 52.063973 
L 53.061943 52.250536 
L 53.269558 54.21056 
L 53.30416 53.997671 
L 53.546378 50.595835 
L 53.615583 51.402212 
L 53.892403 56.058735 
L 53.927005 55.915788 
L 54.13462 53.82807 
L 54.169223 53.977619 
L 54.27303 54.574947 
L 54.307633 54.456832 
L 54.515248 51.82552 
L 54.584453 52.287612 
L 54.653658 52.718487 
L 54.68826 52.68206 
L 54.895875 51.234669 
L 54.96508 51.431844 
L 55.311105 53.104521 
L 55.345708 52.989182 
L 55.449515 50.764895 
L 55.587926 47.818867 
L 55.622528 47.940592 
L 55.830143 50.12768 
L 55.864746 50.017303 
L 55.968553 49.772958 
L 56.003156 49.817227 
L 56.314578 50.721511 
L 56.522193 52.493017 
L 56.660603 52.131035 
L 56.729808 52.21475 
L 56.799013 52.236511 
L 56.937423 51.593295 
L 57.145038 50.970269 
L 57.248846 50.706354 
L 57.352653 49.616308 
L 57.525666 46.565828 
L 57.594871 46.838114 
L 57.767883 48.29778 
L 57.802486 48.25741 
L 58.148511 46.942079 
L 58.321523 45.378419 
L 58.771356 42.017937 
L 58.978971 41.064721 
L 59.221189 41.172143 
L 59.255791 41.084027 
L 59.359599 39.699886 
L 59.498009 37.148012 
L 59.532611 37.307284 
L 59.740226 42.575228 
L 59.809431 41.692297 
L 60.120854 35.915657 
L 60.224661 35.579021 
L 60.259264 35.668976 
L 60.397674 36.283267 
L 60.432276 36.175435 
L 60.639891 33.688317 
L 60.743699 34.009035 
L 60.778301 33.989126 
L 60.951314 32.777756 
L 61.124326 32.068351 
L 61.193531 32.061273 
L 61.262736 31.559533 
L 61.539556 26.158735 
L 61.608761 26.937755 
L 61.816376 31.069545 
L 61.850979 30.773903 
L 62.093197 27.666291 
L 62.127799 27.809041 
L 62.266209 29.772506 
L 62.404619 31.132416 
L 62.439222 30.911271 
L 62.577632 29.740118 
L 62.612234 29.851476 
L 62.854452 31.740981 
L 62.889054 31.718399 
L 62.992862 30.947892 
L 63.165874 29.198774 
L 63.200477 29.334359 
L 63.338887 30.213771 
L 63.373489 30.040464 
L 63.581104 27.049721 
L 63.650309 27.916043 
L 63.788719 29.637466 
L 63.823322 29.58366 
L 64.030937 28.824008 
L 64.065539 28.843798 
L 64.446167 29.606873 
L 64.584577 30.316144 
L 64.619179 30.232583 
L 64.688384 30.097047 
L 64.757589 30.726889 
L 64.930602 33.745386 
L 64.965204 33.640168 
L 65.345832 27.922135 
L 65.484242 26.243285 
L 65.518845 26.494139 
L 65.795665 31.801267 
L 65.899472 31.66068 
L 66.037882 32.04911 
L 66.107087 31.876657 
L 66.349305 29.842158 
L 66.453112 30.091627 
L 66.487715 30.123015 
L 66.522317 30.033695 
L 66.729932 28.788536 
L 66.764535 28.962603 
L 67.041355 31.603773 
L 67.11056 31.332317 
L 67.421982 29.322595 
L 67.491187 29.598103 
L 67.629597 30.341262 
L 67.6642 30.325316 
L 67.698802 30.328071 
L 67.768007 30.758587 
L 67.94102 33.142627 
L 67.975622 32.987734 
L 68.148635 31.363103 
L 68.183237 31.503962 
L 68.287045 31.784776 
L 68.321647 31.710979 
L 68.460057 31.434693 
L 68.49466 31.479619 
L 68.667673 31.979051 
L 68.702275 31.869902 
L 68.840685 30.123659 
L 68.979095 28.803416 
L 69.013698 28.947562 
L 69.255915 31.759761 
L 69.32512 31.216243 
L 69.532735 26.93939 
L 69.567338 27.307005 
L 69.809555 32.226466 
L 69.844158 31.990812 
L 69.947965 31.282852 
L 69.982568 31.470178 
L 70.224785 34.637522 
L 70.29399 34.168822 
L 70.397798 33.520327 
L 70.4324 33.608039 
L 70.605413 34.520345 
L 70.640015 34.448403 
L 70.778425 34.000185 
L 70.813028 34.134707 
L 70.916835 34.756344 
L 70.98604 34.546874 
L 71.12445 33.353445 
L 71.159053 33.551723 
L 71.297463 35.305681 
L 71.366668 34.818608 
L 71.505078 33.326917 
L 71.53968 33.64133 
L 71.885705 38.60598 
L 71.920308 38.510645 
L 72.058718 37.200389 
L 72.404743 33.754858 
L 72.473948 34.014459 
L 72.612358 36.000103 
L 72.819973 39.24391 
L 72.854576 39.094428 
L 73.062191 35.169808 
L 73.165998 35.976311 
L 73.339011 37.528131 
L 73.373613 37.519555 
L 73.512023 36.934174 
L 73.581228 37.223895 
L 73.823446 40.044482 
L 73.858048 39.941003 
L 74.031061 39.198848 
L 74.065663 39.301917 
L 74.204073 40.095855 
L 74.273278 39.943036 
L 74.446291 39.106845 
L 74.480893 39.125072 
L 74.584701 39.060678 
L 74.653906 39.062797 
L 74.757713 39.277156 
L 74.792316 39.195678 
L 74.965328 37.797833 
L 75.034533 38.06006 
L 75.207546 40.38402 
L 75.276751 39.999623 
L 75.449764 36.912948 
L 75.518969 37.478755 
L 75.726584 40.666073 
L 75.761186 40.550157 
L 75.899596 40.261708 
L 75.934199 40.279789 
L 76.003404 40.411509 
L 76.107211 41.563009 
L 76.314826 44.40906 
L 76.349429 44.310746 
L 76.591646 41.901776 
L 76.799261 40.466843 
L 76.833864 40.486853 
L 76.937671 40.729455 
L 77.041479 42.203737 
L 77.214491 45.765132 
L 77.249094 45.380715 
L 77.491311 40.171266 
L 77.560516 40.514874 
L 77.768131 42.801526 
L 77.802734 42.771655 
L 77.871939 42.787101 
L 78.460182 45.38826 
L 78.529387 45.169178 
L 78.633194 44.786528 
L 78.667797 44.963584 
L 78.806207 46.037992 
L 78.840809 45.932684 
L 79.083027 43.760254 
L 79.152232 43.896299 
L 79.221437 44.021693 
L 79.256039 43.951646 
L 79.394449 42.764508 
L 79.532859 41.809048 
L 79.567462 42.067997 
L 79.982692 46.807853 
L 80.086499 47.064877 
L 80.121102 47.014329 
L 80.259512 46.238135 
L 80.328717 46.404124 
L 80.536332 47.489735 
L 80.570934 47.480134 
L 80.674742 46.91925 
L 80.847754 46.254362 
L 81.089972 46.445881 
L 81.124574 46.310162 
L 81.262984 44.600064 
L 81.470599 41.572793 
L 81.505202 41.680286 
L 81.782022 45.979903 
L 82.02424 48.800873 
L 82.16265 48.159078 
L 82.474072 46.810375 
L 82.508675 46.891043 
L 82.612482 48.268095 
L 82.750892 50.083053 
L 82.785495 49.892069 
L 82.958507 46.088186 
L 83.062315 44.675555 
L 83.096917 44.857856 
L 83.304532 47.567047 
L 83.339135 47.283665 
L 83.512147 44.883162 
L 83.54675 45.071404 
L 83.754365 47.576367 
L 83.82357 47.255488 
L 83.96198 46.163126 
L 83.996582 46.192899 
L 84.134992 46.903848 
L 84.169595 46.629323 
L 84.342607 44.409742 
L 84.37721 44.529057 
L 84.584825 45.586407 
L 84.619427 45.512895 
L 84.757837 44.685066 
L 85.20767 41.091837 
L 85.34608 41.069585 
L 85.519093 39.611048 
L 85.553695 39.88458 
L 85.830515 43.460134 
L 85.865118 43.449343 
L 85.934323 43.52604 
L 86.072733 43.88326 
L 86.107335 43.819075 
L 86.45336 42.070354 
L 86.626373 40.538398 
L 86.660975 40.715916 
L 86.86859 41.986915 
L 86.903193 41.947362 
L 86.972398 41.889364 
L 87.007 41.918569 
L 87.249218 42.558093 
L 87.387628 43.568931 
L 87.42223 43.518375 
L 87.56064 42.608519 
L 87.595243 42.936802 
L 87.802858 46.029728 
L 87.83746 45.856354 
L 88.11428 42.968281 
L 88.25269 41.92418 
L 88.287293 42.005535 
L 88.667921 44.742521 
L 88.737126 44.311144 
L 89.013946 41.6145 
L 89.048548 41.676015 
L 89.256163 43.163452 
L 89.325368 42.758329 
L 89.498381 41.019496 
L 89.567586 41.34414 
L 89.844406 46.539004 
L 89.913611 45.923692 
L 90.052021 44.545114 
L 90.086623 44.562887 
L 90.328841 45.957857 
L 90.432648 45.746699 
L 90.605661 44.839291 
L 90.882481 43.041326 
L 90.986288 43.306062 
L 91.159301 44.182559 
L 91.193903 43.935375 
L 91.436121 39.167651 
L 91.505326 39.768514 
L 91.885954 50.867422 
L 91.955159 50.633406 
L 92.128171 49.23772 
L 92.266581 48.147387 
L 92.301184 48.284644 
L 92.508799 50.101645 
L 92.578004 49.771214 
L 92.854824 48.171506 
L 92.924029 48.424093 
L 93.097041 49.87454 
L 93.131644 49.779266 
L 93.443066 46.172282 
L 93.512271 46.577812 
L 93.892899 50.382222 
L 93.927501 50.232285 
L 94.273526 47.462673 
L 94.308129 47.530697 
L 94.515744 48.786951 
L 94.654154 48.71702 
L 94.792564 48.790864 
L 94.896372 48.27448 
L 95.069384 46.989985 
L 95.103987 46.997194 
L 95.207794 47.634731 
L 95.311602 48.176268 
L 95.346204 47.975793 
L 95.553819 44.367199 
L 95.623024 45.266411 
L 95.830639 48.291468 
L 95.899844 48.087385 
L 96.418882 44.872271 
L 96.453484 45.08171 
L 96.903317 48.956798 
L 96.972522 49.168964 
L 96.972522 49.168964 
L 96.972522 49.168964 
L 97.076329 47.891773 
L 97.214739 46.362712 
L 97.249342 46.439671 
L 97.353149 46.964193 
L 97.387752 46.803827 
L 97.560764 44.497329 
L 97.595367 44.713825 
L 97.768379 47.030495 
L 97.837584 46.698351 
L 97.941392 46.22047 
L 97.975994 46.332981 
L 98.529635 50.040685 
L 98.59884 49.550389 
L 98.806455 46.884981 
L 98.841057 46.902762 
L 98.910262 46.893447 
L 99.048672 46.411375 
L 99.083275 46.558998 
L 99.29089 48.806919 
L 99.325492 48.43555 
L 99.533107 44.772236 
L 99.602312 45.074973 
L 99.70612 45.417125 
L 99.740722 45.341167 
L 99.98294 44.287821 
L 100.017542 44.409144 
L 100.25976 45.929207 
L 100.294362 45.820071 
L 100.432772 45.344016 
L 100.467375 45.375337 
L 100.67499 45.916118 
L 100.986412 50.370247 
L 101.055617 50.008046 
L 101.332437 47.253042 
L 101.50545 44.485352 
L 101.540053 44.711258 
L 101.78227 48.562309 
L 101.851475 48.239099 
L 102.024488 47.558515 
L 102.05909 47.59129 
L 102.162898 48.72691 
L 102.266705 49.826612 
L 102.301308 49.683649 
L 102.543525 46.977256 
L 102.578128 47.13718 
L 102.75114 48.477651 
L 102.785743 48.389659 
L 103.02796 45.665318 
L 103.097165 46.064988 
L 103.30478 48.959927 
L 103.339383 48.715891 
L 103.512395 46.098256 
L 103.5816 46.464728 
L 103.962228 49.350695 
L 104.031433 49.117985 
L 104.239048 46.944997 
L 104.446663 44.4077 
L 104.481265 44.41708 
L 104.654278 45.021721 
L 104.827291 45.608599 
L 104.861893 45.583788 
L 104.965701 44.798888 
L 105.207918 42.765136 
L 105.277123 42.610267 
L 105.484738 40.478557 
L 105.553943 40.823273 
L 105.865366 43.472271 
L 106.142186 45.185399 
L 106.280596 46.224007 
L 106.315198 46.14095 
L 106.384403 45.968169 
L 106.419006 45.998639 
L 106.488211 46.16252 
L 106.522813 46.108977 
L 106.626621 44.73718 
L 106.730428 43.243306 
L 106.765031 43.254396 
L 106.903441 45.354779 
L 106.972646 46.065849 
L 107.041851 45.792618 
L 107.180261 44.495582 
L 107.214863 44.530891 
L 107.318671 44.904073 
L 107.353273 44.765294 
L 107.526286 43.179921 
L 107.560888 43.532363 
L 107.768503 47.49943 
L 107.837708 47.129255 
L 107.941516 46.111635 
L 108.010721 46.301188 
L 108.114529 46.851054 
L 108.149131 46.814787 
L 108.287541 45.93091 
L 108.460554 44.557802 
L 108.495156 44.753023 
L 108.668169 46.993445 
L 108.737374 46.697859 
L 108.875784 45.532617 
L 108.910386 45.834147 
L 109.152604 48.648156 
L 109.187206 48.599066 
L 109.291014 48.02058 
L 109.533231 44.733016 
L 109.567834 45.064743 
L 109.844654 49.950033 
L 109.879256 49.737994 
L 110.086871 47.704565 
L 110.121474 47.913359 
L 110.259884 49.276969 
L 110.329089 48.951993 
L 110.502101 46.568574 
L 110.571306 46.822597 
L 110.709716 47.839909 
L 110.744319 47.786852 
L 110.882729 46.622102 
L 111.090344 44.573637 
L 111.124946 44.638028 
L 111.228754 46.276706 
L 111.367164 48.331557 
L 111.401767 48.084434 
L 111.574779 45.657904 
L 111.609382 45.928766 
L 111.816997 47.716075 
L 111.920804 47.540363 
L 112.059214 47.098342 
L 112.093817 47.130456 
L 112.197624 47.996602 
L 112.370637 49.588773 
L 112.405239 49.488831 
L 112.993482 45.519696 
L 113.062687 45.829155 
L 113.270302 48.994508 
L 113.339507 48.663254 
L 113.547122 45.437199 
L 113.581724 45.678421 
L 114.031557 50.106645 
L 114.169967 48.88607 
L 114.308377 48.260277 
L 114.342979 48.272952 
L 114.446787 48.365402 
L 114.481389 48.310156 
L 114.723607 47.099465 
L 114.792812 47.330264 
L 114.862017 47.781404 
L 114.862017 47.781404 
" style="fill:none;stroke:#008080;stroke-linecap:round;stroke-width:0.5;"/>
   </g>
   <g id="line2d_6">
    <path clip-path="url(#p0d19af9a7e)" d="M 38.771108 86.989058 
L 38.94412 87.006889 
L 44.480521 86.917732 
L 45.137969 86.284714 
L 45.310981 85.928084 
L 45.414789 85.321814 
L 45.587801 82.263714 
L 45.691609 82.780827 
L 45.864622 83.262277 
L 46.037634 80.034778 
L 46.072237 79.892127 
L 46.141442 80.025863 
L 46.279852 80.008031 
L 46.452864 79.75839 
L 46.660479 79.669232 
L 47.041107 81.14033 
L 47.144914 79.856463 
L 47.214119 80.132851 
L 47.317927 79.588991 
L 47.352529 79.722727 
L 47.560144 79.482002 
L 47.802362 79.437424 
L 48.044579 80.605386 
L 48.425207 81.933831 
L 48.736629 82.317209 
L 49.01345 82.424197 
L 49.117257 80.59647 
L 49.186462 80.72129 
L 49.29027 80.186346 
L 49.324872 80.257672 
L 49.359475 80.284419 
L 49.394077 80.213093 
L 49.601692 80.070441 
L 49.670897 80.132851 
L 49.913115 81.07792 
L 50.12073 80.204178 
L 50.466755 80.043694 
L 50.743575 81.398887 
L 50.95119 80.222009 
L 51.193407 80.070441 
L 51.331817 80.025863 
L 51.64324 81.336477 
L 51.78165 79.918873 
L 51.850855 79.856463 
L 51.885457 79.909958 
L 52.023867 79.9902 
L 52.162277 79.69598 
L 52.19688 79.722727 
L 52.439098 79.651401 
L 52.681315 80.7837 
L 52.819725 81.01551 
L 52.923533 79.856463 
L 52.958135 80.061525 
L 53.061943 79.597907 
L 53.096545 79.642486 
L 53.131148 79.69598 
L 53.131148 79.69598 
L 53.131148 79.69598 
L 53.234955 79.482002 
L 53.269558 79.57116 
L 53.44257 79.455255 
L 53.546378 79.437424 
L 53.650185 79.936705 
L 54.307633 82.540102 
L 54.757465 83.378182 
L 54.82667 81.630696 
L 54.96508 80.89069 
L 55.034285 80.676712 
L 55.068888 80.712375 
L 55.276503 81.318645 
L 56.279976 85.981579 
L 56.764411 86.632428 
L 57.041231 86.783996 
L 57.248846 86.873153 
L 58.217716 86.971226 
L 58.494536 86.989058 
L 58.944369 86.997973 
L 114.862017 86.989058 
L 114.862017 86.989058 
" style="fill:none;stroke:#0000ff;stroke-linecap:round;stroke-width:0.5;"/>
   </g>
   <g id="line2d_7">
    <defs>
     <path d="M 0 0.75 
C 0.198902 0.75 0.389685 0.670975 0.53033 0.53033 
C 0.670975 0.389685 0.75 0.198902 0.75 0 
C 0.75 -0.198902 0.670975 -0.389685 0.53033 -0.53033 
C 0.389685 -0.670975 0.198902 -0.75 0 -0.75 
C -0.198902 -0.75 -0.389685 -0.670975 -0.53033 -0.53033 
C -0.670975 -0.389685 -0.75 -0.198902 -0.75 0 
C -0.75 0.198902 -0.670975 0.389685 -0.53033 0.53033 
C -0.389685 0.670975 -0.198902 0.75 0 0.75 
z
" id="m93e844ea26" style="stroke:#000000;"/>
    </defs>
    <g clip-path="url(#p0d19af9a7e)">
     <use style="stroke:#000000;" x="65.345832" xlink:href="#m93e844ea26" y="12.906364"/>
     <use style="stroke:#000000;" x="60.363071" xlink:href="#m93e844ea26" y="12.906364"/>
     <use style="stroke:#000000;" x="61.539556" xlink:href="#m93e844ea26" y="12.906364"/>
    </g>
   </g>
   <g id="patch_3">
    <path d="M 34.966563 90.74 
L 34.966563 9.2 
" style="fill:none;stroke:#000000;stroke-linecap:square;stroke-linejoin:miter;"/>
   </g>
   <g id="patch_4">
    <path d="M 34.966563 90.74 
L 118.666563 90.74 
" style="fill:none;stroke:#000000;stroke-linecap:square;stroke-linejoin:miter;"/>
   </g>
   <g id="matplotlib.axis_1">
    <g id="xtick_1">
     <g id="line2d_8">
      <defs>
       <path d="M 0 0 
L 0 2 
" id="m2dfbe0a36f" style="stroke:#000000;stroke-width:0.8;"/>
      </defs>
      <g>
       <use style="stroke:#000000;stroke-width:0.8;" x="45.674308" xlink:href="#m2dfbe0a36f" y="90.74"/>
      </g>
     </g>
     <g id="text_1">
      <text style="font-family:Arial;font-size:8px;font-style:normal;font-weight:400;text-anchor:middle;" transform="rotate(-0, 45.674308, 101.96625)" x="45.674308" y="101.96625">100</text>
     </g>
    </g>
    <g id="xtick_2">
     <g id="line2d_9">
      <g>
       <use style="stroke:#000000;stroke-width:0.8;" x="80.268162" xlink:href="#m2dfbe0a36f" y="90.74"/>
      </g>
     </g>
     <g id="text_2">
      <text style="font-family:Arial;font-size:8px;font-style:normal;font-weight:400;text-anchor:middle;" transform="rotate(-0, 80.268162, 101.96625)" x="80.268162" y="101.96625">150</text>
     </g>
    </g>
    <g id="xtick_3">
     <g id="line2d_10">
      <g>
       <use style="stroke:#000000;stroke-width:0.8;" x="114.862017" xlink:href="#m2dfbe0a36f" y="90.74"/>
      </g>
     </g>
     <g id="text_3">
      <text style="font-family:Arial;font-size:8px;font-style:normal;font-weight:400;text-anchor:middle;" transform="rotate(-0, 114.862017, 101.96625)" x="114.862017" y="101.96625">200</text>
     </g>
    </g>
    <g id="text_4">
     <text style="font-family:Arial;font-size:10px;font-style:normal;font-weight:400;text-anchor:middle;" transform="rotate(-0, 76.816563, 114.714062)" x="76.816563" y="114.714062">Time</text>
    </g>
   </g>
   <g id="matplotlib.axis_2">
    <g id="ytick_1">
     <g id="line2d_11">
      <defs>
       <path d="M 0 0 
L -2 0 
" id="m3e6969364a" style="stroke:#000000;stroke-width:0.8;"/>
      </defs>
      <g>
       <use style="stroke:#000000;stroke-width:0.8;" x="34.966563" xlink:href="#m3e6969364a" y="87.015805"/>
      </g>
     </g>
     <g id="text_5">
      <text style="font-family:Arial;font-size:8px;font-style:normal;font-weight:400;text-anchor:end;" transform="rotate(-0, 29.466563, 89.87893)" x="29.466563" y="89.87893">1</text>
     </g>
    </g>
    <g id="ytick_2">
     <g id="line2d_12">
      <g>
       <use style="stroke:#000000;stroke-width:0.8;" x="34.966563" xlink:href="#m3e6969364a" y="58.512174"/>
      </g>
     </g>
     <g id="text_6">
      <text style="font-family:Arial;font-size:8px;font-style:normal;font-weight:400;text-anchor:end;" transform="rotate(-0, 29.466563, 61.375299)" x="29.466563" y="61.375299">0</text>
     </g>
    </g>
    <g id="ytick_3">
     <g id="line2d_13">
      <g>
       <use style="stroke:#000000;stroke-width:0.8;" x="34.966563" xlink:href="#m3e6969364a" y="30.008542"/>
      </g>
     </g>
     <g id="text_7">
      <text style="font-family:Arial;font-size:8px;font-style:normal;font-weight:400;text-anchor:end;" transform="rotate(-0, 29.466563, 32.871667)" x="29.466563" y="32.871667">1</text>
     </g>
    </g>
    <g id="text_8">
     <!-- $V_m$ -->
     <g transform="translate(14.357813 56.97)rotate(-90)">
      <text>
       <tspan style="font-family:DejaVu Sans;font-size:10px;font-style:oblique;font-weight:oblique;" x="0" y="-0.703125">V</tspan>
       <tspan style="font-family:DejaVu Sans;font-size:7px;font-style:oblique;font-weight:oblique;" x="6.84082" y="0.9375">m</tspan>
      </text>
     </g>
    </g>
   </g>
  </g>
 </g>
 <defs>
  <clipPath id="p0d19af9a7e">
   <rect height="81.54" width="83.7" x="34.966563" y="9.2"/>
  </clipPath>
 </defs>
</svg>
