<?xml version="1.0" encoding="utf-8" standalone="no"?>
<!DOCTYPE svg PUBLIC "-//W3C//DTD SVG 1.1//EN"
  "http://www.w3.org/Graphics/SVG/1.1/DTD/svg11.dtd">
<!-- Created with matplotlib (http://matplotlib.org/) -->
<svg height="119pt" version="1.1" viewBox="0 0 122 119" width="122pt" xmlns="http://www.w3.org/2000/svg" xmlns:xlink="http://www.w3.org/1999/xlink">
 <defs>
  <style type="text/css">
*{stroke-linecap:butt;stroke-linejoin:round;}
  </style>
 </defs>
 <g id="figure_1">
  <g id="patch_1">
   <path d="M 0 119.901563 
L 122.062642 119.901563 
L 122.062642 0 
L 0 0 
z
" style="fill:none;opacity:0;"/>
  </g>
  <g id="axes_1">
   <g id="patch_2">
    <path d="M 28.294063 88.74 
L 111.994062 88.74 
L 111.994062 7.2 
L 28.294063 7.2 
z
" style="fill:none;"/>
   </g>
   <g id="line2d_1">
    <path clip-path="url(#pec2661c553)" d="M 32.098608 80.252996 
L 32.326995 84.260401 
L 32.403124 84.363556 
L 32.441188 84.307468 
L 32.593446 83.758027 
L 32.783769 82.929444 
L 32.821833 82.968962 
L 33.164414 83.8863 
L 33.354736 85.033636 
L 33.392801 85.007215 
L 33.621187 84.0509 
L 33.697316 84.200901 
L 33.849574 84.756108 
L 33.887639 84.718383 
L 34.116026 83.598285 
L 34.192155 83.740916 
L 34.344413 84.150951 
L 34.382477 84.085669 
L 34.534735 83.146007 
L 34.953444 79.720621 
L 34.991509 79.789491 
L 35.067638 79.890132 
L 35.105702 79.83544 
L 35.219896 79.56608 
L 35.25796 79.649102 
L 35.410218 81.149391 
L 35.562476 82.050428 
L 35.67667 81.495108 
L 35.866992 80.544393 
L 35.905057 80.595541 
L 36.095379 81.150612 
L 36.133444 81.089933 
L 36.36183 80.324589 
L 36.399895 80.381157 
L 36.590217 81.179189 
L 36.818604 82.463221 
L 36.856669 82.346573 
L 37.046991 80.551585 
L 37.199249 79.66707 
L 37.237314 79.690729 
L 37.351507 80.25468 
L 37.54183 81.74616 
L 37.579894 81.626736 
L 37.998603 78.440782 
L 38.074732 78.735127 
L 38.303119 80.175478 
L 38.341184 80.154279 
L 38.6457 79.787035 
L 38.683764 79.867369 
L 38.874087 81.362165 
L 39.064409 82.602698 
L 39.102474 82.560474 
L 39.254731 81.013859 
L 39.368925 80.412635 
L 39.559247 81.855189 
L 39.635376 81.463398 
L 39.863763 79.891687 
L 39.939892 80.067666 
L 40.168279 81.475573 
L 40.244408 81.272924 
L 40.51086 79.445508 
L 40.548924 79.560079 
L 40.739246 80.359118 
L 40.777311 80.310762 
L 40.891504 79.413433 
L 41.119891 76.176933 
L 41.19602 76.504114 
L 41.310214 77.2296 
L 41.348278 77.002713 
L 41.652794 71.811529 
L 41.766988 72.197103 
L 41.805052 72.251411 
L 41.843117 72.216244 
L 41.995375 71.457165 
L 42.223761 68.856989 
L 42.604406 63.205556 
L 43.251503 58.977889 
L 43.289567 58.984174 
L 43.403761 58.962666 
L 43.517954 58.414778 
L 43.82247 55.461512 
L 43.898599 55.602587 
L 44.050857 56.032143 
L 44.16505 55.381609 
L 44.469566 52.518905 
L 44.545695 52.737421 
L 44.697953 53.461469 
L 44.736018 53.334148 
L 45.230856 50.331938 
L 45.345049 50.368528 
L 45.611501 50.516846 
L 45.68763 50.353384 
L 45.839888 49.090612 
L 46.144404 46.780433 
L 46.334726 46.741027 
L 46.7915 43.112706 
L 46.943758 41.394683 
L 46.981822 41.453406 
L 47.172145 42.319028 
L 47.210209 42.212799 
L 47.514725 41.198811 
L 47.705048 41.386868 
L 47.781177 40.949435 
L 48.047628 36.259004 
L 48.542466 28.327436 
L 48.694724 27.21998 
L 48.923111 27.871096 
L 48.961176 27.737234 
L 49.113434 26.088159 
L 49.34182 24.240364 
L 49.532143 23.618876 
L 49.684401 23.12431 
L 49.874723 23.571697 
L 49.950852 23.498754 
L 50.141175 22.823504 
L 50.369562 21.221396 
L 50.407626 21.429324 
L 50.674078 24.663452 
L 50.750206 24.288868 
L 50.902464 23.356162 
L 50.940529 23.463111 
L 51.092787 24.527687 
L 51.168916 24.258638 
L 51.435367 22.389789 
L 51.587625 22.209528 
L 51.816012 21.456134 
L 51.854077 21.53115 
L 52.120528 23.350514 
L 52.348915 25.155462 
L 52.386979 25.01663 
L 52.577302 22.847876 
L 52.653431 23.206727 
L 52.881818 25.181636 
L 52.919882 25.144248 
L 52.996011 25.032569 
L 53.034076 25.055641 
L 53.262463 25.638787 
L 53.300527 25.562913 
L 53.605043 24.176518 
L 53.757301 23.700614 
L 53.83343 24.103856 
L 54.023752 25.657897 
L 54.061817 25.601191 
L 54.366333 24.635914 
L 54.480526 24.596696 
L 54.518591 24.640523 
L 54.59472 24.713121 
L 54.632784 24.678464 
L 54.785042 24.219718 
L 54.823107 24.28661 
L 54.9373 25.509803 
L 55.165687 27.764124 
L 55.27988 28.132352 
L 55.736654 30.476998 
L 55.774719 30.454188 
L 55.888912 29.875797 
L 56.117299 27.784594 
L 56.193428 28.002404 
L 56.612137 30.554215 
L 56.688266 30.200202 
L 56.916653 27.989484 
L 56.954718 28.120173 
L 57.221169 30.892519 
L 57.297298 30.654424 
L 57.487621 29.661024 
L 57.525685 29.714463 
L 57.639879 30.85444 
L 57.868266 32.58179 
L 57.982459 32.460727 
L 58.096652 31.634712 
L 58.24891 30.104013 
L 58.286975 30.142758 
L 58.401168 31.668372 
L 58.629555 34.350812 
L 58.743749 34.515492 
L 58.781813 34.458044 
L 58.934071 33.709883 
L 59.124394 32.919075 
L 59.162458 32.978926 
L 59.809554 35.730428 
L 60.076006 38.62034 
L 60.11407 38.509772 
L 60.380522 36.519193 
L 60.456651 36.876712 
L 60.87536 40.520393 
L 60.951489 40.251733 
L 61.065682 40.027689 
L 61.103747 40.084418 
L 61.179876 40.159969 
L 61.21794 40.069848 
L 61.370198 39.268581 
L 61.408263 39.324878 
L 61.712779 40.840316 
L 61.750843 40.769988 
L 61.903101 39.581984 
L 62.017295 39.169599 
L 62.055359 39.29264 
L 62.207617 39.867374 
L 62.245681 39.846383 
L 62.474068 39.539062 
L 62.512133 39.561873 
L 62.702455 40.052633 
L 62.892778 40.742489 
L 63.159229 42.7073 
L 63.197294 42.56449 
L 63.539874 40.095023 
L 63.616003 40.287206 
L 63.806325 40.793279 
L 63.882454 40.851279 
L 64.110841 41.918706 
L 64.18697 41.761291 
L 64.263099 41.569254 
L 64.301164 41.584008 
L 64.834067 43.041321 
L 64.94826 42.876895 
L 64.986325 42.918626 
L 65.214711 44.052814 
L 65.29084 43.780635 
L 65.557292 42.799846 
L 65.633421 42.598297 
L 65.861808 41.219238 
L 65.899872 41.300991 
L 66.05213 42.236737 
L 66.280517 44.265607 
L 66.318582 44.204454 
L 66.432775 43.796433 
L 66.47084 43.879484 
L 66.699226 45.407227 
L 66.737291 45.269609 
L 66.927613 44.080521 
L 66.965678 44.15404 
L 67.308258 45.260455 
L 67.384387 44.999209 
L 67.650839 42.539512 
L 67.765032 42.798356 
L 67.803097 42.822006 
L 67.91729 42.088009 
L 67.993419 41.685576 
L 68.031483 41.782983 
L 68.25987 43.965221 
L 68.335999 43.475164 
L 68.488257 41.984893 
L 68.526322 42.054899 
L 68.716644 44.478179 
L 69.059225 46.910251 
L 69.249547 47.228794 
L 69.363741 47.339703 
L 69.592127 48.036787 
L 69.630192 47.971278 
L 69.858579 46.505729 
L 69.934708 46.699089 
L 70.048901 46.98548 
L 70.201159 46.525854 
L 70.239224 46.646583 
L 70.848256 50.452452 
L 70.88632 50.387221 
L 71.000513 49.283777 
L 71.190836 47.544717 
L 71.343094 48.521873 
L 71.685674 49.792495 
L 71.761803 49.72396 
L 71.875997 49.479294 
L 71.914061 49.519769 
L 72.028255 50.103196 
L 72.256642 51.631749 
L 72.294706 51.541046 
L 72.408899 51.092798 
L 72.446964 51.202723 
L 72.675351 52.791514 
L 72.713415 52.654564 
L 72.865673 52.058247 
L 72.903738 52.101465 
L 73.055996 52.449537 
L 73.09406 52.40716 
L 73.246318 52.093929 
L 73.284383 52.21444 
L 73.51277 53.638351 
L 73.550834 53.52006 
L 73.779221 52.564363 
L 73.931479 52.829076 
L 74.235995 53.750402 
L 74.312124 53.621581 
L 74.426317 52.682133 
L 74.578575 51.553143 
L 74.692769 52.70416 
L 74.921156 54.972912 
L 75.035349 54.503548 
L 75.187607 54.162363 
L 75.263736 54.092891 
L 75.377929 53.861304 
L 75.415994 53.932478 
L 75.986961 57.055758 
L 76.06309 56.85674 
L 76.253413 56.051622 
L 76.291477 56.108719 
L 76.4818 56.760646 
L 76.519864 56.658582 
L 76.634057 56.220897 
L 76.672122 56.243792 
L 76.82438 57.293536 
L 77.014702 57.92893 
L 77.128896 58.309665 
L 77.395347 59.55218 
L 77.433412 59.541452 
L 77.699863 59.193573 
L 77.737928 59.244725 
L 77.92825 59.673468 
L 77.966315 59.58291 
L 78.232766 58.050602 
L 78.27083 58.19601 
L 78.499217 59.682886 
L 78.537282 59.598736 
L 79.03212 57.467602 
L 79.108249 57.699387 
L 79.374701 60.015239 
L 79.412765 59.907747 
L 79.603087 58.750281 
L 79.679216 58.966179 
L 80.174055 62.394143 
L 80.288248 62.784876 
L 80.326313 62.686612 
L 80.440506 62.35415 
L 80.478571 62.397982 
L 80.630829 62.820159 
L 80.668893 62.695038 
L 80.821151 61.9344 
L 80.859216 61.982627 
L 80.973409 62.419384 
L 81.011473 62.388632 
L 81.125667 61.278345 
L 81.23986 60.249994 
L 81.277925 60.370876 
L 81.506312 62.38007 
L 81.544376 62.244551 
L 81.696634 61.668246 
L 81.734699 61.711735 
L 82.039215 62.619316 
L 82.191473 63.004095 
L 82.229537 62.976872 
L 82.343731 62.553352 
L 82.572117 61.54826 
L 82.800504 61.804019 
L 82.952762 62.533144 
L 83.143085 63.807667 
L 83.181149 63.670581 
L 83.371472 62.009223 
L 83.409536 62.214801 
L 83.714052 64.895198 
L 83.828246 64.701346 
L 84.018568 64.021009 
L 84.056632 64.106938 
L 84.20889 64.710838 
L 84.246955 64.688798 
L 84.399213 63.795818 
L 84.475342 63.533169 
L 84.513406 63.627152 
L 84.779858 65.507193 
L 84.855987 65.306547 
L 84.932116 65.100851 
L 84.97018 65.176035 
L 85.084374 66.455705 
L 85.236632 67.85526 
L 85.350825 66.315865 
L 85.541147 63.525317 
L 85.579212 63.745058 
L 85.845663 66.608261 
L 85.883728 66.571133 
L 85.959857 66.633983 
L 86.112115 67.896238 
L 86.226308 68.599577 
L 86.264373 68.518187 
L 86.530824 66.448238 
L 86.606953 66.717443 
L 86.911469 67.693517 
L 86.987598 67.768146 
L 87.025662 67.737057 
L 87.292114 67.144806 
L 87.368243 67.322463 
L 87.520501 67.894526 
L 87.558565 67.844406 
L 87.672759 66.960752 
L 87.825017 65.557532 
L 87.863081 65.690715 
L 88.319855 69.57924 
L 88.395984 69.269599 
L 88.586306 68.016727 
L 88.624371 68.128318 
L 88.776629 70.269992 
L 88.928887 71.694519 
L 89.005016 71.273856 
L 89.233403 69.484973 
L 89.271467 69.567041 
L 89.575983 70.450723 
L 89.766305 71.019826 
L 89.80437 70.906278 
L 89.994692 69.696837 
L 90.032757 69.768171 
L 90.223079 70.81281 
L 90.261144 70.713917 
L 90.56566 69.605526 
L 90.717918 69.410849 
L 90.832111 69.511302 
L 90.984369 69.111614 
L 91.022434 69.236522 
L 91.479207 72.024973 
L 91.593401 72.470959 
L 91.631465 72.418983 
L 91.783723 71.133354 
L 92.088239 68.912959 
L 92.202433 68.515908 
L 92.240497 68.542522 
L 92.392755 69.08534 
L 92.468884 68.942508 
L 92.735335 67.767275 
L 92.7734 67.799962 
L 92.925658 68.309103 
L 93.192109 69.947943 
L 93.230174 69.84637 
L 93.382432 68.214178 
L 93.648883 65.923711 
L 93.839206 65.559162 
L 93.87727 65.574828 
L 93.991463 65.844497 
L 94.105657 66.185197 
L 94.143721 66.162363 
L 94.334044 65.364348 
L 94.410173 65.640156 
L 94.63856 67.002567 
L 94.676624 66.950872 
L 95.247592 64.960751 
L 95.285656 65.096277 
L 95.437914 65.809842 
L 95.475978 65.699106 
L 95.590172 65.336433 
L 95.628236 65.428071 
L 95.780494 66.076593 
L 95.818559 66.014637 
L 96.50372 62.320796 
L 96.579849 62.613971 
L 96.998558 67.05841 
L 97.036622 67.039923 
L 97.18888 66.453678 
L 97.60759 64.432798 
L 97.721783 63.937573 
L 97.759848 64.019937 
L 98.102428 66.35765 
L 98.178557 66.203175 
L 98.368879 64.801871 
L 98.521137 64.003803 
L 98.635331 64.618658 
L 98.825653 65.239268 
L 98.901782 65.383982 
L 99.05404 66.856392 
L 99.206298 67.983165 
L 99.244363 67.962381 
L 99.358556 67.362469 
L 99.510814 66.432997 
L 99.548879 66.453187 
L 100.15791 68.820035 
L 100.272104 68.303482 
L 100.500491 67.571603 
L 100.728878 66.832191 
L 100.9192 65.301309 
L 100.995329 65.61402 
L 101.26178 68.053529 
L 101.375974 68.141703 
L 101.566296 68.568953 
L 101.604361 68.517417 
L 102.251457 66.513958 
L 102.403715 65.536675 
L 102.44178 65.550784 
L 102.822424 66.878292 
L 102.898553 66.711924 
L 103.050811 64.839251 
L 103.203069 63.554846 
L 103.241134 63.59879 
L 103.431456 64.595479 
L 103.583714 65.259974 
L 103.621779 65.251138 
L 103.812101 64.568429 
L 104.002423 63.637731 
L 104.078552 63.875022 
L 104.421133 67.483409 
L 104.459197 67.448504 
L 104.915971 66.61045 
L 104.954036 66.660437 
L 105.144358 67.320403 
L 105.182423 67.189195 
L 105.372745 65.890038 
L 105.41081 65.951978 
L 105.715325 67.088694 
L 105.829519 67.017405 
L 106.019841 66.616938 
L 106.057906 66.696725 
L 106.248228 68.057878 
L 106.51468 69.229467 
L 106.743067 69.307062 
L 106.895324 70.090348 
L 107.161776 72.939319 
L 107.19984 72.743869 
L 107.542421 69.587538 
L 107.580485 69.720236 
L 107.732743 71.910965 
L 107.923066 74.174223 
L 107.96113 74.150032 
L 108.113388 73.234553 
L 108.189517 72.617485 
L 108.189517 72.617485 
" style="fill:none;stroke:#008080;stroke-linecap:round;stroke-width:0.5;"/>
   </g>
   <g id="line2d_2">
    <path clip-path="url(#pec2661c553)" d="M 32.098608 70.874469 
L 32.326995 72.729551 
L 32.441188 72.555268 
L 32.479253 72.624578 
L 32.631511 73.821731 
L 32.745704 74.449186 
L 32.783769 74.345273 
L 33.126349 71.766031 
L 33.202478 71.900807 
L 33.316672 71.994648 
L 33.430865 71.500505 
L 33.545058 71.082552 
L 33.583123 71.20303 
L 33.735381 72.133124 
L 33.773445 72.10575 
L 33.963768 71.182425 
L 34.039897 71.341237 
L 34.268284 72.69729 
L 34.420542 73.422386 
L 34.458606 73.341247 
L 34.648929 71.826329 
L 34.763122 71.434035 
L 34.801187 71.5486 
L 34.991509 72.284105 
L 35.029573 72.225394 
L 35.143767 72.017236 
L 35.181831 72.080045 
L 35.296025 72.30497 
L 35.334089 72.221657 
L 35.524412 71.629921 
L 35.562476 71.711522 
L 35.943121 72.941668 
L 36.01925 72.807783 
L 36.133444 71.425907 
L 36.285702 69.555035 
L 36.323766 69.666012 
L 36.894733 74.735249 
L 36.932798 74.636485 
L 37.503765 72.895389 
L 37.656023 72.805224 
L 37.88441 73.137658 
L 37.922474 73.056128 
L 38.074732 72.672132 
L 38.112797 72.747363 
L 38.22699 73.210805 
L 38.265055 73.200954 
L 38.455377 71.949808 
L 38.493442 72.118219 
L 38.874087 75.279842 
L 38.950216 75.148697 
L 39.178602 73.71244 
L 39.254731 73.893275 
L 39.406989 74.399165 
L 39.445054 74.293295 
L 39.74957 73.148416 
L 39.825699 73.222471 
L 39.977957 73.812004 
L 40.054086 73.584217 
L 40.282473 70.807172 
L 40.358602 71.038006 
L 40.434731 71.28097 
L 40.472795 71.12743 
L 40.663117 69.160596 
L 40.739246 69.29324 
L 40.815375 69.468578 
L 40.85344 69.365763 
L 41.157956 68.012994 
L 41.272149 68.133915 
L 41.310214 68.171489 
L 41.348278 68.126554 
L 41.462472 67.255971 
L 41.652794 66.17523 
L 41.728923 66.040519 
L 41.843117 64.644401 
L 42.147632 60.515329 
L 42.29989 58.860874 
L 43.175374 46.374417 
L 43.898599 39.344281 
L 43.974728 39.215113 
L 44.012792 39.285246 
L 44.16505 39.720821 
L 44.203115 39.671505 
L 44.317308 38.892552 
L 44.659889 36.229814 
L 44.850211 36.106797 
L 45.078598 34.115959 
L 45.116662 34.335622 
L 45.383114 37.233326 
L 45.421178 37.132342 
L 45.497307 36.978685 
L 45.535372 37.030475 
L 45.611501 37.21491 
L 45.649565 37.160231 
L 45.763759 35.859263 
L 45.992146 33.585575 
L 46.144404 34.030442 
L 46.486984 34.854579 
L 46.525048 34.784572 
L 46.7915 34.343661 
L 46.905693 33.910215 
L 47.019887 33.55688 
L 47.057951 33.611751 
L 47.13408 33.675853 
L 47.248274 32.997941 
L 47.743112 29.431676 
L 48.047628 28.659666 
L 48.23795 24.937933 
L 48.428273 23.088116 
L 48.580531 23.290037 
L 48.694724 22.538299 
L 48.923111 21.112588 
L 49.075369 20.636719 
L 49.227627 20.278884 
L 49.265691 20.299921 
L 49.34182 20.167539 
L 49.532143 18.704243 
L 49.608272 18.950674 
L 49.76053 19.501074 
L 49.912788 18.962539 
L 50.179239 18.317901 
L 50.293433 18.380802 
L 50.52182 18.877153 
L 50.559884 18.859026 
L 51.092787 17.768014 
L 51.130851 17.922274 
L 51.397303 19.087123 
L 51.473432 18.953183 
L 51.587625 17.996177 
L 51.701819 16.959415 
L 51.739883 17.029135 
L 52.234721 20.585457 
L 52.272786 20.498787 
L 52.463108 19.680462 
L 52.539237 19.810401 
L 52.72956 20.771339 
L 52.767624 20.748708 
L 52.957947 19.853602 
L 53.034076 20.056094 
L 53.452785 22.242112 
L 53.681172 23.557688 
L 53.757301 23.24764 
L 53.909559 22.466283 
L 53.947623 22.549503 
L 54.17601 23.725412 
L 54.404397 26.04288 
L 54.442462 26.025158 
L 54.975365 24.46102 
L 55.051493 24.566097 
L 55.584396 26.093237 
L 55.69859 25.851575 
L 55.850848 25.115521 
L 56.04117 23.862986 
L 56.079235 23.996342 
L 56.269557 25.361633 
L 56.307622 25.264155 
L 56.536008 24.006325 
L 56.574073 24.07015 
L 57.106976 25.386003 
L 57.335363 25.339524 
L 57.411492 25.232075 
L 57.449556 25.257857 
L 57.56375 25.970882 
L 57.677943 26.564534 
L 57.716008 26.446135 
L 57.90633 25.252951 
L 57.944394 25.312352 
L 58.096652 25.846033 
L 58.134717 25.684958 
L 58.286975 24.243119 
L 58.363104 24.514302 
L 58.705684 27.633487 
L 58.857942 27.757813 
L 59.0102 27.80243 
L 59.162458 28.557092 
L 59.314716 29.369883 
L 59.35278 29.295505 
L 59.543103 28.535385 
L 59.581167 28.609845 
L 59.733425 28.883028 
L 59.77149 28.86547 
L 59.999877 28.61883 
L 60.076006 28.46046 
L 60.11407 28.494674 
L 60.228264 28.777708 
L 60.266328 28.725837 
L 60.418586 28.285503 
L 60.837295 30.313594 
L 61.027618 31.75274 
L 61.446327 31.074132 
L 61.522456 31.039043 
L 61.63665 31.46065 
L 61.865037 33.104282 
L 61.903101 32.944185 
L 62.131488 30.306064 
L 62.207617 30.563236 
L 62.512133 33.191278 
L 62.550197 33.14646 
L 62.74052 32.330801 
L 62.778584 32.388935 
L 62.892778 33.231319 
L 63.197294 35.652796 
L 63.311487 35.253421 
L 63.387616 35.015472 
L 63.425681 35.047642 
L 63.654068 36.093179 
L 63.730196 35.854142 
L 63.806325 35.649142 
L 63.84439 35.703387 
L 64.034712 37.047662 
L 64.18697 37.787845 
L 64.225035 37.701934 
L 64.453422 36.453798 
L 64.529551 36.559304 
L 64.567615 36.578722 
L 64.643744 36.087666 
L 64.834067 33.342179 
L 64.872131 33.449674 
L 65.100518 36.871869 
L 65.252776 38.014604 
L 65.29084 37.949947 
L 65.595356 36.161491 
L 65.671485 36.456286 
L 66.242453 39.792215 
L 66.280517 39.829619 
L 66.318582 39.763964 
L 66.47084 39.290238 
L 66.508904 39.325235 
L 66.699226 39.655103 
L 66.737291 39.619193 
L 66.889549 39.17584 
L 67.003742 38.703288 
L 67.041807 38.720357 
L 67.156 39.723747 
L 67.384387 41.540869 
L 68.031483 42.787922 
L 68.183741 44.114425 
L 68.297935 44.749933 
L 68.335999 44.566696 
L 68.716644 40.803408 
L 68.792773 40.830375 
L 68.906967 41.131692 
L 69.02116 41.389617 
L 69.211483 40.674402 
L 69.249547 40.848656 
L 69.858579 46.257564 
L 69.896643 46.141952 
L 70.429546 43.293913 
L 70.467611 43.33664 
L 70.619869 44.163899 
L 70.848256 44.968368 
L 70.962449 44.713437 
L 71.076642 44.45339 
L 71.114707 44.519442 
L 71.266965 45.018607 
L 71.305029 44.924113 
L 71.457287 44.088179 
L 71.495352 44.128831 
L 71.609545 45.038812 
L 71.875997 47.512661 
L 71.914061 47.37291 
L 72.066319 46.607633 
L 72.104384 46.694187 
L 72.256642 48.226675 
L 72.408899 49.274431 
L 72.446964 49.211448 
L 73.017931 46.630833 
L 73.055996 46.645498 
L 73.284383 47.36342 
L 73.360512 47.120065 
L 73.588899 45.361075 
L 73.665028 45.701128 
L 73.817285 46.719012 
L 73.85535 46.683901 
L 73.969543 46.528591 
L 74.007608 46.585033 
L 74.159866 47.352602 
L 74.464382 49.070208 
L 74.806962 49.490921 
L 75.263736 51.067792 
L 75.3018 51.007701 
L 75.492123 50.436951 
L 75.530187 50.460388 
L 75.758574 50.674717 
L 76.06309 51.634558 
L 76.177284 52.096046 
L 76.215348 52.077091 
L 76.405671 51.172131 
L 76.4818 51.357838 
L 76.786315 54.221583 
L 76.862444 53.865085 
L 77.128896 51.517975 
L 77.16696 51.669176 
L 77.319218 53.686571 
L 77.471476 55.561535 
L 77.509541 55.390644 
L 77.699863 52.935836 
L 77.737928 53.091257 
L 77.92825 54.837375 
L 77.966315 54.65773 
L 78.080508 53.887477 
L 78.118572 53.905133 
L 78.27083 54.614216 
L 78.308895 54.536329 
L 78.537282 53.393132 
L 78.575346 53.493076 
L 78.994056 55.642098 
L 79.03212 55.581263 
L 79.184378 55.11886 
L 79.222443 55.132093 
L 79.374701 55.629342 
L 79.603087 56.39527 
L 79.717281 56.343545 
L 79.945668 57.182766 
L 79.983732 57.078051 
L 80.174055 55.595744 
L 80.288248 55.140791 
L 80.402442 55.967284 
L 80.592764 57.240027 
L 80.630829 57.23453 
L 80.745022 56.576691 
L 80.89728 55.539356 
L 80.935345 55.605227 
L 81.049538 56.625749 
L 81.277925 58.841544 
L 81.544376 57.93691 
L 81.620505 58.031089 
L 81.772763 58.575163 
L 81.925021 59.11846 
L 81.963086 59.08564 
L 82.153408 58.046664 
L 82.343731 56.438146 
L 82.419859 55.94222 
L 82.457924 56.001926 
L 82.686311 57.828324 
L 82.76244 57.45847 
L 82.838569 57.100779 
L 82.876633 57.155498 
L 83.10502 58.969492 
L 83.181149 58.643529 
L 83.295343 58.226476 
L 83.333407 58.324039 
L 83.637923 60.421415 
L 83.714052 60.006502 
L 83.904374 58.531217 
L 83.942439 58.572624 
L 84.094697 60.039874 
L 84.20889 60.781082 
L 84.246955 60.741069 
L 84.399213 59.84025 
L 84.589535 58.067052 
L 84.6276 58.214515 
L 84.855987 61.352244 
L 84.932116 60.940672 
L 85.084374 59.67692 
L 85.122438 59.725719 
L 85.350825 61.602174 
L 85.426954 61.436397 
L 85.693405 60.247669 
L 85.73147 60.351834 
L 86.112115 62.290105 
L 86.188244 62.114304 
L 86.302437 61.832302 
L 86.340502 61.896512 
L 86.568889 62.799605 
L 86.645018 62.699099 
L 86.797275 61.575173 
L 86.873404 61.103782 
L 86.911469 61.156163 
L 87.101791 62.888455 
L 87.17792 62.548266 
L 87.330178 61.647239 
L 87.368243 61.792456 
L 87.634694 64.158436 
L 87.672759 63.970167 
L 87.901146 62.369941 
L 87.93921 62.454313 
L 88.053404 62.705592 
L 88.091468 62.612593 
L 88.28179 61.475926 
L 88.357919 61.700177 
L 88.586306 62.782391 
L 88.624371 62.76405 
L 88.966951 62.185026 
L 89.04308 62.354662 
L 89.157274 63.698229 
L 89.385661 66.099678 
L 89.537919 65.605598 
L 89.575983 65.670155 
L 89.728241 66.083192 
L 89.766305 65.980785 
L 90.070821 64.78514 
L 90.108886 64.824161 
L 90.489531 65.608135 
L 90.527595 65.540256 
L 90.832111 64.376791 
L 91.174691 62.830817 
L 91.212756 63.059299 
L 91.517272 65.587923 
L 91.745659 67.224649 
L 91.859852 66.832567 
L 91.935981 66.628743 
L 92.01211 66.681219 
L 92.088239 66.610549 
L 92.278562 65.138906 
L 92.392755 64.819253 
L 92.43082 64.898378 
L 92.583077 65.174055 
L 92.697271 65.01598 
L 92.735335 65.099828 
L 92.887593 66.525872 
L 93.039851 67.398982 
L 93.077916 67.355567 
L 93.192109 66.59529 
L 93.382432 65.26812 
L 93.420496 65.396134 
L 93.610819 67.649261 
L 93.686948 68.19667 
L 93.725012 68.189963 
L 93.87727 67.552341 
L 93.915334 67.630075 
L 94.105657 68.590779 
L 94.143721 68.527944 
L 94.295979 68.111865 
L 94.334044 68.131127 
L 94.410173 68.170329 
L 94.448237 68.118472 
L 94.63856 67.555373 
L 94.714689 67.675128 
L 95.133398 69.132447 
L 95.209527 69.04329 
L 95.399849 68.055538 
L 95.628236 65.488884 
L 95.704365 65.817638 
L 95.894688 68.043936 
L 95.932752 67.902323 
L 96.123075 66.158513 
L 96.161139 66.224929 
L 96.313397 68.409635 
L 96.465655 69.666135 
L 96.617913 69.117975 
L 96.694042 69.251918 
L 96.808235 69.648379 
L 96.8463 69.634 
L 97.303074 68.452641 
L 97.379203 68.604347 
L 97.531461 68.875876 
L 97.569525 68.831141 
L 97.759848 68.123102 
L 97.835977 68.29016 
L 98.140493 70.280717 
L 98.216622 70.183739 
L 98.368879 69.856818 
L 98.483073 70.448335 
L 98.635331 71.295491 
L 98.673395 71.140653 
L 98.901782 69.15957 
L 98.977911 69.403505 
L 99.206298 70.423615 
L 99.396621 70.769299 
L 99.434685 70.686436 
L 99.510814 70.51564 
L 99.548879 70.54425 
L 99.663072 70.898884 
L 99.701136 70.880768 
L 99.929523 69.694263 
L 99.967588 69.828984 
L 100.195975 72.202213 
L 100.272104 71.951517 
L 100.614684 69.831269 
L 100.652749 69.795316 
L 100.690813 69.846456 
L 100.805007 70.599917 
L 101.185651 74.358999 
L 101.223716 74.328903 
L 101.452103 73.82944 
L 101.528232 73.908497 
L 101.604361 73.879053 
L 101.832748 72.901359 
L 101.908877 73.016454 
L 101.985006 73.072938 
L 102.02307 73.041999 
L 102.175328 72.576347 
L 102.251457 72.482244 
L 102.365651 73.474202 
L 102.555973 74.906524 
L 102.708231 74.58449 
L 102.822424 75.476181 
L 102.974682 76.660217 
L 103.012747 76.644817 
L 103.12694 75.711256 
L 103.279198 74.591463 
L 103.317263 74.683308 
L 103.469521 76.117325 
L 103.659843 77.515392 
L 103.926295 76.535255 
L 104.002423 76.712676 
L 104.116617 76.907763 
L 104.154681 76.826225 
L 104.268875 75.86732 
L 104.497262 73.329219 
L 104.535326 73.567335 
L 104.801778 76.17163 
L 104.839842 76.151441 
L 104.9921 75.368085 
L 105.258552 74.199737 
L 105.372745 74.31472 
L 105.525003 74.93122 
L 105.867583 76.662304 
L 106.019841 76.990688 
L 106.057906 76.845474 
L 106.324357 74.314187 
L 106.438551 74.47302 
L 106.51468 74.380272 
L 106.705002 73.758147 
L 106.743067 73.813939 
L 107.009518 75.248988 
L 107.19984 75.885157 
L 107.314034 75.41803 
L 107.580485 74.166755 
L 107.732743 74.276848 
L 107.770808 74.244355 
L 107.846937 74.251204 
L 107.96113 74.583151 
L 107.999195 74.567003 
L 108.075324 73.735563 
L 108.189517 70.239436 
L 108.189517 70.239436 
" style="fill:none;stroke:#008080;stroke-linecap:round;stroke-width:0.5;"/>
   </g>
   <g id="line2d_3">
    <path clip-path="url(#pec2661c553)" d="M 32.098608 65.846544 
L 32.326995 70.764216 
L 32.441188 69.738342 
L 32.631511 67.851046 
L 32.669575 67.989266 
L 33.240543 71.960231 
L 33.278607 71.887481 
L 33.545058 71.006768 
L 33.887639 70.688732 
L 34.420542 68.319077 
L 34.686993 66.026707 
L 34.725058 66.072841 
L 34.839251 67.563108 
L 35.067638 70.65679 
L 35.143767 70.544918 
L 35.25796 69.911527 
L 35.410218 68.826788 
L 35.448283 68.896296 
L 35.600541 69.727541 
L 35.638605 69.679416 
L 35.866992 68.022362 
L 35.943121 68.218001 
L 36.171508 69.649791 
L 36.209573 69.551659 
L 36.476024 67.893978 
L 36.552153 68.054372 
L 36.78054 68.819174 
L 36.818604 68.732275 
L 37.008927 67.864166 
L 37.046991 67.946125 
L 37.427636 69.636942 
L 37.465701 69.599809 
L 37.54183 69.522915 
L 37.579894 69.557342 
L 37.694088 69.827823 
L 37.732152 69.786575 
L 37.88441 68.618296 
L 38.036668 67.971731 
L 38.074732 68.024074 
L 38.303119 69.0121 
L 38.569571 70.273552 
L 38.683764 69.808675 
L 38.797958 69.39104 
L 38.836022 69.40078 
L 38.950216 69.588593 
L 38.98828 69.475246 
L 39.178602 68.020236 
L 39.216667 68.210236 
L 39.445054 69.965713 
L 39.483118 69.925746 
L 39.559247 69.890096 
L 39.711505 70.537021 
L 40.016021 71.246304 
L 40.168279 71.384578 
L 40.244408 71.140224 
L 40.663117 68.33938 
L 40.701182 68.368288 
L 40.815375 68.372062 
L 41.005698 67.780082 
L 41.310214 66.070473 
L 41.348278 66.219242 
L 41.538601 67.832856 
L 41.61473 67.653274 
L 41.805052 65.96825 
L 42.109568 61.392121 
L 42.185697 61.622829 
L 42.261826 61.919691 
L 42.29989 61.879581 
L 42.414084 60.350478 
L 42.642471 57.178737 
L 42.756664 55.829812 
L 43.365696 42.336079 
L 43.594083 39.375444 
L 43.632147 39.473205 
L 43.82247 41.339198 
L 43.898599 41.136841 
L 44.088921 38.32898 
L 44.241179 36.991496 
L 44.393437 37.597182 
L 44.469566 37.478342 
L 44.58376 37.324411 
L 44.621824 37.346589 
L 44.736018 37.306784 
L 44.850211 36.582305 
L 45.116662 33.832098 
L 45.154727 33.869426 
L 45.345049 34.668552 
L 45.421178 34.518556 
L 45.611501 34.103385 
L 45.839888 32.245153 
L 45.877952 32.397994 
L 46.144404 34.478197 
L 46.220533 34.333882 
L 46.905693 31.102644 
L 46.981822 31.370604 
L 47.13408 32.176606 
L 47.172145 32.090681 
L 47.362467 31.211205 
L 47.400532 31.271878 
L 47.857305 32.864005 
L 47.89537 32.813484 
L 47.933434 32.784591 
L 47.971499 32.873973 
L 48.123757 34.602563 
L 48.352144 36.30772 
L 48.428273 36.419071 
L 48.466337 36.353196 
L 48.65666 35.770179 
L 48.694724 35.873696 
L 48.808918 36.937861 
L 48.99924 39.421776 
L 49.037305 39.418323 
L 49.265691 37.331465 
L 49.379885 37.706463 
L 49.417949 37.708202 
L 49.608272 37.050393 
L 49.646336 37.132036 
L 49.798594 38.279201 
L 49.950852 39.809936 
L 49.988917 39.762081 
L 50.179239 37.843255 
L 50.255368 38.184751 
L 50.712142 42.836477 
L 50.750206 42.717185 
L 51.054722 41.02924 
L 51.092787 41.113268 
L 51.587625 43.650594 
L 51.854077 46.068761 
L 51.96827 45.471449 
L 52.348915 42.999965 
L 52.425044 43.369036 
L 52.805689 46.643294 
L 52.843753 46.542173 
L 52.996011 45.3873 
L 53.07214 45.711995 
L 53.338592 48.085683 
L 53.528914 48.001344 
L 53.757301 47.637445 
L 53.795365 47.680451 
L 54.061817 48.234417 
L 54.099881 48.202556 
L 54.290204 47.964378 
L 54.442462 45.831231 
L 54.556655 44.794324 
L 54.59472 45.070601 
L 55.013429 50.19865 
L 55.089558 50.054105 
L 55.394074 48.197325 
L 55.508267 48.594002 
L 55.69859 49.530013 
L 55.926977 48.965708 
L 56.117299 48.65412 
L 56.155364 48.675695 
L 56.459879 48.927517 
L 56.574073 48.332556 
L 56.726331 47.211379 
L 56.764395 47.281802 
L 56.878589 48.823205 
L 57.106976 51.385736 
L 57.221169 51.387785 
L 57.335363 51.402775 
L 57.525685 51.592727 
L 57.716008 51.109036 
L 57.754072 51.203625 
L 58.210846 53.031586 
L 58.24891 53.01366 
L 58.439233 52.301808 
L 58.477297 52.43317 
L 58.781813 54.110687 
L 58.819878 53.94424 
L 58.972136 52.834676 
L 59.0102 52.851039 
L 59.124394 53.891142 
L 59.238587 54.874548 
L 59.276652 54.864893 
L 59.428909 54.020015 
L 59.505038 54.31542 
L 59.657296 55.824045 
L 59.695361 55.791389 
L 59.923748 53.507073 
L 60.037941 54.057088 
L 60.266328 55.527696 
L 60.456651 55.485131 
L 60.646973 55.072157 
L 60.685038 55.138666 
L 60.837295 55.511516 
L 60.87536 55.42869 
L 61.027618 54.252213 
L 61.141811 53.427346 
L 61.179876 53.539787 
L 61.408263 56.570241 
L 61.522456 56.181991 
L 61.598585 56.055688 
L 61.63665 56.171375 
L 61.97923 58.346605 
L 62.093424 59.179606 
L 62.131488 59.157167 
L 62.397939 57.491716 
L 62.512133 57.718256 
L 62.664391 57.857511 
L 62.892778 57.448105 
L 62.968907 57.538197 
L 63.0831 57.617452 
L 63.197294 58.39145 
L 63.311487 58.986749 
L 63.349552 58.879144 
L 63.463745 58.427767 
L 63.50181 58.469002 
L 63.768261 59.492212 
L 63.84439 59.384858 
L 64.110841 58.689488 
L 64.301164 57.921304 
L 64.491486 58.243978 
L 64.529551 58.190133 
L 64.643744 58.048548 
L 64.757938 58.514153 
L 64.872131 58.846191 
L 64.910196 58.753788 
L 65.062454 58.266711 
L 65.29084 59.43457 
L 65.366969 59.098067 
L 65.557292 57.373791 
L 65.595356 57.550877 
L 65.861808 61.190231 
L 65.937937 60.791864 
L 66.166324 59.206791 
L 66.204388 59.301238 
L 66.394711 61.350827 
L 66.47084 61.706698 
L 66.508904 61.651803 
L 66.851484 60.259802 
L 66.889549 60.309181 
L 67.079871 61.128349 
L 67.156 60.987593 
L 67.270194 60.764412 
L 67.308258 60.823053 
L 67.498581 61.409237 
L 67.536645 61.298502 
L 67.765032 59.003841 
L 67.879226 59.636784 
L 68.107612 61.245083 
L 68.335999 60.803419 
L 68.374064 60.87797 
L 68.526322 62.12079 
L 68.67858 62.818689 
L 68.792773 62.46241 
L 69.097289 61.236582 
L 69.211483 61.579985 
L 69.325676 61.929662 
L 69.363741 61.857872 
L 69.515998 60.403223 
L 69.706321 59.34702 
L 69.820514 59.601296 
L 69.896643 59.741856 
L 69.934708 59.696624 
L 70.010837 59.57357 
L 70.048901 59.665218 
L 70.239224 61.655709 
L 70.467611 62.890358 
L 70.619869 62.949547 
L 70.810191 63.651008 
L 70.848256 63.602795 
L 71.64761 61.07859 
L 71.685674 61.175609 
L 71.99019 62.458707 
L 72.028255 62.42178 
L 72.180513 61.846331 
L 72.256642 61.995909 
L 72.370835 62.329071 
L 72.408899 62.238917 
L 72.561157 60.888859 
L 72.713415 59.978779 
L 72.827609 60.720236 
L 73.055996 62.800113 
L 73.09406 62.783389 
L 73.246318 61.955569 
L 73.398576 61.043734 
L 73.436641 61.060722 
L 73.665028 62.295506 
L 73.779221 62.045707 
L 73.85535 61.9951 
L 74.007608 62.524271 
L 74.045672 62.468212 
L 74.274059 61.188688 
L 74.350188 61.381582 
L 74.61664 63.01301 
L 74.692769 62.922427 
L 74.845027 62.266446 
L 74.95922 61.843521 
L 74.997285 61.974524 
L 75.263736 64.423681 
L 75.339865 64.109985 
L 75.492123 63.242614 
L 75.530187 63.327626 
L 75.682445 63.94276 
L 75.72051 63.806824 
L 75.872768 63.058819 
L 75.910832 63.165442 
L 76.06309 63.771659 
L 76.101155 63.76282 
L 76.177284 63.800448 
L 76.595993 65.586543 
L 76.786315 66.976143 
L 76.82438 66.920734 
L 77.128896 65.383209 
L 77.205025 65.515942 
L 77.395347 66.062336 
L 77.433412 66.036264 
L 77.547605 65.412582 
L 77.775992 63.043206 
L 77.852121 63.303497 
L 78.118572 65.662811 
L 78.156637 65.535068 
L 78.346959 64.178935 
L 78.423088 64.425669 
L 78.575346 65.441616 
L 78.613411 65.294936 
L 78.803733 63.619316 
L 78.841798 63.809823 
L 79.03212 65.617684 
L 79.070185 65.580732 
L 79.565023 63.791682 
L 79.603087 63.818841 
L 79.717281 64.424847 
L 79.945668 65.93539 
L 80.059861 65.267454 
L 80.13599 64.844854 
L 80.174055 64.851761 
L 80.288248 65.886952 
L 80.5547 68.219858 
L 80.668893 67.774953 
L 80.935345 66.163984 
L 81.011473 66.374583 
L 81.201796 67.885663 
L 81.23986 67.830821 
L 81.315989 67.727944 
L 81.430183 68.434161 
L 81.506312 68.80865 
L 81.544376 68.706867 
L 81.963086 66.017076 
L 82.039215 66.003918 
L 82.153408 66.519594 
L 82.343731 67.504689 
L 82.381795 67.46964 
L 82.534053 66.844153 
L 82.876633 65.654437 
L 83.028891 65.797653 
L 83.143085 65.069363 
L 83.257278 64.51116 
L 83.295343 64.655462 
L 83.637923 67.737748 
L 83.714052 67.46994 
L 83.828246 67.033836 
L 83.86631 67.096465 
L 84.170826 68.326183 
L 84.20889 68.254251 
L 84.475342 66.735207 
L 84.589535 67.076109 
L 84.665664 67.245427 
L 84.703729 67.217372 
L 84.817922 67.010325 
L 84.855987 67.073626 
L 85.084374 68.288259 
L 85.160503 68.084288 
L 85.426954 66.354712 
L 85.465018 66.4232 
L 85.997921 68.372907 
L 86.07405 68.161673 
L 86.226308 66.760364 
L 86.302437 67.061435 
L 86.454695 68.524014 
L 86.49276 68.472349 
L 86.797275 66.277536 
L 86.873404 66.434968 
L 87.17792 67.936431 
L 87.292114 68.341779 
L 87.330178 68.212283 
L 87.482436 66.284478 
L 87.59663 65.303559 
L 87.634694 65.400265 
L 87.93921 67.644198 
L 88.015339 67.559688 
L 88.28179 67.398245 
L 88.434048 67.583372 
L 88.472113 67.535105 
L 88.624371 67.204615 
L 88.662435 67.269439 
L 88.890822 68.732718 
L 89.271467 70.409187 
L 89.347596 70.337294 
L 89.499854 69.7235 
L 89.537919 69.786778 
L 89.652112 70.175316 
L 89.690176 70.057666 
L 89.918563 67.692061 
L 89.994692 68.032662 
L 90.413402 71.873582 
L 90.489531 71.355729 
L 90.832111 67.704557 
L 90.90824 67.909501 
L 91.098562 70.019282 
L 91.212756 70.558911 
L 91.25082 70.423402 
L 91.441143 69.178422 
L 91.517272 69.445985 
L 91.707594 71.275291 
L 91.745659 71.142975 
L 92.01211 68.587046 
L 92.088239 68.885563 
L 92.278562 70.055587 
L 92.316626 70.010759 
L 92.392755 69.886192 
L 92.43082 69.939692 
L 92.697271 71.28787 
L 92.7734 71.103783 
L 93.001787 70.116874 
L 93.077916 70.231111 
L 93.344367 71.162586 
L 93.382432 71.110919 
L 93.572754 70.394153 
L 93.610819 70.506362 
L 93.801141 72.579881 
L 93.87727 73.077165 
L 93.915334 73.004094 
L 94.143721 70.316382 
L 94.257915 71.084895 
L 94.448237 72.264699 
L 94.63856 72.300646 
L 94.943076 70.793311 
L 95.057269 70.841957 
L 95.323721 70.923776 
L 95.437914 70.834992 
L 95.552107 71.636351 
L 95.780494 73.37442 
L 95.932752 73.009449 
L 95.970817 73.166105 
L 96.123075 75.447266 
L 96.237268 76.378432 
L 96.351462 74.641688 
L 96.50372 72.773011 
L 96.541784 72.969453 
L 96.8463 76.493159 
L 96.922429 75.993354 
L 97.18888 73.199989 
L 97.303074 73.519546 
L 97.341138 73.504403 
L 97.493396 72.901861 
L 97.569525 73.085818 
L 97.95017 75.150971 
L 98.140493 74.783153 
L 98.330815 74.04516 
L 98.635331 71.464512 
L 98.673395 71.634727 
L 98.863718 73.167485 
L 98.901782 73.097594 
L 99.092105 72.08148 
L 99.130169 72.215054 
L 99.282427 73.107889 
L 99.320492 73.08571 
L 99.510814 71.986684 
L 99.586943 72.152842 
L 99.81533 73.627453 
L 99.891459 73.482439 
L 100.081781 72.437904 
L 100.15791 72.547404 
L 100.310168 72.968117 
L 100.348233 72.887667 
L 100.538555 72.345573 
L 100.57662 72.382899 
L 100.652749 72.275171 
L 100.843071 71.22248 
L 100.881136 71.303146 
L 101.071458 71.938629 
L 101.109523 71.928147 
L 101.26178 71.691155 
L 101.299845 71.724378 
L 101.414038 72.39796 
L 101.566296 73.35889 
L 101.604361 73.306075 
L 101.718554 72.221897 
L 101.832748 71.270183 
L 101.870812 71.387555 
L 102.02307 72.373198 
L 102.061135 72.216178 
L 102.213393 71.066001 
L 102.251457 71.116201 
L 102.403715 71.66197 
L 102.44178 71.54639 
L 102.594037 70.655578 
L 102.632102 70.688148 
L 102.746295 71.273913 
L 102.78436 71.24644 
L 102.974682 69.479201 
L 103.012747 69.715282 
L 103.279198 73.604632 
L 103.355327 73.172303 
L 103.507585 72.12737 
L 103.54565 72.14801 
L 103.697908 72.849675 
L 103.774037 72.623091 
L 104.116617 70.446521 
L 104.23081 70.184863 
L 104.268875 70.251836 
L 104.497262 71.78031 
L 104.611455 71.571279 
L 104.725649 71.381176 
L 104.763713 71.43228 
L 104.9921 72.347665 
L 105.030165 72.135093 
L 105.220487 69.979781 
L 105.258552 70.13505 
L 105.639196 73.187664 
L 105.75339 73.108806 
L 105.867583 72.327537 
L 106.09597 70.164256 
L 106.134035 70.207133 
L 106.248228 70.538878 
L 106.286293 70.525029 
L 106.476615 70.11101 
L 106.51468 70.150102 
L 106.743067 70.315337 
L 106.819196 70.336818 
L 107.047582 71.018494 
L 107.085647 70.894475 
L 107.275969 70.031057 
L 107.314034 70.05445 
L 107.61855 70.573709 
L 107.923066 72.458011 
L 107.999195 72.414661 
L 108.075324 72.468607 
L 108.189517 73.471046 
L 108.189517 73.471046 
" style="fill:none;stroke:#008080;stroke-linecap:round;stroke-width:0.5;"/>
   </g>
   <g id="line2d_4">
    <defs>
     <path d="M 0 0.75 
C 0.198902 0.75 0.389685 0.670975 0.53033 0.53033 
C 0.670975 0.389685 0.75 0.198902 0.75 0 
C 0.75 -0.198902 0.670975 -0.389685 0.53033 -0.53033 
C 0.389685 -0.670975 0.198902 -0.75 0 -0.75 
C -0.198902 -0.75 -0.389685 -0.670975 -0.53033 -0.53033 
C -0.670975 -0.389685 -0.75 -0.198902 -0.75 0 
C -0.75 0.198902 -0.670975 0.389685 -0.53033 0.53033 
C -0.389685 0.670975 -0.198902 0.75 0 0.75 
z
" id="mcebc5ba39a" style="stroke:#000000;"/>
    </defs>
    <g clip-path="url(#pec2661c553)">
     <use style="stroke:#000000;" x="50.369562" xlink:href="#mcebc5ba39a" y="10.906364"/>
     <use style="stroke:#000000;" x="51.701819" xlink:href="#mcebc5ba39a" y="10.906364"/>
     <use style="stroke:#000000;" x="46.905693" xlink:href="#mcebc5ba39a" y="10.906364"/>
    </g>
   </g>
   <g id="patch_3">
    <path d="M 28.294063 88.74 
L 28.294063 7.2 
" style="fill:none;stroke:#000000;stroke-linecap:square;stroke-linejoin:miter;"/>
   </g>
   <g id="patch_4">
    <path d="M 28.294063 88.74 
L 111.994062 88.74 
" style="fill:none;stroke:#000000;stroke-linecap:square;stroke-linejoin:miter;"/>
   </g>
   <g id="matplotlib.axis_1">
    <g id="xtick_1">
     <g id="line2d_5"/>
     <g id="text_1">
      <text style="font-family:Arial;font-size:8px;font-style:normal;font-weight:400;text-anchor:middle;" transform="rotate(-0, 32.098608, 97.96625)" x="32.098608" y="97.96625">0</text>
     </g>
    </g>
    <g id="xtick_2">
     <g id="line2d_6"/>
     <g id="text_2">
      <text style="font-family:Arial;font-size:8px;font-style:normal;font-weight:400;text-anchor:middle;" transform="rotate(-0, 70.144062, 97.96625)" x="70.144062" y="97.96625">50</text>
     </g>
    </g>
    <g id="xtick_3">
     <g id="line2d_7"/>
     <g id="text_3">
      <text style="font-family:Arial;font-size:8px;font-style:normal;font-weight:400;text-anchor:middle;" transform="rotate(-0, 108.189517, 97.96625)" x="108.189517" y="97.96625">100</text>
     </g>
    </g>
    <g id="text_4">
     <text style="font-family:Arial;font-size:10px;font-style:normal;font-weight:400;text-anchor:middle;" transform="rotate(-0, 70.144062, 110.714063)" x="70.144062" y="110.714063">Time</text>
    </g>
   </g>
   <g id="matplotlib.axis_2">
    <g id="ytick_1">
     <g id="line2d_8"/>
     <g id="text_5">
      <text style="font-family:Arial;font-size:8px;font-style:normal;font-weight:400;text-anchor:end;" transform="rotate(-0, 24.794063, 74.768054)" x="24.794063" y="74.768054">0</text>
     </g>
    </g>
    <g id="ytick_2">
     <g id="line2d_9"/>
     <g id="text_6">
      <text style="font-family:Arial;font-size:8px;font-style:normal;font-weight:400;text-anchor:end;" transform="rotate(-0, 24.794063, 54.435199)" x="24.794063" y="54.435199">1</text>
     </g>
    </g>
    <g id="ytick_3">
     <g id="line2d_10"/>
     <g id="text_7">
      <text style="font-family:Arial;font-size:8px;font-style:normal;font-weight:400;text-anchor:end;" transform="rotate(-0, 24.794063, 34.102344)" x="24.794063" y="34.102344">2</text>
     </g>
    </g>
    <g id="ytick_4">
     <g id="line2d_11"/>
     <g id="text_8">
      <text style="font-family:Arial;font-size:8px;font-style:normal;font-weight:400;text-anchor:end;" transform="rotate(-0, 24.794063, 13.769489)" x="24.794063" y="13.769489">3</text>
     </g>
    </g>
    <g id="text_9">
     <!-- $V_m$ -->
     <g transform="translate(14.357813 54.97)rotate(-90)">
      <text>
       <tspan style="font-family:DejaVu Sans;font-size:10px;font-style:oblique;font-weight:oblique;" x="0" y="-0.703125">V</tspan>
       <tspan style="font-family:DejaVu Sans;font-size:7px;font-style:oblique;font-weight:oblique;" x="6.84082" y="0.9375">m</tspan>
      </text>
     </g>
    </g>
   </g>
  </g>
 </g>
 <defs>
  <clipPath id="pec2661c553">
   <rect height="81.54" width="83.7" x="28.294063" y="7.2"/>
  </clipPath>
 </defs>
</svg>
