<?xml version="1.0" encoding="utf-8" standalone="no"?>
<!DOCTYPE svg PUBLIC "-//W3C//DTD SVG 1.1//EN"
  "http://www.w3.org/Graphics/SVG/1.1/DTD/svg11.dtd">
<!-- Created with matplotlib (http://matplotlib.org/) -->
<svg height="120pt" version="1.1" viewBox="0 0 124 120" width="124pt" xmlns="http://www.w3.org/2000/svg" xmlns:xlink="http://www.w3.org/1999/xlink">
 <defs>
  <style type="text/css">
*{stroke-linecap:butt;stroke-linejoin:round;}
  </style>
 </defs>
 <g id="figure_1">
  <g id="patch_1">
   <path d="M -0 120.265938 
L 124.42375 120.265938 
L 124.42375 0 
L -0 0 
z
" style="fill:none;opacity:0;"/>
  </g>
  <g id="axes_1">
   <g id="patch_2">
    <path d="M 28.41125 89.104375 
L 112.11125 89.104375 
L 112.11125 7.564375 
L 28.41125 7.564375 
z
" style="fill:none;"/>
   </g>
   <g id="patch_3">
    <path clip-path="url(#pfe95a8b740)" d="M 32.215795 82.67595 
L 34.773473 82.67595 
L 34.773473 76.278772 
L 32.215795 76.278772 
z
"/>
   </g>
   <g id="patch_4">
    <path clip-path="url(#pfe95a8b740)" d="M 35.412892 82.67595 
L 37.97057 82.67595 
L 37.97057 72.543244 
L 35.412892 72.543244 
z
"/>
   </g>
   <g id="patch_5">
    <path clip-path="url(#pfe95a8b740)" d="M 38.609989 82.67595 
L 41.167667 82.67595 
L 41.167667 70.279889 
L 38.609989 70.279889 
z
"/>
   </g>
   <g id="patch_6">
    <path clip-path="url(#pfe95a8b740)" d="M 41.807087 82.67595 
L 44.364764 82.67595 
L 44.364764 70.192049 
L 41.807087 70.192049 
z
"/>
   </g>
   <g id="patch_7">
    <path clip-path="url(#pfe95a8b740)" d="M 45.004184 82.67595 
L 47.561861 82.67595 
L 47.561861 70.046632 
L 45.004184 70.046632 
z
"/>
   </g>
   <g id="patch_8">
    <path clip-path="url(#pfe95a8b740)" d="M 48.201281 82.67595 
L 50.758958 82.67595 
L 50.758958 67.869692 
L 48.201281 67.869692 
z
"/>
   </g>
   <g id="patch_9">
    <path clip-path="url(#pfe95a8b740)" d="M 51.398378 82.67595 
L 53.956055 82.67595 
L 53.956055 63.222112 
L 51.398378 63.222112 
z
"/>
   </g>
   <g id="patch_10">
    <path clip-path="url(#pfe95a8b740)" d="M 54.595475 82.67595 
L 57.153152 82.67595 
L 57.153152 62.547234 
L 54.595475 62.547234 
z
"/>
   </g>
   <g id="patch_11">
    <path clip-path="url(#pfe95a8b740)" d="M 57.792572 82.67595 
L 60.350249 82.67595 
L 60.350249 61.516006 
L 57.792572 61.516006 
z
"/>
   </g>
   <g id="patch_12">
    <path clip-path="url(#pfe95a8b740)" d="M 60.989669 82.67595 
L 63.547346 82.67595 
L 63.547346 61.118668 
L 60.989669 61.118668 
z
"/>
   </g>
   <g id="patch_13">
    <path clip-path="url(#pfe95a8b740)" d="M 64.186766 82.67595 
L 66.744443 82.67595 
L 66.744443 59.285136 
L 64.186766 59.285136 
z
"/>
   </g>
   <g id="patch_14">
    <path clip-path="url(#pfe95a8b740)" d="M 67.383863 82.67595 
L 69.94154 82.67595 
L 69.94154 57.472364 
L 67.383863 57.472364 
z
"/>
   </g>
   <g id="patch_15">
    <path clip-path="url(#pfe95a8b740)" d="M 70.58096 82.67595 
L 73.138637 82.67595 
L 73.138637 57.236143 
L 70.58096 57.236143 
z
"/>
   </g>
   <g id="patch_16">
    <path clip-path="url(#pfe95a8b740)" d="M 73.778057 82.67595 
L 76.335734 82.67595 
L 76.335734 56.463976 
L 73.778057 56.463976 
z
"/>
   </g>
   <g id="patch_17">
    <path clip-path="url(#pfe95a8b740)" d="M 76.975154 82.67595 
L 79.532831 82.67595 
L 79.532831 54.012689 
L 76.975154 54.012689 
z
"/>
   </g>
   <g id="patch_18">
    <path clip-path="url(#pfe95a8b740)" d="M 80.172251 82.67595 
L 82.729928 82.67595 
L 82.729928 50.904495 
L 80.172251 50.904495 
z
"/>
   </g>
   <g id="patch_19">
    <path clip-path="url(#pfe95a8b740)" d="M 83.369348 82.67595 
L 85.927025 82.67595 
L 85.927025 50.154861 
L 83.369348 50.154861 
z
"/>
   </g>
   <g id="patch_20">
    <path clip-path="url(#pfe95a8b740)" d="M 86.566445 82.67595 
L 89.124122 82.67595 
L 89.124122 49.112196 
L 86.566445 49.112196 
z
"/>
   </g>
   <g id="patch_21">
    <path clip-path="url(#pfe95a8b740)" d="M 89.763542 82.67595 
L 92.321219 82.67595 
L 92.321219 46.052798 
L 89.763542 46.052798 
z
"/>
   </g>
   <g id="patch_22">
    <path clip-path="url(#pfe95a8b740)" d="M 92.960639 82.67595 
L 95.518316 82.67595 
L 95.518316 41.846307 
L 92.960639 41.846307 
z
"/>
   </g>
   <g id="patch_23">
    <path clip-path="url(#pfe95a8b740)" d="M 96.157736 82.67595 
L 98.715413 82.67595 
L 98.715413 38.283574 
L 96.157736 38.283574 
z
"/>
   </g>
   <g id="patch_24">
    <path clip-path="url(#pfe95a8b740)" d="M 99.354833 82.67595 
L 101.912511 82.67595 
L 101.912511 38.101068 
L 99.354833 38.101068 
z
"/>
   </g>
   <g id="patch_25">
    <path clip-path="url(#pfe95a8b740)" d="M 102.55193 82.67595 
L 105.109608 82.67595 
L 105.109608 36.204816 
L 102.55193 36.204816 
z
"/>
   </g>
   <g id="patch_26">
    <path clip-path="url(#pfe95a8b740)" d="M 105.749027 82.67595 
L 108.306705 82.67595 
L 108.306705 20.51105 
L 105.749027 20.51105 
z
"/>
   </g>
   <g id="LineCollection_1">
    <path clip-path="url(#pfe95a8b740)" d="M 33.494634 77.865806 
L 33.494634 74.691738 
" style="fill:none;stroke:#808080;stroke-width:0.5;"/>
    <path clip-path="url(#pfe95a8b740)" d="M 36.691731 74.349894 
L 36.691731 70.736593 
" style="fill:none;stroke:#808080;stroke-width:0.5;"/>
    <path clip-path="url(#pfe95a8b740)" d="M 39.888828 79.75018 
L 39.888828 60.809597 
" style="fill:none;stroke:#808080;stroke-width:0.5;"/>
    <path clip-path="url(#pfe95a8b740)" d="M 43.085925 76.840407 
L 43.085925 63.543692 
" style="fill:none;stroke:#808080;stroke-width:0.5;"/>
    <path clip-path="url(#pfe95a8b740)" d="M 46.283022 82.099949 
L 46.283022 57.993316 
" style="fill:none;stroke:#808080;stroke-width:0.5;"/>
    <path clip-path="url(#pfe95a8b740)" d="M 49.480119 71.497192 
L 49.480119 64.242192 
" style="fill:none;stroke:#808080;stroke-width:0.5;"/>
    <path clip-path="url(#pfe95a8b740)" d="M 52.677216 77.983358 
L 52.677216 48.460867 
" style="fill:none;stroke:#808080;stroke-width:0.5;"/>
    <path clip-path="url(#pfe95a8b740)" d="M 55.874313 76.909188 
L 55.874313 48.185281 
" style="fill:none;stroke:#808080;stroke-width:0.5;"/>
    <path clip-path="url(#pfe95a8b740)" d="M 59.07141 69.990212 
L 59.07141 53.0418 
" style="fill:none;stroke:#808080;stroke-width:0.5;"/>
    <path clip-path="url(#pfe95a8b740)" d="M 62.268507 85.398011 
L 62.268507 36.839324 
" style="fill:none;stroke:#808080;stroke-width:0.5;"/>
    <path clip-path="url(#pfe95a8b740)" d="M 65.465604 76.406096 
L 65.465604 42.164176 
" style="fill:none;stroke:#808080;stroke-width:0.5;"/>
    <path clip-path="url(#pfe95a8b740)" d="M 68.662701 72.501442 
L 68.662701 42.443285 
" style="fill:none;stroke:#808080;stroke-width:0.5;"/>
    <path clip-path="url(#pfe95a8b740)" d="M 71.859799 61.711242 
L 71.859799 52.761045 
" style="fill:none;stroke:#808080;stroke-width:0.5;"/>
    <path clip-path="url(#pfe95a8b740)" d="M 75.056896 64.963316 
L 75.056896 47.964637 
" style="fill:none;stroke:#808080;stroke-width:0.5;"/>
    <path clip-path="url(#pfe95a8b740)" d="M 78.253993 65.317458 
L 78.253993 42.70792 
" style="fill:none;stroke:#808080;stroke-width:0.5;"/>
    <path clip-path="url(#pfe95a8b740)" d="M 81.45109 55.35754 
L 81.45109 46.451451 
" style="fill:none;stroke:#808080;stroke-width:0.5;"/>
    <path clip-path="url(#pfe95a8b740)" d="M 84.648187 71.469333 
L 84.648187 28.840388 
" style="fill:none;stroke:#808080;stroke-width:0.5;"/>
    <path clip-path="url(#pfe95a8b740)" d="M 87.845284 61.971344 
L 87.845284 36.253049 
" style="fill:none;stroke:#808080;stroke-width:0.5;"/>
    <path clip-path="url(#pfe95a8b740)" d="M 91.042381 51.225368 
L 91.042381 40.880229 
" style="fill:none;stroke:#808080;stroke-width:0.5;"/>
    <path clip-path="url(#pfe95a8b740)" d="M 94.239478 58.453077 
L 94.239478 25.239536 
" style="fill:none;stroke:#808080;stroke-width:0.5;"/>
    <path clip-path="url(#pfe95a8b740)" d="M 97.436575 57.515297 
L 97.436575 19.051852 
" style="fill:none;stroke:#808080;stroke-width:0.5;"/>
    <path clip-path="url(#pfe95a8b740)" d="M 100.633672 54.774964 
L 100.633672 21.427173 
" style="fill:none;stroke:#808080;stroke-width:0.5;"/>
    <path clip-path="url(#pfe95a8b740)" d="M 103.830769 50.621619 
L 103.830769 21.788013 
" style="fill:none;stroke:#808080;stroke-width:0.5;"/>
    <path clip-path="url(#pfe95a8b740)" d="M 107.027866 29.751362 
L 107.027866 11.270739 
" style="fill:none;stroke:#808080;stroke-width:0.5;"/>
   </g>
   <g id="patch_27">
    <path d="M 28.41125 89.104375 
L 28.41125 7.564375 
" style="fill:none;stroke:#000000;stroke-linecap:square;stroke-linejoin:miter;"/>
   </g>
   <g id="patch_28">
    <path d="M 28.41125 89.104375 
L 112.11125 89.104375 
" style="fill:none;stroke:#000000;stroke-linecap:square;stroke-linejoin:miter;"/>
   </g>
   <g id="matplotlib.axis_1">
    <g id="xtick_1">
     <g id="line2d_1"/>
     <g id="text_1">
      <text style="font-family:Arial;font-size:8px;font-style:normal;font-weight:400;text-anchor:middle;" transform="rotate(-0, 33.494634, 98.330625)" x="33.494634" y="98.330625">0</text>
     </g>
    </g>
    <g id="xtick_2">
     <g id="line2d_2"/>
     <g id="text_2">
      <text style="font-family:Arial;font-size:8px;font-style:normal;font-weight:400;text-anchor:middle;" transform="rotate(-0, 65.465604, 98.330625)" x="65.465604" y="98.330625">10</text>
     </g>
    </g>
    <g id="xtick_3">
     <g id="line2d_3"/>
     <g id="text_3">
      <text style="font-family:Arial;font-size:8px;font-style:normal;font-weight:400;text-anchor:middle;" transform="rotate(-0, 97.436575, 98.330625)" x="97.436575" y="98.330625">20</text>
     </g>
    </g>
    <g id="text_4">
     <text style="font-family:Arial;font-size:10px;font-style:normal;font-weight:400;text-anchor:middle;" transform="rotate(-0, 70.26125, 111.078438)" x="70.26125" y="111.078438">sorted stimulus index</text>
    </g>
   </g>
   <g id="matplotlib.axis_2">
    <g id="ytick_1">
     <g id="line2d_4"/>
     <g id="text_5">
      <text style="font-family:Arial;font-size:8px;font-style:normal;font-weight:400;text-anchor:end;" transform="rotate(-0, 24.91125, 85.539075)" x="24.91125" y="85.539075">0</text>
     </g>
    </g>
    <g id="ytick_2">
     <g id="line2d_5"/>
     <g id="text_6">
      <text style="font-family:Arial;font-size:8px;font-style:normal;font-weight:400;text-anchor:end;" transform="rotate(-0, 24.91125, 59.643185)" x="24.91125" y="59.643185">1</text>
     </g>
    </g>
    <g id="ytick_3">
     <g id="line2d_6"/>
     <g id="text_7">
      <text style="font-family:Arial;font-size:8px;font-style:normal;font-weight:400;text-anchor:end;" transform="rotate(-0, 24.91125, 33.747294)" x="24.91125" y="33.747294">2</text>
     </g>
    </g>
    <g id="text_8">
     <text style="font-family:Arial;font-size:10px;font-style:normal;font-weight:400;text-anchor:middle;" transform="rotate(-90, 14.357813, 48.334375)" x="14.357813" y="48.334375">average amplitude</text>
    </g>
   </g>
  </g>
 </g>
 <defs>
  <clipPath id="pfe95a8b740">
   <rect height="81.54" width="83.7" x="28.41125" y="7.564375"/>
  </clipPath>
 </defs>
</svg>
