<?xml version="1.0" encoding="utf-8" standalone="no"?>
<!DOCTYPE svg PUBLIC "-//W3C//DTD SVG 1.1//EN"
  "http://www.w3.org/Graphics/SVG/1.1/DTD/svg11.dtd">
<!-- Created with matplotlib (http://matplotlib.org/) -->
<svg height="119pt" version="1.1" viewBox="0 0 123 119" width="123pt" xmlns="http://www.w3.org/2000/svg" xmlns:xlink="http://www.w3.org/1999/xlink">
 <defs>
  <style type="text/css">
*{stroke-linecap:butt;stroke-linejoin:round;}
  </style>
 </defs>
 <g id="figure_1">
  <g id="patch_1">
   <path d="M 0 119.901563 
L 123.642813 119.901563 
L 123.642813 -0 
L 0 -0 
z
" style="fill:none;opacity:0;"/>
  </g>
  <g id="axes_1">
   <g id="patch_2">
    <path d="M 32.742812 88.74 
L 116.442813 88.74 
L 116.442813 7.2 
L 32.742812 7.2 
z
" style="fill:none;"/>
   </g>
   <g id="patch_3">
    <path clip-path="url(#pd26d994888)" d="M 32.742812 88.74 
L 34.450976 88.74 
L 34.450976 88.74 
L 32.742812 88.74 
z
" style="fill:#808080;"/>
   </g>
   <g id="patch_4">
    <path clip-path="url(#pd26d994888)" d="M 34.450976 88.74 
L 36.159139 88.74 
L 36.159139 88.74 
L 34.450976 88.74 
z
" style="fill:#808080;"/>
   </g>
   <g id="patch_5">
    <path clip-path="url(#pd26d994888)" d="M 36.159139 88.74 
L 37.867302 88.74 
L 37.867302 84.033506 
L 36.159139 84.033506 
z
" style="fill:#808080;"/>
   </g>
   <g id="patch_6">
    <path clip-path="url(#pd26d994888)" d="M 37.867302 88.74 
L 39.575466 88.74 
L 39.575466 46.381558 
L 37.867302 46.381558 
z
" style="fill:#808080;"/>
   </g>
   <g id="patch_7">
    <path clip-path="url(#pd26d994888)" d="M 39.575466 88.74 
L 41.283629 88.74 
L 41.283629 11.082857 
L 39.575466 11.082857 
z
" style="fill:#808080;"/>
   </g>
   <g id="patch_8">
    <path clip-path="url(#pd26d994888)" d="M 41.283629 88.74 
L 42.991792 88.74 
L 42.991792 32.262078 
L 41.283629 32.262078 
z
" style="fill:#808080;"/>
   </g>
   <g id="patch_9">
    <path clip-path="url(#pd26d994888)" d="M 42.991792 88.74 
L 44.699955 88.74 
L 44.699955 25.202338 
L 42.991792 25.202338 
z
" style="fill:#808080;"/>
   </g>
   <g id="patch_10">
    <path clip-path="url(#pd26d994888)" d="M 44.699955 88.74 
L 46.408119 88.74 
L 46.408119 48.734805 
L 44.699955 48.734805 
z
" style="fill:#808080;"/>
   </g>
   <g id="patch_11">
    <path clip-path="url(#pd26d994888)" d="M 46.408119 88.74 
L 48.116282 88.74 
L 48.116282 58.147792 
L 46.408119 58.147792 
z
" style="fill:#808080;"/>
   </g>
   <g id="patch_12">
    <path clip-path="url(#pd26d994888)" d="M 48.116282 88.74 
L 49.824445 88.74 
L 49.824445 81.68026 
L 48.116282 81.68026 
z
" style="fill:#808080;"/>
   </g>
   <g id="patch_13">
    <path clip-path="url(#pd26d994888)" d="M 49.824445 88.74 
L 51.532608 88.74 
L 51.532608 86.386753 
L 49.824445 86.386753 
z
" style="fill:#808080;"/>
   </g>
   <g id="patch_14">
    <path clip-path="url(#pd26d994888)" d="M 51.532608 88.74 
L 53.240772 88.74 
L 53.240772 88.74 
L 51.532608 88.74 
z
" style="fill:#808080;"/>
   </g>
   <g id="patch_15">
    <path clip-path="url(#pd26d994888)" d="M 53.240772 88.74 
L 54.948935 88.74 
L 54.948935 88.74 
L 53.240772 88.74 
z
" style="fill:#808080;"/>
   </g>
   <g id="patch_16">
    <path clip-path="url(#pd26d994888)" d="M 54.948935 88.74 
L 56.657098 88.74 
L 56.657098 88.74 
L 54.948935 88.74 
z
" style="fill:#808080;"/>
   </g>
   <g id="patch_17">
    <path clip-path="url(#pd26d994888)" d="M 56.657098 88.74 
L 58.365261 88.74 
L 58.365261 88.74 
L 56.657098 88.74 
z
" style="fill:#808080;"/>
   </g>
   <g id="patch_18">
    <path clip-path="url(#pd26d994888)" d="M 58.365261 88.74 
L 60.073425 88.74 
L 60.073425 88.74 
L 58.365261 88.74 
z
" style="fill:#808080;"/>
   </g>
   <g id="patch_19">
    <path clip-path="url(#pd26d994888)" d="M 60.073425 88.74 
L 61.781588 88.74 
L 61.781588 88.74 
L 60.073425 88.74 
z
" style="fill:#808080;"/>
   </g>
   <g id="patch_20">
    <path clip-path="url(#pd26d994888)" d="M 61.781588 88.74 
L 63.489751 88.74 
L 63.489751 88.74 
L 61.781588 88.74 
z
" style="fill:#808080;"/>
   </g>
   <g id="patch_21">
    <path clip-path="url(#pd26d994888)" d="M 63.489751 88.74 
L 65.197915 88.74 
L 65.197915 88.74 
L 63.489751 88.74 
z
" style="fill:#808080;"/>
   </g>
   <g id="patch_22">
    <path clip-path="url(#pd26d994888)" d="M 65.197915 88.74 
L 66.906078 88.74 
L 66.906078 88.74 
L 65.197915 88.74 
z
" style="fill:#808080;"/>
   </g>
   <g id="patch_23">
    <path clip-path="url(#pd26d994888)" d="M 66.906078 88.74 
L 68.614241 88.74 
L 68.614241 88.74 
L 66.906078 88.74 
z
" style="fill:#ffa500;"/>
   </g>
   <g id="patch_24">
    <path clip-path="url(#pd26d994888)" d="M 68.614241 88.74 
L 70.322404 88.74 
L 70.322404 88.74 
L 68.614241 88.74 
z
" style="fill:#ffa500;"/>
   </g>
   <g id="patch_25">
    <path clip-path="url(#pd26d994888)" d="M 70.322404 88.74 
L 72.030568 88.74 
L 72.030568 88.74 
L 70.322404 88.74 
z
" style="fill:#ffa500;"/>
   </g>
   <g id="patch_26">
    <path clip-path="url(#pd26d994888)" d="M 72.030568 88.74 
L 73.738731 88.74 
L 73.738731 88.74 
L 72.030568 88.74 
z
" style="fill:#ffa500;"/>
   </g>
   <g id="patch_27">
    <path clip-path="url(#pd26d994888)" d="M 73.738731 88.74 
L 75.446894 88.74 
L 75.446894 88.74 
L 73.738731 88.74 
z
" style="fill:#ffa500;"/>
   </g>
   <g id="patch_28">
    <path clip-path="url(#pd26d994888)" d="M 75.446894 88.74 
L 77.155057 88.74 
L 77.155057 88.74 
L 75.446894 88.74 
z
" style="fill:#ffa500;"/>
   </g>
   <g id="patch_29">
    <path clip-path="url(#pd26d994888)" d="M 77.155057 88.74 
L 78.863221 88.74 
L 78.863221 88.74 
L 77.155057 88.74 
z
" style="fill:#ffa500;"/>
   </g>
   <g id="patch_30">
    <path clip-path="url(#pd26d994888)" d="M 78.863221 88.74 
L 80.571384 88.74 
L 80.571384 88.74 
L 78.863221 88.74 
z
" style="fill:#ffa500;"/>
   </g>
   <g id="patch_31">
    <path clip-path="url(#pd26d994888)" d="M 80.571384 88.74 
L 82.279547 88.74 
L 82.279547 88.74 
L 80.571384 88.74 
z
" style="fill:#ffa500;"/>
   </g>
   <g id="patch_32">
    <path clip-path="url(#pd26d994888)" d="M 82.279547 88.74 
L 83.98771 88.74 
L 83.98771 88.74 
L 82.279547 88.74 
z
" style="fill:#ffa500;"/>
   </g>
   <g id="patch_33">
    <path clip-path="url(#pd26d994888)" d="M 83.98771 88.74 
L 85.695874 88.74 
L 85.695874 88.74 
L 83.98771 88.74 
z
" style="fill:#ffa500;"/>
   </g>
   <g id="patch_34">
    <path clip-path="url(#pd26d994888)" d="M 85.695874 88.74 
L 87.404037 88.74 
L 87.404037 88.74 
L 85.695874 88.74 
z
" style="fill:#ffa500;"/>
   </g>
   <g id="patch_35">
    <path clip-path="url(#pd26d994888)" d="M 87.404037 88.74 
L 89.1122 88.74 
L 89.1122 88.74 
L 87.404037 88.74 
z
" style="fill:#ffa500;"/>
   </g>
   <g id="patch_36">
    <path clip-path="url(#pd26d994888)" d="M 89.1122 88.74 
L 90.820364 88.74 
L 90.820364 88.74 
L 89.1122 88.74 
z
" style="fill:#ffa500;"/>
   </g>
   <g id="patch_37">
    <path clip-path="url(#pd26d994888)" d="M 90.820364 88.74 
L 92.528527 88.74 
L 92.528527 88.74 
L 90.820364 88.74 
z
" style="fill:#ffa500;"/>
   </g>
   <g id="patch_38">
    <path clip-path="url(#pd26d994888)" d="M 92.528527 88.74 
L 94.23669 88.74 
L 94.23669 88.74 
L 92.528527 88.74 
z
" style="fill:#ffa500;"/>
   </g>
   <g id="patch_39">
    <path clip-path="url(#pd26d994888)" d="M 94.23669 88.74 
L 95.944853 88.74 
L 95.944853 88.74 
L 94.23669 88.74 
z
" style="fill:#ffa500;"/>
   </g>
   <g id="patch_40">
    <path clip-path="url(#pd26d994888)" d="M 95.944853 88.74 
L 97.653017 88.74 
L 97.653017 88.74 
L 95.944853 88.74 
z
" style="fill:#ffa500;"/>
   </g>
   <g id="patch_41">
    <path clip-path="url(#pd26d994888)" d="M 97.653017 88.74 
L 99.36118 88.74 
L 99.36118 88.74 
L 97.653017 88.74 
z
" style="fill:#ffa500;"/>
   </g>
   <g id="patch_42">
    <path clip-path="url(#pd26d994888)" d="M 99.36118 88.74 
L 101.069343 88.74 
L 101.069343 88.74 
L 99.36118 88.74 
z
" style="fill:#ffa500;"/>
   </g>
   <g id="patch_43">
    <path clip-path="url(#pd26d994888)" d="M 101.069343 88.74 
L 102.777506 88.74 
L 102.777506 88.74 
L 101.069343 88.74 
z
" style="fill:#ffa500;"/>
   </g>
   <g id="patch_44">
    <path clip-path="url(#pd26d994888)" d="M 102.777506 88.74 
L 104.48567 88.74 
L 104.48567 88.74 
L 102.777506 88.74 
z
" style="fill:#ffa500;"/>
   </g>
   <g id="patch_45">
    <path clip-path="url(#pd26d994888)" d="M 104.48567 88.74 
L 106.193833 88.74 
L 106.193833 88.74 
L 104.48567 88.74 
z
" style="fill:#ffa500;"/>
   </g>
   <g id="patch_46">
    <path clip-path="url(#pd26d994888)" d="M 106.193833 88.74 
L 107.901996 88.74 
L 107.901996 88.74 
L 106.193833 88.74 
z
" style="fill:#ffa500;"/>
   </g>
   <g id="patch_47">
    <path clip-path="url(#pd26d994888)" d="M 107.901996 88.74 
L 109.610159 88.74 
L 109.610159 88.74 
L 107.901996 88.74 
z
" style="fill:#ffa500;"/>
   </g>
   <g id="patch_48">
    <path clip-path="url(#pd26d994888)" d="M 109.610159 88.74 
L 111.318323 88.74 
L 111.318323 88.74 
L 109.610159 88.74 
z
" style="fill:#ffa500;"/>
   </g>
   <g id="patch_49">
    <path clip-path="url(#pd26d994888)" d="M 111.318323 88.74 
L 113.026486 88.74 
L 113.026486 88.74 
L 111.318323 88.74 
z
" style="fill:#ffa500;"/>
   </g>
   <g id="patch_50">
    <path clip-path="url(#pd26d994888)" d="M 113.026486 88.74 
L 114.734649 88.74 
L 114.734649 88.74 
L 113.026486 88.74 
z
" style="fill:#ffa500;"/>
   </g>
   <g id="patch_51">
    <path clip-path="url(#pd26d994888)" d="M 114.734649 88.74 
L 116.442813 88.74 
L 116.442813 88.74 
L 114.734649 88.74 
z
" style="fill:#ffa500;"/>
   </g>
   <g id="patch_52">
    <path d="M 32.742812 88.74 
L 32.742812 7.2 
" style="fill:none;stroke:#000000;stroke-linecap:square;stroke-linejoin:miter;"/>
   </g>
   <g id="patch_53">
    <path d="M 32.742812 88.74 
L 116.442813 88.74 
" style="fill:none;stroke:#000000;stroke-linecap:square;stroke-linejoin:miter;"/>
   </g>
   <g id="matplotlib.axis_1">
    <g id="xtick_1">
     <g id="line2d_1"/>
     <g id="text_1">
      <text style="font-family:Arial;font-size:8px;font-style:normal;font-weight:normal;text-anchor:middle;" transform="rotate(-0, 32.742812, 97.96625)" x="32.742812" y="97.96625">0</text>
     </g>
    </g>
    <g id="xtick_2">
     <g id="line2d_2"/>
     <g id="text_2">
      <text style="font-family:Arial;font-size:8px;font-style:normal;font-weight:normal;text-anchor:middle;" transform="rotate(-0, 66.222813, 97.96625)" x="66.222813" y="97.96625">1</text>
     </g>
    </g>
    <g id="xtick_3">
     <g id="line2d_3"/>
     <g id="text_3">
      <text style="font-family:Arial;font-size:8px;font-style:normal;font-weight:normal;text-anchor:middle;" transform="rotate(-0, 99.702813, 97.96625)" x="99.702813" y="97.96625">2</text>
     </g>
    </g>
    <g id="text_4">
     <text style="font-family:Arial;font-size:10px;font-style:normal;font-weight:normal;text-anchor:middle;" transform="rotate(-0, 74.592813, 110.714063)" x="74.592813" y="110.714063">O/E</text>
    </g>
   </g>
   <g id="matplotlib.axis_2">
    <g id="ytick_1">
     <g id="line2d_4"/>
     <g id="text_5">
      <text style="font-family:Arial;font-size:8px;font-style:normal;font-weight:normal;text-anchor:end;" transform="rotate(-0, 29.242812, 91.603125)" x="29.242812" y="91.603125">0</text>
     </g>
    </g>
    <g id="ytick_2">
     <g id="line2d_5"/>
     <g id="text_6">
      <text style="font-family:Arial;font-size:8px;font-style:normal;font-weight:normal;text-anchor:end;" transform="rotate(-0, 29.242812, 68.070657)" x="29.242812" y="68.070657">10</text>
     </g>
    </g>
    <g id="ytick_3">
     <g id="line2d_6"/>
     <g id="text_7">
      <text style="font-family:Arial;font-size:8px;font-style:normal;font-weight:normal;text-anchor:end;" transform="rotate(-0, 29.242812, 44.53819)" x="29.242812" y="44.53819">20</text>
     </g>
    </g>
    <g id="ytick_4">
     <g id="line2d_7"/>
     <g id="text_8">
      <text style="font-family:Arial;font-size:8px;font-style:normal;font-weight:normal;text-anchor:end;" transform="rotate(-0, 29.242812, 21.005722)" x="29.242812" y="21.005722">30</text>
     </g>
    </g>
    <g id="text_9">
     <text style="font-family:Arial;font-size:10px;font-style:normal;font-weight:normal;text-anchor:middle;" transform="rotate(-90, 14.357812, 47.97)" x="14.357812" y="47.97"># PSPs</text>
    </g>
   </g>
  </g>
 </g>
 <defs>
  <clipPath id="pd26d994888">
   <rect height="81.54" width="83.7" x="32.742812" y="7.2"/>
  </clipPath>
 </defs>
</svg>
