<?xml version="1.0" encoding="utf-8" standalone="no"?>
<!DOCTYPE svg PUBLIC "-//W3C//DTD SVG 1.1//EN"
  "http://www.w3.org/Graphics/SVG/1.1/DTD/svg11.dtd">
<!-- Created with matplotlib (http://matplotlib.org/) -->
<svg height="120pt" version="1.1" viewBox="0 0 124 120" width="124pt" xmlns="http://www.w3.org/2000/svg" xmlns:xlink="http://www.w3.org/1999/xlink">
 <defs>
  <style type="text/css">
*{stroke-linecap:butt;stroke-linejoin:round;}
  </style>
 </defs>
 <g id="figure_1">
  <g id="patch_1">
   <path d="M 0 120.023438 
L 124.754063 120.023438 
L 124.754063 -0 
L 0 -0 
z
" style="fill:none;opacity:0;"/>
  </g>
  <g id="axes_1">
   <g id="patch_2">
    <path d="M 28.294063 88.74 
L 111.994062 88.74 
L 111.994062 7.2 
L 28.294063 7.2 
z
" style="fill:none;"/>
   </g>
   <g id="patch_3">
    <path clip-path="url(#p9c1fae6bed)" d="M 12.66969 88.74 
L 20.771277 88.74 
L 20.771277 75.797143 
L 12.66969 75.797143 
z
" style="fill:#808080;"/>
   </g>
   <g id="patch_4">
    <path clip-path="url(#p9c1fae6bed)" d="M 20.771277 88.74 
L 28.872864 88.74 
L 28.872864 62.854286 
L 20.771277 62.854286 
z
" style="fill:#808080;"/>
   </g>
   <g id="patch_5">
    <path clip-path="url(#p9c1fae6bed)" d="M 28.872864 88.74 
L 36.974451 88.74 
L 36.974451 11.082857 
L 28.872864 11.082857 
z
" style="fill:#808080;"/>
   </g>
   <g id="patch_6">
    <path clip-path="url(#p9c1fae6bed)" d="M 36.974451 88.74 
L 45.076038 88.74 
L 45.076038 11.082857 
L 36.974451 11.082857 
z
" style="fill:#808080;"/>
   </g>
   <g id="patch_7">
    <path clip-path="url(#p9c1fae6bed)" d="M 45.076038 88.74 
L 53.177625 88.74 
L 53.177625 36.968571 
L 45.076038 36.968571 
z
" style="fill:#808080;"/>
   </g>
   <g id="patch_8">
    <path clip-path="url(#p9c1fae6bed)" d="M 53.177625 88.74 
L 61.279212 88.74 
L 61.279212 36.968571 
L 53.177625 36.968571 
z
" style="fill:#808080;"/>
   </g>
   <g id="patch_9">
    <path clip-path="url(#p9c1fae6bed)" d="M 61.279212 88.74 
L 69.380799 88.74 
L 69.380799 24.025714 
L 61.279212 24.025714 
z
" style="fill:#808080;"/>
   </g>
   <g id="patch_10">
    <path clip-path="url(#p9c1fae6bed)" d="M 69.380799 88.74 
L 77.482386 88.74 
L 77.482386 75.797143 
L 69.380799 75.797143 
z
" style="fill:#808080;"/>
   </g>
   <g id="patch_11">
    <path clip-path="url(#p9c1fae6bed)" d="M 77.482386 88.74 
L 85.583973 88.74 
L 85.583973 49.911429 
L 77.482386 49.911429 
z
" style="fill:#808080;"/>
   </g>
   <g id="patch_12">
    <path clip-path="url(#p9c1fae6bed)" d="M 85.583973 88.74 
L 93.68556 88.74 
L 93.68556 75.797143 
L 85.583973 75.797143 
z
" style="fill:#808080;"/>
   </g>
   <g id="patch_13">
    <path d="M 28.294063 88.74 
L 28.294063 7.2 
" style="fill:none;stroke:#000000;stroke-linecap:square;stroke-linejoin:miter;"/>
   </g>
   <g id="patch_14">
    <path d="M 28.294063 88.74 
L 111.994062 88.74 
" style="fill:none;stroke:#000000;stroke-linecap:square;stroke-linejoin:miter;"/>
   </g>
   <g id="matplotlib.axis_1">
    <g id="xtick_1">
     <g id="line2d_1"/>
     <g id="text_1">
      <text style="font-family:Arial;font-size:8px;font-style:normal;font-weight:400;text-anchor:middle;" transform="rotate(-0, 28.294063, 97.96625)" x="28.294063" y="97.96625">0.0</text>
     </g>
    </g>
    <g id="xtick_2">
     <g id="line2d_2"/>
     <g id="text_2">
      <text style="font-family:Arial;font-size:8px;font-style:normal;font-weight:400;text-anchor:middle;" transform="rotate(-0, 70.144062, 97.96625)" x="70.144062" y="97.96625">0.5</text>
     </g>
    </g>
    <g id="xtick_3">
     <g id="line2d_3"/>
     <g id="text_3">
      <text style="font-family:Arial;font-size:8px;font-style:normal;font-weight:400;text-anchor:middle;" transform="rotate(-0, 111.994062, 97.96625)" x="111.994062" y="97.96625">1.0</text>
     </g>
    </g>
    <g id="text_4">
     <text style="font-family:Arial;font-size:10px;font-style:normal;font-weight:400;text-anchor:middle;" transform="rotate(-0, 70.144062, 110.835938)" x="70.144062" y="110.835938">Slopes</text>
    </g>
   </g>
   <g id="matplotlib.axis_2">
    <g id="ytick_1">
     <g id="line2d_4"/>
     <g id="text_5">
      <text style="font-family:Arial;font-size:8px;font-style:normal;font-weight:400;text-anchor:end;" transform="rotate(-0, 24.794063, 91.603125)" x="24.794063" y="91.603125">0</text>
     </g>
    </g>
    <g id="ytick_2">
     <g id="line2d_5"/>
     <g id="text_6">
      <text style="font-family:Arial;font-size:8px;font-style:normal;font-weight:400;text-anchor:end;" transform="rotate(-0, 24.794063, 65.717411)" x="24.794063" y="65.717411">2</text>
     </g>
    </g>
    <g id="ytick_3">
     <g id="line2d_6"/>
     <g id="text_7">
      <text style="font-family:Arial;font-size:8px;font-style:normal;font-weight:400;text-anchor:end;" transform="rotate(-0, 24.794063, 39.831696)" x="24.794063" y="39.831696">4</text>
     </g>
    </g>
    <g id="ytick_4">
     <g id="line2d_7"/>
     <g id="text_8">
      <text style="font-family:Arial;font-size:8px;font-style:normal;font-weight:400;text-anchor:end;" transform="rotate(-0, 24.794063, 13.945982)" x="24.794063" y="13.945982">6</text>
     </g>
    </g>
    <g id="text_9">
     <text style="font-family:Arial;font-size:10px;font-style:normal;font-weight:400;text-anchor:middle;" transform="rotate(-90, 14.357813, 47.97)" x="14.357813" y="47.97"># cells</text>
    </g>
   </g>
  </g>
 </g>
 <defs>
  <clipPath id="p9c1fae6bed">
   <rect height="81.54" width="83.7" x="28.294063" y="7.2"/>
  </clipPath>
 </defs>
</svg>
