<?xml version="1.0" encoding="utf-8" standalone="no"?>
<!DOCTYPE svg PUBLIC "-//W3C//DTD SVG 1.1//EN"
  "http://www.w3.org/Graphics/SVG/1.1/DTD/svg11.dtd">
<!-- Created with matplotlib (http://matplotlib.org/) -->
<svg height="216pt" version="1.1" viewBox="0 0 216 216" width="216pt" xmlns="http://www.w3.org/2000/svg" xmlns:xlink="http://www.w3.org/1999/xlink">
 <defs>
  <style type="text/css">
*{stroke-linecap:butt;stroke-linejoin:round;}
  </style>
 </defs>
 <g id="figure_1">
  <g id="patch_1">
   <path d="M 0 216 
L 216 216 
L 216 0 
L 0 0 
z
" style="fill:none;opacity:0;"/>
  </g>
  <g id="axes_1">
   <g id="patch_2">
    <path d="M 27 189 
L 194.4 189 
L 194.4 25.92 
L 27 25.92 
z
" style="fill:none;"/>
   </g>
   <g id="line2d_1">
    <path clip-path="url(#p921560cb08)" d="M 27 189 
L 28.690909 187.352727 
L 30.381818 185.705455 
L 32.072727 184.058182 
L 33.763636 182.410909 
L 35.454545 180.763636 
L 37.145455 179.116364 
L 38.836364 177.469091 
L 40.527273 175.821818 
L 42.218182 174.174545 
L 43.909091 172.527273 
L 45.6 170.88 
L 47.290909 169.232727 
L 48.981818 167.585455 
L 50.672727 165.938182 
L 52.363636 164.290909 
L 54.054545 162.643636 
L 55.745455 160.996364 
L 57.436364 159.349091 
L 59.127273 157.701818 
L 60.818182 156.054545 
L 62.509091 154.407273 
L 64.2 152.76 
L 65.890909 151.112727 
L 67.581818 149.465455 
L 69.272727 147.818182 
L 70.963636 146.170909 
L 72.654545 144.523636 
L 74.345455 142.876364 
L 76.036364 141.229091 
L 77.727273 139.581818 
L 79.418182 137.934545 
L 81.109091 136.287273 
L 82.8 134.64 
L 84.490909 132.992727 
L 86.181818 131.345455 
L 87.872727 129.698182 
L 89.563636 128.050909 
L 91.254545 126.403636 
L 92.945455 124.756364 
L 94.636364 123.109091 
L 96.327273 121.461818 
L 98.018182 119.814545 
L 99.709091 118.167273 
L 101.4 116.52 
L 103.090909 114.872727 
L 104.781818 113.225455 
L 106.472727 111.578182 
L 108.163636 109.930909 
L 109.854545 108.283636 
L 111.545455 106.636364 
L 113.236364 104.989091 
L 114.927273 103.341818 
L 116.618182 101.694545 
L 118.309091 100.047273 
L 120 98.4 
L 121.690909 96.752727 
L 123.381818 95.105455 
L 125.072727 93.458182 
L 126.763636 91.810909 
L 128.454545 90.163636 
L 130.145455 88.516364 
L 131.836364 86.869091 
L 133.527273 85.221818 
L 135.218182 83.574545 
L 136.909091 81.927273 
L 138.6 80.28 
L 140.290909 78.632727 
L 141.981818 76.985455 
L 143.672727 75.338182 
L 145.363636 73.690909 
L 147.054545 72.043636 
L 148.745455 70.396364 
L 150.436364 68.749091 
L 152.127273 67.101818 
L 153.818182 65.454545 
L 155.509091 63.807273 
L 157.2 62.16 
L 158.890909 60.512727 
L 160.581818 58.865455 
L 162.272727 57.218182 
L 163.963636 55.570909 
L 165.654545 53.923636 
L 167.345455 52.276364 
L 169.036364 50.629091 
L 170.727273 48.981818 
L 172.418182 47.334545 
L 174.109091 45.687273 
L 175.8 44.04 
L 177.490909 42.392727 
L 179.181818 40.745455 
L 180.872727 39.098182 
L 182.563636 37.450909 
L 184.254545 35.803636 
L 185.945455 34.156364 
L 187.636364 32.509091 
L 189.327273 30.861818 
L 191.018182 29.214545 
L 192.709091 27.567273 
L 194.4 25.92 
" style="fill:none;stroke:#000000;stroke-linecap:round;"/>
   </g>
   <g id="line2d_2">
    <path clip-path="url(#p921560cb08)" d="M 27 189 
L 28.690909 187.682182 
L 30.381818 186.364364 
L 32.072727 185.046545 
L 33.763636 183.728727 
L 35.454545 182.410909 
L 37.145455 181.093091 
L 38.836364 179.775273 
L 40.527273 178.457455 
L 42.218182 177.139636 
L 43.909091 175.821818 
L 45.6 174.504 
L 47.290909 173.186182 
L 48.981818 171.868364 
L 50.672727 170.550545 
L 52.363636 169.232727 
L 54.054545 167.914909 
L 55.745455 166.597091 
L 57.436364 165.279273 
L 59.127273 163.961455 
L 60.818182 162.643636 
L 62.509091 161.325818 
L 64.2 160.008 
L 65.890909 158.690182 
L 67.581818 157.372364 
L 69.272727 156.054545 
L 70.963636 154.736727 
L 72.654545 153.418909 
L 74.345455 152.101091 
L 76.036364 150.783273 
L 77.727273 149.465455 
L 79.418182 148.147636 
L 81.109091 146.829818 
L 82.8 145.512 
L 84.490909 144.194182 
L 86.181818 142.876364 
L 87.872727 141.558545 
L 89.563636 140.240727 
L 91.254545 138.922909 
L 92.945455 137.605091 
L 94.636364 136.287273 
L 96.327273 134.969455 
L 98.018182 133.651636 
L 99.709091 132.333818 
L 101.4 131.016 
L 103.090909 129.698182 
L 104.781818 128.380364 
L 106.472727 127.062545 
L 108.163636 125.744727 
L 109.854545 124.426909 
L 111.545455 123.109091 
L 113.236364 121.791273 
L 114.927273 120.473455 
L 116.618182 119.155636 
L 118.309091 117.837818 
L 120 116.52 
L 121.690909 115.202182 
L 123.381818 113.884364 
L 125.072727 112.566545 
L 126.763636 111.248727 
L 128.454545 109.930909 
L 130.145455 108.613091 
L 131.836364 107.295273 
L 133.527273 105.977455 
L 135.218182 104.659636 
L 136.909091 103.341818 
L 138.6 102.024 
L 140.290909 100.706182 
L 141.981818 99.388364 
L 143.672727 98.070545 
L 145.363636 96.752727 
L 147.054545 95.434909 
L 148.745455 94.117091 
L 150.436364 92.799273 
L 152.127273 91.481455 
L 153.818182 90.163636 
L 155.509091 88.845818 
L 157.2 87.528 
L 158.890909 86.210182 
L 160.581818 84.892364 
L 162.272727 83.574545 
L 163.963636 82.256727 
L 165.654545 80.938909 
L 167.345455 79.621091 
L 169.036364 78.303273 
L 170.727273 76.985455 
L 172.418182 75.667636 
L 174.109091 74.349818 
L 175.8 73.032 
L 177.490909 71.714182 
L 179.181818 70.396364 
L 180.872727 69.078545 
L 182.563636 67.760727 
L 184.254545 66.442909 
L 185.945455 65.125091 
L 187.636364 63.807273 
L 189.327273 62.489455 
L 191.018182 61.171636 
L 192.709091 59.853818 
L 194.4 58.536 
" style="fill:none;stroke:#008000;stroke-dasharray:3.7,1.6;stroke-dashoffset:0;"/>
    <defs>
     <path d="M -0 2.5 
L 2.5 -2.5 
L -2.5 -2.5 
z
" id="m302010302d" style="stroke:#008000;stroke-linejoin:miter;"/>
    </defs>
    <g clip-path="url(#p921560cb08)">
     <use style="fill:#008000;stroke:#008000;stroke-linejoin:miter;" x="27" xlink:href="#m302010302d" y="189"/>
     <use style="fill:#008000;stroke:#008000;stroke-linejoin:miter;" x="35.454545" xlink:href="#m302010302d" y="182.410909"/>
     <use style="fill:#008000;stroke:#008000;stroke-linejoin:miter;" x="43.909091" xlink:href="#m302010302d" y="175.821818"/>
     <use style="fill:#008000;stroke:#008000;stroke-linejoin:miter;" x="52.363636" xlink:href="#m302010302d" y="169.232727"/>
     <use style="fill:#008000;stroke:#008000;stroke-linejoin:miter;" x="60.818182" xlink:href="#m302010302d" y="162.643636"/>
     <use style="fill:#008000;stroke:#008000;stroke-linejoin:miter;" x="69.272727" xlink:href="#m302010302d" y="156.054545"/>
     <use style="fill:#008000;stroke:#008000;stroke-linejoin:miter;" x="77.727273" xlink:href="#m302010302d" y="149.465455"/>
     <use style="fill:#008000;stroke:#008000;stroke-linejoin:miter;" x="86.181818" xlink:href="#m302010302d" y="142.876364"/>
     <use style="fill:#008000;stroke:#008000;stroke-linejoin:miter;" x="94.636364" xlink:href="#m302010302d" y="136.287273"/>
     <use style="fill:#008000;stroke:#008000;stroke-linejoin:miter;" x="103.090909" xlink:href="#m302010302d" y="129.698182"/>
     <use style="fill:#008000;stroke:#008000;stroke-linejoin:miter;" x="111.545455" xlink:href="#m302010302d" y="123.109091"/>
     <use style="fill:#008000;stroke:#008000;stroke-linejoin:miter;" x="120" xlink:href="#m302010302d" y="116.52"/>
     <use style="fill:#008000;stroke:#008000;stroke-linejoin:miter;" x="128.454545" xlink:href="#m302010302d" y="109.930909"/>
     <use style="fill:#008000;stroke:#008000;stroke-linejoin:miter;" x="136.909091" xlink:href="#m302010302d" y="103.341818"/>
     <use style="fill:#008000;stroke:#008000;stroke-linejoin:miter;" x="145.363636" xlink:href="#m302010302d" y="96.752727"/>
     <use style="fill:#008000;stroke:#008000;stroke-linejoin:miter;" x="153.818182" xlink:href="#m302010302d" y="90.163636"/>
     <use style="fill:#008000;stroke:#008000;stroke-linejoin:miter;" x="162.272727" xlink:href="#m302010302d" y="83.574545"/>
     <use style="fill:#008000;stroke:#008000;stroke-linejoin:miter;" x="170.727273" xlink:href="#m302010302d" y="76.985455"/>
     <use style="fill:#008000;stroke:#008000;stroke-linejoin:miter;" x="179.181818" xlink:href="#m302010302d" y="70.396364"/>
     <use style="fill:#008000;stroke:#008000;stroke-linejoin:miter;" x="187.636364" xlink:href="#m302010302d" y="63.807273"/>
    </g>
   </g>
   <g id="line2d_3">
    <path clip-path="url(#p921560cb08)" d="M 27 189 
L 28.690909 188.011636 
L 30.381818 187.023273 
L 32.072727 186.034909 
L 33.763636 185.046545 
L 35.454545 184.058182 
L 37.145455 183.069818 
L 38.836364 182.081455 
L 40.527273 181.093091 
L 42.218182 180.104727 
L 43.909091 179.116364 
L 45.6 178.128 
L 47.290909 177.139636 
L 48.981818 176.151273 
L 50.672727 175.162909 
L 52.363636 174.174545 
L 54.054545 173.186182 
L 55.745455 172.197818 
L 57.436364 171.209455 
L 59.127273 170.221091 
L 60.818182 169.232727 
L 62.509091 168.244364 
L 64.2 167.256 
L 65.890909 166.267636 
L 67.581818 165.279273 
L 69.272727 164.290909 
L 70.963636 163.302545 
L 72.654545 162.314182 
L 74.345455 161.325818 
L 76.036364 160.337455 
L 77.727273 159.349091 
L 79.418182 158.360727 
L 81.109091 157.372364 
L 82.8 156.384 
L 84.490909 155.395636 
L 86.181818 154.407273 
L 87.872727 153.418909 
L 89.563636 152.430545 
L 91.254545 151.442182 
L 92.945455 150.453818 
L 94.636364 149.465455 
L 96.327273 148.477091 
L 98.018182 147.488727 
L 99.709091 146.500364 
L 101.4 145.512 
L 103.090909 144.523636 
L 104.781818 143.535273 
L 106.472727 142.546909 
L 108.163636 141.558545 
L 109.854545 140.570182 
L 111.545455 139.581818 
L 113.236364 138.593455 
L 114.927273 137.605091 
L 116.618182 136.616727 
L 118.309091 135.628364 
L 120 134.64 
L 121.690909 133.651636 
L 123.381818 132.663273 
L 125.072727 131.674909 
L 126.763636 130.686545 
L 128.454545 129.698182 
L 130.145455 128.709818 
L 131.836364 127.721455 
L 133.527273 126.733091 
L 135.218182 125.744727 
L 136.909091 124.756364 
L 138.6 123.768 
L 140.290909 122.779636 
L 141.981818 121.791273 
L 143.672727 120.802909 
L 145.363636 119.814545 
L 147.054545 118.826182 
L 148.745455 117.837818 
L 150.436364 116.849455 
L 152.127273 115.861091 
L 153.818182 114.872727 
L 155.509091 113.884364 
L 157.2 112.896 
L 158.890909 111.907636 
L 160.581818 110.919273 
L 162.272727 109.930909 
L 163.963636 108.942545 
L 165.654545 107.954182 
L 167.345455 106.965818 
L 169.036364 105.977455 
L 170.727273 104.989091 
L 172.418182 104.000727 
L 174.109091 103.012364 
L 175.8 102.024 
L 177.490909 101.035636 
L 179.181818 100.047273 
L 180.872727 99.058909 
L 182.563636 98.070545 
L 184.254545 97.082182 
L 185.945455 96.093818 
L 187.636364 95.105455 
L 189.327273 94.117091 
L 191.018182 93.128727 
L 192.709091 92.140364 
L 194.4 91.152 
" style="fill:none;stroke:#008000;stroke-dasharray:3.7,1.6;stroke-dashoffset:0;"/>
    <defs>
     <path d="M 0 -2.5 
L -2.377641 -0.772542 
L -1.469463 2.022542 
L 1.469463 2.022542 
L 2.377641 -0.772542 
z
" id="m8c71ab6326" style="stroke:#008000;stroke-linejoin:miter;"/>
    </defs>
    <g clip-path="url(#p921560cb08)">
     <use style="fill:#008000;stroke:#008000;stroke-linejoin:miter;" x="27" xlink:href="#m8c71ab6326" y="189"/>
     <use style="fill:#008000;stroke:#008000;stroke-linejoin:miter;" x="35.454545" xlink:href="#m8c71ab6326" y="184.058182"/>
     <use style="fill:#008000;stroke:#008000;stroke-linejoin:miter;" x="43.909091" xlink:href="#m8c71ab6326" y="179.116364"/>
     <use style="fill:#008000;stroke:#008000;stroke-linejoin:miter;" x="52.363636" xlink:href="#m8c71ab6326" y="174.174545"/>
     <use style="fill:#008000;stroke:#008000;stroke-linejoin:miter;" x="60.818182" xlink:href="#m8c71ab6326" y="169.232727"/>
     <use style="fill:#008000;stroke:#008000;stroke-linejoin:miter;" x="69.272727" xlink:href="#m8c71ab6326" y="164.290909"/>
     <use style="fill:#008000;stroke:#008000;stroke-linejoin:miter;" x="77.727273" xlink:href="#m8c71ab6326" y="159.349091"/>
     <use style="fill:#008000;stroke:#008000;stroke-linejoin:miter;" x="86.181818" xlink:href="#m8c71ab6326" y="154.407273"/>
     <use style="fill:#008000;stroke:#008000;stroke-linejoin:miter;" x="94.636364" xlink:href="#m8c71ab6326" y="149.465455"/>
     <use style="fill:#008000;stroke:#008000;stroke-linejoin:miter;" x="103.090909" xlink:href="#m8c71ab6326" y="144.523636"/>
     <use style="fill:#008000;stroke:#008000;stroke-linejoin:miter;" x="111.545455" xlink:href="#m8c71ab6326" y="139.581818"/>
     <use style="fill:#008000;stroke:#008000;stroke-linejoin:miter;" x="120" xlink:href="#m8c71ab6326" y="134.64"/>
     <use style="fill:#008000;stroke:#008000;stroke-linejoin:miter;" x="128.454545" xlink:href="#m8c71ab6326" y="129.698182"/>
     <use style="fill:#008000;stroke:#008000;stroke-linejoin:miter;" x="136.909091" xlink:href="#m8c71ab6326" y="124.756364"/>
     <use style="fill:#008000;stroke:#008000;stroke-linejoin:miter;" x="145.363636" xlink:href="#m8c71ab6326" y="119.814545"/>
     <use style="fill:#008000;stroke:#008000;stroke-linejoin:miter;" x="153.818182" xlink:href="#m8c71ab6326" y="114.872727"/>
     <use style="fill:#008000;stroke:#008000;stroke-linejoin:miter;" x="162.272727" xlink:href="#m8c71ab6326" y="109.930909"/>
     <use style="fill:#008000;stroke:#008000;stroke-linejoin:miter;" x="170.727273" xlink:href="#m8c71ab6326" y="104.989091"/>
     <use style="fill:#008000;stroke:#008000;stroke-linejoin:miter;" x="179.181818" xlink:href="#m8c71ab6326" y="100.047273"/>
     <use style="fill:#008000;stroke:#008000;stroke-linejoin:miter;" x="187.636364" xlink:href="#m8c71ab6326" y="95.105455"/>
    </g>
   </g>
   <g id="line2d_4">
    <path clip-path="url(#p921560cb08)" d="M 27 189 
L 28.690909 188.341091 
L 30.381818 187.682182 
L 32.072727 187.023273 
L 33.763636 186.364364 
L 35.454545 185.705455 
L 37.145455 185.046545 
L 38.836364 184.387636 
L 40.527273 183.728727 
L 42.218182 183.069818 
L 43.909091 182.410909 
L 45.6 181.752 
L 47.290909 181.093091 
L 48.981818 180.434182 
L 50.672727 179.775273 
L 52.363636 179.116364 
L 54.054545 178.457455 
L 55.745455 177.798545 
L 57.436364 177.139636 
L 59.127273 176.480727 
L 60.818182 175.821818 
L 62.509091 175.162909 
L 64.2 174.504 
L 65.890909 173.845091 
L 67.581818 173.186182 
L 69.272727 172.527273 
L 70.963636 171.868364 
L 72.654545 171.209455 
L 74.345455 170.550545 
L 76.036364 169.891636 
L 77.727273 169.232727 
L 79.418182 168.573818 
L 81.109091 167.914909 
L 82.8 167.256 
L 84.490909 166.597091 
L 86.181818 165.938182 
L 87.872727 165.279273 
L 89.563636 164.620364 
L 91.254545 163.961455 
L 92.945455 163.302545 
L 94.636364 162.643636 
L 96.327273 161.984727 
L 98.018182 161.325818 
L 99.709091 160.666909 
L 101.4 160.008 
L 103.090909 159.349091 
L 104.781818 158.690182 
L 106.472727 158.031273 
L 108.163636 157.372364 
L 109.854545 156.713455 
L 111.545455 156.054545 
L 113.236364 155.395636 
L 114.927273 154.736727 
L 116.618182 154.077818 
L 118.309091 153.418909 
L 120 152.76 
L 121.690909 152.101091 
L 123.381818 151.442182 
L 125.072727 150.783273 
L 126.763636 150.124364 
L 128.454545 149.465455 
L 130.145455 148.806545 
L 131.836364 148.147636 
L 133.527273 147.488727 
L 135.218182 146.829818 
L 136.909091 146.170909 
L 138.6 145.512 
L 140.290909 144.853091 
L 141.981818 144.194182 
L 143.672727 143.535273 
L 145.363636 142.876364 
L 147.054545 142.217455 
L 148.745455 141.558545 
L 150.436364 140.899636 
L 152.127273 140.240727 
L 153.818182 139.581818 
L 155.509091 138.922909 
L 157.2 138.264 
L 158.890909 137.605091 
L 160.581818 136.946182 
L 162.272727 136.287273 
L 163.963636 135.628364 
L 165.654545 134.969455 
L 167.345455 134.310545 
L 169.036364 133.651636 
L 170.727273 132.992727 
L 172.418182 132.333818 
L 174.109091 131.674909 
L 175.8 131.016 
L 177.490909 130.357091 
L 179.181818 129.698182 
L 180.872727 129.039273 
L 182.563636 128.380364 
L 184.254545 127.721455 
L 185.945455 127.062545 
L 187.636364 126.403636 
L 189.327273 125.744727 
L 191.018182 125.085818 
L 192.709091 124.426909 
L 194.4 123.768 
" style="fill:none;stroke:#008000;stroke-dasharray:3.7,1.6;stroke-dashoffset:0;"/>
    <defs>
     <path d="M 0 1.25 
C 0.331504 1.25 0.649475 1.118292 0.883883 0.883883 
C 1.118292 0.649475 1.25 0.331504 1.25 0 
C 1.25 -0.331504 1.118292 -0.649475 0.883883 -0.883883 
C 0.649475 -1.118292 0.331504 -1.25 0 -1.25 
C -0.331504 -1.25 -0.649475 -1.118292 -0.883883 -0.883883 
C -1.118292 -0.649475 -1.25 -0.331504 -1.25 0 
C -1.25 0.331504 -1.118292 0.649475 -0.883883 0.883883 
C -0.649475 1.118292 -0.331504 1.25 0 1.25 
z
" id="m9c4c37285e" style="stroke:#008000;"/>
    </defs>
    <g clip-path="url(#p921560cb08)">
     <use style="fill:#008000;stroke:#008000;" x="27" xlink:href="#m9c4c37285e" y="189"/>
     <use style="fill:#008000;stroke:#008000;" x="35.454545" xlink:href="#m9c4c37285e" y="185.705455"/>
     <use style="fill:#008000;stroke:#008000;" x="43.909091" xlink:href="#m9c4c37285e" y="182.410909"/>
     <use style="fill:#008000;stroke:#008000;" x="52.363636" xlink:href="#m9c4c37285e" y="179.116364"/>
     <use style="fill:#008000;stroke:#008000;" x="60.818182" xlink:href="#m9c4c37285e" y="175.821818"/>
     <use style="fill:#008000;stroke:#008000;" x="69.272727" xlink:href="#m9c4c37285e" y="172.527273"/>
     <use style="fill:#008000;stroke:#008000;" x="77.727273" xlink:href="#m9c4c37285e" y="169.232727"/>
     <use style="fill:#008000;stroke:#008000;" x="86.181818" xlink:href="#m9c4c37285e" y="165.938182"/>
     <use style="fill:#008000;stroke:#008000;" x="94.636364" xlink:href="#m9c4c37285e" y="162.643636"/>
     <use style="fill:#008000;stroke:#008000;" x="103.090909" xlink:href="#m9c4c37285e" y="159.349091"/>
     <use style="fill:#008000;stroke:#008000;" x="111.545455" xlink:href="#m9c4c37285e" y="156.054545"/>
     <use style="fill:#008000;stroke:#008000;" x="120" xlink:href="#m9c4c37285e" y="152.76"/>
     <use style="fill:#008000;stroke:#008000;" x="128.454545" xlink:href="#m9c4c37285e" y="149.465455"/>
     <use style="fill:#008000;stroke:#008000;" x="136.909091" xlink:href="#m9c4c37285e" y="146.170909"/>
     <use style="fill:#008000;stroke:#008000;" x="145.363636" xlink:href="#m9c4c37285e" y="142.876364"/>
     <use style="fill:#008000;stroke:#008000;" x="153.818182" xlink:href="#m9c4c37285e" y="139.581818"/>
     <use style="fill:#008000;stroke:#008000;" x="162.272727" xlink:href="#m9c4c37285e" y="136.287273"/>
     <use style="fill:#008000;stroke:#008000;" x="170.727273" xlink:href="#m9c4c37285e" y="132.992727"/>
     <use style="fill:#008000;stroke:#008000;" x="179.181818" xlink:href="#m9c4c37285e" y="129.698182"/>
     <use style="fill:#008000;stroke:#008000;" x="187.636364" xlink:href="#m9c4c37285e" y="126.403636"/>
    </g>
   </g>
   <g id="line2d_5">
    <path clip-path="url(#p921560cb08)" d="M 27 189 
L 28.690909 188.670545 
L 30.381818 188.341091 
L 32.072727 188.011636 
L 33.763636 187.682182 
L 35.454545 187.352727 
L 37.145455 187.023273 
L 38.836364 186.693818 
L 40.527273 186.364364 
L 42.218182 186.034909 
L 43.909091 185.705455 
L 45.6 185.376 
L 47.290909 185.046545 
L 48.981818 184.717091 
L 50.672727 184.387636 
L 52.363636 184.058182 
L 54.054545 183.728727 
L 55.745455 183.399273 
L 57.436364 183.069818 
L 59.127273 182.740364 
L 60.818182 182.410909 
L 62.509091 182.081455 
L 64.2 181.752 
L 65.890909 181.422545 
L 67.581818 181.093091 
L 69.272727 180.763636 
L 70.963636 180.434182 
L 72.654545 180.104727 
L 74.345455 179.775273 
L 76.036364 179.445818 
L 77.727273 179.116364 
L 79.418182 178.786909 
L 81.109091 178.457455 
L 82.8 178.128 
L 84.490909 177.798545 
L 86.181818 177.469091 
L 87.872727 177.139636 
L 89.563636 176.810182 
L 91.254545 176.480727 
L 92.945455 176.151273 
L 94.636364 175.821818 
L 96.327273 175.492364 
L 98.018182 175.162909 
L 99.709091 174.833455 
L 101.4 174.504 
L 103.090909 174.174545 
L 104.781818 173.845091 
L 106.472727 173.515636 
L 108.163636 173.186182 
L 109.854545 172.856727 
L 111.545455 172.527273 
L 113.236364 172.197818 
L 114.927273 171.868364 
L 116.618182 171.538909 
L 118.309091 171.209455 
L 120 170.88 
L 121.690909 170.550545 
L 123.381818 170.221091 
L 125.072727 169.891636 
L 126.763636 169.562182 
L 128.454545 169.232727 
L 130.145455 168.903273 
L 131.836364 168.573818 
L 133.527273 168.244364 
L 135.218182 167.914909 
L 136.909091 167.585455 
L 138.6 167.256 
L 140.290909 166.926545 
L 141.981818 166.597091 
L 143.672727 166.267636 
L 145.363636 165.938182 
L 147.054545 165.608727 
L 148.745455 165.279273 
L 150.436364 164.949818 
L 152.127273 164.620364 
L 153.818182 164.290909 
L 155.509091 163.961455 
L 157.2 163.632 
L 158.890909 163.302545 
L 160.581818 162.973091 
L 162.272727 162.643636 
L 163.963636 162.314182 
L 165.654545 161.984727 
L 167.345455 161.655273 
L 169.036364 161.325818 
L 170.727273 160.996364 
L 172.418182 160.666909 
L 174.109091 160.337455 
L 175.8 160.008 
L 177.490909 159.678545 
L 179.181818 159.349091 
L 180.872727 159.019636 
L 182.563636 158.690182 
L 184.254545 158.360727 
L 185.945455 158.031273 
L 187.636364 157.701818 
L 189.327273 157.372364 
L 191.018182 157.042909 
L 192.709091 156.713455 
L 194.4 156.384 
" style="fill:none;stroke:#008000;stroke-dasharray:3.7,1.6;stroke-dashoffset:0;"/>
    <defs>
     <path d="M 0 -2.5 
L -2.5 2.5 
L 2.5 2.5 
z
" id="mb7de754f21" style="stroke:#008000;stroke-linejoin:miter;"/>
    </defs>
    <g clip-path="url(#p921560cb08)">
     <use style="fill:#008000;stroke:#008000;stroke-linejoin:miter;" x="27" xlink:href="#mb7de754f21" y="189"/>
     <use style="fill:#008000;stroke:#008000;stroke-linejoin:miter;" x="35.454545" xlink:href="#mb7de754f21" y="187.352727"/>
     <use style="fill:#008000;stroke:#008000;stroke-linejoin:miter;" x="43.909091" xlink:href="#mb7de754f21" y="185.705455"/>
     <use style="fill:#008000;stroke:#008000;stroke-linejoin:miter;" x="52.363636" xlink:href="#mb7de754f21" y="184.058182"/>
     <use style="fill:#008000;stroke:#008000;stroke-linejoin:miter;" x="60.818182" xlink:href="#mb7de754f21" y="182.410909"/>
     <use style="fill:#008000;stroke:#008000;stroke-linejoin:miter;" x="69.272727" xlink:href="#mb7de754f21" y="180.763636"/>
     <use style="fill:#008000;stroke:#008000;stroke-linejoin:miter;" x="77.727273" xlink:href="#mb7de754f21" y="179.116364"/>
     <use style="fill:#008000;stroke:#008000;stroke-linejoin:miter;" x="86.181818" xlink:href="#mb7de754f21" y="177.469091"/>
     <use style="fill:#008000;stroke:#008000;stroke-linejoin:miter;" x="94.636364" xlink:href="#mb7de754f21" y="175.821818"/>
     <use style="fill:#008000;stroke:#008000;stroke-linejoin:miter;" x="103.090909" xlink:href="#mb7de754f21" y="174.174545"/>
     <use style="fill:#008000;stroke:#008000;stroke-linejoin:miter;" x="111.545455" xlink:href="#mb7de754f21" y="172.527273"/>
     <use style="fill:#008000;stroke:#008000;stroke-linejoin:miter;" x="120" xlink:href="#mb7de754f21" y="170.88"/>
     <use style="fill:#008000;stroke:#008000;stroke-linejoin:miter;" x="128.454545" xlink:href="#mb7de754f21" y="169.232727"/>
     <use style="fill:#008000;stroke:#008000;stroke-linejoin:miter;" x="136.909091" xlink:href="#mb7de754f21" y="167.585455"/>
     <use style="fill:#008000;stroke:#008000;stroke-linejoin:miter;" x="145.363636" xlink:href="#mb7de754f21" y="165.938182"/>
     <use style="fill:#008000;stroke:#008000;stroke-linejoin:miter;" x="153.818182" xlink:href="#mb7de754f21" y="164.290909"/>
     <use style="fill:#008000;stroke:#008000;stroke-linejoin:miter;" x="162.272727" xlink:href="#mb7de754f21" y="162.643636"/>
     <use style="fill:#008000;stroke:#008000;stroke-linejoin:miter;" x="170.727273" xlink:href="#mb7de754f21" y="160.996364"/>
     <use style="fill:#008000;stroke:#008000;stroke-linejoin:miter;" x="179.181818" xlink:href="#mb7de754f21" y="159.349091"/>
     <use style="fill:#008000;stroke:#008000;stroke-linejoin:miter;" x="187.636364" xlink:href="#mb7de754f21" y="157.701818"/>
    </g>
   </g>
   <g id="patch_3">
    <path d="M 27 189 
L 27 25.92 
" style="fill:none;stroke:#262626;stroke-linecap:square;stroke-linejoin:miter;stroke-width:1.25;"/>
   </g>
   <g id="patch_4">
    <path d="M 27 189 
L 194.4 189 
" style="fill:none;stroke:#262626;stroke-linecap:square;stroke-linejoin:miter;stroke-width:1.25;"/>
   </g>
   <g id="matplotlib.axis_1">
    <g id="xtick_1">
     <g id="line2d_6"/>
     <g id="text_1">
      <!-- 0.0 -->
      <defs>
       <path d="M 4.15625 35.296875 
Q 4.15625 48 6.765625 55.734375 
Q 9.375 63.484375 14.515625 67.671875 
Q 19.671875 71.875 27.484375 71.875 
Q 33.25 71.875 37.59375 69.546875 
Q 41.9375 67.234375 44.765625 62.859375 
Q 47.609375 58.5 49.21875 52.21875 
Q 50.828125 45.953125 50.828125 35.296875 
Q 50.828125 22.703125 48.234375 14.96875 
Q 45.65625 7.234375 40.5 3 
Q 35.359375 -1.21875 27.484375 -1.21875 
Q 17.140625 -1.21875 11.234375 6.203125 
Q 4.15625 15.140625 4.15625 35.296875 
z
M 13.1875 35.296875 
Q 13.1875 17.671875 17.3125 11.828125 
Q 21.4375 6 27.484375 6 
Q 33.546875 6 37.671875 11.859375 
Q 41.796875 17.71875 41.796875 35.296875 
Q 41.796875 52.984375 37.671875 58.78125 
Q 33.546875 64.59375 27.390625 64.59375 
Q 21.34375 64.59375 17.71875 59.46875 
Q 13.1875 52.9375 13.1875 35.296875 
z
" id="ArialMT-30"/>
       <path d="M 9.078125 0 
L 9.078125 10.015625 
L 19.09375 10.015625 
L 19.09375 0 
z
" id="ArialMT-2e"/>
      </defs>
      <g style="fill:#262626;" transform="translate(20.05 199.657813)scale(0.1 -0.1)">
       <use xlink:href="#ArialMT-30"/>
       <use x="55.615234" xlink:href="#ArialMT-2e"/>
       <use x="83.398438" xlink:href="#ArialMT-30"/>
      </g>
     </g>
    </g>
    <g id="xtick_2">
     <g id="line2d_7"/>
     <g id="text_2">
      <!-- 0.2 -->
      <defs>
       <path d="M 50.34375 8.453125 
L 50.34375 0 
L 3.03125 0 
Q 2.9375 3.171875 4.046875 6.109375 
Q 5.859375 10.9375 9.828125 15.625 
Q 13.8125 20.3125 21.34375 26.46875 
Q 33.015625 36.03125 37.109375 41.625 
Q 41.21875 47.21875 41.21875 52.203125 
Q 41.21875 57.421875 37.46875 61 
Q 33.734375 64.59375 27.734375 64.59375 
Q 21.390625 64.59375 17.578125 60.78125 
Q 13.765625 56.984375 13.71875 50.25 
L 4.6875 51.171875 
Q 5.609375 61.28125 11.65625 66.578125 
Q 17.71875 71.875 27.9375 71.875 
Q 38.234375 71.875 44.234375 66.15625 
Q 50.25 60.453125 50.25 52 
Q 50.25 47.703125 48.484375 43.546875 
Q 46.734375 39.40625 42.65625 34.8125 
Q 38.578125 30.21875 29.109375 22.21875 
Q 21.1875 15.578125 18.9375 13.203125 
Q 16.703125 10.84375 15.234375 8.453125 
z
" id="ArialMT-32"/>
      </defs>
      <g style="fill:#262626;" transform="translate(53.53 199.657813)scale(0.1 -0.1)">
       <use xlink:href="#ArialMT-30"/>
       <use x="55.615234" xlink:href="#ArialMT-2e"/>
       <use x="83.398438" xlink:href="#ArialMT-32"/>
      </g>
     </g>
    </g>
    <g id="xtick_3">
     <g id="line2d_8"/>
     <g id="text_3">
      <!-- 0.4 -->
      <defs>
       <path d="M 32.328125 0 
L 32.328125 17.140625 
L 1.265625 17.140625 
L 1.265625 25.203125 
L 33.9375 71.578125 
L 41.109375 71.578125 
L 41.109375 25.203125 
L 50.78125 25.203125 
L 50.78125 17.140625 
L 41.109375 17.140625 
L 41.109375 0 
z
M 32.328125 25.203125 
L 32.328125 57.46875 
L 9.90625 25.203125 
z
" id="ArialMT-34"/>
      </defs>
      <g style="fill:#262626;" transform="translate(87.01 199.657813)scale(0.1 -0.1)">
       <use xlink:href="#ArialMT-30"/>
       <use x="55.615234" xlink:href="#ArialMT-2e"/>
       <use x="83.398438" xlink:href="#ArialMT-34"/>
      </g>
     </g>
    </g>
    <g id="xtick_4">
     <g id="line2d_9"/>
     <g id="text_4">
      <!-- 0.6 -->
      <defs>
       <path d="M 49.75 54.046875 
L 41.015625 53.375 
Q 39.84375 58.546875 37.703125 60.890625 
Q 34.125 64.65625 28.90625 64.65625 
Q 24.703125 64.65625 21.53125 62.3125 
Q 17.390625 59.28125 14.984375 53.46875 
Q 12.59375 47.65625 12.5 36.921875 
Q 15.671875 41.75 20.265625 44.09375 
Q 24.859375 46.4375 29.890625 46.4375 
Q 38.671875 46.4375 44.84375 39.96875 
Q 51.03125 33.5 51.03125 23.25 
Q 51.03125 16.5 48.125 10.71875 
Q 45.21875 4.9375 40.140625 1.859375 
Q 35.0625 -1.21875 28.609375 -1.21875 
Q 17.625 -1.21875 10.6875 6.859375 
Q 3.765625 14.9375 3.765625 33.5 
Q 3.765625 54.25 11.421875 63.671875 
Q 18.109375 71.875 29.4375 71.875 
Q 37.890625 71.875 43.28125 67.140625 
Q 48.6875 62.40625 49.75 54.046875 
z
M 13.875 23.1875 
Q 13.875 18.65625 15.796875 14.5 
Q 17.71875 10.359375 21.1875 8.171875 
Q 24.65625 6 28.46875 6 
Q 34.03125 6 38.03125 10.484375 
Q 42.046875 14.984375 42.046875 22.703125 
Q 42.046875 30.125 38.078125 34.390625 
Q 34.125 38.671875 28.125 38.671875 
Q 22.171875 38.671875 18.015625 34.390625 
Q 13.875 30.125 13.875 23.1875 
z
" id="ArialMT-36"/>
      </defs>
      <g style="fill:#262626;" transform="translate(120.49 199.657813)scale(0.1 -0.1)">
       <use xlink:href="#ArialMT-30"/>
       <use x="55.615234" xlink:href="#ArialMT-2e"/>
       <use x="83.398438" xlink:href="#ArialMT-36"/>
      </g>
     </g>
    </g>
    <g id="xtick_5">
     <g id="line2d_10"/>
     <g id="text_5">
      <!-- 0.8 -->
      <defs>
       <path d="M 17.671875 38.8125 
Q 12.203125 40.828125 9.5625 44.53125 
Q 6.9375 48.25 6.9375 53.421875 
Q 6.9375 61.234375 12.546875 66.546875 
Q 18.171875 71.875 27.484375 71.875 
Q 36.859375 71.875 42.578125 66.421875 
Q 48.296875 60.984375 48.296875 53.171875 
Q 48.296875 48.1875 45.671875 44.5 
Q 43.0625 40.828125 37.75 38.8125 
Q 44.34375 36.671875 47.78125 31.875 
Q 51.21875 27.09375 51.21875 20.453125 
Q 51.21875 11.28125 44.71875 5.03125 
Q 38.234375 -1.21875 27.640625 -1.21875 
Q 17.046875 -1.21875 10.546875 5.046875 
Q 4.046875 11.328125 4.046875 20.703125 
Q 4.046875 27.6875 7.59375 32.390625 
Q 11.140625 37.109375 17.671875 38.8125 
z
M 15.921875 53.71875 
Q 15.921875 48.640625 19.1875 45.40625 
Q 22.46875 42.1875 27.6875 42.1875 
Q 32.765625 42.1875 36.015625 45.375 
Q 39.265625 48.578125 39.265625 53.21875 
Q 39.265625 58.0625 35.90625 61.359375 
Q 32.5625 64.65625 27.59375 64.65625 
Q 22.5625 64.65625 19.234375 61.421875 
Q 15.921875 58.203125 15.921875 53.71875 
z
M 13.09375 20.65625 
Q 13.09375 16.890625 14.875 13.375 
Q 16.65625 9.859375 20.171875 7.921875 
Q 23.6875 6 27.734375 6 
Q 34.03125 6 38.125 10.046875 
Q 42.234375 14.109375 42.234375 20.359375 
Q 42.234375 26.703125 38.015625 30.859375 
Q 33.796875 35.015625 27.4375 35.015625 
Q 21.234375 35.015625 17.15625 30.90625 
Q 13.09375 26.8125 13.09375 20.65625 
z
" id="ArialMT-38"/>
      </defs>
      <g style="fill:#262626;" transform="translate(153.97 199.657813)scale(0.1 -0.1)">
       <use xlink:href="#ArialMT-30"/>
       <use x="55.615234" xlink:href="#ArialMT-2e"/>
       <use x="83.398438" xlink:href="#ArialMT-38"/>
      </g>
     </g>
    </g>
    <g id="xtick_6">
     <g id="line2d_11"/>
     <g id="text_6">
      <!-- 1.0 -->
      <defs>
       <path d="M 37.25 0 
L 28.46875 0 
L 28.46875 56 
Q 25.296875 52.984375 20.140625 49.953125 
Q 14.984375 46.921875 10.890625 45.40625 
L 10.890625 53.90625 
Q 18.265625 57.375 23.78125 62.296875 
Q 29.296875 67.234375 31.59375 71.875 
L 37.25 71.875 
z
" id="ArialMT-31"/>
      </defs>
      <g style="fill:#262626;" transform="translate(187.45 199.657813)scale(0.1 -0.1)">
       <use xlink:href="#ArialMT-31"/>
       <use x="55.615234" xlink:href="#ArialMT-2e"/>
       <use x="83.398438" xlink:href="#ArialMT-30"/>
      </g>
     </g>
    </g>
    <g id="text_7">
     <!-- E -->
     <defs>
      <path d="M 7.90625 0 
L 7.90625 71.578125 
L 59.671875 71.578125 
L 59.671875 63.140625 
L 17.390625 63.140625 
L 17.390625 41.21875 
L 56.984375 41.21875 
L 56.984375 32.8125 
L 17.390625 32.8125 
L 17.390625 8.453125 
L 61.328125 8.453125 
L 61.328125 0 
z
" id="ArialMT-45"/>
     </defs>
     <g style="fill:#262626;" transform="translate(107.364844 212.803125)scale(0.1 -0.1)">
      <use xlink:href="#ArialMT-45"/>
     </g>
    </g>
   </g>
   <g id="matplotlib.axis_2">
    <g id="ytick_1">
     <g id="line2d_12"/>
     <g id="text_8">
      <!-- 0.0 -->
      <g style="fill:#262626;" transform="translate(9.6 192.578906)scale(0.1 -0.1)">
       <use xlink:href="#ArialMT-30"/>
       <use x="55.615234" xlink:href="#ArialMT-2e"/>
       <use x="83.398438" xlink:href="#ArialMT-30"/>
      </g>
     </g>
    </g>
    <g id="ytick_2">
     <g id="line2d_13"/>
     <g id="text_9">
      <!-- 0.2 -->
      <g style="fill:#262626;" transform="translate(9.6 159.962906)scale(0.1 -0.1)">
       <use xlink:href="#ArialMT-30"/>
       <use x="55.615234" xlink:href="#ArialMT-2e"/>
       <use x="83.398438" xlink:href="#ArialMT-32"/>
      </g>
     </g>
    </g>
    <g id="ytick_3">
     <g id="line2d_14"/>
     <g id="text_10">
      <!-- 0.4 -->
      <g style="fill:#262626;" transform="translate(9.6 127.346906)scale(0.1 -0.1)">
       <use xlink:href="#ArialMT-30"/>
       <use x="55.615234" xlink:href="#ArialMT-2e"/>
       <use x="83.398438" xlink:href="#ArialMT-34"/>
      </g>
     </g>
    </g>
    <g id="ytick_4">
     <g id="line2d_15"/>
     <g id="text_11">
      <!-- 0.6 -->
      <g style="fill:#262626;" transform="translate(9.6 94.730906)scale(0.1 -0.1)">
       <use xlink:href="#ArialMT-30"/>
       <use x="55.615234" xlink:href="#ArialMT-2e"/>
       <use x="83.398438" xlink:href="#ArialMT-36"/>
      </g>
     </g>
    </g>
    <g id="ytick_5">
     <g id="line2d_16"/>
     <g id="text_12">
      <!-- 0.8 -->
      <g style="fill:#262626;" transform="translate(9.6 62.114906)scale(0.1 -0.1)">
       <use xlink:href="#ArialMT-30"/>
       <use x="55.615234" xlink:href="#ArialMT-2e"/>
       <use x="83.398438" xlink:href="#ArialMT-38"/>
      </g>
     </g>
    </g>
    <g id="ytick_6">
     <g id="line2d_17"/>
     <g id="text_13">
      <!-- 1.0 -->
      <g style="fill:#262626;" transform="translate(9.6 29.498906)scale(0.1 -0.1)">
       <use xlink:href="#ArialMT-31"/>
       <use x="55.615234" xlink:href="#ArialMT-2e"/>
       <use x="83.398438" xlink:href="#ArialMT-30"/>
      </g>
     </g>
    </g>
    <g id="text_14">
     <!-- O -->
     <defs>
      <path d="M 4.828125 34.859375 
Q 4.828125 52.6875 14.390625 62.765625 
Q 23.96875 72.859375 39.109375 72.859375 
Q 49.03125 72.859375 56.984375 68.109375 
Q 64.9375 63.375 69.109375 54.90625 
Q 73.296875 46.4375 73.296875 35.6875 
Q 73.296875 24.8125 68.890625 16.21875 
Q 64.5 7.625 56.4375 3.203125 
Q 48.390625 -1.21875 39.0625 -1.21875 
Q 28.953125 -1.21875 20.984375 3.65625 
Q 13.03125 8.546875 8.921875 16.984375 
Q 4.828125 25.4375 4.828125 34.859375 
z
M 14.59375 34.71875 
Q 14.59375 21.78125 21.546875 14.328125 
Q 28.515625 6.890625 39.015625 6.890625 
Q 49.703125 6.890625 56.609375 14.40625 
Q 63.53125 21.921875 63.53125 35.75 
Q 63.53125 44.484375 60.578125 51 
Q 57.625 57.515625 51.921875 61.109375 
Q 46.234375 64.703125 39.15625 64.703125 
Q 29.109375 64.703125 21.84375 57.78125 
Q 14.59375 50.875 14.59375 34.71875 
z
" id="ArialMT-4f"/>
     </defs>
     <g style="fill:#262626;" transform="translate(3.6125 111.349062)rotate(-90)scale(0.1 -0.1)">
      <use xlink:href="#ArialMT-4f"/>
     </g>
    </g>
   </g>
   <g id="legend_1">
    <g id="line2d_18">
     <path d="M 36 39.12 
L 56 39.12 
" style="fill:none;stroke:#008000;stroke-dasharray:3.7,1.6;stroke-dashoffset:0;"/>
    </g>
    <g id="line2d_19">
     <g>
      <use style="fill:#008000;stroke:#008000;stroke-linejoin:miter;" x="46" xlink:href="#m302010302d" y="39.12"/>
     </g>
    </g>
    <g id="text_15">
     <!-- $\beta = 0.2$ -->
     <defs>
      <path d="M 13.625 3.375 
L 8.9375 -20.796875 
L -0.09375 -20.796875 
L 14.5 54.34375 
Q 18.84375 76.609375 39.65625 76.609375 
Q 60.75 76.609375 57.171875 57.8125 
Q 54.734375 44.4375 45.21875 39.546875 
Q 58.015625 35.15625 55.515625 22.125 
Q 51.125 -1.078125 27.484375 -1.03125 
Q 17.140625 -0.984375 13.625 3.375 
z
M 15.921875 15.09375 
Q 19.671875 6.59375 29.296875 6.640625 
Q 43.359375 6.640625 46.34375 21.96875 
Q 49.03125 35.75 26.171875 34.671875 
L 27.78125 42.96875 
Q 45.453125 42.671875 48.53125 58.59375 
Q 50.640625 69.34375 39.203125 69.28125 
Q 26.421875 69.28125 23.484375 54.046875 
z
" id="DejaVuSans-Oblique-3b2"/>
      <path d="M 10.59375 45.40625 
L 73.1875 45.40625 
L 73.1875 37.203125 
L 10.59375 37.203125 
z
M 10.59375 25.484375 
L 73.1875 25.484375 
L 73.1875 17.1875 
L 10.59375 17.1875 
z
" id="DejaVuSans-3d"/>
      <path d="M 31.78125 66.40625 
Q 24.171875 66.40625 20.328125 58.90625 
Q 16.5 51.421875 16.5 36.375 
Q 16.5 21.390625 20.328125 13.890625 
Q 24.171875 6.390625 31.78125 6.390625 
Q 39.453125 6.390625 43.28125 13.890625 
Q 47.125 21.390625 47.125 36.375 
Q 47.125 51.421875 43.28125 58.90625 
Q 39.453125 66.40625 31.78125 66.40625 
z
M 31.78125 74.21875 
Q 44.046875 74.21875 50.515625 64.515625 
Q 56.984375 54.828125 56.984375 36.375 
Q 56.984375 17.96875 50.515625 8.265625 
Q 44.046875 -1.421875 31.78125 -1.421875 
Q 19.53125 -1.421875 13.0625 8.265625 
Q 6.59375 17.96875 6.59375 36.375 
Q 6.59375 54.828125 13.0625 64.515625 
Q 19.53125 74.21875 31.78125 74.21875 
z
" id="DejaVuSans-30"/>
      <path d="M 10.6875 12.40625 
L 21 12.40625 
L 21 0 
L 10.6875 0 
z
" id="DejaVuSans-2e"/>
      <path d="M 19.1875 8.296875 
L 53.609375 8.296875 
L 53.609375 0 
L 7.328125 0 
L 7.328125 8.296875 
Q 12.9375 14.109375 22.625 23.890625 
Q 32.328125 33.6875 34.8125 36.53125 
Q 39.546875 41.84375 41.421875 45.53125 
Q 43.3125 49.21875 43.3125 52.78125 
Q 43.3125 58.59375 39.234375 62.25 
Q 35.15625 65.921875 28.609375 65.921875 
Q 23.96875 65.921875 18.8125 64.3125 
Q 13.671875 62.703125 7.8125 59.421875 
L 7.8125 69.390625 
Q 13.765625 71.78125 18.9375 73 
Q 24.125 74.21875 28.421875 74.21875 
Q 39.75 74.21875 46.484375 68.546875 
Q 53.21875 62.890625 53.21875 53.421875 
Q 53.21875 48.921875 51.53125 44.890625 
Q 49.859375 40.875 45.40625 35.40625 
Q 44.1875 33.984375 37.640625 27.21875 
Q 31.109375 20.453125 19.1875 8.296875 
z
" id="DejaVuSans-32"/>
     </defs>
     <g style="fill:#262626;" transform="translate(64 42.62)scale(0.1 -0.1)">
      <use transform="translate(0 0.390625)" xlink:href="#DejaVuSans-Oblique-3b2"/>
      <use transform="translate(83.300781 0.390625)" xlink:href="#DejaVuSans-3d"/>
      <use transform="translate(186.572266 0.390625)" xlink:href="#DejaVuSans-30"/>
      <use transform="translate(250.195312 0.390625)" xlink:href="#DejaVuSans-2e"/>
      <use transform="translate(281.904297 0.390625)" xlink:href="#DejaVuSans-32"/>
     </g>
    </g>
    <g id="line2d_20">
     <path d="M 36 53.92 
L 56 53.92 
" style="fill:none;stroke:#008000;stroke-dasharray:3.7,1.6;stroke-dashoffset:0;"/>
    </g>
    <g id="line2d_21">
     <g>
      <use style="fill:#008000;stroke:#008000;stroke-linejoin:miter;" x="46" xlink:href="#m8c71ab6326" y="53.92"/>
     </g>
    </g>
    <g id="text_16">
     <!-- $\beta = 0.4$ -->
     <defs>
      <path d="M 37.796875 64.3125 
L 12.890625 25.390625 
L 37.796875 25.390625 
z
M 35.203125 72.90625 
L 47.609375 72.90625 
L 47.609375 25.390625 
L 58.015625 25.390625 
L 58.015625 17.1875 
L 47.609375 17.1875 
L 47.609375 0 
L 37.796875 0 
L 37.796875 17.1875 
L 4.890625 17.1875 
L 4.890625 26.703125 
z
" id="DejaVuSans-34"/>
     </defs>
     <g style="fill:#262626;" transform="translate(64 57.42)scale(0.1 -0.1)">
      <use transform="translate(0 0.390625)" xlink:href="#DejaVuSans-Oblique-3b2"/>
      <use transform="translate(83.300781 0.390625)" xlink:href="#DejaVuSans-3d"/>
      <use transform="translate(186.572266 0.390625)" xlink:href="#DejaVuSans-30"/>
      <use transform="translate(250.195312 0.390625)" xlink:href="#DejaVuSans-2e"/>
      <use transform="translate(281.982422 0.390625)" xlink:href="#DejaVuSans-34"/>
     </g>
    </g>
    <g id="line2d_22">
     <path d="M 36 68.72 
L 56 68.72 
" style="fill:none;stroke:#008000;stroke-dasharray:3.7,1.6;stroke-dashoffset:0;"/>
    </g>
    <g id="line2d_23">
     <g>
      <use style="fill:#008000;stroke:#008000;" x="46" xlink:href="#m9c4c37285e" y="68.72"/>
     </g>
    </g>
    <g id="text_17">
     <!-- $\beta = 0.6$ -->
     <defs>
      <path d="M 33.015625 40.375 
Q 26.375 40.375 22.484375 35.828125 
Q 18.609375 31.296875 18.609375 23.390625 
Q 18.609375 15.53125 22.484375 10.953125 
Q 26.375 6.390625 33.015625 6.390625 
Q 39.65625 6.390625 43.53125 10.953125 
Q 47.40625 15.53125 47.40625 23.390625 
Q 47.40625 31.296875 43.53125 35.828125 
Q 39.65625 40.375 33.015625 40.375 
z
M 52.59375 71.296875 
L 52.59375 62.3125 
Q 48.875 64.0625 45.09375 64.984375 
Q 41.3125 65.921875 37.59375 65.921875 
Q 27.828125 65.921875 22.671875 59.328125 
Q 17.53125 52.734375 16.796875 39.40625 
Q 19.671875 43.65625 24.015625 45.921875 
Q 28.375 48.1875 33.59375 48.1875 
Q 44.578125 48.1875 50.953125 41.515625 
Q 57.328125 34.859375 57.328125 23.390625 
Q 57.328125 12.15625 50.6875 5.359375 
Q 44.046875 -1.421875 33.015625 -1.421875 
Q 20.359375 -1.421875 13.671875 8.265625 
Q 6.984375 17.96875 6.984375 36.375 
Q 6.984375 53.65625 15.1875 63.9375 
Q 23.390625 74.21875 37.203125 74.21875 
Q 40.921875 74.21875 44.703125 73.484375 
Q 48.484375 72.75 52.59375 71.296875 
z
" id="DejaVuSans-36"/>
     </defs>
     <g style="fill:#262626;" transform="translate(64 72.22)scale(0.1 -0.1)">
      <use transform="translate(0 0.390625)" xlink:href="#DejaVuSans-Oblique-3b2"/>
      <use transform="translate(83.300781 0.390625)" xlink:href="#DejaVuSans-3d"/>
      <use transform="translate(186.572266 0.390625)" xlink:href="#DejaVuSans-30"/>
      <use transform="translate(250.195312 0.390625)" xlink:href="#DejaVuSans-2e"/>
      <use transform="translate(281.982422 0.390625)" xlink:href="#DejaVuSans-36"/>
     </g>
    </g>
    <g id="line2d_24">
     <path d="M 36 83.52 
L 56 83.52 
" style="fill:none;stroke:#008000;stroke-dasharray:3.7,1.6;stroke-dashoffset:0;"/>
    </g>
    <g id="line2d_25">
     <g>
      <use style="fill:#008000;stroke:#008000;stroke-linejoin:miter;" x="46" xlink:href="#mb7de754f21" y="83.52"/>
     </g>
    </g>
    <g id="text_18">
     <!-- $\beta = 0.8$ -->
     <defs>
      <path d="M 31.78125 34.625 
Q 24.75 34.625 20.71875 30.859375 
Q 16.703125 27.09375 16.703125 20.515625 
Q 16.703125 13.921875 20.71875 10.15625 
Q 24.75 6.390625 31.78125 6.390625 
Q 38.8125 6.390625 42.859375 10.171875 
Q 46.921875 13.96875 46.921875 20.515625 
Q 46.921875 27.09375 42.890625 30.859375 
Q 38.875 34.625 31.78125 34.625 
z
M 21.921875 38.8125 
Q 15.578125 40.375 12.03125 44.71875 
Q 8.5 49.078125 8.5 55.328125 
Q 8.5 64.0625 14.71875 69.140625 
Q 20.953125 74.21875 31.78125 74.21875 
Q 42.671875 74.21875 48.875 69.140625 
Q 55.078125 64.0625 55.078125 55.328125 
Q 55.078125 49.078125 51.53125 44.71875 
Q 48 40.375 41.703125 38.8125 
Q 48.828125 37.15625 52.796875 32.3125 
Q 56.78125 27.484375 56.78125 20.515625 
Q 56.78125 9.90625 50.3125 4.234375 
Q 43.84375 -1.421875 31.78125 -1.421875 
Q 19.734375 -1.421875 13.25 4.234375 
Q 6.78125 9.90625 6.78125 20.515625 
Q 6.78125 27.484375 10.78125 32.3125 
Q 14.796875 37.15625 21.921875 38.8125 
z
M 18.3125 54.390625 
Q 18.3125 48.734375 21.84375 45.5625 
Q 25.390625 42.390625 31.78125 42.390625 
Q 38.140625 42.390625 41.71875 45.5625 
Q 45.3125 48.734375 45.3125 54.390625 
Q 45.3125 60.0625 41.71875 63.234375 
Q 38.140625 66.40625 31.78125 66.40625 
Q 25.390625 66.40625 21.84375 63.234375 
Q 18.3125 60.0625 18.3125 54.390625 
z
" id="DejaVuSans-38"/>
     </defs>
     <g style="fill:#262626;" transform="translate(64 87.02)scale(0.1 -0.1)">
      <use transform="translate(0 0.390625)" xlink:href="#DejaVuSans-Oblique-3b2"/>
      <use transform="translate(83.300781 0.390625)" xlink:href="#DejaVuSans-3d"/>
      <use transform="translate(186.572266 0.390625)" xlink:href="#DejaVuSans-30"/>
      <use transform="translate(250.195312 0.390625)" xlink:href="#DejaVuSans-2e"/>
      <use transform="translate(281.951172 0.390625)" xlink:href="#DejaVuSans-38"/>
     </g>
    </g>
   </g>
  </g>
 </g>
 <defs>
  <clipPath id="p921560cb08">
   <rect height="163.08" width="167.4" x="27" y="25.92"/>
  </clipPath>
 </defs>
</svg>
