<?xml version="1.0" encoding="utf-8" standalone="no"?>
<!DOCTYPE svg PUBLIC "-//W3C//DTD SVG 1.1//EN"
  "http://www.w3.org/Graphics/SVG/1.1/DTD/svg11.dtd">
<!-- Created with matplotlib (http://matplotlib.org/) -->
<svg height="208pt" version="1.1" viewBox="0 0 221 208" width="221pt" xmlns="http://www.w3.org/2000/svg" xmlns:xlink="http://www.w3.org/1999/xlink">
 <defs>
  <style type="text/css">
*{stroke-linecap:butt;stroke-linejoin:round;}
  </style>
 </defs>
 <g id="figure_1">
  <g id="patch_1">
   <path d="M 0 208.678594 
L 221.124375 208.678594 
L 221.124375 0 
L 0 0 
z
" style="fill:none;opacity:0;"/>
  </g>
  <g id="axes_1">
   <g id="patch_2">
    <path d="M 39.574375 173.858906 
L 206.974375 173.858906 
L 206.974375 10.778906 
L 39.574375 10.778906 
z
" style="fill:none;"/>
   </g>
   <g id="line2d_1">
    <path clip-path="url(#pa22d563bc8)" d="M 39.574375 173.858906 
L 41.265284 172.211634 
L 42.956193 170.564361 
L 44.647102 168.917088 
L 46.338011 167.269815 
L 48.02892 165.622543 
L 49.71983 163.97527 
L 51.410739 162.327997 
L 53.101648 160.680724 
L 54.792557 159.033452 
L 56.483466 157.386179 
L 58.174375 155.738906 
L 59.865284 154.091634 
L 61.556193 152.444361 
L 63.247102 150.797088 
L 64.938011 149.149815 
L 66.62892 147.502543 
L 68.31983 145.85527 
L 70.010739 144.207997 
L 71.701648 142.560724 
L 73.392557 140.913452 
L 75.083466 139.266179 
L 76.774375 137.618906 
L 78.465284 135.971634 
L 80.156193 134.324361 
L 81.847102 132.677088 
L 83.538011 131.029815 
L 85.22892 129.382543 
L 86.91983 127.73527 
L 88.610739 126.087997 
L 90.301648 124.440724 
L 91.992557 122.793452 
L 93.683466 121.146179 
L 95.374375 119.498906 
L 97.065284 117.851634 
L 98.756193 116.204361 
L 100.447102 114.557088 
L 102.138011 112.909815 
L 103.82892 111.262543 
L 105.51983 109.61527 
L 107.210739 107.967997 
L 108.901648 106.320724 
L 110.592557 104.673452 
L 112.283466 103.026179 
L 113.974375 101.378906 
L 115.665284 99.731634 
L 117.356193 98.084361 
L 119.047102 96.437088 
L 120.738011 94.789815 
L 122.42892 93.142543 
L 124.11983 91.49527 
L 125.810739 89.847997 
L 127.501648 88.200724 
L 129.192557 86.553452 
L 130.883466 84.906179 
L 132.574375 83.258906 
L 134.265284 81.611634 
L 135.956193 79.964361 
L 137.647102 78.317088 
L 139.338011 76.669815 
L 141.02892 75.022543 
L 142.71983 73.37527 
L 144.410739 71.727997 
L 146.101648 70.080724 
L 147.792557 68.433452 
L 149.483466 66.786179 
L 151.174375 65.138906 
L 152.865284 63.491634 
L 154.556193 61.844361 
L 156.247102 60.197088 
L 157.938011 58.549815 
L 159.62892 56.902543 
L 161.31983 55.25527 
L 163.010739 53.607997 
L 164.701648 51.960724 
L 166.392557 50.313452 
L 168.083466 48.666179 
L 169.774375 47.018906 
L 171.465284 45.371634 
L 173.156193 43.724361 
L 174.847102 42.077088 
L 176.538011 40.429815 
L 178.22892 38.782543 
L 179.91983 37.13527 
L 181.610739 35.487997 
L 183.301648 33.840724 
L 184.992557 32.193452 
L 186.683466 30.546179 
L 188.374375 28.898906 
L 190.065284 27.251634 
L 191.756193 25.604361 
L 193.447102 23.957088 
L 195.138011 22.309815 
L 196.82892 20.662543 
L 198.51983 19.01527 
L 200.210739 17.367997 
L 201.901648 15.720724 
L 203.592557 14.073452 
L 205.283466 12.426179 
L 206.974375 10.778906 
" style="fill:none;stroke:#000000;stroke-linecap:round;"/>
   </g>
   <g id="line2d_2">
    <path clip-path="url(#pa22d563bc8)" d="M 39.574375 173.858906 
L 41.265284 172.290829 
L 42.956193 170.866613 
L 44.647102 169.567327 
L 46.338011 168.377226 
L 48.02892 167.2831 
L 49.71983 166.27379 
L 51.410739 165.339802 
L 53.101648 164.473007 
L 54.792557 163.666406 
L 56.483466 162.91394 
L 58.174375 162.210335 
L 59.865284 161.550982 
L 61.556193 160.931833 
L 63.247102 160.34932 
L 64.938011 159.800286 
L 66.62892 159.281923 
L 68.31983 158.791732 
L 70.010739 158.327478 
L 71.701648 157.887154 
L 73.392557 157.468957 
L 75.083466 157.071259 
L 76.774375 156.69259 
L 78.465284 156.331617 
L 80.156193 155.987125 
L 81.847102 155.658013 
L 83.538011 155.343273 
L 85.22892 155.041983 
L 86.91983 154.7533 
L 88.610739 154.476447 
L 90.301648 154.210713 
L 91.992557 153.955442 
L 93.683466 153.710026 
L 95.374375 153.473906 
L 97.065284 153.246564 
L 98.756193 153.027519 
L 100.447102 152.816326 
L 102.138011 152.612568 
L 103.82892 152.415861 
L 105.51983 152.225845 
L 107.210739 152.042184 
L 108.901648 151.864564 
L 110.592557 151.692693 
L 112.283466 151.526295 
L 113.974375 151.365113 
L 115.665284 151.208906 
L 117.356193 151.057447 
L 119.047102 150.910523 
L 120.738011 150.767933 
L 122.42892 150.629488 
L 124.11983 150.495009 
L 125.810739 150.36433 
L 127.501648 150.237291 
L 129.192557 150.113741 
L 130.883466 149.99354 
L 132.574375 149.876553 
L 134.265284 149.762653 
L 135.956193 149.651719 
L 137.647102 149.543636 
L 139.338011 149.438297 
L 141.02892 149.335598 
L 142.71983 149.235441 
L 144.410739 149.137733 
L 146.101648 149.042385 
L 147.792557 148.949312 
L 149.483466 148.858435 
L 151.174375 148.769675 
L 152.865284 148.682962 
L 154.556193 148.598223 
L 156.247102 148.515393 
L 157.938011 148.434407 
L 159.62892 148.355206 
L 161.31983 148.27773 
L 163.010739 148.201923 
L 164.701648 148.127734 
L 166.392557 148.055109 
L 168.083466 147.984 
L 169.774375 147.914361 
L 171.465284 147.846146 
L 173.156193 147.779311 
L 174.847102 147.713816 
L 176.538011 147.649621 
L 178.22892 147.586686 
L 179.91983 147.524976 
L 181.610739 147.464455 
L 183.301648 147.405089 
L 184.992557 147.346846 
L 186.683466 147.289693 
L 188.374375 147.2336 
L 190.065284 147.178539 
L 191.756193 147.12448 
L 193.447102 147.071397 
L 195.138011 147.019264 
L 196.82892 146.968055 
L 198.51983 146.917746 
L 200.210739 146.868314 
L 201.901648 146.819735 
L 203.592557 146.771988 
L 205.283466 146.725052 
L 206.974375 146.678906 
" style="fill:none;stroke:#800080;stroke-dasharray:3.7,1.6;stroke-dashoffset:0;"/>
    <defs>
     <path d="M -0 2.5 
L 2.5 -2.5 
L -2.5 -2.5 
z
" id="m0d10b7d2fe" style="stroke:#800080;stroke-linejoin:miter;"/>
    </defs>
    <g clip-path="url(#pa22d563bc8)">
     <use style="fill:#800080;stroke:#800080;stroke-linejoin:miter;" x="39.574375" xlink:href="#m0d10b7d2fe" y="173.858906"/>
     <use style="fill:#800080;stroke:#800080;stroke-linejoin:miter;" x="48.02892" xlink:href="#m0d10b7d2fe" y="167.2831"/>
     <use style="fill:#800080;stroke:#800080;stroke-linejoin:miter;" x="56.483466" xlink:href="#m0d10b7d2fe" y="162.91394"/>
     <use style="fill:#800080;stroke:#800080;stroke-linejoin:miter;" x="64.938011" xlink:href="#m0d10b7d2fe" y="159.800286"/>
     <use style="fill:#800080;stroke:#800080;stroke-linejoin:miter;" x="73.392557" xlink:href="#m0d10b7d2fe" y="157.468957"/>
     <use style="fill:#800080;stroke:#800080;stroke-linejoin:miter;" x="81.847102" xlink:href="#m0d10b7d2fe" y="155.658013"/>
     <use style="fill:#800080;stroke:#800080;stroke-linejoin:miter;" x="90.301648" xlink:href="#m0d10b7d2fe" y="154.210713"/>
     <use style="fill:#800080;stroke:#800080;stroke-linejoin:miter;" x="98.756193" xlink:href="#m0d10b7d2fe" y="153.027519"/>
     <use style="fill:#800080;stroke:#800080;stroke-linejoin:miter;" x="107.210739" xlink:href="#m0d10b7d2fe" y="152.042184"/>
     <use style="fill:#800080;stroke:#800080;stroke-linejoin:miter;" x="115.665284" xlink:href="#m0d10b7d2fe" y="151.208906"/>
     <use style="fill:#800080;stroke:#800080;stroke-linejoin:miter;" x="124.11983" xlink:href="#m0d10b7d2fe" y="150.495009"/>
     <use style="fill:#800080;stroke:#800080;stroke-linejoin:miter;" x="132.574375" xlink:href="#m0d10b7d2fe" y="149.876553"/>
     <use style="fill:#800080;stroke:#800080;stroke-linejoin:miter;" x="141.02892" xlink:href="#m0d10b7d2fe" y="149.335598"/>
     <use style="fill:#800080;stroke:#800080;stroke-linejoin:miter;" x="149.483466" xlink:href="#m0d10b7d2fe" y="148.858435"/>
     <use style="fill:#800080;stroke:#800080;stroke-linejoin:miter;" x="157.938011" xlink:href="#m0d10b7d2fe" y="148.434407"/>
     <use style="fill:#800080;stroke:#800080;stroke-linejoin:miter;" x="166.392557" xlink:href="#m0d10b7d2fe" y="148.055109"/>
     <use style="fill:#800080;stroke:#800080;stroke-linejoin:miter;" x="174.847102" xlink:href="#m0d10b7d2fe" y="147.713816"/>
     <use style="fill:#800080;stroke:#800080;stroke-linejoin:miter;" x="183.301648" xlink:href="#m0d10b7d2fe" y="147.405089"/>
     <use style="fill:#800080;stroke:#800080;stroke-linejoin:miter;" x="191.756193" xlink:href="#m0d10b7d2fe" y="147.12448"/>
     <use style="fill:#800080;stroke:#800080;stroke-linejoin:miter;" x="200.210739" xlink:href="#m0d10b7d2fe" y="146.868314"/>
    </g>
   </g>
   <g id="line2d_3">
    <path clip-path="url(#pa22d563bc8)" d="M 39.574375 173.858906 
L 41.265284 172.252207 
L 42.956193 170.722752 
L 44.647102 169.265103 
L 46.338011 167.874319 
L 48.02892 166.545902 
L 49.71983 165.275748 
L 51.410739 164.060108 
L 53.101648 162.895545 
L 54.792557 161.778906 
L 56.483466 160.707293 
L 58.174375 159.678037 
L 59.865284 158.688674 
L 61.556193 157.736929 
L 63.247102 156.820697 
L 64.938011 155.938027 
L 66.62892 155.087108 
L 68.31983 154.266256 
L 70.010739 153.473906 
L 71.701648 152.708599 
L 73.392557 151.968973 
L 75.083466 151.253758 
L 76.774375 150.561763 
L 78.465284 149.891877 
L 80.156193 149.243057 
L 81.847102 148.614324 
L 83.538011 148.00476 
L 85.22892 147.413501 
L 86.91983 146.839735 
L 88.610739 146.282696 
L 90.301648 145.741665 
L 91.992557 145.21596 
L 93.683466 144.70494 
L 95.374375 144.207997 
L 97.065284 143.724558 
L 98.756193 143.254081 
L 100.447102 142.796049 
L 102.138011 142.349977 
L 103.82892 141.915401 
L 105.51983 141.491883 
L 107.210739 141.079007 
L 108.901648 140.676375 
L 110.592557 140.283612 
L 112.283466 139.900359 
L 113.974375 139.526275 
L 115.665284 139.161034 
L 117.356193 138.804327 
L 119.047102 138.455858 
L 120.738011 138.115345 
L 122.42892 137.782518 
L 124.11983 137.457121 
L 125.810739 137.138906 
L 127.501648 136.82764 
L 129.192557 136.523096 
L 130.883466 136.22506 
L 132.574375 135.933325 
L 134.265284 135.647693 
L 135.956193 135.367975 
L 137.647102 135.093988 
L 139.338011 134.825559 
L 141.02892 134.562521 
L 142.71983 134.304711 
L 144.410739 134.051977 
L 146.101648 133.804169 
L 147.792557 133.561146 
L 149.483466 133.322769 
L 151.174375 133.088906 
L 152.865284 132.859432 
L 154.556193 132.634222 
L 156.247102 132.41316 
L 157.938011 132.196133 
L 159.62892 131.983029 
L 161.31983 131.773745 
L 163.010739 131.568178 
L 164.701648 131.36623 
L 166.392557 131.167807 
L 168.083466 130.972816 
L 169.774375 130.78117 
L 171.465284 130.592784 
L 173.156193 130.407574 
L 174.847102 130.225461 
L 176.538011 130.046369 
L 178.22892 129.870222 
L 179.91983 129.696949 
L 181.610739 129.526479 
L 183.301648 129.358746 
L 184.992557 129.193683 
L 186.683466 129.031229 
L 188.374375 128.87132 
L 190.065284 128.713898 
L 191.756193 128.558906 
L 193.447102 128.406288 
L 195.138011 128.255988 
L 196.82892 128.107956 
L 198.51983 127.96214 
L 200.210739 127.81849 
L 201.901648 127.676959 
L 203.592557 127.537501 
L 205.283466 127.400069 
L 206.974375 127.264621 
" style="fill:none;stroke:#800080;stroke-dasharray:3.7,1.6;stroke-dashoffset:0;"/>
    <defs>
     <path d="M 0 -2.5 
L -2.377641 -0.772542 
L -1.469463 2.022542 
L 1.469463 2.022542 
L 2.377641 -0.772542 
z
" id="m4e781b6800" style="stroke:#800080;stroke-linejoin:miter;"/>
    </defs>
    <g clip-path="url(#pa22d563bc8)">
     <use style="fill:#800080;stroke:#800080;stroke-linejoin:miter;" x="39.574375" xlink:href="#m4e781b6800" y="173.858906"/>
     <use style="fill:#800080;stroke:#800080;stroke-linejoin:miter;" x="48.02892" xlink:href="#m4e781b6800" y="166.545902"/>
     <use style="fill:#800080;stroke:#800080;stroke-linejoin:miter;" x="56.483466" xlink:href="#m4e781b6800" y="160.707293"/>
     <use style="fill:#800080;stroke:#800080;stroke-linejoin:miter;" x="64.938011" xlink:href="#m4e781b6800" y="155.938027"/>
     <use style="fill:#800080;stroke:#800080;stroke-linejoin:miter;" x="73.392557" xlink:href="#m4e781b6800" y="151.968973"/>
     <use style="fill:#800080;stroke:#800080;stroke-linejoin:miter;" x="81.847102" xlink:href="#m4e781b6800" y="148.614324"/>
     <use style="fill:#800080;stroke:#800080;stroke-linejoin:miter;" x="90.301648" xlink:href="#m4e781b6800" y="145.741665"/>
     <use style="fill:#800080;stroke:#800080;stroke-linejoin:miter;" x="98.756193" xlink:href="#m4e781b6800" y="143.254081"/>
     <use style="fill:#800080;stroke:#800080;stroke-linejoin:miter;" x="107.210739" xlink:href="#m4e781b6800" y="141.079007"/>
     <use style="fill:#800080;stroke:#800080;stroke-linejoin:miter;" x="115.665284" xlink:href="#m4e781b6800" y="139.161034"/>
     <use style="fill:#800080;stroke:#800080;stroke-linejoin:miter;" x="124.11983" xlink:href="#m4e781b6800" y="137.457121"/>
     <use style="fill:#800080;stroke:#800080;stroke-linejoin:miter;" x="132.574375" xlink:href="#m4e781b6800" y="135.933325"/>
     <use style="fill:#800080;stroke:#800080;stroke-linejoin:miter;" x="141.02892" xlink:href="#m4e781b6800" y="134.562521"/>
     <use style="fill:#800080;stroke:#800080;stroke-linejoin:miter;" x="149.483466" xlink:href="#m4e781b6800" y="133.322769"/>
     <use style="fill:#800080;stroke:#800080;stroke-linejoin:miter;" x="157.938011" xlink:href="#m4e781b6800" y="132.196133"/>
     <use style="fill:#800080;stroke:#800080;stroke-linejoin:miter;" x="166.392557" xlink:href="#m4e781b6800" y="131.167807"/>
     <use style="fill:#800080;stroke:#800080;stroke-linejoin:miter;" x="174.847102" xlink:href="#m4e781b6800" y="130.225461"/>
     <use style="fill:#800080;stroke:#800080;stroke-linejoin:miter;" x="183.301648" xlink:href="#m4e781b6800" y="129.358746"/>
     <use style="fill:#800080;stroke:#800080;stroke-linejoin:miter;" x="191.756193" xlink:href="#m4e781b6800" y="128.558906"/>
     <use style="fill:#800080;stroke:#800080;stroke-linejoin:miter;" x="200.210739" xlink:href="#m4e781b6800" y="127.81849"/>
    </g>
   </g>
   <g id="line2d_4">
    <path clip-path="url(#pa22d563bc8)" d="M 39.574375 173.858906 
L 41.265284 172.238906 
L 42.956193 170.671675 
L 44.647102 169.154675 
L 46.338011 167.685531 
L 48.02892 166.262012 
L 49.71983 164.882026 
L 51.410739 163.543605 
L 53.101648 162.2449 
L 54.792557 160.984169 
L 56.483466 159.759771 
L 58.174375 158.570156 
L 59.865284 157.413864 
L 61.556193 156.289514 
L 63.247102 155.1958 
L 64.938011 154.131487 
L 66.62892 153.095405 
L 68.31983 152.086446 
L 70.010739 151.103557 
L 71.701648 150.145743 
L 73.392557 149.212055 
L 75.083466 148.301593 
L 76.774375 147.413501 
L 78.465284 146.546965 
L 80.156193 145.701208 
L 81.847102 144.875494 
L 83.538011 144.069117 
L 85.22892 143.281406 
L 86.91983 142.511721 
L 88.610739 141.759449 
L 90.301648 141.024007 
L 91.992557 140.304835 
L 93.683466 139.601401 
L 95.374375 138.913192 
L 97.065284 138.23972 
L 98.756193 137.580516 
L 100.447102 136.935133 
L 102.138011 136.303139 
L 103.82892 135.684122 
L 105.51983 135.077687 
L 107.210739 134.483454 
L 108.901648 133.901058 
L 110.592557 133.330149 
L 112.283466 132.770391 
L 113.974375 132.221459 
L 115.665284 131.683044 
L 117.356193 131.154846 
L 119.047102 130.636575 
L 120.738011 130.127957 
L 122.42892 129.628722 
L 124.11983 129.138614 
L 125.810739 128.657385 
L 127.501648 128.184795 
L 129.192557 127.720614 
L 130.883466 127.264621 
L 132.574375 126.816599 
L 134.265284 126.376341 
L 135.956193 125.943649 
L 137.647102 125.518327 
L 139.338011 125.10019 
L 141.02892 124.689057 
L 142.71983 124.284753 
L 144.410739 123.887111 
L 146.101648 123.495965 
L 147.792557 123.111159 
L 149.483466 122.73254 
L 151.174375 122.359959 
L 152.865284 121.993273 
L 154.556193 121.632344 
L 156.247102 121.277037 
L 157.938011 120.927222 
L 159.62892 120.582771 
L 161.31983 120.243564 
L 163.010739 119.90948 
L 164.701648 119.580406 
L 166.392557 119.256228 
L 168.083466 118.936838 
L 169.774375 118.622132 
L 171.465284 118.312007 
L 173.156193 118.006363 
L 174.847102 117.705104 
L 176.538011 117.408137 
L 178.22892 117.11537 
L 179.91983 116.826715 
L 181.610739 116.542086 
L 183.301648 116.261399 
L 184.992557 115.984573 
L 186.683466 115.711529 
L 188.374375 115.44219 
L 190.065284 115.17648 
L 191.756193 114.914328 
L 193.447102 114.655662 
L 195.138011 114.400412 
L 196.82892 114.148513 
L 198.51983 113.899897 
L 200.210739 113.654502 
L 201.901648 113.412265 
L 203.592557 113.173126 
L 205.283466 112.937026 
L 206.974375 112.703906 
" style="fill:none;stroke:#800080;stroke-dasharray:3.7,1.6;stroke-dashoffset:0;"/>
    <defs>
     <path d="M 0 1.25 
C 0.331504 1.25 0.649475 1.118292 0.883883 0.883883 
C 1.118292 0.649475 1.25 0.331504 1.25 0 
C 1.25 -0.331504 1.118292 -0.649475 0.883883 -0.883883 
C 0.649475 -1.118292 0.331504 -1.25 0 -1.25 
C -0.331504 -1.25 -0.649475 -1.118292 -0.883883 -0.883883 
C -1.118292 -0.649475 -1.25 -0.331504 -1.25 0 
C -1.25 0.331504 -1.118292 0.649475 -0.883883 0.883883 
C -0.649475 1.118292 -0.331504 1.25 0 1.25 
z
" id="m5210a7cc44" style="stroke:#800080;"/>
    </defs>
    <g clip-path="url(#pa22d563bc8)">
     <use style="fill:#800080;stroke:#800080;" x="39.574375" xlink:href="#m5210a7cc44" y="173.858906"/>
     <use style="fill:#800080;stroke:#800080;" x="48.02892" xlink:href="#m5210a7cc44" y="166.262012"/>
     <use style="fill:#800080;stroke:#800080;" x="56.483466" xlink:href="#m5210a7cc44" y="159.759771"/>
     <use style="fill:#800080;stroke:#800080;" x="64.938011" xlink:href="#m5210a7cc44" y="154.131487"/>
     <use style="fill:#800080;stroke:#800080;" x="73.392557" xlink:href="#m5210a7cc44" y="149.212055"/>
     <use style="fill:#800080;stroke:#800080;" x="81.847102" xlink:href="#m5210a7cc44" y="144.875494"/>
     <use style="fill:#800080;stroke:#800080;" x="90.301648" xlink:href="#m5210a7cc44" y="141.024007"/>
     <use style="fill:#800080;stroke:#800080;" x="98.756193" xlink:href="#m5210a7cc44" y="137.580516"/>
     <use style="fill:#800080;stroke:#800080;" x="107.210739" xlink:href="#m5210a7cc44" y="134.483454"/>
     <use style="fill:#800080;stroke:#800080;" x="115.665284" xlink:href="#m5210a7cc44" y="131.683044"/>
     <use style="fill:#800080;stroke:#800080;" x="124.11983" xlink:href="#m5210a7cc44" y="129.138614"/>
     <use style="fill:#800080;stroke:#800080;" x="132.574375" xlink:href="#m5210a7cc44" y="126.816599"/>
     <use style="fill:#800080;stroke:#800080;" x="141.02892" xlink:href="#m5210a7cc44" y="124.689057"/>
     <use style="fill:#800080;stroke:#800080;" x="149.483466" xlink:href="#m5210a7cc44" y="122.73254"/>
     <use style="fill:#800080;stroke:#800080;" x="157.938011" xlink:href="#m5210a7cc44" y="120.927222"/>
     <use style="fill:#800080;stroke:#800080;" x="166.392557" xlink:href="#m5210a7cc44" y="119.256228"/>
     <use style="fill:#800080;stroke:#800080;" x="174.847102" xlink:href="#m5210a7cc44" y="117.705104"/>
     <use style="fill:#800080;stroke:#800080;" x="183.301648" xlink:href="#m5210a7cc44" y="116.261399"/>
     <use style="fill:#800080;stroke:#800080;" x="191.756193" xlink:href="#m5210a7cc44" y="114.914328"/>
     <use style="fill:#800080;stroke:#800080;" x="200.210739" xlink:href="#m5210a7cc44" y="113.654502"/>
    </g>
   </g>
   <g id="line2d_5">
    <path clip-path="url(#pa22d563bc8)" d="M 39.574375 173.858906 
L 41.265284 172.232173 
L 42.956193 170.645507 
L 44.647102 169.097446 
L 46.338011 167.586599 
L 48.02892 166.111638 
L 49.71983 164.671301 
L 51.410739 163.264382 
L 53.101648 161.889732 
L 54.792557 160.546253 
L 56.483466 159.232897 
L 58.174375 157.948662 
L 59.865284 156.69259 
L 61.556193 155.463765 
L 63.247102 154.26131 
L 64.938011 153.084384 
L 66.62892 151.932184 
L 68.31983 150.803937 
L 70.010739 149.698906 
L 71.701648 148.616381 
L 73.392557 147.55568 
L 75.083466 146.516152 
L 76.774375 145.497167 
L 78.465284 144.498123 
L 80.156193 143.518441 
L 81.847102 142.557563 
L 83.538011 141.614952 
L 85.22892 140.690093 
L 86.91983 139.782488 
L 88.610739 138.89166 
L 90.301648 138.017148 
L 91.992557 137.158507 
L 93.683466 136.315309 
L 95.374375 135.487142 
L 97.065284 134.673606 
L 98.756193 133.874318 
L 100.447102 133.088906 
L 102.138011 132.317013 
L 103.82892 131.558292 
L 105.51983 130.812409 
L 107.210739 130.07904 
L 108.901648 129.357875 
L 110.592557 128.648609 
L 112.283466 127.950952 
L 113.974375 127.264621 
L 115.665284 126.589341 
L 117.356193 125.924849 
L 119.047102 125.270887 
L 120.738011 124.627208 
L 122.42892 123.993571 
L 124.11983 123.369742 
L 125.810739 122.755496 
L 127.501648 122.150614 
L 129.192557 121.554882 
L 130.883466 120.968095 
L 132.574375 120.390054 
L 134.265284 119.820563 
L 135.956193 119.259435 
L 137.647102 118.706486 
L 139.338011 118.16154 
L 141.02892 117.624423 
L 142.71983 117.094969 
L 144.410739 116.573014 
L 146.101648 116.0584 
L 147.792557 115.550973 
L 149.483466 115.050584 
L 151.174375 114.557088 
L 152.865284 114.070343 
L 154.556193 113.590211 
L 156.247102 113.116558 
L 157.938011 112.649255 
L 159.62892 112.188174 
L 161.31983 111.733192 
L 163.010739 111.284189 
L 164.701648 110.841047 
L 166.392557 110.403653 
L 168.083466 109.971896 
L 169.774375 109.545667 
L 171.465284 109.12486 
L 173.156193 108.709374 
L 174.847102 108.299107 
L 176.538011 107.893962 
L 178.22892 107.493844 
L 179.91983 107.09866 
L 181.610739 106.708318 
L 183.301648 106.322731 
L 184.992557 105.941812 
L 186.683466 105.565477 
L 188.374375 105.193643 
L 190.065284 104.826231 
L 191.756193 104.463162 
L 193.447102 104.104359 
L 195.138011 103.749747 
L 196.82892 103.399255 
L 198.51983 103.052809 
L 200.210739 102.710341 
L 201.901648 102.371783 
L 203.592557 102.037067 
L 205.283466 101.70613 
L 206.974375 101.378906 
" style="fill:none;stroke:#800080;stroke-dasharray:3.7,1.6;stroke-dashoffset:0;"/>
    <defs>
     <path d="M 0 -2.5 
L -2.5 2.5 
L 2.5 2.5 
z
" id="mf05af8b1d6" style="stroke:#800080;stroke-linejoin:miter;"/>
    </defs>
    <g clip-path="url(#pa22d563bc8)">
     <use style="fill:#800080;stroke:#800080;stroke-linejoin:miter;" x="39.574375" xlink:href="#mf05af8b1d6" y="173.858906"/>
     <use style="fill:#800080;stroke:#800080;stroke-linejoin:miter;" x="48.02892" xlink:href="#mf05af8b1d6" y="166.111638"/>
     <use style="fill:#800080;stroke:#800080;stroke-linejoin:miter;" x="56.483466" xlink:href="#mf05af8b1d6" y="159.232897"/>
     <use style="fill:#800080;stroke:#800080;stroke-linejoin:miter;" x="64.938011" xlink:href="#mf05af8b1d6" y="153.084384"/>
     <use style="fill:#800080;stroke:#800080;stroke-linejoin:miter;" x="73.392557" xlink:href="#mf05af8b1d6" y="147.55568"/>
     <use style="fill:#800080;stroke:#800080;stroke-linejoin:miter;" x="81.847102" xlink:href="#mf05af8b1d6" y="142.557563"/>
     <use style="fill:#800080;stroke:#800080;stroke-linejoin:miter;" x="90.301648" xlink:href="#mf05af8b1d6" y="138.017148"/>
     <use style="fill:#800080;stroke:#800080;stroke-linejoin:miter;" x="98.756193" xlink:href="#mf05af8b1d6" y="133.874318"/>
     <use style="fill:#800080;stroke:#800080;stroke-linejoin:miter;" x="107.210739" xlink:href="#mf05af8b1d6" y="130.07904"/>
     <use style="fill:#800080;stroke:#800080;stroke-linejoin:miter;" x="115.665284" xlink:href="#mf05af8b1d6" y="126.589341"/>
     <use style="fill:#800080;stroke:#800080;stroke-linejoin:miter;" x="124.11983" xlink:href="#mf05af8b1d6" y="123.369742"/>
     <use style="fill:#800080;stroke:#800080;stroke-linejoin:miter;" x="132.574375" xlink:href="#mf05af8b1d6" y="120.390054"/>
     <use style="fill:#800080;stroke:#800080;stroke-linejoin:miter;" x="141.02892" xlink:href="#mf05af8b1d6" y="117.624423"/>
     <use style="fill:#800080;stroke:#800080;stroke-linejoin:miter;" x="149.483466" xlink:href="#mf05af8b1d6" y="115.050584"/>
     <use style="fill:#800080;stroke:#800080;stroke-linejoin:miter;" x="157.938011" xlink:href="#mf05af8b1d6" y="112.649255"/>
     <use style="fill:#800080;stroke:#800080;stroke-linejoin:miter;" x="166.392557" xlink:href="#mf05af8b1d6" y="110.403653"/>
     <use style="fill:#800080;stroke:#800080;stroke-linejoin:miter;" x="174.847102" xlink:href="#mf05af8b1d6" y="108.299107"/>
     <use style="fill:#800080;stroke:#800080;stroke-linejoin:miter;" x="183.301648" xlink:href="#mf05af8b1d6" y="106.322731"/>
     <use style="fill:#800080;stroke:#800080;stroke-linejoin:miter;" x="191.756193" xlink:href="#mf05af8b1d6" y="104.463162"/>
     <use style="fill:#800080;stroke:#800080;stroke-linejoin:miter;" x="200.210739" xlink:href="#mf05af8b1d6" y="102.710341"/>
    </g>
   </g>
   <g id="patch_3">
    <path d="M 39.574375 173.858906 
L 39.574375 10.778906 
" style="fill:none;stroke:#262626;stroke-linecap:square;stroke-linejoin:miter;stroke-width:1.25;"/>
   </g>
   <g id="patch_4">
    <path d="M 39.574375 173.858906 
L 206.974375 173.858906 
" style="fill:none;stroke:#262626;stroke-linecap:square;stroke-linejoin:miter;stroke-width:1.25;"/>
   </g>
   <g id="matplotlib.axis_1">
    <g id="xtick_1">
     <g id="line2d_6"/>
     <g id="text_1">
      <!-- 0.0 -->
      <defs>
       <path d="M 4.15625 35.296875 
Q 4.15625 48 6.765625 55.734375 
Q 9.375 63.484375 14.515625 67.671875 
Q 19.671875 71.875 27.484375 71.875 
Q 33.25 71.875 37.59375 69.546875 
Q 41.9375 67.234375 44.765625 62.859375 
Q 47.609375 58.5 49.21875 52.21875 
Q 50.828125 45.953125 50.828125 35.296875 
Q 50.828125 22.703125 48.234375 14.96875 
Q 45.65625 7.234375 40.5 3 
Q 35.359375 -1.21875 27.484375 -1.21875 
Q 17.140625 -1.21875 11.234375 6.203125 
Q 4.15625 15.140625 4.15625 35.296875 
z
M 13.1875 35.296875 
Q 13.1875 17.671875 17.3125 11.828125 
Q 21.4375 6 27.484375 6 
Q 33.546875 6 37.671875 11.859375 
Q 41.796875 17.71875 41.796875 35.296875 
Q 41.796875 52.984375 37.671875 58.78125 
Q 33.546875 64.59375 27.390625 64.59375 
Q 21.34375 64.59375 17.71875 59.46875 
Q 13.1875 52.9375 13.1875 35.296875 
z
" id="ArialMT-30"/>
       <path d="M 9.078125 0 
L 9.078125 10.015625 
L 19.09375 10.015625 
L 19.09375 0 
z
" id="ArialMT-2e"/>
      </defs>
      <g style="fill:#262626;" transform="translate(32.624375 184.516719)scale(0.1 -0.1)">
       <use xlink:href="#ArialMT-30"/>
       <use x="55.615234" xlink:href="#ArialMT-2e"/>
       <use x="83.398438" xlink:href="#ArialMT-30"/>
      </g>
     </g>
    </g>
    <g id="xtick_2">
     <g id="line2d_7"/>
     <g id="text_2">
      <!-- 0.2 -->
      <defs>
       <path d="M 50.34375 8.453125 
L 50.34375 0 
L 3.03125 0 
Q 2.9375 3.171875 4.046875 6.109375 
Q 5.859375 10.9375 9.828125 15.625 
Q 13.8125 20.3125 21.34375 26.46875 
Q 33.015625 36.03125 37.109375 41.625 
Q 41.21875 47.21875 41.21875 52.203125 
Q 41.21875 57.421875 37.46875 61 
Q 33.734375 64.59375 27.734375 64.59375 
Q 21.390625 64.59375 17.578125 60.78125 
Q 13.765625 56.984375 13.71875 50.25 
L 4.6875 51.171875 
Q 5.609375 61.28125 11.65625 66.578125 
Q 17.71875 71.875 27.9375 71.875 
Q 38.234375 71.875 44.234375 66.15625 
Q 50.25 60.453125 50.25 52 
Q 50.25 47.703125 48.484375 43.546875 
Q 46.734375 39.40625 42.65625 34.8125 
Q 38.578125 30.21875 29.109375 22.21875 
Q 21.1875 15.578125 18.9375 13.203125 
Q 16.703125 10.84375 15.234375 8.453125 
z
" id="ArialMT-32"/>
      </defs>
      <g style="fill:#262626;" transform="translate(66.104375 184.516719)scale(0.1 -0.1)">
       <use xlink:href="#ArialMT-30"/>
       <use x="55.615234" xlink:href="#ArialMT-2e"/>
       <use x="83.398438" xlink:href="#ArialMT-32"/>
      </g>
     </g>
    </g>
    <g id="xtick_3">
     <g id="line2d_8"/>
     <g id="text_3">
      <!-- 0.4 -->
      <defs>
       <path d="M 32.328125 0 
L 32.328125 17.140625 
L 1.265625 17.140625 
L 1.265625 25.203125 
L 33.9375 71.578125 
L 41.109375 71.578125 
L 41.109375 25.203125 
L 50.78125 25.203125 
L 50.78125 17.140625 
L 41.109375 17.140625 
L 41.109375 0 
z
M 32.328125 25.203125 
L 32.328125 57.46875 
L 9.90625 25.203125 
z
" id="ArialMT-34"/>
      </defs>
      <g style="fill:#262626;" transform="translate(99.584375 184.516719)scale(0.1 -0.1)">
       <use xlink:href="#ArialMT-30"/>
       <use x="55.615234" xlink:href="#ArialMT-2e"/>
       <use x="83.398438" xlink:href="#ArialMT-34"/>
      </g>
     </g>
    </g>
    <g id="xtick_4">
     <g id="line2d_9"/>
     <g id="text_4">
      <!-- 0.6 -->
      <defs>
       <path d="M 49.75 54.046875 
L 41.015625 53.375 
Q 39.84375 58.546875 37.703125 60.890625 
Q 34.125 64.65625 28.90625 64.65625 
Q 24.703125 64.65625 21.53125 62.3125 
Q 17.390625 59.28125 14.984375 53.46875 
Q 12.59375 47.65625 12.5 36.921875 
Q 15.671875 41.75 20.265625 44.09375 
Q 24.859375 46.4375 29.890625 46.4375 
Q 38.671875 46.4375 44.84375 39.96875 
Q 51.03125 33.5 51.03125 23.25 
Q 51.03125 16.5 48.125 10.71875 
Q 45.21875 4.9375 40.140625 1.859375 
Q 35.0625 -1.21875 28.609375 -1.21875 
Q 17.625 -1.21875 10.6875 6.859375 
Q 3.765625 14.9375 3.765625 33.5 
Q 3.765625 54.25 11.421875 63.671875 
Q 18.109375 71.875 29.4375 71.875 
Q 37.890625 71.875 43.28125 67.140625 
Q 48.6875 62.40625 49.75 54.046875 
z
M 13.875 23.1875 
Q 13.875 18.65625 15.796875 14.5 
Q 17.71875 10.359375 21.1875 8.171875 
Q 24.65625 6 28.46875 6 
Q 34.03125 6 38.03125 10.484375 
Q 42.046875 14.984375 42.046875 22.703125 
Q 42.046875 30.125 38.078125 34.390625 
Q 34.125 38.671875 28.125 38.671875 
Q 22.171875 38.671875 18.015625 34.390625 
Q 13.875 30.125 13.875 23.1875 
z
" id="ArialMT-36"/>
      </defs>
      <g style="fill:#262626;" transform="translate(133.064375 184.516719)scale(0.1 -0.1)">
       <use xlink:href="#ArialMT-30"/>
       <use x="55.615234" xlink:href="#ArialMT-2e"/>
       <use x="83.398438" xlink:href="#ArialMT-36"/>
      </g>
     </g>
    </g>
    <g id="xtick_5">
     <g id="line2d_10"/>
     <g id="text_5">
      <!-- 0.8 -->
      <defs>
       <path d="M 17.671875 38.8125 
Q 12.203125 40.828125 9.5625 44.53125 
Q 6.9375 48.25 6.9375 53.421875 
Q 6.9375 61.234375 12.546875 66.546875 
Q 18.171875 71.875 27.484375 71.875 
Q 36.859375 71.875 42.578125 66.421875 
Q 48.296875 60.984375 48.296875 53.171875 
Q 48.296875 48.1875 45.671875 44.5 
Q 43.0625 40.828125 37.75 38.8125 
Q 44.34375 36.671875 47.78125 31.875 
Q 51.21875 27.09375 51.21875 20.453125 
Q 51.21875 11.28125 44.71875 5.03125 
Q 38.234375 -1.21875 27.640625 -1.21875 
Q 17.046875 -1.21875 10.546875 5.046875 
Q 4.046875 11.328125 4.046875 20.703125 
Q 4.046875 27.6875 7.59375 32.390625 
Q 11.140625 37.109375 17.671875 38.8125 
z
M 15.921875 53.71875 
Q 15.921875 48.640625 19.1875 45.40625 
Q 22.46875 42.1875 27.6875 42.1875 
Q 32.765625 42.1875 36.015625 45.375 
Q 39.265625 48.578125 39.265625 53.21875 
Q 39.265625 58.0625 35.90625 61.359375 
Q 32.5625 64.65625 27.59375 64.65625 
Q 22.5625 64.65625 19.234375 61.421875 
Q 15.921875 58.203125 15.921875 53.71875 
z
M 13.09375 20.65625 
Q 13.09375 16.890625 14.875 13.375 
Q 16.65625 9.859375 20.171875 7.921875 
Q 23.6875 6 27.734375 6 
Q 34.03125 6 38.125 10.046875 
Q 42.234375 14.109375 42.234375 20.359375 
Q 42.234375 26.703125 38.015625 30.859375 
Q 33.796875 35.015625 27.4375 35.015625 
Q 21.234375 35.015625 17.15625 30.90625 
Q 13.09375 26.8125 13.09375 20.65625 
z
" id="ArialMT-38"/>
      </defs>
      <g style="fill:#262626;" transform="translate(166.544375 184.516719)scale(0.1 -0.1)">
       <use xlink:href="#ArialMT-30"/>
       <use x="55.615234" xlink:href="#ArialMT-2e"/>
       <use x="83.398438" xlink:href="#ArialMT-38"/>
      </g>
     </g>
    </g>
    <g id="xtick_6">
     <g id="line2d_11"/>
     <g id="text_6">
      <!-- 1.0 -->
      <defs>
       <path d="M 37.25 0 
L 28.46875 0 
L 28.46875 56 
Q 25.296875 52.984375 20.140625 49.953125 
Q 14.984375 46.921875 10.890625 45.40625 
L 10.890625 53.90625 
Q 18.265625 57.375 23.78125 62.296875 
Q 29.296875 67.234375 31.59375 71.875 
L 37.25 71.875 
z
" id="ArialMT-31"/>
      </defs>
      <g style="fill:#262626;" transform="translate(200.024375 184.516719)scale(0.1 -0.1)">
       <use xlink:href="#ArialMT-31"/>
       <use x="55.615234" xlink:href="#ArialMT-2e"/>
       <use x="83.398438" xlink:href="#ArialMT-30"/>
      </g>
     </g>
    </g>
    <g id="text_7">
     <!-- E -->
     <defs>
      <path d="M 7.90625 0 
L 7.90625 71.578125 
L 59.671875 71.578125 
L 59.671875 63.140625 
L 17.390625 63.140625 
L 17.390625 41.21875 
L 56.984375 41.21875 
L 56.984375 32.8125 
L 17.390625 32.8125 
L 17.390625 8.453125 
L 61.328125 8.453125 
L 61.328125 0 
z
" id="ArialMT-45"/>
     </defs>
     <g style="fill:#262626;" transform="translate(119.272188 199.093594)scale(0.12 -0.12)">
      <use xlink:href="#ArialMT-45"/>
     </g>
    </g>
   </g>
   <g id="matplotlib.axis_2">
    <g id="ytick_1">
     <g id="line2d_12"/>
     <g id="text_8">
      <!-- 0.0 -->
      <g style="fill:#262626;" transform="translate(22.174375 177.437812)scale(0.1 -0.1)">
       <use xlink:href="#ArialMT-30"/>
       <use x="55.615234" xlink:href="#ArialMT-2e"/>
       <use x="83.398438" xlink:href="#ArialMT-30"/>
      </g>
     </g>
    </g>
    <g id="ytick_2">
     <g id="line2d_13"/>
     <g id="text_9">
      <!-- 0.2 -->
      <g style="fill:#262626;" transform="translate(22.174375 144.821812)scale(0.1 -0.1)">
       <use xlink:href="#ArialMT-30"/>
       <use x="55.615234" xlink:href="#ArialMT-2e"/>
       <use x="83.398438" xlink:href="#ArialMT-32"/>
      </g>
     </g>
    </g>
    <g id="ytick_3">
     <g id="line2d_14"/>
     <g id="text_10">
      <!-- 0.4 -->
      <g style="fill:#262626;" transform="translate(22.174375 112.205812)scale(0.1 -0.1)">
       <use xlink:href="#ArialMT-30"/>
       <use x="55.615234" xlink:href="#ArialMT-2e"/>
       <use x="83.398438" xlink:href="#ArialMT-34"/>
      </g>
     </g>
    </g>
    <g id="ytick_4">
     <g id="line2d_15"/>
     <g id="text_11">
      <!-- 0.6 -->
      <g style="fill:#262626;" transform="translate(22.174375 79.589812)scale(0.1 -0.1)">
       <use xlink:href="#ArialMT-30"/>
       <use x="55.615234" xlink:href="#ArialMT-2e"/>
       <use x="83.398438" xlink:href="#ArialMT-36"/>
      </g>
     </g>
    </g>
    <g id="ytick_5">
     <g id="line2d_16"/>
     <g id="text_12">
      <!-- 0.8 -->
      <g style="fill:#262626;" transform="translate(22.174375 46.973812)scale(0.1 -0.1)">
       <use xlink:href="#ArialMT-30"/>
       <use x="55.615234" xlink:href="#ArialMT-2e"/>
       <use x="83.398438" xlink:href="#ArialMT-38"/>
      </g>
     </g>
    </g>
    <g id="ytick_6">
     <g id="line2d_17"/>
     <g id="text_13">
      <!-- 1.0 -->
      <g style="fill:#262626;" transform="translate(22.174375 14.357812)scale(0.1 -0.1)">
       <use xlink:href="#ArialMT-31"/>
       <use x="55.615234" xlink:href="#ArialMT-2e"/>
       <use x="83.398438" xlink:href="#ArialMT-30"/>
      </g>
     </g>
    </g>
    <g id="text_14">
     <!-- O -->
     <defs>
      <path d="M 4.828125 34.859375 
Q 4.828125 52.6875 14.390625 62.765625 
Q 23.96875 72.859375 39.109375 72.859375 
Q 49.03125 72.859375 56.984375 68.109375 
Q 64.9375 63.375 69.109375 54.90625 
Q 73.296875 46.4375 73.296875 35.6875 
Q 73.296875 24.8125 68.890625 16.21875 
Q 64.5 7.625 56.4375 3.203125 
Q 48.390625 -1.21875 39.0625 -1.21875 
Q 28.953125 -1.21875 20.984375 3.65625 
Q 13.03125 8.546875 8.921875 16.984375 
Q 4.828125 25.4375 4.828125 34.859375 
z
M 14.59375 34.71875 
Q 14.59375 21.78125 21.546875 14.328125 
Q 28.515625 6.890625 39.015625 6.890625 
Q 49.703125 6.890625 56.609375 14.40625 
Q 63.53125 21.921875 63.53125 35.75 
Q 63.53125 44.484375 60.578125 51 
Q 57.625 57.515625 51.921875 61.109375 
Q 46.234375 64.703125 39.15625 64.703125 
Q 29.109375 64.703125 21.84375 57.78125 
Q 14.59375 50.875 14.59375 34.71875 
z
" id="ArialMT-4f"/>
     </defs>
     <g style="fill:#262626;" transform="translate(15.789375 96.985781)rotate(-90)scale(0.12 -0.12)">
      <use xlink:href="#ArialMT-4f"/>
     </g>
    </g>
   </g>
   <g id="legend_1">
    <g id="line2d_18">
     <path d="M 48.574375 23.778906 
L 68.574375 23.778906 
" style="fill:none;stroke:#800080;stroke-dasharray:3.7,1.6;stroke-dashoffset:0;"/>
    </g>
    <g id="line2d_19">
     <g>
      <use style="fill:#800080;stroke:#800080;stroke-linejoin:miter;" x="58.574375" xlink:href="#m0d10b7d2fe" y="23.778906"/>
     </g>
    </g>
    <g id="text_15">
     <!-- $\gamma = 0.2$ -->
     <defs>
      <path d="M 23.296875 46.09375 
L 28.71875 12.3125 
L 54 54.6875 
L 63.53125 54.6875 
L 30.8125 0 
L 26.765625 -20.796875 
L 17.78125 -20.796875 
L 21.828125 0 
L 15.4375 40.828125 
Q 14.453125 46.96875 9.8125 46.96875 
L 7.421875 46.96875 
L 8.890625 54.6875 
L 12.3125 54.6875 
Q 21.921875 54.6875 23.296875 46.09375 
z
" id="DejaVuSans-Oblique-3b3"/>
      <path d="M 10.59375 45.40625 
L 73.1875 45.40625 
L 73.1875 37.203125 
L 10.59375 37.203125 
z
M 10.59375 25.484375 
L 73.1875 25.484375 
L 73.1875 17.1875 
L 10.59375 17.1875 
z
" id="DejaVuSans-3d"/>
      <path d="M 31.78125 66.40625 
Q 24.171875 66.40625 20.328125 58.90625 
Q 16.5 51.421875 16.5 36.375 
Q 16.5 21.390625 20.328125 13.890625 
Q 24.171875 6.390625 31.78125 6.390625 
Q 39.453125 6.390625 43.28125 13.890625 
Q 47.125 21.390625 47.125 36.375 
Q 47.125 51.421875 43.28125 58.90625 
Q 39.453125 66.40625 31.78125 66.40625 
z
M 31.78125 74.21875 
Q 44.046875 74.21875 50.515625 64.515625 
Q 56.984375 54.828125 56.984375 36.375 
Q 56.984375 17.96875 50.515625 8.265625 
Q 44.046875 -1.421875 31.78125 -1.421875 
Q 19.53125 -1.421875 13.0625 8.265625 
Q 6.59375 17.96875 6.59375 36.375 
Q 6.59375 54.828125 13.0625 64.515625 
Q 19.53125 74.21875 31.78125 74.21875 
z
" id="DejaVuSans-30"/>
      <path d="M 10.6875 12.40625 
L 21 12.40625 
L 21 0 
L 10.6875 0 
z
" id="DejaVuSans-2e"/>
      <path d="M 19.1875 8.296875 
L 53.609375 8.296875 
L 53.609375 0 
L 7.328125 0 
L 7.328125 8.296875 
Q 12.9375 14.109375 22.625 23.890625 
Q 32.328125 33.6875 34.8125 36.53125 
Q 39.546875 41.84375 41.421875 45.53125 
Q 43.3125 49.21875 43.3125 52.78125 
Q 43.3125 58.59375 39.234375 62.25 
Q 35.15625 65.921875 28.609375 65.921875 
Q 23.96875 65.921875 18.8125 64.3125 
Q 13.671875 62.703125 7.8125 59.421875 
L 7.8125 69.390625 
Q 13.765625 71.78125 18.9375 73 
Q 24.125 74.21875 28.421875 74.21875 
Q 39.75 74.21875 46.484375 68.546875 
Q 53.21875 62.890625 53.21875 53.421875 
Q 53.21875 48.921875 51.53125 44.890625 
Q 49.859375 40.875 45.40625 35.40625 
Q 44.1875 33.984375 37.640625 27.21875 
Q 31.109375 20.453125 19.1875 8.296875 
z
" id="DejaVuSans-32"/>
     </defs>
     <g style="fill:#262626;" transform="translate(76.574375 27.278906)scale(0.1 -0.1)">
      <use transform="translate(0 0.78125)" xlink:href="#DejaVuSans-Oblique-3b3"/>
      <use transform="translate(78.662109 0.78125)" xlink:href="#DejaVuSans-3d"/>
      <use transform="translate(181.933594 0.78125)" xlink:href="#DejaVuSans-30"/>
      <use transform="translate(245.556641 0.78125)" xlink:href="#DejaVuSans-2e"/>
      <use transform="translate(277.265625 0.78125)" xlink:href="#DejaVuSans-32"/>
     </g>
    </g>
    <g id="line2d_20">
     <path d="M 48.574375 38.378906 
L 68.574375 38.378906 
" style="fill:none;stroke:#800080;stroke-dasharray:3.7,1.6;stroke-dashoffset:0;"/>
    </g>
    <g id="line2d_21">
     <g>
      <use style="fill:#800080;stroke:#800080;stroke-linejoin:miter;" x="58.574375" xlink:href="#m4e781b6800" y="38.378906"/>
     </g>
    </g>
    <g id="text_16">
     <!-- $\gamma = 0.4$ -->
     <defs>
      <path d="M 37.796875 64.3125 
L 12.890625 25.390625 
L 37.796875 25.390625 
z
M 35.203125 72.90625 
L 47.609375 72.90625 
L 47.609375 25.390625 
L 58.015625 25.390625 
L 58.015625 17.1875 
L 47.609375 17.1875 
L 47.609375 0 
L 37.796875 0 
L 37.796875 17.1875 
L 4.890625 17.1875 
L 4.890625 26.703125 
z
" id="DejaVuSans-34"/>
     </defs>
     <g style="fill:#262626;" transform="translate(76.574375 41.878906)scale(0.1 -0.1)">
      <use transform="translate(0 0.78125)" xlink:href="#DejaVuSans-Oblique-3b3"/>
      <use transform="translate(78.662109 0.78125)" xlink:href="#DejaVuSans-3d"/>
      <use transform="translate(181.933594 0.78125)" xlink:href="#DejaVuSans-30"/>
      <use transform="translate(245.556641 0.78125)" xlink:href="#DejaVuSans-2e"/>
      <use transform="translate(277.34375 0.78125)" xlink:href="#DejaVuSans-34"/>
     </g>
    </g>
    <g id="line2d_22">
     <path d="M 48.574375 52.978906 
L 68.574375 52.978906 
" style="fill:none;stroke:#800080;stroke-dasharray:3.7,1.6;stroke-dashoffset:0;"/>
    </g>
    <g id="line2d_23">
     <g>
      <use style="fill:#800080;stroke:#800080;" x="58.574375" xlink:href="#m5210a7cc44" y="52.978906"/>
     </g>
    </g>
    <g id="text_17">
     <!-- $\gamma = 0.6$ -->
     <defs>
      <path d="M 33.015625 40.375 
Q 26.375 40.375 22.484375 35.828125 
Q 18.609375 31.296875 18.609375 23.390625 
Q 18.609375 15.53125 22.484375 10.953125 
Q 26.375 6.390625 33.015625 6.390625 
Q 39.65625 6.390625 43.53125 10.953125 
Q 47.40625 15.53125 47.40625 23.390625 
Q 47.40625 31.296875 43.53125 35.828125 
Q 39.65625 40.375 33.015625 40.375 
z
M 52.59375 71.296875 
L 52.59375 62.3125 
Q 48.875 64.0625 45.09375 64.984375 
Q 41.3125 65.921875 37.59375 65.921875 
Q 27.828125 65.921875 22.671875 59.328125 
Q 17.53125 52.734375 16.796875 39.40625 
Q 19.671875 43.65625 24.015625 45.921875 
Q 28.375 48.1875 33.59375 48.1875 
Q 44.578125 48.1875 50.953125 41.515625 
Q 57.328125 34.859375 57.328125 23.390625 
Q 57.328125 12.15625 50.6875 5.359375 
Q 44.046875 -1.421875 33.015625 -1.421875 
Q 20.359375 -1.421875 13.671875 8.265625 
Q 6.984375 17.96875 6.984375 36.375 
Q 6.984375 53.65625 15.1875 63.9375 
Q 23.390625 74.21875 37.203125 74.21875 
Q 40.921875 74.21875 44.703125 73.484375 
Q 48.484375 72.75 52.59375 71.296875 
z
" id="DejaVuSans-36"/>
     </defs>
     <g style="fill:#262626;" transform="translate(76.574375 56.478906)scale(0.1 -0.1)">
      <use transform="translate(0 0.78125)" xlink:href="#DejaVuSans-Oblique-3b3"/>
      <use transform="translate(78.662109 0.78125)" xlink:href="#DejaVuSans-3d"/>
      <use transform="translate(181.933594 0.78125)" xlink:href="#DejaVuSans-30"/>
      <use transform="translate(245.556641 0.78125)" xlink:href="#DejaVuSans-2e"/>
      <use transform="translate(277.34375 0.78125)" xlink:href="#DejaVuSans-36"/>
     </g>
    </g>
    <g id="line2d_24">
     <path d="M 48.574375 67.578906 
L 68.574375 67.578906 
" style="fill:none;stroke:#800080;stroke-dasharray:3.7,1.6;stroke-dashoffset:0;"/>
    </g>
    <g id="line2d_25">
     <g>
      <use style="fill:#800080;stroke:#800080;stroke-linejoin:miter;" x="58.574375" xlink:href="#mf05af8b1d6" y="67.578906"/>
     </g>
    </g>
    <g id="text_18">
     <!-- $\gamma = 0.8$ -->
     <defs>
      <path d="M 31.78125 34.625 
Q 24.75 34.625 20.71875 30.859375 
Q 16.703125 27.09375 16.703125 20.515625 
Q 16.703125 13.921875 20.71875 10.15625 
Q 24.75 6.390625 31.78125 6.390625 
Q 38.8125 6.390625 42.859375 10.171875 
Q 46.921875 13.96875 46.921875 20.515625 
Q 46.921875 27.09375 42.890625 30.859375 
Q 38.875 34.625 31.78125 34.625 
z
M 21.921875 38.8125 
Q 15.578125 40.375 12.03125 44.71875 
Q 8.5 49.078125 8.5 55.328125 
Q 8.5 64.0625 14.71875 69.140625 
Q 20.953125 74.21875 31.78125 74.21875 
Q 42.671875 74.21875 48.875 69.140625 
Q 55.078125 64.0625 55.078125 55.328125 
Q 55.078125 49.078125 51.53125 44.71875 
Q 48 40.375 41.703125 38.8125 
Q 48.828125 37.15625 52.796875 32.3125 
Q 56.78125 27.484375 56.78125 20.515625 
Q 56.78125 9.90625 50.3125 4.234375 
Q 43.84375 -1.421875 31.78125 -1.421875 
Q 19.734375 -1.421875 13.25 4.234375 
Q 6.78125 9.90625 6.78125 20.515625 
Q 6.78125 27.484375 10.78125 32.3125 
Q 14.796875 37.15625 21.921875 38.8125 
z
M 18.3125 54.390625 
Q 18.3125 48.734375 21.84375 45.5625 
Q 25.390625 42.390625 31.78125 42.390625 
Q 38.140625 42.390625 41.71875 45.5625 
Q 45.3125 48.734375 45.3125 54.390625 
Q 45.3125 60.0625 41.71875 63.234375 
Q 38.140625 66.40625 31.78125 66.40625 
Q 25.390625 66.40625 21.84375 63.234375 
Q 18.3125 60.0625 18.3125 54.390625 
z
" id="DejaVuSans-38"/>
     </defs>
     <g style="fill:#262626;" transform="translate(76.574375 71.078906)scale(0.1 -0.1)">
      <use transform="translate(0 0.78125)" xlink:href="#DejaVuSans-Oblique-3b3"/>
      <use transform="translate(78.662109 0.78125)" xlink:href="#DejaVuSans-3d"/>
      <use transform="translate(181.933594 0.78125)" xlink:href="#DejaVuSans-30"/>
      <use transform="translate(245.556641 0.78125)" xlink:href="#DejaVuSans-2e"/>
      <use transform="translate(277.3125 0.78125)" xlink:href="#DejaVuSans-38"/>
     </g>
    </g>
   </g>
  </g>
 </g>
 <defs>
  <clipPath id="pa22d563bc8">
   <rect height="163.08" width="167.4" x="39.574375" y="10.778906"/>
  </clipPath>
 </defs>
</svg>
