<?xml version="1.0" encoding="utf-8" standalone="no"?>
<!DOCTYPE svg PUBLIC "-//W3C//DTD SVG 1.1//EN"
  "http://www.w3.org/Graphics/SVG/1.1/DTD/svg11.dtd">
<!-- Created with matplotlib (http://matplotlib.org/) -->
<svg height="130pt" version="1.1" viewBox="0 0 132 130" width="132pt" xmlns="http://www.w3.org/2000/svg" xmlns:xlink="http://www.w3.org/1999/xlink">
 <defs>
  <style type="text/css">
*{stroke-linecap:butt;stroke-linejoin:round;}
  </style>
 </defs>
 <g id="figure_1">
  <g id="patch_1">
   <path d="M 0 130.773562 
L 132.883473 130.773562 
L 132.883473 0 
L 0 0 
z
" style="fill:none;opacity:0;"/>
  </g>
  <g id="axes_1">
   <g id="patch_2">
    <path d="M 28.294063 99.612 
L 123.154062 99.612 
L 123.154062 7.2 
L 28.294063 7.2 
z
" style="fill:none;"/>
   </g>
   <g id="patch_3">
    <path clip-path="url(#pc1db327417)" d="M 32.605881 99.612 
L 37.39679 99.612 
L 37.39679 61.892816 
L 32.605881 61.892816 
z
" style="fill:#800080;"/>
   </g>
   <g id="patch_4">
    <path clip-path="url(#pc1db327417)" d="M 37.39679 99.612 
L 42.187699 99.612 
L 42.187699 36.746694 
L 37.39679 36.746694 
z
" style="fill:#800080;"/>
   </g>
   <g id="patch_5">
    <path clip-path="url(#pc1db327417)" d="M 42.187699 99.612 
L 46.978608 99.612 
L 46.978608 11.600571 
L 42.187699 11.600571 
z
" style="fill:#800080;"/>
   </g>
   <g id="patch_6">
    <path clip-path="url(#pc1db327417)" d="M 46.978608 99.612 
L 51.769517 99.612 
L 51.769517 11.600571 
L 46.978608 11.600571 
z
" style="fill:#800080;"/>
   </g>
   <g id="patch_7">
    <path clip-path="url(#pc1db327417)" d="M 51.769517 99.612 
L 56.560426 99.612 
L 56.560426 61.892816 
L 51.769517 61.892816 
z
" style="fill:#800080;"/>
   </g>
   <g id="patch_8">
    <path clip-path="url(#pc1db327417)" d="M 56.560426 99.612 
L 61.351335 99.612 
L 61.351335 61.892816 
L 56.560426 61.892816 
z
" style="fill:#800080;"/>
   </g>
   <g id="patch_9">
    <path clip-path="url(#pc1db327417)" d="M 61.351335 99.612 
L 66.142244 99.612 
L 66.142244 74.465878 
L 61.351335 74.465878 
z
" style="fill:#800080;"/>
   </g>
   <g id="patch_10">
    <path clip-path="url(#pc1db327417)" d="M 66.142244 99.612 
L 70.933153 99.612 
L 70.933153 87.038939 
L 66.142244 87.038939 
z
" style="fill:#800080;"/>
   </g>
   <g id="patch_11">
    <path clip-path="url(#pc1db327417)" d="M 70.933153 99.612 
L 75.724063 99.612 
L 75.724063 99.612 
L 70.933153 99.612 
z
" style="fill:#800080;"/>
   </g>
   <g id="patch_12">
    <path clip-path="url(#pc1db327417)" d="M 75.724063 99.612 
L 80.514972 99.612 
L 80.514972 99.612 
L 75.724063 99.612 
z
" style="fill:#800080;"/>
   </g>
   <g id="patch_13">
    <path clip-path="url(#pc1db327417)" d="M 80.514972 99.612 
L 85.305881 99.612 
L 85.305881 99.612 
L 80.514972 99.612 
z
" style="fill:#800080;"/>
   </g>
   <g id="patch_14">
    <path clip-path="url(#pc1db327417)" d="M 85.305881 99.612 
L 90.09679 99.612 
L 90.09679 99.612 
L 85.305881 99.612 
z
" style="fill:#800080;"/>
   </g>
   <g id="patch_15">
    <path clip-path="url(#pc1db327417)" d="M 90.09679 99.612 
L 94.887699 99.612 
L 94.887699 99.612 
L 90.09679 99.612 
z
" style="fill:#800080;"/>
   </g>
   <g id="patch_16">
    <path clip-path="url(#pc1db327417)" d="M 94.887699 99.612 
L 99.678608 99.612 
L 99.678608 99.612 
L 94.887699 99.612 
z
" style="fill:#800080;"/>
   </g>
   <g id="patch_17">
    <path clip-path="url(#pc1db327417)" d="M 99.678608 99.612 
L 104.469517 99.612 
L 104.469517 99.612 
L 99.678608 99.612 
z
" style="fill:#800080;"/>
   </g>
   <g id="patch_18">
    <path clip-path="url(#pc1db327417)" d="M 104.469517 99.612 
L 109.260426 99.612 
L 109.260426 99.612 
L 104.469517 99.612 
z
" style="fill:#800080;"/>
   </g>
   <g id="patch_19">
    <path clip-path="url(#pc1db327417)" d="M 109.260426 99.612 
L 114.051335 99.612 
L 114.051335 99.612 
L 109.260426 99.612 
z
" style="fill:#800080;"/>
   </g>
   <g id="patch_20">
    <path clip-path="url(#pc1db327417)" d="M 114.051335 99.612 
L 118.842244 99.612 
L 118.842244 87.038939 
L 114.051335 87.038939 
z
" style="fill:#800080;"/>
   </g>
   <g id="patch_21">
    <path d="M 28.294063 99.612 
L 28.294063 7.2 
" style="fill:none;stroke:#000000;stroke-linecap:square;stroke-linejoin:miter;"/>
   </g>
   <g id="patch_22">
    <path d="M 28.294063 99.612 
L 123.154062 99.612 
" style="fill:none;stroke:#000000;stroke-linecap:square;stroke-linejoin:miter;"/>
   </g>
   <g id="matplotlib.axis_1">
    <g id="xtick_1">
     <g id="line2d_1"/>
     <g id="text_1">
      <text style="font-family:Arial;font-size:8px;font-style:normal;font-weight:400;text-anchor:middle;" transform="rotate(-0, 30.209109, 108.83825)" x="30.209109" y="108.83825">0</text>
     </g>
    </g>
    <g id="xtick_2">
     <g id="line2d_2"/>
     <g id="text_2">
      <text style="font-family:Arial;font-size:8px;font-style:normal;font-weight:400;text-anchor:middle;" transform="rotate(-0, 75.721916, 108.83825)" x="75.721916" y="108.83825">20</text>
     </g>
    </g>
    <g id="xtick_3">
     <g id="line2d_3"/>
     <g id="text_3">
      <text style="font-family:Arial;font-size:8px;font-style:normal;font-weight:400;text-anchor:middle;" transform="rotate(-0, 121.234723, 108.83825)" x="121.234723" y="108.83825">40</text>
     </g>
    </g>
    <g id="text_4">
     <!-- $\gamma$ -->
     <g transform="translate(72.724063 121.473562)">
      <text>
       <tspan style="font-family:DejaVu Sans;font-size:10px;font-style:oblique;font-weight:oblique;" x="0" y="-0.53125">γ</tspan>
      </text>
     </g>
    </g>
   </g>
   <g id="matplotlib.axis_2">
    <g id="ytick_1">
     <g id="line2d_4"/>
     <g id="text_5">
      <text style="font-family:Arial;font-size:8px;font-style:normal;font-weight:400;text-anchor:end;" transform="rotate(-0, 24.794063, 102.475125)" x="24.794063" y="102.475125">0</text>
     </g>
    </g>
    <g id="ytick_2">
     <g id="line2d_5"/>
     <g id="text_6">
      <text style="font-family:Arial;font-size:8px;font-style:normal;font-weight:400;text-anchor:end;" transform="rotate(-0, 24.794063, 77.329003)" x="24.794063" y="77.329003">2</text>
     </g>
    </g>
    <g id="ytick_3">
     <g id="line2d_6"/>
     <g id="text_7">
      <text style="font-family:Arial;font-size:8px;font-style:normal;font-weight:400;text-anchor:end;" transform="rotate(-0, 24.794063, 52.18288)" x="24.794063" y="52.18288">4</text>
     </g>
    </g>
    <g id="ytick_4">
     <g id="line2d_7"/>
     <g id="text_8">
      <text style="font-family:Arial;font-size:8px;font-style:normal;font-weight:400;text-anchor:end;" transform="rotate(-0, 24.794063, 27.036758)" x="24.794063" y="27.036758">6</text>
     </g>
    </g>
    <g id="text_9">
     <text style="font-family:Arial;font-size:10px;font-style:normal;font-weight:400;text-anchor:middle;" transform="rotate(-90, 14.357813, 53.406)" x="14.357813" y="53.406"># neurons</text>
    </g>
   </g>
  </g>
 </g>
 <defs>
  <clipPath id="pc1db327417">
   <rect height="92.412" width="94.86" x="28.294063" y="7.2"/>
  </clipPath>
 </defs>
</svg>
