<?xml version="1.0" encoding="utf-8" standalone="no"?>
<!DOCTYPE svg PUBLIC "-//W3C//DTD SVG 1.1//EN"
  "http://www.w3.org/Graphics/SVG/1.1/DTD/svg11.dtd">
<!-- Created with matplotlib (http://matplotlib.org/) -->
<svg height="147pt" version="1.1" viewBox="0 0 153 147" width="153pt" xmlns="http://www.w3.org/2000/svg" xmlns:xlink="http://www.w3.org/1999/xlink">
 <defs>
  <style type="text/css">
*{stroke-linecap:butt;stroke-linejoin:round;}
  </style>
 </defs>
 <g id="figure_1">
  <g id="patch_1">
   <path d="M 0 147.83625 
L 153.767188 147.83625 
L 153.767188 0 
L 0 0 
z
" style="fill:none;opacity:0;"/>
  </g>
  <g id="axes_1">
   <g id="patch_2">
    <path d="M 32.742812 115.92 
L 144.342813 115.92 
L 144.342813 7.2 
L 32.742812 7.2 
z
" style="fill:none;"/>
   </g>
   <g id="patch_3">
    <path clip-path="url(#pd7b9405446)" d="M 38.597514 115.92 
L 45.377961 115.92 
L 45.377961 97.094026 
L 38.597514 97.094026 
z
" style="fill:#800080;"/>
   </g>
   <g id="patch_4">
    <path clip-path="url(#pd7b9405446)" d="M 45.377961 115.92 
L 52.158408 115.92 
L 52.158408 115.92 
L 45.377961 115.92 
z
" style="fill:#800080;"/>
   </g>
   <g id="patch_5">
    <path clip-path="url(#pd7b9405446)" d="M 52.158408 115.92 
L 58.938855 115.92 
L 58.938855 78.268052 
L 52.158408 78.268052 
z
" style="fill:#800080;"/>
   </g>
   <g id="patch_6">
    <path clip-path="url(#pd7b9405446)" d="M 58.938855 115.92 
L 65.719303 115.92 
L 65.719303 78.268052 
L 58.938855 78.268052 
z
" style="fill:#800080;"/>
   </g>
   <g id="patch_7">
    <path clip-path="url(#pd7b9405446)" d="M 65.719303 115.92 
L 72.49975 115.92 
L 72.49975 12.377143 
L 65.719303 12.377143 
z
" style="fill:#800080;"/>
   </g>
   <g id="patch_8">
    <path clip-path="url(#pd7b9405446)" d="M 72.49975 115.92 
L 79.280197 115.92 
L 79.280197 68.855065 
L 72.49975 68.855065 
z
" style="fill:#800080;"/>
   </g>
   <g id="patch_9">
    <path clip-path="url(#pd7b9405446)" d="M 79.280197 115.92 
L 86.060644 115.92 
L 86.060644 97.094026 
L 79.280197 97.094026 
z
" style="fill:#800080;"/>
   </g>
   <g id="patch_10">
    <path clip-path="url(#pd7b9405446)" d="M 86.060644 115.92 
L 92.841091 115.92 
L 92.841091 115.92 
L 86.060644 115.92 
z
" style="fill:#800080;"/>
   </g>
   <g id="patch_11">
    <path clip-path="url(#pd7b9405446)" d="M 92.841091 115.92 
L 99.621539 115.92 
L 99.621539 115.92 
L 92.841091 115.92 
z
" style="fill:#800080;"/>
   </g>
   <g id="patch_12">
    <path clip-path="url(#pd7b9405446)" d="M 99.621539 115.92 
L 106.401986 115.92 
L 106.401986 97.094026 
L 99.621539 97.094026 
z
" style="fill:#800080;"/>
   </g>
   <g id="patch_13">
    <path clip-path="url(#pd7b9405446)" d="M 106.401986 115.92 
L 113.182433 115.92 
L 113.182433 106.507013 
L 106.401986 106.507013 
z
" style="fill:#800080;"/>
   </g>
   <g id="patch_14">
    <path clip-path="url(#pd7b9405446)" d="M 113.182433 115.92 
L 119.96288 115.92 
L 119.96288 106.507013 
L 113.182433 106.507013 
z
" style="fill:#800080;"/>
   </g>
   <g id="patch_15">
    <path clip-path="url(#pd7b9405446)" d="M 119.96288 115.92 
L 126.743328 115.92 
L 126.743328 106.507013 
L 119.96288 106.507013 
z
" style="fill:#800080;"/>
   </g>
   <g id="patch_16">
    <path clip-path="url(#pd7b9405446)" d="M 126.743328 115.92 
L 133.523775 115.92 
L 133.523775 97.094026 
L 126.743328 97.094026 
z
" style="fill:#800080;"/>
   </g>
   <g id="patch_17">
    <path d="M 32.742812 115.92 
L 32.742812 7.2 
" style="fill:none;stroke:#000000;stroke-linecap:square;stroke-linejoin:miter;"/>
   </g>
   <g id="patch_18">
    <path d="M 32.742812 115.92 
L 144.342813 115.92 
" style="fill:none;stroke:#000000;stroke-linecap:square;stroke-linejoin:miter;"/>
   </g>
   <g id="matplotlib.axis_1">
    <g id="xtick_1">
     <g id="line2d_1"/>
     <g id="text_1">
      <text style="font-family:Arial;font-size:8px;font-style:normal;font-weight:400;text-anchor:middle;" transform="rotate(-0, 32.742812, 125.14625)" x="32.742812" y="125.14625">0</text>
     </g>
    </g>
    <g id="xtick_2">
     <g id="line2d_2"/>
     <g id="text_2">
      <text style="font-family:Arial;font-size:8px;font-style:normal;font-weight:400;text-anchor:middle;" transform="rotate(-0, 69.942813, 125.14625)" x="69.942813" y="125.14625">1</text>
     </g>
    </g>
    <g id="xtick_3">
     <g id="line2d_3"/>
     <g id="text_3">
      <text style="font-family:Arial;font-size:8px;font-style:normal;font-weight:400;text-anchor:middle;" transform="rotate(-0, 107.142813, 125.14625)" x="107.142813" y="125.14625">2</text>
     </g>
    </g>
    <g id="xtick_4">
     <g id="line2d_4"/>
     <g id="text_4">
      <text style="font-family:Arial;font-size:8px;font-style:normal;font-weight:400;text-anchor:middle;" transform="rotate(-0, 144.342813, 125.14625)" x="144.342813" y="125.14625">3</text>
     </g>
    </g>
    <g id="text_5">
     <!-- $\beta$ (DN) -->
     <g transform="translate(73.392812 138.43625)">
      <text>
       <tspan style="font-family:DejaVu Sans;font-size:10px;font-style:oblique;font-weight:oblique;" x="0" y="-0.34375">β</tspan>
       <tspan style="font-family:Arial;font-size:10px;font-style:regular;font-weight:regular;" x="6.381836 9.160156 12.490234 19.711914 26.933594" y="-0.34375"> (DN)</tspan>
      </text>
     </g>
    </g>
   </g>
   <g id="matplotlib.axis_2">
    <g id="ytick_1">
     <g id="line2d_5"/>
     <g id="text_6">
      <text style="font-family:Arial;font-size:8px;font-style:normal;font-weight:400;text-anchor:end;" transform="rotate(-0, 29.242812, 118.783125)" x="29.242812" y="118.783125">0</text>
     </g>
    </g>
    <g id="ytick_2">
     <g id="line2d_6"/>
     <g id="text_7">
      <text style="font-family:Arial;font-size:8px;font-style:normal;font-weight:400;text-anchor:end;" transform="rotate(-0, 29.242812, 99.957151)" x="29.242812" y="99.957151">2</text>
     </g>
    </g>
    <g id="ytick_3">
     <g id="line2d_7"/>
     <g id="text_8">
      <text style="font-family:Arial;font-size:8px;font-style:normal;font-weight:400;text-anchor:end;" transform="rotate(-0, 29.242812, 81.131177)" x="29.242812" y="81.131177">4</text>
     </g>
    </g>
    <g id="ytick_4">
     <g id="line2d_8"/>
     <g id="text_9">
      <text style="font-family:Arial;font-size:8px;font-style:normal;font-weight:400;text-anchor:end;" transform="rotate(-0, 29.242812, 62.305203)" x="29.242812" y="62.305203">6</text>
     </g>
    </g>
    <g id="ytick_5">
     <g id="line2d_9"/>
     <g id="text_10">
      <text style="font-family:Arial;font-size:8px;font-style:normal;font-weight:400;text-anchor:end;" transform="rotate(-0, 29.242812, 43.479229)" x="29.242812" y="43.479229">8</text>
     </g>
    </g>
    <g id="ytick_6">
     <g id="line2d_10"/>
     <g id="text_11">
      <text style="font-family:Arial;font-size:8px;font-style:normal;font-weight:400;text-anchor:end;" transform="rotate(-0, 29.242812, 24.653255)" x="29.242812" y="24.653255">10</text>
     </g>
    </g>
    <g id="text_12">
     <text style="font-family:Arial;font-size:10px;font-style:normal;font-weight:400;text-anchor:middle;" transform="rotate(-90, 14.357812, 61.56)" x="14.357812" y="61.56"># neurons</text>
    </g>
   </g>
  </g>
 </g>
 <defs>
  <clipPath id="pd7b9405446">
   <rect height="108.72" width="111.6" x="32.742812" y="7.2"/>
  </clipPath>
 </defs>
</svg>
