<?xml version="1.0" encoding="utf-8" standalone="no"?>
<!DOCTYPE svg PUBLIC "-//W3C//DTD SVG 1.1//EN"
  "http://www.w3.org/Graphics/SVG/1.1/DTD/svg11.dtd">
<!-- Created with matplotlib (http://matplotlib.org/) -->
<svg height="216pt" version="1.1" viewBox="0 0 216 216" width="216pt" xmlns="http://www.w3.org/2000/svg" xmlns:xlink="http://www.w3.org/1999/xlink">
 <defs>
  <style type="text/css">
*{stroke-linecap:butt;stroke-linejoin:round;}
  </style>
 </defs>
 <g id="figure_1">
  <g id="patch_1">
   <path d="M 0 216 
L 216 216 
L 216 0 
L 0 0 
z
" style="fill:none;opacity:0;"/>
  </g>
  <g id="axes_1">
   <g id="patch_2">
    <path d="M 27 189 
L 194.4 189 
L 194.4 25.92 
L 27 25.92 
z
" style="fill:none;"/>
   </g>
   <g id="PathCollection_1">
    <defs>
     <path d="M 0 3.162278 
C 0.838646 3.162278 1.643056 2.82908 2.236068 2.236068 
C 2.82908 1.643056 3.162278 0.838646 3.162278 0 
C 3.162278 -0.838646 2.82908 -1.643056 2.236068 -2.236068 
C 1.643056 -2.82908 0.838646 -3.162278 0 -3.162278 
C -0.838646 -3.162278 -1.643056 -2.82908 -2.236068 -2.236068 
C -2.82908 -1.643056 -3.162278 -0.838646 -3.162278 0 
C -3.162278 0.838646 -2.82908 1.643056 -2.236068 2.236068 
C -1.643056 2.82908 -0.838646 3.162278 0 3.162278 
z
" id="m2341421e4d" style="stroke:#1f77b4;"/>
    </defs>
    <g clip-path="url(#p0fcc92f4ad)">
     <use style="fill:#1f77b4;stroke:#1f77b4;" x="36.190229" xlink:href="#m2341421e4d" y="179.215565"/>
     <use style="fill:#1f77b4;stroke:#1f77b4;" x="63.558885" xlink:href="#m2341421e4d" y="152.446099"/>
     <use style="fill:#1f77b4;stroke:#1f77b4;" x="88.440371" xlink:href="#m2341421e4d" y="128.109351"/>
     <use style="fill:#1f77b4;stroke:#1f77b4;" x="111.158991" xlink:href="#m2341421e4d" y="105.888117"/>
     <use style="fill:#1f77b4;stroke:#1f77b4;" x="131.985014" xlink:href="#m2341421e4d" y="85.518044"/>
     <use style="fill:#1f77b4;stroke:#1f77b4;" x="151.145479" xlink:href="#m2341421e4d" y="66.777065"/>
     <use style="fill:#1f77b4;stroke:#1f77b4;" x="168.832509" xlink:href="#m2341421e4d" y="49.477262"/>
     <use style="fill:#1f77b4;stroke:#1f77b4;" x="185.209771" xlink:href="#m2341421e4d" y="33.458553"/>
    </g>
   </g>
   <g id="PathCollection_2">
    <defs>
     <path d="M 0 3.162278 
C 0.838646 3.162278 1.643056 2.82908 2.236068 2.236068 
C 2.82908 1.643056 3.162278 0.838646 3.162278 0 
C 3.162278 -0.838646 2.82908 -1.643056 2.236068 -2.236068 
C 1.643056 -2.82908 0.838646 -3.162278 0 -3.162278 
C -0.838646 -3.162278 -1.643056 -2.82908 -2.236068 -2.236068 
C -2.82908 -1.643056 -3.162278 -0.838646 -3.162278 0 
C -3.162278 0.838646 -2.82908 1.643056 -2.236068 2.236068 
C -1.643056 2.82908 -0.838646 3.162278 0 3.162278 
z
" id="mbc5a1e6ebd" style="stroke:#ff7f0e;"/>
    </defs>
    <g clip-path="url(#p0fcc92f4ad)">
     <use style="fill:#ff7f0e;stroke:#ff7f0e;" x="36.190229" xlink:href="#mbc5a1e6ebd" y="179.215565"/>
     <use style="fill:#ff7f0e;stroke:#ff7f0e;" x="63.558885" xlink:href="#mbc5a1e6ebd" y="154.595051"/>
     <use style="fill:#ff7f0e;stroke:#ff7f0e;" x="88.440371" xlink:href="#mbc5a1e6ebd" y="133.226744"/>
     <use style="fill:#ff7f0e;stroke:#ff7f0e;" x="111.158991" xlink:href="#mbc5a1e6ebd" y="114.221705"/>
     <use style="fill:#ff7f0e;stroke:#ff7f0e;" x="131.985014" xlink:href="#mbc5a1e6ebd" y="96.806458"/>
     <use style="fill:#ff7f0e;stroke:#ff7f0e;" x="151.145479" xlink:href="#mbc5a1e6ebd" y="80.148979"/>
     <use style="fill:#ff7f0e;stroke:#ff7f0e;" x="168.832509" xlink:href="#mbc5a1e6ebd" y="64.381479"/>
     <use style="fill:#ff7f0e;stroke:#ff7f0e;" x="185.209771" xlink:href="#mbc5a1e6ebd" y="49.65188"/>
    </g>
   </g>
   <g id="PathCollection_3">
    <defs>
     <path d="M 0 3.162278 
C 0.838646 3.162278 1.643056 2.82908 2.236068 2.236068 
C 2.82908 1.643056 3.162278 0.838646 3.162278 0 
C 3.162278 -0.838646 2.82908 -1.643056 2.236068 -2.236068 
C 1.643056 -2.82908 0.838646 -3.162278 0 -3.162278 
C -0.838646 -3.162278 -1.643056 -2.82908 -2.236068 -2.236068 
C -2.82908 -1.643056 -3.162278 -0.838646 -3.162278 0 
C -3.162278 0.838646 -2.82908 1.643056 -2.236068 2.236068 
C -1.643056 2.82908 -0.838646 3.162278 0 3.162278 
z
" id="maac08d14bf" style="stroke:#2ca02c;"/>
    </defs>
    <g clip-path="url(#p0fcc92f4ad)">
     <use style="fill:#2ca02c;stroke:#2ca02c;" x="36.190229" xlink:href="#maac08d14bf" y="179.215565"/>
     <use style="fill:#2ca02c;stroke:#2ca02c;" x="63.558885" xlink:href="#maac08d14bf" y="155.977445"/>
     <use style="fill:#2ca02c;stroke:#2ca02c;" x="88.440371" xlink:href="#maac08d14bf" y="134.905562"/>
     <use style="fill:#2ca02c;stroke:#2ca02c;" x="111.158991" xlink:href="#maac08d14bf" y="115.269757"/>
     <use style="fill:#2ca02c;stroke:#2ca02c;" x="131.985014" xlink:href="#maac08d14bf" y="97.06809"/>
     <use style="fill:#2ca02c;stroke:#2ca02c;" x="151.145479" xlink:href="#maac08d14bf" y="80.148979"/>
     <use style="fill:#2ca02c;stroke:#2ca02c;" x="168.832509" xlink:href="#maac08d14bf" y="64.381479"/>
     <use style="fill:#2ca02c;stroke:#2ca02c;" x="185.209771" xlink:href="#maac08d14bf" y="49.65188"/>
    </g>
   </g>
   <g id="PathCollection_4">
    <defs>
     <path d="M 0 3.162278 
C 0.838646 3.162278 1.643056 2.82908 2.236068 2.236068 
C 2.82908 1.643056 3.162278 0.838646 3.162278 0 
C 3.162278 -0.838646 2.82908 -1.643056 2.236068 -2.236068 
C 1.643056 -2.82908 0.838646 -3.162278 0 -3.162278 
C -0.838646 -3.162278 -1.643056 -2.82908 -2.236068 -2.236068 
C -2.82908 -1.643056 -3.162278 -0.838646 -3.162278 0 
C -3.162278 0.838646 -2.82908 1.643056 -2.236068 2.236068 
C -1.643056 2.82908 -0.838646 3.162278 0 3.162278 
z
" id="m082d6ee61f" style="stroke:#d62728;"/>
    </defs>
    <g clip-path="url(#p0fcc92f4ad)">
     <use style="fill:#d62728;stroke:#d62728;" x="36.190229" xlink:href="#m082d6ee61f" y="179.215565"/>
     <use style="fill:#d62728;stroke:#d62728;" x="63.558885" xlink:href="#m082d6ee61f" y="156.151954"/>
     <use style="fill:#d62728;stroke:#d62728;" x="88.440371" xlink:href="#m082d6ee61f" y="134.905562"/>
     <use style="fill:#d62728;stroke:#d62728;" x="111.158991" xlink:href="#m082d6ee61f" y="115.269757"/>
     <use style="fill:#d62728;stroke:#d62728;" x="131.985014" xlink:href="#m082d6ee61f" y="97.06809"/>
     <use style="fill:#d62728;stroke:#d62728;" x="151.145479" xlink:href="#m082d6ee61f" y="80.148979"/>
     <use style="fill:#d62728;stroke:#d62728;" x="168.832509" xlink:href="#m082d6ee61f" y="64.381479"/>
     <use style="fill:#d62728;stroke:#d62728;" x="185.209771" xlink:href="#m082d6ee61f" y="49.65188"/>
    </g>
   </g>
   <g id="PathCollection_5">
    <defs>
     <path d="M 0 3.162278 
C 0.838646 3.162278 1.643056 2.82908 2.236068 2.236068 
C 2.82908 1.643056 3.162278 0.838646 3.162278 0 
C 3.162278 -0.838646 2.82908 -1.643056 2.236068 -2.236068 
C 1.643056 -2.82908 0.838646 -3.162278 0 -3.162278 
C -0.838646 -3.162278 -1.643056 -2.82908 -2.236068 -2.236068 
C -2.82908 -1.643056 -3.162278 -0.838646 -3.162278 0 
C -3.162278 0.838646 -2.82908 1.643056 -2.236068 2.236068 
C -1.643056 2.82908 -0.838646 3.162278 0 3.162278 
z
" id="mf8adcfd84c" style="stroke:#9467bd;"/>
    </defs>
    <g clip-path="url(#p0fcc92f4ad)">
     <use style="fill:#9467bd;stroke:#9467bd;" x="36.190229" xlink:href="#mf8adcfd84c" y="179.215565"/>
     <use style="fill:#9467bd;stroke:#9467bd;" x="63.558885" xlink:href="#mf8adcfd84c" y="156.151954"/>
     <use style="fill:#9467bd;stroke:#9467bd;" x="88.440371" xlink:href="#mf8adcfd84c" y="134.905562"/>
     <use style="fill:#9467bd;stroke:#9467bd;" x="111.158991" xlink:href="#mf8adcfd84c" y="115.269757"/>
     <use style="fill:#9467bd;stroke:#9467bd;" x="131.985014" xlink:href="#mf8adcfd84c" y="97.06809"/>
     <use style="fill:#9467bd;stroke:#9467bd;" x="151.145479" xlink:href="#mf8adcfd84c" y="80.148979"/>
     <use style="fill:#9467bd;stroke:#9467bd;" x="168.832509" xlink:href="#mf8adcfd84c" y="64.381479"/>
     <use style="fill:#9467bd;stroke:#9467bd;" x="185.209771" xlink:href="#mf8adcfd84c" y="49.65188"/>
    </g>
   </g>
   <g id="line2d_1">
    <path clip-path="url(#p0fcc92f4ad)" d="M 36.190229 179.215565 
L 63.558885 152.446099 
L 88.440371 128.109351 
L 111.158991 105.888117 
L 131.985014 85.518044 
L 151.145479 66.777065 
L 168.832509 49.477262 
L 185.209771 33.458553 
" style="fill:none;stroke:#1f77b4;stroke-dasharray:3.7,1.6;stroke-dashoffset:0;"/>
   </g>
   <g id="line2d_2">
    <path clip-path="url(#p0fcc92f4ad)" d="M 36.190229 179.215565 
L 63.558885 154.595051 
L 88.440371 133.226744 
L 111.158991 114.221705 
L 131.985014 96.806458 
L 151.145479 80.148979 
L 168.832509 64.381479 
L 185.209771 49.65188 
" style="fill:none;stroke:#ff7f0e;stroke-dasharray:3.7,1.6;stroke-dashoffset:0;"/>
   </g>
   <g id="line2d_3">
    <path clip-path="url(#p0fcc92f4ad)" d="M 36.190229 179.215565 
L 63.558885 155.977445 
L 88.440371 134.905562 
L 111.158991 115.269757 
L 131.985014 97.06809 
L 151.145479 80.148979 
L 168.832509 64.381479 
L 185.209771 49.65188 
" style="fill:none;stroke:#2ca02c;stroke-dasharray:3.7,1.6;stroke-dashoffset:0;"/>
   </g>
   <g id="line2d_4">
    <path clip-path="url(#p0fcc92f4ad)" d="M 36.190229 179.215565 
L 63.558885 156.151954 
L 88.440371 134.905562 
L 111.158991 115.269757 
L 131.985014 97.06809 
L 151.145479 80.148979 
L 168.832509 64.381479 
L 185.209771 49.65188 
" style="fill:none;stroke:#d62728;stroke-dasharray:3.7,1.6;stroke-dashoffset:0;"/>
   </g>
   <g id="line2d_5">
    <path clip-path="url(#p0fcc92f4ad)" d="M 36.190229 179.215565 
L 63.558885 156.151954 
L 88.440371 134.905562 
L 111.158991 115.269757 
L 131.985014 97.06809 
L 151.145479 80.148979 
L 168.832509 64.381479 
L 185.209771 49.65188 
" style="fill:none;stroke:#9467bd;stroke-dasharray:3.7,1.6;stroke-dashoffset:0;"/>
   </g>
   <g id="patch_3">
    <path d="M 27 189 
L 27 25.92 
" style="fill:none;stroke:#262626;stroke-linecap:square;stroke-linejoin:miter;stroke-width:1.25;"/>
   </g>
   <g id="patch_4">
    <path d="M 27 189 
L 194.4 189 
" style="fill:none;stroke:#262626;stroke-linecap:square;stroke-linejoin:miter;stroke-width:1.25;"/>
   </g>
   <g id="matplotlib.axis_1">
    <g id="xtick_1">
     <g id="line2d_6"/>
     <g id="text_1">
      <!-- 0 -->
      <defs>
       <path d="M 4.15625 35.296875 
Q 4.15625 48 6.765625 55.734375 
Q 9.375 63.484375 14.515625 67.671875 
Q 19.671875 71.875 27.484375 71.875 
Q 33.25 71.875 37.59375 69.546875 
Q 41.9375 67.234375 44.765625 62.859375 
Q 47.609375 58.5 49.21875 52.21875 
Q 50.828125 45.953125 50.828125 35.296875 
Q 50.828125 22.703125 48.234375 14.96875 
Q 45.65625 7.234375 40.5 3 
Q 35.359375 -1.21875 27.484375 -1.21875 
Q 17.140625 -1.21875 11.234375 6.203125 
Q 4.15625 15.140625 4.15625 35.296875 
z
M 13.1875 35.296875 
Q 13.1875 17.671875 17.3125 11.828125 
Q 21.4375 6 27.484375 6 
Q 33.546875 6 37.671875 11.859375 
Q 41.796875 17.71875 41.796875 35.296875 
Q 41.796875 52.984375 37.671875 58.78125 
Q 33.546875 64.59375 27.390625 64.59375 
Q 21.34375 64.59375 17.71875 59.46875 
Q 13.1875 52.9375 13.1875 35.296875 
z
" id="ArialMT-30"/>
      </defs>
      <g style="fill:#262626;" transform="translate(33.409761 199.657813)scale(0.1 -0.1)">
       <use xlink:href="#ArialMT-30"/>
      </g>
     </g>
    </g>
    <g id="xtick_2">
     <g id="line2d_7"/>
     <g id="text_2">
      <!-- 5 -->
      <defs>
       <path d="M 4.15625 18.75 
L 13.375 19.53125 
Q 14.40625 12.796875 18.140625 9.390625 
Q 21.875 6 27.15625 6 
Q 33.5 6 37.890625 10.78125 
Q 42.28125 15.578125 42.28125 23.484375 
Q 42.28125 31 38.0625 35.34375 
Q 33.84375 39.703125 27 39.703125 
Q 22.75 39.703125 19.328125 37.765625 
Q 15.921875 35.84375 13.96875 32.765625 
L 5.71875 33.84375 
L 12.640625 70.609375 
L 48.25 70.609375 
L 48.25 62.203125 
L 19.671875 62.203125 
L 15.828125 42.96875 
Q 22.265625 47.46875 29.34375 47.46875 
Q 38.71875 47.46875 45.15625 40.96875 
Q 51.609375 34.46875 51.609375 24.265625 
Q 51.609375 14.546875 45.953125 7.46875 
Q 39.0625 -1.21875 27.15625 -1.21875 
Q 17.390625 -1.21875 11.203125 4.25 
Q 5.03125 9.71875 4.15625 18.75 
z
" id="ArialMT-35"/>
      </defs>
      <g style="fill:#262626;" transform="translate(77.637249 199.657813)scale(0.1 -0.1)">
       <use xlink:href="#ArialMT-35"/>
      </g>
     </g>
    </g>
    <g id="xtick_3">
     <g id="line2d_8"/>
     <g id="text_3">
      <!-- 10 -->
      <defs>
       <path d="M 37.25 0 
L 28.46875 0 
L 28.46875 56 
Q 25.296875 52.984375 20.140625 49.953125 
Q 14.984375 46.921875 10.890625 45.40625 
L 10.890625 53.90625 
Q 18.265625 57.375 23.78125 62.296875 
Q 29.296875 67.234375 31.59375 71.875 
L 37.25 71.875 
z
" id="ArialMT-31"/>
      </defs>
      <g style="fill:#262626;" transform="translate(119.084268 199.657813)scale(0.1 -0.1)">
       <use xlink:href="#ArialMT-31"/>
       <use x="55.615234" xlink:href="#ArialMT-30"/>
      </g>
     </g>
    </g>
    <g id="xtick_4">
     <g id="line2d_9"/>
     <g id="text_4">
      <!-- 15 -->
      <g style="fill:#262626;" transform="translate(163.311757 199.657813)scale(0.1 -0.1)">
       <use xlink:href="#ArialMT-31"/>
       <use x="55.615234" xlink:href="#ArialMT-35"/>
      </g>
     </g>
    </g>
    <g id="text_5">
     <!-- Excitation $V_{max}$ -->
     <defs>
      <path d="M 7.90625 0 
L 7.90625 71.578125 
L 59.671875 71.578125 
L 59.671875 63.140625 
L 17.390625 63.140625 
L 17.390625 41.21875 
L 56.984375 41.21875 
L 56.984375 32.8125 
L 17.390625 32.8125 
L 17.390625 8.453125 
L 61.328125 8.453125 
L 61.328125 0 
z
" id="ArialMT-45"/>
      <path d="M 0.734375 0 
L 19.671875 26.953125 
L 2.15625 51.859375 
L 13.140625 51.859375 
L 21.09375 39.703125 
Q 23.34375 36.234375 24.703125 33.890625 
Q 26.859375 37.109375 28.65625 39.59375 
L 37.40625 51.859375 
L 47.90625 51.859375 
L 29.984375 27.4375 
L 49.265625 0 
L 38.484375 0 
L 27.828125 16.109375 
L 25 20.453125 
L 11.375 0 
z
" id="ArialMT-78"/>
      <path d="M 40.4375 19 
L 49.078125 17.875 
Q 47.65625 8.9375 41.8125 3.875 
Q 35.984375 -1.171875 27.484375 -1.171875 
Q 16.84375 -1.171875 10.375 5.78125 
Q 3.90625 12.75 3.90625 25.734375 
Q 3.90625 34.125 6.6875 40.421875 
Q 9.46875 46.734375 15.15625 49.875 
Q 20.84375 53.03125 27.546875 53.03125 
Q 35.984375 53.03125 41.359375 48.75 
Q 46.734375 44.484375 48.25 36.625 
L 39.703125 35.296875 
Q 38.484375 40.53125 35.375 43.15625 
Q 32.28125 45.796875 27.875 45.796875 
Q 21.234375 45.796875 17.078125 41.03125 
Q 12.9375 36.28125 12.9375 25.984375 
Q 12.9375 15.53125 16.9375 10.796875 
Q 20.953125 6.0625 27.390625 6.0625 
Q 32.5625 6.0625 36.03125 9.234375 
Q 39.5 12.40625 40.4375 19 
z
" id="ArialMT-63"/>
      <path d="M 6.640625 61.46875 
L 6.640625 71.578125 
L 15.4375 71.578125 
L 15.4375 61.46875 
z
M 6.640625 0 
L 6.640625 51.859375 
L 15.4375 51.859375 
L 15.4375 0 
z
" id="ArialMT-69"/>
      <path d="M 25.78125 7.859375 
L 27.046875 0.09375 
Q 23.34375 -0.6875 20.40625 -0.6875 
Q 15.625 -0.6875 12.984375 0.828125 
Q 10.359375 2.34375 9.28125 4.8125 
Q 8.203125 7.28125 8.203125 15.1875 
L 8.203125 45.015625 
L 1.765625 45.015625 
L 1.765625 51.859375 
L 8.203125 51.859375 
L 8.203125 64.703125 
L 16.9375 69.96875 
L 16.9375 51.859375 
L 25.78125 51.859375 
L 25.78125 45.015625 
L 16.9375 45.015625 
L 16.9375 14.703125 
Q 16.9375 10.9375 17.40625 9.859375 
Q 17.875 8.796875 18.921875 8.15625 
Q 19.96875 7.515625 21.921875 7.515625 
Q 23.390625 7.515625 25.78125 7.859375 
z
" id="ArialMT-74"/>
      <path d="M 40.4375 6.390625 
Q 35.546875 2.25 31.03125 0.53125 
Q 26.515625 -1.171875 21.34375 -1.171875 
Q 12.796875 -1.171875 8.203125 3 
Q 3.609375 7.171875 3.609375 13.671875 
Q 3.609375 17.484375 5.34375 20.625 
Q 7.078125 23.78125 9.890625 25.6875 
Q 12.703125 27.59375 16.21875 28.5625 
Q 18.796875 29.25 24.03125 29.890625 
Q 34.671875 31.15625 39.703125 32.90625 
Q 39.75 34.71875 39.75 35.203125 
Q 39.75 40.578125 37.25 42.78125 
Q 33.890625 45.75 27.25 45.75 
Q 21.046875 45.75 18.09375 43.578125 
Q 15.140625 41.40625 13.71875 35.890625 
L 5.125 37.0625 
Q 6.296875 42.578125 8.984375 45.96875 
Q 11.671875 49.359375 16.75 51.1875 
Q 21.828125 53.03125 28.515625 53.03125 
Q 35.15625 53.03125 39.296875 51.46875 
Q 43.453125 49.90625 45.40625 47.53125 
Q 47.359375 45.171875 48.140625 41.546875 
Q 48.578125 39.3125 48.578125 33.453125 
L 48.578125 21.734375 
Q 48.578125 9.46875 49.140625 6.21875 
Q 49.703125 2.984375 51.375 0 
L 42.1875 0 
Q 40.828125 2.734375 40.4375 6.390625 
z
M 39.703125 26.03125 
Q 34.90625 24.078125 25.34375 22.703125 
Q 19.921875 21.921875 17.671875 20.9375 
Q 15.4375 19.96875 14.203125 18.09375 
Q 12.984375 16.21875 12.984375 13.921875 
Q 12.984375 10.40625 15.640625 8.0625 
Q 18.3125 5.71875 23.4375 5.71875 
Q 28.515625 5.71875 32.46875 7.9375 
Q 36.421875 10.15625 38.28125 14.015625 
Q 39.703125 17 39.703125 22.796875 
z
" id="ArialMT-61"/>
      <path d="M 3.328125 25.921875 
Q 3.328125 40.328125 11.328125 47.265625 
Q 18.015625 53.03125 27.640625 53.03125 
Q 38.328125 53.03125 45.109375 46.015625 
Q 51.90625 39.015625 51.90625 26.65625 
Q 51.90625 16.65625 48.90625 10.90625 
Q 45.90625 5.171875 40.15625 2 
Q 34.421875 -1.171875 27.640625 -1.171875 
Q 16.75 -1.171875 10.03125 5.8125 
Q 3.328125 12.796875 3.328125 25.921875 
z
M 12.359375 25.921875 
Q 12.359375 15.96875 16.703125 11.015625 
Q 21.046875 6.0625 27.640625 6.0625 
Q 34.1875 6.0625 38.53125 11.03125 
Q 42.875 16.015625 42.875 26.21875 
Q 42.875 35.84375 38.5 40.796875 
Q 34.125 45.75 27.640625 45.75 
Q 21.046875 45.75 16.703125 40.8125 
Q 12.359375 35.890625 12.359375 25.921875 
z
" id="ArialMT-6f"/>
      <path d="M 6.59375 0 
L 6.59375 51.859375 
L 14.5 51.859375 
L 14.5 44.484375 
Q 20.21875 53.03125 31 53.03125 
Q 35.6875 53.03125 39.625 51.34375 
Q 43.5625 49.65625 45.515625 46.921875 
Q 47.46875 44.1875 48.25 40.4375 
Q 48.734375 37.984375 48.734375 31.890625 
L 48.734375 0 
L 39.9375 0 
L 39.9375 31.546875 
Q 39.9375 36.921875 38.90625 39.578125 
Q 37.890625 42.234375 35.28125 43.8125 
Q 32.671875 45.40625 29.15625 45.40625 
Q 23.53125 45.40625 19.453125 41.84375 
Q 15.375 38.28125 15.375 28.328125 
L 15.375 0 
z
" id="ArialMT-6e"/>
      <path id="ArialMT-20"/>
      <path d="M 20.609375 0 
L 7.8125 72.90625 
L 17.484375 72.90625 
L 28.078125 10.203125 
L 63.484375 72.90625 
L 74.21875 72.90625 
L 32.078125 0 
z
" id="DejaVuSans-Oblique-56"/>
      <path d="M 89.796875 33.015625 
L 83.40625 0 
L 74.421875 0 
L 80.71875 32.71875 
Q 81.109375 34.8125 81.296875 36.328125 
Q 81.5 37.84375 81.5 38.921875 
Q 81.5 43.3125 79.046875 45.75 
Q 76.609375 48.1875 72.21875 48.1875 
Q 65.671875 48.1875 60.546875 43.28125 
Q 55.421875 38.375 53.90625 30.515625 
L 47.90625 0 
L 38.921875 0 
L 45.3125 32.71875 
Q 45.703125 34.515625 45.890625 36.046875 
Q 46.09375 37.59375 46.09375 38.8125 
Q 46.09375 43.265625 43.65625 45.71875 
Q 41.21875 48.1875 36.921875 48.1875 
Q 30.28125 48.1875 25.140625 43.28125 
Q 20.015625 38.375 18.5 30.515625 
L 12.5 0 
L 3.515625 0 
L 14.203125 54.6875 
L 23.1875 54.6875 
L 21.484375 46.1875 
Q 25.140625 50.984375 30.046875 53.484375 
Q 34.96875 56 40.578125 56 
Q 46.53125 56 50.359375 52.875 
Q 54.203125 49.75 54.984375 44.1875 
Q 59.078125 49.953125 64.46875 52.96875 
Q 69.875 56 75.875 56 
Q 82.90625 56 86.734375 51.953125 
Q 90.578125 47.90625 90.578125 40.484375 
Q 90.578125 38.875 90.375 36.9375 
Q 90.1875 35.015625 89.796875 33.015625 
z
" id="DejaVuSans-Oblique-6d"/>
      <path d="M 53.71875 31.203125 
L 47.609375 0 
L 38.625 0 
L 40.28125 8.296875 
Q 36.328125 3.421875 31.265625 1 
Q 26.21875 -1.421875 20.015625 -1.421875 
Q 13.03125 -1.421875 8.5625 2.84375 
Q 4.109375 7.125 4.109375 13.8125 
Q 4.109375 23.390625 11.75 28.953125 
Q 19.390625 34.515625 32.8125 34.515625 
L 45.3125 34.515625 
L 45.796875 36.921875 
Q 45.90625 37.3125 45.953125 37.765625 
Q 46 38.234375 46 39.203125 
Q 46 43.5625 42.453125 45.96875 
Q 38.921875 48.390625 32.515625 48.390625 
Q 28.125 48.390625 23.5 47.265625 
Q 18.890625 46.140625 14.015625 43.890625 
L 15.578125 52.203125 
Q 20.65625 54.109375 25.515625 55.046875 
Q 30.375 56 34.90625 56 
Q 44.578125 56 49.625 51.796875 
Q 54.6875 47.609375 54.6875 39.59375 
Q 54.6875 37.984375 54.4375 35.8125 
Q 54.203125 33.640625 53.71875 31.203125 
z
M 44 27.484375 
L 35.015625 27.484375 
Q 23.96875 27.484375 18.671875 24.53125 
Q 13.375 21.578125 13.375 15.375 
Q 13.375 11.078125 16.078125 8.640625 
Q 18.796875 6.203125 23.578125 6.203125 
Q 30.90625 6.203125 36.375 11.453125 
Q 41.84375 16.703125 43.609375 25.484375 
z
" id="DejaVuSans-Oblique-61"/>
      <path d="M 60.015625 54.6875 
L 34.90625 27.875 
L 50.296875 0 
L 39.984375 0 
L 28.421875 21.6875 
L 8.296875 0 
L -2.59375 0 
L 24.3125 28.8125 
L 10.015625 54.6875 
L 20.3125 54.6875 
L 30.8125 34.90625 
L 49.125 54.6875 
z
" id="DejaVuSans-Oblique-78"/>
     </defs>
     <g style="fill:#262626;" transform="translate(76.45 212.803125)scale(0.1 -0.1)">
      <use transform="translate(0 0.09375)" xlink:href="#ArialMT-45"/>
      <use transform="translate(66.699219 0.09375)" xlink:href="#ArialMT-78"/>
      <use transform="translate(116.699219 0.09375)" xlink:href="#ArialMT-63"/>
      <use transform="translate(166.699219 0.09375)" xlink:href="#ArialMT-69"/>
      <use transform="translate(188.916016 0.09375)" xlink:href="#ArialMT-74"/>
      <use transform="translate(216.699219 0.09375)" xlink:href="#ArialMT-61"/>
      <use transform="translate(272.314453 0.09375)" xlink:href="#ArialMT-74"/>
      <use transform="translate(300.097656 0.09375)" xlink:href="#ArialMT-69"/>
      <use transform="translate(322.314453 0.09375)" xlink:href="#ArialMT-6f"/>
      <use transform="translate(377.929688 0.09375)" xlink:href="#ArialMT-6e"/>
      <use transform="translate(433.544922 0.09375)" xlink:href="#ArialMT-20"/>
      <use transform="translate(461.328125 0.09375)" xlink:href="#DejaVuSans-Oblique-56"/>
      <use transform="translate(529.736328 -16.3125)scale(0.7)" xlink:href="#DejaVuSans-Oblique-6d"/>
      <use transform="translate(597.924805 -16.3125)scale(0.7)" xlink:href="#DejaVuSans-Oblique-61"/>
      <use transform="translate(640.820312 -16.3125)scale(0.7)" xlink:href="#DejaVuSans-Oblique-78"/>
     </g>
    </g>
   </g>
   <g id="matplotlib.axis_2">
    <g id="ytick_1">
     <g id="line2d_10"/>
     <g id="text_6">
      <!-- 0.0 -->
      <defs>
       <path d="M 9.078125 0 
L 9.078125 10.015625 
L 19.09375 10.015625 
L 19.09375 0 
z
" id="ArialMT-2e"/>
      </defs>
      <g style="fill:#262626;" transform="translate(9.6 182.794471)scale(0.1 -0.1)">
       <use xlink:href="#ArialMT-30"/>
       <use x="55.615234" xlink:href="#ArialMT-2e"/>
       <use x="83.398438" xlink:href="#ArialMT-30"/>
      </g>
     </g>
    </g>
    <g id="ytick_2">
     <g id="line2d_11"/>
     <g id="text_7">
      <!-- 2.5 -->
      <defs>
       <path d="M 50.34375 8.453125 
L 50.34375 0 
L 3.03125 0 
Q 2.9375 3.171875 4.046875 6.109375 
Q 5.859375 10.9375 9.828125 15.625 
Q 13.8125 20.3125 21.34375 26.46875 
Q 33.015625 36.03125 37.109375 41.625 
Q 41.21875 47.21875 41.21875 52.203125 
Q 41.21875 57.421875 37.46875 61 
Q 33.734375 64.59375 27.734375 64.59375 
Q 21.390625 64.59375 17.578125 60.78125 
Q 13.765625 56.984375 13.71875 50.25 
L 4.6875 51.171875 
Q 5.609375 61.28125 11.65625 66.578125 
Q 17.71875 71.875 27.9375 71.875 
Q 38.234375 71.875 44.234375 66.15625 
Q 50.25 60.453125 50.25 52 
Q 50.25 47.703125 48.484375 43.546875 
Q 46.734375 39.40625 42.65625 34.8125 
Q 38.578125 30.21875 29.109375 22.21875 
Q 21.1875 15.578125 18.9375 13.203125 
Q 16.703125 10.84375 15.234375 8.453125 
z
" id="ArialMT-32"/>
      </defs>
      <g style="fill:#262626;" transform="translate(9.6 161.16487)scale(0.1 -0.1)">
       <use xlink:href="#ArialMT-32"/>
       <use x="55.615234" xlink:href="#ArialMT-2e"/>
       <use x="83.398438" xlink:href="#ArialMT-35"/>
      </g>
     </g>
    </g>
    <g id="ytick_3">
     <g id="line2d_12"/>
     <g id="text_8">
      <!-- 5.0 -->
      <g style="fill:#262626;" transform="translate(9.6 139.535268)scale(0.1 -0.1)">
       <use xlink:href="#ArialMT-35"/>
       <use x="55.615234" xlink:href="#ArialMT-2e"/>
       <use x="83.398438" xlink:href="#ArialMT-30"/>
      </g>
     </g>
    </g>
    <g id="ytick_4">
     <g id="line2d_13"/>
     <g id="text_9">
      <!-- 7.5 -->
      <defs>
       <path d="M 4.734375 62.203125 
L 4.734375 70.65625 
L 51.078125 70.65625 
L 51.078125 63.8125 
Q 44.234375 56.546875 37.515625 44.484375 
Q 30.8125 32.421875 27.15625 19.671875 
Q 24.515625 10.6875 23.78125 0 
L 14.75 0 
Q 14.890625 8.453125 18.0625 20.40625 
Q 21.234375 32.375 27.171875 43.484375 
Q 33.109375 54.59375 39.796875 62.203125 
z
" id="ArialMT-37"/>
      </defs>
      <g style="fill:#262626;" transform="translate(9.6 117.905667)scale(0.1 -0.1)">
       <use xlink:href="#ArialMT-37"/>
       <use x="55.615234" xlink:href="#ArialMT-2e"/>
       <use x="83.398438" xlink:href="#ArialMT-35"/>
      </g>
     </g>
    </g>
    <g id="ytick_5">
     <g id="line2d_14"/>
     <g id="text_10">
      <!-- 10.0 -->
      <g style="fill:#262626;" transform="translate(4.039062 96.276066)scale(0.1 -0.1)">
       <use xlink:href="#ArialMT-31"/>
       <use x="55.615234" xlink:href="#ArialMT-30"/>
       <use x="111.230469" xlink:href="#ArialMT-2e"/>
       <use x="139.013672" xlink:href="#ArialMT-30"/>
      </g>
     </g>
    </g>
    <g id="ytick_6">
     <g id="line2d_15"/>
     <g id="text_11">
      <!-- 12.5 -->
      <g style="fill:#262626;" transform="translate(4.039062 74.646464)scale(0.1 -0.1)">
       <use xlink:href="#ArialMT-31"/>
       <use x="55.615234" xlink:href="#ArialMT-32"/>
       <use x="111.230469" xlink:href="#ArialMT-2e"/>
       <use x="139.013672" xlink:href="#ArialMT-35"/>
      </g>
     </g>
    </g>
    <g id="ytick_7">
     <g id="line2d_16"/>
     <g id="text_12">
      <!-- 15.0 -->
      <g style="fill:#262626;" transform="translate(4.039062 53.016863)scale(0.1 -0.1)">
       <use xlink:href="#ArialMT-31"/>
       <use x="55.615234" xlink:href="#ArialMT-35"/>
       <use x="111.230469" xlink:href="#ArialMT-2e"/>
       <use x="139.013672" xlink:href="#ArialMT-30"/>
      </g>
     </g>
    </g>
    <g id="ytick_8">
     <g id="line2d_17"/>
     <g id="text_13">
      <!-- 17.5 -->
      <g style="fill:#262626;" transform="translate(4.039062 31.387262)scale(0.1 -0.1)">
       <use xlink:href="#ArialMT-31"/>
       <use x="55.615234" xlink:href="#ArialMT-37"/>
       <use x="111.230469" xlink:href="#ArialMT-2e"/>
       <use x="139.013672" xlink:href="#ArialMT-35"/>
      </g>
     </g>
    </g>
    <g id="text_14">
     <!-- Control  $V_{max}$ -->
     <defs>
      <path d="M 58.796875 25.09375 
L 68.265625 22.703125 
Q 65.28125 11.03125 57.546875 4.90625 
Q 49.8125 -1.21875 38.625 -1.21875 
Q 27.046875 -1.21875 19.796875 3.484375 
Q 12.546875 8.203125 8.765625 17.140625 
Q 4.984375 26.078125 4.984375 36.328125 
Q 4.984375 47.515625 9.25 55.828125 
Q 13.53125 64.15625 21.40625 68.46875 
Q 29.296875 72.796875 38.765625 72.796875 
Q 49.515625 72.796875 56.828125 67.328125 
Q 64.15625 61.859375 67.046875 51.953125 
L 57.71875 49.75 
Q 55.21875 57.5625 50.484375 61.125 
Q 45.75 64.703125 38.578125 64.703125 
Q 30.328125 64.703125 24.78125 60.734375 
Q 19.234375 56.78125 16.984375 50.109375 
Q 14.75 43.453125 14.75 36.375 
Q 14.75 27.25 17.40625 20.4375 
Q 20.0625 13.625 25.671875 10.25 
Q 31.296875 6.890625 37.84375 6.890625 
Q 45.796875 6.890625 51.3125 11.46875 
Q 56.84375 16.0625 58.796875 25.09375 
z
" id="ArialMT-43"/>
      <path d="M 6.5 0 
L 6.5 51.859375 
L 14.40625 51.859375 
L 14.40625 44 
Q 17.4375 49.515625 20 51.265625 
Q 22.5625 53.03125 25.640625 53.03125 
Q 30.078125 53.03125 34.671875 50.203125 
L 31.640625 42.046875 
Q 28.421875 43.953125 25.203125 43.953125 
Q 22.3125 43.953125 20.015625 42.21875 
Q 17.71875 40.484375 16.75 37.40625 
Q 15.28125 32.71875 15.28125 27.15625 
L 15.28125 0 
z
" id="ArialMT-72"/>
      <path d="M 6.390625 0 
L 6.390625 71.578125 
L 15.1875 71.578125 
L 15.1875 0 
z
" id="ArialMT-6c"/>
     </defs>
     <g style="fill:#262626;" transform="translate(-1.948438 137.56)rotate(-90)scale(0.1 -0.1)">
      <use transform="translate(0 0.09375)" xlink:href="#ArialMT-43"/>
      <use transform="translate(72.216797 0.09375)" xlink:href="#ArialMT-6f"/>
      <use transform="translate(127.832031 0.09375)" xlink:href="#ArialMT-6e"/>
      <use transform="translate(183.447266 0.09375)" xlink:href="#ArialMT-74"/>
      <use transform="translate(211.230469 0.09375)" xlink:href="#ArialMT-72"/>
      <use transform="translate(244.53125 0.09375)" xlink:href="#ArialMT-6f"/>
      <use transform="translate(300.146484 0.09375)" xlink:href="#ArialMT-6c"/>
      <use transform="translate(322.363281 0.09375)" xlink:href="#ArialMT-20"/>
      <use transform="translate(350.146484 0.09375)" xlink:href="#ArialMT-20"/>
      <use transform="translate(377.929688 0.09375)" xlink:href="#DejaVuSans-Oblique-56"/>
      <use transform="translate(446.337891 -16.3125)scale(0.7)" xlink:href="#DejaVuSans-Oblique-6d"/>
      <use transform="translate(514.526367 -16.3125)scale(0.7)" xlink:href="#DejaVuSans-Oblique-61"/>
      <use transform="translate(557.421875 -16.3125)scale(0.7)" xlink:href="#DejaVuSans-Oblique-78"/>
     </g>
    </g>
   </g>
  </g>
  <g id="axes_2">
   <g id="patch_5">
    <path d="M 54 86.4 
L 108 86.4 
L 108 32.4 
L 54 32.4 
z
" style="fill:none;"/>
   </g>
   <g id="line2d_18">
    <path clip-path="url(#p4d5a82831d)" d="M 56.454545 81.451247 
L 56.701233 71.519481 
L 56.947921 63.674602 
L 57.441297 52.396969 
L 57.934673 45.098622 
L 58.428049 40.396127 
L 58.921425 37.464326 
L 59.414801 35.77913 
L 59.908177 34.99098 
L 60.154865 34.854545 
L 60.401553 34.857534 
L 60.894929 35.205559 
L 61.388305 35.908179 
L 62.128369 37.426285 
L 63.361809 40.680152 
L 68.788945 56.068585 
L 70.515761 60.069292 
L 72.242577 63.525471 
L 73.969392 66.476004 
L 75.696208 68.974791 
L 77.423024 71.078894 
L 79.14984 72.843026 
L 80.876656 74.317163 
L 82.85016 75.70346 
L 84.823664 76.825975 
L 87.043856 77.83317 
L 89.510735 78.700312 
L 92.224303 79.418274 
L 95.431247 80.030708 
L 99.378255 80.538429 
L 104.312015 80.926638 
L 105.545455 80.994534 
L 105.545455 80.994534 
" style="fill:none;stroke:#1f77b4;stroke-linecap:round;"/>
   </g>
   <g id="line2d_19">
    <path clip-path="url(#p4d5a82831d)" d="M 56.454545 81.451247 
L 56.701233 71.519481 
L 56.947921 63.674602 
L 57.441297 52.396969 
L 57.934673 45.098622 
L 58.428049 40.396127 
L 58.921425 40.767078 
L 59.661489 41.888759 
L 60.648241 43.947616 
L 62.375057 48.188781 
L 66.075377 57.332733 
L 68.048881 61.584518 
L 69.775697 64.838528 
L 71.502513 67.661837 
L 73.229328 70.083324 
L 74.956144 72.14201 
L 76.68296 73.879886 
L 78.656464 75.525882 
L 80.629968 76.863473 
L 82.603472 77.943421 
L 84.823664 78.905165 
L 87.290544 79.721285 
L 90.004111 80.380526 
L 93.211055 80.919863 
L 96.911375 81.314633 
L 101.598447 81.588275 
L 105.545455 81.698405 
L 105.545455 81.698405 
" style="fill:none;stroke:#ff7f0e;stroke-linecap:round;"/>
   </g>
   <g id="line2d_20">
    <path clip-path="url(#p4d5a82831d)" d="M 56.454545 81.451247 
L 56.701233 71.519481 
L 56.947921 63.674602 
L 57.441297 52.396969 
L 57.934673 45.098622 
L 58.428049 40.396127 
L 59.168113 45.048751 
L 59.908177 48.21318 
L 60.894929 51.474096 
L 62.375057 55.465543 
L 64.101873 59.457662 
L 66.075377 63.445562 
L 68.048881 66.901823 
L 69.775697 69.516529 
L 71.502513 71.774607 
L 73.229328 73.706097 
L 74.956144 75.344117 
L 76.929648 76.89996 
L 78.903152 78.16474 
L 80.876656 79.182887 
L 83.096848 80.082786 
L 85.563728 80.834983 
L 88.277296 81.426063 
L 91.484239 81.885263 
L 95.184559 82.187487 
L 100.118319 82.349311 
L 105.545455 82.350366 
L 105.545455 82.350366 
" style="fill:none;stroke:#2ca02c;stroke-linecap:round;"/>
   </g>
   <g id="line2d_21">
    <path clip-path="url(#p4d5a82831d)" d="M 56.454545 81.451247 
L 56.701233 71.519481 
L 56.947921 63.674602 
L 57.441297 52.396969 
L 57.934673 45.098622 
L 58.428049 40.396127 
L 58.921425 46.417399 
L 59.414801 50.238985 
L 60.154865 54.100368 
L 60.894929 56.863155 
L 61.881681 59.713859 
L 63.115121 62.58839 
L 64.595249 65.489514 
L 66.322065 68.395822 
L 68.048881 70.907472 
L 70.022385 73.362955 
L 71.995889 75.423904 
L 73.969392 77.134799 
L 75.942896 78.538777 
L 77.9164 79.677165 
L 80.136592 80.688136 
L 82.356784 81.460891 
L 84.823664 82.092482 
L 87.78392 82.603008 
L 90.990863 82.928623 
L 94.937871 83.104271 
L 100.118319 83.103 
L 105.545455 82.955954 
L 105.545455 82.955954 
" style="fill:none;stroke:#d62728;stroke-linecap:round;"/>
   </g>
   <g id="line2d_22">
    <path clip-path="url(#p4d5a82831d)" d="M 56.454545 81.451247 
L 56.701233 71.519481 
L 56.947921 63.674602 
L 57.441297 52.396969 
L 57.934673 45.098622 
L 58.428049 40.396127 
L 58.921425 48.852816 
L 59.414801 53.700732 
L 60.154865 58.195029 
L 60.894929 61.16233 
L 61.881681 64.02095 
L 63.115121 66.730212 
L 64.595249 69.339762 
L 66.322065 71.876845 
L 68.048881 74.033509 
L 70.022385 76.122535 
L 71.995889 77.864724 
L 73.969392 79.302669 
L 75.942896 80.474528 
L 78.163088 81.518947 
L 80.38328 82.317923 
L 82.85016 82.96822 
L 85.563728 83.451902 
L 88.770672 83.783955 
L 92.470991 83.935383 
L 97.158063 83.897339 
L 104.312015 83.587529 
L 105.545455 83.519948 
L 105.545455 83.519948 
" style="fill:none;stroke:#9467bd;stroke-linecap:round;"/>
   </g>
   <g id="patch_6">
    <path d="M 54 86.4 
L 54 32.4 
" style="fill:none;stroke:#262626;stroke-linecap:square;stroke-linejoin:miter;stroke-width:1.25;"/>
   </g>
   <g id="patch_7">
    <path d="M 108 86.4 
L 108 32.4 
" style="fill:none;stroke:#262626;stroke-linecap:square;stroke-linejoin:miter;stroke-width:1.25;"/>
   </g>
   <g id="patch_8">
    <path d="M 54 86.4 
L 108 86.4 
" style="fill:none;stroke:#262626;stroke-linecap:square;stroke-linejoin:miter;stroke-width:1.25;"/>
   </g>
   <g id="patch_9">
    <path d="M 54 32.4 
L 108 32.4 
" style="fill:none;stroke:#262626;stroke-linecap:square;stroke-linejoin:miter;stroke-width:1.25;"/>
   </g>
   <g id="matplotlib.axis_3">
    <g id="xtick_5">
     <g id="line2d_23"/>
     <g id="text_15">
      <!-- 0 -->
      <g style="fill:#262626;" transform="translate(53.674077 97.057813)scale(0.1 -0.1)">
       <use xlink:href="#ArialMT-30"/>
      </g>
     </g>
    </g>
    <g id="xtick_6">
     <g id="line2d_24"/>
     <g id="text_16">
      <!-- 100 -->
      <g style="fill:#262626;" transform="translate(97.450736 97.057813)scale(0.1 -0.1)">
       <use xlink:href="#ArialMT-31"/>
       <use x="55.615234" xlink:href="#ArialMT-30"/>
       <use x="111.230469" xlink:href="#ArialMT-30"/>
      </g>
     </g>
    </g>
   </g>
   <g id="matplotlib.axis_4">
    <g id="ytick_9">
     <g id="line2d_25"/>
     <g id="text_17">
      <!-- −65 -->
      <defs>
       <path d="M 52.828125 31.203125 
L 5.5625 31.203125 
L 5.5625 39.40625 
L 52.828125 39.40625 
z
" id="ArialMT-2212"/>
       <path d="M 49.75 54.046875 
L 41.015625 53.375 
Q 39.84375 58.546875 37.703125 60.890625 
Q 34.125 64.65625 28.90625 64.65625 
Q 24.703125 64.65625 21.53125 62.3125 
Q 17.390625 59.28125 14.984375 53.46875 
Q 12.59375 47.65625 12.5 36.921875 
Q 15.671875 41.75 20.265625 44.09375 
Q 24.859375 46.4375 29.890625 46.4375 
Q 38.671875 46.4375 44.84375 39.96875 
Q 51.03125 33.5 51.03125 23.25 
Q 51.03125 16.5 48.125 10.71875 
Q 45.21875 4.9375 40.140625 1.859375 
Q 35.0625 -1.21875 28.609375 -1.21875 
Q 17.625 -1.21875 10.6875 6.859375 
Q 3.765625 14.9375 3.765625 33.5 
Q 3.765625 54.25 11.421875 63.671875 
Q 18.109375 71.875 29.4375 71.875 
Q 37.890625 71.875 43.28125 67.140625 
Q 48.6875 62.40625 49.75 54.046875 
z
M 13.875 23.1875 
Q 13.875 18.65625 15.796875 14.5 
Q 17.71875 10.359375 21.1875 8.171875 
Q 24.65625 6 28.46875 6 
Q 34.03125 6 38.03125 10.484375 
Q 42.046875 14.984375 42.046875 22.703125 
Q 42.046875 30.125 38.078125 34.390625 
Q 34.125 38.671875 28.125 38.671875 
Q 22.171875 38.671875 18.015625 34.390625 
Q 13.875 30.125 13.875 23.1875 
z
" id="ArialMT-36"/>
      </defs>
      <g style="fill:#262626;" transform="translate(33.5375 85.030153)scale(0.1 -0.1)">
       <use xlink:href="#ArialMT-2212"/>
       <use x="58.398438" xlink:href="#ArialMT-36"/>
       <use x="114.013672" xlink:href="#ArialMT-35"/>
      </g>
     </g>
    </g>
    <g id="ytick_10">
     <g id="line2d_26"/>
     <g id="text_18">
      <!-- −60 -->
      <g style="fill:#262626;" transform="translate(33.5375 67.102698)scale(0.1 -0.1)">
       <use xlink:href="#ArialMT-2212"/>
       <use x="58.398438" xlink:href="#ArialMT-36"/>
       <use x="114.013672" xlink:href="#ArialMT-30"/>
      </g>
     </g>
    </g>
    <g id="ytick_11">
     <g id="line2d_27"/>
     <g id="text_19">
      <!-- −55 -->
      <g style="fill:#262626;" transform="translate(33.5375 49.175243)scale(0.1 -0.1)">
       <use xlink:href="#ArialMT-2212"/>
       <use x="58.398438" xlink:href="#ArialMT-35"/>
       <use x="114.013672" xlink:href="#ArialMT-35"/>
      </g>
     </g>
    </g>
   </g>
  </g>
  <g id="legend_1">
   <g id="PathCollection_6">
    <g>
     <use style="fill:#1f77b4;stroke:#1f77b4;" x="164.3" xlink:href="#m2341421e4d" y="79.669531"/>
    </g>
   </g>
   <g id="text_20">
    <!-- $P= 0$ -->
    <defs>
     <path d="M 16.890625 72.90625 
L 39.703125 72.90625 
Q 49.65625 72.90625 54.875 68.265625 
Q 60.109375 63.625 60.109375 54.6875 
Q 60.109375 42.671875 52.390625 35.984375 
Q 44.671875 29.296875 30.71875 29.296875 
L 18.3125 29.296875 
L 12.59375 0 
L 2.6875 0 
z
M 25.203125 64.796875 
L 19.921875 37.40625 
L 32.328125 37.40625 
Q 40.71875 37.40625 45.203125 41.703125 
Q 49.703125 46 49.703125 54 
Q 49.703125 59.125 46.65625 61.953125 
Q 43.609375 64.796875 38.09375 64.796875 
z
" id="DejaVuSans-Oblique-50"/>
     <path d="M 10.59375 45.40625 
L 73.1875 45.40625 
L 73.1875 37.203125 
L 10.59375 37.203125 
z
M 10.59375 25.484375 
L 73.1875 25.484375 
L 73.1875 17.1875 
L 10.59375 17.1875 
z
" id="DejaVuSans-3d"/>
     <path d="M 31.78125 66.40625 
Q 24.171875 66.40625 20.328125 58.90625 
Q 16.5 51.421875 16.5 36.375 
Q 16.5 21.390625 20.328125 13.890625 
Q 24.171875 6.390625 31.78125 6.390625 
Q 39.453125 6.390625 43.28125 13.890625 
Q 47.125 21.390625 47.125 36.375 
Q 47.125 51.421875 43.28125 58.90625 
Q 39.453125 66.40625 31.78125 66.40625 
z
M 31.78125 74.21875 
Q 44.046875 74.21875 50.515625 64.515625 
Q 56.984375 54.828125 56.984375 36.375 
Q 56.984375 17.96875 50.515625 8.265625 
Q 44.046875 -1.421875 31.78125 -1.421875 
Q 19.53125 -1.421875 13.0625 8.265625 
Q 6.59375 17.96875 6.59375 36.375 
Q 6.59375 54.828125 13.0625 64.515625 
Q 19.53125 74.21875 31.78125 74.21875 
z
" id="DejaVuSans-30"/>
    </defs>
    <g style="fill:#262626;" transform="translate(182.3 82.294531)scale(0.1 -0.1)">
     <use transform="translate(0 0.78125)" xlink:href="#DejaVuSans-Oblique-50"/>
     <use transform="translate(79.785156 0.78125)" xlink:href="#DejaVuSans-3d"/>
     <use transform="translate(183.056641 0.78125)" xlink:href="#DejaVuSans-30"/>
    </g>
   </g>
   <g id="PathCollection_7">
    <g>
     <use style="fill:#ff7f0e;stroke:#ff7f0e;" x="164.3" xlink:href="#mbc5a1e6ebd" y="93.814844"/>
    </g>
   </g>
   <g id="text_21">
    <!-- $P= 1$ -->
    <defs>
     <path d="M 12.40625 8.296875 
L 28.515625 8.296875 
L 28.515625 63.921875 
L 10.984375 60.40625 
L 10.984375 69.390625 
L 28.421875 72.90625 
L 38.28125 72.90625 
L 38.28125 8.296875 
L 54.390625 8.296875 
L 54.390625 0 
L 12.40625 0 
z
" id="DejaVuSans-31"/>
    </defs>
    <g style="fill:#262626;" transform="translate(182.3 96.439844)scale(0.1 -0.1)">
     <use transform="translate(0 0.09375)" xlink:href="#DejaVuSans-Oblique-50"/>
     <use transform="translate(79.785156 0.09375)" xlink:href="#DejaVuSans-3d"/>
     <use transform="translate(183.056641 0.09375)" xlink:href="#DejaVuSans-31"/>
    </g>
   </g>
   <g id="PathCollection_8">
    <g>
     <use style="fill:#2ca02c;stroke:#2ca02c;" x="164.3" xlink:href="#maac08d14bf" y="107.960156"/>
    </g>
   </g>
   <g id="text_22">
    <!-- $P= 2$ -->
    <defs>
     <path d="M 19.1875 8.296875 
L 53.609375 8.296875 
L 53.609375 0 
L 7.328125 0 
L 7.328125 8.296875 
Q 12.9375 14.109375 22.625 23.890625 
Q 32.328125 33.6875 34.8125 36.53125 
Q 39.546875 41.84375 41.421875 45.53125 
Q 43.3125 49.21875 43.3125 52.78125 
Q 43.3125 58.59375 39.234375 62.25 
Q 35.15625 65.921875 28.609375 65.921875 
Q 23.96875 65.921875 18.8125 64.3125 
Q 13.671875 62.703125 7.8125 59.421875 
L 7.8125 69.390625 
Q 13.765625 71.78125 18.9375 73 
Q 24.125 74.21875 28.421875 74.21875 
Q 39.75 74.21875 46.484375 68.546875 
Q 53.21875 62.890625 53.21875 53.421875 
Q 53.21875 48.921875 51.53125 44.890625 
Q 49.859375 40.875 45.40625 35.40625 
Q 44.1875 33.984375 37.640625 27.21875 
Q 31.109375 20.453125 19.1875 8.296875 
z
" id="DejaVuSans-32"/>
    </defs>
    <g style="fill:#262626;" transform="translate(182.3 110.585156)scale(0.1 -0.1)">
     <use transform="translate(0 0.78125)" xlink:href="#DejaVuSans-Oblique-50"/>
     <use transform="translate(79.785156 0.78125)" xlink:href="#DejaVuSans-3d"/>
     <use transform="translate(183.056641 0.78125)" xlink:href="#DejaVuSans-32"/>
    </g>
   </g>
   <g id="PathCollection_9">
    <g>
     <use style="fill:#d62728;stroke:#d62728;" x="164.3" xlink:href="#m082d6ee61f" y="122.105469"/>
    </g>
   </g>
   <g id="text_23">
    <!-- $P= 3$ -->
    <defs>
     <path d="M 40.578125 39.3125 
Q 47.65625 37.796875 51.625 33 
Q 55.609375 28.21875 55.609375 21.1875 
Q 55.609375 10.40625 48.1875 4.484375 
Q 40.765625 -1.421875 27.09375 -1.421875 
Q 22.515625 -1.421875 17.65625 -0.515625 
Q 12.796875 0.390625 7.625 2.203125 
L 7.625 11.71875 
Q 11.71875 9.328125 16.59375 8.109375 
Q 21.484375 6.890625 26.8125 6.890625 
Q 36.078125 6.890625 40.9375 10.546875 
Q 45.796875 14.203125 45.796875 21.1875 
Q 45.796875 27.640625 41.28125 31.265625 
Q 36.765625 34.90625 28.71875 34.90625 
L 20.21875 34.90625 
L 20.21875 43.015625 
L 29.109375 43.015625 
Q 36.375 43.015625 40.234375 45.921875 
Q 44.09375 48.828125 44.09375 54.296875 
Q 44.09375 59.90625 40.109375 62.90625 
Q 36.140625 65.921875 28.71875 65.921875 
Q 24.65625 65.921875 20.015625 65.03125 
Q 15.375 64.15625 9.8125 62.3125 
L 9.8125 71.09375 
Q 15.4375 72.65625 20.34375 73.4375 
Q 25.25 74.21875 29.59375 74.21875 
Q 40.828125 74.21875 47.359375 69.109375 
Q 53.90625 64.015625 53.90625 55.328125 
Q 53.90625 49.265625 50.4375 45.09375 
Q 46.96875 40.921875 40.578125 39.3125 
z
" id="DejaVuSans-33"/>
    </defs>
    <g style="fill:#262626;" transform="translate(182.3 124.730469)scale(0.1 -0.1)">
     <use transform="translate(0 0.78125)" xlink:href="#DejaVuSans-Oblique-50"/>
     <use transform="translate(79.785156 0.78125)" xlink:href="#DejaVuSans-3d"/>
     <use transform="translate(183.056641 0.78125)" xlink:href="#DejaVuSans-33"/>
    </g>
   </g>
   <g id="PathCollection_10">
    <g>
     <use style="fill:#9467bd;stroke:#9467bd;" x="164.3" xlink:href="#mf8adcfd84c" y="136.250781"/>
    </g>
   </g>
   <g id="text_24">
    <!-- $P= 4$ -->
    <defs>
     <path d="M 37.796875 64.3125 
L 12.890625 25.390625 
L 37.796875 25.390625 
z
M 35.203125 72.90625 
L 47.609375 72.90625 
L 47.609375 25.390625 
L 58.015625 25.390625 
L 58.015625 17.1875 
L 47.609375 17.1875 
L 47.609375 0 
L 37.796875 0 
L 37.796875 17.1875 
L 4.890625 17.1875 
L 4.890625 26.703125 
z
" id="DejaVuSans-34"/>
    </defs>
    <g style="fill:#262626;" transform="translate(182.3 138.875781)scale(0.1 -0.1)">
     <use transform="translate(0 0.09375)" xlink:href="#DejaVuSans-Oblique-50"/>
     <use transform="translate(79.785156 0.09375)" xlink:href="#DejaVuSans-3d"/>
     <use transform="translate(183.056641 0.09375)" xlink:href="#DejaVuSans-34"/>
    </g>
   </g>
  </g>
 </g>
 <defs>
  <clipPath id="p0fcc92f4ad">
   <rect height="163.08" width="167.4" x="27" y="25.92"/>
  </clipPath>
  <clipPath id="p4d5a82831d">
   <rect height="54" width="54" x="54" y="32.4"/>
  </clipPath>
 </defs>
</svg>
