<?xml version="1.0" encoding="utf-8" standalone="no"?>
<!DOCTYPE svg PUBLIC "-//W3C//DTD SVG 1.1//EN"
  "http://www.w3.org/Graphics/SVG/1.1/DTD/svg11.dtd">
<!-- Created with matplotlib (http://matplotlib.org/) -->
<svg height="131pt" version="1.1" viewBox="0 0 123 131" width="123pt" xmlns="http://www.w3.org/2000/svg" xmlns:xlink="http://www.w3.org/1999/xlink">
 <defs>
  <style type="text/css">
*{stroke-linecap:butt;stroke-linejoin:round;}
  </style>
 </defs>
 <g id="figure_1">
  <g id="patch_1">
   <path d="M 0 131.731562 
L 123.642813 131.731562 
L 123.642813 0 
L 0 0 
z
" style="fill:none;opacity:0;"/>
  </g>
  <g id="axes_1">
   <g id="patch_2">
    <path d="M 32.742813 100.57 
L 116.442813 100.57 
L 116.442813 19.03 
L 32.742813 19.03 
z
" style="fill:none;"/>
   </g>
   <g id="PathCollection_1">
    <defs>
     <path d="M 0 1.581139 
C 0.419323 1.581139 0.821528 1.41454 1.118034 1.118034 
C 1.41454 0.821528 1.581139 0.419323 1.581139 0 
C 1.581139 -0.419323 1.41454 -0.821528 1.118034 -1.118034 
C 0.821528 -1.41454 0.419323 -1.581139 0 -1.581139 
C -0.419323 -1.581139 -0.821528 -1.41454 -1.118034 -1.118034 
C -1.41454 -0.821528 -1.581139 -0.419323 -1.581139 0 
C -1.581139 0.419323 -1.41454 0.821528 -1.118034 1.118034 
C -0.821528 1.41454 -0.419323 1.581139 0 1.581139 
z
" id="m7420b6a92e" style="stroke:#1f77b4;"/>
    </defs>
    <g clip-path="url(#p5a60532cac)">
     <use style="fill:#1f77b4;stroke:#1f77b4;" x="40.365385" xlink:href="#m7420b6a92e" y="96.478553"/>
     <use style="fill:#1f77b4;stroke:#1f77b4;" x="52.938618" xlink:href="#m7420b6a92e" y="96.478553"/>
     <use style="fill:#1f77b4;stroke:#1f77b4;" x="64.368872" xlink:href="#m7420b6a92e" y="96.478553"/>
     <use style="fill:#1f77b4;stroke:#1f77b4;" x="74.805225" xlink:href="#m7420b6a92e" y="96.478553"/>
     <use style="fill:#1f77b4;stroke:#1f77b4;" x="84.371912" xlink:href="#m7420b6a92e" y="96.478553"/>
     <use style="fill:#1f77b4;stroke:#1f77b4;" x="93.173289" xlink:href="#m7420b6a92e" y="96.478553"/>
     <use style="fill:#1f77b4;stroke:#1f77b4;" x="101.297658" xlink:href="#m7420b6a92e" y="96.478553"/>
     <use style="fill:#1f77b4;stroke:#1f77b4;" x="108.82024" xlink:href="#m7420b6a92e" y="96.478553"/>
    </g>
   </g>
   <g id="PathCollection_2">
    <defs>
     <path d="M 0 1.581139 
C 0.419323 1.581139 0.821528 1.41454 1.118034 1.118034 
C 1.41454 0.821528 1.581139 0.419323 1.581139 0 
C 1.581139 -0.419323 1.41454 -0.821528 1.118034 -1.118034 
C 0.821528 -1.41454 0.419323 -1.581139 0 -1.581139 
C -0.419323 -1.581139 -0.821528 -1.41454 -1.118034 -1.118034 
C -1.41454 -0.821528 -1.581139 -0.419323 -1.581139 0 
C -1.581139 0.419323 -1.41454 0.821528 -1.118034 1.118034 
C -0.821528 1.41454 -0.419323 1.581139 0 1.581139 
z
" id="m66bcc41a89" style="stroke:#ff7f0e;"/>
    </defs>
    <g clip-path="url(#p5a60532cac)">
     <use style="fill:#ff7f0e;stroke:#ff7f0e;" x="40.365385" xlink:href="#m66bcc41a89" y="96.478553"/>
     <use style="fill:#ff7f0e;stroke:#ff7f0e;" x="52.938618" xlink:href="#m66bcc41a89" y="94.942531"/>
     <use style="fill:#ff7f0e;stroke:#ff7f0e;" x="64.368872" xlink:href="#m66bcc41a89" y="92.638407"/>
     <use style="fill:#ff7f0e;stroke:#ff7f0e;" x="74.805225" xlink:href="#m66bcc41a89" y="89.857808"/>
     <use style="fill:#ff7f0e;stroke:#ff7f0e;" x="84.371912" xlink:href="#m66bcc41a89" y="86.810038"/>
     <use style="fill:#ff7f0e;stroke:#ff7f0e;" x="93.173289" xlink:href="#m66bcc41a89" y="83.625919"/>
     <use style="fill:#ff7f0e;stroke:#ff7f0e;" x="101.297658" xlink:href="#m66bcc41a89" y="80.390331"/>
     <use style="fill:#ff7f0e;stroke:#ff7f0e;" x="108.82024" xlink:href="#m66bcc41a89" y="77.157622"/>
    </g>
   </g>
   <g id="PathCollection_3">
    <defs>
     <path d="M 0 1.581139 
C 0.419323 1.581139 0.821528 1.41454 1.118034 1.118034 
C 1.41454 0.821528 1.581139 0.419323 1.581139 0 
C 1.581139 -0.419323 1.41454 -0.821528 1.118034 -1.118034 
C 0.821528 -1.41454 0.419323 -1.581139 0 -1.581139 
C -0.419323 -1.581139 -0.821528 -1.41454 -1.118034 -1.118034 
C -1.41454 -0.821528 -1.581139 -0.419323 -1.581139 0 
C -1.581139 0.419323 -1.41454 0.821528 -1.118034 1.118034 
C -0.821528 1.41454 -0.419323 1.581139 0 1.581139 
z
" id="m1fed2641ed" style="stroke:#2ca02c;"/>
    </defs>
    <g clip-path="url(#p5a60532cac)">
     <use style="fill:#2ca02c;stroke:#2ca02c;" x="40.365385" xlink:href="#m1fed2641ed" y="96.478553"/>
     <use style="fill:#2ca02c;stroke:#2ca02c;" x="52.938618" xlink:href="#m1fed2641ed" y="93.539418"/>
     <use style="fill:#2ca02c;stroke:#2ca02c;" x="64.368872" xlink:href="#m1fed2641ed" y="89.386149"/>
     <use style="fill:#2ca02c;stroke:#2ca02c;" x="74.805225" xlink:href="#m1fed2641ed" y="84.601232"/>
     <use style="fill:#2ca02c;stroke:#2ca02c;" x="84.371912" xlink:href="#m1fed2641ed" y="79.550317"/>
     <use style="fill:#2ca02c;stroke:#2ca02c;" x="93.173289" xlink:href="#m1fed2641ed" y="74.436067"/>
     <use style="fill:#2ca02c;stroke:#2ca02c;" x="101.297658" xlink:href="#m1fed2641ed" y="69.373629"/>
     <use style="fill:#2ca02c;stroke:#2ca02c;" x="108.82024" xlink:href="#m1fed2641ed" y="64.426423"/>
    </g>
   </g>
   <g id="PathCollection_4">
    <defs>
     <path d="M 0 1.581139 
C 0.419323 1.581139 0.821528 1.41454 1.118034 1.118034 
C 1.41454 0.821528 1.581139 0.419323 1.581139 0 
C 1.581139 -0.419323 1.41454 -0.821528 1.118034 -1.118034 
C 0.821528 -1.41454 0.419323 -1.581139 0 -1.581139 
C -0.419323 -1.581139 -0.821528 -1.41454 -1.118034 -1.118034 
C -1.41454 -0.821528 -1.581139 -0.419323 -1.581139 0 
C -1.581139 0.419323 -1.41454 0.821528 -1.118034 1.118034 
C -0.821528 1.41454 -0.419323 1.581139 0 1.581139 
z
" id="mb7c261a36e" style="stroke:#d62728;"/>
    </defs>
    <g clip-path="url(#p5a60532cac)">
     <use style="fill:#d62728;stroke:#d62728;" x="40.365385" xlink:href="#mb7c261a36e" y="96.478553"/>
     <use style="fill:#d62728;stroke:#d62728;" x="52.938618" xlink:href="#mb7c261a36e" y="92.252613"/>
     <use style="fill:#d62728;stroke:#d62728;" x="64.368872" xlink:href="#mb7c261a36e" y="86.59477"/>
     <use style="fill:#d62728;stroke:#d62728;" x="74.805225" xlink:href="#mb7c261a36e" y="80.323389"/>
     <use style="fill:#d62728;stroke:#d62728;" x="84.371912" xlink:href="#mb7c261a36e" y="73.894629"/>
     <use style="fill:#d62728;stroke:#d62728;" x="93.173289" xlink:href="#mb7c261a36e" y="67.531792"/>
     <use style="fill:#d62728;stroke:#d62728;" x="101.297658" xlink:href="#mb7c261a36e" y="61.34656"/>
     <use style="fill:#d62728;stroke:#d62728;" x="108.82024" xlink:href="#mb7c261a36e" y="55.391303"/>
    </g>
   </g>
   <g id="PathCollection_5">
    <defs>
     <path d="M 0 1.581139 
C 0.419323 1.581139 0.821528 1.41454 1.118034 1.118034 
C 1.41454 0.821528 1.581139 0.419323 1.581139 0 
C 1.581139 -0.419323 1.41454 -0.821528 1.118034 -1.118034 
C 0.821528 -1.41454 0.419323 -1.581139 0 -1.581139 
C -0.419323 -1.581139 -0.821528 -1.41454 -1.118034 -1.118034 
C -1.41454 -0.821528 -1.581139 -0.419323 -1.581139 0 
C -1.581139 0.419323 -1.41454 0.821528 -1.118034 1.118034 
C -0.821528 1.41454 -0.419323 1.581139 0 1.581139 
z
" id="mc05f72eee7" style="stroke:#9467bd;"/>
    </defs>
    <g clip-path="url(#p5a60532cac)">
     <use style="fill:#9467bd;stroke:#9467bd;" x="40.365385" xlink:href="#mc05f72eee7" y="96.478553"/>
     <use style="fill:#9467bd;stroke:#9467bd;" x="52.938618" xlink:href="#mc05f72eee7" y="91.068251"/>
     <use style="fill:#9467bd;stroke:#9467bd;" x="64.368872" xlink:href="#mc05f72eee7" y="84.172998"/>
     <use style="fill:#9467bd;stroke:#9467bd;" x="74.805225" xlink:href="#mc05f72eee7" y="76.77346"/>
     <use style="fill:#9467bd;stroke:#9467bd;" x="84.371912" xlink:href="#mc05f72eee7" y="69.362158"/>
     <use style="fill:#9467bd;stroke:#9467bd;" x="93.173289" xlink:href="#mc05f72eee7" y="62.151393"/>
     <use style="fill:#9467bd;stroke:#9467bd;" x="101.297658" xlink:href="#mc05f72eee7" y="55.232061"/>
     <use style="fill:#9467bd;stroke:#9467bd;" x="108.82024" xlink:href="#mc05f72eee7" y="48.6412"/>
    </g>
   </g>
   <g id="PathCollection_6">
    <defs>
     <path d="M 0 1.581139 
C 0.419323 1.581139 0.821528 1.41454 1.118034 1.118034 
C 1.41454 0.821528 1.581139 0.419323 1.581139 0 
C 1.581139 -0.419323 1.41454 -0.821528 1.118034 -1.118034 
C 0.821528 -1.41454 0.419323 -1.581139 0 -1.581139 
C -0.419323 -1.581139 -0.821528 -1.41454 -1.118034 -1.118034 
C -1.41454 -0.821528 -1.581139 -0.419323 -1.581139 0 
C -1.581139 0.419323 -1.41454 0.821528 -1.118034 1.118034 
C -0.821528 1.41454 -0.419323 1.581139 0 1.581139 
z
" id="mca4e311c38" style="stroke:#8c564b;"/>
    </defs>
    <g clip-path="url(#p5a60532cac)">
     <use style="fill:#8c564b;stroke:#8c564b;" x="40.365385" xlink:href="#mca4e311c38" y="96.478553"/>
     <use style="fill:#8c564b;stroke:#8c564b;" x="52.938618" xlink:href="#mca4e311c38" y="89.974093"/>
     <use style="fill:#8c564b;stroke:#8c564b;" x="64.368872" xlink:href="#mca4e311c38" y="82.050284"/>
     <use style="fill:#8c564b;stroke:#8c564b;" x="74.805225" xlink:href="#mca4e311c38" y="73.778874"/>
     <use style="fill:#8c564b;stroke:#8c564b;" x="84.371912" xlink:href="#mca4e311c38" y="65.646399"/>
     <use style="fill:#8c564b;stroke:#8c564b;" x="93.173289" xlink:href="#mca4e311c38" y="57.83774"/>
     <use style="fill:#8c564b;stroke:#8c564b;" x="101.297658" xlink:href="#mca4e311c38" y="50.417066"/>
     <use style="fill:#8c564b;stroke:#8c564b;" x="108.82024" xlink:href="#mca4e311c38" y="43.400585"/>
    </g>
   </g>
   <g id="line2d_1">
    <path clip-path="url(#p5a60532cac)" d="M 40.365385 96.478553 
L 52.938618 96.478553 
L 64.368872 96.478553 
L 74.805225 96.478553 
L 84.371912 96.478553 
L 93.173289 96.478553 
L 101.297658 96.478553 
L 108.82024 96.478553 
" style="fill:none;stroke:#1f77b4;stroke-dasharray:1.85,0.8;stroke-dashoffset:0;stroke-width:0.5;"/>
   </g>
   <g id="line2d_2">
    <path clip-path="url(#p5a60532cac)" d="M 40.365385 96.478553 
L 52.938618 94.942531 
L 64.368872 92.638407 
L 74.805225 89.857808 
L 84.371912 86.810038 
L 93.173289 83.625919 
L 101.297658 80.390331 
L 108.82024 77.157622 
" style="fill:none;stroke:#ff7f0e;stroke-dasharray:1.85,0.8;stroke-dashoffset:0;stroke-width:0.5;"/>
   </g>
   <g id="line2d_3">
    <path clip-path="url(#p5a60532cac)" d="M 40.365385 96.478553 
L 52.938618 93.539418 
L 64.368872 89.386149 
L 74.805225 84.601232 
L 84.371912 79.550317 
L 93.173289 74.436067 
L 101.297658 69.373629 
L 108.82024 64.426423 
" style="fill:none;stroke:#2ca02c;stroke-dasharray:1.85,0.8;stroke-dashoffset:0;stroke-width:0.5;"/>
   </g>
   <g id="line2d_4">
    <path clip-path="url(#p5a60532cac)" d="M 40.365385 96.478553 
L 52.938618 92.252613 
L 64.368872 86.59477 
L 74.805225 80.323389 
L 84.371912 73.894629 
L 93.173289 67.531792 
L 101.297658 61.34656 
L 108.82024 55.391303 
" style="fill:none;stroke:#d62728;stroke-dasharray:1.85,0.8;stroke-dashoffset:0;stroke-width:0.5;"/>
   </g>
   <g id="line2d_5">
    <path clip-path="url(#p5a60532cac)" d="M 40.365385 96.478553 
L 52.938618 91.068251 
L 64.368872 84.172998 
L 74.805225 76.77346 
L 84.371912 69.362158 
L 93.173289 62.151393 
L 101.297658 55.232061 
L 108.82024 48.6412 
" style="fill:none;stroke:#9467bd;stroke-dasharray:1.85,0.8;stroke-dashoffset:0;stroke-width:0.5;"/>
   </g>
   <g id="line2d_6">
    <path clip-path="url(#p5a60532cac)" d="M 40.365385 96.478553 
L 52.938618 89.974093 
L 64.368872 82.050284 
L 74.805225 73.778874 
L 84.371912 65.646399 
L 93.173289 57.83774 
L 101.297658 50.417066 
L 108.82024 43.400585 
" style="fill:none;stroke:#8c564b;stroke-dasharray:1.85,0.8;stroke-dashoffset:0;stroke-width:0.5;"/>
   </g>
   <g id="line2d_7">
    <path clip-path="url(#p5a60532cac)" d="M 36.547358 100.57 
L 112.638267 19.03 
" style="fill:none;stroke:#e377c2;stroke-dasharray:1.85,0.8;stroke-dashoffset:0;stroke-width:0.5;"/>
   </g>
   <g id="patch_3">
    <path d="M 32.742813 100.57 
L 32.742813 19.03 
" style="fill:none;stroke:#000000;stroke-linecap:square;stroke-linejoin:miter;"/>
   </g>
   <g id="patch_4">
    <path d="M 32.742813 100.57 
L 116.442813 100.57 
" style="fill:none;stroke:#000000;stroke-linecap:square;stroke-linejoin:miter;"/>
   </g>
   <g id="matplotlib.axis_1">
    <g id="xtick_1">
     <g id="line2d_8"/>
     <g id="text_1">
      <text style="font-family:Arial;font-size:8px;font-style:normal;font-weight:400;text-anchor:middle;" transform="rotate(-0, 40.365385, 109.79625)" x="40.365385" y="109.79625">0</text>
     </g>
    </g>
    <g id="xtick_2">
     <g id="line2d_9"/>
     <g id="text_2">
      <text style="font-family:Arial;font-size:8px;font-style:normal;font-weight:400;text-anchor:middle;" transform="rotate(-0, 80.988169, 109.79625)" x="80.988169" y="109.79625">10</text>
     </g>
    </g>
    <g id="text_3">
     <!-- Excitation $V_{max}$ -->
     <g transform="translate(40.342813 122.544062)">
      <text>
       <tspan style="font-family:Arial;font-size:10px;font-style:regular;font-weight:regular;" x="0 6.669922 11.669922 16.669922 18.891602 21.669922 27.231445 30.009766 32.231445 37.792969 43.354492" y="-0.703125">Excitation </tspan>
       <tspan style="font-family:DejaVu Sans;font-size:10px;font-style:oblique;font-weight:oblique;" x="46.132812" y="-0.703125">V</tspan>
       <tspan style="font-family:DejaVu Sans;font-size:7px;font-style:oblique;font-weight:oblique;" x="52.973633 59.79248 64.082031" y="0.9375">max</tspan>
      </text>
     </g>
    </g>
   </g>
   <g id="matplotlib.axis_2">
    <g id="ytick_1">
     <g id="line2d_10"/>
     <g id="text_4">
      <text style="font-family:Arial;font-size:8px;font-style:normal;font-weight:400;text-anchor:end;" transform="rotate(-0, 29.242813, 99.341678)" x="29.242813" y="99.341678">0</text>
     </g>
    </g>
    <g id="ytick_2">
     <g id="line2d_11"/>
     <g id="text_5">
      <text style="font-family:Arial;font-size:8px;font-style:normal;font-weight:400;text-anchor:end;" transform="rotate(-0, 29.242813, 77.575728)" x="29.242813" y="77.575728">5</text>
     </g>
    </g>
    <g id="ytick_3">
     <g id="line2d_12"/>
     <g id="text_6">
      <text style="font-family:Arial;font-size:8px;font-style:normal;font-weight:400;text-anchor:end;" transform="rotate(-0, 29.242813, 55.809779)" x="29.242813" y="55.809779">10</text>
     </g>
    </g>
    <g id="ytick_4">
     <g id="line2d_13"/>
     <g id="text_7">
      <text style="font-family:Arial;font-size:8px;font-style:normal;font-weight:400;text-anchor:end;" transform="rotate(-0, 29.242813, 34.043829)" x="29.242813" y="34.043829">15</text>
     </g>
    </g>
    <g id="text_8">
     <!-- Derived Inhibition  $V_{max}$ -->
     <g transform="translate(14.357813 112.4)rotate(-90)">
      <text>
       <tspan style="font-family:Arial;font-size:10px;font-style:regular;font-weight:regular;" x="0 7.22168 12.783203 16.113281 18.334961 23.334961 28.896484 34.458008 37.236328 40.014648 45.576172 51.137695 53.359375 58.920898 61.142578 63.920898 66.142578 71.704102 77.265625 80.043945" y="-0.703125">Derived Inhibition  </tspan>
       <tspan style="font-family:DejaVu Sans;font-size:10px;font-style:oblique;font-weight:oblique;" x="82.822266" y="-0.703125">V</tspan>
       <tspan style="font-family:DejaVu Sans;font-size:7px;font-style:oblique;font-weight:oblique;" x="89.663086 96.481934 100.771484" y="0.9375">max</tspan>
      </text>
     </g>
    </g>
   </g>
  </g>
 </g>
 <defs>
  <clipPath id="p5a60532cac">
   <rect height="81.54" width="83.7" x="32.742813" y="19.03"/>
  </clipPath>
 </defs>
</svg>
