<?xml version="1.0" encoding="utf-8" standalone="no"?>
<!DOCTYPE svg PUBLIC "-//W3C//DTD SVG 1.1//EN"
  "http://www.w3.org/Graphics/SVG/1.1/DTD/svg11.dtd">
<!-- Created with matplotlib (http://matplotlib.org/) -->
<svg height="106pt" version="1.1" viewBox="0 0 106 106" width="106pt" xmlns="http://www.w3.org/2000/svg" xmlns:xlink="http://www.w3.org/1999/xlink">
 <defs>
  <style type="text/css">
*{stroke-linecap:butt;stroke-linejoin:round;}
  </style>
 </defs>
 <g id="figure_1">
  <g id="patch_1">
   <path d="M 0 106.75625 
L 106.04875 106.75625 
L 106.04875 0 
L 0 0 
z
" style="fill:none;opacity:0;"/>
  </g>
  <g id="axes_1">
   <g id="patch_2">
    <path d="M 15.14875 88.74 
L 98.84875 88.74 
L 98.84875 7.2 
L 15.14875 7.2 
z
" style="fill:none;"/>
   </g>
   <g id="patch_3">
    <path clip-path="url(#p6d7cd6daa7)" d="M 18.953295 88.74 
L 25.294205 88.74 
L 25.294205 88.74 
L 18.953295 88.74 
z
"/>
   </g>
   <g id="patch_4">
    <path clip-path="url(#p6d7cd6daa7)" d="M 25.294205 88.74 
L 31.635114 88.74 
L 31.635114 88.74 
L 25.294205 88.74 
z
"/>
   </g>
   <g id="patch_5">
    <path clip-path="url(#p6d7cd6daa7)" d="M 31.635114 88.74 
L 37.976023 88.74 
L 37.976023 88.74 
L 31.635114 88.74 
z
"/>
   </g>
   <g id="patch_6">
    <path clip-path="url(#p6d7cd6daa7)" d="M 37.976023 88.74 
L 44.316932 88.74 
L 44.316932 88.74 
L 37.976023 88.74 
z
"/>
   </g>
   <g id="patch_7">
    <path clip-path="url(#p6d7cd6daa7)" d="M 44.316932 88.74 
L 50.657841 88.74 
L 50.657841 88.74 
L 44.316932 88.74 
z
"/>
   </g>
   <g id="patch_8">
    <path clip-path="url(#p6d7cd6daa7)" d="M 50.657841 88.74 
L 56.99875 88.74 
L 56.99875 77.646122 
L 50.657841 77.646122 
z
"/>
   </g>
   <g id="patch_9">
    <path clip-path="url(#p6d7cd6daa7)" d="M 56.99875 88.74 
L 63.339659 88.74 
L 63.339659 88.74 
L 56.99875 88.74 
z
"/>
   </g>
   <g id="patch_10">
    <path clip-path="url(#p6d7cd6daa7)" d="M 63.339659 88.74 
L 69.680568 88.74 
L 69.680568 77.646122 
L 63.339659 77.646122 
z
"/>
   </g>
   <g id="patch_11">
    <path clip-path="url(#p6d7cd6daa7)" d="M 69.680568 88.74 
L 76.021477 88.74 
L 76.021477 77.646122 
L 69.680568 77.646122 
z
"/>
   </g>
   <g id="patch_12">
    <path clip-path="url(#p6d7cd6daa7)" d="M 76.021477 88.74 
L 82.362386 88.74 
L 82.362386 66.552245 
L 76.021477 66.552245 
z
"/>
   </g>
   <g id="patch_13">
    <path clip-path="url(#p6d7cd6daa7)" d="M 82.362386 88.74 
L 88.703295 88.74 
L 88.703295 22.176735 
L 82.362386 22.176735 
z
"/>
   </g>
   <g id="patch_14">
    <path clip-path="url(#p6d7cd6daa7)" d="M 88.703295 88.74 
L 95.044205 88.74 
L 95.044205 77.646122 
L 88.703295 77.646122 
z
"/>
   </g>
   <g id="LineCollection_1">
    <path clip-path="url(#p6d7cd6daa7)" d="M 89.191058 88.74 
L 89.191058 11.082857 
" style="fill:none;stroke:#ff0000;stroke-width:0.5;"/>
   </g>
   <g id="patch_15">
    <path d="M 15.14875 88.74 
L 15.14875 7.2 
" style="fill:none;stroke:#000000;stroke-linecap:square;stroke-linejoin:miter;"/>
   </g>
   <g id="patch_16">
    <path d="M 15.14875 88.74 
L 98.84875 88.74 
" style="fill:none;stroke:#000000;stroke-linecap:square;stroke-linejoin:miter;"/>
   </g>
   <g id="matplotlib.axis_1">
    <g id="xtick_1">
     <g id="line2d_1"/>
     <g id="text_1">
      <text style="font-family:Arial;font-size:8px;font-style:normal;font-weight:400;text-anchor:middle;" transform="rotate(-0, 42.365883, 97.96625)" x="42.365883" y="97.96625">−2</text>
     </g>
    </g>
    <g id="xtick_2">
     <g id="line2d_2"/>
     <g id="text_2">
      <text style="font-family:Arial;font-size:8px;font-style:normal;font-weight:400;text-anchor:middle;" transform="rotate(-0, 89.191058, 97.96625)" x="89.191058" y="97.96625">0</text>
     </g>
    </g>
   </g>
   <g id="matplotlib.axis_2">
    <g id="ytick_1">
     <g id="line2d_3"/>
     <g id="text_3">
      <text style="font-family:Arial;font-size:8px;font-style:normal;font-weight:400;text-anchor:end;" transform="rotate(-0, 11.64875, 91.603125)" x="11.64875" y="91.603125">0</text>
     </g>
    </g>
    <g id="ytick_2">
     <g id="line2d_4"/>
     <g id="text_4">
      <text style="font-family:Arial;font-size:8px;font-style:normal;font-weight:400;text-anchor:end;" transform="rotate(-0, 11.64875, 69.41537)" x="11.64875" y="69.41537">2</text>
     </g>
    </g>
    <g id="ytick_3">
     <g id="line2d_5"/>
     <g id="text_5">
      <text style="font-family:Arial;font-size:8px;font-style:normal;font-weight:400;text-anchor:end;" transform="rotate(-0, 11.64875, 47.227615)" x="11.64875" y="47.227615">4</text>
     </g>
    </g>
    <g id="ytick_4">
     <g id="line2d_6"/>
     <g id="text_6">
      <text style="font-family:Arial;font-size:8px;font-style:normal;font-weight:400;text-anchor:end;" transform="rotate(-0, 11.64875, 25.03986)" x="11.64875" y="25.03986">6</text>
     </g>
    </g>
   </g>
  </g>
 </g>
 <defs>
  <clipPath id="p6d7cd6daa7">
   <rect height="81.54" width="83.7" x="15.14875" y="7.2"/>
  </clipPath>
 </defs>
</svg>
