<?xml version="1.0" encoding="utf-8" standalone="no"?>
<!DOCTYPE svg PUBLIC "-//W3C//DTD SVG 1.1//EN"
  "http://www.w3.org/Graphics/SVG/1.1/DTD/svg11.dtd">
<!-- Created with matplotlib (http://matplotlib.org/) -->
<svg height="288pt" version="1.1" viewBox="0 0 432 288" width="432pt" xmlns="http://www.w3.org/2000/svg" xmlns:xlink="http://www.w3.org/1999/xlink">
 <defs>
  <style type="text/css">
*{stroke-linecap:butt;stroke-linejoin:round;}
  </style>
 </defs>
 <g id="figure_1">
  <g id="patch_1">
   <path d="M 0 288 
L 432 288 
L 432 0 
L 0 0 
z
" style="fill:#ffffff;"/>
  </g>
  <g id="axes_1">
   <g id="patch_2">
    <path d="M 54 252 
L 126.782609 252 
L 126.782609 34.56 
L 54 34.56 
z
" style="fill:#ffffff;"/>
   </g>
   <g id="line2d_1">
    <path clip-path="url(#p619bfcc62d)" d="M 57.3083 73.135481 
L 59.942234 72.629032 
L 63.052659 72.264286 
L 66.904291 72.046238 
L 72.066272 71.991401 
L 80.471036 72.1541 
L 108.901639 72.810755 
L 123.474308 72.967931 
L 123.474308 72.967931 
" style="fill:none;stroke:#000000;stroke-linecap:round;stroke-width:0.5;"/>
   </g>
   <g id="line2d_2">
    <path clip-path="url(#p619bfcc62d)" d="M 57.3083 73.135481 
L 70.358847 73.244971 
L 72.463347 74.715213 
L 74.660498 75.979648 
L 76.976772 77.055326 
L 79.43864 77.952252 
L 82.099045 78.681944 
L 84.997696 79.243346 
L 88.227243 79.637745 
L 91.880337 79.85498 
L 96.155516 79.879845 
L 101.383677 79.678591 
L 108.372205 79.172264 
L 121.462459 77.953068 
L 123.474308 77.762051 
L 123.474308 77.762051 
" style="fill:none;stroke:#ff0000;stroke-linecap:round;stroke-width:0.5;"/>
   </g>
   <g id="line2d_3">
    <path clip-path="url(#p619bfcc62d)" d="M 57.3083 73.135481 
L 58.830423 71.966515 
L 60.431961 71.014412 
L 62.152621 70.251005 
L 64.032112 69.663519 
L 66.123376 69.24603 
L 68.5323 68.996906 
L 71.417715 68.929885 
L 75.097281 69.078441 
L 80.523979 69.542329 
L 100.748356 71.436779 
L 110.357582 72.019637 
L 121.422752 72.460283 
L 123.474308 72.52113 
L 123.474308 72.52113 
" style="fill:none;stroke:#000000;stroke-linecap:round;stroke-width:0.5;"/>
   </g>
   <g id="line2d_4">
    <path clip-path="url(#p619bfcc62d)" d="M 57.3083 73.135481 
L 68.969083 73.230056 
L 70.650036 77.657242 
L 72.317753 81.440774 
L 73.98547 84.683252 
L 75.639951 87.423241 
L 77.294432 89.740185 
L 78.948913 91.680643 
L 80.61663 93.298154 
L 82.297583 94.623729 
L 84.018243 95.700716 
L 85.791847 96.550319 
L 87.644866 97.191323 
L 89.603771 97.63187 
L 91.695035 97.872348 
L 93.971601 97.907294 
L 96.486413 97.719932 
L 99.33212 97.280184 
L 102.654318 96.534804 
L 106.73096 95.38154 
L 112.290016 93.559836 
L 123.474308 89.658123 
L 123.474308 89.658123 
" style="fill:none;stroke:#ff0000;stroke-linecap:round;stroke-width:0.5;"/>
   </g>
   <g id="line2d_5">
    <path clip-path="url(#p619bfcc62d)" d="M 57.3083 73.135481 
L 58.658357 71.32068 
L 60.021649 69.851341 
L 61.424649 68.660424 
L 62.880593 67.712879 
L 64.415951 66.977084 
L 66.070432 66.431159 
L 67.896979 66.065914 
L 69.961772 65.884938 
L 72.383932 65.903471 
L 75.375234 66.159728 
L 79.465111 66.750948 
L 89.153752 68.462029 
L 96.936432 69.693194 
L 104.044082 70.589128 
L 111.57528 71.31042 
L 120.059459 71.893917 
L 123.474308 72.074329 
L 123.474308 72.074329 
" style="fill:none;stroke:#000000;stroke-linecap:round;stroke-width:0.5;"/>
   </g>
   <g id="line2d_6">
    <path clip-path="url(#p619bfcc62d)" d="M 57.3083 73.135481 
L 67.8308 73.214137 
L 69.485281 80.760655 
L 71.113291 87.176943 
L 72.728064 92.656058 
L 74.316366 97.275737 
L 75.878196 101.152012 
L 77.413555 104.385509 
L 78.935677 107.085001 
L 80.431328 109.29755 
L 81.913743 111.104832 
L 83.396158 112.568202 
L 84.878573 113.72396 
L 86.374224 114.611812 
L 87.896347 115.260098 
L 89.471413 115.690874 
L 91.125894 115.912184 
L 92.886262 115.92124 
L 94.792224 115.705053 
L 96.883488 115.24001 
L 99.239469 114.48173 
L 101.939582 113.371529 
L 105.155894 111.799353 
L 109.259007 109.532032 
L 115.731337 105.666739 
L 123.474308 101.013416 
L 123.474308 101.013416 
" style="fill:none;stroke:#ff0000;stroke-linecap:round;stroke-width:0.5;"/>
   </g>
   <g id="line2d_7">
    <path clip-path="url(#p619bfcc62d)" d="M 57.3083 73.135481 
L 58.605414 70.647543 
L 59.902527 68.632446 
L 61.19964 67.019637 
L 62.509989 65.736899 
L 63.860046 64.722834 
L 65.263045 63.94609 
L 66.745461 63.379531 
L 68.346998 63.006586 
L 70.133838 62.823572 
L 72.172159 62.844829 
L 74.594319 63.100547 
L 77.678272 63.662428 
L 82.271111 64.750154 
L 94.739281 67.785794 
L 100.748356 68.965938 
L 106.836846 69.933267 
L 113.375356 70.743815 
L 120.681544 71.420788 
L 123.474308 71.627529 
L 123.474308 71.627529 
" style="fill:none;stroke:#000000;stroke-linecap:round;stroke-width:0.5;"/>
   </g>
   <g id="line2d_8">
    <path clip-path="url(#p619bfcc62d)" d="M 57.3083 73.135481 
L 66.838111 73.166199 
L 68.479357 83.821299 
L 70.09413 92.890786 
L 71.682432 100.586179 
L 73.244262 107.090956 
L 74.779621 112.564355 
L 76.288508 117.144658 
L 77.770923 120.951997 
L 79.21363 124.064753 
L 80.629866 126.608777 
L 82.01963 128.66147 
L 83.382922 130.290222 
L 84.732979 131.564688 
L 86.0698 132.527685 
L 87.419856 133.228614 
L 88.783149 133.68785 
L 90.186149 133.927348 
L 91.668564 133.952179 
L 93.24363 133.752387 
L 94.951054 133.307063 
L 96.830545 132.581857 
L 98.948281 131.518806 
L 101.370441 130.045906 
L 104.24262 128.028542 
L 107.842771 125.212644 
L 113.070931 120.811456 
L 123.474308 111.936799 
L 123.474308 111.936799 
" style="fill:none;stroke:#ff0000;stroke-linecap:round;stroke-width:0.5;"/>
   </g>
   <g id="line2d_9">
    <path clip-path="url(#p619bfcc62d)" d="M 57.3083 73.135481 
L 58.578942 69.969733 
L 59.836348 67.418142 
L 61.080517 65.379964 
L 62.324687 63.755189 
L 63.582093 62.471057 
L 64.86597 61.474874 
L 66.189555 60.728673 
L 67.579319 60.201201 
L 69.07497 59.874531 
L 70.716215 59.747453 
L 72.58247 59.832071 
L 74.779621 60.16284 
L 77.519441 60.8122 
L 81.384309 61.977293 
L 95.454016 66.398132 
L 100.761592 67.733561 
L 106.135346 68.854368 
L 111.826761 69.811274 
L 118.04761 70.627863 
L 123.474308 71.180728 
L 123.474308 71.180728 
" style="fill:none;stroke:#000000;stroke-linecap:round;stroke-width:0.5;"/>
   </g>
   <g id="line2d_10">
    <path clip-path="url(#p619bfcc62d)" d="M 57.3083 73.135481 
L 65.977781 73.159556 
L 67.619027 86.97383 
L 69.2338 98.732428 
L 70.822102 108.709573 
L 72.383932 117.143133 
L 73.919291 124.239553 
L 75.414941 130.130164 
L 76.870885 134.993113 
L 78.300357 139.014838 
L 79.690121 142.280301 
L 81.040177 144.903349 
L 82.350526 146.981509 
L 83.634404 148.613295 
L 84.891809 149.860056 
L 86.122743 150.775375 
L 87.353677 151.417163 
L 88.584611 151.811426 
L 89.855252 151.984173 
L 91.178837 151.93693 
L 92.581837 151.661311 
L 94.10396 151.13085 
L 95.784913 150.301982 
L 97.664403 149.118321 
L 99.795375 147.505224 
L 102.283714 145.3329 
L 105.301488 142.389791 
L 109.259007 138.198861 
L 116.750497 129.86481 
L 123.474308 122.517454 
L 123.474308 122.517454 
" style="fill:none;stroke:#ff0000;stroke-linecap:round;stroke-width:0.5;"/>
   </g>
   <g id="line2d_11">
    <path clip-path="url(#p619bfcc62d)" d="M 57.3083 73.135481 
L 58.565706 69.282713 
L 59.809876 66.170728 
L 61.027574 63.702914 
L 62.245272 61.724859 
L 63.449734 60.18078 
L 64.654196 58.987206 
L 65.88513 58.075776 
L 67.142536 57.417266 
L 68.466121 56.973671 
L 69.895593 56.732329 
L 71.470659 56.697635 
L 73.257498 56.887945 
L 75.361998 57.344746 
L 77.982696 58.152669 
L 81.70197 59.553092 
L 94.448092 64.515352 
L 99.305648 66.077105 
L 104.136733 67.395836 
L 109.15312 68.532838 
L 114.526875 69.519736 
L 120.416827 70.371301 
L 123.474308 70.733927 
L 123.474308 70.733927 
" style="fill:none;stroke:#000000;stroke-linecap:round;stroke-width:0.5;"/>
   </g>
   <g id="line2d_12">
    <path clip-path="url(#p619bfcc62d)" d="M 57.3083 73.135481 
L 65.223338 73.135481 
L 67.208715 93.366259 
L 68.810253 107.264998 
L 70.385319 119.057127 
L 71.933913 129.023264 
L 73.456036 137.407076 
L 74.938451 144.363144 
L 76.381158 150.102216 
L 77.784158 154.804635 
L 79.147451 158.624839 
L 80.471036 161.695174 
L 81.754913 164.12912 
L 82.999083 166.024038 
L 84.203545 167.463506 
L 85.3683 168.519294 
L 86.506583 169.260125 
L 87.644866 169.738891 
L 88.783149 169.979097 
L 89.961139 169.999688 
L 91.192073 169.797364 
L 92.515658 169.351027 
L 93.958366 168.625102 
L 95.559903 167.563938 
L 97.359979 166.097111 
L 99.424771 164.118031 
L 101.846931 161.475302 
L 104.78529 157.924062 
L 108.650158 152.879347 
L 115.969582 142.87193 
L 122.772808 133.739643 
L 123.474308 132.828094 
L 123.474308 132.828094 
" style="fill:none;stroke:#ff0000;stroke-linecap:round;stroke-width:0.5;"/>
   </g>
   <g id="line2d_13">
    <path clip-path="url(#p619bfcc62d)" d="M 57.3083 73.135481 
L 58.55247 68.609398 
L 59.783404 64.945737 
L 60.987866 62.033811 
L 62.179093 59.715978 
L 63.357083 57.895878 
L 64.521838 56.492164 
L 65.686593 55.425738 
L 66.877819 54.632898 
L 68.095517 54.08661 
L 69.379394 53.753714 
L 70.769159 53.62624 
L 72.304517 53.713199 
L 74.064885 54.042783 
L 76.156149 54.670071 
L 78.803319 55.70939 
L 82.72113 57.511896 
L 92.70096 62.177963 
L 97.307035 64.035923 
L 101.754281 65.590742 
L 106.280941 66.937063 
L 111.019375 68.112981 
L 116.101941 69.142806 
L 121.660997 70.039111 
L 123.474308 70.287126 
L 123.474308 70.287126 
" style="fill:none;stroke:#000000;stroke-linecap:round;stroke-width:0.5;"/>
   </g>
   <g id="line2d_14">
    <path clip-path="url(#p619bfcc62d)" d="M 57.3083 73.135481 
L 64.561546 73.135481 
L 64.786555 76.010376 
L 66.4278 95.759061 
L 68.042574 112.557655 
L 69.61764 126.690192 
L 71.166234 138.63978 
L 72.688357 148.697491 
L 74.170772 157.047636 
L 75.613479 163.942012 
L 77.016479 169.596105 
L 78.379772 174.194463 
L 79.690121 177.861717 
L 80.960762 180.779535 
L 82.17846 183.040165 
L 83.356451 184.773114 
L 84.481498 186.047989 
L 85.580073 186.965336 
L 86.652177 187.57506 
L 87.711045 187.923856 
L 88.783149 188.042355 
L 89.89496 187.937782 
L 91.072951 187.597757 
L 92.343592 186.993077 
L 93.746592 186.07034 
L 95.308422 184.767572 
L 97.082026 182.986739 
L 99.120347 180.611227 
L 101.516035 177.461862 
L 104.427922 173.248825 
L 108.279554 167.257983 
L 116.16812 154.457208 
L 122.41544 144.551095 
L 123.474308 142.927802 
L 123.474308 142.927802 
" style="fill:none;stroke:#ff0000;stroke-linecap:round;stroke-width:0.5;"/>
   </g>
   <g id="line2d_15">
    <path clip-path="url(#p619bfcc62d)" d="M 57.3083 73.135481 
L 58.55247 67.899424 
L 59.770168 63.70215 
L 60.97463 60.325616 
L 62.152621 57.6642 
L 63.317376 55.568341 
L 64.455659 53.962686 
L 65.593942 52.732968 
L 66.732225 51.825765 
L 67.883744 51.188468 
L 69.07497 50.781308 
L 70.345611 50.584442 
L 71.72214 50.599662 
L 73.270734 50.845323 
L 75.057574 51.361212 
L 77.228253 52.230133 
L 80.07396 53.625447 
L 84.971224 56.318798 
L 91.602385 59.905774 
L 96.04963 62.050274 
L 100.245394 63.827571 
L 104.441158 65.36376 
L 108.782516 66.7153 
L 113.36212 67.906123 
L 118.285856 68.954101 
L 123.474308 69.840325 
L 123.474308 69.840325 
" style="fill:none;stroke:#000000;stroke-linecap:round;stroke-width:0.5;"/>
   </g>
   <g id="line2d_16">
    <path clip-path="url(#p619bfcc62d)" d="M 57.3083 73.135481 
L 63.992404 73.163569 
L 65.633649 96.452158 
L 67.248423 116.275268 
L 68.836725 133.095183 
L 70.385319 147.201401 
L 71.907442 159.085907 
L 73.389857 168.964033 
L 74.832564 177.131087 
L 76.235564 183.839825 
L 77.598857 189.306741 
L 78.909206 193.677384 
L 80.179847 197.165628 
L 81.397545 199.87909 
L 82.5623 201.949698 
L 83.674111 203.489073 
L 84.732979 204.591706 
L 85.752139 205.345592 
L 86.744828 205.813297 
L 87.737517 206.038924 
L 88.743441 206.040577 
L 89.802309 205.816209 
L 90.927356 205.346369 
L 92.15829 204.585686 
L 93.521583 203.474966 
L 95.056941 201.928024 
L 96.804073 199.840605 
L 98.829158 197.059012 
L 101.211611 193.391246 
L 104.123497 188.479979 
L 108.014837 181.447552 
L 123.474308 152.864449 
L 123.474308 152.864449 
" style="fill:none;stroke:#ff0000;stroke-linecap:round;stroke-width:0.5;"/>
   </g>
   <g id="line2d_17">
    <path clip-path="url(#p619bfcc62d)" d="M 57.3083 73.135481 
L 58.55247 67.18945 
L 59.770168 62.423054 
L 60.961395 58.626526 
L 62.126149 55.627173 
L 63.277668 53.258489 
L 64.402715 51.437825 
L 65.514527 50.051411 
L 66.613102 49.028595 
L 67.711678 48.302327 
L 68.836725 47.82168 
L 70.014715 47.56081 
L 71.272121 47.51184 
L 72.661885 47.684396 
L 74.236951 48.109465 
L 76.103206 48.852862 
L 78.419479 50.028158 
L 81.63579 51.931142 
L 93.852479 59.380607 
L 97.915884 61.479189 
L 101.873403 63.274236 
L 105.883865 64.84925 
L 110.039922 66.241848 
L 114.434224 67.477965 
L 119.159422 68.573065 
L 123.474308 69.393524 
L 123.474308 69.393524 
" style="fill:none;stroke:#000000;stroke-linecap:round;stroke-width:0.5;"/>
   </g>
   <g id="line2d_18">
    <path clip-path="url(#p619bfcc62d)" d="M 57.3083 73.135481 
L 63.489442 73.179906 
L 65.130687 99.624594 
L 66.745461 122.134107 
L 68.333762 141.233387 
L 69.882357 157.251173 
L 71.404479 170.746133 
L 72.886894 181.962785 
L 74.329602 191.236464 
L 75.732602 198.854185 
L 77.095894 205.061784 
L 78.406243 210.024539 
L 79.663649 213.948101 
L 80.868111 217.006305 
L 82.01963 219.346201 
L 83.118205 221.092261 
L 84.163838 222.349909 
L 85.156526 223.208474 
L 86.109507 223.749388 
L 87.049253 224.031862 
L 87.988998 224.084226 
L 88.968451 223.913116 
L 90.014083 223.497233 
L 91.152366 222.795274 
L 92.409771 221.747884 
L 93.812771 220.28004 
L 95.414309 218.268618 
L 97.240856 215.603666 
L 99.371828 212.085613 
L 101.926347 207.418333 
L 105.129422 201.076839 
L 109.761969 191.361741 
L 121.065384 167.505467 
L 123.474308 162.676718 
L 123.474308 162.676718 
" style="fill:none;stroke:#ff0000;stroke-linecap:round;stroke-width:0.5;"/>
   </g>
   <g id="line2d_19">
    <path clip-path="url(#p619bfcc62d)" d="M 57.3083 73.135481 
L 58.539234 66.543553 
L 59.756932 61.196295 
L 60.948159 56.936575 
L 62.112913 53.570775 
L 63.251196 50.939323 
L 64.363008 48.910574 
L 65.448347 47.375826 
L 66.520451 46.233197 
L 67.579319 45.419167 
L 68.651423 44.869176 
L 69.763234 44.548419 
L 70.941225 44.443655 
L 72.211866 44.557008 
L 73.641338 44.913332 
L 75.295819 45.563126 
L 77.294432 46.598626 
L 79.875423 48.202744 
L 83.978536 51.051432 
L 91.218545 56.06797 
L 95.334894 58.628404 
L 99.17329 60.755643 
L 102.958743 62.600362 
L 106.810375 64.230062 
L 110.807601 65.679071 
L 115.029837 66.97104 
L 119.543261 68.117265 
L 123.474308 68.946723 
L 123.474308 68.946723 
" style="fill:none;stroke:#000000;stroke-linecap:round;stroke-width:0.5;"/>
   </g>
   <g id="line2d_20">
    <path clip-path="url(#p619bfcc62d)" d="M 57.3083 73.135481 
L 63.039423 73.135481 
L 63.158546 75.302616 
L 64.799791 104.621321 
L 66.414564 129.568728 
L 67.98963 150.564867 
L 69.538225 168.325741 
L 71.047111 183.162294 
L 72.529526 195.605096 
L 73.972234 205.886901 
L 75.375234 214.327194 
L 76.725291 221.138772 
L 78.022404 226.587712 
L 79.266573 230.898836 
L 80.4578 234.262267 
L 81.596083 236.838902 
L 82.681422 238.764991 
L 83.700583 240.14072 
L 84.6668 241.088394 
L 85.593309 241.695984 
L 86.493347 242.02487 
L 87.380149 242.115482 
L 88.293422 241.984552 
L 89.259639 241.617407 
L 90.305271 240.977175 
L 91.470026 239.993904 
L 92.780375 238.582632 
L 94.26279 236.64288 
L 95.956979 234.041801 
L 97.915884 230.607514 
L 100.218922 226.101781 
L 103.038158 220.07258 
L 106.757431 211.55584 
L 113.984205 194.309546 
L 120.324176 179.457781 
L 123.474308 172.395777 
L 123.474308 172.395777 
" style="fill:none;stroke:#ff0000;stroke-linecap:round;stroke-width:0.5;"/>
   </g>
   <g id="patch_3">
    <path d="M 54 252 
L 54 34.56 
" style="fill:none;stroke:#000000;stroke-linecap:square;stroke-linejoin:miter;"/>
   </g>
   <g id="patch_4">
    <path d="M 126.782609 252 
L 126.782609 34.56 
" style="fill:none;stroke:#000000;stroke-linecap:square;stroke-linejoin:miter;"/>
   </g>
   <g id="patch_5">
    <path d="M 54 252 
L 126.782609 252 
" style="fill:none;stroke:#000000;stroke-linecap:square;stroke-linejoin:miter;"/>
   </g>
   <g id="patch_6">
    <path d="M 54 34.56 
L 126.782609 34.56 
" style="fill:none;stroke:#000000;stroke-linecap:square;stroke-linejoin:miter;"/>
   </g>
   <g id="matplotlib.axis_1">
    <g id="xtick_1">
     <g id="line2d_21"/>
     <g id="text_1">
      <text style="font-family:Arial;font-size:8px;font-style:normal;font-weight:normal;text-anchor:middle;" transform="rotate(-0, 57.3083, 261.22625)" x="57.3083" y="261.22625">0</text>
     </g>
    </g>
    <g id="xtick_2">
     <g id="line2d_22"/>
     <g id="text_2">
      <text style="font-family:Arial;font-size:8px;font-style:normal;font-weight:normal;text-anchor:middle;" transform="rotate(-0, 83.779998, 261.22625)" x="83.779998" y="261.22625">20</text>
     </g>
    </g>
    <g id="xtick_3">
     <g id="line2d_23"/>
     <g id="text_3">
      <text style="font-family:Arial;font-size:8px;font-style:normal;font-weight:normal;text-anchor:middle;" transform="rotate(-0, 110.251695, 261.22625)" x="110.251695" y="261.22625">40</text>
     </g>
    </g>
   </g>
   <g id="matplotlib.axis_2">
    <g id="ytick_1">
     <g id="line2d_24"/>
     <g id="text_4">
      <text style="font-family:Arial;font-size:8px;font-style:normal;font-weight:normal;text-anchor:end;" transform="rotate(-0, 50.5, 244.731604)" x="50.5" y="244.731604">−15.0</text>
     </g>
    </g>
    <g id="ytick_2">
     <g id="line2d_25"/>
     <g id="text_5">
      <text style="font-family:Arial;font-size:8px;font-style:normal;font-weight:normal;text-anchor:end;" transform="rotate(-0, 50.5, 216.609438)" x="50.5" y="216.609438">−12.5</text>
     </g>
    </g>
    <g id="ytick_3">
     <g id="line2d_26"/>
     <g id="text_6">
      <text style="font-family:Arial;font-size:8px;font-style:normal;font-weight:normal;text-anchor:end;" transform="rotate(-0, 50.5, 188.487271)" x="50.5" y="188.487271">−10.0</text>
     </g>
    </g>
    <g id="ytick_4">
     <g id="line2d_27"/>
     <g id="text_7">
      <text style="font-family:Arial;font-size:8px;font-style:normal;font-weight:normal;text-anchor:end;" transform="rotate(-0, 50.5, 160.365105)" x="50.5" y="160.365105">−7.5</text>
     </g>
    </g>
    <g id="ytick_5">
     <g id="line2d_28"/>
     <g id="text_8">
      <text style="font-family:Arial;font-size:8px;font-style:normal;font-weight:normal;text-anchor:end;" transform="rotate(-0, 50.5, 132.242939)" x="50.5" y="132.242939">−5.0</text>
     </g>
    </g>
    <g id="ytick_6">
     <g id="line2d_29"/>
     <g id="text_9">
      <text style="font-family:Arial;font-size:8px;font-style:normal;font-weight:normal;text-anchor:end;" transform="rotate(-0, 50.5, 104.120773)" x="50.5" y="104.120773">−2.5</text>
     </g>
    </g>
    <g id="ytick_7">
     <g id="line2d_30"/>
     <g id="text_10">
      <text style="font-family:Arial;font-size:8px;font-style:normal;font-weight:normal;text-anchor:end;" transform="rotate(-0, 50.5, 75.998606)" x="50.5" y="75.998606">0.0</text>
     </g>
    </g>
    <g id="ytick_8">
     <g id="line2d_31"/>
     <g id="text_11">
      <text style="font-family:Arial;font-size:8px;font-style:normal;font-weight:normal;text-anchor:end;" transform="rotate(-0, 50.5, 47.87644)" x="50.5" y="47.87644">2.5</text>
     </g>
    </g>
   </g>
  </g>
  <g id="axes_2">
   <g id="patch_7">
    <path d="M 141.33913 252 
L 214.121739 252 
L 214.121739 34.56 
L 141.33913 34.56 
z
" style="fill:#ffffff;"/>
   </g>
   <g id="line2d_32">
    <path clip-path="url(#pf3397e6166)" d="M 144.647431 204.072954 
L 145.117209 203.96226 
L 145.659771 203.591456 
L 146.347897 202.830932 
L 147.578585 201.050985 
L 149.887779 197.804979 
L 151.257415 196.268495 
L 152.47487 195.227039 
L 153.619542 194.532758 
L 154.744364 194.106172 
L 155.889036 193.908365 
L 157.10649 193.926438 
L 158.44966 194.174652 
L 160.004561 194.69688 
L 161.929992 195.590788 
L 164.742047 197.168134 
L 171.365265 200.945109 
L 174.408901 202.379481 
L 177.300356 203.497277 
L 180.21166 204.383655 
L 183.255296 205.075694 
L 186.53713 205.590547 
L 190.202727 205.935654 
L 194.477051 206.107792 
L 199.816648 206.089615 
L 207.591154 205.819215 
L 210.813439 205.671001 
L 210.813439 205.671001 
" style="fill:none;stroke:#000000;stroke-linecap:round;stroke-width:0.5;"/>
   </g>
   <g id="line2d_33">
    <path clip-path="url(#pf3397e6166)" d="M 144.647431 204.072954 
L 145.117209 203.96226 
L 145.659771 203.591456 
L 146.347897 202.830932 
L 147.287455 201.428924 
L 148.815889 198.687449 
L 151.601478 193.703519 
L 152.587352 192.424324 
L 153.526909 191.556719 
L 154.44 191.008949 
L 155.346474 190.719772 
L 156.286032 190.652578 
L 157.304988 190.80661 
L 158.456277 191.213058 
L 159.819296 191.940303 
L 161.552846 193.132682 
L 164.19287 195.252213 
L 169.565549 199.591639 
L 172.265123 201.454485 
L 174.766198 202.913903 
L 177.227573 204.094343 
L 179.728648 205.047478 
L 182.342206 205.804198 
L 185.141028 206.380185 
L 188.217747 206.78214 
L 191.711312 207.008736 
L 195.873154 207.047739 
L 201.252451 206.862884 
L 210.092229 206.303691 
L 210.813439 206.25352 
L 210.813439 206.25352 
" style="fill:none;stroke:#000000;stroke-linecap:round;stroke-width:0.5;"/>
   </g>
   <g id="line2d_34">
    <path clip-path="url(#pf3397e6166)" d="M 144.647431 204.072954 
L 144.885628 203.966796 
L 145.176759 203.561009 
L 145.573755 202.578935 
L 146.116316 200.572501 
L 146.883842 196.777798 
L 149.656198 182.627943 
L 150.80087 178.073429 
L 151.780126 175.033755 
L 152.653518 173.002706 
L 153.440893 171.700909 
L 154.14887 170.931686 
L 154.803913 170.532284 
L 155.425874 170.407113 
L 156.054451 170.508501 
L 156.742577 170.854357 
L 157.529953 171.513286 
L 158.462893 172.6003 
L 159.614182 174.305199 
L 161.109534 176.947806 
L 163.365794 181.441759 
L 168.460577 191.676994 
L 170.769771 195.753961 
L 172.847383 198.983716 
L 174.812514 201.637256 
L 176.711478 203.836109 
L 178.583976 205.669804 
L 180.449858 207.190048 
L 182.335589 208.442518 
L 184.267636 209.46014 
L 186.272466 210.265259 
L 188.389779 210.875158 
L 190.665889 211.29727 
L 193.166964 211.531157 
L 195.985636 211.56611 
L 199.280704 211.377641 
L 203.396229 210.90846 
L 209.417336 209.97509 
L 210.813439 209.740344 
L 210.813439 209.740344 
" style="fill:none;stroke:#000000;stroke-linecap:round;stroke-width:0.5;"/>
   </g>
   <g id="line2d_35">
    <path clip-path="url(#pf3397e6166)" d="M 144.647431 204.072954 
L 144.885628 203.966796 
L 145.176759 203.561009 
L 145.573755 202.578935 
L 146.116316 200.572501 
L 146.857375 196.893053 
L 147.955731 190.181749 
L 151.621328 166.93263 
L 152.441787 163.676003 
L 153.182846 161.581445 
L 153.844506 160.331548 
L 154.426767 159.670718 
L 154.942862 159.396468 
L 155.43249 159.381679 
L 155.941968 159.595566 
L 156.524229 160.095564 
L 157.225589 161.012721 
L 158.085747 162.529171 
L 159.177486 164.93696 
L 160.646372 168.759764 
L 163.147447 175.995747 
L 166.773344 186.353712 
L 168.976672 191.962764 
L 170.941802 196.373491 
L 172.781217 199.97097 
L 174.54785 202.951182 
L 176.274783 205.437611 
L 177.975249 207.503053 
L 179.662482 209.209059 
L 181.362949 210.615913 
L 183.089881 211.757896 
L 184.86313 212.665028 
L 186.715779 213.362345 
L 188.674292 213.860679 
L 190.791605 214.167117 
L 193.120648 214.275871 
L 195.760672 214.171203 
L 198.863858 213.818263 
L 202.767652 213.138919 
L 208.636577 211.86621 
L 210.813439 211.366596 
L 210.813439 211.366596 
" style="fill:none;stroke:#000000;stroke-linecap:round;stroke-width:0.5;"/>
   </g>
   <g id="line2d_36">
    <path clip-path="url(#pf3397e6166)" d="M 144.647431 204.072954 
L 144.832696 203.962148 
L 145.070893 203.500728 
L 145.40834 202.295544 
L 145.878119 199.696106 
L 146.526545 194.713148 
L 149.987028 165.527288 
L 150.972901 159.738057 
L 151.833059 155.927374 
L 152.593968 153.497666 
L 153.262245 152.049486 
L 153.844506 151.271354 
L 154.353984 150.930219 
L 154.823763 150.873632 
L 155.300158 151.047625 
L 155.836103 151.495811 
L 156.477913 152.344685 
L 157.265289 153.784043 
L 158.251162 156.08649 
L 159.528166 159.677482 
L 161.380814 165.621847 
L 167.514403 185.755862 
L 169.631715 191.713448 
L 171.570379 196.522438 
L 173.403178 200.490731 
L 175.16981 203.799704 
L 176.890126 206.561911 
L 178.583976 208.869694 
L 180.257976 210.781989 
L 181.931976 212.361559 
L 183.612593 213.645972 
L 185.326292 214.678118 
L 187.092925 215.482848 
L 188.93234 216.076364 
L 190.884237 216.47147 
L 192.994933 216.669087 
L 195.323976 216.659536 
L 197.964 216.420453 
L 201.073802 215.907576 
L 205.004063 215.021839 
L 210.813439 213.47096 
L 210.813439 213.47096 
" style="fill:none;stroke:#000000;stroke-linecap:round;stroke-width:0.5;"/>
   </g>
   <g id="line2d_37">
    <path clip-path="url(#pf3397e6166)" d="M 144.647431 204.072954 
L 144.832696 203.962148 
L 145.070893 203.500728 
L 145.40834 202.295544 
L 145.878119 199.696106 
L 146.526545 194.713148 
L 147.446253 185.731875 
L 149.093787 167.036232 
L 150.734704 149.20139 
L 151.575012 142.650889 
L 152.322688 138.450822 
L 152.977731 135.935824 
L 153.546759 134.555593 
L 154.023154 133.922661 
L 154.42015 133.727073 
L 154.784063 133.790872 
L 155.181059 134.103579 
L 155.664071 134.793601 
L 156.272798 136.088847 
L 157.040324 138.289895 
L 158.032814 141.868248 
L 159.389217 147.669439 
L 161.738111 158.869237 
L 165.10596 174.69847 
L 167.196806 183.446215 
L 169.069304 190.355373 
L 170.835937 196.046495 
L 172.529787 200.772168 
L 174.170704 204.709315 
L 175.778538 208.002928 
L 177.353289 210.735261 
L 178.90819 212.999725 
L 180.456474 214.869817 
L 182.004759 216.396589 
L 183.55966 217.622503 
L 185.141028 218.58981 
L 186.768711 219.326892 
L 188.469178 219.853106 
L 190.27551 220.177484 
L 192.220791 220.298379 
L 194.364569 220.205142 
L 196.786245 219.8721 
L 199.624767 219.249587 
L 203.151415 218.23719 
L 208.279281 216.510105 
L 210.813439 215.61392 
L 210.813439 215.61392 
" style="fill:none;stroke:#000000;stroke-linecap:round;stroke-width:0.5;"/>
   </g>
   <g id="line2d_38">
    <path clip-path="url(#pf3397e6166)" d="M 144.647431 204.072954 
L 144.799613 203.967092 
L 145.011344 203.469156 
L 145.322324 202.065214 
L 145.75902 198.921311 
L 146.36113 192.774148 
L 147.565352 177.414118 
L 149.093787 159.228517 
L 150.139209 149.321984 
L 151.025834 142.910885 
L 151.799976 138.825825 
L 152.47487 136.359647 
L 153.05713 134.991735 
L 153.553375 134.335794 
L 153.970221 134.117542 
L 154.347368 134.16101 
L 154.757597 134.447146 
L 155.247225 135.084496 
L 155.855953 136.273753 
L 156.623478 138.30411 
L 157.602735 141.574823 
L 158.912822 146.790195 
L 160.983818 156.071987 
L 165.337542 175.671017 
L 167.494553 184.26183 
L 169.433217 191.099299 
L 171.259399 196.749857 
L 173.012798 201.472933 
L 174.713265 205.432146 
L 176.374032 208.75012 
L 178.001715 211.518249 
L 179.609549 213.823736 
L 181.20415 215.728503 
L 182.792134 217.284587 
L 184.386735 218.540068 
L 186.001186 219.531415 
L 187.655336 220.288356 
L 189.375652 220.831431 
L 191.188601 221.169755 
L 193.133881 221.304425 
L 195.264427 221.225014 
L 197.646403 220.908539 
L 200.398909 220.31155 
L 203.746909 219.347602 
L 208.305747 217.785437 
L 210.813439 216.866885 
L 210.813439 216.866885 
" style="fill:none;stroke:#000000;stroke-linecap:round;stroke-width:0.5;"/>
   </g>
   <g id="line2d_39">
    <path clip-path="url(#pf3397e6166)" d="M 144.647431 204.072954 
L 144.799613 203.967092 
L 145.011344 203.469156 
L 145.322324 202.065214 
L 145.75902 198.921311 
L 146.36113 192.774148 
L 147.208055 181.58889 
L 148.597542 159.835564 
L 150.350941 133.001778 
L 151.171399 124.18473 
L 151.892609 118.654343 
L 152.521186 115.406276 
L 153.05713 113.690784 
L 153.493826 112.944234 
L 153.837889 112.732236 
L 154.135636 112.795442 
L 154.466466 113.113712 
L 154.883312 113.854305 
L 155.419257 115.300322 
L 156.114 117.874728 
L 157.020474 122.167446 
L 158.257779 129.20234 
L 160.361858 142.667275 
L 163.769407 164.28449 
L 165.78747 175.619297 
L 167.607036 184.610691 
L 169.327352 192.025047 
L 170.988119 198.226821 
L 172.602569 203.421323 
L 174.183937 207.781879 
L 175.738838 211.434804 
L 177.267273 214.474079 
L 178.782474 217.003509 
L 180.277826 219.077852 
L 181.766561 220.771539 
L 183.255296 222.135209 
L 184.757265 223.214058 
L 186.2857 224.041092 
L 187.860451 224.64184 
L 189.507984 225.032036 
L 191.254767 225.216003 
L 193.147115 225.188613 
L 195.231344 224.931845 
L 197.586854 224.412009 
L 200.33936 223.569319 
L 203.753526 222.279935 
L 208.676277 220.159127 
L 210.813439 219.199335 
L 210.813439 219.199335 
" style="fill:none;stroke:#000000;stroke-linecap:round;stroke-width:0.5;"/>
   </g>
   <g id="line2d_40">
    <path clip-path="url(#pf3397e6166)" d="M 144.647431 204.072954 
L 144.779763 203.969621 
L 144.971644 203.449798 
L 145.262775 201.894158 
L 145.673004 198.326358 
L 146.242032 191.197741 
L 147.168356 176.239663 
L 148.835739 150.296994 
L 149.854696 137.802607 
L 150.708237 129.882934 
L 151.449296 124.914757 
L 152.097723 121.946939 
L 152.653518 120.34787 
L 153.110063 119.630387 
L 153.480593 119.409892 
L 153.804806 119.461985 
L 154.162103 119.763643 
L 154.605415 120.462293 
L 155.167826 121.806447 
L 155.882419 124.13921 
L 156.808743 127.983483 
L 158.065897 134.232551 
L 160.110427 145.690614 
L 164.087004 167.987415 
L 166.204316 178.505648 
L 168.116514 186.911196 
L 169.922846 193.878548 
L 171.663012 199.729827 
L 173.356862 204.665089 
L 175.011012 208.816544 
L 176.632079 212.299001 
L 178.22668 215.209798 
L 179.794814 217.621038 
L 181.349715 219.612721 
L 182.891383 221.233769 
L 184.433051 222.538358 
L 185.987953 223.567111 
L 187.56932 224.349853 
L 189.203621 224.911512 
L 190.910704 225.262575 
L 192.723652 225.406808 
L 194.682166 225.336974 
L 196.845794 225.032991 
L 199.293937 224.458329 
L 202.165542 223.547311 
L 205.751739 222.163793 
L 210.813439 219.964371 
L 210.813439 219.964371 
" style="fill:none;stroke:#000000;stroke-linecap:round;stroke-width:0.5;"/>
   </g>
   <g id="line2d_41">
    <path clip-path="url(#pf3397e6166)" d="M 144.647431 204.072954 
L 144.779763 203.969621 
L 144.971644 203.449798 
L 145.262775 201.894158 
L 145.673004 198.326358 
L 146.242032 191.197741 
L 147.036024 178.156501 
L 148.293178 153.331754 
L 150.000261 120.115834 
L 150.807486 109.179213 
L 151.508846 102.452641 
L 152.117573 98.562869 
L 152.633668 96.55712 
L 153.043897 95.729613 
L 153.361494 95.514555 
L 153.619542 95.592272 
L 153.917289 95.942548 
L 154.307668 96.789158 
L 154.817146 98.480528 
L 155.485423 101.547433 
L 156.365431 106.727632 
L 157.596119 115.431734 
L 159.898696 133.653539 
L 162.730601 155.49029 
L 164.682498 168.820906 
L 166.455747 179.444237 
L 168.149597 188.276982 
L 169.790514 195.683603 
L 171.398348 201.937449 
L 172.973099 207.194356 
L 174.528 211.629975 
L 176.063051 215.352064 
L 177.578253 218.455498 
L 179.073605 221.023062 
L 180.555723 223.135243 
L 182.024609 224.849701 
L 183.493494 226.22804 
L 184.968996 227.311342 
L 186.464348 228.135624 
L 187.999399 228.728329 
L 189.594 229.104905 
L 191.274617 229.271924 
L 193.080949 229.225135 
L 195.059312 228.946754 
L 197.269257 228.405171 
L 199.803415 227.548225 
L 202.847051 226.274499 
L 206.843478 224.344681 
L 210.813439 222.288129 
L 210.813439 222.288129 
" style="fill:none;stroke:#000000;stroke-linecap:round;stroke-width:0.5;"/>
   </g>
   <g id="line2d_42">
    <path clip-path="url(#pf3397e6166)" d="M 144.647431 204.072954 
L 144.76653 203.970541 
L 144.945178 203.426153 
L 145.216458 201.771758 
L 145.606838 197.843023 
L 146.149399 189.873552 
L 146.956625 174.276245 
L 148.676941 141.486792 
L 149.656198 126.946471 
L 150.476656 117.816756 
L 151.191249 112.152708 
L 151.806593 108.884472 
L 152.329304 107.180774 
L 152.752767 106.457863 
L 153.083597 106.267188 
L 153.374727 106.349526 
L 153.705557 106.705343 
L 154.12902 107.531137 
L 154.671581 109.124716 
L 155.379557 111.961051 
L 156.305881 116.670975 
L 157.602735 124.530573 
L 160.017794 140.828663 
L 163.034964 160.713466 
L 165.10596 172.885312 
L 166.991692 182.67789 
L 168.784791 190.842193 
L 170.51834 197.724044 
L 172.205573 203.536531 
L 173.859723 208.458622 
L 175.480791 212.604003 
L 177.075391 216.088191 
L 178.650142 219.0067 
L 180.198427 221.41921 
L 181.733478 223.407613 
L 183.255296 225.021497 
L 184.770498 226.310275 
L 186.292316 227.317834 
L 187.840601 228.078949 
L 189.428585 228.613375 
L 191.082735 228.935794 
L 192.836134 229.049318 
L 194.721866 228.945531 
L 196.786245 228.605418 
L 199.102055 227.993271 
L 201.781779 227.047336 
L 205.037146 225.651584 
L 209.476885 223.48666 
L 210.813439 222.803875 
L 210.813439 222.803875 
" style="fill:none;stroke:#000000;stroke-linecap:round;stroke-width:0.5;"/>
   </g>
   <g id="line2d_43">
    <path clip-path="url(#pf3397e6166)" d="M 144.647431 204.072954 
L 144.76653 203.970541 
L 144.945178 203.426153 
L 145.216458 201.771758 
L 145.606838 197.843023 
L 146.149399 189.873552 
L 146.910308 175.045738 
L 148.081447 147.307128 
L 149.669431 110.220369 
L 150.47004 97.168132 
L 151.158166 89.272449 
L 151.75366 84.758085 
L 152.249905 82.493106 
L 152.646901 81.567913 
L 152.938032 81.346193 
L 153.169613 81.424752 
L 153.440893 81.783649 
L 153.804806 82.680108 
L 154.287818 84.522 
L 154.929628 87.936992 
L 155.78317 93.79873 
L 156.994008 103.814812 
L 159.5017 126.922696 
L 161.982925 148.834187 
L 163.86204 163.491183 
L 165.595589 175.313988 
L 167.262972 185.190459 
L 168.890656 193.526912 
L 170.491874 200.593813 
L 172.066625 206.565562 
L 173.628142 211.636656 
L 175.16981 215.906569 
L 176.691628 219.484491 
L 178.200213 222.476197 
L 179.688949 224.946151 
L 181.164451 226.972486 
L 182.626719 228.610784 
L 184.082372 229.914831 
L 185.54464 230.931439 
L 187.026759 231.69417 
L 188.548577 232.228023 
L 190.129945 232.546151 
L 191.797328 232.652598 
L 193.58381 232.54075 
L 195.535708 232.191236 
L 197.705953 231.571506 
L 200.187178 230.625184 
L 203.144798 229.249445 
L 206.949344 227.219291 
L 210.813439 225.001603 
L 210.813439 225.001603 
" style="fill:none;stroke:#000000;stroke-linecap:round;stroke-width:0.5;"/>
   </g>
   <g id="line2d_44">
    <path clip-path="url(#pf3397e6166)" d="M 144.647431 204.072954 
L 144.759913 203.964888 
L 144.931945 203.371995 
L 145.196609 201.525195 
L 145.580372 197.06414 
L 146.116316 187.90525 
L 146.897075 170.23255 
L 148.551225 133.150707 
L 149.504016 116.664233 
L 150.298008 106.504879 
L 150.986134 100.338074 
L 151.575012 96.881954 
L 152.06464 95.174132 
L 152.45502 94.499883 
L 152.752767 94.359786 
L 153.010814 94.479907 
L 153.321794 94.899822 
L 153.732024 95.871517 
L 154.267968 97.767613 
L 154.975945 101.170129 
L 155.922119 106.915205 
L 157.291755 116.748445 
L 163.663542 164.260477 
L 165.549273 175.813446 
L 167.335755 185.416818 
L 169.069304 193.553032 
L 170.763154 200.465926 
L 172.430538 206.360118 
L 174.071455 211.363175 
L 175.685905 215.589194 
L 177.273889 219.13869 
L 178.835407 222.099616 
L 180.377075 224.55838 
L 181.898893 226.57699 
L 183.407478 228.21656 
L 184.909447 229.52645 
L 186.411415 230.54649 
L 187.933233 231.314386 
L 189.488134 231.851838 
L 191.102585 232.174774 
L 192.803051 232.286599 
L 194.622617 232.180457 
L 196.60098 231.838591 
L 198.804308 231.226529 
L 201.312 230.292313 
L 204.28947 228.936379 
L 208.107249 226.93837 
L 210.813439 225.421573 
L 210.813439 225.421573 
" style="fill:none;stroke:#000000;stroke-linecap:round;stroke-width:0.5;"/>
   </g>
   <g id="line2d_45">
    <path clip-path="url(#pf3397e6166)" d="M 144.647431 204.072954 
L 144.759913 203.964888 
L 144.931945 203.371995 
L 145.196609 201.525195 
L 145.580372 197.06414 
L 146.116316 187.90525 
L 146.863992 170.880365 
L 148.015281 138.923369 
L 149.318751 103.7648 
L 150.11936 88.264648 
L 150.807486 78.893453 
L 151.396364 73.6066 
L 151.892609 70.934954 
L 152.282988 69.868489 
L 152.567502 69.61318 
L 152.779233 69.68667 
L 153.030664 70.045331 
L 153.374727 70.974946 
L 153.837889 72.937165 
L 154.453233 76.602761 
L 155.286925 83.045899 
L 156.48453 94.221128 
L 159.548016 125.799191 
L 161.671945 146.122179 
L 163.465043 161.198978 
L 165.152277 173.554526 
L 166.793194 183.967157 
L 168.407644 192.815808 
L 170.002245 200.34751 
L 171.583613 206.770167 
L 173.151747 212.232315 
L 174.706648 216.861979 
L 176.2417 220.753225 
L 177.763518 224.019854 
L 179.265486 226.730251 
L 180.747605 228.958298 
L 182.21649 230.774774 
L 183.678759 232.235876 
L 185.134411 233.381697 
L 186.603296 234.257995 
L 188.092032 234.88929 
L 189.627083 235.298772 
L 191.2283 235.494357 
L 192.92215 235.475231 
L 194.748332 235.228979 
L 196.753162 234.729422 
L 198.99619 233.935468 
L 201.583281 232.775804 
L 204.6997 231.12402 
L 208.841692 228.658494 
L 210.813439 227.426445 
L 210.813439 227.426445 
" style="fill:none;stroke:#000000;stroke-linecap:round;stroke-width:0.5;"/>
   </g>
   <g id="line2d_46">
    <path clip-path="url(#pf3397e6166)" d="M 144.647431 204.072954 
L 144.753296 203.962546 
L 144.918711 203.33527 
L 145.176759 201.328851 
L 145.553905 196.394108 
L 146.076617 186.283056 
L 146.830909 166.824458 
L 148.44536 125.255287 
L 149.365067 107.141126 
L 150.132593 96.077018 
L 150.794253 89.488507 
L 151.356664 85.887796 
L 151.819826 84.174239 
L 152.183739 83.544441 
L 152.448403 83.447648 
L 152.686601 83.600557 
L 152.990964 84.10133 
L 153.401194 85.266175 
L 153.943755 87.554418 
L 154.658348 91.619895 
L 155.637605 98.597792 
L 157.139573 111.104481 
L 161.850593 151.219406 
L 163.769407 165.212106 
L 165.569123 176.747154 
L 167.309289 186.499615 
L 169.016372 194.834788 
L 170.696988 201.961833 
L 172.357755 208.059354 
L 173.992055 213.236692 
L 175.606506 217.631865 
L 177.19449 221.32827 
L 178.762625 224.429444 
L 180.304292 226.998683 
L 181.826111 229.113688 
L 183.334696 230.837006 
L 184.830047 232.213582 
L 186.325399 233.291834 
L 187.827368 234.103927 
L 189.355802 234.679607 
L 190.930553 235.03593 
L 192.578087 235.180103 
L 194.331486 235.107725 
L 196.223834 234.803308 
L 198.308063 234.237531 
L 200.65034 233.364824 
L 203.369763 232.105696 
L 206.691296 230.310934 
L 210.813439 227.847705 
L 210.813439 227.847705 
" style="fill:none;stroke:#000000;stroke-linecap:round;stroke-width:0.5;"/>
   </g>
   <g id="line2d_47">
    <path clip-path="url(#pf3397e6166)" d="M 144.647431 204.072954 
L 144.753296 203.962546 
L 144.918711 203.33527 
L 145.176759 201.328851 
L 145.553905 196.394108 
L 146.076617 186.283056 
L 146.811059 167.270295 
L 147.935881 131.628524 
L 149.007771 99.2072 
L 149.814996 81.171458 
L 150.503123 70.372951 
L 151.092 64.306891 
L 151.581628 61.296455 
L 151.965391 60.099862 
L 152.243289 59.811764 
L 152.441787 59.88002 
L 152.679984 60.241966 
L 153.010814 61.210397 
L 153.460743 63.297611 
L 154.062854 67.250488 
L 154.883312 74.257647 
L 156.087534 86.670302 
L 161.658711 146.547789 
L 163.372411 161.426585 
L 165.019945 173.841715 
L 166.641012 184.408163 
L 168.248846 193.454291 
L 169.843447 201.187724 
L 171.431431 207.816388 
L 173.012798 213.485072 
L 174.580933 218.298378 
L 176.135834 222.369544 
L 177.670885 225.780851 
L 179.186087 228.620309 
L 180.681439 230.962784 
L 182.163557 232.880164 
L 183.632443 234.423283 
L 185.088095 235.636676 
L 186.550364 236.570483 
L 188.025866 237.252122 
L 189.541067 237.707668 
L 191.109202 237.946282 
L 192.756735 237.97092 
L 194.523368 237.77183 
L 196.442182 237.327603 
L 198.566111 236.602673 
L 200.98117 235.536125 
L 203.813075 234.032886 
L 207.352957 231.888238 
L 210.813439 229.624685 
L 210.813439 229.624685 
" style="fill:none;stroke:#000000;stroke-linecap:round;stroke-width:0.5;"/>
   </g>
   <g id="line2d_48">
    <path clip-path="url(#pf3397e6166)" d="M 144.647431 204.072954 
L 144.74668 203.96315 
L 144.905478 203.314605 
L 145.156909 201.179931 
L 145.520822 195.945089 
L 146.0303 185.051361 
L 146.75151 164.326272 
L 148.346111 117.931827 
L 149.239352 98.229319 
L 149.980411 86.378562 
L 150.615605 79.439764 
L 151.158166 75.693678 
L 151.601478 73.980224 
L 151.938925 73.407509 
L 152.183739 73.352572 
L 152.41532 73.55791 
L 152.719684 74.177742 
L 153.129913 75.577443 
L 153.679091 78.317854 
L 154.42015 83.259177 
L 155.458957 91.845342 
L 157.218972 108.555808 
L 160.553739 140.134404 
L 162.485787 156.202104 
L 164.278885 169.306539 
L 166.019051 180.423782 
L 167.726134 189.927316 
L 169.413368 198.094267 
L 171.087368 205.122328 
L 172.741518 211.12986 
L 174.375818 216.248783 
L 175.990269 220.592458 
L 177.578253 224.244345 
L 179.146387 227.306916 
L 180.688055 229.842476 
L 182.209874 231.927383 
L 183.711842 233.616278 
L 185.200577 234.962578 
L 186.689312 236.013219 
L 188.184664 236.799174 
L 189.706482 237.348902 
L 191.268 237.677284 
L 192.9023 237.792795 
L 194.63585 237.689913 
L 196.501731 237.353232 
L 198.552877 236.752274 
L 200.848838 235.841731 
L 203.495478 234.545013 
L 206.691296 232.720654 
L 210.813439 230.107062 
L 210.813439 230.107062 
" style="fill:none;stroke:#000000;stroke-linecap:round;stroke-width:0.5;"/>
   </g>
   <g id="line2d_49">
    <path clip-path="url(#pf3397e6166)" d="M 144.647431 204.072954 
L 144.74668 203.96315 
L 144.905478 203.314605 
L 145.156909 201.179931 
L 145.520822 195.945089 
L 146.0303 185.051361 
L 146.744893 164.486645 
L 147.843249 125.623017 
L 148.848972 92.739865 
L 149.642964 73.535899 
L 150.317858 62.176892 
L 150.886885 55.963131 
L 151.363281 52.913627 
L 151.73381 51.760791 
L 151.991858 51.528185 
L 152.177123 51.627141 
L 152.41532 52.057585 
L 152.752767 53.20168 
L 153.215929 55.666643 
L 153.837889 60.311716 
L 154.698047 68.583517 
L 156.027984 83.803228 
L 160.229526 133.086477 
L 161.976308 150.353409 
L 163.630458 164.554673 
L 165.251526 176.599857 
L 166.85936 186.923711 
L 168.467194 195.836018 
L 170.068411 203.491443 
L 171.669628 210.086267 
L 173.264229 215.731942 
L 174.845597 220.531906 
L 176.413731 224.597108 
L 177.962016 228.007587 
L 179.490451 230.849139 
L 180.999036 233.194795 
L 182.487771 235.10725 
L 183.956656 236.640749 
L 185.418925 237.852193 
L 186.881194 238.779339 
L 188.356696 239.454579 
L 189.865281 239.901396 
L 191.426798 240.131267 
L 193.067715 240.145771 
L 194.814498 239.935892 
L 196.706846 239.480866 
L 198.797692 238.744151 
L 201.153202 237.671991 
L 203.892474 236.172534 
L 207.260324 234.062764 
L 210.813439 231.641261 
L 210.813439 231.641261 
" style="fill:none;stroke:#000000;stroke-linecap:round;stroke-width:0.5;"/>
   </g>
   <g id="line2d_50">
    <path clip-path="url(#pf3397e6166)" d="M 144.647431 204.072954 
L 144.740063 203.966332 
L 144.892245 203.308616 
L 145.137059 201.075616 
L 145.494356 195.490389 
L 145.997217 183.707258 
L 146.705194 161.262047 
L 148.253478 111.097854 
L 149.12687 89.797386 
L 149.848079 77.18324 
L 150.463423 69.934279 
L 150.986134 66.120095 
L 151.409597 64.449662 
L 151.727194 63.945578 
L 151.945542 63.938006 
L 152.170506 64.196544 
L 152.47487 64.941295 
L 152.891715 66.617408 
L 153.454126 69.89081 
L 154.221652 75.801162 
L 155.333241 86.283261 
L 157.675518 111.080534 
L 160.090577 135.564673 
L 161.963075 152.314806 
L 163.723091 166.107633 
L 165.436791 177.828289 
L 167.137257 187.955456 
L 168.82449 196.689643 
L 170.49849 204.211057 
L 172.159257 210.67569 
L 173.806791 216.216846 
L 175.434474 220.930525 
L 177.042308 224.921871 
L 178.623676 228.267971 
L 180.178577 231.052438 
L 181.713628 233.356339 
L 183.222213 235.229839 
L 184.717565 236.739815 
L 186.199684 237.926557 
L 187.681802 238.833074 
L 189.177154 239.490115 
L 190.705589 239.919967 
L 192.286957 240.13334 
L 193.947723 240.131294 
L 195.720972 239.903314 
L 197.639787 239.428245 
L 199.757099 238.669785 
L 202.145692 237.571355 
L 204.924664 236.040262 
L 208.352063 233.885199 
L 210.813439 232.219956 
L 210.813439 232.219956 
" style="fill:none;stroke:#000000;stroke-linecap:round;stroke-width:0.5;"/>
   </g>
   <g id="line2d_51">
    <path clip-path="url(#pf3397e6166)" d="M 144.647431 204.072954 
L 144.740063 203.966332 
L 144.892245 203.308616 
L 145.137059 201.075616 
L 145.494356 195.490389 
L 145.997217 183.707258 
L 146.698577 161.475169 
L 147.876332 115.755407 
L 148.829123 83.575667 
L 149.590032 64.829599 
L 150.231842 54.004682 
L 150.774403 48.198613 
L 151.217715 45.51314 
L 151.555162 44.582279 
L 151.780126 44.44671 
L 151.965391 44.603878 
L 152.216822 45.176856 
L 152.574119 46.636596 
L 153.063747 49.697771 
L 153.725407 55.385845 
L 154.664964 65.583589 
L 156.305881 86.251011 
L 159.184103 122.201699 
L 160.950735 141.378093 
L 162.604885 156.975684 
L 164.225953 170.203532 
L 165.840403 181.587607 
L 167.454854 191.421216 
L 169.069304 199.914872 
L 170.683755 207.247933 
L 172.298206 213.570517 
L 173.899423 218.966642 
L 175.494024 223.576948 
L 177.068775 227.466124 
L 178.623676 230.728632 
L 180.158727 233.444462 
L 181.667312 235.673141 
L 183.156047 237.485821 
L 184.631549 238.939108 
L 186.093818 240.073578 
L 187.562704 240.935199 
L 189.044822 241.548735 
L 190.560024 241.935954 
L 192.128158 242.106922 
L 193.782308 242.061169 
L 195.548941 241.785944 
L 197.461138 241.258907 
L 199.578451 240.43894 
L 201.967043 239.268365 
L 204.752632 237.6462 
L 208.180032 235.380105 
L 210.813439 233.509273 
L 210.813439 233.509273 
" style="fill:none;stroke:#000000;stroke-linecap:round;stroke-width:0.5;"/>
   </g>
   <g id="patch_8">
    <path d="M 141.33913 252 
L 141.33913 34.56 
" style="fill:none;stroke:#000000;stroke-linecap:square;stroke-linejoin:miter;"/>
   </g>
   <g id="patch_9">
    <path d="M 214.121739 252 
L 214.121739 34.56 
" style="fill:none;stroke:#000000;stroke-linecap:square;stroke-linejoin:miter;"/>
   </g>
   <g id="patch_10">
    <path d="M 141.33913 252 
L 214.121739 252 
" style="fill:none;stroke:#000000;stroke-linecap:square;stroke-linejoin:miter;"/>
   </g>
   <g id="patch_11">
    <path d="M 141.33913 34.56 
L 214.121739 34.56 
" style="fill:none;stroke:#000000;stroke-linecap:square;stroke-linejoin:miter;"/>
   </g>
   <g id="matplotlib.axis_3">
    <g id="xtick_4">
     <g id="line2d_52"/>
     <g id="text_12">
      <text style="font-family:Arial;font-size:8px;font-style:normal;font-weight:normal;text-anchor:middle;" transform="rotate(-0, 144.647431, 261.22625)" x="144.647431" y="261.22625">0</text>
     </g>
    </g>
    <g id="xtick_5">
     <g id="line2d_53"/>
     <g id="text_13">
      <text style="font-family:Arial;font-size:8px;font-style:normal;font-weight:normal;text-anchor:middle;" transform="rotate(-0, 177.730435, 261.22625)" x="177.730435" y="261.22625">50</text>
     </g>
    </g>
    <g id="xtick_6">
     <g id="line2d_54"/>
     <g id="text_14">
      <text style="font-family:Arial;font-size:8px;font-style:normal;font-weight:normal;text-anchor:middle;" transform="rotate(-0, 210.813439, 261.22625)" x="210.813439" y="261.22625">100</text>
     </g>
    </g>
   </g>
   <g id="matplotlib.axis_4">
    <g id="ytick_9">
     <g id="line2d_55"/>
     <g id="text_15">
      <text style="font-family:Arial;font-size:8px;font-style:normal;font-weight:normal;text-anchor:end;" transform="rotate(-0, 137.83913, 233.251429)" x="137.83913" y="233.251429">−1</text>
     </g>
    </g>
    <g id="ytick_10">
     <g id="line2d_56"/>
     <g id="text_16">
      <text style="font-family:Arial;font-size:8px;font-style:normal;font-weight:normal;text-anchor:end;" transform="rotate(-0, 137.83913, 206.936079)" x="137.83913" y="206.936079">0</text>
     </g>
    </g>
    <g id="ytick_11">
     <g id="line2d_57"/>
     <g id="text_17">
      <text style="font-family:Arial;font-size:8px;font-style:normal;font-weight:normal;text-anchor:end;" transform="rotate(-0, 137.83913, 180.620728)" x="137.83913" y="180.620728">1</text>
     </g>
    </g>
    <g id="ytick_12">
     <g id="line2d_58"/>
     <g id="text_18">
      <text style="font-family:Arial;font-size:8px;font-style:normal;font-weight:normal;text-anchor:end;" transform="rotate(-0, 137.83913, 154.305378)" x="137.83913" y="154.305378">2</text>
     </g>
    </g>
    <g id="ytick_13">
     <g id="line2d_59"/>
     <g id="text_19">
      <text style="font-family:Arial;font-size:8px;font-style:normal;font-weight:normal;text-anchor:end;" transform="rotate(-0, 137.83913, 127.990027)" x="137.83913" y="127.990027">3</text>
     </g>
    </g>
    <g id="ytick_14">
     <g id="line2d_60"/>
     <g id="text_20">
      <text style="font-family:Arial;font-size:8px;font-style:normal;font-weight:normal;text-anchor:end;" transform="rotate(-0, 137.83913, 101.674677)" x="137.83913" y="101.674677">4</text>
     </g>
    </g>
    <g id="ytick_15">
     <g id="line2d_61"/>
     <g id="text_21">
      <text style="font-family:Arial;font-size:8px;font-style:normal;font-weight:normal;text-anchor:end;" transform="rotate(-0, 137.83913, 75.359327)" x="137.83913" y="75.359327">5</text>
     </g>
    </g>
    <g id="ytick_16">
     <g id="line2d_62"/>
     <g id="text_22">
      <text style="font-family:Arial;font-size:8px;font-style:normal;font-weight:normal;text-anchor:end;" transform="rotate(-0, 137.83913, 49.043976)" x="137.83913" y="49.043976">6</text>
     </g>
    </g>
   </g>
  </g>
  <g id="axes_3">
   <g id="patch_12">
    <path d="M 228.678261 252 
L 301.46087 252 
L 301.46087 34.56 
L 228.678261 34.56 
z
" style="fill:#ffffff;"/>
   </g>
   <g id="line2d_63">
    <path clip-path="url(#p4162f3c193)" d="M 231.986561 242.116364 
L 232.628372 242.007215 
L 233.395897 241.638949 
L 234.395004 240.894249 
L 235.956522 239.415537 
L 239.383921 236.130189 
L 241.064538 234.860673 
L 242.619439 233.95921 
L 244.147874 233.327689 
L 245.709391 232.92317 
L 247.363542 232.727047 
L 249.17649 232.740617 
L 251.254103 232.985588 
L 253.788261 233.519016 
L 257.321526 234.510253 
L 269.138775 237.979212 
L 273.796862 239.026176 
L 278.567431 239.868105 
L 283.734996 240.55035 
L 289.603921 241.09518 
L 296.617518 241.514872 
L 298.152569 241.581854 
L 298.152569 241.581854 
" style="fill:none;stroke:#000000;stroke-linecap:round;stroke-width:0.5;"/>
   </g>
   <g id="line2d_64">
    <path clip-path="url(#p4162f3c193)" d="M 231.986561 242.116364 
L 232.317391 242.006567 
L 232.707771 241.615901 
L 233.210632 240.764277 
L 233.885526 239.14007 
L 234.838316 236.206586 
L 236.558632 230.04767 
L 238.874443 221.971827 
L 240.323478 217.717462 
L 241.580632 214.682875 
L 242.731921 212.459904 
L 243.797194 210.864382 
L 244.802917 209.741942 
L 245.762324 208.992746 
L 246.695265 208.539129 
L 247.628206 208.330177 
L 248.594229 208.343608 
L 249.626419 208.584444 
L 250.777708 209.089321 
L 252.094411 209.919023 
L 253.669162 211.187344 
L 255.654142 213.08903 
L 258.565447 216.219304 
L 265.631976 223.904252 
L 268.708696 226.863136 
L 271.547217 229.289048 
L 274.30634 231.357498 
L 277.065462 233.1493 
L 279.877518 234.710662 
L 282.795439 236.075846 
L 285.872158 237.268327 
L 289.167225 238.304946 
L 292.766656 239.201017 
L 296.776316 239.965557 
L 298.152569 240.181122 
L 298.152569 240.181122 
" style="fill:none;stroke:#000000;stroke-linecap:round;stroke-width:0.5;"/>
   </g>
   <g id="line2d_65">
    <path clip-path="url(#p4162f3c193)" d="M 231.986561 242.116364 
L 232.237992 242.006358 
L 232.542356 241.592893 
L 232.952585 240.612919 
L 233.508379 238.648057 
L 234.275905 235.035766 
L 235.440427 228.349261 
L 239.364071 205.066807 
L 240.694008 198.846871 
L 241.878379 194.322558 
L 242.956885 191.039359 
L 243.949375 188.69488 
L 244.869083 187.065625 
L 245.716008 185.993385 
L 246.51 185.330899 
L 247.264292 184.982763 
L 248.005352 184.883957 
L 248.766261 185.00974 
L 249.586719 185.376621 
L 250.513043 186.044897 
L 251.584933 187.106504 
L 252.85532 188.69425 
L 254.416838 191.023214 
L 256.461368 194.502053 
L 259.822601 200.730264 
L 264.751968 209.784984 
L 267.676506 214.678969 
L 270.29668 218.639712 
L 272.777905 221.994592 
L 275.192964 224.891169 
L 277.581557 227.41282 
L 279.976767 229.621405 
L 282.411676 231.565973 
L 284.912751 233.279582 
L 287.513075 234.791382 
L 290.245731 236.122154 
L 293.157036 237.291267 
L 296.306538 238.314021 
L 298.152569 238.814609 
L 298.152569 238.814609 
" style="fill:none;stroke:#000000;stroke-linecap:round;stroke-width:0.5;"/>
   </g>
   <g id="line2d_66">
    <path clip-path="url(#p4162f3c193)" d="M 231.986561 242.116364 
L 232.198292 242.005479 
L 232.462957 241.565088 
L 232.833486 240.449519 
L 233.342964 238.116596 
L 234.044324 233.74118 
L 235.069897 225.768727 
L 239.880166 186.449074 
L 241.124087 178.948222 
L 242.242292 173.492848 
L 243.267866 169.538613 
L 244.207423 166.750834 
L 245.067581 164.850708 
L 245.854957 163.616146 
L 246.576166 162.875022 
L 247.237826 162.496495 
L 247.87302 162.382577 
L 248.51483 162.495181 
L 249.209573 162.852143 
L 249.990332 163.515628 
L 250.896806 164.592713 
L 251.968696 166.22954 
L 253.265549 168.638642 
L 254.886617 172.148936 
L 257.076711 177.465663 
L 261.794348 189.690869 
L 265.360696 198.573002 
L 268.126435 204.876504 
L 270.62751 210.037085 
L 272.996253 214.426303 
L 275.292213 218.221122 
L 277.548474 221.527234 
L 279.784885 224.415887 
L 282.027913 226.954844 
L 284.297407 229.191658 
L 286.619834 231.170094 
L 289.008427 232.914203 
L 291.496269 234.456213 
L 294.116443 235.818413 
L 296.908648 237.018375 
L 298.152569 237.480404 
L 298.152569 237.480404 
" style="fill:none;stroke:#000000;stroke-linecap:round;stroke-width:0.5;"/>
   </g>
   <g id="line2d_67">
    <path clip-path="url(#p4162f3c193)" d="M 231.986561 242.116364 
L 232.171826 242.006428 
L 232.410024 241.548697 
L 232.74747 240.353642 
L 233.217249 237.778535 
L 233.865676 232.85193 
L 234.798617 223.867255 
L 236.591715 203.940638 
L 238.656095 181.885666 
L 240.045581 169.36302 
L 241.256419 160.376023 
L 242.348158 153.853476 
L 243.347265 149.155665 
L 244.266972 145.841933 
L 245.100664 143.615051 
L 245.861573 142.177117 
L 246.543083 141.332628 
L 247.158427 140.901848 
L 247.727455 140.762284 
L 248.296482 140.852533 
L 248.905209 141.183311 
L 249.593336 141.82294 
L 250.400561 142.895086 
L 251.359968 144.563364 
L 252.511257 147.039297 
L 253.927209 150.645975 
L 255.746775 155.933418 
L 258.419881 164.461146 
L 265.155581 186.174304 
L 267.914704 194.183413 
L 270.402545 200.738892 
L 272.744822 206.297783 
L 275.001083 211.091095 
L 277.204411 215.258847 
L 279.374656 218.896335 
L 281.531668 222.084747 
L 283.695296 224.891225 
L 285.878775 227.363115 
L 288.101953 229.546459 
L 290.378063 231.472295 
L 292.733573 233.175597 
L 295.201565 234.68556 
L 297.808506 236.018665 
L 298.152569 236.176723 
L 298.152569 236.176723 
" style="fill:none;stroke:#000000;stroke-linecap:round;stroke-width:0.5;"/>
   </g>
   <g id="line2d_68">
    <path clip-path="url(#p4162f3c193)" d="M 231.986561 242.116364 
L 232.151976 242.008883 
L 232.370324 241.541458 
L 232.687921 240.263126 
L 233.13785 237.40533 
L 233.753194 231.911586 
L 234.633202 221.841222 
L 236.194719 200.927384 
L 238.517146 170.42105 
L 239.906632 155.093253 
L 241.110854 144.146691 
L 242.202593 136.151631 
L 243.2017 130.388909 
L 244.114791 126.342617 
L 244.948482 123.591178 
L 245.702775 121.816064 
L 246.377668 120.756875 
L 246.973162 120.204855 
L 247.509107 119.991851 
L 248.025202 120.022643 
L 248.567763 120.286459 
L 249.183107 120.849986 
L 249.904316 121.834935 
L 250.757858 123.402125 
L 251.783431 125.780204 
L 253.027352 129.260564 
L 254.582253 134.314448 
L 256.653249 141.860468 
L 260.338696 156.295424 
L 264.619636 172.77222 
L 267.444925 182.764915 
L 269.952617 190.839544 
L 272.30151 197.670576 
L 274.551154 203.543381 
L 276.734632 208.634591 
L 278.878411 213.07936 
L 280.995723 216.966431 
L 283.106419 220.383065 
L 285.217115 223.382533 
L 287.34766 226.028111 
L 289.511289 228.363039 
L 291.721233 230.423198 
L 293.997344 232.243251 
L 296.372704 233.858228 
L 298.152569 234.901903 
L 298.152569 234.901903 
" style="fill:none;stroke:#000000;stroke-linecap:round;stroke-width:0.5;"/>
   </g>
   <g id="line2d_69">
    <path clip-path="url(#p4162f3c193)" d="M 231.986561 242.116364 
L 232.138743 242.008666 
L 232.350474 241.502173 
L 232.661455 240.074814 
L 233.09815 236.882349 
L 233.700261 230.656027 
L 234.560419 219.189085 
L 236.055771 195.740576 
L 238.444364 158.825688 
L 239.820617 141.014204 
L 241.018221 128.250345 
L 242.103344 118.9378 
L 243.102451 112.188081 
L 244.015542 107.452734 
L 244.849233 104.233803 
L 245.596909 102.171241 
L 246.265186 100.933676 
L 246.847447 100.285132 
L 247.363542 100.020123 
L 247.846553 100.017518 
L 248.342798 100.245008 
L 248.905209 100.764132 
L 249.56687 101.700162 
L 250.354245 103.225146 
L 251.300419 105.573244 
L 252.445091 109.04492 
L 253.861043 114.095421 
L 255.687225 121.493093 
L 258.380182 133.433645 
L 265.049715 163.289705 
L 267.808838 174.447746 
L 270.283447 183.555241 
L 272.605874 191.276861 
L 274.835668 197.935742 
L 276.999296 203.711699 
L 279.116609 208.744186 
L 281.207455 213.152003 
L 283.285067 217.02189 
L 285.356063 220.417359 
L 287.433676 223.403948 
L 289.537755 226.043715 
L 291.674917 228.371592 
L 293.865012 230.430405 
L 296.121273 232.248138 
L 298.152569 233.654393 
L 298.152569 233.654393 
" style="fill:none;stroke:#000000;stroke-linecap:round;stroke-width:0.5;"/>
   </g>
   <g id="line2d_70">
    <path clip-path="url(#p4162f3c193)" d="M 231.986561 242.116364 
L 232.12551 242.012763 
L 232.324008 241.504129 
L 232.621755 240.014429 
L 233.038601 236.65175 
L 233.620862 229.936907 
L 234.447937 217.520772 
L 235.837423 192.754376 
L 238.398047 147.30774 
L 239.761067 127.182809 
L 240.952055 112.725275 
L 242.030561 102.198306 
L 243.023051 94.578371 
L 243.929526 89.235891 
L 244.756601 85.603046 
L 245.504277 83.254232 
L 246.165937 81.855094 
L 246.741581 81.11565 
L 247.237826 80.808765 
L 247.694372 80.778345 
L 248.157534 80.977975 
L 248.680245 81.462825 
L 249.295589 82.358371 
L 250.036648 83.858284 
L 250.929889 86.205245 
L 252.008395 89.706187 
L 253.331715 94.806661 
L 255.005715 102.203136 
L 257.328142 113.562866 
L 266.459051 159.229188 
L 269.059375 170.585575 
L 271.454585 180.07329 
L 273.724079 188.176125 
L 275.914174 195.189099 
L 278.044719 201.28224 
L 280.135565 206.603262 
L 282.199945 211.262066 
L 284.251091 215.352705 
L 286.295621 218.943469 
L 288.346767 222.104305 
L 290.417763 224.892871 
L 292.515225 227.349225 
L 294.659004 229.521208 
L 296.868949 231.445484 
L 298.152569 232.432743 
L 298.152569 232.432743 
" style="fill:none;stroke:#000000;stroke-linecap:round;stroke-width:0.5;"/>
   </g>
   <g id="line2d_71">
    <path clip-path="url(#p4162f3c193)" d="M 231.986561 242.116364 
L 232.118893 242.009825 
L 232.310775 241.473965 
L 232.601905 239.871223 
L 233.012134 236.200545 
L 233.581162 228.888268 
L 234.388387 215.344601 
L 235.738174 188.356603 
L 238.345115 136.292009 
L 239.701518 113.846219 
L 240.885889 97.765009 
L 241.957779 86.07889 
L 242.943652 77.630592 
L 243.850126 71.673224 
L 244.677202 67.628875 
L 245.418261 65.037067 
L 246.073304 63.48986 
L 246.642332 62.66697 
L 247.13196 62.318059 
L 247.568656 62.268217 
L 248.005352 62.449035 
L 248.49498 62.907972 
L 249.077241 63.779818 
L 249.778601 65.257643 
L 250.625526 67.594827 
L 251.651099 71.119676 
L 252.901636 76.261319 
L 254.469771 83.707844 
L 256.57385 94.864387 
L 260.385012 116.521946 
L 264.599787 140.017657 
L 267.431692 154.55549 
L 269.946 166.331589 
L 272.288277 176.26512 
L 274.524688 184.805182 
L 276.688316 192.210372 
L 278.799012 198.659928 
L 280.876625 204.307475 
L 282.927771 209.250793 
L 284.959067 213.577955 
L 286.990364 217.390234 
L 289.02166 220.73713 
L 291.06619 223.683915 
L 293.137186 226.283904 
L 295.247881 228.580504 
L 297.41151 230.609055 
L 298.152569 231.235598 
L 298.152569 231.235598 
" style="fill:none;stroke:#000000;stroke-linecap:round;stroke-width:0.5;"/>
   </g>
   <g id="line2d_72">
    <path clip-path="url(#p4162f3c193)" d="M 231.986561 242.116364 
L 232.112277 242.008934 
L 232.297542 241.454178 
L 232.582055 239.757382 
L 232.985668 235.811631 
L 233.548079 227.863318 
L 234.342071 213.152548 
L 235.665391 183.852217 
L 238.285565 125.804719 
L 239.628735 101.206089 
L 240.80649 83.525319 
L 241.878379 70.624602 
L 242.857636 61.371197 
L 243.757494 54.847011 
L 244.577953 50.413757 
L 245.319012 47.544344 
L 245.974055 45.828035 
L 246.536466 44.918579 
L 247.019478 44.522568 
L 247.436324 44.447688 
L 247.85317 44.604626 
L 248.316332 45.033674 
L 248.872126 45.876955 
L 249.540403 47.324155 
L 250.354245 49.656566 
L 251.333502 53.180814 
L 252.531107 58.373889 
L 254.019842 65.882163 
L 255.971739 76.953491 
L 259.048458 95.863201 
L 264.527004 129.50194 
L 267.378759 145.543971 
L 269.9063 158.524555 
L 272.26181 169.484228 
L 274.504838 178.886272 
L 276.675083 187.044516 
L 278.785779 194.133157 
L 280.856775 200.326791 
L 282.901304 205.754295 
L 284.925984 210.510709 
L 286.944047 214.693166 
L 288.955494 218.359552 
L 290.980174 221.594376 
L 293.018087 224.437496 
L 295.089083 226.949664 
L 297.206395 229.17101 
L 298.152569 230.061693 
L 298.152569 230.061693 
" style="fill:none;stroke:#000000;stroke-linecap:round;stroke-width:0.5;"/>
   </g>
   <g id="patch_13">
    <path d="M 228.678261 252 
L 228.678261 34.56 
" style="fill:none;stroke:#000000;stroke-linecap:square;stroke-linejoin:miter;"/>
   </g>
   <g id="patch_14">
    <path d="M 301.46087 252 
L 301.46087 34.56 
" style="fill:none;stroke:#000000;stroke-linecap:square;stroke-linejoin:miter;"/>
   </g>
   <g id="patch_15">
    <path d="M 228.678261 252 
L 301.46087 252 
" style="fill:none;stroke:#000000;stroke-linecap:square;stroke-linejoin:miter;"/>
   </g>
   <g id="patch_16">
    <path d="M 228.678261 34.56 
L 301.46087 34.56 
" style="fill:none;stroke:#000000;stroke-linecap:square;stroke-linejoin:miter;"/>
   </g>
   <g id="matplotlib.axis_5">
    <g id="xtick_7">
     <g id="line2d_73"/>
     <g id="text_23">
      <text style="font-family:Arial;font-size:8px;font-style:normal;font-weight:normal;text-anchor:middle;" transform="rotate(-0, 231.986561, 261.22625)" x="231.986561" y="261.22625">0</text>
     </g>
    </g>
    <g id="xtick_8">
     <g id="line2d_74"/>
     <g id="text_24">
      <text style="font-family:Arial;font-size:8px;font-style:normal;font-weight:normal;text-anchor:middle;" transform="rotate(-0, 265.069565, 261.22625)" x="265.069565" y="261.22625">50</text>
     </g>
    </g>
    <g id="xtick_9">
     <g id="line2d_75"/>
     <g id="text_25">
      <text style="font-family:Arial;font-size:8px;font-style:normal;font-weight:normal;text-anchor:middle;" transform="rotate(-0, 298.152569, 261.22625)" x="298.152569" y="261.22625">100</text>
     </g>
    </g>
   </g>
   <g id="matplotlib.axis_6">
    <g id="ytick_17">
     <g id="line2d_76"/>
     <g id="text_26">
      <text style="font-family:Arial;font-size:8px;font-style:normal;font-weight:normal;text-anchor:end;" transform="rotate(-0, 225.178261, 244.979489)" x="225.178261" y="244.979489">0</text>
     </g>
    </g>
    <g id="ytick_18">
     <g id="line2d_77"/>
     <g id="text_27">
      <text style="font-family:Arial;font-size:8px;font-style:normal;font-weight:normal;text-anchor:end;" transform="rotate(-0, 225.178261, 216.63218)" x="225.178261" y="216.63218">2</text>
     </g>
    </g>
    <g id="ytick_19">
     <g id="line2d_78"/>
     <g id="text_28">
      <text style="font-family:Arial;font-size:8px;font-style:normal;font-weight:normal;text-anchor:end;" transform="rotate(-0, 225.178261, 188.284871)" x="225.178261" y="188.284871">4</text>
     </g>
    </g>
    <g id="ytick_20">
     <g id="line2d_79"/>
     <g id="text_29">
      <text style="font-family:Arial;font-size:8px;font-style:normal;font-weight:normal;text-anchor:end;" transform="rotate(-0, 225.178261, 159.937563)" x="225.178261" y="159.937563">6</text>
     </g>
    </g>
    <g id="ytick_21">
     <g id="line2d_80"/>
     <g id="text_30">
      <text style="font-family:Arial;font-size:8px;font-style:normal;font-weight:normal;text-anchor:end;" transform="rotate(-0, 225.178261, 131.590254)" x="225.178261" y="131.590254">8</text>
     </g>
    </g>
    <g id="ytick_22">
     <g id="line2d_81"/>
     <g id="text_31">
      <text style="font-family:Arial;font-size:8px;font-style:normal;font-weight:normal;text-anchor:end;" transform="rotate(-0, 225.178261, 103.242946)" x="225.178261" y="103.242946">10</text>
     </g>
    </g>
    <g id="ytick_23">
     <g id="line2d_82"/>
     <g id="text_32">
      <text style="font-family:Arial;font-size:8px;font-style:normal;font-weight:normal;text-anchor:end;" transform="rotate(-0, 225.178261, 74.895637)" x="225.178261" y="74.895637">12</text>
     </g>
    </g>
    <g id="ytick_24">
     <g id="line2d_83"/>
     <g id="text_33">
      <text style="font-family:Arial;font-size:8px;font-style:normal;font-weight:normal;text-anchor:end;" transform="rotate(-0, 225.178261, 46.548328)" x="225.178261" y="46.548328">14</text>
     </g>
    </g>
   </g>
  </g>
  <g id="axes_4">
   <g id="patch_17">
    <path d="M 316.017391 252 
L 388.8 252 
L 388.8 34.56 
L 316.017391 34.56 
z
" style="fill:#ffffff;"/>
   </g>
   <g id="patch_18">
    <path d="M 316.017391 252 
L 316.017391 34.56 
" style="fill:none;stroke:#000000;stroke-linecap:square;stroke-linejoin:miter;"/>
   </g>
   <g id="patch_19">
    <path d="M 388.8 252 
L 388.8 34.56 
" style="fill:none;stroke:#000000;stroke-linecap:square;stroke-linejoin:miter;"/>
   </g>
   <g id="patch_20">
    <path d="M 316.017391 252 
L 388.8 252 
" style="fill:none;stroke:#000000;stroke-linecap:square;stroke-linejoin:miter;"/>
   </g>
   <g id="patch_21">
    <path d="M 316.017391 34.56 
L 388.8 34.56 
" style="fill:none;stroke:#000000;stroke-linecap:square;stroke-linejoin:miter;"/>
   </g>
   <g id="matplotlib.axis_7">
    <g id="xtick_10">
     <g id="line2d_84"/>
     <g id="text_34">
      <text style="font-family:Arial;font-size:8px;font-style:normal;font-weight:normal;text-anchor:middle;" transform="rotate(-0, 316.017391, 261.22625)" x="316.017391" y="261.22625">0.0</text>
     </g>
    </g>
    <g id="xtick_11">
     <g id="line2d_85"/>
     <g id="text_35">
      <text style="font-family:Arial;font-size:8px;font-style:normal;font-weight:normal;text-anchor:middle;" transform="rotate(-0, 352.408696, 261.22625)" x="352.408696" y="261.22625">0.5</text>
     </g>
    </g>
    <g id="xtick_12">
     <g id="line2d_86"/>
     <g id="text_36">
      <text style="font-family:Arial;font-size:8px;font-style:normal;font-weight:normal;text-anchor:middle;" transform="rotate(-0, 388.8, 261.22625)" x="388.8" y="261.22625">1.0</text>
     </g>
    </g>
   </g>
   <g id="matplotlib.axis_8">
    <g id="ytick_25">
     <g id="line2d_87"/>
     <g id="text_37">
      <text style="font-family:Arial;font-size:8px;font-style:normal;font-weight:normal;text-anchor:end;" transform="rotate(-0, 312.517391, 254.863125)" x="312.517391" y="254.863125">0.0</text>
     </g>
    </g>
    <g id="ytick_26">
     <g id="line2d_88"/>
     <g id="text_38">
      <text style="font-family:Arial;font-size:8px;font-style:normal;font-weight:normal;text-anchor:end;" transform="rotate(-0, 312.517391, 211.375125)" x="312.517391" y="211.375125">0.2</text>
     </g>
    </g>
    <g id="ytick_27">
     <g id="line2d_89"/>
     <g id="text_39">
      <text style="font-family:Arial;font-size:8px;font-style:normal;font-weight:normal;text-anchor:end;" transform="rotate(-0, 312.517391, 167.887125)" x="312.517391" y="167.887125">0.4</text>
     </g>
    </g>
    <g id="ytick_28">
     <g id="line2d_90"/>
     <g id="text_40">
      <text style="font-family:Arial;font-size:8px;font-style:normal;font-weight:normal;text-anchor:end;" transform="rotate(-0, 312.517391, 124.399125)" x="312.517391" y="124.399125">0.6</text>
     </g>
    </g>
    <g id="ytick_29">
     <g id="line2d_91"/>
     <g id="text_41">
      <text style="font-family:Arial;font-size:8px;font-style:normal;font-weight:normal;text-anchor:end;" transform="rotate(-0, 312.517391, 80.911125)" x="312.517391" y="80.911125">0.8</text>
     </g>
    </g>
    <g id="ytick_30">
     <g id="line2d_92"/>
     <g id="text_42">
      <text style="font-family:Arial;font-size:8px;font-style:normal;font-weight:normal;text-anchor:end;" transform="rotate(-0, 312.517391, 37.423125)" x="312.517391" y="37.423125">1.0</text>
     </g>
    </g>
   </g>
  </g>
 </g>
 <defs>
  <clipPath id="p619bfcc62d">
   <rect height="217.44" width="72.782609" x="54" y="34.56"/>
  </clipPath>
  <clipPath id="pf3397e6166">
   <rect height="217.44" width="72.782609" x="141.33913" y="34.56"/>
  </clipPath>
  <clipPath id="p4162f3c193">
   <rect height="217.44" width="72.782609" x="228.678261" y="34.56"/>
  </clipPath>
 </defs>
</svg>
