<?xml version="1.0" encoding="utf-8" standalone="no"?>
<!DOCTYPE svg PUBLIC "-//W3C//DTD SVG 1.1//EN"
  "http://www.w3.org/Graphics/SVG/1.1/DTD/svg11.dtd">
<!-- Created with matplotlib (http://matplotlib.org/) -->
<svg height="120pt" version="1.1" viewBox="0 0 156 120" width="156pt" xmlns="http://www.w3.org/2000/svg" xmlns:xlink="http://www.w3.org/1999/xlink">
 <defs>
  <style type="text/css">
*{stroke-linecap:butt;stroke-linejoin:round;}
  </style>
 </defs>
 <g id="figure_1">
  <g id="patch_1">
   <path d="M 0 120.140625 
L 156.230625 120.140625 
L 156.230625 0 
L 0 0 
z
" style="fill:none;opacity:0;"/>
  </g>
  <g id="axes_1">
   <g id="patch_2">
    <path d="M 32.981875 88.74 
L 83.709148 88.74 
L 83.709148 7.2 
L 32.981875 7.2 
z
" style="fill:none;"/>
   </g>
   <g id="LineCollection_1">
    <path clip-path="url(#p201240cfbd)" d="M 35.376587 79.518906 
L 48.371939 79.518906 
" style="fill:none;stroke:#ff0000;stroke-width:0.5;"/>
    <path clip-path="url(#p201240cfbd)" d="M 41.528239 71.400709 
L 61.127893 71.400709 
" style="fill:none;stroke:#ff0000;stroke-width:0.5;"/>
    <path clip-path="url(#p201240cfbd)" d="M 58.014919 58.418036 
L 72.141056 58.418036 
" style="fill:none;stroke:#ff0000;stroke-width:0.5;"/>
    <path clip-path="url(#p201240cfbd)" d="M 62.839496 48.288947 
L 77.342073 48.288947 
" style="fill:none;stroke:#ff0000;stroke-width:0.5;"/>
    <path clip-path="url(#p201240cfbd)" d="M 67.502839 38.602809 
L 78.584305 38.602809 
" style="fill:none;stroke:#ff0000;stroke-width:0.5;"/>
    <path clip-path="url(#p201240cfbd)" d="M 67.325304 25.630059 
L 77.547812 25.630059 
" style="fill:none;stroke:#ff0000;stroke-width:0.5;"/>
    <path clip-path="url(#p201240cfbd)" d="M 74.757791 10.643757 
L 82.744451 10.643757 
" style="fill:none;stroke:#ff0000;stroke-width:0.5;"/>
   </g>
   <g id="line2d_1">
    <defs>
     <path d="M 0 2 
C 0.530406 2 1.03916 1.789267 1.414214 1.414214 
C 1.789267 1.03916 2 0.530406 2 0 
C 2 -0.530406 1.789267 -1.03916 1.414214 -1.414214 
C 1.03916 -1.789267 0.530406 -2 0 -2 
C -0.530406 -2 -1.03916 -1.789267 -1.414214 -1.414214 
C -1.789267 -1.03916 -2 -0.530406 -2 0 
C -2 0.530406 -1.789267 1.03916 -1.414214 1.414214 
C -1.03916 1.789267 -0.530406 2 0 2 
z
" id="m91d91bd57d" style="stroke:#ff0000;"/>
    </defs>
    <g clip-path="url(#p201240cfbd)">
     <use style="fill:#ff0000;stroke:#ff0000;" x="41.874263" xlink:href="#m91d91bd57d" y="79.518906"/>
     <use style="fill:#ff0000;stroke:#ff0000;" x="51.328066" xlink:href="#m91d91bd57d" y="71.400709"/>
     <use style="fill:#ff0000;stroke:#ff0000;" x="65.077988" xlink:href="#m91d91bd57d" y="58.418036"/>
     <use style="fill:#ff0000;stroke:#ff0000;" x="70.090784" xlink:href="#m91d91bd57d" y="48.288947"/>
     <use style="fill:#ff0000;stroke:#ff0000;" x="73.043572" xlink:href="#m91d91bd57d" y="38.602809"/>
     <use style="fill:#ff0000;stroke:#ff0000;" x="72.436558" xlink:href="#m91d91bd57d" y="25.630059"/>
     <use style="fill:#ff0000;stroke:#ff0000;" x="78.751121" xlink:href="#m91d91bd57d" y="10.643757"/>
    </g>
   </g>
   <g id="line2d_2"/>
   <g id="patch_3">
    <path d="M 32.981875 88.74 
L 32.981875 7.2 
" style="fill:none;stroke:#000000;stroke-linecap:square;stroke-linejoin:miter;"/>
   </g>
   <g id="patch_4">
    <path d="M 32.981875 88.74 
L 83.709148 88.74 
" style="fill:none;stroke:#000000;stroke-linecap:square;stroke-linejoin:miter;"/>
   </g>
   <g id="matplotlib.axis_1">
    <g id="xtick_1">
     <g id="line2d_3"/>
     <g id="text_1">
      <text style="font-family:Arial;font-size:8px;font-style:normal;font-weight:normal;text-anchor:middle;" transform="rotate(-0, 47.248921, 97.96625)" x="47.248921" y="97.96625">2.5</text>
     </g>
    </g>
    <g id="xtick_2">
     <g id="line2d_4"/>
     <g id="text_2">
      <text style="font-family:Arial;font-size:8px;font-style:normal;font-weight:normal;text-anchor:middle;" transform="rotate(-0, 65.32699, 97.96625)" x="65.32699" y="97.96625">5.0</text>
     </g>
    </g>
    <g id="xtick_3">
     <g id="line2d_5"/>
     <g id="text_3">
      <text style="font-family:Arial;font-size:8px;font-style:normal;font-weight:normal;text-anchor:middle;" transform="rotate(-0, 83.405059, 97.96625)" x="83.405059" y="97.96625">7.5</text>
     </g>
    </g>
    <g id="text_4">
     <text style="font-family:Arial;font-size:10px;font-style:normal;font-weight:normal;text-anchor:middle;" transform="rotate(-0, 58.345511, 110.835938)" x="58.345511" y="110.835938">Pk Vm (mV)</text>
    </g>
   </g>
   <g id="matplotlib.axis_2">
    <g id="ytick_1">
     <g id="line2d_6"/>
     <g id="text_5">
      <text style="font-family:Arial;font-size:8px;font-style:normal;font-weight:normal;text-anchor:end;" transform="rotate(-0, 29.481875, 91.603125)" x="29.481875" y="91.603125">0</text>
     </g>
    </g>
    <g id="ytick_2">
     <g id="line2d_7"/>
     <g id="text_6">
      <text style="font-family:Arial;font-size:8px;font-style:normal;font-weight:normal;text-anchor:end;" transform="rotate(-0, 29.481875, 73.274482)" x="29.481875" y="73.274482">5</text>
     </g>
    </g>
    <g id="ytick_3">
     <g id="line2d_8"/>
     <g id="text_7">
      <text style="font-family:Arial;font-size:8px;font-style:normal;font-weight:normal;text-anchor:end;" transform="rotate(-0, 29.481875, 54.945839)" x="29.481875" y="54.945839">10</text>
     </g>
    </g>
    <g id="ytick_4">
     <g id="line2d_9"/>
     <g id="text_8">
      <text style="font-family:Arial;font-size:8px;font-style:normal;font-weight:normal;text-anchor:end;" transform="rotate(-0, 29.481875, 36.617196)" x="29.481875" y="36.617196">15</text>
     </g>
    </g>
    <g id="ytick_5">
     <g id="line2d_10"/>
     <g id="text_9">
      <text style="font-family:Arial;font-size:8px;font-style:normal;font-weight:normal;text-anchor:end;" transform="rotate(-0, 29.481875, 18.288553)" x="29.481875" y="18.288553">20</text>
     </g>
    </g>
    <g id="text_10">
     <text style="font-family:Arial;font-size:10px;font-style:normal;font-weight:normal;text-anchor:middle;" transform="rotate(-90, 14.479688, 47.97)" x="14.479688" y="47.97">Expected (mV)</text>
    </g>
   </g>
  </g>
  <g id="axes_2">
   <g id="patch_5">
    <path d="M 93.854602 88.74 
L 144.581875 88.74 
L 144.581875 7.2 
L 93.854602 7.2 
z
" style="fill:none;"/>
   </g>
   <g id="LineCollection_2">
    <path clip-path="url(#p81705d2572)" d="M 115.565875 79.518906 
L 118.305148 79.518906 
" style="fill:none;stroke:#ff0000;stroke-width:0.5;"/>
    <path clip-path="url(#p81705d2572)" d="M 115.367022 71.400709 
L 145.874182 71.400709 
" style="fill:none;stroke:#ff0000;stroke-width:0.5;"/>
    <path clip-path="url(#p81705d2572)" d="M 122.784571 58.418036 
L 139.808768 58.418036 
" style="fill:none;stroke:#ff0000;stroke-width:0.5;"/>
    <path clip-path="url(#p81705d2572)" d="M 120.464798 48.288947 
L 137.085716 48.288947 
" style="fill:none;stroke:#ff0000;stroke-width:0.5;"/>
    <path clip-path="url(#p81705d2572)" d="M 120.4252 38.602809 
L 133.297095 38.602809 
" style="fill:none;stroke:#ff0000;stroke-width:0.5;"/>
    <path clip-path="url(#p81705d2572)" d="M 119.785838 25.630059 
L 128.085912 25.630059 
" style="fill:none;stroke:#ff0000;stroke-width:0.5;"/>
    <path clip-path="url(#p81705d2572)" d="M 122.669232 10.643757 
L 124.154154 10.643757 
" style="fill:none;stroke:#ff0000;stroke-width:0.5;"/>
   </g>
   <g id="line2d_11">
    <g clip-path="url(#p81705d2572)">
     <use style="fill:#ff0000;stroke:#ff0000;" x="116.935511" xlink:href="#m91d91bd57d" y="79.518906"/>
     <use style="fill:#ff0000;stroke:#ff0000;" x="130.620602" xlink:href="#m91d91bd57d" y="71.400709"/>
     <use style="fill:#ff0000;stroke:#ff0000;" x="131.296669" xlink:href="#m91d91bd57d" y="58.418036"/>
     <use style="fill:#ff0000;stroke:#ff0000;" x="128.775257" xlink:href="#m91d91bd57d" y="48.288947"/>
     <use style="fill:#ff0000;stroke:#ff0000;" x="126.861148" xlink:href="#m91d91bd57d" y="38.602809"/>
     <use style="fill:#ff0000;stroke:#ff0000;" x="123.935875" xlink:href="#m91d91bd57d" y="25.630059"/>
     <use style="fill:#ff0000;stroke:#ff0000;" x="123.411693" xlink:href="#m91d91bd57d" y="10.643757"/>
    </g>
   </g>
   <g id="line2d_12"/>
   <g id="patch_6">
    <path d="M 93.854602 88.74 
L 93.854602 7.2 
" style="fill:none;stroke:#000000;stroke-linecap:square;stroke-linejoin:miter;"/>
   </g>
   <g id="patch_7">
    <path d="M 93.854602 88.74 
L 144.581875 88.74 
" style="fill:none;stroke:#000000;stroke-linecap:square;stroke-linejoin:miter;"/>
   </g>
   <g id="matplotlib.axis_3">
    <g id="xtick_4">
     <g id="line2d_13"/>
     <g id="text_11">
      <text style="font-family:Arial;font-size:8px;font-style:normal;font-weight:normal;text-anchor:middle;" transform="rotate(-0, 104.000057, 97.96625)" x="104.000057" y="97.96625">20</text>
     </g>
    </g>
    <g id="xtick_5">
     <g id="line2d_14"/>
     <g id="text_12">
      <text style="font-family:Arial;font-size:8px;font-style:normal;font-weight:normal;text-anchor:middle;" transform="rotate(-0, 144.581875, 97.96625)" x="144.581875" y="97.96625">40</text>
     </g>
    </g>
    <g id="text_13">
     <text style="font-family:Arial;font-size:10px;font-style:normal;font-weight:normal;text-anchor:middle;" transform="rotate(-0, 119.218239, 110.835938)" x="119.218239" y="110.835938">Pk time (ms)</text>
    </g>
   </g>
   <g id="matplotlib.axis_4">
    <g id="ytick_6">
     <g id="line2d_15"/>
    </g>
    <g id="ytick_7">
     <g id="line2d_16"/>
    </g>
    <g id="ytick_8">
     <g id="line2d_17"/>
    </g>
    <g id="ytick_9">
     <g id="line2d_18"/>
    </g>
    <g id="ytick_10">
     <g id="line2d_19"/>
    </g>
   </g>
  </g>
 </g>
 <defs>
  <clipPath id="p201240cfbd">
   <rect height="81.54" width="50.727273" x="32.981875" y="7.2"/>
  </clipPath>
  <clipPath id="p81705d2572">
   <rect height="81.54" width="50.727273" x="93.854602" y="7.2"/>
  </clipPath>
 </defs>
</svg>
