<?xml version="1.0" encoding="utf-8" standalone="no"?>
<!DOCTYPE svg PUBLIC "-//W3C//DTD SVG 1.1//EN"
  "http://www.w3.org/Graphics/SVG/1.1/DTD/svg11.dtd">
<!-- Created with matplotlib (http://matplotlib.org/) -->
<svg height="108pt" version="1.1" viewBox="0 0 110 108" width="110pt" xmlns="http://www.w3.org/2000/svg" xmlns:xlink="http://www.w3.org/1999/xlink">
 <defs>
  <style type="text/css">
*{stroke-linecap:butt;stroke-linejoin:round;}
  </style>
 </defs>
 <g id="figure_1">
  <g id="patch_1">
   <path d="M 0 108.125607 
L 110.4975 108.125607 
L 110.4975 0 
L 0 0 
z
" style="fill:none;opacity:0;"/>
  </g>
  <g id="axes_1">
   <g id="patch_2">
    <path d="M 19.5975 90.109357 
L 103.2975 90.109357 
L 103.2975 8.569357 
L 19.5975 8.569357 
z
" style="fill:none;"/>
   </g>
   <g id="PathCollection_1">
    <defs>
     <path d="M 0 1.936492 
C 0.513564 1.936492 1.006162 1.732451 1.369306 1.369306 
C 1.732451 1.006162 1.936492 0.513564 1.936492 0 
C 1.936492 -0.513564 1.732451 -1.006162 1.369306 -1.369306 
C 1.006162 -1.732451 0.513564 -1.936492 0 -1.936492 
C -0.513564 -1.936492 -1.006162 -1.732451 -1.369306 -1.369306 
C -1.732451 -1.006162 -1.936492 -0.513564 -1.936492 0 
C -1.936492 0.513564 -1.732451 1.006162 -1.369306 1.369306 
C -1.006162 1.732451 -0.513564 1.936492 0 1.936492 
z
" id="m275f883816" style="stroke:#440154;"/>
    </defs>
    <g clip-path="url(#p571fb9daae)">
     <use style="fill:#440154;stroke:#440154;" x="51.260389" xlink:href="#m275f883816" y="73.145299"/>
    </g>
   </g>
   <g id="PathCollection_2">
    <g clip-path="url(#p571fb9daae)">
     <use style="fill:#440154;stroke:#440154;" x="37.367023" xlink:href="#m275f883816" y="80.792952"/>
    </g>
   </g>
   <g id="PathCollection_3">
    <g clip-path="url(#p571fb9daae)">
     <use style="fill:#440154;stroke:#440154;" x="49.691321" xlink:href="#m275f883816" y="64.069947"/>
    </g>
   </g>
   <g id="PathCollection_4">
    <g clip-path="url(#p571fb9daae)">
     <use style="fill:#440154;stroke:#440154;" x="62.99962" xlink:href="#m275f883816" y="14.99469"/>
    </g>
   </g>
   <g id="PathCollection_5">
    <g clip-path="url(#p571fb9daae)">
     <use style="fill:#440154;stroke:#440154;" x="36.363196" xlink:href="#m275f883816" y="86.698271"/>
    </g>
   </g>
   <g id="LineCollection_1">
    <path clip-path="url(#p571fb9daae)" d="M 51.260389 73.145299 
L 51.260389 73.145299 
" style="fill:none;stroke:#808080;stroke-width:0.5;"/>
   </g>
   <g id="LineCollection_2">
    <path clip-path="url(#p571fb9daae)" d="M 51.260389 73.145301 
L 51.260389 73.145298 
" style="fill:none;stroke:#808080;stroke-width:0.5;"/>
   </g>
   <g id="LineCollection_3">
    <path clip-path="url(#p571fb9daae)" d="M 37.367023 80.792952 
L 37.367023 80.792952 
" style="fill:none;stroke:#808080;stroke-width:0.5;"/>
   </g>
   <g id="LineCollection_4">
    <path clip-path="url(#p571fb9daae)" d="M 37.367023 80.792952 
L 37.367023 80.792952 
" style="fill:none;stroke:#808080;stroke-width:0.5;"/>
   </g>
   <g id="LineCollection_5">
    <path clip-path="url(#p571fb9daae)" d="M 49.691321 64.069947 
L 49.691321 64.069947 
" style="fill:none;stroke:#808080;stroke-width:0.5;"/>
   </g>
   <g id="LineCollection_6">
    <path clip-path="url(#p571fb9daae)" d="M 49.691321 64.069948 
L 49.691321 64.069945 
" style="fill:none;stroke:#808080;stroke-width:0.5;"/>
   </g>
   <g id="LineCollection_7">
    <path clip-path="url(#p571fb9daae)" d="M 62.99962 14.99469 
L 62.99962 14.99469 
" style="fill:none;stroke:#808080;stroke-width:0.5;"/>
   </g>
   <g id="LineCollection_8">
    <path clip-path="url(#p571fb9daae)" d="M 62.99962 14.994692 
L 62.99962 14.994689 
" style="fill:none;stroke:#808080;stroke-width:0.5;"/>
   </g>
   <g id="LineCollection_9">
    <path clip-path="url(#p571fb9daae)" d="M 36.363196 86.698271 
L 36.363196 86.698271 
" style="fill:none;stroke:#808080;stroke-width:0.5;"/>
   </g>
   <g id="LineCollection_10">
    <path clip-path="url(#p571fb9daae)" d="M 36.363196 86.698271 
L 36.363196 86.69827 
" style="fill:none;stroke:#808080;stroke-width:0.5;"/>
   </g>
   <g id="line2d_1">
    <path clip-path="url(#p571fb9daae)" d="M 28.411353 109.125607 
L 28.76017 108.30148 
L 29.242416 107.162107 
L 29.724661 106.022734 
L 30.206907 104.883361 
L 30.689153 103.743988 
L 31.171399 102.604615 
L 31.653645 101.465242 
L 32.13589 100.325869 
L 32.618136 99.186497 
L 33.100382 98.047124 
L 33.582628 96.907751 
L 34.064873 95.768378 
L 34.547119 94.629005 
L 35.029365 93.489632 
L 35.511611 92.350259 
L 35.993857 91.210886 
L 36.476102 90.071514 
L 36.958348 88.932141 
L 37.440594 87.792768 
L 37.92284 86.653395 
L 38.405086 85.514022 
L 38.887331 84.374649 
L 39.369577 83.235276 
L 39.851823 82.095903 
L 40.334069 80.956531 
L 40.816314 79.817158 
L 41.29856 78.677785 
L 41.780806 77.538412 
L 42.263052 76.399039 
L 42.745298 75.259666 
L 43.227543 74.120293 
L 43.709789 72.98092 
L 44.192035 71.841547 
L 44.674281 70.702175 
L 45.156526 69.562802 
L 45.638772 68.423429 
L 46.121018 67.284056 
L 46.603264 66.144683 
L 47.08551 65.00531 
L 47.567755 63.865937 
L 48.050001 62.726564 
L 48.532247 61.587192 
L 49.014493 60.447819 
L 49.496739 59.308446 
L 49.978984 58.169073 
L 50.46123 57.0297 
L 50.943476 55.890327 
L 51.425722 54.750954 
L 51.907967 53.611581 
L 52.390213 52.472209 
L 52.872459 51.332836 
L 53.354705 50.193463 
L 53.836951 49.05409 
L 54.319196 47.914717 
L 54.801442 46.775344 
L 55.283688 45.635971 
L 55.765934 44.496598 
L 56.248179 43.357225 
L 56.730425 42.217853 
L 57.212671 41.07848 
L 57.694917 39.939107 
L 58.177163 38.799734 
L 58.659408 37.660361 
L 59.141654 36.520988 
L 59.6239 35.381615 
L 60.106146 34.242242 
L 60.588392 33.10287 
L 61.070637 31.963497 
L 61.552883 30.824124 
L 62.035129 29.684751 
L 62.517375 28.545378 
L 62.99962 27.406005 
L 63.481866 26.266632 
L 63.964112 25.127259 
L 64.446358 23.987887 
L 64.928604 22.848514 
L 65.410849 21.709141 
L 65.893095 20.569768 
L 66.375341 19.430395 
L 66.857587 18.291022 
L 67.339833 17.151649 
" style="fill:none;stroke:#808080;stroke-dasharray:1.85,0.8;stroke-dashoffset:0;stroke-width:0.5;"/>
   </g>
   <g id="line2d_2">
    <path clip-path="url(#p571fb9daae)" d="M 19.5975 90.109357 
L 103.2975 8.569357 
" style="fill:none;stroke:#000000;stroke-dasharray:1.85,0.8;stroke-dashoffset:0;stroke-width:0.5;"/>
   </g>
   <g id="line2d_3">
    <defs>
     <path d="M 0 0.75 
C 0.198902 0.75 0.389685 0.670975 0.53033 0.53033 
C 0.670975 0.389685 0.75 0.198902 0.75 0 
C 0.75 -0.198902 0.670975 -0.389685 0.53033 -0.53033 
C 0.389685 -0.670975 0.198902 -0.75 0 -0.75 
C -0.198902 -0.75 -0.389685 -0.670975 -0.53033 -0.53033 
C -0.670975 -0.389685 -0.75 -0.198902 -0.75 0 
C -0.75 0.198902 -0.670975 0.389685 -0.53033 0.53033 
C -0.389685 0.670975 -0.198902 0.75 0 0.75 
z
" id="m4b953aaf2c" style="stroke:#000000;"/>
    </defs>
    <g clip-path="url(#p571fb9daae)">
     <use style="stroke:#000000;" x="51.260389" xlink:href="#m4b953aaf2c" y="73.145299"/>
    </g>
   </g>
   <g id="line2d_4">
    <g clip-path="url(#p571fb9daae)">
     <use style="stroke:#000000;" x="37.367023" xlink:href="#m4b953aaf2c" y="80.792952"/>
    </g>
   </g>
   <g id="line2d_5">
    <g clip-path="url(#p571fb9daae)">
     <use style="stroke:#000000;" x="49.691321" xlink:href="#m4b953aaf2c" y="64.069947"/>
    </g>
   </g>
   <g id="line2d_6">
    <g clip-path="url(#p571fb9daae)">
     <use style="stroke:#000000;" x="62.99962" xlink:href="#m4b953aaf2c" y="14.99469"/>
    </g>
   </g>
   <g id="line2d_7">
    <g clip-path="url(#p571fb9daae)">
     <use style="stroke:#000000;" x="36.363196" xlink:href="#m4b953aaf2c" y="86.698271"/>
    </g>
   </g>
   <g id="patch_3">
    <path d="M 19.5975 90.109357 
L 19.5975 8.569357 
" style="fill:none;stroke:#000000;stroke-linecap:square;stroke-linejoin:miter;"/>
   </g>
   <g id="patch_4">
    <path d="M 19.5975 90.109357 
L 103.2975 90.109357 
" style="fill:none;stroke:#000000;stroke-linecap:square;stroke-linejoin:miter;"/>
   </g>
   <g id="matplotlib.axis_1">
    <g id="xtick_1">
     <g id="line2d_8"/>
     <g id="text_1">
      <text style="font-family:Arial;font-size:8px;font-style:normal;font-weight:normal;text-anchor:middle;" transform="rotate(-0, 19.5975, 99.335607)" x="19.5975" y="99.335607">0</text>
     </g>
    </g>
    <g id="xtick_2">
     <g id="line2d_9"/>
     <g id="text_2">
      <text style="font-family:Arial;font-size:8px;font-style:normal;font-weight:normal;text-anchor:middle;" transform="rotate(-0, 74.375275, 99.335607)" x="74.375275" y="99.335607">20</text>
     </g>
    </g>
   </g>
   <g id="matplotlib.axis_2">
    <g id="ytick_1">
     <g id="line2d_10"/>
     <g id="text_3">
      <text style="font-family:Arial;font-size:8px;font-style:normal;font-weight:normal;text-anchor:end;" transform="rotate(-0, 16.0975, 92.972482)" x="16.0975" y="92.972482">0</text>
     </g>
    </g>
    <g id="ytick_2">
     <g id="line2d_11"/>
     <g id="text_4">
      <text style="font-family:Arial;font-size:8px;font-style:normal;font-weight:normal;text-anchor:end;" transform="rotate(-0, 16.0975, 66.290405)" x="16.0975" y="66.290405">10</text>
     </g>
    </g>
    <g id="ytick_3">
     <g id="line2d_12"/>
     <g id="text_5">
      <text style="font-family:Arial;font-size:8px;font-style:normal;font-weight:normal;text-anchor:end;" transform="rotate(-0, 16.0975, 39.608327)" x="16.0975" y="39.608327">20</text>
     </g>
    </g>
    <g id="ytick_4">
     <g id="line2d_13"/>
     <g id="text_6">
      <text style="font-family:Arial;font-size:8px;font-style:normal;font-weight:normal;text-anchor:end;" transform="rotate(-0, 16.0975, 12.92625)" x="16.0975" y="12.92625">30</text>
     </g>
    </g>
   </g>
   <g id="legend_1">
    <g id="line2d_14">
     <path d="M 29.3975 69.434357 
L 49.3975 69.434357 
" style="fill:none;stroke:#808080;stroke-dasharray:1.85,0.8;stroke-dashoffset:0;stroke-width:0.5;"/>
    </g>
    <g id="line2d_15"/>
    <g id="text_7">
     <text style="font-family:Arial;font-size:10px;font-style:normal;font-weight:normal;" transform="translate(57.3975 65.390295)">I/E 2.43</text>
     <!-- $\mathregular{R^2}$  0.83 -->
     <g transform="translate(57.3975 79.752795)">
      <text>
       <tspan style="font-family:Arial;font-size:10px;font-style:regular;font-weight:regular;" x="0 11.786793 14.565113 17.343434 22.904957 25.683277 31.244801" y="-0.999375">R  0.83</tspan>
       <tspan style="font-family:Arial;font-size:7px;font-style:regular;font-weight:regular;" x="7.395914" y="-7.96875">2</tspan>
      </text>
     </g>
    </g>
   </g>
  </g>
 </g>
 <defs>
  <clipPath id="p571fb9daae">
   <rect height="81.54" width="83.7" x="19.5975" y="8.569357"/>
  </clipPath>
 </defs>
</svg>
