<?xml version="1.0" encoding="utf-8" standalone="no"?>
<!DOCTYPE svg PUBLIC "-//W3C//DTD SVG 1.1//EN"
  "http://www.w3.org/Graphics/SVG/1.1/DTD/svg11.dtd">
<!-- Created with matplotlib (http://matplotlib.org/) -->
<svg height="120pt" version="1.1" viewBox="0 0 121 120" width="121pt" xmlns="http://www.w3.org/2000/svg" xmlns:xlink="http://www.w3.org/1999/xlink">
 <defs>
  <style type="text/css">
*{stroke-linecap:butt;stroke-linejoin:round;}
  </style>
 </defs>
 <g id="figure_1">
  <g id="patch_1">
   <path d="M 0 120.140625 
L 121.418437 120.140625 
L 121.418437 0 
L 0 0 
z
" style="fill:none;opacity:0;"/>
  </g>
  <g id="axes_1">
   <g id="patch_2">
    <path d="M 28.294063 88.74 
L 111.994063 88.74 
L 111.994063 7.2 
L 28.294063 7.2 
z
" style="fill:none;"/>
   </g>
   <g id="patch_3">
    <path clip-path="url(#pe952e9bb71)" d="M 68.650654 88.74 
L 70.996253 88.74 
L 70.996253 49.911429 
L 68.650654 49.911429 
z
"/>
   </g>
   <g id="patch_4">
    <path clip-path="url(#pe952e9bb71)" d="M 70.996253 88.74 
L 73.341852 88.74 
L 73.341852 11.082857 
L 70.996253 11.082857 
z
"/>
   </g>
   <g id="patch_5">
    <path clip-path="url(#pe952e9bb71)" d="M 73.341852 88.74 
L 75.687451 88.74 
L 75.687451 49.911429 
L 73.341852 49.911429 
z
"/>
   </g>
   <g id="patch_6">
    <path clip-path="url(#pe952e9bb71)" d="M 75.687451 88.74 
L 78.03305 88.74 
L 78.03305 88.74 
L 75.687451 88.74 
z
"/>
   </g>
   <g id="patch_7">
    <path clip-path="url(#pe952e9bb71)" d="M 78.03305 88.74 
L 80.378649 88.74 
L 80.378649 88.74 
L 78.03305 88.74 
z
"/>
   </g>
   <g id="patch_8">
    <path clip-path="url(#pe952e9bb71)" d="M 80.378649 88.74 
L 82.724248 88.74 
L 82.724248 11.082857 
L 80.378649 11.082857 
z
"/>
   </g>
   <g id="patch_9">
    <path clip-path="url(#pe952e9bb71)" d="M 82.724248 88.74 
L 85.069846 88.74 
L 85.069846 88.74 
L 82.724248 88.74 
z
"/>
   </g>
   <g id="patch_10">
    <path clip-path="url(#pe952e9bb71)" d="M 85.069846 88.74 
L 87.415445 88.74 
L 87.415445 49.911429 
L 85.069846 49.911429 
z
"/>
   </g>
   <g id="patch_11">
    <path clip-path="url(#pe952e9bb71)" d="M 87.415445 88.74 
L 89.761044 88.74 
L 89.761044 49.911429 
L 87.415445 49.911429 
z
"/>
   </g>
   <g id="patch_12">
    <path clip-path="url(#pe952e9bb71)" d="M 89.761044 88.74 
L 92.106643 88.74 
L 92.106643 49.911429 
L 89.761044 49.911429 
z
"/>
   </g>
   <g id="patch_13">
    <path d="M 28.294063 88.74 
L 28.294063 7.2 
" style="fill:none;stroke:#000000;stroke-linecap:square;stroke-linejoin:miter;"/>
   </g>
   <g id="patch_14">
    <path d="M 28.294063 88.74 
L 111.994063 88.74 
" style="fill:none;stroke:#000000;stroke-linecap:square;stroke-linejoin:miter;"/>
   </g>
   <g id="matplotlib.axis_1">
    <g id="xtick_1">
     <g id="line2d_1"/>
     <g id="text_1">
      <text style="font-family:Arial;font-size:8px;font-style:normal;font-weight:400;text-anchor:middle;" transform="rotate(-0, 28.294063, 97.96625)" x="28.294063" y="97.96625">0</text>
     </g>
    </g>
    <g id="xtick_2">
     <g id="line2d_2"/>
     <g id="text_2">
      <text style="font-family:Arial;font-size:8px;font-style:normal;font-weight:400;text-anchor:middle;" transform="rotate(-0, 70.144063, 97.96625)" x="70.144063" y="97.96625">2</text>
     </g>
    </g>
    <g id="xtick_3">
     <g id="line2d_3"/>
     <g id="text_3">
      <text style="font-family:Arial;font-size:8px;font-style:normal;font-weight:400;text-anchor:middle;" transform="rotate(-0, 111.994063, 97.96625)" x="111.994063" y="97.96625">4</text>
     </g>
    </g>
    <g id="text_4">
     <text style="font-family:Arial;font-size:10px;font-style:normal;font-weight:400;text-anchor:middle;" transform="rotate(-0, 70.144063, 110.835938)" x="70.144063" y="110.835938">I/E Ratio (P)</text>
    </g>
   </g>
   <g id="matplotlib.axis_2">
    <g id="ytick_1">
     <g id="line2d_4"/>
     <g id="text_5">
      <text style="font-family:Arial;font-size:8px;font-style:normal;font-weight:400;text-anchor:end;" transform="rotate(-0, 24.794063, 91.603125)" x="24.794063" y="91.603125">0</text>
     </g>
    </g>
    <g id="ytick_2">
     <g id="line2d_5"/>
     <g id="text_6">
      <text style="font-family:Arial;font-size:8px;font-style:normal;font-weight:400;text-anchor:end;" transform="rotate(-0, 24.794063, 52.774554)" x="24.794063" y="52.774554">1</text>
     </g>
    </g>
    <g id="ytick_3">
     <g id="line2d_6"/>
     <g id="text_7">
      <text style="font-family:Arial;font-size:8px;font-style:normal;font-weight:400;text-anchor:end;" transform="rotate(-0, 24.794063, 13.945982)" x="24.794063" y="13.945982">2</text>
     </g>
    </g>
    <g id="text_8">
     <text style="font-family:Arial;font-size:10px;font-style:normal;font-weight:400;text-anchor:middle;" transform="rotate(-90, 14.357813, 47.97)" x="14.357813" y="47.97"># neurons</text>
    </g>
   </g>
  </g>
 </g>
 <defs>
  <clipPath id="pe952e9bb71">
   <rect height="81.54" width="83.7" x="28.294063" y="7.2"/>
  </clipPath>
 </defs>
</svg>
