<?xml version="1.0" encoding="utf-8" standalone="no"?>
<!DOCTYPE svg PUBLIC "-//W3C//DTD SVG 1.1//EN"
  "http://www.w3.org/Graphics/SVG/1.1/DTD/svg11.dtd">
<!-- Created with matplotlib (http://matplotlib.org/) -->
<svg height="161pt" version="1.1" viewBox="0 0 177 161" width="177pt" xmlns="http://www.w3.org/2000/svg" xmlns:xlink="http://www.w3.org/1999/xlink">
 <defs>
  <style type="text/css">
*{stroke-linecap:butt;stroke-linejoin:round;}
  </style>
 </defs>
 <g id="figure_1">
  <g id="patch_1">
   <path d="M 0 161.026563 
L 177.005 161.026563 
L 177.005 0 
L 0 0 
z
" style="fill:none;opacity:0;"/>
  </g>
  <g id="axes_1">
   <g id="patch_2">
    <path d="M 58.205 115.92 
L 169.805 115.92 
L 169.805 7.2 
L 58.205 7.2 
z
" style="fill:none;"/>
   </g>
   <g id="PathCollection_1">
    <defs>
     <path d="M 0 1.118034 
C 0.296506 1.118034 0.580908 1.000231 0.790569 0.790569 
C 1.000231 0.580908 1.118034 0.296506 1.118034 0 
C 1.118034 -0.296506 1.000231 -0.580908 0.790569 -0.790569 
C 0.580908 -1.000231 0.296506 -1.118034 0 -1.118034 
C -0.296506 -1.118034 -0.580908 -1.000231 -0.790569 -0.790569 
C -1.000231 -0.580908 -1.118034 -0.296506 -1.118034 0 
C -1.118034 0.296506 -1.000231 0.580908 -0.790569 0.790569 
C -0.580908 1.000231 -0.296506 1.118034 0 1.118034 
z
" id="m572d5403b9" style="stroke:#440154;"/>
    </defs>
    <g clip-path="url(#p846455f0fd)">
     <use style="fill:#440154;stroke:#440154;" x="66.39388" xlink:href="#m572d5403b9" y="110.354759"/>
     <use style="fill:#440154;stroke:#440154;" x="59.103267" xlink:href="#m572d5403b9" y="112.804123"/>
     <use style="fill:#440154;stroke:#440154;" x="69.009593" xlink:href="#m572d5403b9" y="73.686837"/>
     <use style="fill:#440154;stroke:#440154;" x="60.173211" xlink:href="#m572d5403b9" y="112.580663"/>
     <use style="fill:#440154;stroke:#440154;" x="60.835022" xlink:href="#m572d5403b9" y="113.153018"/>
    </g>
   </g>
   <g id="PathCollection_2">
    <defs>
     <path d="M 0 1.118034 
C 0.296506 1.118034 0.580908 1.000231 0.790569 0.790569 
C 1.000231 0.580908 1.118034 0.296506 1.118034 0 
C 1.118034 -0.296506 1.000231 -0.580908 0.790569 -0.790569 
C 0.580908 -1.000231 0.296506 -1.118034 0 -1.118034 
C -0.296506 -1.118034 -0.580908 -1.000231 -0.790569 -0.790569 
C -1.000231 -0.580908 -1.118034 -0.296506 -1.118034 0 
C -1.118034 0.296506 -1.000231 0.580908 -0.790569 0.790569 
C -0.580908 1.000231 -0.296506 1.118034 0 1.118034 
z
" id="meddbd0652c" style="stroke:#472d7b;"/>
    </defs>
    <g clip-path="url(#p846455f0fd)">
     <use style="fill:#472d7b;stroke:#472d7b;" x="76.842502" xlink:href="#meddbd0652c" y="78.114568"/>
     <use style="fill:#472d7b;stroke:#472d7b;" x="71.305056" xlink:href="#meddbd0652c" y="83.173093"/>
     <use style="fill:#472d7b;stroke:#472d7b;" x="84.628598" xlink:href="#meddbd0652c" y="57.331918"/>
     <use style="fill:#472d7b;stroke:#472d7b;" x="74.846172" xlink:href="#meddbd0652c" y="85.936214"/>
     <use style="fill:#472d7b;stroke:#472d7b;" x="67.198255" xlink:href="#meddbd0652c" y="94.466493"/>
    </g>
   </g>
   <g id="PathCollection_3">
    <defs>
     <path d="M 0 1.118034 
C 0.296506 1.118034 0.580908 1.000231 0.790569 0.790569 
C 1.000231 0.580908 1.118034 0.296506 1.118034 0 
C 1.118034 -0.296506 1.000231 -0.580908 0.790569 -0.790569 
C 0.580908 -1.000231 0.296506 -1.118034 0 -1.118034 
C -0.296506 -1.118034 -0.580908 -1.000231 -0.790569 -0.790569 
C -1.000231 -0.580908 -1.118034 -0.296506 -1.118034 0 
C -1.118034 0.296506 -1.000231 0.580908 -0.790569 0.790569 
C -0.580908 1.000231 -0.296506 1.118034 0 1.118034 
z
" id="mfbea231e22" style="stroke:#3b528b;"/>
    </defs>
    <g clip-path="url(#p846455f0fd)">
     <use style="fill:#3b528b;stroke:#3b528b;" x="83.365502" xlink:href="#mfbea231e22" y="70.964908"/>
     <use style="fill:#3b528b;stroke:#3b528b;" x="85.836057" xlink:href="#mfbea231e22" y="59.074224"/>
     <use style="fill:#3b528b;stroke:#3b528b;" x="83.980128" xlink:href="#mfbea231e22" y="66.268482"/>
     <use style="fill:#3b528b;stroke:#3b528b;" x="85.893351" xlink:href="#mfbea231e22" y="52.143056"/>
     <use style="fill:#3b528b;stroke:#3b528b;" x="82.662216" xlink:href="#mfbea231e22" y="68.884694"/>
    </g>
   </g>
   <g id="PathCollection_4">
    <defs>
     <path d="M 0 1.118034 
C 0.296506 1.118034 0.580908 1.000231 0.790569 0.790569 
C 1.000231 0.580908 1.118034 0.296506 1.118034 0 
C 1.118034 -0.296506 1.000231 -0.580908 0.790569 -0.790569 
C 0.580908 -1.000231 0.296506 -1.118034 0 -1.118034 
C -0.296506 -1.118034 -0.580908 -1.000231 -0.790569 -0.790569 
C -1.000231 -0.580908 -1.118034 -0.296506 -1.118034 0 
C -1.118034 0.296506 -1.000231 0.580908 -0.790569 0.790569 
C -0.580908 1.000231 -0.296506 1.118034 0 1.118034 
z
" id="m9884c3409c" style="stroke:#21918c;"/>
    </defs>
    <g clip-path="url(#p846455f0fd)">
     <use style="fill:#21918c;stroke:#21918c;" x="83.772238" xlink:href="#m9884c3409c" y="61.015782"/>
     <use style="fill:#21918c;stroke:#21918c;" x="80.614715" xlink:href="#m9884c3409c" y="75.261728"/>
     <use style="fill:#21918c;stroke:#21918c;" x="83.565559" xlink:href="#m9884c3409c" y="59.580699"/>
     <use style="fill:#21918c;stroke:#21918c;" x="77.794834" xlink:href="#m9884c3409c" y="82.626652"/>
     <use style="fill:#21918c;stroke:#21918c;" x="82.207811" xlink:href="#m9884c3409c" y="58.487691"/>
    </g>
   </g>
   <g id="PathCollection_5">
    <defs>
     <path d="M 0 1.118034 
C 0.296506 1.118034 0.580908 1.000231 0.790569 0.790569 
C 1.000231 0.580908 1.118034 0.296506 1.118034 0 
C 1.118034 -0.296506 1.000231 -0.580908 0.790569 -0.790569 
C 0.580908 -1.000231 0.296506 -1.118034 0 -1.118034 
C -0.296506 -1.118034 -0.580908 -1.000231 -0.790569 -0.790569 
C -1.000231 -0.580908 -1.118034 -0.296506 -1.118034 0 
C -1.118034 0.296506 -1.000231 0.580908 -0.790569 0.790569 
C -0.580908 1.000231 -0.296506 1.118034 0 1.118034 
z
" id="m7a3341b1a2" style="stroke:#5ec962;"/>
    </defs>
    <g clip-path="url(#p846455f0fd)">
     <use style="fill:#5ec962;stroke:#5ec962;" x="90.292732" xlink:href="#m7a3341b1a2" y="50.212942"/>
     <use style="fill:#5ec962;stroke:#5ec962;" x="83.215976" xlink:href="#m7a3341b1a2" y="58.762094"/>
     <use style="fill:#5ec962;stroke:#5ec962;" x="98.156949" xlink:href="#m7a3341b1a2" y="29.351598"/>
     <use style="fill:#5ec962;stroke:#5ec962;" x="88.227864" xlink:href="#m7a3341b1a2" y="41.089618"/>
     <use style="fill:#5ec962;stroke:#5ec962;" x="86.913609" xlink:href="#m7a3341b1a2" y="59.933233"/>
    </g>
   </g>
   <g id="PathCollection_6">
    <defs>
     <path d="M 0 1.118034 
C 0.296506 1.118034 0.580908 1.000231 0.790569 0.790569 
C 1.000231 0.580908 1.118034 0.296506 1.118034 0 
C 1.118034 -0.296506 1.000231 -0.580908 0.790569 -0.790569 
C 0.580908 -1.000231 0.296506 -1.118034 0 -1.118034 
C -0.296506 -1.118034 -0.580908 -1.000231 -0.790569 -0.790569 
C -1.000231 -0.580908 -1.118034 -0.296506 -1.118034 0 
C -1.118034 0.296506 -1.000231 0.580908 -0.790569 0.790569 
C -0.580908 1.000231 -0.296506 1.118034 0 1.118034 
z
" id="m5dcac814b7" style="stroke:#fde725;"/>
    </defs>
    <g clip-path="url(#p846455f0fd)">
     <use style="fill:#fde725;stroke:#fde725;" x="96.27064" xlink:href="#m5dcac814b7" y="39.04893"/>
     <use style="fill:#fde725;stroke:#fde725;" x="92.553313" xlink:href="#m5dcac814b7" y="53.906266"/>
     <use style="fill:#fde725;stroke:#fde725;" x="89.155709" xlink:href="#m5dcac814b7" y="61.489626"/>
     <use style="fill:#fde725;stroke:#fde725;" x="87.468017" xlink:href="#m5dcac814b7" y="65.552501"/>
     <use style="fill:#fde725;stroke:#fde725;" x="98.680695" xlink:href="#m5dcac814b7" y="22.95947"/>
    </g>
   </g>
   <g id="line2d_1">
    <path clip-path="url(#p846455f0fd)" d="M 59.01344 117.48481 
L 59.125325 117.129997 
L 59.23721 116.775184 
L 59.349095 116.42037 
L 59.46098 116.065557 
L 59.572865 115.710744 
L 59.68475 115.35593 
L 59.796635 115.001117 
L 59.90852 114.646304 
L 60.020405 114.29149 
L 60.13229 113.936677 
L 60.244175 113.581864 
L 60.35606 113.22705 
L 60.467945 112.872237 
L 60.57983 112.517424 
L 60.691714 112.162611 
L 60.803599 111.807797 
L 60.915484 111.452984 
L 61.027369 111.098171 
L 61.139254 110.743357 
L 61.251139 110.388544 
L 61.363024 110.033731 
L 61.474909 109.678917 
L 61.586794 109.324104 
L 61.698679 108.969291 
L 61.810564 108.614477 
L 61.922449 108.259664 
L 62.034334 107.904851 
L 62.146219 107.550037 
L 62.258104 107.195224 
L 62.369989 106.840411 
L 62.481874 106.485598 
L 62.593759 106.130784 
L 62.705644 105.775971 
L 62.817529 105.421158 
L 62.929414 105.066344 
L 63.041299 104.711531 
L 63.153184 104.356718 
L 63.265069 104.001904 
L 63.376954 103.647091 
L 63.488839 103.292278 
L 63.600724 102.937464 
L 63.712609 102.582651 
L 63.824494 102.227838 
L 63.936379 101.873025 
L 64.048264 101.518211 
L 64.160149 101.163398 
L 64.272034 100.808585 
L 64.383919 100.453771 
L 64.495804 100.098958 
L 64.607689 99.744145 
L 64.719574 99.389331 
L 64.831459 99.034518 
L 64.943344 98.679705 
L 65.055229 98.324891 
L 65.167114 97.970078 
L 65.278999 97.615265 
L 65.390883 97.260451 
L 65.502768 96.905638 
L 65.614653 96.550825 
L 65.726538 96.196012 
L 65.838423 95.841198 
L 65.950308 95.486385 
L 66.062193 95.131572 
L 66.174078 94.776758 
L 66.285963 94.421945 
L 66.397848 94.067132 
L 66.509733 93.712318 
L 66.621618 93.357505 
L 66.733503 93.002692 
L 66.845388 92.647878 
L 66.957273 92.293065 
L 67.069158 91.938252 
L 67.181043 91.583438 
L 67.292928 91.228625 
L 67.404813 90.873812 
L 67.516698 90.518999 
L 67.628583 90.164185 
L 67.740468 89.809372 
L 67.852353 89.454559 
L 67.964238 89.099745 
L 68.076123 88.744932 
L 68.188008 88.390119 
L 68.299893 88.035305 
L 68.411778 87.680492 
L 68.523663 87.325679 
L 68.635548 86.970865 
L 68.747433 86.616052 
L 68.859318 86.261239 
L 68.971203 85.906426 
L 69.083088 85.551612 
L 69.194973 85.196799 
L 69.306858 84.841986 
L 69.418743 84.487172 
L 69.530628 84.132359 
L 69.642513 83.777546 
L 69.754398 83.422732 
L 69.866283 83.067919 
L 69.978167 82.713106 
L 70.090052 82.358292 
" style="fill:none;stroke:#440154;stroke-dasharray:3.7,1.6;stroke-dashoffset:0;"/>
   </g>
   <g id="line2d_2">
    <path clip-path="url(#p846455f0fd)" d="M 66.298929 97.43894 
L 66.510768 97.007828 
L 66.722607 96.576716 
L 66.934445 96.145604 
L 67.146284 95.714492 
L 67.358123 95.283381 
L 67.569961 94.852269 
L 67.7818 94.421157 
L 67.993639 93.990045 
L 68.205477 93.558933 
L 68.417316 93.127821 
L 68.629155 92.696709 
L 68.840993 92.265597 
L 69.052832 91.834485 
L 69.264671 91.403373 
L 69.47651 90.972261 
L 69.688348 90.541149 
L 69.900187 90.110038 
L 70.112026 89.678926 
L 70.323864 89.247814 
L 70.535703 88.816702 
L 70.747542 88.38559 
L 70.95938 87.954478 
L 71.171219 87.523366 
L 71.383058 87.092254 
L 71.594896 86.661142 
L 71.806735 86.23003 
L 72.018574 85.798918 
L 72.230412 85.367806 
L 72.442251 84.936695 
L 72.65409 84.505583 
L 72.865928 84.074471 
L 73.077767 83.643359 
L 73.289606 83.212247 
L 73.501444 82.781135 
L 73.713283 82.350023 
L 73.925122 81.918911 
L 74.13696 81.487799 
L 74.348799 81.056687 
L 74.560638 80.625575 
L 74.772476 80.194464 
L 74.984315 79.763352 
L 75.196154 79.33224 
L 75.407992 78.901128 
L 75.619831 78.470016 
L 75.83167 78.038904 
L 76.043508 77.607792 
L 76.255347 77.17668 
L 76.467186 76.745568 
L 76.679025 76.314456 
L 76.890863 75.883344 
L 77.102702 75.452232 
L 77.314541 75.021121 
L 77.526379 74.590009 
L 77.738218 74.158897 
L 77.950057 73.727785 
L 78.161895 73.296673 
L 78.373734 72.865561 
L 78.585573 72.434449 
L 78.797411 72.003337 
L 79.00925 71.572225 
L 79.221089 71.141113 
L 79.432927 70.710001 
L 79.644766 70.278889 
L 79.856605 69.847778 
L 80.068443 69.416666 
L 80.280282 68.985554 
L 80.492121 68.554442 
L 80.703959 68.12333 
L 80.915798 67.692218 
L 81.127637 67.261106 
L 81.339475 66.829994 
L 81.551314 66.398882 
L 81.763153 65.96777 
L 81.974991 65.536658 
L 82.18683 65.105546 
L 82.398669 64.674435 
L 82.610507 64.243323 
L 82.822346 63.812211 
L 83.034185 63.381099 
L 83.246023 62.949987 
L 83.457862 62.518875 
L 83.669701 62.087763 
L 83.88154 61.656651 
L 84.093378 61.225539 
L 84.305217 60.794427 
L 84.517056 60.363315 
L 84.728894 59.932203 
L 84.940733 59.501092 
L 85.152572 59.06998 
L 85.36441 58.638868 
L 85.576249 58.207756 
L 85.788088 57.776644 
L 85.999926 57.345532 
L 86.211765 56.91442 
L 86.423604 56.483308 
L 86.635442 56.052196 
L 86.847281 55.621084 
L 87.05912 55.189972 
L 87.270958 54.758861 
" style="fill:none;stroke:#472d7b;stroke-dasharray:3.7,1.6;stroke-dashoffset:0;"/>
   </g>
   <g id="line2d_3">
    <path clip-path="url(#p846455f0fd)" d="M 80.216494 83.561976 
L 80.301804 83.146988 
L 80.387114 82.732 
L 80.472424 82.317012 
L 80.557734 81.902024 
L 80.643044 81.487037 
L 80.728354 81.072049 
L 80.813664 80.657061 
L 80.898974 80.242073 
L 80.984284 79.827085 
L 81.069594 79.412098 
L 81.154904 78.99711 
L 81.240214 78.582122 
L 81.325524 78.167134 
L 81.410834 77.752146 
L 81.496144 77.337159 
L 81.581454 76.922171 
L 81.666764 76.507183 
L 81.752074 76.092195 
L 81.837384 75.677208 
L 81.922694 75.26222 
L 82.008005 74.847232 
L 82.093315 74.432244 
L 82.178625 74.017256 
L 82.263935 73.602269 
L 82.349245 73.187281 
L 82.434555 72.772293 
L 82.519865 72.357305 
L 82.605175 71.942317 
L 82.690485 71.52733 
L 82.775795 71.112342 
L 82.861105 70.697354 
L 82.946415 70.282366 
L 83.031725 69.867378 
L 83.117035 69.452391 
L 83.202345 69.037403 
L 83.287655 68.622415 
L 83.372965 68.207427 
L 83.458275 67.792439 
L 83.543585 67.377452 
L 83.628895 66.962464 
L 83.714205 66.547476 
L 83.799515 66.132488 
L 83.884825 65.7175 
L 83.970135 65.302513 
L 84.055445 64.887525 
L 84.140755 64.472537 
L 84.226065 64.057549 
L 84.311375 63.642562 
L 84.396685 63.227574 
L 84.481995 62.812586 
L 84.567305 62.397598 
L 84.652615 61.98261 
L 84.737925 61.567623 
L 84.823235 61.152635 
L 84.908545 60.737647 
L 84.993855 60.322659 
L 85.079165 59.907671 
L 85.164475 59.492684 
L 85.249785 59.077696 
L 85.335095 58.662708 
L 85.420405 58.24772 
L 85.505715 57.832732 
L 85.591025 57.417745 
L 85.676335 57.002757 
L 85.761645 56.587769 
L 85.846955 56.172781 
L 85.932265 55.757793 
L 86.017575 55.342806 
L 86.102885 54.927818 
L 86.188196 54.51283 
L 86.273506 54.097842 
L 86.358816 53.682854 
L 86.444126 53.267867 
L 86.529436 52.852879 
L 86.614746 52.437891 
L 86.700056 52.022903 
L 86.785366 51.607916 
L 86.870676 51.192928 
L 86.955986 50.77794 
L 87.041296 50.362952 
L 87.126606 49.947964 
L 87.211916 49.532977 
L 87.297226 49.117989 
L 87.382536 48.703001 
L 87.467846 48.288013 
L 87.553156 47.873025 
L 87.638466 47.458038 
L 87.723776 47.04305 
L 87.809086 46.628062 
L 87.894396 46.213074 
L 87.979706 45.798086 
L 88.065016 45.383099 
L 88.150326 44.968111 
L 88.235636 44.553123 
L 88.320946 44.138135 
L 88.406256 43.723147 
L 88.491566 43.30816 
L 88.576876 42.893172 
L 88.662186 42.478184 
" style="fill:none;stroke:#3b528b;stroke-dasharray:3.7,1.6;stroke-dashoffset:0;"/>
   </g>
   <g id="line2d_4">
    <path clip-path="url(#p846455f0fd)" d="M 75.83585 91.060533 
L 75.941841 90.624685 
L 76.047832 90.188837 
L 76.153823 89.752988 
L 76.259814 89.31714 
L 76.365806 88.881292 
L 76.471797 88.445443 
L 76.577788 88.009595 
L 76.683779 87.573747 
L 76.78977 87.137898 
L 76.895761 86.70205 
L 77.001752 86.266202 
L 77.107743 85.830353 
L 77.213734 85.394505 
L 77.319725 84.958657 
L 77.425716 84.522809 
L 77.531707 84.08696 
L 77.637698 83.651112 
L 77.743689 83.215264 
L 77.84968 82.779415 
L 77.955671 82.343567 
L 78.061662 81.907719 
L 78.167653 81.47187 
L 78.273644 81.036022 
L 78.379635 80.600174 
L 78.485626 80.164325 
L 78.591617 79.728477 
L 78.697608 79.292629 
L 78.803599 78.85678 
L 78.90959 78.420932 
L 79.015581 77.985084 
L 79.121572 77.549235 
L 79.227563 77.113387 
L 79.333554 76.677539 
L 79.439545 76.24169 
L 79.545536 75.805842 
L 79.651527 75.369994 
L 79.757518 74.934145 
L 79.863509 74.498297 
L 79.9695 74.062449 
L 80.075491 73.6266 
L 80.181482 73.190752 
L 80.287473 72.754904 
L 80.393464 72.319055 
L 80.499455 71.883207 
L 80.605446 71.447359 
L 80.711438 71.01151 
L 80.817429 70.575662 
L 80.92342 70.139814 
L 81.029411 69.703965 
L 81.135402 69.268117 
L 81.241393 68.832269 
L 81.347384 68.39642 
L 81.453375 67.960572 
L 81.559366 67.524724 
L 81.665357 67.088875 
L 81.771348 66.653027 
L 81.877339 66.217179 
L 81.98333 65.78133 
L 82.089321 65.345482 
L 82.195312 64.909634 
L 82.301303 64.473785 
L 82.407294 64.037937 
L 82.513285 63.602089 
L 82.619276 63.16624 
L 82.725267 62.730392 
L 82.831258 62.294544 
L 82.937249 61.858695 
L 83.04324 61.422847 
L 83.149231 60.986999 
L 83.255222 60.55115 
L 83.361213 60.115302 
L 83.467204 59.679454 
L 83.573195 59.243605 
L 83.679186 58.807757 
L 83.785177 58.371909 
L 83.891168 57.936061 
L 83.997159 57.500212 
L 84.10315 57.064364 
L 84.209141 56.628516 
L 84.315132 56.192667 
L 84.421123 55.756819 
L 84.527114 55.320971 
L 84.633105 54.885122 
L 84.739096 54.449274 
L 84.845087 54.013426 
L 84.951078 53.577577 
L 85.05707 53.141729 
L 85.163061 52.705881 
L 85.269052 52.270032 
L 85.375043 51.834184 
L 85.481034 51.398336 
L 85.587025 50.962487 
L 85.693016 50.526639 
L 85.799007 50.090791 
L 85.904998 49.654942 
L 86.010989 49.219094 
L 86.11698 48.783246 
L 86.222971 48.347397 
L 86.328962 47.911549 
" style="fill:none;stroke:#21918c;stroke-dasharray:3.7,1.6;stroke-dashoffset:0;"/>
   </g>
   <g id="line2d_5">
    <path clip-path="url(#p846455f0fd)" d="M 80.714879 65.368698 
L 80.931417 64.93047 
L 81.147955 64.492243 
L 81.364493 64.054015 
L 81.581031 63.615788 
L 81.797569 63.17756 
L 82.014107 62.739332 
L 82.230645 62.301105 
L 82.447183 61.862877 
L 82.663721 61.42465 
L 82.880259 60.986422 
L 83.096797 60.548194 
L 83.313335 60.109967 
L 83.529873 59.671739 
L 83.746411 59.233511 
L 83.962949 58.795284 
L 84.179487 58.357056 
L 84.396025 57.918829 
L 84.612563 57.480601 
L 84.829101 57.042373 
L 85.045639 56.604146 
L 85.262177 56.165918 
L 85.478715 55.72769 
L 85.695253 55.289463 
L 85.911791 54.851235 
L 86.128329 54.413008 
L 86.344867 53.97478 
L 86.561405 53.536552 
L 86.777943 53.098325 
L 86.994481 52.660097 
L 87.211019 52.22187 
L 87.427557 51.783642 
L 87.644095 51.345414 
L 87.860634 50.907187 
L 88.077172 50.468959 
L 88.29371 50.030731 
L 88.510248 49.592504 
L 88.726786 49.154276 
L 88.943324 48.716049 
L 89.159862 48.277821 
L 89.3764 47.839593 
L 89.592938 47.401366 
L 89.809476 46.963138 
L 90.026014 46.52491 
L 90.242552 46.086683 
L 90.45909 45.648455 
L 90.675628 45.210228 
L 90.892166 44.772 
L 91.108704 44.333772 
L 91.325242 43.895545 
L 91.54178 43.457317 
L 91.758318 43.01909 
L 91.974856 42.580862 
L 92.191394 42.142634 
L 92.407932 41.704407 
L 92.62447 41.266179 
L 92.841008 40.827951 
L 93.057546 40.389724 
L 93.274084 39.951496 
L 93.490622 39.513269 
L 93.70716 39.075041 
L 93.923698 38.636813 
L 94.140236 38.198586 
L 94.356774 37.760358 
L 94.573312 37.32213 
L 94.78985 36.883903 
L 95.006388 36.445675 
L 95.222927 36.007448 
L 95.439465 35.56922 
L 95.656003 35.130992 
L 95.872541 34.692765 
L 96.089079 34.254537 
L 96.305617 33.81631 
L 96.522155 33.378082 
L 96.738693 32.939854 
L 96.955231 32.501627 
L 97.171769 32.063399 
L 97.388307 31.625171 
L 97.604845 31.186944 
L 97.821383 30.748716 
L 98.037921 30.310489 
L 98.254459 29.872261 
L 98.470997 29.434033 
L 98.687535 28.995806 
L 98.904073 28.557578 
L 99.120611 28.11935 
L 99.337149 27.681123 
L 99.553687 27.242895 
L 99.770225 26.804668 
L 99.986763 26.36644 
L 100.203301 25.928212 
L 100.419839 25.489985 
L 100.636377 25.051757 
L 100.852915 24.61353 
L 101.069453 24.175302 
L 101.285991 23.737074 
L 101.502529 23.298847 
L 101.719067 22.860619 
L 101.935605 22.422391 
L 102.152143 21.984164 
" style="fill:none;stroke:#5ec962;stroke-dasharray:3.7,1.6;stroke-dashoffset:0;"/>
   </g>
   <g id="line2d_6">
    <path clip-path="url(#p846455f0fd)" d="M 84.541716 78.823835 
L 84.725418 78.153409 
L 84.909121 77.482983 
L 85.092823 76.812557 
L 85.276526 76.142131 
L 85.460228 75.471705 
L 85.643931 74.801279 
L 85.827633 74.130853 
L 86.011336 73.460427 
L 86.195038 72.790001 
L 86.378741 72.119575 
L 86.562443 71.449149 
L 86.746146 70.778723 
L 86.929848 70.108297 
L 87.113551 69.437871 
L 87.297253 68.767445 
L 87.480956 68.097019 
L 87.664658 67.426593 
L 87.848361 66.756167 
L 88.032063 66.085741 
L 88.215766 65.415315 
L 88.399468 64.744889 
L 88.583171 64.074463 
L 88.766873 63.404036 
L 88.950576 62.73361 
L 89.134278 62.063184 
L 89.317981 61.392758 
L 89.501684 60.722332 
L 89.685386 60.051906 
L 89.869089 59.38148 
L 90.052791 58.711054 
L 90.236494 58.040628 
L 90.420196 57.370202 
L 90.603899 56.699776 
L 90.787601 56.02935 
L 90.971304 55.358924 
L 91.155006 54.688498 
L 91.338709 54.018072 
L 91.522411 53.347646 
L 91.706114 52.67722 
L 91.889816 52.006794 
L 92.073519 51.336368 
L 92.257221 50.665942 
L 92.440924 49.995516 
L 92.624626 49.32509 
L 92.808329 48.654664 
L 92.992031 47.984238 
L 93.175734 47.313812 
L 93.359436 46.643386 
L 93.543139 45.972959 
L 93.726841 45.302533 
L 93.910544 44.632107 
L 94.094246 43.961681 
L 94.277949 43.291255 
L 94.461651 42.620829 
L 94.645354 41.950403 
L 94.829057 41.279977 
L 95.012759 40.609551 
L 95.196462 39.939125 
L 95.380164 39.268699 
L 95.563867 38.598273 
L 95.747569 37.927847 
L 95.931272 37.257421 
L 96.114974 36.586995 
L 96.298677 35.916569 
L 96.482379 35.246143 
L 96.666082 34.575717 
L 96.849784 33.905291 
L 97.033487 33.234865 
L 97.217189 32.564439 
L 97.400892 31.894013 
L 97.584594 31.223587 
L 97.768297 30.553161 
L 97.951999 29.882735 
L 98.135702 29.212309 
L 98.319404 28.541883 
L 98.503107 27.871456 
L 98.686809 27.20103 
L 98.870512 26.530604 
L 99.054214 25.860178 
L 99.237917 25.189752 
L 99.421619 24.519326 
L 99.605322 23.8489 
L 99.789025 23.178474 
L 99.972727 22.508048 
L 100.15643 21.837622 
L 100.340132 21.167196 
L 100.523835 20.49677 
L 100.707537 19.826344 
L 100.89124 19.155918 
L 101.074942 18.485492 
L 101.258645 17.815066 
L 101.442347 17.14464 
L 101.62605 16.474214 
L 101.809752 15.803788 
L 101.993455 15.133362 
L 102.177157 14.462936 
L 102.36086 13.79251 
L 102.544562 13.122084 
L 102.728265 12.451658 
" style="fill:none;stroke:#fde725;stroke-dasharray:3.7,1.6;stroke-dashoffset:0;"/>
   </g>
   <g id="line2d_7">
    <path clip-path="url(#p846455f0fd)" d="M 58.205 115.92 
L 169.805 7.2 
" style="fill:none;stroke:#000000;stroke-dasharray:3.7,1.6;stroke-dashoffset:0;"/>
   </g>
   <g id="patch_3">
    <path d="M 48.205 115.92 
L 48.205 7.2 
" style="fill:none;stroke:#262626;stroke-linecap:square;stroke-linejoin:miter;stroke-width:1.25;"/>
   </g>
   <g id="patch_4">
    <path d="M 58.205 125.92 
L 169.805 125.92 
" style="fill:none;stroke:#262626;stroke-linecap:square;stroke-linejoin:miter;stroke-width:1.25;"/>
   </g>
   <g id="matplotlib.axis_1">
    <g id="xtick_1">
     <g id="line2d_8"/>
     <g id="text_1">
      <!-- 0 -->
      <defs>
       <path d="M 4.15625 35.296875 
Q 4.15625 48 6.765625 55.734375 
Q 9.375 63.484375 14.515625 67.671875 
Q 19.671875 71.875 27.484375 71.875 
Q 33.25 71.875 37.59375 69.546875 
Q 41.9375 67.234375 44.765625 62.859375 
Q 47.609375 58.5 49.21875 52.21875 
Q 50.828125 45.953125 50.828125 35.296875 
Q 50.828125 22.703125 48.234375 14.96875 
Q 45.65625 7.234375 40.5 3 
Q 35.359375 -1.21875 27.484375 -1.21875 
Q 17.140625 -1.21875 11.234375 6.203125 
Q 4.15625 15.140625 4.15625 35.296875 
z
M 13.1875 35.296875 
Q 13.1875 17.671875 17.3125 11.828125 
Q 21.4375 6 27.484375 6 
Q 33.546875 6 37.671875 11.859375 
Q 41.796875 17.71875 41.796875 35.296875 
Q 41.796875 52.984375 37.671875 58.78125 
Q 33.546875 64.59375 27.390625 64.59375 
Q 21.34375 64.59375 17.71875 59.46875 
Q 13.1875 52.9375 13.1875 35.296875 
z
" id="ArialMT-30"/>
      </defs>
      <g style="fill:#262626;" transform="translate(55.424531 136.577812)scale(0.1 -0.1)">
       <use xlink:href="#ArialMT-30"/>
      </g>
     </g>
    </g>
    <g id="xtick_2">
     <g id="line2d_9"/>
     <g id="text_2">
      <!-- 1000 -->
      <defs>
       <path d="M 37.25 0 
L 28.46875 0 
L 28.46875 56 
Q 25.296875 52.984375 20.140625 49.953125 
Q 14.984375 46.921875 10.890625 45.40625 
L 10.890625 53.90625 
Q 18.265625 57.375 23.78125 62.296875 
Q 29.296875 67.234375 31.59375 71.875 
L 37.25 71.875 
z
" id="ArialMT-31"/>
      </defs>
      <g style="fill:#262626;" transform="translate(92.632032 136.577812)scale(0.1 -0.1)">
       <use xlink:href="#ArialMT-31"/>
       <use x="55.615234" xlink:href="#ArialMT-30"/>
       <use x="111.230469" xlink:href="#ArialMT-30"/>
       <use x="166.845703" xlink:href="#ArialMT-30"/>
      </g>
     </g>
    </g>
    <g id="xtick_3">
     <g id="line2d_10"/>
     <g id="text_3">
      <!-- 2000 -->
      <defs>
       <path d="M 50.34375 8.453125 
L 50.34375 0 
L 3.03125 0 
Q 2.9375 3.171875 4.046875 6.109375 
Q 5.859375 10.9375 9.828125 15.625 
Q 13.8125 20.3125 21.34375 26.46875 
Q 33.015625 36.03125 37.109375 41.625 
Q 41.21875 47.21875 41.21875 52.203125 
Q 41.21875 57.421875 37.46875 61 
Q 33.734375 64.59375 27.734375 64.59375 
Q 21.390625 64.59375 17.578125 60.78125 
Q 13.765625 56.984375 13.71875 50.25 
L 4.6875 51.171875 
Q 5.609375 61.28125 11.65625 66.578125 
Q 17.71875 71.875 27.9375 71.875 
Q 38.234375 71.875 44.234375 66.15625 
Q 50.25 60.453125 50.25 52 
Q 50.25 47.703125 48.484375 43.546875 
Q 46.734375 39.40625 42.65625 34.8125 
Q 38.578125 30.21875 29.109375 22.21875 
Q 21.1875 15.578125 18.9375 13.203125 
Q 16.703125 10.84375 15.234375 8.453125 
z
" id="ArialMT-32"/>
      </defs>
      <g style="fill:#262626;" transform="translate(138.18094 136.577812)scale(0.1 -0.1)">
       <use xlink:href="#ArialMT-32"/>
       <use x="55.615234" xlink:href="#ArialMT-30"/>
       <use x="111.230469" xlink:href="#ArialMT-30"/>
       <use x="166.845703" xlink:href="#ArialMT-30"/>
      </g>
     </g>
    </g>
    <g id="text_4">
     <!-- Excitation (pA) -->
     <defs>
      <path d="M 7.90625 0 
L 7.90625 71.578125 
L 59.671875 71.578125 
L 59.671875 63.140625 
L 17.390625 63.140625 
L 17.390625 41.21875 
L 56.984375 41.21875 
L 56.984375 32.8125 
L 17.390625 32.8125 
L 17.390625 8.453125 
L 61.328125 8.453125 
L 61.328125 0 
z
" id="ArialMT-45"/>
      <path d="M 0.734375 0 
L 19.671875 26.953125 
L 2.15625 51.859375 
L 13.140625 51.859375 
L 21.09375 39.703125 
Q 23.34375 36.234375 24.703125 33.890625 
Q 26.859375 37.109375 28.65625 39.59375 
L 37.40625 51.859375 
L 47.90625 51.859375 
L 29.984375 27.4375 
L 49.265625 0 
L 38.484375 0 
L 27.828125 16.109375 
L 25 20.453125 
L 11.375 0 
z
" id="ArialMT-78"/>
      <path d="M 40.4375 19 
L 49.078125 17.875 
Q 47.65625 8.9375 41.8125 3.875 
Q 35.984375 -1.171875 27.484375 -1.171875 
Q 16.84375 -1.171875 10.375 5.78125 
Q 3.90625 12.75 3.90625 25.734375 
Q 3.90625 34.125 6.6875 40.421875 
Q 9.46875 46.734375 15.15625 49.875 
Q 20.84375 53.03125 27.546875 53.03125 
Q 35.984375 53.03125 41.359375 48.75 
Q 46.734375 44.484375 48.25 36.625 
L 39.703125 35.296875 
Q 38.484375 40.53125 35.375 43.15625 
Q 32.28125 45.796875 27.875 45.796875 
Q 21.234375 45.796875 17.078125 41.03125 
Q 12.9375 36.28125 12.9375 25.984375 
Q 12.9375 15.53125 16.9375 10.796875 
Q 20.953125 6.0625 27.390625 6.0625 
Q 32.5625 6.0625 36.03125 9.234375 
Q 39.5 12.40625 40.4375 19 
z
" id="ArialMT-63"/>
      <path d="M 6.640625 61.46875 
L 6.640625 71.578125 
L 15.4375 71.578125 
L 15.4375 61.46875 
z
M 6.640625 0 
L 6.640625 51.859375 
L 15.4375 51.859375 
L 15.4375 0 
z
" id="ArialMT-69"/>
      <path d="M 25.78125 7.859375 
L 27.046875 0.09375 
Q 23.34375 -0.6875 20.40625 -0.6875 
Q 15.625 -0.6875 12.984375 0.828125 
Q 10.359375 2.34375 9.28125 4.8125 
Q 8.203125 7.28125 8.203125 15.1875 
L 8.203125 45.015625 
L 1.765625 45.015625 
L 1.765625 51.859375 
L 8.203125 51.859375 
L 8.203125 64.703125 
L 16.9375 69.96875 
L 16.9375 51.859375 
L 25.78125 51.859375 
L 25.78125 45.015625 
L 16.9375 45.015625 
L 16.9375 14.703125 
Q 16.9375 10.9375 17.40625 9.859375 
Q 17.875 8.796875 18.921875 8.15625 
Q 19.96875 7.515625 21.921875 7.515625 
Q 23.390625 7.515625 25.78125 7.859375 
z
" id="ArialMT-74"/>
      <path d="M 40.4375 6.390625 
Q 35.546875 2.25 31.03125 0.53125 
Q 26.515625 -1.171875 21.34375 -1.171875 
Q 12.796875 -1.171875 8.203125 3 
Q 3.609375 7.171875 3.609375 13.671875 
Q 3.609375 17.484375 5.34375 20.625 
Q 7.078125 23.78125 9.890625 25.6875 
Q 12.703125 27.59375 16.21875 28.5625 
Q 18.796875 29.25 24.03125 29.890625 
Q 34.671875 31.15625 39.703125 32.90625 
Q 39.75 34.71875 39.75 35.203125 
Q 39.75 40.578125 37.25 42.78125 
Q 33.890625 45.75 27.25 45.75 
Q 21.046875 45.75 18.09375 43.578125 
Q 15.140625 41.40625 13.71875 35.890625 
L 5.125 37.0625 
Q 6.296875 42.578125 8.984375 45.96875 
Q 11.671875 49.359375 16.75 51.1875 
Q 21.828125 53.03125 28.515625 53.03125 
Q 35.15625 53.03125 39.296875 51.46875 
Q 43.453125 49.90625 45.40625 47.53125 
Q 47.359375 45.171875 48.140625 41.546875 
Q 48.578125 39.3125 48.578125 33.453125 
L 48.578125 21.734375 
Q 48.578125 9.46875 49.140625 6.21875 
Q 49.703125 2.984375 51.375 0 
L 42.1875 0 
Q 40.828125 2.734375 40.4375 6.390625 
z
M 39.703125 26.03125 
Q 34.90625 24.078125 25.34375 22.703125 
Q 19.921875 21.921875 17.671875 20.9375 
Q 15.4375 19.96875 14.203125 18.09375 
Q 12.984375 16.21875 12.984375 13.921875 
Q 12.984375 10.40625 15.640625 8.0625 
Q 18.3125 5.71875 23.4375 5.71875 
Q 28.515625 5.71875 32.46875 7.9375 
Q 36.421875 10.15625 38.28125 14.015625 
Q 39.703125 17 39.703125 22.796875 
z
" id="ArialMT-61"/>
      <path d="M 3.328125 25.921875 
Q 3.328125 40.328125 11.328125 47.265625 
Q 18.015625 53.03125 27.640625 53.03125 
Q 38.328125 53.03125 45.109375 46.015625 
Q 51.90625 39.015625 51.90625 26.65625 
Q 51.90625 16.65625 48.90625 10.90625 
Q 45.90625 5.171875 40.15625 2 
Q 34.421875 -1.171875 27.640625 -1.171875 
Q 16.75 -1.171875 10.03125 5.8125 
Q 3.328125 12.796875 3.328125 25.921875 
z
M 12.359375 25.921875 
Q 12.359375 15.96875 16.703125 11.015625 
Q 21.046875 6.0625 27.640625 6.0625 
Q 34.1875 6.0625 38.53125 11.03125 
Q 42.875 16.015625 42.875 26.21875 
Q 42.875 35.84375 38.5 40.796875 
Q 34.125 45.75 27.640625 45.75 
Q 21.046875 45.75 16.703125 40.8125 
Q 12.359375 35.890625 12.359375 25.921875 
z
" id="ArialMT-6f"/>
      <path d="M 6.59375 0 
L 6.59375 51.859375 
L 14.5 51.859375 
L 14.5 44.484375 
Q 20.21875 53.03125 31 53.03125 
Q 35.6875 53.03125 39.625 51.34375 
Q 43.5625 49.65625 45.515625 46.921875 
Q 47.46875 44.1875 48.25 40.4375 
Q 48.734375 37.984375 48.734375 31.890625 
L 48.734375 0 
L 39.9375 0 
L 39.9375 31.546875 
Q 39.9375 36.921875 38.90625 39.578125 
Q 37.890625 42.234375 35.28125 43.8125 
Q 32.671875 45.40625 29.15625 45.40625 
Q 23.53125 45.40625 19.453125 41.84375 
Q 15.375 38.28125 15.375 28.328125 
L 15.375 0 
z
" id="ArialMT-6e"/>
      <path id="ArialMT-20"/>
      <path d="M 23.390625 -21.046875 
Q 16.109375 -11.859375 11.078125 0.4375 
Q 6.0625 12.75 6.0625 25.921875 
Q 6.0625 37.546875 9.8125 48.1875 
Q 14.203125 60.546875 23.390625 72.796875 
L 29.6875 72.796875 
Q 23.78125 62.640625 21.875 58.296875 
Q 18.890625 51.5625 17.1875 44.234375 
Q 15.09375 35.109375 15.09375 25.875 
Q 15.09375 2.390625 29.6875 -21.046875 
z
" id="ArialMT-28"/>
      <path d="M 6.59375 -19.875 
L 6.59375 51.859375 
L 14.59375 51.859375 
L 14.59375 45.125 
Q 17.4375 49.078125 21 51.046875 
Q 24.5625 53.03125 29.640625 53.03125 
Q 36.28125 53.03125 41.359375 49.609375 
Q 46.4375 46.1875 49.015625 39.953125 
Q 51.609375 33.734375 51.609375 26.3125 
Q 51.609375 18.359375 48.75 11.984375 
Q 45.90625 5.609375 40.453125 2.21875 
Q 35.015625 -1.171875 29 -1.171875 
Q 24.609375 -1.171875 21.109375 0.6875 
Q 17.625 2.546875 15.375 5.375 
L 15.375 -19.875 
z
M 14.546875 25.640625 
Q 14.546875 15.625 18.59375 10.84375 
Q 22.65625 6.0625 28.421875 6.0625 
Q 34.28125 6.0625 38.453125 11.015625 
Q 42.625 15.96875 42.625 26.375 
Q 42.625 36.28125 38.546875 41.203125 
Q 34.46875 46.140625 28.8125 46.140625 
Q 23.1875 46.140625 18.859375 40.890625 
Q 14.546875 35.640625 14.546875 25.640625 
z
" id="ArialMT-70"/>
      <path d="M -0.140625 0 
L 27.34375 71.578125 
L 37.546875 71.578125 
L 66.84375 0 
L 56.0625 0 
L 47.703125 21.6875 
L 17.78125 21.6875 
L 9.90625 0 
z
M 20.515625 29.390625 
L 44.78125 29.390625 
L 37.3125 49.21875 
Q 33.890625 58.25 32.234375 64.0625 
Q 30.859375 57.171875 28.375 50.390625 
z
" id="ArialMT-41"/>
      <path d="M 12.359375 -21.046875 
L 6.0625 -21.046875 
Q 20.65625 2.390625 20.65625 25.875 
Q 20.65625 35.0625 18.5625 44.09375 
Q 16.890625 51.421875 13.921875 58.15625 
Q 12.015625 62.546875 6.0625 72.796875 
L 12.359375 72.796875 
Q 21.53125 60.546875 25.921875 48.1875 
Q 29.6875 37.546875 29.6875 25.921875 
Q 29.6875 12.75 24.625 0.4375 
Q 19.578125 -11.859375 12.359375 -21.046875 
z
" id="ArialMT-29"/>
     </defs>
     <g style="fill:#262626;" transform="translate(74.991875 151.300938)scale(0.12 -0.12)">
      <use xlink:href="#ArialMT-45"/>
      <use x="66.699219" xlink:href="#ArialMT-78"/>
      <use x="116.699219" xlink:href="#ArialMT-63"/>
      <use x="166.699219" xlink:href="#ArialMT-69"/>
      <use x="188.916016" xlink:href="#ArialMT-74"/>
      <use x="216.699219" xlink:href="#ArialMT-61"/>
      <use x="272.314453" xlink:href="#ArialMT-74"/>
      <use x="300.097656" xlink:href="#ArialMT-69"/>
      <use x="322.314453" xlink:href="#ArialMT-6f"/>
      <use x="377.929688" xlink:href="#ArialMT-6e"/>
      <use x="433.544922" xlink:href="#ArialMT-20"/>
      <use x="461.328125" xlink:href="#ArialMT-28"/>
      <use x="494.628906" xlink:href="#ArialMT-70"/>
      <use x="550.244141" xlink:href="#ArialMT-41"/>
      <use x="616.943359" xlink:href="#ArialMT-29"/>
     </g>
    </g>
   </g>
   <g id="matplotlib.axis_2">
    <g id="ytick_1">
     <g id="line2d_11"/>
     <g id="text_5">
      <!-- 0 -->
      <g style="fill:#262626;" transform="translate(39.144062 119.498906)scale(0.1 -0.1)">
       <use xlink:href="#ArialMT-30"/>
      </g>
     </g>
    </g>
    <g id="ytick_2">
     <g id="line2d_12"/>
     <g id="text_6">
      <!-- 500 -->
      <defs>
       <path d="M 4.15625 18.75 
L 13.375 19.53125 
Q 14.40625 12.796875 18.140625 9.390625 
Q 21.875 6 27.15625 6 
Q 33.5 6 37.890625 10.78125 
Q 42.28125 15.578125 42.28125 23.484375 
Q 42.28125 31 38.0625 35.34375 
Q 33.84375 39.703125 27 39.703125 
Q 22.75 39.703125 19.328125 37.765625 
Q 15.921875 35.84375 13.96875 32.765625 
L 5.71875 33.84375 
L 12.640625 70.609375 
L 48.25 70.609375 
L 48.25 62.203125 
L 19.671875 62.203125 
L 15.828125 42.96875 
Q 22.265625 47.46875 29.34375 47.46875 
Q 38.71875 47.46875 45.15625 40.96875 
Q 51.609375 34.46875 51.609375 24.265625 
Q 51.609375 14.546875 45.953125 7.46875 
Q 39.0625 -1.21875 27.15625 -1.21875 
Q 17.390625 -1.21875 11.203125 4.25 
Q 5.03125 9.71875 4.15625 18.75 
z
" id="ArialMT-35"/>
      </defs>
      <g style="fill:#262626;" transform="translate(28.022187 97.31218)scale(0.1 -0.1)">
       <use xlink:href="#ArialMT-35"/>
       <use x="55.615234" xlink:href="#ArialMT-30"/>
       <use x="111.230469" xlink:href="#ArialMT-30"/>
      </g>
     </g>
    </g>
    <g id="ytick_3">
     <g id="line2d_13"/>
     <g id="text_7">
      <!-- 1000 -->
      <g style="fill:#262626;" transform="translate(22.46125 75.125454)scale(0.1 -0.1)">
       <use xlink:href="#ArialMT-31"/>
       <use x="55.615234" xlink:href="#ArialMT-30"/>
       <use x="111.230469" xlink:href="#ArialMT-30"/>
       <use x="166.845703" xlink:href="#ArialMT-30"/>
      </g>
     </g>
    </g>
    <g id="ytick_4">
     <g id="line2d_14"/>
     <g id="text_8">
      <!-- 1500 -->
      <g style="fill:#262626;" transform="translate(22.46125 52.938729)scale(0.1 -0.1)">
       <use xlink:href="#ArialMT-31"/>
       <use x="55.615234" xlink:href="#ArialMT-35"/>
       <use x="111.230469" xlink:href="#ArialMT-30"/>
       <use x="166.845703" xlink:href="#ArialMT-30"/>
      </g>
     </g>
    </g>
    <g id="ytick_5">
     <g id="line2d_15"/>
     <g id="text_9">
      <!-- 2000 -->
      <g style="fill:#262626;" transform="translate(22.46125 30.752003)scale(0.1 -0.1)">
       <use xlink:href="#ArialMT-32"/>
       <use x="55.615234" xlink:href="#ArialMT-30"/>
       <use x="111.230469" xlink:href="#ArialMT-30"/>
       <use x="166.845703" xlink:href="#ArialMT-30"/>
      </g>
     </g>
    </g>
    <g id="text_10">
     <!-- Inhibition (pA) -->
     <defs>
      <path d="M 9.328125 0 
L 9.328125 71.578125 
L 18.796875 71.578125 
L 18.796875 0 
z
" id="ArialMT-49"/>
      <path d="M 6.59375 0 
L 6.59375 71.578125 
L 15.375 71.578125 
L 15.375 45.90625 
Q 21.53125 53.03125 30.90625 53.03125 
Q 36.671875 53.03125 40.921875 50.75 
Q 45.171875 48.484375 47 44.484375 
Q 48.828125 40.484375 48.828125 32.859375 
L 48.828125 0 
L 40.046875 0 
L 40.046875 32.859375 
Q 40.046875 39.453125 37.1875 42.453125 
Q 34.328125 45.453125 29.109375 45.453125 
Q 25.203125 45.453125 21.75 43.421875 
Q 18.3125 41.40625 16.84375 37.9375 
Q 15.375 34.46875 15.375 28.375 
L 15.375 0 
z
" id="ArialMT-68"/>
      <path d="M 14.703125 0 
L 6.546875 0 
L 6.546875 71.578125 
L 15.328125 71.578125 
L 15.328125 46.046875 
Q 20.90625 53.03125 29.546875 53.03125 
Q 34.328125 53.03125 38.59375 51.09375 
Q 42.875 49.171875 45.625 45.671875 
Q 48.390625 42.1875 49.953125 37.25 
Q 51.515625 32.328125 51.515625 26.703125 
Q 51.515625 13.375 44.921875 6.09375 
Q 38.328125 -1.171875 29.109375 -1.171875 
Q 19.921875 -1.171875 14.703125 6.5 
z
M 14.59375 26.3125 
Q 14.59375 17 17.140625 12.84375 
Q 21.296875 6.0625 28.375 6.0625 
Q 34.125 6.0625 38.328125 11.0625 
Q 42.53125 16.0625 42.53125 25.984375 
Q 42.53125 36.140625 38.5 40.96875 
Q 34.46875 45.796875 28.765625 45.796875 
Q 23 45.796875 18.796875 40.796875 
Q 14.59375 35.796875 14.59375 26.3125 
z
" id="ArialMT-62"/>
     </defs>
     <g style="fill:#262626;" transform="translate(15.935625 98.577188)rotate(-90)scale(0.12 -0.12)">
      <use xlink:href="#ArialMT-49"/>
      <use x="27.783203" xlink:href="#ArialMT-6e"/>
      <use x="83.398438" xlink:href="#ArialMT-68"/>
      <use x="139.013672" xlink:href="#ArialMT-69"/>
      <use x="161.230469" xlink:href="#ArialMT-62"/>
      <use x="216.845703" xlink:href="#ArialMT-69"/>
      <use x="239.0625" xlink:href="#ArialMT-74"/>
      <use x="266.845703" xlink:href="#ArialMT-69"/>
      <use x="289.0625" xlink:href="#ArialMT-6f"/>
      <use x="344.677734" xlink:href="#ArialMT-6e"/>
      <use x="400.292969" xlink:href="#ArialMT-20"/>
      <use x="428.076172" xlink:href="#ArialMT-28"/>
      <use x="461.376953" xlink:href="#ArialMT-70"/>
      <use x="516.992188" xlink:href="#ArialMT-41"/>
      <use x="583.691406" xlink:href="#ArialMT-29"/>
     </g>
    </g>
   </g>
   <g id="legend_1">
    <g id="line2d_16">
     <path d="M 114.733125 16.560625 
L 134.733125 16.560625 
" style="fill:none;stroke:#000000;stroke-dasharray:3.7,1.6;stroke-dashoffset:0;"/>
    </g>
    <g id="line2d_17"/>
    <g id="text_11">
     <!-- P=1 -->
     <defs>
      <path d="M 7.71875 0 
L 7.71875 71.578125 
L 34.71875 71.578125 
Q 41.84375 71.578125 45.609375 70.90625 
Q 50.875 70.015625 54.4375 67.546875 
Q 58.015625 65.09375 60.1875 60.640625 
Q 62.359375 56.203125 62.359375 50.875 
Q 62.359375 41.75 56.546875 35.421875 
Q 50.734375 29.109375 35.546875 29.109375 
L 17.1875 29.109375 
L 17.1875 0 
z
M 17.1875 37.546875 
L 35.6875 37.546875 
Q 44.875 37.546875 48.734375 40.96875 
Q 52.59375 44.390625 52.59375 50.59375 
Q 52.59375 55.078125 50.3125 58.265625 
Q 48.046875 61.46875 44.34375 62.5 
Q 41.9375 63.140625 35.5 63.140625 
L 17.1875 63.140625 
z
" id="ArialMT-50"/>
      <path d="M 52.828125 42.09375 
L 5.5625 42.09375 
L 5.5625 50.296875 
L 52.828125 50.296875 
z
M 52.828125 20.359375 
L 5.5625 20.359375 
L 5.5625 28.5625 
L 52.828125 28.5625 
z
" id="ArialMT-3d"/>
     </defs>
     <g style="fill:#262626;" transform="translate(142.733125 20.060625)scale(0.1 -0.1)">
      <use xlink:href="#ArialMT-50"/>
      <use x="66.699219" xlink:href="#ArialMT-3d"/>
      <use x="125.097656" xlink:href="#ArialMT-31"/>
     </g>
    </g>
    <g id="PathCollection_7">
     <g>
      <use style="fill:#440154;stroke:#440154;" x="124.733125" xlink:href="#m572d5403b9" y="31.580938"/>
     </g>
    </g>
    <g id="text_12">
     <!-- 1 -->
     <g style="fill:#262626;" transform="translate(142.733125 34.205938)scale(0.1 -0.1)">
      <use xlink:href="#ArialMT-31"/>
     </g>
    </g>
    <g id="PathCollection_8">
     <g>
      <use style="fill:#472d7b;stroke:#472d7b;" x="124.733125" xlink:href="#meddbd0652c" y="45.72625"/>
     </g>
    </g>
    <g id="text_13">
     <!-- 2 -->
     <g style="fill:#262626;" transform="translate(142.733125 48.35125)scale(0.1 -0.1)">
      <use xlink:href="#ArialMT-32"/>
     </g>
    </g>
    <g id="PathCollection_9">
     <g>
      <use style="fill:#3b528b;stroke:#3b528b;" x="124.733125" xlink:href="#mfbea231e22" y="59.871563"/>
     </g>
    </g>
    <g id="text_14">
     <!-- 3 -->
     <defs>
      <path d="M 4.203125 18.890625 
L 12.984375 20.0625 
Q 14.5 12.59375 18.140625 9.296875 
Q 21.78125 6 27 6 
Q 33.203125 6 37.46875 10.296875 
Q 41.75 14.59375 41.75 20.953125 
Q 41.75 27 37.796875 30.921875 
Q 33.84375 34.859375 27.734375 34.859375 
Q 25.25 34.859375 21.53125 33.890625 
L 22.515625 41.609375 
Q 23.390625 41.5 23.921875 41.5 
Q 29.546875 41.5 34.03125 44.421875 
Q 38.53125 47.359375 38.53125 53.46875 
Q 38.53125 58.296875 35.25 61.46875 
Q 31.984375 64.65625 26.8125 64.65625 
Q 21.6875 64.65625 18.265625 61.421875 
Q 14.84375 58.203125 13.875 51.765625 
L 5.078125 53.328125 
Q 6.6875 62.15625 12.390625 67.015625 
Q 18.109375 71.875 26.609375 71.875 
Q 32.46875 71.875 37.390625 69.359375 
Q 42.328125 66.84375 44.9375 62.5 
Q 47.5625 58.15625 47.5625 53.265625 
Q 47.5625 48.640625 45.0625 44.828125 
Q 42.578125 41.015625 37.703125 38.765625 
Q 44.046875 37.3125 47.5625 32.6875 
Q 51.078125 28.078125 51.078125 21.140625 
Q 51.078125 11.765625 44.234375 5.25 
Q 37.40625 -1.265625 26.953125 -1.265625 
Q 17.53125 -1.265625 11.296875 4.34375 
Q 5.078125 9.96875 4.203125 18.890625 
z
" id="ArialMT-33"/>
     </defs>
     <g style="fill:#262626;" transform="translate(142.733125 62.496563)scale(0.1 -0.1)">
      <use xlink:href="#ArialMT-33"/>
     </g>
    </g>
    <g id="PathCollection_10">
     <g>
      <use style="fill:#21918c;stroke:#21918c;" x="124.733125" xlink:href="#m9884c3409c" y="74.016875"/>
     </g>
    </g>
    <g id="text_15">
     <!-- 5 -->
     <g style="fill:#262626;" transform="translate(142.733125 76.641875)scale(0.1 -0.1)">
      <use xlink:href="#ArialMT-35"/>
     </g>
    </g>
    <g id="PathCollection_11">
     <g>
      <use style="fill:#5ec962;stroke:#5ec962;" x="124.733125" xlink:href="#m7a3341b1a2" y="88.162188"/>
     </g>
    </g>
    <g id="text_16">
     <!-- 7 -->
     <defs>
      <path d="M 4.734375 62.203125 
L 4.734375 70.65625 
L 51.078125 70.65625 
L 51.078125 63.8125 
Q 44.234375 56.546875 37.515625 44.484375 
Q 30.8125 32.421875 27.15625 19.671875 
Q 24.515625 10.6875 23.78125 0 
L 14.75 0 
Q 14.890625 8.453125 18.0625 20.40625 
Q 21.234375 32.375 27.171875 43.484375 
Q 33.109375 54.59375 39.796875 62.203125 
z
" id="ArialMT-37"/>
     </defs>
     <g style="fill:#262626;" transform="translate(142.733125 90.787188)scale(0.1 -0.1)">
      <use xlink:href="#ArialMT-37"/>
     </g>
    </g>
    <g id="PathCollection_12">
     <g>
      <use style="fill:#fde725;stroke:#fde725;" x="124.733125" xlink:href="#m5dcac814b7" y="102.3075"/>
     </g>
    </g>
    <g id="text_17">
     <!-- 9 -->
     <defs>
      <path d="M 5.46875 16.546875 
L 13.921875 17.328125 
Q 14.984375 11.375 18.015625 8.6875 
Q 21.046875 6 25.78125 6 
Q 29.828125 6 32.875 7.859375 
Q 35.9375 9.71875 37.890625 12.8125 
Q 39.84375 15.921875 41.15625 21.1875 
Q 42.484375 26.46875 42.484375 31.9375 
Q 42.484375 32.515625 42.4375 33.6875 
Q 39.796875 29.5 35.234375 26.875 
Q 30.671875 24.265625 25.34375 24.265625 
Q 16.453125 24.265625 10.296875 30.703125 
Q 4.15625 37.15625 4.15625 47.703125 
Q 4.15625 58.59375 10.578125 65.234375 
Q 17 71.875 26.65625 71.875 
Q 33.640625 71.875 39.421875 68.109375 
Q 45.21875 64.359375 48.21875 57.390625 
Q 51.21875 50.4375 51.21875 37.25 
Q 51.21875 23.53125 48.234375 15.40625 
Q 45.265625 7.28125 39.375 3.03125 
Q 33.5 -1.21875 25.59375 -1.21875 
Q 17.1875 -1.21875 11.859375 3.4375 
Q 6.546875 8.109375 5.46875 16.546875 
z
M 41.453125 48.140625 
Q 41.453125 55.71875 37.421875 60.15625 
Q 33.40625 64.59375 27.734375 64.59375 
Q 21.875 64.59375 17.53125 59.8125 
Q 13.1875 55.03125 13.1875 47.40625 
Q 13.1875 40.578125 17.3125 36.296875 
Q 21.4375 32.03125 27.484375 32.03125 
Q 33.59375 32.03125 37.515625 36.296875 
Q 41.453125 40.578125 41.453125 48.140625 
z
" id="ArialMT-39"/>
     </defs>
     <g style="fill:#262626;" transform="translate(142.733125 104.9325)scale(0.1 -0.1)">
      <use xlink:href="#ArialMT-39"/>
     </g>
    </g>
   </g>
  </g>
 </g>
 <defs>
  <clipPath id="p846455f0fd">
   <rect height="108.72" width="111.6" x="58.205" y="7.2"/>
  </clipPath>
 </defs>
</svg>
