<?xml version="1.0" encoding="utf-8" standalone="no"?>
<!DOCTYPE svg PUBLIC "-//W3C//DTD SVG 1.1//EN"
  "http://www.w3.org/Graphics/SVG/1.1/DTD/svg11.dtd">
<!-- Created with matplotlib (http://matplotlib.org/) -->
<svg height="216pt" version="1.1" viewBox="0 0 216 216" width="216pt" xmlns="http://www.w3.org/2000/svg" xmlns:xlink="http://www.w3.org/1999/xlink">
 <defs>
  <style type="text/css">
*{stroke-linecap:butt;stroke-linejoin:round;}
  </style>
 </defs>
 <g id="figure_1">
  <g id="patch_1">
   <path d="M 0 216 
L 216 216 
L 216 0 
L 0 0 
z
" style="fill:none;opacity:0;"/>
  </g>
  <g id="axes_1">
   <g id="patch_2">
    <path d="M 27 189 
L 194.4 189 
L 194.4 25.92 
L 27 25.92 
z
" style="fill:none;"/>
   </g>
   <g id="PathCollection_1">
    <defs>
     <path d="M 0 2.236068 
C 0.593012 2.236068 1.161816 2.000462 1.581139 1.581139 
C 2.000462 1.161816 2.236068 0.593012 2.236068 0 
C 2.236068 -0.593012 2.000462 -1.161816 1.581139 -1.581139 
C 1.161816 -2.000462 0.593012 -2.236068 0 -2.236068 
C -0.593012 -2.236068 -1.161816 -2.000462 -1.581139 -1.581139 
C -2.000462 -1.161816 -2.236068 -0.593012 -2.236068 0 
C -2.236068 0.593012 -2.000462 1.161816 -1.581139 1.581139 
C -1.161816 2.000462 -0.593012 2.236068 0 2.236068 
z
" id="m693c605552" style="stroke:#440154;"/>
    </defs>
    <g clip-path="url(#p81f6eaff90)">
     <use style="fill:#440154;stroke:#440154;" x="39.28332" xlink:href="#m693c605552" y="180.652139"/>
     <use style="fill:#440154;stroke:#440154;" x="28.3474" xlink:href="#m693c605552" y="184.326185"/>
     <use style="fill:#440154;stroke:#440154;" x="43.20689" xlink:href="#m693c605552" y="125.650255"/>
     <use style="fill:#440154;stroke:#440154;" x="29.952317" xlink:href="#m693c605552" y="183.990994"/>
     <use style="fill:#440154;stroke:#440154;" x="30.945033" xlink:href="#m693c605552" y="184.849527"/>
    </g>
   </g>
   <g id="PathCollection_2">
    <defs>
     <path d="M 0 2.236068 
C 0.593012 2.236068 1.161816 2.000462 1.581139 1.581139 
C 2.000462 1.161816 2.236068 0.593012 2.236068 0 
C 2.236068 -0.593012 2.000462 -1.161816 1.581139 -1.581139 
C 1.161816 -2.000462 0.593012 -2.236068 0 -2.236068 
C -0.593012 -2.236068 -1.161816 -2.000462 -1.581139 -1.581139 
C -2.000462 -1.161816 -2.236068 -0.593012 -2.236068 0 
C -2.236068 0.593012 -2.000462 1.161816 -1.581139 1.581139 
C -1.161816 2.000462 -0.593012 2.236068 0 2.236068 
z
" id="m830e205946" style="stroke:#472d7b;"/>
    </defs>
    <g clip-path="url(#p81f6eaff90)">
     <use style="fill:#472d7b;stroke:#472d7b;" x="66.635398" xlink:href="#m830e205946" y="101.117877"/>
     <use style="fill:#472d7b;stroke:#472d7b;" x="46.650085" xlink:href="#m830e205946" y="139.87964"/>
     <use style="fill:#472d7b;stroke:#472d7b;" x="54.956253" xlink:href="#m830e205946" y="132.291852"/>
     <use style="fill:#472d7b;stroke:#472d7b;" x="40.489882" xlink:href="#m830e205946" y="156.81974"/>
     <use style="fill:#472d7b;stroke:#472d7b;" x="51.961758" xlink:href="#m830e205946" y="144.02432"/>
    </g>
   </g>
   <g id="PathCollection_3">
    <defs>
     <path d="M 0 2.236068 
C 0.593012 2.236068 1.161816 2.000462 1.581139 1.581139 
C 2.000462 1.161816 2.236068 0.593012 2.236068 0 
C 2.236068 -0.593012 2.000462 -1.161816 1.581139 -1.581139 
C 1.161816 -2.000462 0.593012 -2.236068 0 -2.236068 
C -0.593012 -2.236068 -1.161816 -2.000462 -1.581139 -1.581139 
C -2.000462 -1.161816 -2.236068 -0.593012 -2.236068 0 
C -2.236068 0.593012 -2.000462 1.161816 -1.581139 1.581139 
C -1.161816 2.000462 -0.593012 2.236068 0 2.236068 
z
" id="m05d08527e1" style="stroke:#3b528b;"/>
    </defs>
    <g clip-path="url(#p81f6eaff90)">
     <use style="fill:#3b528b;stroke:#3b528b;" x="64.740752" xlink:href="#m05d08527e1" y="121.567363"/>
     <use style="fill:#3b528b;stroke:#3b528b;" x="65.662692" xlink:href="#m05d08527e1" y="114.522722"/>
     <use style="fill:#3b528b;stroke:#3b528b;" x="63.685823" xlink:href="#m05d08527e1" y="118.447041"/>
     <use style="fill:#3b528b;stroke:#3b528b;" x="68.532527" xlink:href="#m05d08527e1" y="93.334584"/>
     <use style="fill:#3b528b;stroke:#3b528b;" x="68.446586" xlink:href="#m05d08527e1" y="103.731336"/>
    </g>
   </g>
   <g id="PathCollection_4">
    <defs>
     <path d="M 0 2.236068 
C 0.593012 2.236068 1.161816 2.000462 1.581139 1.581139 
C 2.000462 1.161816 2.236068 0.593012 2.236068 0 
C 2.236068 -0.593012 2.000462 -1.161816 1.581139 -1.581139 
C 1.161816 -2.000462 0.593012 -2.236068 0 -2.236068 
C -0.593012 -2.236068 -1.161816 -2.000462 -1.581139 -1.581139 
C -2.000462 -1.161816 -2.236068 -0.593012 -2.236068 0 
C -2.236068 0.593012 -2.000462 1.161816 -1.581139 1.581139 
C -1.161816 2.000462 -0.593012 2.236068 0 2.236068 
z
" id="m01092c8f15" style="stroke:#21918c;"/>
    </defs>
    <g clip-path="url(#p81f6eaff90)">
     <use style="fill:#21918c;stroke:#21918c;" x="65.350857" xlink:href="#m01092c8f15" y="106.643673"/>
     <use style="fill:#21918c;stroke:#21918c;" x="60.614573" xlink:href="#m01092c8f15" y="128.012592"/>
     <use style="fill:#21918c;stroke:#21918c;" x="56.384751" xlink:href="#m01092c8f15" y="139.059978"/>
     <use style="fill:#21918c;stroke:#21918c;" x="63.004217" xlink:href="#m01092c8f15" y="102.851537"/>
     <use style="fill:#21918c;stroke:#21918c;" x="65.040838" xlink:href="#m01092c8f15" y="104.491049"/>
    </g>
   </g>
   <g id="PathCollection_5">
    <defs>
     <path d="M 0 2.236068 
C 0.593012 2.236068 1.161816 2.000462 1.581139 1.581139 
C 2.000462 1.161816 2.236068 0.593012 2.236068 0 
C 2.236068 -0.593012 2.000462 -1.161816 1.581139 -1.581139 
C 1.161816 -2.000462 0.593012 -2.236068 0 -2.236068 
C -0.593012 -2.236068 -1.161816 -2.000462 -1.581139 -1.581139 
C -2.000462 -1.161816 -2.236068 -0.593012 -2.236068 0 
C -2.236068 0.593012 -2.000462 1.161816 -1.581139 1.581139 
C -1.161816 2.000462 -0.593012 2.236068 0 2.236068 
z
" id="ma01b03d5a4" style="stroke:#5ec962;"/>
    </defs>
    <g clip-path="url(#p81f6eaff90)">
     <use style="fill:#5ec962;stroke:#5ec962;" x="64.516464" xlink:href="#ma01b03d5a4" y="103.26314"/>
     <use style="fill:#5ec962;stroke:#5ec962;" x="75.131597" xlink:href="#ma01b03d5a4" y="90.439414"/>
     <use style="fill:#5ec962;stroke:#5ec962;" x="86.927923" xlink:href="#ma01b03d5a4" y="59.147397"/>
     <use style="fill:#5ec962;stroke:#5ec962;" x="72.034296" xlink:href="#ma01b03d5a4" y="76.754428"/>
     <use style="fill:#5ec962;stroke:#5ec962;" x="70.062914" xlink:href="#ma01b03d5a4" y="105.01985"/>
    </g>
   </g>
   <g id="PathCollection_6">
    <defs>
     <path d="M 0 2.236068 
C 0.593012 2.236068 1.161816 2.000462 1.581139 1.581139 
C 2.000462 1.161816 2.236068 0.593012 2.236068 0 
C 2.236068 -0.593012 2.000462 -1.161816 1.581139 -1.581139 
C 1.161816 -2.000462 0.593012 -2.236068 0 -2.236068 
C -0.593012 -2.236068 -1.161816 -2.000462 -1.581139 -1.581139 
C -2.000462 -1.161816 -2.236068 -0.593012 -2.236068 0 
C -2.236068 0.593012 -2.000462 1.161816 -1.581139 1.581139 
C -1.161816 2.000462 -0.593012 2.236068 0 2.236068 
z
" id="m2a619f9b70" style="stroke:#fde725;"/>
    </defs>
    <g clip-path="url(#p81f6eaff90)">
     <use style="fill:#fde725;stroke:#fde725;" x="87.713543" xlink:href="#m2a619f9b70" y="49.559205"/>
     <use style="fill:#fde725;stroke:#fde725;" x="84.098459" xlink:href="#m2a619f9b70" y="73.693396"/>
     <use style="fill:#fde725;stroke:#fde725;" x="73.426064" xlink:href="#m2a619f9b70" y="107.354439"/>
     <use style="fill:#fde725;stroke:#fde725;" x="70.894526" xlink:href="#m2a619f9b70" y="113.448752"/>
     <use style="fill:#fde725;stroke:#fde725;" x="78.52247" xlink:href="#m2a619f9b70" y="95.979398"/>
    </g>
   </g>
   <g id="line2d_1">
    <path clip-path="url(#p81f6eaff90)" d="M 28.21266 191.347215 
L 28.380487 190.814995 
L 28.548315 190.282775 
L 28.716142 189.750555 
L 28.88397 189.218335 
L 29.051797 188.686115 
L 29.219625 188.153896 
L 29.387452 187.621676 
L 29.55528 187.089456 
L 29.723107 186.557236 
L 29.890934 186.025016 
L 30.058762 185.492796 
L 30.226589 184.960576 
L 30.394417 184.428356 
L 30.562244 183.896136 
L 30.730072 183.363916 
L 30.897899 182.831696 
L 31.065727 182.299476 
L 31.233554 181.767256 
L 31.401382 181.235036 
L 31.569209 180.702816 
L 31.737037 180.170596 
L 31.904864 179.638376 
L 32.072691 179.106156 
L 32.240519 178.573936 
L 32.408346 178.041716 
L 32.576174 177.509496 
L 32.744001 176.977276 
L 32.911829 176.445056 
L 33.079656 175.912836 
L 33.247484 175.380616 
L 33.415311 174.848396 
L 33.583139 174.316176 
L 33.750966 173.783956 
L 33.918794 173.251736 
L 34.086621 172.719516 
L 34.254448 172.187297 
L 34.422276 171.655077 
L 34.590103 171.122857 
L 34.757931 170.590637 
L 34.925758 170.058417 
L 35.093586 169.526197 
L 35.261413 168.993977 
L 35.429241 168.461757 
L 35.597068 167.929537 
L 35.764896 167.397317 
L 35.932723 166.865097 
L 36.100551 166.332877 
L 36.268378 165.800657 
L 36.436206 165.268437 
L 36.604033 164.736217 
L 36.77186 164.203997 
L 36.939688 163.671777 
L 37.107515 163.139557 
L 37.275343 162.607337 
L 37.44317 162.075117 
L 37.610998 161.542897 
L 37.778825 161.010677 
L 37.946653 160.478457 
L 38.11448 159.946237 
L 38.282308 159.414017 
L 38.450135 158.881797 
L 38.617963 158.349577 
L 38.78579 157.817357 
L 38.953617 157.285137 
L 39.121445 156.752917 
L 39.289272 156.220698 
L 39.4571 155.688478 
L 39.624927 155.156258 
L 39.792755 154.624038 
L 39.960582 154.091818 
L 40.12841 153.559598 
L 40.296237 153.027378 
L 40.464065 152.495158 
L 40.631892 151.962938 
L 40.79972 151.430718 
L 40.967547 150.898498 
L 41.135375 150.366278 
L 41.303202 149.834058 
L 41.471029 149.301838 
L 41.638857 148.769618 
L 41.806684 148.237398 
L 41.974512 147.705178 
L 42.142339 147.172958 
L 42.310167 146.640738 
L 42.477994 146.108518 
L 42.645822 145.576298 
L 42.813649 145.044078 
L 42.981477 144.511858 
L 43.149304 143.979638 
L 43.317132 143.447418 
L 43.484959 142.915198 
L 43.652786 142.382978 
L 43.820614 141.850758 
L 43.988441 141.318538 
L 44.156269 140.786318 
L 44.324096 140.254099 
L 44.491924 139.721879 
L 44.659751 139.189659 
L 44.827579 138.657439 
" style="fill:none;stroke:#440154;stroke-dasharray:3.7,1.6;stroke-dashoffset:0;"/>
   </g>
   <g id="line2d_2">
    <path clip-path="url(#p81f6eaff90)" d="M 39.140894 161.27841 
L 39.458652 160.631742 
L 39.77641 159.985074 
L 40.094168 159.338407 
L 40.411926 158.691739 
L 40.729684 158.045071 
L 41.047442 157.398403 
L 41.3652 156.751735 
L 41.682958 156.105067 
L 42.000716 155.458399 
L 42.318474 154.811731 
L 42.636232 154.165064 
L 42.95399 153.518396 
L 43.271748 152.871728 
L 43.589506 152.22506 
L 43.907264 151.578392 
L 44.225022 150.931724 
L 44.54278 150.285056 
L 44.860538 149.638388 
L 45.178296 148.991721 
L 45.496054 148.345053 
L 45.813812 147.698385 
L 46.13157 147.051717 
L 46.449328 146.405049 
L 46.767086 145.758381 
L 47.084844 145.111713 
L 47.402602 144.465045 
L 47.72036 143.818378 
L 48.038118 143.17171 
L 48.355876 142.525042 
L 48.673634 141.878374 
L 48.991392 141.231706 
L 49.309151 140.585038 
L 49.626909 139.93837 
L 49.944667 139.291702 
L 50.262425 138.645035 
L 50.580183 137.998367 
L 50.897941 137.351699 
L 51.215699 136.705031 
L 51.533457 136.058363 
L 51.851215 135.411695 
L 52.168973 134.765027 
L 52.486731 134.11836 
L 52.804489 133.471692 
L 53.122247 132.825024 
L 53.440005 132.178356 
L 53.757763 131.531688 
L 54.075521 130.88502 
L 54.393279 130.238352 
L 54.711037 129.591684 
L 55.028795 128.945017 
L 55.346553 128.298349 
L 55.664311 127.651681 
L 55.982069 127.005013 
L 56.299827 126.358345 
L 56.617585 125.711677 
L 56.935343 125.065009 
L 57.253101 124.418341 
L 57.570859 123.771674 
L 57.888617 123.125006 
L 58.206375 122.478338 
L 58.524133 121.83167 
L 58.841891 121.185002 
L 59.159649 120.538334 
L 59.477407 119.891666 
L 59.795165 119.244998 
L 60.112923 118.598331 
L 60.430681 117.951663 
L 60.748439 117.304995 
L 61.066197 116.658327 
L 61.383955 116.011659 
L 61.701713 115.364991 
L 62.019471 114.718323 
L 62.337229 114.071655 
L 62.654987 113.424988 
L 62.972745 112.77832 
L 63.290503 112.131652 
L 63.608261 111.484984 
L 63.926019 110.838316 
L 64.243777 110.191648 
L 64.561535 109.54498 
L 64.879293 108.898312 
L 65.197051 108.251645 
L 65.514809 107.604977 
L 65.832567 106.958309 
L 66.150325 106.311641 
L 66.468083 105.664973 
L 66.785841 105.018305 
L 67.103599 104.371637 
L 67.421357 103.724969 
L 67.739115 103.078302 
L 68.056873 102.431634 
L 68.374631 101.784966 
L 68.692389 101.138298 
L 69.010147 100.49163 
L 69.327905 99.844962 
L 69.645663 99.198294 
L 69.963421 98.551627 
L 70.281179 97.904959 
L 70.598938 97.258291 
" style="fill:none;stroke:#472d7b;stroke-dasharray:3.7,1.6;stroke-dashoffset:0;"/>
   </g>
   <g id="line2d_3">
    <path clip-path="url(#p81f6eaff90)" d="M 60.017241 140.462963 
L 60.145206 139.840482 
L 60.273171 139.218 
L 60.401136 138.595518 
L 60.529101 137.973037 
L 60.657066 137.350555 
L 60.785031 136.728073 
L 60.912996 136.105592 
L 61.040961 135.48311 
L 61.168926 134.860628 
L 61.296891 134.238146 
L 61.424856 133.615665 
L 61.552822 132.993183 
L 61.680787 132.370701 
L 61.808752 131.74822 
L 61.936717 131.125738 
L 62.064682 130.503256 
L 62.192647 129.880775 
L 62.320612 129.258293 
L 62.448577 128.635811 
L 62.576542 128.01333 
L 62.704507 127.390848 
L 62.832472 126.768366 
L 62.960437 126.145885 
L 63.088402 125.523403 
L 63.216367 124.900921 
L 63.344332 124.278439 
L 63.472297 123.655958 
L 63.600262 123.033476 
L 63.728227 122.410994 
L 63.856192 121.788513 
L 63.984157 121.166031 
L 64.112122 120.543549 
L 64.240087 119.921068 
L 64.368052 119.298586 
L 64.496017 118.676104 
L 64.623982 118.053623 
L 64.751947 117.431141 
L 64.879912 116.808659 
L 65.007877 116.186177 
L 65.135842 115.563696 
L 65.263807 114.941214 
L 65.391772 114.318732 
L 65.519737 113.696251 
L 65.647702 113.073769 
L 65.775668 112.451287 
L 65.903633 111.828806 
L 66.031598 111.206324 
L 66.159563 110.583842 
L 66.287528 109.961361 
L 66.415493 109.338879 
L 66.543458 108.716397 
L 66.671423 108.093916 
L 66.799388 107.471434 
L 66.927353 106.848952 
L 67.055318 106.22647 
L 67.183283 105.603989 
L 67.311248 104.981507 
L 67.439213 104.359025 
L 67.567178 103.736544 
L 67.695143 103.114062 
L 67.823108 102.49158 
L 67.951073 101.869099 
L 68.079038 101.246617 
L 68.207003 100.624135 
L 68.334968 100.001654 
L 68.462933 99.379172 
L 68.590898 98.75669 
L 68.718863 98.134208 
L 68.846828 97.511727 
L 68.974793 96.889245 
L 69.102758 96.266763 
L 69.230723 95.644282 
L 69.358688 95.0218 
L 69.486653 94.399318 
L 69.614618 93.776837 
L 69.742583 93.154355 
L 69.870548 92.531873 
L 69.998514 91.909392 
L 70.126479 91.28691 
L 70.254444 90.664428 
L 70.382409 90.041947 
L 70.510374 89.419465 
L 70.638339 88.796983 
L 70.766304 88.174501 
L 70.894269 87.55202 
L 71.022234 86.929538 
L 71.150199 86.307056 
L 71.278164 85.684575 
L 71.406129 85.062093 
L 71.534094 84.439611 
L 71.662059 83.81713 
L 71.790024 83.194648 
L 71.917989 82.572166 
L 72.045954 81.949685 
L 72.173919 81.327203 
L 72.301884 80.704721 
L 72.429849 80.082239 
L 72.557814 79.459758 
L 72.685779 78.837276 
" style="fill:none;stroke:#3b528b;stroke-dasharray:3.7,1.6;stroke-dashoffset:0;"/>
   </g>
   <g id="line2d_4">
    <path clip-path="url(#p81f6eaff90)" d="M 53.446276 151.7108 
L 53.605262 151.057028 
L 53.764249 150.403255 
L 53.923235 149.749483 
L 54.082222 149.09571 
L 54.241208 148.441938 
L 54.400195 147.788165 
L 54.559181 147.134393 
L 54.718168 146.48062 
L 54.877154 145.826848 
L 55.036141 145.173075 
L 55.195127 144.519303 
L 55.354114 143.86553 
L 55.513101 143.211758 
L 55.672087 142.557985 
L 55.831074 141.904213 
L 55.99006 141.25044 
L 56.149047 140.596668 
L 56.308033 139.942895 
L 56.46702 139.289123 
L 56.626006 138.63535 
L 56.784993 137.981578 
L 56.943979 137.327805 
L 57.102966 136.674033 
L 57.261952 136.02026 
L 57.420939 135.366488 
L 57.579926 134.712715 
L 57.738912 134.058943 
L 57.897899 133.40517 
L 58.056885 132.751398 
L 58.215872 132.097625 
L 58.374858 131.443853 
L 58.533845 130.79008 
L 58.692831 130.136308 
L 58.851818 129.482535 
L 59.010804 128.828763 
L 59.169791 128.17499 
L 59.328777 127.521218 
L 59.487764 126.867445 
L 59.646751 126.213673 
L 59.805737 125.5599 
L 59.964724 124.906128 
L 60.12371 124.252355 
L 60.282697 123.598583 
L 60.441683 122.944811 
L 60.60067 122.291038 
L 60.759656 121.637266 
L 60.918643 120.983493 
L 61.077629 120.329721 
L 61.236616 119.675948 
L 61.395602 119.022176 
L 61.554589 118.368403 
L 61.713575 117.714631 
L 61.872562 117.060858 
L 62.031549 116.407086 
L 62.190535 115.753313 
L 62.349522 115.099541 
L 62.508508 114.445768 
L 62.667495 113.791996 
L 62.826481 113.138223 
L 62.985468 112.484451 
L 63.144454 111.830678 
L 63.303441 111.176906 
L 63.462427 110.523133 
L 63.621414 109.869361 
L 63.7804 109.215588 
L 63.939387 108.561816 
L 64.098374 107.908043 
L 64.25736 107.254271 
L 64.416347 106.600498 
L 64.575333 105.946726 
L 64.73432 105.292953 
L 64.893306 104.639181 
L 65.052293 103.985408 
L 65.211279 103.331636 
L 65.370266 102.677863 
L 65.529252 102.024091 
L 65.688239 101.370318 
L 65.847225 100.716546 
L 66.006212 100.062773 
L 66.165199 99.409001 
L 66.324185 98.755228 
L 66.483172 98.101456 
L 66.642158 97.447683 
L 66.801145 96.793911 
L 66.960131 96.140138 
L 67.119118 95.486366 
L 67.278104 94.832593 
L 67.437091 94.178821 
L 67.596077 93.525048 
L 67.755064 92.871276 
L 67.91405 92.217503 
L 68.073037 91.563731 
L 68.232023 90.909958 
L 68.39101 90.256186 
L 68.549997 89.602413 
L 68.708983 88.948641 
L 68.86797 88.294868 
L 69.026956 87.641096 
L 69.185943 86.987323 
" style="fill:none;stroke:#21918c;stroke-dasharray:3.7,1.6;stroke-dashoffset:0;"/>
   </g>
   <g id="line2d_5">
    <path clip-path="url(#p81f6eaff90)" d="M 60.764818 113.173047 
L 61.089625 112.515706 
L 61.414432 111.858364 
L 61.739239 111.201023 
L 62.064046 110.543681 
L 62.388853 109.88634 
L 62.71366 109.228999 
L 63.038467 108.571657 
L 63.363274 107.914316 
L 63.688081 107.256974 
L 64.012888 106.599633 
L 64.337695 105.942291 
L 64.662502 105.28495 
L 64.987309 104.627609 
L 65.312116 103.970267 
L 65.636923 103.312926 
L 65.961731 102.655584 
L 66.286538 101.998243 
L 66.611345 101.340901 
L 66.936152 100.68356 
L 67.260959 100.026219 
L 67.585766 99.368877 
L 67.910573 98.711536 
L 68.23538 98.054194 
L 68.560187 97.396853 
L 68.884994 96.739511 
L 69.209801 96.08217 
L 69.534608 95.424829 
L 69.859415 94.767487 
L 70.184222 94.110146 
L 70.509029 93.452804 
L 70.833836 92.795463 
L 71.158643 92.138121 
L 71.48345 91.48078 
L 71.808257 90.823439 
L 72.133064 90.166097 
L 72.457871 89.508756 
L 72.782678 88.851414 
L 73.107485 88.194073 
L 73.432293 87.536731 
L 73.7571 86.87939 
L 74.081907 86.222049 
L 74.406714 85.564707 
L 74.731521 84.907366 
L 75.056328 84.250024 
L 75.381135 83.592683 
L 75.705942 82.935341 
L 76.030749 82.278 
L 76.355556 81.620659 
L 76.680363 80.963317 
L 77.00517 80.305976 
L 77.329977 79.648634 
L 77.654784 78.991293 
L 77.979591 78.333951 
L 78.304398 77.67661 
L 78.629205 77.019269 
L 78.954012 76.361927 
L 79.278819 75.704586 
L 79.603626 75.047244 
L 79.928433 74.389903 
L 80.25324 73.732561 
L 80.578047 73.07522 
L 80.902855 72.417879 
L 81.227662 71.760537 
L 81.552469 71.103196 
L 81.877276 70.445854 
L 82.202083 69.788513 
L 82.52689 69.131171 
L 82.851697 68.47383 
L 83.176504 67.816489 
L 83.501311 67.159147 
L 83.826118 66.501806 
L 84.150925 65.844464 
L 84.475732 65.187123 
L 84.800539 64.529781 
L 85.125346 63.87244 
L 85.450153 63.215099 
L 85.77496 62.557757 
L 86.099767 61.900416 
L 86.424574 61.243074 
L 86.749381 60.585733 
L 87.074188 59.928391 
L 87.398995 59.27105 
L 87.723802 58.613709 
L 88.048609 57.956367 
L 88.373417 57.299026 
L 88.698224 56.641684 
L 89.023031 55.984343 
L 89.347838 55.327001 
L 89.672645 54.66966 
L 89.997452 54.012319 
L 90.322259 53.354977 
L 90.647066 52.697636 
L 90.971873 52.040294 
L 91.29668 51.382953 
L 91.621487 50.725611 
L 91.946294 50.06827 
L 92.271101 49.410929 
L 92.595908 48.753587 
L 92.920715 48.096246 
" style="fill:none;stroke:#5ec962;stroke-dasharray:3.7,1.6;stroke-dashoffset:0;"/>
   </g>
   <g id="line2d_6">
    <path clip-path="url(#p81f6eaff90)" d="M 66.505073 133.355753 
L 66.780627 132.350114 
L 67.056181 131.344475 
L 67.331735 130.338836 
L 67.607288 129.333197 
L 67.882842 128.327558 
L 68.158396 127.321919 
L 68.43395 126.31628 
L 68.709503 125.310641 
L 68.985057 124.305001 
L 69.260611 123.299362 
L 69.536165 122.293723 
L 69.811719 121.288084 
L 70.087272 120.282445 
L 70.362826 119.276806 
L 70.63838 118.271167 
L 70.913934 117.265528 
L 71.189487 116.259889 
L 71.465041 115.25425 
L 71.740595 114.248611 
L 72.016149 113.242972 
L 72.291703 112.237333 
L 72.567256 111.231694 
L 72.84281 110.226055 
L 73.118364 109.220416 
L 73.393918 108.214777 
L 73.669471 107.209138 
L 73.945025 106.203498 
L 74.220579 105.197859 
L 74.496133 104.19222 
L 74.771687 103.186581 
L 75.04724 102.180942 
L 75.322794 101.175303 
L 75.598348 100.169664 
L 75.873902 99.164025 
L 76.149455 98.158386 
L 76.425009 97.152747 
L 76.700563 96.147108 
L 76.976117 95.141469 
L 77.251671 94.13583 
L 77.527224 93.130191 
L 77.802778 92.124552 
L 78.078332 91.118913 
L 78.353886 90.113274 
L 78.629439 89.107635 
L 78.904993 88.101995 
L 79.180547 87.096356 
L 79.456101 86.090717 
L 79.731655 85.085078 
L 80.007208 84.079439 
L 80.282762 83.0738 
L 80.558316 82.068161 
L 80.83387 81.062522 
L 81.109423 80.056883 
L 81.384977 79.051244 
L 81.660531 78.045605 
L 81.936085 77.039966 
L 82.211639 76.034327 
L 82.487192 75.028688 
L 82.762746 74.023049 
L 83.0383 73.01741 
L 83.313854 72.011771 
L 83.589407 71.006132 
L 83.864961 70.000492 
L 84.140515 68.994853 
L 84.416069 67.989214 
L 84.691623 66.983575 
L 84.967176 65.977936 
L 85.24273 64.972297 
L 85.518284 63.966658 
L 85.793838 62.961019 
L 86.069391 61.95538 
L 86.344945 60.949741 
L 86.620499 59.944102 
L 86.896053 58.938463 
L 87.171607 57.932824 
L 87.44716 56.927185 
L 87.722714 55.921546 
L 87.998268 54.915907 
L 88.273822 53.910268 
L 88.549375 52.904629 
L 88.824929 51.898989 
L 89.100483 50.89335 
L 89.376037 49.887711 
L 89.651591 48.882072 
L 89.927144 47.876433 
L 90.202698 46.870794 
L 90.478252 45.865155 
L 90.753806 44.859516 
L 91.029359 43.853877 
L 91.304913 42.848238 
L 91.580467 41.842599 
L 91.856021 40.83696 
L 92.131575 39.831321 
L 92.407128 38.825682 
L 92.682682 37.820043 
L 92.958236 36.814404 
L 93.23379 35.808765 
L 93.509343 34.803125 
L 93.784897 33.797486 
" style="fill:none;stroke:#fde725;stroke-dasharray:3.7,1.6;stroke-dashoffset:0;"/>
   </g>
   <g id="line2d_7">
    <path clip-path="url(#p81f6eaff90)" d="M 27 189 
L 194.4 25.92 
" style="fill:none;stroke:#000000;stroke-dasharray:3.7,1.6;stroke-dashoffset:0;"/>
   </g>
   <g id="patch_3">
    <path d="M 27 189 
L 27 25.92 
" style="fill:none;stroke:#262626;stroke-linecap:square;stroke-linejoin:miter;stroke-width:1.25;"/>
   </g>
   <g id="patch_4">
    <path d="M 27 189 
L 194.4 189 
" style="fill:none;stroke:#262626;stroke-linecap:square;stroke-linejoin:miter;stroke-width:1.25;"/>
   </g>
   <g id="matplotlib.axis_1">
    <g id="xtick_1">
     <g id="line2d_8"/>
     <g id="text_1">
      <!-- 0 -->
      <defs>
       <path d="M 4.15625 35.296875 
Q 4.15625 48 6.765625 55.734375 
Q 9.375 63.484375 14.515625 67.671875 
Q 19.671875 71.875 27.484375 71.875 
Q 33.25 71.875 37.59375 69.546875 
Q 41.9375 67.234375 44.765625 62.859375 
Q 47.609375 58.5 49.21875 52.21875 
Q 50.828125 45.953125 50.828125 35.296875 
Q 50.828125 22.703125 48.234375 14.96875 
Q 45.65625 7.234375 40.5 3 
Q 35.359375 -1.21875 27.484375 -1.21875 
Q 17.140625 -1.21875 11.234375 6.203125 
Q 4.15625 15.140625 4.15625 35.296875 
z
M 13.1875 35.296875 
Q 13.1875 17.671875 17.3125 11.828125 
Q 21.4375 6 27.484375 6 
Q 33.546875 6 37.671875 11.859375 
Q 41.796875 17.71875 41.796875 35.296875 
Q 41.796875 52.984375 37.671875 58.78125 
Q 33.546875 64.59375 27.390625 64.59375 
Q 21.34375 64.59375 17.71875 59.46875 
Q 13.1875 52.9375 13.1875 35.296875 
z
" id="ArialMT-30"/>
      </defs>
      <g style="fill:#262626;" transform="translate(24.219531 199.657813)scale(0.1 -0.1)">
       <use xlink:href="#ArialMT-30"/>
      </g>
     </g>
    </g>
    <g id="xtick_2">
     <g id="line2d_9"/>
     <g id="text_2">
      <!-- 500 -->
      <defs>
       <path d="M 4.15625 18.75 
L 13.375 19.53125 
Q 14.40625 12.796875 18.140625 9.390625 
Q 21.875 6 27.15625 6 
Q 33.5 6 37.890625 10.78125 
Q 42.28125 15.578125 42.28125 23.484375 
Q 42.28125 31 38.0625 35.34375 
Q 33.84375 39.703125 27 39.703125 
Q 22.75 39.703125 19.328125 37.765625 
Q 15.921875 35.84375 13.96875 32.765625 
L 5.71875 33.84375 
L 12.640625 70.609375 
L 48.25 70.609375 
L 48.25 62.203125 
L 19.671875 62.203125 
L 15.828125 42.96875 
Q 22.265625 47.46875 29.34375 47.46875 
Q 38.71875 47.46875 45.15625 40.96875 
Q 51.609375 34.46875 51.609375 24.265625 
Q 51.609375 14.546875 45.953125 7.46875 
Q 39.0625 -1.21875 27.15625 -1.21875 
Q 17.390625 -1.21875 11.203125 4.25 
Q 5.03125 9.71875 4.15625 18.75 
z
" id="ArialMT-35"/>
      </defs>
      <g style="fill:#262626;" transform="translate(52.820274 199.657813)scale(0.1 -0.1)">
       <use xlink:href="#ArialMT-35"/>
       <use x="55.615234" xlink:href="#ArialMT-30"/>
       <use x="111.230469" xlink:href="#ArialMT-30"/>
      </g>
     </g>
    </g>
    <g id="xtick_3">
     <g id="line2d_10"/>
     <g id="text_3">
      <!-- 1000 -->
      <defs>
       <path d="M 37.25 0 
L 28.46875 0 
L 28.46875 56 
Q 25.296875 52.984375 20.140625 49.953125 
Q 14.984375 46.921875 10.890625 45.40625 
L 10.890625 53.90625 
Q 18.265625 57.375 23.78125 62.296875 
Q 29.296875 67.234375 31.59375 71.875 
L 37.25 71.875 
z
" id="ArialMT-31"/>
      </defs>
      <g style="fill:#262626;" transform="translate(84.201486 199.657813)scale(0.1 -0.1)">
       <use xlink:href="#ArialMT-31"/>
       <use x="55.615234" xlink:href="#ArialMT-30"/>
       <use x="111.230469" xlink:href="#ArialMT-30"/>
       <use x="166.845703" xlink:href="#ArialMT-30"/>
      </g>
     </g>
    </g>
    <g id="xtick_4">
     <g id="line2d_11"/>
     <g id="text_4">
      <!-- 1500 -->
      <g style="fill:#262626;" transform="translate(118.363167 199.657813)scale(0.1 -0.1)">
       <use xlink:href="#ArialMT-31"/>
       <use x="55.615234" xlink:href="#ArialMT-35"/>
       <use x="111.230469" xlink:href="#ArialMT-30"/>
       <use x="166.845703" xlink:href="#ArialMT-30"/>
      </g>
     </g>
    </g>
    <g id="xtick_5">
     <g id="line2d_12"/>
     <g id="text_5">
      <!-- 2000 -->
      <defs>
       <path d="M 50.34375 8.453125 
L 50.34375 0 
L 3.03125 0 
Q 2.9375 3.171875 4.046875 6.109375 
Q 5.859375 10.9375 9.828125 15.625 
Q 13.8125 20.3125 21.34375 26.46875 
Q 33.015625 36.03125 37.109375 41.625 
Q 41.21875 47.21875 41.21875 52.203125 
Q 41.21875 57.421875 37.46875 61 
Q 33.734375 64.59375 27.734375 64.59375 
Q 21.390625 64.59375 17.578125 60.78125 
Q 13.765625 56.984375 13.71875 50.25 
L 4.6875 51.171875 
Q 5.609375 61.28125 11.65625 66.578125 
Q 17.71875 71.875 27.9375 71.875 
Q 38.234375 71.875 44.234375 66.15625 
Q 50.25 60.453125 50.25 52 
Q 50.25 47.703125 48.484375 43.546875 
Q 46.734375 39.40625 42.65625 34.8125 
Q 38.578125 30.21875 29.109375 22.21875 
Q 21.1875 15.578125 18.9375 13.203125 
Q 16.703125 10.84375 15.234375 8.453125 
z
" id="ArialMT-32"/>
      </defs>
      <g style="fill:#262626;" transform="translate(152.524847 199.657813)scale(0.1 -0.1)">
       <use xlink:href="#ArialMT-32"/>
       <use x="55.615234" xlink:href="#ArialMT-30"/>
       <use x="111.230469" xlink:href="#ArialMT-30"/>
       <use x="166.845703" xlink:href="#ArialMT-30"/>
      </g>
     </g>
    </g>
    <g id="text_6">
     <!-- Excitation (pA) -->
     <defs>
      <path d="M 7.90625 0 
L 7.90625 71.578125 
L 59.671875 71.578125 
L 59.671875 63.140625 
L 17.390625 63.140625 
L 17.390625 41.21875 
L 56.984375 41.21875 
L 56.984375 32.8125 
L 17.390625 32.8125 
L 17.390625 8.453125 
L 61.328125 8.453125 
L 61.328125 0 
z
" id="ArialMT-45"/>
      <path d="M 0.734375 0 
L 19.671875 26.953125 
L 2.15625 51.859375 
L 13.140625 51.859375 
L 21.09375 39.703125 
Q 23.34375 36.234375 24.703125 33.890625 
Q 26.859375 37.109375 28.65625 39.59375 
L 37.40625 51.859375 
L 47.90625 51.859375 
L 29.984375 27.4375 
L 49.265625 0 
L 38.484375 0 
L 27.828125 16.109375 
L 25 20.453125 
L 11.375 0 
z
" id="ArialMT-78"/>
      <path d="M 40.4375 19 
L 49.078125 17.875 
Q 47.65625 8.9375 41.8125 3.875 
Q 35.984375 -1.171875 27.484375 -1.171875 
Q 16.84375 -1.171875 10.375 5.78125 
Q 3.90625 12.75 3.90625 25.734375 
Q 3.90625 34.125 6.6875 40.421875 
Q 9.46875 46.734375 15.15625 49.875 
Q 20.84375 53.03125 27.546875 53.03125 
Q 35.984375 53.03125 41.359375 48.75 
Q 46.734375 44.484375 48.25 36.625 
L 39.703125 35.296875 
Q 38.484375 40.53125 35.375 43.15625 
Q 32.28125 45.796875 27.875 45.796875 
Q 21.234375 45.796875 17.078125 41.03125 
Q 12.9375 36.28125 12.9375 25.984375 
Q 12.9375 15.53125 16.9375 10.796875 
Q 20.953125 6.0625 27.390625 6.0625 
Q 32.5625 6.0625 36.03125 9.234375 
Q 39.5 12.40625 40.4375 19 
z
" id="ArialMT-63"/>
      <path d="M 6.640625 61.46875 
L 6.640625 71.578125 
L 15.4375 71.578125 
L 15.4375 61.46875 
z
M 6.640625 0 
L 6.640625 51.859375 
L 15.4375 51.859375 
L 15.4375 0 
z
" id="ArialMT-69"/>
      <path d="M 25.78125 7.859375 
L 27.046875 0.09375 
Q 23.34375 -0.6875 20.40625 -0.6875 
Q 15.625 -0.6875 12.984375 0.828125 
Q 10.359375 2.34375 9.28125 4.8125 
Q 8.203125 7.28125 8.203125 15.1875 
L 8.203125 45.015625 
L 1.765625 45.015625 
L 1.765625 51.859375 
L 8.203125 51.859375 
L 8.203125 64.703125 
L 16.9375 69.96875 
L 16.9375 51.859375 
L 25.78125 51.859375 
L 25.78125 45.015625 
L 16.9375 45.015625 
L 16.9375 14.703125 
Q 16.9375 10.9375 17.40625 9.859375 
Q 17.875 8.796875 18.921875 8.15625 
Q 19.96875 7.515625 21.921875 7.515625 
Q 23.390625 7.515625 25.78125 7.859375 
z
" id="ArialMT-74"/>
      <path d="M 40.4375 6.390625 
Q 35.546875 2.25 31.03125 0.53125 
Q 26.515625 -1.171875 21.34375 -1.171875 
Q 12.796875 -1.171875 8.203125 3 
Q 3.609375 7.171875 3.609375 13.671875 
Q 3.609375 17.484375 5.34375 20.625 
Q 7.078125 23.78125 9.890625 25.6875 
Q 12.703125 27.59375 16.21875 28.5625 
Q 18.796875 29.25 24.03125 29.890625 
Q 34.671875 31.15625 39.703125 32.90625 
Q 39.75 34.71875 39.75 35.203125 
Q 39.75 40.578125 37.25 42.78125 
Q 33.890625 45.75 27.25 45.75 
Q 21.046875 45.75 18.09375 43.578125 
Q 15.140625 41.40625 13.71875 35.890625 
L 5.125 37.0625 
Q 6.296875 42.578125 8.984375 45.96875 
Q 11.671875 49.359375 16.75 51.1875 
Q 21.828125 53.03125 28.515625 53.03125 
Q 35.15625 53.03125 39.296875 51.46875 
Q 43.453125 49.90625 45.40625 47.53125 
Q 47.359375 45.171875 48.140625 41.546875 
Q 48.578125 39.3125 48.578125 33.453125 
L 48.578125 21.734375 
Q 48.578125 9.46875 49.140625 6.21875 
Q 49.703125 2.984375 51.375 0 
L 42.1875 0 
Q 40.828125 2.734375 40.4375 6.390625 
z
M 39.703125 26.03125 
Q 34.90625 24.078125 25.34375 22.703125 
Q 19.921875 21.921875 17.671875 20.9375 
Q 15.4375 19.96875 14.203125 18.09375 
Q 12.984375 16.21875 12.984375 13.921875 
Q 12.984375 10.40625 15.640625 8.0625 
Q 18.3125 5.71875 23.4375 5.71875 
Q 28.515625 5.71875 32.46875 7.9375 
Q 36.421875 10.15625 38.28125 14.015625 
Q 39.703125 17 39.703125 22.796875 
z
" id="ArialMT-61"/>
      <path d="M 3.328125 25.921875 
Q 3.328125 40.328125 11.328125 47.265625 
Q 18.015625 53.03125 27.640625 53.03125 
Q 38.328125 53.03125 45.109375 46.015625 
Q 51.90625 39.015625 51.90625 26.65625 
Q 51.90625 16.65625 48.90625 10.90625 
Q 45.90625 5.171875 40.15625 2 
Q 34.421875 -1.171875 27.640625 -1.171875 
Q 16.75 -1.171875 10.03125 5.8125 
Q 3.328125 12.796875 3.328125 25.921875 
z
M 12.359375 25.921875 
Q 12.359375 15.96875 16.703125 11.015625 
Q 21.046875 6.0625 27.640625 6.0625 
Q 34.1875 6.0625 38.53125 11.03125 
Q 42.875 16.015625 42.875 26.21875 
Q 42.875 35.84375 38.5 40.796875 
Q 34.125 45.75 27.640625 45.75 
Q 21.046875 45.75 16.703125 40.8125 
Q 12.359375 35.890625 12.359375 25.921875 
z
" id="ArialMT-6f"/>
      <path d="M 6.59375 0 
L 6.59375 51.859375 
L 14.5 51.859375 
L 14.5 44.484375 
Q 20.21875 53.03125 31 53.03125 
Q 35.6875 53.03125 39.625 51.34375 
Q 43.5625 49.65625 45.515625 46.921875 
Q 47.46875 44.1875 48.25 40.4375 
Q 48.734375 37.984375 48.734375 31.890625 
L 48.734375 0 
L 39.9375 0 
L 39.9375 31.546875 
Q 39.9375 36.921875 38.90625 39.578125 
Q 37.890625 42.234375 35.28125 43.8125 
Q 32.671875 45.40625 29.15625 45.40625 
Q 23.53125 45.40625 19.453125 41.84375 
Q 15.375 38.28125 15.375 28.328125 
L 15.375 0 
z
" id="ArialMT-6e"/>
      <path id="ArialMT-20"/>
      <path d="M 23.390625 -21.046875 
Q 16.109375 -11.859375 11.078125 0.4375 
Q 6.0625 12.75 6.0625 25.921875 
Q 6.0625 37.546875 9.8125 48.1875 
Q 14.203125 60.546875 23.390625 72.796875 
L 29.6875 72.796875 
Q 23.78125 62.640625 21.875 58.296875 
Q 18.890625 51.5625 17.1875 44.234375 
Q 15.09375 35.109375 15.09375 25.875 
Q 15.09375 2.390625 29.6875 -21.046875 
z
" id="ArialMT-28"/>
      <path d="M 6.59375 -19.875 
L 6.59375 51.859375 
L 14.59375 51.859375 
L 14.59375 45.125 
Q 17.4375 49.078125 21 51.046875 
Q 24.5625 53.03125 29.640625 53.03125 
Q 36.28125 53.03125 41.359375 49.609375 
Q 46.4375 46.1875 49.015625 39.953125 
Q 51.609375 33.734375 51.609375 26.3125 
Q 51.609375 18.359375 48.75 11.984375 
Q 45.90625 5.609375 40.453125 2.21875 
Q 35.015625 -1.171875 29 -1.171875 
Q 24.609375 -1.171875 21.109375 0.6875 
Q 17.625 2.546875 15.375 5.375 
L 15.375 -19.875 
z
M 14.546875 25.640625 
Q 14.546875 15.625 18.59375 10.84375 
Q 22.65625 6.0625 28.421875 6.0625 
Q 34.28125 6.0625 38.453125 11.015625 
Q 42.625 15.96875 42.625 26.375 
Q 42.625 36.28125 38.546875 41.203125 
Q 34.46875 46.140625 28.8125 46.140625 
Q 23.1875 46.140625 18.859375 40.890625 
Q 14.546875 35.640625 14.546875 25.640625 
z
" id="ArialMT-70"/>
      <path d="M -0.140625 0 
L 27.34375 71.578125 
L 37.546875 71.578125 
L 66.84375 0 
L 56.0625 0 
L 47.703125 21.6875 
L 17.78125 21.6875 
L 9.90625 0 
z
M 20.515625 29.390625 
L 44.78125 29.390625 
L 37.3125 49.21875 
Q 33.890625 58.25 32.234375 64.0625 
Q 30.859375 57.171875 28.375 50.390625 
z
" id="ArialMT-41"/>
      <path d="M 12.359375 -21.046875 
L 6.0625 -21.046875 
Q 20.65625 2.390625 20.65625 25.875 
Q 20.65625 35.0625 18.5625 44.09375 
Q 16.890625 51.421875 13.921875 58.15625 
Q 12.015625 62.546875 6.0625 72.796875 
L 12.359375 72.796875 
Q 21.53125 60.546875 25.921875 48.1875 
Q 29.6875 37.546875 29.6875 25.921875 
Q 29.6875 12.75 24.625 0.4375 
Q 19.578125 -11.859375 12.359375 -21.046875 
z
" id="ArialMT-29"/>
     </defs>
     <g style="fill:#262626;" transform="translate(78.189063 212.925)scale(0.1 -0.1)">
      <use xlink:href="#ArialMT-45"/>
      <use x="66.699219" xlink:href="#ArialMT-78"/>
      <use x="116.699219" xlink:href="#ArialMT-63"/>
      <use x="166.699219" xlink:href="#ArialMT-69"/>
      <use x="188.916016" xlink:href="#ArialMT-74"/>
      <use x="216.699219" xlink:href="#ArialMT-61"/>
      <use x="272.314453" xlink:href="#ArialMT-74"/>
      <use x="300.097656" xlink:href="#ArialMT-69"/>
      <use x="322.314453" xlink:href="#ArialMT-6f"/>
      <use x="377.929688" xlink:href="#ArialMT-6e"/>
      <use x="433.544922" xlink:href="#ArialMT-20"/>
      <use x="461.328125" xlink:href="#ArialMT-28"/>
      <use x="494.628906" xlink:href="#ArialMT-70"/>
      <use x="550.244141" xlink:href="#ArialMT-41"/>
      <use x="616.943359" xlink:href="#ArialMT-29"/>
     </g>
    </g>
   </g>
   <g id="matplotlib.axis_2">
    <g id="ytick_1">
     <g id="line2d_13"/>
     <g id="text_7">
      <!-- 0 -->
      <g style="fill:#262626;" transform="translate(17.939062 192.578906)scale(0.1 -0.1)">
       <use xlink:href="#ArialMT-30"/>
      </g>
     </g>
    </g>
    <g id="ytick_2">
     <g id="line2d_14"/>
     <g id="text_8">
      <!-- 500 -->
      <g style="fill:#262626;" transform="translate(6.817187 159.298817)scale(0.1 -0.1)">
       <use xlink:href="#ArialMT-35"/>
       <use x="55.615234" xlink:href="#ArialMT-30"/>
       <use x="111.230469" xlink:href="#ArialMT-30"/>
      </g>
     </g>
    </g>
    <g id="ytick_3">
     <g id="line2d_15"/>
     <g id="text_9">
      <!-- 1000 -->
      <g style="fill:#262626;" transform="translate(1.25625 126.018729)scale(0.1 -0.1)">
       <use xlink:href="#ArialMT-31"/>
       <use x="55.615234" xlink:href="#ArialMT-30"/>
       <use x="111.230469" xlink:href="#ArialMT-30"/>
       <use x="166.845703" xlink:href="#ArialMT-30"/>
      </g>
     </g>
    </g>
    <g id="ytick_4">
     <g id="line2d_16"/>
     <g id="text_10">
      <!-- 1500 -->
      <g style="fill:#262626;" transform="translate(1.25625 92.73864)scale(0.1 -0.1)">
       <use xlink:href="#ArialMT-31"/>
       <use x="55.615234" xlink:href="#ArialMT-35"/>
       <use x="111.230469" xlink:href="#ArialMT-30"/>
       <use x="166.845703" xlink:href="#ArialMT-30"/>
      </g>
     </g>
    </g>
    <g id="ytick_5">
     <g id="line2d_17"/>
     <g id="text_11">
      <!-- 2000 -->
      <g style="fill:#262626;" transform="translate(1.25625 59.458551)scale(0.1 -0.1)">
       <use xlink:href="#ArialMT-32"/>
       <use x="55.615234" xlink:href="#ArialMT-30"/>
       <use x="111.230469" xlink:href="#ArialMT-30"/>
       <use x="166.845703" xlink:href="#ArialMT-30"/>
      </g>
     </g>
    </g>
    <g id="text_12">
     <!-- Inhibition (pA) -->
     <defs>
      <path d="M 9.328125 0 
L 9.328125 71.578125 
L 18.796875 71.578125 
L 18.796875 0 
z
" id="ArialMT-49"/>
      <path d="M 6.59375 0 
L 6.59375 71.578125 
L 15.375 71.578125 
L 15.375 45.90625 
Q 21.53125 53.03125 30.90625 53.03125 
Q 36.671875 53.03125 40.921875 50.75 
Q 45.171875 48.484375 47 44.484375 
Q 48.828125 40.484375 48.828125 32.859375 
L 48.828125 0 
L 40.046875 0 
L 40.046875 32.859375 
Q 40.046875 39.453125 37.1875 42.453125 
Q 34.328125 45.453125 29.109375 45.453125 
Q 25.203125 45.453125 21.75 43.421875 
Q 18.3125 41.40625 16.84375 37.9375 
Q 15.375 34.46875 15.375 28.375 
L 15.375 0 
z
" id="ArialMT-68"/>
      <path d="M 14.703125 0 
L 6.546875 0 
L 6.546875 71.578125 
L 15.328125 71.578125 
L 15.328125 46.046875 
Q 20.90625 53.03125 29.546875 53.03125 
Q 34.328125 53.03125 38.59375 51.09375 
Q 42.875 49.171875 45.625 45.671875 
Q 48.390625 42.1875 49.953125 37.25 
Q 51.515625 32.328125 51.515625 26.703125 
Q 51.515625 13.375 44.921875 6.09375 
Q 38.328125 -1.171875 29.109375 -1.171875 
Q 19.921875 -1.171875 14.703125 6.5 
z
M 14.59375 26.3125 
Q 14.59375 17 17.140625 12.84375 
Q 21.296875 6.0625 28.375 6.0625 
Q 34.125 6.0625 38.328125 11.0625 
Q 42.53125 16.0625 42.53125 25.984375 
Q 42.53125 36.140625 38.5 40.96875 
Q 34.46875 45.796875 28.765625 45.796875 
Q 23 45.796875 18.796875 40.796875 
Q 14.59375 35.796875 14.59375 26.3125 
z
" id="ArialMT-62"/>
     </defs>
     <g style="fill:#262626;" transform="translate(-4.848438 138.307656)rotate(-90)scale(0.1 -0.1)">
      <use xlink:href="#ArialMT-49"/>
      <use x="27.783203" xlink:href="#ArialMT-6e"/>
      <use x="83.398438" xlink:href="#ArialMT-68"/>
      <use x="139.013672" xlink:href="#ArialMT-69"/>
      <use x="161.230469" xlink:href="#ArialMT-62"/>
      <use x="216.845703" xlink:href="#ArialMT-69"/>
      <use x="239.0625" xlink:href="#ArialMT-74"/>
      <use x="266.845703" xlink:href="#ArialMT-69"/>
      <use x="289.0625" xlink:href="#ArialMT-6f"/>
      <use x="344.677734" xlink:href="#ArialMT-6e"/>
      <use x="400.292969" xlink:href="#ArialMT-20"/>
      <use x="428.076172" xlink:href="#ArialMT-28"/>
      <use x="461.376953" xlink:href="#ArialMT-70"/>
      <use x="516.992188" xlink:href="#ArialMT-41"/>
      <use x="583.691406" xlink:href="#ArialMT-29"/>
     </g>
    </g>
   </g>
   <g id="legend_1">
    <g id="line2d_18">
     <path d="M 139.328125 89.640625 
L 159.328125 89.640625 
" style="fill:none;stroke:#000000;stroke-dasharray:3.7,1.6;stroke-dashoffset:0;"/>
    </g>
    <g id="line2d_19"/>
    <g id="text_13">
     <!-- P=1 -->
     <defs>
      <path d="M 7.71875 0 
L 7.71875 71.578125 
L 34.71875 71.578125 
Q 41.84375 71.578125 45.609375 70.90625 
Q 50.875 70.015625 54.4375 67.546875 
Q 58.015625 65.09375 60.1875 60.640625 
Q 62.359375 56.203125 62.359375 50.875 
Q 62.359375 41.75 56.546875 35.421875 
Q 50.734375 29.109375 35.546875 29.109375 
L 17.1875 29.109375 
L 17.1875 0 
z
M 17.1875 37.546875 
L 35.6875 37.546875 
Q 44.875 37.546875 48.734375 40.96875 
Q 52.59375 44.390625 52.59375 50.59375 
Q 52.59375 55.078125 50.3125 58.265625 
Q 48.046875 61.46875 44.34375 62.5 
Q 41.9375 63.140625 35.5 63.140625 
L 17.1875 63.140625 
z
" id="ArialMT-50"/>
      <path d="M 52.828125 42.09375 
L 5.5625 42.09375 
L 5.5625 50.296875 
L 52.828125 50.296875 
z
M 52.828125 20.359375 
L 5.5625 20.359375 
L 5.5625 28.5625 
L 52.828125 28.5625 
z
" id="ArialMT-3d"/>
     </defs>
     <g style="fill:#262626;" transform="translate(167.328125 93.140625)scale(0.1 -0.1)">
      <use xlink:href="#ArialMT-50"/>
      <use x="66.699219" xlink:href="#ArialMT-3d"/>
      <use x="125.097656" xlink:href="#ArialMT-31"/>
     </g>
    </g>
    <g id="PathCollection_7">
     <g>
      <use style="fill:#440154;stroke:#440154;" x="149.328125" xlink:href="#m693c605552" y="104.660937"/>
     </g>
    </g>
    <g id="text_14">
     <!-- 1 -->
     <g style="fill:#262626;" transform="translate(167.328125 107.285937)scale(0.1 -0.1)">
      <use xlink:href="#ArialMT-31"/>
     </g>
    </g>
    <g id="PathCollection_8">
     <g>
      <use style="fill:#472d7b;stroke:#472d7b;" x="149.328125" xlink:href="#m830e205946" y="118.80625"/>
     </g>
    </g>
    <g id="text_15">
     <!-- 2 -->
     <g style="fill:#262626;" transform="translate(167.328125 121.43125)scale(0.1 -0.1)">
      <use xlink:href="#ArialMT-32"/>
     </g>
    </g>
    <g id="PathCollection_9">
     <g>
      <use style="fill:#3b528b;stroke:#3b528b;" x="149.328125" xlink:href="#m05d08527e1" y="132.951562"/>
     </g>
    </g>
    <g id="text_16">
     <!-- 3 -->
     <defs>
      <path d="M 4.203125 18.890625 
L 12.984375 20.0625 
Q 14.5 12.59375 18.140625 9.296875 
Q 21.78125 6 27 6 
Q 33.203125 6 37.46875 10.296875 
Q 41.75 14.59375 41.75 20.953125 
Q 41.75 27 37.796875 30.921875 
Q 33.84375 34.859375 27.734375 34.859375 
Q 25.25 34.859375 21.53125 33.890625 
L 22.515625 41.609375 
Q 23.390625 41.5 23.921875 41.5 
Q 29.546875 41.5 34.03125 44.421875 
Q 38.53125 47.359375 38.53125 53.46875 
Q 38.53125 58.296875 35.25 61.46875 
Q 31.984375 64.65625 26.8125 64.65625 
Q 21.6875 64.65625 18.265625 61.421875 
Q 14.84375 58.203125 13.875 51.765625 
L 5.078125 53.328125 
Q 6.6875 62.15625 12.390625 67.015625 
Q 18.109375 71.875 26.609375 71.875 
Q 32.46875 71.875 37.390625 69.359375 
Q 42.328125 66.84375 44.9375 62.5 
Q 47.5625 58.15625 47.5625 53.265625 
Q 47.5625 48.640625 45.0625 44.828125 
Q 42.578125 41.015625 37.703125 38.765625 
Q 44.046875 37.3125 47.5625 32.6875 
Q 51.078125 28.078125 51.078125 21.140625 
Q 51.078125 11.765625 44.234375 5.25 
Q 37.40625 -1.265625 26.953125 -1.265625 
Q 17.53125 -1.265625 11.296875 4.34375 
Q 5.078125 9.96875 4.203125 18.890625 
z
" id="ArialMT-33"/>
     </defs>
     <g style="fill:#262626;" transform="translate(167.328125 135.576562)scale(0.1 -0.1)">
      <use xlink:href="#ArialMT-33"/>
     </g>
    </g>
    <g id="PathCollection_10">
     <g>
      <use style="fill:#21918c;stroke:#21918c;" x="149.328125" xlink:href="#m01092c8f15" y="147.096875"/>
     </g>
    </g>
    <g id="text_17">
     <!-- 5 -->
     <g style="fill:#262626;" transform="translate(167.328125 149.721875)scale(0.1 -0.1)">
      <use xlink:href="#ArialMT-35"/>
     </g>
    </g>
    <g id="PathCollection_11">
     <g>
      <use style="fill:#5ec962;stroke:#5ec962;" x="149.328125" xlink:href="#ma01b03d5a4" y="161.242188"/>
     </g>
    </g>
    <g id="text_18">
     <!-- 7 -->
     <defs>
      <path d="M 4.734375 62.203125 
L 4.734375 70.65625 
L 51.078125 70.65625 
L 51.078125 63.8125 
Q 44.234375 56.546875 37.515625 44.484375 
Q 30.8125 32.421875 27.15625 19.671875 
Q 24.515625 10.6875 23.78125 0 
L 14.75 0 
Q 14.890625 8.453125 18.0625 20.40625 
Q 21.234375 32.375 27.171875 43.484375 
Q 33.109375 54.59375 39.796875 62.203125 
z
" id="ArialMT-37"/>
     </defs>
     <g style="fill:#262626;" transform="translate(167.328125 163.867188)scale(0.1 -0.1)">
      <use xlink:href="#ArialMT-37"/>
     </g>
    </g>
    <g id="PathCollection_12">
     <g>
      <use style="fill:#fde725;stroke:#fde725;" x="149.328125" xlink:href="#m2a619f9b70" y="175.3875"/>
     </g>
    </g>
    <g id="text_19">
     <!-- 9 -->
     <defs>
      <path d="M 5.46875 16.546875 
L 13.921875 17.328125 
Q 14.984375 11.375 18.015625 8.6875 
Q 21.046875 6 25.78125 6 
Q 29.828125 6 32.875 7.859375 
Q 35.9375 9.71875 37.890625 12.8125 
Q 39.84375 15.921875 41.15625 21.1875 
Q 42.484375 26.46875 42.484375 31.9375 
Q 42.484375 32.515625 42.4375 33.6875 
Q 39.796875 29.5 35.234375 26.875 
Q 30.671875 24.265625 25.34375 24.265625 
Q 16.453125 24.265625 10.296875 30.703125 
Q 4.15625 37.15625 4.15625 47.703125 
Q 4.15625 58.59375 10.578125 65.234375 
Q 17 71.875 26.65625 71.875 
Q 33.640625 71.875 39.421875 68.109375 
Q 45.21875 64.359375 48.21875 57.390625 
Q 51.21875 50.4375 51.21875 37.25 
Q 51.21875 23.53125 48.234375 15.40625 
Q 45.265625 7.28125 39.375 3.03125 
Q 33.5 -1.21875 25.59375 -1.21875 
Q 17.1875 -1.21875 11.859375 3.4375 
Q 6.546875 8.109375 5.46875 16.546875 
z
M 41.453125 48.140625 
Q 41.453125 55.71875 37.421875 60.15625 
Q 33.40625 64.59375 27.734375 64.59375 
Q 21.875 64.59375 17.53125 59.8125 
Q 13.1875 55.03125 13.1875 47.40625 
Q 13.1875 40.578125 17.3125 36.296875 
Q 21.4375 32.03125 27.484375 32.03125 
Q 33.59375 32.03125 37.515625 36.296875 
Q 41.453125 40.578125 41.453125 48.140625 
z
" id="ArialMT-39"/>
     </defs>
     <g style="fill:#262626;" transform="translate(167.328125 178.0125)scale(0.1 -0.1)">
      <use xlink:href="#ArialMT-39"/>
     </g>
    </g>
   </g>
  </g>
 </g>
 <defs>
  <clipPath id="p81f6eaff90">
   <rect height="163.08" width="167.4" x="27" y="25.92"/>
  </clipPath>
 </defs>
</svg>
