<?xml version="1.0" encoding="utf-8" standalone="no"?>
<!DOCTYPE svg PUBLIC "-//W3C//DTD SVG 1.1//EN"
  "http://www.w3.org/Graphics/SVG/1.1/DTD/svg11.dtd">
<!-- Created with matplotlib (http://matplotlib.org/) -->
<svg height="345pt" version="1.1" viewBox="0 0 460 345" width="460pt" xmlns="http://www.w3.org/2000/svg" xmlns:xlink="http://www.w3.org/1999/xlink">
 <defs>
  <style type="text/css">
*{stroke-linecap:butt;stroke-linejoin:round;}
  </style>
 </defs>
 <g id="figure_1">
  <g id="patch_1">
   <path d="M 0 345.6 
L 460.8 345.6 
L 460.8 0 
L 0 0 
z
" style="fill:#ffffff;"/>
  </g>
  <g id="axes_1">
   <g id="patch_2">
    <path d="M 59.07 139.74 
L 225.089256 139.74 
L 225.089256 25.49625 
L 59.07 25.49625 
z
" style="fill:#ffffff;"/>
   </g>
   <g id="matplotlib.axis_1">
    <g id="xtick_1">
     <g id="line2d_1"/>
     <g id="text_1">
      <!-- −2.4 -->
      <defs>
       <path d="M 52.828125 31.203125 
L 5.5625 31.203125 
L 5.5625 39.40625 
L 52.828125 39.40625 
z
" id="ArialMT-2212"/>
       <path d="M 50.34375 8.453125 
L 50.34375 0 
L 3.03125 0 
Q 2.9375 3.171875 4.046875 6.109375 
Q 5.859375 10.9375 9.828125 15.625 
Q 13.8125 20.3125 21.34375 26.46875 
Q 33.015625 36.03125 37.109375 41.625 
Q 41.21875 47.21875 41.21875 52.203125 
Q 41.21875 57.421875 37.46875 61 
Q 33.734375 64.59375 27.734375 64.59375 
Q 21.390625 64.59375 17.578125 60.78125 
Q 13.765625 56.984375 13.71875 50.25 
L 4.6875 51.171875 
Q 5.609375 61.28125 11.65625 66.578125 
Q 17.71875 71.875 27.9375 71.875 
Q 38.234375 71.875 44.234375 66.15625 
Q 50.25 60.453125 50.25 52 
Q 50.25 47.703125 48.484375 43.546875 
Q 46.734375 39.40625 42.65625 34.8125 
Q 38.578125 30.21875 29.109375 22.21875 
Q 21.1875 15.578125 18.9375 13.203125 
Q 16.703125 10.84375 15.234375 8.453125 
z
" id="ArialMT-32"/>
       <path d="M 9.078125 0 
L 9.078125 10.015625 
L 19.09375 10.015625 
L 19.09375 0 
z
" id="ArialMT-2e"/>
       <path d="M 32.328125 0 
L 32.328125 17.140625 
L 1.265625 17.140625 
L 1.265625 25.203125 
L 33.9375 71.578125 
L 41.109375 71.578125 
L 41.109375 25.203125 
L 50.78125 25.203125 
L 50.78125 17.140625 
L 41.109375 17.140625 
L 41.109375 0 
z
M 32.328125 25.203125 
L 32.328125 57.46875 
L 9.90625 25.203125 
z
" id="ArialMT-34"/>
      </defs>
      <g style="fill:#262626;" transform="translate(76.686224 150.397813)scale(0.1 -0.1)">
       <use xlink:href="#ArialMT-2212"/>
       <use x="58.398438" xlink:href="#ArialMT-32"/>
       <use x="114.013672" xlink:href="#ArialMT-2e"/>
       <use x="141.796875" xlink:href="#ArialMT-34"/>
      </g>
     </g>
    </g>
    <g id="xtick_2">
     <g id="line2d_2"/>
     <g id="text_2">
      <!-- −2.2 -->
      <g style="fill:#262626;" transform="translate(112.767407 150.397813)scale(0.1 -0.1)">
       <use xlink:href="#ArialMT-2212"/>
       <use x="58.398438" xlink:href="#ArialMT-32"/>
       <use x="114.013672" xlink:href="#ArialMT-2e"/>
       <use x="141.796875" xlink:href="#ArialMT-32"/>
      </g>
     </g>
    </g>
    <g id="xtick_3">
     <g id="line2d_3"/>
     <g id="text_3">
      <!-- −2.0 -->
      <defs>
       <path d="M 4.15625 35.296875 
Q 4.15625 48 6.765625 55.734375 
Q 9.375 63.484375 14.515625 67.671875 
Q 19.671875 71.875 27.484375 71.875 
Q 33.25 71.875 37.59375 69.546875 
Q 41.9375 67.234375 44.765625 62.859375 
Q 47.609375 58.5 49.21875 52.21875 
Q 50.828125 45.953125 50.828125 35.296875 
Q 50.828125 22.703125 48.234375 14.96875 
Q 45.65625 7.234375 40.5 3 
Q 35.359375 -1.21875 27.484375 -1.21875 
Q 17.140625 -1.21875 11.234375 6.203125 
Q 4.15625 15.140625 4.15625 35.296875 
M 13.1875 35.296875 
Q 13.1875 17.671875 17.3125 11.828125 
Q 21.4375 6 27.484375 6 
Q 33.546875 6 37.671875 11.859375 
Q 41.796875 17.71875 41.796875 35.296875 
Q 41.796875 52.984375 37.671875 58.78125 
Q 33.546875 64.59375 27.390625 64.59375 
Q 21.34375 64.59375 17.71875 59.46875 
Q 13.1875 52.9375 13.1875 35.296875 
" id="ArialMT-30"/>
      </defs>
      <g style="fill:#262626;" transform="translate(148.848589 150.397813)scale(0.1 -0.1)">
       <use xlink:href="#ArialMT-2212"/>
       <use x="58.398438" xlink:href="#ArialMT-32"/>
       <use x="114.013672" xlink:href="#ArialMT-2e"/>
       <use x="141.796875" xlink:href="#ArialMT-30"/>
      </g>
     </g>
    </g>
    <g id="xtick_4">
     <g id="line2d_4"/>
     <g id="text_4">
      <!-- −1.8 -->
      <defs>
       <path d="M 37.25 0 
L 28.46875 0 
L 28.46875 56 
Q 25.296875 52.984375 20.140625 49.953125 
Q 14.984375 46.921875 10.890625 45.40625 
L 10.890625 53.90625 
Q 18.265625 57.375 23.78125 62.296875 
Q 29.296875 67.234375 31.59375 71.875 
L 37.25 71.875 
z
" id="ArialMT-31"/>
       <path d="M 17.671875 38.8125 
Q 12.203125 40.828125 9.5625 44.53125 
Q 6.9375 48.25 6.9375 53.421875 
Q 6.9375 61.234375 12.546875 66.546875 
Q 18.171875 71.875 27.484375 71.875 
Q 36.859375 71.875 42.578125 66.421875 
Q 48.296875 60.984375 48.296875 53.171875 
Q 48.296875 48.1875 45.671875 44.5 
Q 43.0625 40.828125 37.75 38.8125 
Q 44.34375 36.671875 47.78125 31.875 
Q 51.21875 27.09375 51.21875 20.453125 
Q 51.21875 11.28125 44.71875 5.03125 
Q 38.234375 -1.21875 27.640625 -1.21875 
Q 17.046875 -1.21875 10.546875 5.046875 
Q 4.046875 11.328125 4.046875 20.703125 
Q 4.046875 27.6875 7.59375 32.390625 
Q 11.140625 37.109375 17.671875 38.8125 
M 15.921875 53.71875 
Q 15.921875 48.640625 19.1875 45.40625 
Q 22.46875 42.1875 27.6875 42.1875 
Q 32.765625 42.1875 36.015625 45.375 
Q 39.265625 48.578125 39.265625 53.21875 
Q 39.265625 58.0625 35.90625 61.359375 
Q 32.5625 64.65625 27.59375 64.65625 
Q 22.5625 64.65625 19.234375 61.421875 
Q 15.921875 58.203125 15.921875 53.71875 
M 13.09375 20.65625 
Q 13.09375 16.890625 14.875 13.375 
Q 16.65625 9.859375 20.171875 7.921875 
Q 23.6875 6 27.734375 6 
Q 34.03125 6 38.125 10.046875 
Q 42.234375 14.109375 42.234375 20.359375 
Q 42.234375 26.703125 38.015625 30.859375 
Q 33.796875 35.015625 27.4375 35.015625 
Q 21.234375 35.015625 17.15625 30.90625 
Q 13.09375 26.8125 13.09375 20.65625 
" id="ArialMT-38"/>
      </defs>
      <g style="fill:#262626;" transform="translate(184.929771 150.397813)scale(0.1 -0.1)">
       <use xlink:href="#ArialMT-2212"/>
       <use x="58.398438" xlink:href="#ArialMT-31"/>
       <use x="114.013672" xlink:href="#ArialMT-2e"/>
       <use x="141.796875" xlink:href="#ArialMT-38"/>
      </g>
     </g>
    </g>
    <g id="text_5">
     <!-- log(e) -->
     <defs>
      <path d="M 6.390625 0 
L 6.390625 71.578125 
L 15.1875 71.578125 
L 15.1875 0 
z
" id="ArialMT-6c"/>
      <path d="M 3.328125 25.921875 
Q 3.328125 40.328125 11.328125 47.265625 
Q 18.015625 53.03125 27.640625 53.03125 
Q 38.328125 53.03125 45.109375 46.015625 
Q 51.90625 39.015625 51.90625 26.65625 
Q 51.90625 16.65625 48.90625 10.90625 
Q 45.90625 5.171875 40.15625 2 
Q 34.421875 -1.171875 27.640625 -1.171875 
Q 16.75 -1.171875 10.03125 5.8125 
Q 3.328125 12.796875 3.328125 25.921875 
M 12.359375 25.921875 
Q 12.359375 15.96875 16.703125 11.015625 
Q 21.046875 6.0625 27.640625 6.0625 
Q 34.1875 6.0625 38.53125 11.03125 
Q 42.875 16.015625 42.875 26.21875 
Q 42.875 35.84375 38.5 40.796875 
Q 34.125 45.75 27.640625 45.75 
Q 21.046875 45.75 16.703125 40.8125 
Q 12.359375 35.890625 12.359375 25.921875 
" id="ArialMT-6f"/>
      <path d="M 4.984375 -4.296875 
L 13.53125 -5.5625 
Q 14.0625 -9.515625 16.5 -11.328125 
Q 19.78125 -13.765625 25.4375 -13.765625 
Q 31.546875 -13.765625 34.859375 -11.328125 
Q 38.1875 -8.890625 39.359375 -4.5 
Q 40.046875 -1.8125 39.984375 6.78125 
Q 34.234375 0 25.640625 0 
Q 14.9375 0 9.078125 7.71875 
Q 3.21875 15.4375 3.21875 26.21875 
Q 3.21875 33.640625 5.90625 39.90625 
Q 8.59375 46.1875 13.6875 49.609375 
Q 18.796875 53.03125 25.6875 53.03125 
Q 34.859375 53.03125 40.828125 45.609375 
L 40.828125 51.859375 
L 48.921875 51.859375 
L 48.921875 7.03125 
Q 48.921875 -5.078125 46.453125 -10.125 
Q 44 -15.1875 38.640625 -18.109375 
Q 33.296875 -21.046875 25.484375 -21.046875 
Q 16.21875 -21.046875 10.5 -16.875 
Q 4.78125 -12.703125 4.984375 -4.296875 
M 12.25 26.859375 
Q 12.25 16.65625 16.296875 11.96875 
Q 20.359375 7.28125 26.46875 7.28125 
Q 32.515625 7.28125 36.609375 11.9375 
Q 40.71875 16.609375 40.71875 26.5625 
Q 40.71875 36.078125 36.5 40.90625 
Q 32.28125 45.75 26.3125 45.75 
Q 20.453125 45.75 16.34375 40.984375 
Q 12.25 36.234375 12.25 26.859375 
" id="ArialMT-67"/>
      <path d="M 23.390625 -21.046875 
Q 16.109375 -11.859375 11.078125 0.4375 
Q 6.0625 12.75 6.0625 25.921875 
Q 6.0625 37.546875 9.8125 48.1875 
Q 14.203125 60.546875 23.390625 72.796875 
L 29.6875 72.796875 
Q 23.78125 62.640625 21.875 58.296875 
Q 18.890625 51.5625 17.1875 44.234375 
Q 15.09375 35.109375 15.09375 25.875 
Q 15.09375 2.390625 29.6875 -21.046875 
z
" id="ArialMT-28"/>
      <path d="M 42.09375 16.703125 
L 51.171875 15.578125 
Q 49.03125 7.625 43.21875 3.21875 
Q 37.40625 -1.171875 28.375 -1.171875 
Q 17 -1.171875 10.328125 5.828125 
Q 3.65625 12.84375 3.65625 25.484375 
Q 3.65625 38.578125 10.390625 45.796875 
Q 17.140625 53.03125 27.875 53.03125 
Q 38.28125 53.03125 44.875 45.953125 
Q 51.46875 38.875 51.46875 26.03125 
Q 51.46875 25.25 51.421875 23.6875 
L 12.75 23.6875 
Q 13.234375 15.140625 17.578125 10.59375 
Q 21.921875 6.0625 28.421875 6.0625 
Q 33.25 6.0625 36.671875 8.59375 
Q 40.09375 11.140625 42.09375 16.703125 
M 13.234375 30.90625 
L 42.1875 30.90625 
Q 41.609375 37.453125 38.875 40.71875 
Q 34.671875 45.796875 27.984375 45.796875 
Q 21.921875 45.796875 17.796875 41.75 
Q 13.671875 37.703125 13.234375 30.90625 
" id="ArialMT-65"/>
      <path d="M 12.359375 -21.046875 
L 6.0625 -21.046875 
Q 20.65625 2.390625 20.65625 25.875 
Q 20.65625 35.0625 18.5625 44.09375 
Q 16.890625 51.421875 13.921875 58.15625 
Q 12.015625 62.546875 6.0625 72.796875 
L 12.359375 72.796875 
Q 21.53125 60.546875 25.921875 48.1875 
Q 29.6875 37.546875 29.6875 25.921875 
Q 29.6875 12.75 24.625 0.4375 
Q 19.578125 -11.859375 12.359375 -21.046875 
" id="ArialMT-29"/>
     </defs>
     <g style="fill:#262626;" transform="translate(129.297597 163.665)scale(0.1 -0.1)">
      <use xlink:href="#ArialMT-6c"/>
      <use x="22.216797" xlink:href="#ArialMT-6f"/>
      <use x="77.832031" xlink:href="#ArialMT-67"/>
      <use x="133.447266" xlink:href="#ArialMT-28"/>
      <use x="166.748047" xlink:href="#ArialMT-65"/>
      <use x="222.363281" xlink:href="#ArialMT-29"/>
     </g>
    </g>
   </g>
   <g id="matplotlib.axis_2">
    <g id="ytick_1">
     <g id="line2d_5"/>
     <g id="text_6">
      <!-- 0.000 -->
      <g style="fill:#262626;" transform="translate(30.548125 130.364421)scale(0.1 -0.1)">
       <use xlink:href="#ArialMT-30"/>
       <use x="55.615234" xlink:href="#ArialMT-2e"/>
       <use x="83.398438" xlink:href="#ArialMT-30"/>
       <use x="139.013672" xlink:href="#ArialMT-30"/>
       <use x="194.628906" xlink:href="#ArialMT-30"/>
      </g>
     </g>
    </g>
    <g id="ytick_2">
     <g id="line2d_6"/>
     <g id="text_7">
      <!-- 0.005 -->
      <defs>
       <path d="M 4.15625 18.75 
L 13.375 19.53125 
Q 14.40625 12.796875 18.140625 9.390625 
Q 21.875 6 27.15625 6 
Q 33.5 6 37.890625 10.78125 
Q 42.28125 15.578125 42.28125 23.484375 
Q 42.28125 31 38.0625 35.34375 
Q 33.84375 39.703125 27 39.703125 
Q 22.75 39.703125 19.328125 37.765625 
Q 15.921875 35.84375 13.96875 32.765625 
L 5.71875 33.84375 
L 12.640625 70.609375 
L 48.25 70.609375 
L 48.25 62.203125 
L 19.671875 62.203125 
L 15.828125 42.96875 
Q 22.265625 47.46875 29.34375 47.46875 
Q 38.71875 47.46875 45.15625 40.96875 
Q 51.609375 34.46875 51.609375 24.265625 
Q 51.609375 14.546875 45.953125 7.46875 
Q 39.0625 -1.21875 27.15625 -1.21875 
Q 17.390625 -1.21875 11.203125 4.25 
Q 5.03125 9.71875 4.15625 18.75 
" id="ArialMT-35"/>
      </defs>
      <g style="fill:#262626;" transform="translate(30.548125 90.920289)scale(0.1 -0.1)">
       <use xlink:href="#ArialMT-30"/>
       <use x="55.615234" xlink:href="#ArialMT-2e"/>
       <use x="83.398438" xlink:href="#ArialMT-30"/>
       <use x="139.013672" xlink:href="#ArialMT-30"/>
       <use x="194.628906" xlink:href="#ArialMT-35"/>
      </g>
     </g>
    </g>
    <g id="ytick_3">
     <g id="line2d_7"/>
     <g id="text_8">
      <!-- 0.010 -->
      <g style="fill:#262626;" transform="translate(30.548125 51.476158)scale(0.1 -0.1)">
       <use xlink:href="#ArialMT-30"/>
       <use x="55.615234" xlink:href="#ArialMT-2e"/>
       <use x="83.398438" xlink:href="#ArialMT-30"/>
       <use x="139.013672" xlink:href="#ArialMT-31"/>
       <use x="194.628906" xlink:href="#ArialMT-30"/>
      </g>
     </g>
    </g>
    <g id="text_9">
     <!-- o -->
     <g style="fill:#262626;" transform="translate(24.560625 85.398594)rotate(-90)scale(0.1 -0.1)">
      <use xlink:href="#ArialMT-6f"/>
     </g>
    </g>
   </g>
   <g id="PathCollection_1">
    <path clip-path="url(#pd89f7b9c35)" d="M 0 348.6 
C 0.795609 348.6 1.55874 348.283901 2.12132 347.72132 
C 2.683901 347.15874 3 346.395609 3 345.6 
C 3 344.804391 2.683901 344.04126 2.12132 343.47868 
C 1.55874 342.916099 0.795609 342.6 0 342.6 
C -0.795609 342.6 -1.55874 342.916099 -2.12132 343.47868 
C -2.683901 344.04126 -3 344.804391 -3 345.6 
C -3 346.395609 -2.683901 347.15874 -2.12132 347.72132 
C -1.55874 348.283901 -0.795609 348.6 0 348.6 
z
" style="fill:#008000;"/>
   </g>
   <g id="PathCollection_2">
    <defs>
     <path d="M 0 3 
C 0.795609 3 1.55874 2.683901 2.12132 2.12132 
C 2.683901 1.55874 3 0.795609 3 0 
C 3 -0.795609 2.683901 -1.55874 2.12132 -2.12132 
C 1.55874 -2.683901 0.795609 -3 0 -3 
C -0.795609 -3 -1.55874 -2.683901 -2.12132 -2.12132 
C -2.683901 -1.55874 -3 -0.795609 -3 0 
C -3 0.795609 -2.683901 1.55874 -2.12132 2.12132 
C -1.55874 2.683901 -0.795609 3 0 3 
z
" id="C0_0_0ced9270c7"/>
    </defs>
    <g clip-path="url(#pd89f7b9c35)">
     <use style="fill:#00bfbf;" x="119.8332" xlink:href="#C0_0_0ced9270c7" y="94.032618"/>
    </g>
    <g clip-path="url(#pd89f7b9c35)">
     <use style="fill:#00bfbf;" x="211.276394" xlink:href="#C0_0_0ced9270c7" y="80.057924"/>
    </g>
    <g clip-path="url(#pd89f7b9c35)">
     <use style="fill:#00bfbf;" x="109.026665" xlink:href="#C0_0_0ced9270c7" y="106.882545"/>
    </g>
    <g clip-path="url(#pd89f7b9c35)">
     <use style="fill:#00bfbf;" x="188.51633" xlink:href="#C0_0_0ced9270c7" y="78.349411"/>
    </g>
    <g clip-path="url(#pd89f7b9c35)">
     <use style="fill:#00bfbf;" x="130.685624" xlink:href="#C0_0_0ced9270c7" y="79.207733"/>
    </g>
    <g clip-path="url(#pd89f7b9c35)">
     <use style="fill:#00bfbf;" x="185.543469" xlink:href="#C0_0_0ced9270c7" y="83.635874"/>
    </g>
    <g clip-path="url(#pd89f7b9c35)">
     <use style="fill:#00bfbf;" x="124.660454" xlink:href="#C0_0_0ced9270c7" y="105.794305"/>
    </g>
    <g clip-path="url(#pd89f7b9c35)">
     <use style="fill:#00bfbf;" x="214.706884" xlink:href="#C0_0_0ced9270c7" y="68.858253"/>
    </g>
    <g clip-path="url(#pd89f7b9c35)">
     <use style="fill:#00bfbf;" x="94.483813" xlink:href="#C0_0_0ced9270c7" y="96.709209"/>
    </g>
    <g clip-path="url(#pd89f7b9c35)">
     <use style="fill:#00bfbf;" x="205.997956" xlink:href="#C0_0_0ced9270c7" y="78.039807"/>
    </g>
    <g clip-path="url(#pd89f7b9c35)">
     <use style="fill:#00bfbf;" x="189.527074" xlink:href="#C0_0_0ced9270c7" y="77.380218"/>
    </g>
    <g clip-path="url(#pd89f7b9c35)">
     <use style="fill:#00bfbf;" x="106.078319" xlink:href="#C0_0_0ced9270c7" y="90.992615"/>
    </g>
    <g clip-path="url(#pd89f7b9c35)">
     <use style="fill:#00bfbf;" x="209.936783" xlink:href="#C0_0_0ced9270c7" y="85.689768"/>
    </g>
    <g clip-path="url(#pd89f7b9c35)">
     <use style="fill:#00bfbf;" x="95.716189" xlink:href="#C0_0_0ced9270c7" y="112.629603"/>
    </g>
    <g clip-path="url(#pd89f7b9c35)">
     <use style="fill:#00bfbf;" x="202.646882" xlink:href="#C0_0_0ced9270c7" y="97.825463"/>
    </g>
    <g clip-path="url(#pd89f7b9c35)">
     <use style="fill:#00bfbf;" x="90.451906" xlink:href="#C0_0_0ced9270c7" y="108.170135"/>
    </g>
    <g clip-path="url(#pd89f7b9c35)">
     <use style="fill:#00bfbf;" x="191.091635" xlink:href="#C0_0_0ced9270c7" y="79.136552"/>
    </g>
    <g clip-path="url(#pd89f7b9c35)">
     <use style="fill:#00bfbf;" x="195.822768" xlink:href="#C0_0_0ced9270c7" y="64.589988"/>
    </g>
    <g clip-path="url(#pd89f7b9c35)">
     <use style="fill:#00bfbf;" x="69.413023" xlink:href="#C0_0_0ced9270c7" y="95.806489"/>
    </g>
    <g clip-path="url(#pd89f7b9c35)">
     <use style="fill:#00bfbf;" x="66.880392" xlink:href="#C0_0_0ced9270c7" y="107.076196"/>
    </g>
    <g clip-path="url(#pd89f7b9c35)">
     <use style="fill:#00bfbf;" x="169.972296" xlink:href="#C0_0_0ced9270c7" y="88.96907"/>
    </g>
    <g clip-path="url(#pd89f7b9c35)">
     <use style="fill:#00bfbf;" x="134.086661" xlink:href="#C0_0_0ced9270c7" y="90.251971"/>
    </g>
    <g clip-path="url(#pd89f7b9c35)">
     <use style="fill:#00bfbf;" x="205.804527" xlink:href="#C0_0_0ced9270c7" y="82.234912"/>
    </g>
    <g clip-path="url(#pd89f7b9c35)">
     <use style="fill:#00bfbf;" x="84.665874" xlink:href="#C0_0_0ced9270c7" y="115.308926"/>
    </g>
    <g clip-path="url(#pd89f7b9c35)">
     <use style="fill:#00bfbf;" x="206.523766" xlink:href="#C0_0_0ced9270c7" y="60.47814"/>
    </g>
    <g clip-path="url(#pd89f7b9c35)">
     <use style="fill:#00bfbf;" x="133.101712" xlink:href="#C0_0_0ced9270c7" y="87.599696"/>
    </g>
    <g clip-path="url(#pd89f7b9c35)">
     <use style="fill:#00bfbf;" x="162.053091" xlink:href="#C0_0_0ced9270c7" y="83.248286"/>
    </g>
    <g clip-path="url(#pd89f7b9c35)">
     <use style="fill:#00bfbf;" x="162.252395" xlink:href="#C0_0_0ced9270c7" y="81.778245"/>
    </g>
    <g clip-path="url(#pd89f7b9c35)">
     <use style="fill:#00bfbf;" x="191.483168" xlink:href="#C0_0_0ced9270c7" y="73.339673"/>
    </g>
    <g clip-path="url(#pd89f7b9c35)">
     <use style="fill:#00bfbf;" x="98.966697" xlink:href="#C0_0_0ced9270c7" y="107.667338"/>
    </g>
    <g clip-path="url(#pd89f7b9c35)">
     <use style="fill:#00bfbf;" x="170.699343" xlink:href="#C0_0_0ced9270c7" y="87.188908"/>
    </g>
    <g clip-path="url(#pd89f7b9c35)">
     <use style="fill:#00bfbf;" x="94.810521" xlink:href="#C0_0_0ced9270c7" y="102.357579"/>
    </g>
    <g clip-path="url(#pd89f7b9c35)">
     <use style="fill:#00bfbf;" x="119.428643" xlink:href="#C0_0_0ced9270c7" y="92.218409"/>
    </g>
    <g clip-path="url(#pd89f7b9c35)">
     <use style="fill:#00bfbf;" x="123.922998" xlink:href="#C0_0_0ced9270c7" y="76.851018"/>
    </g>
    <g clip-path="url(#pd89f7b9c35)">
     <use style="fill:#00bfbf;" x="169.012395" xlink:href="#C0_0_0ced9270c7" y="72.764208"/>
    </g>
    <g clip-path="url(#pd89f7b9c35)">
     <use style="fill:#00bfbf;" x="138.370463" xlink:href="#C0_0_0ced9270c7" y="99.427986"/>
    </g>
    <g clip-path="url(#pd89f7b9c35)">
     <use style="fill:#00bfbf;" x="199.749936" xlink:href="#C0_0_0ced9270c7" y="75.347543"/>
    </g>
    <g clip-path="url(#pd89f7b9c35)">
     <use style="fill:#00bfbf;" x="121.478343" xlink:href="#C0_0_0ced9270c7" y="93.582854"/>
    </g>
    <g clip-path="url(#pd89f7b9c35)">
     <use style="fill:#00bfbf;" x="129.18393" xlink:href="#C0_0_0ced9270c7" y="85.261834"/>
    </g>
    <g clip-path="url(#pd89f7b9c35)">
     <use style="fill:#00bfbf;" x="196.07963" xlink:href="#C0_0_0ced9270c7" y="93.845708"/>
    </g>
    <g clip-path="url(#pd89f7b9c35)">
     <use style="fill:#00bfbf;" x="184.473809" xlink:href="#C0_0_0ced9270c7" y="83.650814"/>
    </g>
    <g clip-path="url(#pd89f7b9c35)">
     <use style="fill:#00bfbf;" x="161.463343" xlink:href="#C0_0_0ced9270c7" y="93.948369"/>
    </g>
    <g clip-path="url(#pd89f7b9c35)">
     <use style="fill:#00bfbf;" x="82.321247" xlink:href="#C0_0_0ced9270c7" y="108.067012"/>
    </g>
    <g clip-path="url(#pd89f7b9c35)">
     <use style="fill:#00bfbf;" x="123.279946" xlink:href="#C0_0_0ced9270c7" y="87.540977"/>
    </g>
    <g clip-path="url(#pd89f7b9c35)">
     <use style="fill:#00bfbf;" x="188.653371" xlink:href="#C0_0_0ced9270c7" y="59.643139"/>
    </g>
    <g clip-path="url(#pd89f7b9c35)">
     <use style="fill:#00bfbf;" x="197.064804" xlink:href="#C0_0_0ced9270c7" y="79.282855"/>
    </g>
    <g clip-path="url(#pd89f7b9c35)">
     <use style="fill:#00bfbf;" x="203.26127" xlink:href="#C0_0_0ced9270c7" y="84.631"/>
    </g>
    <g clip-path="url(#pd89f7b9c35)">
     <use style="fill:#00bfbf;" x="158.754657" xlink:href="#C0_0_0ced9270c7" y="94.625712"/>
    </g>
    <g clip-path="url(#pd89f7b9c35)">
     <use style="fill:#00bfbf;" x="188.83094" xlink:href="#C0_0_0ced9270c7" y="50.940585"/>
    </g>
    <g clip-path="url(#pd89f7b9c35)">
     <use style="fill:#00bfbf;" x="214.10076" xlink:href="#C0_0_0ced9270c7" y="85.504983"/>
    </g>
    <g clip-path="url(#pd89f7b9c35)">
     <use style="fill:#00bfbf;" x="111.936756" xlink:href="#C0_0_0ced9270c7" y="112.167517"/>
    </g>
    <g clip-path="url(#pd89f7b9c35)">
     <use style="fill:#00bfbf;" x="119.52488" xlink:href="#C0_0_0ced9270c7" y="88.602457"/>
    </g>
    <g clip-path="url(#pd89f7b9c35)">
     <use style="fill:#00bfbf;" x="198.036217" xlink:href="#C0_0_0ced9270c7" y="74.896552"/>
    </g>
    <g clip-path="url(#pd89f7b9c35)">
     <use style="fill:#00bfbf;" x="128.273285" xlink:href="#C0_0_0ced9270c7" y="98.504158"/>
    </g>
    <g clip-path="url(#pd89f7b9c35)">
     <use style="fill:#00bfbf;" x="193.541278" xlink:href="#C0_0_0ced9270c7" y="71.076702"/>
    </g>
    <g clip-path="url(#pd89f7b9c35)">
     <use style="fill:#00bfbf;" x="133.945102" xlink:href="#C0_0_0ced9270c7" y="75.992682"/>
    </g>
    <g clip-path="url(#pd89f7b9c35)">
     <use style="fill:#00bfbf;" x="161.659934" xlink:href="#C0_0_0ced9270c7" y="63.785954"/>
    </g>
    <g clip-path="url(#pd89f7b9c35)">
     <use style="fill:#00bfbf;" x="154.237321" xlink:href="#C0_0_0ced9270c7" y="90.121839"/>
    </g>
    <g clip-path="url(#pd89f7b9c35)">
     <use style="fill:#00bfbf;" x="117.852671" xlink:href="#C0_0_0ced9270c7" y="96.998979"/>
    </g>
    <g clip-path="url(#pd89f7b9c35)">
     <use style="fill:#00bfbf;" x="183.28799" xlink:href="#C0_0_0ced9270c7" y="68.877869"/>
    </g>
    <g clip-path="url(#pd89f7b9c35)">
     <use style="fill:#00bfbf;" x="160.215363" xlink:href="#C0_0_0ced9270c7" y="81.735085"/>
    </g>
    <g clip-path="url(#pd89f7b9c35)">
     <use style="fill:#00bfbf;" x="156.683463" xlink:href="#C0_0_0ced9270c7" y="91.758907"/>
    </g>
    <g clip-path="url(#pd89f7b9c35)">
     <use style="fill:#00bfbf;" x="178.522217" xlink:href="#C0_0_0ced9270c7" y="65.987751"/>
    </g>
    <g clip-path="url(#pd89f7b9c35)">
     <use style="fill:#00bfbf;" x="89.504819" xlink:href="#C0_0_0ced9270c7" y="111.579718"/>
    </g>
    <g clip-path="url(#pd89f7b9c35)">
     <use style="fill:#00bfbf;" x="208.374038" xlink:href="#C0_0_0ced9270c7" y="72.370204"/>
    </g>
    <g clip-path="url(#pd89f7b9c35)">
     <use style="fill:#00bfbf;" x="111.240989" xlink:href="#C0_0_0ced9270c7" y="106.548141"/>
    </g>
    <g clip-path="url(#pd89f7b9c35)">
     <use style="fill:#00bfbf;" x="123.10236" xlink:href="#C0_0_0ced9270c7" y="105.63282"/>
    </g>
    <g clip-path="url(#pd89f7b9c35)">
     <use style="fill:#00bfbf;" x="201.283957" xlink:href="#C0_0_0ced9270c7" y="56.808772"/>
    </g>
    <g clip-path="url(#pd89f7b9c35)">
     <use style="fill:#00bfbf;" x="139.034928" xlink:href="#C0_0_0ced9270c7" y="92.607345"/>
    </g>
    <g clip-path="url(#pd89f7b9c35)">
     <use style="fill:#00bfbf;" x="85.980438" xlink:href="#C0_0_0ced9270c7" y="99.291162"/>
    </g>
    <g clip-path="url(#pd89f7b9c35)">
     <use style="fill:#00bfbf;" x="210.481431" xlink:href="#C0_0_0ced9270c7" y="85.322777"/>
    </g>
    <g clip-path="url(#pd89f7b9c35)">
     <use style="fill:#00bfbf;" x="187.604045" xlink:href="#C0_0_0ced9270c7" y="67.268187"/>
    </g>
    <g clip-path="url(#pd89f7b9c35)">
     <use style="fill:#00bfbf;" x="86.818896" xlink:href="#C0_0_0ced9270c7" y="112.983878"/>
    </g>
    <g clip-path="url(#pd89f7b9c35)">
     <use style="fill:#00bfbf;" x="106.317047" xlink:href="#C0_0_0ced9270c7" y="102.049069"/>
    </g>
    <g clip-path="url(#pd89f7b9c35)">
     <use style="fill:#00bfbf;" x="209.567406" xlink:href="#C0_0_0ced9270c7" y="68.32881"/>
    </g>
    <g clip-path="url(#pd89f7b9c35)">
     <use style="fill:#00bfbf;" x="135.606773" xlink:href="#C0_0_0ced9270c7" y="99.090717"/>
    </g>
    <g clip-path="url(#pd89f7b9c35)">
     <use style="fill:#00bfbf;" x="108.830787" xlink:href="#C0_0_0ced9270c7" y="100.407685"/>
    </g>
    <g clip-path="url(#pd89f7b9c35)">
     <use style="fill:#00bfbf;" x="79.664771" xlink:href="#C0_0_0ced9270c7" y="114.548181"/>
    </g>
    <g clip-path="url(#pd89f7b9c35)">
     <use style="fill:#00bfbf;" x="119.887531" xlink:href="#C0_0_0ced9270c7" y="102.136152"/>
    </g>
    <g clip-path="url(#pd89f7b9c35)">
     <use style="fill:#00bfbf;" x="110.899807" xlink:href="#C0_0_0ced9270c7" y="91.24278"/>
    </g>
    <g clip-path="url(#pd89f7b9c35)">
     <use style="fill:#00bfbf;" x="187.233178" xlink:href="#C0_0_0ced9270c7" y="62.388789"/>
    </g>
    <g clip-path="url(#pd89f7b9c35)">
     <use style="fill:#00bfbf;" x="169.012607" xlink:href="#C0_0_0ced9270c7" y="103.750761"/>
    </g>
    <g clip-path="url(#pd89f7b9c35)">
     <use style="fill:#00bfbf;" x="95.997702" xlink:href="#C0_0_0ced9270c7" y="110.011731"/>
    </g>
    <g clip-path="url(#pd89f7b9c35)">
     <use style="fill:#00bfbf;" x="187.982642" xlink:href="#C0_0_0ced9270c7" y="61.725771"/>
    </g>
    <g clip-path="url(#pd89f7b9c35)">
     <use style="fill:#00bfbf;" x="103.592069" xlink:href="#C0_0_0ced9270c7" y="108.382925"/>
    </g>
    <g clip-path="url(#pd89f7b9c35)">
     <use style="fill:#00bfbf;" x="170.703217" xlink:href="#C0_0_0ced9270c7" y="82.86649"/>
    </g>
    <g clip-path="url(#pd89f7b9c35)">
     <use style="fill:#00bfbf;" x="93.768574" xlink:href="#C0_0_0ced9270c7" y="119.051194"/>
    </g>
    <g clip-path="url(#pd89f7b9c35)">
     <use style="fill:#00bfbf;" x="209.296073" xlink:href="#C0_0_0ced9270c7" y="91.138172"/>
    </g>
    <g clip-path="url(#pd89f7b9c35)">
     <use style="fill:#00bfbf;" x="217.278864" xlink:href="#C0_0_0ced9270c7" y="86.866473"/>
    </g>
    <g clip-path="url(#pd89f7b9c35)">
     <use style="fill:#00bfbf;" x="109.140953" xlink:href="#C0_0_0ced9270c7" y="108.366659"/>
    </g>
    <g clip-path="url(#pd89f7b9c35)">
     <use style="fill:#00bfbf;" x="162.667633" xlink:href="#C0_0_0ced9270c7" y="71.504238"/>
    </g>
    <g clip-path="url(#pd89f7b9c35)">
     <use style="fill:#00bfbf;" x="204.402146" xlink:href="#C0_0_0ced9270c7" y="72.040843"/>
    </g>
    <g clip-path="url(#pd89f7b9c35)">
     <use style="fill:#00bfbf;" x="192.410635" xlink:href="#C0_0_0ced9270c7" y="63.525411"/>
    </g>
    <g clip-path="url(#pd89f7b9c35)">
     <use style="fill:#00bfbf;" x="171.841538" xlink:href="#C0_0_0ced9270c7" y="84.641714"/>
    </g>
    <g clip-path="url(#pd89f7b9c35)">
     <use style="fill:#00bfbf;" x="211.743941" xlink:href="#C0_0_0ced9270c7" y="78.141324"/>
    </g>
    <g clip-path="url(#pd89f7b9c35)">
     <use style="fill:#00bfbf;" x="81.916417" xlink:href="#C0_0_0ced9270c7" y="99.19238"/>
    </g>
    <g clip-path="url(#pd89f7b9c35)">
     <use style="fill:#00bfbf;" x="214.157712" xlink:href="#C0_0_0ced9270c7" y="46.185056"/>
    </g>
    <g clip-path="url(#pd89f7b9c35)">
     <use style="fill:#00bfbf;" x="130.680526" xlink:href="#C0_0_0ced9270c7" y="96.543529"/>
    </g>
    <g clip-path="url(#pd89f7b9c35)">
     <use style="fill:#00bfbf;" x="164.61192" xlink:href="#C0_0_0ced9270c7" y="98.043812"/>
    </g>
    <g clip-path="url(#pd89f7b9c35)">
     <use style="fill:#00bfbf;" x="190.100101" xlink:href="#C0_0_0ced9270c7" y="83.892817"/>
    </g>
    <g clip-path="url(#pd89f7b9c35)">
     <use style="fill:#00bfbf;" x="149.252157" xlink:href="#C0_0_0ced9270c7" y="102.902945"/>
    </g>
    <g clip-path="url(#pd89f7b9c35)">
     <use style="fill:#00bfbf;" x="166.790468" xlink:href="#C0_0_0ced9270c7" y="84.232292"/>
    </g>
    <g clip-path="url(#pd89f7b9c35)">
     <use style="fill:#00bfbf;" x="192.673175" xlink:href="#C0_0_0ced9270c7" y="90.646835"/>
    </g>
    <g clip-path="url(#pd89f7b9c35)">
     <use style="fill:#00bfbf;" x="206.921964" xlink:href="#C0_0_0ced9270c7" y="65.265739"/>
    </g>
    <g clip-path="url(#pd89f7b9c35)">
     <use style="fill:#00bfbf;" x="165.472984" xlink:href="#C0_0_0ced9270c7" y="82.094274"/>
    </g>
    <g clip-path="url(#pd89f7b9c35)">
     <use style="fill:#00bfbf;" x="216.52832" xlink:href="#C0_0_0ced9270c7" y="71.7475"/>
    </g>
    <g clip-path="url(#pd89f7b9c35)">
     <use style="fill:#00bfbf;" x="91.892722" xlink:href="#C0_0_0ced9270c7" y="114.851637"/>
    </g>
    <g clip-path="url(#pd89f7b9c35)">
     <use style="fill:#00bfbf;" x="188.353316" xlink:href="#C0_0_0ced9270c7" y="74.251268"/>
    </g>
    <g clip-path="url(#pd89f7b9c35)">
     <use style="fill:#00bfbf;" x="160.400728" xlink:href="#C0_0_0ced9270c7" y="80.553077"/>
    </g>
    <g clip-path="url(#pd89f7b9c35)">
     <use style="fill:#00bfbf;" x="141.494584" xlink:href="#C0_0_0ced9270c7" y="103.509497"/>
    </g>
    <g clip-path="url(#pd89f7b9c35)">
     <use style="fill:#00bfbf;" x="162.96005" xlink:href="#C0_0_0ced9270c7" y="86.39597"/>
    </g>
    <g clip-path="url(#pd89f7b9c35)">
     <use style="fill:#00bfbf;" x="75.862387" xlink:href="#C0_0_0ced9270c7" y="102.062997"/>
    </g>
    <g clip-path="url(#pd89f7b9c35)">
     <use style="fill:#00bfbf;" x="89.629512" xlink:href="#C0_0_0ced9270c7" y="107.130614"/>
    </g>
    <g clip-path="url(#pd89f7b9c35)">
     <use style="fill:#00bfbf;" x="186.009859" xlink:href="#C0_0_0ced9270c7" y="61.150435"/>
    </g>
    <g clip-path="url(#pd89f7b9c35)">
     <use style="fill:#00bfbf;" x="211.223637" xlink:href="#C0_0_0ced9270c7" y="67.689207"/>
    </g>
   </g>
   <g id="patch_3">
    <path d="M 59.07 139.74 
L 59.07 25.49625 
" style="fill:none;stroke:#262626;stroke-linecap:square;stroke-linejoin:miter;stroke-width:1.25;"/>
   </g>
   <g id="patch_4">
    <path d="M 225.089256 139.74 
L 225.089256 25.49625 
" style="fill:none;stroke:#262626;stroke-linecap:square;stroke-linejoin:miter;stroke-width:1.25;"/>
   </g>
   <g id="patch_5">
    <path d="M 59.07 139.74 
L 225.089256 139.74 
" style="fill:none;stroke:#262626;stroke-linecap:square;stroke-linejoin:miter;stroke-width:1.25;"/>
   </g>
   <g id="patch_6">
    <path d="M 59.07 25.49625 
L 225.089256 25.49625 
" style="fill:none;stroke:#262626;stroke-linecap:square;stroke-linejoin:miter;stroke-width:1.25;"/>
   </g>
   <g id="text_10">
    <!-- log(E) vs O plot -->
    <defs>
     <path d="M 7.90625 0 
L 7.90625 71.578125 
L 59.671875 71.578125 
L 59.671875 63.140625 
L 17.390625 63.140625 
L 17.390625 41.21875 
L 56.984375 41.21875 
L 56.984375 32.8125 
L 17.390625 32.8125 
L 17.390625 8.453125 
L 61.328125 8.453125 
L 61.328125 0 
z
" id="ArialMT-45"/>
     <path id="ArialMT-20"/>
     <path d="M 21 0 
L 1.265625 51.859375 
L 10.546875 51.859375 
L 21.6875 20.796875 
Q 23.484375 15.765625 25 10.359375 
Q 26.171875 14.453125 28.265625 20.21875 
L 39.796875 51.859375 
L 48.828125 51.859375 
L 29.203125 0 
z
" id="ArialMT-76"/>
     <path d="M 3.078125 15.484375 
L 11.765625 16.84375 
Q 12.5 11.625 15.84375 8.84375 
Q 19.1875 6.0625 25.203125 6.0625 
Q 31.25 6.0625 34.171875 8.515625 
Q 37.109375 10.984375 37.109375 14.3125 
Q 37.109375 17.28125 34.515625 19 
Q 32.71875 20.171875 25.53125 21.96875 
Q 15.875 24.421875 12.140625 26.203125 
Q 8.40625 27.984375 6.46875 31.125 
Q 4.546875 34.28125 4.546875 38.09375 
Q 4.546875 41.546875 6.125 44.5 
Q 7.71875 47.46875 10.453125 49.421875 
Q 12.5 50.921875 16.03125 51.96875 
Q 19.578125 53.03125 23.640625 53.03125 
Q 29.734375 53.03125 34.34375 51.265625 
Q 38.96875 49.515625 41.15625 46.5 
Q 43.359375 43.5 44.1875 38.484375 
L 35.59375 37.3125 
Q 35.015625 41.3125 32.203125 43.546875 
Q 29.390625 45.796875 24.265625 45.796875 
Q 18.21875 45.796875 15.625 43.796875 
Q 13.03125 41.796875 13.03125 39.109375 
Q 13.03125 37.40625 14.109375 36.03125 
Q 15.1875 34.625 17.484375 33.6875 
Q 18.796875 33.203125 25.25 31.453125 
Q 34.578125 28.953125 38.25 27.359375 
Q 41.9375 25.78125 44.03125 22.75 
Q 46.140625 19.734375 46.140625 15.234375 
Q 46.140625 10.84375 43.578125 6.953125 
Q 41.015625 3.078125 36.171875 0.953125 
Q 31.34375 -1.171875 25.25 -1.171875 
Q 15.140625 -1.171875 9.84375 3.03125 
Q 4.546875 7.234375 3.078125 15.484375 
" id="ArialMT-73"/>
     <path d="M 4.828125 34.859375 
Q 4.828125 52.6875 14.390625 62.765625 
Q 23.96875 72.859375 39.109375 72.859375 
Q 49.03125 72.859375 56.984375 68.109375 
Q 64.9375 63.375 69.109375 54.90625 
Q 73.296875 46.4375 73.296875 35.6875 
Q 73.296875 24.8125 68.890625 16.21875 
Q 64.5 7.625 56.4375 3.203125 
Q 48.390625 -1.21875 39.0625 -1.21875 
Q 28.953125 -1.21875 20.984375 3.65625 
Q 13.03125 8.546875 8.921875 16.984375 
Q 4.828125 25.4375 4.828125 34.859375 
M 14.59375 34.71875 
Q 14.59375 21.78125 21.546875 14.328125 
Q 28.515625 6.890625 39.015625 6.890625 
Q 49.703125 6.890625 56.609375 14.40625 
Q 63.53125 21.921875 63.53125 35.75 
Q 63.53125 44.484375 60.578125 51 
Q 57.625 57.515625 51.921875 61.109375 
Q 46.234375 64.703125 39.15625 64.703125 
Q 29.109375 64.703125 21.84375 57.78125 
Q 14.59375 50.875 14.59375 34.71875 
" id="ArialMT-4f"/>
     <path d="M 6.59375 -19.875 
L 6.59375 51.859375 
L 14.59375 51.859375 
L 14.59375 45.125 
Q 17.4375 49.078125 21 51.046875 
Q 24.5625 53.03125 29.640625 53.03125 
Q 36.28125 53.03125 41.359375 49.609375 
Q 46.4375 46.1875 49.015625 39.953125 
Q 51.609375 33.734375 51.609375 26.3125 
Q 51.609375 18.359375 48.75 11.984375 
Q 45.90625 5.609375 40.453125 2.21875 
Q 35.015625 -1.171875 29 -1.171875 
Q 24.609375 -1.171875 21.109375 0.6875 
Q 17.625 2.546875 15.375 5.375 
L 15.375 -19.875 
z
M 14.546875 25.640625 
Q 14.546875 15.625 18.59375 10.84375 
Q 22.65625 6.0625 28.421875 6.0625 
Q 34.28125 6.0625 38.453125 11.015625 
Q 42.625 15.96875 42.625 26.375 
Q 42.625 36.28125 38.546875 41.203125 
Q 34.46875 46.140625 28.8125 46.140625 
Q 23.1875 46.140625 18.859375 40.890625 
Q 14.546875 35.640625 14.546875 25.640625 
" id="ArialMT-70"/>
     <path d="M 25.78125 7.859375 
L 27.046875 0.09375 
Q 23.34375 -0.6875 20.40625 -0.6875 
Q 15.625 -0.6875 12.984375 0.828125 
Q 10.359375 2.34375 9.28125 4.8125 
Q 8.203125 7.28125 8.203125 15.1875 
L 8.203125 45.015625 
L 1.765625 45.015625 
L 1.765625 51.859375 
L 8.203125 51.859375 
L 8.203125 64.703125 
L 16.9375 69.96875 
L 16.9375 51.859375 
L 25.78125 51.859375 
L 25.78125 45.015625 
L 16.9375 45.015625 
L 16.9375 14.703125 
Q 16.9375 10.9375 17.40625 9.859375 
Q 17.875 8.796875 18.921875 8.15625 
Q 19.96875 7.515625 21.921875 7.515625 
Q 23.390625 7.515625 25.78125 7.859375 
" id="ArialMT-74"/>
    </defs>
    <g style="fill:#262626;" transform="translate(100.734941 19.49625)scale(0.12 -0.12)">
     <use xlink:href="#ArialMT-6c"/>
     <use x="22.216797" xlink:href="#ArialMT-6f"/>
     <use x="77.832031" xlink:href="#ArialMT-67"/>
     <use x="133.447266" xlink:href="#ArialMT-28"/>
     <use x="166.748047" xlink:href="#ArialMT-45"/>
     <use x="233.447266" xlink:href="#ArialMT-29"/>
     <use x="266.748047" xlink:href="#ArialMT-20"/>
     <use x="294.53125" xlink:href="#ArialMT-76"/>
     <use x="344.53125" xlink:href="#ArialMT-73"/>
     <use x="394.53125" xlink:href="#ArialMT-20"/>
     <use x="422.314453" xlink:href="#ArialMT-4f"/>
     <use x="500.097656" xlink:href="#ArialMT-20"/>
     <use x="527.880859" xlink:href="#ArialMT-70"/>
     <use x="583.496094" xlink:href="#ArialMT-6c"/>
     <use x="605.712891" xlink:href="#ArialMT-6f"/>
     <use x="661.328125" xlink:href="#ArialMT-74"/>
    </g>
   </g>
   <g id="legend_1">
    <g id="PathCollection_3">
     <path d="M 70.47 36.615938 
C 71.265609 36.615938 72.02874 36.299839 72.59132 35.737258 
C 73.153901 35.174677 73.47 34.411547 73.47 33.615938 
C 73.47 32.820328 73.153901 32.057198 72.59132 31.494617 
C 72.02874 30.932036 71.265609 30.615938 70.47 30.615938 
C 69.674391 30.615938 68.91126 30.932036 68.34868 31.494617 
C 67.786099 32.057198 67.47 32.820328 67.47 33.615938 
C 67.47 34.411547 67.786099 35.174677 68.34868 35.737258 
C 68.91126 36.299839 69.674391 36.615938 70.47 36.615938 
z
" style="fill:#008000;"/>
    </g>
    <g id="text_11">
     <!-- Gabazine -->
     <defs>
      <path d="M 41.21875 28.078125 
L 41.21875 36.46875 
L 71.53125 36.53125 
L 71.53125 9.96875 
Q 64.546875 4.390625 57.125 1.578125 
Q 49.703125 -1.21875 41.890625 -1.21875 
Q 31.34375 -1.21875 22.71875 3.296875 
Q 14.109375 7.8125 9.71875 16.359375 
Q 5.328125 24.90625 5.328125 35.453125 
Q 5.328125 45.90625 9.6875 54.953125 
Q 14.0625 64.015625 22.265625 68.40625 
Q 30.46875 72.796875 41.15625 72.796875 
Q 48.921875 72.796875 55.1875 70.28125 
Q 61.46875 67.78125 65.03125 63.28125 
Q 68.609375 58.796875 70.453125 51.5625 
L 61.921875 49.21875 
Q 60.296875 54.6875 57.90625 57.8125 
Q 55.515625 60.9375 51.0625 62.8125 
Q 46.625 64.703125 41.21875 64.703125 
Q 34.71875 64.703125 29.984375 62.71875 
Q 25.25 60.75 22.34375 57.515625 
Q 19.4375 54.296875 17.828125 50.4375 
Q 15.09375 43.796875 15.09375 36.03125 
Q 15.09375 26.46875 18.390625 20.015625 
Q 21.6875 13.578125 27.984375 10.453125 
Q 34.28125 7.328125 41.359375 7.328125 
Q 47.515625 7.328125 53.375 9.6875 
Q 59.234375 12.0625 62.25 14.75 
L 62.25 28.078125 
z
" id="ArialMT-47"/>
      <path d="M 40.4375 6.390625 
Q 35.546875 2.25 31.03125 0.53125 
Q 26.515625 -1.171875 21.34375 -1.171875 
Q 12.796875 -1.171875 8.203125 3 
Q 3.609375 7.171875 3.609375 13.671875 
Q 3.609375 17.484375 5.34375 20.625 
Q 7.078125 23.78125 9.890625 25.6875 
Q 12.703125 27.59375 16.21875 28.5625 
Q 18.796875 29.25 24.03125 29.890625 
Q 34.671875 31.15625 39.703125 32.90625 
Q 39.75 34.71875 39.75 35.203125 
Q 39.75 40.578125 37.25 42.78125 
Q 33.890625 45.75 27.25 45.75 
Q 21.046875 45.75 18.09375 43.578125 
Q 15.140625 41.40625 13.71875 35.890625 
L 5.125 37.0625 
Q 6.296875 42.578125 8.984375 45.96875 
Q 11.671875 49.359375 16.75 51.1875 
Q 21.828125 53.03125 28.515625 53.03125 
Q 35.15625 53.03125 39.296875 51.46875 
Q 43.453125 49.90625 45.40625 47.53125 
Q 47.359375 45.171875 48.140625 41.546875 
Q 48.578125 39.3125 48.578125 33.453125 
L 48.578125 21.734375 
Q 48.578125 9.46875 49.140625 6.21875 
Q 49.703125 2.984375 51.375 0 
L 42.1875 0 
Q 40.828125 2.734375 40.4375 6.390625 
M 39.703125 26.03125 
Q 34.90625 24.078125 25.34375 22.703125 
Q 19.921875 21.921875 17.671875 20.9375 
Q 15.4375 19.96875 14.203125 18.09375 
Q 12.984375 16.21875 12.984375 13.921875 
Q 12.984375 10.40625 15.640625 8.0625 
Q 18.3125 5.71875 23.4375 5.71875 
Q 28.515625 5.71875 32.46875 7.9375 
Q 36.421875 10.15625 38.28125 14.015625 
Q 39.703125 17 39.703125 22.796875 
z
" id="ArialMT-61"/>
      <path d="M 14.703125 0 
L 6.546875 0 
L 6.546875 71.578125 
L 15.328125 71.578125 
L 15.328125 46.046875 
Q 20.90625 53.03125 29.546875 53.03125 
Q 34.328125 53.03125 38.59375 51.09375 
Q 42.875 49.171875 45.625 45.671875 
Q 48.390625 42.1875 49.953125 37.25 
Q 51.515625 32.328125 51.515625 26.703125 
Q 51.515625 13.375 44.921875 6.09375 
Q 38.328125 -1.171875 29.109375 -1.171875 
Q 19.921875 -1.171875 14.703125 6.5 
z
M 14.59375 26.3125 
Q 14.59375 17 17.140625 12.84375 
Q 21.296875 6.0625 28.375 6.0625 
Q 34.125 6.0625 38.328125 11.0625 
Q 42.53125 16.0625 42.53125 25.984375 
Q 42.53125 36.140625 38.5 40.96875 
Q 34.46875 45.796875 28.765625 45.796875 
Q 23 45.796875 18.796875 40.796875 
Q 14.59375 35.796875 14.59375 26.3125 
" id="ArialMT-62"/>
      <path d="M 1.953125 0 
L 1.953125 7.125 
L 34.96875 45.015625 
Q 29.34375 44.734375 25.046875 44.734375 
L 3.90625 44.734375 
L 3.90625 51.859375 
L 46.296875 51.859375 
L 46.296875 46.046875 
L 18.21875 13.140625 
L 12.796875 7.125 
Q 18.703125 7.5625 23.875 7.5625 
L 47.859375 7.5625 
L 47.859375 0 
z
" id="ArialMT-7a"/>
      <path d="M 6.640625 61.46875 
L 6.640625 71.578125 
L 15.4375 71.578125 
L 15.4375 61.46875 
z
M 6.640625 0 
L 6.640625 51.859375 
L 15.4375 51.859375 
L 15.4375 0 
z
" id="ArialMT-69"/>
      <path d="M 6.59375 0 
L 6.59375 51.859375 
L 14.5 51.859375 
L 14.5 44.484375 
Q 20.21875 53.03125 31 53.03125 
Q 35.6875 53.03125 39.625 51.34375 
Q 43.5625 49.65625 45.515625 46.921875 
Q 47.46875 44.1875 48.25 40.4375 
Q 48.734375 37.984375 48.734375 31.890625 
L 48.734375 0 
L 39.9375 0 
L 39.9375 31.546875 
Q 39.9375 36.921875 38.90625 39.578125 
Q 37.890625 42.234375 35.28125 43.8125 
Q 32.671875 45.40625 29.15625 45.40625 
Q 23.53125 45.40625 19.453125 41.84375 
Q 15.375 38.28125 15.375 28.328125 
L 15.375 0 
z
" id="ArialMT-6e"/>
     </defs>
     <g style="fill:#262626;" transform="translate(81.27 35.190938)scale(0.06 -0.06)">
      <use xlink:href="#ArialMT-47"/>
      <use x="77.783203" xlink:href="#ArialMT-61"/>
      <use x="133.398438" xlink:href="#ArialMT-62"/>
      <use x="189.013672" xlink:href="#ArialMT-61"/>
      <use x="244.628906" xlink:href="#ArialMT-7a"/>
      <use x="294.628906" xlink:href="#ArialMT-69"/>
      <use x="316.845703" xlink:href="#ArialMT-6e"/>
      <use x="372.460938" xlink:href="#ArialMT-65"/>
     </g>
    </g>
    <g id="PathCollection_4">
     <path d="M 70.47 45.103125 
C 71.265609 45.103125 72.02874 44.787026 72.59132 44.224445 
C 73.153901 43.661865 73.47 42.898734 73.47 42.103125 
C 73.47 41.307516 73.153901 40.544385 72.59132 39.981805 
C 72.02874 39.419224 71.265609 39.103125 70.47 39.103125 
C 69.674391 39.103125 68.91126 39.419224 68.34868 39.981805 
C 67.786099 40.544385 67.47 41.307516 67.47 42.103125 
C 67.47 42.898734 67.786099 43.661865 68.34868 44.224445 
C 68.91126 44.787026 69.674391 45.103125 70.47 45.103125 
z
" style="fill:#00bfbf;"/>
    </g>
    <g id="text_12">
     <!-- Control -->
     <defs>
      <path d="M 58.796875 25.09375 
L 68.265625 22.703125 
Q 65.28125 11.03125 57.546875 4.90625 
Q 49.8125 -1.21875 38.625 -1.21875 
Q 27.046875 -1.21875 19.796875 3.484375 
Q 12.546875 8.203125 8.765625 17.140625 
Q 4.984375 26.078125 4.984375 36.328125 
Q 4.984375 47.515625 9.25 55.828125 
Q 13.53125 64.15625 21.40625 68.46875 
Q 29.296875 72.796875 38.765625 72.796875 
Q 49.515625 72.796875 56.828125 67.328125 
Q 64.15625 61.859375 67.046875 51.953125 
L 57.71875 49.75 
Q 55.21875 57.5625 50.484375 61.125 
Q 45.75 64.703125 38.578125 64.703125 
Q 30.328125 64.703125 24.78125 60.734375 
Q 19.234375 56.78125 16.984375 50.109375 
Q 14.75 43.453125 14.75 36.375 
Q 14.75 27.25 17.40625 20.4375 
Q 20.0625 13.625 25.671875 10.25 
Q 31.296875 6.890625 37.84375 6.890625 
Q 45.796875 6.890625 51.3125 11.46875 
Q 56.84375 16.0625 58.796875 25.09375 
" id="ArialMT-43"/>
      <path d="M 6.5 0 
L 6.5 51.859375 
L 14.40625 51.859375 
L 14.40625 44 
Q 17.4375 49.515625 20 51.265625 
Q 22.5625 53.03125 25.640625 53.03125 
Q 30.078125 53.03125 34.671875 50.203125 
L 31.640625 42.046875 
Q 28.421875 43.953125 25.203125 43.953125 
Q 22.3125 43.953125 20.015625 42.21875 
Q 17.71875 40.484375 16.75 37.40625 
Q 15.28125 32.71875 15.28125 27.15625 
L 15.28125 0 
z
" id="ArialMT-72"/>
     </defs>
     <g style="fill:#262626;" transform="translate(81.27 43.678125)scale(0.06 -0.06)">
      <use xlink:href="#ArialMT-43"/>
      <use x="72.216797" xlink:href="#ArialMT-6f"/>
      <use x="127.832031" xlink:href="#ArialMT-6e"/>
      <use x="183.447266" xlink:href="#ArialMT-74"/>
      <use x="211.230469" xlink:href="#ArialMT-72"/>
      <use x="244.53125" xlink:href="#ArialMT-6f"/>
      <use x="300.146484" xlink:href="#ArialMT-6c"/>
     </g>
    </g>
   </g>
  </g>
  <g id="axes_2">
   <g id="patch_7">
    <path d="M 278.849256 139.74 
L 444.868512 139.74 
L 444.868512 25.49625 
L 278.849256 25.49625 
z
" style="fill:#ffffff;"/>
   </g>
   <g id="matplotlib.axis_3">
    <g id="xtick_5">
     <g id="line2d_8"/>
     <g id="text_13">
      <!-- −0.050 -->
      <g style="fill:#262626;" transform="translate(270.964336 150.397813)scale(0.1 -0.1)">
       <use xlink:href="#ArialMT-2212"/>
       <use x="58.398438" xlink:href="#ArialMT-30"/>
       <use x="114.013672" xlink:href="#ArialMT-2e"/>
       <use x="141.796875" xlink:href="#ArialMT-30"/>
       <use x="197.412109" xlink:href="#ArialMT-35"/>
       <use x="253.027344" xlink:href="#ArialMT-30"/>
      </g>
     </g>
    </g>
    <g id="xtick_6">
     <g id="line2d_9"/>
     <g id="text_14">
      <!-- −0.025 -->
      <g style="fill:#262626;" transform="translate(308.695985 150.397813)scale(0.1 -0.1)">
       <use xlink:href="#ArialMT-2212"/>
       <use x="58.398438" xlink:href="#ArialMT-30"/>
       <use x="114.013672" xlink:href="#ArialMT-2e"/>
       <use x="141.796875" xlink:href="#ArialMT-30"/>
       <use x="197.412109" xlink:href="#ArialMT-32"/>
       <use x="253.027344" xlink:href="#ArialMT-35"/>
      </g>
     </g>
    </g>
    <g id="xtick_7">
     <g id="line2d_10"/>
     <g id="text_15">
      <!-- 0.000 -->
      <g style="fill:#262626;" transform="translate(349.347947 150.397813)scale(0.1 -0.1)">
       <use xlink:href="#ArialMT-30"/>
       <use x="55.615234" xlink:href="#ArialMT-2e"/>
       <use x="83.398438" xlink:href="#ArialMT-30"/>
       <use x="139.013672" xlink:href="#ArialMT-30"/>
       <use x="194.628906" xlink:href="#ArialMT-30"/>
      </g>
     </g>
    </g>
    <g id="xtick_8">
     <g id="line2d_11"/>
     <g id="text_16">
      <!-- 0.025 -->
      <g style="fill:#262626;" transform="translate(387.079596 150.397813)scale(0.1 -0.1)">
       <use xlink:href="#ArialMT-30"/>
       <use x="55.615234" xlink:href="#ArialMT-2e"/>
       <use x="83.398438" xlink:href="#ArialMT-30"/>
       <use x="139.013672" xlink:href="#ArialMT-32"/>
       <use x="194.628906" xlink:href="#ArialMT-35"/>
      </g>
     </g>
    </g>
    <g id="xtick_9">
     <g id="line2d_12"/>
     <g id="text_17">
      <!-- 0.050 -->
      <g style="fill:#262626;" transform="translate(424.811245 150.397813)scale(0.1 -0.1)">
       <use xlink:href="#ArialMT-30"/>
       <use x="55.615234" xlink:href="#ArialMT-2e"/>
       <use x="83.398438" xlink:href="#ArialMT-30"/>
       <use x="139.013672" xlink:href="#ArialMT-35"/>
       <use x="194.628906" xlink:href="#ArialMT-30"/>
      </g>
     </g>
    </g>
    <g id="text_18">
     <!-- log(GABAzine) -->
     <defs>
      <path d="M -0.140625 0 
L 27.34375 71.578125 
L 37.546875 71.578125 
L 66.84375 0 
L 56.0625 0 
L 47.703125 21.6875 
L 17.78125 21.6875 
L 9.90625 0 
z
M 20.515625 29.390625 
L 44.78125 29.390625 
L 37.3125 49.21875 
Q 33.890625 58.25 32.234375 64.0625 
Q 30.859375 57.171875 28.375 50.390625 
z
" id="ArialMT-41"/>
      <path d="M 7.328125 0 
L 7.328125 71.578125 
L 34.1875 71.578125 
Q 42.390625 71.578125 47.34375 69.40625 
Q 52.296875 67.234375 55.09375 62.71875 
Q 57.90625 58.203125 57.90625 53.265625 
Q 57.90625 48.6875 55.421875 44.625 
Q 52.9375 40.578125 47.90625 38.09375 
Q 54.390625 36.1875 57.875 31.59375 
Q 61.375 27 61.375 20.75 
Q 61.375 15.71875 59.25 11.390625 
Q 57.125 7.078125 54 4.734375 
Q 50.875 2.390625 46.15625 1.1875 
Q 41.453125 0 34.625 0 
z
M 16.796875 41.5 
L 32.28125 41.5 
Q 38.578125 41.5 41.3125 42.328125 
Q 44.921875 43.40625 46.75 45.890625 
Q 48.578125 48.390625 48.578125 52.15625 
Q 48.578125 55.71875 46.875 58.421875 
Q 45.171875 61.140625 41.984375 62.140625 
Q 38.8125 63.140625 31.109375 63.140625 
L 16.796875 63.140625 
z
M 16.796875 8.453125 
L 34.625 8.453125 
Q 39.203125 8.453125 41.0625 8.796875 
Q 44.34375 9.375 46.53125 10.734375 
Q 48.734375 12.109375 50.140625 14.71875 
Q 51.5625 17.328125 51.5625 20.75 
Q 51.5625 24.75 49.515625 27.703125 
Q 47.46875 30.671875 43.828125 31.859375 
Q 40.1875 33.0625 33.34375 33.0625 
L 16.796875 33.0625 
z
" id="ArialMT-42"/>
     </defs>
     <g style="fill:#262626;" transform="translate(328.790916 163.665)scale(0.1 -0.1)">
      <use xlink:href="#ArialMT-6c"/>
      <use x="22.216797" xlink:href="#ArialMT-6f"/>
      <use x="77.832031" xlink:href="#ArialMT-67"/>
      <use x="133.447266" xlink:href="#ArialMT-28"/>
      <use x="166.748047" xlink:href="#ArialMT-47"/>
      <use x="244.53125" xlink:href="#ArialMT-41"/>
      <use x="311.230469" xlink:href="#ArialMT-42"/>
      <use x="377.929688" xlink:href="#ArialMT-41"/>
      <use x="444.628906" xlink:href="#ArialMT-7a"/>
      <use x="494.628906" xlink:href="#ArialMT-69"/>
      <use x="516.845703" xlink:href="#ArialMT-6e"/>
      <use x="572.460938" xlink:href="#ArialMT-65"/>
      <use x="628.076172" xlink:href="#ArialMT-29"/>
     </g>
    </g>
   </g>
   <g id="matplotlib.axis_4">
    <g id="ytick_4">
     <g id="line2d_13"/>
     <g id="text_19">
      <!-- −0.050 -->
      <g style="fill:#262626;" transform="translate(244.486756 138.126009)scale(0.1 -0.1)">
       <use xlink:href="#ArialMT-2212"/>
       <use x="58.398438" xlink:href="#ArialMT-30"/>
       <use x="114.013672" xlink:href="#ArialMT-2e"/>
       <use x="141.796875" xlink:href="#ArialMT-30"/>
       <use x="197.412109" xlink:href="#ArialMT-35"/>
       <use x="253.027344" xlink:href="#ArialMT-30"/>
      </g>
     </g>
    </g>
    <g id="ytick_5">
     <g id="line2d_14"/>
     <g id="text_20">
      <!-- −0.025 -->
      <g style="fill:#262626;" transform="translate(244.486756 112.16152)scale(0.1 -0.1)">
       <use xlink:href="#ArialMT-2212"/>
       <use x="58.398438" xlink:href="#ArialMT-30"/>
       <use x="114.013672" xlink:href="#ArialMT-2e"/>
       <use x="141.796875" xlink:href="#ArialMT-30"/>
       <use x="197.412109" xlink:href="#ArialMT-32"/>
       <use x="253.027344" xlink:href="#ArialMT-35"/>
      </g>
     </g>
    </g>
    <g id="ytick_6">
     <g id="line2d_15"/>
     <g id="text_21">
      <!-- 0.000 -->
      <g style="fill:#262626;" transform="translate(250.327381 86.197031)scale(0.1 -0.1)">
       <use xlink:href="#ArialMT-30"/>
       <use x="55.615234" xlink:href="#ArialMT-2e"/>
       <use x="83.398438" xlink:href="#ArialMT-30"/>
       <use x="139.013672" xlink:href="#ArialMT-30"/>
       <use x="194.628906" xlink:href="#ArialMT-30"/>
      </g>
     </g>
    </g>
    <g id="ytick_7">
     <g id="line2d_16"/>
     <g id="text_22">
      <!-- 0.025 -->
      <g style="fill:#262626;" transform="translate(250.327381 60.232543)scale(0.1 -0.1)">
       <use xlink:href="#ArialMT-30"/>
       <use x="55.615234" xlink:href="#ArialMT-2e"/>
       <use x="83.398438" xlink:href="#ArialMT-30"/>
       <use x="139.013672" xlink:href="#ArialMT-32"/>
       <use x="194.628906" xlink:href="#ArialMT-35"/>
      </g>
     </g>
    </g>
    <g id="ytick_8">
     <g id="line2d_17"/>
     <g id="text_23">
      <!-- 0.050 -->
      <g style="fill:#262626;" transform="translate(250.327381 34.268054)scale(0.1 -0.1)">
       <use xlink:href="#ArialMT-30"/>
       <use x="55.615234" xlink:href="#ArialMT-2e"/>
       <use x="83.398438" xlink:href="#ArialMT-30"/>
       <use x="139.013672" xlink:href="#ArialMT-35"/>
       <use x="194.628906" xlink:href="#ArialMT-30"/>
      </g>
     </g>
    </g>
    <g id="text_24">
     <!-- Control -->
     <g style="fill:#262626;" transform="translate(238.499256 98.735313)rotate(-90)scale(0.1 -0.1)">
      <use xlink:href="#ArialMT-43"/>
      <use x="72.216797" xlink:href="#ArialMT-6f"/>
      <use x="127.832031" xlink:href="#ArialMT-6e"/>
      <use x="183.447266" xlink:href="#ArialMT-74"/>
      <use x="211.230469" xlink:href="#ArialMT-72"/>
      <use x="244.53125" xlink:href="#ArialMT-6f"/>
      <use x="300.146484" xlink:href="#ArialMT-6c"/>
     </g>
    </g>
   </g>
   <g id="PathCollection_5">
    <path clip-path="url(#p4c67090cd6)" d="M 0 348.6 
C 0.795609 348.6 1.55874 348.283901 2.12132 347.72132 
C 2.683901 347.15874 3 346.395609 3 345.6 
C 3 344.804391 2.683901 344.04126 2.12132 343.47868 
C 1.55874 342.916099 0.795609 342.6 0 342.6 
C -0.795609 342.6 -1.55874 342.916099 -2.12132 343.47868 
C -2.683901 344.04126 -3 344.804391 -3 345.6 
C -3 346.395609 -2.683901 347.15874 -2.12132 347.72132 
C -1.55874 348.283901 -0.795609 348.6 0 348.6 
z
" style="fill:#bf00bf;"/>
   </g>
   <g id="patch_8">
    <path d="M 278.849256 139.74 
L 278.849256 25.49625 
" style="fill:none;stroke:#262626;stroke-linecap:square;stroke-linejoin:miter;stroke-width:1.25;"/>
   </g>
   <g id="patch_9">
    <path d="M 444.868512 139.74 
L 444.868512 25.49625 
" style="fill:none;stroke:#262626;stroke-linecap:square;stroke-linejoin:miter;stroke-width:1.25;"/>
   </g>
   <g id="patch_10">
    <path d="M 278.849256 139.74 
L 444.868512 139.74 
" style="fill:none;stroke:#262626;stroke-linecap:square;stroke-linejoin:miter;stroke-width:1.25;"/>
   </g>
   <g id="patch_11">
    <path d="M 278.849256 25.49625 
L 444.868512 25.49625 
" style="fill:none;stroke:#262626;stroke-linecap:square;stroke-linejoin:miter;stroke-width:1.25;"/>
   </g>
   <g id="text_25">
    <!-- log(G) vs C plot -->
    <g style="fill:#262626;" transform="translate(320.183259 19.49625)scale(0.12 -0.12)">
     <use xlink:href="#ArialMT-6c"/>
     <use x="22.216797" xlink:href="#ArialMT-6f"/>
     <use x="77.832031" xlink:href="#ArialMT-67"/>
     <use x="133.447266" xlink:href="#ArialMT-28"/>
     <use x="166.748047" xlink:href="#ArialMT-47"/>
     <use x="244.53125" xlink:href="#ArialMT-29"/>
     <use x="277.832031" xlink:href="#ArialMT-20"/>
     <use x="305.615234" xlink:href="#ArialMT-76"/>
     <use x="355.615234" xlink:href="#ArialMT-73"/>
     <use x="405.615234" xlink:href="#ArialMT-20"/>
     <use x="433.398438" xlink:href="#ArialMT-43"/>
     <use x="505.615234" xlink:href="#ArialMT-20"/>
     <use x="533.398438" xlink:href="#ArialMT-70"/>
     <use x="589.013672" xlink:href="#ArialMT-6c"/>
     <use x="611.230469" xlink:href="#ArialMT-6f"/>
     <use x="666.845703" xlink:href="#ArialMT-74"/>
    </g>
   </g>
   <g id="legend_2">
    <g id="PathCollection_6">
     <path d="M 290.249256 36.615938 
C 291.044865 36.615938 291.807996 36.299839 292.370577 35.737258 
C 292.933157 35.174677 293.249256 34.411547 293.249256 33.615938 
C 293.249256 32.820328 292.933157 32.057198 292.370577 31.494617 
C 291.807996 30.932036 291.044865 30.615938 290.249256 30.615938 
C 289.453647 30.615938 288.690517 30.932036 288.127936 31.494617 
C 287.565355 32.057198 287.249256 32.820328 287.249256 33.615938 
C 287.249256 34.411547 287.565355 35.174677 288.127936 35.737258 
C 288.690517 36.299839 289.453647 36.615938 290.249256 36.615938 
z
" style="fill:#bf00bf;"/>
    </g>
    <g id="text_26">
     <!-- Observed -->
     <defs>
      <path d="M 40.234375 0 
L 40.234375 6.546875 
Q 35.296875 -1.171875 25.734375 -1.171875 
Q 19.53125 -1.171875 14.328125 2.25 
Q 9.125 5.671875 6.265625 11.796875 
Q 3.421875 17.921875 3.421875 25.875 
Q 3.421875 33.640625 6 39.96875 
Q 8.59375 46.296875 13.765625 49.65625 
Q 18.953125 53.03125 25.34375 53.03125 
Q 30.03125 53.03125 33.6875 51.046875 
Q 37.359375 49.078125 39.65625 45.90625 
L 39.65625 71.578125 
L 48.390625 71.578125 
L 48.390625 0 
z
M 12.453125 25.875 
Q 12.453125 15.921875 16.640625 10.984375 
Q 20.84375 6.0625 26.5625 6.0625 
Q 32.328125 6.0625 36.34375 10.765625 
Q 40.375 15.484375 40.375 25.140625 
Q 40.375 35.796875 36.265625 40.765625 
Q 32.171875 45.75 26.171875 45.75 
Q 20.3125 45.75 16.375 40.96875 
Q 12.453125 36.1875 12.453125 25.875 
" id="ArialMT-64"/>
     </defs>
     <g style="fill:#262626;" transform="translate(301.049256 35.190938)scale(0.06 -0.06)">
      <use xlink:href="#ArialMT-4f"/>
      <use x="77.783203" xlink:href="#ArialMT-62"/>
      <use x="133.398438" xlink:href="#ArialMT-73"/>
      <use x="183.398438" xlink:href="#ArialMT-65"/>
      <use x="239.013672" xlink:href="#ArialMT-72"/>
      <use x="272.314453" xlink:href="#ArialMT-76"/>
      <use x="322.314453" xlink:href="#ArialMT-65"/>
      <use x="377.929688" xlink:href="#ArialMT-64"/>
     </g>
    </g>
   </g>
  </g>
  <g id="axes_3">
   <g id="patch_12">
    <path d="M 59.07 307.14 
L 225.089256 307.14 
L 225.089256 192.89625 
L 59.07 192.89625 
z
" style="fill:#ffffff;"/>
   </g>
   <g id="matplotlib.axis_5">
    <g id="xtick_10">
     <g id="line2d_18"/>
     <g id="text_27">
      <!-- 0.005 -->
      <g style="fill:#262626;" transform="translate(78.364666 317.797812)scale(0.1 -0.1)">
       <use xlink:href="#ArialMT-30"/>
       <use x="55.615234" xlink:href="#ArialMT-2e"/>
       <use x="83.398438" xlink:href="#ArialMT-30"/>
       <use x="139.013672" xlink:href="#ArialMT-30"/>
       <use x="194.628906" xlink:href="#ArialMT-35"/>
      </g>
     </g>
    </g>
    <g id="xtick_11">
     <g id="line2d_19"/>
     <g id="text_28">
      <!-- 0.010 -->
      <g style="fill:#262626;" transform="translate(114.392282 317.797812)scale(0.1 -0.1)">
       <use xlink:href="#ArialMT-30"/>
       <use x="55.615234" xlink:href="#ArialMT-2e"/>
       <use x="83.398438" xlink:href="#ArialMT-30"/>
       <use x="139.013672" xlink:href="#ArialMT-31"/>
       <use x="194.628906" xlink:href="#ArialMT-30"/>
      </g>
     </g>
    </g>
    <g id="xtick_12">
     <g id="line2d_20"/>
     <g id="text_29">
      <!-- 0.015 -->
      <g style="fill:#262626;" transform="translate(150.419899 317.797812)scale(0.1 -0.1)">
       <use xlink:href="#ArialMT-30"/>
       <use x="55.615234" xlink:href="#ArialMT-2e"/>
       <use x="83.398438" xlink:href="#ArialMT-30"/>
       <use x="139.013672" xlink:href="#ArialMT-31"/>
       <use x="194.628906" xlink:href="#ArialMT-35"/>
      </g>
     </g>
    </g>
    <g id="xtick_13">
     <g id="line2d_21"/>
     <g id="text_30">
      <!-- 0.020 -->
      <g style="fill:#262626;" transform="translate(186.447516 317.797812)scale(0.1 -0.1)">
       <use xlink:href="#ArialMT-30"/>
       <use x="55.615234" xlink:href="#ArialMT-2e"/>
       <use x="83.398438" xlink:href="#ArialMT-30"/>
       <use x="139.013672" xlink:href="#ArialMT-32"/>
       <use x="194.628906" xlink:href="#ArialMT-30"/>
      </g>
     </g>
    </g>
    <g id="text_31">
     <!-- e -->
     <g style="fill:#262626;" transform="translate(139.299159 330.943125)scale(0.1 -0.1)">
      <use xlink:href="#ArialMT-65"/>
     </g>
    </g>
   </g>
   <g id="matplotlib.axis_6">
    <g id="ytick_9">
     <g id="line2d_22"/>
     <g id="text_32">
      <!-- 0.000 -->
      <g style="fill:#262626;" transform="translate(30.548125 297.764421)scale(0.1 -0.1)">
       <use xlink:href="#ArialMT-30"/>
       <use x="55.615234" xlink:href="#ArialMT-2e"/>
       <use x="83.398438" xlink:href="#ArialMT-30"/>
       <use x="139.013672" xlink:href="#ArialMT-30"/>
       <use x="194.628906" xlink:href="#ArialMT-30"/>
      </g>
     </g>
    </g>
    <g id="ytick_10">
     <g id="line2d_23"/>
     <g id="text_33">
      <!-- 0.005 -->
      <g style="fill:#262626;" transform="translate(30.548125 258.320289)scale(0.1 -0.1)">
       <use xlink:href="#ArialMT-30"/>
       <use x="55.615234" xlink:href="#ArialMT-2e"/>
       <use x="83.398438" xlink:href="#ArialMT-30"/>
       <use x="139.013672" xlink:href="#ArialMT-30"/>
       <use x="194.628906" xlink:href="#ArialMT-35"/>
      </g>
     </g>
    </g>
    <g id="ytick_11">
     <g id="line2d_24"/>
     <g id="text_34">
      <!-- 0.010 -->
      <g style="fill:#262626;" transform="translate(30.548125 218.876158)scale(0.1 -0.1)">
       <use xlink:href="#ArialMT-30"/>
       <use x="55.615234" xlink:href="#ArialMT-2e"/>
       <use x="83.398438" xlink:href="#ArialMT-30"/>
       <use x="139.013672" xlink:href="#ArialMT-31"/>
       <use x="194.628906" xlink:href="#ArialMT-30"/>
      </g>
     </g>
    </g>
    <g id="text_35">
     <!-- o -->
     <g style="fill:#262626;" transform="translate(24.560625 252.798594)rotate(-90)scale(0.1 -0.1)">
      <use xlink:href="#ArialMT-6f"/>
     </g>
    </g>
   </g>
   <g id="PathCollection_7">
    <path clip-path="url(#p8dcb48547e)" d="M 0 348.6 
C 0.795609 348.6 1.55874 348.283901 2.12132 347.72132 
C 2.683901 347.15874 3 346.395609 3 345.6 
C 3 344.804391 2.683901 344.04126 2.12132 343.47868 
C 1.55874 342.916099 0.795609 342.6 0 342.6 
C -0.795609 342.6 -1.55874 342.916099 -2.12132 343.47868 
C -2.683901 344.04126 -3 344.804391 -3 345.6 
C -3 346.395609 -2.683901 347.15874 -2.12132 347.72132 
C -1.55874 348.283901 -0.795609 348.6 0 348.6 
z
" style="fill:#008000;"/>
   </g>
   <g id="PathCollection_8">
    <defs>
     <path d="M 0 3 
C 0.795609 3 1.55874 2.683901 2.12132 2.12132 
C 2.683901 1.55874 3 0.795609 3 0 
C 3 -0.795609 2.683901 -1.55874 2.12132 -2.12132 
C 1.55874 -2.683901 0.795609 -3 0 -3 
C -0.795609 -3 -1.55874 -2.683901 -2.12132 -2.12132 
C -2.683901 -1.55874 -3 -0.795609 -3 0 
C -3 0.795609 -2.683901 1.55874 -2.12132 2.12132 
C -1.55874 2.683901 -0.795609 3 0 3 
z
" id="C1_0_455a046c6d"/>
    </defs>
    <g clip-path="url(#p8dcb48547e)">
     <use style="fill:#00bfbf;" x="98.713168" xlink:href="#C1_0_455a046c6d" y="261.432618"/>
    </g>
    <g clip-path="url(#p8dcb48547e)">
     <use style="fill:#00bfbf;" x="195.775125" xlink:href="#C1_0_455a046c6d" y="247.457924"/>
    </g>
    <g clip-path="url(#p8dcb48547e)">
     <use style="fill:#00bfbf;" x="93.061652" xlink:href="#C1_0_455a046c6d" y="274.282545"/>
    </g>
    <g clip-path="url(#p8dcb48547e)">
     <use style="fill:#00bfbf;" x="160.246463" xlink:href="#C1_0_455a046c6d" y="245.749411"/>
    </g>
    <g clip-path="url(#p8dcb48547e)">
     <use style="fill:#00bfbf;" x="105.229999" xlink:href="#C1_0_455a046c6d" y="246.607733"/>
    </g>
    <g clip-path="url(#p8dcb48547e)">
     <use style="fill:#00bfbf;" x="156.322178" xlink:href="#C1_0_455a046c6d" y="251.035874"/>
    </g>
    <g clip-path="url(#p8dcb48547e)">
     <use style="fill:#00bfbf;" x="101.500781" xlink:href="#C1_0_455a046c6d" y="273.194305"/>
    </g>
    <g clip-path="url(#p8dcb48547e)">
     <use style="fill:#00bfbf;" x="202.082638" xlink:href="#C1_0_455a046c6d" y="236.258253"/>
    </g>
    <g clip-path="url(#p8dcb48547e)">
     <use style="fill:#00bfbf;" x="86.587982" xlink:href="#C1_0_455a046c6d" y="264.109209"/>
    </g>
    <g clip-path="url(#p8dcb48547e)">
     <use style="fill:#00bfbf;" x="186.593538" xlink:href="#C1_0_455a046c6d" y="245.439807"/>
    </g>
    <g clip-path="url(#p8dcb48547e)">
     <use style="fill:#00bfbf;" x="161.614963" xlink:href="#C1_0_455a046c6d" y="244.780218"/>
    </g>
    <g clip-path="url(#p8dcb48547e)">
     <use style="fill:#00bfbf;" x="91.650362" xlink:href="#C1_0_455a046c6d" y="258.392615"/>
    </g>
    <g clip-path="url(#p8dcb48547e)">
     <use style="fill:#00bfbf;" x="193.386045" xlink:href="#C1_0_455a046c6d" y="253.089768"/>
    </g>
    <g clip-path="url(#p8dcb48547e)">
     <use style="fill:#00bfbf;" x="87.091176" xlink:href="#C1_0_455a046c6d" y="280.029603"/>
    </g>
    <g clip-path="url(#p8dcb48547e)">
     <use style="fill:#00bfbf;" x="181.077461" xlink:href="#C1_0_455a046c6d" y="265.225463"/>
    </g>
    <g clip-path="url(#p8dcb48547e)">
     <use style="fill:#00bfbf;" x="84.995936" xlink:href="#C1_0_455a046c6d" y="275.570135"/>
    </g>
    <g clip-path="url(#p8dcb48547e)">
     <use style="fill:#00bfbf;" x="163.768428" xlink:href="#C1_0_455a046c6d" y="246.536552"/>
    </g>
    <g clip-path="url(#p8dcb48547e)">
     <use style="fill:#00bfbf;" x="170.548244" xlink:href="#C1_0_455a046c6d" y="231.989988"/>
    </g>
    <g clip-path="url(#p8dcb48547e)">
     <use style="fill:#00bfbf;" x="77.896243" xlink:href="#C1_0_455a046c6d" y="263.206489"/>
    </g>
    <g clip-path="url(#p8dcb48547e)">
     <use style="fill:#00bfbf;" x="77.163124" xlink:href="#C1_0_455a046c6d" y="274.476196"/>
    </g>
    <g clip-path="url(#p8dcb48547e)">
     <use style="fill:#00bfbf;" x="138.032738" xlink:href="#C1_0_455a046c6d" y="256.36907"/>
    </g>
    <g clip-path="url(#p8dcb48547e)">
     <use style="fill:#00bfbf;" x="107.465177" xlink:href="#C1_0_455a046c6d" y="257.651971"/>
    </g>
    <g clip-path="url(#p8dcb48547e)">
     <use style="fill:#00bfbf;" x="186.268686" xlink:href="#C1_0_455a046c6d" y="249.634912"/>
    </g>
    <g clip-path="url(#p8dcb48547e)">
     <use style="fill:#00bfbf;" x="82.849756" xlink:href="#C1_0_455a046c6d" y="282.708926"/>
    </g>
    <g clip-path="url(#p8dcb48547e)">
     <use style="fill:#00bfbf;" x="187.48067" xlink:href="#C1_0_455a046c6d" y="227.87814"/>
    </g>
    <g clip-path="url(#p8dcb48547e)">
     <use style="fill:#00bfbf;" x="106.807853" xlink:href="#C1_0_455a046c6d" y="254.999696"/>
    </g>
    <g clip-path="url(#p8dcb48547e)">
     <use style="fill:#00bfbf;" x="130.035743" xlink:href="#C1_0_455a046c6d" y="250.648286"/>
    </g>
    <g clip-path="url(#p8dcb48547e)">
     <use style="fill:#00bfbf;" x="130.227248" xlink:href="#C1_0_455a046c6d" y="249.178245"/>
    </g>
    <g clip-path="url(#p8dcb48547e)">
     <use style="fill:#00bfbf;" x="164.314096" xlink:href="#C1_0_455a046c6d" y="240.739673"/>
    </g>
    <g clip-path="url(#p8dcb48547e)">
     <use style="fill:#00bfbf;" x="88.456998" xlink:href="#C1_0_455a046c6d" y="275.067338"/>
    </g>
    <g clip-path="url(#p8dcb48547e)">
     <use style="fill:#00bfbf;" x="138.808249" xlink:href="#C1_0_455a046c6d" y="254.588908"/>
    </g>
    <g clip-path="url(#p8dcb48547e)">
     <use style="fill:#00bfbf;" x="86.720611" xlink:href="#C1_0_455a046c6d" y="269.757579"/>
    </g>
    <g clip-path="url(#p8dcb48547e)">
     <use style="fill:#00bfbf;" x="98.487253" xlink:href="#C1_0_455a046c6d" y="259.618409"/>
    </g>
    <g clip-path="url(#p8dcb48547e)">
     <use style="fill:#00bfbf;" x="101.063726" xlink:href="#C1_0_455a046c6d" y="244.251018"/>
    </g>
    <g clip-path="url(#p8dcb48547e)">
     <use style="fill:#00bfbf;" x="137.019812" xlink:href="#C1_0_455a046c6d" y="240.164208"/>
    </g>
    <g clip-path="url(#p8dcb48547e)">
     <use style="fill:#00bfbf;" x="110.422159" xlink:href="#C1_0_455a046c6d" y="266.827986"/>
    </g>
    <g clip-path="url(#p8dcb48547e)">
     <use style="fill:#00bfbf;" x="176.495389" xlink:href="#C1_0_455a046c6d" y="242.747543"/>
    </g>
    <g clip-path="url(#p8dcb48547e)">
     <use style="fill:#00bfbf;" x="99.643967" xlink:href="#C1_0_455a046c6d" y="260.982854"/>
    </g>
    <g clip-path="url(#p8dcb48547e)">
     <use style="fill:#00bfbf;" x="104.27354" xlink:href="#C1_0_455a046c6d" y="252.661834"/>
    </g>
    <g clip-path="url(#p8dcb48547e)">
     <use style="fill:#00bfbf;" x="170.928181" xlink:href="#C1_0_455a046c6d" y="261.245708"/>
    </g>
    <g clip-path="url(#p8dcb48547e)">
     <use style="fill:#00bfbf;" x="154.946221" xlink:href="#C1_0_455a046c6d" y="251.050814"/>
    </g>
    <g clip-path="url(#p8dcb48547e)">
     <use style="fill:#00bfbf;" x="129.471918" xlink:href="#C1_0_455a046c6d" y="261.348369"/>
    </g>
    <g clip-path="url(#p8dcb48547e)">
     <use style="fill:#00bfbf;" x="82.024209" xlink:href="#C1_0_455a046c6d" y="275.467012"/>
    </g>
    <g clip-path="url(#p8dcb48547e)">
     <use style="fill:#00bfbf;" x="100.685962" xlink:href="#C1_0_455a046c6d" y="254.940977"/>
    </g>
    <g clip-path="url(#p8dcb48547e)">
     <use style="fill:#00bfbf;" x="160.430978" xlink:href="#C1_0_455a046c6d" y="227.043139"/>
    </g>
    <g clip-path="url(#p8dcb48547e)">
     <use style="fill:#00bfbf;" x="172.397003" xlink:href="#C1_0_455a046c6d" y="246.682855"/>
    </g>
    <g clip-path="url(#p8dcb48547e)">
     <use style="fill:#00bfbf;" x="182.071199" xlink:href="#C1_0_455a046c6d" y="252.031"/>
    </g>
    <g clip-path="url(#p8dcb48547e)">
     <use style="fill:#00bfbf;" x="126.936111" xlink:href="#C1_0_455a046c6d" y="262.025712"/>
    </g>
    <g clip-path="url(#p8dcb48547e)">
     <use style="fill:#00bfbf;" x="160.670539" xlink:href="#C1_0_455a046c6d" y="218.340585"/>
    </g>
    <g clip-path="url(#p8dcb48547e)">
     <use style="fill:#00bfbf;" x="200.947999" xlink:href="#C1_0_455a046c6d" y="252.904983"/>
    </g>
    <g clip-path="url(#p8dcb48547e)">
     <use style="fill:#00bfbf;" x="94.507693" xlink:href="#C1_0_455a046c6d" y="279.567517"/>
    </g>
    <g clip-path="url(#p8dcb48547e)">
     <use style="fill:#00bfbf;" x="98.540889" xlink:href="#C1_0_455a046c6d" y="256.002457"/>
    </g>
    <g clip-path="url(#p8dcb48547e)">
     <use style="fill:#00bfbf;" x="173.863507" xlink:href="#C1_0_455a046c6d" y="242.296552"/>
    </g>
    <g clip-path="url(#p8dcb48547e)">
     <use style="fill:#00bfbf;" x="103.702398" xlink:href="#C1_0_455a046c6d" y="265.904158"/>
    </g>
    <g clip-path="url(#p8dcb48547e)">
     <use style="fill:#00bfbf;" x="167.227695" xlink:href="#C1_0_455a046c6d" y="238.476702"/>
    </g>
    <g clip-path="url(#p8dcb48547e)">
     <use style="fill:#00bfbf;" x="107.370195" xlink:href="#C1_0_455a046c6d" y="243.392682"/>
    </g>
    <g clip-path="url(#p8dcb48547e)">
     <use style="fill:#00bfbf;" x="129.659396" xlink:href="#C1_0_455a046c6d" y="231.185954"/>
    </g>
    <g clip-path="url(#p8dcb48547e)">
     <use style="fill:#00bfbf;" x="122.897321" xlink:href="#C1_0_455a046c6d" y="257.521839"/>
    </g>
    <g clip-path="url(#p8dcb48547e)">
     <use style="fill:#00bfbf;" x="97.618232" xlink:href="#C1_0_455a046c6d" y="264.398979"/>
    </g>
    <g clip-path="url(#p8dcb48547e)">
     <use style="fill:#00bfbf;" x="153.442638" xlink:href="#C1_0_455a046c6d" y="236.277869"/>
    </g>
    <g clip-path="url(#p8dcb48547e)">
     <use style="fill:#00bfbf;" x="128.292694" xlink:href="#C1_0_455a046c6d" y="249.135085"/>
    </g>
    <g clip-path="url(#p8dcb48547e)">
     <use style="fill:#00bfbf;" x="125.055402" xlink:href="#C1_0_455a046c6d" y="259.158907"/>
    </g>
    <g clip-path="url(#p8dcb48547e)">
     <use style="fill:#00bfbf;" x="147.62415" xlink:href="#C1_0_455a046c6d" y="233.387751"/>
    </g>
    <g clip-path="url(#p8dcb48547e)">
     <use style="fill:#00bfbf;" x="84.633701" xlink:href="#C1_0_455a046c6d" y="278.979718"/>
    </g>
    <g clip-path="url(#p8dcb48547e)">
     <use style="fill:#00bfbf;" x="190.650157" xlink:href="#C1_0_455a046c6d" y="239.770204"/>
    </g>
    <g clip-path="url(#p8dcb48547e)">
     <use style="fill:#00bfbf;" x="94.157061" xlink:href="#C1_0_455a046c6d" y="273.948141"/>
    </g>
    <g clip-path="url(#p8dcb48547e)">
     <use style="fill:#00bfbf;" x="100.582184" xlink:href="#C1_0_455a046c6d" y="273.03282"/>
    </g>
    <g clip-path="url(#p8dcb48547e)">
     <use style="fill:#00bfbf;" x="178.900623" xlink:href="#C1_0_455a046c6d" y="224.208772"/>
    </g>
    <g clip-path="url(#p8dcb48547e)">
     <use style="fill:#00bfbf;" x="110.895477" xlink:href="#C1_0_455a046c6d" y="260.007345"/>
    </g>
    <g clip-path="url(#p8dcb48547e)">
     <use style="fill:#00bfbf;" x="83.323541" xlink:href="#C1_0_455a046c6d" y="266.691162"/>
    </g>
    <g clip-path="url(#p8dcb48547e)">
     <use style="fill:#00bfbf;" x="194.352453" xlink:href="#C1_0_455a046c6d" y="252.722777"/>
    </g>
    <g clip-path="url(#p8dcb48547e)">
     <use style="fill:#00bfbf;" x="159.02634" xlink:href="#C1_0_455a046c6d" y="234.668187"/>
    </g>
    <g clip-path="url(#p8dcb48547e)">
     <use style="fill:#00bfbf;" x="83.62991" xlink:href="#C1_0_455a046c6d" y="280.383878"/>
    </g>
    <g clip-path="url(#p8dcb48547e)">
     <use style="fill:#00bfbf;" x="91.762669" xlink:href="#C1_0_455a046c6d" y="269.449069"/>
    </g>
    <g clip-path="url(#p8dcb48547e)">
     <use style="fill:#00bfbf;" x="192.734446" xlink:href="#C1_0_455a046c6d" y="235.72881"/>
    </g>
    <g clip-path="url(#p8dcb48547e)">
     <use style="fill:#00bfbf;" x="108.496009" xlink:href="#C1_0_455a046c6d" y="266.490717"/>
    </g>
    <g clip-path="url(#p8dcb48547e)">
     <use style="fill:#00bfbf;" x="92.966235" xlink:href="#C1_0_455a046c6d" y="267.807685"/>
    </g>
    <g clip-path="url(#p8dcb48547e)">
     <use style="fill:#00bfbf;" x="81.11823" xlink:href="#C1_0_455a046c6d" y="281.948181"/>
    </g>
    <g clip-path="url(#p8dcb48547e)">
     <use style="fill:#00bfbf;" x="98.743596" xlink:href="#C1_0_455a046c6d" y="269.536152"/>
    </g>
    <g clip-path="url(#p8dcb48547e)">
     <use style="fill:#00bfbf;" x="93.986257" xlink:href="#C1_0_455a046c6d" y="258.64278"/>
    </g>
    <g clip-path="url(#p8dcb48547e)">
     <use style="fill:#00bfbf;" x="158.534377" xlink:href="#C1_0_455a046c6d" y="229.788789"/>
    </g>
    <g clip-path="url(#p8dcb48547e)">
     <use style="fill:#00bfbf;" x="137.020035" xlink:href="#C1_0_455a046c6d" y="271.150761"/>
    </g>
    <g clip-path="url(#p8dcb48547e)">
     <use style="fill:#00bfbf;" x="87.207236" xlink:href="#C1_0_455a046c6d" y="277.411731"/>
    </g>
    <g clip-path="url(#p8dcb48547e)">
     <use style="fill:#00bfbf;" x="159.530966" xlink:href="#C1_0_455a046c6d" y="229.125771"/>
    </g>
    <g clip-path="url(#p8dcb48547e)">
     <use style="fill:#00bfbf;" x="90.500851" xlink:href="#C1_0_455a046c6d" y="275.782925"/>
    </g>
    <g clip-path="url(#p8dcb48547e)">
     <use style="fill:#00bfbf;" x="138.8124" xlink:href="#C1_0_455a046c6d" y="250.26649"/>
    </g>
    <g clip-path="url(#p8dcb48547e)">
     <use style="fill:#00bfbf;" x="86.299551" xlink:href="#C1_0_455a046c6d" y="286.451194"/>
    </g>
    <g clip-path="url(#p8dcb48547e)">
     <use style="fill:#00bfbf;" x="192.257755" xlink:href="#C1_0_455a046c6d" y="258.538172"/>
    </g>
    <g clip-path="url(#p8dcb48547e)">
     <use style="fill:#00bfbf;" x="206.996132" xlink:href="#C1_0_455a046c6d" y="254.266473"/>
    </g>
    <g clip-path="url(#p8dcb48547e)">
     <use style="fill:#00bfbf;" x="93.117435" xlink:href="#C1_0_455a046c6d" y="275.766659"/>
    </g>
    <g clip-path="url(#p8dcb48547e)">
     <use style="fill:#00bfbf;" x="130.627806" xlink:href="#C1_0_455a046c6d" y="238.904238"/>
    </g>
    <g clip-path="url(#p8dcb48547e)">
     <use style="fill:#00bfbf;" x="183.937301" xlink:href="#C1_0_455a046c6d" y="239.440843"/>
    </g>
    <g clip-path="url(#p8dcb48547e)">
     <use style="fill:#00bfbf;" x="165.617612" xlink:href="#C1_0_455a046c6d" y="230.925411"/>
    </g>
    <g clip-path="url(#p8dcb48547e)">
     <use style="fill:#00bfbf;" x="140.041206" xlink:href="#C1_0_455a046c6d" y="252.041714"/>
    </g>
    <g clip-path="url(#p8dcb48547e)">
     <use style="fill:#00bfbf;" x="196.618618" xlink:href="#C1_0_455a046c6d" y="245.541324"/>
    </g>
    <g clip-path="url(#p8dcb48547e)">
     <use style="fill:#00bfbf;" x="81.884152" xlink:href="#C1_0_455a046c6d" y="266.59238"/>
    </g>
    <g clip-path="url(#p8dcb48547e)">
     <use style="fill:#00bfbf;" x="201.054238" xlink:href="#C1_0_455a046c6d" y="213.585056"/>
    </g>
    <g clip-path="url(#p8dcb48547e)">
     <use style="fill:#00bfbf;" x="105.226721" xlink:href="#C1_0_455a046c6d" y="263.943529"/>
    </g>
    <g clip-path="url(#p8dcb48547e)">
     <use style="fill:#00bfbf;" x="132.531858" xlink:href="#C1_0_455a046c6d" y="265.443812"/>
    </g>
    <g clip-path="url(#p8dcb48547e)">
     <use style="fill:#00bfbf;" x="162.398692" xlink:href="#C1_0_455a046c6d" y="251.292817"/>
    </g>
    <g clip-path="url(#p8dcb48547e)">
     <use style="fill:#00bfbf;" x="118.702388" xlink:href="#C1_0_455a046c6d" y="270.302945"/>
    </g>
    <g clip-path="url(#p8dcb48547e)">
     <use style="fill:#00bfbf;" x="134.722215" xlink:href="#C1_0_455a046c6d" y="251.632292"/>
    </g>
    <g clip-path="url(#p8dcb48547e)">
     <use style="fill:#00bfbf;" x="165.989411" xlink:href="#C1_0_455a046c6d" y="258.046835"/>
    </g>
    <g clip-path="url(#p8dcb48547e)">
     <use style="fill:#00bfbf;" x="188.156471" xlink:href="#C1_0_455a046c6d" y="232.665739"/>
    </g>
    <g clip-path="url(#p8dcb48547e)">
     <use style="fill:#00bfbf;" x="133.390317" xlink:href="#C1_0_455a046c6d" y="249.494274"/>
    </g>
    <g clip-path="url(#p8dcb48547e)">
     <use style="fill:#00bfbf;" x="205.545593" xlink:href="#C1_0_455a046c6d" y="239.1475"/>
    </g>
    <g clip-path="url(#p8dcb48547e)">
     <use style="fill:#00bfbf;" x="85.555475" xlink:href="#C1_0_455a046c6d" y="282.251637"/>
    </g>
    <g clip-path="url(#p8dcb48547e)">
     <use style="fill:#00bfbf;" x="160.027398" xlink:href="#C1_0_455a046c6d" y="241.651268"/>
    </g>
    <g clip-path="url(#p8dcb48547e)">
     <use style="fill:#00bfbf;" x="128.46666" xlink:href="#C1_0_455a046c6d" y="247.953077"/>
    </g>
    <g clip-path="url(#p8dcb48547e)">
     <use style="fill:#00bfbf;" x="112.682912" xlink:href="#C1_0_455a046c6d" y="270.909497"/>
    </g>
    <g clip-path="url(#p8dcb48547e)">
     <use style="fill:#00bfbf;" x="130.911163" xlink:href="#C1_0_455a046c6d" y="253.79597"/>
    </g>
    <g clip-path="url(#p8dcb48547e)">
     <use style="fill:#00bfbf;" x="79.873746" xlink:href="#C1_0_455a046c6d" y="269.462997"/>
    </g>
    <g clip-path="url(#p8dcb48547e)">
     <use style="fill:#00bfbf;" x="84.681143" xlink:href="#C1_0_455a046c6d" y="274.530614"/>
    </g>
    <g clip-path="url(#p8dcb48547e)">
     <use style="fill:#00bfbf;" x="156.928026" xlink:href="#C1_0_455a046c6d" y="228.550435"/>
    </g>
    <g clip-path="url(#p8dcb48547e)">
     <use style="fill:#00bfbf;" x="195.680263" xlink:href="#C1_0_455a046c6d" y="235.089207"/>
    </g>
   </g>
   <g id="patch_13">
    <path d="M 59.07 307.14 
L 59.07 192.89625 
" style="fill:none;stroke:#262626;stroke-linecap:square;stroke-linejoin:miter;stroke-width:1.25;"/>
   </g>
   <g id="patch_14">
    <path d="M 225.089256 307.14 
L 225.089256 192.89625 
" style="fill:none;stroke:#262626;stroke-linecap:square;stroke-linejoin:miter;stroke-width:1.25;"/>
   </g>
   <g id="patch_15">
    <path d="M 59.07 307.14 
L 225.089256 307.14 
" style="fill:none;stroke:#262626;stroke-linecap:square;stroke-linejoin:miter;stroke-width:1.25;"/>
   </g>
   <g id="patch_16">
    <path d="M 59.07 192.89625 
L 225.089256 192.89625 
" style="fill:none;stroke:#262626;stroke-linecap:square;stroke-linejoin:miter;stroke-width:1.25;"/>
   </g>
   <g id="text_36">
    <!-- E vs O plot -->
    <g style="fill:#262626;" transform="translate(112.736816 186.89625)scale(0.12 -0.12)">
     <use xlink:href="#ArialMT-45"/>
     <use x="66.699219" xlink:href="#ArialMT-20"/>
     <use x="94.482422" xlink:href="#ArialMT-76"/>
     <use x="144.482422" xlink:href="#ArialMT-73"/>
     <use x="194.482422" xlink:href="#ArialMT-20"/>
     <use x="222.265625" xlink:href="#ArialMT-4f"/>
     <use x="300.048828" xlink:href="#ArialMT-20"/>
     <use x="327.832031" xlink:href="#ArialMT-70"/>
     <use x="383.447266" xlink:href="#ArialMT-6c"/>
     <use x="405.664062" xlink:href="#ArialMT-6f"/>
     <use x="461.279297" xlink:href="#ArialMT-74"/>
    </g>
   </g>
   <g id="legend_3">
    <g id="PathCollection_9">
     <path d="M 70.47 204.015937 
C 71.265609 204.015937 72.02874 203.699839 72.59132 203.137258 
C 73.153901 202.574677 73.47 201.811547 73.47 201.015937 
C 73.47 200.220328 73.153901 199.457198 72.59132 198.894617 
C 72.02874 198.332036 71.265609 198.015937 70.47 198.015937 
C 69.674391 198.015937 68.91126 198.332036 68.34868 198.894617 
C 67.786099 199.457198 67.47 200.220328 67.47 201.015937 
C 67.47 201.811547 67.786099 202.574677 68.34868 203.137258 
C 68.91126 203.699839 69.674391 204.015937 70.47 204.015937 
z
" style="fill:#008000;"/>
    </g>
    <g id="text_37">
     <!-- Gabazine -->
     <g style="fill:#262626;" transform="translate(81.27 202.590937)scale(0.06 -0.06)">
      <use xlink:href="#ArialMT-47"/>
      <use x="77.783203" xlink:href="#ArialMT-61"/>
      <use x="133.398438" xlink:href="#ArialMT-62"/>
      <use x="189.013672" xlink:href="#ArialMT-61"/>
      <use x="244.628906" xlink:href="#ArialMT-7a"/>
      <use x="294.628906" xlink:href="#ArialMT-69"/>
      <use x="316.845703" xlink:href="#ArialMT-6e"/>
      <use x="372.460938" xlink:href="#ArialMT-65"/>
     </g>
    </g>
    <g id="PathCollection_10">
     <path d="M 70.47 212.503125 
C 71.265609 212.503125 72.02874 212.187026 72.59132 211.624445 
C 73.153901 211.061865 73.47 210.298734 73.47 209.503125 
C 73.47 208.707516 73.153901 207.944385 72.59132 207.381805 
C 72.02874 206.819224 71.265609 206.503125 70.47 206.503125 
C 69.674391 206.503125 68.91126 206.819224 68.34868 207.381805 
C 67.786099 207.944385 67.47 208.707516 67.47 209.503125 
C 67.47 210.298734 67.786099 211.061865 68.34868 211.624445 
C 68.91126 212.187026 69.674391 212.503125 70.47 212.503125 
z
" style="fill:#00bfbf;"/>
    </g>
    <g id="text_38">
     <!-- Control -->
     <g style="fill:#262626;" transform="translate(81.27 211.078125)scale(0.06 -0.06)">
      <use xlink:href="#ArialMT-43"/>
      <use x="72.216797" xlink:href="#ArialMT-6f"/>
      <use x="127.832031" xlink:href="#ArialMT-6e"/>
      <use x="183.447266" xlink:href="#ArialMT-74"/>
      <use x="211.230469" xlink:href="#ArialMT-72"/>
      <use x="244.53125" xlink:href="#ArialMT-6f"/>
      <use x="300.146484" xlink:href="#ArialMT-6c"/>
     </g>
    </g>
   </g>
  </g>
  <g id="axes_4">
   <g id="patch_17">
    <path d="M 278.849256 307.14 
L 444.868512 307.14 
L 444.868512 192.89625 
L 278.849256 192.89625 
z
" style="fill:#ffffff;"/>
   </g>
   <g id="matplotlib.axis_7">
    <g id="xtick_14">
     <g id="line2d_25"/>
     <g id="text_39">
      <!-- −0.050 -->
      <g style="fill:#262626;" transform="translate(270.964336 317.797812)scale(0.1 -0.1)">
       <use xlink:href="#ArialMT-2212"/>
       <use x="58.398438" xlink:href="#ArialMT-30"/>
       <use x="114.013672" xlink:href="#ArialMT-2e"/>
       <use x="141.796875" xlink:href="#ArialMT-30"/>
       <use x="197.412109" xlink:href="#ArialMT-35"/>
       <use x="253.027344" xlink:href="#ArialMT-30"/>
      </g>
     </g>
    </g>
    <g id="xtick_15">
     <g id="line2d_26"/>
     <g id="text_40">
      <!-- −0.025 -->
      <g style="fill:#262626;" transform="translate(308.695985 317.797812)scale(0.1 -0.1)">
       <use xlink:href="#ArialMT-2212"/>
       <use x="58.398438" xlink:href="#ArialMT-30"/>
       <use x="114.013672" xlink:href="#ArialMT-2e"/>
       <use x="141.796875" xlink:href="#ArialMT-30"/>
       <use x="197.412109" xlink:href="#ArialMT-32"/>
       <use x="253.027344" xlink:href="#ArialMT-35"/>
      </g>
     </g>
    </g>
    <g id="xtick_16">
     <g id="line2d_27"/>
     <g id="text_41">
      <!-- 0.000 -->
      <g style="fill:#262626;" transform="translate(349.347947 317.797812)scale(0.1 -0.1)">
       <use xlink:href="#ArialMT-30"/>
       <use x="55.615234" xlink:href="#ArialMT-2e"/>
       <use x="83.398438" xlink:href="#ArialMT-30"/>
       <use x="139.013672" xlink:href="#ArialMT-30"/>
       <use x="194.628906" xlink:href="#ArialMT-30"/>
      </g>
     </g>
    </g>
    <g id="xtick_17">
     <g id="line2d_28"/>
     <g id="text_42">
      <!-- 0.025 -->
      <g style="fill:#262626;" transform="translate(387.079596 317.797812)scale(0.1 -0.1)">
       <use xlink:href="#ArialMT-30"/>
       <use x="55.615234" xlink:href="#ArialMT-2e"/>
       <use x="83.398438" xlink:href="#ArialMT-30"/>
       <use x="139.013672" xlink:href="#ArialMT-32"/>
       <use x="194.628906" xlink:href="#ArialMT-35"/>
      </g>
     </g>
    </g>
    <g id="xtick_18">
     <g id="line2d_29"/>
     <g id="text_43">
      <!-- 0.050 -->
      <g style="fill:#262626;" transform="translate(424.811245 317.797812)scale(0.1 -0.1)">
       <use xlink:href="#ArialMT-30"/>
       <use x="55.615234" xlink:href="#ArialMT-2e"/>
       <use x="83.398438" xlink:href="#ArialMT-30"/>
       <use x="139.013672" xlink:href="#ArialMT-35"/>
       <use x="194.628906" xlink:href="#ArialMT-30"/>
      </g>
     </g>
    </g>
    <g id="text_44">
     <!-- GABAzine -->
     <g style="fill:#262626;" transform="translate(338.792478 330.943125)scale(0.1 -0.1)">
      <use xlink:href="#ArialMT-47"/>
      <use x="77.783203" xlink:href="#ArialMT-41"/>
      <use x="144.482422" xlink:href="#ArialMT-42"/>
      <use x="211.181641" xlink:href="#ArialMT-41"/>
      <use x="277.880859" xlink:href="#ArialMT-7a"/>
      <use x="327.880859" xlink:href="#ArialMT-69"/>
      <use x="350.097656" xlink:href="#ArialMT-6e"/>
      <use x="405.712891" xlink:href="#ArialMT-65"/>
     </g>
    </g>
   </g>
   <g id="matplotlib.axis_8">
    <g id="ytick_12">
     <g id="line2d_30"/>
     <g id="text_45">
      <!-- −0.050 -->
      <g style="fill:#262626;" transform="translate(244.486756 305.526009)scale(0.1 -0.1)">
       <use xlink:href="#ArialMT-2212"/>
       <use x="58.398438" xlink:href="#ArialMT-30"/>
       <use x="114.013672" xlink:href="#ArialMT-2e"/>
       <use x="141.796875" xlink:href="#ArialMT-30"/>
       <use x="197.412109" xlink:href="#ArialMT-35"/>
       <use x="253.027344" xlink:href="#ArialMT-30"/>
      </g>
     </g>
    </g>
    <g id="ytick_13">
     <g id="line2d_31"/>
     <g id="text_46">
      <!-- −0.025 -->
      <g style="fill:#262626;" transform="translate(244.486756 279.56152)scale(0.1 -0.1)">
       <use xlink:href="#ArialMT-2212"/>
       <use x="58.398438" xlink:href="#ArialMT-30"/>
       <use x="114.013672" xlink:href="#ArialMT-2e"/>
       <use x="141.796875" xlink:href="#ArialMT-30"/>
       <use x="197.412109" xlink:href="#ArialMT-32"/>
       <use x="253.027344" xlink:href="#ArialMT-35"/>
      </g>
     </g>
    </g>
    <g id="ytick_14">
     <g id="line2d_32"/>
     <g id="text_47">
      <!-- 0.000 -->
      <g style="fill:#262626;" transform="translate(250.327381 253.597031)scale(0.1 -0.1)">
       <use xlink:href="#ArialMT-30"/>
       <use x="55.615234" xlink:href="#ArialMT-2e"/>
       <use x="83.398438" xlink:href="#ArialMT-30"/>
       <use x="139.013672" xlink:href="#ArialMT-30"/>
       <use x="194.628906" xlink:href="#ArialMT-30"/>
      </g>
     </g>
    </g>
    <g id="ytick_15">
     <g id="line2d_33"/>
     <g id="text_48">
      <!-- 0.025 -->
      <g style="fill:#262626;" transform="translate(250.327381 227.632543)scale(0.1 -0.1)">
       <use xlink:href="#ArialMT-30"/>
       <use x="55.615234" xlink:href="#ArialMT-2e"/>
       <use x="83.398438" xlink:href="#ArialMT-30"/>
       <use x="139.013672" xlink:href="#ArialMT-32"/>
       <use x="194.628906" xlink:href="#ArialMT-35"/>
      </g>
     </g>
    </g>
    <g id="ytick_16">
     <g id="line2d_34"/>
     <g id="text_49">
      <!-- 0.050 -->
      <g style="fill:#262626;" transform="translate(250.327381 201.668054)scale(0.1 -0.1)">
       <use xlink:href="#ArialMT-30"/>
       <use x="55.615234" xlink:href="#ArialMT-2e"/>
       <use x="83.398438" xlink:href="#ArialMT-30"/>
       <use x="139.013672" xlink:href="#ArialMT-35"/>
       <use x="194.628906" xlink:href="#ArialMT-30"/>
      </g>
     </g>
    </g>
    <g id="text_50">
     <!-- Control -->
     <g style="fill:#262626;" transform="translate(238.499256 266.135312)rotate(-90)scale(0.1 -0.1)">
      <use xlink:href="#ArialMT-43"/>
      <use x="72.216797" xlink:href="#ArialMT-6f"/>
      <use x="127.832031" xlink:href="#ArialMT-6e"/>
      <use x="183.447266" xlink:href="#ArialMT-74"/>
      <use x="211.230469" xlink:href="#ArialMT-72"/>
      <use x="244.53125" xlink:href="#ArialMT-6f"/>
      <use x="300.146484" xlink:href="#ArialMT-6c"/>
     </g>
    </g>
   </g>
   <g id="PathCollection_11">
    <path clip-path="url(#p49173c0dd5)" d="M 0 348.6 
C 0.795609 348.6 1.55874 348.283901 2.12132 347.72132 
C 2.683901 347.15874 3 346.395609 3 345.6 
C 3 344.804391 2.683901 344.04126 2.12132 343.47868 
C 1.55874 342.916099 0.795609 342.6 0 342.6 
C -0.795609 342.6 -1.55874 342.916099 -2.12132 343.47868 
C -2.683901 344.04126 -3 344.804391 -3 345.6 
C -3 346.395609 -2.683901 347.15874 -2.12132 347.72132 
C -1.55874 348.283901 -0.795609 348.6 0 348.6 
z
" style="fill:#bf00bf;"/>
   </g>
   <g id="patch_18">
    <path d="M 278.849256 307.14 
L 278.849256 192.89625 
" style="fill:none;stroke:#262626;stroke-linecap:square;stroke-linejoin:miter;stroke-width:1.25;"/>
   </g>
   <g id="patch_19">
    <path d="M 444.868512 307.14 
L 444.868512 192.89625 
" style="fill:none;stroke:#262626;stroke-linecap:square;stroke-linejoin:miter;stroke-width:1.25;"/>
   </g>
   <g id="patch_20">
    <path d="M 278.849256 307.14 
L 444.868512 307.14 
" style="fill:none;stroke:#262626;stroke-linecap:square;stroke-linejoin:miter;stroke-width:1.25;"/>
   </g>
   <g id="patch_21">
    <path d="M 278.849256 192.89625 
L 444.868512 192.89625 
" style="fill:none;stroke:#262626;stroke-linecap:square;stroke-linejoin:miter;stroke-width:1.25;"/>
   </g>
   <g id="text_51">
    <!-- G vs C plot -->
    <g style="fill:#262626;" transform="translate(332.185134 186.89625)scale(0.12 -0.12)">
     <use xlink:href="#ArialMT-47"/>
     <use x="77.783203" xlink:href="#ArialMT-20"/>
     <use x="105.566406" xlink:href="#ArialMT-76"/>
     <use x="155.566406" xlink:href="#ArialMT-73"/>
     <use x="205.566406" xlink:href="#ArialMT-20"/>
     <use x="233.349609" xlink:href="#ArialMT-43"/>
     <use x="305.566406" xlink:href="#ArialMT-20"/>
     <use x="333.349609" xlink:href="#ArialMT-70"/>
     <use x="388.964844" xlink:href="#ArialMT-6c"/>
     <use x="411.181641" xlink:href="#ArialMT-6f"/>
     <use x="466.796875" xlink:href="#ArialMT-74"/>
    </g>
   </g>
   <g id="legend_4">
    <g id="PathCollection_12">
     <path d="M 290.249256 204.015937 
C 291.044865 204.015937 291.807996 203.699839 292.370577 203.137258 
C 292.933157 202.574677 293.249256 201.811547 293.249256 201.015937 
C 293.249256 200.220328 292.933157 199.457198 292.370577 198.894617 
C 291.807996 198.332036 291.044865 198.015937 290.249256 198.015937 
C 289.453647 198.015937 288.690517 198.332036 288.127936 198.894617 
C 287.565355 199.457198 287.249256 200.220328 287.249256 201.015937 
C 287.249256 201.811547 287.565355 202.574677 288.127936 203.137258 
C 288.690517 203.699839 289.453647 204.015937 290.249256 204.015937 
z
" style="fill:#bf00bf;"/>
    </g>
    <g id="text_52">
     <!-- Observed -->
     <g style="fill:#262626;" transform="translate(301.049256 202.590937)scale(0.06 -0.06)">
      <use xlink:href="#ArialMT-4f"/>
      <use x="77.783203" xlink:href="#ArialMT-62"/>
      <use x="133.398438" xlink:href="#ArialMT-73"/>
      <use x="183.398438" xlink:href="#ArialMT-65"/>
      <use x="239.013672" xlink:href="#ArialMT-72"/>
      <use x="272.314453" xlink:href="#ArialMT-76"/>
      <use x="322.314453" xlink:href="#ArialMT-65"/>
      <use x="377.929688" xlink:href="#ArialMT-64"/>
     </g>
    </g>
   </g>
  </g>
  <g id="text_53">
   <!-- 170208 c3  -->
   <defs>
    <path d="M 4.734375 62.203125 
L 4.734375 70.65625 
L 51.078125 70.65625 
L 51.078125 63.8125 
Q 44.234375 56.546875 37.515625 44.484375 
Q 30.8125 32.421875 27.15625 19.671875 
Q 24.515625 10.6875 23.78125 0 
L 14.75 0 
Q 14.890625 8.453125 18.0625 20.40625 
Q 21.234375 32.375 27.171875 43.484375 
Q 33.109375 54.59375 39.796875 62.203125 
z
" id="ArialMT-37"/>
    <path d="M 40.4375 19 
L 49.078125 17.875 
Q 47.65625 8.9375 41.8125 3.875 
Q 35.984375 -1.171875 27.484375 -1.171875 
Q 16.84375 -1.171875 10.375 5.78125 
Q 3.90625 12.75 3.90625 25.734375 
Q 3.90625 34.125 6.6875 40.421875 
Q 9.46875 46.734375 15.15625 49.875 
Q 20.84375 53.03125 27.546875 53.03125 
Q 35.984375 53.03125 41.359375 48.75 
Q 46.734375 44.484375 48.25 36.625 
L 39.703125 35.296875 
Q 38.484375 40.53125 35.375 43.15625 
Q 32.28125 45.796875 27.875 45.796875 
Q 21.234375 45.796875 17.078125 41.03125 
Q 12.9375 36.28125 12.9375 25.984375 
Q 12.9375 15.53125 16.9375 10.796875 
Q 20.953125 6.0625 27.390625 6.0625 
Q 32.5625 6.0625 36.03125 9.234375 
Q 39.5 12.40625 40.4375 19 
" id="ArialMT-63"/>
    <path d="M 4.203125 18.890625 
L 12.984375 20.0625 
Q 14.5 12.59375 18.140625 9.296875 
Q 21.78125 6 27 6 
Q 33.203125 6 37.46875 10.296875 
Q 41.75 14.59375 41.75 20.953125 
Q 41.75 27 37.796875 30.921875 
Q 33.84375 34.859375 27.734375 34.859375 
Q 25.25 34.859375 21.53125 33.890625 
L 22.515625 41.609375 
Q 23.390625 41.5 23.921875 41.5 
Q 29.546875 41.5 34.03125 44.421875 
Q 38.53125 47.359375 38.53125 53.46875 
Q 38.53125 58.296875 35.25 61.46875 
Q 31.984375 64.65625 26.8125 64.65625 
Q 21.6875 64.65625 18.265625 61.421875 
Q 14.84375 58.203125 13.875 51.765625 
L 5.078125 53.328125 
Q 6.6875 62.15625 12.390625 67.015625 
Q 18.109375 71.875 26.609375 71.875 
Q 32.46875 71.875 37.390625 69.359375 
Q 42.328125 66.84375 44.9375 62.5 
Q 47.5625 58.15625 47.5625 53.265625 
Q 47.5625 48.640625 45.0625 44.828125 
Q 42.578125 41.015625 37.703125 38.765625 
Q 44.046875 37.3125 47.5625 32.6875 
Q 51.078125 28.078125 51.078125 21.140625 
Q 51.078125 11.765625 44.234375 5.25 
Q 37.40625 -1.265625 26.953125 -1.265625 
Q 17.53125 -1.265625 11.296875 4.34375 
Q 5.078125 9.96875 4.203125 18.890625 
" id="ArialMT-33"/>
   </defs>
   <g style="fill:#262626;" transform="translate(200.710313 15.501375)scale(0.12 -0.12)">
    <use xlink:href="#ArialMT-31"/>
    <use x="55.615234" xlink:href="#ArialMT-37"/>
    <use x="111.230469" xlink:href="#ArialMT-30"/>
    <use x="166.845703" xlink:href="#ArialMT-32"/>
    <use x="222.460938" xlink:href="#ArialMT-30"/>
    <use x="278.076172" xlink:href="#ArialMT-38"/>
    <use x="333.691406" xlink:href="#ArialMT-20"/>
    <use x="361.474609" xlink:href="#ArialMT-63"/>
    <use x="411.474609" xlink:href="#ArialMT-33"/>
    <use x="467.089844" xlink:href="#ArialMT-20"/>
   </g>
  </g>
 </g>
 <defs>
  <clipPath id="pd89f7b9c35">
   <rect height="114.24375" width="166.019256" x="59.07" y="25.49625"/>
  </clipPath>
  <clipPath id="p4c67090cd6">
   <rect height="114.24375" width="166.019256" x="278.849256" y="25.49625"/>
  </clipPath>
  <clipPath id="p8dcb48547e">
   <rect height="114.24375" width="166.019256" x="59.07" y="192.89625"/>
  </clipPath>
  <clipPath id="p49173c0dd5">
   <rect height="114.24375" width="166.019256" x="278.849256" y="192.89625"/>
  </clipPath>
 </defs>
</svg>
